<svg xmlns="http://www.w3.org/2000/svg" xmlns:xlink="http://www.w3.org/1999/xlink" version="1.1" x="0px" y="0px" width="296.979px" height="151.139px" viewBox="0 0 296.979 151.139" enable-background="new 0 0 296.979 151.139" xml:space="preserve">
<g id="wide" display="none">
</g>
<g id="text_column">
</g>
<g id="art">
	<g>
		<g>
			
				<line fill="none" stroke="#A7A9AC" stroke-width="0.5" stroke-linejoin="round" x1="37.505" y1="41.624" x2="38.505" y2="41.624"/>
			
				<line fill="none" stroke="#A7A9AC" stroke-width="0.5" stroke-linejoin="round" stroke-dasharray="1.9999,1.9999" x1="40.505" y1="41.624" x2="287.493" y2="41.624"/>
			
				<line fill="none" stroke="#A7A9AC" stroke-width="0.5" stroke-linejoin="round" x1="288.493" y1="41.624" x2="289.493" y2="41.624"/>
		</g>
	</g>
	<g>
		<g>
			
				<line fill="none" stroke="#A7A9AC" stroke-width="0.5" stroke-linejoin="round" x1="37.505" y1="119.908" x2="38.505" y2="119.908"/>
			
				<line fill="none" stroke="#A7A9AC" stroke-width="0.5" stroke-linejoin="round" stroke-dasharray="1.9999,1.9999" x1="40.505" y1="119.908" x2="287.493" y2="119.908"/>
			
				<line fill="none" stroke="#A7A9AC" stroke-width="0.5" stroke-linejoin="round" x1="288.493" y1="119.908" x2="289.493" y2="119.908"/>
		</g>
	</g>
	<g>
		<g>
			
				<line fill="none" stroke="#A7A9AC" stroke-width="0.5" stroke-linejoin="round" x1="37.505" y1="80.766" x2="38.505" y2="80.766"/>
			
				<line fill="none" stroke="#A7A9AC" stroke-width="0.5" stroke-linejoin="round" stroke-dasharray="1.9999,1.9999" x1="40.505" y1="80.766" x2="287.493" y2="80.766"/>
			
				<line fill="none" stroke="#A7A9AC" stroke-width="0.5" stroke-linejoin="round" x1="288.493" y1="80.766" x2="289.493" y2="80.766"/>
		</g>
	</g>
	<g>
		<g>
			
				<line fill="none" stroke="#A7A9AC" stroke-width="0.5" stroke-linejoin="round" x1="37.505" y1="22.052" x2="38.505" y2="22.052"/>
			
				<line fill="none" stroke="#A7A9AC" stroke-width="0.5" stroke-linejoin="round" stroke-dasharray="1.9999,1.9999" x1="40.505" y1="22.052" x2="287.493" y2="22.052"/>
			
				<line fill="none" stroke="#A7A9AC" stroke-width="0.5" stroke-linejoin="round" x1="288.493" y1="22.052" x2="289.493" y2="22.052"/>
		</g>
	</g>
	<g>
		<g>
			
				<line fill="none" stroke="#A7A9AC" stroke-width="0.5" stroke-linejoin="round" x1="37.505" y1="100.337" x2="38.505" y2="100.337"/>
			
				<line fill="none" stroke="#A7A9AC" stroke-width="0.5" stroke-linejoin="round" stroke-dasharray="1.9999,1.9999" x1="40.505" y1="100.337" x2="287.493" y2="100.337"/>
			
				<line fill="none" stroke="#A7A9AC" stroke-width="0.5" stroke-linejoin="round" x1="288.493" y1="100.337" x2="289.493" y2="100.337"/>
		</g>
	</g>
	<g>
		<g>
			
				<line fill="none" stroke="#A7A9AC" stroke-width="0.5" stroke-linejoin="round" x1="37.505" y1="61.195" x2="38.505" y2="61.195"/>
			
				<line fill="none" stroke="#A7A9AC" stroke-width="0.5" stroke-linejoin="round" stroke-dasharray="1.9999,1.9999" x1="40.505" y1="61.195" x2="287.493" y2="61.195"/>
			
				<line fill="none" stroke="#A7A9AC" stroke-width="0.5" stroke-linejoin="round" x1="288.493" y1="61.195" x2="289.493" y2="61.195"/>
		</g>
	</g>
	<g>
		<g>
			
				<line fill="none" stroke="#A7A9AC" stroke-width="0.5" stroke-linejoin="round" x1="213.954" y1="2.562" x2="213.954" y2="3.562"/>
			
				<line fill="none" stroke="#A7A9AC" stroke-width="0.5" stroke-linejoin="round" stroke-dasharray="2.0125,2.0125" x1="213.954" y1="5.574" x2="213.954" y2="137.392"/>
			
				<line fill="none" stroke="#A7A9AC" stroke-width="0.5" stroke-linejoin="round" x1="213.954" y1="138.398" x2="213.954" y2="139.398"/>
		</g>
	</g>
	<g>
		<g>
			
				<line fill="none" stroke="#A7A9AC" stroke-width="0.5" stroke-linejoin="round" x1="113.158" y1="2.562" x2="113.158" y2="3.562"/>
			
				<line fill="none" stroke="#A7A9AC" stroke-width="0.5" stroke-linejoin="round" stroke-dasharray="2.0125,2.0125" x1="113.158" y1="5.574" x2="113.158" y2="137.392"/>
			
				<line fill="none" stroke="#A7A9AC" stroke-width="0.5" stroke-linejoin="round" x1="113.158" y1="138.398" x2="113.158" y2="139.398"/>
		</g>
	</g>
	<g>
		<g>
			<line fill="none" stroke="#A7A9AC" stroke-width="0.5" stroke-linejoin="round" x1="62.76" y1="2.562" x2="62.76" y2="3.562"/>
			
				<line fill="none" stroke="#A7A9AC" stroke-width="0.5" stroke-linejoin="round" stroke-dasharray="2.0125,2.0125" x1="62.76" y1="5.574" x2="62.76" y2="137.392"/>
			
				<line fill="none" stroke="#A7A9AC" stroke-width="0.5" stroke-linejoin="round" x1="62.76" y1="138.398" x2="62.76" y2="139.398"/>
		</g>
	</g>
	<g>
		<g>
			
				<line fill="none" stroke="#A7A9AC" stroke-width="0.5" stroke-linejoin="round" x1="264.352" y1="2.562" x2="264.352" y2="3.562"/>
			
				<line fill="none" stroke="#A7A9AC" stroke-width="0.5" stroke-linejoin="round" stroke-dasharray="2.0125,2.0125" x1="264.352" y1="5.574" x2="264.352" y2="137.392"/>
			
				<line fill="none" stroke="#A7A9AC" stroke-width="0.5" stroke-linejoin="round" x1="264.352" y1="138.398" x2="264.352" y2="139.398"/>
		</g>
	</g>
	<g>
		<g>
			
				<line fill="none" stroke="#A7A9AC" stroke-width="0.5" stroke-linejoin="round" x1="163.556" y1="2.562" x2="163.556" y2="3.562"/>
			
				<line fill="none" stroke="#A7A9AC" stroke-width="0.5" stroke-linejoin="round" stroke-dasharray="2.0125,2.0125" x1="163.556" y1="5.574" x2="163.556" y2="137.392"/>
			
				<line fill="none" stroke="#A7A9AC" stroke-width="0.5" stroke-linejoin="round" x1="163.556" y1="138.398" x2="163.556" y2="139.398"/>
		</g>
	</g>
	<g>
		<g>
			
				<line fill="none" stroke="#A7A9AC" stroke-width="0.5" stroke-linejoin="round" x1="188.755" y1="2.562" x2="188.755" y2="3.562"/>
			
				<line fill="none" stroke="#A7A9AC" stroke-width="0.5" stroke-linejoin="round" stroke-dasharray="2.0125,2.0125" x1="188.755" y1="5.574" x2="188.755" y2="137.392"/>
			
				<line fill="none" stroke="#A7A9AC" stroke-width="0.5" stroke-linejoin="round" x1="188.755" y1="138.398" x2="188.755" y2="139.398"/>
		</g>
	</g>
	<g>
		<g>
			
				<line fill="none" stroke="#A7A9AC" stroke-width="0.5" stroke-linejoin="round" x1="239.153" y1="2.562" x2="239.153" y2="3.562"/>
			
				<line fill="none" stroke="#A7A9AC" stroke-width="0.5" stroke-linejoin="round" stroke-dasharray="2.0125,2.0125" x1="239.153" y1="5.574" x2="239.153" y2="137.392"/>
			
				<line fill="none" stroke="#A7A9AC" stroke-width="0.5" stroke-linejoin="round" x1="239.153" y1="138.398" x2="239.153" y2="139.398"/>
		</g>
	</g>
	<g>
		<g>
			
				<line fill="none" stroke="#A7A9AC" stroke-width="0.5" stroke-linejoin="round" x1="138.357" y1="2.562" x2="138.357" y2="3.562"/>
			
				<line fill="none" stroke="#A7A9AC" stroke-width="0.5" stroke-linejoin="round" stroke-dasharray="2.0125,2.0125" x1="138.357" y1="5.574" x2="138.357" y2="137.392"/>
			
				<line fill="none" stroke="#A7A9AC" stroke-width="0.5" stroke-linejoin="round" x1="138.357" y1="138.398" x2="138.357" y2="139.398"/>
		</g>
	</g>
	<g>
		<g>
			<line fill="none" stroke="#A7A9AC" stroke-width="0.5" stroke-linejoin="round" x1="87.959" y1="2.562" x2="87.959" y2="3.562"/>
			
				<line fill="none" stroke="#A7A9AC" stroke-width="0.5" stroke-linejoin="round" stroke-dasharray="2.0125,2.0125" x1="87.959" y1="5.574" x2="87.959" y2="137.392"/>
			
				<line fill="none" stroke="#A7A9AC" stroke-width="0.5" stroke-linejoin="round" x1="87.959" y1="138.398" x2="87.959" y2="139.398"/>
		</g>
	</g>
	
		<rect x="37.562" y="2.355" fill="none" stroke="#000000" stroke-width="0.5" stroke-linejoin="round" stroke-miterlimit="10" width="251.942" height="137.237"/>
	<g>
		<path d="M5.438,125.595c0.216-0.351,0.396-0.864,0.396-1.404c0-0.801-0.423-1.27-1.035-1.27c-0.567,0-0.891,0.324-1.206,1.144    c-0.352,0.99-0.864,1.603-1.72,1.603c-0.945,0-1.647-0.784-1.647-1.963c0-0.621,0.145-1.071,0.297-1.341l0.64,0.216    c-0.108,0.198-0.288,0.604-0.288,1.152c0,0.829,0.495,1.144,0.909,1.144c0.567,0,0.847-0.369,1.17-1.207    c0.396-1.026,0.892-1.548,1.783-1.548c0.937,0,1.746,0.693,1.746,2.125c0,0.585-0.171,1.225-0.387,1.549L5.438,125.595z"/>
		<path d="M4.177,117.062c1.611,0,2.313,1.117,2.313,2.17c0,1.179-0.864,2.088-2.241,2.088c-1.458,0-2.313-0.954-2.313-2.161    C1.936,117.908,2.845,117.062,4.177,117.062z M4.222,120.519c0.954,0,1.675-0.549,1.675-1.323c0-0.756-0.711-1.323-1.692-1.323    c-0.738,0-1.675,0.369-1.675,1.305C2.529,120.114,3.394,120.519,4.222,120.519z"/>
		<path d="M0,115.992V115.2h6.392v0.792H0z"/>
		<path d="M0,110.053h5.267c0.387,0,0.828-0.009,1.125-0.036v0.711l-0.756,0.036v0.018c0.485,0.243,0.854,0.774,0.854,1.485    c0,1.053-0.891,1.863-2.214,1.863c-1.45,0.009-2.341-0.891-2.341-1.954c0-0.666,0.314-1.116,0.666-1.314v-0.018H0V110.053z     M3.808,110.846c-0.099,0-0.233,0.009-0.333,0.036c-0.504,0.117-0.918,0.549-0.918,1.144c0,0.819,0.72,1.305,1.684,1.305    c0.882,0,1.611-0.432,1.611-1.287c0-0.531-0.352-1.018-0.945-1.162c-0.108-0.027-0.216-0.036-0.342-0.036H3.808z"/>
		<path d="M0.81,107.841c0.271-0.009,0.486,0.189,0.486,0.504c0,0.279-0.216,0.477-0.486,0.477c-0.278,0-0.495-0.207-0.495-0.495    C0.314,108.03,0.531,107.841,0.81,107.841z M6.392,108.723H2.034v-0.792h4.357V108.723z"/>
		<path d="M4.357,106.127c1.071-0.018,1.512-0.703,1.512-1.495c0-0.567-0.099-0.909-0.225-1.207l0.567-0.135    c0.126,0.279,0.27,0.756,0.27,1.449c0,1.341-0.882,2.143-2.196,2.143s-2.35-0.774-2.35-2.043c0-1.422,1.251-1.8,2.053-1.8    c0.162,0,0.288,0.018,0.369,0.027V106.127z M3.79,103.805c-0.504-0.009-1.288,0.207-1.288,1.098c0,0.801,0.738,1.152,1.288,1.215    V103.805z"/>
		<path d="M3.394,102.011c-0.513,0-0.954,0.009-1.359,0.036v-0.693l0.855-0.027v-0.036c-0.585-0.198-0.954-0.675-0.954-1.207    c0-0.09,0.009-0.153,0.026-0.225H2.71c-0.019,0.081-0.027,0.162-0.027,0.271c0,0.558,0.423,0.954,1.018,1.062    c0.107,0.018,0.233,0.036,0.369,0.036h2.322v0.783H3.394z"/>
		<path d="M5.581,99.069c0.153-0.234,0.315-0.648,0.315-1.044c0-0.576-0.288-0.847-0.648-0.847c-0.378,0-0.585,0.225-0.801,0.811    c-0.279,0.783-0.712,1.152-1.233,1.152c-0.702,0-1.278-0.567-1.278-1.503c0-0.441,0.126-0.829,0.27-1.071l0.576,0.198    c-0.107,0.171-0.252,0.486-0.252,0.892c0,0.468,0.271,0.729,0.595,0.729c0.359,0,0.521-0.261,0.738-0.828    c0.288-0.756,0.666-1.144,1.313-1.144c0.766,0,1.306,0.594,1.306,1.629c0,0.478-0.117,0.918-0.297,1.225L5.581,99.069z"/>
		<path d="M3.457,93.49c-0.559,0-1.009,0.018-1.423,0.036v-0.711l0.747-0.036v-0.018c-0.531-0.324-0.846-0.837-0.846-1.549    c0-1.053,0.891-1.845,2.215-1.845c1.566,0,2.34,0.954,2.34,1.98c0,0.576-0.252,1.08-0.684,1.341v0.018h2.367v0.783H3.457z     M4.618,92.707c0.117,0,0.225-0.018,0.324-0.036c0.549-0.144,0.927-0.621,0.927-1.188c0-0.837-0.684-1.324-1.684-1.324    c-0.873,0-1.62,0.459-1.62,1.296c0,0.54,0.387,1.044,0.981,1.197c0.099,0.027,0.216,0.054,0.324,0.054H4.618z"/>
		<path d="M4.357,87.802c1.071-0.018,1.512-0.703,1.512-1.495c0-0.567-0.099-0.909-0.225-1.207l0.567-0.135    c0.126,0.279,0.27,0.756,0.27,1.449c0,1.341-0.882,2.143-2.196,2.143s-2.35-0.774-2.35-2.043c0-1.422,1.251-1.8,2.053-1.8    c0.162,0,0.288,0.018,0.369,0.027V87.802z M3.79,85.479c-0.504-0.009-1.288,0.207-1.288,1.098c0,0.801,0.738,1.152,1.288,1.215    V85.479z"/>
		<path d="M3.394,83.683c-0.513,0-0.954,0.009-1.359,0.036v-0.693l0.855-0.027v-0.036c-0.585-0.198-0.954-0.675-0.954-1.207    c0-0.09,0.009-0.153,0.026-0.225H2.71c-0.019,0.081-0.027,0.162-0.027,0.271c0,0.558,0.423,0.954,1.018,1.062    C3.808,82.882,3.934,82.9,4.069,82.9h2.322v0.783H3.394z"/>
		<path d="M5.581,78.94c0.153-0.234,0.315-0.648,0.315-1.044c0-0.576-0.288-0.847-0.648-0.847c-0.378,0-0.585,0.225-0.801,0.811    c-0.279,0.783-0.712,1.152-1.233,1.152c-0.702,0-1.278-0.567-1.278-1.503c0-0.441,0.126-0.829,0.27-1.071l0.576,0.198    c-0.107,0.171-0.252,0.486-0.252,0.892c0,0.468,0.271,0.729,0.595,0.729c0.359,0,0.521-0.261,0.738-0.828    c0.288-0.756,0.666-1.144,1.313-1.144c0.766,0,1.306,0.594,1.306,1.629c0,0.478-0.117,0.918-0.297,1.225L5.581,78.94z"/>
		<path d="M5.717,72.229v0.018c0.432,0.234,0.773,0.72,0.773,1.422c0,1.017-0.882,1.845-2.205,1.845c-1.63,0-2.35-1.053-2.35-1.971    c0-0.675,0.333-1.125,0.756-1.342v-0.018l-0.657-0.027v-0.747c0.369,0.018,0.747,0.027,1.197,0.027h4.942v0.792H5.717z     M3.799,72.229c-0.108,0-0.234,0.009-0.333,0.036c-0.486,0.117-0.9,0.541-0.9,1.135c0,0.819,0.693,1.314,1.675,1.314    c0.864,0,1.62-0.414,1.62-1.287c0-0.513-0.315-0.954-0.864-1.134c-0.108-0.036-0.261-0.063-0.378-0.063H3.799z"/>
		<path d="M5.203,66.477c0.45,0,0.847-0.009,1.188-0.036v0.702l-0.711,0.045v0.018c0.351,0.207,0.81,0.667,0.81,1.44    c0,0.685-0.378,1.503-1.908,1.503H2.034v-0.792h2.413c0.828,0,1.386-0.252,1.386-0.972c0-0.531-0.369-0.9-0.72-1.044    c-0.117-0.045-0.261-0.072-0.405-0.072H2.034v-0.792H5.203z"/>
		<path d="M6.392,62.728l-0.549,0.063v0.027c0.342,0.243,0.647,0.711,0.647,1.333c0,0.882-0.621,1.333-1.251,1.333    c-1.054,0-1.63-0.937-1.62-2.62H3.528c-0.359,0-1.008,0.099-1.008,0.99c0,0.405,0.126,0.829,0.324,1.135l-0.522,0.18    c-0.234-0.36-0.387-0.882-0.387-1.431c0-1.333,0.909-1.657,1.782-1.657h1.63c0.378,0,0.747-0.018,1.044-0.072V62.728z     M4.168,62.845C4.15,63.709,4.303,64.69,5.149,64.69c0.513,0,0.756-0.342,0.756-0.747c0-0.567-0.36-0.927-0.729-1.053    c-0.08-0.027-0.171-0.045-0.252-0.045H4.168z"/>
		<path d="M3.394,60.785c-0.513,0-0.954,0.009-1.359,0.036v-0.693l0.855-0.027v-0.036c-0.585-0.198-0.954-0.675-0.954-1.207    c0-0.09,0.009-0.153,0.026-0.225H2.71c-0.019,0.081-0.027,0.162-0.027,0.27c0,0.558,0.423,0.954,1.018,1.062    c0.107,0.018,0.233,0.036,0.369,0.036h2.322v0.783H3.394z"/>
		<path d="M4.357,57.384c1.071-0.018,1.512-0.703,1.512-1.495c0-0.567-0.099-0.909-0.225-1.207l0.567-0.135    c0.126,0.279,0.27,0.756,0.27,1.449c0,1.341-0.882,2.143-2.196,2.143s-2.35-0.774-2.35-2.043c0-1.422,1.251-1.8,2.053-1.8    c0.162,0,0.288,0.018,0.369,0.027V57.384z M3.79,55.062c-0.504-0.009-1.288,0.207-1.288,1.098c0,0.801,0.738,1.152,1.288,1.215    V55.062z"/>
		<path d="M4.033,50.625v-0.018C3.88,50.5,3.69,50.346,3.538,50.22l-1.504-1.278v-0.954l1.792,1.684l2.565-1.918v0.963L4.303,50.22    l0.45,0.405h1.639v0.783H0v-0.783H4.033z"/>
		<path d="M0.81,46.143c0.271-0.009,0.486,0.189,0.486,0.504c0,0.279-0.216,0.477-0.486,0.477c-0.278,0-0.495-0.207-0.495-0.495    C0.314,46.332,0.531,46.143,0.81,46.143z M6.392,47.025H2.034v-0.792h4.357V47.025z"/>
		<path d="M0,44.913v-0.792h6.392v0.792H0z"/>
		<path d="M4.177,38.786c1.611,0,2.313,1.117,2.313,2.17c0,1.179-0.864,2.088-2.241,2.088c-1.458,0-2.313-0.954-2.313-2.161    C1.936,39.633,2.845,38.786,4.177,38.786z M4.222,42.243c0.954,0,1.675-0.549,1.675-1.323c0-0.756-0.711-1.323-1.692-1.323    c-0.738,0-1.675,0.369-1.675,1.305C2.529,41.838,3.394,42.243,4.222,42.243z"/>
		<path d="M3.214,37.729c-0.45,0-0.819,0.009-1.18,0.036v-0.693l0.702-0.036v-0.027c-0.414-0.243-0.801-0.648-0.801-1.368    c0-0.594,0.359-1.044,0.873-1.233v-0.018c-0.243-0.135-0.433-0.306-0.567-0.486c-0.198-0.261-0.306-0.549-0.306-0.963    c0-0.576,0.378-1.431,1.891-1.431h2.565v0.774H3.925c-0.837,0-1.342,0.306-1.342,0.945c0,0.45,0.334,0.801,0.721,0.937    C3.412,34.2,3.556,34.227,3.7,34.227h2.691v0.774h-2.61c-0.693,0-1.198,0.306-1.198,0.91c0,0.495,0.396,0.855,0.793,0.981    c0.117,0.045,0.252,0.063,0.387,0.063h2.629v0.774H3.214z"/>
		<path d="M4.357,29.706c1.071-0.018,1.512-0.702,1.512-1.495c0-0.567-0.099-0.909-0.225-1.207l0.567-0.135    c0.126,0.279,0.27,0.756,0.27,1.449c0,1.341-0.882,2.143-2.196,2.143s-2.35-0.774-2.35-2.043c0-1.422,1.251-1.8,2.053-1.8    c0.162,0,0.288,0.018,0.369,0.027V29.706z M3.79,27.383c-0.504-0.009-1.288,0.207-1.288,1.098c0,0.801,0.738,1.152,1.288,1.215    V27.383z"/>
		<path d="M0.783,24.615h1.251V23.48h0.604v1.134h2.35c0.54,0,0.846-0.153,0.846-0.594c0-0.207-0.026-0.36-0.054-0.459l0.595-0.036    c0.062,0.153,0.107,0.396,0.107,0.702c0,0.369-0.117,0.666-0.333,0.855c-0.234,0.225-0.621,0.306-1.134,0.306H2.638v0.675H2.034    v-0.675H0.99L0.783,24.615z"/>
		<path d="M4.357,22.183c1.071-0.018,1.512-0.703,1.512-1.495c0-0.567-0.099-0.909-0.225-1.207l0.567-0.135    c0.126,0.279,0.27,0.756,0.27,1.449c0,1.341-0.882,2.143-2.196,2.143s-2.35-0.774-2.35-2.043c0-1.422,1.251-1.8,2.053-1.8    c0.162,0,0.288,0.018,0.369,0.027V22.183z M3.79,19.86c-0.504-0.009-1.288,0.207-1.288,1.098c0,0.801,0.738,1.152,1.288,1.215    V19.86z"/>
		<path d="M3.394,18.064c-0.513,0-0.954,0.009-1.359,0.036v-0.693L2.89,17.38v-0.036c-0.585-0.198-0.954-0.675-0.954-1.207    c0-0.09,0.009-0.153,0.026-0.225H2.71c-0.019,0.081-0.027,0.162-0.027,0.271c0,0.558,0.423,0.954,1.018,1.062    c0.107,0.018,0.233,0.036,0.369,0.036h2.322v0.783H3.394z"/>
	</g>
	<g>
		<path d="M12.012,0.697h-0.015l-0.849,0.458l-0.127-0.503l1.066-0.57h0.563v4.88h-0.638V0.697z"/>
		<path d="M17.669,2.47c0,1.659-0.616,2.575-1.697,2.575c-0.953,0-1.599-0.894-1.614-2.508C14.358,0.9,15.064,0,16.055,0    C17.083,0,17.669,0.915,17.669,2.47z M15.019,2.545c0,1.269,0.39,1.989,0.991,1.989c0.676,0,0.999-0.788,0.999-2.034    c0-1.201-0.308-1.99-0.991-1.99C15.439,0.51,15.019,1.216,15.019,2.545z"/>
		<path d="M21.516,2.47c0,1.659-0.616,2.575-1.697,2.575c-0.954,0-1.599-0.894-1.614-2.508C18.206,0.9,18.911,0,19.902,0    C20.931,0,21.516,0.915,21.516,2.47z M18.866,2.545c0,1.269,0.391,1.989,0.991,1.989c0.676,0,0.999-0.788,0.999-2.034    c0-1.201-0.308-1.99-0.991-1.99C19.287,0.51,18.866,1.216,18.866,2.545z"/>
		<path d="M21.902,5.886c0.165-0.443,0.368-1.247,0.451-1.795l0.735-0.075c-0.172,0.639-0.503,1.472-0.713,1.824L21.902,5.886z"/>
		<path d="M26.916,2.47c0,1.659-0.616,2.575-1.697,2.575c-0.954,0-1.599-0.894-1.614-2.508C23.605,0.9,24.311,0,25.301,0    C26.33,0,26.916,0.915,26.916,2.47z M24.265,2.545c0,1.269,0.391,1.989,0.991,1.989c0.676,0,0.999-0.788,0.999-2.034    c0-1.201-0.308-1.99-0.991-1.99C24.686,0.51,24.265,1.216,24.265,2.545z"/>
		<path d="M30.763,2.47c0,1.659-0.616,2.575-1.697,2.575c-0.953,0-1.599-0.894-1.614-2.508C27.452,0.9,28.158,0,29.148,0    C30.177,0,30.763,0.915,30.763,2.47z M28.113,2.545c0,1.269,0.39,1.989,0.991,1.989c0.676,0,0.999-0.788,0.999-2.034    c0-1.201-0.308-1.99-0.991-1.99C28.533,0.51,28.113,1.216,28.113,2.545z"/>
		<path d="M34.61,2.47c0,1.659-0.616,2.575-1.697,2.575c-0.954,0-1.599-0.894-1.614-2.508C31.299,0.9,32.005,0,32.996,0    C34.024,0,34.61,0.915,34.61,2.47z M31.959,2.545c0,1.269,0.391,1.989,0.991,1.989c0.676,0,0.999-0.788,0.999-2.034    c0-1.201-0.308-1.99-0.991-1.99C32.38,0.51,31.959,1.216,31.959,2.545z"/>
		<path d="M15.86,20.268h-0.015l-0.849,0.458l-0.127-0.503l1.066-0.57h0.563v4.88H15.86V20.268z"/>
		<path d="M21.517,22.04c0,1.659-0.616,2.575-1.697,2.575c-0.953,0-1.599-0.894-1.614-2.508c0-1.637,0.706-2.537,1.697-2.537    C20.931,19.57,21.517,20.485,21.517,22.04z M18.867,22.115c0,1.269,0.39,1.989,0.991,1.989c0.676,0,0.999-0.788,0.999-2.034    c0-1.201-0.308-1.99-0.991-1.99C19.287,20.08,18.867,20.786,18.867,22.115z"/>
		<path d="M21.903,25.456c0.165-0.443,0.368-1.247,0.45-1.795l0.736-0.075c-0.172,0.639-0.503,1.472-0.713,1.824L21.903,25.456z"/>
		<path d="M26.916,22.04c0,1.659-0.616,2.575-1.697,2.575c-0.953,0-1.599-0.894-1.614-2.508c0-1.637,0.706-2.537,1.697-2.537    C26.331,19.57,26.916,20.485,26.916,22.04z M24.266,22.115c0,1.269,0.39,1.989,0.991,1.989c0.676,0,0.999-0.788,0.999-2.034    c0-1.201-0.308-1.99-0.991-1.99C24.686,20.08,24.266,20.786,24.266,22.115z"/>
		<path d="M30.763,22.04c0,1.659-0.616,2.575-1.697,2.575c-0.954,0-1.599-0.894-1.614-2.508c0-1.637,0.706-2.537,1.696-2.537    C30.178,19.57,30.763,20.485,30.763,22.04z M28.113,22.115c0,1.269,0.391,1.989,0.991,1.989c0.676,0,0.999-0.788,0.999-2.034    c0-1.201-0.308-1.99-0.991-1.99C28.534,20.08,28.113,20.786,28.113,22.115z"/>
		<path d="M34.61,22.04c0,1.659-0.616,2.575-1.697,2.575c-0.953,0-1.599-0.894-1.614-2.508c0-1.637,0.706-2.537,1.697-2.537    C34.025,19.57,34.61,20.485,34.61,22.04z M31.96,22.115c0,1.269,0.39,1.989,0.991,1.989c0.676,0,0.999-0.788,0.999-2.034    c0-1.201-0.308-1.99-0.991-1.99C32.38,20.08,31.96,20.786,31.96,22.115z"/>
		<path d="M19.708,39.838h-0.015l-0.849,0.457l-0.127-0.503l1.066-0.57h0.563v4.88h-0.638V39.838z"/>
		<path d="M21.903,45.025c0.165-0.443,0.368-1.247,0.45-1.795l0.736-0.075c-0.172,0.639-0.503,1.472-0.713,1.824L21.903,45.025z"/>
		<path d="M26.916,41.609c0,1.659-0.616,2.575-1.697,2.575c-0.953,0-1.599-0.894-1.614-2.508c0-1.637,0.706-2.537,1.697-2.537    C26.331,39.14,26.916,40.055,26.916,41.609z M24.266,41.685c0,1.269,0.39,1.989,0.991,1.989c0.676,0,0.999-0.788,0.999-2.035    c0-1.201-0.308-1.989-0.991-1.989C24.686,39.649,24.266,40.355,24.266,41.685z"/>
		<path d="M30.763,41.609c0,1.659-0.616,2.575-1.697,2.575c-0.954,0-1.599-0.894-1.614-2.508c0-1.637,0.706-2.537,1.696-2.537    C30.178,39.14,30.763,40.055,30.763,41.609z M28.113,41.685c0,1.269,0.391,1.989,0.991,1.989c0.676,0,0.999-0.788,0.999-2.035    c0-1.201-0.308-1.989-0.991-1.989C28.534,39.649,28.113,40.355,28.113,41.685z"/>
		<path d="M34.61,41.609c0,1.659-0.616,2.575-1.697,2.575c-0.953,0-1.599-0.894-1.614-2.508c0-1.637,0.706-2.537,1.697-2.537    C34.025,39.14,34.61,40.055,34.61,41.609z M31.96,41.685c0,1.269,0.39,1.989,0.991,1.989c0.676,0,0.999-0.788,0.999-2.035    c0-1.201-0.308-1.989-0.991-1.989C32.38,39.649,31.96,40.355,31.96,41.685z"/>
		<path d="M25.107,59.408h-0.015l-0.849,0.457l-0.127-0.503l1.066-0.57h0.563v4.88h-0.638V59.408z"/>
		<path d="M30.764,61.18c0,1.659-0.616,2.575-1.697,2.575c-0.953,0-1.599-0.894-1.614-2.508c0-1.637,0.706-2.537,1.697-2.537    C30.178,58.71,30.764,59.625,30.764,61.18z M28.114,61.255c0,1.269,0.39,1.989,0.991,1.989c0.676,0,0.999-0.788,0.999-2.035    c0-1.201-0.308-1.989-0.991-1.989C28.534,59.22,28.114,59.926,28.114,61.255z"/>
		<path d="M34.611,61.18c0,1.659-0.616,2.575-1.697,2.575c-0.954,0-1.599-0.894-1.614-2.508c0-1.637,0.706-2.537,1.696-2.537    C34.025,58.71,34.611,59.625,34.611,61.18z M31.96,61.255c0,1.269,0.391,1.989,0.991,1.989c0.676,0,0.999-0.788,0.999-2.035    c0-1.201-0.308-1.989-0.991-1.989C32.381,59.22,31.96,59.926,31.96,61.255z"/>
		<path d="M28.955,78.979h-0.015l-0.849,0.457l-0.127-0.503l1.066-0.57h0.563v4.88h-0.638V78.979z"/>
		<path d="M34.611,80.75c0,1.659-0.616,2.575-1.697,2.575c-0.954,0-1.599-0.894-1.614-2.508c0-1.637,0.706-2.537,1.696-2.537    C34.025,78.28,34.611,79.195,34.611,80.75z M31.96,80.825c0,1.269,0.391,1.989,0.991,1.989c0.676,0,0.999-0.788,0.999-2.035    c0-1.201-0.308-1.989-0.991-1.989C32.381,78.79,31.96,79.496,31.96,80.825z"/>
		<path d="M32.802,98.547h-0.015l-0.849,0.458l-0.127-0.503l1.066-0.57h0.563v4.88h-0.638V98.547z"/>
		<path d="M29.211,119.89c0,1.659-0.616,2.575-1.697,2.575c-0.954,0-1.599-0.894-1.614-2.508c0-1.637,0.706-2.537,1.696-2.537    C28.626,117.42,29.211,118.335,29.211,119.89z M26.561,119.965c0,1.269,0.391,1.989,0.991,1.989c0.676,0,0.999-0.788,0.999-2.034    c0-1.201-0.308-1.99-0.991-1.99C26.982,117.93,26.561,118.636,26.561,119.965z"/>
		<path d="M29.868,121.991c0-0.277,0.188-0.473,0.451-0.473s0.443,0.195,0.443,0.473c0,0.271-0.173,0.474-0.45,0.474    C30.048,122.465,29.868,122.262,29.868,121.991z"/>
		<path d="M32.801,118.117h-0.015l-0.849,0.458l-0.127-0.503l1.066-0.57h0.563v4.88h-0.638V118.117z"/>
		<path d="M25.364,139.46c0,1.659-0.616,2.575-1.697,2.575c-0.954,0-1.599-0.894-1.614-2.508c0-1.637,0.706-2.537,1.696-2.537    C24.778,136.99,25.364,137.905,25.364,139.46z M22.713,139.535c0,1.269,0.391,1.989,0.991,1.989c0.676,0,0.999-0.788,0.999-2.034    c0-1.201-0.308-1.99-0.991-1.99C23.134,137.5,22.713,138.206,22.713,139.535z"/>
		<path d="M26.02,141.562c0-0.277,0.188-0.473,0.451-0.473s0.443,0.195,0.443,0.473c0,0.271-0.173,0.474-0.45,0.474    C26.201,142.035,26.02,141.832,26.02,141.562z"/>
		<path d="M30.763,139.46c0,1.659-0.616,2.575-1.697,2.575c-0.954,0-1.599-0.894-1.614-2.508c0-1.637,0.706-2.537,1.696-2.537    C30.178,136.99,30.763,137.905,30.763,139.46z M28.113,139.535c0,1.269,0.391,1.989,0.991,1.989c0.676,0,0.999-0.788,0.999-2.034    c0-1.201-0.308-1.99-0.991-1.99C28.534,137.5,28.113,138.206,28.113,139.535z"/>
		<path d="M32.801,137.688h-0.015l-0.849,0.458l-0.127-0.503l1.066-0.57h0.563v4.88h-0.638V137.688z"/>
	</g>
	<circle cx="44.613" cy="38.056" r="2"/>
	<circle cx="56.863" cy="23.057" r="2"/>
	<circle cx="46.613" cy="34.056" r="2"/>
	<circle cx="46.613" cy="26.367" r="2"/>
	<circle cx="106.93" cy="33.053" r="2"/>
	<circle cx="106.93" cy="28.277" r="2"/>
	<circle cx="118.151" cy="25.89" r="2"/>
	<circle cx="121.733" cy="36.156" r="2"/>
	<circle cx="182.898" cy="27.378" r="2"/>
	<circle cx="215.805" cy="52.393" r="2"/>
	<circle cx="185.243" cy="42.842" r="2"/>
	<circle cx="182.855" cy="44.274" r="2"/>
	<circle cx="186.438" cy="44.274" r="2"/>
	<circle cx="185.482" cy="48.572" r="2"/>
	<circle cx="183.333" cy="52.153" r="2"/>
	<circle cx="184.526" cy="55.496" r="2"/>
	<circle cx="184.049" cy="60.749" r="2"/>
	<circle cx="217.953" cy="59.078" r="2"/>
	<circle cx="217.715" cy="67.912" r="2"/>
	<circle cx="170.44" cy="59.793" r="2"/>
	<circle cx="215.565" cy="71.254" r="2"/>
	<circle cx="216.76" cy="71.732" r="2"/>
	<circle cx="218.76" cy="71.732" r="2"/>
	<circle cx="214.372" cy="77.462" r="2"/>
	<circle cx="276.688" cy="93.22" r="2"/>
	<circle cx="219.625" cy="83.909" r="2"/>
	<circle cx="218.192" cy="85.819" r="2"/>
	<circle cx="215.327" cy="35.44" r="2"/>
	<circle cx="219.625" cy="65.524" r="2"/>
	<circle cx="219.386" cy="74.836" r="2"/>
	<circle cx="126.747" cy="35.917" r="2"/>
	<circle cx="126.747" cy="33.917" r="2"/>
	<circle cx="117.198" cy="29.251" r="2"/>
	<g>
		<path d="M82.037,146.791h-0.015l-0.849,0.458l-0.127-0.503l1.066-0.57h0.563v4.88h-0.638V146.791z"/>
		<path d="M84.39,149.817c0-0.616,0.368-1.052,0.968-1.307l-0.007-0.022c-0.541-0.256-0.773-0.676-0.773-1.096    c0-0.773,0.653-1.299,1.509-1.299c0.946,0,1.419,0.593,1.419,1.201c0,0.412-0.203,0.855-0.804,1.141v0.022    c0.608,0.24,0.983,0.668,0.983,1.262c0,0.848-0.728,1.419-1.659,1.419C85.005,151.139,84.39,150.53,84.39,149.817z     M87.017,149.787c0-0.594-0.413-0.879-1.073-1.066c-0.571,0.165-0.878,0.541-0.878,1.006c-0.023,0.496,0.353,0.932,0.976,0.932    C86.634,150.658,87.017,150.29,87.017,149.787z M85.2,147.347c0,0.488,0.368,0.751,0.931,0.901    c0.42-0.143,0.743-0.443,0.743-0.886c0-0.391-0.233-0.796-0.826-0.796C85.5,146.566,85.2,146.927,85.2,147.347z"/>
		<path d="M90.339,151.056v-1.329h-2.267v-0.436l2.177-3.115h0.713v3.033h0.683v0.518h-0.683v1.329H90.339z M90.339,149.209v-1.629    c0-0.256,0.007-0.511,0.022-0.766h-0.022c-0.15,0.285-0.271,0.495-0.405,0.721l-1.194,1.658v0.016H90.339z"/>
		<path d="M95.387,148.563c0,1.659-0.616,2.575-1.697,2.575c-0.954,0-1.599-0.894-1.614-2.508c0-1.637,0.706-2.537,1.696-2.537    C94.802,146.094,95.387,147.009,95.387,148.563z M92.737,148.639c0,1.269,0.391,1.989,0.991,1.989    c0.676,0,0.999-0.788,0.999-2.034c0-1.201-0.308-1.99-0.991-1.99C93.158,146.604,92.737,147.31,92.737,148.639z"/>
	</g>
	<g>
		<path d="M182.833,146.791h-0.016l-0.849,0.458l-0.128-0.503l1.066-0.57h0.562v4.88h-0.637V146.791z"/>
		<path d="M185.628,150.59c0.143,0.016,0.309,0,0.533-0.022c0.383-0.052,0.744-0.21,1.021-0.473    c0.322-0.293,0.555-0.721,0.646-1.299h-0.022c-0.271,0.33-0.66,0.525-1.148,0.525c-0.879,0-1.441-0.66-1.441-1.494    c0-0.923,0.668-1.733,1.666-1.733s1.614,0.811,1.614,2.057c0,1.073-0.36,1.824-0.841,2.29c-0.375,0.367-0.893,0.593-1.419,0.652    c-0.24,0.038-0.45,0.046-0.608,0.038V150.59z M185.868,147.782c0,0.608,0.368,1.036,0.939,1.036c0.442,0,0.787-0.218,0.961-0.511    c0.037-0.06,0.06-0.135,0.06-0.24c0-0.833-0.308-1.471-0.999-1.471C186.267,146.597,185.868,147.092,185.868,147.782z"/>
		<path d="M189.093,151.056v-0.405l0.518-0.503c1.246-1.187,1.81-1.817,1.816-2.553c0-0.495-0.24-0.953-0.968-0.953    c-0.442,0-0.811,0.225-1.036,0.413l-0.21-0.466c0.338-0.285,0.818-0.495,1.382-0.495c1.051,0,1.494,0.721,1.494,1.418    c0,0.901-0.654,1.63-1.682,2.62l-0.391,0.36v0.016h2.191v0.548H189.093z"/>
		<path d="M196.183,148.563c0,1.659-0.615,2.575-1.696,2.575c-0.954,0-1.599-0.894-1.614-2.508c0-1.637,0.706-2.537,1.697-2.537    C195.598,146.094,196.183,147.009,196.183,148.563z M193.532,148.639c0,1.269,0.391,1.989,0.992,1.989    c0.676,0,0.998-0.788,0.998-2.034c0-1.201-0.309-1.99-0.991-1.99C193.954,146.604,193.532,147.31,193.532,148.639z"/>
	</g>
	<g>
		<path d="M233.229,146.791h-0.015l-0.849,0.458l-0.127-0.503l1.065-0.57h0.563v4.88h-0.639V146.791z"/>
		<path d="M236.026,150.59c0.143,0.016,0.307,0,0.533-0.022c0.383-0.052,0.742-0.21,1.021-0.473    c0.323-0.293,0.556-0.721,0.646-1.299h-0.022c-0.271,0.33-0.661,0.525-1.149,0.525c-0.877,0-1.441-0.66-1.441-1.494    c0-0.923,0.669-1.733,1.668-1.733c0.998,0,1.613,0.811,1.613,2.057c0,1.073-0.36,1.824-0.841,2.29    c-0.376,0.367-0.894,0.593-1.419,0.652c-0.24,0.038-0.45,0.046-0.607,0.038V150.59z M236.267,147.782    c0,0.608,0.367,1.036,0.938,1.036c0.443,0,0.789-0.218,0.961-0.511c0.038-0.06,0.061-0.135,0.061-0.24    c0-0.833-0.309-1.471-0.998-1.471C236.664,146.597,236.267,147.092,236.267,147.782z"/>
		<path d="M242.275,146.642c-0.136-0.008-0.308,0-0.495,0.03c-1.037,0.172-1.584,0.931-1.697,1.733h0.023    c0.232-0.308,0.637-0.562,1.178-0.562c0.863,0,1.472,0.623,1.472,1.576c0,0.894-0.608,1.72-1.622,1.72    c-1.043,0-1.727-0.812-1.727-2.08c0-0.961,0.346-1.719,0.826-2.199c0.405-0.398,0.945-0.646,1.562-0.721    c0.195-0.03,0.36-0.038,0.48-0.038V146.642z M242.088,149.457c0-0.698-0.397-1.119-1.007-1.119c-0.396,0-0.766,0.248-0.945,0.601    c-0.045,0.075-0.075,0.173-0.075,0.293c0.015,0.804,0.384,1.396,1.073,1.396C241.704,150.628,242.088,150.154,242.088,149.457z"/>
		<path d="M246.581,148.563c0,1.659-0.616,2.575-1.697,2.575c-0.953,0-1.6-0.894-1.613-2.508c0-1.637,0.705-2.537,1.695-2.537    C245.995,146.094,246.581,147.009,246.581,148.563z M243.931,148.639c0,1.269,0.391,1.989,0.99,1.989    c0.676,0,0.999-0.788,0.999-2.034c0-1.201-0.308-1.99-0.991-1.99C244.351,146.604,243.931,147.31,243.931,148.639z"/>
	</g>
	<g>
		<path d="M31.639,146.791h-0.015l-0.849,0.458l-0.127-0.503l1.066-0.57h0.563v4.88h-0.638V146.791z"/>
		<path d="M33.992,149.817c0-0.616,0.368-1.052,0.968-1.307l-0.007-0.022c-0.541-0.256-0.773-0.676-0.773-1.096    c0-0.773,0.653-1.299,1.509-1.299c0.946,0,1.419,0.593,1.419,1.201c0,0.412-0.203,0.855-0.804,1.141v0.022    c0.608,0.24,0.983,0.668,0.983,1.262c0,0.848-0.728,1.419-1.659,1.419C34.607,151.139,33.992,150.53,33.992,149.817z     M36.619,149.787c0-0.594-0.413-0.879-1.073-1.066c-0.571,0.165-0.878,0.541-0.878,1.006c-0.023,0.496,0.353,0.932,0.976,0.932    C36.236,150.658,36.619,150.29,36.619,149.787z M34.802,147.347c0,0.488,0.368,0.751,0.931,0.901    c0.42-0.143,0.743-0.443,0.743-0.886c0-0.391-0.233-0.796-0.826-0.796C35.103,146.566,34.802,146.927,34.802,147.347z"/>
		<path d="M41.142,148.563c0,1.659-0.616,2.575-1.697,2.575c-0.953,0-1.599-0.894-1.614-2.508c0-1.637,0.706-2.537,1.697-2.537    C40.557,146.094,41.142,147.009,41.142,148.563z M38.492,148.639c0,1.269,0.39,1.989,0.991,1.989c0.676,0,0.999-0.788,0.999-2.034    c0-1.201-0.308-1.99-0.991-1.99C38.912,146.604,38.492,147.31,38.492,148.639z"/>
		<path d="M44.989,148.563c0,1.659-0.616,2.575-1.697,2.575c-0.954,0-1.599-0.894-1.614-2.508c0-1.637,0.706-2.537,1.696-2.537    C44.404,146.094,44.989,147.009,44.989,148.563z M42.339,148.639c0,1.269,0.391,1.989,0.991,1.989    c0.676,0,0.999-0.788,0.999-2.034c0-1.201-0.308-1.99-0.991-1.99C42.76,146.604,42.339,147.31,42.339,148.639z"/>
	</g>
	<g>
		<path d="M132.435,146.791h-0.015l-0.849,0.458l-0.127-0.503l1.066-0.57h0.563v4.88h-0.638V146.791z"/>
		<path d="M134.788,149.817c0-0.616,0.368-1.052,0.968-1.307l-0.007-0.022c-0.541-0.256-0.773-0.676-0.773-1.096    c0-0.773,0.653-1.299,1.509-1.299c0.946,0,1.419,0.593,1.419,1.201c0,0.412-0.203,0.855-0.804,1.141v0.022    c0.608,0.24,0.983,0.668,0.983,1.262c0,0.848-0.728,1.419-1.659,1.419C135.403,151.139,134.788,150.53,134.788,149.817z     M137.415,149.787c0-0.594-0.413-0.879-1.073-1.066c-0.571,0.165-0.878,0.541-0.878,1.006c-0.023,0.496,0.353,0.932,0.976,0.932    C137.032,150.658,137.415,150.29,137.415,149.787z M135.598,147.347c0,0.488,0.368,0.751,0.931,0.901    c0.42-0.143,0.743-0.443,0.743-0.886c0-0.391-0.233-0.796-0.826-0.796C135.898,146.566,135.598,146.927,135.598,147.347z"/>
		<path d="M138.635,149.817c0-0.616,0.368-1.052,0.968-1.307l-0.007-0.022c-0.541-0.256-0.773-0.676-0.773-1.096    c0-0.773,0.653-1.299,1.509-1.299c0.946,0,1.418,0.593,1.418,1.201c0,0.412-0.203,0.855-0.803,1.141v0.022    c0.608,0.24,0.984,0.668,0.984,1.262c0,0.848-0.729,1.419-1.659,1.419C139.25,151.139,138.635,150.53,138.635,149.817z     M141.262,149.787c0-0.594-0.413-0.879-1.074-1.066c-0.57,0.165-0.878,0.541-0.878,1.006c-0.022,0.496,0.353,0.932,0.976,0.932    C140.879,150.658,141.262,150.29,141.262,149.787z M139.445,147.347c0,0.488,0.368,0.751,0.931,0.901    c0.42-0.143,0.743-0.443,0.743-0.886c0-0.391-0.233-0.796-0.826-0.796C139.746,146.566,139.445,146.927,139.445,147.347z"/>
		<path d="M145.785,148.563c0,1.659-0.616,2.575-1.697,2.575c-0.954,0-1.599-0.894-1.614-2.508c0-1.637,0.706-2.537,1.696-2.537    C145.2,146.094,145.785,147.009,145.785,148.563z M143.135,148.639c0,1.269,0.391,1.989,0.991,1.989    c0.676,0,0.999-0.788,0.999-2.034c0-1.201-0.308-1.99-0.991-1.99C143.556,146.604,143.135,147.31,143.135,148.639z"/>
	</g>
	<g>
		<path d="M56.837,146.791h-0.015l-0.849,0.458l-0.127-0.503l1.066-0.57h0.563v4.88h-0.638V146.791z"/>
		<path d="M59.19,149.817c0-0.616,0.368-1.052,0.968-1.307l-0.007-0.022c-0.541-0.256-0.773-0.676-0.773-1.096    c0-0.773,0.653-1.299,1.509-1.299c0.946,0,1.419,0.593,1.419,1.201c0,0.412-0.203,0.855-0.804,1.141v0.022    c0.608,0.24,0.983,0.668,0.983,1.262c0,0.848-0.728,1.419-1.659,1.419C59.806,151.139,59.19,150.53,59.19,149.817z     M61.818,149.787c0-0.594-0.413-0.879-1.073-1.066c-0.571,0.165-0.878,0.541-0.878,1.006c-0.023,0.496,0.353,0.932,0.976,0.932    C61.435,150.658,61.818,150.29,61.818,149.787z M60.001,147.347c0,0.488,0.368,0.751,0.931,0.901    c0.42-0.143,0.743-0.443,0.743-0.886c0-0.391-0.233-0.796-0.826-0.796C60.301,146.566,60.001,146.927,60.001,147.347z"/>
		<path d="M63.098,151.056v-0.405l0.518-0.503c1.246-1.187,1.809-1.817,1.816-2.553c0-0.495-0.24-0.953-0.968-0.953    c-0.443,0-0.811,0.225-1.036,0.413l-0.21-0.466c0.338-0.285,0.818-0.495,1.381-0.495c1.051,0,1.494,0.721,1.494,1.418    c0,0.901-0.653,1.63-1.682,2.62l-0.391,0.36v0.016h2.192v0.548H63.098z"/>
		<path d="M70.188,148.563c0,1.659-0.616,2.575-1.697,2.575c-0.954,0-1.599-0.894-1.614-2.508c0-1.637,0.706-2.537,1.696-2.537    C69.603,146.094,70.188,147.009,70.188,148.563z M67.538,148.639c0,1.269,0.391,1.989,0.991,1.989    c0.676,0,0.999-0.788,0.999-2.034c0-1.201-0.308-1.99-0.991-1.99C67.958,146.604,67.538,147.31,67.538,148.639z"/>
	</g>
	<g>
		<path d="M157.634,146.791h-0.016l-0.849,0.458l-0.128-0.503l1.066-0.57h0.562v4.88h-0.637V146.791z"/>
		<path d="M160.429,150.59c0.143,0.016,0.309,0,0.533-0.022c0.383-0.052,0.744-0.21,1.021-0.473    c0.322-0.293,0.555-0.721,0.646-1.299h-0.022c-0.271,0.33-0.66,0.525-1.148,0.525c-0.879,0-1.441-0.66-1.441-1.494    c0-0.923,0.668-1.733,1.666-1.733s1.614,0.811,1.614,2.057c0,1.073-0.36,1.824-0.841,2.29c-0.375,0.367-0.893,0.593-1.419,0.652    c-0.24,0.038-0.45,0.046-0.608,0.038V150.59z M160.669,147.782c0,0.608,0.368,1.036,0.939,1.036c0.442,0,0.787-0.218,0.961-0.511    c0.037-0.06,0.06-0.135,0.06-0.24c0-0.833-0.308-1.471-0.999-1.471C161.067,146.597,160.669,147.092,160.669,147.782z"/>
		<path d="M167.137,148.563c0,1.659-0.616,2.575-1.696,2.575c-0.953,0-1.6-0.894-1.615-2.508c0-1.637,0.707-2.537,1.697-2.537    C166.552,146.094,167.137,147.009,167.137,148.563z M164.487,148.639c0,1.269,0.39,1.989,0.99,1.989    c0.676,0,0.998-0.788,0.998-2.034c0-1.201-0.307-1.99-0.99-1.99C164.907,146.604,164.487,147.31,164.487,148.639z"/>
		<path d="M170.983,148.563c0,1.659-0.615,2.575-1.696,2.575c-0.954,0-1.599-0.894-1.614-2.508c0-1.637,0.706-2.537,1.697-2.537    C170.398,146.094,170.983,147.009,170.983,148.563z M168.333,148.639c0,1.269,0.391,1.989,0.992,1.989    c0.676,0,0.998-0.788,0.998-2.034c0-1.201-0.309-1.99-0.991-1.99C168.755,146.604,168.333,147.31,168.333,148.639z"/>
	</g>
	<g>
		<path d="M107.235,146.791h-0.015l-0.849,0.458l-0.127-0.503l1.066-0.57h0.563v4.88h-0.638V146.791z"/>
		<path d="M109.588,149.817c0-0.616,0.368-1.052,0.968-1.307l-0.007-0.022c-0.541-0.256-0.773-0.676-0.773-1.096    c0-0.773,0.653-1.299,1.509-1.299c0.946,0,1.419,0.593,1.419,1.201c0,0.412-0.203,0.855-0.804,1.141v0.022    c0.608,0.24,0.983,0.668,0.983,1.262c0,0.848-0.728,1.419-1.659,1.419C110.204,151.139,109.588,150.53,109.588,149.817z     M112.216,149.787c0-0.594-0.413-0.879-1.073-1.066c-0.571,0.165-0.878,0.541-0.878,1.006c-0.023,0.496,0.353,0.932,0.976,0.932    C111.833,150.658,112.216,150.29,112.216,149.787z M110.399,147.347c0,0.488,0.368,0.751,0.931,0.901    c0.42-0.143,0.743-0.443,0.743-0.886c0-0.391-0.233-0.796-0.826-0.796C110.699,146.566,110.399,146.927,110.399,147.347z"/>
		<path d="M116.281,146.642c-0.135-0.008-0.308,0-0.496,0.03c-1.036,0.172-1.584,0.931-1.696,1.733h0.022    c0.232-0.308,0.638-0.562,1.179-0.562c0.863,0,1.471,0.623,1.471,1.576c0,0.894-0.608,1.72-1.622,1.72    c-1.043,0-1.727-0.812-1.727-2.08c0-0.961,0.345-1.719,0.826-2.199c0.405-0.398,0.946-0.646,1.562-0.721    c0.195-0.03,0.36-0.038,0.48-0.038V146.642z M116.093,149.457c0-0.698-0.398-1.119-1.006-1.119c-0.397,0-0.766,0.248-0.946,0.601    c-0.045,0.075-0.075,0.173-0.075,0.293c0.015,0.804,0.383,1.396,1.074,1.396C115.71,150.628,116.093,150.154,116.093,149.457z"/>
		<path d="M120.586,148.563c0,1.659-0.616,2.575-1.697,2.575c-0.954,0-1.599-0.894-1.614-2.508c0-1.637,0.706-2.537,1.696-2.537    C120,146.094,120.586,147.009,120.586,148.563z M117.936,148.639c0,1.269,0.391,1.989,0.991,1.989    c0.676,0,0.999-0.788,0.999-2.034c0-1.201-0.308-1.99-0.991-1.99C118.356,146.604,117.936,147.31,117.936,148.639z"/>
	</g>
	<g>
		<path d="M208.031,146.791h-0.015l-0.85,0.458l-0.127-0.503l1.066-0.57h0.562v4.88h-0.638V146.791z"/>
		<path d="M210.827,150.59c0.143,0.016,0.308,0,0.533-0.022c0.383-0.052,0.743-0.21,1.021-0.473    c0.322-0.293,0.555-0.721,0.645-1.299h-0.021c-0.271,0.33-0.661,0.525-1.149,0.525c-0.878,0-1.441-0.66-1.441-1.494    c0-0.923,0.669-1.733,1.667-1.733s1.613,0.811,1.613,2.057c0,1.073-0.359,1.824-0.84,2.29c-0.376,0.367-0.894,0.593-1.42,0.652    c-0.24,0.038-0.449,0.046-0.607,0.038V150.59z M211.067,147.782c0,0.608,0.367,1.036,0.938,1.036c0.442,0,0.788-0.218,0.961-0.511    c0.038-0.06,0.06-0.135,0.06-0.24c0-0.833-0.308-1.471-0.998-1.471C211.466,146.597,211.067,147.092,211.067,147.782z"/>
		<path d="M216.333,151.056v-1.329h-2.267v-0.436l2.177-3.115h0.713v3.033h0.684v0.518h-0.684v1.329H216.333z M216.333,149.209    v-1.629c0-0.256,0.008-0.511,0.023-0.766h-0.023c-0.15,0.285-0.27,0.495-0.404,0.721l-1.194,1.658v0.016H216.333z"/>
		<path d="M221.382,148.563c0,1.659-0.615,2.575-1.697,2.575c-0.953,0-1.599-0.894-1.613-2.508c0-1.637,0.705-2.537,1.696-2.537    C220.796,146.094,221.382,147.009,221.382,148.563z M218.731,148.639c0,1.269,0.391,1.989,0.991,1.989    c0.676,0,0.999-0.788,0.999-2.034c0-1.201-0.309-1.99-0.992-1.99C219.152,146.604,218.731,147.31,218.731,148.639z"/>
	</g>
	<g>
		<path d="M258.429,146.791h-0.015l-0.849,0.458l-0.127-0.503l1.065-0.57h0.563v4.88h-0.639V146.791z"/>
		<path d="M261.226,150.59c0.143,0.016,0.307,0,0.533-0.022c0.383-0.052,0.742-0.21,1.021-0.473    c0.323-0.293,0.556-0.721,0.646-1.299h-0.022c-0.271,0.33-0.661,0.525-1.149,0.525c-0.877,0-1.441-0.66-1.441-1.494    c0-0.923,0.669-1.733,1.668-1.733c0.998,0,1.613,0.811,1.613,2.057c0,1.073-0.36,1.824-0.841,2.29    c-0.376,0.367-0.894,0.593-1.419,0.652c-0.24,0.038-0.45,0.046-0.607,0.038V150.59z M261.466,147.782    c0,0.608,0.367,1.036,0.938,1.036c0.443,0,0.789-0.218,0.961-0.511c0.038-0.06,0.061-0.135,0.061-0.24    c0-0.833-0.309-1.471-0.998-1.471C261.863,146.597,261.466,147.092,261.466,147.782z"/>
		<path d="M264.63,149.817c0-0.616,0.367-1.052,0.968-1.307l-0.007-0.022c-0.541-0.256-0.773-0.676-0.773-1.096    c0-0.773,0.652-1.299,1.509-1.299c0.946,0,1.419,0.593,1.419,1.201c0,0.412-0.203,0.855-0.804,1.141v0.022    c0.608,0.24,0.983,0.668,0.983,1.262c0,0.848-0.729,1.419-1.658,1.419C265.245,151.139,264.63,150.53,264.63,149.817z     M267.257,149.787c0-0.594-0.412-0.879-1.074-1.066c-0.57,0.165-0.877,0.541-0.877,1.006c-0.023,0.496,0.352,0.932,0.975,0.932    C266.874,150.658,267.257,150.29,267.257,149.787z M265.44,147.347c0,0.488,0.367,0.751,0.931,0.901    c0.421-0.143,0.743-0.443,0.743-0.886c0-0.391-0.232-0.796-0.826-0.796C265.74,146.566,265.44,146.927,265.44,147.347z"/>
		<path d="M271.78,148.563c0,1.659-0.616,2.575-1.697,2.575c-0.953,0-1.6-0.894-1.613-2.508c0-1.637,0.705-2.537,1.695-2.537    C271.194,146.094,271.78,147.009,271.78,148.563z M269.13,148.639c0,1.269,0.391,1.989,0.99,1.989    c0.676,0,0.999-0.788,0.999-2.034c0-1.201-0.308-1.99-0.991-1.99C269.55,146.604,269.13,147.31,269.13,148.639z"/>
	</g>
	<g>
		<path d="M282.194,151.056v-0.405l0.518-0.503c1.246-1.187,1.809-1.817,1.816-2.553c0-0.495-0.24-0.953-0.969-0.953    c-0.442,0-0.811,0.225-1.035,0.413l-0.211-0.466c0.338-0.285,0.818-0.495,1.382-0.495c1.051,0,1.494,0.721,1.494,1.418    c0,0.901-0.653,1.63-1.682,2.62l-0.391,0.36v0.016h2.192v0.548H282.194z"/>
		<path d="M289.284,148.563c0,1.659-0.615,2.575-1.697,2.575c-0.953,0-1.599-0.894-1.613-2.508c0-1.637,0.705-2.537,1.696-2.537    C288.698,146.094,289.284,147.009,289.284,148.563z M286.634,148.639c0,1.269,0.391,1.989,0.991,1.989    c0.676,0,0.999-0.788,0.999-2.034c0-1.201-0.309-1.99-0.992-1.99C287.055,146.604,286.634,147.31,286.634,148.639z"/>
		<path d="M293.132,148.563c0,1.659-0.616,2.575-1.697,2.575c-0.953,0-1.6-0.894-1.614-2.508c0-1.637,0.706-2.537,1.696-2.537    C292.546,146.094,293.132,147.009,293.132,148.563z M290.481,148.639c0,1.269,0.391,1.989,0.99,1.989    c0.676,0,0.999-0.788,0.999-2.034c0-1.201-0.308-1.99-0.991-1.99C290.901,146.604,290.481,147.31,290.481,148.639z"/>
		<path d="M296.979,148.563c0,1.659-0.616,2.575-1.696,2.575c-0.954,0-1.6-0.894-1.614-2.508c0-1.637,0.706-2.537,1.696-2.537    C296.394,146.094,296.979,147.009,296.979,148.563z M294.328,148.639c0,1.269,0.391,1.989,0.991,1.989    c0.676,0,0.998-0.788,0.998-2.034c0-1.201-0.308-1.99-0.99-1.99C294.749,146.604,294.328,147.31,294.328,148.639z"/>
	</g>
</g>
</svg>