<svg xmlns="http://www.w3.org/2000/svg" xmlns:xlink="http://www.w3.org/1999/xlink" version="1.1" x="0px" y="0px" width="294.704px" height="151.139px" viewBox="0 0 294.704 151.139" enable-background="new 0 0 294.704 151.139" xml:space="preserve">
<g id="wide" display="none">
</g>
<g id="text_column">
</g>
<g id="art">
	<g>
		<path d="M0.324,121.14v-0.783h5.41v-2.593h0.657v3.376H0.324z"/>
		<path d="M4.357,116.469c1.071-0.018,1.512-0.703,1.512-1.495c0-0.567-0.099-0.909-0.225-1.207l0.567-0.135    c0.126,0.279,0.27,0.756,0.27,1.449c0,1.341-0.882,2.143-2.196,2.143s-2.35-0.774-2.35-2.043c0-1.422,1.251-1.8,2.053-1.8    c0.162,0,0.288,0.018,0.369,0.027V116.469z M3.79,114.146c-0.504-0.009-1.288,0.207-1.288,1.098c0,0.801,0.738,1.152,1.288,1.215    V114.146z"/>
		<path d="M0.783,111.378h1.251v-1.134h0.604v1.134h2.35c0.54,0,0.846-0.153,0.846-0.594c0-0.207-0.026-0.36-0.054-0.459    l0.595-0.036c0.062,0.153,0.107,0.396,0.107,0.702c0,0.369-0.117,0.666-0.333,0.855c-0.234,0.225-0.621,0.306-1.134,0.306H2.638    v0.675H2.034v-0.675H0.99L0.783,111.378z"/>
		<path d="M0,109.353v-0.792h2.719v-0.018c-0.226-0.126-0.424-0.324-0.559-0.567c-0.135-0.234-0.225-0.513-0.225-0.81    c0-0.585,0.359-1.521,1.863-1.521h2.593v0.792H3.889c-0.702,0-1.296,0.261-1.296,1.008c0,0.513,0.359,0.918,0.792,1.062    c0.108,0.045,0.225,0.054,0.378,0.054h2.629v0.792H0z"/>
		<path d="M6.392,101.926l-0.549,0.063v0.027c0.342,0.243,0.647,0.711,0.647,1.333c0,0.882-0.621,1.333-1.251,1.333    c-1.054,0-1.63-0.937-1.62-2.62H3.528c-0.359,0-1.008,0.099-1.008,0.991c0,0.405,0.126,0.828,0.324,1.134l-0.522,0.18    c-0.234-0.36-0.387-0.882-0.387-1.431c0-1.333,0.909-1.657,1.782-1.657h1.63c0.378,0,0.747-0.018,1.044-0.072V101.926z     M4.168,102.043c-0.018,0.864,0.135,1.846,0.981,1.846c0.513,0,0.756-0.342,0.756-0.747c0-0.567-0.36-0.927-0.729-1.053    c-0.08-0.027-0.171-0.045-0.252-0.045H4.168z"/>
		<path d="M0,99.982V99.19h6.392v0.792H0z"/>
		<path d="M6.392,93.538l-0.549,0.063v0.027c0.342,0.243,0.647,0.711,0.647,1.333c0,0.882-0.621,1.333-1.251,1.333    c-1.054,0-1.63-0.937-1.62-2.62H3.528c-0.359,0-1.008,0.099-1.008,0.991c0,0.405,0.126,0.828,0.324,1.134l-0.522,0.18    c-0.234-0.36-0.387-0.882-0.387-1.431c0-1.333,0.909-1.657,1.782-1.657h1.63c0.378,0,0.747-0.018,1.044-0.072V93.538z     M4.168,93.654C4.15,94.519,4.303,95.5,5.149,95.5c0.513,0,0.756-0.342,0.756-0.747c0-0.567-0.36-0.927-0.729-1.053    c-0.08-0.027-0.171-0.045-0.252-0.045H4.168z"/>
		<path d="M3.394,91.595c-0.513,0-0.954,0.009-1.359,0.036v-0.693l0.855-0.027v-0.036c-0.585-0.198-0.954-0.675-0.954-1.207    c0-0.09,0.009-0.153,0.026-0.225H2.71c-0.019,0.081-0.027,0.162-0.027,0.271c0,0.558,0.423,0.954,1.018,1.062    c0.107,0.018,0.233,0.036,0.369,0.036h2.322v0.783H3.394z"/>
		<path d="M4.357,88.194c1.071-0.018,1.512-0.702,1.512-1.495c0-0.567-0.099-0.909-0.225-1.207l0.567-0.135    c0.126,0.279,0.27,0.756,0.27,1.449c0,1.341-0.882,2.143-2.196,2.143s-2.35-0.774-2.35-2.043c0-1.422,1.251-1.8,2.053-1.8    c0.162,0,0.288,0.018,0.369,0.027V88.194z M3.79,85.872c-0.504-0.009-1.288,0.207-1.288,1.098c0,0.801,0.738,1.152,1.288,1.215    V85.872z"/>
		<path d="M6.392,81.688l-0.549,0.063v0.027c0.342,0.243,0.647,0.711,0.647,1.333c0,0.882-0.621,1.333-1.251,1.333    c-1.054,0-1.63-0.937-1.62-2.62H3.528c-0.359,0-1.008,0.099-1.008,0.991c0,0.405,0.126,0.828,0.324,1.134l-0.522,0.18    c-0.234-0.36-0.387-0.882-0.387-1.431c0-1.333,0.909-1.657,1.782-1.657h1.63c0.378,0,0.747-0.018,1.044-0.072V81.688z     M4.168,81.805C4.15,82.669,4.303,83.65,5.149,83.65c0.513,0,0.756-0.342,0.756-0.747c0-0.567-0.36-0.927-0.729-1.053    c-0.08-0.027-0.171-0.045-0.252-0.045H4.168z"/>
		<path d="M0.144,76.136c0.883,0.657,2.053,1.134,3.683,1.134c1.603,0,2.755-0.495,3.654-1.134v0.621    c-0.747,0.567-1.899,1.179-3.654,1.179c-1.773-0.009-2.926-0.612-3.683-1.179V76.136z"/>
		<path d="M5.581,75.561c0.153-0.234,0.315-0.648,0.315-1.044c0-0.576-0.288-0.847-0.648-0.847c-0.378,0-0.585,0.225-0.801,0.811    c-0.279,0.783-0.712,1.152-1.233,1.152c-0.702,0-1.278-0.567-1.278-1.503c0-0.441,0.126-0.829,0.27-1.071l0.576,0.198    c-0.107,0.171-0.252,0.486-0.252,0.892c0,0.468,0.271,0.729,0.595,0.729c0.359,0,0.521-0.261,0.738-0.828    c0.288-0.756,0.666-1.144,1.313-1.144c0.766,0,1.306,0.594,1.306,1.629c0,0.478-0.117,0.918-0.297,1.225L5.581,75.561z"/>
		<path d="M5.717,68.849v0.018c0.432,0.234,0.773,0.72,0.773,1.422c0,1.017-0.882,1.845-2.205,1.845c-1.63,0-2.35-1.053-2.35-1.971    c0-0.675,0.333-1.125,0.756-1.342v-0.018l-0.657-0.027v-0.747c0.369,0.018,0.747,0.027,1.197,0.027h4.942v0.792H5.717z     M3.799,68.849c-0.108,0-0.234,0.009-0.333,0.036c-0.486,0.117-0.9,0.541-0.9,1.135c0,0.819,0.693,1.314,1.675,1.314    c0.864,0,1.62-0.414,1.62-1.287c0-0.513-0.315-0.954-0.864-1.134c-0.108-0.036-0.261-0.063-0.378-0.063H3.799z"/>
		<path d="M5.203,63.097c0.45,0,0.847-0.009,1.188-0.036v0.702l-0.711,0.045v0.018c0.351,0.207,0.81,0.667,0.81,1.44    c0,0.685-0.378,1.503-1.908,1.503H2.034v-0.792h2.413c0.828,0,1.386-0.252,1.386-0.972c0-0.531-0.369-0.9-0.72-1.044    c-0.117-0.045-0.261-0.072-0.405-0.072H2.034v-0.792H5.203z"/>
		<path d="M6.392,59.348l-0.549,0.063v0.027c0.342,0.243,0.647,0.711,0.647,1.333c0,0.882-0.621,1.333-1.251,1.333    c-1.054,0-1.63-0.937-1.62-2.62H3.528c-0.359,0-1.008,0.099-1.008,0.99c0,0.405,0.126,0.829,0.324,1.135l-0.522,0.18    c-0.234-0.36-0.387-0.882-0.387-1.431c0-1.333,0.909-1.657,1.782-1.657h1.63c0.378,0,0.747-0.018,1.044-0.072V59.348z     M4.168,59.465C4.15,60.329,4.303,61.31,5.149,61.31c0.513,0,0.756-0.342,0.756-0.747c0-0.567-0.36-0.927-0.729-1.053    c-0.08-0.027-0.171-0.045-0.252-0.045H4.168z"/>
		<path d="M3.394,57.405c-0.513,0-0.954,0.009-1.359,0.036v-0.693l0.855-0.027v-0.036c-0.585-0.198-0.954-0.675-0.954-1.207    c0-0.09,0.009-0.153,0.026-0.225H2.71c-0.019,0.081-0.027,0.162-0.027,0.27c0,0.558,0.423,0.954,1.018,1.062    c0.107,0.018,0.233,0.036,0.369,0.036h2.322v0.783H3.394z"/>
		<path d="M4.357,54.004c1.071-0.018,1.512-0.703,1.512-1.495c0-0.567-0.099-0.909-0.225-1.207l0.567-0.135    c0.126,0.279,0.27,0.756,0.27,1.449c0,1.341-0.882,2.143-2.196,2.143s-2.35-0.774-2.35-2.043c0-1.422,1.251-1.8,2.053-1.8    c0.162,0,0.288,0.018,0.369,0.027V54.004z M3.79,51.682c-0.504-0.009-1.288,0.207-1.288,1.098c0,0.801,0.738,1.152,1.288,1.215    V51.682z"/>
		<path d="M3.214,48.029c-0.45,0-0.819,0.009-1.18,0.036v-0.693l0.702-0.036v-0.027c-0.414-0.243-0.801-0.648-0.801-1.368    c0-0.594,0.359-1.044,0.873-1.233v-0.018c-0.243-0.135-0.433-0.306-0.567-0.486c-0.198-0.261-0.306-0.549-0.306-0.963    c0-0.576,0.378-1.431,1.891-1.431h2.565v0.774H3.925c-0.837,0-1.342,0.306-1.342,0.945c0,0.45,0.334,0.801,0.721,0.937    C3.412,44.5,3.556,44.527,3.7,44.527h2.691v0.774h-2.61c-0.693,0-1.198,0.306-1.198,0.91c0,0.495,0.396,0.855,0.793,0.981    c0.117,0.045,0.252,0.063,0.387,0.063h2.629v0.774H3.214z"/>
		<path d="M4.357,40.005c1.071-0.018,1.512-0.703,1.512-1.495c0-0.567-0.099-0.909-0.225-1.207l0.567-0.135    c0.126,0.279,0.27,0.756,0.27,1.449c0,1.341-0.882,2.143-2.196,2.143s-2.35-0.774-2.35-2.043c0-1.422,1.251-1.8,2.053-1.8    c0.162,0,0.288,0.018,0.369,0.027V40.005z M3.79,37.683c-0.504-0.009-1.288,0.207-1.288,1.098c0,0.801,0.738,1.152,1.288,1.215    V37.683z"/>
		<path d="M0.783,34.914h1.251V33.78h0.604v1.134h2.35c0.54,0,0.846-0.153,0.846-0.594c0-0.207-0.026-0.36-0.054-0.459l0.595-0.036    c0.062,0.153,0.107,0.396,0.107,0.702c0,0.369-0.117,0.666-0.333,0.855c-0.234,0.225-0.621,0.306-1.134,0.306H2.638v0.675H2.034    v-0.675H0.99L0.783,34.914z"/>
		<path d="M4.357,32.482c1.071-0.018,1.512-0.702,1.512-1.495c0-0.567-0.099-0.909-0.225-1.207l0.567-0.135    c0.126,0.279,0.27,0.756,0.27,1.449c0,1.341-0.882,2.143-2.196,2.143s-2.35-0.774-2.35-2.043c0-1.422,1.251-1.8,2.053-1.8    c0.162,0,0.288,0.018,0.369,0.027V32.482z M3.79,30.16c-0.504-0.009-1.288,0.207-1.288,1.098c0,0.801,0.738,1.152,1.288,1.215    V30.16z"/>
		<path d="M3.394,28.363c-0.513,0-0.954,0.009-1.359,0.036v-0.693l0.855-0.027v-0.036c-0.585-0.198-0.954-0.675-0.954-1.207    c0-0.09,0.009-0.153,0.026-0.225H2.71c-0.019,0.081-0.027,0.162-0.027,0.27c0,0.558,0.423,0.954,1.018,1.062    c0.107,0.018,0.233,0.036,0.369,0.036h2.322v0.783H3.394z"/>
		<path d="M5.581,25.421c0.153-0.234,0.315-0.648,0.315-1.044c0-0.576-0.288-0.847-0.648-0.847c-0.378,0-0.585,0.225-0.801,0.811    c-0.279,0.783-0.712,1.152-1.233,1.152c-0.702,0-1.278-0.567-1.278-1.503c0-0.441,0.126-0.828,0.27-1.071l0.576,0.198    c-0.107,0.171-0.252,0.486-0.252,0.892c0,0.468,0.271,0.729,0.595,0.729c0.359,0,0.521-0.261,0.738-0.828    c0.288-0.756,0.666-1.144,1.313-1.144c0.766,0,1.306,0.594,1.306,1.629c0,0.478-0.117,0.918-0.297,1.225L5.581,25.421z"/>
		<path d="M7.48,22.5c-0.891-0.639-2.062-1.134-3.682-1.134c-1.611,0-2.764,0.486-3.655,1.134v-0.612    c0.738-0.576,1.891-1.179,3.664-1.179c1.765,0,2.908,0.603,3.673,1.179V22.5z"/>
	</g>
	<g>
		<path d="M12.176,4.962V4.557l0.518-0.503c1.246-1.187,1.809-1.817,1.817-2.553c0-0.495-0.24-0.953-0.969-0.953    c-0.443,0-0.811,0.225-1.036,0.413l-0.21-0.466C12.634,0.21,13.115,0,13.678,0c1.051,0,1.494,0.721,1.494,1.418    c0,0.901-0.653,1.63-1.682,2.62l-0.39,0.36v0.016h2.192v0.548H12.176z"/>
		<path d="M18.936,0.638h-1.862l-0.188,1.254c0.113-0.016,0.218-0.03,0.398-0.03c0.375,0,0.75,0.083,1.051,0.263    c0.383,0.218,0.698,0.639,0.698,1.254c0,0.953-0.758,1.667-1.816,1.667c-0.533,0-0.984-0.15-1.216-0.301l0.165-0.503    c0.203,0.12,0.601,0.271,1.043,0.271c0.623,0,1.156-0.405,1.156-1.059c-0.008-0.631-0.428-1.081-1.404-1.081    c-0.278,0-0.496,0.03-0.676,0.053l0.315-2.343h2.334V0.638z"/>
		<path d="M19.653,5.886c0.165-0.443,0.368-1.247,0.45-1.795l0.736-0.075c-0.172,0.639-0.503,1.472-0.713,1.824L19.653,5.886z"/>
		<path d="M24.666,2.47c0,1.659-0.616,2.575-1.697,2.575c-0.953,0-1.599-0.894-1.614-2.508C21.355,0.9,22.061,0,23.052,0    C24.081,0,24.666,0.915,24.666,2.47z M22.016,2.545c0,1.269,0.39,1.989,0.991,1.989c0.676,0,0.999-0.788,0.999-2.034    c0-1.201-0.308-1.99-0.991-1.99C22.436,0.51,22.016,1.216,22.016,2.545z"/>
		<path d="M28.513,2.47c0,1.659-0.616,2.575-1.697,2.575c-0.954,0-1.599-0.894-1.614-2.508C25.203,0.9,25.908,0,26.899,0    C27.928,0,28.513,0.915,28.513,2.47z M25.863,2.545c0,1.269,0.391,1.989,0.991,1.989c0.676,0,0.999-0.788,0.999-2.034    c0-1.201-0.308-1.99-0.991-1.99C26.284,0.51,25.863,1.216,25.863,2.545z"/>
		<path d="M32.36,2.47c0,1.659-0.616,2.575-1.697,2.575c-0.953,0-1.599-0.894-1.614-2.508C29.049,0.9,29.755,0,30.746,0    C31.775,0,32.36,0.915,32.36,2.47z M29.71,2.545c0,1.269,0.39,1.989,0.991,1.989c0.676,0,0.999-0.788,0.999-2.034    c0-1.201-0.308-1.99-0.991-1.99C30.13,0.51,29.71,1.216,29.71,2.545z"/>
		<path d="M12.176,32.628v-0.405l0.518-0.503c1.246-1.187,1.809-1.817,1.817-2.553c0-0.495-0.24-0.953-0.969-0.953    c-0.443,0-0.811,0.225-1.036,0.413l-0.21-0.466c0.338-0.285,0.818-0.495,1.381-0.495c1.051,0,1.494,0.721,1.494,1.418    c0,0.901-0.653,1.63-1.682,2.62l-0.39,0.36v0.016h2.192v0.548H12.176z"/>
		<path d="M19.267,30.136c0,1.659-0.616,2.575-1.697,2.575c-0.953,0-1.599-0.894-1.614-2.508c0-1.637,0.706-2.537,1.697-2.537    C18.681,27.666,19.267,28.581,19.267,30.136z M16.617,30.211c0,1.269,0.39,1.989,0.991,1.989c0.676,0,0.999-0.788,0.999-2.034    c0-1.201-0.308-1.99-0.991-1.99C17.037,28.176,16.617,28.882,16.617,30.211z"/>
		<path d="M19.653,33.552c0.165-0.443,0.368-1.247,0.45-1.795l0.736-0.075c-0.172,0.639-0.503,1.472-0.713,1.824L19.653,33.552z"/>
		<path d="M24.666,30.136c0,1.659-0.616,2.575-1.697,2.575c-0.953,0-1.599-0.894-1.614-2.508c0-1.637,0.706-2.537,1.697-2.537    C24.081,27.666,24.666,28.581,24.666,30.136z M22.016,30.211c0,1.269,0.39,1.989,0.991,1.989c0.676,0,0.999-0.788,0.999-2.034    c0-1.201-0.308-1.99-0.991-1.99C22.436,28.176,22.016,28.882,22.016,30.211z"/>
		<path d="M28.513,30.136c0,1.659-0.616,2.575-1.697,2.575c-0.954,0-1.599-0.894-1.614-2.508c0-1.637,0.706-2.537,1.696-2.537    C27.928,27.666,28.513,28.581,28.513,30.136z M25.863,30.211c0,1.269,0.391,1.989,0.991,1.989c0.676,0,0.999-0.788,0.999-2.034    c0-1.201-0.308-1.99-0.991-1.99C26.284,28.176,25.863,28.882,25.863,30.211z"/>
		<path d="M32.36,30.136c0,1.659-0.616,2.575-1.697,2.575c-0.953,0-1.599-0.894-1.614-2.508c0-1.637,0.706-2.537,1.697-2.537    C31.775,27.666,32.36,28.581,32.36,30.136z M29.71,30.211c0,1.269,0.39,1.989,0.991,1.989c0.676,0,0.999-0.788,0.999-2.034    c0-1.201-0.308-1.99-0.991-1.99C30.13,28.176,29.71,28.882,29.71,30.211z"/>
		<path d="M13.61,56.029h-0.015l-0.849,0.458l-0.127-0.503l1.066-0.57h0.563v4.88H13.61V56.029z"/>
		<path d="M18.936,55.97h-1.862l-0.188,1.254c0.113-0.016,0.218-0.03,0.398-0.03c0.375,0,0.75,0.083,1.051,0.263    c0.383,0.218,0.698,0.639,0.698,1.254c0,0.953-0.758,1.667-1.816,1.667c-0.533,0-0.984-0.15-1.216-0.301l0.165-0.503    c0.203,0.12,0.601,0.271,1.043,0.271c0.623,0,1.156-0.405,1.156-1.059c-0.008-0.631-0.428-1.081-1.404-1.081    c-0.278,0-0.496,0.03-0.676,0.053l0.315-2.343h2.334V55.97z"/>
		<path d="M19.653,61.218c0.165-0.443,0.368-1.247,0.45-1.795l0.736-0.075c-0.172,0.639-0.503,1.472-0.713,1.824L19.653,61.218z"/>
		<path d="M24.666,57.802c0,1.659-0.616,2.575-1.697,2.575c-0.953,0-1.599-0.894-1.614-2.508c0-1.637,0.706-2.537,1.697-2.537    C24.081,55.332,24.666,56.247,24.666,57.802z M22.016,57.877c0,1.269,0.39,1.989,0.991,1.989c0.676,0,0.999-0.788,0.999-2.034    c0-1.201-0.308-1.99-0.991-1.99C22.436,55.842,22.016,56.548,22.016,57.877z"/>
		<path d="M28.513,57.802c0,1.659-0.616,2.575-1.697,2.575c-0.954,0-1.599-0.894-1.614-2.508c0-1.637,0.706-2.537,1.696-2.537    C27.928,55.332,28.513,56.247,28.513,57.802z M25.863,57.877c0,1.269,0.391,1.989,0.991,1.989c0.676,0,0.999-0.788,0.999-2.034    c0-1.201-0.308-1.99-0.991-1.99C26.284,55.842,25.863,56.548,25.863,57.877z"/>
		<path d="M32.36,57.802c0,1.659-0.616,2.575-1.697,2.575c-0.953,0-1.599-0.894-1.614-2.508c0-1.637,0.706-2.537,1.697-2.537    C31.775,55.332,32.36,56.247,32.36,57.802z M29.71,57.877c0,1.269,0.39,1.989,0.991,1.989c0.676,0,0.999-0.788,0.999-2.034    c0-1.201-0.308-1.99-0.991-1.99C30.13,55.842,29.71,56.548,29.71,57.877z"/>
		<path d="M13.61,83.695h-0.015l-0.849,0.458l-0.127-0.503l1.066-0.57h0.563v4.88H13.61V83.695z"/>
		<path d="M19.267,85.468c0,1.659-0.616,2.575-1.697,2.575c-0.953,0-1.599-0.894-1.614-2.508c0-1.637,0.706-2.537,1.697-2.537    C18.681,82.998,19.267,83.913,19.267,85.468z M16.617,85.543c0,1.269,0.39,1.989,0.991,1.989c0.676,0,0.999-0.788,0.999-2.034    c0-1.201-0.308-1.99-0.991-1.99C17.037,83.508,16.617,84.214,16.617,85.543z"/>
		<path d="M19.653,88.884c0.165-0.443,0.368-1.247,0.45-1.795l0.736-0.075c-0.172,0.639-0.503,1.472-0.713,1.824L19.653,88.884z"/>
		<path d="M24.666,85.468c0,1.659-0.616,2.575-1.697,2.575c-0.953,0-1.599-0.894-1.614-2.508c0-1.637,0.706-2.537,1.697-2.537    C24.081,82.998,24.666,83.913,24.666,85.468z M22.016,85.543c0,1.269,0.39,1.989,0.991,1.989c0.676,0,0.999-0.788,0.999-2.034    c0-1.201-0.308-1.99-0.991-1.99C22.436,83.508,22.016,84.214,22.016,85.543z"/>
		<path d="M28.513,85.468c0,1.659-0.616,2.575-1.697,2.575c-0.954,0-1.599-0.894-1.614-2.508c0-1.637,0.706-2.537,1.696-2.537    C27.928,82.998,28.513,83.913,28.513,85.468z M25.863,85.543c0,1.269,0.391,1.989,0.991,1.989c0.676,0,0.999-0.788,0.999-2.034    c0-1.201-0.308-1.99-0.991-1.99C26.284,83.508,25.863,84.214,25.863,85.543z"/>
		<path d="M32.36,85.468c0,1.659-0.616,2.575-1.697,2.575c-0.953,0-1.599-0.894-1.614-2.508c0-1.637,0.706-2.537,1.697-2.537    C31.775,82.998,32.36,83.913,32.36,85.468z M29.71,85.543c0,1.269,0.39,1.989,0.991,1.989c0.676,0,0.999-0.788,0.999-2.034    c0-1.201-0.308-1.99-0.991-1.99C30.13,83.508,29.71,84.214,29.71,85.543z"/>
		<path d="M18.936,111.302h-1.862l-0.188,1.254c0.113-0.016,0.218-0.03,0.398-0.03c0.375,0,0.75,0.083,1.051,0.263    c0.383,0.218,0.698,0.639,0.698,1.254c0,0.953-0.758,1.667-1.816,1.667c-0.533,0-0.984-0.15-1.216-0.301l0.165-0.503    c0.203,0.12,0.601,0.271,1.043,0.271c0.623,0,1.156-0.405,1.156-1.059c-0.008-0.631-0.428-1.081-1.404-1.081    c-0.278,0-0.496,0.03-0.676,0.053l0.315-2.343h2.334V111.302z"/>
		<path d="M19.653,116.55c0.165-0.443,0.368-1.247,0.45-1.795l0.736-0.075c-0.172,0.639-0.503,1.472-0.713,1.824L19.653,116.55z"/>
		<path d="M24.666,113.134c0,1.659-0.616,2.575-1.697,2.575c-0.953,0-1.599-0.894-1.614-2.508c0-1.637,0.706-2.537,1.697-2.537    C24.081,110.664,24.666,111.579,24.666,113.134z M22.016,113.209c0,1.269,0.39,1.989,0.991,1.989c0.676,0,0.999-0.788,0.999-2.034    c0-1.201-0.308-1.99-0.991-1.99C22.436,111.174,22.016,111.88,22.016,113.209z"/>
		<path d="M28.513,113.134c0,1.659-0.616,2.575-1.697,2.575c-0.954,0-1.599-0.894-1.614-2.508c0-1.637,0.706-2.537,1.696-2.537    C27.928,110.664,28.513,111.579,28.513,113.134z M25.863,113.209c0,1.269,0.391,1.989,0.991,1.989    c0.676,0,0.999-0.788,0.999-2.034c0-1.201-0.308-1.99-0.991-1.99C26.284,111.174,25.863,111.88,25.863,113.209z"/>
		<path d="M32.36,113.134c0,1.659-0.616,2.575-1.697,2.575c-0.953,0-1.599-0.894-1.614-2.508c0-1.637,0.706-2.537,1.697-2.537    C31.775,110.664,32.36,111.579,32.36,113.134z M29.71,113.209c0,1.269,0.39,1.989,0.991,1.989c0.676,0,0.999-0.788,0.999-2.034    c0-1.201-0.308-1.99-0.991-1.99C30.13,111.174,29.71,111.88,29.71,113.209z"/>
		<path d="M32.361,140.8c0,1.659-0.616,2.575-1.697,2.575c-0.953,0-1.599-0.894-1.614-2.508c0-1.637,0.706-2.537,1.697-2.537    C31.776,138.33,32.361,139.245,32.361,140.8z M29.711,140.875c0,1.269,0.39,1.989,0.991,1.989c0.676,0,0.999-0.788,0.999-2.034    c0-1.201-0.308-1.99-0.991-1.99C30.131,138.84,29.711,139.546,29.711,140.875z"/>
	</g>
	<g>
		<g>
			<g>
				
					<line fill="none" stroke="#A7A9AC" stroke-width="0.5" stroke-linejoin="round" x1="35.255" y1="29.481" x2="36.255" y2="29.481"/>
				
					<line fill="none" stroke="#A7A9AC" stroke-width="0.5" stroke-linejoin="round" stroke-dasharray="1.9999,1.9999" x1="38.255" y1="29.481" x2="285.243" y2="29.481"/>
				
					<line fill="none" stroke="#A7A9AC" stroke-width="0.5" stroke-linejoin="round" x1="286.243" y1="29.481" x2="287.243" y2="29.481"/>
			</g>
			<g>
				
					<line fill="none" stroke="#A7A9AC" stroke-width="0.5" stroke-linejoin="round" x1="35.255" y1="57.146" x2="36.255" y2="57.146"/>
				
					<line fill="none" stroke="#A7A9AC" stroke-width="0.5" stroke-linejoin="round" stroke-dasharray="1.9999,1.9999" x1="38.255" y1="57.146" x2="285.243" y2="57.146"/>
				
					<line fill="none" stroke="#A7A9AC" stroke-width="0.5" stroke-linejoin="round" x1="286.243" y1="57.146" x2="287.243" y2="57.146"/>
			</g>
			<g>
				
					<line fill="none" stroke="#A7A9AC" stroke-width="0.5" stroke-linejoin="round" x1="35.255" y1="84.812" x2="36.255" y2="84.812"/>
				
					<line fill="none" stroke="#A7A9AC" stroke-width="0.5" stroke-linejoin="round" stroke-dasharray="1.9999,1.9999" x1="38.255" y1="84.812" x2="285.243" y2="84.812"/>
				
					<line fill="none" stroke="#A7A9AC" stroke-width="0.5" stroke-linejoin="round" x1="286.243" y1="84.812" x2="287.243" y2="84.812"/>
			</g>
			<g>
				
					<line fill="none" stroke="#A7A9AC" stroke-width="0.5" stroke-linejoin="round" x1="35.255" y1="112.479" x2="36.255" y2="112.479"/>
				
					<line fill="none" stroke="#A7A9AC" stroke-width="0.5" stroke-linejoin="round" stroke-dasharray="1.9999,1.9999" x1="38.255" y1="112.479" x2="285.243" y2="112.479"/>
				
					<line fill="none" stroke="#A7A9AC" stroke-width="0.5" stroke-linejoin="round" x1="286.243" y1="112.479" x2="287.243" y2="112.479"/>
			</g>
		</g>
	</g>
	<g>
		<g>
			<g>
				
					<line fill="none" stroke="#A7A9AC" stroke-width="0.5" stroke-linejoin="round" x1="245.369" y1="2.562" x2="245.369" y2="3.562"/>
				
					<line fill="none" stroke="#A7A9AC" stroke-width="0.5" stroke-linejoin="round" stroke-dasharray="2.0125,2.0125" x1="245.369" y1="5.574" x2="245.369" y2="137.392"/>
				
					<line fill="none" stroke="#A7A9AC" stroke-width="0.5" stroke-linejoin="round" x1="245.369" y1="138.398" x2="245.369" y2="139.398"/>
			</g>
			<g>
				
					<line fill="none" stroke="#A7A9AC" stroke-width="0.5" stroke-linejoin="round" x1="203.494" y1="2.562" x2="203.494" y2="3.562"/>
				
					<line fill="none" stroke="#A7A9AC" stroke-width="0.5" stroke-linejoin="round" stroke-dasharray="2.0125,2.0125" x1="203.494" y1="5.574" x2="203.494" y2="137.392"/>
				
					<line fill="none" stroke="#A7A9AC" stroke-width="0.5" stroke-linejoin="round" x1="203.494" y1="138.398" x2="203.494" y2="139.398"/>
			</g>
			<g>
				
					<line fill="none" stroke="#A7A9AC" stroke-width="0.5" stroke-linejoin="round" x1="161.623" y1="2.562" x2="161.623" y2="3.562"/>
				
					<line fill="none" stroke="#A7A9AC" stroke-width="0.5" stroke-linejoin="round" stroke-dasharray="2.0125,2.0125" x1="161.623" y1="5.574" x2="161.623" y2="137.392"/>
				
					<line fill="none" stroke="#A7A9AC" stroke-width="0.5" stroke-linejoin="round" x1="161.623" y1="138.398" x2="161.623" y2="139.398"/>
			</g>
			<g>
				
					<line fill="none" stroke="#A7A9AC" stroke-width="0.5" stroke-linejoin="round" x1="119.001" y1="2.562" x2="119.001" y2="3.562"/>
				
					<line fill="none" stroke="#A7A9AC" stroke-width="0.5" stroke-linejoin="round" stroke-dasharray="2.0125,2.0125" x1="119.001" y1="5.574" x2="119.001" y2="137.392"/>
				
					<line fill="none" stroke="#A7A9AC" stroke-width="0.5" stroke-linejoin="round" x1="119.001" y1="138.398" x2="119.001" y2="139.398"/>
			</g>
			<g>
				
					<line fill="none" stroke="#A7A9AC" stroke-width="0.5" stroke-linejoin="round" x1="77.128" y1="2.562" x2="77.128" y2="3.562"/>
				
					<line fill="none" stroke="#A7A9AC" stroke-width="0.5" stroke-linejoin="round" stroke-dasharray="2.0125,2.0125" x1="77.128" y1="5.574" x2="77.128" y2="137.392"/>
				
					<line fill="none" stroke="#A7A9AC" stroke-width="0.5" stroke-linejoin="round" x1="77.128" y1="138.398" x2="77.128" y2="139.398"/>
			</g>
		</g>
	</g>
	
		<rect x="35.312" y="2.355" fill="none" stroke="#000000" stroke-width="0.5" stroke-linejoin="round" stroke-miterlimit="10" width="251.942" height="137.237"/>
	<circle cx="70.707" cy="136.306" r="2"/>
	<circle cx="83.548" cy="136.306" r="2"/>
	<circle cx="89.823" cy="122.265" r="2"/>
	<circle cx="142.65" cy="120.951" r="2"/>
	<circle cx="157.243" cy="121.097" r="2"/>
	<circle cx="167.604" cy="122.265" r="2"/>
	<circle cx="190.953" cy="117.741" r="2"/>
	<circle cx="192.996" cy="121.097" r="2"/>
	<circle cx="218.681" cy="121.097" r="2"/>
	<circle cx="232.398" cy="121.097" r="2"/>
	<circle cx="192.996" cy="104.753" r="2"/>
	<circle cx="188.91" cy="99.646" r="2"/>
	<circle cx="187.014" cy="26.097" r="2"/>
	<circle cx="235.462" cy="26.097" r="2"/>
	<circle cx="252.243" cy="40.836" r="2"/>
	<circle cx="235.316" cy="64.768" r="2"/>
	<circle cx="230.792" cy="104.753" r="2"/>
	<circle cx="237.505" cy="104.753" r="2"/>
	<circle cx="192.996" cy="84.614" r="2"/>
	<circle cx="167.604" cy="104.753" r="2"/>
	<circle cx="155.2" cy="135.106" r="2"/>
	<circle cx="155.2" cy="104.607" r="2"/>
	<circle cx="142.504" cy="64.477" r="2"/>
	<g>
		<path d="M29.366,146.791h-0.015l-0.849,0.458l-0.127-0.503l1.066-0.57h0.563v4.88h-0.638V146.791z"/>
		<path d="M31.719,149.817c0-0.616,0.368-1.052,0.968-1.307l-0.007-0.022c-0.541-0.256-0.773-0.676-0.773-1.096    c0-0.773,0.653-1.299,1.509-1.299c0.946,0,1.419,0.593,1.419,1.201c0,0.412-0.203,0.855-0.804,1.141v0.022    c0.608,0.24,0.983,0.668,0.983,1.262c0,0.848-0.728,1.419-1.659,1.419C32.334,151.139,31.719,150.53,31.719,149.817z     M34.346,149.787c0-0.594-0.413-0.879-1.073-1.066c-0.571,0.165-0.878,0.541-0.878,1.006c-0.023,0.496,0.353,0.932,0.976,0.932    C33.963,150.658,34.346,150.29,34.346,149.787z M32.529,147.347c0,0.488,0.368,0.751,0.931,0.901    c0.42-0.143,0.743-0.443,0.743-0.886c0-0.391-0.233-0.796-0.826-0.796C32.83,146.566,32.529,146.927,32.529,147.347z"/>
		<path d="M35.566,149.817c0-0.616,0.368-1.052,0.968-1.307l-0.007-0.022c-0.541-0.256-0.773-0.676-0.773-1.096    c0-0.773,0.653-1.299,1.509-1.299c0.946,0,1.418,0.593,1.418,1.201c0,0.412-0.203,0.855-0.803,1.141v0.022    c0.608,0.24,0.984,0.668,0.984,1.262c0,0.848-0.729,1.419-1.659,1.419C36.182,151.139,35.566,150.53,35.566,149.817z     M38.193,149.787c0-0.594-0.413-0.879-1.074-1.066c-0.57,0.165-0.878,0.541-0.878,1.006c-0.022,0.496,0.353,0.932,0.976,0.932    C37.811,150.658,38.193,150.29,38.193,149.787z M36.376,147.347c0,0.488,0.368,0.751,0.931,0.901    c0.42-0.143,0.743-0.443,0.743-0.886c0-0.391-0.233-0.796-0.826-0.796C36.677,146.566,36.376,146.927,36.376,147.347z"/>
		<path d="M42.716,148.563c0,1.659-0.616,2.575-1.697,2.575c-0.954,0-1.599-0.894-1.614-2.508c0-1.637,0.706-2.537,1.696-2.537    C42.131,146.094,42.716,147.009,42.716,148.563z M40.066,148.639c0,1.269,0.391,1.989,0.991,1.989    c0.676,0,0.999-0.788,0.999-2.034c0-1.201-0.308-1.99-0.991-1.99C40.487,146.604,40.066,147.31,40.066,148.639z"/>
	</g>
	<g>
		<path d="M71.364,146.791h-0.015l-0.849,0.458l-0.127-0.503l1.066-0.57h0.563v4.88h-0.638V146.791z"/>
		<path d="M74.16,150.59c0.143,0.016,0.308,0,0.533-0.022c0.383-0.052,0.743-0.21,1.021-0.473c0.323-0.293,0.555-0.721,0.646-1.299    h-0.022c-0.271,0.33-0.661,0.525-1.149,0.525c-0.878,0-1.441-0.66-1.441-1.494c0-0.923,0.668-1.733,1.667-1.733    c0.998,0,1.614,0.811,1.614,2.057c0,1.073-0.36,1.824-0.841,2.29c-0.375,0.367-0.893,0.593-1.419,0.652    c-0.24,0.038-0.45,0.046-0.608,0.038V150.59z M74.4,147.782c0,0.608,0.368,1.036,0.938,1.036c0.443,0,0.788-0.218,0.961-0.511    c0.038-0.06,0.06-0.135,0.06-0.24c0-0.833-0.308-1.471-0.999-1.471C74.798,146.597,74.4,147.092,74.4,147.782z"/>
		<path d="M80.867,148.563c0,1.659-0.616,2.575-1.697,2.575c-0.953,0-1.599-0.894-1.614-2.508c0-1.637,0.706-2.537,1.697-2.537    C80.282,146.094,80.867,147.009,80.867,148.563z M78.217,148.639c0,1.269,0.39,1.989,0.991,1.989c0.676,0,0.999-0.788,0.999-2.034    c0-1.201-0.308-1.99-0.991-1.99C78.637,146.604,78.217,147.31,78.217,148.639z"/>
		<path d="M84.714,148.563c0,1.659-0.616,2.575-1.697,2.575c-0.954,0-1.599-0.894-1.614-2.508c0-1.637,0.706-2.537,1.696-2.537    C84.129,146.094,84.714,147.009,84.714,148.563z M82.064,148.639c0,1.269,0.391,1.989,0.991,1.989    c0.676,0,0.999-0.788,0.999-2.034c0-1.201-0.308-1.99-0.991-1.99C82.485,146.604,82.064,147.31,82.064,148.639z"/>
	</g>
	<g>
		<path d="M113.362,146.791h-0.015l-0.849,0.458l-0.127-0.503l1.066-0.57H114v4.88h-0.638V146.791z"/>
		<path d="M116.158,150.59c0.143,0.016,0.308,0,0.533-0.022c0.383-0.052,0.743-0.21,1.021-0.473    c0.323-0.293,0.555-0.721,0.646-1.299h-0.022c-0.271,0.33-0.661,0.525-1.149,0.525c-0.878,0-1.441-0.66-1.441-1.494    c0-0.923,0.668-1.733,1.667-1.733c0.998,0,1.614,0.811,1.614,2.057c0,1.073-0.36,1.824-0.841,2.29    c-0.375,0.367-0.893,0.593-1.419,0.652c-0.24,0.038-0.45,0.046-0.608,0.038V150.59z M116.398,147.782    c0,0.608,0.368,1.036,0.938,1.036c0.443,0,0.788-0.218,0.961-0.511c0.038-0.06,0.06-0.135,0.06-0.24    c0-0.833-0.308-1.471-0.999-1.471C116.796,146.597,116.398,147.092,116.398,147.782z"/>
		<path d="M119.622,151.056v-0.405l0.518-0.503c1.246-1.187,1.809-1.817,1.816-2.553c0-0.495-0.24-0.953-0.968-0.953    c-0.443,0-0.811,0.225-1.036,0.413l-0.21-0.466c0.338-0.285,0.818-0.495,1.381-0.495c1.051,0,1.494,0.721,1.494,1.418    c0,0.901-0.653,1.63-1.682,2.62l-0.391,0.36v0.016h2.192v0.548H119.622z"/>
		<path d="M126.712,148.563c0,1.659-0.616,2.575-1.697,2.575c-0.954,0-1.599-0.894-1.614-2.508c0-1.637,0.706-2.537,1.696-2.537    C126.127,146.094,126.712,147.009,126.712,148.563z M124.062,148.639c0,1.269,0.391,1.989,0.991,1.989    c0.676,0,0.999-0.788,0.999-2.034c0-1.201-0.308-1.99-0.991-1.99C124.483,146.604,124.062,147.31,124.062,148.639z"/>
	</g>
	<g>
		<path d="M155.36,146.791h-0.016l-0.849,0.458l-0.128-0.503l1.066-0.57h0.562v4.88h-0.637V146.791z"/>
		<path d="M158.155,150.59c0.143,0.016,0.309,0,0.533-0.022c0.383-0.052,0.744-0.21,1.021-0.473    c0.322-0.293,0.555-0.721,0.646-1.299h-0.022c-0.271,0.33-0.66,0.525-1.148,0.525c-0.879,0-1.441-0.66-1.441-1.494    c0-0.923,0.668-1.733,1.666-1.733s1.614,0.811,1.614,2.057c0,1.073-0.36,1.824-0.841,2.29c-0.375,0.367-0.893,0.593-1.419,0.652    c-0.24,0.038-0.45,0.046-0.608,0.038V150.59z M158.396,147.782c0,0.608,0.368,1.036,0.939,1.036c0.442,0,0.787-0.218,0.961-0.511    c0.037-0.06,0.06-0.135,0.06-0.24c0-0.833-0.308-1.471-0.999-1.471C158.794,146.597,158.396,147.092,158.396,147.782z"/>
		<path d="M163.662,151.056v-1.329h-2.267v-0.436l2.176-3.115h0.714v3.033h0.683v0.518h-0.683v1.329H163.662z M163.662,149.209    v-1.629c0-0.256,0.007-0.511,0.022-0.766h-0.022c-0.15,0.285-0.271,0.495-0.405,0.721l-1.193,1.658v0.016H163.662z"/>
		<path d="M168.71,148.563c0,1.659-0.615,2.575-1.696,2.575c-0.954,0-1.599-0.894-1.614-2.508c0-1.637,0.706-2.537,1.697-2.537    C168.125,146.094,168.71,147.009,168.71,148.563z M166.06,148.639c0,1.269,0.391,1.989,0.992,1.989    c0.676,0,0.998-0.788,0.998-2.034c0-1.201-0.309-1.99-0.991-1.99C166.481,146.604,166.06,147.31,166.06,148.639z"/>
	</g>
	<g>
		<path d="M197.358,146.791h-0.016l-0.849,0.458l-0.128-0.503l1.066-0.57h0.562v4.88h-0.637V146.791z"/>
		<path d="M200.153,150.59c0.143,0.016,0.309,0,0.533-0.022c0.383-0.052,0.744-0.21,1.021-0.473    c0.322-0.293,0.555-0.721,0.646-1.299h-0.022c-0.271,0.33-0.66,0.525-1.148,0.525c-0.879,0-1.441-0.66-1.441-1.494    c0-0.923,0.668-1.733,1.666-1.733s1.614,0.811,1.614,2.057c0,1.073-0.36,1.824-0.841,2.29c-0.375,0.367-0.893,0.593-1.419,0.652    c-0.24,0.038-0.45,0.046-0.608,0.038V150.59z M200.394,147.782c0,0.608,0.368,1.036,0.939,1.036c0.442,0,0.787-0.218,0.961-0.511    c0.037-0.06,0.06-0.135,0.06-0.24c0-0.833-0.308-1.471-0.999-1.471C200.792,146.597,200.394,147.092,200.394,147.782z"/>
		<path d="M206.403,146.642c-0.135-0.008-0.308,0-0.496,0.03c-1.035,0.172-1.584,0.931-1.695,1.733h0.021    c0.232-0.308,0.639-0.562,1.18-0.562c0.863,0,1.471,0.623,1.471,1.576c0,0.894-0.607,1.72-1.621,1.72    c-1.044,0-1.727-0.812-1.727-2.08c0-0.961,0.345-1.719,0.825-2.199c0.405-0.398,0.946-0.646,1.562-0.721    c0.195-0.03,0.36-0.038,0.48-0.038V146.642z M206.216,149.457c0-0.698-0.398-1.119-1.006-1.119c-0.398,0-0.766,0.248-0.946,0.601    c-0.045,0.075-0.075,0.173-0.075,0.293c0.016,0.804,0.383,1.396,1.074,1.396C205.833,150.628,206.216,150.154,206.216,149.457z"/>
		<path d="M210.708,148.563c0,1.659-0.615,2.575-1.696,2.575c-0.954,0-1.599-0.894-1.614-2.508c0-1.637,0.706-2.537,1.697-2.537    C210.123,146.094,210.708,147.009,210.708,148.563z M208.058,148.639c0,1.269,0.391,1.989,0.992,1.989    c0.676,0,0.998-0.788,0.998-2.034c0-1.201-0.309-1.99-0.991-1.99C208.479,146.604,208.058,147.31,208.058,148.639z"/>
	</g>
	<g>
		<path d="M239.356,146.791h-0.016l-0.849,0.458l-0.128-0.503l1.066-0.57h0.562v4.88h-0.637V146.791z"/>
		<path d="M242.151,150.59c0.143,0.016,0.309,0,0.533-0.022c0.383-0.052,0.744-0.21,1.021-0.473    c0.322-0.293,0.555-0.721,0.646-1.299h-0.022c-0.271,0.33-0.66,0.525-1.148,0.525c-0.879,0-1.441-0.66-1.441-1.494    c0-0.923,0.668-1.733,1.666-1.733s1.614,0.811,1.614,2.057c0,1.073-0.36,1.824-0.841,2.29c-0.375,0.367-0.893,0.593-1.419,0.652    c-0.24,0.038-0.45,0.046-0.608,0.038V150.59z M242.392,147.782c0,0.608,0.368,1.036,0.939,1.036c0.442,0,0.787-0.218,0.961-0.511    c0.037-0.06,0.06-0.135,0.06-0.24c0-0.833-0.308-1.471-0.999-1.471C242.79,146.597,242.392,147.092,242.392,147.782z"/>
		<path d="M245.556,149.817c0-0.616,0.368-1.052,0.969-1.307l-0.008-0.022c-0.54-0.256-0.773-0.676-0.773-1.096    c0-0.773,0.654-1.299,1.51-1.299c0.945,0,1.418,0.593,1.418,1.201c0,0.412-0.202,0.855-0.803,1.141v0.022    c0.608,0.24,0.984,0.668,0.984,1.262c0,0.848-0.729,1.419-1.66,1.419C246.172,151.139,245.556,150.53,245.556,149.817z     M248.184,149.787c0-0.594-0.413-0.879-1.073-1.066c-0.57,0.165-0.879,0.541-0.879,1.006c-0.021,0.496,0.354,0.932,0.977,0.932    C247.801,150.658,248.184,150.29,248.184,149.787z M246.366,147.347c0,0.488,0.369,0.751,0.932,0.901    c0.42-0.143,0.743-0.443,0.743-0.886c0-0.391-0.233-0.796-0.825-0.796C246.667,146.566,246.366,146.927,246.366,147.347z"/>
		<path d="M252.706,148.563c0,1.659-0.615,2.575-1.696,2.575c-0.954,0-1.599-0.894-1.614-2.508c0-1.637,0.706-2.537,1.697-2.537    C252.121,146.094,252.706,147.009,252.706,148.563z M250.056,148.639c0,1.269,0.391,1.989,0.992,1.989    c0.676,0,0.998-0.788,0.998-2.034c0-1.201-0.309-1.99-0.991-1.99C250.478,146.604,250.056,147.31,250.056,148.639z"/>
	</g>
	<g>
		<path d="M279.92,151.056v-0.405l0.519-0.503c1.246-1.187,1.809-1.817,1.816-2.553c0-0.495-0.24-0.953-0.969-0.953    c-0.443,0-0.811,0.225-1.036,0.413l-0.21-0.466c0.338-0.285,0.818-0.495,1.381-0.495c1.051,0,1.494,0.721,1.494,1.418    c0,0.901-0.652,1.63-1.682,2.62l-0.391,0.36v0.016h2.193v0.548H279.92z"/>
		<path d="M287.011,148.563c0,1.659-0.616,2.575-1.697,2.575c-0.953,0-1.6-0.894-1.613-2.508c0-1.637,0.705-2.537,1.695-2.537    C286.425,146.094,287.011,147.009,287.011,148.563z M284.36,148.639c0,1.269,0.391,1.989,0.99,1.989    c0.676,0,0.999-0.788,0.999-2.034c0-1.201-0.308-1.99-0.991-1.99C284.78,146.604,284.36,147.31,284.36,148.639z"/>
		<path d="M290.857,148.563c0,1.659-0.616,2.575-1.696,2.575c-0.953,0-1.6-0.894-1.615-2.508c0-1.637,0.707-2.537,1.697-2.537    C290.272,146.094,290.857,147.009,290.857,148.563z M288.208,148.639c0,1.269,0.39,1.989,0.99,1.989    c0.676,0,0.998-0.788,0.998-2.034c0-1.201-0.307-1.99-0.99-1.99C288.628,146.604,288.208,147.31,288.208,148.639z"/>
		<path d="M294.704,148.563c0,1.659-0.615,2.575-1.696,2.575c-0.954,0-1.599-0.894-1.614-2.508c0-1.637,0.706-2.537,1.697-2.537    C294.119,146.094,294.704,147.009,294.704,148.563z M292.054,148.639c0,1.269,0.391,1.989,0.992,1.989    c0.676,0,0.998-0.788,0.998-2.034c0-1.201-0.309-1.99-0.991-1.99C292.476,146.604,292.054,147.31,292.054,148.639z"/>
	</g>
</g>
</svg>