<svg xmlns="http://www.w3.org/2000/svg" xmlns:xlink="http://www.w3.org/1999/xlink" version="1.1" x="0px" y="0px" width="296.979px" height="151.139px" viewBox="0 0 296.979 151.139" enable-background="new 0 0 296.979 151.139" xml:space="preserve">
<g id="wide" display="none">
</g>
<g id="text_column">
</g>
<g id="art">
	<g>
		<g>
			<line fill="none" stroke="#A7A9AC" stroke-width="0.5" stroke-linejoin="round" x1="37.505" y1="36.73" x2="38.505" y2="36.73"/>
			
				<line fill="none" stroke="#A7A9AC" stroke-width="0.5" stroke-linejoin="round" stroke-dasharray="1.9999,1.9999" x1="40.505" y1="36.73" x2="287.493" y2="36.73"/>
			
				<line fill="none" stroke="#A7A9AC" stroke-width="0.5" stroke-linejoin="round" x1="288.493" y1="36.73" x2="289.493" y2="36.73"/>
		</g>
	</g>
	<g>
		<g>
			
				<line fill="none" stroke="#A7A9AC" stroke-width="0.5" stroke-linejoin="round" x1="37.505" y1="122.354" x2="38.505" y2="122.354"/>
			
				<line fill="none" stroke="#A7A9AC" stroke-width="0.5" stroke-linejoin="round" stroke-dasharray="1.9999,1.9999" x1="40.505" y1="122.354" x2="287.493" y2="122.354"/>
			
				<line fill="none" stroke="#A7A9AC" stroke-width="0.5" stroke-linejoin="round" x1="288.493" y1="122.354" x2="289.493" y2="122.354"/>
		</g>
	</g>
	<g>
		<g>
			<line fill="none" stroke="#A7A9AC" stroke-width="0.5" stroke-linejoin="round" x1="37.505" y1="70.98" x2="38.505" y2="70.98"/>
			
				<line fill="none" stroke="#A7A9AC" stroke-width="0.5" stroke-linejoin="round" stroke-dasharray="1.9999,1.9999" x1="40.505" y1="70.98" x2="287.493" y2="70.98"/>
			
				<line fill="none" stroke="#A7A9AC" stroke-width="0.5" stroke-linejoin="round" x1="288.493" y1="70.98" x2="289.493" y2="70.98"/>
		</g>
	</g>
	<g>
		<g>
			
				<line fill="none" stroke="#A7A9AC" stroke-width="0.5" stroke-linejoin="round" x1="37.505" y1="19.606" x2="38.505" y2="19.606"/>
			
				<line fill="none" stroke="#A7A9AC" stroke-width="0.5" stroke-linejoin="round" stroke-dasharray="1.9999,1.9999" x1="40.505" y1="19.606" x2="287.493" y2="19.606"/>
			
				<line fill="none" stroke="#A7A9AC" stroke-width="0.5" stroke-linejoin="round" x1="288.493" y1="19.606" x2="289.493" y2="19.606"/>
		</g>
	</g>
	<g>
		<g>
			
				<line fill="none" stroke="#A7A9AC" stroke-width="0.5" stroke-linejoin="round" x1="37.505" y1="88.105" x2="38.505" y2="88.105"/>
			
				<line fill="none" stroke="#A7A9AC" stroke-width="0.5" stroke-linejoin="round" stroke-dasharray="1.9999,1.9999" x1="40.505" y1="88.105" x2="287.493" y2="88.105"/>
			
				<line fill="none" stroke="#A7A9AC" stroke-width="0.5" stroke-linejoin="round" x1="288.493" y1="88.105" x2="289.493" y2="88.105"/>
		</g>
	</g>
	<g>
		<g>
			
				<line fill="none" stroke="#A7A9AC" stroke-width="0.5" stroke-linejoin="round" x1="37.505" y1="105.23" x2="38.505" y2="105.23"/>
			
				<line fill="none" stroke="#A7A9AC" stroke-width="0.5" stroke-linejoin="round" stroke-dasharray="1.9999,1.9999" x1="40.505" y1="105.23" x2="287.493" y2="105.23"/>
			
				<line fill="none" stroke="#A7A9AC" stroke-width="0.5" stroke-linejoin="round" x1="288.493" y1="105.23" x2="289.493" y2="105.23"/>
		</g>
	</g>
	<g>
		<g>
			
				<line fill="none" stroke="#A7A9AC" stroke-width="0.5" stroke-linejoin="round" x1="37.505" y1="53.855" x2="38.505" y2="53.855"/>
			
				<line fill="none" stroke="#A7A9AC" stroke-width="0.5" stroke-linejoin="round" stroke-dasharray="1.9999,1.9999" x1="40.505" y1="53.855" x2="287.493" y2="53.855"/>
			
				<line fill="none" stroke="#A7A9AC" stroke-width="0.5" stroke-linejoin="round" x1="288.493" y1="53.855" x2="289.493" y2="53.855"/>
		</g>
	</g>
	<g>
		<g>
			<line fill="none" stroke="#A7A9AC" stroke-width="0.5" stroke-linejoin="round" x1="37.505" y1="2.481" x2="38.505" y2="2.481"/>
			
				<line fill="none" stroke="#A7A9AC" stroke-width="0.5" stroke-linejoin="round" stroke-dasharray="1.9999,1.9999" x1="40.505" y1="2.481" x2="287.493" y2="2.481"/>
			
				<line fill="none" stroke="#A7A9AC" stroke-width="0.5" stroke-linejoin="round" x1="288.493" y1="2.481" x2="289.493" y2="2.481"/>
		</g>
	</g>
	<g>
		<g>
			
				<line fill="none" stroke="#A7A9AC" stroke-width="0.5" stroke-linejoin="round" x1="37.505" y1="139.479" x2="38.505" y2="139.479"/>
			
				<line fill="none" stroke="#A7A9AC" stroke-width="0.5" stroke-linejoin="round" stroke-dasharray="1.9999,1.9999" x1="40.505" y1="139.479" x2="287.493" y2="139.479"/>
			
				<line fill="none" stroke="#A7A9AC" stroke-width="0.5" stroke-linejoin="round" x1="288.493" y1="139.479" x2="289.493" y2="139.479"/>
		</g>
	</g>
	<g>
		<g>
			
				<line fill="none" stroke="#A7A9AC" stroke-width="0.5" stroke-linejoin="round" x1="258.052" y1="2.562" x2="258.052" y2="3.562"/>
			
				<line fill="none" stroke="#A7A9AC" stroke-width="0.5" stroke-linejoin="round" stroke-dasharray="2.0125,2.0125" x1="258.052" y1="5.574" x2="258.052" y2="137.392"/>
			
				<line fill="none" stroke="#A7A9AC" stroke-width="0.5" stroke-linejoin="round" x1="258.052" y1="138.398" x2="258.052" y2="139.398"/>
		</g>
	</g>
	<g>
		<g>
			
				<line fill="none" stroke="#A7A9AC" stroke-width="0.5" stroke-linejoin="round" x1="132.058" y1="2.562" x2="132.058" y2="3.562"/>
			
				<line fill="none" stroke="#A7A9AC" stroke-width="0.5" stroke-linejoin="round" stroke-dasharray="2.0125,2.0125" x1="132.058" y1="5.574" x2="132.058" y2="137.392"/>
			
				<line fill="none" stroke="#A7A9AC" stroke-width="0.5" stroke-linejoin="round" x1="132.058" y1="138.398" x2="132.058" y2="139.398"/>
		</g>
	</g>
	<g>
		<g>
			<line fill="none" stroke="#A7A9AC" stroke-width="0.5" stroke-linejoin="round" x1="69.06" y1="2.562" x2="69.06" y2="3.562"/>
			
				<line fill="none" stroke="#A7A9AC" stroke-width="0.5" stroke-linejoin="round" stroke-dasharray="2.0125,2.0125" x1="69.06" y1="5.574" x2="69.06" y2="137.392"/>
			
				<line fill="none" stroke="#A7A9AC" stroke-width="0.5" stroke-linejoin="round" x1="69.06" y1="138.398" x2="69.06" y2="139.398"/>
		</g>
	</g>
	<g>
		<g>
			
				<line fill="none" stroke="#A7A9AC" stroke-width="0.5" stroke-linejoin="round" x1="195.055" y1="2.562" x2="195.055" y2="3.562"/>
			
				<line fill="none" stroke="#A7A9AC" stroke-width="0.5" stroke-linejoin="round" stroke-dasharray="2.0125,2.0125" x1="195.055" y1="5.574" x2="195.055" y2="137.392"/>
			
				<line fill="none" stroke="#A7A9AC" stroke-width="0.5" stroke-linejoin="round" x1="195.055" y1="138.398" x2="195.055" y2="139.398"/>
		</g>
	</g>
	<g>
		<g>
			
				<line fill="none" stroke="#A7A9AC" stroke-width="0.5" stroke-linejoin="round" x1="226.554" y1="2.562" x2="226.554" y2="3.562"/>
			
				<line fill="none" stroke="#A7A9AC" stroke-width="0.5" stroke-linejoin="round" stroke-dasharray="2.0125,2.0125" x1="226.554" y1="5.574" x2="226.554" y2="137.392"/>
			
				<line fill="none" stroke="#A7A9AC" stroke-width="0.5" stroke-linejoin="round" x1="226.554" y1="138.398" x2="226.554" y2="139.398"/>
		</g>
	</g>
	<g>
		<g>
			
				<line fill="none" stroke="#A7A9AC" stroke-width="0.5" stroke-linejoin="round" x1="163.556" y1="2.562" x2="163.556" y2="3.562"/>
			
				<line fill="none" stroke="#A7A9AC" stroke-width="0.5" stroke-linejoin="round" stroke-dasharray="2.0125,2.0125" x1="163.556" y1="5.574" x2="163.556" y2="137.392"/>
			
				<line fill="none" stroke="#A7A9AC" stroke-width="0.5" stroke-linejoin="round" x1="163.556" y1="138.398" x2="163.556" y2="139.398"/>
		</g>
	</g>
	<g>
		<g>
			
				<line fill="none" stroke="#A7A9AC" stroke-width="0.5" stroke-linejoin="round" x1="100.559" y1="2.562" x2="100.559" y2="3.562"/>
			
				<line fill="none" stroke="#A7A9AC" stroke-width="0.5" stroke-linejoin="round" stroke-dasharray="2.0125,2.0125" x1="100.559" y1="5.574" x2="100.559" y2="137.392"/>
			
				<line fill="none" stroke="#A7A9AC" stroke-width="0.5" stroke-linejoin="round" x1="100.559" y1="138.398" x2="100.559" y2="139.398"/>
		</g>
	</g>
	
		<rect x="37.562" y="2.355" fill="none" stroke="#000000" stroke-width="0.5" stroke-linejoin="round" stroke-miterlimit="10" width="251.942" height="137.237"/>
	<g>
		<path d="M0.324,125.734v-3.268h0.657v2.485h2.017v-2.296h0.647v2.296h2.746v0.783H0.324z"/>
		<path d="M0.81,120.542c0.271-0.009,0.486,0.189,0.486,0.504c0,0.279-0.216,0.477-0.486,0.477c-0.278,0-0.495-0.207-0.495-0.495    C0.314,120.731,0.531,120.542,0.81,120.542z M6.392,121.425H2.034v-0.792h4.357V121.425z"/>
		<path d="M2.034,115.532c0.315,0.018,0.666,0.036,1.197,0.036h2.53c0.999,0,1.611,0.198,1.989,0.622    c0.396,0.423,0.522,1.035,0.522,1.584c0,0.522-0.126,1.098-0.36,1.449l-0.604-0.198c0.181-0.288,0.343-0.738,0.343-1.278    c0-0.81-0.424-1.404-1.521-1.404H5.645v0.018c0.405,0.243,0.729,0.711,0.729,1.386c0,1.081-0.919,1.854-2.125,1.854    c-1.477,0-2.313-0.963-2.313-1.962c0-0.756,0.396-1.17,0.756-1.359v-0.018l-0.657-0.036V115.532z M3.754,116.351    c-0.135,0-0.252,0.009-0.36,0.045c-0.459,0.144-0.837,0.531-0.837,1.107c0,0.756,0.639,1.296,1.647,1.296    c0.855,0,1.566-0.432,1.566-1.287c0-0.486-0.307-0.927-0.811-1.099c-0.135-0.045-0.288-0.063-0.423-0.063H3.754z"/>
		<path d="M0,114.238v-0.792h2.719v-0.018c-0.226-0.126-0.424-0.324-0.559-0.567c-0.135-0.234-0.225-0.513-0.225-0.81    c0-0.585,0.359-1.521,1.863-1.521h2.593v0.792H3.889c-0.702,0-1.296,0.261-1.296,1.008c0,0.513,0.359,0.918,0.792,1.062    c0.108,0.045,0.225,0.054,0.378,0.054h2.629v0.792H0z"/>
		<path d="M0.783,108.319h1.251v-1.134h0.604v1.134h2.35c0.54,0,0.846-0.153,0.846-0.594c0-0.207-0.026-0.36-0.054-0.459    l0.595-0.036c0.062,0.153,0.107,0.396,0.107,0.702c0,0.369-0.117,0.666-0.333,0.855c-0.234,0.225-0.621,0.306-1.134,0.306H2.638    v0.675H2.034v-0.675H0.99L0.783,108.319z"/>
		<path d="M4.357,105.883c1.071-0.018,1.512-0.702,1.512-1.495c0-0.567-0.099-0.909-0.225-1.207l0.567-0.135    c0.126,0.279,0.27,0.756,0.27,1.449c0,1.341-0.882,2.143-2.196,2.143s-2.35-0.774-2.35-2.043c0-1.422,1.251-1.8,2.053-1.8    c0.162,0,0.288,0.018,0.369,0.027V105.883z M3.79,103.56c-0.504-0.009-1.288,0.207-1.288,1.098c0,0.801,0.738,1.152,1.288,1.215    V103.56z"/>
		<path d="M3.394,101.764c-0.513,0-0.954,0.009-1.359,0.036v-0.693l0.855-0.027v-0.036c-0.585-0.198-0.954-0.675-0.954-1.207    c0-0.09,0.009-0.153,0.026-0.225H2.71c-0.019,0.081-0.027,0.162-0.027,0.27c0,0.558,0.423,0.954,1.018,1.062    c0.107,0.018,0.233,0.036,0.369,0.036h2.322v0.783H3.394z"/>
		<path d="M5.581,98.822c0.153-0.234,0.315-0.648,0.315-1.044c0-0.576-0.288-0.847-0.648-0.847c-0.378,0-0.585,0.225-0.801,0.811    c-0.279,0.783-0.712,1.152-1.233,1.152c-0.702,0-1.278-0.567-1.278-1.503c0-0.441,0.126-0.828,0.27-1.071l0.576,0.198    c-0.107,0.171-0.252,0.486-0.252,0.892c0,0.468,0.271,0.729,0.595,0.729c0.359,0,0.521-0.261,0.738-0.828    c0.288-0.756,0.666-1.144,1.313-1.144c0.766,0,1.306,0.594,1.306,1.629c0,0.478-0.117,0.918-0.297,1.225L5.581,98.822z"/>
		<path d="M3.457,93.242c-0.559,0-1.009,0.018-1.423,0.036v-0.711l0.747-0.036v-0.018c-0.531-0.324-0.846-0.837-0.846-1.549    c0-1.053,0.891-1.845,2.215-1.845c1.566,0,2.34,0.954,2.34,1.98c0,0.576-0.252,1.08-0.684,1.341v0.018h2.367v0.783H3.457z     M4.618,92.459c0.117,0,0.225-0.018,0.324-0.036c0.549-0.144,0.927-0.621,0.927-1.188c0-0.837-0.684-1.323-1.684-1.323    c-0.873,0-1.62,0.459-1.62,1.296c0,0.54,0.387,1.044,0.981,1.197c0.099,0.027,0.216,0.054,0.324,0.054H4.618z"/>
		<path d="M4.357,87.555c1.071-0.018,1.512-0.703,1.512-1.495c0-0.567-0.099-0.909-0.225-1.207l0.567-0.135    c0.126,0.279,0.27,0.756,0.27,1.449c0,1.341-0.882,2.143-2.196,2.143s-2.35-0.774-2.35-2.043c0-1.422,1.251-1.8,2.053-1.8    c0.162,0,0.288,0.018,0.369,0.027V87.555z M3.79,85.232c-0.504-0.009-1.288,0.207-1.288,1.098c0,0.801,0.738,1.152,1.288,1.215    V85.232z"/>
		<path d="M3.394,83.436c-0.513,0-0.954,0.009-1.359,0.036v-0.693l0.855-0.027v-0.036c-0.585-0.198-0.954-0.675-0.954-1.207    c0-0.09,0.009-0.153,0.026-0.225H2.71c-0.019,0.081-0.027,0.162-0.027,0.27c0,0.558,0.423,0.954,1.018,1.062    c0.107,0.018,0.233,0.036,0.369,0.036h2.322v0.783H3.394z"/>
		<path d="M5.581,78.693c0.153-0.234,0.315-0.648,0.315-1.044c0-0.576-0.288-0.847-0.648-0.847c-0.378,0-0.585,0.225-0.801,0.811    c-0.279,0.783-0.712,1.152-1.233,1.152c-0.702,0-1.278-0.567-1.278-1.503c0-0.441,0.126-0.828,0.27-1.071l0.576,0.198    c-0.107,0.171-0.252,0.486-0.252,0.892c0,0.468,0.271,0.729,0.595,0.729c0.359,0,0.521-0.261,0.738-0.828    c0.288-0.756,0.666-1.144,1.313-1.144c0.766,0,1.306,0.594,1.306,1.629c0,0.478-0.117,0.918-0.297,1.225L5.581,78.693z"/>
		<path d="M5.717,71.981V72c0.432,0.234,0.773,0.72,0.773,1.422c0,1.017-0.882,1.845-2.205,1.845c-1.63,0-2.35-1.053-2.35-1.971    c0-0.675,0.333-1.125,0.756-1.342v-0.018l-0.657-0.027v-0.747c0.369,0.018,0.747,0.027,1.197,0.027h4.942v0.792H5.717z     M3.799,71.981c-0.108,0-0.234,0.009-0.333,0.036c-0.486,0.117-0.9,0.541-0.9,1.135c0,0.819,0.693,1.314,1.675,1.314    c0.864,0,1.62-0.414,1.62-1.287c0-0.513-0.315-0.954-0.864-1.134c-0.108-0.036-0.261-0.063-0.378-0.063H3.799z"/>
		<path d="M5.203,66.229c0.45,0,0.847-0.009,1.188-0.036v0.702L5.681,66.94v0.018c0.351,0.207,0.81,0.667,0.81,1.44    c0,0.685-0.378,1.503-1.908,1.503H2.034V69.11h2.413c0.828,0,1.386-0.252,1.386-0.972c0-0.531-0.369-0.9-0.72-1.044    c-0.117-0.045-0.261-0.072-0.405-0.072H2.034v-0.792H5.203z"/>
		<path d="M6.392,62.48l-0.549,0.063v0.027c0.342,0.243,0.647,0.711,0.647,1.333c0,0.882-0.621,1.333-1.251,1.333    c-1.054,0-1.63-0.937-1.62-2.62H3.528c-0.359,0-1.008,0.099-1.008,0.991c0,0.405,0.126,0.828,0.324,1.134l-0.522,0.18    c-0.234-0.36-0.387-0.882-0.387-1.431c0-1.333,0.909-1.657,1.782-1.657h1.63c0.378,0,0.747-0.018,1.044-0.072V62.48z     M4.168,62.597c-0.018,0.864,0.135,1.846,0.981,1.846c0.513,0,0.756-0.342,0.756-0.747c0-0.567-0.36-0.927-0.729-1.053    c-0.08-0.027-0.171-0.045-0.252-0.045H4.168z"/>
		<path d="M3.394,60.538c-0.513,0-0.954,0.009-1.359,0.036V59.88l0.855-0.027v-0.036c-0.585-0.198-0.954-0.675-0.954-1.207    c0-0.09,0.009-0.153,0.026-0.225H2.71c-0.019,0.081-0.027,0.162-0.027,0.271c0,0.558,0.423,0.954,1.018,1.062    c0.107,0.018,0.233,0.036,0.369,0.036h2.322v0.783H3.394z"/>
		<path d="M4.357,57.137c1.071-0.018,1.512-0.702,1.512-1.495c0-0.567-0.099-0.909-0.225-1.207l0.567-0.135    c0.126,0.279,0.27,0.756,0.27,1.449c0,1.341-0.882,2.143-2.196,2.143s-2.35-0.774-2.35-2.043c0-1.422,1.251-1.8,2.053-1.8    c0.162,0,0.288,0.018,0.369,0.027V57.137z M3.79,54.814c-0.504-0.009-1.288,0.207-1.288,1.098c0,0.801,0.738,1.152,1.288,1.215    V54.814z"/>
		<path d="M4.033,50.378V50.36c-0.153-0.108-0.343-0.261-0.495-0.387l-1.504-1.278V47.74l1.792,1.684l2.565-1.918v0.963    l-2.089,1.503l0.45,0.405h1.639v0.783H0v-0.783H4.033z"/>
		<path d="M0.81,45.896c0.271-0.009,0.486,0.189,0.486,0.504c0,0.279-0.216,0.477-0.486,0.477c-0.278,0-0.495-0.207-0.495-0.495    C0.314,46.084,0.531,45.896,0.81,45.896z M6.392,46.778H2.034v-0.792h4.357V46.778z"/>
		<path d="M0,44.666v-0.792h6.392v0.792H0z"/>
		<path d="M4.177,38.539c1.611,0,2.313,1.117,2.313,2.17c0,1.179-0.864,2.088-2.241,2.088c-1.458,0-2.313-0.954-2.313-2.161    C1.936,39.385,2.845,38.539,4.177,38.539z M4.222,41.996c0.954,0,1.675-0.549,1.675-1.323c0-0.756-0.711-1.323-1.692-1.323    c-0.738,0-1.675,0.369-1.675,1.305C2.529,41.591,3.394,41.996,4.222,41.996z"/>
		<path d="M3.214,37.481c-0.45,0-0.819,0.009-1.18,0.036v-0.693l0.702-0.036v-0.027c-0.414-0.243-0.801-0.648-0.801-1.368    c0-0.594,0.359-1.044,0.873-1.233v-0.018c-0.243-0.135-0.433-0.306-0.567-0.486c-0.198-0.261-0.306-0.549-0.306-0.963    c0-0.576,0.378-1.431,1.891-1.431h2.565v0.774H3.925c-0.837,0-1.342,0.306-1.342,0.945c0,0.45,0.334,0.801,0.721,0.937    c0.108,0.036,0.252,0.063,0.396,0.063h2.691v0.774h-2.61c-0.693,0-1.198,0.306-1.198,0.909c0,0.495,0.396,0.855,0.793,0.981    c0.117,0.045,0.252,0.063,0.387,0.063h2.629v0.774H3.214z"/>
		<path d="M4.357,29.458c1.071-0.018,1.512-0.703,1.512-1.495c0-0.567-0.099-0.909-0.225-1.207l0.567-0.135    c0.126,0.279,0.27,0.756,0.27,1.449c0,1.341-0.882,2.143-2.196,2.143s-2.35-0.774-2.35-2.043c0-1.422,1.251-1.8,2.053-1.8    c0.162,0,0.288,0.018,0.369,0.027V29.458z M3.79,27.136c-0.504-0.009-1.288,0.207-1.288,1.098c0,0.801,0.738,1.152,1.288,1.215    V27.136z"/>
		<path d="M0.783,24.367h1.251v-1.134h0.604v1.134h2.35c0.54,0,0.846-0.153,0.846-0.594c0-0.207-0.026-0.36-0.054-0.459l0.595-0.036    c0.062,0.153,0.107,0.396,0.107,0.702c0,0.369-0.117,0.666-0.333,0.855c-0.234,0.225-0.621,0.306-1.134,0.306H2.638v0.675H2.034    v-0.675H0.99L0.783,24.367z"/>
		<path d="M4.357,21.936c1.071-0.018,1.512-0.702,1.512-1.495c0-0.567-0.099-0.909-0.225-1.207L6.212,19.1    c0.126,0.279,0.27,0.756,0.27,1.449c0,1.341-0.882,2.143-2.196,2.143s-2.35-0.774-2.35-2.043c0-1.422,1.251-1.8,2.053-1.8    c0.162,0,0.288,0.018,0.369,0.027V21.936z M3.79,19.613c-0.504-0.009-1.288,0.207-1.288,1.098c0,0.801,0.738,1.152,1.288,1.215    V19.613z"/>
		<path d="M3.394,17.816c-0.513,0-0.954,0.009-1.359,0.036v-0.693l0.855-0.027v-0.036c-0.585-0.198-0.954-0.675-0.954-1.207    c0-0.09,0.009-0.153,0.026-0.225H2.71c-0.019,0.081-0.027,0.162-0.027,0.27c0,0.558,0.423,0.954,1.018,1.062    c0.107,0.018,0.233,0.036,0.369,0.036h2.322v0.783H3.394z"/>
	</g>
	<g>
		<path d="M12.012,0.697h-0.015l-0.849,0.458l-0.127-0.503l1.066-0.57h0.563v4.88h-0.638V0.697z"/>
		<path d="M17.669,2.47c0,1.659-0.616,2.575-1.697,2.575c-0.953,0-1.599-0.894-1.614-2.508C14.358,0.9,15.064,0,16.055,0    C17.083,0,17.669,0.915,17.669,2.47z M15.019,2.545c0,1.269,0.39,1.989,0.991,1.989c0.676,0,0.999-0.788,0.999-2.034    c0-1.201-0.308-1.99-0.991-1.99C15.439,0.51,15.019,1.216,15.019,2.545z"/>
		<path d="M21.516,2.47c0,1.659-0.616,2.575-1.697,2.575c-0.954,0-1.599-0.894-1.614-2.508C18.206,0.9,18.911,0,19.902,0    C20.931,0,21.516,0.915,21.516,2.47z M18.866,2.545c0,1.269,0.391,1.989,0.991,1.989c0.676,0,0.999-0.788,0.999-2.034    c0-1.201-0.308-1.99-0.991-1.99C19.287,0.51,18.866,1.216,18.866,2.545z"/>
		<path d="M21.902,5.886c0.165-0.443,0.368-1.247,0.451-1.795l0.735-0.075c-0.172,0.639-0.503,1.472-0.713,1.824L21.902,5.886z"/>
		<path d="M26.916,2.47c0,1.659-0.616,2.575-1.697,2.575c-0.954,0-1.599-0.894-1.614-2.508C23.605,0.9,24.311,0,25.301,0    C26.33,0,26.916,0.915,26.916,2.47z M24.265,2.545c0,1.269,0.391,1.989,0.991,1.989c0.676,0,0.999-0.788,0.999-2.034    c0-1.201-0.308-1.99-0.991-1.99C24.686,0.51,24.265,1.216,24.265,2.545z"/>
		<path d="M30.763,2.47c0,1.659-0.616,2.575-1.697,2.575c-0.953,0-1.599-0.894-1.614-2.508C27.452,0.9,28.158,0,29.148,0    C30.177,0,30.763,0.915,30.763,2.47z M28.113,2.545c0,1.269,0.39,1.989,0.991,1.989c0.676,0,0.999-0.788,0.999-2.034    c0-1.201-0.308-1.99-0.991-1.99C28.533,0.51,28.113,1.216,28.113,2.545z"/>
		<path d="M34.61,2.47c0,1.659-0.616,2.575-1.697,2.575c-0.954,0-1.599-0.894-1.614-2.508C31.299,0.9,32.005,0,32.996,0    C34.024,0,34.61,0.915,34.61,2.47z M31.959,2.545c0,1.269,0.391,1.989,0.991,1.989c0.676,0,0.999-0.788,0.999-2.034    c0-1.201-0.308-1.99-0.991-1.99C32.38,0.51,31.959,1.216,31.959,2.545z"/>
		<path d="M15.86,17.822h-0.015l-0.849,0.458l-0.127-0.503l1.066-0.57h0.563v4.88H15.86V17.822z"/>
		<path d="M21.517,19.595c0,1.659-0.616,2.575-1.697,2.575c-0.953,0-1.599-0.894-1.614-2.508c0-1.637,0.706-2.537,1.697-2.537    C20.931,17.125,21.517,18.04,21.517,19.595z M18.867,19.67c0,1.269,0.39,1.989,0.991,1.989c0.676,0,0.999-0.788,0.999-2.034    c0-1.201-0.308-1.99-0.991-1.99C19.287,17.635,18.867,18.341,18.867,19.67z"/>
		<path d="M21.903,23.011c0.165-0.443,0.368-1.247,0.45-1.795l0.736-0.075c-0.172,0.639-0.503,1.472-0.713,1.824L21.903,23.011z"/>
		<path d="M26.916,19.595c0,1.659-0.616,2.575-1.697,2.575c-0.953,0-1.599-0.894-1.614-2.508c0-1.637,0.706-2.537,1.697-2.537    C26.331,17.125,26.916,18.04,26.916,19.595z M24.266,19.67c0,1.269,0.39,1.989,0.991,1.989c0.676,0,0.999-0.788,0.999-2.034    c0-1.201-0.308-1.99-0.991-1.99C24.686,17.635,24.266,18.341,24.266,19.67z"/>
		<path d="M30.763,19.595c0,1.659-0.616,2.575-1.697,2.575c-0.954,0-1.599-0.894-1.614-2.508c0-1.637,0.706-2.537,1.696-2.537    C30.178,17.125,30.763,18.04,30.763,19.595z M28.113,19.67c0,1.269,0.391,1.989,0.991,1.989c0.676,0,0.999-0.788,0.999-2.034    c0-1.201-0.308-1.99-0.991-1.99C28.534,17.635,28.113,18.341,28.113,19.67z"/>
		<path d="M34.61,19.595c0,1.659-0.616,2.575-1.697,2.575c-0.953,0-1.599-0.894-1.614-2.508c0-1.637,0.706-2.537,1.697-2.537    C34.025,17.125,34.61,18.04,34.61,19.595z M31.96,19.67c0,1.269,0.39,1.989,0.991,1.989c0.676,0,0.999-0.788,0.999-2.034    c0-1.201-0.308-1.99-0.991-1.99C32.38,17.635,31.96,18.341,31.96,19.67z"/>
		<path d="M19.708,34.947h-0.015l-0.849,0.458l-0.127-0.503l1.066-0.57h0.563v4.88h-0.638V34.947z"/>
		<path d="M21.903,40.136c0.165-0.443,0.368-1.247,0.45-1.795l0.736-0.075c-0.172,0.639-0.503,1.472-0.713,1.824L21.903,40.136z"/>
		<path d="M26.916,36.72c0,1.659-0.616,2.575-1.697,2.575c-0.953,0-1.599-0.894-1.614-2.508c0-1.637,0.706-2.537,1.697-2.537    C26.331,34.25,26.916,35.165,26.916,36.72z M24.266,36.795c0,1.269,0.39,1.989,0.991,1.989c0.676,0,0.999-0.788,0.999-2.034    c0-1.201-0.308-1.99-0.991-1.99C24.686,34.76,24.266,35.466,24.266,36.795z"/>
		<path d="M30.763,36.72c0,1.659-0.616,2.575-1.697,2.575c-0.954,0-1.599-0.894-1.614-2.508c0-1.637,0.706-2.537,1.696-2.537    C30.178,34.25,30.763,35.165,30.763,36.72z M28.113,36.795c0,1.269,0.391,1.989,0.991,1.989c0.676,0,0.999-0.788,0.999-2.034    c0-1.201-0.308-1.99-0.991-1.99C28.534,34.76,28.113,35.466,28.113,36.795z"/>
		<path d="M34.61,36.72c0,1.659-0.616,2.575-1.697,2.575c-0.953,0-1.599-0.894-1.614-2.508c0-1.637,0.706-2.537,1.697-2.537    C34.025,34.25,34.61,35.165,34.61,36.72z M31.96,36.795c0,1.269,0.39,1.989,0.991,1.989c0.676,0,0.999-0.788,0.999-2.034    c0-1.201-0.308-1.99-0.991-1.99C32.38,34.76,31.96,35.466,31.96,36.795z"/>
		<path d="M25.107,52.072h-0.015l-0.849,0.458l-0.127-0.503l1.066-0.57h0.563v4.88h-0.638V52.072z"/>
		<path d="M30.764,53.845c0,1.659-0.616,2.575-1.697,2.575c-0.953,0-1.599-0.894-1.614-2.508c0-1.637,0.706-2.537,1.697-2.537    C30.178,51.375,30.764,52.29,30.764,53.845z M28.114,53.92c0,1.269,0.39,1.989,0.991,1.989c0.676,0,0.999-0.788,0.999-2.034    c0-1.201-0.308-1.99-0.991-1.99C28.534,51.885,28.114,52.591,28.114,53.92z"/>
		<path d="M34.611,53.845c0,1.659-0.616,2.575-1.697,2.575c-0.954,0-1.599-0.894-1.614-2.508c0-1.637,0.706-2.537,1.696-2.537    C34.025,51.375,34.611,52.29,34.611,53.845z M31.96,53.92c0,1.269,0.391,1.989,0.991,1.989c0.676,0,0.999-0.788,0.999-2.034    c0-1.201-0.308-1.99-0.991-1.99C32.381,51.885,31.96,52.591,31.96,53.92z"/>
		<path d="M28.955,69.197h-0.015l-0.849,0.458l-0.127-0.503l1.066-0.57h0.563v4.88h-0.638V69.197z"/>
		<path d="M34.611,70.97c0,1.659-0.616,2.575-1.697,2.575c-0.954,0-1.599-0.894-1.614-2.508c0-1.637,0.706-2.537,1.696-2.537    C34.025,68.5,34.611,69.415,34.611,70.97z M31.96,71.045c0,1.269,0.391,1.989,0.991,1.989c0.676,0,0.999-0.788,0.999-2.034    c0-1.201-0.308-1.99-0.991-1.99C32.381,69.01,31.96,69.716,31.96,71.045z"/>
		<path d="M32.802,86.322h-0.015l-0.849,0.458l-0.127-0.503l1.066-0.57h0.563v4.88h-0.638V86.322z"/>
		<path d="M29.211,105.22c0,1.659-0.616,2.575-1.697,2.575c-0.954,0-1.599-0.894-1.614-2.508c0-1.637,0.706-2.537,1.696-2.537    C28.626,102.75,29.211,103.665,29.211,105.22z M26.561,105.295c0,1.269,0.391,1.989,0.991,1.989c0.676,0,0.999-0.788,0.999-2.034    c0-1.201-0.308-1.99-0.991-1.99C26.982,103.26,26.561,103.966,26.561,105.295z"/>
		<path d="M29.868,107.321c0-0.277,0.188-0.473,0.451-0.473s0.443,0.195,0.443,0.473c0,0.271-0.173,0.474-0.45,0.474    C30.048,107.795,29.868,107.592,29.868,107.321z"/>
		<path d="M32.801,103.447h-0.015l-0.849,0.458l-0.127-0.503l1.066-0.57h0.563v4.88h-0.638V103.447z"/>
		<path d="M25.364,122.345c0,1.659-0.616,2.575-1.697,2.575c-0.954,0-1.599-0.894-1.614-2.508c0-1.637,0.706-2.537,1.696-2.537    C24.778,119.875,25.364,120.79,25.364,122.345z M22.713,122.42c0,1.269,0.391,1.989,0.991,1.989c0.676,0,0.999-0.788,0.999-2.034    c0-1.201-0.308-1.99-0.991-1.99C23.134,120.385,22.713,121.091,22.713,122.42z"/>
		<path d="M26.02,124.446c0-0.277,0.188-0.473,0.451-0.473s0.443,0.195,0.443,0.473c0,0.271-0.173,0.474-0.45,0.474    C26.201,124.92,26.02,124.717,26.02,124.446z"/>
		<path d="M30.763,122.345c0,1.659-0.616,2.575-1.697,2.575c-0.954,0-1.599-0.894-1.614-2.508c0-1.637,0.706-2.537,1.696-2.537    C30.178,119.875,30.763,120.79,30.763,122.345z M28.113,122.42c0,1.269,0.391,1.989,0.991,1.989c0.676,0,0.999-0.788,0.999-2.034    c0-1.201-0.308-1.99-0.991-1.99C28.534,120.385,28.113,121.091,28.113,122.42z"/>
		<path d="M32.801,120.572h-0.015l-0.849,0.458l-0.127-0.503l1.066-0.57h0.563v4.88h-0.638V120.572z"/>
		<path d="M21.517,139.47c0,1.659-0.616,2.575-1.697,2.575c-0.953,0-1.599-0.894-1.614-2.508c0-1.637,0.706-2.537,1.697-2.537    C20.931,137,21.517,137.915,21.517,139.47z M18.867,139.545c0,1.269,0.39,1.989,0.991,1.989c0.676,0,0.999-0.788,0.999-2.034    c0-1.201-0.308-1.99-0.991-1.99C19.287,137.51,18.867,138.216,18.867,139.545z"/>
		<path d="M22.173,141.571c0-0.277,0.188-0.473,0.45-0.473s0.443,0.195,0.443,0.473c0,0.271-0.172,0.474-0.45,0.474    C22.353,142.045,22.173,141.842,22.173,141.571z"/>
		<path d="M26.916,139.47c0,1.659-0.616,2.575-1.697,2.575c-0.953,0-1.599-0.894-1.614-2.508c0-1.637,0.706-2.537,1.697-2.537    C26.331,137,26.916,137.915,26.916,139.47z M24.266,139.545c0,1.269,0.39,1.989,0.991,1.989c0.676,0,0.999-0.788,0.999-2.034    c0-1.201-0.308-1.99-0.991-1.99C24.686,137.51,24.266,138.216,24.266,139.545z"/>
		<path d="M30.763,139.47c0,1.659-0.616,2.575-1.697,2.575c-0.954,0-1.599-0.894-1.614-2.508c0-1.637,0.706-2.537,1.696-2.537    C30.178,137,30.763,137.915,30.763,139.47z M28.113,139.545c0,1.269,0.391,1.989,0.991,1.989c0.676,0,0.999-0.788,0.999-2.034    c0-1.201-0.308-1.99-0.991-1.99C28.534,137.51,28.113,138.216,28.113,139.545z"/>
		<path d="M32.801,137.697h-0.015l-0.849,0.458l-0.127-0.503l1.066-0.57h0.563v4.88h-0.638V137.697z"/>
	</g>
	<circle cx="59.812" cy="114.556" r="2"/>
	<circle cx="69.312" cy="74.306" r="2"/>
	<circle cx="59.812" cy="95.806" r="2"/>
	<circle cx="66.062" cy="92.806" r="2"/>
	<circle cx="78.312" cy="122.306" r="2"/>
	<circle cx="83.812" cy="82.056" r="2"/>
	<circle cx="138.312" cy="114.056" r="2"/>
	<circle cx="106.562" cy="115.306" r="2"/>
	<circle cx="163.812" cy="99.556" r="2"/>
	<circle cx="201.562" cy="102.306" r="2"/>
	<circle cx="198.312" cy="104.806" r="2"/>
	<circle cx="209.105" cy="107.274" r="2"/>
	<circle cx="225.688" cy="117.274" r="2"/>
	<circle cx="207.562" cy="123.806" r="2"/>
	<circle cx="172.812" cy="61.556" r="2"/>
	<circle cx="176.062" cy="61.556" r="2"/>
	<circle cx="188.812" cy="132.556" r="2"/>
	<circle cx="188.812" cy="129.806" r="2"/>
	<circle cx="188.812" cy="127.306" r="2"/>
	<circle cx="192.062" cy="127.306" r="2"/>
	<circle cx="151.312" cy="90.306" r="2"/>
	<circle cx="239.312" cy="92.806" r="2"/>
	<circle cx="213.312" cy="79.556" r="2"/>
	<circle cx="151.062" cy="61.306" r="2"/>
	<circle cx="207.815" cy="82.004" r="2"/>
	<circle cx="199.812" cy="85.306" r="2"/>
	<circle cx="198.312" cy="89.556" r="2"/>
	<circle cx="202.562" cy="90.306" r="2"/>
	<circle cx="242.562" cy="77.556" r="2"/>
	<circle cx="251.062" cy="85.306" r="2"/>
	<circle cx="251.062" cy="88.806" r="2"/>
	<circle cx="254.312" cy="89.806" r="2"/>
	<circle cx="249.062" cy="119.556" r="2"/>
	<circle cx="204.312" cy="92.306" r="2"/>
	<circle cx="201.062" cy="93.306" r="2"/>
	<circle cx="251.562" cy="25.556" r="2"/>
	<circle cx="216.812" cy="84.806" r="2"/>
	<circle cx="202.562" cy="88.306" r="2"/>
	<circle cx="144.562" cy="89.556" r="2"/>
	<circle cx="144.312" cy="99.306" r="2"/>
	<circle cx="94.062" cy="106.306" r="2"/>
	<g>
		<path d="M94.636,146.791h-0.015l-0.849,0.458l-0.127-0.503l1.066-0.57h0.563v4.88h-0.638V146.791z"/>
		<path d="M97.432,150.59c0.143,0.016,0.308,0,0.533-0.022c0.383-0.052,0.743-0.21,1.021-0.473c0.323-0.293,0.555-0.721,0.646-1.299    h-0.022c-0.271,0.33-0.661,0.525-1.149,0.525c-0.878,0-1.441-0.66-1.441-1.494c0-0.923,0.668-1.733,1.667-1.733    c0.998,0,1.614,0.811,1.614,2.057c0,1.073-0.36,1.824-0.841,2.29c-0.375,0.367-0.893,0.593-1.419,0.652    c-0.24,0.038-0.45,0.046-0.608,0.038V150.59z M97.672,147.782c0,0.608,0.368,1.036,0.938,1.036c0.443,0,0.788-0.218,0.961-0.511    c0.038-0.06,0.06-0.135,0.06-0.24c0-0.833-0.308-1.471-0.999-1.471C98.07,146.597,97.672,147.092,97.672,147.782z"/>
		<path d="M103.682,146.642c-0.135-0.008-0.308,0-0.496,0.03c-1.036,0.172-1.584,0.931-1.696,1.733h0.022    c0.232-0.308,0.638-0.562,1.179-0.562c0.863,0,1.471,0.623,1.471,1.576c0,0.894-0.608,1.72-1.622,1.72    c-1.043,0-1.727-0.812-1.727-2.08c0-0.961,0.345-1.719,0.826-2.199c0.405-0.398,0.946-0.646,1.562-0.721    c0.195-0.03,0.36-0.038,0.48-0.038V146.642z M103.494,149.457c0-0.698-0.398-1.119-1.006-1.119c-0.397,0-0.766,0.248-0.946,0.601    c-0.045,0.075-0.075,0.173-0.075,0.293c0.015,0.804,0.383,1.396,1.074,1.396C103.111,150.628,103.494,150.154,103.494,149.457z"/>
		<path d="M107.987,148.563c0,1.659-0.616,2.575-1.697,2.575c-0.954,0-1.599-0.894-1.614-2.508c0-1.637,0.706-2.537,1.696-2.537    C107.401,146.094,107.987,147.009,107.987,148.563z M105.336,148.639c0,1.269,0.391,1.989,0.991,1.989    c0.676,0,0.999-0.788,0.999-2.034c0-1.201-0.308-1.99-0.991-1.99C105.757,146.604,105.336,147.31,105.336,148.639z"/>
	</g>
	<g>
		<path d="M219.196,151.056v-0.405l0.518-0.503c1.246-1.187,1.81-1.817,1.816-2.553c0-0.495-0.24-0.953-0.968-0.953    c-0.442,0-0.811,0.225-1.036,0.413l-0.21-0.466c0.338-0.285,0.818-0.495,1.382-0.495c1.051,0,1.494,0.721,1.494,1.418    c0,0.901-0.654,1.63-1.682,2.62l-0.391,0.36v0.016h2.191v0.548H219.196z"/>
		<path d="M226.286,148.563c0,1.659-0.615,2.575-1.696,2.575c-0.954,0-1.599-0.894-1.614-2.508c0-1.637,0.706-2.537,1.697-2.537    C225.701,146.094,226.286,147.009,226.286,148.563z M223.636,148.639c0,1.269,0.391,1.989,0.992,1.989    c0.676,0,0.998-0.788,0.998-2.034c0-1.201-0.309-1.99-0.991-1.99C224.058,146.604,223.636,147.31,223.636,148.639z"/>
		<path d="M230.134,148.563c0,1.659-0.615,2.575-1.697,2.575c-0.953,0-1.599-0.894-1.613-2.508c0-1.637,0.705-2.537,1.696-2.537    C229.548,146.094,230.134,147.009,230.134,148.563z M227.483,148.639c0,1.269,0.391,1.989,0.991,1.989    c0.676,0,0.999-0.788,0.999-2.034c0-1.201-0.309-1.99-0.992-1.99C227.903,146.604,227.483,147.31,227.483,148.639z"/>
		<path d="M233.981,148.563c0,1.659-0.616,2.575-1.697,2.575c-0.953,0-1.6-0.894-1.613-2.508c0-1.637,0.705-2.537,1.695-2.537    C233.396,146.094,233.981,147.009,233.981,148.563z M231.331,148.639c0,1.269,0.391,1.989,0.99,1.989    c0.676,0,0.999-0.788,0.999-2.034c0-1.201-0.308-1.99-0.991-1.99C231.751,146.604,231.331,147.31,231.331,148.639z"/>
	</g>
	<g>
		<path d="M31.639,146.791h-0.015l-0.849,0.458l-0.127-0.503l1.066-0.57h0.563v4.88h-0.638V146.791z"/>
		<path d="M34.435,150.59c0.143,0.016,0.308,0,0.533-0.022c0.383-0.052,0.743-0.21,1.021-0.473c0.323-0.293,0.555-0.721,0.646-1.299    h-0.022c-0.271,0.33-0.661,0.525-1.149,0.525c-0.878,0-1.441-0.66-1.441-1.494c0-0.923,0.668-1.733,1.667-1.733    c0.998,0,1.614,0.811,1.614,2.057c0,1.073-0.36,1.824-0.841,2.29c-0.375,0.367-0.893,0.593-1.419,0.652    c-0.24,0.038-0.45,0.046-0.608,0.038V150.59z M34.675,147.782c0,0.608,0.368,1.036,0.938,1.036c0.443,0,0.788-0.218,0.961-0.511    c0.038-0.06,0.06-0.135,0.06-0.24c0-0.833-0.308-1.471-0.999-1.471C35.073,146.597,34.675,147.092,34.675,147.782z"/>
		<path d="M39.941,151.056v-1.329h-2.267v-0.436l2.177-3.115h0.713v3.033h0.683v0.518h-0.683v1.329H39.941z M39.941,149.209v-1.629    c0-0.256,0.007-0.511,0.022-0.766h-0.022c-0.15,0.285-0.271,0.495-0.405,0.721l-1.194,1.658v0.016H39.941z"/>
		<path d="M44.989,148.563c0,1.659-0.616,2.575-1.697,2.575c-0.954,0-1.599-0.894-1.614-2.508c0-1.637,0.706-2.537,1.696-2.537    C44.404,146.094,44.989,147.009,44.989,148.563z M42.339,148.639c0,1.269,0.391,1.989,0.991,1.989    c0.676,0,0.999-0.788,0.999-2.034c0-1.201-0.308-1.99-0.991-1.99C42.76,146.604,42.339,147.31,42.339,148.639z"/>
	</g>
	<g>
		<path d="M157.634,146.791h-0.016l-0.849,0.458l-0.128-0.503l1.066-0.57h0.562v4.88h-0.637V146.791z"/>
		<path d="M160.429,150.59c0.143,0.016,0.309,0,0.533-0.022c0.383-0.052,0.744-0.21,1.021-0.473    c0.322-0.293,0.555-0.721,0.646-1.299h-0.022c-0.271,0.33-0.66,0.525-1.148,0.525c-0.879,0-1.441-0.66-1.441-1.494    c0-0.923,0.668-1.733,1.666-1.733s1.614,0.811,1.614,2.057c0,1.073-0.36,1.824-0.841,2.29c-0.375,0.367-0.893,0.593-1.419,0.652    c-0.24,0.038-0.45,0.046-0.608,0.038V150.59z M160.669,147.782c0,0.608,0.368,1.036,0.939,1.036c0.442,0,0.787-0.218,0.961-0.511    c0.037-0.06,0.06-0.135,0.06-0.24c0-0.833-0.308-1.471-0.999-1.471C161.067,146.597,160.669,147.092,160.669,147.782z"/>
		<path d="M163.833,149.817c0-0.616,0.368-1.052,0.969-1.307l-0.008-0.022c-0.54-0.256-0.773-0.676-0.773-1.096    c0-0.773,0.654-1.299,1.51-1.299c0.945,0,1.418,0.593,1.418,1.201c0,0.412-0.202,0.855-0.803,1.141v0.022    c0.608,0.24,0.984,0.668,0.984,1.262c0,0.848-0.729,1.419-1.66,1.419C164.449,151.139,163.833,150.53,163.833,149.817z     M166.461,149.787c0-0.594-0.413-0.879-1.073-1.066c-0.57,0.165-0.879,0.541-0.879,1.006c-0.021,0.496,0.354,0.932,0.977,0.932    C166.078,150.658,166.461,150.29,166.461,149.787z M164.644,147.347c0,0.488,0.369,0.751,0.932,0.901    c0.42-0.143,0.743-0.443,0.743-0.886c0-0.391-0.233-0.796-0.825-0.796C164.944,146.566,164.644,146.927,164.644,147.347z"/>
		<path d="M170.983,148.563c0,1.659-0.615,2.575-1.696,2.575c-0.954,0-1.599-0.894-1.614-2.508c0-1.637,0.706-2.537,1.697-2.537    C170.398,146.094,170.983,147.009,170.983,148.563z M168.333,148.639c0,1.269,0.391,1.989,0.992,1.989    c0.676,0,0.998-0.788,0.998-2.034c0-1.201-0.309-1.99-0.991-1.99C168.755,146.604,168.333,147.31,168.333,148.639z"/>
	</g>
	<g>
		<path d="M63.137,146.791h-0.015l-0.849,0.458l-0.127-0.503l1.066-0.57h0.563v4.88h-0.638V146.791z"/>
		<path d="M65.933,150.59c0.143,0.016,0.308,0,0.533-0.022c0.383-0.052,0.743-0.21,1.021-0.473c0.323-0.293,0.555-0.721,0.646-1.299    H68.11c-0.271,0.33-0.661,0.525-1.149,0.525c-0.878,0-1.441-0.66-1.441-1.494c0-0.923,0.668-1.733,1.667-1.733    c0.998,0,1.614,0.811,1.614,2.057c0,1.073-0.36,1.824-0.841,2.29c-0.375,0.367-0.893,0.593-1.419,0.652    c-0.24,0.038-0.45,0.046-0.608,0.038V150.59z M66.173,147.782c0,0.608,0.368,1.036,0.938,1.036c0.443,0,0.788-0.218,0.961-0.511    c0.038-0.06,0.06-0.135,0.06-0.24c0-0.833-0.308-1.471-0.999-1.471C66.571,146.597,66.173,147.092,66.173,147.782z"/>
		<path d="M72.31,146.731h-1.862l-0.188,1.254c0.113-0.016,0.218-0.03,0.398-0.03c0.375,0,0.75,0.083,1.051,0.263    c0.383,0.218,0.698,0.639,0.698,1.254c0,0.953-0.758,1.667-1.816,1.667c-0.533,0-0.984-0.15-1.216-0.301l0.165-0.503    c0.203,0.12,0.601,0.271,1.043,0.271c0.623,0,1.156-0.405,1.156-1.059c-0.008-0.631-0.428-1.081-1.404-1.081    c-0.278,0-0.496,0.03-0.676,0.053l0.315-2.343h2.334V146.731z"/>
		<path d="M76.488,148.563c0,1.659-0.616,2.575-1.697,2.575c-0.954,0-1.599-0.894-1.614-2.508c0-1.637,0.706-2.537,1.696-2.537    C75.902,146.094,76.488,147.009,76.488,148.563z M73.837,148.639c0,1.269,0.391,1.989,0.991,1.989    c0.676,0,0.999-0.788,0.999-2.034c0-1.201-0.308-1.99-0.991-1.99C74.258,146.604,73.837,147.31,73.837,148.639z"/>
	</g>
	<g>
		<path d="M189.132,146.791h-0.016l-0.848,0.458l-0.128-0.503l1.065-0.57h0.563v4.88h-0.638V146.791z"/>
		<path d="M191.928,150.59c0.143,0.016,0.308,0,0.533-0.022c0.383-0.052,0.743-0.21,1.021-0.473    c0.323-0.293,0.556-0.721,0.646-1.299h-0.023c-0.27,0.33-0.66,0.525-1.148,0.525c-0.878,0-1.441-0.66-1.441-1.494    c0-0.923,0.668-1.733,1.667-1.733c0.998,0,1.614,0.811,1.614,2.057c0,1.073-0.361,1.824-0.842,2.29    c-0.375,0.367-0.893,0.593-1.418,0.652c-0.24,0.038-0.451,0.046-0.608,0.038V150.59z M192.168,147.782    c0,0.608,0.368,1.036,0.938,1.036c0.443,0,0.788-0.218,0.961-0.511c0.037-0.06,0.061-0.135,0.061-0.24    c0-0.833-0.309-1.471-0.999-1.471C192.565,146.597,192.168,147.092,192.168,147.782z"/>
		<path d="M195.774,150.59c0.143,0.016,0.309,0,0.533-0.022c0.383-0.052,0.744-0.21,1.021-0.473    c0.322-0.293,0.555-0.721,0.646-1.299h-0.022c-0.271,0.33-0.66,0.525-1.148,0.525c-0.879,0-1.441-0.66-1.441-1.494    c0-0.923,0.668-1.733,1.666-1.733c0.999,0,1.614,0.811,1.614,2.057c0,1.073-0.36,1.824-0.841,2.29    c-0.375,0.367-0.893,0.593-1.419,0.652c-0.24,0.038-0.45,0.046-0.608,0.038V150.59z M196.015,147.782    c0,0.608,0.368,1.036,0.939,1.036c0.442,0,0.787-0.218,0.961-0.511c0.037-0.06,0.06-0.135,0.06-0.24    c0-0.833-0.308-1.471-0.999-1.471C196.413,146.597,196.015,147.092,196.015,147.782z"/>
		<path d="M202.482,148.563c0,1.659-0.616,2.575-1.696,2.575c-0.954,0-1.6-0.894-1.614-2.508c0-1.637,0.706-2.537,1.696-2.537    C201.897,146.094,202.482,147.009,202.482,148.563z M199.832,148.639c0,1.269,0.391,1.989,0.991,1.989    c0.676,0,0.998-0.788,0.998-2.034c0-1.201-0.308-1.99-0.99-1.99C200.253,146.604,199.832,147.31,199.832,148.639z"/>
	</g>
	<g>
		<path d="M126.135,146.791h-0.015l-0.849,0.458l-0.127-0.503l1.066-0.57h0.563v4.88h-0.638V146.791z"/>
		<path d="M128.931,150.59c0.143,0.016,0.308,0,0.533-0.022c0.383-0.052,0.743-0.21,1.021-0.473    c0.323-0.293,0.555-0.721,0.646-1.299h-0.022c-0.271,0.33-0.661,0.525-1.149,0.525c-0.878,0-1.441-0.66-1.441-1.494    c0-0.923,0.668-1.733,1.667-1.733c0.998,0,1.614,0.811,1.614,2.057c0,1.073-0.36,1.824-0.841,2.29    c-0.375,0.367-0.893,0.593-1.419,0.652c-0.24,0.038-0.45,0.046-0.608,0.038V150.59z M129.171,147.782    c0,0.608,0.368,1.036,0.938,1.036c0.443,0,0.788-0.218,0.961-0.511c0.038-0.06,0.06-0.135,0.06-0.24    c0-0.833-0.308-1.471-0.999-1.471C129.569,146.597,129.171,147.092,129.171,147.782z"/>
		<path d="M135.563,146.176v0.436l-2.125,4.444h-0.683l2.117-4.316v-0.016h-2.388v-0.548H135.563z"/>
		<path d="M139.485,148.563c0,1.659-0.616,2.575-1.697,2.575c-0.954,0-1.599-0.894-1.614-2.508c0-1.637,0.706-2.537,1.696-2.537    C138.9,146.094,139.485,147.009,139.485,148.563z M136.835,148.639c0,1.269,0.391,1.989,0.991,1.989    c0.676,0,0.999-0.788,0.999-2.034c0-1.201-0.308-1.99-0.991-1.99C137.256,146.604,136.835,147.31,136.835,148.639z"/>
	</g>
	<g>
		<path d="M250.695,151.056v-0.405l0.519-0.503c1.246-1.187,1.809-1.817,1.816-2.553c0-0.495-0.24-0.953-0.969-0.953    c-0.443,0-0.811,0.225-1.036,0.413l-0.21-0.466c0.338-0.285,0.818-0.495,1.381-0.495c1.051,0,1.494,0.721,1.494,1.418    c0,0.901-0.652,1.63-1.682,2.62l-0.391,0.36v0.016h2.193v0.548H250.695z"/>
		<path d="M257.786,148.563c0,1.659-0.616,2.575-1.697,2.575c-0.953,0-1.6-0.894-1.613-2.508c0-1.637,0.705-2.537,1.695-2.537    C257.2,146.094,257.786,147.009,257.786,148.563z M255.136,148.639c0,1.269,0.391,1.989,0.99,1.989    c0.676,0,0.999-0.788,0.999-2.034c0-1.201-0.308-1.99-0.991-1.99C255.556,146.604,255.136,147.31,255.136,148.639z"/>
		<path d="M259.823,146.791h-0.015l-0.849,0.458l-0.127-0.503l1.065-0.57h0.563v4.88h-0.639V146.791z"/>
		<path d="M265.479,148.563c0,1.659-0.615,2.575-1.696,2.575c-0.954,0-1.599-0.894-1.614-2.508c0-1.637,0.706-2.537,1.697-2.537    C264.895,146.094,265.479,147.009,265.479,148.563z M262.829,148.639c0,1.269,0.391,1.989,0.992,1.989    c0.676,0,0.998-0.788,0.998-2.034c0-1.201-0.309-1.99-0.991-1.99C263.251,146.604,262.829,147.31,262.829,148.639z"/>
	</g>
	<g>
		<path d="M282.194,151.056v-0.405l0.518-0.503c1.246-1.187,1.809-1.817,1.816-2.553c0-0.495-0.24-0.953-0.969-0.953    c-0.442,0-0.811,0.225-1.035,0.413l-0.211-0.466c0.338-0.285,0.818-0.495,1.382-0.495c1.051,0,1.494,0.721,1.494,1.418    c0,0.901-0.653,1.63-1.682,2.62l-0.391,0.36v0.016h2.192v0.548H282.194z"/>
		<path d="M289.284,148.563c0,1.659-0.615,2.575-1.697,2.575c-0.953,0-1.599-0.894-1.613-2.508c0-1.637,0.705-2.537,1.696-2.537    C288.698,146.094,289.284,147.009,289.284,148.563z M286.634,148.639c0,1.269,0.391,1.989,0.991,1.989    c0.676,0,0.999-0.788,0.999-2.034c0-1.201-0.309-1.99-0.992-1.99C287.055,146.604,286.634,147.31,286.634,148.639z"/>
		<path d="M289.888,151.056v-0.405l0.519-0.503c1.246-1.187,1.81-1.817,1.816-2.553c0-0.495-0.24-0.953-0.968-0.953    c-0.443,0-0.811,0.225-1.037,0.413l-0.209-0.466c0.338-0.285,0.818-0.495,1.381-0.495c1.051,0,1.494,0.721,1.494,1.418    c0,0.901-0.653,1.63-1.682,2.62l-0.391,0.36v0.016h2.192v0.548H289.888z"/>
		<path d="M296.979,148.563c0,1.659-0.616,2.575-1.696,2.575c-0.954,0-1.6-0.894-1.614-2.508c0-1.637,0.706-2.537,1.696-2.537    C296.394,146.094,296.979,147.009,296.979,148.563z M294.328,148.639c0,1.269,0.391,1.989,0.991,1.989    c0.676,0,0.998-0.788,0.998-2.034c0-1.201-0.308-1.99-0.99-1.99C294.749,146.604,294.328,147.31,294.328,148.639z"/>
	</g>
</g>
</svg>