<svg xmlns="http://www.w3.org/2000/svg" xmlns:xlink="http://www.w3.org/1999/xlink" version="1.1" x="0px" y="0px" width="210.549px" height="149.211px" viewBox="0 0 210.549 149.211" enable-background="new 0 0 210.549 149.211" xml:space="preserve">
<g id="wide">
</g>
<g id="text_column" display="none">
</g>
<g id="art">
	
		<line fill="none" stroke="#999999" stroke-width="0.5" stroke-linejoin="round" stroke-miterlimit="10" x1="18.625" y1="119.508" x2="210.549" y2="119.508"/>
	<g>
		<path d="M1.727,32.27c-1.015,0-1.711-0.951-1.727-2.671c0-1.751,0.759-2.702,1.815-2.702c1.087,0,1.719,0.976,1.719,2.631    c0,1.767-0.664,2.742-1.799,2.742H1.727z M1.767,31.726c0.712,0,1.056-0.839,1.056-2.167c0-1.279-0.32-2.118-1.056-2.118    c-0.64,0-1.055,0.815-1.055,2.118c-0.016,1.352,0.4,2.167,1.047,2.167H1.767z"/>
		<path d="M4.695,32.27c-0.271,0-0.464-0.216-0.464-0.504c0-0.287,0.2-0.504,0.48-0.504s0.472,0.208,0.472,0.504    c0,0.288-0.192,0.504-0.479,0.504H4.695z"/>
		<path d="M8.798,27.48c-0.144-0.008-0.328,0.008-0.528,0.04c-1.111,0.176-1.687,0.976-1.807,1.839h0.016    c0.248-0.336,0.688-0.607,1.263-0.607c0.92,0,1.567,0.671,1.567,1.679c0,0.959-0.647,1.839-1.735,1.839    c-1.104,0-1.831-0.863-1.831-2.215c0-1.023,0.36-1.831,0.879-2.343c0.432-0.424,1.007-0.688,1.663-0.768    c0.208-0.032,0.384-0.04,0.512-0.04V27.48z M7.59,31.726c0.6,0,1.008-0.503,1.008-1.247c0-0.743-0.424-1.191-1.072-1.191    c-0.424,0-0.823,0.256-1.015,0.64c-0.04,0.08-0.072,0.176-0.072,0.304c0.008,0.855,0.408,1.495,1.144,1.495H7.59z"/>
		<path d="M11.591,32.27c-1.016,0-1.711-0.951-1.728-2.671c0-1.751,0.76-2.702,1.815-2.702c1.087,0,1.719,0.976,1.719,2.631    c0,1.767-0.664,2.742-1.799,2.742H11.591z M11.63,31.726c0.712,0,1.056-0.839,1.056-2.167c0-1.279-0.32-2.118-1.056-2.118    c-0.64,0-1.055,0.815-1.055,2.118c-0.016,1.352,0.4,2.167,1.047,2.167H11.63z"/>
		<path d="M1.727,50.27c-1.015,0-1.711-0.951-1.727-2.671c0-1.751,0.759-2.702,1.815-2.702c1.087,0,1.719,0.976,1.719,2.631    c0,1.767-0.664,2.742-1.799,2.742H1.727z M1.767,49.726c0.712,0,1.056-0.839,1.056-2.167c0-1.279-0.32-2.118-1.056-2.118    c-0.64,0-1.055,0.815-1.055,2.118c-0.016,1.352,0.4,2.167,1.047,2.167H1.767z"/>
		<path d="M4.695,50.27c-0.271,0-0.464-0.216-0.464-0.504c0-0.287,0.2-0.504,0.48-0.504s0.472,0.208,0.472,0.504    c0,0.288-0.192,0.504-0.479,0.504H4.695z"/>
		<path d="M8.934,45.576H6.951l-0.2,1.335c0.12-0.016,0.232-0.031,0.424-0.031c0.408,0,0.799,0.088,1.119,0.279    c0.408,0.224,0.744,0.68,0.744,1.335c0,1.016-0.808,1.775-1.935,1.775c-0.567,0-1.039-0.16-1.295-0.319l0.176-0.536    c0.216,0.128,0.64,0.288,1.119,0.288c0.656,0,1.231-0.432,1.224-1.136c0-0.663-0.456-1.144-1.487-1.144    c-0.304,0-0.536,0.024-0.728,0.057l0.336-2.495h2.486V45.576z"/>
		<path d="M11.591,50.27c-1.016,0-1.711-0.951-1.728-2.671c0-1.751,0.76-2.702,1.815-2.702c1.087,0,1.719,0.976,1.719,2.631    c0,1.767-0.664,2.742-1.799,2.742H11.591z M11.63,49.726c0.712,0,1.056-0.839,1.056-2.167c0-1.279-0.32-2.118-1.056-2.118    c-0.64,0-1.055,0.815-1.055,2.118c-0.016,1.352,0.4,2.167,1.047,2.167H11.63z"/>
		<path d="M1.727,68.27c-1.015,0-1.711-0.951-1.727-2.671c0-1.751,0.759-2.702,1.815-2.702c1.087,0,1.719,0.976,1.719,2.631    c0,1.767-0.664,2.742-1.799,2.742H1.727z M1.767,67.726c0.712,0,1.056-0.839,1.056-2.167c0-1.279-0.32-2.118-1.056-2.118    c-0.64,0-1.055,0.815-1.055,2.118c-0.016,1.352,0.4,2.167,1.047,2.167H1.767z"/>
		<path d="M4.695,68.27c-0.271,0-0.464-0.216-0.464-0.504c0-0.287,0.2-0.504,0.48-0.504s0.472,0.208,0.472,0.504    c0,0.288-0.192,0.504-0.479,0.504H4.695z"/>
		<path d="M8.006,68.182v-1.423H5.592v-0.456l2.318-3.318h0.76v3.23h0.728v0.544H8.67v1.423H8.006z M8.006,66.215v-1.735    c0-0.271,0.008-0.544,0.024-0.815H8.006c-0.16,0.304-0.288,0.527-0.432,0.768l-1.271,1.768v0.016H8.006z"/>
		<path d="M11.591,68.27c-1.016,0-1.711-0.951-1.728-2.671c0-1.751,0.76-2.702,1.815-2.702c1.087,0,1.719,0.976,1.719,2.631    c0,1.767-0.664,2.742-1.799,2.742H11.591z M11.63,67.726c0.712,0,1.056-0.839,1.056-2.167c0-1.279-0.32-2.118-1.056-2.118    c-0.64,0-1.055,0.815-1.055,2.118c-0.016,1.352,0.4,2.167,1.047,2.167H11.63z"/>
		<path d="M1.727,86.27c-1.015,0-1.711-0.951-1.727-2.671c0-1.751,0.759-2.702,1.815-2.702c1.087,0,1.719,0.976,1.719,2.631    c0,1.767-0.664,2.742-1.799,2.742H1.727z M1.767,85.726c0.712,0,1.056-0.839,1.056-2.167c0-1.279-0.32-2.118-1.056-2.118    c-0.64,0-1.055,0.815-1.055,2.118c-0.016,1.352,0.4,2.167,1.047,2.167H1.767z"/>
		<path d="M4.695,86.27c-0.271,0-0.464-0.216-0.464-0.504c0-0.287,0.2-0.504,0.48-0.504s0.472,0.208,0.472,0.504    c0,0.288-0.192,0.504-0.479,0.504H4.695z"/>
		<path d="M6,85.382c0.2,0.12,0.656,0.32,1.151,0.32c0.896,0,1.183-0.568,1.175-1.008c-0.008-0.728-0.664-1.039-1.343-1.039H6.591    v-0.528h0.392c0.512,0,1.159-0.264,1.159-0.879c0-0.416-0.264-0.784-0.912-0.784c-0.416,0-0.815,0.185-1.039,0.344L6,81.296    c0.28-0.199,0.808-0.399,1.367-0.399c1.023,0,1.487,0.607,1.487,1.239c0,0.544-0.328,1-0.959,1.231v0.016    c0.64,0.12,1.159,0.6,1.159,1.328c0,0.831-0.656,1.559-1.895,1.559c-0.583,0-1.095-0.184-1.351-0.352L6,85.382z"/>
		<path d="M11.591,86.27c-1.016,0-1.711-0.951-1.728-2.671c0-1.751,0.76-2.702,1.815-2.702c1.087,0,1.719,0.976,1.719,2.631    c0,1.767-0.664,2.742-1.799,2.742H11.591z M11.63,85.726c0.712,0,1.056-0.839,1.056-2.167c0-1.279-0.32-2.118-1.056-2.118    c-0.64,0-1.055,0.815-1.055,2.118c-0.016,1.352,0.4,2.167,1.047,2.167H11.63z"/>
		<path d="M1.727,104.27c-1.015,0-1.711-0.951-1.727-2.671c0-1.751,0.759-2.702,1.815-2.702c1.087,0,1.719,0.976,1.719,2.631    c0,1.767-0.664,2.742-1.799,2.742H1.727z M1.767,103.726c0.712,0,1.056-0.839,1.056-2.167c0-1.279-0.32-2.118-1.056-2.118    c-0.64,0-1.055,0.815-1.055,2.118c-0.016,1.352,0.4,2.167,1.047,2.167H1.767z"/>
		<path d="M4.695,104.27c-0.271,0-0.464-0.216-0.464-0.504c0-0.287,0.2-0.504,0.48-0.504s0.472,0.208,0.472,0.504    c0,0.288-0.192,0.504-0.479,0.504H4.695z"/>
		<path d="M5.832,104.182v-0.432l0.552-0.536c1.327-1.263,1.935-1.935,1.935-2.718c0-0.528-0.248-1.016-1.023-1.016    c-0.472,0-0.864,0.239-1.104,0.439l-0.224-0.496c0.352-0.295,0.872-0.527,1.471-0.527c1.111,0,1.583,0.768,1.583,1.512    c0,0.959-0.695,1.734-1.791,2.79l-0.408,0.384v0.016h2.327v0.584H5.832z"/>
		<path d="M11.591,104.27c-1.016,0-1.711-0.951-1.728-2.671c0-1.751,0.76-2.702,1.815-2.702c1.087,0,1.719,0.976,1.719,2.631    c0,1.767-0.664,2.742-1.799,2.742H11.591z M11.63,103.726c0.712,0,1.056-0.839,1.056-2.167c0-1.279-0.32-2.118-1.056-2.118    c-0.64,0-1.055,0.815-1.055,2.118c-0.016,1.352,0.4,2.167,1.047,2.167H11.63z"/>
		<path d="M1.727,122.27c-1.015,0-1.711-0.951-1.727-2.671c0-1.751,0.759-2.702,1.815-2.702c1.087,0,1.719,0.976,1.719,2.631    c0,1.767-0.664,2.742-1.799,2.742H1.727z M1.767,121.726c0.712,0,1.056-0.839,1.056-2.167c0-1.279-0.32-2.118-1.056-2.118    c-0.64,0-1.055,0.815-1.055,2.118c-0.016,1.352,0.4,2.167,1.047,2.167H1.767z"/>
		<path d="M4.695,122.27c-0.271,0-0.464-0.216-0.464-0.504c0-0.287,0.2-0.504,0.48-0.504s0.472,0.208,0.472,0.504    c0,0.288-0.192,0.504-0.479,0.504H4.695z"/>
		<path d="M7.358,117.641H7.343l-0.904,0.487l-0.136-0.536l1.135-0.607h0.6v5.197h-0.68V117.641z"/>
		<path d="M11.591,122.27c-1.016,0-1.711-0.951-1.728-2.671c0-1.751,0.76-2.702,1.815-2.702c1.087,0,1.719,0.976,1.719,2.631    c0,1.767-0.664,2.742-1.799,2.742H11.591z M11.63,121.726c0.712,0,1.056-0.839,1.056-2.167c0-1.279-0.32-2.118-1.056-2.118    c-0.64,0-1.055,0.815-1.055,2.118c-0.016,1.352,0.4,2.167,1.047,2.167H11.63z"/>
		<path d="M1.727,140.27c-1.015,0-1.711-0.951-1.727-2.671c0-1.751,0.759-2.702,1.815-2.702c1.087,0,1.719,0.976,1.719,2.631    c0,1.767-0.664,2.742-1.799,2.742H1.727z M1.767,139.726c0.712,0,1.056-0.839,1.056-2.167c0-1.279-0.32-2.118-1.056-2.118    c-0.64,0-1.055,0.815-1.055,2.118c-0.016,1.352,0.4,2.167,1.047,2.167H1.767z"/>
		<path d="M4.695,140.27c-0.271,0-0.464-0.216-0.464-0.504c0-0.287,0.2-0.504,0.48-0.504s0.472,0.208,0.472,0.504    c0,0.288-0.192,0.504-0.479,0.504H4.695z"/>
		<path d="M7.486,140.27c-1.015,0-1.711-0.951-1.727-2.671c0-1.751,0.759-2.702,1.815-2.702c1.087,0,1.719,0.976,1.719,2.631    c0,1.767-0.664,2.742-1.799,2.742H7.486z M7.526,139.726c0.712,0,1.056-0.839,1.056-2.167c0-1.279-0.32-2.118-1.056-2.118    c-0.64,0-1.055,0.815-1.055,2.118c-0.016,1.352,0.4,2.167,1.047,2.167H7.526z"/>
		<path d="M11.591,140.27c-1.016,0-1.711-0.951-1.728-2.671c0-1.751,0.76-2.702,1.815-2.702c1.087,0,1.719,0.976,1.719,2.631    c0,1.767-0.664,2.742-1.799,2.742H11.591z M11.63,139.726c0.712,0,1.056-0.839,1.056-2.167c0-1.279-0.32-2.118-1.056-2.118    c-0.64,0-1.055,0.815-1.055,2.118c-0.016,1.352,0.4,2.167,1.047,2.167H11.63z"/>
	</g>
	<g>
		<path d="M38.554,148.948c-0.248,0.128-0.768,0.256-1.423,0.256c-1.519,0-2.655-0.959-2.655-2.727c0-1.687,1.144-2.823,2.814-2.823    c0.664,0,1.096,0.144,1.279,0.232l-0.176,0.576c-0.256-0.128-0.631-0.224-1.079-0.224c-1.264,0-2.103,0.808-2.103,2.215    c0,1.319,0.76,2.159,2.063,2.159c0.432,0,0.863-0.088,1.143-0.224L38.554,148.948z"/>
		<path d="M40.987,149.211c-1.04,0-1.855-0.768-1.855-1.991c0-1.295,0.855-2.055,1.919-2.055c1.111,0,1.863,0.808,1.863,1.983    c0,1.439-1,2.063-1.919,2.063H40.987z M41.02,148.684c0.671,0,1.175-0.631,1.175-1.511c0-0.656-0.328-1.479-1.159-1.479    c-0.824,0-1.184,0.768-1.184,1.503c0,0.847,0.479,1.487,1.159,1.487H41.02z"/>
		<path d="M43.804,146.301c0-0.408-0.008-0.728-0.032-1.047h0.624l0.04,0.631h0.016c0.192-0.36,0.64-0.72,1.279-0.72    c0.536,0,1.367,0.32,1.367,1.647v2.311h-0.704v-2.231c0-0.624-0.232-1.151-0.896-1.151c-0.456,0-0.815,0.328-0.943,0.72    c-0.032,0.088-0.048,0.216-0.048,0.328v2.334h-0.704V146.301z"/>
		<path d="M49.091,144.326v0.928h1.007v0.536h-1.007v2.079c0,0.48,0.136,0.751,0.528,0.751c0.192,0,0.304-0.016,0.408-0.048    l0.032,0.536c-0.136,0.048-0.352,0.096-0.624,0.096c-0.328,0-0.592-0.112-0.759-0.296c-0.192-0.216-0.272-0.56-0.272-1.016v-2.103    h-0.6v-0.536h0.6v-0.712L49.091,144.326z"/>
		<path d="M50.892,146.461c0-0.456-0.008-0.848-0.032-1.207h0.616l0.032,0.759h0.024c0.176-0.52,0.608-0.848,1.079-0.848    c0.072,0,0.128,0.008,0.192,0.016v0.664c-0.072-0.008-0.144-0.016-0.239-0.016c-0.496,0-0.848,0.376-0.943,0.896    c-0.016,0.104-0.024,0.216-0.024,0.328v2.071h-0.704V146.461z"/>
		<path d="M55.083,149.211c-1.04,0-1.855-0.768-1.855-1.991c0-1.295,0.855-2.055,1.919-2.055c1.111,0,1.863,0.808,1.863,1.983    c0,1.439-1,2.063-1.919,2.063H55.083z M55.115,148.684c0.671,0,1.175-0.631,1.175-1.511c0-0.656-0.328-1.479-1.159-1.479    c-0.824,0-1.184,0.768-1.184,1.503c0,0.847,0.479,1.487,1.159,1.487H55.115z"/>
		<path d="M57.899,143.447h0.704v5.677h-0.704V143.447z"/>
		<path d="M64.242,148.979c-0.184,0.088-0.592,0.224-1.111,0.224c-1.167,0-1.927-0.792-1.927-1.975c0-1.191,0.815-2.063,2.079-2.063    c0.416,0,0.783,0.104,0.976,0.208l-0.16,0.536c-0.168-0.088-0.432-0.184-0.815-0.184c-0.888,0-1.367,0.664-1.367,1.463    c0,0.896,0.576,1.447,1.343,1.447c0.399,0,0.664-0.096,0.863-0.184L64.242,148.979z"/>
		<path d="M66.642,149.211c-1.04,0-1.855-0.768-1.855-1.991c0-1.295,0.855-2.055,1.919-2.055c1.111,0,1.863,0.808,1.863,1.983    c0,1.439-1,2.063-1.919,2.063H66.642z M66.674,148.684c0.671,0,1.175-0.631,1.175-1.511c0-0.656-0.328-1.479-1.159-1.479    c-0.824,0-1.184,0.768-1.184,1.503c0,0.847,0.479,1.487,1.159,1.487H66.674z"/>
		<path d="M69.459,146.301c0-0.408-0.008-0.728-0.032-1.047h0.624l0.04,0.631h0.016c0.192-0.36,0.64-0.72,1.279-0.72    c0.536,0,1.367,0.32,1.367,1.647v2.311H72.05v-2.231c0-0.624-0.232-1.151-0.896-1.151c-0.456,0-0.815,0.328-0.943,0.72    c-0.032,0.088-0.048,0.216-0.048,0.328v2.334h-0.704V146.301z"/>
		<path d="M77.241,143.447v4.677c0,0.344,0.008,0.736,0.032,1h-0.632l-0.032-0.671h-0.016c-0.216,0.432-0.68,0.759-1.312,0.759    c-0.936,0-1.663-0.792-1.663-1.967c-0.008-1.295,0.8-2.079,1.735-2.079c0.6,0,0.999,0.28,1.167,0.584h0.016v-2.303H77.241z     M76.538,146.829c0-0.096-0.008-0.208-0.032-0.304c-0.104-0.44-0.488-0.808-1.016-0.808c-0.728,0-1.159,0.64-1.159,1.487    c0,0.792,0.392,1.439,1.143,1.439c0.472,0,0.904-0.319,1.032-0.847c0.024-0.088,0.032-0.184,0.032-0.296V146.829z"/>
		<path d="M78.747,144.598c-0.256,0-0.424-0.2-0.424-0.432c0-0.248,0.176-0.439,0.44-0.439c0.256,0,0.432,0.192,0.432,0.439    c0,0.232-0.168,0.432-0.439,0.432H78.747z M78.411,149.124v-3.87h0.704v3.87H78.411z"/>
		<path d="M81.13,144.326v0.928h1.007v0.536H81.13v2.079c0,0.48,0.136,0.751,0.528,0.751c0.192,0,0.304-0.016,0.408-0.048    l0.032,0.536c-0.136,0.048-0.352,0.096-0.624,0.096c-0.328,0-0.591-0.112-0.759-0.296c-0.192-0.216-0.272-0.56-0.272-1.016v-2.103    h-0.6v-0.536h0.6v-0.712L81.13,144.326z"/>
		<path d="M83.267,144.598c-0.256,0-0.424-0.2-0.424-0.432c0-0.248,0.176-0.439,0.44-0.439c0.256,0,0.432,0.192,0.432,0.439    c0,0.232-0.168,0.432-0.44,0.432H83.267z M82.931,149.124v-3.87h0.704v3.87H82.931z"/>
		<path d="M86.378,149.211c-1.039,0-1.855-0.768-1.855-1.991c0-1.295,0.855-2.055,1.919-2.055c1.111,0,1.863,0.808,1.863,1.983    c0,1.439-1,2.063-1.919,2.063H86.378z M86.41,148.684c0.671,0,1.175-0.631,1.175-1.511c0-0.656-0.328-1.479-1.16-1.479    c-0.823,0-1.183,0.768-1.183,1.503c0,0.847,0.48,1.487,1.159,1.487H86.41z"/>
		<path d="M89.195,146.301c0-0.408-0.008-0.728-0.032-1.047h0.624l0.04,0.631h0.016c0.192-0.36,0.64-0.72,1.279-0.72    c0.536,0,1.367,0.32,1.367,1.647v2.311h-0.704v-2.231c0-0.624-0.232-1.151-0.896-1.151c-0.456,0-0.815,0.328-0.943,0.72    c-0.032,0.088-0.048,0.216-0.048,0.328v2.334h-0.704V146.301z"/>
	</g>
	<g>
		<path d="M58.82,4.483l-0.63,1.909h-0.81l2.062-6.068h0.945l2.071,6.068H61.62l-0.648-1.909H58.82z M60.81,3.871l-0.604-1.746    c-0.126-0.396-0.216-0.756-0.306-1.107h-0.027c-0.081,0.351-0.18,0.729-0.297,1.098l-0.594,1.755H60.81z"/>
		<path d="M64.156,0.99v1.044h1.134v0.604h-1.134v2.34c0,0.541,0.153,0.846,0.594,0.846c0.216,0,0.342-0.018,0.459-0.054    l0.036,0.603c-0.153,0.054-0.396,0.108-0.702,0.108c-0.369,0-0.666-0.126-0.855-0.333c-0.216-0.243-0.306-0.63-0.306-1.143V2.638    h-0.675V2.035h0.675V1.233L64.156,0.99z"/>
		<path d="M67.375,0.99v1.044h1.134v0.604h-1.134v2.34c0,0.541,0.153,0.846,0.594,0.846c0.216,0,0.342-0.018,0.459-0.054    l0.036,0.603c-0.153,0.054-0.396,0.108-0.702,0.108c-0.369,0-0.666-0.126-0.855-0.333c-0.216-0.243-0.306-0.63-0.306-1.143V2.638    h-0.675V2.035h0.675V1.233L67.375,0.99z"/>
		<path d="M69.777,1.296c-0.288,0-0.477-0.225-0.477-0.486c0-0.279,0.198-0.495,0.495-0.495c0.288,0,0.486,0.216,0.486,0.495    c0,0.261-0.189,0.486-0.495,0.486H69.777z M69.399,6.392V2.035h0.792v4.357H69.399z"/>
		<path d="M72.495,0.99v1.044h1.134v0.604h-1.134v2.34c0,0.541,0.153,0.846,0.594,0.846c0.216,0,0.342-0.018,0.459-0.054    l0.036,0.603c-0.153,0.054-0.396,0.108-0.702,0.108c-0.369,0-0.666-0.126-0.855-0.333c-0.216-0.243-0.306-0.63-0.306-1.143V2.638    h-0.675V2.035h0.675V1.233L72.495,0.99z"/>
		<path d="M78.183,5.195c0,0.459,0.009,0.855,0.036,1.197h-0.702l-0.045-0.711h-0.018c-0.198,0.352-0.667,0.811-1.44,0.811    c-0.685,0-1.503-0.387-1.503-1.909V2.035h0.792v2.404c0,0.828,0.261,1.396,0.972,1.396c0.531,0,0.9-0.369,1.044-0.729    c0.045-0.108,0.072-0.252,0.072-0.405V2.035h0.792V5.195z"/>
		<path d="M83.322,0v5.267c0,0.387,0.009,0.829,0.036,1.125h-0.711L82.61,5.636h-0.018c-0.243,0.486-0.765,0.855-1.476,0.855    c-1.054,0-1.873-0.892-1.873-2.215c-0.009-1.458,0.9-2.341,1.954-2.341c0.675,0,1.125,0.315,1.314,0.657h0.018V0H83.322z     M82.529,3.808c0-0.108-0.009-0.234-0.036-0.342c-0.117-0.495-0.549-0.909-1.144-0.909c-0.819,0-1.305,0.72-1.305,1.674    c0,0.891,0.441,1.621,1.287,1.621c0.531,0,1.018-0.36,1.162-0.955c0.027-0.099,0.036-0.207,0.036-0.333V3.808z"/>
		<path d="M85.147,4.357c0.018,1.062,0.693,1.503,1.485,1.503c0.567,0,0.918-0.099,1.207-0.225l0.144,0.567    c-0.279,0.126-0.766,0.279-1.458,0.279c-1.333,0-2.143-0.891-2.143-2.196c0-1.314,0.783-2.35,2.052-2.35    c1.423,0,1.792,1.251,1.792,2.053c0,0.162-0.009,0.279-0.027,0.369H85.147z M87.461,3.791c0.009-0.504-0.207-1.288-1.089-1.288    c-0.81,0-1.152,0.738-1.215,1.288H87.461z"/>
		<path d="M92.068,0.99v1.044h1.134v0.604h-1.134v2.34c0,0.541,0.153,0.846,0.594,0.846c0.216,0,0.342-0.018,0.459-0.054    l0.036,0.603c-0.153,0.054-0.396,0.108-0.702,0.108c-0.369,0-0.666-0.126-0.855-0.333c-0.216-0.243-0.306-0.63-0.306-1.143V2.638    h-0.675V2.035h0.675V1.233L92.068,0.99z"/>
		<path d="M95.828,6.491c-1.17,0-2.088-0.864-2.088-2.242c0-1.458,0.963-2.314,2.16-2.314c1.251,0,2.098,0.91,2.098,2.233    c0,1.621-1.125,2.323-2.161,2.323H95.828z M95.864,5.897c0.756,0,1.323-0.711,1.323-1.702c0-0.738-0.369-1.666-1.305-1.666    c-0.927,0-1.332,0.864-1.332,1.693c0,0.954,0.54,1.674,1.305,1.674H95.864z"/>
		<path d="M99.285,2.035L99.87,4.24c0.117,0.486,0.234,0.945,0.315,1.396h0.027c0.099-0.441,0.243-0.909,0.388-1.386l0.711-2.215    h0.666l0.676,2.179c0.162,0.513,0.287,0.981,0.387,1.422h0.027c0.072-0.441,0.188-0.9,0.332-1.413l0.621-2.188h0.783l-1.404,4.357    h-0.72l-0.666-2.08c-0.153-0.495-0.279-0.927-0.388-1.44h-0.018c-0.107,0.522-0.243,0.981-0.396,1.449l-0.701,2.071h-0.721    l-1.314-4.357H99.285z"/>
		<path d="M108.719,5.348c0,0.378,0.019,0.748,0.063,1.044h-0.711l-0.072-0.549h-0.026c-0.234,0.342-0.712,0.648-1.333,0.648    c-0.882,0-1.333-0.621-1.333-1.251c0-1.053,0.938-1.629,2.621-1.621v-0.09c0-0.36-0.1-1.018-0.99-1.008    c-0.415,0-0.838,0.117-1.145,0.324l-0.18-0.531c0.36-0.225,0.891-0.378,1.44-0.378c1.341,0,1.665,0.91,1.665,1.783V5.348z     M107.945,4.168C107.08,4.15,106.1,4.304,106.1,5.15c0,0.522,0.342,0.756,0.738,0.756c0.576,0,0.945-0.36,1.071-0.729    c0.026-0.081,0.036-0.171,0.036-0.252V4.168z"/>
		<path d="M110.004,3.394c0-0.513-0.008-0.954-0.035-1.359h0.693l0.035,0.855h0.027c0.198-0.585,0.684-0.955,1.215-0.955    c0.082,0,0.145,0.009,0.217,0.018v0.748c-0.081-0.009-0.162-0.018-0.271-0.018c-0.558,0-0.954,0.423-1.062,1.008    c-0.019,0.117-0.027,0.243-0.027,0.369v2.332h-0.793V3.394z"/>
		<path d="M116.728,0v5.267c0,0.387,0.009,0.829,0.036,1.125h-0.711l-0.037-0.756h-0.018c-0.242,0.486-0.766,0.855-1.477,0.855    c-1.053,0-1.872-0.892-1.872-2.215c-0.009-1.458,0.899-2.341,1.954-2.341c0.674,0,1.125,0.315,1.313,0.657h0.019V0H116.728z     M115.936,3.808c0-0.108-0.01-0.234-0.036-0.342c-0.117-0.495-0.55-0.909-1.144-0.909c-0.819,0-1.305,0.72-1.305,1.674    c0,0.891,0.44,1.621,1.287,1.621c0.531,0,1.018-0.36,1.161-0.955c0.026-0.099,0.036-0.207,0.036-0.333V3.808z"/>
		<path d="M120.758,0.324v3.601c0,1.351,0.604,1.927,1.414,1.927c0.891,0,1.477-0.594,1.477-1.927V0.324h0.792v3.547    c0,1.864-0.981,2.62-2.296,2.62c-1.242,0-2.178-0.702-2.178-2.593V0.324H120.758z"/>
		<path d="M125.639,5.438c0.352,0.216,0.855,0.387,1.396,0.387c0.802,0,1.27-0.414,1.27-1.026c0-0.567-0.324-0.9-1.144-1.207    c-0.99-0.342-1.602-0.864-1.602-1.71c0-0.945,0.783-1.647,1.962-1.647c0.612,0,1.071,0.144,1.333,0.288l-0.217,0.648    c-0.189-0.117-0.594-0.288-1.143-0.288c-0.829,0-1.145,0.495-1.145,0.909c0,0.559,0.369,0.837,1.207,1.162    c1.025,0.405,1.539,0.891,1.539,1.782c0,0.928-0.684,1.747-2.115,1.747c-0.586,0-1.225-0.18-1.549-0.396L125.639,5.438z"/>
		<path d="M135.783,5.753c0,1.008-0.207,1.611-0.621,1.999c-0.432,0.387-1.045,0.522-1.594,0.522c-0.521,0-1.098-0.126-1.449-0.36    l0.198-0.612c0.288,0.189,0.737,0.351,1.278,0.351c0.811,0,1.404-0.423,1.404-1.53V5.645h-0.018    c-0.234,0.405-0.711,0.729-1.387,0.729c-1.08,0-1.854-0.918-1.854-2.134c0-1.476,0.963-2.305,1.972-2.305    c0.756,0,1.161,0.387,1.359,0.756h0.018l0.027-0.657h0.702c-0.026,0.306-0.036,0.667-0.036,1.188V5.753z M134.991,3.745    c0-0.126-0.009-0.243-0.046-0.351c-0.144-0.468-0.521-0.846-1.106-0.846c-0.757,0-1.296,0.639-1.296,1.657    c0,0.846,0.44,1.566,1.287,1.566c0.494,0,0.936-0.306,1.098-0.819c0.045-0.126,0.063-0.279,0.063-0.423V3.745z"/>
		<path d="M138.924,6.491c-1.171,0-2.089-0.864-2.089-2.242c0-1.458,0.963-2.314,2.161-2.314c1.25,0,2.098,0.91,2.098,2.233    c0,1.621-1.126,2.323-2.161,2.323H138.924z M138.959,5.897c0.757,0,1.324-0.711,1.324-1.702c0-0.738-0.369-1.666-1.306-1.666    c-0.927,0-1.333,0.864-1.333,1.693c0,0.954,0.541,1.674,1.306,1.674H138.959z"/>
		<path d="M142.35,2.035l0.855,2.44c0.145,0.405,0.262,0.765,0.352,1.125h0.027c0.098-0.36,0.225-0.72,0.368-1.125l0.847-2.44h0.828    l-1.711,4.357h-0.756l-1.656-4.357H142.35z"/>
		<path d="M146.768,4.357c0.018,1.062,0.693,1.503,1.485,1.503c0.567,0,0.919-0.099,1.206-0.225l0.145,0.567    c-0.279,0.126-0.766,0.279-1.459,0.279c-1.332,0-2.143-0.891-2.143-2.196c0-1.314,0.783-2.35,2.053-2.35    c1.423,0,1.791,1.251,1.791,2.053c0,0.162-0.008,0.279-0.026,0.369H146.768z M149.081,3.791c0.009-0.504-0.207-1.288-1.089-1.288    c-0.811,0-1.152,0.738-1.216,1.288H149.081z"/>
		<path d="M150.878,3.394c0-0.513-0.009-0.954-0.036-1.359h0.693l0.036,0.855h0.026c0.199-0.585,0.685-0.955,1.216-0.955    c0.081,0,0.144,0.009,0.216,0.018v0.748c-0.08-0.009-0.162-0.018-0.27-0.018c-0.559,0-0.955,0.423-1.062,1.008    c-0.018,0.117-0.027,0.243-0.027,0.369v2.332h-0.792V3.394z"/>
		<path d="M153.889,3.214c0-0.459-0.009-0.819-0.035-1.18h0.701l0.046,0.711h0.018c0.216-0.405,0.72-0.811,1.44-0.811    c0.604,0,1.539,0.36,1.539,1.855v2.602h-0.791V3.88c0-0.702-0.262-1.296-1.009-1.296c-0.513,0-0.919,0.369-1.062,0.81    c-0.036,0.099-0.054,0.243-0.054,0.369v2.629h-0.793V3.214z"/>
		<path d="M158.895,3.214c0-0.459-0.019-0.819-0.037-1.18h0.693l0.037,0.702h0.026c0.243-0.414,0.647-0.801,1.378-0.801    c0.584,0,1.035,0.36,1.224,0.874h0.019c0.135-0.252,0.314-0.432,0.494-0.567c0.262-0.198,0.541-0.306,0.955-0.306    c0.585,0,1.44,0.378,1.44,1.891v2.566h-0.774V3.925c0-0.846-0.314-1.341-0.945-1.341c-0.459,0-0.801,0.333-0.945,0.711    c-0.036,0.117-0.062,0.261-0.062,0.396v2.701h-0.774v-2.62c0-0.693-0.306-1.188-0.909-1.188c-0.486,0-0.855,0.396-0.981,0.792    c-0.046,0.117-0.063,0.252-0.063,0.387v2.629h-0.773V3.214z"/>
		<path d="M166.93,4.357c0.019,1.062,0.693,1.503,1.486,1.503c0.566,0,0.918-0.099,1.206-0.225l0.144,0.567    c-0.278,0.126-0.765,0.279-1.458,0.279c-1.333,0-2.143-0.891-2.143-2.196c0-1.314,0.783-2.35,2.053-2.35    c1.422,0,1.791,1.251,1.791,2.053c0,0.162-0.009,0.279-0.026,0.369H166.93z M169.244,3.791c0.009-0.504-0.207-1.288-1.09-1.288    c-0.811,0-1.152,0.738-1.215,1.288H169.244z"/>
		<path d="M171.04,3.214c0-0.459-0.009-0.819-0.036-1.18h0.702l0.045,0.711h0.019c0.216-0.405,0.72-0.811,1.44-0.811    c0.603,0,1.539,0.36,1.539,1.855v2.602h-0.792V3.88c0-0.702-0.262-1.296-1.009-1.296c-0.513,0-0.918,0.369-1.062,0.81    c-0.036,0.099-0.055,0.243-0.055,0.369v2.629h-0.792V3.214z"/>
		<path d="M176.96,0.99v1.044h1.135v0.604h-1.135v2.34c0,0.541,0.153,0.846,0.595,0.846c0.216,0,0.342-0.018,0.459-0.054    l0.036,0.603c-0.153,0.054-0.396,0.108-0.702,0.108c-0.369,0-0.667-0.126-0.855-0.333c-0.216-0.243-0.307-0.63-0.307-1.143V2.638    h-0.675V2.035h0.675V1.233L176.96,0.99z"/>
		<path d="M58.82,16.483l-0.63,1.909h-0.81l2.062-6.068h0.945l2.071,6.068H61.62l-0.648-1.909H58.82z M60.81,15.871l-0.604-1.746    c-0.126-0.396-0.216-0.756-0.306-1.107h-0.027c-0.081,0.351-0.18,0.729-0.297,1.098l-0.594,1.755H60.81z"/>
		<path d="M64.156,12.99v1.044h1.134v0.604h-1.134v2.34c0,0.541,0.153,0.846,0.594,0.846c0.216,0,0.342-0.018,0.459-0.054    l0.036,0.603c-0.153,0.054-0.396,0.108-0.702,0.108c-0.369,0-0.666-0.126-0.855-0.333c-0.216-0.243-0.306-0.63-0.306-1.143v-2.368    h-0.675v-0.604h0.675v-0.801L64.156,12.99z"/>
		<path d="M67.375,12.99v1.044h1.134v0.604h-1.134v2.34c0,0.541,0.153,0.846,0.594,0.846c0.216,0,0.342-0.018,0.459-0.054    l0.036,0.603c-0.153,0.054-0.396,0.108-0.702,0.108c-0.369,0-0.666-0.126-0.855-0.333c-0.216-0.243-0.306-0.63-0.306-1.143v-2.368    h-0.675v-0.604h0.675v-0.801L67.375,12.99z"/>
		<path d="M69.777,13.296c-0.288,0-0.477-0.225-0.477-0.486c0-0.279,0.198-0.495,0.495-0.495c0.288,0,0.486,0.216,0.486,0.495    c0,0.261-0.189,0.486-0.495,0.486H69.777z M69.399,18.392v-4.357h0.792v4.357H69.399z"/>
		<path d="M72.495,12.99v1.044h1.134v0.604h-1.134v2.34c0,0.541,0.153,0.846,0.594,0.846c0.216,0,0.342-0.018,0.459-0.054    l0.036,0.603c-0.153,0.054-0.396,0.108-0.702,0.108c-0.369,0-0.666-0.126-0.855-0.333c-0.216-0.243-0.306-0.63-0.306-1.143v-2.368    h-0.675v-0.604h0.675v-0.801L72.495,12.99z"/>
		<path d="M78.183,17.194c0,0.459,0.009,0.855,0.036,1.197h-0.702l-0.045-0.711h-0.018c-0.198,0.352-0.667,0.811-1.44,0.811    c-0.685,0-1.503-0.387-1.503-1.909v-2.548h0.792v2.404c0,0.828,0.261,1.396,0.972,1.396c0.531,0,0.9-0.369,1.044-0.729    c0.045-0.108,0.072-0.252,0.072-0.405v-2.665h0.792V17.194z"/>
		<path d="M83.322,12v5.267c0,0.387,0.009,0.829,0.036,1.125h-0.711l-0.036-0.756h-0.018c-0.243,0.486-0.765,0.855-1.476,0.855    c-1.054,0-1.873-0.892-1.873-2.215c-0.009-1.458,0.9-2.341,1.954-2.341c0.675,0,1.125,0.315,1.314,0.657h0.018V12H83.322z     M82.529,15.808c0-0.108-0.009-0.234-0.036-0.342c-0.117-0.495-0.549-0.909-1.144-0.909c-0.819,0-1.305,0.72-1.305,1.674    c0,0.891,0.441,1.621,1.287,1.621c0.531,0,1.018-0.36,1.162-0.955c0.027-0.099,0.036-0.207,0.036-0.333V15.808z"/>
		<path d="M85.147,16.357c0.018,1.062,0.693,1.503,1.485,1.503c0.567,0,0.918-0.099,1.207-0.225l0.144,0.567    c-0.279,0.126-0.766,0.279-1.458,0.279c-1.333,0-2.143-0.891-2.143-2.196c0-1.314,0.783-2.35,2.052-2.35    c1.423,0,1.792,1.251,1.792,2.053c0,0.162-0.009,0.279-0.027,0.369H85.147z M87.461,15.79c0.009-0.504-0.207-1.288-1.089-1.288    c-0.81,0-1.152,0.738-1.215,1.288H87.461z"/>
		<path d="M92.068,12.99v1.044h1.134v0.604h-1.134v2.34c0,0.541,0.153,0.846,0.594,0.846c0.216,0,0.342-0.018,0.459-0.054    l0.036,0.603c-0.153,0.054-0.396,0.108-0.702,0.108c-0.369,0-0.666-0.126-0.855-0.333c-0.216-0.243-0.306-0.63-0.306-1.143v-2.368    h-0.675v-0.604h0.675v-0.801L92.068,12.99z"/>
		<path d="M95.828,18.491c-1.17,0-2.088-0.864-2.088-2.242c0-1.458,0.963-2.314,2.16-2.314c1.251,0,2.098,0.91,2.098,2.233    c0,1.621-1.125,2.323-2.161,2.323H95.828z M95.864,17.896c0.756,0,1.323-0.711,1.323-1.702c0-0.738-0.369-1.666-1.305-1.666    c-0.927,0-1.332,0.864-1.332,1.693c0,0.954,0.54,1.674,1.305,1.674H95.864z"/>
		<path d="M99.285,14.034l0.585,2.206c0.117,0.486,0.234,0.945,0.315,1.396h0.027c0.099-0.441,0.243-0.909,0.388-1.386l0.711-2.215    h0.666l0.676,2.179c0.162,0.513,0.287,0.981,0.387,1.422h0.027c0.072-0.441,0.188-0.9,0.332-1.413l0.621-2.188h0.783l-1.404,4.357    h-0.72l-0.666-2.08c-0.153-0.495-0.279-0.927-0.388-1.44h-0.018c-0.107,0.522-0.243,0.981-0.396,1.449l-0.701,2.071h-0.721    l-1.314-4.357H99.285z"/>
		<path d="M108.719,17.347c0,0.378,0.019,0.748,0.063,1.044h-0.711l-0.072-0.549h-0.026c-0.234,0.342-0.712,0.648-1.333,0.648    c-0.882,0-1.333-0.621-1.333-1.251c0-1.053,0.938-1.629,2.621-1.621v-0.09c0-0.36-0.1-1.018-0.99-1.008    c-0.415,0-0.838,0.117-1.145,0.324l-0.18-0.531c0.36-0.225,0.891-0.378,1.44-0.378c1.341,0,1.665,0.91,1.665,1.783V17.347z     M107.945,16.168c-0.865-0.018-1.846,0.135-1.846,0.981c0,0.522,0.342,0.756,0.738,0.756c0.576,0,0.945-0.36,1.071-0.729    c0.026-0.081,0.036-0.171,0.036-0.252V16.168z"/>
		<path d="M110.004,15.394c0-0.513-0.008-0.954-0.035-1.359h0.693l0.035,0.855h0.027c0.198-0.585,0.684-0.955,1.215-0.955    c0.082,0,0.145,0.009,0.217,0.018v0.748c-0.081-0.009-0.162-0.018-0.271-0.018c-0.558,0-0.954,0.423-1.062,1.008    c-0.019,0.117-0.027,0.243-0.027,0.369v2.332h-0.793V15.394z"/>
		<path d="M116.728,12v5.267c0,0.387,0.009,0.829,0.036,1.125h-0.711l-0.037-0.756h-0.018c-0.242,0.486-0.766,0.855-1.477,0.855    c-1.053,0-1.872-0.892-1.872-2.215c-0.009-1.458,0.899-2.341,1.954-2.341c0.674,0,1.125,0.315,1.313,0.657h0.019V12H116.728z     M115.936,15.808c0-0.108-0.01-0.234-0.036-0.342c-0.117-0.495-0.55-0.909-1.144-0.909c-0.819,0-1.305,0.72-1.305,1.674    c0,0.891,0.44,1.621,1.287,1.621c0.531,0,1.018-0.36,1.161-0.955c0.026-0.099,0.036-0.207,0.036-0.333V15.808z"/>
		<path d="M124.207,18.193c-0.279,0.144-0.865,0.288-1.604,0.288c-1.71,0-2.988-1.08-2.988-3.07c0-1.899,1.287-3.178,3.169-3.178    c0.747,0,1.233,0.162,1.44,0.261l-0.198,0.648c-0.288-0.144-0.711-0.252-1.216-0.252c-1.422,0-2.367,0.909-2.367,2.494    c0,1.485,0.855,2.431,2.322,2.431c0.486,0,0.973-0.099,1.287-0.252L124.207,18.193z"/>
		<path d="M125.143,12h0.791v2.719h0.019c0.126-0.225,0.324-0.432,0.567-0.558c0.234-0.144,0.514-0.225,0.811-0.225    c0.585,0,1.521,0.36,1.521,1.864v2.593h-0.793V15.88c0-0.702-0.261-1.288-1.008-1.288c-0.514,0-0.91,0.36-1.062,0.792    c-0.045,0.108-0.055,0.225-0.055,0.378v2.629h-0.791V12z"/>
		<path d="M130.527,13.296c-0.287,0-0.477-0.225-0.477-0.486c0-0.279,0.198-0.495,0.495-0.495c0.288,0,0.486,0.216,0.486,0.495    c0,0.261-0.188,0.486-0.495,0.486H130.527z M130.15,18.392v-4.357h0.791v4.357H130.15z"/>
		<path d="M132.269,15.214c0-0.459-0.009-0.819-0.036-1.18h0.702l0.046,0.711h0.018c0.216-0.405,0.72-0.811,1.439-0.811    c0.604,0,1.54,0.36,1.54,1.855v2.602h-0.792V15.88c0-0.702-0.262-1.296-1.008-1.296c-0.514,0-0.919,0.369-1.062,0.81    c-0.037,0.099-0.055,0.243-0.055,0.369v2.629h-0.792V15.214z"/>
		<path d="M137.768,16.357c0.018,1.062,0.693,1.503,1.485,1.503c0.567,0,0.919-0.099,1.206-0.225l0.145,0.567    c-0.279,0.126-0.766,0.279-1.459,0.279c-1.332,0-2.143-0.891-2.143-2.196c0-1.314,0.783-2.35,2.053-2.35    c1.422,0,1.791,1.251,1.791,2.053c0,0.162-0.008,0.279-0.026,0.369H137.768z M140.081,15.79c0.009-0.504-0.207-1.288-1.089-1.288    c-0.811,0-1.152,0.738-1.216,1.288H140.081z"/>
		<path d="M141.749,17.582c0.243,0.144,0.657,0.306,1.054,0.306c0.566,0,0.837-0.279,0.837-0.648c0-0.378-0.226-0.576-0.802-0.792    c-0.792-0.288-1.161-0.72-1.161-1.233c0-0.703,0.576-1.279,1.503-1.279c0.441,0,0.828,0.117,1.062,0.271l-0.189,0.567    c-0.171-0.099-0.485-0.252-0.891-0.252c-0.468,0-0.721,0.27-0.721,0.594c0,0.36,0.253,0.522,0.82,0.747    c0.746,0.279,1.143,0.657,1.143,1.306c0,0.774-0.604,1.314-1.62,1.314c-0.478,0-0.919-0.126-1.224-0.306L141.749,17.582z"/>
		<path d="M145.939,16.357c0.019,1.062,0.693,1.503,1.486,1.503c0.566,0,0.918-0.099,1.206-0.225l0.144,0.567    c-0.279,0.126-0.766,0.279-1.458,0.279c-1.333,0-2.143-0.891-2.143-2.196c0-1.314,0.783-2.35,2.052-2.35    c1.423,0,1.792,1.251,1.792,2.053c0,0.162-0.009,0.279-0.026,0.369H145.939z M148.254,15.79c0.009-0.504-0.207-1.288-1.09-1.288    c-0.811,0-1.152,0.738-1.215,1.288H148.254z"/>
		<path d="M155.633,17.752c0,1.008-0.207,1.611-0.621,1.999c-0.432,0.387-1.044,0.522-1.594,0.522c-0.521,0-1.098-0.126-1.449-0.36    l0.199-0.612c0.287,0.189,0.737,0.351,1.277,0.351c0.811,0,1.404-0.423,1.404-1.53v-0.477h-0.018    c-0.234,0.405-0.711,0.729-1.387,0.729c-1.08,0-1.854-0.918-1.854-2.134c0-1.476,0.963-2.305,1.971-2.305    c0.756,0,1.162,0.387,1.359,0.756h0.018l0.027-0.657h0.703c-0.027,0.306-0.037,0.667-0.037,1.188V17.752z M154.842,15.745    c0-0.126-0.01-0.243-0.046-0.351c-0.144-0.468-0.522-0.846-1.106-0.846c-0.757,0-1.297,0.639-1.297,1.657    c0,0.846,0.441,1.566,1.287,1.566c0.495,0,0.937-0.306,1.099-0.819c0.045-0.126,0.063-0.279,0.063-0.423V15.745z"/>
		<path d="M158.773,18.491c-1.17,0-2.088-0.864-2.088-2.242c0-1.458,0.963-2.314,2.16-2.314c1.252,0,2.098,0.91,2.098,2.233    c0,1.621-1.125,2.323-2.16,2.323H158.773z M158.811,17.896c0.756,0,1.322-0.711,1.322-1.702c0-0.738-0.369-1.666-1.305-1.666    c-0.928,0-1.332,0.864-1.332,1.693c0,0.954,0.539,1.674,1.305,1.674H158.811z"/>
		<path d="M162.201,14.034l0.854,2.44c0.144,0.405,0.261,0.765,0.351,1.125h0.027c0.1-0.36,0.226-0.72,0.369-1.125l0.847-2.44h0.828    l-1.71,4.357h-0.757l-1.656-4.357H162.201z"/>
		<path d="M166.619,16.357c0.018,1.062,0.692,1.503,1.484,1.503c0.567,0,0.919-0.099,1.207-0.225l0.144,0.567    c-0.278,0.126-0.765,0.279-1.458,0.279c-1.332,0-2.143-0.891-2.143-2.196c0-1.314,0.783-2.35,2.053-2.35    c1.422,0,1.791,1.251,1.791,2.053c0,0.162-0.009,0.279-0.026,0.369H166.619z M168.933,15.79c0.009-0.504-0.207-1.288-1.09-1.288    c-0.81,0-1.152,0.738-1.216,1.288H168.933z"/>
		<path d="M170.729,15.394c0-0.513-0.009-0.954-0.036-1.359h0.693l0.036,0.855h0.026c0.198-0.585,0.685-0.955,1.216-0.955    c0.081,0,0.145,0.009,0.216,0.018v0.748c-0.081-0.009-0.162-0.018-0.27-0.018c-0.559,0-0.954,0.423-1.062,1.008    c-0.019,0.117-0.027,0.243-0.027,0.369v2.332h-0.792V15.394z"/>
		<path d="M173.74,15.214c0-0.459-0.009-0.819-0.036-1.18h0.702l0.045,0.711h0.019c0.216-0.405,0.72-0.811,1.44-0.811    c0.603,0,1.539,0.36,1.539,1.855v2.602h-0.792V15.88c0-0.702-0.261-1.296-1.009-1.296c-0.513,0-0.918,0.369-1.062,0.81    c-0.036,0.099-0.055,0.243-0.055,0.369v2.629h-0.792V15.214z"/>
		<path d="M178.745,15.214c0-0.459-0.018-0.819-0.036-1.18h0.693l0.036,0.702h0.026c0.243-0.414,0.648-0.801,1.378-0.801    c0.585,0,1.035,0.36,1.225,0.874h0.018c0.135-0.252,0.315-0.432,0.495-0.567c0.262-0.198,0.54-0.306,0.954-0.306    c0.586,0,1.44,0.378,1.44,1.891v2.566h-0.773v-2.467c0-0.846-0.315-1.341-0.945-1.341c-0.46,0-0.802,0.333-0.945,0.711    c-0.036,0.117-0.063,0.261-0.063,0.396v2.701h-0.774v-2.62c0-0.693-0.306-1.188-0.909-1.188c-0.486,0-0.855,0.396-0.981,0.792    c-0.045,0.117-0.062,0.252-0.062,0.387v2.629h-0.774V15.214z"/>
		<path d="M186.781,16.357c0.018,1.062,0.693,1.503,1.485,1.503c0.567,0,0.918-0.099,1.206-0.225l0.145,0.567    c-0.279,0.126-0.766,0.279-1.459,0.279c-1.332,0-2.143-0.891-2.143-2.196c0-1.314,0.783-2.35,2.053-2.35    c1.423,0,1.792,1.251,1.792,2.053c0,0.162-0.009,0.279-0.027,0.369H186.781z M189.095,15.79c0.009-0.504-0.207-1.288-1.089-1.288    c-0.811,0-1.152,0.738-1.216,1.288H189.095z"/>
		<path d="M190.892,15.214c0-0.459-0.009-0.819-0.036-1.18h0.702l0.045,0.711h0.019c0.216-0.405,0.72-0.811,1.44-0.811    c0.603,0,1.539,0.36,1.539,1.855v2.602h-0.792V15.88c0-0.702-0.262-1.296-1.009-1.296c-0.513,0-0.918,0.369-1.062,0.81    c-0.036,0.099-0.055,0.243-0.055,0.369v2.629h-0.792V15.214z"/>
		<path d="M196.811,12.99v1.044h1.135v0.604h-1.135v2.34c0,0.541,0.153,0.846,0.595,0.846c0.216,0,0.342-0.018,0.459-0.054    l0.036,0.603c-0.153,0.054-0.396,0.108-0.702,0.108c-0.369,0-0.667-0.126-0.855-0.333c-0.216-0.243-0.307-0.63-0.307-1.143v-2.368    h-0.675v-0.604h0.675v-0.801L196.811,12.99z"/>
	</g>
	<polyline fill="none" stroke="#000000" stroke-width="0.5" stroke-linejoin="round" stroke-miterlimit="10" points="   210.549,137.508 18.549,137.507 18.549,29.508  "/>
	
		<line fill="none" stroke="#000000" stroke-width="0.5" stroke-linejoin="round" stroke-miterlimit="10" x1="18.625" y1="137.508" x2="15.625" y2="137.508"/>
	
		<line fill="none" stroke="#000000" stroke-width="0.5" stroke-linejoin="round" stroke-miterlimit="10" x1="18.625" y1="119.508" x2="15.625" y2="119.508"/>
	
		<line fill="none" stroke="#999999" stroke-width="0.5" stroke-linejoin="round" stroke-miterlimit="10" x1="18.625" y1="101.508" x2="210.549" y2="101.508"/>
	
		<line fill="none" stroke="#000000" stroke-width="0.5" stroke-linejoin="round" stroke-miterlimit="10" x1="18.625" y1="101.508" x2="15.625" y2="101.508"/>
	
		<line fill="none" stroke="#999999" stroke-width="0.5" stroke-linejoin="round" stroke-miterlimit="10" x1="18.625" y1="83.508" x2="210.549" y2="83.508"/>
	
		<line fill="none" stroke="#000000" stroke-width="0.5" stroke-linejoin="round" stroke-miterlimit="10" x1="18.625" y1="83.508" x2="15.625" y2="83.508"/>
	
		<line fill="none" stroke="#999999" stroke-width="0.5" stroke-linejoin="round" stroke-miterlimit="10" x1="18.625" y1="65.508" x2="210.549" y2="65.508"/>
	
		<line fill="none" stroke="#000000" stroke-width="0.5" stroke-linejoin="round" stroke-miterlimit="10" x1="18.625" y1="65.508" x2="15.625" y2="65.508"/>
	
		<line fill="none" stroke="#999999" stroke-width="0.5" stroke-linejoin="round" stroke-miterlimit="10" x1="18.625" y1="47.508" x2="210.549" y2="47.508"/>
	
		<line fill="none" stroke="#000000" stroke-width="0.5" stroke-linejoin="round" stroke-miterlimit="10" x1="18.625" y1="47.508" x2="15.625" y2="47.508"/>
	
		<line fill="none" stroke="#999999" stroke-width="0.5" stroke-linejoin="round" stroke-miterlimit="10" x1="18.625" y1="29.508" x2="210.549" y2="29.508"/>
	
		<line fill="none" stroke="#000000" stroke-width="0.5" stroke-linejoin="round" stroke-miterlimit="10" x1="18.625" y1="29.508" x2="15.625" y2="29.508"/>
	
		<line fill="none" stroke="#000000" stroke-width="0.5" stroke-linejoin="round" stroke-miterlimit="10" x1="63.625" y1="137.508" x2="63.625" y2="140.508"/>
	<g>
		<path d="M113.156,148.276c0.312,0.192,0.76,0.344,1.24,0.344c0.711,0,1.127-0.368,1.127-0.911c0-0.504-0.287-0.8-1.016-1.072    c-0.879-0.304-1.423-0.768-1.423-1.519c0-0.839,0.696-1.463,1.743-1.463c0.543,0,0.951,0.128,1.184,0.256l-0.192,0.576    c-0.168-0.104-0.527-0.256-1.015-0.256c-0.736,0-1.016,0.439-1.016,0.807c0,0.496,0.327,0.744,1.07,1.032    c0.912,0.36,1.367,0.792,1.367,1.583c0,0.824-0.607,1.551-1.879,1.551c-0.52,0-1.087-0.16-1.375-0.352L113.156,148.276z"/>
		<path d="M118.74,149.211c-1.04,0-1.855-0.768-1.855-1.991c0-1.295,0.855-2.055,1.919-2.055c1.111,0,1.863,0.808,1.863,1.983    c0,1.439-0.999,2.063-1.919,2.063H118.74z M118.771,148.684c0.672,0,1.176-0.631,1.176-1.511c0-0.656-0.328-1.479-1.159-1.479    c-0.823,0-1.184,0.768-1.184,1.503c0,0.847,0.479,1.487,1.159,1.487H118.771z"/>
		<path d="M124.477,149.124v-2.287l-1.712-3.103h0.8l0.76,1.487c0.199,0.408,0.367,0.735,0.535,1.111h0.017    c0.144-0.352,0.335-0.704,0.544-1.111l0.775-1.487h0.783l-1.799,3.094v2.295H124.477z"/>
		<path d="M129.156,149.211c-1.04,0-1.855-0.768-1.855-1.991c0-1.295,0.855-2.055,1.919-2.055c1.111,0,1.863,0.808,1.863,1.983    c0,1.439-0.999,2.063-1.919,2.063H129.156z M129.188,148.684c0.672,0,1.176-0.631,1.176-1.511c0-0.656-0.328-1.479-1.159-1.479    c-0.823,0-1.184,0.768-1.184,1.503c0,0.847,0.479,1.487,1.159,1.487H129.188z"/>
		<path d="M135.211,148.06c0,0.408,0.008,0.76,0.031,1.063h-0.623l-0.04-0.632h-0.017c-0.176,0.312-0.592,0.72-1.279,0.72    c-0.607,0-1.335-0.344-1.335-1.695v-2.263h0.704v2.135c0,0.735,0.231,1.239,0.863,1.239c0.472,0,0.799-0.328,0.928-0.648    c0.039-0.096,0.063-0.224,0.063-0.36v-2.366h0.704V148.06z"/>
		<path d="M138.98,149.124l-1.367-5.389h0.734l0.641,2.727c0.16,0.68,0.303,1.343,0.399,1.863h0.017    c0.088-0.536,0.256-1.176,0.439-1.871l0.719-2.719h0.729l0.655,2.734c0.151,0.648,0.296,1.279,0.376,1.847h0.016    c0.112-0.592,0.264-1.191,0.432-1.863l0.712-2.719h0.712l-1.527,5.389h-0.728l-0.68-2.798c-0.168-0.696-0.28-1.224-0.353-1.767    h-0.016c-0.088,0.543-0.216,1.063-0.416,1.759l-0.768,2.807H138.98z"/>
		<path d="M147.57,148.196c0,0.335,0.017,0.664,0.057,0.927h-0.632l-0.063-0.488h-0.024c-0.208,0.304-0.632,0.576-1.183,0.576    c-0.784,0-1.184-0.552-1.184-1.111c0-0.936,0.831-1.447,2.326-1.439v-0.08c0-0.32-0.088-0.904-0.879-0.896    c-0.368,0-0.744,0.104-1.016,0.288l-0.16-0.472c0.32-0.2,0.791-0.336,1.279-0.336c1.191,0,1.479,0.808,1.479,1.583V148.196z     M146.883,147.148c-0.768-0.016-1.639,0.12-1.639,0.872c0,0.464,0.304,0.672,0.656,0.672c0.512,0,0.839-0.32,0.951-0.648    c0.023-0.072,0.031-0.152,0.031-0.224V147.148z"/>
		<path d="M148.7,146.301c0-0.408-0.008-0.728-0.032-1.047h0.624l0.04,0.631h0.016c0.192-0.36,0.641-0.72,1.279-0.72    c0.535,0,1.367,0.32,1.367,1.647v2.311h-0.703v-2.231c0-0.624-0.232-1.151-0.896-1.151c-0.456,0-0.815,0.328-0.943,0.72    c-0.032,0.088-0.048,0.216-0.048,0.328v2.334H148.7V146.301z"/>
		<path d="M153.987,144.326v0.928h1.007v0.536h-1.007v2.079c0,0.48,0.136,0.751,0.528,0.751c0.191,0,0.303-0.016,0.407-0.048    l0.032,0.536c-0.137,0.048-0.352,0.096-0.624,0.096c-0.327,0-0.591-0.112-0.759-0.296c-0.192-0.216-0.272-0.56-0.272-1.016v-2.103    h-0.6v-0.536h0.6v-0.712L153.987,144.326z"/>
		<path d="M158.331,144.326v0.928h1.007v0.536h-1.007v2.079c0,0.48,0.136,0.751,0.528,0.751c0.191,0,0.303-0.016,0.407-0.048    l0.032,0.536c-0.137,0.048-0.352,0.096-0.624,0.096c-0.327,0-0.591-0.112-0.759-0.296c-0.192-0.216-0.272-0.56-0.272-1.016v-2.103    h-0.6v-0.536h0.6v-0.712L158.331,144.326z"/>
		<path d="M161.707,149.211c-1.039,0-1.855-0.768-1.855-1.991c0-1.295,0.855-2.055,1.919-2.055c1.111,0,1.863,0.808,1.863,1.983    c0,1.439-0.999,2.063-1.919,2.063H161.707z M161.738,148.684c0.672,0,1.176-0.631,1.176-1.511c0-0.656-0.328-1.479-1.16-1.479    c-0.822,0-1.183,0.768-1.183,1.503c0,0.847,0.479,1.487,1.159,1.487H161.738z"/>
		<path d="M166.244,143.814c0.303-0.072,0.791-0.12,1.271-0.12c0.696,0,1.144,0.12,1.472,0.392c0.279,0.208,0.455,0.528,0.455,0.951    c0,0.528-0.352,0.984-0.911,1.184v0.024c0.512,0.12,1.111,0.544,1.111,1.343c0,0.464-0.185,0.815-0.464,1.08    c-0.367,0.344-0.976,0.503-1.855,0.503c-0.479,0-0.848-0.032-1.078-0.064V143.814z M166.939,146.021h0.631    c0.729,0,1.16-0.392,1.16-0.912c0-0.624-0.473-0.879-1.176-0.879c-0.32,0-0.504,0.024-0.615,0.048V146.021z M166.939,148.596    c0.144,0.024,0.336,0.032,0.584,0.032c0.719,0,1.383-0.264,1.383-1.047c0-0.728-0.632-1.04-1.392-1.04h-0.575V148.596z"/>
		<path d="M170.955,147.316c0.016,0.943,0.615,1.335,1.319,1.335c0.504,0,0.815-0.088,1.071-0.2l0.128,0.503    c-0.247,0.112-0.68,0.248-1.296,0.248c-1.183,0-1.902-0.792-1.902-1.951c0-1.167,0.695-2.087,1.823-2.087    c1.263,0,1.591,1.112,1.591,1.823c0,0.144-0.008,0.248-0.023,0.328H170.955z M173.01,146.813c0.008-0.448-0.184-1.144-0.967-1.144    c-0.721,0-1.023,0.656-1.08,1.144H173.01z"/>
		<path d="M176.283,143.807c0.336-0.064,0.775-0.112,1.336-0.112c0.688,0,1.191,0.16,1.511,0.448    c0.296,0.256,0.479,0.648,0.479,1.12c0,0.488-0.144,0.872-0.424,1.151c-0.367,0.392-0.967,0.592-1.646,0.592    c-0.208,0-0.4-0.008-0.561-0.048v2.167h-0.695V143.807z M176.979,146.389c0.152,0.04,0.344,0.056,0.576,0.056    c0.84,0,1.352-0.408,1.352-1.143c0-0.712-0.504-1.056-1.271-1.056c-0.304,0-0.535,0.024-0.656,0.056V146.389z"/>
		<path d="M180.516,146.461c0-0.456-0.008-0.848-0.032-1.207h0.616l0.031,0.759h0.023c0.177-0.52,0.608-0.848,1.08-0.848    c0.072,0,0.128,0.008,0.191,0.016v0.664c-0.071-0.008-0.144-0.016-0.239-0.016c-0.495,0-0.848,0.376-0.944,0.896    c-0.016,0.104-0.023,0.216-0.023,0.328v2.071h-0.703V146.461z"/>
		<path d="M183.531,147.316c0.016,0.943,0.615,1.335,1.318,1.335c0.504,0,0.816-0.088,1.072-0.2l0.127,0.503    c-0.247,0.112-0.68,0.248-1.295,0.248c-1.184,0-1.902-0.792-1.902-1.951c0-1.167,0.695-2.087,1.822-2.087    c1.264,0,1.592,1.112,1.592,1.823c0,0.144-0.008,0.248-0.024,0.328H183.531z M185.586,146.813    c0.008-0.448-0.184-1.144-0.968-1.144c-0.72,0-1.023,0.656-1.079,1.144H185.586z"/>
		<path d="M187.043,148.404c0.217,0.128,0.584,0.272,0.936,0.272c0.504,0,0.744-0.248,0.744-0.576c0-0.336-0.2-0.512-0.712-0.704    c-0.704-0.256-1.031-0.64-1.031-1.095c0-0.624,0.512-1.136,1.335-1.136c0.393,0,0.736,0.104,0.943,0.24l-0.168,0.503    c-0.151-0.088-0.432-0.224-0.791-0.224c-0.416,0-0.64,0.24-0.64,0.527c0,0.32,0.224,0.464,0.728,0.664    c0.664,0.248,1.016,0.583,1.016,1.159c0,0.688-0.536,1.167-1.439,1.167c-0.424,0-0.815-0.112-1.088-0.272L187.043,148.404z"/>
		<path d="M190.643,144.598c-0.256,0-0.424-0.2-0.424-0.432c0-0.248,0.176-0.439,0.44-0.439c0.256,0,0.432,0.192,0.432,0.439    c0,0.232-0.168,0.432-0.44,0.432H190.643z M190.307,149.124v-3.87h0.704v3.87H190.307z"/>
		<path d="M195.521,143.447v4.677c0,0.344,0.008,0.736,0.031,1h-0.631l-0.033-0.671h-0.016c-0.215,0.432-0.68,0.759-1.311,0.759    c-0.936,0-1.664-0.792-1.664-1.967c-0.008-1.295,0.801-2.079,1.736-2.079c0.6,0,0.998,0.28,1.166,0.584h0.017v-2.303H195.521z     M194.817,146.829c0-0.096-0.008-0.208-0.032-0.304c-0.104-0.44-0.487-0.808-1.016-0.808c-0.727,0-1.158,0.64-1.158,1.487    c0,0.792,0.391,1.439,1.143,1.439c0.472,0,0.904-0.319,1.031-0.847c0.024-0.088,0.032-0.184,0.032-0.296V146.829z"/>
		<path d="M197.091,147.316c0.017,0.943,0.616,1.335,1.319,1.335c0.504,0,0.815-0.088,1.07-0.2l0.129,0.503    c-0.248,0.112-0.68,0.248-1.295,0.248c-1.184,0-1.903-0.792-1.903-1.951c0-1.167,0.696-2.087,1.823-2.087    c1.263,0,1.59,1.112,1.59,1.823c0,0.144-0.008,0.248-0.023,0.328H197.091z M199.146,146.813c0.008-0.448-0.185-1.144-0.969-1.144    c-0.719,0-1.023,0.656-1.078,1.144H199.146z"/>
		<path d="M200.698,146.301c0-0.408-0.008-0.728-0.032-1.047h0.624l0.04,0.631h0.016c0.192-0.36,0.641-0.72,1.279-0.72    c0.536,0,1.367,0.32,1.367,1.647v2.311h-0.703v-2.231c0-0.624-0.232-1.151-0.896-1.151c-0.456,0-0.815,0.328-0.943,0.72    c-0.032,0.088-0.048,0.216-0.048,0.328v2.334h-0.704V146.301z"/>
		<path d="M205.986,144.326v0.928h1.007v0.536h-1.007v2.079c0,0.48,0.136,0.751,0.527,0.751c0.191,0,0.304-0.016,0.408-0.048    l0.031,0.536c-0.136,0.048-0.352,0.096-0.623,0.096c-0.328,0-0.592-0.112-0.76-0.296c-0.191-0.216-0.271-0.56-0.271-1.016v-2.103    h-0.6v-0.536h0.6v-0.712L205.986,144.326z"/>
		<path d="M208.33,147.588l-0.016-0.2c-0.049-0.432,0.096-0.904,0.495-1.383c0.36-0.432,0.56-0.736,0.56-1.096    c0-0.408-0.256-0.688-0.76-0.688c-0.287,0-0.607,0.088-0.807,0.248l-0.192-0.504c0.264-0.2,0.72-0.328,1.144-0.328    c0.92,0,1.335,0.576,1.335,1.183c0,0.536-0.304,0.936-0.688,1.383c-0.352,0.424-0.479,0.775-0.456,1.184l0.008,0.2H208.33z     M208.626,149.211c-0.272,0-0.464-0.216-0.464-0.496c0-0.296,0.199-0.504,0.472-0.504c0.288,0,0.472,0.208,0.472,0.504    c0,0.28-0.184,0.496-0.472,0.496H208.626z"/>
	</g>
	
		<line fill="none" stroke="#000000" stroke-width="0.5" stroke-linejoin="round" stroke-miterlimit="10" x1="161.549" y1="137.508" x2="161.549" y2="140.508"/>
	<circle cx="41.907" cy="4.646" r="1.75"/>
	<circle cx="63.625" cy="46.892" r="1.75"/>
	<circle cx="161.488" cy="48.2" r="1.75"/>
	<circle cx="161.488" cy="53.434" r="1.75"/>
	<circle cx="63.625" cy="71.494" r="1.75"/>
	
		<line fill="none" stroke="#000000" stroke-linejoin="round" stroke-miterlimit="10" x1="29.907" y1="16.646" x2="53.907" y2="16.646"/>
	<circle cx="41.907" cy="16.646" r="1.75"/>
	<g>
		<g>
			<line fill="none" stroke="#000000" stroke-linejoin="round" x1="29.907" y1="4.646" x2="31.407" y2="4.646"/>
			
				<line fill="none" stroke="#000000" stroke-linejoin="round" stroke-dasharray="2.8636,1.9091" x1="33.316" y1="4.646" x2="51.452" y2="4.646"/>
			<line fill="none" stroke="#000000" stroke-linejoin="round" x1="52.407" y1="4.646" x2="53.907" y2="4.646"/>
		</g>
	</g>
	
		<line fill="none" stroke="#000000" stroke-width="0.5" stroke-linejoin="round" stroke-miterlimit="10" x1="61.812" y1="42.966" x2="65.438" y2="42.966"/>
	
		<line fill="none" stroke="#000000" stroke-width="0.5" stroke-linejoin="round" stroke-miterlimit="10" x1="61.812" y1="50.817" x2="65.438" y2="50.817"/>
	
		<line fill="none" stroke="#000000" stroke-width="0.5" stroke-linejoin="round" stroke-miterlimit="10" x1="63.562" y1="46.892" x2="63.562" y2="42.966"/>
	
		<line fill="none" stroke="#000000" stroke-width="0.5" stroke-linejoin="round" stroke-miterlimit="10" x1="63.562" y1="50.817" x2="63.562" y2="46.892"/>
	
		<line fill="none" stroke="#000000" stroke-width="0.5" stroke-linejoin="round" stroke-miterlimit="10" x1="159.738" y1="44.274" x2="163.35" y2="44.274"/>
	
		<line fill="none" stroke="#000000" stroke-width="0.5" stroke-linejoin="round" stroke-miterlimit="10" x1="159.738" y1="52.246" x2="163.35" y2="52.246"/>
	
		<line fill="none" stroke="#000000" stroke-width="0.5" stroke-linejoin="round" stroke-miterlimit="10" x1="161.488" y1="48.2" x2="161.488" y2="44.274"/>
	
		<line fill="none" stroke="#000000" stroke-width="0.5" stroke-linejoin="round" stroke-miterlimit="10" x1="161.488" y1="52.246" x2="161.488" y2="48.2"/>
	
		<line fill="none" stroke="#000000" stroke-width="0.5" stroke-linejoin="round" stroke-miterlimit="10" x1="61.812" y1="68.015" x2="65.438" y2="68.015"/>
	
		<line fill="none" stroke="#000000" stroke-width="0.5" stroke-linejoin="round" stroke-miterlimit="10" x1="61.812" y1="74.931" x2="65.438" y2="74.931"/>
	
		<line fill="none" stroke="#000000" stroke-width="0.5" stroke-linejoin="round" stroke-miterlimit="10" x1="63.562" y1="71.566" x2="63.562" y2="68.015"/>
	
		<line fill="none" stroke="#000000" stroke-width="0.5" stroke-linejoin="round" stroke-miterlimit="10" x1="63.562" y1="74.931" x2="63.562" y2="71.566"/>
	
		<line fill="none" stroke="#000000" stroke-width="0.5" stroke-linejoin="round" stroke-miterlimit="10" x1="159.738" y1="50.069" x2="163.35" y2="50.069"/>
	
		<line fill="none" stroke="#000000" stroke-width="0.5" stroke-linejoin="round" stroke-miterlimit="10" x1="159.738" y1="56.986" x2="163.35" y2="56.986"/>
	
		<line fill="none" stroke="#000000" stroke-width="0.5" stroke-linejoin="round" stroke-miterlimit="10" x1="161.488" y1="53.434" x2="161.488" y2="50.069"/>
	
		<line fill="none" stroke="#000000" stroke-width="0.5" stroke-linejoin="round" stroke-miterlimit="10" x1="161.488" y1="56.986" x2="161.488" y2="53.434"/>
	<g>
		<g>
			<line fill="none" stroke="#000000" stroke-linejoin="round" x1="63.562" y1="46.892" x2="65.062" y2="46.912"/>
			
				<line fill="none" stroke="#000000" stroke-linejoin="round" stroke-dasharray="2.9361,1.9574" x1="67.02" y1="46.938" x2="159.01" y2="48.167"/>
			<line fill="none" stroke="#000000" stroke-linejoin="round" x1="159.988" y1="48.18" x2="161.488" y2="48.2"/>
		</g>
	</g>
	
		<line fill="none" stroke="#000000" stroke-linejoin="round" stroke-miterlimit="10" x1="63.562" y1="71.494" x2="161.488" y2="53.434"/>
</g>
</svg>