<svg xmlns="http://www.w3.org/2000/svg" xmlns:xlink="http://www.w3.org/1999/xlink" version="1.1" x="0px" y="0px" width="308.645px" height="158.543px" viewBox="0 0 308.645 158.543" enable-background="new 0 0 308.645 158.543" xml:space="preserve">
<g id="wide" display="none">
</g>
<g id="text_column">
</g>
<g id="art">
	
		<line fill="none" stroke="#A7A9AC" stroke-width="0.5" stroke-linejoin="round" stroke-miterlimit="10" x1="23.255" y1="113.607" x2="308.645" y2="113.607"/>
	<rect x="267.625" y="100.849" fill="#FFFFFF" width="31" height="25.359"/>
	<g>
		<path d="M6.095,5.373c-1.015,0-1.711-0.951-1.727-2.671C4.368,0.951,5.127,0,6.183,0c1.087,0,1.719,0.976,1.719,2.631    c0,1.767-0.664,2.742-1.799,2.742H6.095z M6.135,4.829c0.712,0,1.056-0.839,1.056-2.167c0-1.279-0.32-2.118-1.056-2.118    c-0.64,0-1.055,0.815-1.055,2.118c-0.016,1.352,0.4,2.167,1.047,2.167H6.135z"/>
		<path d="M9.063,5.373C8.792,5.373,8.6,5.157,8.6,4.869c0-0.287,0.2-0.504,0.48-0.504s0.472,0.208,0.472,0.504    c0,0.288-0.192,0.504-0.479,0.504H9.063z"/>
		<path d="M10.368,4.485c0.2,0.12,0.656,0.32,1.151,0.32c0.896,0,1.183-0.568,1.175-1.008c-0.008-0.728-0.664-1.039-1.343-1.039    h-0.392V2.23h0.392c0.512,0,1.159-0.264,1.159-0.879c0-0.416-0.264-0.784-0.912-0.784c-0.416,0-0.815,0.185-1.039,0.344    l-0.192-0.512C10.647,0.2,11.175,0,11.735,0c1.023,0,1.487,0.607,1.487,1.239c0,0.544-0.328,1-0.959,1.231v0.016    c0.64,0.12,1.159,0.6,1.159,1.328c0,0.831-0.656,1.559-1.895,1.559c-0.583,0-1.095-0.184-1.351-0.352L10.368,4.485z"/>
		<path d="M15.959,5.373c-1.016,0-1.711-0.951-1.728-2.671c0-1.751,0.76-2.702,1.815-2.702c1.087,0,1.719,0.976,1.719,2.631    c0,1.767-0.664,2.742-1.799,2.742H15.959z M15.999,4.829c0.712,0,1.056-0.839,1.056-2.167c0-1.279-0.32-2.118-1.056-2.118    c-0.64,0-1.055,0.815-1.055,2.118c-0.016,1.352,0.4,2.167,1.047,2.167H15.999z"/>
		<path d="M6.095,27.503c-1.015,0-1.711-0.951-1.727-2.671c0-1.751,0.759-2.702,1.815-2.702c1.087,0,1.719,0.976,1.719,2.631    c0,1.767-0.664,2.742-1.799,2.742H6.095z M6.135,26.959c0.712,0,1.056-0.839,1.056-2.166c0-1.279-0.32-2.119-1.056-2.119    c-0.64,0-1.055,0.815-1.055,2.119c-0.016,1.351,0.4,2.166,1.047,2.166H6.135z"/>
		<path d="M9.063,27.503c-0.271,0-0.464-0.216-0.464-0.504s0.2-0.504,0.48-0.504s0.472,0.208,0.472,0.504    c0,0.288-0.192,0.504-0.479,0.504H9.063z"/>
		<path d="M10.2,27.415v-0.432l0.552-0.536c1.327-1.263,1.935-1.935,1.935-2.718c0-0.528-0.248-1.016-1.023-1.016    c-0.472,0-0.864,0.239-1.104,0.439l-0.224-0.496c0.352-0.296,0.872-0.527,1.471-0.527c1.111,0,1.583,0.768,1.583,1.511    c0,0.96-0.695,1.735-1.791,2.791l-0.408,0.384v0.016h2.327v0.584H10.2z"/>
		<path d="M15.959,27.503c-1.016,0-1.711-0.951-1.728-2.671c0-1.751,0.76-2.702,1.815-2.702c1.087,0,1.719,0.976,1.719,2.631    c0,1.767-0.664,2.742-1.799,2.742H15.959z M15.999,26.959c0.712,0,1.056-0.839,1.056-2.166c0-1.279-0.32-2.119-1.056-2.119    c-0.64,0-1.055,0.815-1.055,2.119c-0.016,1.351,0.4,2.166,1.047,2.166H15.999z"/>
		<path d="M6.095,49.633c-1.015,0-1.711-0.951-1.727-2.671c0-1.751,0.759-2.702,1.815-2.702c1.087,0,1.719,0.976,1.719,2.631    c0,1.767-0.664,2.742-1.799,2.742H6.095z M6.135,49.089c0.712,0,1.056-0.839,1.056-2.167c0-1.279-0.32-2.118-1.056-2.118    c-0.64,0-1.055,0.815-1.055,2.118c-0.016,1.352,0.4,2.167,1.047,2.167H6.135z"/>
		<path d="M9.063,49.633c-0.271,0-0.464-0.216-0.464-0.504c0-0.287,0.2-0.504,0.48-0.504s0.472,0.208,0.472,0.504    c0,0.288-0.192,0.504-0.479,0.504H9.063z"/>
		<path d="M11.727,45.004h-0.016l-0.904,0.487l-0.136-0.536l1.135-0.607h0.6v5.197h-0.68V45.004z"/>
		<path d="M15.959,49.633c-1.016,0-1.711-0.951-1.728-2.671c0-1.751,0.76-2.702,1.815-2.702c1.087,0,1.719,0.976,1.719,2.631    c0,1.767-0.664,2.742-1.799,2.742H15.959z M15.999,49.089c0.712,0,1.056-0.839,1.056-2.167c0-1.279-0.32-2.118-1.056-2.118    c-0.64,0-1.055,0.815-1.055,2.118c-0.016,1.352,0.4,2.167,1.047,2.167H15.999z"/>
		<path d="M6.095,71.763c-1.015,0-1.711-0.951-1.727-2.671c0-1.751,0.759-2.702,1.815-2.702c1.087,0,1.719,0.976,1.719,2.631    c0,1.767-0.664,2.742-1.799,2.742H6.095z M6.135,71.219c0.712,0,1.056-0.839,1.056-2.166c0-1.279-0.32-2.119-1.056-2.119    c-0.64,0-1.055,0.815-1.055,2.119c-0.016,1.351,0.4,2.166,1.047,2.166H6.135z"/>
		<path d="M9.063,71.763c-0.271,0-0.464-0.216-0.464-0.504s0.2-0.504,0.48-0.504s0.472,0.208,0.472,0.504    c0,0.288-0.192,0.504-0.479,0.504H9.063z"/>
		<path d="M11.854,71.763c-1.015,0-1.711-0.951-1.727-2.671c0-1.751,0.759-2.702,1.815-2.702c1.087,0,1.719,0.976,1.719,2.631    c0,1.767-0.664,2.742-1.799,2.742H11.854z M11.895,71.219c0.712,0,1.056-0.839,1.056-2.166c0-1.279-0.32-2.119-1.056-2.119    c-0.64,0-1.055,0.815-1.055,2.119c-0.016,1.351,0.4,2.166,1.047,2.166H11.895z"/>
		<path d="M15.959,71.763c-1.016,0-1.711-0.951-1.728-2.671c0-1.751,0.76-2.702,1.815-2.702c1.087,0,1.719,0.976,1.719,2.631    c0,1.767-0.664,2.742-1.799,2.742H15.959z M15.999,71.219c0.712,0,1.056-0.839,1.056-2.166c0-1.279-0.32-2.119-1.056-2.119    c-0.64,0-1.055,0.815-1.055,2.119c-0.016,1.351,0.4,2.166,1.047,2.166H15.999z"/>
		<path d="M3.518,91.534v0.479H0v-0.479H3.518z"/>
		<path d="M6.095,93.893c-1.015,0-1.711-0.951-1.727-2.671c0-1.751,0.759-2.702,1.815-2.702c1.087,0,1.719,0.976,1.719,2.631    c0,1.767-0.664,2.742-1.799,2.742H6.095z M6.135,93.349c0.712,0,1.056-0.839,1.056-2.167c0-1.279-0.32-2.118-1.056-2.118    c-0.64,0-1.055,0.815-1.055,2.118c-0.016,1.352,0.4,2.167,1.047,2.167H6.135z"/>
		<path d="M9.063,93.893c-0.271,0-0.464-0.216-0.464-0.504c0-0.287,0.2-0.504,0.48-0.504s0.472,0.208,0.472,0.504    c0,0.288-0.192,0.504-0.479,0.504H9.063z"/>
		<path d="M11.727,89.264h-0.016l-0.904,0.487l-0.136-0.536l1.135-0.607h0.6v5.197h-0.68V89.264z"/>
		<path d="M15.959,93.893c-1.016,0-1.711-0.951-1.728-2.671c0-1.751,0.76-2.702,1.815-2.702c1.087,0,1.719,0.976,1.719,2.631    c0,1.767-0.664,2.742-1.799,2.742H15.959z M15.999,93.349c0.712,0,1.056-0.839,1.056-2.167c0-1.279-0.32-2.118-1.056-2.118    c-0.64,0-1.055,0.815-1.055,2.118c-0.016,1.352,0.4,2.167,1.047,2.167H15.999z"/>
		<path d="M3.518,113.665v0.479H0v-0.479H3.518z"/>
		<path d="M6.095,116.023c-1.015,0-1.711-0.951-1.727-2.671c0-1.751,0.759-2.702,1.815-2.702c1.087,0,1.719,0.976,1.719,2.631    c0,1.767-0.664,2.742-1.799,2.742H6.095z M6.135,115.479c0.712,0,1.056-0.839,1.056-2.167c0-1.279-0.32-2.118-1.056-2.118    c-0.64,0-1.055,0.815-1.055,2.118c-0.016,1.352,0.4,2.167,1.047,2.167H6.135z"/>
		<path d="M9.063,116.023c-0.271,0-0.464-0.216-0.464-0.504c0-0.287,0.2-0.504,0.48-0.504s0.472,0.208,0.472,0.504    c0,0.288-0.192,0.504-0.479,0.504H9.063z"/>
		<path d="M10.2,115.936v-0.432l0.552-0.536c1.327-1.263,1.935-1.935,1.935-2.718c0-0.528-0.248-1.016-1.023-1.016    c-0.472,0-0.864,0.239-1.104,0.439l-0.224-0.496c0.352-0.295,0.872-0.527,1.471-0.527c1.111,0,1.583,0.768,1.583,1.512    c0,0.959-0.695,1.734-1.791,2.79l-0.408,0.384v0.016h2.327v0.584H10.2z"/>
		<path d="M15.959,116.023c-1.016,0-1.711-0.951-1.728-2.671c0-1.751,0.76-2.702,1.815-2.702c1.087,0,1.719,0.976,1.719,2.631    c0,1.767-0.664,2.742-1.799,2.742H15.959z M15.999,115.479c0.712,0,1.056-0.839,1.056-2.167c0-1.279-0.32-2.118-1.056-2.118    c-0.64,0-1.055,0.815-1.055,2.118c-0.016,1.352,0.4,2.167,1.047,2.167H15.999z"/>
		<path d="M3.518,135.795v0.479H0v-0.479H3.518z"/>
		<path d="M6.095,138.153c-1.015,0-1.711-0.951-1.727-2.671c0-1.751,0.759-2.702,1.815-2.702c1.087,0,1.719,0.976,1.719,2.631    c0,1.767-0.664,2.742-1.799,2.742H6.095z M6.135,137.609c0.712,0,1.056-0.839,1.056-2.166c0-1.279-0.32-2.119-1.056-2.119    c-0.64,0-1.055,0.815-1.055,2.119c-0.016,1.351,0.4,2.166,1.047,2.166H6.135z"/>
		<path d="M9.063,138.153c-0.271,0-0.464-0.216-0.464-0.504s0.2-0.504,0.48-0.504s0.472,0.208,0.472,0.504    c0,0.288-0.192,0.504-0.479,0.504H9.063z"/>
		<path d="M10.368,137.266c0.2,0.12,0.656,0.32,1.151,0.32c0.896,0,1.183-0.568,1.175-1.008c-0.008-0.728-0.664-1.039-1.343-1.039    h-0.392v-0.528h0.392c0.512,0,1.159-0.264,1.159-0.879c0-0.416-0.264-0.784-0.912-0.784c-0.416,0-0.815,0.185-1.039,0.344    l-0.192-0.512c0.28-0.199,0.808-0.399,1.367-0.399c1.023,0,1.487,0.607,1.487,1.239c0,0.544-0.328,1-0.959,1.231v0.016    c0.64,0.12,1.159,0.6,1.159,1.327c0,0.832-0.656,1.56-1.895,1.56c-0.583,0-1.095-0.184-1.351-0.352L10.368,137.266z"/>
		<path d="M15.959,138.153c-1.016,0-1.711-0.951-1.728-2.671c0-1.751,0.76-2.702,1.815-2.702c1.087,0,1.719,0.976,1.719,2.631    c0,1.767-0.664,2.742-1.799,2.742H15.959z M15.999,137.609c0.712,0,1.056-0.839,1.056-2.166c0-1.279-0.32-2.119-1.056-2.119    c-0.64,0-1.055,0.815-1.055,2.119c-0.016,1.351,0.4,2.166,1.047,2.166H15.999z"/>
	</g>
	
		<line fill="none" stroke="#A7A9AC" stroke-width="0.5" stroke-linejoin="round" stroke-miterlimit="10" x1="23.255" y1="2.959" x2="308.645" y2="2.959"/>
	
		<line fill="none" stroke="#A7A9AC" stroke-width="0.5" stroke-linejoin="round" stroke-miterlimit="10" x1="23.255" y1="25.088" x2="308.645" y2="25.088"/>
	
		<line fill="none" stroke="#A7A9AC" stroke-width="0.5" stroke-linejoin="round" stroke-miterlimit="10" x1="23.255" y1="47.218" x2="308.645" y2="47.218"/>
	
		<line fill="none" stroke="#A7A9AC" stroke-width="0.5" stroke-linejoin="round" stroke-miterlimit="10" x1="23.255" y1="91.478" x2="308.645" y2="91.478"/>
	
		<line fill="none" stroke="#000000" stroke-width="0.5" stroke-linejoin="round" stroke-miterlimit="10" x1="23.255" y1="135.512" x2="308.645" y2="135.512"/>
	
		<rect x="263.745" y="52.863" fill="#D1D3D4" stroke="#000000" stroke-width="0.5" stroke-linejoin="round" stroke-miterlimit="10" width="16.26" height="16.485"/>
	
		<rect x="206.617" y="69.349" fill="#D1D3D4" stroke="#000000" stroke-width="0.5" stroke-linejoin="round" stroke-miterlimit="10" width="16.48" height="11.968"/>
	
		<rect x="149.71" y="20.346" fill="#D1D3D4" stroke="#000000" stroke-width="0.5" stroke-linejoin="round" stroke-miterlimit="10" width="16.259" height="49.002"/>
	
		<rect x="92.58" y="69.349" fill="#D1D3D4" stroke="#000000" stroke-width="0.5" stroke-linejoin="round" stroke-miterlimit="10" width="16.259" height="5.644"/>
	
		<rect x="35.449" y="69.349" fill="#D1D3D4" stroke="#000000" stroke-width="0.5" stroke-linejoin="round" stroke-miterlimit="10" width="16.259" height="49.678"/>
	
		<rect x="280.004" y="68.444" fill="#808285" stroke="#000000" stroke-width="0.5" stroke-linejoin="round" stroke-miterlimit="10" width="16.486" height="0.904"/>
	
		<rect x="223.097" y="46.993" fill="#808285" stroke="#000000" stroke-width="0.5" stroke-linejoin="round" stroke-miterlimit="10" width="16.259" height="22.355"/>
	
		<rect x="165.969" y="69.349" fill="#808285" stroke="#000000" stroke-width="0.5" stroke-linejoin="round" stroke-miterlimit="10" width="16.26" height="28.678"/>
	
		<rect x="108.839" y="30.959" fill="#808285" stroke="#000000" stroke-width="0.5" stroke-linejoin="round" stroke-miterlimit="10" width="16.256" height="38.39"/>
	
		<rect x="51.708" y="55.798" fill="#808285" stroke="#000000" stroke-width="0.5" stroke-linejoin="round" stroke-miterlimit="10" width="16.484" height="13.55"/>
	
		<line opacity="0.9098" fill="none" stroke="#000000" stroke-width="0.5" stroke-linejoin="round" stroke-miterlimit="10" x1="40.868" y1="109.091" x2="46.439" y2="109.091"/>
	
		<line opacity="0.9098" fill="none" stroke="#000000" stroke-width="0.5" stroke-linejoin="round" stroke-miterlimit="10" x1="40.868" y1="128.963" x2="46.439" y2="128.963"/>
	
		<line opacity="0.9098" fill="none" stroke="#000000" stroke-width="0.5" stroke-linejoin="round" stroke-miterlimit="10" x1="43.579" y1="119.026" x2="43.579" y2="109.091"/>
	
		<line opacity="0.9098" fill="none" stroke="#000000" stroke-width="0.5" stroke-linejoin="round" stroke-miterlimit="10" x1="43.579" y1="128.963" x2="43.579" y2="119.026"/>
	
		<line opacity="0.9098" fill="none" stroke="#000000" stroke-width="0.5" stroke-linejoin="round" stroke-miterlimit="10" x1="97.775" y1="66.412" x2="103.418" y2="66.412"/>
	
		<line opacity="0.9098" fill="none" stroke="#000000" stroke-width="0.5" stroke-linejoin="round" stroke-miterlimit="10" x1="97.775" y1="83.727" x2="103.418" y2="83.727"/>
	
		<line opacity="0.9098" fill="none" stroke="#000000" stroke-width="0.5" stroke-linejoin="round" stroke-miterlimit="10" x1="100.709" y1="74.993" x2="100.709" y2="66.412"/>
	
		<line opacity="0.9098" fill="none" stroke="#000000" stroke-width="0.5" stroke-linejoin="round" stroke-miterlimit="10" x1="100.709" y1="83.727" x2="100.709" y2="74.993"/>
	
		<line opacity="0.9098" fill="none" stroke="#000000" stroke-width="0.5" stroke-linejoin="round" stroke-miterlimit="10" x1="154.905" y1="13.797" x2="160.548" y2="13.797"/>
	
		<line opacity="0.9098" fill="none" stroke="#000000" stroke-width="0.5" stroke-linejoin="round" stroke-miterlimit="10" x1="154.905" y1="26.669" x2="160.548" y2="26.669"/>
	
		<line opacity="0.9098" fill="none" stroke="#000000" stroke-width="0.5" stroke-linejoin="round" stroke-miterlimit="10" x1="157.841" y1="20.346" x2="157.841" y2="13.797"/>
	
		<line opacity="0.9098" fill="none" stroke="#000000" stroke-width="0.5" stroke-linejoin="round" stroke-miterlimit="10" x1="157.841" y1="26.669" x2="157.841" y2="20.346"/>
	
		<line opacity="0.9098" fill="none" stroke="#000000" stroke-width="0.5" stroke-linejoin="round" stroke-miterlimit="10" x1="212.033" y1="72.96" x2="217.681" y2="72.96"/>
	
		<line opacity="0.9098" fill="none" stroke="#000000" stroke-width="0.5" stroke-linejoin="round" stroke-miterlimit="10" x1="212.033" y1="89.446" x2="217.681" y2="89.446"/>
	
		<line opacity="0.9098" fill="none" stroke="#000000" stroke-width="0.5" stroke-linejoin="round" stroke-miterlimit="10" x1="214.967" y1="81.316" x2="214.967" y2="72.96"/>
	
		<line opacity="0.9098" fill="none" stroke="#000000" stroke-width="0.5" stroke-linejoin="round" stroke-miterlimit="10" x1="214.967" y1="89.446" x2="214.967" y2="81.316"/>
	
		<line opacity="0.9098" fill="none" stroke="#000000" stroke-width="0.5" stroke-linejoin="round" stroke-miterlimit="10" x1="269.166" y1="45.186" x2="274.773" y2="45.186"/>
	
		<line opacity="0.9098" fill="none" stroke="#000000" stroke-width="0.5" stroke-linejoin="round" stroke-miterlimit="10" x1="269.166" y1="60.765" x2="274.773" y2="60.765"/>
	
		<line opacity="0.9098" fill="none" stroke="#000000" stroke-width="0.5" stroke-linejoin="round" stroke-miterlimit="10" x1="271.875" y1="52.863" x2="271.875" y2="45.186"/>
	
		<line opacity="0.9098" fill="none" stroke="#000000" stroke-width="0.5" stroke-linejoin="round" stroke-miterlimit="10" x1="271.875" y1="60.765" x2="271.875" y2="52.863"/>
	
		<line fill="none" stroke="#000000" stroke-width="0.5" stroke-linejoin="round" stroke-miterlimit="10" x1="57.126" y1="46.315" x2="62.749" y2="46.315"/>
	
		<line fill="none" stroke="#000000" stroke-width="0.5" stroke-linejoin="round" stroke-miterlimit="10" x1="57.126" y1="65.285" x2="62.749" y2="65.285"/>
	
		<line fill="none" stroke="#000000" stroke-width="0.5" stroke-linejoin="round" stroke-miterlimit="10" x1="59.838" y1="55.798" x2="59.838" y2="46.315"/>
	
		<line fill="none" stroke="#000000" stroke-width="0.5" stroke-linejoin="round" stroke-miterlimit="10" x1="59.838" y1="65.285" x2="59.838" y2="55.798"/>
	
		<line fill="none" stroke="#000000" stroke-width="0.5" stroke-linejoin="round" stroke-miterlimit="10" x1="114.258" y1="24.411" x2="119.832" y2="24.411"/>
	
		<line fill="none" stroke="#000000" stroke-width="0.5" stroke-linejoin="round" stroke-miterlimit="10" x1="114.258" y1="37.283" x2="119.832" y2="37.283"/>
	
		<line fill="none" stroke="#000000" stroke-width="0.5" stroke-linejoin="round" stroke-miterlimit="10" x1="116.968" y1="30.959" x2="116.968" y2="24.411"/>
	
		<line fill="none" stroke="#000000" stroke-width="0.5" stroke-linejoin="round" stroke-miterlimit="10" x1="116.968" y1="37.283" x2="116.968" y2="30.959"/>
	
		<line fill="none" stroke="#000000" stroke-width="0.5" stroke-linejoin="round" stroke-miterlimit="10" x1="171.165" y1="92.381" x2="176.808" y2="92.381"/>
	
		<line fill="none" stroke="#000000" stroke-width="0.5" stroke-linejoin="round" stroke-miterlimit="10" x1="171.165" y1="103.672" x2="176.808" y2="103.672"/>
	
		<line fill="none" stroke="#000000" stroke-width="0.5" stroke-linejoin="round" stroke-miterlimit="10" x1="174.099" y1="98.026" x2="174.099" y2="92.381"/>
	
		<line fill="none" stroke="#000000" stroke-width="0.5" stroke-linejoin="round" stroke-miterlimit="10" x1="174.099" y1="103.672" x2="174.099" y2="98.026"/>
	
		<line fill="none" stroke="#000000" stroke-width="0.5" stroke-linejoin="round" stroke-miterlimit="10" x1="228.292" y1="41.799" x2="233.94" y2="41.799"/>
	
		<line fill="none" stroke="#000000" stroke-width="0.5" stroke-linejoin="round" stroke-miterlimit="10" x1="228.292" y1="52.186" x2="233.94" y2="52.186"/>
	
		<line fill="none" stroke="#000000" stroke-width="0.5" stroke-linejoin="round" stroke-miterlimit="10" x1="231.228" y1="46.993" x2="231.228" y2="41.799"/>
	
		<line fill="none" stroke="#000000" stroke-width="0.5" stroke-linejoin="round" stroke-miterlimit="10" x1="231.228" y1="52.186" x2="231.228" y2="46.993"/>
	
		<line fill="none" stroke="#000000" stroke-width="0.5" stroke-linejoin="round" stroke-miterlimit="10" x1="285.426" y1="63.252" x2="291.069" y2="63.252"/>
	
		<line fill="none" stroke="#000000" stroke-width="0.5" stroke-linejoin="round" stroke-miterlimit="10" x1="285.426" y1="73.633" x2="291.069" y2="73.633"/>
	
		<line fill="none" stroke="#000000" stroke-width="0.5" stroke-linejoin="round" stroke-miterlimit="10" x1="288.36" y1="68.444" x2="288.36" y2="63.252"/>
	
		<line fill="none" stroke="#000000" stroke-width="0.5" stroke-linejoin="round" stroke-miterlimit="10" x1="288.36" y1="73.633" x2="288.36" y2="68.444"/>
	
		<line fill="none" stroke="#000000" stroke-width="0.5" stroke-linejoin="round" stroke-miterlimit="10" x1="23.23" y1="135.615" x2="23.23" y2="3.026"/>
	
		<line fill="none" stroke="#000000" stroke-width="0.5" stroke-linejoin="round" stroke-miterlimit="10" x1="23.23" y1="69.319" x2="308.645" y2="69.319"/>
	<g>
		<path d="M42.455,146.337c0.312,0.192,0.76,0.344,1.239,0.344c0.712,0,1.127-0.368,1.127-0.911c0-0.504-0.288-0.8-1.015-1.072    c-0.88-0.304-1.423-0.768-1.423-1.519c0-0.839,0.696-1.463,1.743-1.463c0.543,0,0.951,0.128,1.183,0.256l-0.192,0.576    c-0.168-0.104-0.528-0.256-1.015-0.256c-0.736,0-1.016,0.439-1.016,0.807c0,0.496,0.328,0.744,1.071,1.032    c0.912,0.36,1.367,0.792,1.367,1.583c0,0.824-0.607,1.551-1.879,1.551c-0.52,0-1.087-0.16-1.375-0.352L42.455,146.337z"/>
		<path d="M48.038,147.273c-1.039,0-1.855-0.768-1.855-1.991c0-1.295,0.855-2.055,1.919-2.055c1.111,0,1.863,0.808,1.863,1.983    c0,1.439-1,2.063-1.919,2.063H48.038z M48.07,146.745c0.671,0,1.175-0.631,1.175-1.511c0-0.656-0.328-1.479-1.16-1.479    c-0.823,0-1.183,0.768-1.183,1.503c0,0.847,0.48,1.487,1.159,1.487H48.07z"/>
		<path d="M53.613,147.041c-0.184,0.088-0.592,0.224-1.111,0.224c-1.167,0-1.927-0.792-1.927-1.975c0-1.191,0.815-2.063,2.079-2.063    c0.416,0,0.783,0.104,0.976,0.208l-0.16,0.536c-0.168-0.088-0.432-0.184-0.815-0.184c-0.888,0-1.367,0.664-1.367,1.463    c0,0.896,0.576,1.447,1.343,1.447c0.399,0,0.664-0.096,0.863-0.184L53.613,147.041z"/>
		<path d="M54.774,142.66c-0.256,0-0.424-0.2-0.424-0.432c0-0.248,0.176-0.439,0.44-0.439c0.256,0,0.432,0.192,0.432,0.439    c0,0.232-0.168,0.432-0.439,0.432H54.774z M54.438,147.185v-3.87h0.704v3.87H54.438z"/>
		<path d="M59.037,146.258c0,0.335,0.016,0.664,0.056,0.927h-0.632l-0.064-0.488h-0.024c-0.208,0.304-0.632,0.576-1.183,0.576    c-0.784,0-1.184-0.552-1.184-1.111c0-0.936,0.832-1.447,2.327-1.439v-0.08c0-0.32-0.088-0.904-0.879-0.896    c-0.368,0-0.744,0.104-1.016,0.288l-0.16-0.472c0.32-0.2,0.792-0.336,1.279-0.336c1.191,0,1.479,0.808,1.479,1.583V146.258z     M58.35,145.21c-0.768-0.016-1.639,0.12-1.639,0.872c0,0.464,0.304,0.672,0.656,0.672c0.512,0,0.839-0.32,0.952-0.648    c0.024-0.072,0.032-0.152,0.032-0.224V145.21z"/>
		<path d="M60.167,141.508h0.704v5.677h-0.704V141.508z"/>
		<path d="M35.894,151.108v4.677c0,0.344,0.008,0.736,0.032,1h-0.632l-0.032-0.672h-0.016c-0.216,0.432-0.68,0.76-1.312,0.76    c-0.936,0-1.663-0.792-1.663-1.967c-0.008-1.295,0.8-2.079,1.735-2.079c0.6,0,0.999,0.28,1.167,0.584h0.016v-2.302H35.894z     M35.19,154.49c0-0.096-0.008-0.208-0.032-0.304c-0.104-0.439-0.488-0.808-1.016-0.808c-0.728,0-1.159,0.64-1.159,1.487    c0,0.792,0.392,1.439,1.143,1.439c0.472,0,0.904-0.32,1.032-0.848c0.024-0.088,0.032-0.184,0.032-0.296V154.49z"/>
		<path d="M38.638,156.873c-1.04,0-1.855-0.768-1.855-1.991c0-1.295,0.855-2.055,1.919-2.055c1.111,0,1.863,0.808,1.863,1.983    c0,1.439-1,2.063-1.919,2.063H38.638z M38.67,156.345c0.671,0,1.175-0.631,1.175-1.511c0-0.655-0.328-1.479-1.159-1.479    c-0.824,0-1.184,0.768-1.184,1.503c0,0.847,0.479,1.487,1.159,1.487H38.67z"/>
		<path d="M41.455,153.962c0-0.408-0.016-0.728-0.032-1.048h0.616l0.032,0.624h0.024c0.216-0.368,0.576-0.712,1.224-0.712    c0.52,0,0.919,0.32,1.087,0.776h0.016c0.12-0.224,0.28-0.384,0.439-0.504c0.232-0.176,0.48-0.272,0.848-0.272    c0.52,0,1.279,0.336,1.279,1.679v2.279H46.3v-2.191c0-0.751-0.28-1.191-0.84-1.191c-0.408,0-0.711,0.296-0.839,0.632    c-0.032,0.104-0.056,0.232-0.056,0.352v2.398h-0.688v-2.327c0-0.616-0.272-1.056-0.808-1.056c-0.432,0-0.76,0.352-0.872,0.704    c-0.04,0.104-0.056,0.224-0.056,0.344v2.335h-0.688V153.962z"/>
		<path d="M48.463,152.259c-0.256,0-0.424-0.2-0.424-0.432c0-0.248,0.176-0.439,0.44-0.439c0.256,0,0.432,0.191,0.432,0.439    c0,0.231-0.168,0.432-0.439,0.432H48.463z M48.127,156.785v-3.87h0.704v3.87H48.127z"/>
		<path d="M49.999,153.962c0-0.408-0.008-0.728-0.032-1.048h0.624l0.04,0.632h0.016c0.192-0.36,0.64-0.72,1.279-0.72    c0.536,0,1.367,0.32,1.367,1.647v2.311h-0.704v-2.231c0-0.624-0.232-1.151-0.896-1.151c-0.456,0-0.815,0.328-0.943,0.72    c-0.032,0.088-0.048,0.216-0.048,0.328v2.335h-0.704V153.962z"/>
		<path d="M57.165,155.857c0,0.336,0.016,0.664,0.056,0.928h-0.632l-0.064-0.488h-0.024c-0.208,0.304-0.632,0.576-1.183,0.576    c-0.784,0-1.184-0.552-1.184-1.111c0-0.936,0.832-1.447,2.327-1.439v-0.08c0-0.32-0.088-0.904-0.879-0.896    c-0.368,0-0.744,0.104-1.016,0.288l-0.16-0.472c0.32-0.2,0.792-0.336,1.279-0.336c1.191,0,1.479,0.808,1.479,1.583V155.857z     M56.478,154.81c-0.768-0.016-1.639,0.12-1.639,0.872c0,0.464,0.304,0.672,0.656,0.672c0.512,0,0.839-0.32,0.952-0.648    c0.024-0.072,0.032-0.152,0.032-0.224V154.81z"/>
		<path d="M58.294,153.962c0-0.408-0.008-0.728-0.032-1.048h0.624l0.04,0.632h0.016c0.192-0.36,0.64-0.72,1.279-0.72    c0.536,0,1.367,0.32,1.367,1.647v2.311h-0.704v-2.231c0-0.624-0.232-1.151-0.896-1.151c-0.456,0-0.815,0.328-0.943,0.72    c-0.032,0.088-0.048,0.216-0.048,0.328v2.335h-0.704V153.962z"/>
		<path d="M65.493,156.641c-0.184,0.088-0.592,0.224-1.111,0.224c-1.167,0-1.927-0.792-1.927-1.975c0-1.191,0.815-2.063,2.079-2.063    c0.416,0,0.783,0.104,0.976,0.208l-0.16,0.536c-0.168-0.088-0.432-0.184-0.815-0.184c-0.888,0-1.367,0.664-1.367,1.463    c0,0.896,0.576,1.447,1.343,1.447c0.399,0,0.664-0.096,0.863-0.184L65.493,156.641z"/>
		<path d="M66.718,154.978c0.016,0.944,0.616,1.335,1.319,1.335c0.504,0,0.815-0.088,1.071-0.2l0.128,0.504    c-0.248,0.112-0.68,0.248-1.295,0.248c-1.184,0-1.903-0.792-1.903-1.951c0-1.167,0.696-2.087,1.823-2.087    c1.263,0,1.591,1.111,1.591,1.823c0,0.144-0.008,0.248-0.024,0.328H66.718z M68.773,154.474c0.008-0.448-0.184-1.144-0.967-1.144    c-0.72,0-1.023,0.656-1.08,1.144H68.773z"/>
	</g>
	<g>
		<path d="M95.334,147.185v-5.389h0.768l1.719,2.727c0.392,0.632,0.712,1.199,0.959,1.751l0.024-0.008    c-0.064-0.72-0.08-1.375-0.08-2.207v-2.263h0.656v5.389h-0.704l-1.711-2.734c-0.376-0.6-0.735-1.215-1-1.799l-0.024,0.008    c0.04,0.68,0.048,1.327,0.048,2.223v2.303H95.334z"/>
		<path d="M103.301,146.258c0,0.335,0.016,0.664,0.056,0.927h-0.632l-0.064-0.488h-0.024c-0.208,0.304-0.632,0.576-1.183,0.576    c-0.784,0-1.184-0.552-1.184-1.111c0-0.936,0.832-1.447,2.327-1.439v-0.08c0-0.32-0.088-0.904-0.879-0.896    c-0.368,0-0.744,0.104-1.016,0.288l-0.16-0.472c0.32-0.2,0.792-0.336,1.279-0.336c1.191,0,1.479,0.808,1.479,1.583V146.258z     M102.613,145.21c-0.768-0.016-1.639,0.12-1.639,0.872c0,0.464,0.304,0.672,0.656,0.672c0.512,0,0.839-0.32,0.952-0.648    c0.024-0.072,0.032-0.152,0.032-0.224V145.21z"/>
		<path d="M105.277,142.388v0.928h1.007v0.536h-1.007v2.079c0,0.48,0.136,0.751,0.528,0.751c0.192,0,0.304-0.016,0.408-0.048    l0.032,0.536c-0.136,0.048-0.352,0.096-0.624,0.096c-0.328,0-0.591-0.112-0.759-0.296c-0.192-0.216-0.272-0.56-0.272-1.016v-2.103    h-0.6v-0.536h0.6v-0.712L105.277,142.388z"/>
		<path d="M107.414,142.66c-0.256,0-0.424-0.2-0.424-0.432c0-0.248,0.176-0.439,0.44-0.439c0.256,0,0.432,0.192,0.432,0.439    c0,0.232-0.168,0.432-0.439,0.432H107.414z M107.078,147.185v-3.87h0.704v3.87H107.078z"/>
		<path d="M110.525,147.273c-1.039,0-1.855-0.768-1.855-1.991c0-1.295,0.855-2.055,1.919-2.055c1.111,0,1.863,0.808,1.863,1.983    c0,1.439-1,2.063-1.919,2.063H110.525z M110.557,146.745c0.671,0,1.175-0.631,1.175-1.511c0-0.656-0.328-1.479-1.16-1.479    c-0.823,0-1.183,0.768-1.183,1.503c0,0.847,0.48,1.487,1.159,1.487H110.557z"/>
		<path d="M113.342,144.363c0-0.408-0.008-0.728-0.032-1.047h0.624l0.04,0.631h0.016c0.192-0.36,0.64-0.72,1.279-0.72    c0.536,0,1.367,0.32,1.367,1.647v2.311h-0.704v-2.231c0-0.624-0.232-1.151-0.896-1.151c-0.456,0-0.815,0.328-0.943,0.72    c-0.032,0.088-0.048,0.216-0.048,0.328v2.334h-0.704V144.363z"/>
		<path d="M120.508,146.258c0,0.335,0.016,0.664,0.056,0.927h-0.632l-0.064-0.488h-0.024c-0.208,0.304-0.631,0.576-1.183,0.576    c-0.784,0-1.184-0.552-1.184-1.111c0-0.936,0.832-1.447,2.327-1.439v-0.08c0-0.32-0.088-0.904-0.879-0.896    c-0.368,0-0.744,0.104-1.016,0.288l-0.16-0.472c0.32-0.2,0.792-0.336,1.279-0.336c1.191,0,1.479,0.808,1.479,1.583V146.258z     M119.821,145.21c-0.768-0.016-1.639,0.12-1.639,0.872c0,0.464,0.304,0.672,0.656,0.672c0.512,0,0.839-0.32,0.951-0.648    c0.024-0.072,0.032-0.152,0.032-0.224V145.21z"/>
		<path d="M121.638,141.508h0.704v5.677h-0.704V141.508z"/>
		<path d="M91.363,156.065c0.216,0.128,0.583,0.272,0.936,0.272c0.503,0,0.744-0.248,0.744-0.576c0-0.336-0.2-0.512-0.712-0.704    c-0.704-0.256-1.031-0.64-1.031-1.095c0-0.624,0.512-1.136,1.335-1.136c0.392,0,0.736,0.104,0.944,0.24l-0.168,0.503    c-0.152-0.088-0.432-0.224-0.792-0.224c-0.416,0-0.64,0.24-0.64,0.528c0,0.319,0.224,0.463,0.728,0.664    c0.664,0.248,1.016,0.583,1.016,1.159c0,0.688-0.536,1.167-1.439,1.167c-0.424,0-0.815-0.112-1.087-0.272L91.363,156.065z"/>
		<path d="M97.864,155.721c0,0.408,0.008,0.76,0.032,1.063h-0.624l-0.04-0.632h-0.016c-0.176,0.312-0.592,0.72-1.279,0.72    c-0.608,0-1.335-0.344-1.335-1.695v-2.263h0.704v2.135c0,0.735,0.232,1.239,0.864,1.239c0.472,0,0.799-0.328,0.927-0.648    c0.04-0.096,0.064-0.224,0.064-0.359v-2.367h0.704V155.721z"/>
		<path d="M99.034,154.178c0-0.496-0.008-0.896-0.032-1.264h0.632l0.04,0.664h0.016c0.28-0.48,0.744-0.752,1.367-0.752    c0.943,0,1.647,0.792,1.647,1.967c0,1.391-0.856,2.079-1.759,2.079c-0.52,0-0.959-0.224-1.191-0.607h-0.016v2.103h-0.704V154.178z     M99.738,155.209c0,0.096,0.008,0.2,0.032,0.288c0.12,0.487,0.552,0.823,1.047,0.823c0.744,0,1.175-0.607,1.175-1.495    c0-0.775-0.4-1.439-1.144-1.439c-0.479,0-0.935,0.335-1.071,0.872c-0.016,0.088-0.04,0.191-0.04,0.28V155.209z"/>
		<path d="M103.986,154.978c0.016,0.944,0.616,1.335,1.319,1.335c0.504,0,0.815-0.088,1.071-0.2l0.128,0.504    c-0.248,0.112-0.68,0.248-1.295,0.248c-1.184,0-1.903-0.792-1.903-1.951c0-1.167,0.696-2.087,1.823-2.087    c1.263,0,1.591,1.111,1.591,1.823c0,0.144-0.008,0.248-0.024,0.328H103.986z M106.041,154.474    c0.008-0.448-0.184-1.144-0.967-1.144c-0.72,0-1.023,0.656-1.08,1.144H106.041z"/>
		<path d="M107.594,154.122c0-0.456-0.008-0.848-0.032-1.208h0.616l0.032,0.76h0.024c0.176-0.52,0.608-0.848,1.08-0.848    c0.072,0,0.128,0.008,0.192,0.016v0.664c-0.072-0.008-0.144-0.016-0.24-0.016c-0.496,0-0.848,0.375-0.943,0.896    c-0.016,0.104-0.024,0.216-0.024,0.328v2.071h-0.704V154.122z"/>
		<path d="M110.546,152.259c-0.256,0-0.424-0.2-0.424-0.432c0-0.248,0.176-0.439,0.44-0.439c0.256,0,0.432,0.191,0.432,0.439    c0,0.231-0.168,0.432-0.439,0.432H110.546z M110.21,156.785v-3.87h0.704v3.87H110.21z"/>
		<path d="M113.657,156.873c-1.039,0-1.855-0.768-1.855-1.991c0-1.295,0.855-2.055,1.919-2.055c1.111,0,1.863,0.808,1.863,1.983    c0,1.439-1,2.063-1.919,2.063H113.657z M113.689,156.345c0.671,0,1.175-0.631,1.175-1.511c0-0.655-0.328-1.479-1.16-1.479    c-0.823,0-1.183,0.768-1.183,1.503c0,0.847,0.48,1.487,1.159,1.487H113.689z"/>
		<path d="M116.474,154.122c0-0.456-0.008-0.848-0.032-1.208h0.616l0.032,0.76h0.024c0.176-0.52,0.608-0.848,1.08-0.848    c0.072,0,0.128,0.008,0.192,0.016v0.664c-0.072-0.008-0.144-0.016-0.24-0.016c-0.496,0-0.848,0.375-0.943,0.896    c-0.016,0.104-0.024,0.216-0.024,0.328v2.071h-0.704V154.122z"/>
		<path d="M119.426,152.259c-0.256,0-0.424-0.2-0.424-0.432c0-0.248,0.176-0.439,0.44-0.439c0.256,0,0.432,0.191,0.432,0.439    c0,0.231-0.168,0.432-0.439,0.432H119.426z M119.09,156.785v-3.87h0.704v3.87H119.09z"/>
		<path d="M121.809,151.987v0.927h1.007v0.536h-1.007v2.079c0,0.48,0.136,0.751,0.528,0.751c0.192,0,0.304-0.016,0.408-0.048    l0.032,0.536c-0.136,0.048-0.352,0.096-0.624,0.096c-0.328,0-0.592-0.112-0.759-0.296c-0.192-0.216-0.272-0.56-0.272-1.016v-2.103    h-0.6v-0.536h0.6v-0.711L121.809,151.987z"/>
		<path d="M123.865,152.915l0.84,2.287c0.096,0.256,0.192,0.56,0.256,0.792h0.016c0.072-0.232,0.152-0.528,0.248-0.808l0.768-2.271    h0.744l-1.056,2.759c-0.503,1.327-0.847,1.999-1.327,2.423c-0.352,0.295-0.688,0.416-0.863,0.447l-0.176-0.583    c0.176-0.056,0.408-0.168,0.615-0.344c0.192-0.152,0.424-0.424,0.592-0.784c0.032-0.072,0.056-0.128,0.056-0.168    s-0.016-0.096-0.056-0.184l-1.423-3.566H123.865z"/>
	</g>
	<g>
		<path d="M157.26,141.796h2.902v0.584h-2.198v1.791h2.03v0.576h-2.03v2.438h-0.704V141.796z"/>
		<path d="M163.867,146.258c0,0.335,0.017,0.664,0.056,0.927h-0.631l-0.064-0.488h-0.023c-0.208,0.304-0.632,0.576-1.184,0.576    c-0.783,0-1.184-0.552-1.184-1.111c0-0.936,0.832-1.447,2.327-1.439v-0.08c0-0.32-0.088-0.904-0.88-0.896    c-0.367,0-0.743,0.104-1.016,0.288l-0.159-0.472c0.319-0.2,0.791-0.336,1.278-0.336c1.191,0,1.479,0.808,1.479,1.583V146.258z     M163.179,145.21c-0.768-0.016-1.639,0.12-1.639,0.872c0,0.464,0.304,0.672,0.655,0.672c0.512,0,0.84-0.32,0.951-0.648    c0.024-0.072,0.032-0.152,0.032-0.224V145.21z"/>
		<path d="M165.268,143.315l0.76,2.167c0.128,0.36,0.231,0.68,0.312,1h0.024c0.088-0.32,0.199-0.64,0.327-1l0.752-2.167h0.735    l-1.519,3.87h-0.672l-1.472-3.87H165.268z"/>
		<path d="M170.419,147.273c-1.04,0-1.855-0.768-1.855-1.991c0-1.295,0.855-2.055,1.919-2.055c1.111,0,1.863,0.808,1.863,1.983    c0,1.439-1,2.063-1.919,2.063H170.419z M170.451,146.745c0.672,0,1.176-0.631,1.176-1.511c0-0.656-0.328-1.479-1.159-1.479    c-0.824,0-1.184,0.768-1.184,1.503c0,0.847,0.479,1.487,1.159,1.487H170.451z"/>
		<path d="M173.237,144.522c0-0.456-0.008-0.848-0.032-1.207h0.615l0.032,0.759h0.024c0.176-0.52,0.607-0.848,1.079-0.848    c0.072,0,0.128,0.008,0.191,0.016v0.664c-0.071-0.008-0.144-0.016-0.239-0.016c-0.496,0-0.848,0.376-0.943,0.896    c-0.017,0.104-0.024,0.216-0.024,0.328v2.071h-0.703V144.522z"/>
		<path d="M146.192,152.259c-0.256,0-0.424-0.2-0.424-0.432c0-0.248,0.176-0.439,0.44-0.439c0.256,0,0.432,0.191,0.432,0.439    c0,0.231-0.168,0.432-0.44,0.432H146.192z M145.856,156.785v-3.87h0.704v3.87H145.856z"/>
		<path d="M147.728,153.962c0-0.408-0.016-0.728-0.032-1.048h0.616l0.032,0.624h0.023c0.216-0.368,0.576-0.712,1.224-0.712    c0.52,0,0.92,0.32,1.088,0.776h0.016c0.12-0.224,0.28-0.384,0.439-0.504c0.232-0.176,0.48-0.272,0.848-0.272    c0.52,0,1.279,0.336,1.279,1.679v2.279h-0.688v-2.191c0-0.751-0.28-1.191-0.84-1.191c-0.407,0-0.711,0.296-0.839,0.632    c-0.032,0.104-0.057,0.232-0.057,0.352v2.398h-0.688v-2.327c0-0.616-0.271-1.056-0.808-1.056c-0.432,0-0.76,0.352-0.871,0.704    c-0.04,0.104-0.056,0.224-0.056,0.344v2.335h-0.688V153.962z"/>
		<path d="M154.4,153.962c0-0.408-0.016-0.728-0.031-1.048h0.615l0.032,0.624h0.023c0.216-0.368,0.576-0.712,1.224-0.712    c0.52,0,0.92,0.32,1.088,0.776h0.016c0.12-0.224,0.28-0.384,0.439-0.504c0.232-0.176,0.48-0.272,0.848-0.272    c0.52,0,1.279,0.336,1.279,1.679v2.279h-0.688v-2.191c0-0.751-0.28-1.191-0.84-1.191c-0.407,0-0.711,0.296-0.839,0.632    c-0.032,0.104-0.057,0.232-0.057,0.352v2.398h-0.688v-2.327c0-0.616-0.271-1.056-0.808-1.056c-0.432,0-0.76,0.352-0.871,0.704    c-0.04,0.104-0.056,0.224-0.056,0.344v2.335H154.4V153.962z"/>
		<path d="M161.408,152.259c-0.256,0-0.424-0.2-0.424-0.432c0-0.248,0.176-0.439,0.44-0.439c0.256,0,0.432,0.191,0.432,0.439    c0,0.231-0.168,0.432-0.44,0.432H161.408z M161.072,156.785v-3.87h0.704v3.87H161.072z"/>
		<path d="M166.253,156.217c0,0.896-0.184,1.431-0.552,1.775c-0.384,0.344-0.927,0.463-1.415,0.463c-0.464,0-0.976-0.112-1.287-0.32    l0.176-0.543c0.256,0.168,0.655,0.312,1.136,0.312c0.72,0,1.247-0.375,1.247-1.359v-0.424h-0.016    c-0.208,0.36-0.632,0.647-1.231,0.647c-0.96,0-1.647-0.815-1.647-1.895c0-1.311,0.855-2.047,1.751-2.047    c0.672,0,1.031,0.344,1.207,0.672h0.017l0.023-0.584h0.624c-0.023,0.272-0.032,0.592-0.032,1.056V156.217z M165.55,154.434    c0-0.112-0.008-0.216-0.04-0.312c-0.128-0.416-0.464-0.751-0.983-0.751c-0.672,0-1.151,0.567-1.151,1.471    c0,0.751,0.392,1.391,1.144,1.391c0.439,0,0.831-0.272,0.976-0.728c0.039-0.112,0.056-0.248,0.056-0.376V154.434z"/>
		<path d="M167.417,154.122c0-0.456-0.008-0.848-0.032-1.208H168l0.032,0.76h0.024c0.176-0.52,0.607-0.848,1.079-0.848    c0.072,0,0.128,0.008,0.191,0.016v0.664c-0.071-0.008-0.144-0.016-0.239-0.016c-0.496,0-0.848,0.375-0.943,0.896    c-0.017,0.104-0.024,0.216-0.024,0.328v2.071h-0.703V154.122z"/>
		<path d="M172.758,155.857c0,0.336,0.016,0.664,0.056,0.928h-0.632l-0.063-0.488h-0.024c-0.208,0.304-0.632,0.576-1.184,0.576    c-0.783,0-1.183-0.552-1.183-1.111c0-0.936,0.831-1.447,2.326-1.439v-0.08c0-0.32-0.088-0.904-0.88-0.896    c-0.367,0-0.743,0.104-1.015,0.288l-0.16-0.472c0.319-0.2,0.792-0.336,1.279-0.336c1.191,0,1.479,0.808,1.479,1.583V155.857z     M172.071,154.81c-0.768-0.016-1.64,0.12-1.64,0.872c0,0.464,0.304,0.672,0.655,0.672c0.512,0,0.84-0.32,0.952-0.648    c0.023-0.072,0.032-0.152,0.032-0.224V154.81z"/>
		<path d="M174.736,151.987v0.927h1.007v0.536h-1.007v2.079c0,0.48,0.136,0.751,0.527,0.751c0.191,0,0.304-0.016,0.407-0.048    l0.032,0.536c-0.136,0.048-0.352,0.096-0.623,0.096c-0.328,0-0.592-0.112-0.76-0.296c-0.192-0.216-0.272-0.56-0.272-1.016v-2.103    h-0.6v-0.536h0.6v-0.711L174.736,151.987z"/>
		<path d="M176.872,152.259c-0.256,0-0.424-0.2-0.424-0.432c0-0.248,0.176-0.439,0.439-0.439c0.256,0,0.432,0.191,0.432,0.439    c0,0.231-0.168,0.432-0.439,0.432H176.872z M176.536,156.785v-3.87h0.703v3.87H176.536z"/>
		<path d="M179.983,156.873c-1.04,0-1.855-0.768-1.855-1.991c0-1.295,0.855-2.055,1.919-2.055c1.111,0,1.863,0.808,1.863,1.983    c0,1.439-1,2.063-1.919,2.063H179.983z M180.014,156.345c0.672,0,1.176-0.631,1.176-1.511c0-0.655-0.328-1.479-1.159-1.479    c-0.824,0-1.184,0.768-1.184,1.503c0,0.847,0.479,1.487,1.159,1.487H180.014z"/>
		<path d="M182.8,153.962c0-0.408-0.009-0.728-0.032-1.048h0.624l0.04,0.632h0.016c0.191-0.36,0.64-0.72,1.279-0.72    c0.535,0,1.367,0.32,1.367,1.647v2.311h-0.704v-2.231c0-0.624-0.231-1.151-0.896-1.151c-0.455,0-0.815,0.328-0.943,0.72    c-0.031,0.088-0.048,0.216-0.048,0.328v2.335H182.8V153.962z"/>
	</g>
	<g>
		<path d="M204.968,141.876c0.353-0.072,0.864-0.12,1.336-0.12c0.743,0,1.23,0.144,1.566,0.448c0.265,0.232,0.424,0.6,0.424,1.023    c0,0.704-0.455,1.175-1.016,1.368v0.024c0.408,0.144,0.656,0.527,0.792,1.087c0.176,0.751,0.304,1.271,0.408,1.479h-0.72    c-0.088-0.16-0.208-0.616-0.353-1.287c-0.159-0.744-0.455-1.023-1.087-1.047h-0.655v2.334h-0.696V141.876z M205.665,144.323h0.711    c0.744,0,1.216-0.408,1.216-1.023c0-0.696-0.504-1-1.239-1c-0.336,0-0.568,0.032-0.688,0.064V144.323z"/>
		<path d="M209.648,145.378c0.016,0.943,0.616,1.335,1.319,1.335c0.504,0,0.815-0.088,1.071-0.2l0.128,0.503    c-0.248,0.112-0.68,0.248-1.295,0.248c-1.184,0-1.903-0.792-1.903-1.951c0-1.167,0.695-2.087,1.823-2.087    c1.264,0,1.591,1.112,1.591,1.823c0,0.144-0.008,0.248-0.023,0.328H209.648z M211.703,144.875    c0.008-0.448-0.184-1.144-0.967-1.144c-0.72,0-1.023,0.656-1.08,1.144H211.703z"/>
		<path d="M213.256,144.579c0-0.496-0.008-0.896-0.032-1.263h0.632l0.04,0.664h0.016c0.28-0.48,0.743-0.752,1.367-0.752    c0.943,0,1.647,0.792,1.647,1.967c0,1.391-0.855,2.079-1.76,2.079c-0.52,0-0.959-0.224-1.19-0.607h-0.017v2.103h-0.703V144.579z     M213.959,145.61c0,0.096,0.008,0.2,0.032,0.288c0.12,0.488,0.552,0.823,1.048,0.823c0.743,0,1.175-0.607,1.175-1.495    c0-0.775-0.399-1.439-1.144-1.439c-0.479,0-0.936,0.335-1.071,0.871c-0.016,0.088-0.04,0.192-0.04,0.28V145.61z"/>
		<path d="M221.047,146.122c0,0.408,0.008,0.76,0.031,1.063h-0.623l-0.04-0.632h-0.017c-0.176,0.312-0.591,0.72-1.279,0.72    c-0.607,0-1.335-0.344-1.335-1.695v-2.263h0.704v2.135c0,0.735,0.231,1.239,0.863,1.239c0.472,0,0.8-0.328,0.928-0.648    c0.04-0.096,0.063-0.224,0.063-0.36v-2.366h0.704V146.122z"/>
		<path d="M222.215,141.508h0.703v2.422h0.017c0.247-0.432,0.695-0.704,1.318-0.704c0.96,0,1.632,0.8,1.632,1.967    c0,1.391-0.88,2.079-1.743,2.079c-0.56,0-1-0.216-1.295-0.728h-0.017l-0.04,0.64h-0.607c0.023-0.264,0.032-0.656,0.032-1V141.508z     M222.918,145.634c0,0.088,0.008,0.176,0.024,0.256c0.136,0.488,0.552,0.824,1.055,0.824c0.744,0,1.176-0.6,1.176-1.487    c0-0.784-0.399-1.447-1.151-1.447c-0.479,0-0.928,0.336-1.063,0.864c-0.023,0.088-0.04,0.184-0.04,0.296V145.634z"/>
		<path d="M226.767,141.508h0.703v5.677h-0.703V141.508z"/>
		<path d="M228.992,142.66c-0.256,0-0.424-0.2-0.424-0.432c0-0.248,0.176-0.439,0.439-0.439c0.256,0,0.432,0.192,0.432,0.439    c0,0.232-0.168,0.432-0.439,0.432H228.992z M228.656,147.185v-3.87h0.703v3.87H228.656z"/>
		<path d="M233.285,147.041c-0.184,0.088-0.592,0.224-1.111,0.224c-1.167,0-1.927-0.792-1.927-1.975    c0-1.191,0.815-2.063,2.079-2.063c0.416,0,0.783,0.104,0.976,0.208l-0.16,0.536c-0.168-0.088-0.432-0.184-0.815-0.184    c-0.888,0-1.367,0.664-1.367,1.463c0,0.896,0.575,1.447,1.343,1.447c0.4,0,0.664-0.096,0.864-0.184L233.285,147.041z"/>
		<path d="M236.837,146.258c0,0.335,0.016,0.664,0.056,0.927h-0.632l-0.063-0.488h-0.024c-0.208,0.304-0.632,0.576-1.184,0.576    c-0.783,0-1.183-0.552-1.183-1.111c0-0.936,0.831-1.447,2.326-1.439v-0.08c0-0.32-0.088-0.904-0.88-0.896    c-0.367,0-0.743,0.104-1.015,0.288l-0.16-0.472c0.319-0.2,0.792-0.336,1.279-0.336c1.191,0,1.479,0.808,1.479,1.583V146.258z     M236.15,145.21c-0.768-0.016-1.64,0.12-1.64,0.872c0,0.464,0.304,0.672,0.655,0.672c0.512,0,0.84-0.32,0.952-0.648    c0.023-0.072,0.032-0.152,0.032-0.224V145.21z"/>
		<path d="M237.967,144.363c0-0.408-0.009-0.728-0.032-1.047h0.624l0.04,0.631h0.016c0.191-0.36,0.64-0.72,1.279-0.72    c0.535,0,1.367,0.32,1.367,1.647v2.311h-0.704v-2.231c0-0.624-0.231-1.151-0.896-1.151c-0.455,0-0.815,0.328-0.943,0.72    c-0.031,0.088-0.048,0.216-0.048,0.328v2.334h-0.703V144.363z"/>
	</g>
	<g>
		<path d="M264.047,141.868c0.432-0.064,0.936-0.112,1.487-0.112c0.999,0,1.711,0.232,2.183,0.672    c0.488,0.439,0.768,1.063,0.768,1.935c0,0.879-0.279,1.599-0.775,2.095c-0.512,0.503-1.344,0.775-2.391,0.775    c-0.504,0-0.911-0.016-1.271-0.064V141.868z M264.751,146.642c0.176,0.032,0.432,0.032,0.703,0.032    c1.487,0.008,2.295-0.832,2.295-2.287c0.008-1.271-0.712-2.079-2.183-2.079c-0.36,0-0.632,0.032-0.815,0.072V146.642z"/>
		<path d="M269.759,145.378c0.016,0.943,0.615,1.335,1.319,1.335c0.504,0,0.815-0.088,1.071-0.2l0.128,0.503    c-0.248,0.112-0.68,0.248-1.295,0.248c-1.184,0-1.903-0.792-1.903-1.951c0-1.167,0.695-2.087,1.823-2.087    c1.263,0,1.591,1.112,1.591,1.823c0,0.144-0.008,0.248-0.023,0.328H269.759z M271.814,144.875    c0.008-0.448-0.184-1.144-0.967-1.144c-0.72,0-1.023,0.656-1.08,1.144H271.814z"/>
		<path d="M273.368,144.363c0-0.408-0.017-0.728-0.032-1.047h0.615l0.032,0.624h0.024c0.216-0.368,0.575-0.712,1.223-0.712    c0.521,0,0.92,0.32,1.088,0.776h0.016c0.12-0.224,0.28-0.384,0.44-0.504c0.231-0.176,0.479-0.272,0.847-0.272    c0.521,0,1.279,0.336,1.279,1.679v2.279h-0.688v-2.191c0-0.751-0.279-1.191-0.839-1.191c-0.408,0-0.712,0.296-0.84,0.632    c-0.032,0.104-0.056,0.232-0.056,0.352v2.399h-0.688v-2.327c0-0.616-0.272-1.056-0.808-1.056c-0.433,0-0.76,0.352-0.872,0.704    c-0.04,0.104-0.056,0.224-0.056,0.344v2.334h-0.688V144.363z"/>
		<path d="M281.615,147.273c-1.04,0-1.855-0.768-1.855-1.991c0-1.295,0.855-2.055,1.919-2.055c1.111,0,1.863,0.808,1.863,1.983    c0,1.439-1,2.063-1.919,2.063H281.615z M281.646,146.745c0.672,0,1.176-0.631,1.176-1.511c0-0.656-0.328-1.479-1.159-1.479    c-0.824,0-1.184,0.768-1.184,1.503c0,0.847,0.479,1.487,1.159,1.487H281.646z"/>
		<path d="M287.189,147.041c-0.184,0.088-0.592,0.224-1.111,0.224c-1.167,0-1.927-0.792-1.927-1.975    c0-1.191,0.815-2.063,2.079-2.063c0.416,0,0.783,0.104,0.976,0.208l-0.16,0.536c-0.168-0.088-0.432-0.184-0.815-0.184    c-0.888,0-1.367,0.664-1.367,1.463c0,0.896,0.575,1.447,1.343,1.447c0.4,0,0.664-0.096,0.864-0.184L287.189,147.041z"/>
		<path d="M288.015,144.522c0-0.456-0.008-0.848-0.032-1.207h0.615l0.032,0.759h0.024c0.176-0.52,0.607-0.848,1.079-0.848    c0.072,0,0.128,0.008,0.191,0.016v0.664c-0.071-0.008-0.144-0.016-0.239-0.016c-0.496,0-0.848,0.376-0.943,0.896    c-0.017,0.104-0.024,0.216-0.024,0.328v2.071h-0.703V144.522z"/>
		<path d="M293.358,146.258c0,0.335,0.016,0.664,0.056,0.927h-0.632l-0.063-0.488h-0.024c-0.208,0.304-0.632,0.576-1.184,0.576    c-0.783,0-1.183-0.552-1.183-1.111c0-0.936,0.831-1.447,2.326-1.439v-0.08c0-0.32-0.088-0.904-0.879-0.896    c-0.368,0-0.744,0.104-1.016,0.288l-0.16-0.472c0.319-0.2,0.791-0.336,1.279-0.336c1.191,0,1.479,0.808,1.479,1.583V146.258z     M292.669,145.21c-0.768-0.016-1.639,0.12-1.639,0.872c0,0.464,0.304,0.672,0.655,0.672c0.512,0,0.84-0.32,0.952-0.648    c0.023-0.072,0.031-0.152,0.031-0.224V145.21z"/>
		<path d="M295.335,142.388v0.928h1.007v0.536h-1.007v2.079c0,0.48,0.136,0.751,0.527,0.751c0.191,0,0.304-0.016,0.408-0.048    l0.031,0.536c-0.136,0.048-0.352,0.096-0.623,0.096c-0.328,0-0.592-0.112-0.76-0.296c-0.192-0.216-0.272-0.56-0.272-1.016v-2.103    h-0.6v-0.536h0.6v-0.712L295.335,142.388z"/>
	</g>
	
		<rect x="270.281" y="104.56" fill="#D1D3D4" stroke="#000000" stroke-width="0.5" stroke-linejoin="round" stroke-miterlimit="10" width="6" height="5.999"/>
	<g>
		<path d="M279.854,109.733v-0.432l0.551-0.536c1.328-1.264,1.936-1.935,1.936-2.719c0-0.528-0.248-1.015-1.023-1.015    c-0.473,0-0.863,0.24-1.104,0.439l-0.225-0.496c0.353-0.296,0.872-0.528,1.472-0.528c1.111,0,1.583,0.768,1.583,1.511    c0,0.959-0.695,1.735-1.791,2.791l-0.408,0.384v0.016h2.328v0.583H279.854z"/>
		<path d="M285.612,109.821c-1.015,0-1.711-0.951-1.727-2.67c0-1.751,0.76-2.703,1.815-2.703c1.087,0,1.719,0.976,1.719,2.631    c0,1.767-0.663,2.742-1.799,2.742H285.612z M285.653,109.277c0.711,0,1.055-0.84,1.055-2.167c0-1.279-0.319-2.119-1.055-2.119    c-0.641,0-1.056,0.815-1.056,2.119c-0.017,1.351,0.399,2.167,1.048,2.167H285.653z"/>
		<path d="M289.588,105.191h-0.016l-0.904,0.488l-0.136-0.536l1.136-0.608h0.6v5.197h-0.68V105.191z"/>
		<path d="M295.131,105.032c-0.145-0.008-0.328,0.008-0.527,0.04c-1.111,0.176-1.688,0.976-1.807,1.839h0.016    c0.248-0.336,0.688-0.608,1.264-0.608c0.919,0,1.566,0.672,1.566,1.679c0,0.959-0.647,1.839-1.734,1.839    c-1.104,0-1.832-0.863-1.832-2.215c0-1.023,0.36-1.831,0.88-2.343c0.432-0.424,1.007-0.688,1.663-0.768    c0.208-0.032,0.384-0.04,0.512-0.04V105.032z M293.924,109.277c0.6,0,1.008-0.504,1.008-1.248s-0.424-1.191-1.072-1.191    c-0.424,0-0.823,0.256-1.016,0.64c-0.039,0.08-0.072,0.176-0.072,0.304c0.009,0.856,0.408,1.496,1.145,1.496H293.924z"/>
	</g>
	
		<rect x="270.052" y="117.559" fill="#808285" stroke="#000000" stroke-width="0.5" stroke-linejoin="round" stroke-miterlimit="10" width="6" height="6"/>
	<g>
		<path d="M279.623,122.733v-0.432l0.552-0.536c1.328-1.264,1.936-1.935,1.936-2.719c0-0.528-0.248-1.015-1.023-1.015    c-0.472,0-0.863,0.24-1.104,0.439l-0.224-0.496c0.352-0.296,0.871-0.528,1.471-0.528c1.111,0,1.583,0.768,1.583,1.511    c0,0.959-0.695,1.735-1.791,2.791l-0.407,0.384v0.016h2.326v0.583H279.623z"/>
		<path d="M285.381,122.821c-1.016,0-1.711-0.951-1.727-2.67c0-1.751,0.76-2.703,1.814-2.703c1.088,0,1.72,0.976,1.72,2.631    c0,1.767-0.664,2.742-1.8,2.742H285.381z M285.421,122.277c0.712,0,1.056-0.84,1.056-2.167c0-1.279-0.32-2.119-1.056-2.119    c-0.64,0-1.056,0.815-1.056,2.119c-0.016,1.351,0.4,2.167,1.048,2.167H285.421z"/>
		<path d="M287.831,122.733v-0.432l0.552-0.536c1.327-1.264,1.936-1.935,1.936-2.719c0-0.528-0.248-1.015-1.023-1.015    c-0.472,0-0.864,0.24-1.104,0.439l-0.224-0.496c0.352-0.296,0.871-0.528,1.471-0.528c1.111,0,1.583,0.768,1.583,1.511    c0,0.959-0.695,1.735-1.791,2.791l-0.407,0.384v0.016h2.326v0.583H287.831z"/>
		<path d="M293.589,122.821c-1.016,0-1.711-0.951-1.727-2.67c0-1.751,0.76-2.703,1.814-2.703c1.088,0,1.72,0.976,1.72,2.631    c0,1.767-0.664,2.742-1.8,2.742H293.589z M293.629,122.277c0.712,0,1.056-0.84,1.056-2.167c0-1.279-0.32-2.119-1.056-2.119    c-0.64,0-1.056,0.815-1.056,2.119c-0.016,1.351,0.4,2.167,1.048,2.167H293.629z"/>
	</g>
	
		<line fill="none" stroke="#000000" stroke-width="0.5" stroke-linejoin="round" stroke-miterlimit="10" x1="23.255" y1="2.959" x2="20.255" y2="2.959"/>
	
		<line fill="none" stroke="#000000" stroke-width="0.5" stroke-linejoin="round" stroke-miterlimit="10" x1="23.255" y1="25.088" x2="20.255" y2="25.088"/>
	
		<line fill="none" stroke="#000000" stroke-width="0.5" stroke-linejoin="round" stroke-miterlimit="10" x1="23.255" y1="47.217" x2="20.255" y2="47.217"/>
	
		<line fill="none" stroke="#000000" stroke-width="0.5" stroke-linejoin="round" stroke-miterlimit="10" x1="23.255" y1="69.346" x2="20.255" y2="69.346"/>
	
		<line fill="none" stroke="#000000" stroke-width="0.5" stroke-linejoin="round" stroke-miterlimit="10" x1="23.255" y1="91.475" x2="20.255" y2="91.475"/>
	
		<line fill="none" stroke="#000000" stroke-width="0.5" stroke-linejoin="round" stroke-miterlimit="10" x1="23.255" y1="113.604" x2="20.255" y2="113.604"/>
	
		<line fill="none" stroke="#000000" stroke-width="0.5" stroke-linejoin="round" stroke-miterlimit="10" x1="23.255" y1="135.615" x2="20.255" y2="135.615"/>
	
		<line fill="none" stroke="#000000" stroke-width="0.5" stroke-linejoin="round" stroke-miterlimit="10" x1="279.494" y1="135.615" x2="279.494" y2="138.615"/>
	
		<line fill="none" stroke="#000000" stroke-width="0.5" stroke-linejoin="round" stroke-miterlimit="10" x1="222.547" y1="135.615" x2="222.547" y2="138.615"/>
	
		<line fill="none" stroke="#000000" stroke-width="0.5" stroke-linejoin="round" stroke-miterlimit="10" x1="165.601" y1="135.615" x2="165.601" y2="138.615"/>
	
		<line fill="none" stroke="#000000" stroke-width="0.5" stroke-linejoin="round" stroke-miterlimit="10" x1="108.654" y1="135.615" x2="108.654" y2="138.615"/>
	
		<line fill="none" stroke="#000000" stroke-width="0.5" stroke-linejoin="round" stroke-miterlimit="10" x1="51.708" y1="135.615" x2="51.708" y2="138.615"/>
</g>
</svg>