<svg xmlns="http://www.w3.org/2000/svg" xmlns:xlink="http://www.w3.org/1999/xlink" version="1.1" x="0px" y="0px" width="265.275px" height="117.883px" viewBox="0 0 265.275 117.883" enable-background="new 0 0 265.275 117.883" xml:space="preserve">
<g id="wide" display="none">
</g>
<g id="text_column">
</g>
<g id="art">
	
		<line fill="none" stroke="#999999" stroke-width="0.5" stroke-linejoin="round" stroke-miterlimit="10" x1="14.025" y1="17.757" x2="265.23" y2="17.757"/>
	<rect x="100.521" y="4.82" fill="#FFFFFF" width="75.32" height="23.359"/>
	
		<rect x="103.176" y="8.531" fill="#CCCCCC" stroke="#000000" stroke-width="0.5" stroke-linejoin="round" stroke-miterlimit="10" width="6" height="5.998"/>
	<g>
		<path d="M112.997,13.704V8.315h0.768l1.719,2.727c0.392,0.632,0.712,1.199,0.959,1.751l0.024-0.008    c-0.064-0.72-0.08-1.375-0.08-2.207V8.315h0.655v5.389h-0.703l-1.711-2.734c-0.376-0.6-0.735-1.215-1-1.799l-0.024,0.008    c0.04,0.68,0.048,1.327,0.048,2.223v2.303H112.997z"/>
		<path d="M119.812,13.792c-1.039,0-1.854-0.768-1.854-1.991c0-1.295,0.855-2.055,1.919-2.055c1.111,0,1.863,0.808,1.863,1.983    c0,1.439-1,2.063-1.919,2.063H119.812z M119.844,13.264c0.672,0,1.176-0.631,1.176-1.511c0-0.655-0.328-1.479-1.159-1.479    c-0.824,0-1.184,0.768-1.184,1.503c0,0.847,0.479,1.487,1.159,1.487H119.844z"/>
		<path d="M122.628,10.882c0-0.408-0.008-0.728-0.031-1.048h0.623l0.04,0.632h0.017c0.191-0.36,0.64-0.72,1.279-0.72    c0.535,0,1.367,0.32,1.367,1.647v2.311h-0.704v-2.231c0-0.624-0.231-1.151-0.896-1.151c-0.455,0-0.815,0.328-0.943,0.72    c-0.032,0.088-0.048,0.216-0.048,0.328v2.335h-0.704V10.882z"/>
		<path d="M128.699,11.29v0.512h-1.975V11.29H128.699z"/>
		<path d="M130.572,8.907h-1.64V8.315h3.99v0.592h-1.647v4.797h-0.703V8.907z"/>
		<path d="M133.5,11.042c0-0.456-0.008-0.848-0.031-1.208h0.615l0.032,0.76h0.023c0.177-0.52,0.608-0.848,1.08-0.848    c0.071,0,0.128,0.008,0.191,0.016v0.664c-0.071-0.008-0.144-0.016-0.239-0.016c-0.496,0-0.848,0.375-0.943,0.896    c-0.017,0.104-0.024,0.216-0.024,0.328v2.071H133.5V11.042z"/>
		<path d="M139.354,12.641c0,0.408,0.008,0.76,0.032,1.063h-0.624l-0.04-0.632h-0.016c-0.176,0.312-0.592,0.72-1.279,0.72    c-0.608,0-1.336-0.344-1.336-1.695V9.834h0.704v2.135c0,0.735,0.231,1.239,0.863,1.239c0.472,0,0.8-0.328,0.928-0.648    c0.04-0.096,0.063-0.224,0.063-0.359V9.834h0.704V12.641z"/>
		<path d="M140.524,10.882c0-0.408-0.016-0.728-0.032-1.048h0.616l0.031,0.624h0.024c0.216-0.368,0.575-0.712,1.224-0.712    c0.52,0,0.919,0.32,1.087,0.776h0.017c0.119-0.224,0.279-0.384,0.439-0.504c0.231-0.176,0.479-0.272,0.848-0.272    c0.52,0,1.279,0.336,1.279,1.679v2.279h-0.688v-2.191c0-0.751-0.28-1.191-0.84-1.191c-0.408,0-0.712,0.296-0.84,0.632    c-0.032,0.104-0.056,0.232-0.056,0.352v2.398h-0.688v-2.327c0-0.616-0.272-1.056-0.808-1.056c-0.432,0-0.76,0.352-0.872,0.704    c-0.04,0.104-0.056,0.224-0.056,0.344v2.335h-0.688V10.882z"/>
		<path d="M147.196,11.098c0-0.496-0.008-0.896-0.032-1.264h0.632l0.04,0.664h0.017c0.279-0.48,0.743-0.752,1.367-0.752    c0.943,0,1.646,0.792,1.646,1.967c0,1.391-0.855,2.079-1.759,2.079c-0.52,0-0.959-0.224-1.191-0.607H147.9v2.103h-0.704V11.098z     M147.9,12.129c0,0.096,0.008,0.2,0.031,0.288c0.12,0.487,0.552,0.823,1.048,0.823c0.743,0,1.176-0.607,1.176-1.495    c0-0.775-0.4-1.439-1.144-1.439c-0.48,0-0.936,0.335-1.071,0.872c-0.017,0.088-0.04,0.191-0.04,0.28V12.129z"/>
		<path d="M153.716,9.834l0.76,2.167c0.128,0.36,0.231,0.68,0.312,1h0.024c0.088-0.32,0.199-0.64,0.327-1l0.752-2.167h0.735    l-1.519,3.87h-0.672l-1.472-3.87H153.716z"/>
		<path d="M158.868,13.792c-1.04,0-1.855-0.768-1.855-1.991c0-1.295,0.855-2.055,1.919-2.055c1.111,0,1.863,0.808,1.863,1.983    c0,1.439-1,2.063-1.919,2.063H158.868z M158.899,13.264c0.672,0,1.176-0.631,1.176-1.511c0-0.655-0.328-1.479-1.159-1.479    c-0.824,0-1.184,0.768-1.184,1.503c0,0.847,0.479,1.487,1.159,1.487H158.899z"/>
		<path d="M162.532,8.907v0.927h1.007v0.536h-1.007v2.079c0,0.48,0.136,0.751,0.527,0.751c0.191,0,0.304-0.016,0.407-0.048    l0.032,0.536c-0.136,0.048-0.352,0.096-0.623,0.096c-0.328,0-0.592-0.112-0.76-0.296c-0.192-0.216-0.272-0.56-0.272-1.016V10.37    h-0.6V9.834h0.6V9.123L162.532,8.907z"/>
		<path d="M164.731,11.897c0.016,0.944,0.616,1.335,1.319,1.335c0.504,0,0.815-0.088,1.071-0.2l0.128,0.504    c-0.248,0.112-0.68,0.248-1.295,0.248c-1.184,0-1.903-0.792-1.903-1.951c0-1.167,0.695-2.087,1.823-2.087    c1.264,0,1.591,1.111,1.591,1.823c0,0.144-0.008,0.248-0.023,0.328H164.731z M166.786,11.394c0.008-0.448-0.184-1.144-0.967-1.144    c-0.72,0-1.023,0.656-1.08,1.144H166.786z"/>
		<path d="M168.34,11.042c0-0.456-0.008-0.848-0.032-1.208h0.615l0.032,0.76h0.024c0.176-0.52,0.607-0.848,1.079-0.848    c0.072,0,0.128,0.008,0.191,0.016v0.664c-0.071-0.008-0.144-0.016-0.239-0.016c-0.496,0-0.848,0.375-0.943,0.896    c-0.017,0.104-0.024,0.216-0.024,0.328v2.071h-0.703V11.042z"/>
		<path d="M170.859,12.984c0.217,0.128,0.584,0.272,0.936,0.272c0.504,0,0.744-0.248,0.744-0.576c0-0.336-0.2-0.512-0.712-0.704    c-0.703-0.256-1.031-0.64-1.031-1.095c0-0.624,0.512-1.136,1.335-1.136c0.392,0,0.736,0.104,0.943,0.24l-0.168,0.503    c-0.151-0.088-0.432-0.224-0.791-0.224c-0.416,0-0.64,0.24-0.64,0.528c0,0.319,0.224,0.463,0.728,0.664    c0.664,0.248,1.016,0.583,1.016,1.159c0,0.688-0.536,1.167-1.439,1.167c-0.424,0-0.815-0.112-1.088-0.272L170.859,12.984z"/>
	</g>
	
		<rect x="102.947" y="19.529" fill="#666666" stroke="#000000" stroke-width="0.5" stroke-linejoin="round" stroke-miterlimit="10" width="6" height="6"/>
	<g>
		<path d="M113.79,19.907h-1.639v-0.592h3.99v0.592h-1.647v4.797h-0.704V19.907z"/>
		<path d="M116.719,22.042c0-0.456-0.008-0.848-0.033-1.208h0.615l0.033,0.76h0.023c0.176-0.52,0.607-0.848,1.08-0.848    c0.072,0,0.127,0.008,0.191,0.016v0.664c-0.072-0.008-0.145-0.016-0.24-0.016c-0.496,0-0.848,0.375-0.943,0.896    c-0.016,0.104-0.023,0.216-0.023,0.328v2.071h-0.703V22.042z"/>
		<path d="M122.572,23.641c0,0.408,0.008,0.76,0.031,1.063h-0.623l-0.039-0.632h-0.018c-0.176,0.312-0.59,0.72-1.279,0.72    c-0.607,0-1.334-0.344-1.334-1.695v-2.263h0.703v2.135c0,0.735,0.232,1.239,0.863,1.239c0.473,0,0.801-0.328,0.928-0.648    c0.041-0.096,0.064-0.224,0.064-0.359v-2.367h0.703V23.641z"/>
		<path d="M123.742,21.882c0-0.408-0.016-0.728-0.031-1.048h0.615l0.031,0.624h0.025c0.215-0.368,0.574-0.712,1.223-0.712    c0.52,0,0.92,0.32,1.088,0.776h0.016c0.119-0.224,0.279-0.384,0.439-0.504c0.232-0.176,0.48-0.272,0.848-0.272    c0.52,0,1.279,0.336,1.279,1.679v2.279h-0.688v-2.191c0-0.751-0.279-1.191-0.84-1.191c-0.408,0-0.711,0.296-0.84,0.632    c-0.031,0.104-0.055,0.232-0.055,0.352v2.398h-0.688v-2.327c0-0.616-0.273-1.056-0.809-1.056c-0.432,0-0.76,0.352-0.871,0.704    c-0.041,0.104-0.057,0.224-0.057,0.344v2.335h-0.688V21.882z"/>
		<path d="M130.414,22.098c0-0.496-0.008-0.896-0.031-1.264h0.631l0.041,0.664h0.016c0.279-0.48,0.744-0.752,1.367-0.752    c0.943,0,1.646,0.792,1.646,1.967c0,1.391-0.855,2.079-1.758,2.079c-0.521,0-0.961-0.224-1.191-0.607h-0.018v2.103h-0.703V22.098z     M131.117,23.129c0,0.096,0.008,0.2,0.033,0.288c0.119,0.487,0.551,0.823,1.047,0.823c0.744,0,1.176-0.607,1.176-1.495    c0-0.775-0.4-1.439-1.145-1.439c-0.479,0-0.936,0.335-1.07,0.872c-0.016,0.088-0.041,0.191-0.041,0.28V23.129z"/>
		<path d="M136.934,20.834l0.76,2.167c0.129,0.36,0.232,0.68,0.312,1h0.023c0.088-0.32,0.199-0.64,0.328-1l0.752-2.167h0.734    l-1.518,3.87h-0.672l-1.473-3.87H136.934z"/>
		<path d="M142.086,24.792c-1.041,0-1.855-0.768-1.855-1.991c0-1.295,0.855-2.055,1.918-2.055c1.111,0,1.863,0.808,1.863,1.983    c0,1.439-1,2.063-1.918,2.063H142.086z M142.117,24.264c0.672,0,1.176-0.631,1.176-1.511c0-0.655-0.328-1.479-1.16-1.479    c-0.824,0-1.184,0.768-1.184,1.503c0,0.847,0.48,1.487,1.16,1.487H142.117z"/>
		<path d="M145.75,19.907v0.927h1.006v0.536h-1.006v2.079c0,0.48,0.135,0.751,0.527,0.751c0.191,0,0.303-0.016,0.408-0.048    l0.031,0.536c-0.137,0.048-0.352,0.096-0.623,0.096c-0.328,0-0.592-0.112-0.76-0.296c-0.193-0.216-0.273-0.56-0.273-1.016V21.37    h-0.6v-0.536h0.6v-0.711L145.75,19.907z"/>
		<path d="M147.949,22.897c0.016,0.944,0.617,1.335,1.32,1.335c0.504,0,0.814-0.088,1.07-0.2l0.129,0.504    c-0.248,0.112-0.68,0.248-1.295,0.248c-1.184,0-1.904-0.792-1.904-1.951c0-1.167,0.695-2.087,1.824-2.087    c1.264,0,1.59,1.111,1.59,1.823c0,0.144-0.008,0.248-0.023,0.328H147.949z M150.004,22.394c0.008-0.448-0.184-1.144-0.967-1.144    c-0.719,0-1.023,0.656-1.08,1.144H150.004z"/>
		<path d="M151.559,22.042c0-0.456-0.008-0.848-0.033-1.208h0.615l0.033,0.76h0.023c0.176-0.52,0.607-0.848,1.08-0.848    c0.072,0,0.127,0.008,0.191,0.016v0.664c-0.072-0.008-0.145-0.016-0.24-0.016c-0.496,0-0.848,0.375-0.943,0.896    c-0.016,0.104-0.023,0.216-0.023,0.328v2.071h-0.703V22.042z"/>
		<path d="M154.078,23.984c0.217,0.128,0.584,0.272,0.936,0.272c0.504,0,0.744-0.248,0.744-0.576c0-0.336-0.201-0.512-0.713-0.704    c-0.703-0.256-1.031-0.64-1.031-1.095c0-0.624,0.512-1.136,1.336-1.136c0.391,0,0.736,0.104,0.943,0.24l-0.168,0.503    c-0.152-0.088-0.432-0.224-0.791-0.224c-0.416,0-0.641,0.24-0.641,0.528c0,0.319,0.225,0.463,0.729,0.664    c0.664,0.248,1.016,0.583,1.016,1.159c0,0.688-0.537,1.167-1.439,1.167c-0.424,0-0.816-0.112-1.088-0.272L154.078,23.984z"/>
	</g>
	
		<line fill="none" stroke="#000000" stroke-width="0.5" stroke-linejoin="round" stroke-miterlimit="10" x1="13.949" y1="2.637" x2="10.949" y2="2.637"/>
	
		<line fill="none" stroke="#000000" stroke-width="0.5" stroke-linejoin="round" stroke-miterlimit="10" x1="13.949" y1="17.69" x2="10.949" y2="17.69"/>
	
		<line fill="none" stroke="#000000" stroke-width="0.5" stroke-linejoin="round" stroke-miterlimit="10" x1="13.949" y1="32.743" x2="10.949" y2="32.743"/>
	
		<line fill="none" stroke="#000000" stroke-width="0.5" stroke-linejoin="round" stroke-miterlimit="10" x1="13.949" y1="47.796" x2="10.949" y2="47.796"/>
	
		<line fill="none" stroke="#000000" stroke-width="0.5" stroke-linejoin="round" stroke-miterlimit="10" x1="13.949" y1="62.849" x2="10.949" y2="62.849"/>
	
		<line fill="none" stroke="#000000" stroke-width="0.5" stroke-linejoin="round" stroke-miterlimit="10" x1="13.949" y1="77.902" x2="10.949" y2="77.902"/>
	
		<line fill="none" stroke="#000000" stroke-width="0.5" stroke-linejoin="round" stroke-miterlimit="10" x1="13.949" y1="92.955" x2="10.949" y2="92.955"/>
	
		<line fill="none" stroke="#000000" stroke-width="0.5" stroke-linejoin="round" stroke-miterlimit="10" x1="13.949" y1="108.008" x2="10.949" y2="108.008"/>
	
		<line fill="none" stroke="#999999" stroke-width="0.5" stroke-linejoin="round" stroke-miterlimit="10" x1="14.025" y1="2.637" x2="265.23" y2="2.637"/>
	
		<line fill="none" stroke="#999999" stroke-width="0.5" stroke-linejoin="round" stroke-miterlimit="10" x1="14.025" y1="32.709" x2="265.23" y2="32.709"/>
	
		<line fill="none" stroke="#999999" stroke-width="0.5" stroke-linejoin="round" stroke-miterlimit="10" x1="14.025" y1="47.829" x2="265.23" y2="47.829"/>
	
		<line fill="none" stroke="#999999" stroke-width="0.5" stroke-linejoin="round" stroke-miterlimit="10" x1="14.025" y1="62.781" x2="265.23" y2="62.781"/>
	
		<line fill="none" stroke="#999999" stroke-width="0.5" stroke-linejoin="round" stroke-miterlimit="10" x1="14.025" y1="77.901" x2="265.23" y2="77.901"/>
	
		<line fill="none" stroke="#999999" stroke-width="0.5" stroke-linejoin="round" stroke-miterlimit="10" x1="14.025" y1="93.021" x2="265.23" y2="93.021"/>
	
		<rect x="233.135" y="66.141" fill="#CCCCCC" stroke="#000000" stroke-width="0.5" stroke-miterlimit="10" width="10.379" height="41.832"/>
	
		<rect x="201.774" y="15.237" fill="#CCCCCC" stroke="#000000" stroke-width="0.5" stroke-miterlimit="10" width="10.379" height="92.736"/>
	
		<rect x="156.97" y="77.397" fill="#CCCCCC" stroke="#000000" stroke-width="0.5" stroke-miterlimit="10" width="10.522" height="30.576"/>
	
		<rect x="127.61" y="39.597" fill="#CCCCCC" stroke="#000000" stroke-width="0.5" stroke-miterlimit="10" width="10.521" height="68.376"/>
	
		<rect x="82.807" y="72.861" fill="#CCCCCC" stroke="#000000" stroke-width="0.5" stroke-miterlimit="10" width="10.702" height="35.112"/>
	
		<rect x="52.446" y="28.677" fill="#CCCCCC" stroke="#000000" stroke-width="0.5" stroke-miterlimit="10" width="10.703" height="79.296"/>
	
		<rect x="22.086" y="21.285" fill="#CCCCCC" stroke="#000000" stroke-width="0.5" stroke-miterlimit="10" width="10.704" height="86.688"/>
	
		<rect x="246.433" y="41.613" fill="#666666" stroke="#000000" stroke-width="0.5" stroke-miterlimit="10" width="10.702" height="66.36"/>
	
		<rect x="215.073" y="37.245" fill="#666666" stroke="#000000" stroke-width="0.5" stroke-miterlimit="10" width="10.701" height="70.728"/>
	
		<rect x="170.451" y="68.661" fill="#666666" stroke="#000000" stroke-width="0.5" stroke-miterlimit="10" width="10.519" height="39.312"/>
	
		<rect x="141.09" y="60.261" fill="#666666" stroke="#000000" stroke-width="0.5" stroke-miterlimit="10" width="10.521" height="47.712"/>
	
		<rect x="96.428" y="46.989" fill="#666666" stroke="#000000" stroke-width="0.5" stroke-miterlimit="10" width="10.378" height="60.984"/>
	
		<rect x="66.068" y="55.389" fill="#666666" stroke="#000000" stroke-width="0.5" stroke-miterlimit="10" width="10.378" height="52.584"/>
	
		<rect x="35.384" y="52.701" fill="#666666" stroke="#000000" stroke-width="0.5" stroke-miterlimit="10" width="10.702" height="55.272"/>
	
		<line fill="none" stroke="#000000" stroke-width="0.5" stroke-linejoin="round" stroke-miterlimit="10" x1="25.001" y1="19.941" x2="29.853" y2="19.941"/>
	
		<line fill="none" stroke="#000000" stroke-width="0.5" stroke-linejoin="round" stroke-miterlimit="10" x1="25.001" y1="22.461" x2="29.853" y2="22.461"/>
	
		<line fill="none" stroke="#000000" stroke-width="0.5" stroke-linejoin="round" stroke-miterlimit="10" x1="27.276" y1="21.285" x2="27.276" y2="19.941"/>
	
		<line fill="none" stroke="#000000" stroke-width="0.5" stroke-linejoin="round" stroke-miterlimit="10" x1="27.276" y1="22.461" x2="27.276" y2="21.285"/>
	
		<line fill="none" stroke="#000000" stroke-width="0.5" stroke-linejoin="round" stroke-miterlimit="10" x1="55.365" y1="27.501" x2="60.23" y2="27.501"/>
	
		<line fill="none" stroke="#000000" stroke-width="0.5" stroke-linejoin="round" stroke-miterlimit="10" x1="55.365" y1="29.945" x2="60.23" y2="29.945"/>
	
		<line fill="none" stroke="#000000" stroke-width="0.5" stroke-linejoin="round" stroke-miterlimit="10" x1="57.96" y1="28.677" x2="57.96" y2="27.501"/>
	
		<line fill="none" stroke="#000000" stroke-width="0.5" stroke-linejoin="round" stroke-miterlimit="10" x1="57.96" y1="29.945" x2="57.96" y2="28.677"/>
	
		<line fill="none" stroke="#000000" stroke-width="0.5" stroke-linejoin="round" stroke-miterlimit="10" x1="85.725" y1="71.517" x2="90.59" y2="71.517"/>
	
		<line fill="none" stroke="#000000" stroke-width="0.5" stroke-linejoin="round" stroke-miterlimit="10" x1="85.725" y1="74.205" x2="90.59" y2="74.205"/>
	
		<line fill="none" stroke="#000000" stroke-width="0.5" stroke-linejoin="round" stroke-miterlimit="10" x1="88.32" y1="72.861" x2="88.32" y2="71.517"/>
	
		<line fill="none" stroke="#000000" stroke-width="0.5" stroke-linejoin="round" stroke-miterlimit="10" x1="88.32" y1="74.205" x2="88.32" y2="72.861"/>
	
		<line fill="none" stroke="#000000" stroke-width="0.5" stroke-linejoin="round" stroke-miterlimit="10" x1="130.24" y1="38.253" x2="135.171" y2="38.253"/>
	
		<line fill="none" stroke="#000000" stroke-width="0.5" stroke-linejoin="round" stroke-miterlimit="10" x1="130.24" y1="40.878" x2="135.171" y2="40.878"/>
	
		<line fill="none" stroke="#000000" stroke-width="0.5" stroke-linejoin="round" stroke-miterlimit="10" x1="132.87" y1="39.597" x2="132.87" y2="38.253"/>
	
		<line fill="none" stroke="#000000" stroke-width="0.5" stroke-linejoin="round" stroke-miterlimit="10" x1="132.87" y1="40.878" x2="132.87" y2="39.597"/>
	
		<line fill="none" stroke="#000000" stroke-width="0.5" stroke-linejoin="round" stroke-miterlimit="10" x1="159.602" y1="76.053" x2="164.534" y2="76.053"/>
	
		<line fill="none" stroke="#000000" stroke-width="0.5" stroke-linejoin="round" stroke-miterlimit="10" x1="159.602" y1="78.661" x2="164.534" y2="78.661"/>
	
		<line fill="none" stroke="#000000" stroke-width="0.5" stroke-linejoin="round" stroke-miterlimit="10" x1="162.231" y1="77.397" x2="162.231" y2="76.053"/>
	
		<line fill="none" stroke="#000000" stroke-width="0.5" stroke-linejoin="round" stroke-miterlimit="10" x1="162.231" y1="78.661" x2="162.231" y2="77.397"/>
	
		<line fill="none" stroke="#000000" stroke-width="0.5" stroke-linejoin="round" stroke-miterlimit="10" x1="204.662" y1="13.893" x2="209.433" y2="13.893"/>
	
		<line fill="none" stroke="#000000" stroke-width="0.5" stroke-linejoin="round" stroke-miterlimit="10" x1="204.662" y1="16.5" x2="209.433" y2="16.5"/>
	
		<line fill="none" stroke="#000000" stroke-width="0.5" stroke-linejoin="round" stroke-miterlimit="10" x1="206.963" y1="15.237" x2="206.963" y2="13.893"/>
	
		<line fill="none" stroke="#000000" stroke-width="0.5" stroke-linejoin="round" stroke-miterlimit="10" x1="206.963" y1="16.5" x2="206.963" y2="15.237"/>
	
		<line fill="none" stroke="#000000" stroke-width="0.5" stroke-linejoin="round" stroke-miterlimit="10" x1="236.029" y1="64.629" x2="240.815" y2="64.629"/>
	
		<line fill="none" stroke="#000000" stroke-width="0.5" stroke-linejoin="round" stroke-miterlimit="10" x1="236.029" y1="67.741" x2="240.815" y2="67.741"/>
	
		<line fill="none" stroke="#000000" stroke-width="0.5" stroke-linejoin="round" stroke-miterlimit="10" x1="238.324" y1="66.141" x2="238.324" y2="64.629"/>
	
		<line fill="none" stroke="#000000" stroke-width="0.5" stroke-linejoin="round" stroke-miterlimit="10" x1="238.324" y1="67.741" x2="238.324" y2="66.141"/>
	
		<line fill="none" stroke="#000000" stroke-width="0.5" stroke-linejoin="round" stroke-miterlimit="10" x1="38.303" y1="50.685" x2="43.167" y2="50.685"/>
	
		<line fill="none" stroke="#000000" stroke-width="0.5" stroke-linejoin="round" stroke-miterlimit="10" x1="38.303" y1="54.677" x2="43.167" y2="54.677"/>
	
		<line fill="none" stroke="#000000" stroke-width="0.5" stroke-linejoin="round" stroke-miterlimit="10" x1="40.898" y1="52.701" x2="40.898" y2="50.685"/>
	
		<line fill="none" stroke="#000000" stroke-width="0.5" stroke-linejoin="round" stroke-miterlimit="10" x1="40.898" y1="54.677" x2="40.898" y2="52.701"/>
	
		<line fill="none" stroke="#000000" stroke-width="0.5" stroke-linejoin="round" stroke-miterlimit="10" x1="68.663" y1="53.541" x2="73.528" y2="53.541"/>
	
		<line fill="none" stroke="#000000" stroke-width="0.5" stroke-linejoin="round" stroke-miterlimit="10" x1="68.663" y1="57.405" x2="73.528" y2="57.405"/>
	
		<line fill="none" stroke="#000000" stroke-width="0.5" stroke-linejoin="round" stroke-miterlimit="10" x1="71.258" y1="55.389" x2="71.258" y2="53.541"/>
	
		<line fill="none" stroke="#000000" stroke-width="0.5" stroke-linejoin="round" stroke-miterlimit="10" x1="71.258" y1="57.405" x2="71.258" y2="55.389"/>
	
		<line fill="none" stroke="#000000" stroke-width="0.5" stroke-linejoin="round" stroke-miterlimit="10" x1="99.022" y1="44.805" x2="103.888" y2="44.805"/>
	
		<line fill="none" stroke="#000000" stroke-width="0.5" stroke-linejoin="round" stroke-miterlimit="10" x1="99.022" y1="49.125" x2="103.888" y2="49.125"/>
	
		<line fill="none" stroke="#000000" stroke-width="0.5" stroke-linejoin="round" stroke-miterlimit="10" x1="101.617" y1="46.989" x2="101.617" y2="44.805"/>
	
		<line fill="none" stroke="#000000" stroke-width="0.5" stroke-linejoin="round" stroke-miterlimit="10" x1="101.617" y1="49.125" x2="101.617" y2="46.989"/>
	
		<line fill="none" stroke="#000000" stroke-width="0.5" stroke-linejoin="round" stroke-miterlimit="10" x1="144.022" y1="58.245" x2="148.87" y2="58.245"/>
	
		<line fill="none" stroke="#000000" stroke-width="0.5" stroke-linejoin="round" stroke-miterlimit="10" x1="144.022" y1="62.277" x2="148.87" y2="62.277"/>
	
		<line fill="none" stroke="#000000" stroke-width="0.5" stroke-linejoin="round" stroke-miterlimit="10" x1="146.351" y1="60.261" x2="146.351" y2="58.245"/>
	
		<line fill="none" stroke="#000000" stroke-width="0.5" stroke-linejoin="round" stroke-miterlimit="10" x1="146.351" y1="62.277" x2="146.351" y2="60.261"/>
	
		<line fill="none" stroke="#000000" stroke-width="0.5" stroke-linejoin="round" stroke-miterlimit="10" x1="173.388" y1="66.645" x2="178.253" y2="66.645"/>
	
		<line fill="none" stroke="#000000" stroke-width="0.5" stroke-linejoin="round" stroke-miterlimit="10" x1="173.388" y1="70.786" x2="178.253" y2="70.786"/>
	
		<line fill="none" stroke="#000000" stroke-width="0.5" stroke-linejoin="round" stroke-miterlimit="10" x1="175.71" y1="68.661" x2="175.71" y2="66.645"/>
	
		<line fill="none" stroke="#000000" stroke-width="0.5" stroke-linejoin="round" stroke-miterlimit="10" x1="175.71" y1="70.786" x2="175.71" y2="68.661"/>
	
		<line fill="none" stroke="#000000" stroke-width="0.5" stroke-linejoin="round" stroke-miterlimit="10" x1="217.981" y1="35.229" x2="222.813" y2="35.229"/>
	
		<line fill="none" stroke="#000000" stroke-width="0.5" stroke-linejoin="round" stroke-miterlimit="10" x1="217.981" y1="39.261" x2="222.813" y2="39.261"/>
	
		<line fill="none" stroke="#000000" stroke-width="0.5" stroke-linejoin="round" stroke-miterlimit="10" x1="220.262" y1="37.245" x2="220.262" y2="35.229"/>
	
		<line fill="none" stroke="#000000" stroke-width="0.5" stroke-linejoin="round" stroke-miterlimit="10" x1="220.262" y1="39.261" x2="220.262" y2="37.245"/>
	
		<line fill="none" stroke="#000000" stroke-width="0.5" stroke-linejoin="round" stroke-miterlimit="10" x1="249.346" y1="39.261" x2="254.194" y2="39.261"/>
	
		<line fill="none" stroke="#000000" stroke-width="0.5" stroke-linejoin="round" stroke-miterlimit="10" x1="249.346" y1="43.965" x2="254.194" y2="43.965"/>
	
		<line fill="none" stroke="#000000" stroke-width="0.5" stroke-linejoin="round" stroke-miterlimit="10" x1="251.62" y1="41.613" x2="251.62" y2="39.261"/>
	
		<line fill="none" stroke="#000000" stroke-width="0.5" stroke-linejoin="round" stroke-miterlimit="10" x1="251.62" y1="43.965" x2="251.62" y2="41.613"/>
	<polyline fill="none" stroke="#000000" stroke-width="0.5" stroke-linejoin="round" stroke-miterlimit="10" points="   265.275,108.093 13.943,107.923 14.014,2.552  "/>
	<g>
		<path d="M2.295,5.197V3.774H0V3.318L2.204,0h0.722v3.23h0.691v0.543H2.926v1.423H2.295z M2.295,3.23V1.495    c0-0.271,0.008-0.543,0.023-0.815H2.295c-0.152,0.304-0.273,0.528-0.41,0.768L0.677,3.214V3.23H2.295z"/>
		<path d="M4.621,5.285c-0.258,0-0.441-0.216-0.441-0.504c0-0.288,0.19-0.503,0.456-0.503s0.448,0.208,0.448,0.503    c0,0.288-0.182,0.504-0.456,0.504H4.621z"/>
		<path d="M8.648,0.592H6.764l-0.19,1.335c0.114-0.016,0.22-0.032,0.403-0.032c0.388,0,0.76,0.088,1.064,0.28    c0.387,0.224,0.707,0.68,0.707,1.335c0,1.015-0.768,1.775-1.839,1.775c-0.54,0-0.988-0.16-1.231-0.32L5.844,4.43    c0.205,0.128,0.608,0.288,1.064,0.288c0.623,0,1.17-0.432,1.163-1.136c0-0.664-0.433-1.143-1.414-1.143    c-0.289,0-0.509,0.024-0.691,0.056L6.285,0h2.363V0.592z"/>
		<path d="M2.295,20.247v-1.423H0v-0.456l2.204-3.318h0.722v3.23h0.691v0.543H2.926v1.423H2.295z M2.295,18.28v-1.735    c0-0.271,0.008-0.543,0.023-0.815H2.295c-0.152,0.304-0.273,0.528-0.41,0.768l-1.208,1.767v0.016H2.295z"/>
		<path d="M4.621,20.335c-0.258,0-0.441-0.216-0.441-0.504c0-0.288,0.19-0.503,0.456-0.503s0.448,0.208,0.448,0.503    c0,0.288-0.182,0.504-0.456,0.504H4.621z"/>
		<path d="M7.273,20.335c-0.965,0-1.626-0.951-1.642-2.67c0-1.751,0.722-2.703,1.725-2.703c1.033,0,1.634,0.976,1.634,2.631    c0,1.767-0.631,2.742-1.71,2.742H7.273z M7.311,19.792c0.676,0,1.003-0.84,1.003-2.167c0-1.279-0.304-2.119-1.003-2.119    c-0.608,0-1.003,0.815-1.003,2.119c-0.015,1.351,0.38,2.167,0.996,2.167H7.311z"/>
		<path d="M0.388,34.498c0.19,0.12,0.623,0.319,1.094,0.319c0.851,0,1.125-0.567,1.117-1.007c-0.008-0.728-0.631-1.04-1.277-1.04    H0.95v-0.527h0.372c0.486,0,1.102-0.264,1.102-0.88c0-0.416-0.251-0.783-0.866-0.783c-0.395,0-0.775,0.184-0.988,0.344    l-0.183-0.512c0.266-0.2,0.768-0.4,1.299-0.4c0.973,0,1.414,0.608,1.414,1.239c0,0.544-0.312,1-0.912,1.231v0.016    c0.608,0.12,1.102,0.6,1.102,1.327c0,0.832-0.623,1.559-1.801,1.559c-0.555,0-1.041-0.184-1.284-0.352L0.388,34.498z"/>
		<path d="M4.621,35.385c-0.258,0-0.441-0.216-0.441-0.503c0-0.288,0.19-0.504,0.456-0.504s0.448,0.208,0.448,0.504    c0,0.288-0.182,0.503-0.456,0.503H4.621z"/>
		<path d="M8.648,30.692H6.764l-0.19,1.335c0.114-0.016,0.22-0.032,0.403-0.032c0.388,0,0.76,0.088,1.064,0.28    c0.387,0.224,0.707,0.68,0.707,1.335c0,1.016-0.768,1.775-1.839,1.775c-0.54,0-0.988-0.16-1.231-0.32l0.167-0.536    c0.205,0.128,0.608,0.288,1.064,0.288c0.623,0,1.17-0.432,1.163-1.135c0-0.664-0.433-1.143-1.414-1.143    c-0.289,0-0.509,0.024-0.691,0.056L6.285,30.1h2.363V30.692z"/>
		<path d="M0.388,49.548c0.19,0.12,0.623,0.319,1.094,0.319c0.851,0,1.125-0.567,1.117-1.007c-0.008-0.728-0.631-1.04-1.277-1.04    H0.95v-0.527h0.372c0.486,0,1.102-0.264,1.102-0.88c0-0.416-0.251-0.783-0.866-0.783c-0.395,0-0.775,0.184-0.988,0.344    l-0.183-0.512c0.266-0.2,0.768-0.4,1.299-0.4c0.973,0,1.414,0.608,1.414,1.239c0,0.544-0.312,1-0.912,1.231v0.016    c0.608,0.12,1.102,0.6,1.102,1.327c0,0.832-0.623,1.559-1.801,1.559c-0.555,0-1.041-0.184-1.284-0.352L0.388,49.548z"/>
		<path d="M4.621,50.435c-0.258,0-0.441-0.216-0.441-0.503c0-0.288,0.19-0.504,0.456-0.504s0.448,0.208,0.448,0.504    c0,0.288-0.182,0.503-0.456,0.503H4.621z"/>
		<path d="M7.273,50.435c-0.965,0-1.626-0.952-1.642-2.67c0-1.751,0.722-2.703,1.725-2.703c1.033,0,1.634,0.976,1.634,2.63    c0,1.767-0.631,2.743-1.71,2.743H7.273z M7.311,49.892c0.676,0,1.003-0.84,1.003-2.167c0-1.279-0.304-2.119-1.003-2.119    c-0.608,0-1.003,0.815-1.003,2.119c-0.015,1.351,0.38,2.167,0.996,2.167H7.311z"/>
		<path d="M0.228,65.397v-0.432l0.524-0.536c1.261-1.264,1.839-1.935,1.839-2.719c0-0.528-0.235-1.015-0.973-1.015    c-0.448,0-0.821,0.24-1.048,0.439L0.357,60.64c0.334-0.296,0.828-0.528,1.398-0.528c1.057,0,1.505,0.768,1.505,1.511    c0,0.959-0.661,1.735-1.702,2.791L1.17,64.798v0.016h2.211v0.583H0.228z"/>
		<path d="M4.621,65.485c-0.258,0-0.441-0.216-0.441-0.504c0-0.288,0.19-0.503,0.456-0.503s0.448,0.208,0.448,0.503    c0,0.288-0.182,0.504-0.456,0.504H4.621z"/>
		<path d="M8.648,60.792H6.764l-0.19,1.335c0.114-0.016,0.22-0.032,0.403-0.032c0.388,0,0.76,0.088,1.064,0.28    c0.387,0.224,0.707,0.68,0.707,1.335c0,1.015-0.768,1.775-1.839,1.775c-0.54,0-0.988-0.16-1.231-0.32l0.167-0.536    c0.205,0.128,0.608,0.288,1.064,0.288c0.623,0,1.17-0.432,1.163-1.136c0-0.664-0.433-1.143-1.414-1.143    c-0.289,0-0.509,0.024-0.691,0.056L6.285,60.2h2.363V60.792z"/>
		<path d="M0.228,80.447v-0.432l0.524-0.536c1.261-1.264,1.839-1.935,1.839-2.719c0-0.528-0.235-1.015-0.973-1.015    c-0.448,0-0.821,0.24-1.048,0.439L0.357,75.69c0.334-0.296,0.828-0.528,1.398-0.528c1.057,0,1.505,0.768,1.505,1.511    c0,0.959-0.661,1.735-1.702,2.791L1.17,79.848v0.016h2.211v0.583H0.228z"/>
		<path d="M4.621,80.535c-0.258,0-0.441-0.216-0.441-0.504c0-0.288,0.19-0.503,0.456-0.503s0.448,0.208,0.448,0.503    c0,0.288-0.182,0.504-0.456,0.504H4.621z"/>
		<path d="M7.273,80.535c-0.965,0-1.626-0.951-1.642-2.67c0-1.751,0.722-2.703,1.725-2.703c1.033,0,1.634,0.976,1.634,2.631    c0,1.767-0.631,2.742-1.71,2.742H7.273z M7.311,79.992c0.676,0,1.003-0.84,1.003-2.167c0-1.279-0.304-2.119-1.003-2.119    c-0.608,0-1.003,0.815-1.003,2.119c-0.015,1.351,0.38,2.167,0.996,2.167H7.311z"/>
		<path d="M1.68,90.956H1.665l-0.859,0.488l-0.129-0.536L1.755,90.3h0.57v5.197H1.68V90.956z"/>
		<path d="M4.621,95.585c-0.258,0-0.441-0.216-0.441-0.504c0-0.288,0.19-0.503,0.456-0.503s0.448,0.208,0.448,0.503    c0,0.288-0.182,0.504-0.456,0.504H4.621z"/>
		<path d="M8.648,90.892H6.764l-0.19,1.335c0.114-0.016,0.22-0.032,0.403-0.032c0.388,0,0.76,0.088,1.064,0.28    c0.387,0.224,0.707,0.68,0.707,1.335c0,1.015-0.768,1.775-1.839,1.775c-0.54,0-0.988-0.16-1.231-0.32l0.167-0.536    c0.205,0.128,0.608,0.288,1.064,0.288c0.623,0,1.17-0.432,1.163-1.136c0-0.664-0.433-1.143-1.414-1.143    c-0.289,0-0.509,0.024-0.691,0.056L6.285,90.3h2.363V90.892z"/>
		<path d="M1.68,106.006H1.665l-0.859,0.488l-0.129-0.536l1.079-0.608h0.57v5.197H1.68V106.006z"/>
		<path d="M4.621,110.635c-0.258,0-0.441-0.216-0.441-0.503c0-0.288,0.19-0.504,0.456-0.504s0.448,0.208,0.448,0.504    c0,0.288-0.182,0.503-0.456,0.503H4.621z"/>
		<path d="M7.273,110.635c-0.965,0-1.626-0.952-1.642-2.67c0-1.751,0.722-2.703,1.725-2.703c1.033,0,1.634,0.976,1.634,2.63    c0,1.767-0.631,2.743-1.71,2.743H7.273z M7.311,110.092c0.676,0,1.003-0.84,1.003-2.167c0-1.279-0.304-2.119-1.003-2.119    c-0.608,0-1.003,0.815-1.003,2.119c-0.015,1.351,0.38,2.167,0.996,2.167H7.311z"/>
	</g>
	<g>
		<path d="M24.715,110.991c0.289-0.072,0.752-0.12,1.208-0.12c0.661,0,1.087,0.12,1.398,0.392c0.266,0.208,0.433,0.527,0.433,0.951    c0,0.528-0.334,0.983-0.866,1.184v0.024c0.486,0.12,1.056,0.543,1.056,1.343c0,0.464-0.175,0.815-0.441,1.08    c-0.35,0.344-0.927,0.503-1.763,0.503c-0.456,0-0.806-0.032-1.026-0.064V110.991z M25.376,113.197h0.6    c0.691,0,1.102-0.392,1.102-0.911c0-0.624-0.449-0.88-1.117-0.88c-0.304,0-0.479,0.024-0.585,0.048V113.197z M25.376,115.772    c0.137,0.024,0.319,0.032,0.555,0.032c0.684,0,1.314-0.264,1.314-1.047c0-0.728-0.6-1.04-1.322-1.04h-0.547V115.772z"/>
		<path d="M28.811,110.623h0.669v5.677h-0.669V110.623z"/>
		<path d="M33.196,115.372c0,0.336,0.015,0.664,0.053,0.928h-0.601l-0.061-0.488h-0.023c-0.197,0.304-0.6,0.576-1.125,0.576    c-0.745,0-1.125-0.552-1.125-1.111c0-0.936,0.79-1.447,2.211-1.439v-0.08c0-0.32-0.083-0.904-0.836-0.896    c-0.349,0-0.707,0.104-0.965,0.288l-0.152-0.472c0.304-0.2,0.752-0.336,1.216-0.336c1.132,0,1.406,0.808,1.406,1.583V115.372z     M32.542,114.325c-0.729-0.016-1.558,0.12-1.558,0.872c0,0.464,0.289,0.672,0.623,0.672c0.486,0,0.798-0.32,0.904-0.648    c0.023-0.072,0.031-0.152,0.031-0.224V114.325z"/>
		<path d="M36.889,116.156c-0.175,0.088-0.562,0.224-1.056,0.224c-1.109,0-1.832-0.792-1.832-1.975c0-1.191,0.775-2.063,1.976-2.063    c0.395,0,0.745,0.104,0.927,0.208l-0.152,0.536c-0.16-0.088-0.41-0.184-0.775-0.184c-0.844,0-1.3,0.664-1.3,1.463    c0,0.896,0.547,1.447,1.277,1.447c0.38,0,0.631-0.096,0.821-0.184L36.889,116.156z"/>
		<path d="M38.341,114.205h0.015c0.091-0.136,0.212-0.304,0.319-0.44l1.087-1.335h0.798l-1.421,1.591l1.618,2.279h-0.813    l-1.261-1.855l-0.342,0.4v1.455h-0.669v-5.677h0.669V114.205z"/>
		<path d="M41.146,115.58c0.206,0.128,0.555,0.272,0.889,0.272c0.479,0,0.707-0.248,0.707-0.576c0-0.336-0.19-0.512-0.676-0.704    c-0.668-0.256-0.98-0.64-0.98-1.095c0-0.624,0.486-1.136,1.269-1.136c0.372,0,0.699,0.104,0.896,0.24l-0.16,0.503    c-0.144-0.088-0.41-0.224-0.752-0.224c-0.396,0-0.608,0.24-0.608,0.528c0,0.319,0.212,0.463,0.691,0.664    c0.631,0.248,0.965,0.583,0.965,1.159c0,0.688-0.509,1.167-1.368,1.167c-0.403,0-0.775-0.112-1.034-0.272L41.146,115.58z"/>
	</g>
	<g>
		<path d="M50.405,110.911v2.255h2.477v-2.255h0.669v5.389h-0.669v-2.526h-2.477v2.526h-0.669v-5.389H50.405z"/>
		<path d="M55.071,111.774c-0.243,0-0.403-0.2-0.403-0.432c0-0.248,0.167-0.44,0.418-0.44c0.243,0,0.41,0.192,0.41,0.44    c0,0.231-0.16,0.432-0.418,0.432H55.071z M54.752,116.3v-3.87h0.669v3.87H54.752z"/>
		<path d="M56.439,115.58c0.206,0.128,0.555,0.272,0.889,0.272c0.479,0,0.707-0.248,0.707-0.576c0-0.336-0.19-0.512-0.676-0.704    c-0.668-0.256-0.98-0.64-0.98-1.095c0-0.624,0.486-1.136,1.269-1.136c0.372,0,0.699,0.104,0.896,0.24l-0.16,0.503    c-0.144-0.088-0.41-0.224-0.752-0.224c-0.396,0-0.608,0.24-0.608,0.528c0,0.319,0.212,0.463,0.691,0.664    c0.631,0.248,0.965,0.583,0.965,1.159c0,0.688-0.509,1.167-1.368,1.167c-0.403,0-0.775-0.112-1.034-0.272L56.439,115.58z"/>
		<path d="M59.54,113.693c0-0.496-0.007-0.896-0.03-1.264h0.6l0.038,0.664h0.015c0.266-0.48,0.707-0.752,1.299-0.752    c0.897,0,1.565,0.792,1.565,1.967c0,1.391-0.813,2.079-1.672,2.079c-0.494,0-0.912-0.224-1.132-0.607h-0.015v2.103H59.54V113.693z     M60.208,114.725c0,0.096,0.007,0.2,0.03,0.288c0.114,0.487,0.524,0.823,0.996,0.823c0.707,0,1.117-0.607,1.117-1.495    c0-0.775-0.38-1.439-1.086-1.439c-0.456,0-0.889,0.335-1.019,0.872c-0.015,0.088-0.038,0.191-0.038,0.28V114.725z"/>
		<path d="M66.455,115.372c0,0.336,0.015,0.664,0.053,0.928h-0.601l-0.061-0.488h-0.023c-0.197,0.304-0.6,0.576-1.125,0.576    c-0.745,0-1.125-0.552-1.125-1.111c0-0.936,0.79-1.447,2.211-1.439v-0.08c0-0.32-0.083-0.904-0.836-0.896    c-0.349,0-0.707,0.104-0.965,0.288l-0.152-0.472c0.304-0.2,0.752-0.336,1.216-0.336c1.132,0,1.406,0.808,1.406,1.583V115.372z     M65.802,114.325c-0.729-0.016-1.558,0.12-1.558,0.872c0,0.464,0.289,0.672,0.623,0.672c0.486,0,0.798-0.32,0.904-0.648    c0.023-0.072,0.031-0.152,0.031-0.224V114.325z"/>
		<path d="M67.527,113.478c0-0.408-0.008-0.728-0.03-1.048h0.593l0.038,0.632h0.015c0.182-0.36,0.608-0.72,1.216-0.72    c0.509,0,1.299,0.32,1.299,1.647v2.311h-0.669v-2.231c0-0.624-0.22-1.151-0.851-1.151c-0.433,0-0.775,0.328-0.896,0.72    c-0.03,0.088-0.045,0.216-0.045,0.328v2.335h-0.669V113.478z"/>
		<path d="M72.064,111.774c-0.243,0-0.403-0.2-0.403-0.432c0-0.248,0.167-0.44,0.418-0.44c0.243,0,0.41,0.192,0.41,0.44    c0,0.231-0.16,0.432-0.418,0.432H72.064z M71.745,116.3v-3.87h0.669v3.87H71.745z"/>
		<path d="M76.145,116.156c-0.175,0.088-0.562,0.224-1.056,0.224c-1.109,0-1.832-0.792-1.832-1.975c0-1.191,0.775-2.063,1.976-2.063    c0.395,0,0.745,0.104,0.927,0.208l-0.152,0.536c-0.16-0.088-0.41-0.184-0.775-0.184c-0.844,0-1.3,0.664-1.3,1.463    c0,0.896,0.547,1.447,1.277,1.447c0.38,0,0.631-0.096,0.821-0.184L76.145,116.156z"/>
		<path d="M76.837,115.58c0.205,0.128,0.555,0.272,0.889,0.272c0.479,0,0.707-0.248,0.707-0.576c0-0.336-0.19-0.512-0.676-0.704    c-0.668-0.256-0.98-0.64-0.98-1.095c0-0.624,0.486-1.136,1.269-1.136c0.372,0,0.699,0.104,0.896,0.24l-0.16,0.503    c-0.144-0.088-0.41-0.224-0.752-0.224c-0.396,0-0.608,0.24-0.608,0.528c0,0.319,0.212,0.463,0.691,0.664    c0.63,0.248,0.965,0.583,0.965,1.159c0,0.688-0.509,1.167-1.368,1.167c-0.403,0-0.775-0.112-1.033-0.272L76.837,115.58z"/>
	</g>
	<g>
		<path d="M85.21,116.3l-1.3-5.389h0.699l0.608,2.727c0.152,0.68,0.289,1.343,0.38,1.863h0.015c0.084-0.536,0.243-1.175,0.418-1.871    l0.684-2.719h0.691l0.623,2.735c0.145,0.647,0.281,1.279,0.357,1.847h0.015c0.106-0.592,0.25-1.191,0.41-1.863l0.676-2.719h0.676    l-1.451,5.389h-0.691l-0.646-2.798c-0.16-0.696-0.266-1.224-0.334-1.767h-0.015c-0.083,0.543-0.205,1.063-0.395,1.759    l-0.729,2.807H85.21z"/>
		<path d="M90.743,110.623h0.669v2.415h0.015c0.106-0.2,0.273-0.384,0.479-0.496c0.198-0.128,0.433-0.2,0.684-0.2    c0.494,0,1.284,0.32,1.284,1.655v2.303h-0.669v-2.231c0-0.624-0.22-1.143-0.851-1.143c-0.433,0-0.768,0.32-0.896,0.704    c-0.038,0.096-0.045,0.2-0.045,0.335v2.335h-0.669V110.623z"/>
		<path d="M95.28,111.774c-0.243,0-0.403-0.2-0.403-0.432c0-0.248,0.167-0.44,0.418-0.44c0.243,0,0.41,0.192,0.41,0.44    c0,0.231-0.16,0.432-0.418,0.432H95.28z M94.961,116.3v-3.87h0.669v3.87H94.961z"/>
		<path d="M97.545,111.502v0.927h0.958v0.536h-0.958v2.079c0,0.48,0.129,0.751,0.501,0.751c0.182,0,0.289-0.016,0.388-0.048    l0.03,0.536c-0.129,0.048-0.334,0.096-0.593,0.096c-0.312,0-0.562-0.112-0.722-0.296c-0.182-0.216-0.258-0.56-0.258-1.016v-2.103    h-0.57v-0.536h0.57v-0.711L97.545,111.502z"/>
		<path d="M99.589,114.493c0.015,0.944,0.585,1.335,1.254,1.335c0.479,0,0.775-0.088,1.018-0.2l0.122,0.504    c-0.235,0.112-0.646,0.248-1.231,0.248c-1.125,0-1.809-0.792-1.809-1.951c0-1.167,0.661-2.087,1.733-2.087    c1.2,0,1.512,1.111,1.512,1.823c0,0.144-0.008,0.248-0.023,0.328H99.589z M101.542,113.989c0.007-0.448-0.175-1.144-0.919-1.144    c-0.684,0-0.973,0.656-1.026,1.144H101.542z"/>
		<path d="M102.926,115.58c0.206,0.128,0.555,0.272,0.889,0.272c0.479,0,0.707-0.248,0.707-0.576c0-0.336-0.19-0.512-0.676-0.704    c-0.668-0.256-0.98-0.64-0.98-1.095c0-0.624,0.486-1.136,1.269-1.136c0.372,0,0.699,0.104,0.896,0.24l-0.16,0.503    c-0.144-0.088-0.41-0.224-0.752-0.224c-0.396,0-0.608,0.24-0.608,0.528c0,0.319,0.212,0.463,0.691,0.664    c0.631,0.248,0.965,0.583,0.965,1.159c0,0.688-0.509,1.167-1.368,1.167c-0.403,0-0.775-0.112-1.034-0.272L102.926,115.58z"/>
	</g>
	<g>
		<path d="M128.41,116.3l-1.299-5.389h0.699l0.607,2.727c0.152,0.68,0.289,1.343,0.38,1.863h0.015    c0.084-0.536,0.244-1.175,0.418-1.871l0.685-2.719h0.691l0.623,2.735c0.145,0.647,0.281,1.279,0.357,1.847h0.015    c0.107-0.592,0.251-1.191,0.41-1.863l0.677-2.719h0.677l-1.451,5.389h-0.691l-0.646-2.798c-0.16-0.696-0.266-1.224-0.334-1.767    h-0.016c-0.084,0.543-0.205,1.063-0.395,1.759l-0.73,2.807H128.41z"/>
		<path d="M135.228,116.388c-0.987,0-1.763-0.768-1.763-1.991c0-1.295,0.812-2.055,1.823-2.055c1.057,0,1.771,0.808,1.771,1.983    c0,1.439-0.949,2.063-1.824,2.063H135.228z M135.258,115.86c0.639,0,1.117-0.631,1.117-1.511c0-0.655-0.312-1.479-1.102-1.479    c-0.783,0-1.125,0.768-1.125,1.503c0,0.847,0.456,1.487,1.102,1.487H135.258z"/>
		<path d="M137.902,113.478c0-0.408-0.015-0.728-0.029-1.048h0.584l0.031,0.624h0.022c0.205-0.368,0.548-0.712,1.163-0.712    c0.494,0,0.873,0.32,1.033,0.776h0.016c0.113-0.224,0.266-0.384,0.418-0.504c0.22-0.176,0.455-0.272,0.805-0.272    c0.494,0,1.216,0.336,1.216,1.679v2.279h-0.653v-2.191c0-0.751-0.266-1.191-0.798-1.191c-0.388,0-0.677,0.296-0.798,0.632    c-0.03,0.104-0.053,0.232-0.053,0.352v2.398h-0.654v-2.327c0-0.616-0.258-1.056-0.768-1.056c-0.41,0-0.722,0.352-0.828,0.704    c-0.037,0.104-0.053,0.224-0.053,0.344v2.335h-0.654V113.478z"/>
		<path d="M144.621,114.493c0.016,0.944,0.585,1.335,1.254,1.335c0.479,0,0.775-0.088,1.018-0.2l0.122,0.504    c-0.235,0.112-0.646,0.248-1.231,0.248c-1.124,0-1.809-0.792-1.809-1.951c0-1.167,0.662-2.087,1.733-2.087    c1.2,0,1.513,1.111,1.513,1.823c0,0.144-0.008,0.248-0.023,0.328H144.621z M146.574,113.989c0.008-0.448-0.175-1.144-0.92-1.144    c-0.684,0-0.973,0.656-1.025,1.144H146.574z"/>
		<path d="M148.049,113.478c0-0.408-0.008-0.728-0.03-1.048h0.593l0.038,0.632h0.015c0.183-0.36,0.608-0.72,1.217-0.72    c0.508,0,1.299,0.32,1.299,1.647v2.311h-0.669v-2.231c0-0.624-0.22-1.151-0.851-1.151c-0.434,0-0.775,0.328-0.896,0.72    c-0.031,0.088-0.046,0.216-0.046,0.328v2.335h-0.669V113.478z"/>
	</g>
	<g>
		<path d="M166.518,113.933c-0.039-0.744-0.084-1.663-0.084-2.327h-0.016c-0.182,0.624-0.387,1.311-0.646,2.047l-0.904,2.614h-0.501    l-0.836-2.566c-0.244-0.76-0.441-1.455-0.586-2.095h-0.015c-0.015,0.671-0.054,1.575-0.099,2.383l-0.137,2.311h-0.631l0.357-5.389    h0.844l0.873,2.607c0.213,0.664,0.38,1.263,0.517,1.823h0.016c0.137-0.543,0.319-1.144,0.547-1.823l0.912-2.607h0.843l0.32,5.389    h-0.654L166.518,113.933z"/>
		<path d="M168.714,114.493c0.015,0.944,0.585,1.335,1.254,1.335c0.479,0,0.774-0.088,1.019-0.2l0.121,0.504    c-0.235,0.112-0.646,0.248-1.23,0.248c-1.125,0-1.809-0.792-1.809-1.951c0-1.167,0.66-2.087,1.732-2.087    c1.201,0,1.512,1.111,1.512,1.823c0,0.144-0.008,0.248-0.022,0.328H168.714z M170.667,113.989    c0.007-0.448-0.175-1.144-0.919-1.144c-0.685,0-0.973,0.656-1.026,1.144H170.667z"/>
		<path d="M172.142,113.478c0-0.408-0.007-0.728-0.03-1.048h0.593l0.038,0.632h0.016c0.182-0.36,0.607-0.72,1.215-0.72    c0.51,0,1.3,0.32,1.3,1.647v2.311h-0.669v-2.231c0-0.624-0.221-1.151-0.852-1.151c-0.433,0-0.774,0.328-0.896,0.72    c-0.029,0.088-0.045,0.216-0.045,0.328v2.335h-0.669V113.478z"/>
	</g>
	<g>
		<path d="M205.215,113.933c-0.039-0.744-0.084-1.663-0.084-2.327h-0.016c-0.182,0.624-0.387,1.311-0.646,2.047l-0.904,2.614h-0.501    l-0.836-2.566c-0.244-0.76-0.441-1.455-0.586-2.095h-0.015c-0.015,0.671-0.054,1.575-0.099,2.383l-0.137,2.311h-0.631l0.357-5.389    h0.843l0.874,2.607c0.213,0.664,0.38,1.263,0.517,1.823h0.016c0.137-0.543,0.319-1.144,0.547-1.823l0.912-2.607h0.843l0.32,5.389    h-0.654L205.215,113.933z"/>
		<path d="M210.063,115.236c0,0.408,0.007,0.76,0.03,1.063h-0.593l-0.038-0.632h-0.016c-0.166,0.312-0.562,0.72-1.215,0.72    c-0.578,0-1.27-0.344-1.27-1.695v-2.263h0.669v2.135c0,0.735,0.22,1.239,0.821,1.239c0.447,0,0.76-0.328,0.881-0.648    c0.038-0.096,0.061-0.224,0.061-0.359v-2.367h0.669V115.236z"/>
		<path d="M211.082,115.58c0.205,0.128,0.555,0.272,0.889,0.272c0.479,0,0.707-0.248,0.707-0.576c0-0.336-0.189-0.512-0.676-0.704    c-0.669-0.256-0.98-0.64-0.98-1.095c0-0.624,0.486-1.136,1.27-1.136c0.371,0,0.698,0.104,0.896,0.24l-0.16,0.503    c-0.145-0.088-0.41-0.224-0.752-0.224c-0.396,0-0.607,0.24-0.607,0.528c0,0.319,0.212,0.463,0.691,0.664    c0.63,0.248,0.965,0.583,0.965,1.159c0,0.688-0.51,1.167-1.368,1.167c-0.403,0-0.774-0.112-1.033-0.272L211.082,115.58z"/>
		<path d="M214.184,110.623h0.668v5.677h-0.668V110.623z"/>
		<path d="M216.296,111.774c-0.243,0-0.403-0.2-0.403-0.432c0-0.248,0.168-0.44,0.418-0.44c0.244,0,0.41,0.192,0.41,0.44    c0,0.231-0.159,0.432-0.418,0.432H216.296z M215.977,116.3v-3.87h0.669v3.87H215.977z"/>
		<path d="M217.755,113.478c0-0.408-0.015-0.728-0.03-1.048h0.585l0.03,0.624h0.023c0.205-0.368,0.547-0.712,1.162-0.712    c0.494,0,0.874,0.32,1.033,0.776h0.016c0.113-0.224,0.266-0.384,0.418-0.504c0.221-0.176,0.455-0.272,0.805-0.272    c0.494,0,1.217,0.336,1.217,1.679v2.279h-0.654v-2.191c0-0.751-0.266-1.191-0.797-1.191c-0.389,0-0.677,0.296-0.799,0.632    c-0.029,0.104-0.053,0.232-0.053,0.352v2.398h-0.653v-2.327c0-0.616-0.259-1.056-0.768-1.056c-0.411,0-0.722,0.352-0.829,0.704    c-0.037,0.104-0.053,0.224-0.053,0.344v2.335h-0.653V113.478z"/>
		<path d="M224.002,115.58c0.205,0.128,0.555,0.272,0.889,0.272c0.479,0,0.707-0.248,0.707-0.576c0-0.336-0.189-0.512-0.676-0.704    c-0.669-0.256-0.98-0.64-0.98-1.095c0-0.624,0.486-1.136,1.27-1.136c0.371,0,0.698,0.104,0.896,0.24l-0.16,0.503    c-0.145-0.088-0.41-0.224-0.752-0.224c-0.396,0-0.607,0.24-0.607,0.528c0,0.319,0.212,0.463,0.691,0.664    c0.63,0.248,0.965,0.583,0.965,1.159c0,0.688-0.51,1.167-1.368,1.167c-0.403,0-0.774-0.112-1.033-0.272L224.002,115.58z"/>
	</g>
	<g>
		<path d="M233.387,116.124c-0.236,0.128-0.73,0.256-1.354,0.256c-1.443,0-2.522-0.959-2.522-2.727c0-1.687,1.087-2.822,2.675-2.822    c0.631,0,1.041,0.144,1.216,0.231l-0.167,0.576c-0.243-0.128-0.601-0.224-1.025-0.224c-1.201,0-1.999,0.808-1.999,2.215    c0,1.319,0.722,2.159,1.96,2.159c0.41,0,0.821-0.088,1.088-0.224L233.387,116.124z"/>
		<path d="M234.199,110.623h0.67v2.415h0.015c0.106-0.2,0.273-0.384,0.479-0.496c0.198-0.128,0.433-0.2,0.685-0.2    c0.493,0,1.283,0.32,1.283,1.655v2.303h-0.668v-2.231c0-0.624-0.221-1.143-0.852-1.143c-0.434,0-0.768,0.32-0.896,0.704    c-0.038,0.096-0.045,0.2-0.045,0.335v2.335h-0.67V110.623z"/>
		<path d="M238.418,113.637c0-0.456-0.008-0.848-0.03-1.208h0.585l0.03,0.76h0.022c0.168-0.52,0.578-0.848,1.026-0.848    c0.068,0,0.122,0.008,0.183,0.016v0.664c-0.068-0.008-0.137-0.016-0.229-0.016c-0.471,0-0.805,0.375-0.896,0.896    c-0.016,0.104-0.022,0.216-0.022,0.328v2.071h-0.669V113.637z"/>
		<path d="M241.253,111.774c-0.243,0-0.403-0.2-0.403-0.432c0-0.248,0.168-0.44,0.418-0.44c0.244,0,0.41,0.192,0.41,0.44    c0,0.231-0.159,0.432-0.418,0.432H241.253z M240.934,116.3v-3.87h0.669v3.87H240.934z"/>
		<path d="M242.621,115.58c0.205,0.128,0.555,0.272,0.889,0.272c0.479,0,0.707-0.248,0.707-0.576c0-0.336-0.19-0.512-0.677-0.704    c-0.669-0.256-0.979-0.64-0.979-1.095c0-0.624,0.486-1.136,1.269-1.136c0.372,0,0.698,0.104,0.896,0.24l-0.159,0.503    c-0.145-0.088-0.41-0.224-0.752-0.224c-0.396,0-0.608,0.24-0.608,0.528c0,0.319,0.212,0.463,0.691,0.664    c0.63,0.248,0.965,0.583,0.965,1.159c0,0.688-0.509,1.167-1.368,1.167c-0.402,0-0.774-0.112-1.033-0.272L242.621,115.58z"/>
		<path d="M246.527,111.502v0.927h0.957v0.536h-0.957v2.079c0,0.48,0.129,0.751,0.501,0.751c0.183,0,0.288-0.016,0.388-0.048    l0.03,0.536c-0.13,0.048-0.335,0.096-0.593,0.096c-0.312,0-0.562-0.112-0.723-0.296c-0.182-0.216-0.258-0.56-0.258-1.016v-2.103    h-0.57v-0.536h0.57v-0.711L246.527,111.502z"/>
		<path d="M248.557,111.774c-0.244,0-0.403-0.2-0.403-0.432c0-0.248,0.167-0.44,0.418-0.44c0.243,0,0.41,0.192,0.41,0.44    c0,0.231-0.159,0.432-0.418,0.432H248.557z M248.236,116.3v-3.87h0.67v3.87H248.236z"/>
		<path d="M252.606,115.372c0,0.336,0.015,0.664,0.054,0.928h-0.602l-0.061-0.488h-0.022c-0.197,0.304-0.601,0.576-1.124,0.576    c-0.745,0-1.125-0.552-1.125-1.111c0-0.936,0.79-1.447,2.211-1.439v-0.08c0-0.32-0.084-0.904-0.836-0.896    c-0.35,0-0.707,0.104-0.965,0.288l-0.152-0.472c0.305-0.2,0.752-0.336,1.217-0.336c1.132,0,1.405,0.808,1.405,1.583V115.372z     M251.953,114.325c-0.73-0.016-1.559,0.12-1.559,0.872c0,0.464,0.289,0.672,0.623,0.672c0.486,0,0.799-0.32,0.904-0.648    c0.023-0.072,0.031-0.152,0.031-0.224V114.325z"/>
		<path d="M253.678,113.478c0-0.408-0.008-0.728-0.029-1.048h0.592l0.039,0.632h0.015c0.183-0.36,0.608-0.72,1.216-0.72    c0.509,0,1.299,0.32,1.299,1.647v2.311h-0.668v-2.231c0-0.624-0.221-1.151-0.852-1.151c-0.434,0-0.775,0.328-0.896,0.72    c-0.03,0.088-0.045,0.216-0.045,0.328v2.335h-0.67V113.478z"/>
		<path d="M257.805,115.58c0.205,0.128,0.555,0.272,0.89,0.272c0.479,0,0.706-0.248,0.706-0.576c0-0.336-0.189-0.512-0.676-0.704    c-0.668-0.256-0.98-0.64-0.98-1.095c0-0.624,0.486-1.136,1.27-1.136c0.372,0,0.699,0.104,0.896,0.24l-0.16,0.503    c-0.144-0.088-0.41-0.224-0.752-0.224c-0.395,0-0.607,0.24-0.607,0.528c0,0.319,0.213,0.463,0.691,0.664    c0.631,0.248,0.965,0.583,0.965,1.159c0,0.688-0.509,1.167-1.367,1.167c-0.403,0-0.775-0.112-1.033-0.272L257.805,115.58z"/>
	</g>
</g>
</svg>