<svg xmlns="http://www.w3.org/2000/svg" xmlns:xlink="http://www.w3.org/1999/xlink" version="1.1" x="0px" y="0px" width="355.898px" height="170.724px" viewBox="0 0 355.898 170.724" enable-background="new 0 0 355.898 170.724" xml:space="preserve">
<g id="wide">
</g>
<g id="text_column" display="none">
</g>
<g id="art">
	<g>
		<path d="M2.719,5.852V4.249H0V3.736L2.61,0h0.855v3.637h0.819v0.612H3.466v1.603H2.719z M2.719,3.637V1.683    c0-0.306,0.009-0.612,0.027-0.918H2.719c-0.18,0.342-0.324,0.594-0.486,0.864l-1.432,1.99v0.018H2.719z"/>
		<path d="M8.379,0.666H6.147L5.922,2.169c0.135-0.018,0.261-0.036,0.477-0.036c0.459,0,0.9,0.099,1.26,0.315    c0.459,0.252,0.837,0.765,0.837,1.503c0,1.143-0.909,1.999-2.179,1.999c-0.639,0-1.17-0.18-1.458-0.36l0.198-0.603    c0.243,0.144,0.72,0.324,1.26,0.324c0.738,0,1.387-0.486,1.377-1.278c0-0.748-0.513-1.288-1.674-1.288    c-0.342,0-0.603,0.027-0.819,0.063L5.58,0h2.8V0.666z"/>
		<path d="M2.719,21.582v-1.603H0v-0.513l2.61-3.736h0.855v3.637h0.819v0.612H3.466v1.603H2.719z M2.719,19.367v-1.954    c0-0.306,0.009-0.612,0.027-0.918H2.719c-0.18,0.342-0.324,0.594-0.486,0.864l-1.432,1.989v0.018H2.719z"/>
		<path d="M6.75,21.681c-1.143,0-1.926-1.071-1.944-3.007c0-1.972,0.855-3.043,2.043-3.043c1.225,0,1.936,1.098,1.936,2.962    c0,1.989-0.747,3.088-2.025,3.088H6.75z M6.795,21.068c0.801,0,1.188-0.945,1.188-2.439c0-1.44-0.36-2.386-1.188-2.386    c-0.72,0-1.188,0.918-1.188,2.386c-0.018,1.521,0.45,2.439,1.179,2.439H6.795z"/>
		<path d="M0.459,36.411c0.225,0.135,0.738,0.36,1.296,0.36c1.008,0,1.333-0.639,1.323-1.134c-0.009-0.819-0.747-1.17-1.512-1.17    H1.125v-0.594h0.441c0.576,0,1.305-0.297,1.305-0.99C2.872,32.414,2.575,32,1.845,32c-0.468,0-0.918,0.207-1.17,0.387    l-0.216-0.576c0.315-0.225,0.909-0.45,1.54-0.45c1.152,0,1.674,0.684,1.674,1.396c0,0.612-0.369,1.125-1.08,1.386v0.018    c0.72,0.135,1.305,0.675,1.305,1.495c0,0.936-0.738,1.755-2.134,1.755c-0.657,0-1.233-0.207-1.521-0.396L0.459,36.411z"/>
		<path d="M8.379,32.126H6.147l-0.225,1.503c0.135-0.018,0.261-0.036,0.477-0.036c0.459,0,0.9,0.099,1.26,0.315    c0.459,0.252,0.837,0.765,0.837,1.503c0,1.143-0.909,1.999-2.179,1.999c-0.639,0-1.17-0.18-1.458-0.36l0.198-0.603    c0.243,0.144,0.72,0.324,1.26,0.324c0.738,0,1.387-0.486,1.377-1.278c0-0.748-0.513-1.288-1.674-1.288    c-0.342,0-0.603,0.027-0.819,0.063L5.58,31.46h2.8V32.126z"/>
		<path d="M0.459,52.141c0.225,0.135,0.738,0.36,1.296,0.36c1.008,0,1.333-0.639,1.323-1.134c-0.009-0.819-0.747-1.17-1.512-1.17    H1.125v-0.594h0.441c0.576,0,1.305-0.297,1.305-0.99c0-0.468-0.297-0.882-1.026-0.882c-0.468,0-0.918,0.207-1.17,0.387    l-0.216-0.576c0.315-0.225,0.909-0.45,1.54-0.45c1.152,0,1.674,0.684,1.674,1.396c0,0.612-0.369,1.125-1.08,1.386v0.018    c0.72,0.135,1.305,0.675,1.305,1.494c0,0.937-0.738,1.756-2.134,1.756c-0.657,0-1.233-0.207-1.521-0.396L0.459,52.141z"/>
		<path d="M6.75,53.141c-1.143,0-1.926-1.071-1.944-3.007c0-1.972,0.855-3.043,2.043-3.043c1.225,0,1.936,1.098,1.936,2.962    c0,1.989-0.747,3.088-2.025,3.088H6.75z M6.795,52.528c0.801,0,1.188-0.945,1.188-2.439c0-1.44-0.36-2.386-1.188-2.386    c-0.72,0-1.188,0.918-1.188,2.386c-0.018,1.521,0.45,2.439,1.179,2.439H6.795z"/>
		<path d="M0.27,68.771v-0.486l0.621-0.603c1.495-1.422,2.179-2.179,2.179-3.061c0-0.594-0.279-1.143-1.152-1.143    c-0.531,0-0.972,0.27-1.243,0.495l-0.252-0.558c0.396-0.333,0.981-0.594,1.657-0.594c1.251,0,1.782,0.864,1.782,1.702    c0,1.08-0.783,1.953-2.017,3.142l-0.459,0.432v0.018h2.62v0.657H0.27z"/>
		<path d="M8.379,63.586H6.147l-0.225,1.503c0.135-0.018,0.261-0.036,0.477-0.036c0.459,0,0.9,0.099,1.26,0.315    c0.459,0.252,0.837,0.765,0.837,1.503c0,1.143-0.909,1.999-2.179,1.999c-0.639,0-1.17-0.18-1.458-0.36l0.198-0.603    c0.243,0.144,0.72,0.324,1.26,0.324c0.738,0,1.387-0.486,1.377-1.278c0-0.748-0.513-1.288-1.674-1.288    c-0.342,0-0.603,0.027-0.819,0.063L5.58,62.92h2.8V63.586z"/>
		<path d="M0.27,84.501v-0.486l0.621-0.603c1.495-1.422,2.179-2.179,2.179-3.061c0-0.594-0.279-1.143-1.152-1.143    c-0.531,0-0.972,0.27-1.243,0.495l-0.252-0.558c0.396-0.333,0.981-0.594,1.657-0.594c1.251,0,1.782,0.864,1.782,1.701    c0,1.081-0.783,1.954-2.017,3.142l-0.459,0.432v0.018h2.62v0.657H0.27z"/>
		<path d="M6.75,84.601c-1.143,0-1.926-1.071-1.944-3.007c0-1.972,0.855-3.043,2.043-3.043c1.225,0,1.936,1.098,1.936,2.962    c0,1.989-0.747,3.088-2.025,3.088H6.75z M6.795,83.988c0.801,0,1.188-0.945,1.188-2.439c0-1.44-0.36-2.386-1.188-2.386    c-0.72,0-1.188,0.918-1.188,2.386c-0.018,1.521,0.45,2.439,1.179,2.439H6.795z"/>
		<path d="M1.989,95.118H1.971l-1.017,0.549l-0.153-0.603L2.08,94.38h0.675v5.852H1.989V95.118z"/>
		<path d="M8.379,95.046H6.147l-0.225,1.503c0.135-0.018,0.261-0.036,0.477-0.036c0.459,0,0.9,0.099,1.26,0.315    c0.459,0.252,0.837,0.765,0.837,1.503c0,1.143-0.909,1.999-2.179,1.999c-0.639,0-1.17-0.18-1.458-0.36l0.198-0.603    c0.243,0.144,0.72,0.324,1.26,0.324c0.738,0,1.387-0.486,1.377-1.278c0-0.748-0.513-1.288-1.674-1.288    c-0.342,0-0.603,0.027-0.819,0.063L5.58,94.38h2.8V95.046z"/>
		<path d="M1.989,110.848H1.971l-1.017,0.549l-0.153-0.603l1.279-0.684h0.675v5.852H1.989V110.848z"/>
		<path d="M6.75,116.061c-1.143,0-1.926-1.071-1.944-3.007c0-1.972,0.855-3.043,2.043-3.043c1.225,0,1.936,1.098,1.936,2.962    c0,1.989-0.747,3.088-2.025,3.088H6.75z M6.795,115.448c0.801,0,1.188-0.945,1.188-2.439c0-1.44-0.36-2.386-1.188-2.386    c-0.72,0-1.188,0.918-1.188,2.386c-0.018,1.521,0.45,2.439,1.179,2.439H6.795z"/>
		<path d="M8.38,126.506H6.147l-0.225,1.504c0.135-0.019,0.261-0.036,0.477-0.036c0.459,0,0.9,0.099,1.26,0.314    c0.459,0.252,0.837,0.766,0.837,1.504c0,1.144-0.909,1.998-2.179,1.998c-0.639,0-1.17-0.18-1.458-0.359l0.198-0.604    c0.243,0.145,0.72,0.324,1.26,0.324c0.738,0,1.387-0.486,1.377-1.278c0-0.747-0.513-1.287-1.674-1.287    c-0.342,0-0.604,0.026-0.819,0.062l0.378-2.809h2.8V126.506z"/>
		<path d="M6.75,147.521c-1.143,0-1.926-1.071-1.944-3.007c0-1.972,0.855-3.043,2.043-3.043c1.225,0,1.936,1.099,1.936,2.962    c0,1.99-0.747,3.088-2.025,3.088H6.75z M6.795,146.909c0.801,0,1.188-0.945,1.188-2.44c0-1.44-0.36-2.386-1.188-2.386    c-0.72,0-1.188,0.919-1.188,2.386c-0.018,1.521,0.45,2.44,1.179,2.44H6.795z"/>
	</g>
	<path fill="none" stroke="#A7A9AC" stroke-width="0.35" stroke-linejoin="round" stroke-miterlimit="10" d="M13.749,2.666h342.096    M13.749,18.417h342.096 M13.749,34.17h342.096 M13.749,49.923h342.096 M13.749,65.516h342.096 M13.749,81.268h342.096    M13.749,97.021h342.096 M13.749,112.773h342.096 M13.749,128.525h342.096"/>
	<path fill="#A7A9AC" stroke="#000000" stroke-width="0.5" stroke-linejoin="round" stroke-miterlimit="10" d="M331.182,137.913   h15.275v6.305h-15.275V137.913z M296.973,137.913h15.275v6.305h-15.275V137.913z M262.764,134.731h15.274v9.487h-15.274V134.731z    M228.553,134.731h15.275v9.487h-15.275V134.731z M194.344,122.161h15.275v22.058h-15.275V122.161z M160.134,122.161h15.274v22.058   h-15.274V122.161z M125.924,115.955h15.275v28.263h-15.275V115.955z M91.714,103.385h15.275v40.833H91.714V103.385z M57.505,40.375   H72.78v103.843H57.505V40.375z M23.295,27.806H38.57v116.413H23.295V27.806z"/>
	<path fill="none" stroke="#000000" stroke-width="0.5" stroke-linejoin="round" stroke-miterlimit="10" d="M28.864,19.054h3.978    M28.864,36.674h3.978 M30.933,27.806v-8.751 M30.933,36.674v-8.869"/>
	<path fill="none" stroke="#000000" stroke-width="0.5" stroke-linejoin="round" stroke-miterlimit="10" d="M63.074,31.783h3.978    M63.074,48.968h3.978 M65.143,40.375v-8.592 M65.143,48.968v-8.592"/>
	<path fill="none" stroke="#000000" stroke-width="0.5" stroke-linejoin="round" stroke-miterlimit="10" d="M97.284,97.18h3.978    M97.284,109.432h3.978 M99.352,103.385V97.18 M99.352,109.432v-6.046"/>
	<path fill="none" stroke="#000000" stroke-width="0.5" stroke-linejoin="round" stroke-miterlimit="10" d="M131.493,110.705h3.978    M131.493,121.143h3.978 M133.562,115.955v-5.25 M133.562,121.143v-5.188"/>
	<path fill="none" stroke="#000000" stroke-width="0.5" stroke-linejoin="round" stroke-miterlimit="10" d="M165.703,117.546h3.978    M165.703,126.865h3.978 M167.771,122.161v-4.614 M167.771,126.865v-4.705"/>
	<path fill="none" stroke="#000000" stroke-width="0.5" stroke-linejoin="round" stroke-miterlimit="10" d="M199.912,117.546h3.979    M199.912,126.865h3.979 M201.98,122.161v-4.614 M201.98,126.865v-4.705"/>
	<path fill="none" stroke="#000000" stroke-width="0.5" stroke-linejoin="round" stroke-miterlimit="10" d="M234.123,131.708h3.977    M234.123,137.9h3.977 M236.191,134.731v-3.023 M236.191,137.9v-3.169"/>
	<path fill="none" stroke="#000000" stroke-width="0.5" stroke-linejoin="round" stroke-miterlimit="10" d="M268.332,131.708h3.978    M268.332,137.9h3.978 M270.4,134.731v-3.023 M270.4,137.9v-3.169"/>
	<path fill="none" stroke="#000000" stroke-width="0.5" stroke-linejoin="round" stroke-miterlimit="10" d="M302.542,135.367h3.978    M302.542,140.459h3.978 M304.61,137.913v-2.546 M304.61,140.459v-2.546"/>
	<path fill="none" stroke="#000000" stroke-width="0.5" stroke-linejoin="round" stroke-miterlimit="10" d="M336.751,135.367h3.979    M336.751,140.459h3.979 M338.82,137.913v-2.546 M338.82,140.459v-2.546"/>
	<polyline fill="none" stroke="#000000" stroke-width="0.5" stroke-linejoin="round" stroke-miterlimit="10" points="   355.898,144.218 13.769,144.218 13.769,2.666  "/>
	<g>
		<path d="M20.184,148.985v1.833h2.119v-1.833h0.572v4.381h-0.572v-2.054h-2.119v2.054h-0.572v-4.381H20.184z"/>
		<path d="M26.469,152.501c0,0.332,0.007,0.618,0.026,0.865h-0.507l-0.032-0.514h-0.013c-0.143,0.254-0.481,0.585-1.04,0.585    c-0.494,0-1.085-0.279-1.085-1.378v-1.839h0.572v1.735c0,0.598,0.188,1.008,0.702,1.008c0.384,0,0.65-0.267,0.754-0.527    c0.033-0.078,0.052-0.182,0.052-0.292v-1.924h0.572V152.501z"/>
		<path d="M27.418,151.202c0-0.371-0.006-0.689-0.026-0.981h0.5l0.026,0.617h0.02c0.143-0.422,0.494-0.689,0.877-0.689    c0.059,0,0.104,0.007,0.156,0.013v0.54c-0.058-0.006-0.117-0.013-0.195-0.013c-0.403,0-0.689,0.306-0.767,0.728    c-0.013,0.084-0.02,0.176-0.02,0.267v1.684h-0.572V151.202z"/>
		<path d="M30.232,149.466v0.754h0.819v0.436h-0.819v1.69c0,0.39,0.11,0.611,0.429,0.611c0.156,0,0.247-0.013,0.331-0.039    l0.026,0.436c-0.111,0.039-0.286,0.078-0.507,0.078c-0.266,0-0.481-0.091-0.617-0.24c-0.156-0.176-0.221-0.455-0.221-0.826v-1.709    h-0.487v-0.436h0.487v-0.579L30.232,149.466z"/>
		<path d="M31.617,152.781c0.176,0.104,0.475,0.221,0.761,0.221c0.409,0,0.604-0.201,0.604-0.468c0-0.273-0.163-0.416-0.579-0.572    c-0.572-0.208-0.838-0.52-0.838-0.89c0-0.507,0.416-0.923,1.085-0.923c0.318,0,0.598,0.084,0.767,0.195l-0.137,0.409    c-0.124-0.071-0.351-0.182-0.644-0.182c-0.338,0-0.52,0.195-0.52,0.429c0,0.26,0.182,0.377,0.592,0.54    c0.54,0.202,0.825,0.475,0.825,0.943c0,0.559-0.436,0.949-1.17,0.949c-0.345,0-0.663-0.091-0.884-0.221L31.617,152.781z"/>
		<path d="M36.232,148.985v2.6c0,0.975,0.436,1.391,1.021,1.391c0.644,0,1.066-0.429,1.066-1.391v-2.6h0.572v2.561    c0,1.346-0.708,1.892-1.658,1.892c-0.897,0-1.573-0.507-1.573-1.872v-2.581H36.232z"/>
		<path d="M39.8,152.677c0.253,0.156,0.618,0.279,1.008,0.279c0.579,0,0.917-0.299,0.917-0.741c0-0.41-0.234-0.65-0.826-0.871    c-0.715-0.247-1.157-0.624-1.157-1.235c0-0.682,0.565-1.189,1.417-1.189c0.442,0,0.773,0.104,0.962,0.208l-0.156,0.468    c-0.136-0.084-0.429-0.208-0.825-0.208c-0.598,0-0.826,0.357-0.826,0.656c0,0.403,0.267,0.604,0.871,0.839    c0.741,0.292,1.111,0.644,1.111,1.287c0,0.67-0.494,1.261-1.527,1.261c-0.422,0-0.884-0.13-1.118-0.286L39.8,152.677z"/>
		<path d="M24.844,162.289c0.266-0.02,0.487-0.091,0.624-0.24c0.156-0.176,0.221-0.429,0.221-1.183v-2.646h0.572v2.867    c0,0.611-0.098,1.007-0.377,1.293c-0.254,0.253-0.67,0.357-0.975,0.357L24.844,162.289z M25.962,157.687    c-0.208,0-0.344-0.163-0.344-0.351c0-0.201,0.143-0.357,0.357-0.357s0.351,0.156,0.351,0.357c0,0.188-0.13,0.351-0.357,0.351    H25.962z"/>
		<path d="M28.478,161.438c-0.845,0-1.508-0.624-1.508-1.618c0-1.053,0.695-1.671,1.56-1.671c0.903,0,1.515,0.657,1.515,1.612    c0,1.17-0.812,1.677-1.56,1.677H28.478z M28.504,161.009c0.546,0,0.956-0.514,0.956-1.229c0-0.533-0.267-1.203-0.943-1.203    c-0.669,0-0.962,0.624-0.962,1.222c0,0.689,0.39,1.209,0.942,1.209H28.504z"/>
		<path d="M30.766,156.751h0.572v1.97h0.013c0.202-0.351,0.565-0.572,1.073-0.572c0.78,0,1.326,0.65,1.326,1.599    c0,1.131-0.715,1.69-1.417,1.69c-0.455,0-0.812-0.175-1.053-0.591h-0.013l-0.033,0.52H30.74c0.02-0.214,0.026-0.533,0.026-0.812    V156.751z M31.337,160.105c0,0.072,0.007,0.143,0.02,0.208c0.111,0.396,0.449,0.67,0.858,0.67c0.604,0,0.955-0.488,0.955-1.209    c0-0.637-0.325-1.176-0.936-1.176c-0.39,0-0.754,0.273-0.864,0.702c-0.02,0.071-0.033,0.149-0.033,0.24V160.105z"/>
		<path d="M34.386,160.781c0.175,0.104,0.475,0.221,0.761,0.221c0.409,0,0.604-0.201,0.604-0.468c0-0.273-0.163-0.416-0.579-0.572    c-0.572-0.208-0.838-0.52-0.838-0.89c0-0.507,0.416-0.923,1.085-0.923c0.318,0,0.598,0.084,0.767,0.195l-0.137,0.409    c-0.124-0.071-0.351-0.182-0.644-0.182c-0.338,0-0.52,0.195-0.52,0.429c0,0.26,0.182,0.377,0.592,0.54    c0.539,0.202,0.825,0.475,0.825,0.943c0,0.559-0.436,0.949-1.17,0.949c-0.345,0-0.663-0.091-0.884-0.221L34.386,160.781z"/>
	</g>
	<g>
		<path d="M49.918,152.677c0.253,0.156,0.618,0.279,1.008,0.279c0.579,0,0.917-0.299,0.917-0.741c0-0.41-0.234-0.65-0.826-0.871    c-0.715-0.247-1.157-0.624-1.157-1.235c0-0.682,0.565-1.189,1.417-1.189c0.442,0,0.773,0.104,0.962,0.208l-0.156,0.468    c-0.136-0.084-0.429-0.208-0.825-0.208c-0.598,0-0.826,0.357-0.826,0.656c0,0.403,0.267,0.604,0.871,0.839    c0.741,0.292,1.111,0.644,1.111,1.287c0,0.67-0.494,1.261-1.527,1.261c-0.422,0-0.884-0.13-1.118-0.286L49.918,152.677z"/>
		<path d="M53.175,148.751h0.572v1.963h0.013c0.091-0.162,0.234-0.312,0.41-0.403c0.169-0.104,0.37-0.163,0.585-0.163    c0.422,0,1.099,0.26,1.099,1.346v1.872h-0.572v-1.813c0-0.507-0.188-0.93-0.728-0.93c-0.371,0-0.657,0.26-0.767,0.572    c-0.032,0.078-0.039,0.162-0.039,0.273v1.898h-0.572V148.751z"/>
		<path d="M58.063,153.438c-0.845,0-1.508-0.624-1.508-1.618c0-1.053,0.695-1.671,1.56-1.671c0.903,0,1.515,0.657,1.515,1.612    c0,1.17-0.812,1.677-1.56,1.677H58.063z M58.089,153.009c0.546,0,0.956-0.514,0.956-1.229c0-0.533-0.267-1.203-0.943-1.203    c-0.669,0-0.962,0.624-0.962,1.222c0,0.689,0.39,1.209,0.942,1.209H58.089z"/>
		<path d="M62.983,152.501c0,0.332,0.007,0.618,0.026,0.865h-0.507l-0.032-0.514h-0.013c-0.143,0.254-0.481,0.585-1.04,0.585    c-0.494,0-1.085-0.279-1.085-1.378v-1.839h0.572v1.735c0,0.598,0.188,1.008,0.702,1.008c0.384,0,0.65-0.267,0.754-0.527    c0.033-0.078,0.052-0.182,0.052-0.292v-1.924h0.572V152.501z"/>
		<path d="M63.933,148.751h0.572v4.615h-0.572V148.751z"/>
		<path d="M68.183,148.751v3.803c0,0.279,0.007,0.598,0.026,0.812h-0.514l-0.026-0.546h-0.013c-0.175,0.351-0.552,0.617-1.066,0.617    c-0.761,0-1.352-0.644-1.352-1.599c-0.006-1.053,0.65-1.69,1.411-1.69c0.487,0,0.812,0.228,0.949,0.475h0.013v-1.872H68.183z     M67.611,151.5c0-0.078-0.006-0.169-0.026-0.247c-0.084-0.357-0.396-0.656-0.826-0.656c-0.591,0-0.942,0.52-0.942,1.209    c0,0.644,0.318,1.17,0.929,1.17c0.384,0,0.735-0.26,0.839-0.689c0.02-0.071,0.026-0.149,0.026-0.24V151.5z"/>
		<path d="M70.51,151.247c0-0.403-0.006-0.728-0.026-1.027h0.513l0.033,0.54h0.013c0.228-0.39,0.604-0.611,1.112-0.611    c0.767,0,1.339,0.644,1.339,1.599c0,1.131-0.695,1.69-1.43,1.69c-0.422,0-0.78-0.182-0.968-0.494h-0.013v1.709H70.51V151.247z     M71.082,152.085c0,0.078,0.007,0.163,0.026,0.234c0.097,0.396,0.448,0.669,0.852,0.669c0.604,0,0.955-0.494,0.955-1.216    c0-0.63-0.325-1.17-0.929-1.17c-0.39,0-0.761,0.273-0.871,0.708c-0.013,0.072-0.033,0.156-0.033,0.228V152.085z"/>
		<path d="M76.841,152.501c0,0.332,0.007,0.618,0.026,0.865H76.36l-0.032-0.514h-0.013c-0.143,0.254-0.481,0.585-1.04,0.585    c-0.494,0-1.085-0.279-1.085-1.378v-1.839h0.572v1.735c0,0.598,0.188,1.008,0.702,1.008c0.384,0,0.65-0.267,0.754-0.527    c0.033-0.078,0.052-0.182,0.052-0.292v-1.924h0.572V152.501z"/>
		<path d="M78.479,149.466v0.754h0.819v0.436h-0.819v1.69c0,0.39,0.11,0.611,0.429,0.611c0.156,0,0.247-0.013,0.331-0.039    l0.026,0.436c-0.111,0.039-0.286,0.078-0.507,0.078c-0.266,0-0.481-0.091-0.617-0.24c-0.156-0.176-0.221-0.455-0.221-0.826v-1.709    h-0.487v-0.436h0.487v-0.579L78.479,149.466z"/>
		<path d="M56.022,156.985v2.6c0,0.975,0.436,1.391,1.021,1.391c0.644,0,1.066-0.429,1.066-1.391v-2.6h0.572v2.561    c0,1.346-0.708,1.892-1.658,1.892c-0.897,0-1.573-0.507-1.573-1.872v-2.581H56.022z"/>
		<path d="M59.59,160.677c0.253,0.156,0.618,0.279,1.008,0.279c0.579,0,0.917-0.299,0.917-0.741c0-0.41-0.234-0.65-0.826-0.871    c-0.715-0.247-1.157-0.624-1.157-1.235c0-0.682,0.565-1.189,1.417-1.189c0.442,0,0.773,0.104,0.962,0.208l-0.156,0.468    c-0.136-0.084-0.429-0.208-0.825-0.208c-0.598,0-0.826,0.357-0.826,0.656c0,0.403,0.267,0.604,0.871,0.839    c0.741,0.292,1.111,0.644,1.111,1.287c0,0.67-0.494,1.261-1.527,1.261c-0.422,0-0.884-0.13-1.118-0.286L59.59,160.677z"/>
		<path d="M64.276,161.366v-2.71h-0.436v-0.436h0.436v-0.176c0-0.825,0.494-1.365,1.378-1.365c0.292,0,0.637,0.091,0.799,0.208    l-0.163,0.436c-0.143-0.098-0.383-0.182-0.663-0.182c-0.604,0-0.787,0.422-0.787,0.923v0.156h1.833v3.146h-0.572v-2.71h-1.254    v2.71H64.276z"/>
		<path d="M67.625,159.202c0-0.371-0.006-0.689-0.026-0.981h0.5l0.026,0.617h0.02c0.143-0.422,0.494-0.689,0.877-0.689    c0.059,0,0.104,0.007,0.156,0.013v0.54c-0.058-0.006-0.117-0.013-0.195-0.013c-0.403,0-0.689,0.306-0.767,0.728    c-0.013,0.084-0.02,0.176-0.02,0.267v1.684h-0.572V159.202z"/>
		<path d="M69.672,160.781c0.176,0.104,0.475,0.221,0.761,0.221c0.409,0,0.604-0.201,0.604-0.468c0-0.273-0.163-0.416-0.579-0.572    c-0.572-0.208-0.838-0.52-0.838-0.89c0-0.507,0.416-0.923,1.085-0.923c0.318,0,0.598,0.084,0.767,0.195l-0.137,0.409    c-0.124-0.071-0.351-0.182-0.644-0.182c-0.338,0-0.52,0.195-0.52,0.429c0,0.26,0.182,0.377,0.592,0.54    c0.54,0.202,0.825,0.475,0.825,0.943c0,0.559-0.436,0.949-1.17,0.949c-0.345,0-0.663-0.091-0.884-0.221L69.672,160.781z"/>
		<path d="M73.013,157.466v0.754h0.819v0.436h-0.819v1.69c0,0.39,0.11,0.611,0.429,0.611c0.156,0,0.247-0.013,0.332-0.039    l0.026,0.436c-0.111,0.039-0.286,0.078-0.507,0.078c-0.266,0-0.481-0.091-0.617-0.24c-0.156-0.176-0.221-0.455-0.221-0.826v-1.709    h-0.487v-0.436h0.487v-0.579L73.013,157.466z"/>
	</g>
	<g>
		<path d="M88.381,148.984v1.833H90.5v-1.833h0.572v4.381H90.5v-2.054h-2.119v2.054h-0.572v-4.381H88.381z"/>
		<path d="M94.667,152.5c0,0.332,0.007,0.618,0.026,0.865h-0.507l-0.032-0.514H94.14c-0.143,0.254-0.481,0.585-1.04,0.585    c-0.494,0-1.085-0.279-1.085-1.378v-1.839h0.572v1.735c0,0.598,0.188,1.008,0.702,1.008c0.384,0,0.65-0.267,0.754-0.527    c0.033-0.078,0.052-0.182,0.052-0.292v-1.924h0.572V152.5z"/>
		<path d="M95.616,151.201c0-0.371-0.007-0.689-0.026-0.981h0.5l0.026,0.617h0.02c0.143-0.422,0.494-0.689,0.877-0.689    c0.059,0,0.104,0.007,0.156,0.013v0.54c-0.059-0.006-0.117-0.013-0.195-0.013c-0.403,0-0.689,0.306-0.767,0.728    c-0.013,0.084-0.02,0.176-0.02,0.267v1.684h-0.572V151.201z"/>
		<path d="M98.43,149.465v0.754h0.819v0.436H98.43v1.69c0,0.39,0.11,0.611,0.429,0.611c0.156,0,0.247-0.013,0.332-0.039l0.026,0.436    c-0.111,0.039-0.286,0.078-0.507,0.078c-0.266,0-0.481-0.091-0.617-0.24c-0.156-0.176-0.221-0.455-0.221-0.826v-1.709h-0.487    v-0.436h0.487v-0.579L98.43,149.465z"/>
		<path d="M99.814,152.78c0.175,0.104,0.475,0.221,0.761,0.221c0.409,0,0.604-0.201,0.604-0.468c0-0.273-0.163-0.416-0.579-0.572    c-0.572-0.208-0.838-0.52-0.838-0.89c0-0.507,0.416-0.923,1.085-0.923c0.318,0,0.598,0.084,0.767,0.195l-0.137,0.409    c-0.124-0.071-0.351-0.182-0.644-0.182c-0.338,0-0.52,0.195-0.52,0.429c0,0.26,0.182,0.377,0.592,0.54    c0.539,0.202,0.825,0.475,0.825,0.943c0,0.559-0.436,0.949-1.17,0.949c-0.345,0-0.663-0.091-0.884-0.221L99.814,152.78z"/>
		<path d="M104.43,148.984v2.6c0,0.975,0.436,1.391,1.021,1.391c0.644,0,1.066-0.429,1.066-1.391v-2.6h0.572v2.561    c0,1.346-0.708,1.892-1.658,1.892c-0.897,0-1.573-0.507-1.573-1.872v-2.581H104.43z"/>
		<path d="M107.998,152.676c0.253,0.156,0.618,0.279,1.008,0.279c0.579,0,0.917-0.299,0.917-0.741c0-0.41-0.234-0.65-0.826-0.871    c-0.715-0.247-1.157-0.624-1.157-1.235c0-0.682,0.565-1.189,1.417-1.189c0.442,0,0.773,0.104,0.962,0.208l-0.156,0.468    c-0.136-0.084-0.429-0.208-0.825-0.208c-0.598,0-0.826,0.357-0.826,0.656c0,0.403,0.267,0.604,0.871,0.839    c0.741,0.292,1.111,0.644,1.111,1.287c0,0.67-0.494,1.261-1.527,1.261c-0.422,0-0.884-0.13-1.118-0.286L107.998,152.676z"/>
		<path d="M87.152,159.896c0.013,0.767,0.5,1.086,1.073,1.086c0.41,0,0.663-0.072,0.871-0.163l0.104,0.409    c-0.202,0.091-0.553,0.202-1.053,0.202c-0.962,0-1.547-0.644-1.547-1.586c0-0.949,0.565-1.697,1.482-1.697    c1.027,0,1.293,0.904,1.293,1.482c0,0.117-0.006,0.201-0.02,0.266H87.152z M88.823,159.487c0.006-0.364-0.149-0.93-0.787-0.93    c-0.585,0-0.832,0.533-0.877,0.93H88.823z"/>
		<path d="M92.327,161.248c-0.15,0.072-0.481,0.182-0.904,0.182c-0.949,0-1.566-0.644-1.566-1.605c0-0.969,0.663-1.677,1.69-1.677    c0.338,0,0.637,0.084,0.793,0.169l-0.13,0.436c-0.137-0.071-0.351-0.149-0.663-0.149c-0.722,0-1.111,0.54-1.111,1.189    c0,0.728,0.468,1.177,1.092,1.177c0.325,0,0.54-0.078,0.702-0.149L92.327,161.248z"/>
		<path d="M94.276,161.437c-0.845,0-1.508-0.624-1.508-1.618c0-1.053,0.695-1.671,1.56-1.671c0.903,0,1.515,0.657,1.515,1.612    c0,1.17-0.812,1.677-1.56,1.677H94.276z M94.303,161.008c0.546,0,0.956-0.514,0.956-1.229c0-0.533-0.267-1.203-0.943-1.203    c-0.669,0-0.962,0.624-0.962,1.222c0,0.689,0.39,1.209,0.942,1.209H94.303z"/>
		<path d="M96.564,159.071c0-0.332-0.006-0.592-0.026-0.852h0.507l0.032,0.513h0.013c0.156-0.292,0.52-0.585,1.04-0.585    c0.436,0,1.112,0.26,1.112,1.339v1.878H98.67v-1.813c0-0.507-0.188-0.936-0.728-0.936c-0.371,0-0.663,0.267-0.767,0.585    c-0.026,0.071-0.039,0.175-0.039,0.267v1.898h-0.572V159.071z"/>
		<path d="M101.452,161.437c-0.845,0-1.508-0.624-1.508-1.618c0-1.053,0.695-1.671,1.56-1.671c0.903,0,1.515,0.657,1.515,1.612    c0,1.17-0.812,1.677-1.56,1.677H101.452z M101.479,161.008c0.546,0,0.956-0.514,0.956-1.229c0-0.533-0.267-1.203-0.943-1.203    c-0.669,0-0.962,0.624-0.962,1.222c0,0.689,0.39,1.209,0.942,1.209H101.479z"/>
		<path d="M103.74,159.071c0-0.332-0.013-0.592-0.026-0.852h0.5l0.026,0.507h0.02c0.175-0.299,0.468-0.579,0.995-0.579    c0.422,0,0.748,0.26,0.884,0.631h0.013c0.097-0.182,0.228-0.312,0.357-0.41c0.188-0.143,0.39-0.221,0.689-0.221    c0.422,0,1.04,0.273,1.04,1.365v1.853h-0.559v-1.781c0-0.611-0.228-0.968-0.683-0.968c-0.332,0-0.578,0.24-0.682,0.513    c-0.026,0.085-0.046,0.189-0.046,0.286v1.95h-0.559v-1.892c0-0.5-0.221-0.858-0.656-0.858c-0.351,0-0.618,0.286-0.708,0.572    c-0.033,0.084-0.045,0.182-0.045,0.28v1.898h-0.559V159.071z"/>
		<path d="M109.37,158.219l0.683,1.859c0.078,0.208,0.156,0.455,0.208,0.644h0.013c0.059-0.188,0.124-0.429,0.202-0.656l0.624-1.846    h0.604l-0.858,2.243c-0.41,1.079-0.689,1.625-1.079,1.969c-0.286,0.241-0.559,0.338-0.702,0.364l-0.143-0.475    c0.143-0.045,0.332-0.137,0.5-0.28c0.156-0.123,0.345-0.344,0.481-0.637c0.026-0.059,0.046-0.104,0.046-0.137    c0-0.032-0.013-0.078-0.046-0.149l-1.157-2.899H109.37z"/>
	</g>
	<g>
		<path d="M118.708,148.985h0.572v3.907h1.872v0.475h-2.444V148.985z"/>
		<path d="M123.043,153.438c-0.845,0-1.508-0.624-1.508-1.618c0-1.053,0.695-1.671,1.56-1.671c0.903,0,1.515,0.657,1.515,1.612    c0,1.17-0.812,1.677-1.56,1.677H123.043z M123.07,153.009c0.546,0,0.956-0.514,0.956-1.229c0-0.533-0.267-1.203-0.943-1.203    c-0.669,0-0.962,0.624-0.962,1.222c0,0.689,0.39,1.209,0.942,1.209H123.07z"/>
		<path d="M125.559,150.22l0.422,1.592c0.084,0.351,0.169,0.683,0.228,1.008h0.02c0.071-0.319,0.175-0.657,0.279-1.001l0.514-1.599    h0.481l0.488,1.573c0.117,0.371,0.208,0.708,0.279,1.027h0.02c0.052-0.319,0.137-0.65,0.241-1.021l0.448-1.58h0.565l-1.014,3.146    h-0.52l-0.481-1.501c-0.11-0.357-0.201-0.669-0.279-1.04h-0.013c-0.078,0.377-0.175,0.708-0.286,1.046l-0.507,1.495h-0.52    l-0.949-3.146H125.559z"/>
		<path d="M131.494,151.247c0-0.403-0.006-0.728-0.026-1.027h0.513l0.033,0.54h0.013c0.228-0.39,0.604-0.611,1.112-0.611    c0.767,0,1.339,0.644,1.339,1.599c0,1.131-0.695,1.69-1.43,1.69c-0.422,0-0.78-0.182-0.968-0.494h-0.013v1.709h-0.572V151.247z     M132.065,152.085c0,0.078,0.007,0.163,0.026,0.234c0.097,0.396,0.448,0.669,0.852,0.669c0.604,0,0.955-0.494,0.955-1.216    c0-0.63-0.325-1.17-0.929-1.17c-0.39,0-0.761,0.273-0.871,0.708c-0.013,0.072-0.033,0.156-0.033,0.228V152.085z"/>
		<path d="M135.192,151.202c0-0.371-0.006-0.689-0.026-0.981h0.5l0.026,0.617h0.02c0.143-0.422,0.494-0.689,0.877-0.689    c0.059,0,0.104,0.007,0.156,0.013v0.54c-0.058-0.006-0.117-0.013-0.195-0.013c-0.403,0-0.689,0.306-0.767,0.728    c-0.013,0.084-0.02,0.176-0.02,0.267v1.684h-0.572V151.202z"/>
		<path d="M138.598,153.438c-0.845,0-1.508-0.624-1.508-1.618c0-1.053,0.695-1.671,1.56-1.671c0.903,0,1.515,0.657,1.515,1.612    c0,1.17-0.812,1.677-1.56,1.677H138.598z M138.624,153.009c0.546,0,0.956-0.514,0.956-1.229c0-0.533-0.267-1.203-0.943-1.203    c-0.669,0-0.962,0.624-0.962,1.222c0,0.689,0.39,1.209,0.942,1.209H138.624z"/>
		<path d="M143.603,148.751v3.803c0,0.279,0.007,0.598,0.026,0.812h-0.514l-0.026-0.546h-0.013    c-0.175,0.351-0.552,0.617-1.066,0.617c-0.761,0-1.352-0.644-1.352-1.599c-0.006-1.053,0.65-1.69,1.411-1.69    c0.487,0,0.812,0.228,0.949,0.475h0.013v-1.872H143.603z M143.031,151.5c0-0.078-0.006-0.169-0.026-0.247    c-0.084-0.357-0.396-0.656-0.826-0.656c-0.591,0-0.942,0.52-0.942,1.209c0,0.644,0.318,1.17,0.929,1.17    c0.384,0,0.735-0.26,0.839-0.689c0.02-0.071,0.026-0.149,0.026-0.24V151.5z"/>
		<path d="M147.184,152.501c0,0.332,0.007,0.618,0.026,0.865h-0.507l-0.032-0.514h-0.013c-0.143,0.254-0.481,0.585-1.04,0.585    c-0.494,0-1.085-0.279-1.085-1.378v-1.839h0.572v1.735c0,0.598,0.188,1.008,0.702,1.008c0.384,0,0.65-0.267,0.754-0.527    c0.033-0.078,0.052-0.182,0.052-0.292v-1.924h0.572V152.501z"/>
		<path d="M150.376,153.249c-0.15,0.072-0.481,0.182-0.904,0.182c-0.949,0-1.566-0.644-1.566-1.605c0-0.969,0.663-1.677,1.69-1.677    c0.338,0,0.637,0.084,0.793,0.169l-0.13,0.436c-0.137-0.071-0.351-0.149-0.663-0.149c-0.722,0-1.111,0.54-1.111,1.189    c0,0.728,0.468,1.177,1.092,1.177c0.325,0,0.54-0.078,0.702-0.149L150.376,153.249z"/>
		<path d="M151.734,149.466v0.754h0.819v0.436h-0.819v1.69c0,0.39,0.11,0.611,0.429,0.611c0.156,0,0.247-0.013,0.332-0.039    l0.026,0.436c-0.111,0.039-0.286,0.078-0.507,0.078c-0.266,0-0.481-0.091-0.617-0.24c-0.156-0.176-0.221-0.455-0.221-0.826v-1.709    h-0.487v-0.436h0.487v-0.579L151.734,149.466z"/>
		<path d="M128.77,160.885h-0.013c-0.169,0.306-0.52,0.552-1.027,0.552c-0.734,0-1.333-0.63-1.333-1.592    c0-1.177,0.76-1.697,1.423-1.697c0.488,0,0.812,0.241,0.969,0.546h0.013l0.019-0.475h0.546c-0.02,0.26-0.026,0.54-0.026,0.864    v3.569h-0.572V160.885z M128.77,159.494c0-0.084-0.006-0.169-0.026-0.241c-0.091-0.351-0.39-0.65-0.819-0.65    c-0.591,0-0.949,0.5-0.949,1.209c0,0.631,0.299,1.17,0.929,1.17c0.371,0,0.689-0.228,0.819-0.624    c0.026-0.078,0.045-0.189,0.045-0.273V159.494z"/>
		<path d="M132.917,160.501c0,0.332,0.007,0.618,0.026,0.865h-0.507l-0.032-0.514h-0.013c-0.143,0.254-0.481,0.585-1.04,0.585    c-0.494,0-1.085-0.279-1.085-1.378v-1.839h0.572v1.735c0,0.598,0.188,1.008,0.702,1.008c0.384,0,0.65-0.267,0.754-0.527    c0.033-0.078,0.052-0.182,0.052-0.292v-1.924h0.572V160.501z"/>
		<path d="M136.082,160.612c0,0.273,0.013,0.54,0.046,0.754h-0.514l-0.052-0.396h-0.02c-0.169,0.247-0.513,0.468-0.962,0.468    c-0.637,0-0.962-0.448-0.962-0.903c0-0.761,0.676-1.177,1.892-1.17v-0.065c0-0.26-0.072-0.735-0.715-0.728    c-0.299,0-0.604,0.084-0.825,0.234l-0.13-0.384c0.26-0.162,0.644-0.273,1.04-0.273c0.968,0,1.202,0.657,1.202,1.287V160.612z     M135.523,159.761c-0.624-0.013-1.333,0.098-1.333,0.708c0,0.377,0.247,0.546,0.533,0.546c0.416,0,0.683-0.26,0.773-0.526    c0.02-0.059,0.026-0.124,0.026-0.182V159.761z"/>
		<path d="M136.999,156.751h0.572v4.615h-0.572V156.751z"/>
		<path d="M138.806,157.687c-0.208,0-0.345-0.163-0.345-0.351c0-0.201,0.143-0.357,0.358-0.357c0.208,0,0.351,0.156,0.351,0.357    c0,0.188-0.136,0.351-0.357,0.351H138.806z M138.533,161.366v-3.146h0.572v3.146H138.533z"/>
		<path d="M140.743,157.466v0.754h0.819v0.436h-0.819v1.69c0,0.39,0.11,0.611,0.429,0.611c0.156,0,0.247-0.013,0.331-0.039    l0.026,0.436c-0.111,0.039-0.286,0.078-0.507,0.078c-0.266,0-0.481-0.091-0.617-0.24c-0.156-0.176-0.221-0.455-0.221-0.826v-1.709    h-0.487v-0.436h0.487v-0.579L140.743,157.466z"/>
		<path d="M142.413,158.22l0.683,1.859c0.078,0.208,0.156,0.455,0.208,0.644h0.013c0.059-0.188,0.124-0.429,0.202-0.656l0.624-1.846    h0.604l-0.858,2.243c-0.41,1.079-0.689,1.625-1.079,1.969c-0.286,0.241-0.559,0.338-0.702,0.364l-0.143-0.475    c0.143-0.045,0.332-0.137,0.5-0.28c0.156-0.123,0.345-0.344,0.481-0.637c0.026-0.059,0.046-0.104,0.046-0.137    c0-0.032-0.013-0.078-0.046-0.149l-1.157-2.899H142.413z"/>
	</g>
	<g>
		<path d="M160.125,149.042c0.273-0.052,0.63-0.091,1.085-0.091c0.559,0,0.969,0.13,1.229,0.364c0.241,0.208,0.39,0.527,0.39,0.91    c0,0.396-0.117,0.708-0.345,0.936c-0.299,0.318-0.787,0.481-1.339,0.481c-0.169,0-0.325-0.006-0.455-0.039v1.762h-0.565V149.042z     M160.691,151.142c0.124,0.033,0.279,0.045,0.468,0.045c0.683,0,1.099-0.332,1.099-0.929c0-0.579-0.409-0.858-1.033-0.858    c-0.247,0-0.436,0.02-0.533,0.046V151.142z"/>
		<path d="M163.564,151.201c0-0.371-0.006-0.689-0.026-0.981h0.5l0.026,0.617h0.02c0.143-0.422,0.494-0.689,0.877-0.689    c0.059,0,0.104,0.007,0.156,0.013v0.54c-0.058-0.006-0.117-0.013-0.195-0.013c-0.403,0-0.689,0.306-0.767,0.728    c-0.013,0.084-0.02,0.176-0.02,0.267v1.684h-0.572V151.201z"/>
		<path d="M166.014,151.896c0.013,0.767,0.5,1.086,1.073,1.086c0.41,0,0.663-0.072,0.871-0.163l0.104,0.409    c-0.202,0.091-0.553,0.202-1.053,0.202c-0.962,0-1.547-0.644-1.547-1.586c0-0.949,0.565-1.697,1.482-1.697    c1.027,0,1.293,0.904,1.293,1.482c0,0.117-0.006,0.201-0.02,0.266H166.014z M167.685,151.487c0.006-0.364-0.149-0.93-0.787-0.93    c-0.585,0-0.832,0.533-0.877,0.93H167.685z"/>
		<path d="M168.998,153.365v-2.71h-0.436v-0.436h0.436v-0.149c0-0.442,0.104-0.845,0.371-1.099c0.214-0.208,0.5-0.292,0.761-0.292    c0.208,0,0.377,0.045,0.487,0.091l-0.071,0.442c-0.091-0.039-0.202-0.071-0.371-0.071c-0.481,0-0.611,0.429-0.611,0.91v0.169h0.76    v0.436h-0.754v2.71H168.998z"/>
		<path d="M171.168,151.896c0.013,0.767,0.5,1.086,1.073,1.086c0.41,0,0.663-0.072,0.871-0.163l0.104,0.409    c-0.202,0.091-0.553,0.202-1.054,0.202c-0.962,0-1.547-0.644-1.547-1.586c0-0.949,0.565-1.697,1.482-1.697    c1.027,0,1.293,0.904,1.293,1.482c0,0.117-0.007,0.201-0.02,0.266H171.168z M172.839,151.487c0.006-0.364-0.149-0.93-0.787-0.93    c-0.585,0-0.832,0.533-0.877,0.93H172.839z"/>
		<path d="M174.1,151.201c0-0.371-0.006-0.689-0.025-0.981h0.5l0.026,0.617h0.02c0.144-0.422,0.494-0.689,0.878-0.689    c0.059,0,0.104,0.007,0.155,0.013v0.54c-0.058-0.006-0.116-0.013-0.194-0.013c-0.403,0-0.689,0.306-0.768,0.728    c-0.013,0.084-0.02,0.176-0.02,0.267v1.684H174.1V151.201z"/>
		<path d="M152.092,157.686c-0.208,0-0.345-0.163-0.345-0.351c0-0.201,0.143-0.357,0.358-0.357c0.208,0,0.351,0.156,0.351,0.357    c0,0.188-0.136,0.351-0.357,0.351H152.092z M151.819,161.365v-3.146h0.572v3.146H151.819z"/>
		<path d="M153.262,160.78c0.176,0.104,0.475,0.221,0.761,0.221c0.409,0,0.604-0.201,0.604-0.468c0-0.273-0.163-0.416-0.579-0.572    c-0.572-0.208-0.838-0.52-0.838-0.89c0-0.507,0.416-0.923,1.085-0.923c0.318,0,0.598,0.084,0.767,0.195l-0.137,0.409    c-0.124-0.071-0.351-0.182-0.644-0.182c-0.338,0-0.52,0.195-0.52,0.429c0,0.26,0.182,0.377,0.592,0.54    c0.54,0.202,0.825,0.475,0.825,0.943c0,0.559-0.436,0.949-1.17,0.949c-0.345,0-0.663-0.091-0.884-0.221L153.262,160.78z"/>
		<path d="M157.194,161.437c-0.845,0-1.508-0.624-1.508-1.618c0-1.053,0.695-1.671,1.56-1.671c0.903,0,1.515,0.657,1.515,1.612    c0,1.17-0.812,1.677-1.56,1.677H157.194z M157.22,161.008c0.546,0,0.956-0.514,0.956-1.229c0-0.533-0.267-1.203-0.943-1.203    c-0.669,0-0.962,0.624-0.962,1.222c0,0.689,0.39,1.209,0.942,1.209H157.22z"/>
		<path d="M159.482,156.75h0.572v4.615h-0.572V156.75z"/>
		<path d="M163.232,160.611c0,0.273,0.013,0.54,0.046,0.754h-0.514l-0.052-0.396h-0.02c-0.169,0.247-0.513,0.468-0.962,0.468    c-0.637,0-0.962-0.448-0.962-0.903c0-0.761,0.676-1.177,1.892-1.17v-0.065c0-0.26-0.072-0.735-0.715-0.728    c-0.299,0-0.604,0.084-0.825,0.234l-0.13-0.384c0.26-0.162,0.644-0.273,1.04-0.273c0.968,0,1.202,0.657,1.202,1.287V160.611z     M162.674,159.76c-0.624-0.013-1.333,0.098-1.333,0.708c0,0.377,0.247,0.546,0.533,0.546c0.416,0,0.683-0.26,0.773-0.526    c0.02-0.059,0.026-0.124,0.026-0.182V159.76z"/>
		<path d="M164.838,157.465v0.754h0.819v0.436h-0.819v1.69c0,0.39,0.11,0.611,0.429,0.611c0.156,0,0.247-0.013,0.332-0.039    l0.026,0.436c-0.111,0.039-0.286,0.078-0.507,0.078c-0.266,0-0.481-0.091-0.617-0.24c-0.156-0.176-0.221-0.455-0.221-0.826v-1.709    h-0.487v-0.436h0.487v-0.579L164.838,157.465z"/>
		<path d="M166.574,157.686c-0.208,0-0.345-0.163-0.345-0.351c0-0.201,0.143-0.357,0.358-0.357c0.208,0,0.351,0.156,0.351,0.357    c0,0.188-0.136,0.351-0.357,0.351H166.574z M166.301,161.365v-3.146h0.572v3.146H166.301z"/>
		<path d="M169.102,161.437c-0.845,0-1.508-0.624-1.508-1.618c0-1.053,0.695-1.671,1.56-1.671c0.903,0,1.515,0.657,1.515,1.612    c0,1.17-0.812,1.677-1.56,1.677H169.102z M169.128,161.008c0.546,0,0.956-0.514,0.956-1.229c0-0.533-0.267-1.203-0.943-1.203    c-0.669,0-0.962,0.624-0.962,1.222c0,0.689,0.39,1.209,0.942,1.209H169.128z"/>
		<path d="M171.39,159.071c0-0.332-0.006-0.592-0.026-0.852h0.507l0.032,0.513h0.013c0.156-0.292,0.52-0.585,1.041-0.585    c0.436,0,1.111,0.26,1.111,1.339v1.878h-0.572v-1.813c0-0.507-0.188-0.936-0.728-0.936c-0.371,0-0.663,0.267-0.767,0.585    c-0.026,0.071-0.039,0.175-0.039,0.267v1.898h-0.572V159.071z"/>
		<path d="M175.271,157.686c-0.208,0-0.345-0.163-0.345-0.351c0-0.201,0.143-0.357,0.357-0.357c0.209,0,0.352,0.156,0.352,0.357    c0,0.188-0.137,0.351-0.357,0.351H175.271z M174.998,161.365v-3.146h0.571v3.146H174.998z"/>
		<path d="M176.44,160.78c0.176,0.104,0.475,0.221,0.761,0.221c0.409,0,0.604-0.201,0.604-0.468c0-0.273-0.163-0.416-0.579-0.572    c-0.572-0.208-0.838-0.52-0.838-0.89c0-0.507,0.416-0.923,1.086-0.923c0.318,0,0.598,0.084,0.767,0.195l-0.137,0.409    c-0.124-0.071-0.351-0.182-0.644-0.182c-0.338,0-0.52,0.195-0.52,0.429c0,0.26,0.182,0.377,0.592,0.54    c0.539,0.202,0.824,0.475,0.824,0.943c0,0.559-0.436,0.949-1.17,0.949c-0.344,0-0.662-0.091-0.884-0.221L176.44,160.78z"/>
		<path d="M179.092,159.071c0-0.332-0.013-0.592-0.025-0.852h0.5l0.026,0.507h0.02c0.175-0.299,0.468-0.579,0.995-0.579    c0.422,0,0.747,0.26,0.883,0.631h0.014c0.098-0.182,0.228-0.312,0.357-0.41c0.188-0.143,0.391-0.221,0.689-0.221    c0.422,0,1.039,0.273,1.039,1.365v1.853h-0.559v-1.781c0-0.611-0.228-0.968-0.683-0.968c-0.331,0-0.578,0.24-0.683,0.513    c-0.025,0.085-0.045,0.189-0.045,0.286v1.95h-0.56v-1.892c0-0.5-0.221-0.858-0.656-0.858c-0.351,0-0.618,0.286-0.708,0.572    c-0.033,0.084-0.046,0.182-0.046,0.28v1.898h-0.56V159.071z"/>
	</g>
	<g>
		<path d="M194.717,148.984v2.6c0,0.975,0.436,1.391,1.02,1.391c0.645,0,1.066-0.429,1.066-1.391v-2.6h0.572v2.561    c0,1.346-0.709,1.892-1.658,1.892c-0.896,0-1.572-0.507-1.572-1.872v-2.581H194.717z"/>
		<path d="M198.337,151.071c0-0.332-0.007-0.592-0.026-0.852h0.508l0.031,0.513h0.014c0.156-0.292,0.52-0.585,1.04-0.585    c0.436,0,1.112,0.26,1.112,1.339v1.878h-0.572v-1.813c0-0.507-0.189-0.936-0.729-0.936c-0.371,0-0.663,0.267-0.768,0.585    c-0.025,0.071-0.039,0.175-0.039,0.267v1.898h-0.571V151.071z"/>
		<path d="M201.996,153.365v-2.71h-0.436v-0.436h0.436v-0.149c0-0.442,0.104-0.845,0.371-1.099c0.214-0.208,0.5-0.292,0.76-0.292    c0.209,0,0.377,0.045,0.488,0.091l-0.072,0.442c-0.091-0.039-0.201-0.071-0.37-0.071c-0.481,0-0.61,0.429-0.61,0.91v0.169h0.76    v0.436h-0.754v2.71H201.996z"/>
		<path d="M206.059,152.611c0,0.273,0.014,0.54,0.046,0.754h-0.514l-0.052-0.396h-0.02c-0.17,0.247-0.514,0.468-0.963,0.468    c-0.637,0-0.961-0.448-0.961-0.903c0-0.761,0.676-1.177,1.891-1.17v-0.065c0-0.26-0.071-0.735-0.715-0.728    c-0.299,0-0.604,0.084-0.825,0.234l-0.13-0.384c0.26-0.162,0.643-0.273,1.04-0.273c0.968,0,1.202,0.657,1.202,1.287V152.611z     M205.5,151.76c-0.625-0.013-1.333,0.098-1.333,0.708c0,0.377,0.247,0.546,0.533,0.546c0.416,0,0.683-0.26,0.773-0.526    c0.02-0.059,0.026-0.124,0.026-0.182V151.76z"/>
		<path d="M207.248,149.686c-0.208,0-0.345-0.163-0.345-0.351c0-0.201,0.144-0.357,0.358-0.357c0.207,0,0.35,0.156,0.35,0.357    c0,0.188-0.136,0.351-0.357,0.351H207.248z M206.975,153.365v-3.146h0.572v3.146H206.975z"/>
		<path d="M208.496,151.201c0-0.371-0.006-0.689-0.025-0.981h0.5l0.025,0.617h0.02c0.144-0.422,0.494-0.689,0.878-0.689    c0.059,0,0.104,0.007,0.155,0.013v0.54c-0.058-0.006-0.116-0.013-0.194-0.013c-0.403,0-0.688,0.306-0.767,0.728    c-0.014,0.084-0.02,0.176-0.02,0.267v1.684h-0.572V151.201z"/>
		<path d="M195.812,157.465v0.754h0.819v0.436h-0.819v1.69c0,0.39,0.11,0.611,0.429,0.611c0.156,0,0.247-0.013,0.332-0.039    l0.025,0.436c-0.11,0.039-0.285,0.078-0.507,0.078c-0.267,0-0.481-0.091-0.617-0.24c-0.156-0.176-0.222-0.455-0.222-0.826v-1.709    h-0.486v-0.436h0.486v-0.579L195.812,157.465z"/>
		<path d="M198.555,161.437c-0.846,0-1.508-0.624-1.508-1.618c0-1.053,0.695-1.671,1.56-1.671c0.903,0,1.515,0.657,1.515,1.612    c0,1.17-0.812,1.677-1.561,1.677H198.555z M198.58,161.008c0.547,0,0.956-0.514,0.956-1.229c0-0.533-0.267-1.203-0.942-1.203    c-0.67,0-0.963,0.624-0.963,1.222c0,0.689,0.391,1.209,0.943,1.209H198.58z"/>
		<path d="M202.805,156.984v2.6c0,0.975,0.436,1.391,1.021,1.391c0.643,0,1.065-0.429,1.065-1.391v-2.6h0.572v2.561    c0,1.346-0.708,1.892-1.657,1.892c-0.897,0-1.574-0.507-1.574-1.872v-2.581H202.805z"/>
		<path d="M206.373,160.676c0.254,0.156,0.618,0.279,1.008,0.279c0.579,0,0.917-0.299,0.917-0.741c0-0.41-0.233-0.65-0.825-0.871    c-0.715-0.247-1.158-0.624-1.158-1.235c0-0.682,0.566-1.189,1.418-1.189c0.441,0,0.773,0.104,0.962,0.208l-0.156,0.468    c-0.136-0.084-0.429-0.208-0.825-0.208c-0.598,0-0.826,0.357-0.826,0.656c0,0.403,0.268,0.604,0.871,0.839    c0.742,0.292,1.111,0.644,1.111,1.287c0,0.67-0.493,1.261-1.527,1.261c-0.422,0-0.884-0.13-1.117-0.286L206.373,160.676z"/>
	</g>
	<g>
		<path d="M221.792,148.984v1.833h2.119v-1.833h0.571v4.381h-0.571v-2.054h-2.119v2.054h-0.572v-4.381H221.792z"/>
		<path d="M228.077,152.5c0,0.332,0.007,0.618,0.026,0.865h-0.508l-0.031-0.514h-0.014c-0.143,0.254-0.48,0.585-1.04,0.585    c-0.494,0-1.085-0.279-1.085-1.378v-1.839h0.571v1.735c0,0.598,0.188,1.008,0.702,1.008c0.384,0,0.65-0.267,0.754-0.527    c0.033-0.078,0.053-0.182,0.053-0.292v-1.924h0.571V152.5z"/>
		<path d="M229.026,151.201c0-0.371-0.007-0.689-0.026-0.981h0.501l0.026,0.617h0.02c0.143-0.422,0.494-0.689,0.877-0.689    c0.059,0,0.104,0.007,0.156,0.013v0.54c-0.059-0.006-0.117-0.013-0.195-0.013c-0.402,0-0.689,0.306-0.768,0.728    c-0.012,0.084-0.02,0.176-0.02,0.267v1.684h-0.571V151.201z"/>
		<path d="M231.841,149.465v0.754h0.819v0.436h-0.819v1.69c0,0.39,0.11,0.611,0.429,0.611c0.156,0,0.247-0.013,0.332-0.039    l0.025,0.436c-0.11,0.039-0.285,0.078-0.507,0.078c-0.267,0-0.481-0.091-0.617-0.24c-0.156-0.176-0.222-0.455-0.222-0.826v-1.709    h-0.486v-0.436h0.486v-0.579L231.841,149.465z"/>
		<path d="M233.225,152.78c0.176,0.104,0.475,0.221,0.762,0.221c0.408,0,0.604-0.201,0.604-0.468c0-0.273-0.162-0.416-0.578-0.572    c-0.572-0.208-0.838-0.52-0.838-0.89c0-0.507,0.416-0.923,1.085-0.923c0.318,0,0.598,0.084,0.767,0.195l-0.137,0.409    c-0.123-0.071-0.351-0.182-0.643-0.182c-0.338,0-0.521,0.195-0.521,0.429c0,0.26,0.183,0.377,0.592,0.54    c0.539,0.202,0.825,0.475,0.825,0.943c0,0.559-0.436,0.949-1.17,0.949c-0.345,0-0.663-0.091-0.884-0.221L233.225,152.78z"/>
		<path d="M238.535,153.437c-0.844,0-1.508-0.624-1.508-1.618c0-1.053,0.695-1.671,1.561-1.671c0.903,0,1.515,0.657,1.515,1.612    c0,1.17-0.812,1.677-1.56,1.677H238.535z M238.562,153.008c0.545,0,0.955-0.514,0.955-1.229c0-0.533-0.267-1.203-0.943-1.203    c-0.669,0-0.961,0.624-0.961,1.222c0,0.689,0.39,1.209,0.941,1.209H238.562z"/>
		<path d="M241.513,149.465v0.754h0.819v0.436h-0.819v1.69c0,0.39,0.11,0.611,0.429,0.611c0.156,0,0.247-0.013,0.332-0.039    l0.025,0.436c-0.11,0.039-0.285,0.078-0.507,0.078c-0.267,0-0.481-0.091-0.617-0.24c-0.156-0.176-0.222-0.455-0.222-0.826v-1.709    h-0.486v-0.436h0.486v-0.579L241.513,149.465z"/>
		<path d="M242.975,148.75h0.572v1.963h0.014c0.09-0.162,0.233-0.312,0.409-0.403c0.169-0.104,0.37-0.163,0.585-0.163    c0.422,0,1.099,0.26,1.099,1.346v1.872h-0.572v-1.813c0-0.507-0.188-0.93-0.728-0.93c-0.371,0-0.657,0.26-0.768,0.572    c-0.032,0.078-0.039,0.162-0.039,0.273v1.898h-0.572V148.75z"/>
		<path d="M246.907,151.896c0.013,0.767,0.501,1.086,1.073,1.086c0.409,0,0.662-0.072,0.871-0.163l0.104,0.409    c-0.201,0.091-0.553,0.202-1.053,0.202c-0.963,0-1.547-0.644-1.547-1.586c0-0.949,0.564-1.697,1.481-1.697    c1.027,0,1.294,0.904,1.294,1.482c0,0.117-0.007,0.201-0.02,0.266H246.907z M248.578,151.487c0.006-0.364-0.149-0.93-0.787-0.93    c-0.584,0-0.832,0.533-0.877,0.93H248.578z"/>
		<path d="M249.839,151.201c0-0.371-0.007-0.689-0.026-0.981h0.501l0.026,0.617h0.02c0.143-0.422,0.494-0.689,0.877-0.689    c0.059,0,0.104,0.007,0.156,0.013v0.54c-0.059-0.006-0.117-0.013-0.195-0.013c-0.402,0-0.689,0.306-0.768,0.728    c-0.012,0.084-0.02,0.176-0.02,0.267v1.684h-0.571V151.201z"/>
		<path d="M225.49,161.248c-0.149,0.072-0.48,0.182-0.903,0.182c-0.948,0-1.566-0.644-1.566-1.605c0-0.969,0.663-1.677,1.69-1.677    c0.338,0,0.637,0.084,0.793,0.169l-0.131,0.436c-0.137-0.071-0.351-0.149-0.662-0.149c-0.723,0-1.111,0.54-1.111,1.189    c0,0.728,0.467,1.177,1.092,1.177c0.324,0,0.539-0.078,0.701-0.149L225.49,161.248z"/>
		<path d="M227.44,161.437c-0.845,0-1.508-0.624-1.508-1.618c0-1.053,0.695-1.671,1.56-1.671c0.904,0,1.516,0.657,1.516,1.612    c0,1.17-0.812,1.677-1.561,1.677H227.44z M227.467,161.008c0.546,0,0.955-0.514,0.955-1.229c0-0.533-0.266-1.203-0.942-1.203    c-0.669,0-0.962,0.624-0.962,1.222c0,0.689,0.391,1.209,0.942,1.209H227.467z"/>
		<path d="M232.361,160.5c0,0.332,0.006,0.618,0.025,0.865h-0.507l-0.032-0.514h-0.014c-0.143,0.254-0.48,0.585-1.039,0.585    c-0.494,0-1.086-0.279-1.086-1.378v-1.839h0.572v1.735c0,0.598,0.188,1.008,0.701,1.008c0.385,0,0.65-0.267,0.754-0.527    c0.033-0.078,0.053-0.182,0.053-0.292v-1.924h0.572V160.5z"/>
		<path d="M233.311,159.071c0-0.332-0.007-0.592-0.026-0.852h0.507l0.032,0.513h0.013c0.156-0.292,0.521-0.585,1.041-0.585    c0.436,0,1.111,0.26,1.111,1.339v1.878h-0.572v-1.813c0-0.507-0.188-0.936-0.729-0.936c-0.37,0-0.662,0.267-0.767,0.585    c-0.026,0.071-0.039,0.175-0.039,0.267v1.898h-0.571V159.071z"/>
		<path d="M237.606,157.465v0.754h0.819v0.436h-0.819v1.69c0,0.39,0.11,0.611,0.429,0.611c0.156,0,0.247-0.013,0.332-0.039    l0.025,0.436c-0.11,0.039-0.285,0.078-0.507,0.078c-0.267,0-0.481-0.091-0.617-0.24c-0.156-0.176-0.222-0.455-0.222-0.826v-1.709    h-0.486v-0.436h0.486v-0.579L237.606,157.465z"/>
		<path d="M239.068,159.201c0-0.371-0.006-0.689-0.025-0.981h0.5l0.026,0.617h0.02c0.144-0.422,0.494-0.689,0.878-0.689    c0.059,0,0.104,0.007,0.155,0.013v0.54c-0.058-0.006-0.116-0.013-0.194-0.013c-0.403,0-0.689,0.306-0.768,0.728    c-0.013,0.084-0.02,0.176-0.02,0.267v1.684h-0.572V159.201z"/>
		<path d="M241.467,157.686c-0.207,0-0.344-0.163-0.344-0.351c0-0.201,0.143-0.357,0.357-0.357c0.208,0,0.351,0.156,0.351,0.357    c0,0.188-0.136,0.351-0.357,0.351H241.467z M241.194,161.365v-3.146h0.571v3.146H241.194z"/>
		<path d="M243.04,159.896c0.013,0.767,0.501,1.086,1.073,1.086c0.409,0,0.662-0.072,0.871-0.163l0.104,0.409    c-0.201,0.091-0.553,0.202-1.053,0.202c-0.963,0-1.547-0.644-1.547-1.586c0-0.949,0.564-1.697,1.481-1.697    c1.027,0,1.294,0.904,1.294,1.482c0,0.117-0.007,0.201-0.02,0.266H243.04z M244.711,159.487c0.006-0.364-0.149-0.93-0.787-0.93    c-0.584,0-0.832,0.533-0.877,0.93H244.711z"/>
		<path d="M245.894,160.78c0.176,0.104,0.475,0.221,0.761,0.221c0.409,0,0.604-0.201,0.604-0.468c0-0.273-0.163-0.416-0.579-0.572    c-0.572-0.208-0.838-0.52-0.838-0.89c0-0.507,0.416-0.923,1.086-0.923c0.318,0,0.598,0.084,0.767,0.195l-0.137,0.409    c-0.124-0.071-0.351-0.182-0.644-0.182c-0.338,0-0.52,0.195-0.52,0.429c0,0.26,0.182,0.377,0.592,0.54    c0.539,0.202,0.824,0.475,0.824,0.943c0,0.559-0.436,0.949-1.17,0.949c-0.344,0-0.662-0.091-0.884-0.221L245.894,160.78z"/>
	</g>
	<g>
		<path d="M266.052,153.222c-0.201,0.104-0.624,0.208-1.157,0.208c-1.234,0-2.158-0.78-2.158-2.216c0-1.372,0.93-2.295,2.288-2.295    c0.54,0,0.891,0.117,1.04,0.188l-0.143,0.468c-0.208-0.104-0.514-0.182-0.878-0.182c-1.026,0-1.709,0.657-1.709,1.801    c0,1.072,0.617,1.755,1.677,1.755c0.352,0,0.702-0.071,0.93-0.182L266.052,153.222z"/>
		<path d="M266.747,148.75h0.572v1.963h0.013c0.091-0.162,0.234-0.312,0.41-0.403c0.169-0.104,0.37-0.163,0.585-0.163    c0.422,0,1.099,0.26,1.099,1.346v1.872h-0.572v-1.813c0-0.507-0.188-0.93-0.729-0.93c-0.37,0-0.656,0.26-0.767,0.572    c-0.032,0.078-0.039,0.162-0.039,0.273v1.898h-0.572V148.75z"/>
		<path d="M270.628,149.686c-0.208,0-0.345-0.163-0.345-0.351c0-0.201,0.143-0.357,0.357-0.357c0.208,0,0.351,0.156,0.351,0.357    c0,0.188-0.136,0.351-0.357,0.351H270.628z M270.354,153.365v-3.146h0.572v3.146H270.354z"/>
		<path d="M271.876,151.071c0-0.332-0.007-0.592-0.026-0.852h0.507l0.033,0.513h0.013c0.156-0.292,0.52-0.585,1.04-0.585    c0.436,0,1.111,0.26,1.111,1.339v1.878h-0.572v-1.813c0-0.507-0.188-0.936-0.728-0.936c-0.371,0-0.663,0.267-0.768,0.585    c-0.025,0.071-0.039,0.175-0.039,0.267v1.898h-0.571V151.071z"/>
		<path d="M277.699,152.611c0,0.273,0.014,0.54,0.046,0.754h-0.514l-0.052-0.396h-0.02c-0.169,0.247-0.514,0.468-0.962,0.468    c-0.637,0-0.962-0.448-0.962-0.903c0-0.761,0.676-1.177,1.892-1.17v-0.065c0-0.26-0.072-0.735-0.715-0.728    c-0.3,0-0.605,0.084-0.826,0.234l-0.13-0.384c0.26-0.162,0.644-0.273,1.04-0.273c0.969,0,1.202,0.657,1.202,1.287V152.611z     M277.141,151.76c-0.624-0.013-1.333,0.098-1.333,0.708c0,0.377,0.247,0.546,0.533,0.546c0.416,0,0.683-0.26,0.773-0.526    c0.02-0.059,0.026-0.124,0.026-0.182V151.76z"/>
		<path d="M263.273,157.465v0.754h0.818v0.436h-0.818v1.69c0,0.39,0.11,0.611,0.429,0.611c0.156,0,0.247-0.013,0.332-0.039    l0.025,0.436c-0.11,0.039-0.286,0.078-0.507,0.078c-0.267,0-0.481-0.091-0.617-0.24c-0.156-0.176-0.222-0.455-0.222-0.826v-1.709    h-0.487v-0.436h0.487v-0.579L263.273,157.465z"/>
		<path d="M264.735,156.75h0.572v1.963h0.013c0.091-0.162,0.234-0.312,0.41-0.403c0.169-0.104,0.37-0.163,0.585-0.163    c0.422,0,1.099,0.26,1.099,1.346v1.872h-0.572v-1.813c0-0.507-0.188-0.93-0.729-0.93c-0.37,0-0.656,0.26-0.767,0.572    c-0.032,0.078-0.039,0.162-0.039,0.273v1.898h-0.572V156.75z"/>
		<path d="M268.343,159.201c0-0.371-0.006-0.689-0.025-0.981h0.5l0.026,0.617h0.02c0.143-0.422,0.494-0.689,0.877-0.689    c0.059,0,0.104,0.007,0.156,0.013v0.54c-0.059-0.006-0.117-0.013-0.195-0.013c-0.402,0-0.688,0.306-0.767,0.728    c-0.013,0.084-0.02,0.176-0.02,0.267v1.684h-0.572V159.201z"/>
		<path d="M270.793,159.896c0.014,0.767,0.501,1.086,1.073,1.086c0.409,0,0.663-0.072,0.871-0.163l0.104,0.409    c-0.201,0.091-0.553,0.202-1.053,0.202c-0.962,0-1.547-0.644-1.547-1.586c0-0.949,0.565-1.697,1.481-1.697    c1.027,0,1.294,0.904,1.294,1.482c0,0.117-0.007,0.201-0.02,0.266H270.793z M272.464,159.487c0.007-0.364-0.149-0.93-0.786-0.93    c-0.585,0-0.832,0.533-0.878,0.93H272.464z"/>
		<path d="M275.941,160.611c0,0.273,0.013,0.54,0.046,0.754h-0.514l-0.053-0.396h-0.02c-0.169,0.247-0.513,0.468-0.962,0.468    c-0.637,0-0.962-0.448-0.962-0.903c0-0.761,0.676-1.177,1.892-1.17v-0.065c0-0.26-0.071-0.735-0.715-0.728    c-0.299,0-0.604,0.084-0.825,0.234l-0.13-0.384c0.26-0.162,0.644-0.273,1.04-0.273c0.968,0,1.202,0.657,1.202,1.287V160.611z     M275.383,159.76c-0.624-0.013-1.333,0.098-1.333,0.708c0,0.377,0.247,0.546,0.533,0.546c0.416,0,0.683-0.26,0.773-0.526    c0.02-0.059,0.026-0.124,0.026-0.182V159.76z"/>
		<path d="M277.547,157.465v0.754h0.819v0.436h-0.819v1.69c0,0.39,0.11,0.611,0.43,0.611c0.155,0,0.246-0.013,0.331-0.039    l0.026,0.436c-0.111,0.039-0.286,0.078-0.508,0.078c-0.266,0-0.48-0.091-0.617-0.24c-0.156-0.176-0.221-0.455-0.221-0.826v-1.709    h-0.487v-0.436h0.487v-0.579L277.547,157.465z"/>
	</g>
	<g>
		<path d="M294.533,149.049c0.247-0.058,0.644-0.097,1.033-0.097c0.565,0,0.93,0.097,1.196,0.318c0.228,0.169,0.37,0.429,0.37,0.773    c0,0.429-0.285,0.8-0.74,0.962v0.02c0.416,0.097,0.903,0.442,0.903,1.092c0,0.377-0.149,0.663-0.377,0.877    c-0.299,0.28-0.793,0.41-1.509,0.41c-0.39,0-0.688-0.026-0.877-0.052V149.049z M295.099,150.843h0.514    c0.592,0,0.942-0.319,0.942-0.741c0-0.507-0.384-0.715-0.955-0.715c-0.261,0-0.41,0.02-0.501,0.039V150.843z M295.099,152.936    c0.117,0.02,0.273,0.026,0.475,0.026c0.585,0,1.124-0.215,1.124-0.852c0-0.592-0.513-0.845-1.131-0.845h-0.468V152.936z"/>
		<path d="M300.254,152.611c0,0.273,0.013,0.54,0.045,0.754h-0.514l-0.052-0.396h-0.02c-0.169,0.247-0.514,0.468-0.962,0.468    c-0.637,0-0.962-0.448-0.962-0.903c0-0.761,0.676-1.177,1.892-1.17v-0.065c0-0.26-0.071-0.735-0.715-0.728    c-0.299,0-0.604,0.084-0.826,0.234l-0.13-0.384c0.261-0.162,0.644-0.273,1.04-0.273c0.969,0,1.203,0.657,1.203,1.287V152.611z     M299.694,151.76c-0.624-0.013-1.332,0.098-1.332,0.708c0,0.377,0.247,0.546,0.533,0.546c0.416,0,0.682-0.26,0.773-0.526    c0.02-0.059,0.025-0.124,0.025-0.182V151.76z"/>
		<path d="M303.887,148.75v3.803c0,0.279,0.007,0.598,0.026,0.812h-0.514l-0.026-0.546h-0.013c-0.176,0.351-0.553,0.617-1.066,0.617    c-0.76,0-1.352-0.644-1.352-1.599c-0.007-1.053,0.65-1.69,1.41-1.69c0.488,0,0.812,0.228,0.949,0.475h0.013v-1.872H303.887z     M303.314,151.5c0-0.078-0.006-0.169-0.025-0.247c-0.085-0.357-0.396-0.656-0.826-0.656c-0.591,0-0.942,0.52-0.942,1.209    c0,0.644,0.319,1.17,0.93,1.17c0.384,0,0.734-0.26,0.839-0.689c0.02-0.071,0.025-0.149,0.025-0.24V151.5z"/>
		<path d="M306.266,153.365v-2.71h-0.436v-0.436h0.436v-0.149c0-0.442,0.104-0.845,0.371-1.099c0.214-0.208,0.5-0.292,0.76-0.292    c0.208,0,0.377,0.045,0.488,0.091l-0.072,0.442c-0.091-0.039-0.201-0.071-0.37-0.071c-0.481,0-0.611,0.429-0.611,0.91v0.169h0.761    v0.436h-0.754v2.71H306.266z"/>
		<path d="M309.392,153.437c-0.845,0-1.508-0.624-1.508-1.618c0-1.053,0.695-1.671,1.56-1.671c0.904,0,1.515,0.657,1.515,1.612    c0,1.17-0.812,1.677-1.56,1.677H309.392z M309.418,153.008c0.546,0,0.955-0.514,0.955-1.229c0-0.533-0.267-1.203-0.942-1.203    c-0.669,0-0.962,0.624-0.962,1.222c0,0.689,0.39,1.209,0.942,1.209H309.418z"/>
		<path d="M311.68,151.201c0-0.371-0.007-0.689-0.026-0.981h0.501l0.025,0.617h0.02c0.144-0.422,0.494-0.689,0.878-0.689    c0.059,0,0.104,0.007,0.156,0.013v0.54c-0.059-0.006-0.117-0.013-0.195-0.013c-0.403,0-0.688,0.306-0.767,0.728    c-0.014,0.084-0.02,0.176-0.02,0.267v1.684h-0.572V151.201z"/>
		<path d="M286.86,159.896c0.013,0.767,0.5,1.086,1.072,1.086c0.409,0,0.663-0.072,0.871-0.163l0.104,0.409    c-0.201,0.091-0.552,0.202-1.053,0.202c-0.962,0-1.547-0.644-1.547-1.586c0-0.949,0.565-1.697,1.482-1.697    c1.026,0,1.293,0.904,1.293,1.482c0,0.117-0.007,0.201-0.02,0.266H286.86z M288.53,159.487c0.007-0.364-0.149-0.93-0.786-0.93    c-0.585,0-0.832,0.533-0.878,0.93H288.53z"/>
		<path d="M289.792,159.071c0-0.332-0.007-0.592-0.026-0.852h0.507l0.033,0.513h0.013c0.156-0.292,0.521-0.585,1.04-0.585    c0.436,0,1.111,0.26,1.111,1.339v1.878h-0.571v-1.813c0-0.507-0.189-0.936-0.729-0.936c-0.37,0-0.663,0.267-0.767,0.585    c-0.026,0.071-0.039,0.175-0.039,0.267v1.898h-0.572V159.071z"/>
		<path d="M293.62,158.219l0.618,1.761c0.104,0.293,0.188,0.553,0.253,0.812h0.02c0.071-0.26,0.163-0.52,0.267-0.812l0.611-1.761    h0.598l-1.235,3.146h-0.546l-1.195-3.146H293.62z"/>
		<path d="M296.798,157.686c-0.208,0-0.344-0.163-0.344-0.351c0-0.201,0.143-0.357,0.357-0.357c0.208,0,0.351,0.156,0.351,0.357    c0,0.188-0.137,0.351-0.357,0.351H296.798z M296.525,161.365v-3.146h0.572v3.146H296.525z"/>
		<path d="M298.047,159.201c0-0.371-0.007-0.689-0.026-0.981h0.501l0.025,0.617h0.02c0.144-0.422,0.494-0.689,0.878-0.689    c0.059,0,0.104,0.007,0.156,0.013v0.54c-0.059-0.006-0.117-0.013-0.195-0.013c-0.403,0-0.688,0.306-0.767,0.728    c-0.014,0.084-0.02,0.176-0.02,0.267v1.684h-0.572V159.201z"/>
		<path d="M301.452,161.437c-0.845,0-1.508-0.624-1.508-1.618c0-1.053,0.695-1.671,1.56-1.671c0.904,0,1.515,0.657,1.515,1.612    c0,1.17-0.812,1.677-1.56,1.677H301.452z M301.479,161.008c0.546,0,0.955-0.514,0.955-1.229c0-0.533-0.267-1.203-0.942-1.203    c-0.669,0-0.962,0.624-0.962,1.222c0,0.689,0.39,1.209,0.942,1.209H301.479z"/>
		<path d="M303.74,159.071c0-0.332-0.007-0.592-0.026-0.852h0.507l0.033,0.513h0.013c0.156-0.292,0.521-0.585,1.04-0.585    c0.436,0,1.111,0.26,1.111,1.339v1.878h-0.571v-1.813c0-0.507-0.188-0.936-0.729-0.936c-0.37,0-0.663,0.267-0.767,0.585    c-0.026,0.071-0.039,0.175-0.039,0.267v1.898h-0.572V159.071z"/>
		<path d="M307.348,159.071c0-0.332-0.013-0.592-0.026-0.852h0.501l0.025,0.507h0.02c0.176-0.299,0.469-0.579,0.995-0.579    c0.422,0,0.747,0.26,0.884,0.631h0.013c0.098-0.182,0.228-0.312,0.357-0.41c0.188-0.143,0.391-0.221,0.689-0.221    c0.423,0,1.04,0.273,1.04,1.365v1.853h-0.559v-1.781c0-0.611-0.228-0.968-0.683-0.968c-0.332,0-0.579,0.24-0.683,0.513    c-0.026,0.085-0.046,0.189-0.046,0.286v1.95h-0.559v-1.892c0-0.5-0.222-0.858-0.657-0.858c-0.351,0-0.617,0.286-0.708,0.572    c-0.032,0.084-0.046,0.182-0.046,0.28v1.898h-0.559V159.071z"/>
		<path d="M313.094,159.896c0.013,0.767,0.5,1.086,1.072,1.086c0.409,0,0.663-0.072,0.871-0.163l0.104,0.409    c-0.201,0.091-0.552,0.202-1.053,0.202c-0.962,0-1.547-0.644-1.547-1.586c0-0.949,0.565-1.697,1.482-1.697    c1.026,0,1.293,0.904,1.293,1.482c0,0.117-0.006,0.201-0.02,0.266H313.094z M314.764,159.487c0.007-0.364-0.149-0.93-0.786-0.93    c-0.585,0-0.832,0.533-0.878,0.93H314.764z"/>
		<path d="M316.025,159.071c0-0.332-0.007-0.592-0.026-0.852h0.507l0.033,0.513h0.013c0.156-0.292,0.521-0.585,1.04-0.585    c0.436,0,1.111,0.26,1.111,1.339v1.878h-0.571v-1.813c0-0.507-0.188-0.936-0.729-0.936c-0.37,0-0.663,0.267-0.767,0.585    c-0.026,0.071-0.039,0.175-0.039,0.267v1.898h-0.572V159.071z"/>
		<path d="M320.321,157.465v0.754h0.819v0.436h-0.819v1.69c0,0.39,0.111,0.611,0.43,0.611c0.156,0,0.247-0.013,0.331-0.039    l0.026,0.436c-0.11,0.039-0.286,0.078-0.507,0.078c-0.267,0-0.481-0.091-0.618-0.24c-0.155-0.176-0.221-0.455-0.221-0.826v-1.709    h-0.487v-0.436h0.487v-0.579L320.321,157.465z"/>
	</g>
	<g>
		<path d="M323.023,153.365l-1.111-4.381h0.598l0.52,2.217c0.131,0.552,0.248,1.092,0.326,1.515h0.012    c0.072-0.436,0.209-0.956,0.357-1.521l0.586-2.21h0.592l0.533,2.223c0.123,0.527,0.24,1.04,0.305,1.501h0.014    c0.09-0.481,0.213-0.968,0.35-1.514l0.58-2.21h0.578l-1.242,4.381h-0.592l-0.553-2.275c-0.137-0.566-0.227-0.995-0.285-1.437    h-0.014c-0.07,0.442-0.176,0.864-0.338,1.43l-0.623,2.282H323.023z"/>
		<path d="M328.061,149.686c-0.209,0-0.344-0.163-0.344-0.351c0-0.201,0.143-0.357,0.357-0.357c0.207,0,0.35,0.156,0.35,0.357    c0,0.188-0.137,0.351-0.357,0.351H328.061z M327.787,153.365v-3.146h0.572v3.146H327.787z"/>
		<path d="M329.309,148.75h0.572v4.615h-0.572V148.75z"/>
		<path d="M330.842,148.75h0.572v4.615h-0.572V148.75z"/>
		<path d="M334.027,149.686c-0.209,0-0.344-0.163-0.344-0.351c0-0.201,0.143-0.357,0.357-0.357c0.207,0,0.35,0.156,0.35,0.357    c0,0.188-0.137,0.351-0.357,0.351H334.027z M333.754,153.365v-3.146h0.572v3.146H333.754z"/>
		<path d="M335.275,151.071c0-0.332-0.008-0.592-0.027-0.852h0.508l0.033,0.513h0.012c0.156-0.292,0.521-0.585,1.041-0.585    c0.436,0,1.111,0.26,1.111,1.339v1.878h-0.572v-1.813c0-0.507-0.189-0.936-0.729-0.936c-0.369,0-0.662,0.267-0.766,0.585    c-0.027,0.071-0.039,0.175-0.039,0.267v1.898h-0.572V151.071z"/>
		<path d="M341.125,153.248c-0.15,0.072-0.48,0.182-0.904,0.182c-0.949,0-1.566-0.644-1.566-1.605c0-0.969,0.664-1.677,1.691-1.677    c0.338,0,0.637,0.084,0.793,0.169l-0.131,0.436c-0.137-0.071-0.352-0.149-0.662-0.149c-0.723,0-1.113,0.54-1.113,1.189    c0,0.728,0.469,1.177,1.094,1.177c0.324,0,0.539-0.078,0.701-0.149L341.125,153.248z"/>
		<path d="M341.795,151.201c0-0.371-0.008-0.689-0.027-0.981h0.502l0.025,0.617h0.02c0.143-0.422,0.494-0.689,0.877-0.689    c0.059,0,0.104,0.007,0.156,0.013v0.54c-0.059-0.006-0.117-0.013-0.195-0.013c-0.402,0-0.689,0.306-0.766,0.728    c-0.014,0.084-0.02,0.176-0.02,0.267v1.684h-0.572V151.201z"/>
		<path d="M344.246,151.896c0.012,0.767,0.5,1.086,1.072,1.086c0.408,0,0.662-0.072,0.871-0.163l0.104,0.409    c-0.201,0.091-0.553,0.202-1.053,0.202c-0.963,0-1.547-0.644-1.547-1.586c0-0.949,0.564-1.697,1.482-1.697    c1.025,0,1.293,0.904,1.293,1.482c0,0.117-0.008,0.201-0.02,0.266H344.246z M345.916,151.487c0.006-0.364-0.15-0.93-0.787-0.93    c-0.584,0-0.832,0.533-0.877,0.93H345.916z"/>
		<path d="M349.393,152.611c0,0.273,0.014,0.54,0.045,0.754h-0.514l-0.051-0.396h-0.02c-0.17,0.247-0.514,0.468-0.963,0.468    c-0.637,0-0.961-0.448-0.961-0.903c0-0.761,0.676-1.177,1.891-1.17v-0.065c0-0.26-0.07-0.735-0.715-0.728    c-0.299,0-0.604,0.084-0.826,0.234l-0.129-0.384c0.26-0.162,0.643-0.273,1.039-0.273c0.969,0,1.203,0.657,1.203,1.287V152.611z     M348.834,151.76c-0.625-0.013-1.332,0.098-1.332,0.708c0,0.377,0.246,0.546,0.533,0.546c0.416,0,0.682-0.26,0.773-0.526    c0.02-0.059,0.025-0.124,0.025-0.182V151.76z"/>
		<path d="M350.23,152.78c0.176,0.104,0.475,0.221,0.762,0.221c0.408,0,0.604-0.201,0.604-0.468c0-0.273-0.162-0.416-0.578-0.572    c-0.572-0.208-0.838-0.52-0.838-0.89c0-0.507,0.416-0.923,1.084-0.923c0.32,0,0.6,0.084,0.768,0.195l-0.137,0.409    c-0.123-0.071-0.35-0.182-0.643-0.182c-0.338,0-0.52,0.195-0.52,0.429c0,0.26,0.182,0.377,0.59,0.54    c0.541,0.202,0.826,0.475,0.826,0.943c0,0.559-0.436,0.949-1.17,0.949c-0.344,0-0.662-0.091-0.885-0.221L350.23,152.78z"/>
		<path d="M353.209,151.896c0.012,0.767,0.5,1.086,1.072,1.086c0.408,0,0.662-0.072,0.871-0.163l0.104,0.409    c-0.201,0.091-0.553,0.202-1.053,0.202c-0.963,0-1.547-0.644-1.547-1.586c0-0.949,0.564-1.697,1.482-1.697    c1.025,0,1.293,0.904,1.293,1.482c0,0.117-0.008,0.201-0.02,0.266H353.209z M354.879,151.487c0.006-0.364-0.15-0.93-0.787-0.93    c-0.584,0-0.832,0.533-0.877,0.93H354.879z"/>
		<path d="M331.145,161.248c-0.15,0.072-0.48,0.182-0.904,0.182c-0.949,0-1.566-0.644-1.566-1.605c0-0.969,0.664-1.677,1.691-1.677    c0.338,0,0.637,0.084,0.793,0.169l-0.131,0.436c-0.137-0.071-0.352-0.149-0.662-0.149c-0.723,0-1.113,0.54-1.113,1.189    c0,0.728,0.469,1.177,1.094,1.177c0.324,0,0.539-0.078,0.701-0.149L331.145,161.248z"/>
		<path d="M333.094,161.437c-0.844,0-1.508-0.624-1.508-1.618c0-1.053,0.695-1.671,1.561-1.671c0.904,0,1.514,0.657,1.514,1.612    c0,1.17-0.812,1.677-1.559,1.677H333.094z M333.121,161.008c0.545,0,0.955-0.514,0.955-1.229c0-0.533-0.268-1.203-0.943-1.203    c-0.668,0-0.961,0.624-0.961,1.222c0,0.689,0.389,1.209,0.941,1.209H333.121z"/>
		<path d="M335.305,160.78c0.176,0.104,0.475,0.221,0.76,0.221c0.41,0,0.605-0.201,0.605-0.468c0-0.273-0.164-0.416-0.58-0.572    c-0.57-0.208-0.838-0.52-0.838-0.89c0-0.507,0.416-0.923,1.086-0.923c0.318,0,0.598,0.084,0.768,0.195l-0.137,0.409    c-0.123-0.071-0.352-0.182-0.645-0.182c-0.338,0-0.52,0.195-0.52,0.429c0,0.26,0.182,0.377,0.592,0.54    c0.539,0.202,0.826,0.475,0.826,0.943c0,0.559-0.436,0.949-1.172,0.949c-0.344,0-0.662-0.091-0.883-0.221L335.305,160.78z"/>
		<path d="M338.645,157.465v0.754h0.82v0.436h-0.82v1.69c0,0.39,0.111,0.611,0.43,0.611c0.156,0,0.248-0.013,0.332-0.039    l0.025,0.436c-0.109,0.039-0.285,0.078-0.506,0.078c-0.268,0-0.482-0.091-0.619-0.24c-0.154-0.176-0.221-0.455-0.221-0.826v-1.709    H337.6v-0.436h0.486v-0.579L338.645,157.465z"/>
		<path d="M340.029,160.78c0.176,0.104,0.475,0.221,0.762,0.221c0.408,0,0.604-0.201,0.604-0.468c0-0.273-0.162-0.416-0.578-0.572    c-0.572-0.208-0.838-0.52-0.838-0.89c0-0.507,0.416-0.923,1.084-0.923c0.32,0,0.6,0.084,0.768,0.195l-0.137,0.409    c-0.123-0.071-0.35-0.182-0.643-0.182c-0.338,0-0.52,0.195-0.52,0.429c0,0.26,0.182,0.377,0.59,0.54    c0.541,0.202,0.826,0.475,0.826,0.943c0,0.559-0.436,0.949-1.17,0.949c-0.344,0-0.662-0.091-0.885-0.221L340.029,160.78z"/>
		<path d="M345.34,161.437c-0.844,0-1.508-0.624-1.508-1.618c0-1.053,0.695-1.671,1.561-1.671c0.904,0,1.514,0.657,1.514,1.612    c0,1.17-0.812,1.677-1.559,1.677H345.34z M345.367,161.008c0.545,0,0.955-0.514,0.955-1.229c0-0.533-0.268-1.203-0.943-1.203    c-0.668,0-0.961,0.624-0.961,1.222c0,0.689,0.389,1.209,0.941,1.209H345.367z"/>
		<path d="M347.68,161.365v-2.71h-0.436v-0.436h0.436v-0.149c0-0.442,0.105-0.845,0.371-1.099c0.215-0.208,0.5-0.292,0.76-0.292    c0.209,0,0.377,0.045,0.488,0.091l-0.072,0.442c-0.09-0.039-0.201-0.071-0.369-0.071c-0.482,0-0.611,0.429-0.611,0.91v0.169h0.76    v0.436h-0.754v2.71H347.68z"/>
		<path d="M333.4,168.904c0,0.728-0.15,1.164-0.449,1.443c-0.311,0.28-0.754,0.377-1.15,0.377c-0.377,0-0.793-0.091-1.047-0.26    l0.145-0.442c0.207,0.136,0.533,0.253,0.922,0.253c0.586,0,1.014-0.306,1.014-1.105v-0.345h-0.012    c-0.17,0.292-0.514,0.526-1.002,0.526c-0.779,0-1.338-0.663-1.338-1.541c0-1.066,0.695-1.664,1.424-1.664    c0.545,0,0.838,0.28,0.98,0.546h0.014l0.02-0.475h0.506c-0.02,0.221-0.025,0.481-0.025,0.858V168.904z M332.828,167.454    c0-0.091-0.006-0.175-0.031-0.253c-0.105-0.338-0.379-0.611-0.801-0.611c-0.545,0-0.936,0.461-0.936,1.196    c0,0.611,0.318,1.131,0.93,1.131c0.357,0,0.676-0.221,0.793-0.591c0.033-0.091,0.045-0.202,0.045-0.306V167.454z"/>
		<path d="M335.623,169.437c-0.844,0-1.508-0.624-1.508-1.618c0-1.053,0.695-1.671,1.561-1.671c0.904,0,1.514,0.657,1.514,1.612    c0,1.17-0.812,1.677-1.559,1.677H335.623z M335.65,169.008c0.545,0,0.955-0.514,0.955-1.229c0-0.533-0.268-1.203-0.943-1.203    c-0.668,0-0.961,0.624-0.961,1.222c0,0.689,0.389,1.209,0.941,1.209H335.65z"/>
		<path d="M339.191,169.437c-0.844,0-1.508-0.624-1.508-1.618c0-1.053,0.695-1.671,1.561-1.671c0.904,0,1.514,0.657,1.514,1.612    c0,1.17-0.812,1.677-1.559,1.677H339.191z M339.219,169.008c0.545,0,0.955-0.514,0.955-1.229c0-0.533-0.268-1.203-0.943-1.203    c-0.668,0-0.961,0.624-0.961,1.222c0,0.689,0.389,1.209,0.941,1.209H339.219z"/>
		<path d="M344.197,164.75v3.803c0,0.279,0.006,0.598,0.025,0.812h-0.514l-0.025-0.546h-0.014c-0.176,0.351-0.553,0.617-1.066,0.617    c-0.76,0-1.352-0.644-1.352-1.599c-0.006-1.053,0.65-1.69,1.41-1.69c0.488,0,0.812,0.228,0.949,0.475h0.014v-1.872H344.197z     M343.625,167.5c0-0.078-0.006-0.169-0.025-0.247c-0.086-0.357-0.396-0.656-0.826-0.656c-0.592,0-0.943,0.52-0.943,1.209    c0,0.644,0.318,1.17,0.93,1.17c0.385,0,0.734-0.26,0.84-0.689c0.02-0.071,0.025-0.149,0.025-0.24V167.5z"/>
		<path d="M345.068,168.78c0.176,0.104,0.475,0.221,0.76,0.221c0.41,0,0.605-0.201,0.605-0.468c0-0.273-0.164-0.416-0.58-0.572    c-0.57-0.208-0.838-0.52-0.838-0.89c0-0.507,0.416-0.923,1.086-0.923c0.318,0,0.598,0.084,0.768,0.195l-0.137,0.409    c-0.123-0.071-0.352-0.182-0.645-0.182c-0.338,0-0.52,0.195-0.52,0.429c0,0.26,0.182,0.377,0.592,0.54    c0.539,0.202,0.826,0.475,0.826,0.943c0,0.559-0.436,0.949-1.172,0.949c-0.344,0-0.662-0.091-0.883-0.221L345.068,168.78z"/>
	</g>
	
		<line fill="none" stroke="#000000" stroke-width="0.5" stroke-linejoin="round" stroke-miterlimit="10" x1="13.749" y1="2.666" x2="10.749" y2="2.666"/>
	
		<line fill="none" stroke="#000000" stroke-width="0.5" stroke-linejoin="round" stroke-miterlimit="10" x1="13.749" y1="18.394" x2="10.749" y2="18.394"/>
	
		<line fill="none" stroke="#000000" stroke-width="0.5" stroke-linejoin="round" stroke-miterlimit="10" x1="13.749" y1="34.122" x2="10.749" y2="34.122"/>
	
		<line fill="none" stroke="#000000" stroke-width="0.5" stroke-linejoin="round" stroke-miterlimit="10" x1="13.749" y1="49.85" x2="10.749" y2="49.85"/>
	
		<line fill="none" stroke="#000000" stroke-width="0.5" stroke-linejoin="round" stroke-miterlimit="10" x1="13.749" y1="65.578" x2="10.749" y2="65.578"/>
	
		<line fill="none" stroke="#000000" stroke-width="0.5" stroke-linejoin="round" stroke-miterlimit="10" x1="13.749" y1="81.306" x2="10.749" y2="81.306"/>
	
		<line fill="none" stroke="#000000" stroke-width="0.5" stroke-linejoin="round" stroke-miterlimit="10" x1="13.749" y1="97.034" x2="10.749" y2="97.034"/>
	
		<line fill="none" stroke="#000000" stroke-width="0.5" stroke-linejoin="round" stroke-miterlimit="10" x1="13.749" y1="112.762" x2="10.749" y2="112.762"/>
	
		<line fill="none" stroke="#000000" stroke-width="0.5" stroke-linejoin="round" stroke-miterlimit="10" x1="13.749" y1="128.49" x2="10.749" y2="128.49"/>
	
		<line fill="none" stroke="#000000" stroke-width="0.5" stroke-linejoin="round" stroke-miterlimit="10" x1="13.749" y1="144.218" x2="10.749" y2="144.218"/>
</g>
</svg>