<svg xmlns="http://www.w3.org/2000/svg" xmlns:xlink="http://www.w3.org/1999/xlink" version="1.1" x="0px" y="0px" width="278.188px" height="198.54px" viewBox="0 0 278.188 198.54" enable-background="new 0 0 278.188 198.54" xml:space="preserve">
<g id="wide">
</g>
<g id="text_column" display="none">
</g>
<g id="art">
	<g>
		<path d="M1.642,7.079c-0.965,0-1.626-0.951-1.642-2.67c0-1.751,0.722-2.703,1.725-2.703c1.033,0,1.634,0.976,1.634,2.631    c0,1.767-0.631,2.742-1.71,2.742H1.642z M1.68,6.536c0.676,0,1.003-0.84,1.003-2.167c0-1.279-0.304-2.119-1.003-2.119    c-0.608,0-1.003,0.815-1.003,2.119C0.661,5.72,1.056,6.536,1.672,6.536H1.68z"/>
		<path d="M4.461,7.079c-0.258,0-0.441-0.216-0.441-0.504c0-0.288,0.19-0.503,0.456-0.503S4.925,6.28,4.925,6.575    c0,0.288-0.182,0.504-0.456,0.504H4.461z"/>
		<path d="M8.359,2.29C8.223,2.282,8.048,2.298,7.858,2.33C6.802,2.506,6.254,3.305,6.141,4.169h0.015    c0.235-0.336,0.653-0.608,1.201-0.608c0.874,0,1.489,0.672,1.489,1.679c0,0.959-0.616,1.839-1.649,1.839    c-1.049,0-1.74-0.863-1.74-2.215c0-1.023,0.342-1.831,0.836-2.343c0.41-0.424,0.958-0.688,1.581-0.768    c0.198-0.032,0.365-0.04,0.486-0.04V2.29z M7.212,6.536c0.57,0,0.958-0.504,0.958-1.248S7.767,4.097,7.151,4.097    c-0.403,0-0.783,0.256-0.965,0.64C6.148,4.816,6.118,4.912,6.118,5.04c0.008,0.856,0.388,1.496,1.087,1.496H7.212z"/>
		<path d="M11.012,7.079c-0.965,0-1.626-0.951-1.642-2.67c0-1.751,0.722-2.703,1.725-2.703c1.033,0,1.634,0.976,1.634,2.631    c0,1.767-0.631,2.742-1.71,2.742H11.012z M11.05,6.536c0.676,0,1.003-0.84,1.003-2.167c0-1.279-0.304-2.119-1.003-2.119    c-0.608,0-1.003,0.815-1.003,2.119c-0.015,1.351,0.38,2.167,0.996,2.167H11.05z"/>
		<path d="M1.642,62.169c-0.965,0-1.626-0.951-1.642-2.67c0-1.751,0.722-2.703,1.725-2.703c1.033,0,1.634,0.976,1.634,2.631    c0,1.767-0.631,2.742-1.71,2.742H1.642z M1.68,61.625c0.676,0,1.003-0.84,1.003-2.167c0-1.279-0.304-2.119-1.003-2.119    c-0.608,0-1.003,0.815-1.003,2.119c-0.015,1.351,0.38,2.167,0.996,2.167H1.68z"/>
		<path d="M4.461,62.169c-0.258,0-0.441-0.216-0.441-0.504c0-0.288,0.19-0.503,0.456-0.503s0.448,0.208,0.448,0.503    c0,0.288-0.182,0.504-0.456,0.504H4.461z"/>
		<path d="M8.489,57.476H6.604l-0.19,1.335c0.114-0.016,0.22-0.032,0.403-0.032c0.388,0,0.76,0.088,1.064,0.28    c0.387,0.224,0.707,0.68,0.707,1.335c0,1.015-0.768,1.775-1.839,1.775c-0.54,0-0.988-0.16-1.231-0.32l0.167-0.536    c0.205,0.128,0.608,0.288,1.064,0.288c0.623,0,1.17-0.432,1.163-1.136c0-0.664-0.433-1.143-1.414-1.143    c-0.289,0-0.509,0.024-0.691,0.056l0.319-2.495h2.363V57.476z"/>
		<path d="M12.388,57.476h-1.885l-0.19,1.335c0.114-0.016,0.22-0.032,0.403-0.032c0.387,0,0.76,0.088,1.064,0.28    c0.387,0.224,0.707,0.68,0.707,1.335c0,1.015-0.768,1.775-1.839,1.775c-0.54,0-0.988-0.16-1.231-0.32l0.167-0.536    c0.205,0.128,0.608,0.288,1.064,0.288c0.623,0,1.17-0.432,1.163-1.136c0-0.664-0.433-1.143-1.414-1.143    c-0.289,0-0.509,0.024-0.691,0.056l0.319-2.495h2.363V57.476z"/>
		<path d="M1.642,117.259c-0.965,0-1.626-0.952-1.642-2.67c0-1.751,0.722-2.703,1.725-2.703c1.033,0,1.634,0.976,1.634,2.63    c0,1.767-0.631,2.743-1.71,2.743H1.642z M1.68,116.716c0.676,0,1.003-0.84,1.003-2.167c0-1.279-0.304-2.119-1.003-2.119    c-0.608,0-1.003,0.815-1.003,2.119c-0.015,1.351,0.38,2.167,0.996,2.167H1.68z"/>
		<path d="M4.461,117.259c-0.258,0-0.441-0.216-0.441-0.503c0-0.288,0.19-0.504,0.456-0.504s0.448,0.208,0.448,0.504    c0,0.288-0.182,0.503-0.456,0.503H4.461z"/>
		<path d="M8.489,112.566H6.604l-0.19,1.335c0.114-0.016,0.22-0.032,0.403-0.032c0.388,0,0.76,0.088,1.064,0.28    c0.387,0.224,0.707,0.68,0.707,1.335c0,1.016-0.768,1.775-1.839,1.775c-0.54,0-0.988-0.16-1.231-0.32l0.167-0.536    c0.205,0.128,0.608,0.288,1.064,0.288c0.623,0,1.17-0.432,1.163-1.135c0-0.664-0.433-1.143-1.414-1.143    c-0.289,0-0.509,0.024-0.691,0.056l0.319-2.495h2.363V112.566z"/>
		<path d="M11.012,117.259c-0.965,0-1.626-0.952-1.642-2.67c0-1.751,0.722-2.703,1.725-2.703c1.033,0,1.634,0.976,1.634,2.63    c0,1.767-0.631,2.743-1.71,2.743H11.012z M11.05,116.716c0.676,0,1.003-0.84,1.003-2.167c0-1.279-0.304-2.119-1.003-2.119    c-0.608,0-1.003,0.815-1.003,2.119c-0.015,1.351,0.38,2.167,0.996,2.167H11.05z"/>
		<path d="M1.642,172.349c-0.965,0-1.626-0.952-1.642-2.67c0-1.751,0.722-2.703,1.725-2.703c1.033,0,1.634,0.976,1.634,2.63    c0,1.767-0.631,2.743-1.71,2.743H1.642z M1.68,171.806c0.676,0,1.003-0.84,1.003-2.167c0-1.279-0.304-2.119-1.003-2.119    c-0.608,0-1.003,0.815-1.003,2.119c-0.015,1.351,0.38,2.167,0.996,2.167H1.68z"/>
		<path d="M4.461,172.349c-0.258,0-0.441-0.216-0.441-0.503c0-0.288,0.19-0.504,0.456-0.504s0.448,0.208,0.448,0.504    c0,0.288-0.182,0.503-0.456,0.503H4.461z"/>
		<path d="M7.607,172.261v-1.423H5.312v-0.456l2.204-3.318h0.722v3.23h0.691v0.543H8.238v1.423H7.607z M7.607,170.294v-1.735    c0-0.271,0.008-0.543,0.023-0.815H7.607c-0.152,0.304-0.273,0.528-0.41,0.768l-1.208,1.767v0.016H7.607z"/>
		<path d="M12.388,167.656h-1.885l-0.19,1.335c0.114-0.016,0.22-0.032,0.403-0.032c0.387,0,0.76,0.088,1.064,0.28    c0.387,0.224,0.707,0.68,0.707,1.335c0,1.016-0.768,1.775-1.839,1.775c-0.54,0-0.988-0.16-1.231-0.32l0.167-0.536    c0.205,0.128,0.608,0.288,1.064,0.288c0.623,0,1.17-0.432,1.163-1.135c0-0.664-0.433-1.143-1.414-1.143    c-0.289,0-0.509,0.024-0.691,0.056l0.319-2.495h2.363V167.656z"/>
	</g>
	<g>
		<path d="M21.64,185.195c-0.965,0-1.626-0.951-1.642-2.67c0-1.751,0.722-2.703,1.725-2.703c1.033,0,1.634,0.976,1.634,2.631    c0,1.767-0.631,2.742-1.71,2.742H21.64z M21.678,184.652c0.676,0,1.003-0.84,1.003-2.167c0-1.279-0.304-2.119-1.003-2.119    c-0.608,0-1.003,0.815-1.003,2.119c-0.015,1.351,0.38,2.167,0.996,2.167H21.678z"/>
	</g>
	<g>
		<path d="M105.499,180.566h-0.015l-0.859,0.488l-0.129-0.536l1.079-0.608h0.57v5.197h-0.646V180.566z"/>
	</g>
	<g>
		<path d="M188.027,185.107v-0.432l0.524-0.536c1.262-1.264,1.839-1.935,1.839-2.719c0-0.528-0.235-1.015-0.973-1.015    c-0.448,0-0.82,0.24-1.049,0.439l-0.213-0.496c0.335-0.296,0.828-0.528,1.398-0.528c1.057,0,1.505,0.768,1.505,1.511    c0,0.959-0.661,1.735-1.702,2.791l-0.388,0.384v0.016h2.212v0.583H188.027z"/>
	</g>
	<g>
		<path d="M272.168,184.308c0.189,0.12,0.623,0.32,1.094,0.32c0.852,0,1.125-0.568,1.117-1.008    c-0.008-0.728-0.631-1.039-1.277-1.039h-0.371v-0.528h0.371c0.486,0,1.103-0.264,1.103-0.879c0-0.416-0.251-0.784-0.866-0.784    c-0.396,0-0.775,0.184-0.988,0.344l-0.182-0.512c0.266-0.2,0.768-0.4,1.299-0.4c0.973,0,1.414,0.608,1.414,1.239    c0,0.544-0.312,1-0.912,1.231v0.016c0.607,0.12,1.102,0.6,1.102,1.327c0,0.832-0.623,1.559-1.801,1.559    c-0.555,0-1.041-0.184-1.284-0.352L272.168,184.308z"/>
	</g>
	<g>
		<path d="M153.275,103.083l-0.598,1.909h-0.77l1.957-6.068h0.896l1.967,6.068h-0.795l-0.615-1.909H153.275z M155.164,102.471    l-0.572-1.747c-0.119-0.396-0.205-0.756-0.291-1.107h-0.025c-0.076,0.351-0.171,0.729-0.281,1.098l-0.564,1.756H155.164z"/>
		<path d="M157.662,100.634l0.812,2.44c0.137,0.405,0.248,0.765,0.332,1.125h0.026c0.095-0.36,0.214-0.721,0.351-1.125l0.803-2.44    h0.787l-1.625,4.357h-0.717l-1.572-4.357H157.662z"/>
		<path d="M161.826,102.957c0.018,1.062,0.658,1.503,1.41,1.503c0.537,0,0.871-0.099,1.145-0.225l0.137,0.567    c-0.266,0.126-0.727,0.279-1.385,0.279c-1.264,0-2.033-0.891-2.033-2.196c0-1.314,0.744-2.35,1.948-2.35    c1.351,0,1.7,1.251,1.7,2.053c0,0.162-0.008,0.279-0.025,0.369H161.826z M164.021,102.39c0.01-0.504-0.195-1.288-1.033-1.288    c-0.77,0-1.094,0.738-1.154,1.288H164.021z"/>
		<path d="M165.682,101.993c0-0.513-0.008-0.954-0.033-1.359h0.658l0.033,0.855h0.025c0.189-0.585,0.65-0.955,1.154-0.955    c0.076,0,0.137,0.009,0.205,0.018v0.748c-0.076-0.009-0.154-0.018-0.256-0.018c-0.53,0-0.906,0.423-1.009,1.008    c-0.017,0.117-0.026,0.243-0.026,0.369v2.332h-0.752V101.993z"/>
		<path d="M171.35,103.947c0,0.378,0.017,0.748,0.059,1.044h-0.674l-0.068-0.549h-0.025c-0.223,0.342-0.676,0.648-1.266,0.648    c-0.838,0-1.264-0.621-1.264-1.251c0-1.053,0.889-1.629,2.486-1.621v-0.09c0-0.36-0.094-1.018-0.94-1.008    c-0.394,0-0.794,0.117-1.085,0.324l-0.172-0.531c0.342-0.225,0.847-0.378,1.367-0.378c1.273,0,1.582,0.91,1.582,1.783V103.947z     M170.614,102.768c-0.82-0.018-1.751,0.135-1.751,0.981c0,0.522,0.324,0.756,0.699,0.756c0.547,0,0.898-0.36,1.018-0.729    c0.025-0.081,0.034-0.171,0.034-0.252V102.768z"/>
		<path d="M176.094,104.352c0,1.008-0.196,1.611-0.59,1.999c-0.41,0.387-0.99,0.522-1.512,0.522c-0.496,0-1.043-0.126-1.376-0.36    l0.188-0.612c0.273,0.189,0.7,0.351,1.213,0.351c0.77,0,1.333-0.423,1.333-1.53v-0.477h-0.017    c-0.223,0.405-0.676,0.729-1.316,0.729c-1.025,0-1.76-0.918-1.76-2.134c0-1.476,0.914-2.305,1.871-2.305    c0.717,0,1.102,0.387,1.29,0.756h0.017l0.025-0.657h0.668c-0.026,0.306-0.035,0.667-0.035,1.188V104.352z M175.342,102.344    c0-0.126-0.008-0.243-0.043-0.351c-0.137-0.468-0.495-0.846-1.051-0.846c-0.717,0-1.23,0.639-1.23,1.657    c0,0.846,0.419,1.566,1.223,1.566c0.469,0,0.889-0.306,1.042-0.819c0.042-0.126,0.06-0.279,0.06-0.423V102.344z"/>
		<path d="M177.764,102.957c0.016,1.062,0.657,1.503,1.409,1.503c0.538,0,0.872-0.099,1.146-0.225l0.137,0.567    c-0.266,0.126-0.727,0.279-1.385,0.279c-1.265,0-2.033-0.891-2.033-2.196c0-1.314,0.742-2.35,1.947-2.35    c1.351,0,1.701,1.251,1.701,2.053c0,0.162-0.009,0.279-0.025,0.369H177.764z M179.959,102.39c0.008-0.504-0.197-1.288-1.033-1.288    c-0.77,0-1.094,0.738-1.154,1.288H179.959z"/>
	</g>
	<g>
		<path d="M69.699,196.658v-6.068h0.82l1.837,3.07c0.419,0.711,0.761,1.351,1.025,1.972l0.026-0.009    c-0.068-0.811-0.085-1.549-0.085-2.485v-2.548h0.701v6.068h-0.752l-1.829-3.079c-0.401-0.675-0.786-1.368-1.068-2.025    l-0.025,0.009c0.043,0.766,0.051,1.495,0.051,2.503v2.593H69.699z"/>
		<path d="M78.76,195.461c0,0.459,0.008,0.855,0.034,1.197h-0.667l-0.043-0.711h-0.017c-0.188,0.351-0.633,0.811-1.367,0.811    c-0.649,0-1.427-0.387-1.427-1.909v-2.548h0.752v2.404c0,0.828,0.248,1.396,0.923,1.396c0.504,0,0.854-0.369,0.991-0.729    c0.042-0.108,0.068-0.252,0.068-0.405v-2.665h0.752V195.461z"/>
		<path d="M80.01,193.48c0-0.459-0.018-0.819-0.034-1.18h0.658l0.034,0.702h0.026c0.23-0.414,0.615-0.801,1.307-0.801    c0.555,0,0.983,0.36,1.162,0.874h0.017c0.128-0.252,0.299-0.432,0.47-0.567c0.248-0.198,0.513-0.306,0.906-0.306    c0.555,0,1.367,0.378,1.367,1.891v2.566h-0.735v-2.467c0-0.846-0.299-1.341-0.897-1.341c-0.436,0-0.76,0.333-0.897,0.711    c-0.034,0.117-0.06,0.261-0.06,0.396v2.701h-0.735v-2.62c0-0.693-0.291-1.188-0.863-1.188c-0.461,0-0.812,0.396-0.931,0.792    c-0.042,0.117-0.06,0.252-0.06,0.387v2.629H80.01V193.48z"/>
		<path d="M87.14,190.266h0.752v2.728h0.018c0.265-0.486,0.743-0.792,1.41-0.792c1.025,0,1.743,0.9,1.743,2.215    c0,1.566-0.94,2.341-1.863,2.341c-0.598,0-1.068-0.243-1.384-0.819h-0.017l-0.043,0.72h-0.649    c0.026-0.297,0.034-0.738,0.034-1.125V190.266z M87.892,194.912c0,0.099,0.009,0.198,0.026,0.288    c0.145,0.549,0.589,0.927,1.128,0.927c0.794,0,1.256-0.675,1.256-1.674c0-0.882-0.428-1.629-1.23-1.629    c-0.513,0-0.991,0.378-1.137,0.972c-0.025,0.099-0.043,0.207-0.043,0.333V194.912z"/>
		<path d="M92.433,194.624c0.017,1.062,0.658,1.503,1.41,1.503c0.539,0,0.872-0.099,1.145-0.225l0.137,0.567    c-0.265,0.126-0.727,0.279-1.384,0.279c-1.265,0-2.034-0.891-2.034-2.196c0-1.314,0.743-2.35,1.948-2.35    c1.35,0,1.7,1.251,1.7,2.053c0,0.162-0.008,0.279-0.025,0.369H92.433z M94.629,194.057c0.008-0.504-0.197-1.288-1.034-1.288    c-0.77,0-1.094,0.738-1.154,1.288H94.629z"/>
		<path d="M96.289,193.66c0-0.513-0.008-0.954-0.034-1.359h0.658l0.034,0.855h0.025c0.188-0.585,0.649-0.955,1.154-0.955    c0.077,0,0.137,0.009,0.205,0.018v0.748c-0.077-0.009-0.154-0.018-0.256-0.018c-0.53,0-0.906,0.423-1.008,1.008    c-0.017,0.117-0.026,0.243-0.026,0.369v2.332h-0.752V193.66z"/>
		<path d="M102.581,196.757c-1.111,0-1.982-0.864-1.982-2.242c0-1.458,0.914-2.314,2.051-2.314c1.188,0,1.991,0.91,1.991,2.233    c0,1.621-1.068,2.323-2.051,2.323H102.581z M102.615,196.163c0.718,0,1.256-0.711,1.256-1.702c0-0.738-0.35-1.666-1.239-1.666    c-0.88,0-1.265,0.864-1.265,1.693c0,0.954,0.513,1.674,1.239,1.674H102.615z"/>
		<path d="M105.66,196.658v-3.754h-0.573v-0.604h0.573v-0.207c0-0.612,0.137-1.17,0.487-1.521c0.282-0.288,0.658-0.405,1-0.405    c0.273,0,0.496,0.063,0.641,0.126l-0.094,0.612c-0.119-0.054-0.265-0.099-0.487-0.099c-0.632,0-0.803,0.594-0.803,1.26v0.234h1    v0.604h-0.991v3.754H105.66z"/>
		<path d="M112.814,195.614c0,0.378,0.017,0.748,0.06,1.044h-0.675l-0.068-0.549h-0.025c-0.223,0.342-0.675,0.648-1.265,0.648    c-0.838,0-1.265-0.621-1.265-1.251c0-1.053,0.889-1.629,2.486-1.621v-0.09c0-0.36-0.094-1.018-0.94-1.008    c-0.393,0-0.794,0.117-1.085,0.324l-0.171-0.531c0.342-0.225,0.846-0.378,1.367-0.378c1.273,0,1.581,0.91,1.581,1.783V195.614z     M112.079,194.435c-0.82-0.018-1.751,0.135-1.751,0.981c0,0.522,0.324,0.756,0.7,0.756c0.547,0,0.897-0.36,1.017-0.729    c0.026-0.081,0.034-0.171,0.034-0.252V194.435z"/>
		<path d="M116.969,196.496c-0.196,0.099-0.632,0.252-1.188,0.252c-1.248,0-2.06-0.891-2.06-2.224c0-1.341,0.872-2.323,2.222-2.323    c0.444,0,0.837,0.117,1.042,0.234l-0.171,0.603c-0.179-0.099-0.461-0.207-0.872-0.207c-0.948,0-1.461,0.747-1.461,1.647    c0,1.008,0.615,1.629,1.436,1.629c0.427,0,0.709-0.108,0.923-0.207L116.969,196.496z"/>
		<path d="M120.749,196.496c-0.196,0.099-0.632,0.252-1.188,0.252c-1.248,0-2.06-0.891-2.06-2.224c0-1.341,0.872-2.323,2.222-2.323    c0.444,0,0.837,0.117,1.042,0.234l-0.171,0.603c-0.179-0.099-0.461-0.207-0.872-0.207c-0.948,0-1.461,0.747-1.461,1.647    c0,1.008,0.615,1.629,1.436,1.629c0.427,0,0.709-0.108,0.923-0.207L120.749,196.496z"/>
		<path d="M125.091,195.461c0,0.459,0.009,0.855,0.034,1.197h-0.667l-0.042-0.711h-0.018c-0.188,0.351-0.632,0.811-1.367,0.811    c-0.649,0-1.427-0.387-1.427-1.909v-2.548h0.752v2.404c0,0.828,0.248,1.396,0.923,1.396c0.504,0,0.854-0.369,0.991-0.729    c0.043-0.108,0.068-0.252,0.068-0.405v-2.665h0.752V195.461z"/>
		<path d="M126.341,193.66c0-0.513-0.008-0.954-0.034-1.359h0.658l0.034,0.855h0.025c0.188-0.585,0.649-0.955,1.154-0.955    c0.077,0,0.137,0.009,0.205,0.018v0.748c-0.077-0.009-0.154-0.018-0.256-0.018c-0.53,0-0.906,0.423-1.008,1.008    c-0.017,0.117-0.026,0.243-0.026,0.369v2.332h-0.752V193.66z"/>
		<path d="M132.009,195.614c0,0.378,0.017,0.748,0.06,1.044h-0.675l-0.068-0.549h-0.026c-0.222,0.342-0.675,0.648-1.265,0.648    c-0.837,0-1.265-0.621-1.265-1.251c0-1.053,0.889-1.629,2.487-1.621v-0.09c0-0.36-0.094-1.018-0.94-1.008    c-0.393,0-0.795,0.117-1.085,0.324l-0.171-0.531c0.342-0.225,0.846-0.378,1.367-0.378c1.273,0,1.581,0.91,1.581,1.783V195.614z     M131.274,194.435c-0.82-0.018-1.752,0.135-1.752,0.981c0,0.522,0.325,0.756,0.701,0.756c0.547,0,0.897-0.36,1.017-0.729    c0.025-0.081,0.034-0.171,0.034-0.252V194.435z"/>
		<path d="M134.087,191.257v1.044h1.077v0.604h-1.077v2.34c0,0.541,0.146,0.846,0.564,0.846c0.205,0,0.324-0.018,0.436-0.054    l0.034,0.603c-0.146,0.054-0.376,0.108-0.667,0.108c-0.35,0-0.632-0.126-0.812-0.333c-0.205-0.243-0.29-0.63-0.29-1.143v-2.368    h-0.641v-0.604h0.641V191.5L134.087,191.257z"/>
		<path d="M136.387,194.624c0.018,1.062,0.658,1.503,1.41,1.503c0.538,0,0.872-0.099,1.145-0.225l0.137,0.567    c-0.265,0.126-0.726,0.279-1.384,0.279c-1.265,0-2.034-0.891-2.034-2.196c0-1.314,0.744-2.35,1.948-2.35    c1.35,0,1.701,1.251,1.701,2.053c0,0.162-0.009,0.279-0.026,0.369H136.387z M138.583,194.057c0.009-0.504-0.196-1.288-1.034-1.288    c-0.769,0-1.094,0.738-1.153,1.288H138.583z"/>
		<path d="M142.962,191.257v1.044h1.076v0.604h-1.076v2.34c0,0.541,0.145,0.846,0.563,0.846c0.205,0,0.325-0.018,0.436-0.054    l0.034,0.603c-0.145,0.054-0.376,0.108-0.667,0.108c-0.351,0-0.632-0.126-0.812-0.333c-0.205-0.243-0.291-0.63-0.291-1.143v-2.368    h-0.641v-0.604h0.641V191.5L142.962,191.257z"/>
		<path d="M144.886,193.66c0-0.513-0.008-0.954-0.034-1.359h0.658l0.034,0.855h0.025c0.188-0.585,0.649-0.955,1.154-0.955    c0.077,0,0.137,0.009,0.205,0.018v0.748c-0.077-0.009-0.154-0.018-0.256-0.018c-0.53,0-0.906,0.423-1.008,1.008    c-0.017,0.117-0.026,0.243-0.026,0.369v2.332h-0.752V193.66z"/>
		<path d="M150.553,195.614c0,0.378,0.018,0.748,0.061,1.044h-0.676l-0.068-0.549h-0.025c-0.223,0.342-0.675,0.648-1.264,0.648    c-0.838,0-1.266-0.621-1.266-1.251c0-1.053,0.889-1.629,2.486-1.621v-0.09c0-0.36-0.094-1.018-0.939-1.008    c-0.393,0-0.795,0.117-1.086,0.324l-0.17-0.531c0.342-0.225,0.846-0.378,1.367-0.378c1.273,0,1.58,0.91,1.58,1.783V195.614z     M149.818,194.435c-0.82-0.018-1.752,0.135-1.752,0.981c0,0.522,0.324,0.756,0.701,0.756c0.547,0,0.896-0.36,1.017-0.729    c0.026-0.081,0.034-0.171,0.034-0.252V194.435z"/>
		<path d="M155.332,190.266v5.267c0,0.387,0.009,0.829,0.035,1.125h-0.676l-0.034-0.756h-0.017c-0.23,0.486-0.727,0.855-1.402,0.855    c-1,0-1.777-0.891-1.777-2.215c-0.008-1.458,0.855-2.341,1.855-2.341c0.641,0,1.067,0.315,1.246,0.657h0.018v-2.593H155.332z     M154.58,194.074c0-0.108-0.008-0.234-0.033-0.342c-0.111-0.495-0.521-0.909-1.086-0.909c-0.777,0-1.238,0.72-1.238,1.674    c0,0.891,0.418,1.621,1.221,1.621c0.504,0,0.967-0.36,1.104-0.955c0.025-0.099,0.033-0.207,0.033-0.333V194.074z"/>
		<path d="M156.941,191.562c-0.273,0-0.453-0.225-0.453-0.486c0-0.279,0.188-0.495,0.471-0.495c0.273,0,0.461,0.216,0.461,0.495    c0,0.261-0.18,0.486-0.47,0.486H156.941z M156.582,196.658v-4.357h0.752v4.357H156.582z"/>
		<path d="M158.584,193.48c0-0.459-0.01-0.819-0.035-1.18h0.666l0.043,0.711h0.018c0.205-0.405,0.684-0.811,1.367-0.811    c0.572,0,1.461,0.36,1.461,1.855v2.602h-0.752v-2.512c0-0.702-0.248-1.296-0.957-1.296c-0.486,0-0.871,0.369-1.008,0.81    c-0.035,0.099-0.051,0.243-0.051,0.369v2.629h-0.752V193.48z"/>
		<path d="M166.865,196.019c0,1.008-0.195,1.611-0.589,1.999c-0.41,0.387-0.991,0.522-1.513,0.522c-0.496,0-1.043-0.126-1.375-0.36    l0.188-0.612c0.273,0.189,0.701,0.351,1.213,0.351c0.77,0,1.334-0.423,1.334-1.53v-0.477h-0.018    c-0.223,0.405-0.676,0.729-1.316,0.729c-1.025,0-1.76-0.918-1.76-2.134c0-1.476,0.914-2.305,1.871-2.305    c0.719,0,1.103,0.387,1.291,0.756h0.017l0.026-0.657h0.666c-0.025,0.306-0.035,0.667-0.035,1.188V196.019z M166.113,194.011    c0-0.126-0.008-0.243-0.042-0.351c-0.137-0.468-0.495-0.846-1.052-0.846c-0.717,0-1.23,0.639-1.23,1.657    c0,0.846,0.42,1.566,1.223,1.566c0.471,0,0.889-0.306,1.043-0.819c0.043-0.126,0.059-0.279,0.059-0.423V194.011z"/>
		<path d="M169.92,193.723c0-0.558-0.008-1.008-0.033-1.422h0.675l0.042,0.748h0.018c0.299-0.541,0.795-0.847,1.461-0.847    c1.009,0,1.761,0.892,1.761,2.215c0,1.566-0.915,2.341-1.88,2.341c-0.555,0-1.025-0.252-1.273-0.684h-0.018v2.368h-0.752V193.723z     M170.672,194.885c0,0.108,0.01,0.225,0.035,0.324c0.128,0.549,0.59,0.927,1.119,0.927c0.795,0,1.256-0.685,1.256-1.684    c0-0.874-0.428-1.621-1.222-1.621c-0.513,0-0.999,0.378-1.146,0.981c-0.017,0.099-0.043,0.216-0.043,0.315V194.885z"/>
		<path d="M177.699,195.614c0,0.378,0.018,0.748,0.061,1.044h-0.676l-0.068-0.549h-0.025c-0.223,0.342-0.676,0.648-1.266,0.648    c-0.836,0-1.264-0.621-1.264-1.251c0-1.053,0.889-1.629,2.486-1.621v-0.09c0-0.36-0.094-1.018-0.939-1.008    c-0.394,0-0.795,0.117-1.086,0.324l-0.17-0.531c0.342-0.225,0.846-0.378,1.367-0.378c1.272,0,1.58,0.91,1.58,1.783V195.614z     M176.965,194.435c-0.82-0.018-1.752,0.135-1.752,0.981c0,0.522,0.324,0.756,0.701,0.756c0.547,0,0.896-0.36,1.016-0.729    c0.025-0.081,0.035-0.171,0.035-0.252V194.435z"/>
		<path d="M178.906,193.66c0-0.513-0.008-0.954-0.033-1.359h0.657l0.034,0.855h0.025c0.188-0.585,0.65-0.955,1.154-0.955    c0.076,0,0.137,0.009,0.205,0.018v0.748c-0.078-0.009-0.154-0.018-0.257-0.018c-0.53,0-0.905,0.423-1.009,1.008    c-0.017,0.117-0.025,0.243-0.025,0.369v2.332h-0.752V193.66z"/>
		<path d="M182.812,191.257v1.044h1.078v0.604h-1.078v2.34c0,0.541,0.146,0.846,0.564,0.846c0.205,0,0.324-0.018,0.436-0.054    l0.035,0.603c-0.146,0.054-0.377,0.108-0.667,0.108c-0.351,0-0.632-0.126-0.812-0.333c-0.205-0.243-0.291-0.63-0.291-1.143v-2.368    h-0.641v-0.604h0.641V191.5L182.812,191.257z"/>
		<path d="M184.736,193.48c0-0.459-0.008-0.819-0.033-1.18h0.666l0.043,0.711h0.018c0.205-0.405,0.684-0.811,1.367-0.811    c0.572,0,1.461,0.36,1.461,1.855v2.602h-0.752v-2.512c0-0.702-0.248-1.296-0.957-1.296c-0.487,0-0.871,0.369-1.008,0.81    c-0.035,0.099-0.053,0.243-0.053,0.369v2.629h-0.752V193.48z"/>
		<path d="M189.91,194.624c0.016,1.062,0.657,1.503,1.409,1.503c0.538,0,0.872-0.099,1.146-0.225l0.137,0.567    c-0.266,0.126-0.727,0.279-1.385,0.279c-1.265,0-2.033-0.891-2.033-2.196c0-1.314,0.742-2.35,1.947-2.35    c1.351,0,1.701,1.251,1.701,2.053c0,0.162-0.009,0.279-0.025,0.369H189.91z M192.105,194.057c0.008-0.504-0.197-1.288-1.033-1.288    c-0.77,0-1.094,0.738-1.154,1.288H192.105z"/>
		<path d="M193.766,193.66c0-0.513-0.008-0.954-0.033-1.359h0.657l0.034,0.855h0.025c0.188-0.585,0.65-0.955,1.154-0.955    c0.076,0,0.137,0.009,0.205,0.018v0.748c-0.078-0.009-0.154-0.018-0.257-0.018c-0.53,0-0.905,0.423-1.009,1.008    c-0.017,0.117-0.025,0.243-0.025,0.369v2.332h-0.752V193.66z"/>
		<path d="M196.459,195.848c0.23,0.144,0.624,0.306,1,0.306c0.539,0,0.795-0.279,0.795-0.648c0-0.378-0.214-0.576-0.761-0.792    c-0.752-0.288-1.103-0.721-1.103-1.233c0-0.703,0.547-1.279,1.428-1.279c0.418,0,0.785,0.117,1.008,0.271l-0.18,0.567    c-0.162-0.099-0.461-0.252-0.846-0.252c-0.444,0-0.684,0.27-0.684,0.594c0,0.36,0.239,0.522,0.777,0.747    c0.709,0.279,1.086,0.657,1.086,1.305c0,0.774-0.572,1.314-1.539,1.314c-0.453,0-0.871-0.126-1.162-0.306L196.459,195.848z"/>
		<path d="M201.76,193.48c0-0.459-0.008-0.819-0.033-1.18h0.666l0.043,0.711h0.017c0.205-0.405,0.684-0.811,1.367-0.811    c0.573,0,1.462,0.36,1.462,1.855v2.602h-0.752v-2.512c0-0.702-0.248-1.296-0.957-1.296c-0.488,0-0.873,0.369-1.01,0.81    c-0.033,0.099-0.051,0.243-0.051,0.369v2.629h-0.752V193.48z"/>
		<path d="M209.419,195.614c0,0.378,0.017,0.748,0.06,1.044h-0.675l-0.068-0.549h-0.026c-0.221,0.342-0.674,0.648-1.264,0.648    c-0.838,0-1.266-0.621-1.266-1.251c0-1.053,0.889-1.629,2.487-1.621v-0.09c0-0.36-0.095-1.018-0.94-1.008    c-0.393,0-0.795,0.117-1.084,0.324l-0.172-0.531c0.342-0.225,0.846-0.378,1.367-0.378c1.273,0,1.581,0.91,1.581,1.783V195.614z     M208.684,194.435c-0.82-0.018-1.752,0.135-1.752,0.981c0,0.522,0.326,0.756,0.701,0.756c0.547,0,0.897-0.36,1.018-0.729    c0.025-0.081,0.033-0.171,0.033-0.252V194.435z"/>
		<path d="M210.627,193.48c0-0.459-0.018-0.819-0.035-1.18h0.658l0.034,0.702h0.026c0.23-0.414,0.615-0.801,1.307-0.801    c0.555,0,0.982,0.36,1.162,0.874h0.018c0.127-0.252,0.299-0.432,0.469-0.567c0.248-0.198,0.514-0.306,0.906-0.306    c0.556,0,1.367,0.378,1.367,1.891v2.566h-0.734v-2.467c0-0.846-0.299-1.341-0.897-1.341c-0.437,0-0.761,0.333-0.897,0.711    c-0.033,0.117-0.06,0.261-0.06,0.396v2.701h-0.735v-2.62c0-0.693-0.29-1.188-0.863-1.188c-0.461,0-0.811,0.396-0.931,0.792    c-0.042,0.117-0.06,0.252-0.06,0.387v2.629h-0.734V193.48z"/>
		<path d="M218.184,194.624c0.018,1.062,0.658,1.503,1.41,1.503c0.539,0,0.872-0.099,1.146-0.225l0.137,0.567    c-0.265,0.126-0.726,0.279-1.384,0.279c-1.266,0-2.034-0.891-2.034-2.196c0-1.314,0.743-2.35,1.948-2.35    c1.35,0,1.701,1.251,1.701,2.053c0,0.162-0.01,0.279-0.026,0.369H218.184z M220.381,194.057c0.008-0.504-0.197-1.288-1.035-1.288    c-0.768,0-1.094,0.738-1.152,1.288H220.381z"/>
		<path d="M225.611,190.266v5.267c0,0.387,0.01,0.829,0.035,1.125h-0.676l-0.033-0.756h-0.018c-0.23,0.486-0.727,0.855-1.401,0.855    c-0.999,0-1.777-0.891-1.777-2.215c-0.009-1.458,0.854-2.341,1.854-2.341c0.641,0,1.068,0.315,1.248,0.657h0.016v-2.593H225.611z     M224.859,194.074c0-0.108-0.008-0.234-0.033-0.342c-0.111-0.495-0.521-0.909-1.086-0.909c-0.777,0-1.238,0.72-1.238,1.674    c0,0.891,0.418,1.621,1.222,1.621c0.505,0,0.966-0.36,1.103-0.955c0.025-0.099,0.033-0.207,0.033-0.333V194.074z"/>
	</g>
	
		<line fill="none" stroke="#000000" stroke-width="0.5" stroke-linejoin="round" stroke-miterlimit="10" x1="21.636" y1="165.22" x2="21.636" y2="126.091"/>
	
		<line fill="none" stroke="#000000" stroke-width="0.5" stroke-linejoin="round" stroke-miterlimit="10" x1="20.08" y1="126.091" x2="23.23" y2="126.091"/>
	
		<line fill="none" stroke="#000000" stroke-width="0.5" stroke-linejoin="round" stroke-miterlimit="10" x1="20.08" y1="165.213" x2="23.23" y2="165.213"/>
	
		<line fill="none" stroke="#000000" stroke-width="0.5" stroke-linejoin="round" stroke-miterlimit="10" x1="105.543" y1="124.717" x2="105.543" y2="102.261"/>
	
		<line fill="none" stroke="#000000" stroke-width="0.5" stroke-linejoin="round" stroke-miterlimit="10" x1="103.986" y1="102.261" x2="107.322" y2="102.261"/>
	
		<line fill="none" stroke="#000000" stroke-width="0.5" stroke-linejoin="round" stroke-miterlimit="10" x1="103.986" y1="124.68" x2="107.322" y2="124.68"/>
	
		<line fill="none" stroke="#000000" stroke-width="0.5" stroke-linejoin="round" stroke-miterlimit="10" x1="189.523" y1="90.482" x2="189.523" y2="72.046"/>
	
		<line fill="none" stroke="#000000" stroke-width="0.5" stroke-linejoin="round" stroke-miterlimit="10" x1="187.968" y1="72.046" x2="191.271" y2="72.046"/>
	
		<line fill="none" stroke="#000000" stroke-width="0.5" stroke-linejoin="round" stroke-miterlimit="10" x1="187.968" y1="90.457" x2="191.271" y2="90.457"/>
	
		<line fill="none" stroke="#000000" stroke-width="0.5" stroke-linejoin="round" stroke-miterlimit="10" x1="273.653" y1="64.994" x2="273.653" y2="33.072"/>
	
		<line fill="none" stroke="#000000" stroke-width="0.5" stroke-linejoin="round" stroke-miterlimit="10" x1="271.874" y1="33.072" x2="275.21" y2="33.072"/>
	
		<line fill="none" stroke="#000000" stroke-width="0.5" stroke-linejoin="round" stroke-miterlimit="10" x1="271.874" y1="64.994" x2="275.21" y2="64.994"/>
	<polyline fill="none" stroke="#000000" stroke-linejoin="round" stroke-miterlimit="10" points="21.636,145.763 105.586,113.464    189.53,81.333 273.653,49.033  "/>
	<ellipse fill-rule="evenodd" clip-rule="evenodd" cx="21.673" cy="145.763" rx="1.594" ry="1.559"/>
	
		<ellipse fill="none" stroke="#000000" stroke-width="0.5" stroke-linejoin="round" stroke-miterlimit="10" cx="21.673" cy="145.763" rx="1.594" ry="1.559"/>
	<path fill-rule="evenodd" clip-rule="evenodd" d="M103.986,113.471c0-0.86,0.717-1.56,1.594-1.56s1.594,0.699,1.594,1.56   c0,0.859-0.717,1.559-1.594,1.559S103.986,114.33,103.986,113.471z"/>
	<path fill="none" stroke="#000000" stroke-width="0.5" stroke-linejoin="round" stroke-miterlimit="10" d="M103.986,113.471   c0-0.86,0.717-1.56,1.594-1.56s1.594,0.699,1.594,1.56c0,0.859-0.717,1.559-1.594,1.559S103.986,114.33,103.986,113.471z"/>
	<path fill-rule="evenodd" clip-rule="evenodd" d="M187.968,81.363c0-0.878,0.698-1.596,1.556-1.596   c0.859,0,1.557,0.718,1.557,1.596s-0.697,1.596-1.557,1.596C188.666,82.959,187.968,82.242,187.968,81.363z"/>
	<path fill="none" stroke="#000000" stroke-width="0.5" stroke-linejoin="round" stroke-miterlimit="10" d="M187.968,81.363   c0-0.878,0.698-1.596,1.556-1.596c0.859,0,1.557,0.718,1.557,1.596s-0.697,1.596-1.557,1.596   C188.666,82.959,187.968,82.242,187.968,81.363z"/>
	<path fill-rule="evenodd" clip-rule="evenodd" d="M272.022,49.07c0-0.879,0.717-1.596,1.594-1.596s1.594,0.717,1.594,1.596   c0,0.878-0.717,1.596-1.594,1.596S272.022,49.949,272.022,49.07z"/>
	<path fill="none" stroke="#000000" stroke-width="0.5" stroke-linejoin="round" stroke-miterlimit="10" d="M272.022,49.07   c0-0.879,0.717-1.596,1.594-1.596s1.594,0.717,1.594,1.596c0,0.878-0.717,1.596-1.594,1.596S272.022,49.949,272.022,49.07z"/>
	
		<line fill="none" stroke="#000000" stroke-width="0.5" stroke-linejoin="round" stroke-miterlimit="10" x1="17.152" y1="174.394" x2="17.152" y2="0"/>
	
		<line fill="none" stroke="#000000" stroke-width="0.5" stroke-linejoin="round" stroke-miterlimit="10" x1="17.183" y1="169.853" x2="14.183" y2="169.853"/>
	
		<line fill="none" stroke="#000000" stroke-width="0.5" stroke-linejoin="round" stroke-miterlimit="10" x1="17.183" y1="114.77" x2="14.183" y2="114.77"/>
	
		<line fill="none" stroke="#000000" stroke-width="0.5" stroke-linejoin="round" stroke-miterlimit="10" x1="17.183" y1="59.612" x2="14.183" y2="59.612"/>
	
		<line fill="none" stroke="#000000" stroke-width="0.5" stroke-linejoin="round" stroke-miterlimit="10" x1="17.183" y1="4.528" x2="14.183" y2="4.528"/>
	
		<line fill="none" stroke="#000000" stroke-width="0.5" stroke-linejoin="round" stroke-miterlimit="10" x1="17.152" y1="174.381" x2="278.188" y2="174.381"/>
	
		<line fill="none" stroke="#000000" stroke-width="0.5" stroke-linejoin="round" stroke-miterlimit="10" x1="21.674" y1="174.381" x2="21.674" y2="177.382"/>
	
		<line fill="none" stroke="#000000" stroke-width="0.5" stroke-linejoin="round" stroke-miterlimit="10" x1="105.58" y1="174.381" x2="105.58" y2="177.382"/>
	
		<line fill="none" stroke="#000000" stroke-width="0.5" stroke-linejoin="round" stroke-miterlimit="10" x1="189.561" y1="174.381" x2="189.561" y2="177.382"/>
	
		<line fill="none" stroke="#000000" stroke-width="0.5" stroke-linejoin="round" stroke-miterlimit="10" x1="273.69" y1="174.381" x2="273.69" y2="177.382"/>
	<polygon fill-rule="evenodd" clip-rule="evenodd" points="156.37,89.42 159.899,89.42 160.99,86.283 162.081,89.42 165.61,89.42    162.755,91.359 163.846,94.497 160.99,92.558 158.135,94.497 159.226,91.359  "/>
</g>
</svg>