<svg xmlns="http://www.w3.org/2000/svg" xmlns:xlink="http://www.w3.org/1999/xlink" version="1.1" x="0px" y="0px" width="358.342px" height="132.756px" viewBox="0 0 358.342 132.756" enable-background="new 0 0 358.342 132.756" xml:space="preserve">
<g id="wide">
</g>
<g id="text_column" display="none">
</g>
<g id="art">
	
		<line fill="none" stroke="#A7A9AC" stroke-width="0.5" stroke-linejoin="round" stroke-miterlimit="10" x1="44.213" y1="94.758" x2="358.342" y2="94.758"/>
	<rect x="285.051" y="83.146" fill="#FFFFFF" width="66.508" height="22.5"/>
	<g>
		<path d="M0.405,119.825c-0.072-0.379-0.126-0.874-0.126-1.504c0-0.774,0.18-1.342,0.504-1.701    c0.288-0.334,0.729-0.541,1.261-0.541c0.549,0,0.981,0.162,1.296,0.478c0.441,0.414,0.666,1.089,0.666,1.854    c0,0.234-0.009,0.45-0.054,0.631h2.44v0.783H0.405z M3.313,119.042c0.045-0.172,0.063-0.388,0.063-0.648    c0-0.945-0.459-1.521-1.287-1.521c-0.801,0-1.188,0.566-1.188,1.432c0,0.342,0.027,0.603,0.063,0.738H3.313z"/>
		<path d="M3.394,115.118c-0.513,0-0.954,0.009-1.359,0.035v-0.693l0.855-0.035v-0.027c-0.585-0.198-0.955-0.684-0.955-1.215    c0-0.082,0.009-0.145,0.018-0.217h0.748c-0.009,0.081-0.018,0.162-0.018,0.271c0,0.558,0.423,0.954,1.008,1.062    c0.117,0.019,0.243,0.027,0.369,0.027h2.332v0.793H3.394z"/>
		<path d="M6.491,110.347c0,1.171-0.864,2.089-2.242,2.089c-1.458,0-2.314-0.963-2.314-2.161c0-1.25,0.91-2.098,2.233-2.098    c1.621,0,2.323,1.126,2.323,2.161V110.347z M5.897,110.312c0-0.757-0.711-1.324-1.702-1.324c-0.738,0-1.666,0.369-1.666,1.306    c0,0.927,0.864,1.333,1.693,1.333c0.954,0,1.674-0.541,1.674-1.306V110.312z"/>
		<path d="M3.457,107.153c-0.558,0-1.008,0.009-1.422,0.035v-0.711l0.748-0.045v-0.018c-0.541-0.315-0.847-0.838-0.847-1.54    c0-1.062,0.892-1.854,2.215-1.854c1.566,0,2.341,0.963,2.341,1.98c0,0.586-0.252,1.08-0.684,1.342v0.018h2.368v0.793H3.457z     M4.619,106.36c0.108,0,0.225-0.009,0.324-0.035c0.549-0.136,0.927-0.621,0.927-1.18c0-0.838-0.685-1.324-1.684-1.324    c-0.874,0-1.621,0.451-1.621,1.288c0,0.54,0.378,1.054,0.981,1.206c0.099,0.018,0.216,0.045,0.315,0.045H4.619z"/>
		<path d="M6.491,100.231c0,1.17-0.864,2.088-2.242,2.088c-1.458,0-2.314-0.963-2.314-2.16c0-1.251,0.91-2.098,2.233-2.098    c1.621,0,2.323,1.125,2.323,2.16V100.231z M5.897,100.195c0-0.757-0.711-1.323-1.702-1.323c-0.738,0-1.666,0.369-1.666,1.305    c0,0.928,0.864,1.333,1.693,1.333c0.954,0,1.674-0.54,1.674-1.306V100.195z"/>
		<path d="M3.394,97.208c-0.513,0-0.954,0.009-1.359,0.036v-0.693l0.855-0.036v-0.027c-0.585-0.197-0.955-0.684-0.955-1.215    c0-0.081,0.009-0.145,0.018-0.216h0.748c-0.009,0.081-0.018,0.161-0.018,0.271c0,0.558,0.423,0.953,1.008,1.062    c0.117,0.019,0.243,0.027,0.369,0.027h2.332v0.792H3.394z"/>
		<path d="M0.99,93.257h1.044v-1.135h0.604v1.135h2.34c0.541,0,0.846-0.153,0.846-0.594c0-0.217-0.018-0.343-0.054-0.46l0.603-0.036    c0.054,0.153,0.108,0.396,0.108,0.703c0,0.369-0.126,0.666-0.333,0.854c-0.243,0.216-0.63,0.306-1.143,0.306H2.638v0.676H2.035    V94.03H1.233L0.99,93.257z"/>
		<path d="M1.296,90.836c0,0.288-0.225,0.477-0.486,0.477c-0.279,0-0.495-0.198-0.495-0.495c0-0.288,0.216-0.486,0.495-0.486    c0.261,0,0.486,0.189,0.486,0.495V90.836z M6.392,91.214H2.035v-0.792h4.357V91.214z"/>
		<path d="M6.491,87.353c0,1.17-0.864,2.088-2.242,2.088c-1.458,0-2.314-0.963-2.314-2.161c0-1.251,0.91-2.098,2.233-2.098    c1.621,0,2.323,1.125,2.323,2.161V87.353z M5.897,87.316c0-0.756-0.711-1.323-1.702-1.323c-0.738,0-1.666,0.369-1.666,1.305    c0,0.927,0.864,1.333,1.693,1.333c0.954,0,1.674-0.54,1.674-1.305V87.316z"/>
		<path d="M3.214,84.158c-0.459,0-0.819,0.009-1.18,0.036v-0.702l0.711-0.045v-0.018c-0.405-0.216-0.811-0.72-0.811-1.44    c0-0.604,0.36-1.54,1.855-1.54h2.602v0.792H3.88c-0.702,0-1.296,0.261-1.296,1.008c0,0.513,0.369,0.918,0.81,1.062    c0.099,0.036,0.243,0.054,0.369,0.054h2.629v0.792H3.214z"/>
		<path d="M5.582,77.309c0.144-0.243,0.306-0.657,0.306-1.053c0-0.567-0.279-0.837-0.648-0.837c-0.378,0-0.576,0.225-0.792,0.801    c-0.288,0.792-0.72,1.162-1.233,1.162c-0.703,0-1.279-0.576-1.279-1.503c0-0.441,0.117-0.828,0.271-1.062l0.567,0.189    c-0.099,0.171-0.252,0.486-0.252,0.892c0,0.468,0.27,0.72,0.594,0.72c0.36,0,0.522-0.252,0.747-0.819    c0.279-0.747,0.657-1.144,1.306-1.144c0.774,0,1.314,0.604,1.314,1.621c0,0.477-0.126,0.918-0.306,1.224L5.582,77.309z"/>
		<path d="M5.348,70.567c0.378,0,0.748-0.018,1.044-0.063v0.711l-0.549,0.072v0.027c0.342,0.234,0.648,0.711,0.648,1.333    c0,0.882-0.621,1.333-1.251,1.333c-1.053,0-1.629-0.937-1.621-2.62h-0.09c-0.36,0-1.018,0.099-1.008,0.99    c0,0.415,0.117,0.837,0.324,1.144l-0.531,0.18c-0.225-0.36-0.378-0.891-0.378-1.44c0-1.341,0.91-1.666,1.783-1.666H5.348z     M4.168,71.342c-0.018,0.864,0.135,1.845,0.981,1.845c0.522,0,0.756-0.342,0.756-0.738c0-0.576-0.36-0.945-0.729-1.071    c-0.081-0.027-0.171-0.036-0.252-0.036H4.168z"/>
		<path d="M2.035,68.984l2.575-0.945c0.288-0.108,0.63-0.216,0.892-0.288v-0.018c-0.261-0.081-0.594-0.171-0.909-0.279L2.035,66.59    v-0.837l3.106,1.188c1.495,0.567,2.251,0.954,2.728,1.494c0.333,0.396,0.468,0.774,0.504,0.973l-0.657,0.198    c-0.063-0.198-0.189-0.459-0.387-0.693c-0.171-0.216-0.477-0.478-0.882-0.667c-0.081-0.036-0.144-0.063-0.189-0.063    c-0.045,0-0.108,0.018-0.207,0.063l-4.015,1.603V68.984z"/>
		<path d="M1.296,64.655c0,0.288-0.225,0.477-0.486,0.477c-0.279,0-0.495-0.198-0.495-0.495c0-0.288,0.216-0.486,0.495-0.486    c0.261,0,0.486,0.189,0.486,0.495V64.655z M6.392,65.033H2.035v-0.792h4.357V65.033z"/>
		<path d="M3.214,62.945c-0.459,0-0.819,0.009-1.18,0.036v-0.702l0.711-0.045v-0.018c-0.405-0.216-0.811-0.72-0.811-1.44    c0-0.604,0.36-1.54,1.855-1.54h2.602v0.792H3.88c-0.702,0-1.296,0.261-1.296,1.008c0,0.513,0.369,0.918,0.81,1.062    c0.099,0.036,0.243,0.054,0.369,0.054h2.629v0.792H3.214z"/>
		<path d="M5.753,54.196c1.008,0,1.611,0.207,1.999,0.621c0.387,0.432,0.522,1.044,0.522,1.594c0,0.522-0.126,1.098-0.36,1.449    l-0.612-0.198c0.189-0.288,0.351-0.738,0.351-1.278c0-0.81-0.423-1.404-1.53-1.404H5.645v0.018    c0.405,0.234,0.729,0.711,0.729,1.386c0,1.081-0.918,1.854-2.134,1.854c-1.476,0-2.305-0.963-2.305-1.971    c0-0.756,0.387-1.162,0.756-1.36V54.89l-0.657-0.027V54.16c0.306,0.027,0.667,0.036,1.188,0.036H5.753z M3.745,54.988    c-0.126,0-0.243,0.009-0.351,0.045c-0.468,0.144-0.846,0.522-0.846,1.107c0,0.756,0.639,1.296,1.657,1.296    c0.846,0,1.566-0.441,1.566-1.287c0-0.495-0.306-0.937-0.819-1.098c-0.126-0.045-0.279-0.063-0.423-0.063H3.745z"/>
		<path d="M5.753,47.23c1.008,0,1.611,0.207,1.999,0.621c0.387,0.432,0.522,1.044,0.522,1.594c0,0.522-0.126,1.098-0.36,1.449    l-0.612-0.198c0.189-0.288,0.351-0.738,0.351-1.278c0-0.81-0.423-1.404-1.53-1.404H5.645v0.018    c0.405,0.234,0.729,0.711,0.729,1.386c0,1.081-0.918,1.854-2.134,1.854c-1.476,0-2.305-0.963-2.305-1.971    c0-0.756,0.387-1.162,0.756-1.36v-0.018l-0.657-0.027v-0.702c0.306,0.027,0.667,0.036,1.188,0.036H5.753z M3.745,48.022    c-0.126,0-0.243,0.009-0.351,0.045c-0.468,0.144-0.846,0.522-0.846,1.107c0,0.756,0.639,1.296,1.657,1.296    c0.846,0,1.566-0.441,1.566-1.287c0-0.495-0.306-0.937-0.819-1.098c-0.126-0.045-0.279-0.063-0.423-0.063H3.745z"/>
		<path d="M0,45.9v-0.792h6.392V45.9H0z"/>
		<path d="M6.491,42.021c0,1.17-0.864,2.088-2.242,2.088c-1.458,0-2.314-0.963-2.314-2.161c0-1.251,0.91-2.098,2.233-2.098    c1.621,0,2.323,1.125,2.323,2.161V42.021z M5.897,41.984c0-0.756-0.711-1.323-1.702-1.323c-0.738,0-1.666,0.369-1.666,1.305    c0,0.927,0.864,1.333,1.693,1.333c0.954,0,1.674-0.54,1.674-1.305V41.984z"/>
		<path d="M0,38.826v-0.792h2.728v-0.018c-0.486-0.279-0.792-0.783-0.792-1.485c0-1.081,0.9-1.837,2.215-1.837    c1.566,0,2.341,0.99,2.341,1.963c0,0.63-0.243,1.125-0.819,1.458v0.018l0.72,0.045v0.684c-0.297-0.027-0.738-0.036-1.125-0.036H0z     M4.646,38.034c0.099,0,0.198-0.009,0.288-0.027c0.549-0.153,0.927-0.621,0.927-1.188c0-0.837-0.675-1.324-1.674-1.324    c-0.882,0-1.629,0.45-1.629,1.296c0,0.54,0.378,1.044,0.972,1.197c0.099,0.027,0.207,0.045,0.333,0.045H4.646z"/>
		<path d="M5.348,30.608c0.378,0,0.748-0.018,1.044-0.063v0.711l-0.549,0.072v0.027c0.342,0.234,0.648,0.711,0.648,1.333    c0,0.882-0.621,1.333-1.251,1.333c-1.053,0-1.629-0.937-1.621-2.62h-0.09c-0.36,0-1.018,0.099-1.008,0.991    c0,0.414,0.117,0.837,0.324,1.143l-0.531,0.18c-0.225-0.36-0.378-0.892-0.378-1.44c0-1.341,0.91-1.666,1.783-1.666H5.348z     M4.168,31.382c-0.018,0.864,0.135,1.846,0.981,1.846c0.522,0,0.756-0.342,0.756-0.738c0-0.576-0.36-0.945-0.729-1.071    c-0.081-0.027-0.171-0.036-0.252-0.036H4.168z"/>
		<path d="M0,29.484v-0.792h6.392v0.792H0z"/>
		<path d="M1.296,27c0,0.288-0.225,0.477-0.486,0.477c-0.279,0-0.495-0.198-0.495-0.495c0-0.288,0.216-0.486,0.495-0.486    c0.261,0,0.486,0.189,0.486,0.495V27z M6.392,27.378H2.035v-0.792h4.357V27.378z"/>
		<path d="M5.933,25.614l-2.566-1.972c-0.243-0.198-0.45-0.369-0.684-0.576H2.665v2.368h-0.63v-3.322H2.53l2.539,1.954    c0.234,0.18,0.459,0.36,0.675,0.558h0.018v-2.548h0.63v3.538H5.933z"/>
		<path d="M5.348,18.197c0.378,0,0.748-0.018,1.044-0.063v0.711l-0.549,0.072v0.027c0.342,0.234,0.648,0.711,0.648,1.333    c0,0.882-0.621,1.333-1.251,1.333c-1.053,0-1.629-0.937-1.621-2.62h-0.09c-0.36,0-1.018,0.099-1.008,0.99    c0,0.415,0.117,0.837,0.324,1.144l-0.531,0.18c-0.225-0.36-0.378-0.891-0.378-1.44c0-1.341,0.91-1.666,1.783-1.666H5.348z     M4.168,18.972c-0.018,0.864,0.135,1.845,0.981,1.845c0.522,0,0.756-0.342,0.756-0.738c0-0.576-0.36-0.945-0.729-1.071    c-0.081-0.027-0.171-0.036-0.252-0.036H4.168z"/>
		<path d="M0.99,16.119h1.044v-1.134h0.604v1.134h2.34c0.541,0,0.846-0.153,0.846-0.594c0-0.216-0.018-0.342-0.054-0.459    l0.603-0.036c0.054,0.153,0.108,0.396,0.108,0.702c0,0.369-0.126,0.666-0.333,0.855c-0.243,0.216-0.63,0.306-1.143,0.306H2.638    v0.675H2.035v-0.675H1.233L0.99,16.119z"/>
		<path d="M1.296,13.698c0,0.288-0.225,0.477-0.486,0.477c-0.279,0-0.495-0.198-0.495-0.495c0-0.288,0.216-0.486,0.495-0.486    c0.261,0,0.486,0.189,0.486,0.495V13.698z M6.392,14.076H2.035v-0.792h4.357V14.076z"/>
		<path d="M6.491,10.215c0,1.17-0.864,2.088-2.242,2.088c-1.458,0-2.314-0.963-2.314-2.161c0-1.251,0.91-2.098,2.233-2.098    c1.621,0,2.323,1.125,2.323,2.161V10.215z M5.897,10.179c0-0.756-0.711-1.323-1.702-1.323c-0.738,0-1.666,0.369-1.666,1.305    c0,0.927,0.864,1.333,1.693,1.333c0.954,0,1.674-0.54,1.674-1.305V10.179z"/>
		<path d="M3.214,7.021c-0.459,0-0.819,0.009-1.18,0.036V6.354L2.746,6.31V6.292c-0.405-0.216-0.811-0.72-0.811-1.44    c0-0.604,0.36-1.54,1.855-1.54h2.602v0.792H3.88c-0.702,0-1.296,0.261-1.296,1.008c0,0.513,0.369,0.918,0.81,1.062    C3.493,6.21,3.637,6.229,3.763,6.229h2.629v0.792H3.214z"/>
		<path d="M12.096,91.11c0,0.288-0.225,0.477-0.486,0.477c-0.279,0-0.495-0.198-0.495-0.495c0-0.288,0.216-0.486,0.495-0.486    c0.261,0,0.486,0.189,0.486,0.495V91.11z M17.192,91.488h-4.357v-0.792h4.357V91.488z"/>
		<path d="M16.382,89.508c0.144-0.243,0.306-0.657,0.306-1.053c0-0.567-0.279-0.837-0.648-0.837c-0.378,0-0.576,0.225-0.792,0.801    c-0.288,0.792-0.72,1.162-1.233,1.162c-0.703,0-1.279-0.576-1.279-1.503c0-0.441,0.117-0.828,0.271-1.062l0.567,0.189    c-0.099,0.171-0.252,0.486-0.252,0.892c0,0.468,0.27,0.72,0.594,0.72c0.36,0,0.522-0.252,0.747-0.819    c0.279-0.747,0.657-1.144,1.306-1.144c0.774,0,1.314,0.604,1.314,1.621c0,0.477-0.126,0.918-0.306,1.224L16.382,89.508z"/>
		<path d="M13.159,82.92c-0.756-0.207-1.729-0.594-2.143-0.837l-0.054-0.504c0.531,0.198,1.458,0.432,2.107,0.531L13.159,82.92z     M13.159,84.253c-0.756-0.207-1.729-0.594-2.143-0.837l-0.054-0.504c0.531,0.189,1.458,0.433,2.107,0.531L13.159,84.253z"/>
		<path d="M14.014,80.67c-0.459,0-0.819,0.018-1.18,0.036v-0.693l0.702-0.036V79.95c-0.414-0.243-0.801-0.648-0.801-1.377    c0-0.585,0.36-1.035,0.874-1.224v-0.018c-0.252-0.135-0.432-0.315-0.567-0.495c-0.198-0.261-0.306-0.541-0.306-0.955    c0-0.585,0.378-1.44,1.891-1.44h2.566v0.774h-2.467c-0.846,0-1.341,0.315-1.341,0.945c0,0.459,0.333,0.801,0.711,0.945    c0.117,0.036,0.261,0.063,0.396,0.063h2.701v0.774h-2.62c-0.693,0-1.188,0.306-1.188,0.91c0,0.486,0.396,0.855,0.792,0.981    c0.117,0.045,0.252,0.063,0.387,0.063h2.629v0.774H14.014z"/>
		<path d="M17.291,71.508c0,1.17-0.864,2.088-2.242,2.088c-1.458,0-2.314-0.963-2.314-2.161c0-1.251,0.91-2.098,2.233-2.098    c1.621,0,2.323,1.125,2.323,2.161V71.508z M16.697,71.472c0-0.756-0.711-1.323-1.702-1.323c-0.738,0-1.666,0.369-1.666,1.305    c0,0.927,0.864,1.333,1.693,1.333c0.954,0,1.674-0.54,1.674-1.305V71.472z"/>
		<path d="M16.382,68.421c0.144-0.243,0.306-0.657,0.306-1.053c0-0.567-0.279-0.837-0.648-0.837c-0.378,0-0.576,0.225-0.792,0.801    c-0.288,0.792-0.72,1.162-1.233,1.162c-0.703,0-1.279-0.576-1.279-1.503c0-0.441,0.117-0.828,0.271-1.062l0.567,0.189    c-0.099,0.171-0.252,0.486-0.252,0.892c0,0.468,0.27,0.72,0.594,0.72c0.36,0,0.522-0.252,0.747-0.819    c0.279-0.747,0.657-1.144,1.306-1.144c0.774,0,1.314,0.604,1.314,1.621c0,0.477-0.126,0.918-0.306,1.224L16.382,68.421z"/>
		<path d="M11.79,63.795h1.044v-1.134h0.604v1.134h2.34c0.541,0,0.846-0.153,0.846-0.594c0-0.216-0.018-0.342-0.054-0.459    l0.603-0.036c0.054,0.153,0.108,0.396,0.108,0.702c0,0.369-0.126,0.666-0.333,0.855c-0.243,0.216-0.63,0.306-1.143,0.306h-2.368    v0.675h-0.604v-0.675h-0.801L11.79,63.795z"/>
		<path d="M10.8,61.753v-0.792h6.392v0.792H10.8z"/>
		<path d="M12.834,59.359l2.575-0.945c0.288-0.108,0.63-0.216,0.892-0.288v-0.018c-0.261-0.081-0.594-0.171-0.909-0.279    l-2.557-0.864v-0.837l3.106,1.188c1.495,0.567,2.251,0.954,2.728,1.494c0.333,0.396,0.468,0.774,0.504,0.973l-0.657,0.198    c-0.063-0.198-0.189-0.459-0.387-0.693c-0.171-0.216-0.477-0.478-0.882-0.667c-0.081-0.036-0.144-0.063-0.189-0.063    c-0.045,0-0.108,0.018-0.207,0.063l-4.015,1.603V59.359z"/>
		<path d="M16.553,49.773c1.008,0,1.611,0.207,1.999,0.621c0.387,0.432,0.522,1.044,0.522,1.594c0,0.522-0.126,1.098-0.36,1.449    l-0.612-0.198c0.189-0.288,0.351-0.738,0.351-1.278c0-0.81-0.423-1.404-1.53-1.404h-0.477v0.018    c0.405,0.234,0.729,0.711,0.729,1.386c0,1.081-0.918,1.854-2.134,1.854c-1.476,0-2.305-0.963-2.305-1.971    c0-0.756,0.387-1.162,0.756-1.359v-0.018l-0.657-0.027v-0.702c0.306,0.027,0.667,0.036,1.188,0.036H16.553z M14.545,50.565    c-0.126,0-0.243,0.009-0.351,0.045c-0.468,0.144-0.846,0.522-0.846,1.107c0,0.756,0.639,1.296,1.657,1.296    c0.846,0,1.566-0.441,1.566-1.287c0-0.495-0.306-0.937-0.819-1.099c-0.126-0.045-0.279-0.063-0.423-0.063H14.545z"/>
		<path d="M17.291,46.668c0,1.17-0.864,2.088-2.242,2.088c-1.458,0-2.314-0.963-2.314-2.161c0-1.251,0.91-2.098,2.233-2.098    c1.621,0,2.323,1.125,2.323,2.161V46.668z M16.697,46.632c0-0.756-0.711-1.323-1.702-1.323c-0.738,0-1.666,0.369-1.666,1.305    c0,0.927,0.864,1.333,1.693,1.333c0.954,0,1.674-0.54,1.674-1.305V46.632z"/>
		<path d="M17.291,41.701c0,1.17-0.864,2.088-2.242,2.088c-1.458,0-2.314-0.963-2.314-2.161c0-1.251,0.91-2.098,2.233-2.098    c1.621,0,2.323,1.125,2.323,2.161V41.701z M16.697,41.665c0-0.756-0.711-1.323-1.702-1.323c-0.738,0-1.666,0.369-1.666,1.305    c0,0.927,0.864,1.333,1.693,1.333c0.954,0,1.674-0.54,1.674-1.305V41.665z"/>
		<path d="M10.8,34.914h5.267c0.387,0,0.829-0.009,1.125-0.036v0.711l-0.756,0.036v0.018c0.486,0.243,0.855,0.765,0.855,1.476    c0,1.054-0.892,1.873-2.215,1.873c-1.458,0.009-2.341-0.9-2.341-1.954c0-0.675,0.315-1.125,0.657-1.314v-0.018H10.8V34.914z     M14.608,35.707c-0.108,0-0.234,0.009-0.342,0.036c-0.495,0.117-0.909,0.549-0.909,1.144c0,0.819,0.72,1.305,1.674,1.305    c0.891,0,1.621-0.441,1.621-1.287c0-0.531-0.36-1.018-0.955-1.162c-0.099-0.027-0.207-0.036-0.333-0.036H14.608z"/>
		<path d="M10.962,31.251c0.756,0.207,1.729,0.594,2.143,0.837l0.054,0.504c-0.531-0.189-1.458-0.432-2.106-0.531L10.962,31.251z     M10.962,32.584c0.756,0.207,1.729,0.594,2.143,0.837l0.054,0.504c-0.531-0.198-1.458-0.432-2.106-0.531L10.962,32.584z"/>
	</g>
	
		<line fill="none" stroke="#A7A9AC" stroke-width="0.5" stroke-linejoin="round" stroke-miterlimit="10" x1="44.213" y1="2.171" x2="358.342" y2="2.171"/>
	
		<line fill="none" stroke="#A7A9AC" stroke-width="0.5" stroke-linejoin="round" stroke-miterlimit="10" x1="44.213" y1="15.398" x2="358.342" y2="15.398"/>
	
		<line fill="none" stroke="#A7A9AC" stroke-width="0.5" stroke-linejoin="round" stroke-miterlimit="10" x1="44.213" y1="28.625" x2="358.342" y2="28.625"/>
	
		<line fill="none" stroke="#A7A9AC" stroke-width="0.5" stroke-linejoin="round" stroke-miterlimit="10" x1="44.213" y1="41.851" x2="358.342" y2="41.851"/>
	
		<line fill="none" stroke="#A7A9AC" stroke-width="0.5" stroke-linejoin="round" stroke-miterlimit="10" x1="44.213" y1="55.078" x2="358.342" y2="55.078"/>
	
		<line fill="none" stroke="#A7A9AC" stroke-width="0.5" stroke-linejoin="round" stroke-miterlimit="10" x1="44.213" y1="68.305" x2="358.342" y2="68.305"/>
	
		<line fill="none" stroke="#A7A9AC" stroke-width="0.5" stroke-linejoin="round" stroke-miterlimit="10" x1="44.213" y1="81.531" x2="358.342" y2="81.531"/>
	
		<line fill="none" stroke="#A7A9AC" stroke-width="0.5" stroke-linejoin="round" stroke-miterlimit="10" x1="44.213" y1="107.984" x2="358.342" y2="107.984"/>
	
		<line fill="none" stroke="#000000" stroke-width="0.5" stroke-linejoin="round" stroke-miterlimit="10" x1="44.29" y1="121.211" x2="358.342" y2="121.211"/>
	
		<line fill="none" stroke="#000000" stroke-width="0.5" stroke-linejoin="round" stroke-miterlimit="10" x1="56.98" y1="22.179" x2="61.722" y2="22.179"/>
	
		<line fill="none" stroke="#000000" stroke-width="0.5" stroke-linejoin="round" stroke-miterlimit="10" x1="56.98" y1="32.469" x2="61.722" y2="32.469"/>
	
		<line fill="none" stroke="#000000" stroke-width="0.5" stroke-linejoin="round" stroke-miterlimit="10" x1="59.267" y1="27.324" x2="59.267" y2="22.179"/>
	
		<line fill="none" stroke="#000000" stroke-width="0.5" stroke-linejoin="round" stroke-miterlimit="10" x1="59.267" y1="32.469" x2="59.267" y2="27.324"/>
	
		<line fill="none" stroke="#000000" stroke-width="0.5" stroke-linejoin="round" stroke-miterlimit="10" x1="87.088" y1="30.183" x2="91.822" y2="30.183"/>
	
		<line fill="none" stroke="#000000" stroke-width="0.5" stroke-linejoin="round" stroke-miterlimit="10" x1="87.088" y1="45.617" x2="91.822" y2="45.617"/>
	
		<line fill="none" stroke="#000000" stroke-width="0.5" stroke-linejoin="round" stroke-miterlimit="10" x1="89.375" y1="37.805" x2="89.375" y2="30.183"/>
	
		<line fill="none" stroke="#000000" stroke-width="0.5" stroke-linejoin="round" stroke-miterlimit="10" x1="89.375" y1="45.617" x2="89.375" y2="37.805"/>
	
		<line fill="none" stroke="#000000" stroke-width="0.5" stroke-linejoin="round" stroke-miterlimit="10" x1="117.195" y1="19.512" x2="121.922" y2="19.512"/>
	
		<line fill="none" stroke="#000000" stroke-width="0.5" stroke-linejoin="round" stroke-miterlimit="10" x1="117.195" y1="35.094" x2="121.922" y2="35.094"/>
	
		<line fill="none" stroke="#000000" stroke-width="0.5" stroke-linejoin="round" stroke-miterlimit="10" x1="119.482" y1="27.324" x2="119.482" y2="19.512"/>
	
		<line fill="none" stroke="#000000" stroke-width="0.5" stroke-linejoin="round" stroke-miterlimit="10" x1="119.482" y1="35.094" x2="119.482" y2="27.324"/>
	
		<line fill="none" stroke="#000000" stroke-width="0.5" stroke-linejoin="round" stroke-miterlimit="10" x1="147.303" y1="27.515" x2="152.022" y2="27.515"/>
	
		<line fill="none" stroke="#000000" stroke-width="0.5" stroke-linejoin="round" stroke-miterlimit="10" x1="147.303" y1="42.95" x2="152.022" y2="42.95"/>
	
		<line fill="none" stroke="#000000" stroke-width="0.5" stroke-linejoin="round" stroke-miterlimit="10" x1="149.589" y1="35.327" x2="149.589" y2="27.515"/>
	
		<line fill="none" stroke="#000000" stroke-width="0.5" stroke-linejoin="round" stroke-miterlimit="10" x1="149.589" y1="42.95" x2="149.589" y2="35.327"/>
	
		<line fill="none" stroke="#000000" stroke-width="0.5" stroke-linejoin="round" stroke-miterlimit="10" x1="177.41" y1="29.992" x2="182.123" y2="29.992"/>
	
		<line fill="none" stroke="#000000" stroke-width="0.5" stroke-linejoin="round" stroke-miterlimit="10" x1="177.41" y1="40.437" x2="182.123" y2="40.437"/>
	
		<line fill="none" stroke="#000000" stroke-width="0.5" stroke-linejoin="round" stroke-miterlimit="10" x1="179.697" y1="35.327" x2="179.697" y2="29.992"/>
	
		<line fill="none" stroke="#000000" stroke-width="0.5" stroke-linejoin="round" stroke-miterlimit="10" x1="179.697" y1="40.437" x2="179.697" y2="35.327"/>
	
		<line fill="none" stroke="#000000" stroke-width="0.5" stroke-linejoin="round" stroke-miterlimit="10" x1="207.518" y1="40.663" x2="212.223" y2="40.663"/>
	
		<line fill="none" stroke="#000000" stroke-width="0.5" stroke-linejoin="round" stroke-miterlimit="10" x1="207.518" y1="56.253" x2="212.223" y2="56.253"/>
	
		<line fill="none" stroke="#000000" stroke-width="0.5" stroke-linejoin="round" stroke-miterlimit="10" x1="209.804" y1="48.476" x2="209.804" y2="40.663"/>
	
		<line fill="none" stroke="#000000" stroke-width="0.5" stroke-linejoin="round" stroke-miterlimit="10" x1="209.804" y1="56.253" x2="209.804" y2="48.476"/>
	
		<line fill="none" stroke="#000000" stroke-width="0.5" stroke-linejoin="round" stroke-miterlimit="10" x1="237.625" y1="51.143" x2="242.323" y2="51.143"/>
	
		<line fill="none" stroke="#000000" stroke-width="0.5" stroke-linejoin="round" stroke-miterlimit="10" x1="237.625" y1="61.596" x2="242.323" y2="61.596"/>
	
		<line fill="none" stroke="#000000" stroke-width="0.5" stroke-linejoin="round" stroke-miterlimit="10" x1="239.911" y1="56.479" x2="239.911" y2="51.143"/>
	
		<line fill="none" stroke="#000000" stroke-width="0.5" stroke-linejoin="round" stroke-miterlimit="10" x1="239.911" y1="61.596" x2="239.911" y2="56.479"/>
	
		<line fill="none" stroke="#000000" stroke-width="0.5" stroke-linejoin="round" stroke-miterlimit="10" x1="267.732" y1="41.997" x2="272.423" y2="41.997"/>
	
		<line fill="none" stroke="#000000" stroke-width="0.5" stroke-linejoin="round" stroke-miterlimit="10" x1="267.732" y1="52.287" x2="272.423" y2="52.287"/>
	
		<line fill="none" stroke="#000000" stroke-width="0.5" stroke-linejoin="round" stroke-miterlimit="10" x1="270.019" y1="47.142" x2="270.019" y2="41.997"/>
	
		<line fill="none" stroke="#000000" stroke-width="0.5" stroke-linejoin="round" stroke-miterlimit="10" x1="270.019" y1="52.287" x2="270.019" y2="47.142"/>
	
		<line fill="none" stroke="#000000" stroke-width="0.5" stroke-linejoin="round" stroke-miterlimit="10" x1="297.84" y1="36.661" x2="302.522" y2="36.661"/>
	
		<line fill="none" stroke="#000000" stroke-width="0.5" stroke-linejoin="round" stroke-miterlimit="10" x1="297.84" y1="47.049" x2="302.522" y2="47.049"/>
	
		<line fill="none" stroke="#000000" stroke-width="0.5" stroke-linejoin="round" stroke-miterlimit="10" x1="300.126" y1="41.806" x2="300.126" y2="36.661"/>
	
		<line fill="none" stroke="#000000" stroke-width="0.5" stroke-linejoin="round" stroke-miterlimit="10" x1="300.126" y1="47.049" x2="300.126" y2="41.806"/>
	
		<line fill="none" stroke="#000000" stroke-width="0.5" stroke-linejoin="round" stroke-miterlimit="10" x1="327.947" y1="39.329" x2="332.623" y2="39.329"/>
	
		<line fill="none" stroke="#000000" stroke-width="0.5" stroke-linejoin="round" stroke-miterlimit="10" x1="327.947" y1="49.619" x2="332.623" y2="49.619"/>
	
		<line fill="none" stroke="#000000" stroke-width="0.5" stroke-linejoin="round" stroke-miterlimit="10" x1="330.234" y1="44.474" x2="330.234" y2="39.329"/>
	
		<line fill="none" stroke="#000000" stroke-width="0.5" stroke-linejoin="round" stroke-miterlimit="10" x1="330.234" y1="49.619" x2="330.234" y2="44.474"/>
	
		<line fill="none" stroke="#000000" stroke-width="0.5" stroke-linejoin="round" stroke-miterlimit="10" x1="343.002" y1="41.997" x2="347.673" y2="41.997"/>
	
		<line fill="none" stroke="#000000" stroke-width="0.5" stroke-linejoin="round" stroke-miterlimit="10" x1="343.002" y1="52.287" x2="347.673" y2="52.287"/>
	
		<line fill="none" stroke="#000000" stroke-width="0.5" stroke-linejoin="round" stroke-miterlimit="10" x1="345.288" y1="47.142" x2="345.288" y2="41.997"/>
	
		<line fill="none" stroke="#000000" stroke-width="0.5" stroke-linejoin="round" stroke-miterlimit="10" x1="345.288" y1="52.287" x2="345.288" y2="47.142"/>
	
		<line fill="none" stroke="#000000" stroke-width="0.5" stroke-linejoin="round" stroke-miterlimit="10" x1="56.98" y1="12.842" x2="61.722" y2="12.842"/>
	
		<line fill="none" stroke="#000000" stroke-width="0.5" stroke-linejoin="round" stroke-miterlimit="10" x1="56.98" y1="23.245" x2="61.722" y2="23.245"/>
	
		<line fill="none" stroke="#000000" stroke-width="0.5" stroke-linejoin="round" stroke-miterlimit="10" x1="59.267" y1="17.987" x2="59.267" y2="12.842"/>
	
		<line fill="none" stroke="#000000" stroke-width="0.5" stroke-linejoin="round" stroke-miterlimit="10" x1="59.267" y1="23.245" x2="59.267" y2="17.987"/>
	
		<line fill="none" stroke="#000000" stroke-width="0.5" stroke-linejoin="round" stroke-miterlimit="10" x1="87.088" y1="22.179" x2="91.822" y2="22.179"/>
	
		<line fill="none" stroke="#000000" stroke-width="0.5" stroke-linejoin="round" stroke-miterlimit="10" x1="87.088" y1="32.469" x2="91.822" y2="32.469"/>
	
		<line fill="none" stroke="#000000" stroke-width="0.5" stroke-linejoin="round" stroke-miterlimit="10" x1="89.375" y1="27.324" x2="89.375" y2="22.179"/>
	
		<line fill="none" stroke="#000000" stroke-width="0.5" stroke-linejoin="round" stroke-miterlimit="10" x1="89.375" y1="32.469" x2="89.375" y2="27.324"/>
	
		<line fill="none" stroke="#000000" stroke-width="0.5" stroke-linejoin="round" stroke-miterlimit="10" x1="117.195" y1="19.512" x2="121.922" y2="19.512"/>
	
		<line fill="none" stroke="#000000" stroke-width="0.5" stroke-linejoin="round" stroke-miterlimit="10" x1="117.195" y1="35.094" x2="121.922" y2="35.094"/>
	
		<line fill="none" stroke="#000000" stroke-width="0.5" stroke-linejoin="round" stroke-miterlimit="10" x1="119.482" y1="27.324" x2="119.482" y2="19.512"/>
	
		<line fill="none" stroke="#000000" stroke-width="0.5" stroke-linejoin="round" stroke-miterlimit="10" x1="119.482" y1="35.094" x2="119.482" y2="27.324"/>
	
		<line fill="none" stroke="#000000" stroke-width="0.5" stroke-linejoin="round" stroke-miterlimit="10" x1="147.303" y1="26.181" x2="152.022" y2="26.181"/>
	
		<line fill="none" stroke="#000000" stroke-width="0.5" stroke-linejoin="round" stroke-miterlimit="10" x1="147.303" y1="36.469" x2="152.022" y2="36.469"/>
	
		<line fill="none" stroke="#000000" stroke-width="0.5" stroke-linejoin="round" stroke-miterlimit="10" x1="149.589" y1="31.326" x2="149.589" y2="26.181"/>
	
		<line fill="none" stroke="#000000" stroke-width="0.5" stroke-linejoin="round" stroke-miterlimit="10" x1="149.589" y1="36.469" x2="149.589" y2="31.326"/>
	
		<line fill="none" stroke="#000000" stroke-width="0.5" stroke-linejoin="round" stroke-miterlimit="10" x1="177.41" y1="32.66" x2="182.123" y2="32.66"/>
	
		<line fill="none" stroke="#000000" stroke-width="0.5" stroke-linejoin="round" stroke-miterlimit="10" x1="177.41" y1="43.082" x2="182.123" y2="43.082"/>
	
		<line fill="none" stroke="#000000" stroke-width="0.5" stroke-linejoin="round" stroke-miterlimit="10" x1="179.697" y1="37.805" x2="179.697" y2="32.66"/>
	
		<line fill="none" stroke="#000000" stroke-width="0.5" stroke-linejoin="round" stroke-miterlimit="10" x1="179.697" y1="43.082" x2="179.697" y2="37.805"/>
	
		<line fill="none" stroke="#000000" stroke-width="0.5" stroke-linejoin="round" stroke-miterlimit="10" x1="207.518" y1="28.658" x2="212.223" y2="28.658"/>
	
		<line fill="none" stroke="#000000" stroke-width="0.5" stroke-linejoin="round" stroke-miterlimit="10" x1="207.518" y1="39.114" x2="212.223" y2="39.114"/>
	
		<line fill="none" stroke="#000000" stroke-width="0.5" stroke-linejoin="round" stroke-miterlimit="10" x1="209.804" y1="33.993" x2="209.804" y2="28.658"/>
	
		<line fill="none" stroke="#000000" stroke-width="0.5" stroke-linejoin="round" stroke-miterlimit="10" x1="209.804" y1="39.114" x2="209.804" y2="33.993"/>
	
		<line fill="none" stroke="#000000" stroke-width="0.5" stroke-linejoin="round" stroke-miterlimit="10" x1="237.625" y1="28.658" x2="242.323" y2="28.658"/>
	
		<line fill="none" stroke="#000000" stroke-width="0.5" stroke-linejoin="round" stroke-miterlimit="10" x1="237.625" y1="33.803" x2="242.323" y2="33.803"/>
	
		<line fill="none" stroke="#000000" stroke-width="0.5" stroke-linejoin="round" stroke-miterlimit="10" x1="239.911" y1="31.326" x2="239.911" y2="28.658"/>
	
		<line fill="none" stroke="#000000" stroke-width="0.5" stroke-linejoin="round" stroke-miterlimit="10" x1="239.911" y1="33.803" x2="239.911" y2="31.326"/>
	
		<line fill="none" stroke="#000000" stroke-width="0.5" stroke-linejoin="round" stroke-miterlimit="10" x1="267.732" y1="28.658" x2="272.423" y2="28.658"/>
	
		<line fill="none" stroke="#000000" stroke-width="0.5" stroke-linejoin="round" stroke-miterlimit="10" x1="267.732" y1="39.114" x2="272.423" y2="39.114"/>
	
		<line fill="none" stroke="#000000" stroke-width="0.5" stroke-linejoin="round" stroke-miterlimit="10" x1="270.019" y1="33.993" x2="270.019" y2="28.658"/>
	
		<line fill="none" stroke="#000000" stroke-width="0.5" stroke-linejoin="round" stroke-miterlimit="10" x1="270.019" y1="39.114" x2="270.019" y2="33.993"/>
	
		<line fill="none" stroke="#000000" stroke-width="0.5" stroke-linejoin="round" stroke-miterlimit="10" x1="297.84" y1="18.177" x2="302.522" y2="18.177"/>
	
		<line fill="none" stroke="#000000" stroke-width="0.5" stroke-linejoin="round" stroke-miterlimit="10" x1="297.84" y1="23.298" x2="302.522" y2="23.298"/>
	
		<line fill="none" stroke="#000000" stroke-width="0.5" stroke-linejoin="round" stroke-miterlimit="10" x1="300.126" y1="20.655" x2="300.126" y2="18.177"/>
	
		<line fill="none" stroke="#000000" stroke-width="0.5" stroke-linejoin="round" stroke-miterlimit="10" x1="300.126" y1="23.298" x2="300.126" y2="20.655"/>
	
		<line fill="none" stroke="#000000" stroke-width="0.5" stroke-linejoin="round" stroke-miterlimit="10" x1="327.947" y1="18.177" x2="332.623" y2="18.177"/>
	
		<line fill="none" stroke="#000000" stroke-width="0.5" stroke-linejoin="round" stroke-miterlimit="10" x1="327.947" y1="28.467" x2="332.623" y2="28.467"/>
	
		<line fill="none" stroke="#000000" stroke-width="0.5" stroke-linejoin="round" stroke-miterlimit="10" x1="330.234" y1="23.322" x2="330.234" y2="18.177"/>
	
		<line fill="none" stroke="#000000" stroke-width="0.5" stroke-linejoin="round" stroke-miterlimit="10" x1="330.234" y1="28.467" x2="330.234" y2="23.322"/>
	
		<line fill="none" stroke="#000000" stroke-width="0.5" stroke-linejoin="round" stroke-miterlimit="10" x1="343.002" y1="12.842" x2="347.673" y2="12.842"/>
	
		<line fill="none" stroke="#000000" stroke-width="0.5" stroke-linejoin="round" stroke-miterlimit="10" x1="343.002" y1="17.987" x2="347.673" y2="17.987"/>
	
		<line fill="none" stroke="#000000" stroke-width="0.5" stroke-linejoin="round" stroke-miterlimit="10" x1="345.288" y1="15.51" x2="345.288" y2="12.842"/>
	
		<line fill="none" stroke="#000000" stroke-width="0.5" stroke-linejoin="round" stroke-miterlimit="10" x1="345.288" y1="17.987" x2="345.288" y2="15.51"/>
	<g>
		<g>
			<line fill="none" stroke="#000000" stroke-linejoin="round" x1="330.234" y1="44.474" x2="331.711" y2="44.736"/>
			
				<line fill="none" stroke="#000000" stroke-linejoin="round" stroke-dasharray="3.072,2.048" x1="333.728" y1="45.093" x2="342.803" y2="46.701"/>
			<line fill="none" stroke="#000000" stroke-linejoin="round" x1="343.812" y1="46.88" x2="345.288" y2="47.142"/>
		</g>
	</g>
	
		<line fill="none" stroke="#000000" stroke-linejoin="round" stroke-miterlimit="10" stroke-dasharray="3,2" x1="300.127" y1="41.806" x2="330.234" y2="44.474"/>
	
		<line fill="none" stroke="#000000" stroke-linejoin="round" stroke-miterlimit="10" stroke-dasharray="3,2" x1="270.019" y1="47.142" x2="300.127" y2="41.806"/>
	
		<line fill="none" stroke="#000000" stroke-linejoin="round" stroke-miterlimit="10" stroke-dasharray="3,2" x1="239.911" y1="56.412" x2="270.019" y2="47.142"/>
	
		<line fill="none" stroke="#000000" stroke-linejoin="round" stroke-miterlimit="10" stroke-dasharray="3,2" x1="209.804" y1="48.476" x2="239.911" y2="56.412"/>
	
		<line fill="none" stroke="#000000" stroke-linejoin="round" stroke-miterlimit="10" stroke-dasharray="3,2" x1="179.697" y1="35.327" x2="209.804" y2="48.476"/>
	
		<line fill="none" stroke="#000000" stroke-linejoin="round" stroke-miterlimit="10" stroke-dasharray="3,2" x1="149.589" y1="35.327" x2="179.697" y2="35.327"/>
	
		<line fill="none" stroke="#000000" stroke-linejoin="round" stroke-miterlimit="10" stroke-dasharray="3,2" x1="119.482" y1="27.324" x2="149.589" y2="35.327"/>
	
		<line fill="none" stroke="#000000" stroke-linejoin="round" stroke-miterlimit="10" stroke-dasharray="3,2" x1="89.375" y1="37.805" x2="119.482" y2="27.324"/>
	
		<line fill="none" stroke="#000000" stroke-linejoin="round" stroke-miterlimit="10" stroke-dasharray="3,2" x1="59.267" y1="27.324" x2="89.375" y2="37.805"/>
	<rect x="57.171" y="25.228" fill="none" width="4.192" height="4.192"/>
	<rect x="87.278" y="35.708" fill="none" width="4.192" height="4.192"/>
	<rect x="117.386" y="25.228" fill="none" width="4.191" height="4.192"/>
	<rect x="147.493" y="33.231" fill="none" width="4.192" height="4.192"/>
	<rect x="177.601" y="33.231" fill="none" width="4.192" height="4.192"/>
	<rect x="207.708" y="46.379" fill="none" width="4.192" height="4.192"/>
	<rect x="237.815" y="54.383" fill="none" width="4.192" height="4.192"/>
	<rect x="267.923" y="45.046" fill="none" width="4.192" height="4.192"/>
	<rect x="298.03" y="39.71" fill="none" width="4.192" height="4.192"/>
	<rect x="328.138" y="42.378" fill="none" width="4.192" height="4.192"/>
	<rect x="343.191" y="45.046" fill="none" width="4.192" height="4.192"/>
	
		<line fill="none" stroke="#000000" stroke-linejoin="round" stroke-miterlimit="10" x1="330.234" y1="23.322" x2="345.288" y2="15.51"/>
	
		<line fill="none" stroke="#000000" stroke-linecap="round" stroke-linejoin="round" stroke-miterlimit="10" x1="300.127" y1="20.655" x2="330.234" y2="23.322"/>
	
		<line fill="none" stroke="#000000" stroke-linecap="round" stroke-linejoin="round" stroke-miterlimit="10" x1="270.019" y1="33.993" x2="300.127" y2="20.655"/>
	
		<line fill="none" stroke="#000000" stroke-linecap="round" stroke-linejoin="round" stroke-miterlimit="10" x1="239.911" y1="31.326" x2="270.019" y2="33.993"/>
	
		<line fill="none" stroke="#000000" stroke-linecap="round" stroke-linejoin="round" stroke-miterlimit="10" x1="209.804" y1="33.993" x2="239.911" y2="31.326"/>
	
		<line fill="none" stroke="#000000" stroke-linecap="round" stroke-linejoin="round" stroke-miterlimit="10" x1="179.697" y1="37.805" x2="209.804" y2="33.993"/>
	
		<line fill="none" stroke="#000000" stroke-linecap="round" stroke-linejoin="round" stroke-miterlimit="10" x1="149.589" y1="31.326" x2="179.697" y2="37.805"/>
	
		<line fill="none" stroke="#000000" stroke-linecap="round" stroke-linejoin="round" stroke-miterlimit="10" x1="119.482" y1="27.324" x2="149.589" y2="31.326"/>
	
		<line fill="none" stroke="#000000" stroke-linecap="round" stroke-linejoin="round" stroke-miterlimit="10" x1="89.375" y1="27.324" x2="119.482" y2="27.324"/>
	
		<line fill="none" stroke="#000000" stroke-linecap="round" stroke-linejoin="round" stroke-miterlimit="10" x1="59.267" y1="17.987" x2="89.375" y2="27.324"/>
	<rect x="57.171" y="15.891" fill="none" width="4.192" height="4.192"/>
	<rect x="87.278" y="25.228" fill="none" width="4.192" height="4.192"/>
	<rect x="117.386" y="25.228" fill="none" width="4.191" height="4.192"/>
	<rect x="147.493" y="29.229" fill="none" width="4.192" height="4.192"/>
	<rect x="177.601" y="35.708" fill="none" width="4.192" height="4.192"/>
	<rect x="207.708" y="31.897" fill="none" width="4.192" height="4.192"/>
	<rect x="237.815" y="29.229" fill="none" width="4.192" height="4.192"/>
	<rect x="267.923" y="31.897" fill="none" width="4.192" height="4.192"/>
	<rect x="298.03" y="18.559" fill="none" width="4.192" height="4.192"/>
	<rect x="328.138" y="21.227" fill="none" width="4.192" height="4.192"/>
	<rect x="343.191" y="13.414" fill="none" width="4.192" height="4.192"/>
	<g>
		<path d="M27.272,5.373c-1.016,0-1.711-0.951-1.728-2.671C25.544,0.951,26.304,0,27.36,0c1.087,0,1.719,0.976,1.719,2.631    c0,1.767-0.664,2.742-1.799,2.742H27.272z M27.312,4.829c0.712,0,1.056-0.839,1.056-2.167c0-1.279-0.32-2.118-1.056-2.118    c-0.64,0-1.055,0.815-1.055,2.118c-0.016,1.352,0.4,2.167,1.047,2.167H27.312z"/>
		<path d="M30.24,5.373c-0.272,0-0.463-0.216-0.463-0.504c0-0.287,0.2-0.504,0.479-0.504s0.472,0.208,0.472,0.504    c0,0.288-0.192,0.504-0.479,0.504H30.24z"/>
		<path d="M31.944,4.789c0.152,0.009,0.328,0,0.568-0.031c0.408-0.049,0.792-0.216,1.087-0.496c0.344-0.32,0.591-0.768,0.688-1.383    h-0.024c-0.288,0.352-0.704,0.56-1.231,0.56c-0.936,0-1.535-0.704-1.535-1.6C31.497,0.863,32.216,0,33.28,0    s1.719,0.855,1.719,2.19c0,1.144-0.384,1.943-0.896,2.439c-0.399,0.384-0.951,0.631-1.511,0.695    c-0.256,0.032-0.488,0.048-0.647,0.04V4.789z M33.216,0.536c-0.592,0-1.016,0.527-1.016,1.263c0,0.647,0.392,1.104,1,1.104    c0.472,0,0.839-0.231,1.031-0.544c0.032-0.063,0.056-0.144,0.056-0.256c0.008-0.896-0.328-1.566-1.063-1.566H33.216z"/>
		<path d="M37.295,5.373c-1.016,0-1.711-0.951-1.728-2.671c0-1.751,0.76-2.702,1.815-2.702c1.087,0,1.719,0.976,1.719,2.631    c0,1.767-0.664,2.742-1.799,2.742H37.295z M37.335,4.829c0.712,0,1.056-0.839,1.056-2.167c0-1.279-0.32-2.118-1.056-2.118    c-0.64,0-1.055,0.815-1.055,2.118c-0.016,1.352,0.4,2.167,1.047,2.167H37.335z"/>
		<path d="M27.431,18.593c-1.015,0-1.711-0.951-1.727-2.671c0-1.751,0.759-2.702,1.815-2.702c1.087,0,1.719,0.976,1.719,2.631    c0,1.767-0.664,2.742-1.799,2.742H27.431z M27.471,18.049c0.712,0,1.056-0.839,1.056-2.166c0-1.279-0.32-2.119-1.056-2.119    c-0.64,0-1.055,0.815-1.055,2.119c-0.016,1.351,0.4,2.166,1.047,2.166H27.471z"/>
		<path d="M30.4,18.593c-0.271,0-0.464-0.216-0.464-0.504s0.2-0.504,0.48-0.504s0.472,0.208,0.472,0.504    c0,0.288-0.192,0.504-0.479,0.504H30.4z"/>
		<path d="M33.279,13.22c1.007,0,1.519,0.624,1.519,1.279c0,0.439-0.224,0.92-0.864,1.216v0.023c0.648,0.256,1.047,0.72,1.047,1.344    c0,0.911-0.775,1.511-1.767,1.511c-1.087,0-1.743-0.64-1.743-1.399c0-0.655,0.392-1.127,1.023-1.399v-0.023    c-0.584-0.272-0.832-0.72-0.832-1.167c0-0.824,0.696-1.384,1.607-1.384H33.279z M33.231,18.081c0.632,0,1.04-0.392,1.04-0.928    c0-0.623-0.44-0.936-1.143-1.135c-0.608,0.176-0.936,0.583-0.936,1.079c-0.024,0.52,0.375,0.983,1.031,0.983H33.231z     M33.239,13.724c-0.584,0-0.904,0.384-0.904,0.831c-0.008,0.521,0.392,0.8,0.992,0.96c0.448-0.152,0.792-0.472,0.792-0.943    c0-0.416-0.248-0.848-0.872-0.848H33.239z"/>
		<path d="M37.295,18.593c-1.016,0-1.711-0.951-1.728-2.671c0-1.751,0.76-2.702,1.815-2.702c1.087,0,1.719,0.976,1.719,2.631    c0,1.767-0.664,2.742-1.799,2.742H37.295z M37.335,18.049c0.712,0,1.056-0.839,1.056-2.166c0-1.279-0.32-2.119-1.056-2.119    c-0.64,0-1.055,0.815-1.055,2.119c-0.016,1.351,0.4,2.166,1.047,2.166H37.335z"/>
		<path d="M27.431,31.813c-1.015,0-1.711-0.951-1.727-2.671c0-1.751,0.759-2.702,1.815-2.702c1.087,0,1.719,0.976,1.719,2.631    c0,1.767-0.664,2.742-1.799,2.742H27.431z M27.471,31.27c0.712,0,1.056-0.839,1.056-2.166c0-1.279-0.32-2.119-1.056-2.119    c-0.64,0-1.055,0.815-1.055,2.119c-0.016,1.351,0.4,2.166,1.047,2.166H27.471z"/>
		<path d="M30.4,31.813c-0.271,0-0.464-0.216-0.464-0.504s0.2-0.504,0.48-0.504s0.472,0.208,0.472,0.504    c0,0.288-0.192,0.504-0.479,0.504H30.4z"/>
		<path d="M34.91,26.528v0.464l-2.263,4.733h-0.72l2.247-4.598v-0.016h-2.543v-0.584H34.91z"/>
		<path d="M37.295,31.813c-1.016,0-1.711-0.951-1.728-2.671c0-1.751,0.76-2.702,1.815-2.702c1.087,0,1.719,0.976,1.719,2.631    c0,1.767-0.664,2.742-1.799,2.742H37.295z M37.335,31.27c0.712,0,1.056-0.839,1.056-2.166c0-1.279-0.32-2.119-1.056-2.119    c-0.64,0-1.055,0.815-1.055,2.119c-0.016,1.351,0.4,2.166,1.047,2.166H37.335z"/>
		<path d="M27.431,45.033c-1.015,0-1.711-0.951-1.727-2.671c0-1.751,0.759-2.702,1.815-2.702c1.087,0,1.719,0.976,1.719,2.631    c0,1.767-0.664,2.742-1.799,2.742H27.431z M27.471,44.489c0.712,0,1.056-0.839,1.056-2.167c0-1.279-0.32-2.118-1.056-2.118    c-0.64,0-1.055,0.815-1.055,2.118c-0.016,1.352,0.4,2.167,1.047,2.167H27.471z"/>
		<path d="M30.4,45.033c-0.271,0-0.464-0.216-0.464-0.504c0-0.287,0.2-0.504,0.48-0.504s0.472,0.208,0.472,0.504    c0,0.288-0.192,0.504-0.479,0.504H30.4z"/>
		<path d="M34.502,40.244c-0.144-0.008-0.328,0.008-0.528,0.04c-1.111,0.176-1.687,0.976-1.807,1.839h0.016    c0.248-0.336,0.688-0.607,1.263-0.607c0.92,0,1.567,0.671,1.567,1.679c0,0.959-0.647,1.839-1.735,1.839    c-1.104,0-1.831-0.863-1.831-2.215c0-1.023,0.36-1.831,0.879-2.343c0.432-0.424,1.007-0.688,1.663-0.768    c0.208-0.032,0.384-0.04,0.512-0.04V40.244z M33.295,44.489c0.6,0,1.008-0.503,1.008-1.247c0-0.743-0.424-1.191-1.072-1.191    c-0.424,0-0.823,0.256-1.015,0.64c-0.04,0.08-0.072,0.176-0.072,0.304c0.008,0.855,0.408,1.495,1.144,1.495H33.295z"/>
		<path d="M37.295,45.033c-1.016,0-1.711-0.951-1.728-2.671c0-1.751,0.76-2.702,1.815-2.702c1.087,0,1.719,0.976,1.719,2.631    c0,1.767-0.664,2.742-1.799,2.742H37.295z M37.335,44.489c0.712,0,1.056-0.839,1.056-2.167c0-1.279-0.32-2.118-1.056-2.118    c-0.64,0-1.055,0.815-1.055,2.118c-0.016,1.352,0.4,2.167,1.047,2.167H37.335z"/>
		<path d="M27.431,58.253c-1.015,0-1.711-0.951-1.727-2.671c0-1.751,0.759-2.702,1.815-2.702c1.087,0,1.719,0.976,1.719,2.631    c0,1.767-0.664,2.742-1.799,2.742H27.431z M27.471,57.709c0.712,0,1.056-0.839,1.056-2.166c0-1.279-0.32-2.119-1.056-2.119    c-0.64,0-1.055,0.815-1.055,2.119c-0.016,1.351,0.4,2.166,1.047,2.166H27.471z"/>
		<path d="M30.4,58.253c-0.271,0-0.464-0.216-0.464-0.504s0.2-0.504,0.48-0.504s0.472,0.208,0.472,0.504    c0,0.288-0.192,0.504-0.479,0.504H30.4z"/>
		<path d="M34.638,53.56h-1.983l-0.2,1.335c0.12-0.016,0.232-0.031,0.424-0.031c0.408,0,0.799,0.088,1.119,0.279    c0.408,0.224,0.744,0.68,0.744,1.335c0,1.016-0.808,1.775-1.935,1.775c-0.567,0-1.039-0.16-1.295-0.319l0.176-0.536    c0.216,0.128,0.64,0.288,1.119,0.288c0.656,0,1.231-0.432,1.224-1.136c0-0.663-0.456-1.144-1.487-1.144    c-0.304,0-0.536,0.024-0.728,0.057l0.336-2.495h2.486V53.56z"/>
		<path d="M37.295,58.253c-1.016,0-1.711-0.951-1.728-2.671c0-1.751,0.76-2.702,1.815-2.702c1.087,0,1.719,0.976,1.719,2.631    c0,1.767-0.664,2.742-1.799,2.742H37.295z M37.335,57.709c0.712,0,1.056-0.839,1.056-2.166c0-1.279-0.32-2.119-1.056-2.119    c-0.64,0-1.055,0.815-1.055,2.119c-0.016,1.351,0.4,2.166,1.047,2.166H37.335z"/>
		<path d="M27.431,71.473c-1.015,0-1.711-0.951-1.727-2.671c0-1.751,0.759-2.702,1.815-2.702c1.087,0,1.719,0.976,1.719,2.631    c0,1.767-0.664,2.742-1.799,2.742H27.431z M27.471,70.929c0.712,0,1.056-0.839,1.056-2.167c0-1.279-0.32-2.118-1.056-2.118    c-0.64,0-1.055,0.815-1.055,2.118c-0.016,1.352,0.4,2.167,1.047,2.167H27.471z"/>
		<path d="M30.4,71.473c-0.271,0-0.464-0.216-0.464-0.504c0-0.287,0.2-0.504,0.48-0.504s0.472,0.208,0.472,0.504    c0,0.288-0.192,0.504-0.479,0.504H30.4z"/>
		<path d="M33.711,71.385v-1.423h-2.415v-0.456l2.318-3.318h0.76v3.23h0.728v0.544h-0.728v1.423H33.711z M33.711,69.418v-1.735    c0-0.271,0.008-0.544,0.024-0.815h-0.024c-0.16,0.304-0.288,0.527-0.432,0.768l-1.271,1.768v0.016H33.711z"/>
		<path d="M37.295,71.473c-1.016,0-1.711-0.951-1.728-2.671c0-1.751,0.76-2.702,1.815-2.702c1.087,0,1.719,0.976,1.719,2.631    c0,1.767-0.664,2.742-1.799,2.742H37.295z M37.335,70.929c0.712,0,1.056-0.839,1.056-2.167c0-1.279-0.32-2.118-1.056-2.118    c-0.64,0-1.055,0.815-1.055,2.118c-0.016,1.352,0.4,2.167,1.047,2.167H37.335z"/>
		<path d="M27.431,84.693c-1.015,0-1.711-0.951-1.727-2.671c0-1.751,0.759-2.702,1.815-2.702c1.087,0,1.719,0.976,1.719,2.631    c0,1.767-0.664,2.742-1.799,2.742H27.431z M27.471,84.149c0.712,0,1.056-0.839,1.056-2.167c0-1.279-0.32-2.118-1.056-2.118    c-0.64,0-1.055,0.815-1.055,2.118c-0.016,1.352,0.4,2.167,1.047,2.167H27.471z"/>
		<path d="M30.4,84.693c-0.271,0-0.464-0.216-0.464-0.504c0-0.287,0.2-0.504,0.48-0.504s0.472,0.208,0.472,0.504    c0,0.288-0.192,0.504-0.479,0.504H30.4z"/>
		<path d="M31.704,83.806c0.2,0.12,0.656,0.32,1.151,0.32c0.896,0,1.183-0.568,1.175-1.008c-0.008-0.728-0.664-1.039-1.343-1.039    h-0.392v-0.528h0.392c0.512,0,1.159-0.264,1.159-0.879c0-0.416-0.264-0.784-0.912-0.784c-0.416,0-0.815,0.185-1.039,0.344    l-0.192-0.512c0.28-0.199,0.808-0.399,1.367-0.399c1.023,0,1.487,0.607,1.487,1.239c0,0.544-0.328,1-0.959,1.231v0.016    c0.64,0.12,1.159,0.6,1.159,1.328c0,0.831-0.656,1.559-1.895,1.559c-0.583,0-1.095-0.184-1.351-0.352L31.704,83.806z"/>
		<path d="M37.295,84.693c-1.016,0-1.711-0.951-1.728-2.671c0-1.751,0.76-2.702,1.815-2.702c1.087,0,1.719,0.976,1.719,2.631    c0,1.767-0.664,2.742-1.799,2.742H37.295z M37.335,84.149c0.712,0,1.056-0.839,1.056-2.167c0-1.279-0.32-2.118-1.056-2.118    c-0.64,0-1.055,0.815-1.055,2.118c-0.016,1.352,0.4,2.167,1.047,2.167H37.335z"/>
		<path d="M27.431,97.913c-1.015,0-1.711-0.951-1.727-2.671c0-1.751,0.759-2.702,1.815-2.702c1.087,0,1.719,0.976,1.719,2.631    c0,1.767-0.664,2.742-1.799,2.742H27.431z M27.471,97.369c0.712,0,1.056-0.839,1.056-2.166c0-1.279-0.32-2.119-1.056-2.119    c-0.64,0-1.055,0.815-1.055,2.119c-0.016,1.351,0.4,2.166,1.047,2.166H27.471z"/>
		<path d="M30.4,97.913c-0.271,0-0.464-0.216-0.464-0.504s0.2-0.504,0.48-0.504s0.472,0.208,0.472,0.504    c0,0.288-0.192,0.504-0.479,0.504H30.4z"/>
		<path d="M31.536,97.825v-0.432l0.552-0.536c1.327-1.263,1.935-1.935,1.935-2.718c0-0.528-0.248-1.016-1.023-1.016    c-0.472,0-0.864,0.239-1.104,0.439l-0.224-0.496c0.352-0.296,0.872-0.527,1.471-0.527c1.111,0,1.583,0.768,1.583,1.511    c0,0.96-0.695,1.735-1.791,2.791l-0.408,0.384v0.016h2.327v0.584H31.536z"/>
		<path d="M37.295,97.913c-1.016,0-1.711-0.951-1.728-2.671c0-1.751,0.76-2.702,1.815-2.702c1.087,0,1.719,0.976,1.719,2.631    c0,1.767-0.664,2.742-1.799,2.742H37.295z M37.335,97.369c0.712,0,1.056-0.839,1.056-2.166c0-1.279-0.32-2.119-1.056-2.119    c-0.64,0-1.055,0.815-1.055,2.119c-0.016,1.351,0.4,2.166,1.047,2.166H37.335z"/>
		<path d="M27.431,111.133c-1.015,0-1.711-0.951-1.727-2.671c0-1.751,0.759-2.702,1.815-2.702c1.087,0,1.719,0.976,1.719,2.631    c0,1.767-0.664,2.742-1.799,2.742H27.431z M27.471,110.589c0.712,0,1.056-0.839,1.056-2.167c0-1.279-0.32-2.118-1.056-2.118    c-0.64,0-1.055,0.815-1.055,2.118c-0.016,1.352,0.4,2.167,1.047,2.167H27.471z"/>
		<path d="M30.4,111.133c-0.271,0-0.464-0.216-0.464-0.504c0-0.287,0.2-0.504,0.48-0.504s0.472,0.208,0.472,0.504    c0,0.288-0.192,0.504-0.479,0.504H30.4z"/>
		<path d="M33.063,106.504h-0.016l-0.904,0.487l-0.136-0.536l1.135-0.607h0.6v5.197h-0.68V106.504z"/>
		<path d="M37.295,111.133c-1.016,0-1.711-0.951-1.728-2.671c0-1.751,0.76-2.702,1.815-2.702c1.087,0,1.719,0.976,1.719,2.631    c0,1.767-0.664,2.742-1.799,2.742H37.295z M37.335,110.589c0.712,0,1.056-0.839,1.056-2.167c0-1.279-0.32-2.118-1.056-2.118    c-0.64,0-1.055,0.815-1.055,2.118c-0.016,1.352,0.4,2.167,1.047,2.167H37.335z"/>
		<path d="M27.431,124.354c-1.015,0-1.711-0.951-1.727-2.671c0-1.751,0.759-2.702,1.815-2.702c1.087,0,1.719,0.976,1.719,2.631    c0,1.767-0.664,2.742-1.799,2.742H27.431z M27.471,123.81c0.712,0,1.056-0.839,1.056-2.167c0-1.279-0.32-2.118-1.056-2.118    c-0.64,0-1.055,0.815-1.055,2.118c-0.016,1.352,0.4,2.167,1.047,2.167H27.471z"/>
		<path d="M30.4,124.354c-0.271,0-0.464-0.216-0.464-0.504c0-0.287,0.2-0.504,0.48-0.504s0.472,0.208,0.472,0.504    c0,0.288-0.192,0.504-0.479,0.504H30.4z"/>
		<path d="M33.063,119.725h-0.016l-0.904,0.487l-0.136-0.536l1.135-0.607h0.6v5.197h-0.68V119.725z"/>
		<path d="M37.295,124.354c-1.016,0-1.711-0.951-1.728-2.671c0-1.751,0.76-2.702,1.815-2.702c1.087,0,1.719,0.976,1.719,2.631    c0,1.767-0.664,2.742-1.799,2.742H37.295z M37.335,123.81c0.712,0,1.056-0.839,1.056-2.167c0-1.279-0.32-2.118-1.056-2.118    c-0.64,0-1.055,0.815-1.055,2.118c-0.016,1.352,0.4,2.167,1.047,2.167H37.335z"/>
	</g>
	<g>
		<path d="M37.929,128.126h-0.016l-0.904,0.488l-0.136-0.536l1.135-0.607h0.6v5.197h-0.68V128.126z"/>
		<path d="M40.914,132.172c0.152,0.009,0.328,0,0.568-0.031c0.408-0.048,0.792-0.216,1.087-0.496    c0.344-0.319,0.591-0.768,0.688-1.383h-0.024c-0.288,0.352-0.704,0.56-1.231,0.56c-0.936,0-1.535-0.704-1.535-1.6    c0-0.976,0.72-1.839,1.783-1.839s1.719,0.855,1.719,2.19c0,1.144-0.384,1.943-0.896,2.439c-0.399,0.384-0.951,0.631-1.511,0.695    c-0.256,0.032-0.488,0.048-0.647,0.04V132.172z M42.185,127.919c-0.592,0-1.016,0.527-1.016,1.263c0,0.647,0.392,1.104,1,1.104    c0.472,0,0.839-0.231,1.031-0.544c0.032-0.063,0.056-0.144,0.056-0.256c0.008-0.896-0.328-1.566-1.063-1.566H42.185z"/>
		<path d="M45.018,132.172c0.152,0.009,0.328,0,0.568-0.031c0.408-0.048,0.792-0.216,1.087-0.496    c0.344-0.319,0.591-0.768,0.688-1.383h-0.024c-0.288,0.352-0.704,0.56-1.231,0.56c-0.936,0-1.535-0.704-1.535-1.6    c0-0.976,0.72-1.839,1.783-1.839c1.063,0,1.719,0.855,1.719,2.19c0,1.144-0.384,1.943-0.896,2.439    c-0.4,0.384-0.951,0.631-1.511,0.695c-0.256,0.032-0.487,0.048-0.647,0.04V132.172z M46.289,127.919    c-0.592,0-1.016,0.527-1.016,1.263c0,0.647,0.392,1.104,1,1.104c0.472,0,0.839-0.231,1.031-0.544    c0.032-0.063,0.056-0.144,0.056-0.256c0.008-0.896-0.328-1.566-1.063-1.566H46.289z"/>
		<path d="M52.087,127.471v0.464l-2.263,4.733h-0.72l2.247-4.598v-0.016h-2.543v-0.584H52.087z"/>
	</g>
	<g>
		<path d="M68.028,128.126h-0.016l-0.904,0.488l-0.136-0.536l1.135-0.607h0.6v5.197h-0.68V128.126z"/>
		<path d="M71.013,132.172c0.152,0.009,0.328,0,0.568-0.031c0.408-0.048,0.792-0.216,1.087-0.496    c0.344-0.319,0.591-0.768,0.688-1.383h-0.024c-0.288,0.352-0.704,0.56-1.231,0.56c-0.936,0-1.535-0.704-1.535-1.6    c0-0.976,0.72-1.839,1.783-1.839s1.719,0.855,1.719,2.19c0,1.144-0.384,1.943-0.896,2.439c-0.399,0.384-0.951,0.631-1.511,0.695    c-0.256,0.032-0.488,0.048-0.647,0.04V132.172z M72.285,127.919c-0.592,0-1.016,0.527-1.016,1.263c0,0.647,0.392,1.104,1,1.104    c0.472,0,0.839-0.231,1.031-0.544c0.032-0.063,0.056-0.144,0.056-0.256c0.008-0.896-0.328-1.566-1.063-1.566H72.285z"/>
		<path d="M75.117,132.172c0.152,0.009,0.328,0,0.568-0.031c0.408-0.048,0.792-0.216,1.087-0.496    c0.344-0.319,0.591-0.768,0.688-1.383h-0.024c-0.288,0.352-0.704,0.56-1.231,0.56c-0.936,0-1.535-0.704-1.535-1.6    c0-0.976,0.72-1.839,1.783-1.839c1.063,0,1.719,0.855,1.719,2.19c0,1.144-0.384,1.943-0.896,2.439    c-0.4,0.384-0.951,0.631-1.511,0.695c-0.256,0.032-0.487,0.048-0.647,0.04V132.172z M76.389,127.919    c-0.592,0-1.016,0.527-1.016,1.263c0,0.647,0.392,1.104,1,1.104c0.472,0,0.839-0.231,1.031-0.544    c0.032-0.063,0.056-0.144,0.056-0.256c0.008-0.896-0.328-1.566-1.063-1.566H76.389z"/>
		<path d="M79.221,132.172c0.152,0.009,0.328,0,0.568-0.031c0.408-0.048,0.792-0.216,1.087-0.496    c0.344-0.319,0.591-0.768,0.688-1.383H81.54c-0.288,0.352-0.704,0.56-1.231,0.56c-0.936,0-1.535-0.704-1.535-1.6    c0-0.976,0.72-1.839,1.783-1.839c1.063,0,1.719,0.855,1.719,2.19c0,1.144-0.384,1.943-0.896,2.439    c-0.4,0.384-0.951,0.631-1.511,0.695c-0.256,0.032-0.487,0.048-0.647,0.04V132.172z M80.492,127.919    c-0.592,0-1.016,0.527-1.016,1.263c0,0.647,0.392,1.104,1,1.104c0.472,0,0.839-0.231,1.031-0.544    c0.032-0.063,0.056-0.144,0.056-0.256c0.008-0.896-0.328-1.566-1.063-1.566H80.492z"/>
	</g>
	<g>
		<path d="M96.602,132.668v-0.432l0.552-0.536c1.327-1.263,1.935-1.935,1.935-2.718c0-0.528-0.248-1.016-1.023-1.016    c-0.472,0-0.864,0.239-1.104,0.439l-0.224-0.496c0.352-0.296,0.872-0.527,1.471-0.527c1.111,0,1.583,0.768,1.583,1.511    c0,0.96-0.695,1.735-1.791,2.791l-0.408,0.384v0.016h2.327v0.584H96.602z"/>
		<path d="M102.361,132.756c-1.016,0-1.711-0.951-1.728-2.671c0-1.751,0.76-2.702,1.815-2.702c1.087,0,1.719,0.976,1.719,2.631    c0,1.767-0.664,2.742-1.799,2.742H102.361z M102.401,132.212c0.712,0,1.056-0.839,1.056-2.166c0-1.279-0.32-2.119-1.056-2.119    c-0.64,0-1.055,0.815-1.055,2.119c-0.016,1.351,0.4,2.166,1.047,2.166H102.401z"/>
		<path d="M106.465,132.756c-1.015,0-1.711-0.951-1.727-2.671c0-1.751,0.759-2.702,1.815-2.702c1.087,0,1.719,0.976,1.719,2.631    c0,1.767-0.664,2.742-1.799,2.742H106.465z M106.505,132.212c0.712,0,1.056-0.839,1.056-2.166c0-1.279-0.32-2.119-1.056-2.119    c-0.64,0-1.055,0.815-1.055,2.119c-0.016,1.351,0.4,2.166,1.047,2.166H106.505z"/>
		<path d="M110.44,128.126h-0.016l-0.904,0.488l-0.136-0.536l1.135-0.607h0.6v5.197h-0.68V128.126z"/>
	</g>
	<g>
		<path d="M126.702,132.668v-0.432l0.552-0.536c1.327-1.263,1.935-1.935,1.935-2.718c0-0.528-0.248-1.016-1.023-1.016    c-0.472,0-0.864,0.239-1.104,0.439l-0.224-0.496c0.352-0.296,0.872-0.527,1.471-0.527c1.111,0,1.583,0.768,1.583,1.511    c0,0.96-0.695,1.735-1.791,2.791l-0.408,0.384v0.016h2.327v0.584H126.702z"/>
		<path d="M132.461,132.756c-1.016,0-1.711-0.951-1.728-2.671c0-1.751,0.76-2.702,1.815-2.702c1.087,0,1.719,0.976,1.719,2.631    c0,1.767-0.664,2.742-1.799,2.742H132.461z M132.5,132.212c0.712,0,1.056-0.839,1.056-2.166c0-1.279-0.32-2.119-1.056-2.119    c-0.64,0-1.055,0.815-1.055,2.119c-0.016,1.351,0.4,2.166,1.047,2.166H132.5z"/>
		<path d="M136.564,132.756c-1.015,0-1.711-0.951-1.727-2.671c0-1.751,0.759-2.702,1.815-2.702c1.087,0,1.719,0.976,1.719,2.631    c0,1.767-0.664,2.742-1.799,2.742H136.564z M136.604,132.212c0.712,0,1.056-0.839,1.056-2.166c0-1.279-0.32-2.119-1.056-2.119    c-0.64,0-1.055,0.815-1.055,2.119c-0.016,1.351,0.4,2.166,1.047,2.166H136.604z"/>
		<path d="M139.181,131.868c0.2,0.12,0.656,0.32,1.151,0.32c0.896,0,1.183-0.568,1.175-1.008c-0.008-0.728-0.664-1.039-1.343-1.039    h-0.392v-0.528h0.392c0.512,0,1.159-0.264,1.159-0.879c0-0.416-0.264-0.784-0.912-0.784c-0.416,0-0.815,0.185-1.039,0.344    l-0.192-0.512c0.28-0.199,0.808-0.399,1.367-0.399c1.023,0,1.487,0.607,1.487,1.239c0,0.544-0.328,1-0.959,1.231v0.016    c0.64,0.12,1.159,0.6,1.159,1.327c0,0.832-0.656,1.56-1.895,1.56c-0.583,0-1.095-0.184-1.351-0.352L139.181,131.868z"/>
	</g>
	<g>
		<path d="M156.802,132.668v-0.432l0.552-0.536c1.327-1.263,1.935-1.935,1.935-2.718c0-0.528-0.248-1.016-1.023-1.016    c-0.472,0-0.864,0.239-1.104,0.439l-0.224-0.496c0.352-0.296,0.872-0.527,1.471-0.527c1.111,0,1.583,0.768,1.583,1.511    c0,0.96-0.695,1.735-1.791,2.791l-0.408,0.384v0.016h2.327v0.584H156.802z"/>
		<path d="M162.562,132.756c-1.016,0-1.711-0.951-1.728-2.671c0-1.751,0.76-2.702,1.815-2.702c1.087,0,1.719,0.976,1.719,2.631    c0,1.767-0.664,2.742-1.799,2.742H162.562z M162.601,132.212c0.712,0,1.056-0.839,1.056-2.166c0-1.279-0.32-2.119-1.056-2.119    c-0.64,0-1.055,0.815-1.055,2.119c-0.016,1.351,0.4,2.166,1.047,2.166H162.601z"/>
		<path d="M166.665,132.756c-1.015,0-1.711-0.951-1.727-2.671c0-1.751,0.759-2.702,1.815-2.702c1.087,0,1.719,0.976,1.719,2.631    c0,1.767-0.664,2.742-1.799,2.742H166.665z M166.705,132.212c0.712,0,1.056-0.839,1.056-2.166c0-1.279-0.32-2.119-1.056-2.119    c-0.64,0-1.055,0.815-1.055,2.119c-0.016,1.351,0.4,2.166,1.047,2.166H166.705z"/>
		<path d="M172.216,128.062h-1.983l-0.2,1.335c0.12-0.016,0.232-0.031,0.424-0.031c0.408,0,0.799,0.088,1.119,0.279    c0.408,0.224,0.744,0.68,0.744,1.335c0,1.016-0.808,1.775-1.935,1.775c-0.567,0-1.039-0.16-1.295-0.319l0.176-0.536    c0.216,0.128,0.64,0.288,1.119,0.288c0.656,0,1.231-0.432,1.224-1.136c0-0.663-0.456-1.144-1.487-1.144    c-0.304,0-0.536,0.024-0.728,0.057l0.336-2.495h2.486V128.062z"/>
	</g>
	<g>
		<path d="M186.901,132.668v-0.432l0.552-0.536c1.327-1.263,1.936-1.935,1.936-2.718c0-0.528-0.248-1.016-1.023-1.016    c-0.473,0-0.864,0.239-1.104,0.439l-0.225-0.496c0.353-0.296,0.872-0.527,1.472-0.527c1.111,0,1.583,0.768,1.583,1.511    c0,0.96-0.695,1.735-1.791,2.791l-0.408,0.384v0.016h2.327v0.584H186.901z"/>
		<path d="M192.661,132.756c-1.016,0-1.712-0.951-1.728-2.671c0-1.751,0.76-2.702,1.815-2.702c1.087,0,1.719,0.976,1.719,2.631    c0,1.767-0.664,2.742-1.799,2.742H192.661z M192.7,132.212c0.712,0,1.056-0.839,1.056-2.166c0-1.279-0.319-2.119-1.056-2.119    c-0.64,0-1.055,0.815-1.055,2.119c-0.017,1.351,0.399,2.166,1.047,2.166H192.7z"/>
		<path d="M196.765,132.756c-1.016,0-1.711-0.951-1.727-2.671c0-1.751,0.759-2.702,1.814-2.702c1.088,0,1.719,0.976,1.719,2.631    c0,1.767-0.663,2.742-1.799,2.742H196.765z M196.805,132.212c0.712,0,1.056-0.839,1.056-2.166c0-1.279-0.32-2.119-1.056-2.119    c-0.64,0-1.056,0.815-1.056,2.119c-0.016,1.351,0.4,2.166,1.048,2.166H196.805z"/>
		<path d="M202.587,127.471v0.464l-2.263,4.733h-0.72l2.247-4.598v-0.016h-2.543v-0.584H202.587z"/>
	</g>
	<g>
		<path d="M217.002,132.668v-0.432l0.552-0.536c1.328-1.263,1.936-1.935,1.936-2.718c0-0.528-0.248-1.016-1.023-1.016    c-0.472,0-0.863,0.239-1.104,0.439l-0.224-0.496c0.352-0.296,0.871-0.527,1.471-0.527c1.111,0,1.583,0.768,1.583,1.511    c0,0.96-0.695,1.735-1.791,2.791l-0.407,0.384v0.016h2.326v0.584H217.002z"/>
		<path d="M222.761,132.756c-1.016,0-1.711-0.951-1.727-2.671c0-1.751,0.76-2.702,1.814-2.702c1.088,0,1.72,0.976,1.72,2.631    c0,1.767-0.664,2.742-1.8,2.742H222.761z M222.801,132.212c0.712,0,1.056-0.839,1.056-2.166c0-1.279-0.32-2.119-1.056-2.119    c-0.64,0-1.056,0.815-1.056,2.119c-0.016,1.351,0.4,2.166,1.048,2.166H222.801z"/>
		<path d="M226.865,132.756c-1.016,0-1.711-0.951-1.727-2.671c0-1.751,0.76-2.702,1.814-2.702c1.088,0,1.72,0.976,1.72,2.631    c0,1.767-0.664,2.742-1.8,2.742H226.865z M226.905,132.212c0.712,0,1.056-0.839,1.056-2.166c0-1.279-0.32-2.119-1.056-2.119    c-0.64,0-1.056,0.815-1.056,2.119c-0.016,1.351,0.4,2.166,1.048,2.166H226.905z"/>
		<path d="M229.722,132.172c0.152,0.009,0.328,0,0.567-0.031c0.408-0.048,0.792-0.216,1.088-0.496    c0.344-0.319,0.592-0.768,0.688-1.383h-0.024c-0.287,0.352-0.703,0.56-1.23,0.56c-0.936,0-1.535-0.704-1.535-1.6    c0-0.976,0.719-1.839,1.782-1.839s1.72,0.855,1.72,2.19c0,1.144-0.384,1.943-0.896,2.439c-0.4,0.384-0.952,0.631-1.512,0.695    c-0.256,0.032-0.487,0.048-0.647,0.04V132.172z M230.993,127.919c-0.592,0-1.016,0.527-1.016,1.263    c0,0.647,0.392,1.104,0.999,1.104c0.472,0,0.84-0.231,1.032-0.544c0.031-0.063,0.056-0.144,0.056-0.256    c0.008-0.896-0.328-1.566-1.063-1.566H230.993z"/>
	</g>
	<g>
		<path d="M247.659,132.668v-0.432l0.552-0.536c1.327-1.263,1.936-1.935,1.936-2.718c0-0.528-0.248-1.016-1.023-1.016    c-0.472,0-0.864,0.239-1.104,0.439l-0.224-0.496c0.352-0.296,0.871-0.527,1.471-0.527c1.111,0,1.583,0.768,1.583,1.511    c0,0.96-0.695,1.735-1.791,2.791l-0.407,0.384v0.016h2.326v0.584H247.659z"/>
		<path d="M253.418,132.756c-1.016,0-1.711-0.951-1.727-2.671c0-1.751,0.76-2.702,1.814-2.702c1.088,0,1.72,0.976,1.72,2.631    c0,1.767-0.664,2.742-1.8,2.742H253.418z M253.458,132.212c0.712,0,1.056-0.839,1.056-2.166c0-1.279-0.32-2.119-1.056-2.119    c-0.64,0-1.056,0.815-1.056,2.119c-0.016,1.351,0.4,2.166,1.048,2.166H253.458z"/>
		<path d="M257.395,128.126h-0.016l-0.903,0.488l-0.137-0.536l1.136-0.607h0.6v5.197h-0.68V128.126z"/>
		<path d="M260.914,128.126h-0.016l-0.903,0.488l-0.137-0.536l1.136-0.607h0.6v5.197h-0.68V128.126z"/>
	</g>
	<g>
		<path d="M277.202,132.668v-0.432l0.552-0.536c1.327-1.263,1.936-1.935,1.936-2.718c0-0.528-0.248-1.016-1.023-1.016    c-0.472,0-0.864,0.239-1.104,0.439l-0.224-0.496c0.352-0.296,0.871-0.527,1.471-0.527c1.111,0,1.583,0.768,1.583,1.511    c0,0.96-0.695,1.735-1.791,2.791l-0.407,0.384v0.016h2.326v0.584H277.202z"/>
		<path d="M282.961,132.756c-1.016,0-1.711-0.951-1.727-2.671c0-1.751,0.76-2.702,1.814-2.702c1.088,0,1.72,0.976,1.72,2.631    c0,1.767-0.664,2.742-1.8,2.742H282.961z M283.001,132.212c0.712,0,1.056-0.839,1.056-2.166c0-1.279-0.32-2.119-1.056-2.119    c-0.64,0-1.056,0.815-1.056,2.119c-0.016,1.351,0.4,2.166,1.048,2.166H283.001z"/>
		<path d="M286.938,128.126h-0.016l-0.903,0.488l-0.137-0.536l1.136-0.607h0.6v5.197h-0.68V128.126z"/>
		<path d="M289.682,131.868c0.2,0.12,0.656,0.32,1.151,0.32c0.896,0,1.184-0.568,1.176-1.008c-0.008-0.728-0.664-1.039-1.344-1.039    h-0.392v-0.528h0.392c0.512,0,1.16-0.264,1.16-0.879c0-0.416-0.265-0.784-0.912-0.784c-0.416,0-0.815,0.185-1.039,0.344    l-0.192-0.512c0.28-0.199,0.808-0.399,1.367-0.399c1.023,0,1.487,0.607,1.487,1.239c0,0.544-0.327,1-0.959,1.231v0.016    c0.64,0.12,1.159,0.6,1.159,1.327c0,0.832-0.655,1.56-1.895,1.56c-0.584,0-1.096-0.184-1.352-0.352L289.682,131.868z"/>
	</g>
	<g>
		<path d="M307.303,132.668v-0.432l0.552-0.536c1.328-1.263,1.936-1.935,1.936-2.718c0-0.528-0.248-1.016-1.023-1.016    c-0.472,0-0.863,0.239-1.104,0.439l-0.224-0.496c0.352-0.296,0.871-0.527,1.471-0.527c1.111,0,1.583,0.768,1.583,1.511    c0,0.96-0.695,1.735-1.791,2.791l-0.407,0.384v0.016h2.326v0.584H307.303z"/>
		<path d="M313.062,132.756c-1.016,0-1.711-0.951-1.727-2.671c0-1.751,0.76-2.702,1.814-2.702c1.088,0,1.72,0.976,1.72,2.631    c0,1.767-0.664,2.742-1.8,2.742H313.062z M313.102,132.212c0.712,0,1.056-0.839,1.056-2.166c0-1.279-0.32-2.119-1.056-2.119    c-0.64,0-1.056,0.815-1.056,2.119c-0.016,1.351,0.4,2.166,1.048,2.166H313.102z"/>
		<path d="M317.038,128.126h-0.016l-0.903,0.488l-0.136-0.536l1.135-0.607h0.6v5.197h-0.68V128.126z"/>
		<path d="M322.717,128.062h-1.982l-0.2,1.335c0.12-0.016,0.231-0.031,0.424-0.031c0.408,0,0.8,0.088,1.119,0.279    c0.408,0.224,0.744,0.68,0.744,1.335c0,1.016-0.808,1.775-1.936,1.775c-0.567,0-1.039-0.16-1.295-0.319l0.176-0.536    c0.216,0.128,0.64,0.288,1.119,0.288c0.656,0,1.231-0.432,1.224-1.136c0-0.663-0.456-1.144-1.487-1.144    c-0.304,0-0.535,0.024-0.728,0.057l0.336-2.495h2.486V128.062z"/>
	</g>
	<g>
		<path d="M338.25,132.668v-0.432l0.552-0.536c1.328-1.263,1.936-1.935,1.936-2.718c0-0.528-0.248-1.016-1.023-1.016    c-0.472,0-0.863,0.239-1.104,0.439l-0.224-0.496c0.352-0.296,0.871-0.527,1.471-0.527c1.111,0,1.583,0.768,1.583,1.511    c0,0.96-0.695,1.735-1.791,2.791l-0.407,0.384v0.016h2.326v0.584H338.25z"/>
		<path d="M344.01,132.756c-1.016,0-1.711-0.951-1.727-2.671c0-1.751,0.76-2.702,1.814-2.702c1.088,0,1.72,0.976,1.72,2.631    c0,1.767-0.664,2.742-1.8,2.742H344.01z M344.05,132.212c0.712,0,1.056-0.839,1.056-2.166c0-1.279-0.32-2.119-1.056-2.119    c-0.64,0-1.056,0.815-1.056,2.119c-0.016,1.351,0.4,2.166,1.048,2.166H344.05z"/>
		<path d="M347.985,128.126h-0.016l-0.903,0.488l-0.136-0.536l1.135-0.607h0.6v5.197h-0.68V128.126z"/>
		<path d="M353.937,127.471v0.464l-2.264,4.733h-0.719l2.246-4.598v-0.016h-2.542v-0.584H353.937z"/>
	</g>
	<g>
		<path d="M309.256,86.109c0.352-0.072,0.863-0.12,1.335-0.12c0.744,0,1.231,0.144,1.567,0.448c0.264,0.232,0.424,0.6,0.424,1.023    c0,0.704-0.456,1.175-1.016,1.368v0.024c0.408,0.144,0.656,0.527,0.792,1.087c0.176,0.751,0.304,1.271,0.407,1.479h-0.72    c-0.088-0.16-0.207-0.616-0.352-1.287c-0.16-0.744-0.455-1.023-1.087-1.047h-0.656v2.334h-0.695V86.109z M309.951,88.556h0.712    c0.743,0,1.216-0.408,1.216-1.023c0-0.696-0.504-1-1.24-1c-0.335,0-0.567,0.032-0.688,0.064V88.556z"/>
		<path d="M313.936,89.611c0.016,0.943,0.615,1.335,1.319,1.335c0.504,0,0.815-0.088,1.071-0.2l0.128,0.503    c-0.248,0.112-0.68,0.248-1.295,0.248c-1.184,0-1.903-0.792-1.903-1.951c0-1.167,0.695-2.087,1.823-2.087    c1.263,0,1.591,1.112,1.591,1.823c0,0.144-0.008,0.248-0.024,0.328H313.936z M315.99,89.107c0.008-0.448-0.184-1.144-0.968-1.144    c-0.72,0-1.023,0.656-1.079,1.144H315.99z"/>
		<path d="M317.544,88.812c0-0.496-0.008-0.896-0.032-1.263h0.632l0.04,0.664h0.016c0.28-0.48,0.744-0.752,1.367-0.752    c0.944,0,1.647,0.792,1.647,1.967c0,1.391-0.855,2.079-1.759,2.079c-0.52,0-0.96-0.224-1.191-0.607h-0.017v2.103h-0.703V88.812z     M318.247,89.843c0,0.096,0.009,0.2,0.032,0.288c0.12,0.488,0.552,0.823,1.048,0.823c0.743,0,1.175-0.607,1.175-1.495    c0-0.775-0.399-1.439-1.143-1.439c-0.48,0-0.936,0.335-1.072,0.871c-0.016,0.088-0.04,0.192-0.04,0.28V89.843z"/>
		<path d="M325.334,90.354c0,0.408,0.008,0.76,0.032,1.063h-0.624l-0.04-0.632h-0.016c-0.176,0.312-0.592,0.72-1.279,0.72    c-0.608,0-1.336-0.344-1.336-1.695v-2.263h0.704v2.135c0,0.735,0.231,1.239,0.863,1.239c0.472,0,0.8-0.328,0.928-0.648    c0.04-0.096,0.063-0.224,0.063-0.36v-2.366h0.704V90.354z"/>
		<path d="M326.503,85.741h0.704v2.422h0.016c0.248-0.432,0.696-0.704,1.319-0.704c0.96,0,1.632,0.8,1.632,1.967    c0,1.391-0.88,2.079-1.743,2.079c-0.56,0-1-0.216-1.296-0.728h-0.016l-0.04,0.64h-0.607c0.023-0.264,0.031-0.656,0.031-1V85.741z     M327.207,89.867c0,0.088,0.008,0.176,0.024,0.256c0.136,0.488,0.551,0.824,1.055,0.824c0.744,0,1.176-0.6,1.176-1.487    c0-0.784-0.4-1.447-1.151-1.447c-0.479,0-0.928,0.336-1.063,0.864c-0.024,0.088-0.04,0.184-0.04,0.296V89.867z"/>
		<path d="M331.056,85.741h0.703v5.677h-0.703V85.741z"/>
		<path d="M333.279,86.893c-0.256,0-0.424-0.2-0.424-0.432c0-0.248,0.176-0.439,0.439-0.439c0.256,0,0.432,0.192,0.432,0.439    c0,0.232-0.168,0.432-0.439,0.432H333.279z M332.943,91.418v-3.87h0.703v3.87H332.943z"/>
		<path d="M337.574,91.274c-0.185,0.088-0.592,0.224-1.111,0.224c-1.168,0-1.928-0.792-1.928-1.975c0-1.191,0.816-2.063,2.079-2.063    c0.416,0,0.784,0.104,0.976,0.208l-0.16,0.536c-0.168-0.088-0.432-0.184-0.815-0.184c-0.888,0-1.367,0.664-1.367,1.463    c0,0.896,0.576,1.447,1.344,1.447c0.399,0,0.663-0.096,0.863-0.184L337.574,91.274z"/>
		<path d="M341.126,90.491c0,0.335,0.016,0.664,0.056,0.927h-0.632l-0.063-0.488h-0.024c-0.208,0.304-0.631,0.576-1.183,0.576    c-0.784,0-1.184-0.552-1.184-1.111c0-0.936,0.831-1.447,2.326-1.439v-0.08c0-0.32-0.088-0.904-0.879-0.896    c-0.368,0-0.744,0.104-1.016,0.288l-0.16-0.472c0.32-0.2,0.792-0.336,1.279-0.336c1.191,0,1.479,0.808,1.479,1.583V90.491z     M340.438,89.443c-0.768-0.016-1.64,0.12-1.64,0.872c0,0.464,0.304,0.672,0.656,0.672c0.512,0,0.839-0.32,0.951-0.648    c0.024-0.072,0.032-0.152,0.032-0.224V89.443z"/>
		<path d="M342.255,88.596c0-0.408-0.008-0.728-0.031-1.047h0.623l0.04,0.631h0.017c0.191-0.36,0.64-0.72,1.279-0.72    c0.535,0,1.367,0.32,1.367,1.647v2.311h-0.704v-2.231c0-0.624-0.231-1.151-0.896-1.151c-0.455,0-0.815,0.328-0.943,0.72    c-0.032,0.088-0.048,0.216-0.048,0.328v2.334h-0.704V88.596z"/>
		<path d="M346.6,90.698c0.216,0.128,0.583,0.272,0.936,0.272c0.503,0,0.743-0.248,0.743-0.576c0-0.336-0.2-0.512-0.712-0.704    c-0.703-0.256-1.031-0.64-1.031-1.095c0-0.624,0.512-1.136,1.336-1.136c0.392,0,0.735,0.104,0.943,0.24l-0.168,0.503    c-0.152-0.088-0.432-0.224-0.792-0.224c-0.416,0-0.64,0.24-0.64,0.527c0,0.32,0.224,0.464,0.728,0.664    c0.664,0.248,1.016,0.583,1.016,1.159c0,0.688-0.536,1.167-1.439,1.167c-0.424,0-0.815-0.112-1.087-0.272L346.6,90.698z"/>
		<path d="M309.248,98.101c0.432-0.063,0.936-0.112,1.487-0.112c0.999,0,1.711,0.232,2.183,0.672    c0.487,0.439,0.768,1.063,0.768,1.936c0,0.879-0.28,1.599-0.775,2.095c-0.512,0.503-1.344,0.775-2.391,0.775    c-0.504,0-0.912-0.017-1.271-0.064V98.101z M309.951,102.874c0.176,0.032,0.432,0.032,0.704,0.032    c1.487,0.008,2.295-0.832,2.295-2.287c0.008-1.271-0.712-2.079-2.184-2.079c-0.359,0-0.631,0.032-0.815,0.072V102.874z"/>
		<path d="M314.96,101.61c0.016,0.943,0.615,1.336,1.319,1.336c0.504,0,0.815-0.088,1.071-0.2l0.128,0.504    c-0.248,0.111-0.68,0.248-1.295,0.248c-1.184,0-1.903-0.792-1.903-1.951c0-1.168,0.695-2.087,1.823-2.087    c1.263,0,1.591,1.111,1.591,1.823c0,0.144-0.008,0.247-0.024,0.327H314.96z M317.015,101.107c0.008-0.448-0.184-1.144-0.968-1.144    c-0.72,0-1.023,0.655-1.079,1.144H317.015z"/>
		<path d="M318.567,100.596c0-0.408-0.016-0.729-0.031-1.048h0.615l0.032,0.624h0.023c0.217-0.368,0.576-0.712,1.224-0.712    c0.52,0,0.92,0.319,1.088,0.775h0.016c0.12-0.224,0.28-0.384,0.439-0.504c0.232-0.176,0.48-0.271,0.848-0.271    c0.52,0,1.279,0.336,1.279,1.679v2.279h-0.688v-2.191c0-0.751-0.279-1.191-0.84-1.191c-0.407,0-0.711,0.296-0.839,0.632    c-0.032,0.104-0.057,0.232-0.057,0.352v2.399h-0.688v-2.327c0-0.615-0.271-1.056-0.808-1.056c-0.432,0-0.759,0.353-0.871,0.704    c-0.04,0.104-0.056,0.224-0.056,0.344v2.335h-0.688V100.596z"/>
		<path d="M326.814,103.506c-1.039,0-1.854-0.768-1.854-1.991c0-1.295,0.855-2.055,1.919-2.055c1.111,0,1.863,0.808,1.863,1.982    c0,1.439-1,2.063-1.919,2.063H326.814z M326.847,102.978c0.672,0,1.176-0.631,1.176-1.511c0-0.655-0.328-1.479-1.159-1.479    c-0.824,0-1.184,0.768-1.184,1.504c0,0.847,0.479,1.486,1.159,1.486H326.847z"/>
		<path d="M332.391,103.273c-0.185,0.088-0.592,0.225-1.111,0.225c-1.168,0-1.928-0.792-1.928-1.976    c0-1.191,0.816-2.062,2.079-2.062c0.416,0,0.784,0.104,0.976,0.208l-0.16,0.535c-0.168-0.088-0.432-0.184-0.815-0.184    c-0.888,0-1.367,0.664-1.367,1.463c0,0.896,0.576,1.447,1.344,1.447c0.399,0,0.663-0.096,0.863-0.184L332.391,103.273z"/>
		<path d="M333.216,100.755c0-0.455-0.008-0.848-0.032-1.207h0.616l0.031,0.76h0.024c0.176-0.52,0.607-0.848,1.079-0.848    c0.072,0,0.128,0.008,0.192,0.016v0.664c-0.072-0.008-0.145-0.017-0.24-0.017c-0.495,0-0.848,0.376-0.943,0.896    c-0.016,0.104-0.024,0.217-0.024,0.328v2.071h-0.703V100.755z"/>
		<path d="M338.558,102.49c0,0.336,0.017,0.664,0.057,0.928h-0.632l-0.064-0.488h-0.023c-0.208,0.304-0.632,0.576-1.184,0.576    c-0.783,0-1.184-0.552-1.184-1.111c0-0.936,0.832-1.447,2.327-1.439v-0.08c0-0.319-0.088-0.903-0.88-0.896    c-0.367,0-0.743,0.104-1.016,0.288l-0.159-0.472c0.319-0.2,0.791-0.336,1.279-0.336c1.191,0,1.479,0.808,1.479,1.583V102.49z     M337.87,101.442c-0.768-0.016-1.639,0.12-1.639,0.872c0,0.464,0.304,0.672,0.655,0.672c0.512,0,0.84-0.32,0.952-0.648    c0.023-0.071,0.031-0.151,0.031-0.224V101.442z"/>
		<path d="M340.535,98.62v0.928h1.007v0.536h-1.007v2.078c0,0.48,0.136,0.752,0.527,0.752c0.192,0,0.304-0.016,0.408-0.048    l0.032,0.535c-0.137,0.048-0.353,0.097-0.624,0.097c-0.328,0-0.592-0.112-0.76-0.296c-0.191-0.216-0.271-0.56-0.271-1.016v-2.103    h-0.6v-0.536h0.6v-0.712L340.535,98.62z"/>
		<path d="M342.239,102.698c0.216,0.128,0.584,0.271,0.936,0.271c0.504,0,0.744-0.248,0.744-0.575c0-0.336-0.2-0.512-0.712-0.704    c-0.704-0.256-1.031-0.64-1.031-1.095c0-0.624,0.512-1.136,1.335-1.136c0.392,0,0.735,0.104,0.943,0.24l-0.168,0.503    c-0.151-0.088-0.432-0.224-0.791-0.224c-0.416,0-0.64,0.24-0.64,0.527c0,0.32,0.224,0.464,0.728,0.664    c0.663,0.248,1.016,0.584,1.016,1.159c0,0.688-0.536,1.168-1.439,1.168c-0.424,0-0.815-0.112-1.088-0.272L342.239,102.698z"/>
	</g>
	
		<line fill="none" stroke="#000000" stroke-width="0.5" stroke-linejoin="round" stroke-miterlimit="10" x1="44.29" y1="121.211" x2="44.29" y2="2.192"/>
	
		<line fill="none" stroke="#000000" stroke-width="0.5" stroke-linejoin="round" stroke-miterlimit="10" x1="44.29" y1="2.192" x2="41.29" y2="2.192"/>
	
		<line fill="none" stroke="#000000" stroke-width="0.5" stroke-linejoin="round" stroke-miterlimit="10" x1="44.29" y1="15.416" x2="41.29" y2="15.416"/>
	
		<line fill="none" stroke="#000000" stroke-width="0.5" stroke-linejoin="round" stroke-miterlimit="10" x1="44.29" y1="28.64" x2="41.29" y2="28.64"/>
	
		<line fill="none" stroke="#000000" stroke-width="0.5" stroke-linejoin="round" stroke-miterlimit="10" x1="44.29" y1="41.865" x2="41.29" y2="41.865"/>
	
		<line fill="none" stroke="#000000" stroke-width="0.5" stroke-linejoin="round" stroke-miterlimit="10" x1="44.29" y1="55.089" x2="41.29" y2="55.089"/>
	
		<line fill="none" stroke="#000000" stroke-width="0.5" stroke-linejoin="round" stroke-miterlimit="10" x1="44.29" y1="68.313" x2="41.29" y2="68.313"/>
	
		<line fill="none" stroke="#000000" stroke-width="0.5" stroke-linejoin="round" stroke-miterlimit="10" x1="44.29" y1="81.537" x2="41.29" y2="81.537"/>
	
		<line fill="none" stroke="#000000" stroke-width="0.5" stroke-linejoin="round" stroke-miterlimit="10" x1="44.29" y1="94.762" x2="41.29" y2="94.762"/>
	
		<line fill="none" stroke="#000000" stroke-width="0.5" stroke-linejoin="round" stroke-miterlimit="10" x1="44.29" y1="107.986" x2="41.29" y2="107.986"/>
	
		<line fill="none" stroke="#000000" stroke-width="0.5" stroke-linejoin="round" stroke-miterlimit="10" x1="44.29" y1="121.211" x2="41.29" y2="121.211"/>
	
		<line fill="none" stroke="#000000" stroke-width="0.5" stroke-linejoin="round" stroke-miterlimit="10" x1="315.188" y1="121.212" x2="315.188" y2="124.212"/>
	
		<line fill="none" stroke="#000000" stroke-width="0.5" stroke-linejoin="round" stroke-miterlimit="10" x1="345.287" y1="121.212" x2="345.287" y2="124.212"/>
	
		<line fill="none" stroke="#000000" stroke-width="0.5" stroke-linejoin="round" stroke-miterlimit="10" x1="285.088" y1="121.212" x2="285.088" y2="124.212"/>
	
		<line fill="none" stroke="#000000" stroke-width="0.5" stroke-linejoin="round" stroke-miterlimit="10" x1="254.988" y1="121.212" x2="254.988" y2="124.212"/>
	
		<line fill="none" stroke="#000000" stroke-width="0.5" stroke-linejoin="round" stroke-miterlimit="10" x1="224.889" y1="121.212" x2="224.889" y2="124.212"/>
	
		<line fill="none" stroke="#000000" stroke-width="0.5" stroke-linejoin="round" stroke-miterlimit="10" x1="194.789" y1="121.212" x2="194.789" y2="124.212"/>
	
		<line fill="none" stroke="#000000" stroke-width="0.5" stroke-linejoin="round" stroke-miterlimit="10" x1="164.689" y1="121.212" x2="164.689" y2="124.212"/>
	
		<line fill="none" stroke="#000000" stroke-width="0.5" stroke-linejoin="round" stroke-miterlimit="10" x1="134.589" y1="121.212" x2="134.589" y2="124.212"/>
	
		<line fill="none" stroke="#000000" stroke-width="0.5" stroke-linejoin="round" stroke-miterlimit="10" x1="104.489" y1="121.212" x2="104.489" y2="124.212"/>
	
		<line fill="none" stroke="#000000" stroke-width="0.5" stroke-linejoin="round" stroke-miterlimit="10" x1="74.39" y1="121.212" x2="74.39" y2="124.212"/>
	
		<line fill="none" stroke="#000000" stroke-width="0.5" stroke-linejoin="round" stroke-miterlimit="10" x1="44.29" y1="121.212" x2="44.29" y2="124.212"/>
	
		<line fill="none" stroke="#000000" stroke-linejoin="round" stroke-miterlimit="10" stroke-dasharray="3,2" x1="287.412" y1="88.762" x2="305.412" y2="88.762"/>
	
		<line fill="none" stroke="#000000" stroke-linejoin="round" stroke-miterlimit="10" x1="287.412" y1="100.762" x2="305.412" y2="100.762"/>
	<circle cx="296.412" cy="88.762" r="1.75"/>
	<circle cx="59.267" cy="17.606" r="1.75"/>
	<circle cx="59.267" cy="27.324" r="1.75"/>
	<circle cx="89.375" cy="27.324" r="1.75"/>
	<circle cx="89.375" cy="37.423" r="1.75"/>
	<circle cx="119.482" cy="27.324" r="1.75"/>
	<circle cx="149.589" cy="31.326" r="1.75"/>
	<circle cx="149.589" cy="35.327" r="1.75"/>
	<circle cx="179.697" cy="37.882" r="1.75"/>
	<circle cx="209.804" cy="33.993" r="1.75"/>
	<circle cx="209.804" cy="48.476" r="1.75"/>
	<circle cx="239.911" cy="31.326" r="1.75"/>
	<circle cx="239.911" cy="56.479" r="1.75"/>
	<circle cx="270.019" cy="33.993" r="1.75"/>
	<circle cx="270.019" cy="47.142" r="1.75"/>
	<circle cx="300.126" cy="20.655" r="1.75"/>
	<circle cx="300.126" cy="41.901" r="1.75"/>
	<circle cx="330.285" cy="23.298" r="1.75"/>
	<circle cx="330.285" cy="44.474" r="1.75"/>
	<circle cx="345.288" cy="15.51" r="1.75"/>
	<circle cx="345.288" cy="47.142" r="1.75"/>
	<circle cx="296.412" cy="100.762" r="1.75"/>
</g>
</svg>