<svg xmlns="http://www.w3.org/2000/svg" xmlns:xlink="http://www.w3.org/1999/xlink" version="1.1" x="0px" y="0px" width="298.32px" height="139.623px" viewBox="0 0 298.32 139.623" enable-background="new 0 0 298.32 139.623" xml:space="preserve">
<g id="wide" display="none">
</g>
<g id="text_column">
</g>
<g id="art">
	
		<line fill="none" stroke="#A7A9AC" stroke-width="0.5" stroke-linejoin="round" stroke-miterlimit="10" x1="23.255" y1="95.374" x2="235.544" y2="95.374"/>
	
		<line fill="none" stroke="#A7A9AC" stroke-width="0.5" stroke-linejoin="round" stroke-miterlimit="10" x1="23.255" y1="1.96" x2="235.544" y2="1.96"/>
	
		<line fill="none" stroke="#A7A9AC" stroke-width="0.5" stroke-linejoin="round" stroke-miterlimit="10" x1="23.255" y1="17.529" x2="235.544" y2="17.529"/>
	
		<line fill="none" stroke="#A7A9AC" stroke-width="0.5" stroke-linejoin="round" stroke-miterlimit="10" x1="23.255" y1="33.099" x2="235.544" y2="33.099"/>
	
		<line fill="none" stroke="#A7A9AC" stroke-width="0.5" stroke-linejoin="round" stroke-miterlimit="10" x1="23.255" y1="48.667" x2="235.544" y2="48.667"/>
	
		<line fill="none" stroke="#A7A9AC" stroke-width="0.5" stroke-linejoin="round" stroke-miterlimit="10" x1="23.255" y1="79.806" x2="235.544" y2="79.806"/>
	
		<line fill="none" stroke="#A7A9AC" stroke-width="0.5" stroke-linejoin="round" stroke-miterlimit="10" x1="23.255" y1="110.943" x2="235.544" y2="110.943"/>
	
		<rect x="155.726" y="36.902" fill="#808285" stroke="#000000" stroke-width="0.5" stroke-linejoin="round" stroke-miterlimit="10" width="26.483" height="27.334"/>
	
		<rect x="189.209" y="48.929" fill="#D1D3D4" stroke="#000000" stroke-width="0.5" stroke-linejoin="round" stroke-miterlimit="10" width="26.483" height="15.308"/>
	<rect x="244.054" y="50.962" fill="#FFFFFF" width="54.267" height="25.359"/>
	
		<rect x="82.438" y="64.236" fill="#D1D3D4" stroke="#000000" stroke-width="0.5" stroke-linejoin="round" stroke-miterlimit="10" width="26.259" height="49.678"/>
	
		<rect x="48.954" y="32.902" fill="#808285" stroke="#000000" stroke-width="0.5" stroke-linejoin="round" stroke-miterlimit="10" width="26.484" height="31.334"/>
	
		<rect x="246.708" y="67.673" fill="#D1D3D4" stroke="#000000" stroke-width="0.5" stroke-linejoin="round" stroke-miterlimit="10" width="6" height="5.998"/>
	<g>
		<path d="M257.553,55.048h-1.64v-0.592h3.99v0.592h-1.647v4.797h-0.703V55.048z"/>
		<path d="M260.481,57.183c0-0.456-0.008-0.848-0.032-1.208h0.616l0.031,0.76h0.023c0.177-0.52,0.608-0.848,1.08-0.848    c0.072,0,0.128,0.008,0.191,0.016v0.664c-0.071-0.008-0.144-0.016-0.239-0.016c-0.496,0-0.848,0.375-0.943,0.896    c-0.017,0.104-0.024,0.216-0.024,0.328v2.071h-0.703V57.183z"/>
		<path d="M265.823,58.918c0,0.336,0.016,0.664,0.057,0.928h-0.633l-0.063-0.488h-0.024c-0.207,0.304-0.631,0.576-1.183,0.576    c-0.784,0-1.184-0.552-1.184-1.111c0-0.936,0.831-1.447,2.327-1.439v-0.08c0-0.32-0.088-0.904-0.88-0.896    c-0.368,0-0.743,0.104-1.016,0.288l-0.159-0.472c0.319-0.2,0.791-0.336,1.279-0.336c1.191,0,1.479,0.808,1.479,1.583V58.918z     M265.136,57.871c-0.768-0.016-1.639,0.12-1.639,0.872c0,0.464,0.303,0.672,0.655,0.672c0.512,0,0.839-0.32,0.951-0.648    c0.024-0.072,0.032-0.152,0.032-0.224V57.871z"/>
		<path d="M270.295,54.169v4.677c0,0.344,0.008,0.736,0.032,1h-0.632l-0.032-0.672h-0.016c-0.216,0.432-0.68,0.76-1.312,0.76    c-0.936,0-1.663-0.792-1.663-1.967c-0.008-1.295,0.8-2.079,1.735-2.079c0.6,0,0.999,0.28,1.167,0.584h0.016v-2.303H270.295z     M269.591,57.551c0-0.096-0.008-0.208-0.031-0.304c-0.104-0.439-0.488-0.808-1.016-0.808c-0.728,0-1.159,0.64-1.159,1.487    c0,0.792,0.392,1.439,1.144,1.439c0.471,0,0.903-0.32,1.031-0.848c0.023-0.088,0.031-0.184,0.031-0.296V57.551z"/>
		<path d="M271.864,58.039c0.017,0.944,0.616,1.335,1.32,1.335c0.504,0,0.814-0.088,1.07-0.2l0.129,0.504    c-0.248,0.112-0.68,0.248-1.296,0.248c-1.183,0-1.903-0.792-1.903-1.951c0-1.167,0.696-2.087,1.824-2.087    c1.263,0,1.59,1.111,1.59,1.823c0,0.144-0.008,0.248-0.023,0.328H271.864z M273.92,57.535c0.008-0.448-0.185-1.144-0.968-1.144    c-0.72,0-1.023,0.656-1.079,1.144H273.92z"/>
	</g>
	
		<rect x="246.479" y="54.673" fill="#808285" stroke="#000000" stroke-width="0.5" stroke-linejoin="round" stroke-miterlimit="10" width="6" height="6"/>
	<g>
		<path d="M257.171,71.15l-0.56,1.695h-0.72l1.831-5.389h0.839l1.839,5.389h-0.743l-0.576-1.695H257.171z M258.938,70.607    l-0.535-1.551c-0.112-0.352-0.192-0.671-0.272-0.983h-0.023c-0.072,0.312-0.16,0.647-0.265,0.976l-0.527,1.559H258.938z"/>
		<path d="M264.409,71.782c0,0.408,0.008,0.76,0.031,1.063h-0.623l-0.04-0.632h-0.017c-0.176,0.312-0.591,0.72-1.279,0.72    c-0.607,0-1.335-0.344-1.335-1.695v-2.263h0.704v2.135c0,0.735,0.231,1.239,0.863,1.239c0.472,0,0.8-0.328,0.928-0.648    c0.04-0.096,0.063-0.224,0.063-0.359v-2.367h0.704V71.782z"/>
		<path d="M266.427,68.048v0.927h1.007v0.536h-1.007v2.079c0,0.48,0.136,0.751,0.527,0.751c0.191,0,0.304-0.016,0.408-0.048    l0.031,0.536c-0.136,0.048-0.352,0.096-0.623,0.096c-0.328,0-0.592-0.112-0.76-0.296c-0.192-0.216-0.272-0.56-0.272-1.016v-2.103    h-0.6v-0.536h0.6v-0.711L266.427,68.048z"/>
		<path d="M269.803,72.934c-1.04,0-1.855-0.768-1.855-1.991c0-1.295,0.855-2.055,1.919-2.055c1.111,0,1.863,0.808,1.863,1.983    c0,1.439-1,2.063-1.919,2.063H269.803z M269.834,72.406c0.672,0,1.176-0.631,1.176-1.511c0-0.655-0.328-1.479-1.159-1.479    c-0.824,0-1.184,0.768-1.184,1.503c0,0.847,0.479,1.487,1.159,1.487H269.834z"/>
		<path d="M272.619,70.023c0-0.408-0.017-0.728-0.032-1.048h0.615l0.032,0.624h0.024c0.216-0.368,0.575-0.712,1.223-0.712    c0.521,0,0.92,0.32,1.088,0.776h0.016c0.12-0.224,0.28-0.384,0.44-0.504c0.231-0.176,0.479-0.272,0.847-0.272    c0.521,0,1.279,0.336,1.279,1.679v2.279h-0.688v-2.191c0-0.751-0.279-1.191-0.839-1.191c-0.408,0-0.712,0.296-0.84,0.632    c-0.032,0.104-0.056,0.232-0.056,0.352v2.398h-0.688v-2.327c0-0.616-0.272-1.056-0.808-1.056c-0.433,0-0.76,0.352-0.872,0.704    c-0.04,0.104-0.056,0.224-0.056,0.344v2.335h-0.688V70.023z"/>
		<path d="M282.018,71.918c0,0.336,0.016,0.664,0.056,0.928h-0.632l-0.063-0.488h-0.024c-0.208,0.304-0.632,0.576-1.184,0.576    c-0.783,0-1.183-0.552-1.183-1.111c0-0.936,0.831-1.447,2.326-1.439v-0.08c0-0.32-0.088-0.904-0.879-0.896    c-0.368,0-0.744,0.104-1.016,0.288l-0.16-0.472c0.319-0.2,0.791-0.336,1.279-0.336c1.191,0,1.479,0.808,1.479,1.583V71.918z     M281.329,70.871c-0.768-0.016-1.639,0.12-1.639,0.872c0,0.464,0.304,0.672,0.655,0.672c0.512,0,0.84-0.32,0.952-0.648    c0.023-0.072,0.031-0.152,0.031-0.224V70.871z"/>
		<path d="M283.995,68.048v0.927h1.007v0.536h-1.007v2.079c0,0.48,0.136,0.751,0.527,0.751c0.191,0,0.304-0.016,0.408-0.048    l0.031,0.536c-0.136,0.048-0.352,0.096-0.623,0.096c-0.328,0-0.592-0.112-0.76-0.296c-0.192-0.216-0.272-0.56-0.272-1.016v-2.103    h-0.6v-0.536h0.6v-0.711L283.995,68.048z"/>
		<path d="M286.131,68.32c-0.256,0-0.424-0.2-0.424-0.432c0-0.248,0.176-0.44,0.439-0.44c0.256,0,0.432,0.192,0.432,0.44    c0,0.231-0.168,0.432-0.439,0.432H286.131z M285.795,72.846v-3.87h0.703v3.87H285.795z"/>
		<path d="M289.242,72.934c-1.04,0-1.855-0.768-1.855-1.991c0-1.295,0.855-2.055,1.919-2.055c1.111,0,1.863,0.808,1.863,1.983    c0,1.439-1,2.063-1.919,2.063H289.242z M289.273,72.406c0.672,0,1.176-0.631,1.176-1.511c0-0.655-0.328-1.479-1.159-1.479    c-0.824,0-1.184,0.768-1.184,1.503c0,0.847,0.479,1.487,1.159,1.487H289.273z"/>
		<path d="M292.06,70.023c0-0.408-0.008-0.728-0.032-1.048h0.624l0.039,0.632h0.017c0.191-0.36,0.64-0.72,1.279-0.72    c0.535,0,1.367,0.32,1.367,1.647v2.311h-0.704v-2.231c0-0.624-0.231-1.151-0.896-1.151c-0.455,0-0.815,0.328-0.943,0.72    c-0.031,0.088-0.048,0.216-0.048,0.328v2.335h-0.703V70.023z"/>
	</g>
	<g>
		<path d="M6.095,5.373c-1.015,0-1.711-0.951-1.727-2.671C4.368,0.951,5.127,0,6.183,0c1.087,0,1.719,0.976,1.719,2.631    c0,1.767-0.664,2.742-1.799,2.742H6.095z M6.135,4.829c0.712,0,1.056-0.839,1.056-2.167c0-1.279-0.32-2.118-1.056-2.118    c-0.64,0-1.055,0.815-1.055,2.118c-0.016,1.352,0.4,2.167,1.047,2.167H6.135z"/>
		<path d="M9.063,5.373C8.792,5.373,8.6,5.157,8.6,4.869c0-0.287,0.2-0.504,0.48-0.504s0.472,0.208,0.472,0.504    c0,0.288-0.192,0.504-0.479,0.504H9.063z"/>
		<path d="M11.854,5.373c-1.015,0-1.711-0.951-1.727-2.671C10.128,0.951,10.887,0,11.943,0c1.087,0,1.719,0.976,1.719,2.631    c0,1.767-0.664,2.742-1.799,2.742H11.854z M11.895,4.829c0.712,0,1.056-0.839,1.056-2.167c0-1.279-0.32-2.118-1.056-2.118    c-0.64,0-1.055,0.815-1.055,2.118c-0.016,1.352,0.4,2.167,1.047,2.167H11.895z"/>
		<path d="M16.047,0c1.007,0,1.519,0.624,1.519,1.279c0,0.439-0.224,0.92-0.864,1.216v0.023c0.648,0.256,1.048,0.72,1.048,1.344    c0,0.911-0.776,1.511-1.767,1.511c-1.087,0-1.743-0.64-1.743-1.399c0-0.655,0.392-1.127,1.023-1.399V2.551    c-0.583-0.271-0.832-0.72-0.832-1.168C14.432,0.56,15.127,0,16.039,0H16.047z M15.999,4.861c0.632,0,1.04-0.392,1.04-0.928    c0-0.623-0.439-0.936-1.144-1.135c-0.607,0.176-0.935,0.583-0.935,1.079c-0.024,0.52,0.375,0.983,1.031,0.983H15.999z     M16.007,0.504c-0.584,0-0.904,0.384-0.904,0.831c-0.008,0.521,0.392,0.8,0.992,0.96c0.448-0.152,0.792-0.472,0.792-0.943    c0-0.416-0.248-0.848-0.872-0.848H16.007z"/>
		<path d="M6.095,20.953c-1.015,0-1.711-0.951-1.727-2.671c0-1.751,0.759-2.702,1.815-2.702c1.087,0,1.719,0.976,1.719,2.631    c0,1.767-0.664,2.742-1.799,2.742H6.095z M6.135,20.409c0.712,0,1.056-0.839,1.056-2.167c0-1.279-0.32-2.118-1.056-2.118    c-0.64,0-1.055,0.815-1.055,2.118c-0.016,1.352,0.4,2.167,1.047,2.167H6.135z"/>
		<path d="M9.063,20.953c-0.271,0-0.464-0.216-0.464-0.504c0-0.287,0.2-0.504,0.48-0.504s0.472,0.208,0.472,0.504    c0,0.288-0.192,0.504-0.479,0.504H9.063z"/>
		<path d="M11.854,20.953c-1.015,0-1.711-0.951-1.727-2.671c0-1.751,0.759-2.702,1.815-2.702c1.087,0,1.719,0.976,1.719,2.631    c0,1.767-0.664,2.742-1.799,2.742H11.854z M11.895,20.409c0.712,0,1.056-0.839,1.056-2.167c0-1.279-0.32-2.118-1.056-2.118    c-0.64,0-1.055,0.815-1.055,2.118c-0.016,1.352,0.4,2.167,1.047,2.167H11.895z"/>
		<path d="M17.27,16.164c-0.144-0.008-0.328,0.008-0.528,0.04c-1.111,0.176-1.687,0.976-1.807,1.839h0.016    c0.248-0.336,0.688-0.607,1.264-0.607c0.919,0,1.567,0.671,1.567,1.679c0,0.959-0.647,1.839-1.735,1.839    c-1.104,0-1.831-0.863-1.831-2.215c0-1.023,0.36-1.831,0.879-2.343c0.432-0.424,1.007-0.688,1.663-0.768    c0.208-0.032,0.384-0.04,0.512-0.04V16.164z M16.062,20.409c0.6,0,1.008-0.503,1.008-1.247c0-0.743-0.424-1.191-1.072-1.191    c-0.423,0-0.823,0.256-1.015,0.64c-0.04,0.08-0.072,0.176-0.072,0.304c0.008,0.855,0.408,1.495,1.144,1.495H16.062z"/>
		<path d="M6.095,36.533c-1.015,0-1.711-0.951-1.727-2.671c0-1.751,0.759-2.702,1.815-2.702c1.087,0,1.719,0.976,1.719,2.631    c0,1.767-0.664,2.742-1.799,2.742H6.095z M6.135,35.989c0.712,0,1.056-0.839,1.056-2.167c0-1.279-0.32-2.118-1.056-2.118    c-0.64,0-1.055,0.815-1.055,2.118c-0.016,1.352,0.4,2.167,1.047,2.167H6.135z"/>
		<path d="M9.063,36.533c-0.271,0-0.464-0.216-0.464-0.504c0-0.287,0.2-0.504,0.48-0.504s0.472,0.208,0.472,0.504    c0,0.288-0.192,0.504-0.479,0.504H9.063z"/>
		<path d="M11.854,36.533c-1.015,0-1.711-0.951-1.727-2.671c0-1.751,0.759-2.702,1.815-2.702c1.087,0,1.719,0.976,1.719,2.631    c0,1.767-0.664,2.742-1.799,2.742H11.854z M11.895,35.989c0.712,0,1.056-0.839,1.056-2.167c0-1.279-0.32-2.118-1.056-2.118    c-0.64,0-1.055,0.815-1.055,2.118c-0.016,1.352,0.4,2.167,1.047,2.167H11.895z"/>
		<path d="M16.479,36.445v-1.423h-2.415v-0.456l2.318-3.318h0.76v3.23h0.728v0.544h-0.728v1.423H16.479z M16.479,34.479v-1.735    c0-0.271,0.008-0.544,0.024-0.815h-0.024c-0.16,0.304-0.288,0.527-0.432,0.768l-1.271,1.768v0.016H16.479z"/>
		<path d="M6.095,52.113c-1.015,0-1.711-0.951-1.727-2.671c0-1.751,0.759-2.702,1.815-2.702c1.087,0,1.719,0.976,1.719,2.631    c0,1.767-0.664,2.742-1.799,2.742H6.095z M6.135,51.569c0.712,0,1.056-0.839,1.056-2.167c0-1.279-0.32-2.118-1.056-2.118    c-0.64,0-1.055,0.815-1.055,2.118c-0.016,1.352,0.4,2.167,1.047,2.167H6.135z"/>
		<path d="M9.063,52.113c-0.271,0-0.464-0.216-0.464-0.504c0-0.287,0.2-0.504,0.48-0.504s0.472,0.208,0.472,0.504    c0,0.288-0.192,0.504-0.479,0.504H9.063z"/>
		<path d="M11.854,52.113c-1.015,0-1.711-0.951-1.727-2.671c0-1.751,0.759-2.702,1.815-2.702c1.087,0,1.719,0.976,1.719,2.631    c0,1.767-0.664,2.742-1.799,2.742H11.854z M11.895,51.569c0.712,0,1.056-0.839,1.056-2.167c0-1.279-0.32-2.118-1.056-2.118    c-0.64,0-1.055,0.815-1.055,2.118c-0.016,1.352,0.4,2.167,1.047,2.167H11.895z"/>
		<path d="M14.304,52.025v-0.432l0.552-0.536c1.327-1.263,1.935-1.935,1.935-2.718c0-0.528-0.248-1.016-1.023-1.016    c-0.472,0-0.863,0.239-1.103,0.439l-0.224-0.496c0.352-0.295,0.872-0.527,1.471-0.527c1.111,0,1.583,0.768,1.583,1.512    c0,0.959-0.696,1.734-1.791,2.79l-0.408,0.384v0.016h2.327v0.584H14.304z"/>
		<path d="M6.095,67.693c-1.015,0-1.711-0.951-1.727-2.671c0-1.751,0.759-2.702,1.815-2.702c1.087,0,1.719,0.976,1.719,2.631    c0,1.767-0.664,2.742-1.799,2.742H6.095z M6.135,67.149c0.712,0,1.056-0.839,1.056-2.167c0-1.279-0.32-2.118-1.056-2.118    c-0.64,0-1.055,0.815-1.055,2.118c-0.016,1.352,0.4,2.167,1.047,2.167H6.135z"/>
		<path d="M9.063,67.693c-0.271,0-0.464-0.216-0.464-0.504c0-0.287,0.2-0.504,0.48-0.504s0.472,0.208,0.472,0.504    c0,0.288-0.192,0.504-0.479,0.504H9.063z"/>
		<path d="M11.854,67.693c-1.015,0-1.711-0.951-1.727-2.671c0-1.751,0.759-2.702,1.815-2.702c1.087,0,1.719,0.976,1.719,2.631    c0,1.767-0.664,2.742-1.799,2.742H11.854z M11.895,67.149c0.712,0,1.056-0.839,1.056-2.167c0-1.279-0.32-2.118-1.056-2.118    c-0.64,0-1.055,0.815-1.055,2.118c-0.016,1.352,0.4,2.167,1.047,2.167H11.895z"/>
		<path d="M15.959,67.693c-1.016,0-1.711-0.951-1.728-2.671c0-1.751,0.76-2.702,1.815-2.702c1.087,0,1.719,0.976,1.719,2.631    c0,1.767-0.664,2.742-1.799,2.742H15.959z M15.999,67.149c0.712,0,1.056-0.839,1.056-2.167c0-1.279-0.32-2.118-1.056-2.118    c-0.64,0-1.055,0.815-1.055,2.118c-0.016,1.352,0.4,2.167,1.047,2.167H15.999z"/>
		<path d="M3.518,80.915v0.479H0v-0.479H3.518z"/>
		<path d="M6.095,83.273c-1.015,0-1.711-0.951-1.727-2.671c0-1.751,0.759-2.702,1.815-2.702c1.087,0,1.719,0.976,1.719,2.631    c0,1.767-0.664,2.742-1.799,2.742H6.095z M6.135,82.729c0.712,0,1.056-0.839,1.056-2.167c0-1.279-0.32-2.118-1.056-2.118    c-0.64,0-1.055,0.815-1.055,2.118c-0.016,1.352,0.4,2.167,1.047,2.167H6.135z"/>
		<path d="M9.063,83.273c-0.271,0-0.464-0.216-0.464-0.504c0-0.287,0.2-0.504,0.48-0.504s0.472,0.208,0.472,0.504    c0,0.288-0.192,0.504-0.479,0.504H9.063z"/>
		<path d="M11.854,83.273c-1.015,0-1.711-0.951-1.727-2.671c0-1.751,0.759-2.702,1.815-2.702c1.087,0,1.719,0.976,1.719,2.631    c0,1.767-0.664,2.742-1.799,2.742H11.854z M11.895,82.729c0.712,0,1.056-0.839,1.056-2.167c0-1.279-0.32-2.118-1.056-2.118    c-0.64,0-1.055,0.815-1.055,2.118c-0.016,1.352,0.4,2.167,1.047,2.167H11.895z"/>
		<path d="M14.304,83.186v-0.432l0.552-0.536c1.327-1.263,1.935-1.935,1.935-2.718c0-0.528-0.248-1.016-1.023-1.016    c-0.472,0-0.863,0.239-1.103,0.439l-0.224-0.496c0.352-0.295,0.872-0.527,1.471-0.527c1.111,0,1.583,0.768,1.583,1.512    c0,0.959-0.696,1.734-1.791,2.79l-0.408,0.384v0.016h2.327v0.584H14.304z"/>
		<path d="M3.518,96.495v0.479H0v-0.479H3.518z"/>
		<path d="M6.095,98.854c-1.015,0-1.711-0.951-1.727-2.671c0-1.751,0.759-2.702,1.815-2.702c1.087,0,1.719,0.976,1.719,2.631    c0,1.767-0.664,2.742-1.799,2.742H6.095z M6.135,98.31c0.712,0,1.056-0.839,1.056-2.167c0-1.279-0.32-2.118-1.056-2.118    c-0.64,0-1.055,0.815-1.055,2.118c-0.016,1.352,0.4,2.167,1.047,2.167H6.135z"/>
		<path d="M9.063,98.854c-0.271,0-0.464-0.216-0.464-0.504c0-0.287,0.2-0.504,0.48-0.504s0.472,0.208,0.472,0.504    c0,0.288-0.192,0.504-0.479,0.504H9.063z"/>
		<path d="M11.854,98.854c-1.015,0-1.711-0.951-1.727-2.671c0-1.751,0.759-2.702,1.815-2.702c1.087,0,1.719,0.976,1.719,2.631    c0,1.767-0.664,2.742-1.799,2.742H11.854z M11.895,98.31c0.712,0,1.056-0.839,1.056-2.167c0-1.279-0.32-2.118-1.056-2.118    c-0.64,0-1.055,0.815-1.055,2.118c-0.016,1.352,0.4,2.167,1.047,2.167H11.895z"/>
		<path d="M16.479,98.766v-1.423h-2.415v-0.456l2.318-3.318h0.76v3.23h0.728v0.544h-0.728v1.423H16.479z M16.479,96.799v-1.735    c0-0.271,0.008-0.544,0.024-0.815h-0.024c-0.16,0.304-0.288,0.527-0.432,0.768l-1.271,1.768v0.016H16.479z"/>
		<path d="M3.518,112.074v0.479H0v-0.479H3.518z"/>
		<path d="M6.095,114.433c-1.015,0-1.711-0.951-1.727-2.671c0-1.751,0.759-2.702,1.815-2.702c1.087,0,1.719,0.976,1.719,2.631    c0,1.767-0.664,2.742-1.799,2.742H6.095z M6.135,113.889c0.712,0,1.056-0.839,1.056-2.166c0-1.279-0.32-2.119-1.056-2.119    c-0.64,0-1.055,0.815-1.055,2.119c-0.016,1.351,0.4,2.166,1.047,2.166H6.135z"/>
		<path d="M9.063,114.433c-0.271,0-0.464-0.216-0.464-0.504s0.2-0.504,0.48-0.504s0.472,0.208,0.472,0.504    c0,0.288-0.192,0.504-0.479,0.504H9.063z"/>
		<path d="M11.854,114.433c-1.015,0-1.711-0.951-1.727-2.671c0-1.751,0.759-2.702,1.815-2.702c1.087,0,1.719,0.976,1.719,2.631    c0,1.767-0.664,2.742-1.799,2.742H11.854z M11.895,113.889c0.712,0,1.056-0.839,1.056-2.166c0-1.279-0.32-2.119-1.056-2.119    c-0.64,0-1.055,0.815-1.055,2.119c-0.016,1.351,0.4,2.166,1.047,2.166H11.895z"/>
		<path d="M17.27,109.644c-0.144-0.008-0.328,0.008-0.528,0.04c-1.111,0.176-1.687,0.976-1.807,1.839h0.016    c0.248-0.336,0.688-0.607,1.264-0.607c0.919,0,1.567,0.671,1.567,1.679c0,0.959-0.647,1.839-1.735,1.839    c-1.104,0-1.831-0.863-1.831-2.215c0-1.023,0.36-1.831,0.879-2.343c0.432-0.424,1.007-0.688,1.663-0.768    c0.208-0.032,0.384-0.04,0.512-0.04V109.644z M16.062,113.889c0.6,0,1.008-0.504,1.008-1.247s-0.424-1.191-1.072-1.191    c-0.423,0-0.823,0.256-1.015,0.64c-0.04,0.08-0.072,0.176-0.072,0.304c0.008,0.855,0.408,1.495,1.144,1.495H16.062z"/>
		<path d="M3.838,127.654v0.479H0.32v-0.479H3.838z"/>
		<path d="M6.095,130.013c-1.015,0-1.711-0.951-1.727-2.671c0-1.751,0.759-2.702,1.815-2.702c1.087,0,1.719,0.976,1.719,2.631    c0,1.767-0.664,2.742-1.799,2.742H6.095z M6.135,129.469c0.712,0,1.056-0.839,1.056-2.166c0-1.279-0.32-2.119-1.056-2.119    c-0.64,0-1.055,0.815-1.055,2.119c-0.016,1.351,0.4,2.166,1.047,2.166H6.135z"/>
		<path d="M9.063,130.013c-0.271,0-0.464-0.216-0.464-0.504s0.2-0.504,0.48-0.504s0.472,0.208,0.472,0.504    c0,0.288-0.192,0.504-0.479,0.504H9.063z"/>
		<path d="M11.854,130.013c-1.015,0-1.711-0.951-1.727-2.671c0-1.751,0.759-2.702,1.815-2.702c1.087,0,1.719,0.976,1.719,2.631    c0,1.767-0.664,2.742-1.799,2.742H11.854z M11.895,129.469c0.712,0,1.056-0.839,1.056-2.166c0-1.279-0.32-2.119-1.056-2.119    c-0.64,0-1.055,0.815-1.055,2.119c-0.016,1.351,0.4,2.166,1.047,2.166H11.895z"/>
		<path d="M16.047,124.64c1.007,0,1.519,0.624,1.519,1.279c0,0.439-0.224,0.92-0.864,1.216v0.023    c0.648,0.256,1.048,0.72,1.048,1.344c0,0.911-0.776,1.511-1.767,1.511c-1.087,0-1.743-0.64-1.743-1.399    c0-0.655,0.392-1.127,1.023-1.399v-0.023c-0.583-0.272-0.832-0.72-0.832-1.167c0-0.824,0.695-1.384,1.607-1.384H16.047z     M15.999,129.501c0.632,0,1.04-0.392,1.04-0.928c0-0.623-0.439-0.936-1.144-1.135c-0.607,0.176-0.935,0.583-0.935,1.079    c-0.024,0.52,0.375,0.983,1.031,0.983H15.999z M16.007,125.144c-0.584,0-0.904,0.384-0.904,0.831    c-0.008,0.521,0.392,0.8,0.992,0.96c0.448-0.152,0.792-0.472,0.792-0.943c0-0.416-0.248-0.848-0.872-0.848H16.007z"/>
	</g>
	<g>
		<path d="M61.716,137.952v-5.389h0.768l1.719,2.727c0.392,0.631,0.711,1.199,0.959,1.751l0.024-0.009    c-0.064-0.719-0.08-1.375-0.08-2.206v-2.263h0.655v5.389h-0.704l-1.711-2.734c-0.376-0.6-0.736-1.216-1-1.799l-0.024,0.008    c0.04,0.68,0.048,1.327,0.048,2.223v2.303H61.716z"/>
		<path d="M68.531,138.04c-1.04,0-1.855-0.768-1.855-1.991c0-1.295,0.855-2.055,1.919-2.055c1.111,0,1.863,0.808,1.863,1.983    c0,1.438-1,2.062-1.919,2.062H68.531z M68.563,137.513c0.671,0,1.175-0.632,1.175-1.512c0-0.655-0.328-1.479-1.159-1.479    c-0.824,0-1.184,0.768-1.184,1.503c0,0.848,0.479,1.487,1.159,1.487H68.563z"/>
		<path d="M75.802,137.809c-0.184,0.088-0.592,0.224-1.111,0.224c-1.167,0-1.927-0.792-1.927-1.975c0-1.191,0.815-2.063,2.079-2.063    c0.416,0,0.783,0.104,0.976,0.208l-0.16,0.536c-0.168-0.088-0.432-0.185-0.815-0.185c-0.888,0-1.367,0.664-1.367,1.464    c0,0.896,0.576,1.447,1.343,1.447c0.399,0,0.664-0.097,0.863-0.185L75.802,137.809z"/>
		<path d="M78.155,138.04c-1.04,0-1.855-0.768-1.855-1.991c0-1.295,0.855-2.055,1.919-2.055c1.111,0,1.863,0.808,1.863,1.983    c0,1.438-1,2.062-1.919,2.062H78.155z M78.187,137.513c0.671,0,1.175-0.632,1.175-1.512c0-0.655-0.328-1.479-1.159-1.479    c-0.824,0-1.184,0.768-1.184,1.503c0,0.848,0.479,1.487,1.159,1.487H78.187z"/>
		<path d="M80.972,132.275h0.704v5.677h-0.704V132.275z"/>
		<path d="M82.86,132.275h0.704v5.677H82.86V132.275z"/>
		<path d="M85.147,136.146c0.016,0.943,0.616,1.335,1.319,1.335c0.504,0,0.815-0.088,1.071-0.2l0.128,0.504    c-0.248,0.112-0.68,0.248-1.295,0.248c-1.184,0-1.903-0.792-1.903-1.951c0-1.167,0.696-2.087,1.823-2.087    c1.263,0,1.591,1.111,1.591,1.823c0,0.144-0.008,0.248-0.024,0.328H85.147z M87.202,135.642c0.008-0.448-0.184-1.144-0.967-1.144    c-0.72,0-1.023,0.655-1.08,1.144H87.202z"/>
		<path d="M92.066,137.385c0,0.896-0.184,1.431-0.552,1.774c-0.384,0.344-0.928,0.464-1.416,0.464c-0.463,0-0.975-0.111-1.287-0.319    l0.176-0.544c0.256,0.168,0.656,0.312,1.136,0.312c0.719,0,1.247-0.376,1.247-1.359v-0.424h-0.016    c-0.208,0.36-0.631,0.648-1.231,0.648c-0.96,0-1.647-0.816-1.647-1.896c0-1.312,0.855-2.047,1.751-2.047    c0.672,0,1.032,0.344,1.208,0.672h0.016l0.024-0.584h0.624c-0.024,0.272-0.032,0.592-0.032,1.056V137.385z M91.362,135.602    c0-0.112-0.008-0.216-0.04-0.312c-0.128-0.416-0.464-0.752-0.983-0.752c-0.672,0-1.151,0.567-1.151,1.471    c0,0.752,0.392,1.392,1.143,1.392c0.44,0,0.832-0.271,0.976-0.728c0.04-0.112,0.056-0.248,0.056-0.376V135.602z"/>
		<path d="M93.627,136.146c0.016,0.943,0.616,1.335,1.319,1.335c0.504,0,0.815-0.088,1.071-0.2l0.128,0.504    c-0.248,0.112-0.68,0.248-1.295,0.248c-1.183,0-1.903-0.792-1.903-1.951c0-1.167,0.696-2.087,1.823-2.087    c1.263,0,1.591,1.111,1.591,1.823c0,0.144-0.008,0.248-0.024,0.328H93.627z M95.683,135.642c0.008-0.448-0.184-1.144-0.968-1.144    c-0.72,0-1.023,0.655-1.079,1.144H95.683z"/>
	</g>
	<g>
		<path d="M160.399,137.776c-0.248,0.128-0.768,0.256-1.424,0.256c-1.52,0-2.654-0.96-2.654-2.727c0-1.688,1.143-2.822,2.814-2.822    c0.664,0,1.096,0.144,1.279,0.231l-0.176,0.576c-0.256-0.128-0.632-0.225-1.08-0.225c-1.264,0-2.103,0.808-2.103,2.215    c0,1.319,0.76,2.159,2.063,2.159c0.432,0,0.863-0.088,1.143-0.224L160.399,137.776z"/>
		<path d="M162.743,138.04c-1.039,0-1.854-0.768-1.854-1.991c0-1.295,0.855-2.055,1.919-2.055c1.111,0,1.863,0.808,1.863,1.983    c0,1.438-1,2.062-1.919,2.062H162.743z M162.776,137.513c0.671,0,1.175-0.632,1.175-1.512c0-0.655-0.328-1.479-1.159-1.479    c-0.824,0-1.184,0.768-1.184,1.503c0,0.848,0.479,1.487,1.159,1.487H162.776z"/>
		<path d="M165.561,132.275h0.704v5.677h-0.704V132.275z"/>
		<path d="M167.448,132.275h0.704v5.677h-0.704V132.275z"/>
		<path d="M169.736,136.146c0.017,0.943,0.616,1.335,1.319,1.335c0.504,0,0.815-0.088,1.071-0.2l0.128,0.504    c-0.248,0.112-0.68,0.248-1.295,0.248c-1.184,0-1.903-0.792-1.903-1.951c0-1.167,0.696-2.087,1.823-2.087    c1.264,0,1.591,1.111,1.591,1.823c0,0.144-0.008,0.248-0.024,0.328H169.736z M171.791,135.642    c0.009-0.448-0.184-1.144-0.968-1.144c-0.719,0-1.023,0.655-1.079,1.144H171.791z"/>
		<path d="M176.655,137.385c0,0.896-0.185,1.431-0.553,1.774c-0.383,0.344-0.928,0.464-1.415,0.464    c-0.464,0-0.976-0.111-1.287-0.319l0.176-0.544c0.256,0.168,0.655,0.312,1.136,0.312c0.719,0,1.247-0.376,1.247-1.359v-0.424    h-0.017c-0.207,0.36-0.631,0.648-1.23,0.648c-0.96,0-1.647-0.816-1.647-1.896c0-1.312,0.855-2.047,1.751-2.047    c0.672,0,1.031,0.344,1.207,0.672h0.017l0.024-0.584h0.623c-0.023,0.272-0.031,0.592-0.031,1.056V137.385z M175.951,135.602    c0-0.112-0.009-0.216-0.04-0.312c-0.128-0.416-0.464-0.752-0.983-0.752c-0.672,0-1.151,0.567-1.151,1.471    c0,0.752,0.392,1.392,1.143,1.392c0.44,0,0.832-0.271,0.977-0.728c0.039-0.112,0.056-0.248,0.056-0.376V135.602z"/>
		<path d="M178.216,136.146c0.017,0.943,0.616,1.335,1.32,1.335c0.504,0,0.814-0.088,1.07-0.2l0.129,0.504    c-0.248,0.112-0.68,0.248-1.296,0.248c-1.183,0-1.903-0.792-1.903-1.951c0-1.167,0.696-2.087,1.824-2.087    c1.263,0,1.59,1.111,1.59,1.823c0,0.144-0.008,0.248-0.023,0.328H178.216z M180.271,135.642c0.008-0.448-0.185-1.144-0.968-1.144    c-0.72,0-1.023,0.655-1.079,1.144H180.271z"/>
		<path d="M183.92,136.146c0.017,0.943,0.616,1.335,1.319,1.335c0.504,0,0.815-0.088,1.071-0.2l0.128,0.504    c-0.248,0.112-0.68,0.248-1.295,0.248c-1.184,0-1.903-0.792-1.903-1.951c0-1.167,0.696-2.087,1.823-2.087    c1.264,0,1.591,1.111,1.591,1.823c0,0.144-0.008,0.248-0.024,0.328H183.92z M185.975,135.642c0.009-0.448-0.184-1.144-0.968-1.144    c-0.719,0-1.023,0.655-1.079,1.144H185.975z"/>
		<path d="M190.87,132.275v4.678c0,0.344,0.009,0.735,0.033,0.999h-0.633l-0.031-0.672h-0.016c-0.217,0.432-0.68,0.76-1.312,0.76    c-0.936,0-1.662-0.791-1.662-1.967c-0.008-1.295,0.799-2.079,1.734-2.079c0.6,0,1,0.28,1.168,0.584h0.016v-2.303H190.87z     M190.167,135.657c0-0.096-0.008-0.208-0.031-0.304c-0.104-0.439-0.488-0.808-1.016-0.808c-0.729,0-1.16,0.64-1.16,1.487    c0,0.792,0.393,1.439,1.144,1.439c0.472,0,0.903-0.32,1.032-0.848c0.023-0.088,0.031-0.184,0.031-0.296V135.657z"/>
		<path d="M195.278,136.889c0,0.408,0.008,0.76,0.032,1.063h-0.624l-0.039-0.632h-0.017c-0.176,0.312-0.592,0.72-1.279,0.72    c-0.608,0-1.335-0.344-1.335-1.695v-2.263h0.703v2.135c0,0.736,0.232,1.239,0.863,1.239c0.473,0,0.8-0.327,0.928-0.647    c0.04-0.096,0.064-0.224,0.064-0.359v-2.367h0.703V136.889z"/>
		<path d="M199.207,137.809c-0.185,0.088-0.592,0.224-1.111,0.224c-1.167,0-1.927-0.792-1.927-1.975    c0-1.191,0.815-2.063,2.078-2.063c0.416,0,0.784,0.104,0.976,0.208l-0.159,0.536c-0.168-0.088-0.432-0.185-0.816-0.185    c-0.887,0-1.367,0.664-1.367,1.464c0,0.896,0.576,1.447,1.344,1.447c0.399,0,0.664-0.097,0.863-0.185L199.207,137.809z"/>
		<path d="M202.759,137.024c0,0.336,0.016,0.664,0.057,0.928h-0.633l-0.063-0.487h-0.024c-0.207,0.304-0.631,0.575-1.183,0.575    c-0.784,0-1.184-0.552-1.184-1.111c0-0.936,0.831-1.447,2.327-1.439v-0.08c0-0.319-0.088-0.903-0.88-0.896    c-0.368,0-0.743,0.104-1.016,0.288l-0.159-0.472c0.319-0.2,0.791-0.336,1.279-0.336c1.191,0,1.479,0.808,1.479,1.583V137.024z     M202.071,135.978c-0.768-0.017-1.639,0.119-1.639,0.871c0,0.464,0.303,0.672,0.655,0.672c0.512,0,0.839-0.32,0.951-0.647    c0.024-0.072,0.032-0.152,0.032-0.225V135.978z"/>
		<path d="M204.704,133.155v0.927h1.007v0.536h-1.007v2.079c0,0.479,0.136,0.751,0.527,0.751c0.191,0,0.304-0.016,0.408-0.048    l0.031,0.536c-0.136,0.048-0.352,0.096-0.623,0.096c-0.328,0-0.592-0.112-0.76-0.296c-0.191-0.216-0.271-0.56-0.271-1.016v-2.103    h-0.6v-0.536h0.6v-0.711L204.704,133.155z"/>
		<path d="M206.856,136.146c0.016,0.943,0.615,1.335,1.318,1.335c0.504,0,0.816-0.088,1.072-0.2l0.127,0.504    c-0.247,0.112-0.68,0.248-1.295,0.248c-1.184,0-1.902-0.792-1.902-1.951c0-1.167,0.695-2.087,1.822-2.087    c1.264,0,1.592,1.111,1.592,1.823c0,0.144-0.008,0.248-0.024,0.328H206.856z M208.911,135.642    c0.008-0.448-0.184-1.144-0.968-1.144c-0.72,0-1.023,0.655-1.079,1.144H208.911z"/>
		<path d="M213.806,132.275v4.678c0,0.344,0.009,0.735,0.033,0.999h-0.633l-0.031-0.672h-0.016c-0.217,0.432-0.68,0.76-1.312,0.76    c-0.936,0-1.662-0.791-1.662-1.967c-0.008-1.295,0.799-2.079,1.734-2.079c0.6,0,1,0.28,1.168,0.584h0.016v-2.303H213.806z     M213.103,135.657c0-0.096-0.008-0.208-0.031-0.304c-0.104-0.439-0.488-0.808-1.016-0.808c-0.729,0-1.16,0.64-1.16,1.487    c0,0.792,0.393,1.439,1.144,1.439c0.472,0,0.903-0.32,1.032-0.848c0.023-0.088,0.031-0.184,0.031-0.296V135.657z"/>
	</g>
	
		<line opacity="0.9098" fill="none" stroke="#000000" stroke-width="0.5" stroke-linejoin="round" stroke-miterlimit="10" x1="98.278" y1="92.68" x2="92.707" y2="92.68"/>
	
		<line opacity="0.9098" fill="none" stroke="#000000" stroke-width="0.5" stroke-linejoin="round" stroke-miterlimit="10" x1="98.278" y1="119.014" x2="92.707" y2="119.014"/>
	
		<line opacity="0.9098" fill="none" stroke="#000000" stroke-width="0.5" stroke-linejoin="round" stroke-miterlimit="10" x1="95.567" y1="119.014" x2="95.567" y2="92.68"/>
	
		<line fill="none" stroke="#000000" stroke-width="0.5" stroke-linejoin="round" stroke-miterlimit="10" x1="65.02" y1="19.347" x2="59.397" y2="19.347"/>
	
		<line fill="none" stroke="#000000" stroke-width="0.5" stroke-linejoin="round" stroke-miterlimit="10" x1="65.02" y1="45.68" x2="59.397" y2="45.68"/>
	
		<line fill="none" stroke="#000000" stroke-width="0.5" stroke-linejoin="round" stroke-miterlimit="10" x1="62.308" y1="45.68" x2="62.308" y2="19.347"/>
	
		<line fill="none" stroke="#000000" stroke-width="0.5" stroke-linejoin="round" stroke-miterlimit="10" x1="171.79" y1="24.347" x2="166.168" y2="24.347"/>
	
		<line fill="none" stroke="#000000" stroke-width="0.5" stroke-linejoin="round" stroke-miterlimit="10" x1="171.79" y1="50.347" x2="166.168" y2="50.347"/>
	
		<line fill="none" stroke="#000000" stroke-width="0.5" stroke-linejoin="round" stroke-miterlimit="10" x1="169.079" y1="50.347" x2="169.079" y2="24.347"/>
	
		<line fill="none" stroke="#000000" stroke-width="0.5" stroke-linejoin="round" stroke-miterlimit="10" x1="205.273" y1="35.68" x2="199.651" y2="35.68"/>
	
		<line fill="none" stroke="#000000" stroke-width="0.5" stroke-linejoin="round" stroke-miterlimit="10" x1="205.273" y1="61.347" x2="199.651" y2="61.347"/>
	
		<line fill="none" stroke="#000000" stroke-width="0.5" stroke-linejoin="round" stroke-miterlimit="10" x1="202.562" y1="61.347" x2="202.562" y2="35.68"/>
	
		<line fill="none" stroke="#000000" stroke-width="0.5" stroke-linejoin="round" stroke-miterlimit="10" x1="23.23" y1="126.616" x2="23.23" y2="2.026"/>
	
		<line fill="none" stroke="#000000" stroke-width="0.5" stroke-linejoin="round" stroke-miterlimit="10" x1="23.23" y1="64.236" x2="235.544" y2="64.236"/>
	
		<line fill="none" stroke="#000000" stroke-width="0.5" stroke-linejoin="round" stroke-miterlimit="10" x1="23.255" y1="1.96" x2="20.255" y2="1.96"/>
	
		<line fill="none" stroke="#000000" stroke-width="0.5" stroke-linejoin="round" stroke-miterlimit="10" x1="23.255" y1="17.542" x2="20.255" y2="17.542"/>
	
		<line fill="none" stroke="#000000" stroke-width="0.5" stroke-linejoin="round" stroke-miterlimit="10" x1="23.255" y1="33.124" x2="20.255" y2="33.124"/>
	
		<line fill="none" stroke="#000000" stroke-width="0.5" stroke-linejoin="round" stroke-miterlimit="10" x1="23.255" y1="48.706" x2="20.255" y2="48.706"/>
	
		<line fill="none" stroke="#000000" stroke-width="0.5" stroke-linejoin="round" stroke-miterlimit="10" x1="23.255" y1="64.288" x2="20.255" y2="64.288"/>
	
		<line fill="none" stroke="#000000" stroke-width="0.5" stroke-linejoin="round" stroke-miterlimit="10" x1="23.255" y1="79.87" x2="20.255" y2="79.87"/>
	
		<line fill="none" stroke="#000000" stroke-width="0.5" stroke-linejoin="round" stroke-miterlimit="10" x1="23.255" y1="111.034" x2="20.255" y2="111.034"/>
	
		<line fill="none" stroke="#000000" stroke-width="0.5" stroke-linejoin="round" stroke-miterlimit="10" x1="23.255" y1="95.452" x2="20.255" y2="95.452"/>
	
		<line fill="none" stroke="#000000" stroke-width="0.5" stroke-linejoin="round" stroke-miterlimit="10" x1="23.255" y1="126.616" x2="20.255" y2="126.616"/>
	
		<line fill="none" stroke="#A7A9AC" stroke-width="0.5" stroke-linejoin="round" stroke-miterlimit="10" x1="23.255" y1="126.616" x2="235.544" y2="126.616"/>
</g>
</svg>