<svg xmlns="http://www.w3.org/2000/svg" xmlns:xlink="http://www.w3.org/1999/xlink" version="1.1" x="0px" y="0px" width="308.978px" height="130.273px" viewBox="0 0 308.978 130.273" enable-background="new 0 0 308.978 130.273" xml:space="preserve">
<g id="wide" display="none">
</g>
<g id="text_column">
</g>
<g id="art">
	<g>
		<path d="M2.415,5.285V3.862H0V3.406l2.318-3.318h0.76v3.23h0.728v0.544H3.078v1.423H2.415z M2.415,3.318V1.583    c0-0.271,0.008-0.544,0.024-0.815H2.415c-0.16,0.304-0.288,0.527-0.432,0.768L0.711,3.303v0.016H2.415z"/>
		<path d="M4.863,5.373C4.591,5.373,4.4,5.157,4.4,4.869c0-0.287,0.2-0.504,0.479-0.504s0.472,0.208,0.472,0.504    c0,0.288-0.192,0.504-0.479,0.504H4.863z"/>
		<path d="M7.655,5.373c-1.016,0-1.711-0.951-1.728-2.671C5.927,0.951,6.687,0,7.743,0C8.83,0,9.461,0.976,9.461,2.631    c0,1.767-0.664,2.742-1.799,2.742H7.655z M7.694,4.829c0.712,0,1.056-0.839,1.056-2.167c0-1.279-0.32-2.118-1.056-2.118    c-0.64,0-1.055,0.815-1.055,2.118c-0.016,1.352,0.4,2.167,1.047,2.167H7.694z"/>
		<path d="M0.408,19.485c0.2,0.12,0.655,0.32,1.151,0.32c0.896,0,1.183-0.568,1.175-1.008c-0.008-0.728-0.664-1.039-1.343-1.039H1    V17.23h0.392c0.512,0,1.159-0.264,1.159-0.879c0-0.416-0.264-0.784-0.911-0.784c-0.416,0-0.816,0.185-1.04,0.344l-0.192-0.512    C0.688,15.2,1.215,15,1.775,15c1.023,0,1.487,0.607,1.487,1.239c0,0.544-0.328,1-0.959,1.231v0.016    c0.64,0.12,1.159,0.6,1.159,1.328c0,0.831-0.656,1.559-1.895,1.559c-0.583,0-1.095-0.184-1.351-0.352L0.408,19.485z"/>
		<path d="M4.863,20.373c-0.272,0-0.463-0.216-0.463-0.504c0-0.287,0.2-0.504,0.479-0.504s0.472,0.208,0.472,0.504    c0,0.288-0.192,0.504-0.479,0.504H4.863z"/>
		<path d="M9.102,15.68H7.119l-0.2,1.335c0.12-0.016,0.232-0.031,0.424-0.031c0.408,0,0.799,0.088,1.119,0.279    c0.408,0.224,0.744,0.68,0.744,1.335c0,1.016-0.808,1.775-1.935,1.775c-0.568,0-1.04-0.16-1.295-0.319l0.176-0.536    c0.216,0.128,0.64,0.288,1.12,0.288c0.655,0,1.231-0.432,1.223-1.136c0-0.663-0.456-1.144-1.487-1.144    c-0.304,0-0.536,0.024-0.728,0.057l0.336-2.495h2.486V15.68z"/>
		<path d="M0.408,34.485c0.2,0.12,0.655,0.32,1.151,0.32c0.896,0,1.183-0.568,1.175-1.008c-0.008-0.728-0.664-1.039-1.343-1.039H1    V32.23h0.392c0.512,0,1.159-0.264,1.159-0.879c0-0.416-0.264-0.784-0.911-0.784c-0.416,0-0.816,0.185-1.04,0.344l-0.192-0.512    C0.688,30.2,1.215,30,1.775,30c1.023,0,1.487,0.607,1.487,1.239c0,0.544-0.328,1-0.959,1.231v0.016    c0.64,0.12,1.159,0.6,1.159,1.328c0,0.831-0.656,1.559-1.895,1.559c-0.583,0-1.095-0.184-1.351-0.352L0.408,34.485z"/>
		<path d="M4.863,35.373c-0.272,0-0.463-0.216-0.463-0.504c0-0.287,0.2-0.504,0.479-0.504s0.472,0.208,0.472,0.504    c0,0.288-0.192,0.504-0.479,0.504H4.863z"/>
		<path d="M7.655,35.373c-1.016,0-1.711-0.951-1.728-2.671c0-1.751,0.76-2.702,1.815-2.702c1.087,0,1.719,0.976,1.719,2.631    c0,1.767-0.664,2.742-1.799,2.742H7.655z M7.694,34.829c0.712,0,1.056-0.839,1.056-2.167c0-1.279-0.32-2.118-1.056-2.118    c-0.64,0-1.055,0.815-1.055,2.118c-0.016,1.352,0.4,2.167,1.047,2.167H7.694z"/>
		<path d="M0.24,50.285v-0.432l0.552-0.536c1.327-1.263,1.935-1.935,1.935-2.718c0-0.528-0.248-1.016-1.023-1.016    c-0.472,0-0.863,0.239-1.103,0.439l-0.224-0.496C0.728,45.232,1.247,45,1.847,45c1.111,0,1.583,0.768,1.583,1.512    c0,0.959-0.696,1.734-1.791,2.79l-0.408,0.384v0.016h2.327v0.584H0.24z"/>
		<path d="M4.863,50.373c-0.272,0-0.463-0.216-0.463-0.504c0-0.287,0.2-0.504,0.479-0.504s0.472,0.208,0.472,0.504    c0,0.288-0.192,0.504-0.479,0.504H4.863z"/>
		<path d="M9.102,45.68H7.119l-0.2,1.335c0.12-0.016,0.232-0.031,0.424-0.031c0.408,0,0.799,0.088,1.119,0.279    c0.408,0.224,0.744,0.68,0.744,1.335c0,1.016-0.808,1.775-1.935,1.775c-0.568,0-1.04-0.16-1.295-0.319l0.176-0.536    c0.216,0.128,0.64,0.288,1.12,0.288c0.655,0,1.231-0.432,1.223-1.136c0-0.663-0.456-1.144-1.487-1.144    c-0.304,0-0.536,0.024-0.728,0.057l0.336-2.495h2.486V45.68z"/>
		<path d="M0.24,65.285v-0.432l0.552-0.536c1.327-1.263,1.935-1.935,1.935-2.718c0-0.528-0.248-1.016-1.023-1.016    c-0.472,0-0.863,0.239-1.103,0.439l-0.224-0.496C0.728,60.232,1.247,60,1.847,60c1.111,0,1.583,0.768,1.583,1.512    c0,0.959-0.696,1.734-1.791,2.79l-0.408,0.384v0.016h2.327v0.584H0.24z"/>
		<path d="M4.863,65.373c-0.272,0-0.463-0.216-0.463-0.504c0-0.287,0.2-0.504,0.479-0.504s0.472,0.208,0.472,0.504    c0,0.288-0.192,0.504-0.479,0.504H4.863z"/>
		<path d="M7.655,65.373c-1.016,0-1.711-0.951-1.728-2.671c0-1.751,0.76-2.702,1.815-2.702c1.087,0,1.719,0.976,1.719,2.631    c0,1.767-0.664,2.742-1.799,2.742H7.655z M7.694,64.829c0.712,0,1.056-0.839,1.056-2.167c0-1.279-0.32-2.118-1.056-2.118    c-0.64,0-1.055,0.815-1.055,2.118c-0.016,1.352,0.4,2.167,1.047,2.167H7.694z"/>
		<path d="M1.767,75.744H1.751l-0.904,0.487l-0.136-0.536l1.135-0.607h0.6v5.197H1.767V75.744z"/>
		<path d="M4.863,80.373c-0.272,0-0.463-0.216-0.463-0.504c0-0.287,0.2-0.504,0.479-0.504s0.472,0.208,0.472,0.504    c0,0.288-0.192,0.504-0.479,0.504H4.863z"/>
		<path d="M9.102,75.68H7.119l-0.2,1.335c0.12-0.016,0.232-0.031,0.424-0.031c0.408,0,0.799,0.088,1.119,0.279    c0.408,0.224,0.744,0.68,0.744,1.335c0,1.016-0.808,1.775-1.935,1.775c-0.568,0-1.04-0.16-1.295-0.319l0.176-0.536    c0.216,0.128,0.64,0.288,1.12,0.288c0.655,0,1.231-0.432,1.223-1.136c0-0.663-0.456-1.144-1.487-1.144    c-0.304,0-0.536,0.024-0.728,0.057l0.336-2.495h2.486V75.68z"/>
		<path d="M1.767,90.744H1.751l-0.904,0.487l-0.136-0.536l1.135-0.607h0.6v5.197H1.767V90.744z"/>
		<path d="M4.863,95.373c-0.272,0-0.463-0.216-0.463-0.504c0-0.287,0.2-0.504,0.479-0.504s0.472,0.208,0.472,0.504    c0,0.288-0.192,0.504-0.479,0.504H4.863z"/>
		<path d="M7.655,95.373c-1.016,0-1.711-0.951-1.728-2.671c0-1.751,0.76-2.702,1.815-2.702c1.087,0,1.719,0.976,1.719,2.631    c0,1.767-0.664,2.742-1.799,2.742H7.655z M7.694,94.829c0.712,0,1.056-0.839,1.056-2.167c0-1.279-0.32-2.118-1.056-2.118    c-0.64,0-1.055,0.815-1.055,2.118c-0.016,1.352,0.4,2.167,1.047,2.167H7.694z"/>
	</g>
	<g>
		<path d="M27.05,102.228v-5.389h0.768l1.719,2.727c0.392,0.631,0.712,1.199,0.959,1.751l0.024-0.009    c-0.064-0.719-0.08-1.375-0.08-2.206v-2.263h0.656v5.389h-0.704l-1.711-2.734c-0.376-0.6-0.735-1.216-1-1.799l-0.024,0.008    c0.04,0.68,0.048,1.327,0.048,2.223v2.303H27.05z"/>
		<path d="M33.865,102.316c-1.04,0-1.855-0.768-1.855-1.991c0-1.295,0.855-2.055,1.919-2.055c1.111,0,1.863,0.808,1.863,1.983    c0,1.438-1,2.062-1.919,2.062H33.865z M33.897,101.789c0.671,0,1.175-0.632,1.175-1.512c0-0.655-0.328-1.479-1.159-1.479    c-0.824,0-1.184,0.768-1.184,1.503c0,0.848,0.479,1.487,1.159,1.487H33.897z"/>
		<path d="M36.681,99.406c0-0.408-0.008-0.728-0.032-1.048h0.624l0.04,0.632h0.016c0.192-0.359,0.64-0.72,1.279-0.72    c0.536,0,1.367,0.32,1.367,1.647v2.311h-0.704v-2.23c0-0.624-0.232-1.151-0.896-1.151c-0.456,0-0.815,0.327-0.943,0.72    c-0.032,0.088-0.048,0.216-0.048,0.327v2.335h-0.704V99.406z"/>
		<path d="M41.297,98.358l0.52,1.959c0.104,0.432,0.208,0.84,0.28,1.239h0.024c0.088-0.392,0.216-0.808,0.344-1.231l0.632-1.967    h0.592l0.6,1.936c0.144,0.455,0.256,0.871,0.344,1.263h0.024c0.064-0.392,0.168-0.799,0.296-1.255l0.552-1.943h0.695l-1.247,3.87    h-0.64l-0.592-1.847c-0.136-0.44-0.248-0.824-0.344-1.279H43.36c-0.096,0.464-0.216,0.871-0.352,1.287l-0.624,1.839h-0.64    l-1.167-3.87H41.297z"/>
		<path d="M46.905,96.551h0.704v2.415h0.016c0.112-0.2,0.288-0.385,0.504-0.496c0.208-0.128,0.456-0.2,0.72-0.2    c0.52,0,1.351,0.32,1.351,1.655v2.303h-0.704v-2.23c0-0.624-0.232-1.144-0.896-1.144c-0.456,0-0.808,0.319-0.943,0.703    c-0.04,0.097-0.048,0.2-0.048,0.336v2.335h-0.704V96.551z"/>
		<path d="M51.681,97.703c-0.256,0-0.424-0.2-0.424-0.432c0-0.248,0.176-0.44,0.44-0.44c0.256,0,0.432,0.192,0.432,0.44    c0,0.231-0.168,0.432-0.439,0.432H51.681z M51.345,102.228v-3.87h0.704v3.87H51.345z"/>
		<path d="M54.065,97.431v0.927h1.007v0.536h-1.007v2.079c0,0.479,0.136,0.751,0.528,0.751c0.192,0,0.304-0.016,0.408-0.048    l0.032,0.536c-0.136,0.048-0.352,0.096-0.624,0.096c-0.328,0-0.591-0.112-0.759-0.296c-0.192-0.216-0.272-0.56-0.272-1.016v-2.103    h-0.6v-0.536h0.6v-0.711L54.065,97.431z"/>
		<path d="M56.217,100.421c0.016,0.943,0.616,1.335,1.319,1.335c0.504,0,0.815-0.088,1.071-0.2l0.128,0.504    c-0.248,0.112-0.68,0.248-1.295,0.248c-1.184,0-1.903-0.792-1.903-1.951c0-1.167,0.696-2.087,1.823-2.087    c1.263,0,1.591,1.111,1.591,1.823c0,0.144-0.008,0.248-0.024,0.328H56.217z M58.271,99.917c0.008-0.448-0.184-1.144-0.967-1.144    c-0.72,0-1.023,0.655-1.08,1.144H58.271z"/>
	</g>
	<g>
		<path d="M101.405,102.228l-1.367-5.389h0.735l0.64,2.727c0.16,0.68,0.304,1.343,0.4,1.862h0.016    c0.088-0.535,0.256-1.175,0.439-1.871l0.72-2.718h0.728l0.656,2.734c0.152,0.647,0.296,1.279,0.376,1.847h0.016    c0.112-0.592,0.264-1.191,0.432-1.863l0.712-2.718h0.711l-1.527,5.389h-0.728l-0.68-2.799c-0.168-0.695-0.28-1.223-0.352-1.767    h-0.016c-0.088,0.544-0.216,1.063-0.416,1.759l-0.768,2.807H101.405z"/>
		<path d="M107.229,96.551h0.704v2.415h0.016c0.112-0.2,0.288-0.385,0.504-0.496c0.208-0.128,0.456-0.2,0.719-0.2    c0.52,0,1.352,0.32,1.352,1.655v2.303h-0.704v-2.23c0-0.624-0.232-1.144-0.896-1.144c-0.456,0-0.808,0.319-0.943,0.703    c-0.04,0.097-0.048,0.2-0.048,0.336v2.335h-0.704V96.551z"/>
		<path d="M112.005,97.703c-0.256,0-0.424-0.2-0.424-0.432c0-0.248,0.176-0.44,0.44-0.44c0.256,0,0.432,0.192,0.432,0.44    c0,0.231-0.168,0.432-0.44,0.432H112.005z M111.669,102.228v-3.87h0.704v3.87H111.669z"/>
		<path d="M114.389,97.431v0.927h1.007v0.536h-1.007v2.079c0,0.479,0.136,0.751,0.528,0.751c0.192,0,0.304-0.016,0.408-0.048    l0.032,0.536c-0.136,0.048-0.352,0.096-0.624,0.096c-0.328,0-0.592-0.112-0.759-0.296c-0.192-0.216-0.272-0.56-0.272-1.016v-2.103    h-0.6v-0.536h0.6v-0.711L114.389,97.431z"/>
		<path d="M116.541,100.421c0.016,0.943,0.616,1.335,1.319,1.335c0.504,0,0.815-0.088,1.071-0.2l0.128,0.504    c-0.248,0.112-0.68,0.248-1.295,0.248c-1.184,0-1.903-0.792-1.903-1.951c0-1.167,0.696-2.087,1.823-2.087    c1.263,0,1.591,1.111,1.591,1.823c0,0.144-0.008,0.248-0.024,0.328H116.541z M118.596,99.917c0.008-0.448-0.184-1.144-0.967-1.144    c-0.72,0-1.023,0.655-1.08,1.144H118.596z"/>
	</g>
	
		<rect x="1.542" y="113.079" fill="#D1D3D4" stroke="#000000" stroke-width="0.5" stroke-linejoin="round" stroke-miterlimit="10" width="6" height="5.999"/>
	<g>
		<path d="M12.286,112.863v3.198c0,1.2,0.536,1.711,1.255,1.711c0.792,0,1.311-0.528,1.311-1.711v-3.198h0.704v3.15    c0,1.655-0.872,2.327-2.039,2.327c-1.104,0-1.935-0.624-1.935-2.303v-3.174H12.286z"/>
		<path d="M16.678,117.405c0.312,0.192,0.76,0.344,1.24,0.344c0.711,0,1.127-0.368,1.127-0.911c0-0.504-0.288-0.8-1.015-1.072    c-0.879-0.304-1.423-0.768-1.423-1.519c0-0.839,0.696-1.463,1.743-1.463c0.543,0,0.951,0.128,1.183,0.256l-0.192,0.575    c-0.168-0.104-0.527-0.256-1.015-0.256c-0.736,0-1.016,0.44-1.016,0.808c0,0.496,0.328,0.744,1.071,1.032    c0.912,0.36,1.367,0.792,1.367,1.583c0,0.824-0.607,1.551-1.879,1.551c-0.52,0-1.087-0.16-1.375-0.352L16.678,117.405z"/>
		<path d="M22.382,112.576h0.704v5.677h-0.704V112.576z"/>
		<path d="M25.845,118.34c-1.04,0-1.855-0.768-1.855-1.991c0-1.295,0.855-2.055,1.919-2.055c1.111,0,1.863,0.808,1.863,1.983    c0,1.439-1,2.063-1.919,2.063H25.845z M25.877,117.812c0.671,0,1.175-0.631,1.175-1.511c0-0.655-0.328-1.479-1.159-1.479    c-0.824,0-1.184,0.768-1.184,1.503c0,0.847,0.479,1.487,1.159,1.487H25.877z"/>
		<path d="M28.566,117.533c0.216,0.128,0.583,0.272,0.936,0.272c0.503,0,0.744-0.248,0.744-0.576c0-0.336-0.2-0.512-0.712-0.704    c-0.704-0.256-1.031-0.64-1.031-1.095c0-0.624,0.512-1.136,1.335-1.136c0.392,0,0.735,0.104,0.943,0.24l-0.168,0.503    c-0.152-0.088-0.432-0.224-0.792-0.224c-0.416,0-0.64,0.24-0.64,0.528c0,0.319,0.224,0.463,0.728,0.664    c0.664,0.248,1.015,0.583,1.015,1.159c0,0.688-0.536,1.167-1.439,1.167c-0.424,0-0.815-0.112-1.087-0.272L28.566,117.533z"/>
		<path d="M32.23,116.445c0.016,0.944,0.616,1.335,1.319,1.335c0.504,0,0.815-0.088,1.071-0.2l0.128,0.504    c-0.248,0.112-0.68,0.248-1.295,0.248c-1.183,0-1.903-0.792-1.903-1.951c0-1.167,0.696-2.087,1.823-2.087    c1.263,0,1.591,1.111,1.591,1.823c0,0.144-0.008,0.248-0.024,0.328H32.23z M34.285,115.942c0.008-0.448-0.184-1.144-0.968-1.144    c-0.72,0-1.023,0.656-1.079,1.144H34.285z"/>
		<path d="M35.742,117.533c0.216,0.128,0.583,0.272,0.936,0.272c0.503,0,0.744-0.248,0.744-0.576c0-0.336-0.2-0.512-0.712-0.704    c-0.704-0.256-1.031-0.64-1.031-1.095c0-0.624,0.512-1.136,1.335-1.136c0.392,0,0.735,0.104,0.943,0.24l-0.168,0.503    c-0.152-0.088-0.432-0.224-0.792-0.224c-0.416,0-0.64,0.24-0.64,0.528c0,0.319,0.224,0.463,0.728,0.664    c0.664,0.248,1.015,0.583,1.015,1.159c0,0.688-0.536,1.167-1.439,1.167c-0.424,0-0.815-0.112-1.087-0.272L35.742,117.533z"/>
		<path d="M39.75,119.388c0.328-0.024,0.6-0.112,0.768-0.296c0.192-0.216,0.272-0.527,0.272-1.455v-3.254h0.703v3.526    c0,0.751-0.12,1.239-0.463,1.591c-0.312,0.312-0.824,0.44-1.2,0.44L39.75,119.388z M41.125,113.727    c-0.256,0-0.424-0.2-0.424-0.432c0-0.248,0.176-0.44,0.44-0.44s0.432,0.192,0.432,0.44c0,0.231-0.16,0.432-0.439,0.432H41.125z"/>
		<path d="M44.221,118.34c-1.04,0-1.855-0.768-1.855-1.991c0-1.295,0.855-2.055,1.919-2.055c1.111,0,1.863,0.808,1.863,1.983    c0,1.439-1,2.063-1.919,2.063H44.221z M44.253,117.812c0.671,0,1.175-0.631,1.175-1.511c0-0.655-0.328-1.479-1.159-1.479    c-0.824,0-1.184,0.768-1.184,1.503c0,0.847,0.479,1.487,1.159,1.487H44.253z"/>
		<path d="M47.038,112.576h0.703v2.422h0.017c0.247-0.432,0.695-0.704,1.318-0.704c0.96,0,1.632,0.8,1.632,1.967    c0,1.391-0.88,2.079-1.743,2.079c-0.56,0-1-0.216-1.295-0.728h-0.017l-0.04,0.64h-0.607c0.023-0.264,0.032-0.656,0.032-1V112.576z     M47.741,116.701c0,0.088,0.008,0.176,0.024,0.256c0.136,0.488,0.552,0.824,1.055,0.824c0.744,0,1.176-0.6,1.176-1.487    c0-0.784-0.399-1.447-1.151-1.447c-0.479,0-0.928,0.336-1.063,0.864c-0.023,0.088-0.04,0.184-0.04,0.296V116.701z"/>
		<path d="M51.493,117.533c0.216,0.128,0.584,0.272,0.936,0.272c0.504,0,0.744-0.248,0.744-0.576c0-0.336-0.2-0.512-0.712-0.704    c-0.703-0.256-1.031-0.64-1.031-1.095c0-0.624,0.512-1.136,1.335-1.136c0.392,0,0.735,0.104,0.943,0.24l-0.168,0.503    c-0.151-0.088-0.432-0.224-0.791-0.224c-0.416,0-0.64,0.24-0.64,0.528c0,0.319,0.224,0.463,0.728,0.664    c0.663,0.248,1.016,0.583,1.016,1.159c0,0.688-0.536,1.167-1.439,1.167c-0.424,0-0.815-0.112-1.087-0.272L51.493,117.533z"/>
		<path d="M54.302,119.244c0.176-0.479,0.392-1.335,0.479-1.919l0.784-0.08c-0.192,0.68-0.544,1.567-0.768,1.943L54.302,119.244z"/>
		<path d="M58.958,113.455v0.927h1.007v0.536h-1.007v2.079c0,0.48,0.136,0.751,0.527,0.751c0.191,0,0.304-0.016,0.407-0.048    l0.032,0.536c-0.136,0.048-0.352,0.096-0.623,0.096c-0.328,0-0.592-0.112-0.76-0.296c-0.192-0.216-0.272-0.56-0.272-1.016v-2.103    h-0.6v-0.536h0.6v-0.711L58.958,113.455z"/>
		<path d="M60.758,115.59c0-0.456-0.008-0.848-0.032-1.208h0.615l0.032,0.76h0.024c0.176-0.52,0.607-0.848,1.079-0.848    c0.072,0,0.128,0.008,0.191,0.016v0.664c-0.071-0.008-0.144-0.016-0.239-0.016c-0.496,0-0.848,0.375-0.943,0.896    c-0.017,0.104-0.024,0.216-0.024,0.328v2.071h-0.703V115.59z"/>
		<path d="M66.101,117.325c0,0.336,0.016,0.664,0.056,0.928h-0.632l-0.063-0.488h-0.024c-0.208,0.304-0.632,0.576-1.184,0.576    c-0.783,0-1.183-0.552-1.183-1.111c0-0.936,0.831-1.447,2.326-1.439v-0.08c0-0.32-0.088-0.904-0.879-0.896    c-0.368,0-0.744,0.104-1.016,0.288l-0.16-0.472c0.319-0.2,0.791-0.336,1.279-0.336c1.191,0,1.479,0.808,1.479,1.583V117.325z     M65.412,116.277c-0.768-0.016-1.639,0.12-1.639,0.872c0,0.464,0.304,0.672,0.655,0.672c0.512,0,0.84-0.32,0.952-0.648    c0.023-0.072,0.031-0.152,0.031-0.224V116.277z"/>
		<path d="M70.571,112.576v4.677c0,0.344,0.008,0.736,0.032,1h-0.632l-0.032-0.672h-0.016c-0.216,0.432-0.68,0.76-1.312,0.76    c-0.936,0-1.663-0.792-1.663-1.967c-0.008-1.295,0.8-2.079,1.735-2.079c0.6,0,0.999,0.28,1.167,0.584h0.017v-2.303H70.571z     M69.868,115.958c0-0.096-0.009-0.208-0.032-0.304c-0.104-0.439-0.488-0.808-1.016-0.808c-0.728,0-1.159,0.64-1.159,1.487    c0,0.792,0.392,1.439,1.144,1.439c0.472,0,0.903-0.32,1.031-0.848c0.023-0.088,0.032-0.184,0.032-0.296V115.958z"/>
		<path d="M72.078,113.727c-0.256,0-0.424-0.2-0.424-0.432c0-0.248,0.176-0.44,0.439-0.44c0.256,0,0.432,0.192,0.432,0.44    c0,0.231-0.168,0.432-0.439,0.432H72.078z M71.742,118.252v-3.87h0.703v3.87H71.742z"/>
		<path d="M73.613,115.43c0-0.408-0.008-0.728-0.032-1.048h0.624l0.039,0.632h0.017c0.191-0.36,0.64-0.72,1.279-0.72    c0.535,0,1.367,0.32,1.367,1.647v2.311h-0.704v-2.231c0-0.624-0.231-1.151-0.896-1.151c-0.455,0-0.815,0.328-0.943,0.72    c-0.031,0.088-0.048,0.216-0.048,0.328v2.335h-0.703V115.43z"/>
		<path d="M81.363,117.685c0,0.896-0.184,1.431-0.552,1.775c-0.384,0.344-0.927,0.463-1.415,0.463c-0.464,0-0.976-0.112-1.287-0.32    l0.176-0.543c0.256,0.168,0.656,0.312,1.136,0.312c0.72,0,1.247-0.375,1.247-1.359v-0.424h-0.016    c-0.208,0.36-0.632,0.647-1.231,0.647c-0.96,0-1.647-0.815-1.647-1.895c0-1.311,0.855-2.047,1.751-2.047    c0.672,0,1.031,0.344,1.208,0.672h0.016l0.023-0.584h0.624c-0.024,0.272-0.032,0.592-0.032,1.056V117.685z M80.66,115.902    c0-0.112-0.008-0.216-0.04-0.312c-0.128-0.416-0.464-0.751-0.983-0.751c-0.672,0-1.151,0.567-1.151,1.471    c0,0.751,0.392,1.391,1.144,1.391c0.439,0,0.831-0.272,0.975-0.728c0.04-0.112,0.057-0.248,0.057-0.376V115.902z"/>
		<path d="M84.222,115.646c0-0.496-0.009-0.896-0.032-1.264h0.632l0.04,0.664h0.016c0.28-0.48,0.744-0.752,1.367-0.752    c0.943,0,1.647,0.792,1.647,1.967c0,1.391-0.855,2.079-1.759,2.079c-0.521,0-0.96-0.224-1.191-0.607h-0.017v2.103h-0.703V115.646z     M84.925,116.677c0,0.096,0.008,0.2,0.032,0.288c0.12,0.487,0.552,0.823,1.047,0.823c0.744,0,1.176-0.607,1.176-1.495    c0-0.775-0.399-1.439-1.144-1.439c-0.479,0-0.936,0.335-1.071,0.872c-0.016,0.088-0.04,0.191-0.04,0.28V116.677z"/>
		<path d="M91.5,117.325c0,0.336,0.016,0.664,0.056,0.928h-0.632l-0.063-0.488h-0.024c-0.208,0.304-0.632,0.576-1.184,0.576    c-0.783,0-1.183-0.552-1.183-1.111c0-0.936,0.831-1.447,2.326-1.439v-0.08c0-0.32-0.088-0.904-0.88-0.896    c-0.367,0-0.743,0.104-1.015,0.288l-0.16-0.472c0.319-0.2,0.792-0.336,1.279-0.336c1.191,0,1.479,0.808,1.479,1.583V117.325z     M90.812,116.277c-0.768-0.016-1.64,0.12-1.64,0.872c0,0.464,0.304,0.672,0.655,0.672c0.512,0,0.84-0.32,0.952-0.648    c0.023-0.072,0.032-0.152,0.032-0.224V116.277z"/>
		<path d="M92.629,115.59c0-0.456-0.008-0.848-0.032-1.208h0.615l0.032,0.76h0.024c0.176-0.52,0.607-0.848,1.079-0.848    c0.072,0,0.128,0.008,0.191,0.016v0.664c-0.071-0.008-0.144-0.016-0.239-0.016c-0.496,0-0.848,0.375-0.943,0.896    c-0.017,0.104-0.024,0.216-0.024,0.328v2.071h-0.703V115.59z"/>
		<path d="M96.093,113.455v0.927H97.1v0.536h-1.007v2.079c0,0.48,0.136,0.751,0.527,0.751c0.191,0,0.304-0.016,0.407-0.048    l0.032,0.536c-0.136,0.048-0.352,0.096-0.623,0.096c-0.328,0-0.592-0.112-0.76-0.296c-0.192-0.216-0.272-0.56-0.272-1.016v-2.103    h-0.6v-0.536h0.6v-0.711L96.093,113.455z"/>
		<path d="M97.894,115.43c0-0.408-0.009-0.728-0.032-1.048h0.624l0.04,0.632h0.016c0.191-0.36,0.64-0.72,1.279-0.72    c0.535,0,1.367,0.32,1.367,1.647v2.311h-0.704v-2.231c0-0.624-0.231-1.151-0.896-1.151c-0.455,0-0.815,0.328-0.943,0.72    c-0.031,0.088-0.048,0.216-0.048,0.328v2.335h-0.703V115.43z"/>
		<path d="M102.732,116.445c0.016,0.944,0.615,1.335,1.319,1.335c0.504,0,0.815-0.088,1.071-0.2l0.128,0.504    c-0.248,0.112-0.68,0.248-1.295,0.248c-1.184,0-1.903-0.792-1.903-1.951c0-1.167,0.695-2.087,1.823-2.087    c1.263,0,1.591,1.111,1.591,1.823c0,0.144-0.008,0.248-0.023,0.328H102.732z M104.787,115.942    c0.008-0.448-0.184-1.144-0.967-1.144c-0.72,0-1.023,0.656-1.08,1.144H104.787z"/>
		<path d="M106.341,115.59c0-0.456-0.009-0.848-0.032-1.208h0.615l0.032,0.76h0.024c0.176-0.52,0.607-0.848,1.079-0.848    c0.072,0,0.128,0.008,0.192,0.016v0.664c-0.072-0.008-0.145-0.016-0.24-0.016c-0.496,0-0.848,0.375-0.943,0.896    c-0.017,0.104-0.024,0.216-0.024,0.328v2.071h-0.703V115.59z"/>
		<path d="M113.963,117.685c0,0.896-0.184,1.431-0.552,1.775c-0.384,0.344-0.927,0.463-1.415,0.463c-0.464,0-0.976-0.112-1.287-0.32    l0.176-0.543c0.256,0.168,0.656,0.312,1.136,0.312c0.72,0,1.247-0.375,1.247-1.359v-0.424h-0.016    c-0.208,0.36-0.632,0.647-1.231,0.647c-0.96,0-1.647-0.815-1.647-1.895c0-1.311,0.855-2.047,1.751-2.047    c0.672,0,1.031,0.344,1.208,0.672h0.016l0.023-0.584h0.624c-0.024,0.272-0.032,0.592-0.032,1.056V117.685z M113.26,115.902    c0-0.112-0.008-0.216-0.04-0.312c-0.128-0.416-0.464-0.751-0.983-0.751c-0.672,0-1.151,0.567-1.151,1.471    c0,0.751,0.392,1.391,1.144,1.391c0.439,0,0.831-0.272,0.975-0.728c0.04-0.112,0.057-0.248,0.057-0.376V115.902z"/>
		<path d="M117.852,117.325c0,0.336,0.016,0.664,0.056,0.928h-0.632l-0.063-0.488h-0.024c-0.208,0.304-0.632,0.576-1.184,0.576    c-0.783,0-1.183-0.552-1.183-1.111c0-0.936,0.831-1.447,2.326-1.439v-0.08c0-0.32-0.088-0.904-0.88-0.896    c-0.367,0-0.743,0.104-1.015,0.288l-0.16-0.472c0.319-0.2,0.792-0.336,1.279-0.336c1.191,0,1.479,0.808,1.479,1.583V117.325z     M117.164,116.277c-0.768-0.016-1.64,0.12-1.64,0.872c0,0.464,0.304,0.672,0.655,0.672c0.512,0,0.84-0.32,0.952-0.648    c0.023-0.072,0.032-0.152,0.032-0.224V116.277z"/>
		<path d="M119.316,113.727c-0.256,0-0.424-0.2-0.424-0.432c0-0.248,0.176-0.44,0.439-0.44c0.256,0,0.432,0.192,0.432,0.44    c0,0.231-0.168,0.432-0.439,0.432H119.316z M118.98,118.252v-3.87h0.703v3.87H118.98z"/>
		<path d="M120.853,115.43c0-0.408-0.009-0.728-0.032-1.048h0.624l0.04,0.632h0.016c0.191-0.36,0.64-0.72,1.279-0.72    c0.535,0,1.367,0.32,1.367,1.647v2.311h-0.704v-2.231c0-0.624-0.231-1.151-0.896-1.151c-0.455,0-0.815,0.328-0.943,0.72    c-0.031,0.088-0.048,0.216-0.048,0.328v2.335h-0.703V115.43z"/>
		<path d="M125.196,117.533c0.216,0.128,0.584,0.272,0.936,0.272c0.504,0,0.744-0.248,0.744-0.576c0-0.336-0.2-0.512-0.712-0.704    c-0.703-0.256-1.031-0.64-1.031-1.095c0-0.624,0.512-1.136,1.335-1.136c0.392,0,0.735,0.104,0.943,0.24l-0.168,0.503    c-0.151-0.088-0.432-0.224-0.791-0.224c-0.416,0-0.64,0.24-0.64,0.528c0,0.319,0.224,0.463,0.728,0.664    c0.663,0.248,1.016,0.583,1.016,1.159c0,0.688-0.536,1.167-1.439,1.167c-0.424,0-0.815-0.112-1.087-0.272L125.196,117.533z"/>
		<path d="M129.204,119.388c0.328-0.024,0.6-0.112,0.768-0.296c0.192-0.216,0.272-0.527,0.272-1.455v-3.254h0.703v3.526    c0,0.751-0.12,1.239-0.464,1.591c-0.312,0.312-0.823,0.44-1.199,0.44L129.204,119.388z M130.58,113.727    c-0.256,0-0.424-0.2-0.424-0.432c0-0.248,0.176-0.44,0.439-0.44s0.432,0.192,0.432,0.44c0,0.231-0.16,0.432-0.439,0.432H130.58z"/>
		<path d="M133.676,118.34c-1.04,0-1.855-0.768-1.855-1.991c0-1.295,0.855-2.055,1.919-2.055c1.111,0,1.863,0.808,1.863,1.983    c0,1.439-1,2.063-1.919,2.063H133.676z M133.707,117.812c0.672,0,1.176-0.631,1.176-1.511c0-0.655-0.328-1.479-1.159-1.479    c-0.824,0-1.184,0.768-1.184,1.503c0,0.847,0.479,1.487,1.159,1.487H133.707z"/>
		<path d="M136.492,112.576h0.703v2.422h0.017c0.247-0.432,0.695-0.704,1.319-0.704c0.959,0,1.631,0.8,1.631,1.967    c0,1.391-0.88,2.079-1.743,2.079c-0.56,0-1-0.216-1.296-0.728h-0.016l-0.04,0.64h-0.607c0.024-0.264,0.032-0.656,0.032-1V112.576z     M137.195,116.701c0,0.088,0.008,0.176,0.024,0.256c0.136,0.488,0.552,0.824,1.056,0.824c0.743,0,1.175-0.6,1.175-1.487    c0-0.784-0.399-1.447-1.151-1.447c-0.479,0-0.928,0.336-1.063,0.864c-0.023,0.088-0.04,0.184-0.04,0.296V116.701z"/>
		<path d="M140.948,117.533c0.216,0.128,0.584,0.272,0.936,0.272c0.504,0,0.744-0.248,0.744-0.576c0-0.336-0.2-0.512-0.712-0.704    c-0.703-0.256-1.031-0.64-1.031-1.095c0-0.624,0.512-1.136,1.335-1.136c0.392,0,0.735,0.104,0.943,0.24l-0.168,0.503    c-0.151-0.088-0.432-0.224-0.791-0.224c-0.416,0-0.64,0.24-0.64,0.528c0,0.319,0.224,0.463,0.728,0.664    c0.663,0.248,1.016,0.583,1.016,1.159c0,0.688-0.536,1.167-1.439,1.167c-0.424,0-0.815-0.112-1.087-0.272L140.948,117.533z"/>
	</g>
	
		<rect x="1.542" y="123.412" fill="#808285" stroke="#000000" stroke-width="0.5" stroke-linejoin="round" stroke-miterlimit="10" width="6" height="6"/>
	<g>
		<path d="M11.827,123.197v3.198c0,1.2,0.535,1.711,1.255,1.711c0.792,0,1.312-0.528,1.312-1.711v-3.198h0.703v3.15    c0,1.655-0.871,2.327-2.039,2.327c-1.103,0-1.935-0.624-1.935-2.303v-3.174H11.827z"/>
		<path d="M16.219,127.739c0.312,0.192,0.76,0.344,1.239,0.344c0.712,0,1.128-0.368,1.128-0.911c0-0.504-0.288-0.8-1.016-1.072    c-0.88-0.304-1.423-0.768-1.423-1.519c0-0.839,0.695-1.463,1.742-1.463c0.544,0,0.952,0.128,1.184,0.256l-0.191,0.575    c-0.168-0.104-0.528-0.256-1.016-0.256c-0.735,0-1.016,0.44-1.016,0.808c0,0.496,0.328,0.744,1.071,1.032    c0.911,0.36,1.367,0.792,1.367,1.583c0,0.824-0.607,1.551-1.879,1.551c-0.52,0-1.087-0.16-1.375-0.352L16.219,127.739z"/>
		<path d="M25.232,128.019c0,0.896-0.184,1.431-0.552,1.775c-0.384,0.344-0.927,0.463-1.415,0.463c-0.464,0-0.976-0.112-1.287-0.32    l0.176-0.543c0.256,0.168,0.655,0.312,1.136,0.312c0.72,0,1.247-0.375,1.247-1.359v-0.424h-0.016    c-0.208,0.36-0.632,0.647-1.231,0.647c-0.96,0-1.647-0.815-1.647-1.895c0-1.311,0.855-2.047,1.751-2.047    c0.672,0,1.031,0.344,1.207,0.672h0.017l0.023-0.584h0.624c-0.023,0.272-0.032,0.592-0.032,1.056V128.019z M24.529,126.236    c0-0.112-0.008-0.216-0.04-0.312c-0.128-0.416-0.464-0.751-0.983-0.751c-0.672,0-1.151,0.567-1.151,1.471    c0,0.751,0.392,1.391,1.144,1.391c0.439,0,0.831-0.272,0.976-0.728c0.039-0.112,0.056-0.248,0.056-0.376V126.236z"/>
		<path d="M29.122,127.659c0,0.336,0.016,0.664,0.056,0.928h-0.632l-0.063-0.488h-0.024c-0.208,0.304-0.632,0.576-1.184,0.576    c-0.783,0-1.183-0.552-1.183-1.111c0-0.936,0.831-1.447,2.326-1.439v-0.08c0-0.32-0.088-0.904-0.88-0.896    c-0.367,0-0.743,0.104-1.015,0.288l-0.16-0.472c0.319-0.2,0.792-0.336,1.279-0.336c1.191,0,1.479,0.808,1.479,1.583V127.659z     M28.435,126.611c-0.768-0.016-1.64,0.12-1.64,0.872c0,0.464,0.304,0.672,0.655,0.672c0.512,0,0.84-0.32,0.952-0.648    c0.023-0.072,0.032-0.152,0.032-0.224V126.611z"/>
		<path d="M30.587,124.061c-0.256,0-0.424-0.2-0.424-0.432c0-0.248,0.176-0.44,0.439-0.44c0.256,0,0.432,0.192,0.432,0.44    c0,0.231-0.168,0.432-0.439,0.432H30.587z M30.251,128.586v-3.87h0.703v3.87H30.251z"/>
		<path d="M32.123,125.764c0-0.408-0.009-0.728-0.032-1.048h0.624l0.04,0.632h0.016c0.191-0.36,0.64-0.72,1.279-0.72    c0.535,0,1.367,0.32,1.367,1.647v2.311h-0.704v-2.231c0-0.624-0.231-1.151-0.896-1.151c-0.455,0-0.815,0.328-0.943,0.72    c-0.031,0.088-0.048,0.216-0.048,0.328v2.335h-0.703V125.764z"/>
		<path d="M36.467,127.867c0.216,0.128,0.584,0.272,0.936,0.272c0.504,0,0.744-0.248,0.744-0.576c0-0.336-0.2-0.512-0.712-0.704    c-0.703-0.256-1.031-0.64-1.031-1.095c0-0.624,0.512-1.136,1.335-1.136c0.392,0,0.735,0.104,0.943,0.24l-0.168,0.503    c-0.151-0.088-0.432-0.224-0.791-0.224c-0.416,0-0.64,0.24-0.64,0.528c0,0.319,0.224,0.463,0.728,0.664    c0.663,0.248,1.016,0.583,1.016,1.159c0,0.688-0.536,1.167-1.439,1.167c-0.424,0-0.815-0.112-1.087-0.272L36.467,127.867z"/>
		<path d="M40.475,129.722c0.328-0.024,0.6-0.112,0.768-0.296c0.192-0.216,0.272-0.527,0.272-1.455v-3.254h0.703v3.526    c0,0.751-0.12,1.239-0.464,1.591c-0.312,0.312-0.823,0.44-1.199,0.44L40.475,129.722z M41.851,124.061    c-0.256,0-0.424-0.2-0.424-0.432c0-0.248,0.176-0.44,0.439-0.44s0.432,0.192,0.432,0.44c0,0.231-0.16,0.432-0.439,0.432H41.851z"/>
		<path d="M44.946,128.674c-1.04,0-1.855-0.768-1.855-1.991c0-1.295,0.855-2.055,1.919-2.055c1.111,0,1.863,0.808,1.863,1.983    c0,1.439-1,2.063-1.919,2.063H44.946z M44.978,128.146c0.672,0,1.176-0.631,1.176-1.511c0-0.655-0.328-1.479-1.159-1.479    c-0.824,0-1.184,0.768-1.184,1.503c0,0.847,0.479,1.487,1.159,1.487H44.978z"/>
		<path d="M47.763,122.91h0.703v2.422h0.017c0.247-0.432,0.695-0.704,1.319-0.704c0.959,0,1.631,0.8,1.631,1.967    c0,1.391-0.88,2.079-1.743,2.079c-0.56,0-1-0.216-1.296-0.728h-0.016l-0.04,0.64H47.73c0.024-0.264,0.032-0.656,0.032-1V122.91z     M48.466,127.035c0,0.088,0.008,0.176,0.024,0.256c0.136,0.488,0.552,0.824,1.056,0.824c0.743,0,1.175-0.6,1.175-1.487    c0-0.784-0.399-1.447-1.151-1.447c-0.479,0-0.928,0.336-1.063,0.864c-0.023,0.088-0.04,0.184-0.04,0.296V127.035z"/>
		<path d="M52.218,127.867c0.217,0.128,0.584,0.272,0.936,0.272c0.504,0,0.744-0.248,0.744-0.576c0-0.336-0.2-0.512-0.712-0.704    c-0.703-0.256-1.031-0.64-1.031-1.095c0-0.624,0.512-1.136,1.335-1.136c0.392,0,0.736,0.104,0.943,0.24l-0.168,0.503    c-0.151-0.088-0.432-0.224-0.791-0.224c-0.416,0-0.64,0.24-0.64,0.528c0,0.319,0.224,0.463,0.728,0.664    c0.664,0.248,1.016,0.583,1.016,1.159c0,0.688-0.536,1.167-1.439,1.167c-0.424,0-0.815-0.112-1.088-0.272L52.218,127.867z"/>
		<path d="M55.026,129.578c0.176-0.479,0.392-1.335,0.479-1.919l0.784-0.08c-0.192,0.68-0.544,1.567-0.768,1.943L55.026,129.578z"/>
		<path d="M59.683,123.789v0.927h1.007v0.536h-1.007v2.079c0,0.48,0.136,0.751,0.527,0.751c0.191,0,0.304-0.016,0.408-0.048    l0.031,0.536c-0.136,0.048-0.352,0.096-0.623,0.096c-0.328,0-0.592-0.112-0.76-0.296c-0.192-0.216-0.272-0.56-0.272-1.016v-2.103    h-0.6v-0.536h0.6v-0.711L59.683,123.789z"/>
		<path d="M61.482,125.924c0-0.456-0.009-0.848-0.032-1.208h0.615l0.032,0.76h0.024c0.176-0.52,0.607-0.848,1.079-0.848    c0.072,0,0.128,0.008,0.192,0.016v0.664c-0.072-0.008-0.145-0.016-0.24-0.016c-0.496,0-0.848,0.375-0.943,0.896    c-0.017,0.104-0.024,0.216-0.024,0.328v2.071h-0.703V125.924z"/>
		<path d="M66.825,127.659c0,0.336,0.016,0.664,0.056,0.928h-0.632l-0.063-0.488h-0.024c-0.208,0.304-0.632,0.576-1.184,0.576    c-0.783,0-1.183-0.552-1.183-1.111c0-0.936,0.831-1.447,2.326-1.439v-0.08c0-0.32-0.088-0.904-0.88-0.896    c-0.367,0-0.743,0.104-1.015,0.288l-0.16-0.472c0.319-0.2,0.792-0.336,1.279-0.336c1.191,0,1.479,0.808,1.479,1.583V127.659z     M66.138,126.611c-0.768-0.016-1.64,0.12-1.64,0.872c0,0.464,0.304,0.672,0.655,0.672c0.512,0,0.84-0.32,0.952-0.648    c0.023-0.072,0.032-0.152,0.032-0.224V126.611z"/>
		<path d="M71.296,122.91v4.677c0,0.344,0.008,0.736,0.032,1h-0.632l-0.032-0.672h-0.016c-0.216,0.432-0.68,0.76-1.312,0.76    c-0.936,0-1.663-0.792-1.663-1.967c-0.008-1.295,0.8-2.079,1.735-2.079c0.6,0,0.999,0.28,1.167,0.584h0.017v-2.303H71.296z     M70.593,126.292c0-0.096-0.009-0.208-0.032-0.304c-0.104-0.439-0.488-0.808-1.016-0.808c-0.728,0-1.159,0.64-1.159,1.487    c0,0.792,0.392,1.439,1.144,1.439c0.472,0,0.903-0.32,1.031-0.848c0.023-0.088,0.032-0.184,0.032-0.296V126.292z"/>
		<path d="M72.802,124.061c-0.256,0-0.424-0.2-0.424-0.432c0-0.248,0.176-0.44,0.439-0.44c0.256,0,0.432,0.192,0.432,0.44    c0,0.231-0.168,0.432-0.439,0.432H72.802z M72.466,128.586v-3.87h0.703v3.87H72.466z"/>
		<path d="M74.338,125.764c0-0.408-0.009-0.728-0.032-1.048h0.624l0.04,0.632h0.016c0.191-0.36,0.64-0.72,1.279-0.72    c0.535,0,1.367,0.32,1.367,1.647v2.311h-0.704v-2.231c0-0.624-0.231-1.151-0.896-1.151c-0.455,0-0.815,0.328-0.943,0.72    c-0.031,0.088-0.048,0.216-0.048,0.328v2.335h-0.703V125.764z"/>
		<path d="M82.088,128.019c0,0.896-0.184,1.431-0.552,1.775c-0.384,0.344-0.927,0.463-1.415,0.463c-0.464,0-0.976-0.112-1.287-0.32    l0.176-0.543c0.256,0.168,0.655,0.312,1.136,0.312c0.72,0,1.247-0.375,1.247-1.359v-0.424h-0.016    c-0.208,0.36-0.632,0.647-1.231,0.647c-0.96,0-1.647-0.815-1.647-1.895c0-1.311,0.855-2.047,1.751-2.047    c0.672,0,1.031,0.344,1.207,0.672h0.017l0.023-0.584h0.624c-0.023,0.272-0.032,0.592-0.032,1.056V128.019z M81.385,126.236    c0-0.112-0.008-0.216-0.04-0.312c-0.128-0.416-0.464-0.751-0.983-0.751c-0.672,0-1.151,0.567-1.151,1.471    c0,0.751,0.392,1.391,1.144,1.391c0.439,0,0.831-0.272,0.976-0.728c0.039-0.112,0.056-0.248,0.056-0.376V126.236z"/>
		<path d="M84.946,125.98c0-0.496-0.008-0.896-0.032-1.264h0.632l0.04,0.664h0.016c0.28-0.48,0.743-0.752,1.367-0.752    c0.943,0,1.647,0.792,1.647,1.967c0,1.391-0.855,2.079-1.76,2.079c-0.52,0-0.959-0.224-1.19-0.607h-0.017v2.103h-0.703V125.98z     M85.649,127.011c0,0.096,0.008,0.2,0.032,0.288c0.12,0.487,0.552,0.823,1.048,0.823c0.743,0,1.175-0.607,1.175-1.495    c0-0.775-0.399-1.439-1.144-1.439c-0.479,0-0.936,0.335-1.071,0.872c-0.016,0.088-0.04,0.191-0.04,0.28V127.011z"/>
		<path d="M92.225,127.659c0,0.336,0.016,0.664,0.056,0.928h-0.632l-0.063-0.488h-0.024c-0.208,0.304-0.632,0.576-1.184,0.576    c-0.783,0-1.183-0.552-1.183-1.111c0-0.936,0.831-1.447,2.326-1.439v-0.08c0-0.32-0.088-0.904-0.879-0.896    c-0.368,0-0.744,0.104-1.016,0.288l-0.16-0.472c0.319-0.2,0.791-0.336,1.279-0.336c1.191,0,1.479,0.808,1.479,1.583V127.659z     M91.536,126.611c-0.768-0.016-1.639,0.12-1.639,0.872c0,0.464,0.304,0.672,0.655,0.672c0.512,0,0.84-0.32,0.952-0.648    c0.023-0.072,0.031-0.152,0.031-0.224V126.611z"/>
		<path d="M93.354,125.924c0-0.456-0.009-0.848-0.032-1.208h0.615l0.032,0.76h0.024c0.176-0.52,0.607-0.848,1.079-0.848    c0.072,0,0.128,0.008,0.192,0.016v0.664c-0.072-0.008-0.145-0.016-0.24-0.016c-0.496,0-0.848,0.375-0.943,0.896    c-0.017,0.104-0.024,0.216-0.024,0.328v2.071h-0.703V125.924z"/>
		<path d="M96.817,123.789v0.927h1.007v0.536h-1.007v2.079c0,0.48,0.136,0.751,0.527,0.751c0.191,0,0.304-0.016,0.408-0.048    l0.031,0.536c-0.136,0.048-0.352,0.096-0.623,0.096c-0.328,0-0.592-0.112-0.76-0.296c-0.192-0.216-0.272-0.56-0.272-1.016v-2.103    h-0.6v-0.536h0.6v-0.711L96.817,123.789z"/>
		<path d="M98.618,125.764c0-0.408-0.008-0.728-0.032-1.048h0.624l0.039,0.632h0.017c0.191-0.36,0.64-0.72,1.279-0.72    c0.535,0,1.367,0.32,1.367,1.647v2.311h-0.704v-2.231c0-0.624-0.231-1.151-0.896-1.151c-0.455,0-0.815,0.328-0.943,0.72    c-0.031,0.088-0.048,0.216-0.048,0.328v2.335h-0.703V125.764z"/>
		<path d="M103.457,126.779c0.016,0.944,0.616,1.335,1.319,1.335c0.504,0,0.815-0.088,1.071-0.2l0.128,0.504    c-0.248,0.112-0.68,0.248-1.295,0.248c-1.184,0-1.903-0.792-1.903-1.951c0-1.167,0.695-2.087,1.823-2.087    c1.264,0,1.591,1.111,1.591,1.823c0,0.144-0.008,0.248-0.023,0.328H103.457z M105.512,126.276    c0.008-0.448-0.184-1.144-0.967-1.144c-0.72,0-1.023,0.656-1.08,1.144H105.512z"/>
		<path d="M107.065,125.924c0-0.456-0.008-0.848-0.032-1.208h0.615l0.032,0.76h0.024c0.176-0.52,0.607-0.848,1.079-0.848    c0.072,0,0.128,0.008,0.191,0.016v0.664c-0.071-0.008-0.144-0.016-0.239-0.016c-0.496,0-0.848,0.375-0.943,0.896    c-0.017,0.104-0.024,0.216-0.024,0.328v2.071h-0.703V125.924z"/>
		<path d="M111.378,122.91h0.703v5.677h-0.703V122.91z"/>
		<path d="M114.841,128.674c-1.04,0-1.855-0.768-1.855-1.991c0-1.295,0.855-2.055,1.919-2.055c1.111,0,1.863,0.808,1.863,1.983    c0,1.439-1,2.063-1.919,2.063H114.841z M114.872,128.146c0.672,0,1.176-0.631,1.176-1.511c0-0.655-0.328-1.479-1.159-1.479    c-0.824,0-1.184,0.768-1.184,1.503c0,0.847,0.479,1.487,1.159,1.487H114.872z"/>
		<path d="M117.561,127.867c0.216,0.128,0.584,0.272,0.936,0.272c0.504,0,0.744-0.248,0.744-0.576c0-0.336-0.2-0.512-0.712-0.704    c-0.703-0.256-1.031-0.64-1.031-1.095c0-0.624,0.512-1.136,1.335-1.136c0.392,0,0.735,0.104,0.943,0.24l-0.168,0.503    c-0.151-0.088-0.432-0.224-0.791-0.224c-0.416,0-0.64,0.24-0.64,0.528c0,0.319,0.224,0.463,0.728,0.664    c0.663,0.248,1.016,0.583,1.016,1.159c0,0.688-0.536,1.167-1.439,1.167c-0.424,0-0.815-0.112-1.087-0.272L117.561,127.867z"/>
		<path d="M121.225,126.779c0.016,0.944,0.616,1.335,1.319,1.335c0.504,0,0.815-0.088,1.071-0.2l0.128,0.504    c-0.248,0.112-0.68,0.248-1.295,0.248c-1.184,0-1.903-0.792-1.903-1.951c0-1.167,0.695-2.087,1.823-2.087    c1.264,0,1.591,1.111,1.591,1.823c0,0.144-0.008,0.248-0.023,0.328H121.225z M123.279,126.276    c0.008-0.448-0.184-1.144-0.967-1.144c-0.72,0-1.023,0.656-1.08,1.144H123.279z"/>
		<path d="M124.736,127.867c0.216,0.128,0.584,0.272,0.936,0.272c0.504,0,0.744-0.248,0.744-0.576c0-0.336-0.2-0.512-0.712-0.704    c-0.703-0.256-1.031-0.64-1.031-1.095c0-0.624,0.512-1.136,1.335-1.136c0.392,0,0.735,0.104,0.943,0.24l-0.168,0.503    c-0.151-0.088-0.432-0.224-0.791-0.224c-0.416,0-0.64,0.24-0.64,0.528c0,0.319,0.224,0.463,0.728,0.664    c0.663,0.248,1.016,0.583,1.016,1.159c0,0.688-0.536,1.167-1.439,1.167c-0.424,0-0.815-0.112-1.087-0.272L124.736,127.867z"/>
		<path d="M128.745,129.722c0.328-0.024,0.6-0.112,0.768-0.296c0.192-0.216,0.272-0.527,0.272-1.455v-3.254h0.703v3.526    c0,0.751-0.12,1.239-0.464,1.591c-0.312,0.312-0.823,0.44-1.199,0.44L128.745,129.722z M130.121,124.061    c-0.256,0-0.424-0.2-0.424-0.432c0-0.248,0.176-0.44,0.439-0.44s0.432,0.192,0.432,0.44c0,0.231-0.16,0.432-0.439,0.432H130.121z"/>
		<path d="M133.217,128.674c-1.04,0-1.855-0.768-1.855-1.991c0-1.295,0.855-2.055,1.919-2.055c1.111,0,1.863,0.808,1.863,1.983    c0,1.439-1,2.063-1.919,2.063H133.217z M133.248,128.146c0.672,0,1.176-0.631,1.176-1.511c0-0.655-0.328-1.479-1.159-1.479    c-0.824,0-1.184,0.768-1.184,1.503c0,0.847,0.479,1.487,1.159,1.487H133.248z"/>
		<path d="M136.033,122.91h0.703v2.422h0.017c0.247-0.432,0.695-0.704,1.318-0.704c0.96,0,1.632,0.8,1.632,1.967    c0,1.391-0.88,2.079-1.743,2.079c-0.56,0-1-0.216-1.295-0.728h-0.017l-0.04,0.64h-0.607c0.023-0.264,0.032-0.656,0.032-1V122.91z     M136.736,127.035c0,0.088,0.008,0.176,0.024,0.256c0.136,0.488,0.552,0.824,1.055,0.824c0.744,0,1.176-0.6,1.176-1.487    c0-0.784-0.399-1.447-1.151-1.447c-0.479,0-0.928,0.336-1.063,0.864c-0.023,0.088-0.04,0.184-0.04,0.296V127.035z"/>
		<path d="M140.488,127.867c0.216,0.128,0.584,0.272,0.936,0.272c0.504,0,0.744-0.248,0.744-0.576c0-0.336-0.2-0.512-0.712-0.704    c-0.703-0.256-1.031-0.64-1.031-1.095c0-0.624,0.512-1.136,1.335-1.136c0.392,0,0.735,0.104,0.943,0.24l-0.168,0.503    c-0.151-0.088-0.432-0.224-0.791-0.224c-0.416,0-0.64,0.24-0.64,0.528c0,0.319,0.224,0.463,0.728,0.664    c0.663,0.248,1.016,0.583,1.016,1.159c0,0.688-0.536,1.167-1.439,1.167c-0.424,0-0.815-0.112-1.087-0.272L140.488,127.867z"/>
	</g>
	
		<line fill="none" stroke="#A7A9AC" stroke-width="0.5" stroke-linejoin="round" stroke-miterlimit="10" x1="14.542" y1="2.232" x2="137.448" y2="2.232"/>
	
		<line fill="none" stroke="#A7A9AC" stroke-width="0.5" stroke-linejoin="round" stroke-miterlimit="10" x1="14.542" y1="17.208" x2="137.448" y2="17.208"/>
	
		<line fill="none" stroke="#A7A9AC" stroke-width="0.5" stroke-linejoin="round" stroke-miterlimit="10" x1="14.542" y1="32.185" x2="137.448" y2="32.185"/>
	
		<line fill="none" stroke="#A7A9AC" stroke-width="0.5" stroke-linejoin="round" stroke-miterlimit="10" x1="14.542" y1="47.338" x2="137.448" y2="47.338"/>
	
		<line fill="none" stroke="#A7A9AC" stroke-width="0.5" stroke-linejoin="round" stroke-miterlimit="10" x1="14.542" y1="62.316" x2="137.448" y2="62.316"/>
	
		<line fill="none" stroke="#A7A9AC" stroke-width="0.5" stroke-linejoin="round" stroke-miterlimit="10" x1="14.542" y1="77.292" x2="137.448" y2="77.292"/>
	<polyline fill="none" stroke="#000000" stroke-width="0.5" stroke-linejoin="round" stroke-miterlimit="10" points="   137.487,92.254 14.487,92.254 14.487,2.254  "/>
	
		<line fill="none" stroke="#000000" stroke-width="0.5" stroke-linejoin="round" stroke-miterlimit="10" x1="14.542" y1="2.254" x2="11.542" y2="2.254"/>
	
		<line fill="none" stroke="#000000" stroke-width="0.5" stroke-linejoin="round" stroke-miterlimit="10" x1="14.542" y1="17.254" x2="11.542" y2="17.254"/>
	
		<line fill="none" stroke="#000000" stroke-width="0.5" stroke-linejoin="round" stroke-miterlimit="10" x1="14.542" y1="32.254" x2="11.542" y2="32.254"/>
	
		<line fill="none" stroke="#000000" stroke-width="0.5" stroke-linejoin="round" stroke-miterlimit="10" x1="14.542" y1="47.254" x2="11.542" y2="47.254"/>
	
		<line fill="none" stroke="#000000" stroke-width="0.5" stroke-linejoin="round" stroke-miterlimit="10" x1="14.542" y1="62.254" x2="11.542" y2="62.254"/>
	
		<line fill="none" stroke="#000000" stroke-width="0.5" stroke-linejoin="round" stroke-miterlimit="10" x1="14.542" y1="77.254" x2="11.542" y2="77.254"/>
	
		<line fill="none" stroke="#000000" stroke-width="0.5" stroke-linejoin="round" stroke-miterlimit="10" x1="14.542" y1="92.254" x2="11.542" y2="92.254"/>
	<g>
		<path d="M167.36,5.285V3.862h-2.414V3.406l2.318-3.318h0.76v3.23h0.727v0.544h-0.727v1.423H167.36z M167.36,3.318V1.583    c0-0.271,0.008-0.544,0.023-0.815h-0.023c-0.16,0.304-0.288,0.527-0.432,0.768l-1.271,1.768v0.016H167.36z"/>
		<path d="M169.81,5.373c-0.272,0-0.464-0.216-0.464-0.504c0-0.287,0.2-0.504,0.479-0.504s0.472,0.208,0.472,0.504    c0,0.288-0.192,0.504-0.479,0.504H169.81z"/>
		<path d="M172.601,5.373c-1.016,0-1.711-0.951-1.728-2.671c0-1.751,0.76-2.702,1.815-2.702c1.088,0,1.719,0.976,1.719,2.631    c0,1.767-0.664,2.742-1.799,2.742H172.601z M172.64,4.829c0.713,0,1.057-0.839,1.057-2.167c0-1.279-0.32-2.118-1.057-2.118    c-0.639,0-1.055,0.815-1.055,2.118c-0.016,1.352,0.4,2.167,1.047,2.167H172.64z"/>
		<path d="M165.354,19.485c0.2,0.12,0.655,0.32,1.151,0.32c0.896,0,1.184-0.568,1.176-1.008c-0.009-0.728-0.664-1.039-1.344-1.039    h-0.392V17.23h0.392c0.512,0,1.159-0.264,1.159-0.879c0-0.416-0.264-0.784-0.911-0.784c-0.416,0-0.816,0.185-1.039,0.344    l-0.192-0.512c0.28-0.199,0.808-0.399,1.367-0.399c1.023,0,1.487,0.607,1.487,1.239c0,0.544-0.328,1-0.959,1.231v0.016    c0.639,0.12,1.158,0.6,1.158,1.328c0,0.831-0.655,1.559-1.895,1.559c-0.584,0-1.096-0.184-1.352-0.352L165.354,19.485z"/>
		<path d="M169.81,20.373c-0.272,0-0.464-0.216-0.464-0.504c0-0.287,0.2-0.504,0.479-0.504s0.472,0.208,0.472,0.504    c0,0.288-0.192,0.504-0.479,0.504H169.81z"/>
		<path d="M174.048,15.68h-1.983l-0.2,1.335c0.121-0.016,0.232-0.031,0.424-0.031c0.408,0,0.8,0.088,1.119,0.279    c0.408,0.224,0.744,0.68,0.744,1.335c0,1.016-0.808,1.775-1.935,1.775c-0.567,0-1.04-0.16-1.296-0.319l0.176-0.536    c0.217,0.128,0.641,0.288,1.12,0.288c0.655,0,1.231-0.432,1.224-1.136c0-0.663-0.456-1.144-1.488-1.144    c-0.303,0-0.535,0.024-0.727,0.057l0.336-2.495h2.486V15.68z"/>
		<path d="M165.354,34.485c0.2,0.12,0.655,0.32,1.151,0.32c0.896,0,1.184-0.568,1.176-1.008c-0.009-0.728-0.664-1.039-1.344-1.039    h-0.392V32.23h0.392c0.512,0,1.159-0.264,1.159-0.879c0-0.416-0.264-0.784-0.911-0.784c-0.416,0-0.816,0.185-1.039,0.344    l-0.192-0.512c0.28-0.199,0.808-0.399,1.367-0.399c1.023,0,1.487,0.607,1.487,1.239c0,0.544-0.328,1-0.959,1.231v0.016    c0.639,0.12,1.158,0.6,1.158,1.328c0,0.831-0.655,1.559-1.895,1.559c-0.584,0-1.096-0.184-1.352-0.352L165.354,34.485z"/>
		<path d="M169.81,35.373c-0.272,0-0.464-0.216-0.464-0.504c0-0.287,0.2-0.504,0.479-0.504s0.472,0.208,0.472,0.504    c0,0.288-0.192,0.504-0.479,0.504H169.81z"/>
		<path d="M172.601,35.373c-1.016,0-1.711-0.951-1.728-2.671c0-1.751,0.76-2.702,1.815-2.702c1.088,0,1.719,0.976,1.719,2.631    c0,1.767-0.664,2.742-1.799,2.742H172.601z M172.64,34.829c0.713,0,1.057-0.839,1.057-2.167c0-1.279-0.32-2.118-1.057-2.118    c-0.639,0-1.055,0.815-1.055,2.118c-0.016,1.352,0.4,2.167,1.047,2.167H172.64z"/>
		<path d="M165.186,50.285v-0.432l0.552-0.536c1.327-1.263,1.935-1.935,1.935-2.718c0-0.528-0.247-1.016-1.023-1.016    c-0.472,0-0.863,0.239-1.103,0.439l-0.225-0.496c0.352-0.295,0.871-0.527,1.471-0.527c1.111,0,1.584,0.768,1.584,1.512    c0,0.959-0.695,1.734-1.791,2.79l-0.408,0.384v0.016h2.327v0.584H165.186z"/>
		<path d="M169.81,50.373c-0.272,0-0.464-0.216-0.464-0.504c0-0.287,0.2-0.504,0.479-0.504s0.472,0.208,0.472,0.504    c0,0.288-0.192,0.504-0.479,0.504H169.81z"/>
		<path d="M174.048,45.68h-1.983l-0.2,1.335c0.121-0.016,0.232-0.031,0.424-0.031c0.408,0,0.8,0.088,1.119,0.279    c0.408,0.224,0.744,0.68,0.744,1.335c0,1.016-0.808,1.775-1.935,1.775c-0.567,0-1.04-0.16-1.296-0.319l0.176-0.536    c0.217,0.128,0.641,0.288,1.12,0.288c0.655,0,1.231-0.432,1.224-1.136c0-0.663-0.456-1.144-1.488-1.144    c-0.303,0-0.535,0.024-0.727,0.057l0.336-2.495h2.486V45.68z"/>
		<path d="M165.186,65.285v-0.432l0.552-0.536c1.327-1.263,1.935-1.935,1.935-2.718c0-0.528-0.247-1.016-1.023-1.016    c-0.472,0-0.863,0.239-1.103,0.439l-0.225-0.496c0.352-0.295,0.871-0.527,1.471-0.527c1.111,0,1.584,0.768,1.584,1.512    c0,0.959-0.695,1.734-1.791,2.79l-0.408,0.384v0.016h2.327v0.584H165.186z"/>
		<path d="M169.81,65.373c-0.272,0-0.464-0.216-0.464-0.504c0-0.287,0.2-0.504,0.479-0.504s0.472,0.208,0.472,0.504    c0,0.288-0.192,0.504-0.479,0.504H169.81z"/>
		<path d="M172.601,65.373c-1.016,0-1.711-0.951-1.728-2.671c0-1.751,0.76-2.702,1.815-2.702c1.088,0,1.719,0.976,1.719,2.631    c0,1.767-0.664,2.742-1.799,2.742H172.601z M172.64,64.829c0.713,0,1.057-0.839,1.057-2.167c0-1.279-0.32-2.118-1.057-2.118    c-0.639,0-1.055,0.815-1.055,2.118c-0.016,1.352,0.4,2.167,1.047,2.167H172.64z"/>
		<path d="M166.713,75.744h-0.017l-0.903,0.487l-0.136-0.536l1.135-0.607h0.6v5.197h-0.679V75.744z"/>
		<path d="M169.81,80.373c-0.272,0-0.464-0.216-0.464-0.504c0-0.287,0.2-0.504,0.479-0.504s0.472,0.208,0.472,0.504    c0,0.288-0.192,0.504-0.479,0.504H169.81z"/>
		<path d="M174.048,75.68h-1.983l-0.2,1.335c0.121-0.016,0.232-0.031,0.424-0.031c0.408,0,0.8,0.088,1.119,0.279    c0.408,0.224,0.744,0.68,0.744,1.335c0,1.016-0.808,1.775-1.935,1.775c-0.567,0-1.04-0.16-1.296-0.319l0.176-0.536    c0.217,0.128,0.641,0.288,1.12,0.288c0.655,0,1.231-0.432,1.224-1.136c0-0.663-0.456-1.144-1.488-1.144    c-0.303,0-0.535,0.024-0.727,0.057l0.336-2.495h2.486V75.68z"/>
		<path d="M166.713,90.744h-0.017l-0.903,0.487l-0.136-0.536l1.135-0.607h0.6v5.197h-0.679V90.744z"/>
		<path d="M169.81,95.373c-0.272,0-0.464-0.216-0.464-0.504c0-0.287,0.2-0.504,0.479-0.504s0.472,0.208,0.472,0.504    c0,0.288-0.192,0.504-0.479,0.504H169.81z"/>
		<path d="M172.601,95.373c-1.016,0-1.711-0.951-1.728-2.671c0-1.751,0.76-2.702,1.815-2.702c1.088,0,1.719,0.976,1.719,2.631    c0,1.767-0.664,2.742-1.799,2.742H172.601z M172.64,94.829c0.713,0,1.057-0.839,1.057-2.167c0-1.279-0.32-2.118-1.057-2.118    c-0.639,0-1.055,0.815-1.055,2.118c-0.016,1.352,0.4,2.167,1.047,2.167H172.64z"/>
	</g>
	<g>
		<path d="M191.995,102.228v-5.389h0.768l1.719,2.727c0.393,0.631,0.713,1.199,0.96,1.751l0.024-0.009    c-0.064-0.719-0.08-1.375-0.08-2.206v-2.263h0.655v5.389h-0.704l-1.711-2.734c-0.375-0.6-0.734-1.216-0.999-1.799l-0.024,0.008    c0.041,0.68,0.049,1.327,0.049,2.223v2.303H191.995z"/>
		<path d="M198.811,102.316c-1.04,0-1.854-0.768-1.854-1.991c0-1.295,0.855-2.055,1.918-2.055c1.111,0,1.863,0.808,1.863,1.983    c0,1.438-0.999,2.062-1.918,2.062H198.811z M198.843,101.789c0.672,0,1.176-0.632,1.176-1.512c0-0.655-0.328-1.479-1.16-1.479    c-0.823,0-1.184,0.768-1.184,1.503c0,0.848,0.48,1.487,1.16,1.487H198.843z"/>
		<path d="M201.627,99.406c0-0.408-0.008-0.728-0.032-1.048h0.624l0.04,0.632h0.016c0.192-0.359,0.641-0.72,1.279-0.72    c0.536,0,1.367,0.32,1.367,1.647v2.311h-0.703v-2.23c0-0.624-0.232-1.151-0.896-1.151c-0.456,0-0.815,0.327-0.943,0.72    c-0.032,0.088-0.048,0.216-0.048,0.327v2.335h-0.704V99.406z"/>
		<path d="M206.243,98.358l0.52,1.959c0.104,0.432,0.208,0.84,0.279,1.239h0.024c0.088-0.392,0.216-0.808,0.344-1.231l0.632-1.967    h0.592l0.6,1.936c0.145,0.455,0.256,0.871,0.344,1.263h0.023c0.064-0.392,0.168-0.799,0.297-1.255l0.551-1.943h0.695l-1.246,3.87    h-0.641l-0.592-1.847c-0.135-0.44-0.248-0.824-0.344-1.279h-0.016c-0.096,0.464-0.216,0.871-0.352,1.287l-0.623,1.839h-0.641    l-1.167-3.87H206.243z"/>
		<path d="M211.851,96.551h0.704v2.415h0.017c0.111-0.2,0.287-0.385,0.504-0.496c0.207-0.128,0.455-0.2,0.719-0.2    c0.52,0,1.352,0.32,1.352,1.655v2.303h-0.703v-2.23c0-0.624-0.232-1.144-0.896-1.144c-0.455,0-0.807,0.319-0.943,0.703    c-0.039,0.097-0.048,0.2-0.048,0.336v2.335h-0.704V96.551z"/>
		<path d="M216.627,97.703c-0.256,0-0.424-0.2-0.424-0.432c0-0.248,0.177-0.44,0.44-0.44c0.256,0,0.432,0.192,0.432,0.44    c0,0.231-0.168,0.432-0.439,0.432H216.627z M216.291,102.228v-3.87h0.704v3.87H216.291z"/>
		<path d="M219.011,97.431v0.927h1.008v0.536h-1.008v2.079c0,0.479,0.137,0.751,0.527,0.751c0.192,0,0.305-0.016,0.408-0.048    l0.031,0.536c-0.135,0.048-0.352,0.096-0.623,0.096c-0.328,0-0.592-0.112-0.76-0.296c-0.191-0.216-0.271-0.56-0.271-1.016v-2.103    h-0.6v-0.536h0.6v-0.711L219.011,97.431z"/>
		<path d="M221.163,100.421c0.016,0.943,0.615,1.335,1.318,1.335c0.504,0,0.816-0.088,1.072-0.2l0.127,0.504    c-0.247,0.112-0.68,0.248-1.295,0.248c-1.184,0-1.902-0.792-1.902-1.951c0-1.167,0.695-2.087,1.822-2.087    c1.264,0,1.592,1.111,1.592,1.823c0,0.144-0.008,0.248-0.024,0.328H221.163z M223.218,99.917c0.008-0.448-0.184-1.144-0.968-1.144    c-0.72,0-1.023,0.655-1.079,1.144H223.218z"/>
	</g>
	<g>
		<path d="M266.351,102.228l-1.367-5.389h0.735l0.64,2.727c0.16,0.68,0.304,1.343,0.4,1.862h0.016    c0.088-0.535,0.256-1.175,0.439-1.871l0.72-2.718h0.728l0.656,2.734c0.151,0.647,0.295,1.279,0.375,1.847h0.016    c0.113-0.592,0.265-1.191,0.432-1.863l0.713-2.718h0.711l-1.527,5.389h-0.727l-0.68-2.799c-0.168-0.695-0.281-1.223-0.353-1.767    h-0.017c-0.088,0.544-0.215,1.063-0.415,1.759l-0.768,2.807H266.351z"/>
		<path d="M272.175,96.551h0.703v2.415h0.017c0.112-0.2,0.288-0.385,0.504-0.496c0.208-0.128,0.456-0.2,0.72-0.2    c0.52,0,1.352,0.32,1.352,1.655v2.303h-0.704v-2.23c0-0.624-0.231-1.144-0.896-1.144c-0.455,0-0.808,0.319-0.943,0.703    c-0.04,0.097-0.049,0.2-0.049,0.336v2.335h-0.703V96.551z"/>
		<path d="M276.95,97.703c-0.256,0-0.424-0.2-0.424-0.432c0-0.248,0.176-0.44,0.44-0.44c0.256,0,0.432,0.192,0.432,0.44    c0,0.231-0.168,0.432-0.44,0.432H276.95z M276.614,102.228v-3.87h0.704v3.87H276.614z"/>
		<path d="M279.335,97.431v0.927h1.007v0.536h-1.007v2.079c0,0.479,0.135,0.751,0.527,0.751c0.191,0,0.304-0.016,0.408-0.048    l0.031,0.536c-0.136,0.048-0.352,0.096-0.623,0.096c-0.328,0-0.592-0.112-0.76-0.296c-0.191-0.216-0.271-0.56-0.271-1.016v-2.103    h-0.6v-0.536h0.6v-0.711L279.335,97.431z"/>
		<path d="M281.487,100.421c0.016,0.943,0.615,1.335,1.318,1.335c0.504,0,0.816-0.088,1.072-0.2l0.127,0.504    c-0.247,0.112-0.68,0.248-1.295,0.248c-1.184,0-1.902-0.792-1.902-1.951c0-1.167,0.695-2.087,1.822-2.087    c1.264,0,1.592,1.111,1.592,1.823c0,0.144-0.008,0.248-0.024,0.328H281.487z M283.542,99.917c0.008-0.448-0.184-1.144-0.968-1.144    c-0.72,0-1.023,0.655-1.079,1.144H283.542z"/>
	</g>
	
		<rect x="166.487" y="113.079" fill="#D1D3D4" stroke="#000000" stroke-width="0.5" stroke-linejoin="round" stroke-miterlimit="10" width="6" height="5.999"/>
	<g>
		<path d="M177.231,112.863v3.198c0,1.2,0.536,1.711,1.256,1.711c0.791,0,1.311-0.528,1.311-1.711v-3.198h0.705v3.15    c0,1.655-0.872,2.327-2.039,2.327c-1.104,0-1.936-0.624-1.936-2.303v-3.174H177.231z"/>
		<path d="M181.624,117.405c0.312,0.192,0.76,0.344,1.24,0.344c0.711,0,1.127-0.368,1.127-0.911c0-0.504-0.288-0.8-1.016-1.072    c-0.879-0.304-1.424-0.768-1.424-1.519c0-0.839,0.696-1.463,1.744-1.463c0.543,0,0.951,0.128,1.183,0.256l-0.192,0.575    c-0.168-0.104-0.527-0.256-1.015-0.256c-0.735,0-1.016,0.44-1.016,0.808c0,0.496,0.327,0.744,1.071,1.032    c0.912,0.36,1.367,0.792,1.367,1.583c0,0.824-0.607,1.551-1.879,1.551c-0.52,0-1.088-0.16-1.375-0.352L181.624,117.405z"/>
		<path d="M190.639,117.685c0,0.896-0.185,1.431-0.552,1.775c-0.384,0.344-0.928,0.463-1.416,0.463c-0.463,0-0.975-0.112-1.287-0.32    l0.176-0.543c0.256,0.168,0.656,0.312,1.137,0.312c0.719,0,1.246-0.375,1.246-1.359v-0.424h-0.016    c-0.207,0.36-0.631,0.647-1.23,0.647c-0.961,0-1.648-0.815-1.648-1.895c0-1.311,0.855-2.047,1.752-2.047    c0.672,0,1.031,0.344,1.207,0.672h0.016l0.024-0.584h0.624c-0.024,0.272-0.032,0.592-0.032,1.056V117.685z M189.935,115.902    c0-0.112-0.008-0.216-0.039-0.312c-0.129-0.416-0.465-0.751-0.984-0.751c-0.672,0-1.15,0.567-1.15,1.471    c0,0.751,0.391,1.391,1.143,1.391c0.439,0,0.832-0.272,0.976-0.728c0.04-0.112,0.056-0.248,0.056-0.376V115.902z"/>
		<path d="M194.526,117.325c0,0.336,0.016,0.664,0.057,0.928h-0.633l-0.063-0.488h-0.024c-0.207,0.304-0.631,0.576-1.183,0.576    c-0.784,0-1.184-0.552-1.184-1.111c0-0.936,0.831-1.447,2.327-1.439v-0.08c0-0.32-0.088-0.904-0.88-0.896    c-0.368,0-0.743,0.104-1.016,0.288l-0.159-0.472c0.319-0.2,0.791-0.336,1.279-0.336c1.191,0,1.479,0.808,1.479,1.583V117.325z     M193.839,116.277c-0.768-0.016-1.639,0.12-1.639,0.872c0,0.464,0.303,0.672,0.655,0.672c0.512,0,0.839-0.32,0.952-0.648    c0.023-0.072,0.031-0.152,0.031-0.224V116.277z"/>
		<path d="M195.991,113.727c-0.256,0-0.424-0.2-0.424-0.432c0-0.248,0.176-0.44,0.44-0.44c0.256,0,0.432,0.192,0.432,0.44    c0,0.231-0.168,0.432-0.44,0.432H195.991z M195.655,118.252v-3.87h0.704v3.87H195.655z"/>
		<path d="M197.528,115.43c0-0.408-0.008-0.728-0.032-1.048h0.624l0.039,0.632h0.017c0.192-0.36,0.64-0.72,1.279-0.72    c0.536,0,1.367,0.32,1.367,1.647v2.311h-0.704v-2.231c0-0.624-0.231-1.151-0.895-1.151c-0.457,0-0.816,0.328-0.943,0.72    c-0.033,0.088-0.049,0.216-0.049,0.328v2.335h-0.703V115.43z"/>
		<path d="M201.872,117.533c0.216,0.128,0.584,0.272,0.936,0.272c0.504,0,0.744-0.248,0.744-0.576c0-0.336-0.201-0.512-0.713-0.704    c-0.703-0.256-1.031-0.64-1.031-1.095c0-0.624,0.512-1.136,1.336-1.136c0.392,0,0.735,0.104,0.943,0.24l-0.168,0.503    c-0.152-0.088-0.432-0.224-0.791-0.224c-0.416,0-0.641,0.24-0.641,0.528c0,0.319,0.225,0.463,0.729,0.664    c0.663,0.248,1.016,0.583,1.016,1.159c0,0.688-0.537,1.167-1.439,1.167c-0.424,0-0.816-0.112-1.088-0.272L201.872,117.533z"/>
		<path d="M205.88,119.388c0.328-0.024,0.6-0.112,0.768-0.296c0.192-0.216,0.271-0.527,0.271-1.455v-3.254h0.705v3.526    c0,0.751-0.121,1.239-0.465,1.591c-0.312,0.312-0.823,0.44-1.199,0.44L205.88,119.388z M207.255,113.727    c-0.256,0-0.424-0.2-0.424-0.432c0-0.248,0.177-0.44,0.44-0.44s0.432,0.192,0.432,0.44c0,0.231-0.159,0.432-0.439,0.432H207.255z"/>
		<path d="M210.351,118.34c-1.039,0-1.855-0.768-1.855-1.991c0-1.295,0.855-2.055,1.92-2.055c1.111,0,1.863,0.808,1.863,1.983    c0,1.439-1,2.063-1.92,2.063H210.351z M210.383,117.812c0.671,0,1.175-0.631,1.175-1.511c0-0.655-0.328-1.479-1.158-1.479    c-0.824,0-1.184,0.768-1.184,1.503c0,0.847,0.479,1.487,1.158,1.487H210.383z"/>
		<path d="M213.169,112.576h0.703v2.422h0.016c0.248-0.432,0.695-0.704,1.32-0.704c0.959,0,1.631,0.8,1.631,1.967    c0,1.391-0.881,2.079-1.744,2.079c-0.559,0-1-0.216-1.295-0.728h-0.016l-0.041,0.64h-0.607c0.025-0.264,0.033-0.656,0.033-1    V112.576z M213.872,116.701c0,0.088,0.008,0.176,0.023,0.256c0.137,0.488,0.553,0.824,1.057,0.824c0.742,0,1.174-0.6,1.174-1.487    c0-0.784-0.398-1.447-1.15-1.447c-0.48,0-0.928,0.336-1.064,0.864c-0.023,0.088-0.039,0.184-0.039,0.296V116.701z"/>
		<path d="M217.624,117.533c0.217,0.128,0.584,0.272,0.936,0.272c0.504,0,0.744-0.248,0.744-0.576c0-0.336-0.201-0.512-0.713-0.704    c-0.703-0.256-1.031-0.64-1.031-1.095c0-0.624,0.512-1.136,1.336-1.136c0.391,0,0.736,0.104,0.943,0.24l-0.168,0.503    c-0.152-0.088-0.432-0.224-0.791-0.224c-0.416,0-0.641,0.24-0.641,0.528c0,0.319,0.225,0.463,0.729,0.664    c0.664,0.248,1.016,0.583,1.016,1.159c0,0.688-0.537,1.167-1.439,1.167c-0.424,0-0.816-0.112-1.088-0.272L217.624,117.533z"/>
		<path d="M220.433,119.244c0.176-0.479,0.391-1.335,0.479-1.919l0.785-0.08c-0.193,0.68-0.545,1.567-0.768,1.943L220.433,119.244z"/>
		<path d="M225.087,113.455v0.927h1.008v0.536h-1.008v2.079c0,0.48,0.137,0.751,0.527,0.751c0.191,0,0.305-0.016,0.408-0.048    l0.031,0.536c-0.135,0.048-0.352,0.096-0.623,0.096c-0.328,0-0.592-0.112-0.76-0.296c-0.191-0.216-0.271-0.56-0.271-1.016v-2.103    h-0.6v-0.536h0.6v-0.711L225.087,113.455z"/>
		<path d="M226.888,115.59c0-0.456-0.008-0.848-0.033-1.208h0.615l0.033,0.76h0.023c0.176-0.52,0.607-0.848,1.08-0.848    c0.072,0,0.127,0.008,0.191,0.016v0.664c-0.072-0.008-0.145-0.016-0.24-0.016c-0.496,0-0.848,0.375-0.943,0.896    c-0.016,0.104-0.023,0.216-0.023,0.328v2.071h-0.703V115.59z"/>
		<path d="M232.229,117.325c0,0.336,0.016,0.664,0.057,0.928h-0.633l-0.062-0.488h-0.025c-0.207,0.304-0.631,0.576-1.184,0.576    c-0.783,0-1.182-0.552-1.182-1.111c0-0.936,0.83-1.447,2.326-1.439v-0.08c0-0.32-0.088-0.904-0.879-0.896    c-0.369,0-0.744,0.104-1.016,0.288l-0.16-0.472c0.318-0.2,0.791-0.336,1.279-0.336c1.191,0,1.479,0.808,1.479,1.583V117.325z     M231.542,116.277c-0.768-0.016-1.639,0.12-1.639,0.872c0,0.464,0.303,0.672,0.654,0.672c0.512,0,0.84-0.32,0.953-0.648    c0.023-0.072,0.031-0.152,0.031-0.224V116.277z"/>
		<path d="M236.702,112.576v4.677c0,0.344,0.008,0.736,0.031,1h-0.631l-0.033-0.672h-0.016c-0.215,0.432-0.68,0.76-1.311,0.76    c-0.936,0-1.664-0.792-1.664-1.967c-0.008-1.295,0.801-2.079,1.736-2.079c0.6,0,0.998,0.28,1.166,0.584h0.018v-2.303H236.702z     M235.999,115.958c0-0.096-0.01-0.208-0.033-0.304c-0.104-0.439-0.488-0.808-1.016-0.808c-0.727,0-1.158,0.64-1.158,1.487    c0,0.792,0.391,1.439,1.143,1.439c0.473,0,0.904-0.32,1.031-0.848c0.023-0.088,0.033-0.184,0.033-0.296V115.958z"/>
		<path d="M238.208,113.727c-0.256,0-0.424-0.2-0.424-0.432c0-0.248,0.176-0.44,0.439-0.44c0.256,0,0.432,0.192,0.432,0.44    c0,0.231-0.168,0.432-0.439,0.432H238.208z M237.872,118.252v-3.87h0.703v3.87H237.872z"/>
		<path d="M239.743,115.43c0-0.408-0.008-0.728-0.031-1.048h0.623l0.041,0.632h0.016c0.191-0.36,0.639-0.72,1.279-0.72    c0.535,0,1.367,0.32,1.367,1.647v2.311h-0.705v-2.231c0-0.624-0.23-1.151-0.895-1.151c-0.455,0-0.816,0.328-0.943,0.72    c-0.031,0.088-0.049,0.216-0.049,0.328v2.335h-0.703V115.43z"/>
		<path d="M247.493,117.685c0,0.896-0.184,1.431-0.553,1.775c-0.383,0.344-0.926,0.463-1.414,0.463c-0.465,0-0.977-0.112-1.287-0.32    l0.176-0.543c0.256,0.168,0.656,0.312,1.135,0.312c0.721,0,1.248-0.375,1.248-1.359v-0.424h-0.016    c-0.209,0.36-0.633,0.647-1.232,0.647c-0.959,0-1.646-0.815-1.646-1.895c0-1.311,0.855-2.047,1.75-2.047    c0.672,0,1.031,0.344,1.209,0.672h0.016l0.023-0.584h0.623c-0.023,0.272-0.031,0.592-0.031,1.056V117.685z M246.79,115.902    c0-0.112-0.008-0.216-0.041-0.312c-0.127-0.416-0.463-0.751-0.982-0.751c-0.672,0-1.152,0.567-1.152,1.471    c0,0.751,0.393,1.391,1.145,1.391c0.439,0,0.83-0.272,0.975-0.728c0.039-0.112,0.057-0.248,0.057-0.376V115.902z"/>
		<path d="M250.351,115.646c0-0.496-0.008-0.896-0.031-1.264h0.631l0.041,0.664h0.016c0.279-0.48,0.744-0.752,1.367-0.752    c0.943,0,1.646,0.792,1.646,1.967c0,1.391-0.855,2.079-1.758,2.079c-0.521,0-0.961-0.224-1.191-0.607h-0.018v2.103h-0.703V115.646    z M251.054,116.677c0,0.096,0.008,0.2,0.033,0.288c0.119,0.487,0.551,0.823,1.047,0.823c0.744,0,1.176-0.607,1.176-1.495    c0-0.775-0.4-1.439-1.145-1.439c-0.479,0-0.936,0.335-1.07,0.872c-0.016,0.088-0.041,0.191-0.041,0.28V116.677z"/>
		<path d="M257.63,117.325c0,0.336,0.016,0.664,0.055,0.928h-0.631l-0.064-0.488h-0.023c-0.209,0.304-0.633,0.576-1.184,0.576    c-0.783,0-1.184-0.552-1.184-1.111c0-0.936,0.832-1.447,2.326-1.439v-0.08c0-0.32-0.088-0.904-0.879-0.896    c-0.367,0-0.744,0.104-1.016,0.288l-0.16-0.472c0.32-0.2,0.793-0.336,1.279-0.336c1.191,0,1.48,0.808,1.48,1.583V117.325z     M256.942,116.277c-0.768-0.016-1.641,0.12-1.641,0.872c0,0.464,0.305,0.672,0.656,0.672c0.512,0,0.84-0.32,0.951-0.648    c0.023-0.072,0.033-0.152,0.033-0.224V116.277z"/>
		<path d="M258.759,115.59c0-0.456-0.008-0.848-0.031-1.208h0.615l0.031,0.76h0.025c0.176-0.52,0.607-0.848,1.078-0.848    c0.072,0,0.129,0.008,0.193,0.016v0.664c-0.072-0.008-0.145-0.016-0.24-0.016c-0.496,0-0.848,0.375-0.943,0.896    c-0.018,0.104-0.025,0.216-0.025,0.328v2.071h-0.703V115.59z"/>
		<path d="M262.224,113.455v0.927h1.006v0.536h-1.006v2.079c0,0.48,0.135,0.751,0.527,0.751c0.191,0,0.303-0.016,0.408-0.048    l0.031,0.536c-0.137,0.048-0.352,0.096-0.623,0.096c-0.328,0-0.592-0.112-0.76-0.296c-0.193-0.216-0.273-0.56-0.273-1.016v-2.103    h-0.6v-0.536h0.6v-0.711L262.224,113.455z"/>
		<path d="M264.022,115.43c0-0.408-0.008-0.728-0.031-1.048h0.623l0.041,0.632h0.016c0.191-0.36,0.639-0.72,1.279-0.72    c0.535,0,1.367,0.32,1.367,1.647v2.311h-0.705v-2.231c0-0.624-0.23-1.151-0.895-1.151c-0.455,0-0.816,0.328-0.943,0.72    c-0.031,0.088-0.049,0.216-0.049,0.328v2.335h-0.703V115.43z"/>
		<path d="M268.862,116.445c0.016,0.944,0.617,1.335,1.32,1.335c0.504,0,0.814-0.088,1.07-0.2l0.129,0.504    c-0.248,0.112-0.68,0.248-1.295,0.248c-1.184,0-1.904-0.792-1.904-1.951c0-1.167,0.695-2.087,1.824-2.087    c1.264,0,1.59,1.111,1.59,1.823c0,0.144-0.008,0.248-0.023,0.328H268.862z M270.917,115.942c0.008-0.448-0.184-1.144-0.967-1.144    c-0.719,0-1.023,0.656-1.08,1.144H270.917z"/>
		<path d="M272.472,115.59c0-0.456-0.008-0.848-0.033-1.208h0.615l0.033,0.76h0.023c0.176-0.52,0.607-0.848,1.08-0.848    c0.072,0,0.127,0.008,0.191,0.016v0.664c-0.072-0.008-0.145-0.016-0.24-0.016c-0.496,0-0.848,0.375-0.943,0.896    c-0.016,0.104-0.023,0.216-0.023,0.328v2.071h-0.703V115.59z"/>
		<path d="M276.782,112.576h0.703v5.677h-0.703V112.576z"/>
		<path d="M280.245,118.34c-1.039,0-1.855-0.768-1.855-1.991c0-1.295,0.855-2.055,1.92-2.055c1.111,0,1.863,0.808,1.863,1.983    c0,1.439-1,2.063-1.92,2.063H280.245z M280.276,117.812c0.672,0,1.176-0.631,1.176-1.511c0-0.655-0.328-1.479-1.158-1.479    c-0.824,0-1.184,0.768-1.184,1.503c0,0.847,0.479,1.487,1.158,1.487H280.276z"/>
		<path d="M282.966,117.533c0.217,0.128,0.584,0.272,0.936,0.272c0.504,0,0.744-0.248,0.744-0.576c0-0.336-0.199-0.512-0.711-0.704    c-0.703-0.256-1.031-0.64-1.031-1.095c0-0.624,0.512-1.136,1.334-1.136c0.393,0,0.736,0.104,0.943,0.24l-0.168,0.503    c-0.15-0.088-0.432-0.224-0.791-0.224c-0.416,0-0.639,0.24-0.639,0.528c0,0.319,0.223,0.463,0.727,0.664    c0.664,0.248,1.016,0.583,1.016,1.159c0,0.688-0.535,1.167-1.439,1.167c-0.424,0-0.814-0.112-1.086-0.272L282.966,117.533z"/>
		<path d="M286.63,116.445c0.016,0.944,0.617,1.335,1.32,1.335c0.504,0,0.814-0.088,1.07-0.2l0.129,0.504    c-0.248,0.112-0.68,0.248-1.295,0.248c-1.184,0-1.904-0.792-1.904-1.951c0-1.167,0.695-2.087,1.824-2.087    c1.264,0,1.59,1.111,1.59,1.823c0,0.144-0.008,0.248-0.023,0.328H286.63z M288.685,115.942c0.008-0.448-0.184-1.144-0.967-1.144    c-0.719,0-1.023,0.656-1.08,1.144H288.685z"/>
		<path d="M290.142,117.533c0.217,0.128,0.584,0.272,0.936,0.272c0.504,0,0.744-0.248,0.744-0.576c0-0.336-0.199-0.512-0.711-0.704    c-0.703-0.256-1.031-0.64-1.031-1.095c0-0.624,0.512-1.136,1.334-1.136c0.393,0,0.736,0.104,0.943,0.24l-0.168,0.503    c-0.15-0.088-0.432-0.224-0.791-0.224c-0.416,0-0.639,0.24-0.639,0.528c0,0.319,0.223,0.463,0.727,0.664    c0.664,0.248,1.016,0.583,1.016,1.159c0,0.688-0.535,1.167-1.439,1.167c-0.424,0-0.814-0.112-1.086-0.272L290.142,117.533z"/>
		<path d="M294.149,119.388c0.328-0.024,0.6-0.112,0.768-0.296c0.193-0.216,0.273-0.527,0.273-1.455v-3.254h0.703v3.526    c0,0.751-0.121,1.239-0.465,1.591c-0.311,0.312-0.822,0.44-1.199,0.44L294.149,119.388z M295.526,113.727    c-0.256,0-0.424-0.2-0.424-0.432c0-0.248,0.176-0.44,0.439-0.44s0.432,0.192,0.432,0.44c0,0.231-0.16,0.432-0.439,0.432H295.526z"/>
		<path d="M298.622,118.34c-1.041,0-1.855-0.768-1.855-1.991c0-1.295,0.855-2.055,1.918-2.055c1.111,0,1.863,0.808,1.863,1.983    c0,1.439-1,2.063-1.918,2.063H298.622z M298.653,117.812c0.672,0,1.176-0.631,1.176-1.511c0-0.655-0.328-1.479-1.16-1.479    c-0.824,0-1.184,0.768-1.184,1.503c0,0.847,0.48,1.487,1.16,1.487H298.653z"/>
		<path d="M301.438,112.576h0.703v2.422h0.016c0.248-0.432,0.695-0.704,1.32-0.704c0.959,0,1.631,0.8,1.631,1.967    c0,1.391-0.881,2.079-1.744,2.079c-0.559,0-1-0.216-1.295-0.728h-0.016l-0.041,0.64h-0.607c0.025-0.264,0.033-0.656,0.033-1    V112.576z M302.142,116.701c0,0.088,0.008,0.176,0.023,0.256c0.137,0.488,0.553,0.824,1.057,0.824c0.742,0,1.174-0.6,1.174-1.487    c0-0.784-0.398-1.447-1.15-1.447c-0.48,0-0.928,0.336-1.064,0.864c-0.023,0.088-0.039,0.184-0.039,0.296V116.701z"/>
		<path d="M305.894,117.533c0.217,0.128,0.584,0.272,0.936,0.272c0.504,0,0.744-0.248,0.744-0.576c0-0.336-0.199-0.512-0.711-0.704    c-0.703-0.256-1.031-0.64-1.031-1.095c0-0.624,0.512-1.136,1.334-1.136c0.393,0,0.736,0.104,0.943,0.24l-0.168,0.503    c-0.15-0.088-0.432-0.224-0.791-0.224c-0.416,0-0.639,0.24-0.639,0.528c0,0.319,0.223,0.463,0.727,0.664    c0.664,0.248,1.016,0.583,1.016,1.159c0,0.688-0.535,1.167-1.439,1.167c-0.424,0-0.814-0.112-1.086-0.272L305.894,117.533z"/>
	</g>
	
		<rect x="166.487" y="123.412" fill="#808285" stroke="#000000" stroke-width="0.5" stroke-linejoin="round" stroke-miterlimit="10" width="6" height="6"/>
	<g>
		<path d="M176.773,123.197v3.198c0,1.2,0.535,1.711,1.255,1.711c0.792,0,1.312-0.528,1.312-1.711v-3.198h0.703v3.15    c0,1.655-0.871,2.327-2.039,2.327c-1.103,0-1.935-0.624-1.935-2.303v-3.174H176.773z"/>
		<path d="M181.165,127.739c0.312,0.192,0.76,0.344,1.239,0.344c0.712,0,1.128-0.368,1.128-0.911c0-0.504-0.288-0.8-1.016-1.072    c-0.88-0.304-1.423-0.768-1.423-1.519c0-0.839,0.695-1.463,1.742-1.463c0.544,0,0.952,0.128,1.184,0.256l-0.191,0.575    c-0.168-0.104-0.528-0.256-1.016-0.256c-0.735,0-1.016,0.44-1.016,0.808c0,0.496,0.328,0.744,1.071,1.032    c0.911,0.36,1.367,0.792,1.367,1.583c0,0.824-0.607,1.551-1.879,1.551c-0.52,0-1.087-0.16-1.375-0.352L181.165,127.739z"/>
		<path d="M190.179,128.019c0,0.896-0.184,1.431-0.552,1.775c-0.384,0.344-0.927,0.463-1.415,0.463c-0.464,0-0.976-0.112-1.287-0.32    l0.176-0.543c0.256,0.168,0.655,0.312,1.136,0.312c0.72,0,1.247-0.375,1.247-1.359v-0.424h-0.016    c-0.208,0.36-0.632,0.647-1.231,0.647c-0.96,0-1.647-0.815-1.647-1.895c0-1.311,0.855-2.047,1.751-2.047    c0.672,0,1.031,0.344,1.207,0.672h0.017l0.023-0.584h0.624c-0.023,0.272-0.032,0.592-0.032,1.056V128.019z M189.476,126.236    c0-0.112-0.008-0.216-0.04-0.312c-0.128-0.416-0.464-0.751-0.983-0.751c-0.672,0-1.151,0.567-1.151,1.471    c0,0.751,0.392,1.391,1.144,1.391c0.439,0,0.831-0.272,0.976-0.728c0.039-0.112,0.056-0.248,0.056-0.376V126.236z"/>
		<path d="M194.068,127.659c0,0.336,0.016,0.664,0.056,0.928h-0.632l-0.063-0.488h-0.024c-0.208,0.304-0.632,0.576-1.184,0.576    c-0.783,0-1.183-0.552-1.183-1.111c0-0.936,0.831-1.447,2.326-1.439v-0.08c0-0.32-0.088-0.904-0.88-0.896    c-0.367,0-0.743,0.104-1.015,0.288l-0.16-0.472c0.319-0.2,0.792-0.336,1.279-0.336c1.191,0,1.479,0.808,1.479,1.583V127.659z     M193.381,126.611c-0.768-0.016-1.64,0.12-1.64,0.872c0,0.464,0.304,0.672,0.655,0.672c0.512,0,0.84-0.32,0.952-0.648    c0.023-0.072,0.032-0.152,0.032-0.224V126.611z"/>
		<path d="M195.533,124.061c-0.256,0-0.424-0.2-0.424-0.432c0-0.248,0.176-0.44,0.439-0.44c0.256,0,0.432,0.192,0.432,0.44    c0,0.231-0.168,0.432-0.439,0.432H195.533z M195.197,128.586v-3.87h0.703v3.87H195.197z"/>
		<path d="M197.069,125.764c0-0.408-0.009-0.728-0.032-1.048h0.624l0.04,0.632h0.016c0.191-0.36,0.64-0.72,1.279-0.72    c0.535,0,1.367,0.32,1.367,1.647v2.311h-0.704v-2.231c0-0.624-0.231-1.151-0.896-1.151c-0.455,0-0.815,0.328-0.943,0.72    c-0.031,0.088-0.048,0.216-0.048,0.328v2.335h-0.703V125.764z"/>
		<path d="M201.413,127.867c0.216,0.128,0.584,0.272,0.936,0.272c0.504,0,0.744-0.248,0.744-0.576c0-0.336-0.2-0.512-0.712-0.704    c-0.703-0.256-1.031-0.64-1.031-1.095c0-0.624,0.512-1.136,1.335-1.136c0.392,0,0.735,0.104,0.943,0.24l-0.168,0.503    c-0.151-0.088-0.432-0.224-0.791-0.224c-0.416,0-0.64,0.24-0.64,0.528c0,0.319,0.224,0.463,0.728,0.664    c0.663,0.248,1.016,0.583,1.016,1.159c0,0.688-0.536,1.167-1.439,1.167c-0.424,0-0.815-0.112-1.087-0.272L201.413,127.867z"/>
		<path d="M205.421,129.722c0.328-0.024,0.6-0.112,0.768-0.296c0.192-0.216,0.272-0.527,0.272-1.455v-3.254h0.703v3.526    c0,0.751-0.12,1.239-0.464,1.591c-0.312,0.312-0.823,0.44-1.199,0.44L205.421,129.722z M206.797,124.061    c-0.256,0-0.424-0.2-0.424-0.432c0-0.248,0.176-0.44,0.439-0.44s0.432,0.192,0.432,0.44c0,0.231-0.16,0.432-0.439,0.432H206.797z"/>
		<path d="M209.893,128.674c-1.04,0-1.855-0.768-1.855-1.991c0-1.295,0.855-2.055,1.919-2.055c1.111,0,1.863,0.808,1.863,1.983    c0,1.439-1,2.063-1.919,2.063H209.893z M209.924,128.146c0.672,0,1.176-0.631,1.176-1.511c0-0.655-0.328-1.479-1.159-1.479    c-0.824,0-1.184,0.768-1.184,1.503c0,0.847,0.479,1.487,1.159,1.487H209.924z"/>
		<path d="M212.709,122.91h0.703v2.422h0.017c0.247-0.432,0.695-0.704,1.319-0.704c0.959,0,1.631,0.8,1.631,1.967    c0,1.391-0.88,2.079-1.743,2.079c-0.56,0-1-0.216-1.296-0.728h-0.016l-0.04,0.64h-0.607c0.024-0.264,0.032-0.656,0.032-1V122.91z     M213.412,127.035c0,0.088,0.008,0.176,0.024,0.256c0.136,0.488,0.552,0.824,1.056,0.824c0.743,0,1.175-0.6,1.175-1.487    c0-0.784-0.399-1.447-1.151-1.447c-0.479,0-0.928,0.336-1.063,0.864c-0.023,0.088-0.04,0.184-0.04,0.296V127.035z"/>
		<path d="M217.164,127.867c0.217,0.128,0.584,0.272,0.936,0.272c0.504,0,0.744-0.248,0.744-0.576c0-0.336-0.2-0.512-0.712-0.704    c-0.703-0.256-1.031-0.64-1.031-1.095c0-0.624,0.512-1.136,1.335-1.136c0.392,0,0.736,0.104,0.943,0.24l-0.168,0.503    c-0.151-0.088-0.432-0.224-0.791-0.224c-0.416,0-0.64,0.24-0.64,0.528c0,0.319,0.224,0.463,0.728,0.664    c0.664,0.248,1.016,0.583,1.016,1.159c0,0.688-0.536,1.167-1.439,1.167c-0.424,0-0.815-0.112-1.088-0.272L217.164,127.867z"/>
		<path d="M219.973,129.578c0.176-0.479,0.392-1.335,0.479-1.919l0.784-0.08c-0.192,0.68-0.544,1.567-0.768,1.943L219.973,129.578z"/>
		<path d="M224.629,123.789v0.927h1.007v0.536h-1.007v2.079c0,0.48,0.136,0.751,0.527,0.751c0.191,0,0.304-0.016,0.408-0.048    l0.031,0.536c-0.136,0.048-0.352,0.096-0.623,0.096c-0.328,0-0.592-0.112-0.76-0.296c-0.192-0.216-0.272-0.56-0.272-1.016v-2.103    h-0.6v-0.536h0.6v-0.711L224.629,123.789z"/>
		<path d="M226.429,125.924c0-0.456-0.009-0.848-0.032-1.208h0.615l0.032,0.76h0.024c0.176-0.52,0.607-0.848,1.079-0.848    c0.072,0,0.128,0.008,0.192,0.016v0.664c-0.072-0.008-0.145-0.016-0.24-0.016c-0.496,0-0.848,0.375-0.943,0.896    c-0.017,0.104-0.024,0.216-0.024,0.328v2.071h-0.703V125.924z"/>
		<path d="M231.771,127.659c0,0.336,0.016,0.664,0.056,0.928h-0.632l-0.063-0.488h-0.024c-0.208,0.304-0.632,0.576-1.184,0.576    c-0.783,0-1.183-0.552-1.183-1.111c0-0.936,0.831-1.447,2.326-1.439v-0.08c0-0.32-0.088-0.904-0.88-0.896    c-0.367,0-0.743,0.104-1.015,0.288l-0.16-0.472c0.319-0.2,0.792-0.336,1.279-0.336c1.191,0,1.479,0.808,1.479,1.583V127.659z     M231.084,126.611c-0.768-0.016-1.64,0.12-1.64,0.872c0,0.464,0.304,0.672,0.655,0.672c0.512,0,0.84-0.32,0.952-0.648    c0.023-0.072,0.032-0.152,0.032-0.224V126.611z"/>
		<path d="M236.242,122.91v4.677c0,0.344,0.008,0.736,0.032,1h-0.632l-0.032-0.672h-0.016c-0.216,0.432-0.68,0.76-1.312,0.76    c-0.936,0-1.663-0.792-1.663-1.967c-0.008-1.295,0.8-2.079,1.735-2.079c0.6,0,0.999,0.28,1.167,0.584h0.017v-2.303H236.242z     M235.539,126.292c0-0.096-0.009-0.208-0.032-0.304c-0.104-0.439-0.488-0.808-1.016-0.808c-0.728,0-1.159,0.64-1.159,1.487    c0,0.792,0.392,1.439,1.144,1.439c0.472,0,0.903-0.32,1.031-0.848c0.023-0.088,0.032-0.184,0.032-0.296V126.292z"/>
		<path d="M237.748,124.061c-0.256,0-0.424-0.2-0.424-0.432c0-0.248,0.176-0.44,0.439-0.44c0.256,0,0.432,0.192,0.432,0.44    c0,0.231-0.168,0.432-0.439,0.432H237.748z M237.412,128.586v-3.87h0.703v3.87H237.412z"/>
		<path d="M239.284,125.764c0-0.408-0.009-0.728-0.032-1.048h0.624l0.04,0.632h0.016c0.191-0.36,0.64-0.72,1.279-0.72    c0.535,0,1.367,0.32,1.367,1.647v2.311h-0.704v-2.231c0-0.624-0.231-1.151-0.896-1.151c-0.455,0-0.815,0.328-0.943,0.72    c-0.031,0.088-0.048,0.216-0.048,0.328v2.335h-0.703V125.764z"/>
		<path d="M247.034,128.019c0,0.896-0.184,1.431-0.552,1.775c-0.384,0.344-0.927,0.463-1.415,0.463c-0.464,0-0.976-0.112-1.287-0.32    l0.176-0.543c0.256,0.168,0.655,0.312,1.136,0.312c0.72,0,1.247-0.375,1.247-1.359v-0.424h-0.016    c-0.208,0.36-0.632,0.647-1.231,0.647c-0.96,0-1.647-0.815-1.647-1.895c0-1.311,0.855-2.047,1.751-2.047    c0.672,0,1.031,0.344,1.207,0.672h0.017l0.023-0.584h0.624c-0.023,0.272-0.032,0.592-0.032,1.056V128.019z M246.331,126.236    c0-0.112-0.008-0.216-0.04-0.312c-0.128-0.416-0.464-0.751-0.983-0.751c-0.672,0-1.151,0.567-1.151,1.471    c0,0.751,0.392,1.391,1.144,1.391c0.439,0,0.831-0.272,0.976-0.728c0.039-0.112,0.056-0.248,0.056-0.376V126.236z"/>
		<path d="M249.893,125.98c0-0.496-0.008-0.896-0.032-1.264h0.632l0.04,0.664h0.016c0.28-0.48,0.743-0.752,1.367-0.752    c0.943,0,1.647,0.792,1.647,1.967c0,1.391-0.855,2.079-1.76,2.079c-0.52,0-0.959-0.224-1.19-0.607h-0.017v2.103h-0.703V125.98z     M250.596,127.011c0,0.096,0.008,0.2,0.032,0.288c0.12,0.487,0.552,0.823,1.048,0.823c0.743,0,1.175-0.607,1.175-1.495    c0-0.775-0.399-1.439-1.144-1.439c-0.479,0-0.936,0.335-1.071,0.872c-0.016,0.088-0.04,0.191-0.04,0.28V127.011z"/>
		<path d="M257.171,127.659c0,0.336,0.016,0.664,0.056,0.928h-0.632l-0.063-0.488h-0.024c-0.208,0.304-0.632,0.576-1.184,0.576    c-0.783,0-1.183-0.552-1.183-1.111c0-0.936,0.831-1.447,2.326-1.439v-0.08c0-0.32-0.088-0.904-0.879-0.896    c-0.368,0-0.744,0.104-1.016,0.288l-0.16-0.472c0.319-0.2,0.791-0.336,1.279-0.336c1.191,0,1.479,0.808,1.479,1.583V127.659z     M256.482,126.611c-0.768-0.016-1.639,0.12-1.639,0.872c0,0.464,0.304,0.672,0.655,0.672c0.512,0,0.84-0.32,0.952-0.648    c0.023-0.072,0.031-0.152,0.031-0.224V126.611z"/>
		<path d="M258.3,125.924c0-0.456-0.009-0.848-0.032-1.208h0.615l0.032,0.76h0.024c0.176-0.52,0.607-0.848,1.079-0.848    c0.072,0,0.128,0.008,0.192,0.016v0.664c-0.072-0.008-0.145-0.016-0.24-0.016c-0.496,0-0.848,0.375-0.943,0.896    c-0.017,0.104-0.024,0.216-0.024,0.328v2.071H258.3V125.924z"/>
		<path d="M261.764,123.789v0.927h1.007v0.536h-1.007v2.079c0,0.48,0.136,0.751,0.527,0.751c0.191,0,0.304-0.016,0.408-0.048    l0.031,0.536c-0.136,0.048-0.352,0.096-0.623,0.096c-0.328,0-0.592-0.112-0.76-0.296c-0.192-0.216-0.272-0.56-0.272-1.016v-2.103    h-0.6v-0.536h0.6v-0.711L261.764,123.789z"/>
		<path d="M263.564,125.764c0-0.408-0.008-0.728-0.032-1.048h0.624l0.039,0.632h0.017c0.191-0.36,0.64-0.72,1.279-0.72    c0.535,0,1.367,0.32,1.367,1.647v2.311h-0.704v-2.231c0-0.624-0.231-1.151-0.896-1.151c-0.455,0-0.815,0.328-0.943,0.72    c-0.031,0.088-0.048,0.216-0.048,0.328v2.335h-0.703V125.764z"/>
		<path d="M268.403,126.779c0.016,0.944,0.616,1.335,1.319,1.335c0.504,0,0.815-0.088,1.071-0.2l0.128,0.504    c-0.248,0.112-0.68,0.248-1.295,0.248c-1.184,0-1.903-0.792-1.903-1.951c0-1.167,0.695-2.087,1.823-2.087    c1.264,0,1.591,1.111,1.591,1.823c0,0.144-0.008,0.248-0.023,0.328H268.403z M270.458,126.276    c0.008-0.448-0.184-1.144-0.967-1.144c-0.72,0-1.023,0.656-1.08,1.144H270.458z"/>
		<path d="M272.012,125.924c0-0.456-0.008-0.848-0.032-1.208h0.615l0.032,0.76h0.024c0.176-0.52,0.607-0.848,1.079-0.848    c0.072,0,0.128,0.008,0.191,0.016v0.664c-0.071-0.008-0.144-0.016-0.239-0.016c-0.496,0-0.848,0.375-0.943,0.896    c-0.017,0.104-0.024,0.216-0.024,0.328v2.071h-0.703V125.924z"/>
		<path d="M279.634,128.019c0,0.896-0.184,1.431-0.552,1.775c-0.384,0.344-0.927,0.463-1.415,0.463c-0.464,0-0.976-0.112-1.287-0.32    l0.176-0.543c0.256,0.168,0.655,0.312,1.136,0.312c0.72,0,1.247-0.375,1.247-1.359v-0.424h-0.016    c-0.208,0.36-0.632,0.647-1.231,0.647c-0.96,0-1.647-0.815-1.647-1.895c0-1.311,0.855-2.047,1.751-2.047    c0.672,0,1.031,0.344,1.207,0.672h0.017l0.023-0.584h0.624c-0.023,0.272-0.032,0.592-0.032,1.056V128.019z M278.931,126.236    c0-0.112-0.008-0.216-0.04-0.312c-0.128-0.416-0.464-0.751-0.983-0.751c-0.672,0-1.151,0.567-1.151,1.471    c0,0.751,0.392,1.391,1.144,1.391c0.439,0,0.831-0.272,0.976-0.728c0.039-0.112,0.056-0.248,0.056-0.376V126.236z"/>
		<path d="M283.522,127.659c0,0.336,0.016,0.664,0.056,0.928h-0.632l-0.063-0.488h-0.024c-0.208,0.304-0.632,0.576-1.184,0.576    c-0.783,0-1.183-0.552-1.183-1.111c0-0.936,0.831-1.447,2.326-1.439v-0.08c0-0.32-0.088-0.904-0.879-0.896    c-0.368,0-0.744,0.104-1.016,0.288l-0.16-0.472c0.319-0.2,0.791-0.336,1.279-0.336c1.191,0,1.479,0.808,1.479,1.583V127.659z     M282.834,126.611c-0.768-0.016-1.639,0.12-1.639,0.872c0,0.464,0.304,0.672,0.655,0.672c0.512,0,0.84-0.32,0.952-0.648    c0.023-0.072,0.031-0.152,0.031-0.224V126.611z"/>
		<path d="M284.987,124.061c-0.256,0-0.424-0.2-0.424-0.432c0-0.248,0.176-0.44,0.439-0.44c0.256,0,0.432,0.192,0.432,0.44    c0,0.231-0.168,0.432-0.439,0.432H284.987z M284.651,128.586v-3.87h0.703v3.87H284.651z"/>
		<path d="M286.523,125.764c0-0.408-0.008-0.728-0.032-1.048h0.624l0.039,0.632h0.017c0.191-0.36,0.64-0.72,1.279-0.72    c0.535,0,1.367,0.32,1.367,1.647v2.311h-0.704v-2.231c0-0.624-0.231-1.151-0.896-1.151c-0.455,0-0.815,0.328-0.943,0.72    c-0.031,0.088-0.048,0.216-0.048,0.328v2.335h-0.703V125.764z"/>
		<path d="M290.867,127.867c0.217,0.128,0.584,0.272,0.936,0.272c0.504,0,0.744-0.248,0.744-0.576c0-0.336-0.2-0.512-0.712-0.704    c-0.703-0.256-1.031-0.64-1.031-1.095c0-0.624,0.512-1.136,1.335-1.136c0.392,0,0.736,0.104,0.943,0.24l-0.168,0.503    c-0.151-0.088-0.432-0.224-0.791-0.224c-0.416,0-0.64,0.24-0.64,0.528c0,0.319,0.224,0.463,0.728,0.664    c0.664,0.248,1.016,0.583,1.016,1.159c0,0.688-0.536,1.167-1.439,1.167c-0.424,0-0.815-0.112-1.088-0.272L290.867,127.867z"/>
		<path d="M294.875,129.722c0.328-0.024,0.6-0.112,0.768-0.296c0.192-0.216,0.272-0.527,0.272-1.455v-3.254h0.703v3.526    c0,0.751-0.12,1.239-0.464,1.591c-0.312,0.312-0.823,0.44-1.199,0.44L294.875,129.722z M296.251,124.061    c-0.256,0-0.424-0.2-0.424-0.432c0-0.248,0.176-0.44,0.439-0.44s0.432,0.192,0.432,0.44c0,0.231-0.16,0.432-0.439,0.432H296.251z"/>
		<path d="M299.347,128.674c-1.04,0-1.855-0.768-1.855-1.991c0-1.295,0.855-2.055,1.919-2.055c1.111,0,1.863,0.808,1.863,1.983    c0,1.439-1,2.063-1.919,2.063H299.347z M299.378,128.146c0.672,0,1.176-0.631,1.176-1.511c0-0.655-0.328-1.479-1.159-1.479    c-0.824,0-1.184,0.768-1.184,1.503c0,0.847,0.479,1.487,1.159,1.487H299.378z"/>
		<path d="M302.163,122.91h0.703v2.422h0.017c0.247-0.432,0.695-0.704,1.318-0.704c0.96,0,1.632,0.8,1.632,1.967    c0,1.391-0.88,2.079-1.743,2.079c-0.56,0-1-0.216-1.295-0.728h-0.017l-0.04,0.64h-0.607c0.023-0.264,0.032-0.656,0.032-1V122.91z     M302.866,127.035c0,0.088,0.008,0.176,0.024,0.256c0.136,0.488,0.552,0.824,1.055,0.824c0.744,0,1.176-0.6,1.176-1.487    c0-0.784-0.399-1.447-1.151-1.447c-0.479,0-0.928,0.336-1.063,0.864c-0.023,0.088-0.04,0.184-0.04,0.296V127.035z"/>
		<path d="M306.618,127.867c0.216,0.128,0.584,0.272,0.936,0.272c0.504,0,0.744-0.248,0.744-0.576c0-0.336-0.2-0.512-0.712-0.704    c-0.703-0.256-1.031-0.64-1.031-1.095c0-0.624,0.512-1.136,1.335-1.136c0.392,0,0.735,0.104,0.943,0.24l-0.168,0.503    c-0.151-0.088-0.432-0.224-0.791-0.224c-0.416,0-0.64,0.24-0.64,0.528c0,0.319,0.224,0.463,0.728,0.664    c0.663,0.248,1.016,0.583,1.016,1.159c0,0.688-0.536,1.167-1.439,1.167c-0.424,0-0.815-0.112-1.087-0.272L306.618,127.867z"/>
	</g>
	
		<line fill="none" stroke="#A7A9AC" stroke-width="0.5" stroke-linejoin="round" stroke-miterlimit="10" x1="179.487" y1="2.232" x2="302.394" y2="2.232"/>
	
		<line fill="none" stroke="#A7A9AC" stroke-width="0.5" stroke-linejoin="round" stroke-miterlimit="10" x1="179.487" y1="17.208" x2="302.394" y2="17.208"/>
	
		<line fill="none" stroke="#A7A9AC" stroke-width="0.5" stroke-linejoin="round" stroke-miterlimit="10" x1="179.487" y1="32.185" x2="302.394" y2="32.185"/>
	
		<line fill="none" stroke="#A7A9AC" stroke-width="0.5" stroke-linejoin="round" stroke-miterlimit="10" x1="179.487" y1="47.338" x2="302.394" y2="47.338"/>
	
		<line fill="none" stroke="#A7A9AC" stroke-width="0.5" stroke-linejoin="round" stroke-miterlimit="10" x1="179.487" y1="62.316" x2="302.394" y2="62.316"/>
	
		<line fill="none" stroke="#A7A9AC" stroke-width="0.5" stroke-linejoin="round" stroke-miterlimit="10" x1="179.487" y1="77.292" x2="302.394" y2="77.292"/>
	<polyline fill="none" stroke="#000000" stroke-width="0.5" stroke-linejoin="round" stroke-miterlimit="10" points="   302.433,92.254 179.433,92.254 179.433,2.254  "/>
	
		<line fill="none" stroke="#000000" stroke-width="0.5" stroke-linejoin="round" stroke-miterlimit="10" x1="179.487" y1="2.254" x2="176.487" y2="2.254"/>
	
		<line fill="none" stroke="#000000" stroke-width="0.5" stroke-linejoin="round" stroke-miterlimit="10" x1="179.487" y1="17.254" x2="176.487" y2="17.254"/>
	
		<line fill="none" stroke="#000000" stroke-width="0.5" stroke-linejoin="round" stroke-miterlimit="10" x1="179.487" y1="32.254" x2="176.487" y2="32.254"/>
	
		<line fill="none" stroke="#000000" stroke-width="0.5" stroke-linejoin="round" stroke-miterlimit="10" x1="179.487" y1="47.254" x2="176.487" y2="47.254"/>
	
		<line fill="none" stroke="#000000" stroke-width="0.5" stroke-linejoin="round" stroke-miterlimit="10" x1="179.487" y1="62.254" x2="176.487" y2="62.254"/>
	
		<line fill="none" stroke="#000000" stroke-width="0.5" stroke-linejoin="round" stroke-miterlimit="10" x1="179.487" y1="77.254" x2="176.487" y2="77.254"/>
	
		<line fill="none" stroke="#000000" stroke-width="0.5" stroke-linejoin="round" stroke-miterlimit="10" x1="179.487" y1="92.254" x2="176.487" y2="92.254"/>
	
		<rect x="91.097" y="76.008" fill="#D1D3D4" stroke="#000000" stroke-width="0.5" stroke-miterlimit="10" width="13.742" height="16.222"/>
	
		<rect x="29.58" y="66.955" fill="#D1D3D4" stroke="#000000" stroke-width="0.5" stroke-miterlimit="10" width="13.742" height="25.275"/>
	
		<rect x="47.099" y="44.452" fill-rule="evenodd" clip-rule="evenodd" fill="#808285" stroke="#000000" stroke-width="0.5" stroke-miterlimit="10" width="13.79" height="47.803"/>
	
		<rect x="108.673" y="37.529" fill="#808285" stroke="#000000" stroke-width="0.5" stroke-miterlimit="10" width="13.741" height="54.701"/>
	
		<line fill="none" stroke="#000000" stroke-width="0.5" stroke-linejoin="round" stroke-miterlimit="10" x1="34.533" y1="62.805" x2="38.479" y2="62.805"/>
	
		<line fill="none" stroke="#000000" stroke-width="0.5" stroke-linejoin="round" stroke-miterlimit="10" x1="34.533" y1="70.873" x2="38.479" y2="70.873"/>
	
		<line fill="none" stroke="#000000" stroke-width="0.5" stroke-linejoin="round" stroke-miterlimit="10" x1="36.451" y1="66.954" x2="36.451" y2="62.805"/>
	
		<line fill="none" stroke="#000000" stroke-width="0.5" stroke-linejoin="round" stroke-miterlimit="10" x1="36.451" y1="70.873" x2="36.451" y2="66.954"/>
	
		<line fill="none" stroke="#000000" stroke-width="0.5" stroke-linejoin="round" stroke-miterlimit="10" x1="96.05" y1="73.745" x2="99.979" y2="73.745"/>
	
		<line fill="none" stroke="#000000" stroke-width="0.5" stroke-linejoin="round" stroke-miterlimit="10" x1="96.05" y1="80.5" x2="99.979" y2="80.5"/>
	
		<line fill="none" stroke="#000000" stroke-width="0.5" stroke-linejoin="round" stroke-miterlimit="10" x1="97.968" y1="76.008" x2="97.968" y2="73.745"/>
	
		<line fill="none" stroke="#000000" stroke-width="0.5" stroke-linejoin="round" stroke-miterlimit="10" x1="97.968" y1="80.5" x2="97.968" y2="76.008"/>
	
		<line fill="none" stroke="#000000" stroke-width="0.5" stroke-linejoin="round" stroke-miterlimit="10" x1="51.95" y1="39.981" x2="55.944" y2="39.981"/>
	
		<line fill="none" stroke="#000000" stroke-width="0.5" stroke-linejoin="round" stroke-miterlimit="10" x1="51.95" y1="48.846" x2="55.944" y2="48.846"/>
	
		<line fill="none" stroke="#000000" stroke-width="0.5" stroke-linejoin="round" stroke-miterlimit="10" x1="54.027" y1="44.508" x2="54.027" y2="39.981"/>
	
		<line fill="none" stroke="#000000" stroke-width="0.5" stroke-linejoin="round" stroke-miterlimit="10" x1="54.027" y1="48.846" x2="54.027" y2="44.508"/>
	
		<line fill="none" stroke="#000000" stroke-width="0.5" stroke-linejoin="round" stroke-miterlimit="10" x1="113.466" y1="35.077" x2="117.461" y2="35.077"/>
	
		<line fill="none" stroke="#000000" stroke-width="0.5" stroke-linejoin="round" stroke-miterlimit="10" x1="113.466" y1="39.792" x2="117.461" y2="39.792"/>
	
		<line fill="none" stroke="#000000" stroke-width="0.5" stroke-linejoin="round" stroke-miterlimit="10" x1="115.544" y1="37.529" x2="115.544" y2="35.077"/>
	
		<line fill="none" stroke="#000000" stroke-width="0.5" stroke-linejoin="round" stroke-miterlimit="10" x1="115.544" y1="39.792" x2="115.544" y2="37.529"/>
	
		<rect x="255.987" y="37.529" fill="#D1D3D4" stroke="#000000" stroke-width="0.5" stroke-miterlimit="10" width="13.865" height="54.701"/>
	
		<rect x="194.586" y="44.697" fill="#D1D3D4" stroke="#000000" stroke-width="0.5" stroke-miterlimit="10" width="13.712" height="47.533"/>
	
		<rect x="273.51" y="41.867" fill="#808285" stroke="#000000" stroke-width="0.5" stroke-miterlimit="10" width="13.864" height="50.363"/>
	
		<rect x="212.107" y="33.378" fill="#808285" stroke="#000000" stroke-width="0.5" stroke-miterlimit="10" width="13.713" height="58.852"/>
	
		<line fill="none" stroke="#000000" stroke-width="0.5" stroke-linejoin="round" stroke-miterlimit="10" x1="199.461" y1="42.433" x2="203.271" y2="42.433"/>
	
		<line fill="none" stroke="#000000" stroke-width="0.5" stroke-linejoin="round" stroke-miterlimit="10" x1="199.461" y1="46.959" x2="203.271" y2="46.959"/>
	
		<line fill="none" stroke="#000000" stroke-width="0.5" stroke-linejoin="round" stroke-miterlimit="10" x1="201.441" y1="44.697" x2="201.441" y2="42.433"/>
	
		<line fill="none" stroke="#000000" stroke-width="0.5" stroke-linejoin="round" stroke-miterlimit="10" x1="201.441" y1="46.959" x2="201.441" y2="44.697"/>
	
		<line fill="none" stroke="#000000" stroke-width="0.5" stroke-linejoin="round" stroke-miterlimit="10" x1="261.016" y1="35.265" x2="264.825" y2="35.265"/>
	
		<line fill="none" stroke="#000000" stroke-width="0.5" stroke-linejoin="round" stroke-miterlimit="10" x1="261.016" y1="39.774" x2="264.825" y2="39.774"/>
	
		<line fill="none" stroke="#000000" stroke-width="0.5" stroke-linejoin="round" stroke-miterlimit="10" x1="262.996" y1="37.529" x2="262.996" y2="35.265"/>
	
		<line fill="none" stroke="#000000" stroke-width="0.5" stroke-linejoin="round" stroke-miterlimit="10" x1="262.996" y1="39.774" x2="262.996" y2="37.529"/>
	
		<line fill="none" stroke="#000000" stroke-width="0.5" stroke-linejoin="round" stroke-miterlimit="10" x1="216.982" y1="32.247" x2="220.792" y2="32.247"/>
	
		<line fill="none" stroke="#000000" stroke-width="0.5" stroke-linejoin="round" stroke-miterlimit="10" x1="216.982" y1="34.51" x2="220.792" y2="34.51"/>
	
		<line fill="none" stroke="#000000" stroke-width="0.5" stroke-linejoin="round" stroke-miterlimit="10" x1="218.964" y1="33.378" x2="218.964" y2="32.247"/>
	
		<line fill="none" stroke="#000000" stroke-width="0.5" stroke-linejoin="round" stroke-miterlimit="10" x1="218.964" y1="34.51" x2="218.964" y2="33.378"/>
	
		<line fill="none" stroke="#000000" stroke-width="0.5" stroke-linejoin="round" stroke-miterlimit="10" x1="278.537" y1="40.735" x2="282.344" y2="40.735"/>
	
		<line fill="none" stroke="#000000" stroke-width="0.5" stroke-linejoin="round" stroke-miterlimit="10" x1="278.537" y1="43" x2="282.344" y2="43"/>
	
		<line fill="none" stroke="#000000" stroke-width="0.5" stroke-linejoin="round" stroke-miterlimit="10" x1="280.366" y1="41.868" x2="280.366" y2="40.735"/>
	
		<line fill="none" stroke="#000000" stroke-width="0.5" stroke-linejoin="round" stroke-miterlimit="10" x1="280.366" y1="43" x2="280.366" y2="41.868"/>
</g>
</svg>