<svg xmlns="http://www.w3.org/2000/svg" xmlns:xlink="http://www.w3.org/1999/xlink" version="1.1" x="0px" y="0px" width="355.536px" height="225.688px" viewBox="0 0 355.536 225.688" enable-background="new 0 0 355.536 225.688" xml:space="preserve">
<g id="wide">
</g>
<g id="text_column" display="none">
</g>
<g id="art">
	
		<line fill="none" stroke="#A7A9AC" stroke-width="0.5" stroke-linejoin="round" stroke-miterlimit="10" x1="13.555" y1="70" x2="165.479" y2="70"/>
	<g>
		<path d="M0,13.195v-0.432l0.552-0.536c1.327-1.263,1.935-1.935,1.935-2.718c0-0.528-0.248-1.016-1.023-1.016    c-0.472,0-0.863,0.239-1.103,0.439L0.136,8.437C0.488,8.142,1.007,7.91,1.607,7.91c1.111,0,1.583,0.768,1.583,1.512    c0,0.959-0.696,1.734-1.791,2.79l-0.408,0.384v0.016h2.327v0.584H0z"/>
		<path d="M4.624,13.283c-0.272,0-0.463-0.216-0.463-0.504c0-0.287,0.2-0.504,0.479-0.504s0.472,0.208,0.472,0.504    c0,0.288-0.192,0.504-0.479,0.504H4.624z"/>
		<path d="M6.167,12.699c0.152,0.009,0.328,0,0.568-0.031c0.408-0.049,0.792-0.216,1.087-0.496c0.344-0.32,0.591-0.768,0.688-1.383    H8.486c-0.288,0.352-0.704,0.56-1.231,0.56c-0.936,0-1.535-0.704-1.535-1.6c0-0.976,0.72-1.839,1.783-1.839    s1.719,0.855,1.719,2.19c0,1.144-0.384,1.943-0.896,2.439c-0.399,0.384-0.951,0.631-1.511,0.695    c-0.256,0.032-0.488,0.048-0.647,0.04V12.699z M7.439,8.446c-0.592,0-1.016,0.527-1.016,1.263c0,0.647,0.392,1.104,1,1.104    c0.472,0,0.839-0.231,1.031-0.544c0.032-0.063,0.056-0.144,0.056-0.256c0.008-0.896-0.328-1.566-1.063-1.566H7.439z"/>
		<path d="M0,33.195v-0.432l0.552-0.536c1.327-1.263,1.935-1.935,1.935-2.718c0-0.528-0.248-1.016-1.023-1.016    c-0.472,0-0.863,0.239-1.103,0.439l-0.224-0.496c0.352-0.295,0.872-0.527,1.471-0.527c1.111,0,1.583,0.768,1.583,1.512    c0,0.959-0.696,1.734-1.791,2.79l-0.408,0.384v0.016h2.327v0.584H0z"/>
		<path d="M4.624,33.283c-0.272,0-0.463-0.216-0.463-0.504c0-0.287,0.2-0.504,0.479-0.504s0.472,0.208,0.472,0.504    c0,0.288-0.192,0.504-0.479,0.504H4.624z"/>
		<path d="M7.503,27.91c1.007,0,1.519,0.624,1.519,1.279c0,0.439-0.224,0.92-0.864,1.216v0.023c0.648,0.256,1.048,0.72,1.048,1.344    c0,0.911-0.776,1.511-1.767,1.511c-1.087,0-1.743-0.64-1.743-1.399c0-0.655,0.392-1.127,1.023-1.399V30.46    c-0.583-0.271-0.832-0.72-0.832-1.168c0-0.823,0.695-1.383,1.607-1.383H7.503z M7.455,32.771c0.632,0,1.04-0.392,1.04-0.928    c0-0.623-0.439-0.936-1.144-1.135c-0.607,0.176-0.935,0.583-0.935,1.079c-0.024,0.52,0.375,0.983,1.031,0.983H7.455z     M7.463,28.414c-0.584,0-0.904,0.384-0.904,0.831c-0.008,0.521,0.392,0.8,0.992,0.96c0.448-0.152,0.792-0.472,0.792-0.943    c0-0.416-0.248-0.848-0.872-0.848H7.463z"/>
		<path d="M0,53.195v-0.432l0.552-0.536c1.327-1.263,1.935-1.935,1.935-2.718c0-0.528-0.248-1.016-1.023-1.016    c-0.472,0-0.863,0.239-1.103,0.439l-0.224-0.496c0.352-0.295,0.872-0.527,1.471-0.527c1.111,0,1.583,0.768,1.583,1.512    c0,0.959-0.696,1.734-1.791,2.79l-0.408,0.384v0.016h2.327v0.584H0z"/>
		<path d="M4.624,53.283c-0.272,0-0.463-0.216-0.463-0.504c0-0.287,0.2-0.504,0.479-0.504s0.472,0.208,0.472,0.504    c0,0.288-0.192,0.504-0.479,0.504H4.624z"/>
		<path d="M9.134,47.998v0.464l-2.263,4.733h-0.72l2.247-4.598v-0.016H5.855v-0.584H9.134z"/>
		<path d="M0,73.195v-0.432l0.552-0.536c1.327-1.263,1.935-1.935,1.935-2.718c0-0.528-0.248-1.016-1.023-1.016    c-0.472,0-0.863,0.239-1.103,0.439l-0.224-0.496c0.352-0.295,0.872-0.527,1.471-0.527c1.111,0,1.583,0.768,1.583,1.512    c0,0.959-0.696,1.734-1.791,2.79l-0.408,0.384v0.016h2.327v0.584H0z"/>
		<path d="M4.624,73.283c-0.272,0-0.463-0.216-0.463-0.504c0-0.287,0.2-0.504,0.479-0.504s0.472,0.208,0.472,0.504    c0,0.288-0.192,0.504-0.479,0.504H4.624z"/>
		<path d="M8.726,68.494c-0.144-0.008-0.328,0.008-0.528,0.04c-1.111,0.176-1.687,0.976-1.807,1.839h0.016    c0.248-0.336,0.688-0.607,1.264-0.607c0.919,0,1.567,0.671,1.567,1.679c0,0.959-0.647,1.839-1.735,1.839    c-1.104,0-1.831-0.863-1.831-2.215c0-1.023,0.36-1.831,0.879-2.343c0.432-0.424,1.007-0.688,1.663-0.768    c0.208-0.032,0.384-0.04,0.512-0.04V68.494z M7.519,72.739c0.6,0,1.008-0.503,1.008-1.247c0-0.743-0.424-1.191-1.072-1.191    c-0.423,0-0.823,0.256-1.015,0.64c-0.04,0.08-0.072,0.176-0.072,0.304c0.008,0.855,0.408,1.495,1.144,1.495H7.519z"/>
		<path d="M0,93.195v-0.432l0.552-0.536c1.327-1.263,1.935-1.935,1.935-2.718c0-0.528-0.248-1.016-1.023-1.016    c-0.472,0-0.863,0.239-1.103,0.439l-0.224-0.496c0.352-0.295,0.872-0.527,1.471-0.527c1.111,0,1.583,0.768,1.583,1.512    c0,0.959-0.696,1.734-1.791,2.79l-0.408,0.384v0.016h2.327v0.584H0z"/>
		<path d="M4.624,93.283c-0.272,0-0.463-0.216-0.463-0.504c0-0.287,0.2-0.504,0.479-0.504s0.472,0.208,0.472,0.504    c0,0.288-0.192,0.504-0.479,0.504H4.624z"/>
		<path d="M8.862,88.589H6.879l-0.2,1.335c0.12-0.016,0.232-0.031,0.424-0.031c0.408,0,0.799,0.088,1.119,0.279    c0.408,0.224,0.744,0.68,0.744,1.335c0,1.016-0.808,1.775-1.935,1.775c-0.568,0-1.04-0.16-1.295-0.319l0.176-0.536    c0.216,0.128,0.64,0.288,1.12,0.288c0.655,0,1.231-0.432,1.223-1.136c0-0.663-0.456-1.144-1.487-1.144    c-0.304,0-0.536,0.024-0.728,0.057l0.336-2.495h2.486V88.589z"/>
	</g>
	<g>
		<path d="M25.093,101.439c-0.248,0.128-0.768,0.256-1.423,0.256c-1.519,0-2.654-0.959-2.654-2.727c0-1.687,1.143-2.823,2.814-2.823    c0.664,0,1.095,0.144,1.279,0.232l-0.176,0.576c-0.256-0.128-0.631-0.224-1.079-0.224c-1.264,0-2.103,0.808-2.103,2.215    c0,1.319,0.76,2.159,2.063,2.159c0.432,0,0.863-0.088,1.143-0.224L25.093,101.439z"/>
		<path d="M29.188,100.552c0,0.408,0.008,0.76,0.032,1.063h-0.624l-0.04-0.632h-0.016c-0.176,0.312-0.592,0.72-1.279,0.72    c-0.608,0-1.335-0.344-1.335-1.695v-2.263h0.704v2.135c0,0.735,0.232,1.239,0.864,1.239c0.472,0,0.799-0.328,0.927-0.648    c0.04-0.096,0.064-0.224,0.064-0.36v-2.366h0.704V100.552z"/>
		<path d="M30.358,95.938h0.704v5.677h-0.704V95.938z"/>
		<path d="M33.094,96.818v0.928h1.007v0.536h-1.007v2.079c0,0.48,0.136,0.751,0.528,0.751c0.192,0,0.304-0.016,0.408-0.048    l0.032,0.536c-0.136,0.048-0.352,0.096-0.624,0.096c-0.328,0-0.591-0.112-0.759-0.296c-0.192-0.216-0.272-0.56-0.272-1.016v-2.103    h-0.6v-0.536h0.6v-0.712L33.094,96.818z"/>
		<path d="M38.132,100.552c0,0.408,0.008,0.76,0.032,1.063h-0.624l-0.04-0.632h-0.016c-0.176,0.312-0.592,0.72-1.279,0.72    c-0.608,0-1.335-0.344-1.335-1.695v-2.263h0.704v2.135c0,0.735,0.232,1.239,0.864,1.239c0.472,0,0.799-0.328,0.927-0.648    c0.04-0.096,0.064-0.224,0.064-0.36v-2.366h0.703V100.552z"/>
		<path d="M39.302,98.953c0-0.456-0.008-0.848-0.032-1.207h0.616l0.032,0.759h0.024c0.176-0.52,0.608-0.848,1.08-0.848    c0.072,0,0.128,0.008,0.192,0.016v0.664c-0.072-0.008-0.144-0.016-0.24-0.016c-0.496,0-0.848,0.376-0.944,0.896    c-0.016,0.104-0.024,0.216-0.024,0.328v2.071h-0.704V98.953z"/>
		<path d="M44.644,100.688c0,0.335,0.016,0.664,0.056,0.927h-0.632l-0.064-0.488H43.98c-0.208,0.304-0.632,0.576-1.183,0.576    c-0.784,0-1.184-0.552-1.184-1.111c0-0.936,0.832-1.447,2.327-1.439v-0.08c0-0.32-0.088-0.904-0.879-0.896    c-0.368,0-0.744,0.104-1.016,0.288l-0.16-0.472c0.32-0.2,0.792-0.336,1.279-0.336c1.191,0,1.479,0.808,1.479,1.583V100.688z     M43.957,99.64c-0.768-0.016-1.639,0.12-1.639,0.872c0,0.464,0.304,0.672,0.656,0.672c0.512,0,0.839-0.32,0.952-0.648    c0.024-0.072,0.032-0.152,0.032-0.224V99.64z"/>
		<path d="M45.774,95.938h0.704v5.677h-0.704V95.938z"/>
		<path d="M47.662,95.938h0.704v5.677h-0.704V95.938z"/>
		<path d="M49.805,97.746l0.84,2.287c0.096,0.256,0.192,0.56,0.256,0.792h0.016c0.072-0.232,0.152-0.528,0.248-0.808l0.768-2.271    h0.744l-1.056,2.758c-0.503,1.327-0.847,1.999-1.327,2.422c-0.352,0.296-0.688,0.416-0.863,0.448l-0.176-0.584    c0.176-0.056,0.408-0.168,0.615-0.344c0.192-0.152,0.424-0.424,0.592-0.784c0.032-0.072,0.056-0.128,0.056-0.168    c0-0.04-0.016-0.096-0.056-0.184l-1.423-3.566H49.805z"/>
		<path d="M54.917,100.896c0.216,0.128,0.583,0.272,0.936,0.272c0.503,0,0.744-0.248,0.744-0.576c0-0.336-0.2-0.512-0.712-0.704    c-0.704-0.256-1.031-0.64-1.031-1.095c0-0.624,0.512-1.136,1.335-1.136c0.392,0,0.736,0.104,0.944,0.24l-0.168,0.503    c-0.152-0.088-0.432-0.224-0.792-0.224c-0.416,0-0.64,0.24-0.64,0.527c0,0.32,0.224,0.464,0.728,0.664    c0.664,0.248,1.016,0.583,1.016,1.159c0,0.688-0.536,1.167-1.439,1.167c-0.424,0-0.815-0.112-1.087-0.272L54.917,100.896z"/>
		<path d="M58.517,97.09c-0.256,0-0.424-0.2-0.424-0.432c0-0.248,0.176-0.439,0.44-0.439c0.256,0,0.432,0.192,0.432,0.439    c0,0.232-0.168,0.432-0.439,0.432H58.517z M58.181,101.615v-3.87h0.704v3.87H58.181z"/>
		<path d="M60.053,98.793c0-0.408-0.016-0.728-0.032-1.047h0.616l0.032,0.624h0.024c0.216-0.368,0.576-0.712,1.224-0.712    c0.52,0,0.919,0.32,1.087,0.776h0.016c0.12-0.224,0.28-0.384,0.44-0.504c0.232-0.176,0.48-0.272,0.848-0.272    c0.52,0,1.279,0.336,1.279,1.679v2.279h-0.688v-2.191c0-0.751-0.28-1.191-0.84-1.191c-0.408,0-0.711,0.296-0.839,0.632    c-0.032,0.104-0.056,0.232-0.056,0.352v2.399h-0.688v-2.327c0-0.616-0.272-1.056-0.808-1.056c-0.432,0-0.759,0.352-0.872,0.704    c-0.04,0.104-0.056,0.224-0.056,0.344v2.334h-0.688V98.793z"/>
		<path d="M67.061,97.09c-0.256,0-0.424-0.2-0.424-0.432c0-0.248,0.176-0.439,0.44-0.439c0.256,0,0.432,0.192,0.432,0.439    c0,0.232-0.168,0.432-0.439,0.432H67.061z M66.725,101.615v-3.87h0.704v3.87H66.725z"/>
		<path d="M68.597,95.938h0.704v5.677h-0.704V95.938z"/>
		<path d="M73.212,100.688c0,0.335,0.016,0.664,0.056,0.927h-0.632l-0.064-0.488h-0.024c-0.208,0.304-0.631,0.576-1.183,0.576    c-0.784,0-1.184-0.552-1.184-1.111c0-0.936,0.832-1.447,2.327-1.439v-0.08c0-0.32-0.088-0.904-0.879-0.896    c-0.368,0-0.744,0.104-1.016,0.288l-0.16-0.472c0.32-0.2,0.792-0.336,1.279-0.336c1.191,0,1.479,0.808,1.479,1.583V100.688z     M72.524,99.64c-0.768-0.016-1.639,0.12-1.639,0.872c0,0.464,0.304,0.672,0.656,0.672c0.512,0,0.839-0.32,0.951-0.648    c0.024-0.072,0.032-0.152,0.032-0.224V99.64z"/>
		<path d="M74.341,98.953c0-0.456-0.008-0.848-0.032-1.207h0.616l0.032,0.759h0.024c0.176-0.52,0.608-0.848,1.08-0.848    c0.072,0,0.128,0.008,0.192,0.016v0.664c-0.072-0.008-0.144-0.016-0.24-0.016c-0.496,0-0.848,0.376-0.943,0.896    c-0.016,0.104-0.024,0.216-0.024,0.328v2.071h-0.704V98.953z"/>
	</g>
	<g>
		<path d="M239.12,140.656c-0.045-0.837-0.1-1.873-0.1-2.62h-0.018c-0.216,0.702-0.459,1.477-0.766,2.305l-1.07,2.944h-0.595    l-0.99-2.89c-0.288-0.855-0.522-1.639-0.693-2.359h-0.019c-0.018,0.756-0.062,1.773-0.116,2.683l-0.162,2.602h-0.747l0.423-6.068    h0.999l1.035,2.935c0.252,0.747,0.451,1.422,0.613,2.052h0.018c0.162-0.612,0.378-1.287,0.648-2.052l1.08-2.935h0.999l0.378,6.068    h-0.773L239.12,140.656z"/>
		<path d="M241.665,138.225c-0.289,0-0.478-0.225-0.478-0.486c0-0.279,0.198-0.495,0.495-0.495c0.288,0,0.486,0.216,0.486,0.495    c0,0.261-0.189,0.486-0.495,0.486H241.665z M241.286,143.321v-4.357h0.793v4.357H241.286z"/>
		<path d="M243.407,140.143c0-0.459-0.01-0.819-0.037-1.18h0.703l0.045,0.711h0.018c0.217-0.405,0.721-0.811,1.44-0.811    c0.604,0,1.54,0.36,1.54,1.855v2.602h-0.793v-2.512c0-0.702-0.261-1.296-1.008-1.296c-0.514,0-0.918,0.369-1.062,0.81    c-0.036,0.099-0.055,0.243-0.055,0.369v2.629h-0.791V140.143z"/>
		<path d="M250.229,143.42c-1.171,0-2.089-0.864-2.089-2.242c0-1.458,0.963-2.314,2.161-2.314c1.25,0,2.098,0.91,2.098,2.233    c0,1.621-1.126,2.323-2.161,2.323H250.229z M250.265,142.826c0.757,0,1.324-0.711,1.324-1.702c0-0.738-0.369-1.666-1.306-1.666    c-0.927,0-1.333,0.864-1.333,1.693c0,0.954,0.541,1.674,1.306,1.674H250.265z"/>
		<path d="M253.45,140.323c0-0.513-0.008-0.954-0.035-1.359h0.693l0.035,0.855h0.027c0.198-0.585,0.684-0.955,1.215-0.955    c0.082,0,0.145,0.009,0.217,0.018v0.748c-0.081-0.009-0.162-0.018-0.271-0.018c-0.558,0-0.954,0.423-1.062,1.008    c-0.019,0.117-0.027,0.243-0.027,0.369v2.332h-0.793V140.323z"/>
		<path d="M256.825,138.225c-0.287,0-0.477-0.225-0.477-0.486c0-0.279,0.198-0.495,0.495-0.495c0.288,0,0.486,0.216,0.486,0.495    c0,0.261-0.188,0.486-0.495,0.486H256.825z M256.448,143.321v-4.357h0.791v4.357H256.448z"/>
		<path d="M259.543,137.919v1.044h1.134v0.604h-1.134v2.34c0,0.541,0.153,0.846,0.595,0.846c0.216,0,0.342-0.018,0.459-0.054    l0.035,0.603c-0.152,0.054-0.396,0.108-0.701,0.108c-0.369,0-0.666-0.126-0.855-0.333c-0.217-0.243-0.307-0.63-0.307-1.143v-2.368    h-0.675v-0.604h0.675v-0.801L259.543,137.919z"/>
		<path d="M262.134,138.963l0.945,2.575c0.107,0.288,0.216,0.63,0.288,0.892h0.019c0.08-0.261,0.17-0.594,0.278-0.909l0.864-2.557    h0.838l-1.189,3.106c-0.566,1.495-0.953,2.251-1.494,2.728c-0.396,0.333-0.773,0.468-0.973,0.504l-0.197-0.657    c0.197-0.063,0.459-0.189,0.693-0.387c0.216-0.171,0.477-0.477,0.666-0.882c0.036-0.081,0.062-0.144,0.062-0.189    c0-0.045-0.018-0.108-0.062-0.207l-1.603-4.015H262.134z"/>
		<path d="M234.997,155.32l-1.539-6.068h0.828l0.72,3.07c0.181,0.765,0.342,1.513,0.45,2.098h0.018    c0.1-0.603,0.289-1.323,0.496-2.106l0.81-3.061h0.819l0.738,3.079c0.171,0.729,0.333,1.44,0.423,2.08h0.019    c0.125-0.667,0.297-1.341,0.486-2.098l0.801-3.061h0.801l-1.719,6.068h-0.82l-0.765-3.151c-0.188-0.783-0.315-1.377-0.396-1.99    h-0.019c-0.099,0.612-0.243,1.197-0.468,1.98l-0.865,3.16H234.997z"/>
		<path d="M241.679,148.928h0.792v2.719h0.019c0.125-0.225,0.324-0.432,0.566-0.558c0.234-0.144,0.514-0.225,0.811-0.225    c0.586,0,1.521,0.36,1.521,1.864v2.593h-0.792v-2.512c0-0.702-0.261-1.288-1.009-1.288c-0.513,0-0.908,0.36-1.062,0.792    c-0.045,0.108-0.054,0.225-0.054,0.378v2.629h-0.792V148.928z"/>
		<path d="M247.064,150.225c-0.288,0-0.478-0.225-0.478-0.486c0-0.279,0.199-0.495,0.496-0.495c0.287,0,0.486,0.216,0.486,0.495    c0,0.261-0.189,0.486-0.496,0.486H247.064z M246.687,155.32v-4.357h0.792v4.357H246.687z"/>
		<path d="M249.782,149.918v1.044h1.134v0.604h-1.134v2.34c0,0.541,0.152,0.846,0.594,0.846c0.217,0,0.342-0.018,0.459-0.054    l0.036,0.603c-0.153,0.054-0.396,0.108-0.702,0.108c-0.369,0-0.666-0.126-0.855-0.333c-0.216-0.243-0.306-0.63-0.306-1.143v-2.368    h-0.675v-0.604h0.675v-0.801L249.782,149.918z"/>
		<path d="M252.218,153.286c0.018,1.062,0.693,1.503,1.485,1.503c0.567,0,0.919-0.099,1.206-0.225l0.145,0.567    c-0.279,0.126-0.766,0.279-1.459,0.279c-1.332,0-2.143-0.891-2.143-2.196c0-1.314,0.783-2.35,2.053-2.35    c1.422,0,1.791,1.251,1.791,2.053c0,0.162-0.008,0.279-0.026,0.369H252.218z M254.531,152.719    c0.009-0.504-0.207-1.288-1.089-1.288c-0.811,0-1.152,0.738-1.216,1.288H254.531z"/>
	</g>
	<polyline fill="none" stroke="#000000" stroke-width="0.5" stroke-linejoin="round" stroke-miterlimit="10" points="165.479,90    13.48,89.999 13.48,0  "/>
	
		<line fill="none" stroke="#000000" stroke-width="0.5" stroke-linejoin="round" stroke-miterlimit="10" x1="13.555" y1="70" x2="10.555" y2="70"/>
	
		<line fill="none" stroke="#A7A9AC" stroke-width="0.5" stroke-linejoin="round" stroke-miterlimit="10" x1="13.555" y1="50" x2="165.479" y2="50"/>
	
		<line fill="none" stroke="#000000" stroke-width="0.5" stroke-linejoin="round" stroke-miterlimit="10" x1="13.555" y1="50" x2="10.555" y2="50"/>
	
		<line fill="none" stroke="#A7A9AC" stroke-width="0.5" stroke-linejoin="round" stroke-miterlimit="10" x1="13.555" y1="30" x2="165.479" y2="30"/>
	
		<line fill="none" stroke="#000000" stroke-width="0.5" stroke-linejoin="round" stroke-miterlimit="10" x1="13.555" y1="30" x2="10.555" y2="30"/>
	
		<line fill="none" stroke="#A7A9AC" stroke-width="0.5" stroke-linejoin="round" stroke-miterlimit="10" x1="13.555" y1="10" x2="165.479" y2="10"/>
	
		<line fill="none" stroke="#000000" stroke-width="0.5" stroke-linejoin="round" stroke-miterlimit="10" x1="13.555" y1="10" x2="10.555" y2="10"/>
	
		<line fill="none" stroke="#000000" stroke-width="0.5" stroke-linejoin="round" stroke-miterlimit="10" x1="13.555" y1="90" x2="10.555" y2="90"/>
	
		<line fill="none" stroke="#000000" stroke-width="0.5" stroke-linejoin="round" stroke-miterlimit="10" x1="48.555" y1="90" x2="48.555" y2="93"/>
	<g>
		<path d="M102.241,101.439c-0.248,0.128-0.768,0.256-1.423,0.256c-1.519,0-2.655-0.959-2.655-2.727    c0-1.687,1.144-2.823,2.814-2.823c0.664,0,1.096,0.144,1.279,0.232l-0.176,0.576c-0.256-0.128-0.631-0.224-1.079-0.224    c-1.264,0-2.103,0.808-2.103,2.215c0,1.319,0.76,2.159,2.063,2.159c0.432,0,0.863-0.088,1.143-0.224L102.241,101.439z"/>
		<path d="M106.337,100.552c0,0.408,0.008,0.76,0.032,1.063h-0.624l-0.04-0.632h-0.016c-0.176,0.312-0.592,0.72-1.279,0.72    c-0.608,0-1.335-0.344-1.335-1.695v-2.263h0.704v2.135c0,0.735,0.232,1.239,0.864,1.239c0.472,0,0.799-0.328,0.927-0.648    c0.04-0.096,0.064-0.224,0.064-0.36v-2.366h0.704V100.552z"/>
		<path d="M107.507,95.938h0.704v5.677h-0.704V95.938z"/>
		<path d="M110.243,96.818v0.928h1.007v0.536h-1.007v2.079c0,0.48,0.136,0.751,0.528,0.751c0.192,0,0.304-0.016,0.408-0.048    l0.032,0.536c-0.136,0.048-0.352,0.096-0.624,0.096c-0.328,0-0.591-0.112-0.759-0.296c-0.192-0.216-0.272-0.56-0.272-1.016v-2.103    h-0.6v-0.536h0.6v-0.712L110.243,96.818z"/>
		<path d="M115.281,100.552c0,0.408,0.008,0.76,0.032,1.063h-0.624l-0.04-0.632h-0.016c-0.176,0.312-0.592,0.72-1.279,0.72    c-0.608,0-1.335-0.344-1.335-1.695v-2.263h0.704v2.135c0,0.735,0.232,1.239,0.864,1.239c0.472,0,0.799-0.328,0.927-0.648    c0.04-0.096,0.064-0.224,0.064-0.36v-2.366h0.704V100.552z"/>
		<path d="M116.451,98.953c0-0.456-0.008-0.848-0.032-1.207h0.616l0.032,0.759h0.024c0.176-0.52,0.608-0.848,1.08-0.848    c0.072,0,0.128,0.008,0.192,0.016v0.664c-0.072-0.008-0.144-0.016-0.24-0.016c-0.496,0-0.848,0.376-0.943,0.896    c-0.016,0.104-0.024,0.216-0.024,0.328v2.071h-0.704V98.953z"/>
		<path d="M121.793,100.688c0,0.335,0.016,0.664,0.056,0.927h-0.632l-0.064-0.488h-0.024c-0.208,0.304-0.632,0.576-1.183,0.576    c-0.783,0-1.183-0.552-1.183-1.111c0-0.936,0.831-1.447,2.326-1.439v-0.08c0-0.32-0.088-0.904-0.879-0.896    c-0.368,0-0.744,0.104-1.015,0.288l-0.16-0.472c0.32-0.2,0.791-0.336,1.279-0.336c1.191,0,1.479,0.808,1.479,1.583V100.688z     M121.105,99.64c-0.768-0.016-1.639,0.12-1.639,0.872c0,0.464,0.304,0.672,0.656,0.672c0.512,0,0.839-0.32,0.952-0.648    c0.024-0.072,0.032-0.152,0.032-0.224V99.64z"/>
		<path d="M122.922,95.938h0.704v5.677h-0.704V95.938z"/>
		<path d="M124.81,95.938h0.704v5.677h-0.704V95.938z"/>
		<path d="M126.954,97.746l0.84,2.287c0.096,0.256,0.192,0.56,0.256,0.792h0.016c0.072-0.232,0.152-0.528,0.248-0.808l0.768-2.271    h0.744l-1.056,2.758c-0.503,1.327-0.847,1.999-1.327,2.422c-0.352,0.296-0.688,0.416-0.863,0.448l-0.176-0.584    c0.176-0.056,0.408-0.168,0.615-0.344c0.192-0.152,0.424-0.424,0.592-0.784c0.032-0.072,0.056-0.128,0.056-0.168    c0-0.04-0.016-0.096-0.056-0.184l-1.423-3.566H126.954z"/>
		<path d="M135.504,95.938v4.677c0,0.344,0.008,0.736,0.032,1h-0.632l-0.032-0.671h-0.016c-0.216,0.432-0.68,0.759-1.312,0.759    c-0.936,0-1.663-0.792-1.663-1.967c-0.008-1.295,0.8-2.079,1.735-2.079c0.6,0,0.999,0.28,1.167,0.584h0.016v-2.303H135.504z     M134.801,99.32c0-0.096-0.008-0.208-0.032-0.304c-0.104-0.44-0.488-0.808-1.016-0.808c-0.728,0-1.159,0.64-1.159,1.487    c0,0.792,0.392,1.439,1.143,1.439c0.472,0,0.904-0.319,1.032-0.847c0.024-0.088,0.032-0.184,0.032-0.296V99.32z"/>
		<path d="M137.01,97.09c-0.256,0-0.424-0.2-0.424-0.432c0-0.248,0.176-0.439,0.44-0.439c0.256,0,0.432,0.192,0.432,0.439    c0,0.232-0.168,0.432-0.439,0.432H137.01z M136.674,101.615v-3.87h0.704v3.87H136.674z"/>
		<path d="M138.45,100.896c0.216,0.128,0.583,0.272,0.936,0.272c0.503,0,0.744-0.248,0.744-0.576c0-0.336-0.2-0.512-0.712-0.704    c-0.704-0.256-1.031-0.64-1.031-1.095c0-0.624,0.512-1.136,1.335-1.136c0.392,0,0.736,0.104,0.944,0.24l-0.168,0.503    c-0.152-0.088-0.432-0.224-0.792-0.224c-0.416,0-0.64,0.24-0.64,0.527c0,0.32,0.224,0.464,0.728,0.664    c0.664,0.248,1.016,0.583,1.016,1.159c0,0.688-0.536,1.167-1.439,1.167c-0.424,0-0.815-0.112-1.087-0.272L138.45,100.896z"/>
		<path d="M141.618,100.896c0.216,0.128,0.583,0.272,0.936,0.272c0.503,0,0.744-0.248,0.744-0.576c0-0.336-0.2-0.512-0.712-0.704    c-0.704-0.256-1.031-0.64-1.031-1.095c0-0.624,0.512-1.136,1.335-1.136c0.392,0,0.736,0.104,0.944,0.24l-0.168,0.503    c-0.152-0.088-0.432-0.224-0.792-0.224c-0.416,0-0.64,0.24-0.64,0.527c0,0.32,0.224,0.464,0.728,0.664    c0.664,0.248,1.016,0.583,1.016,1.159c0,0.688-0.536,1.167-1.439,1.167c-0.424,0-0.815-0.112-1.087-0.272L141.618,100.896z"/>
		<path d="M145.218,97.09c-0.256,0-0.424-0.2-0.424-0.432c0-0.248,0.176-0.439,0.44-0.439c0.256,0,0.432,0.192,0.432,0.439    c0,0.232-0.168,0.432-0.439,0.432H145.218z M144.882,101.615v-3.87h0.704v3.87H144.882z"/>
		<path d="M146.754,98.793c0-0.408-0.016-0.728-0.032-1.047h0.616l0.032,0.624h0.024c0.216-0.368,0.576-0.712,1.224-0.712    c0.52,0,0.919,0.32,1.087,0.776h0.016c0.12-0.224,0.28-0.384,0.44-0.504c0.232-0.176,0.48-0.272,0.848-0.272    c0.52,0,1.279,0.336,1.279,1.679v2.279H151.6v-2.191c0-0.751-0.28-1.191-0.84-1.191c-0.408,0-0.711,0.296-0.839,0.632    c-0.032,0.104-0.056,0.232-0.056,0.352v2.399h-0.688v-2.327c0-0.616-0.272-1.056-0.808-1.056c-0.432,0-0.759,0.352-0.872,0.704    c-0.04,0.104-0.056,0.224-0.056,0.344v2.334h-0.688V98.793z"/>
		<path d="M153.762,97.09c-0.256,0-0.424-0.2-0.424-0.432c0-0.248,0.176-0.439,0.44-0.439c0.256,0,0.432,0.192,0.432,0.439    c0,0.232-0.168,0.432-0.439,0.432H153.762z M153.426,101.615v-3.87h0.704v3.87H153.426z"/>
		<path d="M155.298,95.938h0.704v5.677h-0.704V95.938z"/>
		<path d="M159.912,100.688c0,0.335,0.016,0.664,0.056,0.927h-0.632l-0.064-0.488h-0.024c-0.208,0.304-0.632,0.576-1.183,0.576    c-0.784,0-1.184-0.552-1.184-1.111c0-0.936,0.832-1.447,2.327-1.439v-0.08c0-0.32-0.088-0.904-0.879-0.896    c-0.368,0-0.744,0.104-1.016,0.288l-0.16-0.472c0.32-0.2,0.792-0.336,1.279-0.336c1.191,0,1.479,0.808,1.479,1.583V100.688z     M159.225,99.64c-0.768-0.016-1.639,0.12-1.639,0.872c0,0.464,0.304,0.672,0.656,0.672c0.512,0,0.839-0.32,0.952-0.648    c0.024-0.072,0.032-0.152,0.032-0.224V99.64z"/>
		<path d="M161.042,98.953c0-0.456-0.008-0.848-0.032-1.207h0.616l0.032,0.759h0.024c0.176-0.52,0.608-0.848,1.08-0.848    c0.072,0,0.128,0.008,0.192,0.016v0.664c-0.072-0.008-0.144-0.016-0.24-0.016c-0.496,0-0.848,0.376-0.944,0.896    c-0.016,0.104-0.024,0.216-0.024,0.328v2.071h-0.704V98.953z"/>
	</g>
	
		<line fill="none" stroke="#000000" stroke-width="0.5" stroke-linejoin="round" stroke-miterlimit="10" x1="130.479" y1="90" x2="130.479" y2="93"/>
	
		<line fill="none" stroke="#A7A9AC" stroke-width="0.5" stroke-linejoin="round" stroke-miterlimit="10" x1="203.612" y1="70" x2="355.536" y2="70"/>
	<g>
		<path d="M190.057,13.195v-0.432l0.552-0.536c1.327-1.263,1.935-1.935,1.935-2.718c0-0.528-0.247-1.016-1.023-1.016    c-0.472,0-0.863,0.239-1.103,0.439l-0.225-0.496c0.352-0.295,0.871-0.527,1.471-0.527c1.111,0,1.584,0.768,1.584,1.512    c0,0.959-0.695,1.734-1.791,2.79l-0.408,0.384v0.016h2.327v0.584H190.057z"/>
		<path d="M194.681,13.283c-0.272,0-0.464-0.216-0.464-0.504c0-0.287,0.2-0.504,0.479-0.504s0.472,0.208,0.472,0.504    c0,0.288-0.192,0.504-0.479,0.504H194.681z"/>
		<path d="M196.224,12.699c0.152,0.009,0.328,0,0.568-0.031c0.408-0.049,0.791-0.216,1.088-0.496    c0.344-0.32,0.591-0.768,0.688-1.383h-0.024c-0.288,0.352-0.704,0.56-1.231,0.56c-0.936,0-1.535-0.704-1.535-1.6    c0-0.976,0.72-1.839,1.783-1.839s1.719,0.855,1.719,2.19c0,1.144-0.384,1.943-0.896,2.439c-0.399,0.384-0.951,0.631-1.511,0.695    c-0.256,0.032-0.488,0.048-0.648,0.04V12.699z M197.495,8.446c-0.592,0-1.016,0.527-1.016,1.263c0,0.647,0.393,1.104,1,1.104    c0.472,0,0.84-0.231,1.031-0.544c0.032-0.063,0.057-0.144,0.057-0.256c0.008-0.896-0.328-1.566-1.064-1.566H197.495z"/>
		<path d="M190.057,33.195v-0.432l0.552-0.536c1.327-1.263,1.935-1.935,1.935-2.718c0-0.528-0.247-1.016-1.023-1.016    c-0.472,0-0.863,0.239-1.103,0.439l-0.225-0.496c0.352-0.295,0.871-0.527,1.471-0.527c1.111,0,1.584,0.768,1.584,1.512    c0,0.959-0.695,1.734-1.791,2.79l-0.408,0.384v0.016h2.327v0.584H190.057z"/>
		<path d="M194.681,33.283c-0.272,0-0.464-0.216-0.464-0.504c0-0.287,0.2-0.504,0.479-0.504s0.472,0.208,0.472,0.504    c0,0.288-0.192,0.504-0.479,0.504H194.681z"/>
		<path d="M197.56,27.91c1.008,0,1.52,0.624,1.52,1.279c0,0.439-0.225,0.92-0.864,1.216v0.023c0.647,0.256,1.048,0.72,1.048,1.344    c0,0.911-0.775,1.511-1.768,1.511c-1.087,0-1.742-0.64-1.742-1.399c0-0.655,0.391-1.127,1.023-1.399V30.46    c-0.584-0.271-0.832-0.72-0.832-1.168c0-0.823,0.695-1.383,1.607-1.383H197.56z M197.511,32.771c0.633,0,1.04-0.392,1.04-0.928    c0-0.623-0.439-0.936-1.144-1.135c-0.607,0.176-0.936,0.583-0.936,1.079c-0.023,0.52,0.376,0.983,1.031,0.983H197.511z     M197.52,28.414c-0.584,0-0.903,0.384-0.903,0.831c-0.008,0.521,0.392,0.8,0.991,0.96c0.448-0.152,0.792-0.472,0.792-0.943    c0-0.416-0.248-0.848-0.872-0.848H197.52z"/>
		<path d="M190.057,53.195v-0.432l0.552-0.536c1.327-1.263,1.935-1.935,1.935-2.718c0-0.528-0.247-1.016-1.023-1.016    c-0.472,0-0.863,0.239-1.103,0.439l-0.225-0.496c0.352-0.295,0.871-0.527,1.471-0.527c1.111,0,1.584,0.768,1.584,1.512    c0,0.959-0.695,1.734-1.791,2.79l-0.408,0.384v0.016h2.327v0.584H190.057z"/>
		<path d="M194.681,53.283c-0.272,0-0.464-0.216-0.464-0.504c0-0.287,0.2-0.504,0.479-0.504s0.472,0.208,0.472,0.504    c0,0.288-0.192,0.504-0.479,0.504H194.681z"/>
		<path d="M199.19,47.998v0.464l-2.263,4.733h-0.72l2.247-4.598v-0.016h-2.543v-0.584H199.19z"/>
		<path d="M190.057,73.195v-0.432l0.552-0.536c1.327-1.263,1.935-1.935,1.935-2.718c0-0.528-0.247-1.016-1.023-1.016    c-0.472,0-0.863,0.239-1.103,0.439l-0.225-0.496c0.352-0.295,0.871-0.527,1.471-0.527c1.111,0,1.584,0.768,1.584,1.512    c0,0.959-0.695,1.734-1.791,2.79l-0.408,0.384v0.016h2.327v0.584H190.057z"/>
		<path d="M194.681,73.283c-0.272,0-0.464-0.216-0.464-0.504c0-0.287,0.2-0.504,0.479-0.504s0.472,0.208,0.472,0.504    c0,0.288-0.192,0.504-0.479,0.504H194.681z"/>
		<path d="M198.782,68.494c-0.144-0.008-0.327,0.008-0.527,0.04c-1.111,0.176-1.688,0.976-1.807,1.839h0.016    c0.248-0.336,0.688-0.607,1.264-0.607c0.92,0,1.566,0.671,1.566,1.679c0,0.959-0.646,1.839-1.734,1.839    c-1.104,0-1.831-0.863-1.831-2.215c0-1.023,0.36-1.831,0.88-2.343c0.432-0.424,1.007-0.688,1.662-0.768    c0.209-0.032,0.385-0.04,0.512-0.04V68.494z M197.575,72.739c0.6,0,1.008-0.503,1.008-1.247c0-0.743-0.424-1.191-1.072-1.191    c-0.423,0-0.822,0.256-1.015,0.64c-0.04,0.08-0.072,0.176-0.072,0.304c0.009,0.855,0.408,1.495,1.144,1.495H197.575z"/>
		<path d="M190.057,93.195v-0.432l0.552-0.536c1.327-1.263,1.935-1.935,1.935-2.718c0-0.528-0.247-1.016-1.023-1.016    c-0.472,0-0.863,0.239-1.103,0.439l-0.225-0.496c0.352-0.295,0.871-0.527,1.471-0.527c1.111,0,1.584,0.768,1.584,1.512    c0,0.959-0.695,1.734-1.791,2.79l-0.408,0.384v0.016h2.327v0.584H190.057z"/>
		<path d="M194.681,93.283c-0.272,0-0.464-0.216-0.464-0.504c0-0.287,0.2-0.504,0.479-0.504s0.472,0.208,0.472,0.504    c0,0.288-0.192,0.504-0.479,0.504H194.681z"/>
		<path d="M198.919,88.589h-1.983l-0.2,1.335c0.121-0.016,0.232-0.031,0.424-0.031c0.408,0,0.8,0.088,1.119,0.279    c0.408,0.224,0.744,0.68,0.744,1.335c0,1.016-0.808,1.775-1.935,1.775c-0.567,0-1.04-0.16-1.296-0.319l0.176-0.536    c0.217,0.128,0.641,0.288,1.12,0.288c0.655,0,1.231-0.432,1.224-1.136c0-0.663-0.456-1.144-1.488-1.144    c-0.303,0-0.535,0.024-0.727,0.057l0.336-2.495h2.486V88.589z"/>
	</g>
	<g>
		<path d="M216.259,96.226v2.255h2.606v-2.255h0.704v5.389h-0.704v-2.527h-2.606v2.527h-0.703v-5.389H216.259z"/>
		<path d="M221.091,97.09c-0.256,0-0.424-0.2-0.424-0.432c0-0.248,0.176-0.439,0.439-0.439c0.256,0,0.432,0.192,0.432,0.439    c0,0.232-0.168,0.432-0.439,0.432H221.091z M220.755,101.615v-3.87h0.703v3.87H220.755z"/>
		<path d="M225.938,101.047c0,0.896-0.185,1.432-0.552,1.775c-0.384,0.344-0.928,0.463-1.416,0.463c-0.463,0-0.975-0.112-1.287-0.32    l0.176-0.543c0.256,0.168,0.656,0.312,1.137,0.312c0.719,0,1.246-0.376,1.246-1.359v-0.424h-0.016    c-0.207,0.36-0.631,0.647-1.23,0.647c-0.961,0-1.648-0.815-1.648-1.895c0-1.311,0.855-2.047,1.752-2.047    c0.672,0,1.031,0.344,1.207,0.672h0.016l0.024-0.583h0.624c-0.024,0.271-0.032,0.591-0.032,1.055V101.047z M225.233,99.265    c0-0.112-0.008-0.216-0.039-0.312c-0.129-0.416-0.465-0.751-0.984-0.751c-0.672,0-1.15,0.568-1.15,1.471    c0,0.751,0.391,1.391,1.143,1.391c0.439,0,0.832-0.272,0.976-0.728c0.04-0.112,0.056-0.248,0.056-0.376V99.265z"/>
		<path d="M227.099,95.938h0.703v2.415h0.016c0.112-0.2,0.289-0.384,0.504-0.496c0.208-0.128,0.456-0.2,0.72-0.2    c0.521,0,1.352,0.32,1.352,1.655v2.303h-0.704v-2.231c0-0.624-0.231-1.143-0.895-1.143c-0.456,0-0.809,0.32-0.943,0.704    c-0.041,0.096-0.049,0.2-0.049,0.336v2.334h-0.703V95.938z"/>
		<path d="M233.139,100.896c0.216,0.128,0.583,0.272,0.936,0.272c0.503,0,0.743-0.248,0.743-0.576c0-0.336-0.199-0.512-0.711-0.704    c-0.704-0.256-1.031-0.64-1.031-1.095c0-0.624,0.512-1.136,1.335-1.136c0.392,0,0.735,0.104,0.943,0.24l-0.168,0.503    c-0.151-0.088-0.432-0.224-0.792-0.224c-0.416,0-0.639,0.24-0.639,0.527c0,0.32,0.223,0.464,0.727,0.664    c0.664,0.248,1.016,0.583,1.016,1.159c0,0.688-0.535,1.167-1.439,1.167c-0.424,0-0.814-0.112-1.087-0.272L233.139,100.896z"/>
		<path d="M237.25,96.818v0.928h1.007v0.536h-1.007v2.079c0,0.48,0.136,0.751,0.528,0.751c0.191,0,0.303-0.016,0.407-0.048    l0.032,0.536c-0.137,0.048-0.352,0.096-0.624,0.096c-0.327,0-0.592-0.112-0.759-0.296c-0.192-0.216-0.272-0.56-0.272-1.016v-2.103    h-0.6v-0.536h0.6v-0.712L237.25,96.818z"/>
		<path d="M241.776,100.688c0,0.335,0.017,0.664,0.057,0.927h-0.632l-0.063-0.488h-0.024c-0.208,0.304-0.632,0.576-1.183,0.576    c-0.784,0-1.184-0.552-1.184-1.111c0-0.936,0.831-1.447,2.326-1.439v-0.08c0-0.32-0.088-0.904-0.879-0.896    c-0.368,0-0.744,0.104-1.016,0.288l-0.16-0.472c0.32-0.2,0.791-0.336,1.279-0.336c1.191,0,1.479,0.808,1.479,1.583V100.688z     M241.089,99.64c-0.768-0.016-1.639,0.12-1.639,0.872c0,0.464,0.304,0.672,0.656,0.672c0.512,0,0.839-0.32,0.951-0.648    c0.023-0.072,0.031-0.152,0.031-0.224V99.64z"/>
		<path d="M242.906,98.793c0-0.408-0.008-0.728-0.032-1.047h0.624l0.04,0.631h0.016c0.192-0.36,0.641-0.72,1.279-0.72    c0.536,0,1.367,0.32,1.367,1.647v2.311h-0.703v-2.231c0-0.624-0.232-1.151-0.896-1.151c-0.456,0-0.815,0.328-0.943,0.72    c-0.032,0.088-0.048,0.216-0.048,0.328v2.334h-0.704V98.793z"/>
		<path d="M250.688,95.938v4.677c0,0.344,0.008,0.736,0.032,1h-0.632l-0.032-0.671h-0.016c-0.216,0.432-0.68,0.759-1.312,0.759    c-0.936,0-1.663-0.792-1.663-1.967c-0.008-1.295,0.8-2.079,1.735-2.079c0.6,0,0.999,0.28,1.167,0.584h0.017v-2.303H250.688z     M249.985,99.32c0-0.096-0.008-0.208-0.032-0.304c-0.104-0.44-0.487-0.808-1.016-0.808c-0.728,0-1.159,0.64-1.159,1.487    c0,0.792,0.392,1.439,1.143,1.439c0.473,0,0.904-0.319,1.032-0.847c0.024-0.088,0.032-0.184,0.032-0.296V99.32z"/>
		<path d="M254.585,100.688c0,0.335,0.016,0.664,0.056,0.927h-0.632l-0.064-0.488h-0.023c-0.208,0.304-0.632,0.576-1.184,0.576    c-0.783,0-1.184-0.552-1.184-1.111c0-0.936,0.832-1.447,2.327-1.439v-0.08c0-0.32-0.088-0.904-0.88-0.896    c-0.367,0-0.743,0.104-1.016,0.288l-0.159-0.472c0.319-0.2,0.792-0.336,1.279-0.336c1.191,0,1.479,0.808,1.479,1.583V100.688z     M253.897,99.64c-0.768-0.016-1.64,0.12-1.64,0.872c0,0.464,0.304,0.672,0.655,0.672c0.512,0,0.84-0.32,0.952-0.648    c0.024-0.072,0.032-0.152,0.032-0.224V99.64z"/>
		<path d="M255.714,98.953c0-0.456-0.008-0.848-0.031-1.207h0.615l0.031,0.759h0.024c0.177-0.52,0.608-0.848,1.079-0.848    c0.072,0,0.129,0.008,0.192,0.016v0.664c-0.071-0.008-0.144-0.016-0.239-0.016c-0.496,0-0.848,0.376-0.944,0.896    c-0.016,0.104-0.024,0.216-0.024,0.328v2.071h-0.703V98.953z"/>
		<path d="M261.673,95.938v4.677c0,0.344,0.008,0.736,0.031,1h-0.631l-0.032-0.671h-0.017c-0.215,0.432-0.68,0.759-1.311,0.759    c-0.936,0-1.664-0.792-1.664-1.967c-0.008-1.295,0.801-2.079,1.736-2.079c0.6,0,0.999,0.28,1.166,0.584h0.017v-2.303H261.673z     M260.969,99.32c0-0.096-0.008-0.208-0.032-0.304c-0.104-0.44-0.487-0.808-1.016-0.808c-0.727,0-1.158,0.64-1.158,1.487    c0,0.792,0.391,1.439,1.143,1.439c0.472,0,0.904-0.319,1.031-0.847c0.024-0.088,0.032-0.184,0.032-0.296V99.32z"/>
		<path d="M227.358,111.303c-1.039,0-1.855-0.768-1.855-1.991c0-1.295,0.855-2.055,1.92-2.055c1.11,0,1.862,0.808,1.862,1.983    c0,1.439-0.999,2.063-1.919,2.063H227.358z M227.391,110.775c0.671,0,1.175-0.631,1.175-1.511c0-0.655-0.328-1.479-1.158-1.479    c-0.824,0-1.184,0.768-1.184,1.503c0,0.847,0.479,1.487,1.158,1.487H227.391z"/>
		<path d="M230.239,111.215v-3.334h-0.536v-0.536h0.536v-0.184c0-0.544,0.127-1.04,0.455-1.351c0.264-0.256,0.616-0.359,0.936-0.359    c0.256,0,0.464,0.056,0.6,0.112l-0.088,0.543c-0.111-0.048-0.248-0.088-0.455-0.088c-0.592,0-0.752,0.528-0.752,1.12v0.208h0.936    v0.536h-0.928v3.334H230.239z"/>
		<path d="M234.206,105.539h0.704v5.676h-0.704V105.539z"/>
		<path d="M236.431,106.689c-0.256,0-0.424-0.2-0.424-0.432c0-0.248,0.176-0.439,0.439-0.439c0.256,0,0.432,0.191,0.432,0.439    c0,0.231-0.168,0.432-0.439,0.432H236.431z M236.095,111.215v-3.87h0.703v3.87H236.095z"/>
		<path d="M238.238,107.345l0.76,2.167c0.128,0.36,0.231,0.68,0.312,1h0.024c0.088-0.32,0.2-0.64,0.327-1l0.752-2.167h0.736    l-1.52,3.87h-0.672l-1.471-3.87H238.238z"/>
		<path d="M242.15,106.689c-0.256,0-0.424-0.2-0.424-0.432c0-0.248,0.176-0.439,0.44-0.439c0.256,0,0.432,0.191,0.432,0.439    c0,0.231-0.168,0.432-0.44,0.432H242.15z M241.814,111.215v-3.87h0.704v3.87H241.814z"/>
		<path d="M243.687,108.393c0-0.408-0.008-0.728-0.032-1.048h0.624l0.039,0.632h0.017c0.192-0.36,0.64-0.72,1.279-0.72    c0.536,0,1.367,0.32,1.367,1.647v2.311h-0.704v-2.231c0-0.624-0.231-1.151-0.895-1.151c-0.456,0-0.816,0.328-0.943,0.72    c-0.033,0.088-0.049,0.216-0.049,0.328v2.335h-0.703V108.393z"/>
		<path d="M251.437,110.647c0,0.896-0.184,1.431-0.551,1.775c-0.385,0.344-0.928,0.463-1.416,0.463c-0.463,0-0.975-0.112-1.287-0.32    l0.176-0.543c0.256,0.168,0.656,0.312,1.136,0.312c0.72,0,1.247-0.375,1.247-1.359v-0.424h-0.016    c-0.208,0.36-0.632,0.647-1.231,0.647c-0.96,0-1.647-0.815-1.647-1.895c0-1.311,0.855-2.047,1.751-2.047    c0.672,0,1.032,0.344,1.208,0.672h0.016l0.023-0.584h0.624c-0.024,0.272-0.032,0.592-0.032,1.056V110.647z M250.733,108.864    c0-0.112-0.008-0.216-0.04-0.312c-0.128-0.416-0.464-0.751-0.983-0.751c-0.672,0-1.151,0.567-1.151,1.471    c0,0.751,0.392,1.391,1.144,1.391c0.439,0,0.831-0.272,0.975-0.728c0.041-0.112,0.057-0.248,0.057-0.376V108.864z"/>
	</g>
	<polyline fill="none" stroke="#000000" stroke-width="0.5" stroke-linejoin="round" stroke-miterlimit="10" points="355.536,90    203.536,89.999 203.536,0  "/>
	
		<line fill="none" stroke="#000000" stroke-width="0.5" stroke-linejoin="round" stroke-miterlimit="10" x1="203.612" y1="70" x2="200.612" y2="70"/>
	
		<line fill="none" stroke="#A7A9AC" stroke-width="0.5" stroke-linejoin="round" stroke-miterlimit="10" x1="203.612" y1="50" x2="355.536" y2="50"/>
	
		<line fill="none" stroke="#000000" stroke-width="0.5" stroke-linejoin="round" stroke-miterlimit="10" x1="203.612" y1="50" x2="200.612" y2="50"/>
	
		<line fill="none" stroke="#A7A9AC" stroke-width="0.5" stroke-linejoin="round" stroke-miterlimit="10" x1="203.612" y1="30" x2="355.536" y2="30"/>
	
		<line fill="none" stroke="#000000" stroke-width="0.5" stroke-linejoin="round" stroke-miterlimit="10" x1="203.612" y1="30" x2="200.612" y2="30"/>
	
		<line fill="none" stroke="#A7A9AC" stroke-width="0.5" stroke-linejoin="round" stroke-miterlimit="10" x1="203.612" y1="10" x2="355.536" y2="10"/>
	
		<line fill="none" stroke="#000000" stroke-width="0.5" stroke-linejoin="round" stroke-miterlimit="10" x1="203.612" y1="10" x2="200.612" y2="10"/>
	
		<line fill="none" stroke="#000000" stroke-width="0.5" stroke-linejoin="round" stroke-miterlimit="10" x1="203.612" y1="90" x2="200.612" y2="90"/>
	
		<line fill="none" stroke="#000000" stroke-width="0.5" stroke-linejoin="round" stroke-miterlimit="10" x1="238.612" y1="90" x2="238.612" y2="93"/>
	<g>
		<path d="M297.659,96.298c0.336-0.064,0.775-0.112,1.336-0.112c0.688,0,1.191,0.16,1.511,0.448c0.296,0.256,0.479,0.648,0.479,1.12    c0,0.488-0.144,0.872-0.424,1.151c-0.367,0.392-0.967,0.592-1.646,0.592c-0.208,0-0.4-0.008-0.561-0.048v2.167h-0.695V96.298z     M298.354,98.881c0.152,0.04,0.344,0.056,0.576,0.056c0.84,0,1.352-0.408,1.352-1.143c0-0.712-0.504-1.056-1.271-1.056    c-0.304,0-0.535,0.024-0.656,0.056V98.881z"/>
		<path d="M303.466,101.703c-1.039,0-1.854-0.768-1.854-1.991c0-1.295,0.855-2.055,1.919-2.055c1.111,0,1.863,0.808,1.863,1.983    c0,1.439-1,2.063-1.919,2.063H303.466z M303.499,101.175c0.671,0,1.175-0.631,1.175-1.511c0-0.656-0.328-1.479-1.159-1.479    c-0.824,0-1.184,0.768-1.184,1.503c0,0.847,0.479,1.487,1.159,1.487H303.499z"/>
		<path d="M307.858,101.703c-1.039,0-1.855-0.768-1.855-1.991c0-1.295,0.855-2.055,1.92-2.055c1.111,0,1.862,0.808,1.862,1.983    c0,1.439-0.999,2.063-1.919,2.063H307.858z M307.891,101.175c0.671,0,1.175-0.631,1.175-1.511c0-0.656-0.327-1.479-1.159-1.479    c-0.823,0-1.183,0.768-1.183,1.503c0,0.847,0.479,1.487,1.158,1.487H307.891z"/>
		<path d="M310.675,98.953c0-0.456-0.008-0.848-0.031-1.207h0.615l0.031,0.759h0.024c0.177-0.52,0.608-0.848,1.079-0.848    c0.072,0,0.129,0.008,0.192,0.016v0.664c-0.071-0.008-0.144-0.016-0.239-0.016c-0.496,0-0.848,0.376-0.943,0.896    c-0.017,0.104-0.025,0.216-0.025,0.328v2.071h-0.703V98.953z"/>
		<path d="M314.891,100.896c0.216,0.128,0.583,0.272,0.936,0.272c0.503,0,0.743-0.248,0.743-0.576c0-0.336-0.199-0.512-0.711-0.704    c-0.704-0.256-1.031-0.64-1.031-1.095c0-0.624,0.512-1.136,1.334-1.136c0.393,0,0.736,0.104,0.944,0.24l-0.168,0.503    c-0.151-0.088-0.432-0.224-0.792-0.224c-0.416,0-0.639,0.24-0.639,0.527c0,0.32,0.223,0.464,0.727,0.664    c0.664,0.248,1.016,0.583,1.016,1.159c0,0.688-0.535,1.167-1.439,1.167c-0.424,0-0.814-0.112-1.087-0.272L314.891,100.896z"/>
		<path d="M319.002,96.818v0.928h1.007v0.536h-1.007v2.079c0,0.48,0.136,0.751,0.528,0.751c0.191,0,0.303-0.016,0.407-0.048    l0.032,0.536c-0.137,0.048-0.352,0.096-0.624,0.096c-0.327,0-0.591-0.112-0.759-0.296c-0.192-0.216-0.272-0.56-0.272-1.016v-2.103    h-0.6v-0.536h0.6v-0.712L319.002,96.818z"/>
		<path d="M323.529,100.688c0,0.335,0.017,0.664,0.056,0.927h-0.631l-0.064-0.488h-0.023c-0.209,0.304-0.633,0.576-1.184,0.576    c-0.783,0-1.184-0.552-1.184-1.111c0-0.936,0.832-1.447,2.326-1.439v-0.08c0-0.32-0.088-0.904-0.879-0.896    c-0.367,0-0.744,0.104-1.016,0.288l-0.16-0.472c0.32-0.2,0.792-0.336,1.279-0.336c1.191,0,1.479,0.808,1.479,1.583V100.688z     M322.842,99.64c-0.768-0.016-1.64,0.12-1.64,0.872c0,0.464,0.305,0.672,0.656,0.672c0.512,0,0.84-0.32,0.951-0.648    c0.024-0.072,0.032-0.152,0.032-0.224V99.64z"/>
		<path d="M324.658,98.793c0-0.408-0.008-0.728-0.032-1.047h0.624l0.04,0.631h0.016c0.192-0.36,0.641-0.72,1.279-0.72    c0.536,0,1.367,0.32,1.367,1.647v2.311h-0.703v-2.231c0-0.624-0.232-1.151-0.896-1.151c-0.456,0-0.815,0.328-0.943,0.72    c-0.032,0.088-0.048,0.216-0.048,0.328v2.334h-0.704V98.793z"/>
		<path d="M332.44,95.938v4.677c0,0.344,0.008,0.736,0.033,1h-0.633l-0.031-0.671h-0.016c-0.217,0.432-0.68,0.759-1.312,0.759    c-0.936,0-1.662-0.792-1.662-1.967c-0.008-1.295,0.799-2.079,1.734-2.079c0.6,0,1,0.28,1.168,0.584h0.016v-2.303H332.44z     M331.737,99.32c0-0.096-0.008-0.208-0.031-0.304c-0.104-0.44-0.488-0.808-1.016-0.808c-0.729,0-1.16,0.64-1.16,1.487    c0,0.792,0.393,1.439,1.144,1.439c0.472,0,0.903-0.319,1.032-0.847c0.023-0.088,0.031-0.184,0.031-0.296V99.32z"/>
		<path d="M336.337,100.688c0,0.335,0.016,0.664,0.057,0.927h-0.633l-0.063-0.488h-0.024c-0.207,0.304-0.631,0.576-1.183,0.576    c-0.784,0-1.184-0.552-1.184-1.111c0-0.936,0.831-1.447,2.327-1.439v-0.08c0-0.32-0.088-0.904-0.88-0.896    c-0.368,0-0.743,0.104-1.016,0.288l-0.159-0.472c0.319-0.2,0.791-0.336,1.279-0.336c1.191,0,1.479,0.808,1.479,1.583V100.688z     M335.649,99.64c-0.768-0.016-1.639,0.12-1.639,0.872c0,0.464,0.303,0.672,0.655,0.672c0.512,0,0.839-0.32,0.952-0.648    c0.023-0.072,0.031-0.152,0.031-0.224V99.64z"/>
		<path d="M337.466,98.953c0-0.456-0.008-0.848-0.031-1.207h0.615l0.032,0.759h0.024c0.176-0.52,0.607-0.848,1.079-0.848    c0.071,0,0.128,0.008,0.192,0.016v0.664c-0.072-0.008-0.145-0.016-0.24-0.016c-0.496,0-0.848,0.376-0.943,0.896    c-0.016,0.104-0.024,0.216-0.024,0.328v2.071h-0.704V98.953z"/>
		<path d="M343.425,95.938v4.677c0,0.344,0.008,0.736,0.031,1h-0.631l-0.033-0.671h-0.016c-0.215,0.432-0.68,0.759-1.311,0.759    c-0.936,0-1.664-0.792-1.664-1.967c-0.008-1.295,0.801-2.079,1.736-2.079c0.6,0,0.998,0.28,1.166,0.584h0.017v-2.303H343.425z     M342.721,99.32c0-0.096-0.008-0.208-0.032-0.304c-0.104-0.44-0.487-0.808-1.016-0.808c-0.727,0-1.158,0.64-1.158,1.487    c0,0.792,0.391,1.439,1.143,1.439c0.472,0,0.904-0.319,1.031-0.847c0.024-0.088,0.032-0.184,0.032-0.296V99.32z"/>
		<path d="M309.282,111.303c-1.039,0-1.854-0.768-1.854-1.991c0-1.295,0.855-2.055,1.919-2.055c1.111,0,1.863,0.808,1.863,1.983    c0,1.439-1,2.063-1.919,2.063H309.282z M309.315,110.775c0.67,0,1.174-0.631,1.174-1.511c0-0.655-0.328-1.479-1.158-1.479    c-0.824,0-1.184,0.768-1.184,1.503c0,0.847,0.479,1.487,1.159,1.487H309.315z"/>
		<path d="M312.163,111.215v-3.334h-0.535v-0.536h0.535v-0.184c0-0.544,0.128-1.04,0.456-1.351c0.264-0.256,0.616-0.359,0.936-0.359    c0.256,0,0.464,0.056,0.6,0.112l-0.088,0.543c-0.112-0.048-0.248-0.088-0.456-0.088c-0.592,0-0.752,0.528-0.752,1.12v0.208h0.936    v0.536h-0.928v3.334H312.163z"/>
		<path d="M316.131,105.539h0.704v5.676h-0.704V105.539z"/>
		<path d="M318.354,106.689c-0.256,0-0.424-0.2-0.424-0.432c0-0.248,0.176-0.439,0.439-0.439c0.256,0,0.432,0.191,0.432,0.439    c0,0.231-0.168,0.432-0.439,0.432H318.354z M318.019,111.215v-3.87h0.703v3.87H318.019z"/>
		<path d="M320.163,107.345l0.76,2.167c0.127,0.36,0.231,0.68,0.311,1h0.025c0.088-0.32,0.199-0.64,0.327-1l0.751-2.167h0.736    l-1.52,3.87h-0.672l-1.471-3.87H320.163z"/>
		<path d="M324.075,106.689c-0.256,0-0.424-0.2-0.424-0.432c0-0.248,0.176-0.439,0.439-0.439c0.256,0,0.432,0.191,0.432,0.439    c0,0.231-0.168,0.432-0.439,0.432H324.075z M323.739,111.215v-3.87h0.703v3.87H323.739z"/>
		<path d="M325.61,108.393c0-0.408-0.008-0.728-0.031-1.048h0.623l0.04,0.632h0.017c0.191-0.36,0.639-0.72,1.279-0.72    c0.535,0,1.367,0.32,1.367,1.647v2.311h-0.704v-2.231c0-0.624-0.231-1.151-0.896-1.151c-0.455,0-0.815,0.328-0.943,0.72    c-0.032,0.088-0.049,0.216-0.049,0.328v2.335h-0.703V108.393z"/>
		<path d="M333.361,110.647c0,0.896-0.185,1.431-0.552,1.775c-0.384,0.344-0.928,0.463-1.416,0.463c-0.463,0-0.975-0.112-1.287-0.32    l0.176-0.543c0.256,0.168,0.656,0.312,1.137,0.312c0.719,0,1.246-0.375,1.246-1.359v-0.424h-0.016    c-0.207,0.36-0.631,0.647-1.23,0.647c-0.961,0-1.648-0.815-1.648-1.895c0-1.311,0.855-2.047,1.752-2.047    c0.672,0,1.031,0.344,1.207,0.672h0.016l0.024-0.584h0.624c-0.024,0.272-0.032,0.592-0.032,1.056V110.647z M332.657,108.864    c0-0.112-0.008-0.216-0.039-0.312c-0.129-0.416-0.465-0.751-0.984-0.751c-0.672,0-1.15,0.567-1.15,1.471    c0,0.751,0.391,1.391,1.143,1.391c0.439,0,0.832-0.272,0.976-0.728c0.04-0.112,0.056-0.248,0.056-0.376V108.864z"/>
	</g>
	
		<line fill="none" stroke="#000000" stroke-width="0.5" stroke-linejoin="round" stroke-miterlimit="10" x1="320.536" y1="90" x2="320.536" y2="93"/>
	
		<line fill="none" stroke="#A7A9AC" stroke-width="0.5" stroke-linejoin="round" stroke-miterlimit="10" x1="15.261" y1="192.314" x2="167.185" y2="192.314"/>
	<g>
		<path d="M1.705,135.509v-0.432l0.552-0.536c1.327-1.263,1.935-1.935,1.935-2.718c0-0.528-0.248-1.016-1.023-1.016    c-0.472,0-0.863,0.239-1.103,0.439l-0.224-0.496c0.352-0.295,0.872-0.527,1.471-0.527c1.111,0,1.583,0.768,1.583,1.512    c0,0.959-0.696,1.734-1.791,2.79l-0.408,0.384v0.016h2.327v0.584H1.705z"/>
		<path d="M6.329,135.597c-0.272,0-0.463-0.216-0.463-0.504c0-0.287,0.2-0.504,0.479-0.504s0.472,0.208,0.472,0.504    c0,0.288-0.192,0.504-0.479,0.504H6.329z"/>
		<path d="M7.873,135.013c0.152,0.009,0.328,0,0.568-0.031c0.408-0.049,0.792-0.216,1.087-0.496c0.344-0.32,0.591-0.768,0.688-1.383    h-0.024c-0.288,0.352-0.704,0.56-1.231,0.56c-0.936,0-1.535-0.704-1.535-1.6c0-0.976,0.72-1.839,1.783-1.839    s1.719,0.855,1.719,2.19c0,1.144-0.384,1.943-0.896,2.439c-0.399,0.384-0.951,0.631-1.511,0.695    c-0.256,0.032-0.488,0.048-0.647,0.04V135.013z M9.144,130.76c-0.592,0-1.016,0.527-1.016,1.263c0,0.647,0.392,1.104,1,1.104    c0.472,0,0.839-0.231,1.031-0.544c0.032-0.063,0.056-0.144,0.056-0.256c0.008-0.896-0.328-1.566-1.063-1.566H9.144z"/>
		<path d="M1.705,155.509v-0.432l0.552-0.536c1.327-1.263,1.935-1.935,1.935-2.718c0-0.528-0.248-1.016-1.023-1.016    c-0.472,0-0.863,0.239-1.103,0.439l-0.224-0.496c0.352-0.295,0.872-0.527,1.471-0.527c1.111,0,1.583,0.768,1.583,1.512    c0,0.959-0.696,1.734-1.791,2.79l-0.408,0.384v0.016h2.327v0.584H1.705z"/>
		<path d="M6.329,155.597c-0.272,0-0.463-0.216-0.463-0.504c0-0.287,0.2-0.504,0.479-0.504s0.472,0.208,0.472,0.504    c0,0.288-0.192,0.504-0.479,0.504H6.329z"/>
		<path d="M9.208,150.224c1.007,0,1.519,0.624,1.519,1.279c0,0.439-0.224,0.92-0.864,1.216v0.023    c0.648,0.256,1.048,0.72,1.048,1.344c0,0.911-0.776,1.511-1.767,1.511c-1.087,0-1.743-0.64-1.743-1.399    c0-0.655,0.392-1.127,1.023-1.399v-0.023c-0.583-0.271-0.832-0.72-0.832-1.168c0-0.823,0.695-1.383,1.607-1.383H9.208z     M9.16,155.085c0.632,0,1.04-0.392,1.04-0.928c0-0.623-0.439-0.936-1.144-1.135c-0.607,0.176-0.935,0.583-0.935,1.079    c-0.024,0.52,0.375,0.983,1.031,0.983H9.16z M9.168,150.728c-0.584,0-0.904,0.384-0.904,0.831c-0.008,0.521,0.392,0.8,0.992,0.96    c0.448-0.152,0.792-0.472,0.792-0.943c0-0.416-0.248-0.848-0.872-0.848H9.168z"/>
		<path d="M1.705,175.509v-0.432l0.552-0.536c1.327-1.263,1.935-1.935,1.935-2.718c0-0.528-0.248-1.016-1.023-1.016    c-0.472,0-0.863,0.239-1.103,0.439l-0.224-0.496c0.352-0.295,0.872-0.527,1.471-0.527c1.111,0,1.583,0.768,1.583,1.512    c0,0.959-0.696,1.734-1.791,2.79l-0.408,0.384v0.016h2.327v0.584H1.705z"/>
		<path d="M6.329,175.597c-0.272,0-0.463-0.216-0.463-0.504c0-0.287,0.2-0.504,0.479-0.504s0.472,0.208,0.472,0.504    c0,0.288-0.192,0.504-0.479,0.504H6.329z"/>
		<path d="M10.839,170.312v0.464l-2.263,4.733h-0.72l2.247-4.598v-0.016H7.561v-0.584H10.839z"/>
		<path d="M1.705,195.509v-0.432l0.552-0.536c1.327-1.263,1.935-1.935,1.935-2.718c0-0.528-0.248-1.016-1.023-1.016    c-0.472,0-0.863,0.239-1.103,0.439l-0.224-0.496c0.352-0.295,0.872-0.527,1.471-0.527c1.111,0,1.583,0.768,1.583,1.512    c0,0.959-0.696,1.734-1.791,2.79l-0.408,0.384v0.016h2.327v0.584H1.705z"/>
		<path d="M6.329,195.597c-0.272,0-0.463-0.216-0.463-0.504c0-0.287,0.2-0.504,0.479-0.504s0.472,0.208,0.472,0.504    c0,0.288-0.192,0.504-0.479,0.504H6.329z"/>
		<path d="M10.431,190.808c-0.144-0.008-0.328,0.008-0.528,0.04c-1.111,0.176-1.687,0.976-1.807,1.839h0.016    c0.248-0.336,0.688-0.607,1.264-0.607c0.919,0,1.567,0.671,1.567,1.679c0,0.959-0.647,1.839-1.735,1.839    c-1.104,0-1.831-0.863-1.831-2.215c0-1.023,0.36-1.831,0.879-2.343c0.432-0.424,1.007-0.688,1.663-0.768    c0.208-0.032,0.384-0.04,0.512-0.04V190.808z M9.224,195.053c0.6,0,1.008-0.503,1.008-1.247c0-0.743-0.424-1.191-1.072-1.191    c-0.423,0-0.823,0.256-1.015,0.64c-0.04,0.08-0.072,0.176-0.072,0.304c0.008,0.855,0.408,1.495,1.144,1.495H9.224z"/>
		<path d="M1.705,215.509v-0.432l0.552-0.536c1.327-1.263,1.935-1.935,1.935-2.718c0-0.528-0.248-1.016-1.023-1.016    c-0.472,0-0.863,0.239-1.103,0.439l-0.224-0.496c0.352-0.295,0.872-0.527,1.471-0.527c1.111,0,1.583,0.768,1.583,1.512    c0,0.959-0.696,1.734-1.791,2.79l-0.408,0.384v0.016h2.327v0.584H1.705z"/>
		<path d="M6.329,215.597c-0.272,0-0.463-0.216-0.463-0.504c0-0.287,0.2-0.504,0.479-0.504s0.472,0.208,0.472,0.504    c0,0.288-0.192,0.504-0.479,0.504H6.329z"/>
		<path d="M10.567,210.903H8.584l-0.2,1.335c0.12-0.016,0.232-0.031,0.424-0.031c0.408,0,0.799,0.088,1.119,0.279    c0.408,0.224,0.744,0.68,0.744,1.335c0,1.016-0.808,1.775-1.935,1.775c-0.568,0-1.04-0.16-1.295-0.319l0.176-0.536    c0.216,0.128,0.64,0.288,1.12,0.288c0.655,0,1.231-0.432,1.223-1.136c0-0.663-0.456-1.144-1.487-1.144    c-0.304,0-0.536,0.024-0.728,0.057l0.336-2.495h2.486V210.903z"/>
	</g>
	<g>
		<path d="M31.952,218.612c0.432-0.064,0.936-0.112,1.487-0.112c1,0,1.711,0.232,2.183,0.672c0.488,0.439,0.768,1.063,0.768,1.935    c0,0.879-0.28,1.599-0.775,2.095c-0.512,0.503-1.343,0.775-2.391,0.775c-0.504,0-0.912-0.016-1.271-0.064V218.612z     M32.655,223.386c0.176,0.032,0.432,0.032,0.704,0.032c1.487,0.008,2.295-0.832,2.295-2.287c0.008-1.271-0.712-2.079-2.183-2.079    c-0.36,0-0.631,0.032-0.815,0.072V223.386z"/>
		<path d="M37.664,222.122c0.016,0.943,0.616,1.335,1.319,1.335c0.503,0,0.815-0.088,1.071-0.2l0.128,0.503    c-0.248,0.112-0.68,0.248-1.294,0.248c-1.184,0-1.903-0.792-1.903-1.951c0-1.167,0.696-2.087,1.823-2.087    c1.263,0,1.59,1.112,1.59,1.823c0,0.144-0.008,0.248-0.024,0.328H37.664z M39.718,221.619c0.008-0.448-0.184-1.144-0.967-1.144    c-0.72,0-1.023,0.656-1.08,1.144H39.718z"/>
		<path d="M41.271,221.107c0-0.408-0.016-0.728-0.032-1.047h0.616l0.032,0.624h0.024c0.216-0.368,0.576-0.712,1.224-0.712    c0.52,0,0.919,0.32,1.087,0.776h0.016c0.12-0.224,0.28-0.384,0.44-0.504c0.232-0.176,0.48-0.272,0.848-0.272    c0.52,0,1.279,0.336,1.279,1.679v2.279h-0.688v-2.191c0-0.751-0.28-1.191-0.84-1.191c-0.408,0-0.711,0.296-0.839,0.632    c-0.032,0.104-0.056,0.232-0.056,0.352v2.399h-0.688v-2.327c0-0.616-0.272-1.056-0.808-1.056c-0.432,0-0.759,0.352-0.872,0.704    c-0.04,0.104-0.056,0.224-0.056,0.344v2.334h-0.688V221.107z"/>
		<path d="M49.518,224.017c-1.04,0-1.855-0.768-1.855-1.991c0-1.295,0.855-2.055,1.919-2.055c1.111,0,1.863,0.808,1.863,1.983    c0,1.439-1,2.063-1.919,2.063H49.518z M49.55,223.489c0.671,0,1.175-0.631,1.175-1.511c0-0.656-0.328-1.479-1.159-1.479    c-0.824,0-1.184,0.768-1.184,1.503c0,0.847,0.479,1.487,1.159,1.487H49.55z"/>
		<path d="M55.094,223.785c-0.184,0.088-0.592,0.224-1.111,0.224c-1.167,0-1.927-0.792-1.927-1.975c0-1.191,0.816-2.063,2.079-2.063    c0.416,0,0.784,0.104,0.975,0.208l-0.16,0.536c-0.168-0.088-0.432-0.184-0.815-0.184c-0.888,0-1.367,0.664-1.367,1.463    c0,0.896,0.576,1.447,1.343,1.447c0.399,0,0.664-0.096,0.863-0.184L55.094,223.785z"/>
		<path d="M55.919,221.267c0-0.456-0.008-0.848-0.032-1.207h0.616l0.032,0.759h0.024c0.176-0.52,0.608-0.848,1.08-0.848    c0.072,0,0.128,0.008,0.192,0.016v0.664c-0.072-0.008-0.144-0.016-0.24-0.016c-0.496,0-0.848,0.376-0.944,0.896    c-0.016,0.104-0.024,0.216-0.024,0.328v2.071h-0.704V221.267z"/>
		<path d="M61.261,223.002c0,0.335,0.016,0.664,0.056,0.927h-0.632l-0.064-0.488h-0.024c-0.208,0.304-0.632,0.576-1.183,0.576    c-0.784,0-1.184-0.552-1.184-1.111c0-0.936,0.832-1.447,2.327-1.439v-0.08c0-0.32-0.088-0.904-0.879-0.896    c-0.368,0-0.744,0.104-1.016,0.288l-0.16-0.472c0.32-0.2,0.792-0.336,1.279-0.336c1.191,0,1.479,0.808,1.479,1.583V223.002z     M60.574,221.954c-0.768-0.016-1.639,0.12-1.639,0.872c0,0.464,0.304,0.672,0.656,0.672c0.512,0,0.839-0.32,0.952-0.648    c0.024-0.072,0.032-0.152,0.032-0.224V221.954z"/>
		<path d="M65.149,223.785c-0.184,0.088-0.592,0.224-1.111,0.224c-1.167,0-1.927-0.792-1.927-1.975c0-1.191,0.816-2.063,2.079-2.063    c0.416,0,0.784,0.104,0.975,0.208l-0.16,0.536c-0.168-0.088-0.432-0.184-0.815-0.184c-0.888,0-1.367,0.664-1.367,1.463    c0,0.896,0.576,1.447,1.343,1.447c0.399,0,0.664-0.096,0.863-0.184L65.149,223.785z"/>
		<path d="M66.23,220.06l0.84,2.287c0.096,0.256,0.192,0.56,0.256,0.792h0.016c0.072-0.232,0.152-0.528,0.248-0.808l0.768-2.271    h0.744l-1.055,2.758c-0.504,1.327-0.848,1.999-1.328,2.422c-0.352,0.296-0.688,0.416-0.863,0.448l-0.176-0.584    c0.176-0.056,0.408-0.168,0.616-0.344c0.192-0.152,0.424-0.424,0.592-0.784c0.032-0.072,0.056-0.128,0.056-0.168    c0-0.04-0.016-0.096-0.056-0.184l-1.423-3.566H66.23z"/>
	</g>
	<polyline fill="none" stroke="#000000" stroke-width="0.5" stroke-linejoin="round" stroke-miterlimit="10" points="   167.185,212.313 15.185,212.312 15.185,122.314  "/>
	
		<line fill="none" stroke="#000000" stroke-width="0.5" stroke-linejoin="round" stroke-miterlimit="10" x1="15.261" y1="192.314" x2="12.261" y2="192.314"/>
	
		<line fill="none" stroke="#A7A9AC" stroke-width="0.5" stroke-linejoin="round" stroke-miterlimit="10" x1="15.261" y1="172.314" x2="167.185" y2="172.314"/>
	
		<line fill="none" stroke="#000000" stroke-width="0.5" stroke-linejoin="round" stroke-miterlimit="10" x1="15.261" y1="172.314" x2="12.261" y2="172.314"/>
	
		<line fill="none" stroke="#A7A9AC" stroke-width="0.5" stroke-linejoin="round" stroke-miterlimit="10" x1="15.261" y1="152.314" x2="167.185" y2="152.314"/>
	
		<line fill="none" stroke="#000000" stroke-width="0.5" stroke-linejoin="round" stroke-miterlimit="10" x1="15.261" y1="152.314" x2="12.261" y2="152.314"/>
	
		<line fill="none" stroke="#A7A9AC" stroke-width="0.5" stroke-linejoin="round" stroke-miterlimit="10" x1="15.261" y1="132.314" x2="167.185" y2="132.314"/>
	
		<line fill="none" stroke="#000000" stroke-width="0.5" stroke-linejoin="round" stroke-miterlimit="10" x1="15.261" y1="132.314" x2="12.261" y2="132.314"/>
	
		<line fill="none" stroke="#000000" stroke-width="0.5" stroke-linejoin="round" stroke-miterlimit="10" x1="15.261" y1="212.313" x2="12.261" y2="212.313"/>
	
		<line fill="none" stroke="#000000" stroke-width="0.5" stroke-linejoin="round" stroke-miterlimit="10" x1="50.261" y1="212.314" x2="50.261" y2="215.314"/>
	<g>
		<path d="M104.517,223.929v-5.389h0.768l1.719,2.727c0.392,0.632,0.712,1.199,0.959,1.751l0.024-0.008    c-0.064-0.72-0.08-1.375-0.08-2.207v-2.263h0.656v5.389h-0.704l-1.711-2.734c-0.376-0.6-0.735-1.215-1-1.799l-0.024,0.008    c0.04,0.68,0.048,1.327,0.048,2.223v2.303H104.517z"/>
		<path d="M111.332,224.017c-1.04,0-1.855-0.768-1.855-1.991c0-1.295,0.855-2.055,1.919-2.055c1.111,0,1.863,0.808,1.863,1.983    c0,1.439-1,2.063-1.919,2.063H111.332z M111.364,223.489c0.671,0,1.175-0.631,1.175-1.511c0-0.656-0.328-1.479-1.159-1.479    c-0.824,0-1.184,0.768-1.184,1.503c0,0.847,0.479,1.487,1.159,1.487H111.364z"/>
		<path d="M114.996,219.132v0.928h1.007v0.536h-1.007v2.079c0,0.48,0.136,0.751,0.528,0.751c0.192,0,0.304-0.016,0.408-0.048    l0.032,0.536c-0.136,0.048-0.352,0.096-0.624,0.096c-0.328,0-0.591-0.112-0.759-0.296c-0.192-0.216-0.272-0.56-0.272-1.016v-2.103    h-0.6v-0.536h0.6v-0.712L114.996,219.132z"/>
		<path d="M121.218,223.002c0,0.335,0.016,0.664,0.056,0.927h-0.631l-0.064-0.488h-0.024c-0.208,0.304-0.632,0.576-1.183,0.576    c-0.784,0-1.184-0.552-1.184-1.111c0-0.936,0.832-1.447,2.327-1.439v-0.08c0-0.32-0.088-0.904-0.879-0.896    c-0.368,0-0.744,0.104-1.016,0.288l-0.16-0.472c0.32-0.2,0.792-0.336,1.279-0.336c1.191,0,1.479,0.808,1.479,1.583V223.002z     M120.531,221.954c-0.768-0.016-1.639,0.12-1.639,0.872c0,0.464,0.304,0.672,0.656,0.672c0.512,0,0.839-0.32,0.952-0.648    c0.024-0.072,0.032-0.152,0.032-0.224V221.954z"/>
		<path d="M127.386,218.252v4.677c0,0.344,0.008,0.736,0.032,1h-0.632l-0.032-0.671h-0.016c-0.216,0.432-0.68,0.759-1.312,0.759    c-0.936,0-1.663-0.792-1.663-1.967c-0.008-1.295,0.8-2.079,1.735-2.079c0.6,0,1,0.28,1.167,0.584h0.016v-2.303H127.386z     M126.682,221.634c0-0.096-0.008-0.208-0.032-0.304c-0.104-0.44-0.488-0.808-1.016-0.808c-0.728,0-1.159,0.64-1.159,1.487    c0,0.792,0.392,1.439,1.143,1.439c0.472,0,0.904-0.319,1.032-0.847c0.024-0.088,0.032-0.184,0.032-0.296V221.634z"/>
		<path d="M128.955,222.122c0.016,0.943,0.616,1.335,1.319,1.335c0.504,0,0.815-0.088,1.071-0.2l0.128,0.503    c-0.248,0.112-0.68,0.248-1.295,0.248c-1.183,0-1.903-0.792-1.903-1.951c0-1.167,0.696-2.087,1.823-2.087    c1.263,0,1.591,1.112,1.591,1.823c0,0.144-0.008,0.248-0.024,0.328H128.955z M131.01,221.619c0.008-0.448-0.184-1.144-0.968-1.144    c-0.72,0-1.023,0.656-1.079,1.144H131.01z"/>
		<path d="M132.563,221.107c0-0.408-0.016-0.728-0.032-1.047h0.616l0.032,0.624h0.024c0.216-0.368,0.576-0.712,1.224-0.712    c0.52,0,0.919,0.32,1.087,0.776h0.016c0.12-0.224,0.28-0.384,0.44-0.504c0.232-0.176,0.48-0.272,0.848-0.272    c0.52,0,1.279,0.336,1.279,1.679v2.279h-0.688v-2.191c0-0.751-0.28-1.191-0.84-1.191c-0.408,0-0.711,0.296-0.839,0.632    c-0.032,0.104-0.056,0.232-0.056,0.352v2.399h-0.688v-2.327c0-0.616-0.272-1.056-0.808-1.056c-0.432,0-0.759,0.352-0.872,0.704    c-0.04,0.104-0.056,0.224-0.056,0.344v2.334h-0.688V221.107z"/>
		<path d="M140.811,224.017c-1.04,0-1.855-0.768-1.855-1.991c0-1.295,0.855-2.055,1.919-2.055c1.111,0,1.863,0.808,1.863,1.983    c0,1.439-1,2.063-1.919,2.063H140.811z M140.843,223.489c0.671,0,1.175-0.631,1.175-1.511c0-0.656-0.328-1.479-1.159-1.479    c-0.824,0-1.184,0.768-1.184,1.503c0,0.847,0.479,1.487,1.159,1.487H140.843z"/>
		<path d="M146.386,223.785c-0.184,0.088-0.592,0.224-1.111,0.224c-1.167,0-1.927-0.792-1.927-1.975    c0-1.191,0.815-2.063,2.079-2.063c0.416,0,0.783,0.104,0.976,0.208l-0.16,0.536c-0.168-0.088-0.432-0.184-0.815-0.184    c-0.888,0-1.367,0.664-1.367,1.463c0,0.896,0.576,1.447,1.343,1.447c0.399,0,0.664-0.096,0.863-0.184L146.386,223.785z"/>
		<path d="M147.211,221.267c0-0.456-0.008-0.848-0.032-1.207h0.616l0.032,0.759h0.024c0.176-0.52,0.608-0.848,1.08-0.848    c0.072,0,0.128,0.008,0.192,0.016v0.664c-0.072-0.008-0.144-0.016-0.24-0.016c-0.496,0-0.848,0.376-0.943,0.896    c-0.016,0.104-0.024,0.216-0.024,0.328v2.071h-0.704V221.267z"/>
		<path d="M152.554,223.002c0,0.335,0.016,0.664,0.056,0.927h-0.632l-0.064-0.488h-0.024c-0.208,0.304-0.632,0.576-1.183,0.576    c-0.784,0-1.184-0.552-1.184-1.111c0-0.936,0.832-1.447,2.327-1.439v-0.08c0-0.32-0.088-0.904-0.879-0.896    c-0.368,0-0.744,0.104-1.016,0.288l-0.16-0.472c0.32-0.2,0.792-0.336,1.279-0.336c1.191,0,1.479,0.808,1.479,1.583V223.002z     M151.866,221.954c-0.768-0.016-1.639,0.12-1.639,0.872c0,0.464,0.304,0.672,0.656,0.672c0.512,0,0.839-0.32,0.952-0.648    c0.024-0.072,0.032-0.152,0.032-0.224V221.954z"/>
		<path d="M156.442,223.785c-0.184,0.088-0.592,0.224-1.111,0.224c-1.167,0-1.927-0.792-1.927-1.975    c0-1.191,0.816-2.063,2.079-2.063c0.416,0,0.784,0.104,0.975,0.208l-0.16,0.536c-0.168-0.088-0.432-0.184-0.815-0.184    c-0.888,0-1.367,0.664-1.367,1.463c0,0.896,0.576,1.447,1.343,1.447c0.399,0,0.664-0.096,0.863-0.184L156.442,223.785z"/>
		<path d="M157.523,220.06l0.84,2.287c0.096,0.256,0.192,0.56,0.256,0.792h0.016c0.072-0.232,0.152-0.528,0.248-0.808l0.768-2.271    h0.744l-1.055,2.758c-0.504,1.327-0.848,1.999-1.328,2.422c-0.352,0.296-0.688,0.416-0.863,0.448l-0.176-0.584    c0.176-0.056,0.408-0.168,0.616-0.344c0.192-0.152,0.424-0.424,0.592-0.784c0.032-0.072,0.056-0.128,0.056-0.168    c0-0.04-0.016-0.096-0.056-0.184l-1.423-3.566H157.523z"/>
	</g>
	
		<line fill="none" stroke="#000000" stroke-width="0.5" stroke-linejoin="round" stroke-miterlimit="10" x1="132.185" y1="212.314" x2="132.185" y2="215.314"/>
	<circle cx="218.074" cy="141.575" r="1.75"/>
	<circle cx="53.037" cy="129.626" r="1.75"/>
	<circle cx="53.037" cy="151.397" r="1.75"/>
	<circle cx="128.744" cy="181.024" r="1.75"/>
	<circle cx="128.744" cy="175.362" r="1.75"/>
	<circle cx="51.399" cy="10.475" r="1.75"/>
	<circle cx="51.399" cy="32.184" r="1.75"/>
	<circle cx="126.995" cy="55.698" r="1.75"/>
	<circle cx="126.995" cy="50.047" r="1.75"/>
	<circle cx="241.438" cy="8.667" r="1.75"/>
	<circle cx="317.054" cy="57.681" r="1.75"/>
	<circle cx="317.054" cy="52.921" r="1.75"/>
	<circle cx="241.438" cy="29.246" r="1.75"/>
	
		<line fill="none" stroke="#000000" stroke-linejoin="round" stroke-miterlimit="10" x1="206.074" y1="141.575" x2="230.074" y2="141.575"/>
	<circle cx="218.074" cy="153.575" r="1.75"/>
	<g>
		<g>
			<line fill="none" stroke="#000000" stroke-linejoin="round" x1="206.074" y1="153.575" x2="207.574" y2="153.575"/>
			
				<line fill="none" stroke="#000000" stroke-linejoin="round" stroke-dasharray="2.8636,1.9091" x1="209.483" y1="153.575" x2="227.62" y2="153.575"/>
			<line fill="none" stroke="#000000" stroke-linejoin="round" x1="228.574" y1="153.575" x2="230.074" y2="153.575"/>
		</g>
	</g>
	
		<line fill="none" stroke="#000000" stroke-linejoin="round" stroke-miterlimit="10" x1="51.399" y1="32.184" x2="126.995" y2="50.047"/>
	<g>
		<g>
			<line fill="none" stroke="#000000" stroke-linejoin="round" x1="51.399" y1="10.475" x2="52.686" y2="11.245"/>
			
				<line fill="none" stroke="#000000" stroke-linejoin="round" stroke-dasharray="2.9341,1.9561" x1="54.365" y1="12.25" x2="124.868" y2="54.426"/>
			<line fill="none" stroke="#000000" stroke-linejoin="round" x1="125.708" y1="54.928" x2="126.995" y2="55.698"/>
		</g>
	</g>
	
		<line fill="none" stroke="#000000" stroke-linejoin="round" stroke-miterlimit="10" x1="241.438" y1="29.246" x2="317.054" y2="52.921"/>
	<g>
		<g>
			<line fill="none" stroke="#000000" stroke-linejoin="round" x1="241.438" y1="8.667" x2="242.697" y2="9.483"/>
			
				<line fill="none" stroke="#000000" stroke-linejoin="round" stroke-dasharray="3.0038,2.0025" x1="244.378" y1="10.573" x2="314.955" y2="56.321"/>
			<line fill="none" stroke="#000000" stroke-linejoin="round" x1="315.795" y1="56.865" x2="317.054" y2="57.681"/>
		</g>
	</g>
	
		<line fill="none" stroke="#000000" stroke-linejoin="round" stroke-miterlimit="10" x1="53.037" y1="151.397" x2="128.744" y2="175.362"/>
	<g>
		<g>
			<line fill="none" stroke="#000000" stroke-linejoin="round" x1="53.037" y1="129.626" x2="54.278" y2="130.468"/>
			
				<line fill="none" stroke="#000000" stroke-linejoin="round" stroke-dasharray="3.0519,2.0346" x1="55.961" y1="131.611" x2="126.662" y2="179.61"/>
			<line fill="none" stroke="#000000" stroke-linejoin="round" x1="127.503" y1="180.182" x2="128.744" y2="181.024"/>
		</g>
	</g>
</g>
</svg>