<svg xmlns="http://www.w3.org/2000/svg" xmlns:xlink="http://www.w3.org/1999/xlink" version="1.1" x="0px" y="0px" width="359.174px" height="207.429px" viewBox="0 0 359.174 207.429" enable-background="new 0 0 359.174 207.429" xml:space="preserve">
<g id="wide">
</g>
<g id="text_column" display="none">
</g>
<g id="art">
	<g>
		<path d="M2.415,17.473V16.05H0v-0.456l2.318-3.318h0.76v3.23h0.728v0.544H3.078v1.423H2.415z M2.415,15.506v-1.735    c0-0.271,0.008-0.544,0.024-0.815H2.415c-0.16,0.304-0.288,0.527-0.432,0.768L0.711,15.49v0.016H2.415z"/>
		<path d="M4.863,17.561c-0.272,0-0.463-0.216-0.463-0.504c0-0.287,0.2-0.504,0.479-0.504s0.472,0.208,0.472,0.504    c0,0.288-0.192,0.504-0.479,0.504H4.863z"/>
		<path d="M9.102,12.867H7.119l-0.2,1.335c0.12-0.016,0.232-0.031,0.424-0.031c0.408,0,0.799,0.088,1.119,0.279    c0.408,0.224,0.744,0.68,0.744,1.335c0,1.016-0.808,1.775-1.935,1.775c-0.568,0-1.04-0.16-1.295-0.319l0.176-0.536    c0.216,0.128,0.64,0.288,1.12,0.288c0.655,0,1.231-0.432,1.223-1.136c0-0.663-0.456-1.144-1.487-1.144    c-0.304,0-0.536,0.024-0.728,0.057l0.336-2.495h2.486V12.867z"/>
		<path d="M2.415,38.643V37.22H0v-0.456l2.318-3.318h0.76v3.23h0.728v0.544H3.078v1.423H2.415z M2.415,36.676V34.94    c0-0.271,0.008-0.544,0.024-0.815H2.415c-0.16,0.304-0.288,0.527-0.432,0.768L0.711,36.66v0.016H2.415z"/>
		<path d="M4.863,38.73c-0.272,0-0.463-0.216-0.463-0.504c0-0.287,0.2-0.504,0.479-0.504s0.472,0.208,0.472,0.504    c0,0.288-0.192,0.504-0.479,0.504H4.863z"/>
		<path d="M7.655,38.73c-1.016,0-1.711-0.951-1.728-2.671c0-1.751,0.76-2.702,1.815-2.702c1.087,0,1.719,0.976,1.719,2.631    c0,1.767-0.664,2.742-1.799,2.742H7.655z M7.694,38.187c0.712,0,1.056-0.839,1.056-2.167c0-1.279-0.32-2.118-1.056-2.118    c-0.64,0-1.055,0.815-1.055,2.118c-0.016,1.352,0.4,2.167,1.047,2.167H7.694z"/>
		<path d="M0.408,59.013c0.2,0.12,0.655,0.32,1.151,0.32c0.896,0,1.183-0.568,1.175-1.008c-0.008-0.728-0.664-1.039-1.343-1.039H1    v-0.528h0.392c0.512,0,1.159-0.264,1.159-0.879c0-0.416-0.264-0.784-0.911-0.784c-0.416,0-0.816,0.185-1.04,0.344l-0.192-0.512    c0.28-0.199,0.808-0.399,1.367-0.399c1.023,0,1.487,0.607,1.487,1.239c0,0.544-0.328,1-0.959,1.231v0.016    c0.64,0.12,1.159,0.6,1.159,1.328c0,0.831-0.656,1.559-1.895,1.559c-0.583,0-1.095-0.184-1.351-0.352L0.408,59.013z"/>
		<path d="M4.863,59.9c-0.272,0-0.463-0.216-0.463-0.504c0-0.287,0.2-0.504,0.479-0.504s0.472,0.208,0.472,0.504    c0,0.288-0.192,0.504-0.479,0.504H4.863z"/>
		<path d="M9.102,55.207H7.119l-0.2,1.335c0.12-0.016,0.232-0.031,0.424-0.031c0.408,0,0.799,0.088,1.119,0.279    c0.408,0.224,0.744,0.68,0.744,1.335c0,1.016-0.808,1.775-1.935,1.775c-0.568,0-1.04-0.16-1.295-0.319l0.176-0.536    c0.216,0.128,0.64,0.288,1.12,0.288c0.655,0,1.231-0.432,1.223-1.136c0-0.663-0.456-1.144-1.487-1.144    c-0.304,0-0.536,0.024-0.728,0.057l0.336-2.495h2.486V55.207z"/>
		<path d="M0.408,80.183c0.2,0.12,0.655,0.32,1.151,0.32c0.896,0,1.183-0.568,1.175-1.008c-0.008-0.728-0.664-1.039-1.343-1.039H1    v-0.528h0.392c0.512,0,1.159-0.264,1.159-0.879c0-0.416-0.264-0.784-0.911-0.784c-0.416,0-0.816,0.185-1.04,0.344l-0.192-0.512    c0.28-0.199,0.808-0.399,1.367-0.399c1.023,0,1.487,0.607,1.487,1.239c0,0.544-0.328,1-0.959,1.231v0.016    c0.64,0.12,1.159,0.6,1.159,1.328c0,0.831-0.656,1.559-1.895,1.559c-0.583,0-1.095-0.184-1.351-0.352L0.408,80.183z"/>
		<path d="M4.863,81.07c-0.272,0-0.463-0.216-0.463-0.504c0-0.287,0.2-0.504,0.479-0.504s0.472,0.208,0.472,0.504    c0,0.288-0.192,0.504-0.479,0.504H4.863z"/>
		<path d="M7.655,81.07c-1.016,0-1.711-0.951-1.728-2.671c0-1.751,0.76-2.702,1.815-2.702c1.087,0,1.719,0.976,1.719,2.631    c0,1.767-0.664,2.742-1.799,2.742H7.655z M7.694,80.526c0.712,0,1.056-0.839,1.056-2.167c0-1.279-0.32-2.118-1.056-2.118    c-0.64,0-1.055,0.815-1.055,2.118c-0.016,1.352,0.4,2.167,1.047,2.167H7.694z"/>
		<path d="M0.24,102.152v-0.432l0.552-0.536c1.327-1.263,1.935-1.935,1.935-2.718c0-0.528-0.248-1.016-1.023-1.016    c-0.472,0-0.863,0.239-1.103,0.439l-0.224-0.496c0.352-0.295,0.872-0.527,1.471-0.527c1.111,0,1.583,0.768,1.583,1.512    c0,0.959-0.696,1.734-1.791,2.79l-0.408,0.384v0.016h2.327v0.584H0.24z"/>
		<path d="M4.863,102.24c-0.272,0-0.463-0.216-0.463-0.504c0-0.287,0.2-0.504,0.479-0.504s0.472,0.208,0.472,0.504    c0,0.288-0.192,0.504-0.479,0.504H4.863z"/>
		<path d="M9.102,97.547H7.119l-0.2,1.335c0.12-0.016,0.232-0.031,0.424-0.031c0.408,0,0.799,0.088,1.119,0.279    c0.408,0.224,0.744,0.68,0.744,1.335c0,1.016-0.808,1.775-1.935,1.775c-0.568,0-1.04-0.16-1.295-0.319l0.176-0.536    c0.216,0.128,0.64,0.288,1.12,0.288c0.655,0,1.231-0.432,1.223-1.136c0-0.663-0.456-1.144-1.487-1.144    c-0.304,0-0.536,0.024-0.728,0.057l0.336-2.495h2.486V97.547z"/>
		<path d="M0.24,123.322v-0.432l0.552-0.536c1.327-1.263,1.935-1.935,1.935-2.718c0-0.528-0.248-1.016-1.023-1.016    c-0.472,0-0.863,0.239-1.103,0.439l-0.224-0.496c0.352-0.295,0.872-0.527,1.471-0.527c1.111,0,1.583,0.768,1.583,1.512    c0,0.959-0.696,1.734-1.791,2.79l-0.408,0.384v0.016h2.327v0.584H0.24z"/>
		<path d="M4.863,123.41c-0.272,0-0.463-0.216-0.463-0.504c0-0.287,0.2-0.504,0.479-0.504s0.472,0.208,0.472,0.504    c0,0.288-0.192,0.504-0.479,0.504H4.863z"/>
		<path d="M7.655,123.41c-1.016,0-1.711-0.951-1.728-2.671c0-1.751,0.76-2.702,1.815-2.702c1.087,0,1.719,0.976,1.719,2.631    c0,1.767-0.664,2.742-1.799,2.742H7.655z M7.694,122.866c0.712,0,1.056-0.839,1.056-2.167c0-1.279-0.32-2.118-1.056-2.118    c-0.64,0-1.055,0.815-1.055,2.118c-0.016,1.352,0.4,2.167,1.047,2.167H7.694z"/>
		<path d="M1.767,139.951H1.751l-0.904,0.487l-0.136-0.536l1.135-0.607h0.6v5.197H1.767V139.951z"/>
		<path d="M4.863,144.58c-0.272,0-0.463-0.216-0.463-0.504c0-0.287,0.2-0.504,0.479-0.504s0.472,0.208,0.472,0.504    c0,0.288-0.192,0.504-0.479,0.504H4.863z"/>
		<path d="M9.102,139.887H7.119l-0.2,1.335c0.12-0.016,0.232-0.031,0.424-0.031c0.408,0,0.799,0.088,1.119,0.279    c0.408,0.224,0.744,0.68,0.744,1.335c0,1.016-0.808,1.775-1.935,1.775c-0.568,0-1.04-0.16-1.295-0.319l0.176-0.536    c0.216,0.128,0.64,0.288,1.12,0.288c0.655,0,1.231-0.432,1.223-1.136c0-0.663-0.456-1.144-1.487-1.144    c-0.304,0-0.536,0.024-0.728,0.057l0.336-2.495h2.486V139.887z"/>
		<path d="M1.767,161.121H1.751l-0.904,0.488l-0.136-0.536l1.135-0.607h0.6v5.197H1.767V161.121z"/>
		<path d="M4.863,165.751c-0.272,0-0.463-0.216-0.463-0.504s0.2-0.504,0.479-0.504s0.472,0.208,0.472,0.504    c0,0.288-0.192,0.504-0.479,0.504H4.863z"/>
		<path d="M7.655,165.751c-1.016,0-1.711-0.951-1.728-2.671c0-1.751,0.76-2.702,1.815-2.702c1.087,0,1.719,0.976,1.719,2.631    c0,1.767-0.664,2.742-1.799,2.742H7.655z M7.694,165.207c0.712,0,1.056-0.839,1.056-2.166c0-1.279-0.32-2.119-1.056-2.119    c-0.64,0-1.055,0.815-1.055,2.119c-0.016,1.351,0.4,2.166,1.047,2.166H7.694z"/>
	</g>
	<g>
		<path d="M42.552,176.48c-1.431,0-2.422-1.104-2.422-2.734c0-1.711,1.055-2.831,2.494-2.831c1.479,0,2.431,1.127,2.431,2.727    c0,1.847-1.127,2.838-2.494,2.838H42.552z M42.592,175.912c1.104,0,1.727-1.015,1.727-2.238c0-1.072-0.56-2.191-1.719-2.191    c-1.159,0-1.735,1.079-1.735,2.247c0,1.135,0.624,2.183,1.719,2.183H42.592z"/>
		<path d="M48.695,176.248c-0.184,0.088-0.592,0.224-1.111,0.224c-1.167,0-1.927-0.792-1.927-1.975c0-1.191,0.815-2.063,2.079-2.063    c0.416,0,0.783,0.104,0.976,0.208l-0.16,0.536c-0.168-0.088-0.432-0.184-0.815-0.184c-0.888,0-1.367,0.664-1.367,1.463    c0,0.896,0.576,1.447,1.343,1.447c0.399,0,0.664-0.096,0.863-0.184L48.695,176.248z"/>
		<path d="M50.368,171.595v0.928h1.007v0.536h-1.007v2.079c0,0.48,0.136,0.751,0.528,0.751c0.192,0,0.304-0.016,0.408-0.048    l0.032,0.536c-0.136,0.048-0.352,0.096-0.624,0.096c-0.328,0-0.591-0.112-0.759-0.296c-0.192-0.216-0.272-0.56-0.272-1.016v-2.103    h-0.6v-0.536h0.6v-0.712L50.368,171.595z"/>
		<path d="M53.8,173.978v0.512h-1.975v-0.512H53.8z"/>
		<path d="M55.928,171.851h-0.016l-0.904,0.488l-0.136-0.536l1.135-0.608h0.6v5.197h-0.679V171.851z"/>
		<path d="M61.471,171.69c-0.144-0.008-0.328,0.008-0.528,0.04c-1.111,0.176-1.687,0.976-1.807,1.839h0.016    c0.248-0.336,0.688-0.608,1.263-0.608c0.92,0,1.567,0.672,1.567,1.679c0,0.959-0.647,1.839-1.735,1.839    c-1.104,0-1.831-0.863-1.831-2.215c0-1.023,0.36-1.831,0.879-2.343c0.432-0.423,1.007-0.688,1.663-0.768    c0.208-0.032,0.384-0.04,0.512-0.04V171.69z M60.264,175.937c0.6,0,1.008-0.504,1.008-1.248s-0.424-1.191-1.072-1.191    c-0.424,0-0.823,0.256-1.015,0.64c-0.04,0.08-0.072,0.176-0.072,0.304c0.008,0.855,0.408,1.495,1.144,1.495H60.264z"/>
	</g>
	<g>
		<path d="M18.029,4.483l-0.63,1.909h-0.81l2.062-6.068h0.945l2.071,6.068h-0.837L20.18,4.483H18.029z M20.019,3.871l-0.604-1.746    c-0.126-0.396-0.216-0.756-0.306-1.107h-0.027c-0.081,0.351-0.18,0.729-0.297,1.098l-0.594,1.755H20.019z"/>
		<path d="M22.528,3.214c0-0.459-0.018-0.819-0.036-1.18h0.693l0.036,0.702h0.027c0.243-0.414,0.648-0.801,1.377-0.801    c0.585,0,1.035,0.36,1.224,0.874h0.018c0.135-0.252,0.315-0.432,0.495-0.567c0.261-0.198,0.541-0.306,0.955-0.306    c0.585,0,1.44,0.378,1.44,1.891v2.566h-0.774V3.925c0-0.846-0.315-1.341-0.945-1.341c-0.459,0-0.801,0.333-0.945,0.711    c-0.036,0.117-0.063,0.261-0.063,0.396v2.701h-0.774v-2.62c0-0.693-0.306-1.188-0.91-1.188c-0.486,0-0.855,0.396-0.981,0.792    c-0.045,0.117-0.063,0.252-0.063,0.387v2.629h-0.774V3.214z"/>
		<path d="M31.808,6.491c-1.17,0-2.088-0.864-2.088-2.242c0-1.458,0.963-2.314,2.161-2.314c1.251,0,2.098,0.91,2.098,2.233    c0,1.621-1.125,2.323-2.161,2.323H31.808z M31.844,5.897c0.756,0,1.323-0.711,1.323-1.702c0-0.738-0.369-1.666-1.305-1.666    c-0.927,0-1.333,0.864-1.333,1.693c0,0.954,0.54,1.674,1.305,1.674H31.844z"/>
		<path d="M34.976,3.214c0-0.459-0.009-0.819-0.036-1.18h0.702l0.045,0.711h0.018c0.216-0.405,0.72-0.811,1.44-0.811    c0.604,0,1.54,0.36,1.54,1.855v2.602h-0.792V3.88c0-0.702-0.261-1.296-1.008-1.296c-0.513,0-0.918,0.369-1.062,0.81    c-0.036,0.099-0.054,0.243-0.054,0.369v2.629h-0.792V3.214z"/>
		<path d="M43.697,5.753c0,1.008-0.207,1.611-0.621,1.999c-0.432,0.387-1.044,0.522-1.594,0.522c-0.522,0-1.098-0.126-1.449-0.36    l0.198-0.612c0.288,0.189,0.738,0.351,1.278,0.351c0.81,0,1.404-0.423,1.404-1.53V5.645h-0.018    c-0.234,0.405-0.711,0.729-1.386,0.729c-1.081,0-1.854-0.918-1.854-2.134c0-1.476,0.963-2.305,1.971-2.305    c0.756,0,1.162,0.387,1.359,0.756h0.018l0.027-0.657h0.702c-0.027,0.306-0.036,0.667-0.036,1.188V5.753z M42.905,3.745    c0-0.126-0.009-0.243-0.045-0.351c-0.144-0.468-0.522-0.846-1.107-0.846c-0.756,0-1.296,0.639-1.296,1.657    c0,0.846,0.441,1.566,1.287,1.566c0.495,0,0.937-0.306,1.099-0.819c0.045-0.126,0.063-0.279,0.063-0.423V3.745z"/>
		<path d="M46.927,0.405c0.486-0.072,1.053-0.126,1.674-0.126c1.125,0,1.927,0.261,2.458,0.756c0.549,0.495,0.864,1.197,0.864,2.179    c0,0.99-0.315,1.8-0.874,2.358c-0.576,0.567-1.512,0.874-2.692,0.874c-0.567,0-1.026-0.018-1.431-0.072V0.405z M47.719,5.78    c0.198,0.036,0.486,0.036,0.792,0.036c1.674,0.009,2.583-0.936,2.583-2.575C51.104,1.81,50.294,0.9,48.638,0.9    c-0.405,0-0.711,0.036-0.918,0.081V5.78z"/>
		<path d="M53.354,4.357c0.018,1.062,0.693,1.503,1.485,1.503c0.567,0,0.918-0.099,1.207-0.225l0.144,0.567    c-0.279,0.126-0.766,0.279-1.458,0.279c-1.332,0-2.142-0.891-2.142-2.196c0-1.314,0.783-2.35,2.052-2.35    c1.422,0,1.792,1.251,1.792,2.053c0,0.162-0.009,0.279-0.027,0.369H53.354z M55.667,3.791c0.009-0.504-0.207-1.288-1.089-1.288    c-0.81,0-1.152,0.738-1.215,1.288H55.667z"/>
		<path d="M57.412,3.214c0-0.459-0.018-0.819-0.036-1.18h0.693l0.036,0.702h0.027c0.243-0.414,0.648-0.801,1.377-0.801    c0.585,0,1.035,0.36,1.224,0.874h0.018c0.135-0.252,0.315-0.432,0.495-0.567c0.261-0.198,0.541-0.306,0.955-0.306    c0.585,0,1.44,0.378,1.44,1.891v2.566h-0.774V3.925c0-0.846-0.315-1.341-0.945-1.341c-0.459,0-0.801,0.333-0.945,0.711    c-0.036,0.117-0.063,0.261-0.063,0.396v2.701H60.14v-2.62c0-0.693-0.306-1.188-0.91-1.188c-0.486,0-0.855,0.396-0.981,0.792    c-0.045,0.117-0.063,0.252-0.063,0.387v2.629h-0.774V3.214z"/>
		<path d="M66.691,6.491c-1.17,0-2.088-0.864-2.088-2.242c0-1.458,0.963-2.314,2.161-2.314c1.251,0,2.098,0.91,2.098,2.233    c0,1.621-1.125,2.323-2.161,2.323H66.691z M66.727,5.897c0.756,0,1.323-0.711,1.323-1.702c0-0.738-0.369-1.666-1.305-1.666    c-0.927,0-1.333,0.864-1.333,1.693c0,0.954,0.54,1.674,1.305,1.674H66.727z"/>
		<path d="M72.964,6.23c-0.207,0.099-0.667,0.252-1.251,0.252c-1.314,0-2.169-0.891-2.169-2.224c0-1.341,0.918-2.323,2.34-2.323    c0.468,0,0.882,0.117,1.099,0.234l-0.18,0.603c-0.189-0.099-0.486-0.207-0.918-0.207c-0.999,0-1.539,0.747-1.539,1.647    c0,1.008,0.648,1.629,1.512,1.629c0.45,0,0.747-0.108,0.972-0.207L72.964,6.23z"/>
		<path d="M73.891,3.394c0-0.513-0.009-0.954-0.036-1.359h0.693l0.036,0.855h0.027c0.198-0.585,0.684-0.955,1.215-0.955    c0.081,0,0.144,0.009,0.216,0.018v0.748c-0.081-0.009-0.162-0.018-0.27-0.018c-0.558,0-0.954,0.423-1.062,1.008    c-0.018,0.117-0.027,0.243-0.027,0.369v2.332h-0.792V3.394z"/>
		<path d="M79.903,5.348c0,0.378,0.018,0.748,0.063,1.044h-0.711l-0.072-0.549h-0.027c-0.234,0.342-0.711,0.648-1.333,0.648    c-0.882,0-1.333-0.621-1.333-1.251c0-1.053,0.937-1.629,2.62-1.621v-0.09c0-0.36-0.099-1.018-0.99-1.008    c-0.415,0-0.837,0.117-1.144,0.324l-0.18-0.531c0.36-0.225,0.891-0.378,1.44-0.378c1.341,0,1.666,0.91,1.666,1.783V5.348z     M79.129,4.168c-0.864-0.018-1.845,0.135-1.845,0.981c0,0.522,0.342,0.756,0.738,0.756c0.576,0,0.945-0.36,1.071-0.729    c0.027-0.081,0.036-0.171,0.036-0.252V4.168z"/>
		<path d="M82.125,0.99v1.044h1.134v0.604h-1.134v2.34c0,0.541,0.153,0.846,0.594,0.846c0.216,0,0.342-0.018,0.459-0.054    l0.036,0.603c-0.153,0.054-0.396,0.108-0.702,0.108c-0.369,0-0.666-0.126-0.855-0.333c-0.216-0.243-0.306-0.63-0.306-1.143V2.638    h-0.675V2.035h0.675V1.233L82.125,0.99z"/>
		<path d="M84.042,5.582c0.243,0.144,0.657,0.306,1.053,0.306c0.567,0,0.837-0.279,0.837-0.648c0-0.378-0.225-0.576-0.801-0.792    c-0.792-0.288-1.162-0.72-1.162-1.233c0-0.703,0.576-1.279,1.503-1.279c0.441,0,0.828,0.117,1.062,0.271l-0.189,0.567    c-0.171-0.099-0.486-0.252-0.892-0.252c-0.468,0-0.72,0.27-0.72,0.594c0,0.36,0.252,0.522,0.819,0.747    c0.747,0.279,1.144,0.657,1.144,1.306c0,0.774-0.604,1.314-1.621,1.314c-0.477,0-0.918-0.126-1.224-0.306L84.042,5.582z"/>
		<path d="M88.057,3.313c-0.306,0-0.522-0.243-0.522-0.558c0-0.333,0.225-0.567,0.531-0.567c0.324,0,0.531,0.234,0.531,0.567    c0,0.315-0.207,0.558-0.531,0.558H88.057z M88.057,6.491c-0.306,0-0.522-0.243-0.522-0.558c0-0.333,0.225-0.567,0.531-0.567    c0.324,0,0.531,0.234,0.531,0.567c0,0.315-0.207,0.558-0.531,0.558H88.057z"/>
	</g>
	<g>
		<path d="M203.489,4.483l-0.63,1.909h-0.81l2.061-6.068h0.945l2.071,6.068h-0.837l-0.648-1.909H203.489z M205.479,3.871    l-0.604-1.746c-0.126-0.396-0.216-0.756-0.307-1.107h-0.026c-0.081,0.351-0.181,0.729-0.297,1.098l-0.595,1.755H205.479z"/>
		<path d="M207.989,3.214c0-0.459-0.018-0.819-0.036-1.18h0.693l0.036,0.702h0.027c0.242-0.414,0.647-0.801,1.377-0.801    c0.585,0,1.035,0.36,1.225,0.874h0.018c0.135-0.252,0.315-0.432,0.495-0.567c0.261-0.198,0.54-0.306,0.954-0.306    c0.586,0,1.441,0.378,1.441,1.891v2.566h-0.775V3.925c0-0.846-0.314-1.341-0.945-1.341c-0.459,0-0.801,0.333-0.945,0.711    c-0.035,0.117-0.062,0.261-0.062,0.396v2.701h-0.773v-2.62c0-0.693-0.307-1.188-0.91-1.188c-0.486,0-0.855,0.396-0.98,0.792    c-0.046,0.117-0.063,0.252-0.063,0.387v2.629h-0.774V3.214z"/>
		<path d="M217.269,6.491c-1.17,0-2.088-0.864-2.088-2.242c0-1.458,0.963-2.314,2.16-2.314c1.252,0,2.098,0.91,2.098,2.233    c0,1.621-1.125,2.323-2.16,2.323H217.269z M217.306,5.897c0.756,0,1.322-0.711,1.322-1.702c0-0.738-0.369-1.666-1.305-1.666    c-0.928,0-1.332,0.864-1.332,1.693c0,0.954,0.539,1.674,1.305,1.674H217.306z"/>
		<path d="M220.437,3.214c0-0.459-0.01-0.819-0.036-1.18h0.702l0.045,0.711h0.018c0.217-0.405,0.721-0.811,1.441-0.811    c0.604,0,1.539,0.36,1.539,1.855v2.602h-0.792V3.88c0-0.702-0.261-1.296-1.009-1.296c-0.513,0-0.918,0.369-1.062,0.81    c-0.035,0.099-0.054,0.243-0.054,0.369v2.629h-0.792V3.214z"/>
		<path d="M229.158,5.753c0,1.008-0.207,1.611-0.621,1.999c-0.433,0.387-1.044,0.522-1.594,0.522c-0.522,0-1.099-0.126-1.449-0.36    l0.198-0.612c0.288,0.189,0.738,0.351,1.278,0.351c0.81,0,1.404-0.423,1.404-1.53V5.645h-0.019    c-0.233,0.405-0.711,0.729-1.386,0.729c-1.081,0-1.854-0.918-1.854-2.134c0-1.476,0.963-2.305,1.971-2.305    c0.757,0,1.162,0.387,1.359,0.756h0.019l0.027-0.657h0.702c-0.027,0.306-0.036,0.667-0.036,1.188V5.753z M228.366,3.745    c0-0.126-0.01-0.243-0.045-0.351c-0.145-0.468-0.522-0.846-1.107-0.846c-0.756,0-1.297,0.639-1.297,1.657    c0,0.846,0.441,1.566,1.287,1.566c0.496,0,0.938-0.306,1.1-0.819c0.045-0.126,0.062-0.279,0.062-0.423V3.745z"/>
		<path d="M232.397,0.414c0.396-0.081,0.973-0.135,1.503-0.135c0.837,0,1.387,0.162,1.765,0.504    c0.297,0.261,0.477,0.675,0.477,1.152c0,0.792-0.513,1.324-1.143,1.54v0.027c0.459,0.162,0.738,0.594,0.891,1.224    c0.199,0.846,0.343,1.432,0.459,1.666h-0.81c-0.099-0.18-0.233-0.693-0.396-1.449c-0.181-0.837-0.514-1.152-1.225-1.18h-0.738    v2.629h-0.783V0.414z M233.181,3.169h0.801c0.838,0,1.369-0.459,1.369-1.152c0-0.783-0.568-1.125-1.396-1.125    c-0.377,0-0.639,0.036-0.773,0.072V3.169z"/>
		<path d="M237.662,4.357c0.019,1.062,0.692,1.503,1.485,1.503c0.566,0,0.918-0.099,1.206-0.225l0.144,0.567    c-0.279,0.126-0.766,0.279-1.457,0.279c-1.333,0-2.143-0.891-2.143-2.196c0-1.314,0.783-2.35,2.052-2.35    c1.422,0,1.791,1.251,1.791,2.053c0,0.162-0.009,0.279-0.026,0.369H237.662z M239.976,3.791c0.009-0.504-0.207-1.288-1.09-1.288    c-0.81,0-1.152,0.738-1.215,1.288H239.976z"/>
		<path d="M241.721,3.457c0-0.558-0.009-1.008-0.036-1.422h0.711l0.045,0.748h0.019c0.315-0.541,0.837-0.847,1.54-0.847    c1.062,0,1.854,0.892,1.854,2.215c0,1.566-0.963,2.341-1.98,2.341c-0.585,0-1.08-0.252-1.342-0.684h-0.018v2.368h-0.792V3.457z     M242.513,4.619c0,0.108,0.01,0.225,0.036,0.324c0.136,0.549,0.621,0.927,1.18,0.927c0.837,0,1.323-0.685,1.323-1.684    c0-0.874-0.45-1.621-1.287-1.621c-0.541,0-1.054,0.378-1.207,0.981c-0.018,0.099-0.045,0.216-0.045,0.315V4.619z"/>
		<path d="M250.487,5.195c0,0.459,0.01,0.855,0.036,1.197h-0.702l-0.045-0.711h-0.018c-0.199,0.352-0.667,0.811-1.441,0.811    c-0.684,0-1.503-0.387-1.503-1.909V2.035h0.792v2.404c0,0.828,0.262,1.396,0.973,1.396c0.531,0,0.9-0.369,1.044-0.729    c0.045-0.108,0.072-0.252,0.072-0.405V2.035h0.792V5.195z"/>
		<path d="M251.8,0h0.793v2.728h0.018c0.279-0.486,0.783-0.792,1.485-0.792c1.081,0,1.837,0.9,1.837,2.215    c0,1.566-0.99,2.341-1.963,2.341c-0.63,0-1.125-0.243-1.458-0.819h-0.019l-0.045,0.72h-0.684c0.026-0.297,0.035-0.738,0.035-1.125    V0z M252.593,4.646c0,0.099,0.009,0.198,0.027,0.288c0.152,0.549,0.621,0.927,1.188,0.927c0.838,0,1.324-0.675,1.324-1.674    c0-0.882-0.451-1.629-1.297-1.629c-0.54,0-1.045,0.378-1.197,0.972c-0.027,0.099-0.045,0.207-0.045,0.333V4.646z"/>
		<path d="M256.921,0h0.793v6.392h-0.793V0z"/>
		<path d="M259.423,1.296c-0.288,0-0.477-0.225-0.477-0.486c0-0.279,0.197-0.495,0.494-0.495c0.289,0,0.486,0.216,0.486,0.495    c0,0.261-0.188,0.486-0.494,0.486H259.423z M259.045,6.392V2.035h0.792v4.357H259.045z"/>
		<path d="M264.257,6.23c-0.207,0.099-0.666,0.252-1.252,0.252c-1.314,0-2.169-0.891-2.169-2.224c0-1.341,0.918-2.323,2.341-2.323    c0.468,0,0.882,0.117,1.098,0.234l-0.18,0.603c-0.189-0.099-0.486-0.207-0.918-0.207c-1,0-1.539,0.747-1.539,1.647    c0,1.008,0.647,1.629,1.512,1.629c0.45,0,0.747-0.108,0.973-0.207L264.257,6.23z"/>
		<path d="M268.253,5.348c0,0.378,0.018,0.748,0.062,1.044h-0.711l-0.072-0.549h-0.026c-0.234,0.342-0.712,0.648-1.333,0.648    c-0.882,0-1.332-0.621-1.332-1.251c0-1.053,0.937-1.629,2.62-1.621v-0.09c0-0.36-0.099-1.018-0.99-1.008    c-0.415,0-0.837,0.117-1.144,0.324l-0.18-0.531c0.359-0.225,0.891-0.378,1.439-0.378c1.342,0,1.666,0.91,1.666,1.783V5.348z     M267.479,4.168c-0.864-0.018-1.845,0.135-1.845,0.981c0,0.522,0.342,0.756,0.738,0.756c0.576,0,0.945-0.36,1.07-0.729    c0.027-0.081,0.036-0.171,0.036-0.252V4.168z"/>
		<path d="M269.521,3.214c0-0.459-0.009-0.819-0.035-1.18h0.701l0.046,0.711h0.018c0.216-0.405,0.72-0.811,1.44-0.811    c0.604,0,1.539,0.36,1.539,1.855v2.602h-0.791V3.88c0-0.702-0.262-1.296-1.009-1.296c-0.513,0-0.919,0.369-1.062,0.81    c-0.036,0.099-0.054,0.243-0.054,0.369v2.629h-0.793V3.214z"/>
		<path d="M274.408,5.582c0.243,0.144,0.657,0.306,1.054,0.306c0.566,0,0.837-0.279,0.837-0.648c0-0.378-0.226-0.576-0.802-0.792    c-0.792-0.288-1.161-0.72-1.161-1.233c0-0.703,0.576-1.279,1.503-1.279c0.441,0,0.829,0.117,1.062,0.271l-0.188,0.567    c-0.171-0.099-0.486-0.252-0.892-0.252c-0.468,0-0.721,0.27-0.721,0.594c0,0.36,0.253,0.522,0.82,0.747    c0.747,0.279,1.143,0.657,1.143,1.306c0,0.774-0.604,1.314-1.62,1.314c-0.478,0-0.919-0.126-1.225-0.306L274.408,5.582z"/>
		<path d="M278.423,3.313c-0.307,0-0.523-0.243-0.523-0.558c0-0.333,0.226-0.567,0.531-0.567c0.324,0,0.531,0.234,0.531,0.567    c0,0.315-0.207,0.558-0.531,0.558H278.423z M278.423,6.491c-0.307,0-0.523-0.243-0.523-0.558c0-0.333,0.226-0.567,0.531-0.567    c0.324,0,0.531,0.234,0.531,0.567c0,0.315-0.207,0.558-0.531,0.558H278.423z"/>
	</g>
	<g>
		<path d="M119.964,174.025c-0.04-0.744-0.088-1.663-0.088-2.327h-0.016c-0.192,0.624-0.408,1.311-0.68,2.047l-0.952,2.615h-0.528    l-0.879-2.567c-0.256-0.759-0.464-1.455-0.616-2.095h-0.016c-0.016,0.671-0.056,1.575-0.104,2.383l-0.144,2.311h-0.663    l0.375-5.389h0.888l0.919,2.606c0.224,0.664,0.4,1.264,0.544,1.823h0.016c0.144-0.544,0.336-1.144,0.576-1.823l0.959-2.606h0.888    l0.336,5.389h-0.688L119.964,174.025z"/>
		<path d="M124.557,175.465c0,0.335,0.016,0.664,0.056,0.927h-0.632l-0.064-0.488h-0.024c-0.208,0.304-0.632,0.576-1.183,0.576    c-0.784,0-1.184-0.552-1.184-1.111c0-0.936,0.832-1.447,2.327-1.439v-0.08c0-0.32-0.088-0.904-0.879-0.896    c-0.368,0-0.744,0.104-1.016,0.288l-0.16-0.472c0.32-0.2,0.792-0.336,1.279-0.336c1.191,0,1.479,0.808,1.479,1.583V175.465z     M123.869,174.417c-0.768-0.016-1.639,0.12-1.639,0.872c0,0.464,0.304,0.672,0.656,0.672c0.512,0,0.839-0.32,0.952-0.648    c0.024-0.072,0.032-0.152,0.032-0.224V174.417z"/>
		<path d="M125.687,173.729c0-0.456-0.008-0.848-0.032-1.207h0.616l0.032,0.759h0.024c0.176-0.52,0.608-0.848,1.08-0.848    c0.072,0,0.128,0.008,0.192,0.016v0.664c-0.072-0.008-0.144-0.016-0.24-0.016c-0.496,0-0.848,0.376-0.943,0.896    c-0.016,0.104-0.024,0.216-0.024,0.328v2.071h-0.704V173.729z"/>
		<path d="M129.934,173.978v0.512h-1.975v-0.512H129.934z"/>
		<path d="M130.535,176.392v-0.432l0.552-0.536c1.327-1.264,1.935-1.935,1.935-2.719c0-0.528-0.248-1.016-1.023-1.016    c-0.472,0-0.863,0.24-1.103,0.44l-0.224-0.496c0.352-0.296,0.872-0.528,1.471-0.528c1.111,0,1.583,0.768,1.583,1.511    c0,0.959-0.696,1.735-1.791,2.791l-0.408,0.384v0.016h2.327v0.583H130.535z"/>
		<path d="M136.293,176.48c-1.015,0-1.711-0.952-1.727-2.67c0-1.751,0.759-2.703,1.815-2.703c1.087,0,1.719,0.976,1.719,2.63    c0,1.767-0.664,2.743-1.799,2.743H136.293z M136.333,175.937c0.712,0,1.056-0.84,1.056-2.167c0-1.279-0.32-2.119-1.056-2.119    c-0.64,0-1.055,0.815-1.055,2.119c-0.016,1.351,0.4,2.167,1.047,2.167H136.333z"/>
	</g>
	<path fill="none" stroke="#A7A9AC" stroke-width="0.5" stroke-linejoin="round" stroke-miterlimit="10" d="M16.368,14.883h145.078    M16.368,36.115h145.078 M16.368,57.155h145.078 M16.368,78.387h145.078 M16.368,99.618h145.078 M16.368,120.658h145.078    M16.368,141.89h145.078"/>
	
		<line fill="none" stroke="#000000" stroke-width="0.5" stroke-linejoin="round" stroke-miterlimit="10" x1="16.313" y1="163.091" x2="161.446" y2="163.092"/>
	<path fill="none" stroke="#000000" stroke-width="0.5" stroke-linejoin="round" stroke-miterlimit="10" d="M48.754,64.998h4.733    M48.754,77.788h4.733 M51.05,71.31v-6.312 M51.05,77.788V71.31"/>
	<path fill="none" stroke="#000000" stroke-width="0.5" stroke-linejoin="round" stroke-miterlimit="10" d="M124.308,57.538h4.746    M124.308,63.467h4.746 M126.604,60.598v-3.06 M126.604,63.467v-2.869"/>
	<path fill="none" stroke="#000000" stroke-width="0.5" stroke-linejoin="round" stroke-miterlimit="10" d="M48.754,66.145h4.733    M48.754,72.839h4.733 M51.05,69.588v-3.443 M51.05,72.839v-3.251"/>
	<path fill="none" stroke="#000000" stroke-width="0.5" stroke-linejoin="round" stroke-miterlimit="10" d="M124.308,57.155h4.746    M124.308,68.44h4.746 M126.604,62.702v-5.547 M126.604,68.44v-5.738"/>
	
		<line fill="none" stroke="#000000" stroke-linejoin="round" stroke-miterlimit="10" x1="51.05" y1="71.31" x2="126.604" y2="60.598"/>
	<g>
		<g>
			<line fill="none" stroke="#000000" stroke-linejoin="round" x1="51.05" y1="69.562" x2="52.543" y2="69.426"/>
			
				<line fill="none" stroke="#000000" stroke-linejoin="round" stroke-dasharray="3.036,2.024" x1="54.56" y1="69.243" x2="124.102" y2="62.929"/>
			<line fill="none" stroke="#000000" stroke-linejoin="round" x1="125.11" y1="62.837" x2="126.604" y2="62.702"/>
		</g>
	</g>
	<path fill="none" stroke="#A7A9AC" stroke-width="0.5" stroke-linejoin="round" stroke-miterlimit="10" d="M201.885,14.883h157.289    M201.885,36.115h157.289 M201.885,57.155h157.289 M201.885,78.387h157.289 M201.885,99.618h157.289 M201.885,120.658h157.289    M201.885,141.89h157.289"/>
	
		<line opacity="0.9804" fill="none" stroke="#000000" stroke-width="0.5" stroke-linejoin="round" stroke-miterlimit="10" x1="201.829" y1="163.091" x2="201.829" y2="14.851"/>
	
		<line opacity="0.9804" fill="none" stroke="#000000" stroke-width="0.5" stroke-linejoin="round" stroke-miterlimit="10" x1="16.368" y1="163.091" x2="16.368" y2="14.851"/>
	
		<line fill="none" stroke="#000000" stroke-width="0.5" stroke-linejoin="round" stroke-miterlimit="10" x1="201.829" y1="163.091" x2="359.174" y2="163.092"/>
	<path fill="none" stroke="#000000" stroke-width="0.5" stroke-linejoin="round" stroke-miterlimit="10" d="M237.33,93.88h4.727    M237.33,104.208h4.727 M239.626,99.044V93.88 M239.626,104.208v-5.165"/>
	<path fill="none" stroke="#000000" stroke-width="0.5" stroke-linejoin="round" stroke-miterlimit="10" d="M319.005,28.081h4.724    M319.005,37.224h4.724 M321.301,32.672v-4.591 M321.301,37.224v-4.552"/>
	<path fill="none" stroke="#000000" stroke-width="0.5" stroke-linejoin="round" stroke-miterlimit="10" d="M237.33,79.917h4.727    M237.33,90.628h4.727 M239.626,85.272v-5.356 M239.626,90.628v-5.355"/>
	<path fill="none" stroke="#000000" stroke-width="0.5" stroke-linejoin="round" stroke-miterlimit="10" d="M319.005,42.044h4.724    M319.005,51.549h4.724 M321.301,46.826v-4.782 M321.301,51.549v-4.723"/>
	
		<line fill="none" stroke="#000000" stroke-linejoin="round" stroke-miterlimit="10" x1="239.626" y1="99.044" x2="321.301" y2="32.672"/>
	<g>
		<g>
			<line fill="none" stroke="#000000" stroke-linejoin="round" x1="239.626" y1="85.272" x2="240.983" y2="84.634"/>
			
				<line fill="none" stroke="#000000" stroke-linejoin="round" stroke-dasharray="3.0093,2.0062" x1="242.798" y1="83.779" x2="319.036" y2="47.892"/>
			<line fill="none" stroke="#000000" stroke-linejoin="round" x1="319.943" y1="47.465" x2="321.301" y2="46.826"/>
		</g>
	</g>
	<g>
		<path d="M70.656,188.354c0.335-0.064,0.775-0.113,1.335-0.113c0.688,0,1.191,0.16,1.511,0.448c0.296,0.256,0.48,0.647,0.48,1.12    c0,0.487-0.144,0.871-0.424,1.15c-0.368,0.393-0.968,0.592-1.647,0.592c-0.208,0-0.399-0.008-0.56-0.048v2.167h-0.695V188.354z     M71.352,190.936c0.152,0.04,0.344,0.056,0.576,0.056c0.839,0,1.351-0.407,1.351-1.144c0-0.711-0.503-1.055-1.271-1.055    c-0.304,0-0.536,0.023-0.656,0.056V190.936z"/>
		<path d="M75.288,191.863c0.016,0.943,0.616,1.335,1.319,1.335c0.504,0,0.815-0.088,1.071-0.2l0.128,0.504    c-0.248,0.111-0.68,0.248-1.295,0.248c-1.183,0-1.903-0.791-1.903-1.951c0-1.167,0.696-2.087,1.823-2.087    c1.263,0,1.591,1.111,1.591,1.823c0,0.145-0.008,0.248-0.024,0.328H75.288z M77.343,191.359c0.008-0.447-0.184-1.144-0.968-1.144    c-0.72,0-1.023,0.655-1.079,1.144H77.343z"/>
		<path d="M78.896,191.008c0-0.456-0.008-0.848-0.032-1.208h0.616l0.032,0.76h0.024c0.176-0.52,0.608-0.848,1.08-0.848    c0.072,0,0.128,0.009,0.192,0.017v0.663c-0.072-0.008-0.144-0.016-0.24-0.016c-0.496,0-0.848,0.376-0.943,0.896    c-0.016,0.104-0.024,0.216-0.024,0.328v2.07h-0.704V191.008z"/>
		<path d="M84.271,193.525c-0.184,0.088-0.592,0.225-1.111,0.225c-1.167,0-1.927-0.791-1.927-1.975c0-1.191,0.816-2.063,2.079-2.063    c0.416,0,0.784,0.104,0.975,0.208l-0.16,0.535c-0.168-0.088-0.432-0.184-0.815-0.184c-0.888,0-1.367,0.664-1.367,1.463    c0,0.896,0.576,1.447,1.343,1.447c0.399,0,0.664-0.096,0.863-0.184L84.271,193.525z"/>
		<path d="M85.496,191.863c0.016,0.943,0.616,1.335,1.319,1.335c0.504,0,0.815-0.088,1.071-0.2l0.128,0.504    c-0.248,0.111-0.68,0.248-1.295,0.248c-1.183,0-1.903-0.791-1.903-1.951c0-1.167,0.696-2.087,1.823-2.087    c1.263,0,1.591,1.111,1.591,1.823c0,0.145-0.008,0.248-0.024,0.328H85.496z M87.551,191.359c0.008-0.447-0.184-1.144-0.968-1.144    c-0.72,0-1.023,0.655-1.079,1.144H87.551z"/>
		<path d="M89.439,189.145c-0.256,0-0.424-0.2-0.424-0.432c0-0.248,0.176-0.439,0.44-0.439c0.256,0,0.432,0.191,0.432,0.439    c0,0.231-0.168,0.432-0.44,0.432H89.439z M89.104,193.67v-3.87h0.704v3.87H89.104z"/>
		<path d="M91.248,189.8l0.76,2.167c0.128,0.359,0.232,0.68,0.312,1h0.024c0.088-0.32,0.2-0.641,0.328-1l0.751-2.167h0.736    l-1.52,3.87h-0.671l-1.471-3.87H91.248z"/>
		<path d="M95.224,191.863c0.016,0.943,0.616,1.335,1.319,1.335c0.504,0,0.815-0.088,1.071-0.2l0.128,0.504    c-0.248,0.111-0.68,0.248-1.295,0.248c-1.184,0-1.903-0.791-1.903-1.951c0-1.167,0.696-2.087,1.823-2.087    c1.263,0,1.591,1.111,1.591,1.823c0,0.145-0.008,0.248-0.024,0.328H95.224z M97.278,191.359c0.008-0.447-0.184-1.144-0.967-1.144    c-0.72,0-1.023,0.655-1.08,1.144H97.278z"/>
		<path d="M101.247,188.281v3.197c0,1.2,0.536,1.712,1.255,1.712c0.792,0,1.311-0.528,1.311-1.712v-3.197h0.704v3.15    c0,1.654-0.872,2.326-2.039,2.326c-1.104,0-1.935-0.623-1.935-2.303v-3.174H101.247z"/>
		<path d="M105.639,192.822c0.312,0.191,0.76,0.344,1.24,0.344c0.711,0,1.127-0.367,1.127-0.911c0-0.504-0.288-0.8-1.015-1.071    c-0.879-0.305-1.423-0.768-1.423-1.52c0-0.84,0.696-1.463,1.743-1.463c0.543,0,0.951,0.128,1.183,0.256l-0.192,0.575    c-0.168-0.104-0.527-0.256-1.015-0.256c-0.736,0-1.016,0.44-1.016,0.808c0,0.496,0.328,0.744,1.071,1.031    c0.912,0.36,1.367,0.792,1.367,1.584c0,0.823-0.607,1.551-1.879,1.551c-0.52,0-1.087-0.16-1.375-0.352L105.639,192.822z"/>
		<path d="M111.679,189.145c-0.256,0-0.424-0.2-0.424-0.432c0-0.248,0.176-0.439,0.44-0.439c0.256,0,0.432,0.191,0.432,0.439    c0,0.231-0.168,0.432-0.439,0.432H111.679z M111.343,193.67v-3.87h0.704v3.87H111.343z"/>
		<path d="M113.215,190.848c0-0.408-0.008-0.728-0.032-1.048h0.624l0.04,0.632h0.016c0.192-0.359,0.64-0.72,1.279-0.72    c0.536,0,1.367,0.319,1.367,1.647v2.311h-0.704v-2.23c0-0.624-0.232-1.152-0.896-1.152c-0.456,0-0.815,0.328-0.943,0.721    c-0.032,0.088-0.048,0.215-0.048,0.327v2.335h-0.704V190.848z"/>
		<path d="M118.502,188.873v0.927h1.007v0.536h-1.007v2.078c0,0.48,0.136,0.752,0.528,0.752c0.192,0,0.304-0.016,0.408-0.048    l0.032,0.536c-0.136,0.048-0.352,0.096-0.624,0.096c-0.328,0-0.591-0.112-0.759-0.296c-0.192-0.216-0.272-0.56-0.272-1.016v-2.103    h-0.6V189.8h0.6v-0.712L118.502,188.873z"/>
		<path d="M120.703,191.863c0.016,0.943,0.616,1.335,1.319,1.335c0.504,0,0.815-0.088,1.071-0.2l0.128,0.504    c-0.248,0.111-0.68,0.248-1.295,0.248c-1.184,0-1.903-0.791-1.903-1.951c0-1.167,0.696-2.087,1.823-2.087    c1.263,0,1.591,1.111,1.591,1.823c0,0.145-0.008,0.248-0.024,0.328H120.703z M122.758,191.359    c0.008-0.447-0.184-1.144-0.967-1.144c-0.72,0-1.023,0.655-1.08,1.144H122.758z"/>
		<path d="M124.311,191.008c0-0.456-0.008-0.848-0.032-1.208h0.616l0.032,0.76h0.024c0.176-0.52,0.608-0.848,1.08-0.848    c0.072,0,0.128,0.009,0.192,0.017v0.663c-0.072-0.008-0.144-0.016-0.24-0.016c-0.496,0-0.848,0.376-0.943,0.896    c-0.016,0.104-0.024,0.216-0.024,0.328v2.07h-0.704V191.008z"/>
		<path d="M126.927,190.848c0-0.408-0.008-0.728-0.032-1.048h0.624l0.04,0.632h0.016c0.192-0.359,0.64-0.72,1.279-0.72    c0.536,0,1.367,0.319,1.367,1.647v2.311h-0.704v-2.23c0-0.624-0.232-1.152-0.896-1.152c-0.456,0-0.815,0.328-0.943,0.721    c-0.032,0.088-0.048,0.215-0.048,0.327v2.335h-0.704V190.848z"/>
		<path d="M134.093,192.742c0,0.336,0.016,0.664,0.056,0.928h-0.632l-0.064-0.488h-0.024c-0.208,0.305-0.632,0.576-1.183,0.576    c-0.784,0-1.184-0.552-1.184-1.111c0-0.936,0.832-1.447,2.327-1.439v-0.08c0-0.319-0.088-0.903-0.879-0.895    c-0.368,0-0.744,0.104-1.016,0.287l-0.16-0.472c0.32-0.2,0.792-0.336,1.279-0.336c1.191,0,1.479,0.808,1.479,1.583V192.742z     M133.406,191.695c-0.768-0.016-1.639,0.119-1.639,0.871c0,0.464,0.304,0.672,0.656,0.672c0.512,0,0.839-0.32,0.952-0.648    c0.024-0.071,0.032-0.151,0.032-0.223V191.695z"/>
		<path d="M136.07,188.873v0.927h1.007v0.536h-1.007v2.078c0,0.48,0.136,0.752,0.528,0.752c0.192,0,0.304-0.016,0.408-0.048    l0.032,0.536c-0.136,0.048-0.352,0.096-0.624,0.096c-0.328,0-0.592-0.112-0.759-0.296c-0.192-0.216-0.272-0.56-0.272-1.016v-2.103    h-0.6V189.8h0.6v-0.712L136.07,188.873z"/>
		<path d="M138.207,189.145c-0.256,0-0.424-0.2-0.424-0.432c0-0.248,0.176-0.439,0.44-0.439c0.256,0,0.432,0.191,0.432,0.439    c0,0.231-0.168,0.432-0.439,0.432H138.207z M137.871,193.67v-3.87h0.704v3.87H137.871z"/>
		<path d="M141.318,193.758c-1.04,0-1.855-0.768-1.855-1.99c0-1.296,0.855-2.056,1.919-2.056c1.111,0,1.863,0.808,1.863,1.983    c0,1.439-1,2.062-1.919,2.062H141.318z M141.35,193.23c0.671,0,1.175-0.632,1.175-1.512c0-0.655-0.328-1.479-1.159-1.479    c-0.824,0-1.184,0.768-1.184,1.503c0,0.847,0.479,1.487,1.159,1.487H141.35z"/>
		<path d="M144.135,190.848c0-0.408-0.008-0.728-0.032-1.048h0.624l0.04,0.632h0.016c0.192-0.359,0.64-0.72,1.279-0.72    c0.536,0,1.367,0.319,1.367,1.647v2.311h-0.704v-2.23c0-0.624-0.232-1.152-0.896-1.152c-0.456,0-0.815,0.328-0.943,0.721    c-0.032,0.088-0.048,0.215-0.048,0.327v2.335h-0.704V190.848z"/>
		<path d="M151.301,192.742c0,0.336,0.016,0.664,0.056,0.928h-0.632l-0.064-0.488h-0.024c-0.208,0.305-0.632,0.576-1.183,0.576    c-0.784,0-1.184-0.552-1.184-1.111c0-0.936,0.832-1.447,2.327-1.439v-0.08c0-0.319-0.088-0.903-0.879-0.895    c-0.368,0-0.744,0.104-1.016,0.287l-0.16-0.472c0.32-0.2,0.792-0.336,1.279-0.336c1.191,0,1.479,0.808,1.479,1.583V192.742z     M150.614,191.695c-0.768-0.016-1.639,0.119-1.639,0.871c0,0.464,0.304,0.672,0.656,0.672c0.512,0,0.839-0.32,0.952-0.648    c0.024-0.071,0.032-0.151,0.032-0.223V191.695z"/>
		<path d="M152.431,187.993h0.704v5.677h-0.704V187.993z"/>
		<path d="M155.918,192.95c0.216,0.128,0.583,0.272,0.936,0.272c0.503,0,0.744-0.248,0.744-0.576c0-0.336-0.2-0.512-0.712-0.703    c-0.704-0.256-1.031-0.641-1.031-1.096c0-0.624,0.512-1.136,1.335-1.136c0.392,0,0.736,0.104,0.944,0.24l-0.168,0.503    c-0.152-0.088-0.432-0.223-0.792-0.223c-0.416,0-0.64,0.239-0.64,0.527c0,0.319,0.224,0.463,0.728,0.664    c0.664,0.247,1.016,0.583,1.016,1.158c0,0.688-0.536,1.168-1.439,1.168c-0.424,0-0.815-0.112-1.087-0.271L155.918,192.95z"/>
		<path d="M160.03,188.873v0.927h1.007v0.536h-1.007v2.078c0,0.48,0.136,0.752,0.528,0.752c0.192,0,0.304-0.016,0.408-0.048    l0.032,0.536c-0.136,0.048-0.352,0.096-0.624,0.096c-0.328,0-0.591-0.112-0.759-0.296c-0.192-0.216-0.272-0.56-0.272-1.016v-2.103    h-0.6V189.8h0.6v-0.712L160.03,188.873z"/>
		<path d="M164.557,192.742c0,0.336,0.016,0.664,0.056,0.928h-0.632l-0.064-0.488h-0.024c-0.208,0.305-0.632,0.576-1.183,0.576    c-0.784,0-1.184-0.552-1.184-1.111c0-0.936,0.832-1.447,2.327-1.439v-0.08c0-0.319-0.088-0.903-0.879-0.895    c-0.368,0-0.744,0.104-1.016,0.287l-0.16-0.472c0.32-0.2,0.792-0.336,1.279-0.336c1.191,0,1.479,0.808,1.479,1.583V192.742z     M163.87,191.695c-0.768-0.016-1.639,0.119-1.639,0.871c0,0.464,0.304,0.672,0.656,0.672c0.512,0,0.839-0.32,0.952-0.648    c0.024-0.071,0.032-0.151,0.032-0.223V191.695z"/>
		<path d="M165.686,190.848c0-0.408-0.008-0.728-0.032-1.048h0.624l0.04,0.632h0.016c0.192-0.359,0.64-0.72,1.279-0.72    c0.536,0,1.367,0.319,1.367,1.647v2.311h-0.704v-2.23c0-0.624-0.232-1.152-0.896-1.152c-0.456,0-0.815,0.328-0.943,0.721    c-0.032,0.088-0.048,0.215-0.048,0.327v2.335h-0.704V190.848z"/>
		<path d="M173.469,187.993v4.677c0,0.344,0.008,0.736,0.032,1h-0.632l-0.032-0.672h-0.016c-0.216,0.432-0.68,0.76-1.312,0.76    c-0.936,0-1.663-0.791-1.663-1.967c-0.008-1.295,0.8-2.079,1.735-2.079c0.6,0,0.999,0.28,1.167,0.584h0.016v-2.303H173.469z     M172.765,191.375c0-0.096-0.008-0.207-0.032-0.304c-0.104-0.439-0.488-0.808-1.016-0.808c-0.728,0-1.159,0.64-1.159,1.487    c0,0.792,0.392,1.439,1.143,1.439c0.472,0,0.904-0.32,1.032-0.848c0.024-0.088,0.032-0.185,0.032-0.296V191.375z"/>
		<path d="M174.974,189.145c-0.256,0-0.424-0.2-0.424-0.432c0-0.248,0.177-0.439,0.44-0.439c0.256,0,0.432,0.191,0.432,0.439    c0,0.231-0.168,0.432-0.439,0.432H174.974z M174.638,193.67v-3.87h0.704v3.87H174.638z"/>
		<path d="M176.511,190.848c0-0.408-0.008-0.728-0.032-1.048h0.624l0.039,0.632h0.017c0.192-0.359,0.64-0.72,1.279-0.72    c0.536,0,1.367,0.319,1.367,1.647v2.311h-0.704v-2.23c0-0.624-0.231-1.152-0.895-1.152c-0.456,0-0.816,0.328-0.943,0.721    c-0.033,0.088-0.049,0.215-0.049,0.327v2.335h-0.703V190.848z"/>
		<path d="M184.261,193.102c0,0.896-0.184,1.432-0.552,1.775c-0.384,0.344-0.928,0.464-1.415,0.464    c-0.464,0-0.976-0.112-1.287-0.319l0.176-0.544c0.256,0.168,0.655,0.312,1.135,0.312c0.72,0,1.248-0.375,1.248-1.359v-0.424    h-0.017c-0.208,0.36-0.632,0.648-1.231,0.648c-0.959,0-1.646-0.816-1.646-1.896c0-1.312,0.855-2.047,1.75-2.047    c0.672,0,1.032,0.344,1.208,0.672h0.017l0.023-0.584h0.623c-0.023,0.272-0.031,0.592-0.031,1.056V193.102z M183.558,191.319    c0-0.112-0.009-0.216-0.041-0.312c-0.127-0.416-0.463-0.752-0.982-0.752c-0.672,0-1.152,0.567-1.152,1.471    c0,0.752,0.393,1.392,1.144,1.392c0.44,0,0.831-0.272,0.976-0.728c0.04-0.111,0.057-0.248,0.057-0.376V191.319z"/>
		<path d="M187.966,188.873v0.927h1.007v0.536h-1.007v2.078c0,0.48,0.136,0.752,0.527,0.752c0.191,0,0.304-0.016,0.408-0.048    l0.031,0.536c-0.136,0.048-0.352,0.096-0.623,0.096c-0.328,0-0.592-0.112-0.76-0.296c-0.191-0.216-0.271-0.56-0.271-1.016v-2.103    h-0.6V189.8h0.6v-0.712L187.966,188.873z"/>
		<path d="M191.341,193.758c-1.039,0-1.854-0.768-1.854-1.99c0-1.296,0.855-2.056,1.919-2.056c1.111,0,1.863,0.808,1.863,1.983    c0,1.439-1,2.062-1.919,2.062H191.341z M191.374,193.23c0.671,0,1.175-0.632,1.175-1.512c0-0.655-0.328-1.479-1.159-1.479    c-0.824,0-1.184,0.768-1.184,1.503c0,0.847,0.479,1.487,1.159,1.487H191.374z"/>
		<path d="M195.854,187.993h0.703v2.415h0.016c0.112-0.2,0.289-0.385,0.504-0.496c0.208-0.128,0.456-0.2,0.72-0.2    c0.521,0,1.352,0.319,1.352,1.655v2.303h-0.704v-2.23c0-0.624-0.231-1.144-0.895-1.144c-0.456,0-0.809,0.319-0.943,0.704    c-0.041,0.096-0.049,0.199-0.049,0.335v2.335h-0.703V187.993z"/>
		<path d="M203.021,192.742c0,0.336,0.016,0.664,0.056,0.928h-0.632l-0.064-0.488h-0.023c-0.208,0.305-0.632,0.576-1.184,0.576    c-0.783,0-1.184-0.552-1.184-1.111c0-0.936,0.832-1.447,2.327-1.439v-0.08c0-0.319-0.088-0.903-0.88-0.895    c-0.367,0-0.743,0.104-1.016,0.287l-0.159-0.472c0.319-0.2,0.792-0.336,1.279-0.336c1.191,0,1.479,0.808,1.479,1.583V192.742z     M202.333,191.695c-0.768-0.016-1.64,0.119-1.64,0.871c0,0.464,0.304,0.672,0.655,0.672c0.512,0,0.84-0.32,0.952-0.648    c0.024-0.071,0.032-0.151,0.032-0.223V191.695z"/>
		<path d="M204.422,189.8l0.76,2.167c0.128,0.359,0.231,0.68,0.312,1h0.024c0.088-0.32,0.2-0.641,0.327-1l0.752-2.167h0.736    l-1.52,3.87h-0.672l-1.471-3.87H204.422z"/>
		<path d="M208.397,191.863c0.016,0.943,0.615,1.335,1.319,1.335c0.504,0,0.815-0.088,1.071-0.2l0.128,0.504    c-0.247,0.111-0.68,0.248-1.295,0.248c-1.184,0-1.903-0.791-1.903-1.951c0-1.167,0.695-2.087,1.823-2.087    c1.263,0,1.591,1.111,1.591,1.823c0,0.145-0.008,0.248-0.023,0.328H208.397z M210.452,191.359    c0.008-0.447-0.184-1.144-0.967-1.144c-0.721,0-1.023,0.655-1.08,1.144H210.452z"/>
		<path d="M214.421,188.281v5.389h-0.703v-5.389H214.421z"/>
		<path d="M215.613,190.848c0-0.408-0.016-0.728-0.032-1.048h0.616l0.032,0.624h0.023c0.216-0.368,0.576-0.712,1.224-0.712    c0.52,0,0.919,0.319,1.087,0.776h0.017c0.12-0.225,0.28-0.385,0.439-0.504c0.231-0.176,0.479-0.272,0.848-0.272    c0.52,0,1.279,0.336,1.279,1.679v2.279h-0.688v-2.191c0-0.751-0.28-1.191-0.84-1.191c-0.407,0-0.712,0.297-0.839,0.633    c-0.033,0.104-0.057,0.231-0.057,0.352v2.398h-0.688v-2.326c0-0.616-0.271-1.057-0.808-1.057c-0.432,0-0.76,0.353-0.872,0.704    c-0.039,0.104-0.055,0.224-0.055,0.344v2.335h-0.688V190.848z"/>
		<path d="M222.286,191.063c0-0.496-0.008-0.896-0.032-1.264h0.632l0.04,0.664h0.016c0.28-0.479,0.743-0.752,1.367-0.752    c0.943,0,1.647,0.792,1.647,1.968c0,1.391-0.855,2.078-1.76,2.078c-0.52,0-0.959-0.224-1.19-0.607h-0.017v2.103h-0.703V191.063z     M222.989,192.095c0,0.097,0.008,0.2,0.032,0.288c0.12,0.487,0.552,0.823,1.048,0.823c0.743,0,1.175-0.607,1.175-1.495    c0-0.775-0.399-1.439-1.144-1.439c-0.479,0-0.936,0.336-1.071,0.872c-0.016,0.088-0.04,0.191-0.04,0.28V192.095z"/>
		<path d="M226.838,191.008c0-0.456-0.009-0.848-0.032-1.208h0.615l0.032,0.76h0.024c0.176-0.52,0.607-0.848,1.079-0.848    c0.072,0,0.128,0.009,0.192,0.017v0.663c-0.072-0.008-0.145-0.016-0.24-0.016c-0.496,0-0.848,0.376-0.943,0.896    c-0.017,0.104-0.024,0.216-0.024,0.328v2.07h-0.703V191.008z"/>
		<path d="M231.029,193.758c-1.04,0-1.855-0.768-1.855-1.99c0-1.296,0.855-2.056,1.919-2.056c1.111,0,1.863,0.808,1.863,1.983    c0,1.439-1,2.062-1.919,2.062H231.029z M231.061,193.23c0.672,0,1.176-0.632,1.176-1.512c0-0.655-0.328-1.479-1.159-1.479    c-0.824,0-1.184,0.768-1.184,1.503c0,0.847,0.479,1.487,1.159,1.487H231.061z"/>
		<path d="M234.117,189.8l0.76,2.167c0.128,0.359,0.231,0.68,0.312,1h0.024c0.088-0.32,0.199-0.641,0.327-1l0.752-2.167h0.735    l-1.519,3.87h-0.672l-1.472-3.87H234.117z"/>
		<path d="M238.093,191.863c0.016,0.943,0.615,1.335,1.319,1.335c0.504,0,0.815-0.088,1.071-0.2l0.128,0.504    c-0.248,0.111-0.68,0.248-1.295,0.248c-1.184,0-1.903-0.791-1.903-1.951c0-1.167,0.695-2.087,1.823-2.087    c1.263,0,1.591,1.111,1.591,1.823c0,0.145-0.008,0.248-0.023,0.328H238.093z M240.147,191.359    c0.008-0.447-0.184-1.144-0.967-1.144c-0.72,0-1.023,0.655-1.08,1.144H240.147z"/>
		<path d="M245.043,187.993v4.677c0,0.344,0.008,0.736,0.032,1h-0.632l-0.032-0.672h-0.016c-0.216,0.432-0.68,0.76-1.312,0.76    c-0.936,0-1.663-0.791-1.663-1.967c-0.008-1.295,0.8-2.079,1.735-2.079c0.6,0,0.999,0.28,1.167,0.584h0.017v-2.303H245.043z     M244.34,191.375c0-0.096-0.009-0.207-0.032-0.304c-0.104-0.439-0.488-0.808-1.016-0.808c-0.728,0-1.159,0.64-1.159,1.487    c0,0.792,0.392,1.439,1.144,1.439c0.472,0,0.903-0.32,1.031-0.848c0.023-0.088,0.032-0.185,0.032-0.296V191.375z"/>
		<path d="M70.656,200.354c0.335-0.064,0.775-0.113,1.335-0.113c0.688,0,1.191,0.16,1.511,0.448c0.296,0.256,0.48,0.647,0.48,1.12    c0,0.487-0.144,0.871-0.424,1.15c-0.368,0.393-0.968,0.592-1.647,0.592c-0.208,0-0.399-0.008-0.56-0.048v2.167h-0.695V200.354z     M71.352,202.936c0.152,0.04,0.344,0.056,0.576,0.056c0.839,0,1.351-0.407,1.351-1.144c0-0.711-0.503-1.055-1.271-1.055    c-0.304,0-0.536,0.023-0.656,0.056V202.936z"/>
		<path d="M75.288,203.863c0.016,0.943,0.616,1.335,1.319,1.335c0.504,0,0.815-0.088,1.071-0.2l0.128,0.504    c-0.248,0.111-0.68,0.248-1.295,0.248c-1.183,0-1.903-0.791-1.903-1.951c0-1.167,0.696-2.087,1.823-2.087    c1.263,0,1.591,1.111,1.591,1.823c0,0.145-0.008,0.248-0.024,0.328H75.288z M77.343,203.359c0.008-0.447-0.184-1.144-0.968-1.144    c-0.72,0-1.023,0.655-1.079,1.144H77.343z"/>
		<path d="M78.896,203.008c0-0.456-0.008-0.848-0.032-1.208h0.616l0.032,0.76h0.024c0.176-0.52,0.608-0.848,1.08-0.848    c0.072,0,0.128,0.009,0.192,0.017v0.663c-0.072-0.008-0.144-0.016-0.24-0.016c-0.496,0-0.848,0.376-0.943,0.896    c-0.016,0.104-0.024,0.216-0.024,0.328v2.07h-0.704V203.008z"/>
		<path d="M84.271,205.525c-0.184,0.088-0.592,0.225-1.111,0.225c-1.167,0-1.927-0.791-1.927-1.975c0-1.191,0.816-2.063,2.079-2.063    c0.416,0,0.784,0.104,0.975,0.208l-0.16,0.535c-0.168-0.088-0.432-0.184-0.815-0.184c-0.888,0-1.367,0.664-1.367,1.463    c0,0.896,0.576,1.447,1.343,1.447c0.399,0,0.664-0.096,0.863-0.184L84.271,205.525z"/>
		<path d="M85.496,203.863c0.016,0.943,0.616,1.335,1.319,1.335c0.504,0,0.815-0.088,1.071-0.2l0.128,0.504    c-0.248,0.111-0.68,0.248-1.295,0.248c-1.183,0-1.903-0.791-1.903-1.951c0-1.167,0.696-2.087,1.823-2.087    c1.263,0,1.591,1.111,1.591,1.823c0,0.145-0.008,0.248-0.024,0.328H85.496z M87.551,203.359c0.008-0.447-0.184-1.144-0.968-1.144    c-0.72,0-1.023,0.655-1.079,1.144H87.551z"/>
		<path d="M89.439,201.145c-0.256,0-0.424-0.2-0.424-0.432c0-0.248,0.176-0.439,0.44-0.439c0.256,0,0.432,0.191,0.432,0.439    c0,0.231-0.168,0.432-0.44,0.432H89.439z M89.104,205.67v-3.87h0.704v3.87H89.104z"/>
		<path d="M91.248,201.8l0.76,2.167c0.128,0.359,0.232,0.68,0.312,1h0.024c0.088-0.32,0.2-0.641,0.328-1l0.751-2.167h0.736    l-1.52,3.87h-0.671l-1.471-3.87H91.248z"/>
		<path d="M95.224,203.863c0.016,0.943,0.616,1.335,1.319,1.335c0.504,0,0.815-0.088,1.071-0.2l0.128,0.504    c-0.248,0.111-0.68,0.248-1.295,0.248c-1.184,0-1.903-0.791-1.903-1.951c0-1.167,0.696-2.087,1.823-2.087    c1.263,0,1.591,1.111,1.591,1.823c0,0.145-0.008,0.248-0.024,0.328H95.224z M97.278,203.359c0.008-0.447-0.184-1.144-0.967-1.144    c-0.72,0-1.023,0.655-1.08,1.144H97.278z"/>
		<path d="M101.247,200.281v3.197c0,1.2,0.536,1.712,1.255,1.712c0.792,0,1.311-0.528,1.311-1.712v-3.197h0.704v3.15    c0,1.654-0.872,2.326-2.039,2.326c-1.104,0-1.935-0.623-1.935-2.303v-3.174H101.247z"/>
		<path d="M105.639,204.822c0.312,0.191,0.76,0.344,1.24,0.344c0.711,0,1.127-0.367,1.127-0.911c0-0.504-0.288-0.8-1.015-1.071    c-0.879-0.305-1.423-0.768-1.423-1.52c0-0.84,0.696-1.463,1.743-1.463c0.543,0,0.951,0.128,1.183,0.256l-0.192,0.575    c-0.168-0.104-0.527-0.256-1.015-0.256c-0.736,0-1.016,0.44-1.016,0.808c0,0.496,0.328,0.744,1.071,1.031    c0.912,0.36,1.367,0.792,1.367,1.584c0,0.823-0.607,1.551-1.879,1.551c-0.52,0-1.087-0.16-1.375-0.352L105.639,204.822z"/>
		<path d="M111.679,201.145c-0.256,0-0.424-0.2-0.424-0.432c0-0.248,0.176-0.439,0.44-0.439c0.256,0,0.432,0.191,0.432,0.439    c0,0.231-0.168,0.432-0.439,0.432H111.679z M111.343,205.67v-3.87h0.704v3.87H111.343z"/>
		<path d="M113.215,202.848c0-0.408-0.008-0.728-0.032-1.048h0.624l0.04,0.632h0.016c0.192-0.359,0.64-0.72,1.279-0.72    c0.536,0,1.367,0.319,1.367,1.647v2.311h-0.704v-2.23c0-0.624-0.232-1.152-0.896-1.152c-0.456,0-0.815,0.328-0.943,0.721    c-0.032,0.088-0.048,0.215-0.048,0.327v2.335h-0.704V202.848z"/>
		<path d="M118.502,200.873v0.927h1.007v0.536h-1.007v2.078c0,0.48,0.136,0.752,0.528,0.752c0.192,0,0.304-0.016,0.408-0.048    l0.032,0.536c-0.136,0.048-0.352,0.096-0.624,0.096c-0.328,0-0.591-0.112-0.759-0.296c-0.192-0.216-0.272-0.56-0.272-1.016v-2.103    h-0.6V201.8h0.6v-0.712L118.502,200.873z"/>
		<path d="M120.703,203.863c0.016,0.943,0.616,1.335,1.319,1.335c0.504,0,0.815-0.088,1.071-0.2l0.128,0.504    c-0.248,0.111-0.68,0.248-1.295,0.248c-1.184,0-1.903-0.791-1.903-1.951c0-1.167,0.696-2.087,1.823-2.087    c1.263,0,1.591,1.111,1.591,1.823c0,0.145-0.008,0.248-0.024,0.328H120.703z M122.758,203.359    c0.008-0.447-0.184-1.144-0.967-1.144c-0.72,0-1.023,0.655-1.08,1.144H122.758z"/>
		<path d="M124.311,203.008c0-0.456-0.008-0.848-0.032-1.208h0.616l0.032,0.76h0.024c0.176-0.52,0.608-0.848,1.08-0.848    c0.072,0,0.128,0.009,0.192,0.017v0.663c-0.072-0.008-0.144-0.016-0.24-0.016c-0.496,0-0.848,0.376-0.943,0.896    c-0.016,0.104-0.024,0.216-0.024,0.328v2.07h-0.704V203.008z"/>
		<path d="M126.927,202.848c0-0.408-0.008-0.728-0.032-1.048h0.624l0.04,0.632h0.016c0.192-0.359,0.64-0.72,1.279-0.72    c0.536,0,1.367,0.319,1.367,1.647v2.311h-0.704v-2.23c0-0.624-0.232-1.152-0.896-1.152c-0.456,0-0.815,0.328-0.943,0.721    c-0.032,0.088-0.048,0.215-0.048,0.327v2.335h-0.704V202.848z"/>
		<path d="M134.093,204.742c0,0.336,0.016,0.664,0.056,0.928h-0.632l-0.064-0.488h-0.024c-0.208,0.305-0.632,0.576-1.183,0.576    c-0.784,0-1.184-0.552-1.184-1.111c0-0.936,0.832-1.447,2.327-1.439v-0.08c0-0.319-0.088-0.903-0.879-0.895    c-0.368,0-0.744,0.104-1.016,0.287l-0.16-0.472c0.32-0.2,0.792-0.336,1.279-0.336c1.191,0,1.479,0.808,1.479,1.583V204.742z     M133.406,203.695c-0.768-0.016-1.639,0.119-1.639,0.871c0,0.464,0.304,0.672,0.656,0.672c0.512,0,0.839-0.32,0.952-0.648    c0.024-0.071,0.032-0.151,0.032-0.223V203.695z"/>
		<path d="M136.07,200.873v0.927h1.007v0.536h-1.007v2.078c0,0.48,0.136,0.752,0.528,0.752c0.192,0,0.304-0.016,0.408-0.048    l0.032,0.536c-0.136,0.048-0.352,0.096-0.624,0.096c-0.328,0-0.592-0.112-0.759-0.296c-0.192-0.216-0.272-0.56-0.272-1.016v-2.103    h-0.6V201.8h0.6v-0.712L136.07,200.873z"/>
		<path d="M138.207,201.145c-0.256,0-0.424-0.2-0.424-0.432c0-0.248,0.176-0.439,0.44-0.439c0.256,0,0.432,0.191,0.432,0.439    c0,0.231-0.168,0.432-0.439,0.432H138.207z M137.871,205.67v-3.87h0.704v3.87H137.871z"/>
		<path d="M141.318,205.758c-1.04,0-1.855-0.768-1.855-1.99c0-1.296,0.855-2.056,1.919-2.056c1.111,0,1.863,0.808,1.863,1.983    c0,1.439-1,2.062-1.919,2.062H141.318z M141.35,205.23c0.671,0,1.175-0.632,1.175-1.512c0-0.655-0.328-1.479-1.159-1.479    c-0.824,0-1.184,0.768-1.184,1.503c0,0.847,0.479,1.487,1.159,1.487H141.35z"/>
		<path d="M144.135,202.848c0-0.408-0.008-0.728-0.032-1.048h0.624l0.04,0.632h0.016c0.192-0.359,0.64-0.72,1.279-0.72    c0.536,0,1.367,0.319,1.367,1.647v2.311h-0.704v-2.23c0-0.624-0.232-1.152-0.896-1.152c-0.456,0-0.815,0.328-0.943,0.721    c-0.032,0.088-0.048,0.215-0.048,0.327v2.335h-0.704V202.848z"/>
		<path d="M151.301,204.742c0,0.336,0.016,0.664,0.056,0.928h-0.632l-0.064-0.488h-0.024c-0.208,0.305-0.632,0.576-1.183,0.576    c-0.784,0-1.184-0.552-1.184-1.111c0-0.936,0.832-1.447,2.327-1.439v-0.08c0-0.319-0.088-0.903-0.879-0.895    c-0.368,0-0.744,0.104-1.016,0.287l-0.16-0.472c0.32-0.2,0.792-0.336,1.279-0.336c1.191,0,1.479,0.808,1.479,1.583V204.742z     M150.614,203.695c-0.768-0.016-1.639,0.119-1.639,0.871c0,0.464,0.304,0.672,0.656,0.672c0.512,0,0.839-0.32,0.952-0.648    c0.024-0.071,0.032-0.151,0.032-0.223V203.695z"/>
		<path d="M152.431,199.993h0.704v5.677h-0.704V199.993z"/>
		<path d="M155.918,204.95c0.216,0.128,0.583,0.272,0.936,0.272c0.503,0,0.744-0.248,0.744-0.576c0-0.336-0.2-0.512-0.712-0.703    c-0.704-0.256-1.031-0.641-1.031-1.096c0-0.624,0.512-1.136,1.335-1.136c0.392,0,0.736,0.104,0.944,0.24l-0.168,0.503    c-0.152-0.088-0.432-0.223-0.792-0.223c-0.416,0-0.64,0.239-0.64,0.527c0,0.319,0.224,0.463,0.728,0.664    c0.664,0.247,1.016,0.583,1.016,1.158c0,0.688-0.536,1.168-1.439,1.168c-0.424,0-0.815-0.112-1.087-0.271L155.918,204.95z"/>
		<path d="M160.03,200.873v0.927h1.007v0.536h-1.007v2.078c0,0.48,0.136,0.752,0.528,0.752c0.192,0,0.304-0.016,0.408-0.048    l0.032,0.536c-0.136,0.048-0.352,0.096-0.624,0.096c-0.328,0-0.591-0.112-0.759-0.296c-0.192-0.216-0.272-0.56-0.272-1.016v-2.103    h-0.6V201.8h0.6v-0.712L160.03,200.873z"/>
		<path d="M164.557,204.742c0,0.336,0.016,0.664,0.056,0.928h-0.632l-0.064-0.488h-0.024c-0.208,0.305-0.632,0.576-1.183,0.576    c-0.784,0-1.184-0.552-1.184-1.111c0-0.936,0.832-1.447,2.327-1.439v-0.08c0-0.319-0.088-0.903-0.879-0.895    c-0.368,0-0.744,0.104-1.016,0.287l-0.16-0.472c0.32-0.2,0.792-0.336,1.279-0.336c1.191,0,1.479,0.808,1.479,1.583V204.742z     M163.87,203.695c-0.768-0.016-1.639,0.119-1.639,0.871c0,0.464,0.304,0.672,0.656,0.672c0.512,0,0.839-0.32,0.952-0.648    c0.024-0.071,0.032-0.151,0.032-0.223V203.695z"/>
		<path d="M165.686,202.848c0-0.408-0.008-0.728-0.032-1.048h0.624l0.04,0.632h0.016c0.192-0.359,0.64-0.72,1.279-0.72    c0.536,0,1.367,0.319,1.367,1.647v2.311h-0.704v-2.23c0-0.624-0.232-1.152-0.896-1.152c-0.456,0-0.815,0.328-0.943,0.721    c-0.032,0.088-0.048,0.215-0.048,0.327v2.335h-0.704V202.848z"/>
		<path d="M173.469,199.993v4.677c0,0.344,0.008,0.736,0.032,1h-0.632l-0.032-0.672h-0.016c-0.216,0.432-0.68,0.76-1.312,0.76    c-0.936,0-1.663-0.791-1.663-1.967c-0.008-1.295,0.8-2.079,1.735-2.079c0.6,0,0.999,0.28,1.167,0.584h0.016v-2.303H173.469z     M172.765,203.375c0-0.096-0.008-0.207-0.032-0.304c-0.104-0.439-0.488-0.808-1.016-0.808c-0.728,0-1.159,0.64-1.159,1.487    c0,0.792,0.392,1.439,1.143,1.439c0.472,0,0.904-0.32,1.032-0.848c0.024-0.088,0.032-0.185,0.032-0.296V203.375z"/>
		<path d="M174.974,201.145c-0.256,0-0.424-0.2-0.424-0.432c0-0.248,0.177-0.439,0.44-0.439c0.256,0,0.432,0.191,0.432,0.439    c0,0.231-0.168,0.432-0.439,0.432H174.974z M174.638,205.67v-3.87h0.704v3.87H174.638z"/>
		<path d="M176.511,202.848c0-0.408-0.008-0.728-0.032-1.048h0.624l0.039,0.632h0.017c0.192-0.359,0.64-0.72,1.279-0.72    c0.536,0,1.367,0.319,1.367,1.647v2.311h-0.704v-2.23c0-0.624-0.231-1.152-0.895-1.152c-0.456,0-0.816,0.328-0.943,0.721    c-0.033,0.088-0.049,0.215-0.049,0.327v2.335h-0.703V202.848z"/>
		<path d="M184.261,205.102c0,0.896-0.184,1.432-0.552,1.775c-0.384,0.344-0.928,0.464-1.415,0.464    c-0.464,0-0.976-0.112-1.287-0.319l0.176-0.544c0.256,0.168,0.655,0.312,1.135,0.312c0.72,0,1.248-0.375,1.248-1.359v-0.424    h-0.017c-0.208,0.36-0.632,0.648-1.231,0.648c-0.959,0-1.646-0.816-1.646-1.896c0-1.312,0.855-2.047,1.75-2.047    c0.672,0,1.032,0.344,1.208,0.672h0.017l0.023-0.584h0.623c-0.023,0.272-0.031,0.592-0.031,1.056V205.102z M183.558,203.319    c0-0.112-0.009-0.216-0.041-0.312c-0.127-0.416-0.463-0.752-0.982-0.752c-0.672,0-1.152,0.567-1.152,1.471    c0,0.752,0.393,1.392,1.144,1.392c0.44,0,0.831-0.272,0.976-0.728c0.04-0.111,0.057-0.248,0.057-0.376V203.319z"/>
		<path d="M187.966,200.873v0.927h1.007v0.536h-1.007v2.078c0,0.48,0.136,0.752,0.527,0.752c0.191,0,0.304-0.016,0.408-0.048    l0.031,0.536c-0.136,0.048-0.352,0.096-0.623,0.096c-0.328,0-0.592-0.112-0.76-0.296c-0.191-0.216-0.271-0.56-0.271-1.016v-2.103    h-0.6V201.8h0.6v-0.712L187.966,200.873z"/>
		<path d="M191.341,205.758c-1.039,0-1.854-0.768-1.854-1.99c0-1.296,0.855-2.056,1.919-2.056c1.111,0,1.863,0.808,1.863,1.983    c0,1.439-1,2.062-1.919,2.062H191.341z M191.374,205.23c0.671,0,1.175-0.632,1.175-1.512c0-0.655-0.328-1.479-1.159-1.479    c-0.824,0-1.184,0.768-1.184,1.503c0,0.847,0.479,1.487,1.159,1.487H191.374z"/>
		<path d="M195.854,199.993h0.703v2.415h0.016c0.112-0.2,0.289-0.385,0.504-0.496c0.208-0.128,0.456-0.2,0.72-0.2    c0.521,0,1.352,0.319,1.352,1.655v2.303h-0.704v-2.23c0-0.624-0.231-1.144-0.895-1.144c-0.456,0-0.809,0.319-0.943,0.704    c-0.041,0.096-0.049,0.199-0.049,0.335v2.335h-0.703V199.993z"/>
		<path d="M203.021,204.742c0,0.336,0.016,0.664,0.056,0.928h-0.632l-0.064-0.488h-0.023c-0.208,0.305-0.632,0.576-1.184,0.576    c-0.783,0-1.184-0.552-1.184-1.111c0-0.936,0.832-1.447,2.327-1.439v-0.08c0-0.319-0.088-0.903-0.88-0.895    c-0.367,0-0.743,0.104-1.016,0.287l-0.159-0.472c0.319-0.2,0.792-0.336,1.279-0.336c1.191,0,1.479,0.808,1.479,1.583V204.742z     M202.333,203.695c-0.768-0.016-1.64,0.119-1.64,0.871c0,0.464,0.304,0.672,0.655,0.672c0.512,0,0.84-0.32,0.952-0.648    c0.024-0.071,0.032-0.151,0.032-0.223V203.695z"/>
		<path d="M204.422,201.8l0.76,2.167c0.128,0.359,0.231,0.68,0.312,1h0.024c0.088-0.32,0.2-0.641,0.327-1l0.752-2.167h0.736    l-1.52,3.87h-0.672l-1.471-3.87H204.422z"/>
		<path d="M208.397,203.863c0.016,0.943,0.615,1.335,1.319,1.335c0.504,0,0.815-0.088,1.071-0.2l0.128,0.504    c-0.247,0.111-0.68,0.248-1.295,0.248c-1.184,0-1.903-0.791-1.903-1.951c0-1.167,0.695-2.087,1.823-2.087    c1.263,0,1.591,1.111,1.591,1.823c0,0.145-0.008,0.248-0.023,0.328H208.397z M210.452,203.359    c0.008-0.447-0.184-1.144-0.967-1.144c-0.721,0-1.023,0.655-1.08,1.144H210.452z"/>
		<path d="M217.044,199.993v4.677c0,0.344,0.008,0.736,0.032,1h-0.632l-0.032-0.672h-0.016c-0.216,0.432-0.68,0.76-1.312,0.76    c-0.936,0-1.663-0.791-1.663-1.967c-0.008-1.295,0.8-2.079,1.735-2.079c0.6,0,0.999,0.28,1.167,0.584h0.017v-2.303H217.044z     M216.341,203.375c0-0.096-0.008-0.207-0.032-0.304c-0.104-0.439-0.487-0.808-1.016-0.808c-0.728,0-1.159,0.64-1.159,1.487    c0,0.792,0.392,1.439,1.143,1.439c0.473,0,0.904-0.32,1.032-0.848c0.024-0.088,0.032-0.185,0.032-0.296V203.375z"/>
		<path d="M218.613,203.863c0.017,0.943,0.616,1.335,1.319,1.335c0.504,0,0.815-0.088,1.071-0.2l0.128,0.504    c-0.248,0.111-0.68,0.248-1.295,0.248c-1.184,0-1.903-0.791-1.903-1.951c0-1.167,0.696-2.087,1.823-2.087    c1.264,0,1.591,1.111,1.591,1.823c0,0.145-0.008,0.248-0.024,0.328H218.613z M220.668,203.359    c0.009-0.447-0.184-1.144-0.968-1.144c-0.719,0-1.023,0.655-1.079,1.144H220.668z"/>
		<path d="M224.979,205.525c-0.184,0.088-0.592,0.225-1.111,0.225c-1.167,0-1.927-0.791-1.927-1.975    c0-1.191,0.815-2.063,2.079-2.063c0.416,0,0.783,0.104,0.976,0.208l-0.16,0.535c-0.168-0.088-0.432-0.184-0.815-0.184    c-0.888,0-1.367,0.664-1.367,1.463c0,0.896,0.575,1.447,1.343,1.447c0.4,0,0.664-0.096,0.864-0.184L224.979,205.525z"/>
		<path d="M225.806,199.993h0.703v5.677h-0.703V199.993z"/>
		<path d="M228.029,201.145c-0.256,0-0.424-0.2-0.424-0.432c0-0.248,0.176-0.439,0.439-0.439c0.256,0,0.432,0.191,0.432,0.439    c0,0.231-0.168,0.432-0.439,0.432H228.029z M227.693,205.67v-3.87h0.703v3.87H227.693z"/>
		<path d="M229.565,202.848c0-0.408-0.008-0.728-0.032-1.048h0.624l0.039,0.632h0.017c0.191-0.359,0.64-0.72,1.279-0.72    c0.535,0,1.367,0.319,1.367,1.647v2.311h-0.704v-2.23c0-0.624-0.231-1.152-0.896-1.152c-0.455,0-0.815,0.328-0.943,0.721    c-0.031,0.088-0.048,0.215-0.048,0.327v2.335h-0.703V202.848z"/>
		<path d="M234.405,203.863c0.016,0.943,0.615,1.335,1.319,1.335c0.504,0,0.815-0.088,1.071-0.2l0.128,0.504    c-0.248,0.111-0.68,0.248-1.295,0.248c-1.184,0-1.903-0.791-1.903-1.951c0-1.167,0.695-2.087,1.823-2.087    c1.263,0,1.591,1.111,1.591,1.823c0,0.145-0.008,0.248-0.023,0.328H234.405z M236.46,203.359c0.008-0.447-0.184-1.144-0.967-1.144    c-0.72,0-1.023,0.655-1.08,1.144H236.46z"/>
		<path d="M241.355,199.993v4.677c0,0.344,0.008,0.736,0.032,1h-0.632l-0.032-0.672h-0.016c-0.216,0.432-0.68,0.76-1.312,0.76    c-0.936,0-1.663-0.791-1.663-1.967c-0.008-1.295,0.8-2.079,1.735-2.079c0.6,0,0.999,0.28,1.167,0.584h0.017v-2.303H241.355z     M240.652,203.375c0-0.096-0.009-0.207-0.032-0.304c-0.104-0.439-0.488-0.808-1.016-0.808c-0.728,0-1.159,0.64-1.159,1.487    c0,0.792,0.392,1.439,1.144,1.439c0.472,0,0.903-0.32,1.031-0.848c0.023-0.088,0.032-0.185,0.032-0.296V203.375z"/>
		<path d="M245.797,205.758c-1.04,0-1.855-0.768-1.855-1.99c0-1.296,0.855-2.056,1.919-2.056c1.111,0,1.863,0.808,1.863,1.983    c0,1.439-1,2.062-1.919,2.062H245.797z M245.828,205.23c0.672,0,1.176-0.632,1.176-1.512c0-0.655-0.328-1.479-1.159-1.479    c-0.824,0-1.184,0.768-1.184,1.503c0,0.847,0.479,1.487,1.159,1.487H245.828z"/>
		<path d="M248.613,203.008c0-0.456-0.009-0.848-0.032-1.208h0.615l0.032,0.76h0.024c0.176-0.52,0.607-0.848,1.079-0.848    c0.072,0,0.128,0.009,0.192,0.017v0.663c-0.072-0.008-0.145-0.016-0.24-0.016c-0.496,0-0.848,0.376-0.943,0.896    c-0.017,0.104-0.024,0.216-0.024,0.328v2.07h-0.703V203.008z"/>
		<path d="M252.828,204.95c0.216,0.128,0.584,0.272,0.936,0.272c0.504,0,0.744-0.248,0.744-0.576c0-0.336-0.2-0.512-0.712-0.703    c-0.703-0.256-1.031-0.641-1.031-1.096c0-0.624,0.512-1.136,1.335-1.136c0.392,0,0.735,0.104,0.943,0.24l-0.168,0.503    c-0.151-0.088-0.432-0.223-0.791-0.223c-0.416,0-0.64,0.239-0.64,0.527c0,0.319,0.224,0.463,0.728,0.664    c0.663,0.247,1.016,0.583,1.016,1.158c0,0.688-0.536,1.168-1.439,1.168c-0.424,0-0.815-0.112-1.087-0.271L252.828,204.95z"/>
		<path d="M256.94,200.873v0.927h1.007v0.536h-1.007v2.078c0,0.48,0.136,0.752,0.527,0.752c0.191,0,0.304-0.016,0.408-0.048    l0.031,0.536c-0.136,0.048-0.352,0.096-0.623,0.096c-0.328,0-0.592-0.112-0.76-0.296c-0.192-0.216-0.272-0.56-0.272-1.016v-2.103    h-0.6V201.8h0.6v-0.712L256.94,200.873z"/>
		<path d="M261.468,204.742c0,0.336,0.016,0.664,0.056,0.928h-0.632l-0.063-0.488h-0.024c-0.208,0.305-0.632,0.576-1.184,0.576    c-0.783,0-1.183-0.552-1.183-1.111c0-0.936,0.831-1.447,2.326-1.439v-0.08c0-0.319-0.088-0.903-0.88-0.895    c-0.367,0-0.743,0.104-1.015,0.287l-0.16-0.472c0.319-0.2,0.792-0.336,1.279-0.336c1.191,0,1.479,0.808,1.479,1.583V204.742z     M260.78,203.695c-0.768-0.016-1.64,0.119-1.64,0.871c0,0.464,0.304,0.672,0.655,0.672c0.512,0,0.84-0.32,0.952-0.648    c0.023-0.071,0.032-0.151,0.032-0.223V203.695z"/>
		<path d="M262.853,201.8l0.839,2.287c0.097,0.256,0.192,0.56,0.256,0.792h0.017c0.071-0.232,0.151-0.528,0.248-0.809l0.768-2.271    h0.743l-1.056,2.759c-0.504,1.327-0.848,1.999-1.327,2.423c-0.352,0.296-0.688,0.415-0.863,0.447l-0.176-0.583    c0.176-0.057,0.407-0.168,0.615-0.344c0.192-0.152,0.424-0.424,0.592-0.784c0.032-0.071,0.056-0.128,0.056-0.168    s-0.016-0.096-0.056-0.184l-1.423-3.566H262.853z"/>
		<path d="M266.765,203.863c0.016,0.943,0.615,1.335,1.319,1.335c0.504,0,0.815-0.088,1.071-0.2l0.128,0.504    c-0.248,0.111-0.68,0.248-1.295,0.248c-1.184,0-1.903-0.791-1.903-1.951c0-1.167,0.695-2.087,1.823-2.087    c1.263,0,1.591,1.111,1.591,1.823c0,0.145-0.008,0.248-0.023,0.328H266.765z M268.819,203.359    c0.008-0.447-0.184-1.144-0.967-1.144c-0.72,0-1.023,0.655-1.08,1.144H268.819z"/>
		<path d="M273.715,199.993v4.677c0,0.344,0.008,0.736,0.032,1h-0.632l-0.032-0.672h-0.016c-0.216,0.432-0.68,0.76-1.312,0.76    c-0.936,0-1.663-0.791-1.663-1.967c-0.008-1.295,0.8-2.079,1.735-2.079c0.6,0,0.999,0.28,1.167,0.584h0.017v-2.303H273.715z     M273.012,203.375c0-0.096-0.009-0.207-0.032-0.304c-0.104-0.439-0.488-0.808-1.016-0.808c-0.728,0-1.159,0.64-1.159,1.487    c0,0.792,0.392,1.439,1.144,1.439c0.472,0,0.903-0.32,1.031-0.848c0.023-0.088,0.032-0.185,0.032-0.296V203.375z"/>
		<path d="M277.429,200.873v0.927h1.007v0.536h-1.007v2.078c0,0.48,0.136,0.752,0.527,0.752c0.191,0,0.304-0.016,0.408-0.048    l0.031,0.536c-0.136,0.048-0.352,0.096-0.623,0.096c-0.328,0-0.592-0.112-0.76-0.296c-0.192-0.216-0.272-0.56-0.272-1.016v-2.103    h-0.6V201.8h0.6v-0.712L277.429,200.873z"/>
		<path d="M279.229,199.993h0.703v2.415h0.017c0.111-0.2,0.287-0.385,0.503-0.496c0.208-0.128,0.456-0.2,0.72-0.2    c0.52,0,1.352,0.319,1.352,1.655v2.303h-0.704v-2.23c0-0.624-0.231-1.144-0.896-1.144c-0.455,0-0.807,0.319-0.943,0.704    c-0.04,0.096-0.048,0.199-0.048,0.335v2.335h-0.703V199.993z"/>
		<path d="M284.068,203.863c0.016,0.943,0.616,1.335,1.319,1.335c0.504,0,0.815-0.088,1.071-0.2l0.128,0.504    c-0.248,0.111-0.68,0.248-1.295,0.248c-1.184,0-1.903-0.791-1.903-1.951c0-1.167,0.695-2.087,1.823-2.087    c1.264,0,1.591,1.111,1.591,1.823c0,0.145-0.008,0.248-0.023,0.328H284.068z M286.123,203.359    c0.008-0.447-0.184-1.144-0.967-1.144c-0.72,0-1.023,0.655-1.08,1.144H286.123z"/>
		<path d="M289.276,204.95c0.217,0.128,0.584,0.272,0.936,0.272c0.504,0,0.744-0.248,0.744-0.576c0-0.336-0.2-0.512-0.712-0.703    c-0.703-0.256-1.031-0.641-1.031-1.096c0-0.624,0.512-1.136,1.335-1.136c0.392,0,0.736,0.104,0.943,0.24l-0.168,0.503    c-0.151-0.088-0.432-0.223-0.791-0.223c-0.416,0-0.64,0.239-0.64,0.527c0,0.319,0.224,0.463,0.728,0.664    c0.664,0.247,1.016,0.583,1.016,1.158c0,0.688-0.536,1.168-1.439,1.168c-0.424,0-0.815-0.112-1.088-0.271L289.276,204.95z"/>
		<path d="M295.268,204.742c0,0.336,0.016,0.664,0.056,0.928h-0.632l-0.063-0.488h-0.024c-0.208,0.305-0.632,0.576-1.184,0.576    c-0.783,0-1.183-0.552-1.183-1.111c0-0.936,0.831-1.447,2.326-1.439v-0.08c0-0.319-0.088-0.903-0.879-0.895    c-0.368,0-0.744,0.104-1.016,0.287l-0.16-0.472c0.319-0.2,0.791-0.336,1.279-0.336c1.191,0,1.479,0.808,1.479,1.583V204.742z     M294.579,203.695c-0.768-0.016-1.639,0.119-1.639,0.871c0,0.464,0.304,0.672,0.655,0.672c0.512,0,0.84-0.32,0.952-0.648    c0.023-0.071,0.031-0.151,0.031-0.223V203.695z"/>
		<path d="M296.396,202.848c0-0.408-0.017-0.728-0.032-1.048h0.615l0.032,0.624h0.024c0.216-0.368,0.575-0.712,1.223-0.712    c0.521,0,0.92,0.319,1.088,0.776h0.016c0.12-0.225,0.28-0.385,0.44-0.504c0.231-0.176,0.479-0.272,0.847-0.272    c0.521,0,1.279,0.336,1.279,1.679v2.279h-0.688v-2.191c0-0.751-0.279-1.191-0.839-1.191c-0.408,0-0.712,0.297-0.84,0.633    c-0.032,0.104-0.056,0.231-0.056,0.352v2.398h-0.688v-2.326c0-0.616-0.272-1.057-0.808-1.057c-0.433,0-0.76,0.353-0.872,0.704    c-0.04,0.104-0.056,0.224-0.056,0.344v2.335h-0.688V202.848z"/>
		<path d="M303.468,203.863c0.016,0.943,0.615,1.335,1.319,1.335c0.504,0,0.815-0.088,1.071-0.2l0.128,0.504    c-0.248,0.111-0.68,0.248-1.295,0.248c-1.184,0-1.903-0.791-1.903-1.951c0-1.167,0.695-2.087,1.823-2.087    c1.263,0,1.591,1.111,1.591,1.823c0,0.145-0.008,0.248-0.023,0.328H303.468z M305.522,203.359    c0.008-0.447-0.184-1.144-0.967-1.144c-0.72,0-1.023,0.655-1.08,1.144H305.522z"/>
	</g>
	<line fill="none" stroke="#000000" stroke-width="0.5" stroke-miterlimit="10" x1="16.368" y1="14.883" x2="12.368" y2="14.883"/>
	<line fill="none" stroke="#000000" stroke-width="0.5" stroke-miterlimit="10" x1="16.368" y1="36.056" x2="12.368" y2="36.056"/>
	<line fill="none" stroke="#000000" stroke-width="0.5" stroke-miterlimit="10" x1="16.368" y1="57.228" x2="12.368" y2="57.228"/>
	<line fill="none" stroke="#000000" stroke-width="0.5" stroke-miterlimit="10" x1="16.368" y1="78.401" x2="12.368" y2="78.401"/>
	<line fill="none" stroke="#000000" stroke-width="0.5" stroke-miterlimit="10" x1="16.368" y1="99.573" x2="12.368" y2="99.573"/>
	
		<line fill="none" stroke="#000000" stroke-width="0.5" stroke-miterlimit="10" x1="16.368" y1="120.746" x2="12.368" y2="120.746"/>
	
		<line fill="none" stroke="#000000" stroke-width="0.5" stroke-miterlimit="10" x1="16.368" y1="141.918" x2="12.368" y2="141.918"/>
	
		<line fill="none" stroke="#000000" stroke-width="0.5" stroke-miterlimit="10" x1="16.368" y1="163.091" x2="12.368" y2="163.091"/>
	<line fill="none" stroke="#000000" stroke-width="0.5" stroke-miterlimit="10" x1="51.05" y1="163.092" x2="51.05" y2="167.092"/>
	
		<line fill="none" stroke="#000000" stroke-width="0.5" stroke-miterlimit="10" x1="126.681" y1="163.092" x2="126.681" y2="167.092"/>
	<g>
		<path d="M231.195,176.48c-1.431,0-2.423-1.104-2.423-2.734c0-1.711,1.056-2.831,2.494-2.831c1.48,0,2.432,1.127,2.432,2.727    c0,1.847-1.127,2.838-2.494,2.838H231.195z M231.235,175.912c1.104,0,1.727-1.015,1.727-2.238c0-1.072-0.559-2.191-1.719-2.191    c-1.159,0-1.734,1.079-1.734,2.247c0,1.135,0.623,2.183,1.719,2.183H231.235z"/>
		<path d="M237.339,176.248c-0.184,0.088-0.592,0.224-1.111,0.224c-1.168,0-1.928-0.792-1.928-1.975c0-1.191,0.816-2.063,2.08-2.063    c0.415,0,0.783,0.104,0.975,0.208l-0.16,0.536c-0.168-0.088-0.432-0.184-0.814-0.184c-0.889,0-1.367,0.664-1.367,1.463    c0,0.896,0.575,1.447,1.343,1.447c0.399,0,0.663-0.096,0.863-0.184L237.339,176.248z"/>
		<path d="M239.012,171.595v0.928h1.007v0.536h-1.007v2.079c0,0.48,0.136,0.751,0.528,0.751c0.191,0,0.303-0.016,0.407-0.048    l0.032,0.536c-0.137,0.048-0.352,0.096-0.624,0.096c-0.327,0-0.591-0.112-0.759-0.296c-0.192-0.216-0.272-0.56-0.272-1.016v-2.103    h-0.6v-0.536h0.6v-0.712L239.012,171.595z"/>
		<path d="M242.444,173.978v0.512h-1.976v-0.512H242.444z"/>
		<path d="M244.571,171.851h-0.016l-0.904,0.488l-0.135-0.536l1.135-0.608h0.6v5.197h-0.68V171.851z"/>
		<path d="M250.114,171.69c-0.144-0.008-0.327,0.008-0.527,0.04c-1.111,0.176-1.688,0.976-1.807,1.839h0.016    c0.248-0.336,0.688-0.608,1.264-0.608c0.92,0,1.566,0.672,1.566,1.679c0,0.959-0.646,1.839-1.734,1.839    c-1.104,0-1.831-0.863-1.831-2.215c0-1.023,0.36-1.831,0.88-2.343c0.432-0.423,1.007-0.688,1.662-0.768    c0.209-0.032,0.385-0.04,0.512-0.04V171.69z M248.907,175.937c0.6,0,1.008-0.504,1.008-1.248s-0.424-1.191-1.072-1.191    c-0.424,0-0.822,0.256-1.015,0.64c-0.04,0.08-0.072,0.176-0.072,0.304c0.009,0.855,0.407,1.495,1.144,1.495H248.907z"/>
	</g>
	<g>
		<path d="M308.608,174.025c-0.041-0.744-0.089-1.663-0.089-2.327h-0.016c-0.192,0.624-0.407,1.311-0.68,2.047l-0.952,2.615h-0.527    l-0.879-2.567c-0.256-0.759-0.465-1.455-0.616-2.095h-0.017c-0.016,0.671-0.055,1.575-0.104,2.383l-0.144,2.311h-0.663    l0.375-5.389h0.888l0.919,2.606c0.225,0.664,0.4,1.264,0.545,1.823h0.016c0.144-0.544,0.336-1.144,0.575-1.823l0.96-2.606h0.887    l0.336,5.389h-0.688L308.608,174.025z"/>
		<path d="M313.2,175.465c0,0.335,0.016,0.664,0.057,0.927h-0.633l-0.063-0.488h-0.024c-0.207,0.304-0.631,0.576-1.183,0.576    c-0.784,0-1.184-0.552-1.184-1.111c0-0.936,0.831-1.447,2.327-1.439v-0.08c0-0.32-0.088-0.904-0.88-0.896    c-0.368,0-0.743,0.104-1.016,0.288l-0.159-0.472c0.319-0.2,0.791-0.336,1.279-0.336c1.191,0,1.479,0.808,1.479,1.583V175.465z     M312.513,174.417c-0.768-0.016-1.639,0.12-1.639,0.872c0,0.464,0.303,0.672,0.655,0.672c0.512,0,0.839-0.32,0.952-0.648    c0.023-0.072,0.031-0.152,0.031-0.224V174.417z"/>
		<path d="M314.33,173.729c0-0.456-0.008-0.848-0.032-1.207h0.616l0.032,0.759h0.023c0.176-0.52,0.607-0.848,1.08-0.848    c0.071,0,0.127,0.008,0.191,0.016v0.664c-0.072-0.008-0.145-0.016-0.24-0.016c-0.496,0-0.848,0.376-0.943,0.896    c-0.016,0.104-0.023,0.216-0.023,0.328v2.071h-0.704V173.729z"/>
		<path d="M318.577,173.978v0.512h-1.975v-0.512H318.577z"/>
		<path d="M319.179,176.392v-0.432l0.551-0.536c1.328-1.264,1.936-1.935,1.936-2.719c0-0.528-0.248-1.016-1.023-1.016    c-0.473,0-0.863,0.24-1.104,0.44l-0.225-0.496c0.353-0.296,0.872-0.528,1.472-0.528c1.111,0,1.583,0.768,1.583,1.511    c0,0.959-0.695,1.735-1.791,2.791l-0.408,0.384v0.016h2.328v0.583H319.179z"/>
		<path d="M324.937,176.48c-1.015,0-1.711-0.952-1.727-2.67c0-1.751,0.76-2.703,1.815-2.703c1.087,0,1.719,0.976,1.719,2.63    c0,1.767-0.663,2.743-1.799,2.743H324.937z M324.978,175.937c0.711,0,1.055-0.84,1.055-2.167c0-1.279-0.319-2.119-1.055-2.119    c-0.641,0-1.056,0.815-1.056,2.119c-0.017,1.351,0.399,2.167,1.048,2.167H324.978z"/>
	</g>
	
		<line fill="none" stroke="#000000" stroke-width="0.5" stroke-miterlimit="10" x1="239.693" y1="163.092" x2="239.693" y2="167.092"/>
	
		<line fill="none" stroke="#000000" stroke-width="0.5" stroke-miterlimit="10" x1="315.324" y1="163.092" x2="315.324" y2="167.092"/>
	<g>
		<path d="M187.876,17.473V16.05h-2.415v-0.456l2.318-3.318h0.76v3.23h0.728v0.544h-0.728v1.423H187.876z M187.876,15.506v-1.735    c0-0.271,0.008-0.544,0.023-0.815h-0.023c-0.16,0.304-0.289,0.527-0.432,0.768l-1.271,1.768v0.016H187.876z"/>
		<path d="M190.324,17.561c-0.272,0-0.464-0.216-0.464-0.504c0-0.287,0.2-0.504,0.48-0.504c0.279,0,0.471,0.208,0.471,0.504    c0,0.288-0.191,0.504-0.479,0.504H190.324z"/>
		<path d="M194.562,12.867h-1.983l-0.199,1.335c0.12-0.016,0.232-0.031,0.424-0.031c0.408,0,0.799,0.088,1.119,0.279    c0.408,0.224,0.744,0.68,0.744,1.335c0,1.016-0.809,1.775-1.936,1.775c-0.567,0-1.039-0.16-1.295-0.319l0.176-0.536    c0.216,0.128,0.64,0.288,1.119,0.288c0.656,0,1.231-0.432,1.224-1.136c0-0.663-0.456-1.144-1.487-1.144    c-0.304,0-0.535,0.024-0.728,0.057l0.336-2.495h2.486V12.867z"/>
		<path d="M187.876,38.643V37.22h-2.415v-0.456l2.318-3.318h0.76v3.23h0.728v0.544h-0.728v1.423H187.876z M187.876,36.676V34.94    c0-0.271,0.008-0.544,0.023-0.815h-0.023c-0.16,0.304-0.289,0.527-0.432,0.768l-1.271,1.768v0.016H187.876z"/>
		<path d="M190.324,38.73c-0.272,0-0.464-0.216-0.464-0.504c0-0.287,0.2-0.504,0.48-0.504c0.279,0,0.471,0.208,0.471,0.504    c0,0.288-0.191,0.504-0.479,0.504H190.324z"/>
		<path d="M193.116,38.73c-1.016,0-1.712-0.951-1.729-2.671c0-1.751,0.76-2.702,1.816-2.702c1.087,0,1.719,0.976,1.719,2.631    c0,1.767-0.664,2.742-1.799,2.742H193.116z M193.155,38.187c0.712,0,1.056-0.839,1.056-2.167c0-1.279-0.319-2.118-1.056-2.118    c-0.64,0-1.055,0.815-1.055,2.118c-0.017,1.352,0.399,2.167,1.047,2.167H193.155z"/>
		<path d="M185.868,59.013c0.2,0.12,0.656,0.32,1.152,0.32c0.895,0,1.183-0.568,1.175-1.008c-0.009-0.728-0.663-1.039-1.343-1.039    h-0.393v-0.528h0.393c0.512,0,1.158-0.264,1.158-0.879c0-0.416-0.264-0.784-0.91-0.784c-0.416,0-0.816,0.185-1.04,0.344    l-0.192-0.512c0.28-0.199,0.809-0.399,1.367-0.399c1.023,0,1.488,0.607,1.488,1.239c0,0.544-0.328,1-0.96,1.231v0.016    c0.64,0.12,1.159,0.6,1.159,1.328c0,0.831-0.656,1.559-1.895,1.559c-0.584,0-1.096-0.184-1.352-0.352L185.868,59.013z"/>
		<path d="M190.324,59.9c-0.272,0-0.464-0.216-0.464-0.504c0-0.287,0.2-0.504,0.48-0.504c0.279,0,0.471,0.208,0.471,0.504    c0,0.288-0.191,0.504-0.479,0.504H190.324z"/>
		<path d="M194.562,55.207h-1.983l-0.199,1.335c0.12-0.016,0.232-0.031,0.424-0.031c0.408,0,0.799,0.088,1.119,0.279    c0.408,0.224,0.744,0.68,0.744,1.335c0,1.016-0.809,1.775-1.936,1.775c-0.567,0-1.039-0.16-1.295-0.319l0.176-0.536    c0.216,0.128,0.64,0.288,1.119,0.288c0.656,0,1.231-0.432,1.224-1.136c0-0.663-0.456-1.144-1.487-1.144    c-0.304,0-0.535,0.024-0.728,0.057l0.336-2.495h2.486V55.207z"/>
		<path d="M185.868,80.183c0.2,0.12,0.656,0.32,1.152,0.32c0.895,0,1.183-0.568,1.175-1.008c-0.009-0.728-0.663-1.039-1.343-1.039    h-0.393v-0.528h0.393c0.512,0,1.158-0.264,1.158-0.879c0-0.416-0.264-0.784-0.91-0.784c-0.416,0-0.816,0.185-1.04,0.344    l-0.192-0.512c0.28-0.199,0.809-0.399,1.367-0.399c1.023,0,1.488,0.607,1.488,1.239c0,0.544-0.328,1-0.96,1.231v0.016    c0.64,0.12,1.159,0.6,1.159,1.328c0,0.831-0.656,1.559-1.895,1.559c-0.584,0-1.096-0.184-1.352-0.352L185.868,80.183z"/>
		<path d="M190.324,81.07c-0.272,0-0.464-0.216-0.464-0.504c0-0.287,0.2-0.504,0.48-0.504c0.279,0,0.471,0.208,0.471,0.504    c0,0.288-0.191,0.504-0.479,0.504H190.324z"/>
		<path d="M193.116,81.07c-1.016,0-1.712-0.951-1.729-2.671c0-1.751,0.76-2.702,1.816-2.702c1.087,0,1.719,0.976,1.719,2.631    c0,1.767-0.664,2.742-1.799,2.742H193.116z M193.155,80.526c0.712,0,1.056-0.839,1.056-2.167c0-1.279-0.319-2.118-1.056-2.118    c-0.64,0-1.055,0.815-1.055,2.118c-0.017,1.352,0.399,2.167,1.047,2.167H193.155z"/>
		<path d="M185.7,102.152v-0.432l0.553-0.536c1.326-1.263,1.934-1.935,1.934-2.718c0-0.528-0.247-1.016-1.023-1.016    c-0.471,0-0.863,0.239-1.103,0.439l-0.224-0.496c0.352-0.295,0.871-0.527,1.471-0.527c1.111,0,1.584,0.768,1.584,1.512    c0,0.959-0.696,1.734-1.791,2.79l-0.408,0.384v0.016h2.326v0.584H185.7z"/>
		<path d="M190.324,102.24c-0.272,0-0.464-0.216-0.464-0.504c0-0.287,0.2-0.504,0.48-0.504c0.279,0,0.471,0.208,0.471,0.504    c0,0.288-0.191,0.504-0.479,0.504H190.324z"/>
		<path d="M194.562,97.547h-1.983l-0.199,1.335c0.12-0.016,0.232-0.031,0.424-0.031c0.408,0,0.799,0.088,1.119,0.279    c0.408,0.224,0.744,0.68,0.744,1.335c0,1.016-0.809,1.775-1.936,1.775c-0.567,0-1.039-0.16-1.295-0.319l0.176-0.536    c0.216,0.128,0.64,0.288,1.119,0.288c0.656,0,1.231-0.432,1.224-1.136c0-0.663-0.456-1.144-1.487-1.144    c-0.304,0-0.535,0.024-0.728,0.057l0.336-2.495h2.486V97.547z"/>
		<path d="M185.7,123.322v-0.432l0.553-0.536c1.326-1.263,1.934-1.935,1.934-2.718c0-0.528-0.247-1.016-1.023-1.016    c-0.471,0-0.863,0.239-1.103,0.439l-0.224-0.496c0.352-0.295,0.871-0.527,1.471-0.527c1.111,0,1.584,0.768,1.584,1.512    c0,0.959-0.696,1.734-1.791,2.79l-0.408,0.384v0.016h2.326v0.584H185.7z"/>
		<path d="M190.324,123.41c-0.272,0-0.464-0.216-0.464-0.504c0-0.287,0.2-0.504,0.48-0.504c0.279,0,0.471,0.208,0.471,0.504    c0,0.288-0.191,0.504-0.479,0.504H190.324z"/>
		<path d="M193.116,123.41c-1.016,0-1.712-0.951-1.729-2.671c0-1.751,0.76-2.702,1.816-2.702c1.087,0,1.719,0.976,1.719,2.631    c0,1.767-0.664,2.742-1.799,2.742H193.116z M193.155,122.866c0.712,0,1.056-0.839,1.056-2.167c0-1.279-0.319-2.118-1.056-2.118    c-0.64,0-1.055,0.815-1.055,2.118c-0.017,1.352,0.399,2.167,1.047,2.167H193.155z"/>
		<path d="M187.228,139.951h-0.016l-0.904,0.487l-0.135-0.536l1.135-0.607h0.6v5.197h-0.68V139.951z"/>
		<path d="M190.324,144.58c-0.272,0-0.464-0.216-0.464-0.504c0-0.287,0.2-0.504,0.48-0.504c0.279,0,0.471,0.208,0.471,0.504    c0,0.288-0.191,0.504-0.479,0.504H190.324z"/>
		<path d="M194.562,139.887h-1.983l-0.199,1.335c0.12-0.016,0.232-0.031,0.424-0.031c0.408,0,0.799,0.088,1.119,0.279    c0.408,0.224,0.744,0.68,0.744,1.335c0,1.016-0.809,1.775-1.936,1.775c-0.567,0-1.039-0.16-1.295-0.319l0.176-0.536    c0.216,0.128,0.64,0.288,1.119,0.288c0.656,0,1.231-0.432,1.224-1.136c0-0.663-0.456-1.144-1.487-1.144    c-0.304,0-0.535,0.024-0.728,0.057l0.336-2.495h2.486V139.887z"/>
		<path d="M187.228,161.121h-0.016l-0.904,0.488l-0.135-0.536l1.135-0.607h0.6v5.197h-0.68V161.121z"/>
		<path d="M190.324,165.751c-0.272,0-0.464-0.216-0.464-0.504s0.2-0.504,0.48-0.504c0.279,0,0.471,0.208,0.471,0.504    c0,0.288-0.191,0.504-0.479,0.504H190.324z"/>
		<path d="M193.116,165.751c-1.016,0-1.712-0.951-1.729-2.671c0-1.751,0.76-2.702,1.816-2.702c1.087,0,1.719,0.976,1.719,2.631    c0,1.767-0.664,2.742-1.799,2.742H193.116z M193.155,165.207c0.712,0,1.056-0.839,1.056-2.166c0-1.279-0.319-2.119-1.056-2.119    c-0.64,0-1.055,0.815-1.055,2.119c-0.017,1.351,0.399,2.166,1.047,2.166H193.155z"/>
	</g>
	
		<line fill="none" stroke="#000000" stroke-width="0.5" stroke-miterlimit="10" x1="201.829" y1="14.883" x2="197.829" y2="14.883"/>
	
		<line fill="none" stroke="#000000" stroke-width="0.5" stroke-miterlimit="10" x1="201.829" y1="36.056" x2="197.829" y2="36.056"/>
	
		<line fill="none" stroke="#000000" stroke-width="0.5" stroke-miterlimit="10" x1="201.829" y1="57.228" x2="197.829" y2="57.228"/>
	
		<line fill="none" stroke="#000000" stroke-width="0.5" stroke-miterlimit="10" x1="201.829" y1="78.401" x2="197.829" y2="78.401"/>
	
		<line fill="none" stroke="#000000" stroke-width="0.5" stroke-miterlimit="10" x1="201.829" y1="99.573" x2="197.829" y2="99.573"/>
	
		<line fill="none" stroke="#000000" stroke-width="0.5" stroke-miterlimit="10" x1="201.829" y1="120.746" x2="197.829" y2="120.746"/>
	
		<line fill="none" stroke="#000000" stroke-width="0.5" stroke-miterlimit="10" x1="201.829" y1="141.918" x2="197.829" y2="141.918"/>
	
		<line fill="none" stroke="#000000" stroke-width="0.5" stroke-miterlimit="10" x1="201.829" y1="163.091" x2="197.829" y2="163.091"/>
	<circle stroke="#000000" stroke-width="0.35" stroke-miterlimit="10" cx="51.05" cy="71.31" r="1.625"/>
	<circle stroke="#000000" stroke-width="0.35" stroke-miterlimit="10" cx="239.626" cy="99.044" r="1.625"/>
	<circle stroke="#000000" stroke-width="0.35" stroke-miterlimit="10" cx="321.301" cy="32.672" r="1.625"/>
	<circle stroke="#000000" stroke-width="0.35" stroke-miterlimit="10" cx="126.681" cy="60.598" r="1.625"/>
	<circle fill="#BCBEC0" stroke="#000000" stroke-width="0.35" stroke-miterlimit="10" cx="51.05" cy="69.588" r="1.625"/>
	<circle stroke="#000000" stroke-width="0.35" stroke-miterlimit="10" cx="56.886" cy="192.045" r="1.625"/>
	<circle fill="#BCBEC0" stroke="#000000" stroke-width="0.35" stroke-miterlimit="10" cx="239.626" cy="85.272" r="1.625"/>
	<circle fill="#BCBEC0" stroke="#000000" stroke-width="0.35" stroke-miterlimit="10" cx="321.301" cy="46.826" r="1.625"/>
	<circle fill="#BCBEC0" stroke="#000000" stroke-width="0.35" stroke-miterlimit="10" cx="126.604" cy="63.467" r="1.625"/>
	
		<line fill="none" stroke="#000000" stroke-linejoin="round" stroke-miterlimit="10" x1="46.386" y1="192.045" x2="67.348" y2="192.045"/>
	<g>
		<g>
			<line fill="none" stroke="#000000" stroke-linejoin="round" x1="46.386" y1="204.045" x2="47.886" y2="204.045"/>
			
				<line fill="none" stroke="#000000" stroke-linejoin="round" stroke-dasharray="3.1765,2.1177" x1="50.003" y1="204.045" x2="64.827" y2="204.045"/>
			<line fill="none" stroke="#000000" stroke-linejoin="round" x1="65.886" y1="204.045" x2="67.386" y2="204.045"/>
		</g>
	</g>
	<circle fill="#BCBEC0" stroke="#000000" stroke-width="0.35" stroke-miterlimit="10" cx="56.886" cy="204.045" r="1.625"/>
</g>
</svg>