<svg xmlns="http://www.w3.org/2000/svg" xmlns:xlink="http://www.w3.org/1999/xlink" version="1.1" x="0px" y="0px" width="264.83px" height="170.29px" viewBox="0 0 264.83 170.29" enable-background="new 0 0 264.83 170.29" xml:space="preserve">
<g id="wide" display="none">
</g>
<g id="text_column">
</g>
<g id="art">
	
		<rect x="36.83" y="63.953" fill="#D1D3D4" stroke="#000000" stroke-width="0.5" stroke-linejoin="round" stroke-miterlimit="10" width="36" height="85"/>
	
		<rect x="87.83" y="65.619" fill="#808285" stroke="#000000" stroke-width="0.5" stroke-linejoin="round" stroke-miterlimit="10" width="36" height="83.333"/>
	
		<rect x="165.163" y="79.286" fill="#D1D3D4" stroke="#000000" stroke-width="0.5" stroke-linejoin="round" stroke-miterlimit="10" width="36" height="69.667"/>
	
		<rect x="216.496" y="54.452" fill="#808285" stroke="#000000" stroke-width="0.5" stroke-linejoin="round" stroke-miterlimit="10" width="36" height="94.5"/>
	<g>
		<path d="M0.184,4.829c0.312,0.192,0.76,0.344,1.239,0.344c0.712,0,1.127-0.367,1.127-0.911c0-0.504-0.288-0.8-1.015-1.071    c-0.88-0.304-1.423-0.768-1.423-1.52c0-0.84,0.696-1.463,1.743-1.463c0.543,0,0.951,0.128,1.183,0.256L2.846,1.039    C2.678,0.936,2.318,0.783,1.831,0.783c-0.736,0-1.016,0.44-1.016,0.808c0,0.496,0.328,0.744,1.071,1.031    c0.912,0.36,1.367,0.792,1.367,1.584c0,0.823-0.607,1.551-1.879,1.551c-0.52,0-1.087-0.16-1.375-0.352L0.184,4.829z"/>
		<path d="M5.039,0.88v0.927h1.007v0.536H5.039v2.079c0,0.479,0.136,0.751,0.528,0.751c0.192,0,0.304-0.016,0.408-0.048l0.032,0.536    C5.871,5.709,5.655,5.757,5.383,5.757c-0.328,0-0.592-0.112-0.759-0.296c-0.192-0.216-0.272-0.56-0.272-1.016V2.343h-0.6V1.807    h0.6V1.096L5.039,0.88z"/>
		<path d="M6.839,3.015c0-0.456-0.008-0.848-0.032-1.208h0.616l0.032,0.76h0.024c0.176-0.52,0.608-0.848,1.08-0.848    c0.072,0,0.128,0.008,0.192,0.017v0.663c-0.072-0.008-0.144-0.016-0.24-0.016c-0.496,0-0.848,0.376-0.943,0.896    C7.551,3.382,7.543,3.494,7.543,3.605v2.071H6.839V3.015z"/>
		<path d="M10.951,5.765c-1.04,0-1.855-0.768-1.855-1.991c0-1.295,0.855-2.055,1.919-2.055c1.111,0,1.863,0.808,1.863,1.983    c0,1.438-1,2.062-1.919,2.062H10.951z M10.983,5.237c0.671,0,1.175-0.632,1.175-1.512c0-0.655-0.328-1.479-1.159-1.479    c-0.824,0-1.184,0.768-1.184,1.503c0,0.848,0.479,1.487,1.159,1.487H10.983z"/>
		<path d="M13.768,2.854c0-0.408-0.008-0.728-0.032-1.048h0.624l0.04,0.632h0.016c0.192-0.359,0.64-0.72,1.279-0.72    c0.536,0,1.367,0.32,1.367,1.647v2.311h-0.704v-2.23c0-0.624-0.232-1.151-0.896-1.151c-0.456,0-0.815,0.327-0.943,0.72    c-0.032,0.088-0.048,0.216-0.048,0.327v2.335h-0.704V2.854z"/>
		<path d="M21.518,5.109c0,0.896-0.184,1.431-0.552,1.774c-0.384,0.344-0.928,0.464-1.416,0.464c-0.463,0-0.975-0.111-1.287-0.319    l0.176-0.544c0.256,0.168,0.656,0.312,1.136,0.312c0.719,0,1.247-0.376,1.247-1.359V5.013h-0.016    c-0.208,0.36-0.631,0.648-1.231,0.648c-0.96,0-1.647-0.816-1.647-1.896c0-1.312,0.855-2.047,1.751-2.047    c0.672,0,1.032,0.344,1.208,0.672h0.016l0.024-0.584h0.624c-0.024,0.272-0.032,0.592-0.032,1.056V5.109z M20.814,3.326    c0-0.112-0.008-0.216-0.04-0.312c-0.128-0.416-0.464-0.752-0.983-0.752c-0.672,0-1.151,0.567-1.151,1.471    c0,0.752,0.392,1.392,1.143,1.392c0.44,0,0.832-0.271,0.976-0.728c0.04-0.112,0.056-0.248,0.056-0.376V3.326z"/>
		<path d="M22.679,0h0.704v5.677h-0.704V0z"/>
		<path d="M24.823,1.807l0.84,2.287c0.096,0.256,0.192,0.56,0.256,0.791h0.016c0.072-0.231,0.152-0.527,0.248-0.808l0.768-2.271    h0.744l-1.055,2.759c-0.504,1.327-0.848,1.999-1.328,2.423c-0.352,0.296-0.688,0.415-0.863,0.447l-0.176-0.583    c0.176-0.057,0.408-0.168,0.616-0.344c0.192-0.152,0.424-0.424,0.592-0.784c0.032-0.072,0.056-0.128,0.056-0.168    s-0.016-0.096-0.056-0.184l-1.423-3.566H24.823z"/>
		<path d="M11.496,14.677v-3.334H10.96v-0.536h0.536v-0.184c0-0.544,0.128-1.039,0.456-1.352c0.264-0.256,0.616-0.359,0.936-0.359    c0.256,0,0.463,0.056,0.6,0.111l-0.088,0.544c-0.112-0.048-0.248-0.088-0.456-0.088c-0.591,0-0.751,0.527-0.751,1.119v0.208h0.936    v0.536h-0.928v3.334H11.496z"/>
		<path d="M16.494,13.749c0,0.336,0.016,0.664,0.056,0.928h-0.632l-0.064-0.487h-0.024c-0.208,0.304-0.631,0.575-1.183,0.575    c-0.784,0-1.184-0.552-1.184-1.111c0-0.936,0.832-1.447,2.327-1.439v-0.08c0-0.319-0.088-0.903-0.879-0.896    c-0.368,0-0.744,0.104-1.016,0.288l-0.16-0.472c0.32-0.2,0.792-0.336,1.279-0.336c1.191,0,1.479,0.808,1.479,1.583V13.749z     M15.807,12.702c-0.768-0.017-1.639,0.119-1.639,0.871c0,0.464,0.304,0.672,0.656,0.672c0.512,0,0.839-0.32,0.951-0.647    c0.024-0.072,0.032-0.152,0.032-0.225V12.702z"/>
		<path d="M17.832,10.807l0.76,2.167c0.128,0.359,0.232,0.68,0.312,1h0.024c0.088-0.32,0.2-0.641,0.328-1l0.751-2.167h0.736    l-1.52,3.87h-0.671l-1.471-3.87H17.832z"/>
		<path d="M22.903,14.765c-1.04,0-1.855-0.768-1.855-1.991c0-1.295,0.855-2.055,1.919-2.055c1.111,0,1.863,0.808,1.863,1.983    c0,1.438-1,2.062-1.919,2.062H22.903z M22.935,14.237c0.671,0,1.175-0.632,1.175-1.512c0-0.655-0.328-1.479-1.159-1.479    c-0.824,0-1.184,0.768-1.184,1.503c0,0.848,0.479,1.487,1.159,1.487H22.935z"/>
		<path d="M25.719,12.015c0-0.456-0.008-0.848-0.032-1.208h0.616l0.032,0.76h0.024c0.176-0.52,0.608-0.848,1.08-0.848    c0.072,0,0.128,0.008,0.192,0.017v0.663c-0.072-0.008-0.144-0.016-0.24-0.016c-0.496,0-0.848,0.376-0.943,0.896    c-0.016,0.104-0.024,0.216-0.024,0.327v2.071h-0.704V12.015z"/>
	</g>
	<g>
		<path d="M0.184,145.496c0.312,0.192,0.76,0.344,1.239,0.344c0.712,0,1.127-0.367,1.127-0.911c0-0.504-0.288-0.8-1.015-1.071    c-0.88-0.304-1.423-0.768-1.423-1.52c0-0.84,0.696-1.463,1.743-1.463c0.543,0,0.951,0.128,1.183,0.256l-0.192,0.575    c-0.168-0.104-0.528-0.256-1.015-0.256c-0.736,0-1.016,0.44-1.016,0.808c0,0.496,0.328,0.744,1.071,1.031    c0.912,0.36,1.367,0.792,1.367,1.584c0,0.823-0.607,1.551-1.879,1.551c-0.52,0-1.087-0.16-1.375-0.352L0.184,145.496z"/>
		<path d="M5.039,141.546v0.927h1.007v0.536H5.039v2.079c0,0.479,0.136,0.751,0.528,0.751c0.192,0,0.304-0.016,0.408-0.048    l0.032,0.536c-0.136,0.048-0.352,0.096-0.624,0.096c-0.328,0-0.592-0.112-0.759-0.296c-0.192-0.216-0.272-0.56-0.272-1.016v-2.103    h-0.6v-0.536h0.6v-0.711L5.039,141.546z"/>
		<path d="M6.839,143.681c0-0.456-0.008-0.848-0.032-1.208h0.616l0.032,0.76h0.024c0.176-0.52,0.608-0.848,1.08-0.848    c0.072,0,0.128,0.008,0.192,0.017v0.663c-0.072-0.008-0.144-0.016-0.24-0.016c-0.496,0-0.848,0.376-0.943,0.896    c-0.016,0.104-0.024,0.216-0.024,0.327v2.071H6.839V143.681z"/>
		<path d="M10.951,146.431c-1.04,0-1.855-0.768-1.855-1.991c0-1.295,0.855-2.055,1.919-2.055c1.111,0,1.863,0.808,1.863,1.983    c0,1.438-1,2.062-1.919,2.062H10.951z M10.983,145.904c0.671,0,1.175-0.632,1.175-1.512c0-0.655-0.328-1.479-1.159-1.479    c-0.824,0-1.184,0.768-1.184,1.503c0,0.848,0.479,1.487,1.159,1.487H10.983z"/>
		<path d="M13.768,143.521c0-0.408-0.008-0.728-0.032-1.048h0.624l0.04,0.632h0.016c0.192-0.359,0.64-0.72,1.279-0.72    c0.536,0,1.367,0.32,1.367,1.647v2.311h-0.704v-2.23c0-0.624-0.232-1.151-0.896-1.151c-0.456,0-0.815,0.327-0.943,0.72    c-0.032,0.088-0.048,0.216-0.048,0.327v2.335h-0.704V143.521z"/>
		<path d="M21.518,145.776c0,0.896-0.184,1.431-0.552,1.774c-0.384,0.344-0.928,0.464-1.416,0.464c-0.463,0-0.975-0.111-1.287-0.319    l0.176-0.544c0.256,0.168,0.656,0.312,1.136,0.312c0.719,0,1.247-0.376,1.247-1.359v-0.424h-0.016    c-0.208,0.36-0.631,0.648-1.231,0.648c-0.96,0-1.647-0.816-1.647-1.896c0-1.312,0.855-2.047,1.751-2.047    c0.672,0,1.032,0.344,1.208,0.672h0.016l0.024-0.584h0.624c-0.024,0.272-0.032,0.592-0.032,1.056V145.776z M20.814,143.993    c0-0.112-0.008-0.216-0.04-0.312c-0.128-0.416-0.464-0.752-0.983-0.752c-0.672,0-1.151,0.567-1.151,1.471    c0,0.752,0.392,1.392,1.143,1.392c0.44,0,0.832-0.271,0.976-0.728c0.04-0.112,0.056-0.248,0.056-0.376V143.993z"/>
		<path d="M22.679,140.667h0.704v5.677h-0.704V140.667z"/>
		<path d="M24.823,142.473l0.84,2.287c0.096,0.256,0.192,0.56,0.256,0.791h0.016c0.072-0.231,0.152-0.527,0.248-0.808l0.768-2.271    h0.744l-1.055,2.759c-0.504,1.327-0.848,1.999-1.328,2.423c-0.352,0.296-0.688,0.415-0.863,0.447l-0.176-0.583    c0.176-0.057,0.408-0.168,0.616-0.344c0.192-0.152,0.424-0.424,0.592-0.784c0.032-0.072,0.056-0.128,0.056-0.168    s-0.016-0.096-0.056-0.184l-1.423-3.566H24.823z"/>
		<path d="M4.847,155.431c-1.04,0-1.855-0.768-1.855-1.991c0-1.295,0.855-2.055,1.919-2.055c1.111,0,1.863,0.808,1.863,1.983    c0,1.438-1,2.062-1.919,2.062H4.847z M4.879,154.904c0.671,0,1.175-0.632,1.175-1.512c0-0.655-0.328-1.479-1.159-1.479    c-0.824,0-1.184,0.768-1.184,1.503c0,0.848,0.479,1.487,1.159,1.487H4.879z"/>
		<path d="M7.664,152.737c0-0.496-0.008-0.896-0.032-1.264h0.631l0.04,0.664H8.32c0.28-0.479,0.744-0.752,1.367-0.752    c0.944,0,1.647,0.792,1.647,1.967c0,1.392-0.855,2.079-1.759,2.079c-0.52,0-0.959-0.224-1.191-0.607H8.368v2.103H7.664V152.737z     M8.368,153.768c0,0.096,0.008,0.2,0.032,0.288c0.12,0.487,0.552,0.823,1.047,0.823c0.744,0,1.175-0.607,1.175-1.495    c0-0.775-0.4-1.439-1.143-1.439c-0.48,0-0.936,0.336-1.072,0.872c-0.016,0.088-0.04,0.191-0.04,0.279V153.768z"/>
		<path d="M12.216,152.737c0-0.496-0.008-0.896-0.032-1.264h0.631l0.04,0.664h0.016c0.28-0.479,0.744-0.752,1.367-0.752    c0.944,0,1.647,0.792,1.647,1.967c0,1.392-0.855,2.079-1.759,2.079c-0.52,0-0.959-0.224-1.191-0.607h-0.016v2.103h-0.704V152.737z     M12.919,153.768c0,0.096,0.008,0.2,0.032,0.288c0.12,0.487,0.552,0.823,1.047,0.823c0.744,0,1.175-0.607,1.175-1.495    c0-0.775-0.4-1.439-1.143-1.439c-0.48,0-0.936,0.336-1.072,0.872c-0.016,0.088-0.04,0.191-0.04,0.279V153.768z"/>
		<path d="M18.343,155.431c-1.039,0-1.855-0.768-1.855-1.991c0-1.295,0.855-2.055,1.919-2.055c1.111,0,1.863,0.808,1.863,1.983    c0,1.438-1,2.062-1.919,2.062H18.343z M18.375,154.904c0.671,0,1.175-0.632,1.175-1.512c0-0.655-0.328-1.479-1.16-1.479    c-0.823,0-1.183,0.768-1.183,1.503c0,0.848,0.48,1.487,1.159,1.487H18.375z"/>
		<path d="M21.064,154.624c0.216,0.128,0.583,0.272,0.936,0.272c0.503,0,0.744-0.248,0.744-0.576c0-0.336-0.2-0.512-0.712-0.703    c-0.704-0.256-1.031-0.641-1.031-1.096c0-0.624,0.512-1.136,1.335-1.136c0.392,0,0.736,0.104,0.944,0.24l-0.168,0.504    c-0.152-0.088-0.432-0.225-0.792-0.225c-0.416,0-0.64,0.24-0.64,0.528c0,0.319,0.224,0.464,0.728,0.663    c0.664,0.248,1.016,0.584,1.016,1.159c0,0.688-0.536,1.168-1.439,1.168c-0.424,0-0.815-0.112-1.087-0.271L21.064,154.624z"/>
		<path d="M24.728,153.537c0.016,0.943,0.616,1.335,1.319,1.335c0.504,0,0.815-0.088,1.071-0.2l0.128,0.504    c-0.248,0.112-0.68,0.248-1.295,0.248c-1.184,0-1.903-0.792-1.903-1.951c0-1.167,0.696-2.087,1.823-2.087    c1.263,0,1.591,1.111,1.591,1.823c0,0.144-0.008,0.248-0.024,0.328H24.728z M26.782,153.033c0.008-0.448-0.184-1.144-0.967-1.144    c-0.72,0-1.023,0.655-1.08,1.144H26.782z"/>
	</g>
	<g>
		<path d="M33.282,154.302c0.335-0.063,0.775-0.111,1.335-0.111c0.688,0,1.191,0.159,1.511,0.447c0.296,0.256,0.48,0.647,0.48,1.119    c0,0.488-0.144,0.872-0.424,1.151c-0.368,0.393-0.968,0.592-1.647,0.592c-0.208,0-0.399-0.008-0.56-0.048v2.167h-0.695V154.302z     M33.977,156.885c0.152,0.04,0.344,0.056,0.576,0.056c0.839,0,1.351-0.407,1.351-1.144c0-0.711-0.503-1.055-1.271-1.055    c-0.304,0-0.536,0.023-0.656,0.056V156.885z"/>
		<path d="M40.032,158.691c0,0.336,0.016,0.664,0.056,0.928h-0.632l-0.064-0.487h-0.024c-0.208,0.304-0.632,0.575-1.183,0.575    c-0.784,0-1.184-0.552-1.184-1.111c0-0.936,0.832-1.447,2.327-1.439v-0.08c0-0.319-0.088-0.903-0.879-0.896    c-0.368,0-0.744,0.104-1.016,0.288l-0.16-0.472c0.32-0.2,0.792-0.336,1.279-0.336c1.191,0,1.479,0.808,1.479,1.583V158.691z     M39.345,157.645c-0.768-0.017-1.639,0.119-1.639,0.871c0,0.464,0.304,0.672,0.656,0.672c0.512,0,0.839-0.32,0.952-0.647    c0.024-0.072,0.032-0.152,0.032-0.225V157.645z"/>
		<path d="M41.161,156.957c0-0.456-0.008-0.848-0.032-1.208h0.616l0.032,0.76h0.024c0.176-0.52,0.608-0.848,1.08-0.848    c0.072,0,0.128,0.008,0.192,0.017v0.663c-0.072-0.008-0.144-0.016-0.24-0.016c-0.496,0-0.848,0.376-0.943,0.896    c-0.016,0.104-0.024,0.216-0.024,0.327v2.071h-0.704V156.957z"/>
		<path d="M44.817,154.822v0.927h1.007v0.536h-1.007v2.079c0,0.479,0.136,0.751,0.528,0.751c0.192,0,0.304-0.016,0.408-0.048    l0.032,0.536c-0.136,0.048-0.352,0.096-0.624,0.096c-0.328,0-0.592-0.112-0.759-0.296c-0.192-0.216-0.272-0.56-0.272-1.016v-2.103    h-0.6v-0.536h0.6v-0.711L44.817,154.822z"/>
		<path d="M46.617,156.797c0-0.408-0.008-0.728-0.032-1.048h0.624l0.04,0.632h0.016c0.192-0.359,0.64-0.72,1.279-0.72    c0.536,0,1.367,0.32,1.367,1.647v2.311h-0.704v-2.23c0-0.624-0.232-1.151-0.896-1.151c-0.456,0-0.815,0.327-0.943,0.72    c-0.032,0.088-0.048,0.216-0.048,0.327v2.335h-0.704V156.797z"/>
		<path d="M51.457,157.812c0.016,0.943,0.616,1.335,1.319,1.335c0.504,0,0.815-0.088,1.071-0.2l0.128,0.504    c-0.248,0.112-0.68,0.248-1.295,0.248c-1.183,0-1.903-0.792-1.903-1.951c0-1.167,0.696-2.087,1.823-2.087    c1.263,0,1.591,1.111,1.591,1.823c0,0.144-0.008,0.248-0.024,0.328H51.457z M53.512,157.309c0.008-0.448-0.184-1.144-0.968-1.144    c-0.72,0-1.023,0.655-1.079,1.144H53.512z"/>
		<path d="M55.065,156.957c0-0.456-0.008-0.848-0.032-1.208h0.616l0.032,0.76h0.024c0.176-0.52,0.608-0.848,1.08-0.848    c0.072,0,0.128,0.008,0.192,0.017v0.663c-0.072-0.008-0.144-0.016-0.24-0.016c-0.496,0-0.848,0.376-0.944,0.896    c-0.016,0.104-0.024,0.216-0.024,0.327v2.071h-0.704V156.957z"/>
		<path d="M59.377,153.942h0.704v5.677h-0.704V153.942z"/>
		<path d="M62.84,159.707c-1.04,0-1.855-0.768-1.855-1.991c0-1.295,0.855-2.055,1.919-2.055c1.111,0,1.863,0.808,1.863,1.983    c0,1.438-1,2.062-1.919,2.062H62.84z M62.872,159.18c0.671,0,1.175-0.632,1.175-1.512c0-0.655-0.328-1.479-1.159-1.479    c-0.824,0-1.184,0.768-1.184,1.503c0,0.848,0.479,1.487,1.159,1.487H62.872z"/>
		<path d="M65.561,158.899c0.216,0.128,0.583,0.272,0.936,0.272c0.503,0,0.744-0.248,0.744-0.576c0-0.336-0.2-0.512-0.712-0.703    c-0.704-0.256-1.031-0.641-1.031-1.096c0-0.624,0.512-1.136,1.335-1.136c0.392,0,0.735,0.104,0.943,0.24l-0.168,0.504    c-0.152-0.088-0.432-0.225-0.792-0.225c-0.416,0-0.64,0.24-0.64,0.528c0,0.319,0.224,0.464,0.728,0.663    c0.664,0.248,1.015,0.584,1.015,1.159c0,0.688-0.536,1.168-1.439,1.168c-0.424,0-0.815-0.112-1.087-0.271L65.561,158.899z"/>
		<path d="M69.225,157.812c0.016,0.943,0.616,1.335,1.319,1.335c0.504,0,0.815-0.088,1.071-0.2l0.128,0.504    c-0.248,0.112-0.68,0.248-1.295,0.248c-1.183,0-1.903-0.792-1.903-1.951c0-1.167,0.696-2.087,1.823-2.087    c1.263,0,1.591,1.111,1.591,1.823c0,0.144-0.008,0.248-0.024,0.328H69.225z M71.28,157.309c0.008-0.448-0.184-1.144-0.968-1.144    c-0.72,0-1.023,0.655-1.079,1.144H71.28z"/>
		<path d="M72.737,158.899c0.216,0.128,0.583,0.272,0.936,0.272c0.503,0,0.744-0.248,0.744-0.576c0-0.336-0.2-0.512-0.712-0.703    c-0.704-0.256-1.031-0.641-1.031-1.096c0-0.624,0.512-1.136,1.335-1.136c0.392,0,0.736,0.104,0.944,0.24l-0.168,0.504    c-0.152-0.088-0.432-0.225-0.792-0.225c-0.416,0-0.64,0.24-0.64,0.528c0,0.319,0.224,0.464,0.728,0.663    c0.664,0.248,1.016,0.584,1.016,1.159c0,0.688-0.536,1.168-1.439,1.168c-0.424,0-0.815-0.112-1.087-0.271L72.737,158.899z"/>
		<path d="M75.458,160.61c0.176-0.479,0.392-1.335,0.479-1.919l0.784-0.08c-0.192,0.68-0.543,1.567-0.768,1.943L75.458,160.61z"/>
		<path d="M35.905,162.942h0.704v2.415h0.016c0.112-0.2,0.288-0.385,0.504-0.496c0.208-0.128,0.456-0.2,0.719-0.2    c0.52,0,1.352,0.32,1.352,1.655v2.303h-0.704v-2.23c0-0.624-0.232-1.144-0.896-1.144c-0.456,0-0.808,0.319-0.943,0.703    c-0.04,0.097-0.048,0.2-0.048,0.336v2.335h-0.704V162.942z"/>
		<path d="M41.92,168.707c-1.039,0-1.855-0.768-1.855-1.991c0-1.295,0.855-2.055,1.919-2.055c1.111,0,1.863,0.808,1.863,1.983    c0,1.438-1,2.062-1.919,2.062H41.92z M41.953,168.18c0.671,0,1.175-0.632,1.175-1.512c0-0.655-0.328-1.479-1.16-1.479    c-0.823,0-1.183,0.768-1.183,1.503c0,0.848,0.48,1.487,1.159,1.487H41.953z"/>
		<path d="M44.737,165.797c0-0.408-0.016-0.728-0.032-1.048h0.616l0.032,0.624h0.024c0.216-0.368,0.576-0.712,1.224-0.712    c0.52,0,0.919,0.32,1.087,0.775h0.016c0.12-0.224,0.28-0.384,0.44-0.503c0.232-0.177,0.48-0.272,0.848-0.272    c0.52,0,1.279,0.336,1.279,1.68v2.278h-0.688v-2.19c0-0.752-0.28-1.191-0.84-1.191c-0.408,0-0.711,0.296-0.839,0.632    c-0.032,0.104-0.056,0.231-0.056,0.352v2.398H47.16v-2.327c0-0.615-0.272-1.055-0.808-1.055c-0.432,0-0.759,0.352-0.872,0.703    c-0.04,0.104-0.056,0.224-0.056,0.344v2.335h-0.688V165.797z"/>
		<path d="M51.809,166.812c0.016,0.943,0.616,1.335,1.319,1.335c0.504,0,0.815-0.088,1.071-0.2l0.128,0.504    c-0.248,0.112-0.68,0.248-1.295,0.248c-1.184,0-1.903-0.792-1.903-1.951c0-1.167,0.696-2.087,1.823-2.087    c1.263,0,1.591,1.111,1.591,1.823c0,0.144-0.008,0.248-0.024,0.328H51.809z M53.864,166.309c0.008-0.448-0.184-1.144-0.967-1.144    c-0.72,0-1.023,0.655-1.08,1.144H53.864z"/>
		<path d="M60.424,168.052c0,0.896-0.184,1.431-0.552,1.774c-0.384,0.344-0.928,0.464-1.416,0.464c-0.463,0-0.975-0.111-1.287-0.319    l0.176-0.544c0.256,0.168,0.656,0.312,1.136,0.312c0.719,0,1.247-0.376,1.247-1.359v-0.424h-0.016    c-0.208,0.36-0.631,0.648-1.231,0.648c-0.96,0-1.647-0.816-1.647-1.896c0-1.312,0.855-2.047,1.751-2.047    c0.672,0,1.032,0.344,1.208,0.672h0.016l0.024-0.584h0.624c-0.024,0.272-0.032,0.592-0.032,1.056V168.052z M59.72,166.269    c0-0.112-0.008-0.216-0.04-0.312c-0.128-0.416-0.464-0.752-0.983-0.752c-0.672,0-1.151,0.567-1.151,1.471    c0,0.752,0.392,1.392,1.143,1.392c0.44,0,0.832-0.271,0.976-0.728c0.04-0.112,0.056-0.248,0.056-0.376V166.269z"/>
		<path d="M64.312,167.691c0,0.336,0.016,0.664,0.056,0.928h-0.632l-0.064-0.487h-0.024c-0.208,0.304-0.632,0.575-1.183,0.575    c-0.784,0-1.184-0.552-1.184-1.111c0-0.936,0.832-1.447,2.327-1.439v-0.08c0-0.319-0.088-0.903-0.879-0.896    c-0.368,0-0.744,0.104-1.016,0.288l-0.16-0.472c0.32-0.2,0.792-0.336,1.279-0.336c1.191,0,1.479,0.808,1.479,1.583V167.691z     M63.624,166.645c-0.768-0.017-1.639,0.119-1.639,0.871c0,0.464,0.304,0.672,0.656,0.672c0.512,0,0.839-0.32,0.952-0.647    c0.024-0.072,0.032-0.152,0.032-0.225V166.645z"/>
		<path d="M65.777,164.094c-0.256,0-0.424-0.2-0.424-0.432c0-0.248,0.176-0.44,0.44-0.44c0.256,0,0.432,0.192,0.432,0.44    c0,0.231-0.168,0.432-0.44,0.432H65.777z M65.441,168.619v-3.87h0.704v3.87H65.441z"/>
		<path d="M67.313,165.797c0-0.408-0.008-0.728-0.032-1.048h0.624l0.04,0.632h0.016c0.192-0.359,0.64-0.72,1.279-0.72    c0.536,0,1.367,0.32,1.367,1.647v2.311h-0.704v-2.23c0-0.624-0.232-1.151-0.896-1.151c-0.456,0-0.815,0.327-0.943,0.72    c-0.032,0.088-0.048,0.216-0.048,0.327v2.335h-0.704V165.797z"/>
		<path d="M71.657,167.899c0.216,0.128,0.583,0.272,0.936,0.272c0.503,0,0.744-0.248,0.744-0.576c0-0.336-0.2-0.512-0.712-0.703    c-0.704-0.256-1.031-0.641-1.031-1.096c0-0.624,0.512-1.136,1.335-1.136c0.392,0,0.736,0.104,0.944,0.24l-0.168,0.504    c-0.152-0.088-0.432-0.225-0.792-0.225c-0.416,0-0.64,0.24-0.64,0.528c0,0.319,0.224,0.464,0.728,0.663    c0.664,0.248,1.016,0.584,1.016,1.159c0,0.688-0.536,1.168-1.439,1.168c-0.424,0-0.815-0.112-1.087-0.271L71.657,167.899z"/>
	</g>
	<g>
		<path d="M83.69,154.302c0.335-0.063,0.775-0.111,1.335-0.111c0.688,0,1.191,0.159,1.511,0.447c0.296,0.256,0.48,0.647,0.48,1.119    c0,0.488-0.144,0.872-0.424,1.151c-0.368,0.393-0.968,0.592-1.647,0.592c-0.208,0-0.399-0.008-0.56-0.048v2.167H83.69V154.302z     M84.385,156.885c0.152,0.04,0.344,0.056,0.576,0.056c0.839,0,1.351-0.407,1.351-1.144c0-0.711-0.503-1.055-1.271-1.055    c-0.304,0-0.536,0.023-0.656,0.056V156.885z"/>
		<path d="M90.44,158.691c0,0.336,0.016,0.664,0.056,0.928h-0.632l-0.064-0.487h-0.024c-0.208,0.304-0.632,0.575-1.183,0.575    c-0.784,0-1.184-0.552-1.184-1.111c0-0.936,0.832-1.447,2.327-1.439v-0.08c0-0.319-0.088-0.903-0.879-0.896    c-0.368,0-0.744,0.104-1.016,0.288l-0.16-0.472c0.32-0.2,0.792-0.336,1.279-0.336c1.191,0,1.479,0.808,1.479,1.583V158.691z     M89.753,157.645c-0.768-0.017-1.639,0.119-1.639,0.871c0,0.464,0.304,0.672,0.656,0.672c0.512,0,0.839-0.32,0.952-0.647    c0.024-0.072,0.032-0.152,0.032-0.225V157.645z"/>
		<path d="M91.569,156.957c0-0.456-0.008-0.848-0.032-1.208h0.616l0.032,0.76h0.024c0.176-0.52,0.608-0.848,1.08-0.848    c0.072,0,0.128,0.008,0.192,0.017v0.663c-0.072-0.008-0.144-0.016-0.24-0.016c-0.496,0-0.848,0.376-0.943,0.896    c-0.016,0.104-0.024,0.216-0.024,0.327v2.071h-0.704V156.957z"/>
		<path d="M95.225,154.822v0.927h1.007v0.536h-1.007v2.079c0,0.479,0.136,0.751,0.528,0.751c0.192,0,0.304-0.016,0.408-0.048    l0.032,0.536c-0.136,0.048-0.352,0.096-0.624,0.096c-0.328,0-0.592-0.112-0.759-0.296c-0.192-0.216-0.272-0.56-0.272-1.016v-2.103    h-0.6v-0.536h0.6v-0.711L95.225,154.822z"/>
		<path d="M97.025,156.797c0-0.408-0.008-0.728-0.032-1.048h0.624l0.04,0.632h0.016c0.192-0.359,0.64-0.72,1.279-0.72    c0.536,0,1.367,0.32,1.367,1.647v2.311h-0.704v-2.23c0-0.624-0.232-1.151-0.896-1.151c-0.456,0-0.815,0.327-0.943,0.72    c-0.032,0.088-0.048,0.216-0.048,0.327v2.335h-0.704V156.797z"/>
		<path d="M101.865,157.812c0.016,0.943,0.616,1.335,1.319,1.335c0.504,0,0.815-0.088,1.071-0.2l0.128,0.504    c-0.248,0.112-0.68,0.248-1.295,0.248c-1.183,0-1.903-0.792-1.903-1.951c0-1.167,0.696-2.087,1.823-2.087    c1.263,0,1.591,1.111,1.591,1.823c0,0.144-0.008,0.248-0.024,0.328H101.865z M103.92,157.309c0.008-0.448-0.184-1.144-0.968-1.144    c-0.72,0-1.023,0.655-1.079,1.144H103.92z"/>
		<path d="M105.473,156.957c0-0.456-0.008-0.848-0.032-1.208h0.616l0.032,0.76h0.024c0.176-0.52,0.608-0.848,1.08-0.848    c0.072,0,0.128,0.008,0.192,0.017v0.663c-0.072-0.008-0.144-0.016-0.24-0.016c-0.496,0-0.848,0.376-0.944,0.896    c-0.016,0.104-0.024,0.216-0.024,0.327v2.071h-0.704V156.957z"/>
		<path d="M113.096,159.052c0,0.896-0.184,1.431-0.552,1.774c-0.384,0.344-0.928,0.464-1.416,0.464    c-0.463,0-0.975-0.111-1.287-0.319l0.176-0.544c0.256,0.168,0.656,0.312,1.136,0.312c0.719,0,1.247-0.376,1.247-1.359v-0.424    h-0.016c-0.208,0.36-0.631,0.648-1.231,0.648c-0.96,0-1.647-0.816-1.647-1.896c0-1.312,0.855-2.047,1.751-2.047    c0.672,0,1.032,0.344,1.208,0.672h0.016l0.024-0.584h0.624c-0.024,0.272-0.032,0.592-0.032,1.056V159.052z M112.392,157.269    c0-0.112-0.008-0.216-0.04-0.312c-0.128-0.416-0.464-0.752-0.983-0.752c-0.672,0-1.151,0.567-1.151,1.471    c0,0.752,0.392,1.392,1.143,1.392c0.44,0,0.832-0.271,0.976-0.728c0.04-0.112,0.056-0.248,0.056-0.376V157.269z"/>
		<path d="M116.983,158.691c0,0.336,0.016,0.664,0.056,0.928h-0.632l-0.064-0.487h-0.024c-0.208,0.304-0.632,0.575-1.183,0.575    c-0.784,0-1.184-0.552-1.184-1.111c0-0.936,0.832-1.447,2.327-1.439v-0.08c0-0.319-0.088-0.903-0.879-0.896    c-0.368,0-0.744,0.104-1.016,0.288l-0.16-0.472c0.32-0.2,0.792-0.336,1.279-0.336c1.191,0,1.479,0.808,1.479,1.583V158.691z     M116.296,157.645c-0.768-0.017-1.639,0.119-1.639,0.871c0,0.464,0.304,0.672,0.656,0.672c0.512,0,0.839-0.32,0.952-0.647    c0.024-0.072,0.032-0.152,0.032-0.225V157.645z"/>
		<path d="M118.449,155.094c-0.256,0-0.424-0.2-0.424-0.432c0-0.248,0.176-0.44,0.44-0.44c0.256,0,0.432,0.192,0.432,0.44    c0,0.231-0.168,0.432-0.439,0.432H118.449z M118.113,159.619v-3.87h0.704v3.87H118.113z"/>
		<path d="M119.985,156.797c0-0.408-0.008-0.728-0.031-1.048h0.623l0.04,0.632h0.017c0.191-0.359,0.639-0.72,1.279-0.72    c0.535,0,1.367,0.32,1.367,1.647v2.311h-0.704v-2.23c0-0.624-0.231-1.151-0.896-1.151c-0.456,0-0.815,0.327-0.943,0.72    c-0.032,0.088-0.049,0.216-0.049,0.327v2.335h-0.703V156.797z"/>
		<path d="M124.329,158.899c0.217,0.128,0.584,0.272,0.936,0.272c0.504,0,0.744-0.248,0.744-0.576c0-0.336-0.2-0.512-0.712-0.703    c-0.704-0.256-1.031-0.641-1.031-1.096c0-0.624,0.512-1.136,1.335-1.136c0.393,0,0.736,0.104,0.943,0.24l-0.168,0.504    c-0.151-0.088-0.432-0.225-0.791-0.225c-0.416,0-0.64,0.24-0.64,0.528c0,0.319,0.224,0.464,0.728,0.663    c0.664,0.248,1.016,0.584,1.016,1.159c0,0.688-0.536,1.168-1.439,1.168c-0.424,0-0.815-0.112-1.088-0.271L124.329,158.899z"/>
		<path d="M127.049,160.61c0.176-0.479,0.392-1.335,0.479-1.919l0.784-0.08c-0.192,0.68-0.544,1.567-0.768,1.943L127.049,160.61z"/>
		<path d="M86.905,162.942h0.704v2.415h0.016c0.112-0.2,0.288-0.385,0.504-0.496c0.208-0.128,0.456-0.2,0.719-0.2    c0.52,0,1.352,0.32,1.352,1.655v2.303h-0.704v-2.23c0-0.624-0.232-1.144-0.896-1.144c-0.456,0-0.808,0.319-0.943,0.703    c-0.04,0.097-0.048,0.2-0.048,0.336v2.335h-0.704V162.942z"/>
		<path d="M92.92,168.707c-1.039,0-1.855-0.768-1.855-1.991c0-1.295,0.855-2.055,1.919-2.055c1.111,0,1.863,0.808,1.863,1.983    c0,1.438-1,2.062-1.919,2.062H92.92z M92.953,168.18c0.671,0,1.175-0.632,1.175-1.512c0-0.655-0.328-1.479-1.16-1.479    c-0.823,0-1.183,0.768-1.183,1.503c0,0.848,0.48,1.487,1.159,1.487H92.953z"/>
		<path d="M95.737,165.797c0-0.408-0.016-0.728-0.032-1.048h0.616l0.032,0.624h0.024c0.216-0.368,0.576-0.712,1.224-0.712    c0.52,0,0.919,0.32,1.087,0.775h0.016c0.12-0.224,0.28-0.384,0.44-0.503c0.232-0.177,0.48-0.272,0.848-0.272    c0.52,0,1.279,0.336,1.279,1.68v2.278h-0.688v-2.19c0-0.752-0.28-1.191-0.84-1.191c-0.408,0-0.711,0.296-0.839,0.632    c-0.032,0.104-0.056,0.231-0.056,0.352v2.398H98.16v-2.327c0-0.615-0.272-1.055-0.808-1.055c-0.432,0-0.759,0.352-0.872,0.703    c-0.04,0.104-0.056,0.224-0.056,0.344v2.335h-0.688V165.797z"/>
		<path d="M102.809,166.812c0.016,0.943,0.616,1.335,1.319,1.335c0.504,0,0.815-0.088,1.071-0.2l0.128,0.504    c-0.248,0.112-0.68,0.248-1.295,0.248c-1.184,0-1.903-0.792-1.903-1.951c0-1.167,0.696-2.087,1.823-2.087    c1.263,0,1.591,1.111,1.591,1.823c0,0.144-0.008,0.248-0.024,0.328H102.809z M104.864,166.309    c0.008-0.448-0.184-1.144-0.967-1.144c-0.72,0-1.023,0.655-1.08,1.144H104.864z"/>
		<path d="M111.424,168.052c0,0.896-0.184,1.431-0.552,1.774c-0.384,0.344-0.928,0.464-1.416,0.464    c-0.463,0-0.975-0.111-1.287-0.319l0.176-0.544c0.256,0.168,0.656,0.312,1.136,0.312c0.719,0,1.247-0.376,1.247-1.359v-0.424    h-0.016c-0.208,0.36-0.631,0.648-1.231,0.648c-0.96,0-1.647-0.816-1.647-1.896c0-1.312,0.855-2.047,1.751-2.047    c0.672,0,1.032,0.344,1.208,0.672h0.016l0.024-0.584h0.624c-0.024,0.272-0.032,0.592-0.032,1.056V168.052z M110.72,166.269    c0-0.112-0.008-0.216-0.04-0.312c-0.128-0.416-0.464-0.752-0.983-0.752c-0.672,0-1.151,0.567-1.151,1.471    c0,0.752,0.392,1.392,1.143,1.392c0.44,0,0.832-0.271,0.976-0.728c0.04-0.112,0.056-0.248,0.056-0.376V166.269z"/>
		<path d="M115.312,167.691c0,0.336,0.016,0.664,0.056,0.928h-0.632l-0.064-0.487h-0.024c-0.208,0.304-0.632,0.575-1.183,0.575    c-0.784,0-1.184-0.552-1.184-1.111c0-0.936,0.832-1.447,2.327-1.439v-0.08c0-0.319-0.088-0.903-0.879-0.896    c-0.368,0-0.744,0.104-1.016,0.288l-0.16-0.472c0.32-0.2,0.792-0.336,1.279-0.336c1.191,0,1.479,0.808,1.479,1.583V167.691z     M114.624,166.645c-0.768-0.017-1.639,0.119-1.639,0.871c0,0.464,0.304,0.672,0.656,0.672c0.512,0,0.839-0.32,0.952-0.647    c0.024-0.072,0.032-0.152,0.032-0.225V166.645z"/>
		<path d="M116.777,164.094c-0.256,0-0.424-0.2-0.424-0.432c0-0.248,0.176-0.44,0.44-0.44c0.256,0,0.432,0.192,0.432,0.44    c0,0.231-0.168,0.432-0.44,0.432H116.777z M116.441,168.619v-3.87h0.704v3.87H116.441z"/>
		<path d="M118.313,165.797c0-0.408-0.008-0.728-0.032-1.048h0.624l0.04,0.632h0.016c0.192-0.359,0.639-0.72,1.28-0.72    c0.535,0,1.367,0.32,1.367,1.647v2.311h-0.704v-2.23c0-0.624-0.231-1.151-0.896-1.151c-0.456,0-0.815,0.327-0.943,0.72    c-0.032,0.088-0.048,0.216-0.048,0.327v2.335h-0.704V165.797z"/>
		<path d="M122.657,167.899c0.217,0.128,0.584,0.272,0.936,0.272c0.504,0,0.744-0.248,0.744-0.576c0-0.336-0.2-0.512-0.712-0.703    c-0.704-0.256-1.031-0.641-1.031-1.096c0-0.624,0.512-1.136,1.335-1.136c0.393,0,0.736,0.104,0.943,0.24l-0.168,0.504    c-0.151-0.088-0.432-0.225-0.791-0.225c-0.416,0-0.64,0.24-0.64,0.528c0,0.319,0.224,0.464,0.728,0.663    c0.664,0.248,1.016,0.584,1.016,1.159c0,0.688-0.536,1.168-1.439,1.168c-0.424,0-0.815-0.112-1.088-0.271L122.657,167.899z"/>
	</g>
	<g>
		<path d="M76.667,10.885v3.601c0,1.351,0.604,1.927,1.414,1.927c0.891,0,1.477-0.595,1.477-1.927v-3.601h0.792v3.547    c0,1.863-0.981,2.619-2.295,2.619c-1.243,0-2.179-0.702-2.179-2.593v-3.573H76.667z"/>
		<path d="M81.607,15.998c0.351,0.216,0.855,0.387,1.396,0.387c0.801,0,1.27-0.414,1.27-1.026c0-0.566-0.324-0.9-1.144-1.206    c-0.99-0.342-1.602-0.864-1.602-1.711c0-0.945,0.783-1.647,1.962-1.647c0.612,0,1.071,0.145,1.333,0.288l-0.216,0.648    c-0.189-0.117-0.594-0.288-1.143-0.288c-0.829,0-1.144,0.495-1.144,0.909c0,0.559,0.369,0.838,1.207,1.161    c1.026,0.405,1.539,0.892,1.539,1.783c0,0.927-0.684,1.746-2.115,1.746c-0.585,0-1.225-0.18-1.549-0.396L81.607,15.998z"/>
	</g>
	<g>
		<path d="M199.458,16.754c-0.279,0.145-0.865,0.288-1.604,0.288c-1.71,0-2.988-1.08-2.988-3.069c0-1.9,1.287-3.179,3.169-3.179    c0.747,0,1.233,0.162,1.44,0.262l-0.198,0.647c-0.288-0.144-0.711-0.252-1.216-0.252c-1.422,0-2.367,0.909-2.367,2.494    c0,1.485,0.855,2.431,2.322,2.431c0.486,0,0.973-0.099,1.287-0.252L199.458,16.754z"/>
		<path d="M203.426,15.908c0,0.378,0.018,0.747,0.062,1.044h-0.711l-0.072-0.549h-0.027c-0.234,0.342-0.711,0.647-1.332,0.647    c-0.883,0-1.332-0.621-1.332-1.251c0-1.054,0.936-1.63,2.619-1.62v-0.091c0-0.359-0.099-1.017-0.99-1.008    c-0.414,0-0.837,0.117-1.143,0.324l-0.181-0.531c0.36-0.226,0.892-0.378,1.44-0.378c1.342,0,1.666,0.909,1.666,1.782V15.908z     M202.652,14.729c-0.864-0.018-1.846,0.135-1.846,0.981c0,0.521,0.342,0.756,0.738,0.756c0.576,0,0.945-0.36,1.071-0.729    c0.027-0.081,0.036-0.171,0.036-0.252V14.729z"/>
		<path d="M204.694,13.774c0-0.459-0.009-0.819-0.036-1.18h0.702l0.045,0.711h0.018c0.217-0.404,0.721-0.81,1.441-0.81    c0.604,0,1.539,0.359,1.539,1.854v2.602h-0.792V14.44c0-0.702-0.261-1.297-1.009-1.297c-0.513,0-0.918,0.369-1.062,0.811    c-0.035,0.1-0.054,0.243-0.054,0.369v2.629h-0.792V13.774z"/>
		<path d="M212.758,15.908c0,0.378,0.018,0.747,0.062,1.044h-0.711l-0.072-0.549h-0.026c-0.234,0.342-0.712,0.647-1.333,0.647    c-0.882,0-1.332-0.621-1.332-1.251c0-1.054,0.937-1.63,2.62-1.62v-0.091c0-0.359-0.099-1.017-0.99-1.008    c-0.415,0-0.837,0.117-1.144,0.324l-0.18-0.531c0.359-0.226,0.891-0.378,1.439-0.378c1.342,0,1.666,0.909,1.666,1.782V15.908z     M211.984,14.729c-0.864-0.018-1.845,0.135-1.845,0.981c0,0.521,0.342,0.756,0.738,0.756c0.576,0,0.945-0.36,1.07-0.729    c0.027-0.081,0.036-0.171,0.036-0.252V14.729z"/>
		<path d="M217.79,10.561v5.267c0,0.387,0.009,0.828,0.036,1.125h-0.712l-0.035-0.756h-0.019c-0.243,0.485-0.765,0.854-1.476,0.854    c-1.055,0-1.873-0.891-1.873-2.214c-0.01-1.459,0.9-2.341,1.953-2.341c0.676,0,1.125,0.314,1.314,0.657h0.018v-2.593H217.79z     M216.997,14.368c0-0.107-0.008-0.233-0.035-0.342c-0.117-0.495-0.549-0.909-1.144-0.909c-0.819,0-1.306,0.72-1.306,1.675    c0,0.891,0.441,1.62,1.287,1.62c0.531,0,1.018-0.36,1.162-0.954c0.027-0.1,0.035-0.207,0.035-0.333V14.368z"/>
		<path d="M222.172,15.908c0,0.378,0.018,0.747,0.062,1.044h-0.711l-0.072-0.549h-0.026c-0.234,0.342-0.712,0.647-1.333,0.647    c-0.882,0-1.332-0.621-1.332-1.251c0-1.054,0.937-1.63,2.62-1.62v-0.091c0-0.359-0.099-1.017-0.99-1.008    c-0.415,0-0.837,0.117-1.144,0.324l-0.18-0.531c0.359-0.226,0.891-0.378,1.439-0.378c1.342,0,1.666,0.909,1.666,1.782V15.908z     M221.398,14.729c-0.864-0.018-1.845,0.135-1.845,0.981c0,0.521,0.342,0.756,0.738,0.756c0.576,0,0.945-0.36,1.07-0.729    c0.027-0.081,0.036-0.171,0.036-0.252V14.729z"/>
	</g>
	<g>
		<path d="M161.615,154.302c0.335-0.063,0.775-0.111,1.335-0.111c0.688,0,1.191,0.159,1.512,0.447    c0.295,0.256,0.479,0.647,0.479,1.119c0,0.488-0.144,0.872-0.424,1.151c-0.368,0.393-0.968,0.592-1.647,0.592    c-0.207,0-0.399-0.008-0.56-0.048v2.167h-0.695V154.302z M162.31,156.885c0.151,0.04,0.344,0.056,0.575,0.056    c0.84,0,1.352-0.407,1.352-1.144c0-0.711-0.504-1.055-1.271-1.055c-0.303,0-0.535,0.023-0.655,0.056V156.885z"/>
		<path d="M168.366,158.691c0,0.336,0.016,0.664,0.056,0.928h-0.632l-0.064-0.487h-0.023c-0.208,0.304-0.632,0.575-1.184,0.575    c-0.783,0-1.184-0.552-1.184-1.111c0-0.936,0.832-1.447,2.327-1.439v-0.08c0-0.319-0.088-0.903-0.88-0.896    c-0.367,0-0.743,0.104-1.016,0.288l-0.159-0.472c0.319-0.2,0.792-0.336,1.279-0.336c1.191,0,1.479,0.808,1.479,1.583V158.691z     M167.678,157.645c-0.768-0.017-1.64,0.119-1.64,0.871c0,0.464,0.304,0.672,0.655,0.672c0.512,0,0.84-0.32,0.952-0.647    c0.024-0.072,0.032-0.152,0.032-0.225V157.645z"/>
		<path d="M169.495,156.957c0-0.456-0.008-0.848-0.032-1.208h0.616l0.031,0.76h0.023c0.177-0.52,0.608-0.848,1.08-0.848    c0.072,0,0.128,0.008,0.191,0.017v0.663c-0.071-0.008-0.144-0.016-0.239-0.016c-0.496,0-0.848,0.376-0.943,0.896    c-0.017,0.104-0.024,0.216-0.024,0.327v2.071h-0.703V156.957z"/>
		<path d="M173.15,154.822v0.927h1.007v0.536h-1.007v2.079c0,0.479,0.136,0.751,0.528,0.751c0.191,0,0.303-0.016,0.407-0.048    l0.032,0.536c-0.137,0.048-0.352,0.096-0.624,0.096c-0.327,0-0.592-0.112-0.759-0.296c-0.192-0.216-0.272-0.56-0.272-1.016v-2.103    h-0.6v-0.536h0.6v-0.711L173.15,154.822z"/>
		<path d="M174.95,156.797c0-0.408-0.008-0.728-0.031-1.048h0.623l0.041,0.632h0.016c0.191-0.359,0.64-0.72,1.279-0.72    c0.535,0,1.367,0.32,1.367,1.647v2.311h-0.703v-2.23c0-0.624-0.232-1.151-0.896-1.151c-0.455,0-0.814,0.327-0.943,0.72    c-0.031,0.088-0.048,0.216-0.048,0.327v2.335h-0.704V156.797z"/>
		<path d="M179.79,157.812c0.017,0.943,0.616,1.335,1.32,1.335c0.504,0,0.814-0.088,1.07-0.2l0.129,0.504    c-0.248,0.112-0.68,0.248-1.296,0.248c-1.183,0-1.903-0.792-1.903-1.951c0-1.167,0.696-2.087,1.824-2.087    c1.263,0,1.59,1.111,1.59,1.823c0,0.144-0.008,0.248-0.023,0.328H179.79z M181.845,157.309c0.008-0.448-0.185-1.144-0.968-1.144    c-0.72,0-1.023,0.655-1.079,1.144H181.845z"/>
		<path d="M183.398,156.957c0-0.456-0.008-0.848-0.032-1.208h0.616l0.032,0.76h0.023c0.176-0.52,0.607-0.848,1.08-0.848    c0.071,0,0.127,0.008,0.191,0.017v0.663c-0.072-0.008-0.145-0.016-0.24-0.016c-0.495,0-0.848,0.376-0.943,0.896    c-0.016,0.104-0.023,0.216-0.023,0.327v2.071h-0.704V156.957z"/>
		<path d="M187.709,153.942h0.704v5.677h-0.704V153.942z"/>
		<path d="M191.172,159.707c-1.039,0-1.854-0.768-1.854-1.991c0-1.295,0.855-2.055,1.919-2.055c1.111,0,1.863,0.808,1.863,1.983    c0,1.438-1,2.062-1.919,2.062H191.172z M191.206,159.18c0.671,0,1.175-0.632,1.175-1.512c0-0.655-0.328-1.479-1.159-1.479    c-0.824,0-1.184,0.768-1.184,1.503c0,0.848,0.479,1.487,1.159,1.487H191.206z"/>
		<path d="M193.894,158.899c0.216,0.128,0.583,0.272,0.936,0.272c0.503,0,0.743-0.248,0.743-0.576c0-0.336-0.199-0.512-0.711-0.703    c-0.704-0.256-1.031-0.641-1.031-1.096c0-0.624,0.512-1.136,1.335-1.136c0.392,0,0.735,0.104,0.943,0.24l-0.168,0.504    c-0.151-0.088-0.432-0.225-0.792-0.225c-0.416,0-0.639,0.24-0.639,0.528c0,0.319,0.223,0.464,0.727,0.663    c0.664,0.248,1.016,0.584,1.016,1.159c0,0.688-0.535,1.168-1.439,1.168c-0.424,0-0.814-0.112-1.087-0.271L193.894,158.899z"/>
		<path d="M197.557,157.812c0.017,0.943,0.616,1.335,1.32,1.335c0.504,0,0.814-0.088,1.07-0.2l0.129,0.504    c-0.248,0.112-0.68,0.248-1.296,0.248c-1.183,0-1.903-0.792-1.903-1.951c0-1.167,0.696-2.087,1.824-2.087    c1.263,0,1.59,1.111,1.59,1.823c0,0.144-0.008,0.248-0.023,0.328H197.557z M199.613,157.309c0.008-0.448-0.185-1.144-0.968-1.144    c-0.72,0-1.023,0.655-1.079,1.144H199.613z"/>
		<path d="M201.071,158.899c0.215,0.128,0.583,0.272,0.936,0.272c0.503,0,0.743-0.248,0.743-0.576c0-0.336-0.2-0.512-0.712-0.703    c-0.703-0.256-1.031-0.641-1.031-1.096c0-0.624,0.512-1.136,1.335-1.136c0.392,0,0.735,0.104,0.944,0.24l-0.168,0.504    c-0.152-0.088-0.432-0.225-0.792-0.225c-0.416,0-0.64,0.24-0.64,0.528c0,0.319,0.224,0.464,0.728,0.663    c0.663,0.248,1.016,0.584,1.016,1.159c0,0.688-0.536,1.168-1.439,1.168c-0.424,0-0.815-0.112-1.087-0.271L201.071,158.899z"/>
		<path d="M203.791,160.61c0.176-0.479,0.392-1.335,0.479-1.919l0.783-0.08c-0.191,0.68-0.543,1.567-0.768,1.943L203.791,160.61z"/>
		<path d="M164.239,162.942h0.703v2.415h0.016c0.112-0.2,0.289-0.385,0.504-0.496c0.208-0.128,0.456-0.2,0.72-0.2    c0.521,0,1.352,0.32,1.352,1.655v2.303h-0.704v-2.23c0-0.624-0.231-1.144-0.895-1.144c-0.456,0-0.809,0.319-0.943,0.703    c-0.041,0.097-0.049,0.2-0.049,0.336v2.335h-0.703V162.942z"/>
		<path d="M170.253,168.707c-1.039,0-1.854-0.768-1.854-1.991c0-1.295,0.855-2.055,1.918-2.055c1.111,0,1.863,0.808,1.863,1.983    c0,1.438-0.999,2.062-1.918,2.062H170.253z M170.286,168.18c0.672,0,1.176-0.632,1.176-1.512c0-0.655-0.328-1.479-1.16-1.479    c-0.823,0-1.184,0.768-1.184,1.503c0,0.848,0.48,1.487,1.16,1.487H170.286z"/>
		<path d="M173.071,165.797c0-0.408-0.016-0.728-0.032-1.048h0.616l0.031,0.624h0.023c0.217-0.368,0.576-0.712,1.225-0.712    c0.52,0,0.919,0.32,1.087,0.775h0.016c0.12-0.224,0.28-0.384,0.44-0.503c0.231-0.177,0.479-0.272,0.848-0.272    c0.52,0,1.279,0.336,1.279,1.68v2.278h-0.688v-2.19c0-0.752-0.28-1.191-0.84-1.191c-0.408,0-0.712,0.296-0.84,0.632    c-0.032,0.104-0.057,0.231-0.057,0.352v2.398h-0.688v-2.327c0-0.615-0.271-1.055-0.807-1.055c-0.432,0-0.76,0.352-0.872,0.703    c-0.04,0.104-0.056,0.224-0.056,0.344v2.335h-0.688V165.797z"/>
		<path d="M180.142,166.812c0.017,0.943,0.616,1.335,1.319,1.335c0.504,0,0.815-0.088,1.071-0.2l0.128,0.504    c-0.248,0.112-0.68,0.248-1.295,0.248c-1.184,0-1.903-0.792-1.903-1.951c0-1.167,0.696-2.087,1.823-2.087    c1.264,0,1.591,1.111,1.591,1.823c0,0.144-0.008,0.248-0.024,0.328H180.142z M182.197,166.309    c0.009-0.448-0.184-1.144-0.968-1.144c-0.719,0-1.023,0.655-1.079,1.144H182.197z"/>
		<path d="M188.756,168.052c0,0.896-0.184,1.431-0.551,1.774c-0.385,0.344-0.928,0.464-1.416,0.464    c-0.463,0-0.975-0.111-1.287-0.319l0.176-0.544c0.256,0.168,0.656,0.312,1.136,0.312c0.72,0,1.247-0.376,1.247-1.359v-0.424    h-0.016c-0.208,0.36-0.632,0.648-1.231,0.648c-0.96,0-1.647-0.816-1.647-1.896c0-1.312,0.855-2.047,1.751-2.047    c0.672,0,1.032,0.344,1.208,0.672h0.016l0.023-0.584h0.624c-0.024,0.272-0.032,0.592-0.032,1.056V168.052z M188.053,166.269    c0-0.112-0.008-0.216-0.04-0.312c-0.128-0.416-0.464-0.752-0.983-0.752c-0.672,0-1.151,0.567-1.151,1.471    c0,0.752,0.392,1.392,1.144,1.392c0.439,0,0.831-0.271,0.975-0.728c0.041-0.112,0.057-0.248,0.057-0.376V166.269z"/>
		<path d="M192.645,167.691c0,0.336,0.016,0.664,0.056,0.928h-0.632l-0.064-0.487h-0.023c-0.208,0.304-0.632,0.575-1.184,0.575    c-0.783,0-1.184-0.552-1.184-1.111c0-0.936,0.832-1.447,2.327-1.439v-0.08c0-0.319-0.088-0.903-0.88-0.896    c-0.367,0-0.743,0.104-1.016,0.288l-0.159-0.472c0.319-0.2,0.792-0.336,1.279-0.336c1.191,0,1.479,0.808,1.479,1.583V167.691z     M191.958,166.645c-0.768-0.017-1.64,0.119-1.64,0.871c0,0.464,0.304,0.672,0.655,0.672c0.512,0,0.84-0.32,0.952-0.647    c0.024-0.072,0.032-0.152,0.032-0.225V166.645z"/>
		<path d="M194.11,164.094c-0.256,0-0.424-0.2-0.424-0.432c0-0.248,0.176-0.44,0.439-0.44c0.256,0,0.432,0.192,0.432,0.44    c0,0.231-0.168,0.432-0.439,0.432H194.11z M193.774,168.619v-3.87h0.703v3.87H193.774z"/>
		<path d="M195.646,165.797c0-0.408-0.008-0.728-0.032-1.048h0.624l0.04,0.632h0.016c0.192-0.359,0.641-0.72,1.279-0.72    c0.536,0,1.367,0.32,1.367,1.647v2.311h-0.703v-2.23c0-0.624-0.232-1.151-0.896-1.151c-0.456,0-0.815,0.327-0.943,0.72    c-0.032,0.088-0.048,0.216-0.048,0.327v2.335h-0.704V165.797z"/>
		<path d="M199.991,167.899c0.215,0.128,0.583,0.272,0.936,0.272c0.503,0,0.743-0.248,0.743-0.576c0-0.336-0.2-0.512-0.712-0.703    c-0.703-0.256-1.031-0.641-1.031-1.096c0-0.624,0.512-1.136,1.335-1.136c0.392,0,0.735,0.104,0.944,0.24l-0.168,0.504    c-0.152-0.088-0.432-0.225-0.792-0.225c-0.416,0-0.64,0.24-0.64,0.528c0,0.319,0.224,0.464,0.728,0.663    c0.663,0.248,1.016,0.584,1.016,1.159c0,0.688-0.536,1.168-1.439,1.168c-0.424,0-0.815-0.112-1.087-0.271L199.991,167.899z"/>
	</g>
	<g>
		<path d="M212.023,154.302c0.335-0.063,0.775-0.111,1.335-0.111c0.688,0,1.191,0.159,1.512,0.447    c0.295,0.256,0.479,0.647,0.479,1.119c0,0.488-0.144,0.872-0.424,1.151c-0.368,0.393-0.968,0.592-1.647,0.592    c-0.207,0-0.399-0.008-0.56-0.048v2.167h-0.695V154.302z M212.718,156.885c0.151,0.04,0.344,0.056,0.575,0.056    c0.84,0,1.352-0.407,1.352-1.144c0-0.711-0.504-1.055-1.271-1.055c-0.303,0-0.535,0.023-0.655,0.056V156.885z"/>
		<path d="M218.774,158.691c0,0.336,0.016,0.664,0.056,0.928h-0.632l-0.064-0.487h-0.023c-0.208,0.304-0.632,0.575-1.184,0.575    c-0.783,0-1.184-0.552-1.184-1.111c0-0.936,0.832-1.447,2.327-1.439v-0.08c0-0.319-0.088-0.903-0.88-0.896    c-0.367,0-0.743,0.104-1.016,0.288l-0.159-0.472c0.319-0.2,0.792-0.336,1.279-0.336c1.191,0,1.479,0.808,1.479,1.583V158.691z     M218.086,157.645c-0.768-0.017-1.64,0.119-1.64,0.871c0,0.464,0.304,0.672,0.655,0.672c0.512,0,0.84-0.32,0.952-0.647    c0.024-0.072,0.032-0.152,0.032-0.225V157.645z"/>
		<path d="M219.903,156.957c0-0.456-0.008-0.848-0.032-1.208h0.616l0.031,0.76h0.023c0.177-0.52,0.608-0.848,1.08-0.848    c0.072,0,0.128,0.008,0.191,0.017v0.663c-0.071-0.008-0.144-0.016-0.239-0.016c-0.496,0-0.848,0.376-0.943,0.896    c-0.017,0.104-0.024,0.216-0.024,0.327v2.071h-0.703V156.957z"/>
		<path d="M223.558,154.822v0.927h1.007v0.536h-1.007v2.079c0,0.479,0.136,0.751,0.528,0.751c0.191,0,0.303-0.016,0.407-0.048    l0.032,0.536c-0.137,0.048-0.352,0.096-0.624,0.096c-0.327,0-0.592-0.112-0.759-0.296c-0.192-0.216-0.272-0.56-0.272-1.016v-2.103    h-0.6v-0.536h0.6v-0.711L223.558,154.822z"/>
		<path d="M225.358,156.797c0-0.408-0.008-0.728-0.031-1.048h0.623l0.041,0.632h0.016c0.191-0.359,0.64-0.72,1.279-0.72    c0.535,0,1.367,0.32,1.367,1.647v2.311h-0.703v-2.23c0-0.624-0.232-1.151-0.896-1.151c-0.455,0-0.814,0.327-0.943,0.72    c-0.031,0.088-0.048,0.216-0.048,0.327v2.335h-0.704V156.797z"/>
		<path d="M230.198,157.812c0.017,0.943,0.616,1.335,1.32,1.335c0.504,0,0.814-0.088,1.07-0.2l0.129,0.504    c-0.248,0.112-0.68,0.248-1.296,0.248c-1.183,0-1.903-0.792-1.903-1.951c0-1.167,0.696-2.087,1.824-2.087    c1.263,0,1.59,1.111,1.59,1.823c0,0.144-0.008,0.248-0.023,0.328H230.198z M232.253,157.309c0.008-0.448-0.185-1.144-0.968-1.144    c-0.72,0-1.023,0.655-1.079,1.144H232.253z"/>
		<path d="M233.806,156.957c0-0.456-0.008-0.848-0.032-1.208h0.616l0.032,0.76h0.023c0.176-0.52,0.607-0.848,1.08-0.848    c0.071,0,0.127,0.008,0.191,0.017v0.663c-0.072-0.008-0.145-0.016-0.24-0.016c-0.495,0-0.848,0.376-0.943,0.896    c-0.016,0.104-0.023,0.216-0.023,0.327v2.071h-0.704V156.957z"/>
		<path d="M241.428,159.052c0,0.896-0.184,1.431-0.551,1.774c-0.385,0.344-0.928,0.464-1.416,0.464    c-0.463,0-0.975-0.111-1.287-0.319l0.176-0.544c0.256,0.168,0.656,0.312,1.136,0.312c0.72,0,1.247-0.376,1.247-1.359v-0.424    h-0.016c-0.208,0.36-0.632,0.648-1.231,0.648c-0.96,0-1.647-0.816-1.647-1.896c0-1.312,0.855-2.047,1.751-2.047    c0.672,0,1.032,0.344,1.208,0.672h0.016l0.023-0.584h0.624c-0.024,0.272-0.032,0.592-0.032,1.056V159.052z M240.725,157.269    c0-0.112-0.008-0.216-0.04-0.312c-0.128-0.416-0.464-0.752-0.983-0.752c-0.672,0-1.151,0.567-1.151,1.471    c0,0.752,0.392,1.392,1.144,1.392c0.439,0,0.831-0.271,0.975-0.728c0.041-0.112,0.057-0.248,0.057-0.376V157.269z"/>
		<path d="M245.317,158.691c0,0.336,0.016,0.664,0.056,0.928h-0.632l-0.064-0.487h-0.023c-0.208,0.304-0.632,0.575-1.184,0.575    c-0.783,0-1.184-0.552-1.184-1.111c0-0.936,0.832-1.447,2.327-1.439v-0.08c0-0.319-0.088-0.903-0.88-0.896    c-0.367,0-0.743,0.104-1.016,0.288l-0.159-0.472c0.319-0.2,0.792-0.336,1.279-0.336c1.191,0,1.479,0.808,1.479,1.583V158.691z     M244.629,157.645c-0.768-0.017-1.64,0.119-1.64,0.871c0,0.464,0.304,0.672,0.655,0.672c0.512,0,0.84-0.32,0.952-0.647    c0.024-0.072,0.032-0.152,0.032-0.225V157.645z"/>
		<path d="M246.782,155.094c-0.256,0-0.424-0.2-0.424-0.432c0-0.248,0.177-0.44,0.44-0.44c0.256,0,0.432,0.192,0.432,0.44    c0,0.231-0.168,0.432-0.439,0.432H246.782z M246.446,159.619v-3.87h0.704v3.87H246.446z"/>
		<path d="M248.318,156.797c0-0.408-0.008-0.728-0.032-1.048h0.624l0.04,0.632h0.016c0.192-0.359,0.641-0.72,1.279-0.72    c0.536,0,1.367,0.32,1.367,1.647v2.311h-0.703v-2.23c0-0.624-0.232-1.151-0.896-1.151c-0.456,0-0.815,0.327-0.943,0.72    c-0.032,0.088-0.048,0.216-0.048,0.327v2.335h-0.704V156.797z"/>
		<path d="M252.663,158.899c0.215,0.128,0.583,0.272,0.936,0.272c0.503,0,0.743-0.248,0.743-0.576c0-0.336-0.2-0.512-0.712-0.703    c-0.703-0.256-1.031-0.641-1.031-1.096c0-0.624,0.512-1.136,1.335-1.136c0.392,0,0.735,0.104,0.944,0.24l-0.168,0.504    c-0.152-0.088-0.432-0.225-0.792-0.225c-0.416,0-0.64,0.24-0.64,0.528c0,0.319,0.224,0.464,0.728,0.663    c0.663,0.248,1.016,0.584,1.016,1.159c0,0.688-0.536,1.168-1.439,1.168c-0.424,0-0.815-0.112-1.087-0.271L252.663,158.899z"/>
		<path d="M255.382,160.61c0.176-0.479,0.392-1.335,0.479-1.919l0.783-0.08c-0.191,0.68-0.543,1.567-0.768,1.943L255.382,160.61z"/>
		<path d="M215.239,162.942h0.703v2.415h0.016c0.112-0.2,0.289-0.385,0.504-0.496c0.208-0.128,0.456-0.2,0.72-0.2    c0.521,0,1.352,0.32,1.352,1.655v2.303h-0.704v-2.23c0-0.624-0.231-1.144-0.895-1.144c-0.456,0-0.809,0.319-0.943,0.703    c-0.041,0.097-0.049,0.2-0.049,0.336v2.335h-0.703V162.942z"/>
		<path d="M221.253,168.707c-1.039,0-1.854-0.768-1.854-1.991c0-1.295,0.855-2.055,1.918-2.055c1.111,0,1.863,0.808,1.863,1.983    c0,1.438-0.999,2.062-1.918,2.062H221.253z M221.286,168.18c0.672,0,1.176-0.632,1.176-1.512c0-0.655-0.328-1.479-1.16-1.479    c-0.823,0-1.184,0.768-1.184,1.503c0,0.848,0.48,1.487,1.16,1.487H221.286z"/>
		<path d="M224.071,165.797c0-0.408-0.016-0.728-0.032-1.048h0.616l0.031,0.624h0.023c0.217-0.368,0.576-0.712,1.225-0.712    c0.52,0,0.919,0.32,1.087,0.775h0.016c0.12-0.224,0.28-0.384,0.44-0.503c0.231-0.177,0.479-0.272,0.848-0.272    c0.52,0,1.279,0.336,1.279,1.68v2.278h-0.688v-2.19c0-0.752-0.28-1.191-0.84-1.191c-0.408,0-0.712,0.296-0.84,0.632    c-0.032,0.104-0.057,0.231-0.057,0.352v2.398h-0.688v-2.327c0-0.615-0.271-1.055-0.807-1.055c-0.432,0-0.76,0.352-0.872,0.703    c-0.04,0.104-0.056,0.224-0.056,0.344v2.335h-0.688V165.797z"/>
		<path d="M231.142,166.812c0.017,0.943,0.616,1.335,1.319,1.335c0.504,0,0.815-0.088,1.071-0.2l0.128,0.504    c-0.248,0.112-0.68,0.248-1.295,0.248c-1.184,0-1.903-0.792-1.903-1.951c0-1.167,0.696-2.087,1.823-2.087    c1.264,0,1.591,1.111,1.591,1.823c0,0.144-0.008,0.248-0.024,0.328H231.142z M233.197,166.309    c0.009-0.448-0.184-1.144-0.968-1.144c-0.719,0-1.023,0.655-1.079,1.144H233.197z"/>
		<path d="M239.756,168.052c0,0.896-0.184,1.431-0.551,1.774c-0.385,0.344-0.928,0.464-1.416,0.464    c-0.463,0-0.975-0.111-1.287-0.319l0.176-0.544c0.256,0.168,0.656,0.312,1.136,0.312c0.72,0,1.247-0.376,1.247-1.359v-0.424    h-0.016c-0.208,0.36-0.632,0.648-1.231,0.648c-0.96,0-1.647-0.816-1.647-1.896c0-1.312,0.855-2.047,1.751-2.047    c0.672,0,1.032,0.344,1.208,0.672h0.016l0.023-0.584h0.624c-0.024,0.272-0.032,0.592-0.032,1.056V168.052z M239.053,166.269    c0-0.112-0.008-0.216-0.04-0.312c-0.128-0.416-0.464-0.752-0.983-0.752c-0.672,0-1.151,0.567-1.151,1.471    c0,0.752,0.392,1.392,1.144,1.392c0.439,0,0.831-0.271,0.975-0.728c0.041-0.112,0.057-0.248,0.057-0.376V166.269z"/>
		<path d="M243.645,167.691c0,0.336,0.016,0.664,0.056,0.928h-0.632l-0.064-0.487h-0.023c-0.208,0.304-0.632,0.575-1.184,0.575    c-0.783,0-1.184-0.552-1.184-1.111c0-0.936,0.832-1.447,2.327-1.439v-0.08c0-0.319-0.088-0.903-0.88-0.896    c-0.367,0-0.743,0.104-1.016,0.288l-0.159-0.472c0.319-0.2,0.792-0.336,1.279-0.336c1.191,0,1.479,0.808,1.479,1.583V167.691z     M242.958,166.645c-0.768-0.017-1.64,0.119-1.64,0.871c0,0.464,0.304,0.672,0.655,0.672c0.512,0,0.84-0.32,0.952-0.647    c0.024-0.072,0.032-0.152,0.032-0.225V166.645z"/>
		<path d="M245.11,164.094c-0.256,0-0.424-0.2-0.424-0.432c0-0.248,0.176-0.44,0.439-0.44c0.256,0,0.432,0.192,0.432,0.44    c0,0.231-0.168,0.432-0.439,0.432H245.11z M244.774,168.619v-3.87h0.703v3.87H244.774z"/>
		<path d="M246.646,165.797c0-0.408-0.008-0.728-0.032-1.048h0.624l0.04,0.632h0.016c0.192-0.359,0.641-0.72,1.279-0.72    c0.536,0,1.367,0.32,1.367,1.647v2.311h-0.703v-2.23c0-0.624-0.232-1.151-0.896-1.151c-0.456,0-0.815,0.327-0.943,0.72    c-0.032,0.088-0.048,0.216-0.048,0.327v2.335h-0.704V165.797z"/>
		<path d="M250.991,167.899c0.215,0.128,0.583,0.272,0.936,0.272c0.503,0,0.743-0.248,0.743-0.576c0-0.336-0.2-0.512-0.712-0.703    c-0.703-0.256-1.031-0.641-1.031-1.096c0-0.624,0.512-1.136,1.335-1.136c0.392,0,0.735,0.104,0.944,0.24l-0.168,0.504    c-0.152-0.088-0.432-0.225-0.792-0.225c-0.416,0-0.64,0.24-0.64,0.528c0,0.319,0.224,0.464,0.728,0.663    c0.663,0.248,1.016,0.584,1.016,1.159c0,0.688-0.536,1.168-1.439,1.168c-0.424,0-0.815-0.112-1.087-0.271L250.991,167.899z"/>
	</g>
	
		<line fill="none" stroke="#000000" stroke-width="0.5" stroke-linejoin="round" stroke-miterlimit="10" x1="32.496" y1="7.952" x2="29.496" y2="7.952"/>
	
		<line fill="none" stroke="#000000" stroke-width="0.5" stroke-linejoin="round" stroke-miterlimit="10" x1="32.496" y1="54.952" x2="29.496" y2="54.952"/>
	
		<line fill="none" stroke="#000000" stroke-width="0.5" stroke-linejoin="round" stroke-miterlimit="10" x1="32.496" y1="101.952" x2="29.496" y2="101.952"/>
	
		<line fill="none" stroke="#000000" stroke-width="0.5" stroke-linejoin="round" stroke-miterlimit="10" x1="32.496" y1="148.952" x2="29.496" y2="148.952"/>
	<polyline fill="none" stroke="#000000" stroke-width="0.5" stroke-linejoin="round" stroke-miterlimit="10" points="32.496,7.952    32.496,148.952 264.83,148.952  "/>
	<g>
		<g>
			
				<line fill="none" stroke="#000000" stroke-width="0.5" stroke-linejoin="round" x1="105.83" y1="68.536" x2="105.83" y2="62.369"/>
			<g>
				<rect x="104.205" y="68.286" width="3.25" height="0.5"/>
			</g>
			<g>
				<rect x="104.205" y="62.119" width="3.25" height="0.5"/>
			</g>
		</g>
	</g>
	<g>
		<g>
			<line fill="none" stroke="#000000" stroke-width="0.5" stroke-linejoin="round" x1="54.83" y1="66.703" x2="54.83" y2="60.536"/>
			<g>
				<rect x="53.205" y="66.453" width="3.25" height="0.5"/>
			</g>
			<g>
				<rect x="53.205" y="60.286" width="3.25" height="0.5"/>
			</g>
		</g>
	</g>
	<g>
		<g>
			
				<line fill="none" stroke="#000000" stroke-width="0.5" stroke-linejoin="round" x1="234.496" y1="57.036" x2="234.496" y2="50.702"/>
			<g>
				<rect x="232.871" y="56.786" width="3.25" height="0.5"/>
			</g>
			<g>
				<rect x="232.871" y="50.452" width="3.25" height="0.5"/>
			</g>
		</g>
	</g>
	<g>
		<g>
			
				<line fill="none" stroke="#000000" stroke-width="0.5" stroke-linejoin="round" x1="183.163" y1="82.369" x2="183.163" y2="75.869"/>
			<g>
				<rect x="181.538" y="82.119" width="3.25" height="0.5"/>
			</g>
			<g>
				<rect x="181.538" y="75.619" width="3.25" height="0.5"/>
			</g>
		</g>
	</g>
</g>
</svg>