<svg xmlns="http://www.w3.org/2000/svg" xmlns:xlink="http://www.w3.org/1999/xlink" version="1.1" x="0px" y="0px" width="310.41px" height="146.003px" viewBox="0 0 310.41 146.003" enable-background="new 0 0 310.41 146.003" xml:space="preserve">
<g id="wide" display="none">
</g>
<g id="text_column">
</g>
<g id="art">
	
		<line fill="none" stroke="#A7A9AC" stroke-width="0.5" stroke-linejoin="round" stroke-miterlimit="10" x1="31.546" y1="108.005" x2="302.521" y2="108.005"/>
	<rect x="226.829" y="96.759" fill="#FFFFFF" width="66.508" height="22.5"/>
	<g>
		<path d="M0.405,126.707c-0.072-0.378-0.126-0.873-0.126-1.503c0-0.774,0.18-1.342,0.504-1.702    c0.288-0.332,0.729-0.539,1.261-0.539c0.549,0,0.981,0.162,1.296,0.477c0.441,0.414,0.666,1.09,0.666,1.854    c0,0.233-0.009,0.45-0.054,0.63h2.44v0.783H0.405z M3.313,125.924c0.045-0.171,0.063-0.387,0.063-0.648    c0-0.945-0.459-1.521-1.287-1.521c-0.801,0-1.188,0.568-1.188,1.432c0,0.342,0.027,0.604,0.063,0.738H3.313z"/>
		<path d="M3.394,122c-0.513,0-0.954,0.01-1.359,0.037v-0.693l0.855-0.037v-0.026c-0.585-0.198-0.955-0.685-0.955-1.216    c0-0.08,0.009-0.144,0.018-0.216h0.748c-0.009,0.081-0.018,0.162-0.018,0.271c0,0.559,0.423,0.954,1.008,1.062    c0.117,0.018,0.243,0.027,0.369,0.027h2.332V122H3.394z"/>
		<path d="M6.491,117.23c0,1.17-0.864,2.088-2.242,2.088c-1.458,0-2.314-0.963-2.314-2.16c0-1.252,0.91-2.098,2.233-2.098    c1.621,0,2.323,1.125,2.323,2.16V117.23z M5.897,117.193c0-0.756-0.711-1.322-1.702-1.322c-0.738,0-1.666,0.369-1.666,1.305    c0,0.928,0.864,1.332,1.693,1.332c0.954,0,1.674-0.539,1.674-1.305V117.193z"/>
		<path d="M3.457,114.035c-0.558,0-1.008,0.01-1.422,0.037v-0.712l0.748-0.045v-0.019c-0.541-0.314-0.847-0.837-0.847-1.539    c0-1.062,0.892-1.854,2.215-1.854c1.566,0,2.341,0.964,2.341,1.98c0,0.585-0.252,1.081-0.684,1.342v0.019h2.368v0.791H3.457z     M4.619,113.244c0.108,0,0.225-0.01,0.324-0.037c0.549-0.135,0.927-0.621,0.927-1.179c0-0.837-0.685-1.323-1.684-1.323    c-0.874,0-1.621,0.449-1.621,1.287c0,0.54,0.378,1.053,0.981,1.206c0.099,0.019,0.216,0.046,0.315,0.046H4.619z"/>
		<path d="M6.491,107.114c0,1.171-0.864,2.089-2.242,2.089c-1.458,0-2.314-0.963-2.314-2.161c0-1.251,0.91-2.098,2.233-2.098    c1.621,0,2.323,1.126,2.323,2.161V107.114z M5.897,107.078c0-0.756-0.711-1.323-1.702-1.323c-0.738,0-1.666,0.369-1.666,1.306    c0,0.927,0.864,1.332,1.693,1.332c0.954,0,1.674-0.54,1.674-1.305V107.078z"/>
		<path d="M3.394,104.091c-0.513,0-0.954,0.009-1.359,0.036v-0.693l0.855-0.036v-0.027c-0.585-0.198-0.955-0.684-0.955-1.215    c0-0.081,0.009-0.144,0.018-0.216h0.748c-0.009,0.081-0.018,0.162-0.018,0.27c0,0.558,0.423,0.954,1.008,1.062    c0.117,0.018,0.243,0.027,0.369,0.027h2.332v0.792H3.394z"/>
		<path d="M0.99,100.14h1.044v-1.134h0.604v1.134h2.34c0.541,0,0.846-0.153,0.846-0.594c0-0.216-0.018-0.342-0.054-0.459    l0.603-0.036c0.054,0.153,0.108,0.396,0.108,0.702c0,0.369-0.126,0.666-0.333,0.855c-0.243,0.216-0.63,0.306-1.143,0.306H2.638    v0.675H2.035v-0.675H1.233L0.99,100.14z"/>
		<path d="M1.296,97.719c0,0.288-0.225,0.477-0.486,0.477c-0.279,0-0.495-0.198-0.495-0.495c0-0.288,0.216-0.486,0.495-0.486    c0.261,0,0.486,0.189,0.486,0.495V97.719z M6.392,98.097H2.035v-0.792h4.357V98.097z"/>
		<path d="M6.491,94.235c0,1.17-0.864,2.088-2.242,2.088c-1.458,0-2.314-0.963-2.314-2.161c0-1.251,0.91-2.098,2.233-2.098    c1.621,0,2.323,1.125,2.323,2.161V94.235z M5.897,94.199c0-0.756-0.711-1.323-1.702-1.323c-0.738,0-1.666,0.369-1.666,1.305    c0,0.927,0.864,1.333,1.693,1.333c0.954,0,1.674-0.54,1.674-1.305V94.199z"/>
		<path d="M3.214,91.041c-0.459,0-0.819,0.009-1.18,0.036v-0.702l0.711-0.045v-0.018c-0.405-0.216-0.811-0.72-0.811-1.44    c0-0.604,0.36-1.54,1.855-1.54h2.602v0.792H3.88c-0.702,0-1.296,0.261-1.296,1.008c0,0.513,0.369,0.918,0.81,1.062    c0.099,0.036,0.243,0.054,0.369,0.054h2.629v0.792H3.214z"/>
		<path d="M5.582,84.192c0.144-0.243,0.306-0.657,0.306-1.053c0-0.567-0.279-0.837-0.648-0.837c-0.378,0-0.576,0.225-0.792,0.801    c-0.288,0.792-0.72,1.162-1.233,1.162c-0.703,0-1.279-0.576-1.279-1.503c0-0.441,0.117-0.828,0.271-1.062l0.567,0.189    c-0.099,0.171-0.252,0.486-0.252,0.892c0,0.468,0.27,0.72,0.594,0.72c0.36,0,0.522-0.252,0.747-0.819    c0.279-0.747,0.657-1.144,1.306-1.144c0.774,0,1.314,0.604,1.314,1.621c0,0.477-0.126,0.918-0.306,1.224L5.582,84.192z"/>
		<path d="M5.348,77.45c0.378,0,0.748-0.018,1.044-0.063v0.711L5.843,78.17v0.027c0.342,0.234,0.648,0.711,0.648,1.333    c0,0.882-0.621,1.333-1.251,1.333c-1.053,0-1.629-0.937-1.621-2.62h-0.09c-0.36,0-1.018,0.099-1.008,0.99    c0,0.415,0.117,0.837,0.324,1.144l-0.531,0.18c-0.225-0.36-0.378-0.891-0.378-1.44c0-1.341,0.91-1.666,1.783-1.666H5.348z     M4.168,78.225C4.15,79.089,4.304,80.07,5.15,80.07c0.522,0,0.756-0.342,0.756-0.738c0-0.576-0.36-0.945-0.729-1.071    c-0.081-0.027-0.171-0.036-0.252-0.036H4.168z"/>
		<path d="M2.035,75.867l2.575-0.945c0.288-0.108,0.63-0.216,0.892-0.288v-0.018c-0.261-0.081-0.594-0.171-0.909-0.279l-2.557-0.864    v-0.837l3.106,1.188c1.495,0.567,2.251,0.954,2.728,1.494c0.333,0.396,0.468,0.774,0.504,0.973l-0.657,0.198    c-0.063-0.198-0.189-0.459-0.387-0.693c-0.171-0.216-0.477-0.478-0.882-0.667c-0.081-0.036-0.144-0.063-0.189-0.063    c-0.045,0-0.108,0.018-0.207,0.063l-4.015,1.603V75.867z"/>
		<path d="M1.296,71.538c0,0.288-0.225,0.477-0.486,0.477c-0.279,0-0.495-0.198-0.495-0.495c0-0.288,0.216-0.486,0.495-0.486    c0.261,0,0.486,0.189,0.486,0.495V71.538z M6.392,71.916H2.035v-0.792h4.357V71.916z"/>
		<path d="M3.214,69.828c-0.459,0-0.819,0.009-1.18,0.036v-0.702l0.711-0.045v-0.018c-0.405-0.216-0.811-0.72-0.811-1.44    c0-0.604,0.36-1.54,1.855-1.54h2.602v0.792H3.88c-0.702,0-1.296,0.261-1.296,1.008c0,0.513,0.369,0.918,0.81,1.062    c0.099,0.036,0.243,0.054,0.369,0.054h2.629v0.792H3.214z"/>
		<path d="M5.753,61.079c1.008,0,1.611,0.207,1.999,0.621c0.387,0.432,0.522,1.044,0.522,1.594c0,0.522-0.126,1.098-0.36,1.449    l-0.612-0.198c0.189-0.288,0.351-0.738,0.351-1.278c0-0.81-0.423-1.404-1.53-1.404H5.645v0.018    c0.405,0.234,0.729,0.711,0.729,1.386c0,1.081-0.918,1.854-2.134,1.854c-1.476,0-2.305-0.963-2.305-1.971    c0-0.756,0.387-1.162,0.756-1.36v-0.018l-0.657-0.027v-0.702c0.306,0.027,0.667,0.036,1.188,0.036H5.753z M3.745,61.871    c-0.126,0-0.243,0.009-0.351,0.045c-0.468,0.144-0.846,0.522-0.846,1.107c0,0.756,0.639,1.296,1.657,1.296    c0.846,0,1.566-0.441,1.566-1.287c0-0.495-0.306-0.937-0.819-1.098c-0.126-0.045-0.279-0.063-0.423-0.063H3.745z"/>
		<path d="M0.99,56.886h1.044v-1.134h0.604v1.134h2.34c0.541,0,0.846-0.153,0.846-0.594c0-0.216-0.018-0.342-0.054-0.459    l0.603-0.036c0.054,0.153,0.108,0.396,0.108,0.702c0,0.369-0.126,0.666-0.333,0.855c-0.243,0.216-0.63,0.306-1.143,0.306H2.638    v0.675H2.035V57.66H1.233L0.99,56.886z"/>
		<path d="M3.394,54.834c-0.513,0-0.954,0.009-1.359,0.036v-0.693l0.855-0.036v-0.027c-0.585-0.198-0.955-0.684-0.955-1.215    c0-0.081,0.009-0.144,0.018-0.216h0.748c-0.009,0.081-0.018,0.162-0.018,0.271c0,0.558,0.423,0.954,1.008,1.062    c0.117,0.018,0.243,0.027,0.369,0.027h2.332v0.792H3.394z"/>
		<path d="M5.348,48.795c0.378,0,0.748-0.018,1.044-0.063v0.711l-0.549,0.072v0.027c0.342,0.234,0.648,0.711,0.648,1.333    c0,0.882-0.621,1.333-1.251,1.333c-1.053,0-1.629-0.937-1.621-2.62h-0.09c-0.36,0-1.018,0.099-1.008,0.99    c0,0.415,0.117,0.837,0.324,1.144l-0.531,0.18c-0.225-0.36-0.378-0.891-0.378-1.44c0-1.341,0.91-1.666,1.783-1.666H5.348z     M4.168,49.569c-0.018,0.864,0.135,1.845,0.981,1.845c0.522,0,0.756-0.342,0.756-0.738c0-0.576-0.36-0.945-0.729-1.071    c-0.081-0.027-0.171-0.036-0.252-0.036H4.168z"/>
		<path d="M0,43.736h5.267c0.387,0,0.829-0.009,1.125-0.036v0.711l-0.756,0.036v0.018c0.486,0.243,0.855,0.765,0.855,1.476    c0,1.054-0.892,1.873-2.215,1.873c-1.458,0.009-2.341-0.9-2.341-1.954c0-0.675,0.315-1.125,0.657-1.314v-0.018H0V43.736z     M3.808,44.529c-0.108,0-0.234,0.009-0.342,0.036c-0.495,0.117-0.909,0.549-0.909,1.144c0,0.819,0.72,1.305,1.674,1.305    c0.891,0,1.621-0.441,1.621-1.287c0-0.531-0.36-1.018-0.955-1.162c-0.099-0.027-0.207-0.036-0.333-0.036H3.808z"/>
		<path d="M4.357,41.946c1.062-0.018,1.503-0.693,1.503-1.485c0-0.567-0.099-0.918-0.225-1.207l0.567-0.144    c0.126,0.279,0.279,0.766,0.279,1.458c0,1.333-0.891,2.143-2.196,2.143c-1.314,0-2.35-0.783-2.35-2.052    c0-1.423,1.251-1.792,2.053-1.792c0.162,0,0.279,0.009,0.369,0.027V41.946z M3.791,39.633c-0.504-0.009-1.288,0.207-1.288,1.089    c0,0.81,0.738,1.152,1.288,1.215V39.633z"/>
		<path d="M1.296,35.548c0,0.288-0.225,0.477-0.486,0.477c-0.279,0-0.495-0.198-0.495-0.495c0-0.288,0.216-0.486,0.495-0.486    c0.261,0,0.486,0.189,0.486,0.495V35.548z M6.392,35.926H2.035v-0.792h4.357V35.926z"/>
		<path d="M5.582,33.946c0.144-0.243,0.306-0.657,0.306-1.053c0-0.567-0.279-0.837-0.648-0.837c-0.378,0-0.576,0.225-0.792,0.801    c-0.288,0.792-0.72,1.162-1.233,1.162c-0.703,0-1.279-0.576-1.279-1.503c0-0.441,0.117-0.828,0.271-1.062l0.567,0.189    c-0.099,0.171-0.252,0.486-0.252,0.892c0,0.468,0.27,0.72,0.594,0.72c0.36,0,0.522-0.252,0.747-0.819    c0.279-0.747,0.657-1.144,1.306-1.144c0.774,0,1.314,0.604,1.314,1.621c0,0.477-0.126,0.918-0.306,1.224L5.582,33.946z"/>
		<path d="M5.753,24.621c1.008,0,1.611,0.207,1.999,0.621c0.387,0.432,0.522,1.044,0.522,1.594c0,0.522-0.126,1.098-0.36,1.449    l-0.612-0.198c0.189-0.288,0.351-0.738,0.351-1.278c0-0.81-0.423-1.404-1.53-1.404H5.645v0.018    c0.405,0.234,0.729,0.711,0.729,1.386c0,1.081-0.918,1.854-2.134,1.854c-1.476,0-2.305-0.963-2.305-1.971    c0-0.756,0.387-1.162,0.756-1.36v-0.018l-0.657-0.027v-0.702c0.306,0.027,0.667,0.036,1.188,0.036H5.753z M3.745,25.413    c-0.126,0-0.243,0.009-0.351,0.045c-0.468,0.144-0.846,0.522-0.846,1.107c0,0.756,0.639,1.296,1.657,1.296    c0.846,0,1.566-0.441,1.566-1.287c0-0.495-0.306-0.937-0.819-1.098c-0.126-0.045-0.279-0.063-0.423-0.063H3.745z"/>
		<path d="M6.491,21.517c0,1.17-0.864,2.088-2.242,2.088c-1.458,0-2.314-0.963-2.314-2.161c0-1.251,0.91-2.098,2.233-2.098    c1.621,0,2.323,1.125,2.323,2.161V21.517z M5.897,21.48c0-0.756-0.711-1.323-1.702-1.323c-0.738,0-1.666,0.369-1.666,1.305    c0,0.927,0.864,1.333,1.693,1.333c0.954,0,1.674-0.54,1.674-1.305V21.48z"/>
		<path d="M6.491,16.549c0,1.17-0.864,2.088-2.242,2.088c-1.458,0-2.314-0.963-2.314-2.161c0-1.251,0.91-2.098,2.233-2.098    c1.621,0,2.323,1.125,2.323,2.161V16.549z M5.897,16.513c0-0.756-0.711-1.323-1.702-1.323c-0.738,0-1.666,0.369-1.666,1.305    c0,0.927,0.864,1.333,1.693,1.333c0.954,0,1.674-0.54,1.674-1.305V16.513z"/>
		<path d="M0,9.762h5.267c0.387,0,0.829-0.009,1.125-0.036v0.711l-0.756,0.036v0.018c0.486,0.243,0.855,0.765,0.855,1.476    c0,1.054-0.892,1.873-2.215,1.873c-1.458,0.009-2.341-0.9-2.341-1.954c0-0.675,0.315-1.125,0.657-1.314v-0.018H0V9.762z     M3.808,10.554c-0.108,0-0.234,0.009-0.342,0.036c-0.495,0.117-0.909,0.549-0.909,1.144c0,0.819,0.72,1.305,1.674,1.305    c0.891,0,1.621-0.441,1.621-1.287c0-0.531-0.36-1.018-0.955-1.162c-0.099-0.027-0.207-0.036-0.333-0.036H3.808z"/>
	</g>
	
		<line fill="none" stroke="#A7A9AC" stroke-width="0.5" stroke-linejoin="round" stroke-miterlimit="10" x1="31.546" y1="15.418" x2="302.521" y2="15.418"/>
	
		<line fill="none" stroke="#A7A9AC" stroke-width="0.5" stroke-linejoin="round" stroke-miterlimit="10" x1="31.546" y1="28.645" x2="302.521" y2="28.645"/>
	
		<line fill="none" stroke="#A7A9AC" stroke-width="0.5" stroke-linejoin="round" stroke-miterlimit="10" x1="31.546" y1="41.872" x2="302.521" y2="41.872"/>
	
		<line fill="none" stroke="#A7A9AC" stroke-width="0.5" stroke-linejoin="round" stroke-miterlimit="10" x1="31.546" y1="55.098" x2="302.521" y2="55.098"/>
	
		<line fill="none" stroke="#A7A9AC" stroke-width="0.5" stroke-linejoin="round" stroke-miterlimit="10" x1="31.546" y1="68.325" x2="302.521" y2="68.325"/>
	
		<line fill="none" stroke="#A7A9AC" stroke-width="0.5" stroke-linejoin="round" stroke-miterlimit="10" x1="31.546" y1="81.552" x2="302.521" y2="81.552"/>
	
		<line fill="none" stroke="#A7A9AC" stroke-width="0.5" stroke-linejoin="round" stroke-miterlimit="10" x1="31.546" y1="94.778" x2="302.521" y2="94.778"/>
	
		<line fill="none" stroke="#A7A9AC" stroke-width="0.5" stroke-linejoin="round" stroke-miterlimit="10" x1="31.546" y1="121.231" x2="302.521" y2="121.231"/>
	
		<line fill="none" stroke="#000000" stroke-width="0.5" stroke-linejoin="round" stroke-miterlimit="10" x1="31.623" y1="134.458" x2="302.521" y2="134.458"/>
	<g>
		<path d="M14.636,0.744h-0.016l-0.904,0.487l-0.136-0.536l1.135-0.607h0.6v5.197h-0.68V0.744z"/>
		<path d="M17.733,5.373c-0.271,0-0.464-0.216-0.464-0.504c0-0.287,0.2-0.504,0.48-0.504s0.472,0.208,0.472,0.504    c0,0.288-0.192,0.504-0.479,0.504H17.733z"/>
		<path d="M20.524,5.373c-1.015,0-1.711-0.951-1.727-2.671C18.797,0.951,19.557,0,20.612,0c1.087,0,1.719,0.976,1.719,2.631    c0,1.767-0.664,2.742-1.799,2.742H20.524z M20.564,4.829c0.712,0,1.056-0.839,1.056-2.167c0-1.279-0.32-2.118-1.056-2.118    c-0.64,0-1.055,0.815-1.055,2.118c-0.016,1.352,0.4,2.167,1.047,2.167H20.564z"/>
		<path d="M24.628,5.373c-1.016,0-1.711-0.951-1.728-2.671c0-1.751,0.76-2.702,1.815-2.702c1.087,0,1.719,0.976,1.719,2.631    c0,1.767-0.664,2.742-1.799,2.742H24.628z M24.668,4.829c0.712,0,1.056-0.839,1.056-2.167c0-1.279-0.32-2.118-1.056-2.118    c-0.64,0-1.055,0.815-1.055,2.118c-0.016,1.352,0.4,2.167,1.047,2.167H24.668z"/>
		<path d="M14.605,18.593c-1.016,0-1.711-0.951-1.728-2.671c0-1.751,0.76-2.702,1.815-2.702c1.087,0,1.719,0.976,1.719,2.631    c0,1.767-0.664,2.742-1.799,2.742H14.605z M14.645,18.049c0.712,0,1.056-0.839,1.056-2.166c0-1.279-0.32-2.119-1.056-2.119    c-0.64,0-1.055,0.815-1.055,2.119c-0.016,1.351,0.4,2.166,1.047,2.166H14.645z"/>
		<path d="M17.573,18.593c-0.272,0-0.463-0.216-0.463-0.504s0.2-0.504,0.479-0.504s0.472,0.208,0.472,0.504    c0,0.288-0.192,0.504-0.479,0.504H17.573z"/>
		<path d="M19.277,18.009c0.152,0.009,0.328,0,0.568-0.031c0.408-0.048,0.792-0.216,1.087-0.496    c0.344-0.319,0.591-0.768,0.688-1.383h-0.024c-0.288,0.352-0.704,0.56-1.231,0.56c-0.936,0-1.535-0.704-1.535-1.6    c0-0.976,0.72-1.839,1.783-1.839s1.719,0.855,1.719,2.19c0,1.144-0.384,1.943-0.896,2.439c-0.399,0.384-0.951,0.631-1.511,0.695    c-0.256,0.032-0.488,0.048-0.647,0.04V18.009z M20.549,13.756c-0.592,0-1.016,0.527-1.016,1.263c0,0.647,0.392,1.104,1,1.104    c0.472,0,0.839-0.231,1.031-0.544c0.032-0.063,0.056-0.144,0.056-0.256c0.008-0.896-0.328-1.566-1.063-1.566H20.549z"/>
		<path d="M24.628,18.593c-1.016,0-1.711-0.951-1.728-2.671c0-1.751,0.76-2.702,1.815-2.702c1.087,0,1.719,0.976,1.719,2.631    c0,1.767-0.664,2.742-1.799,2.742H24.628z M24.668,18.049c0.712,0,1.056-0.839,1.056-2.166c0-1.279-0.32-2.119-1.056-2.119    c-0.64,0-1.055,0.815-1.055,2.119c-0.016,1.351,0.4,2.166,1.047,2.166H24.668z"/>
		<path d="M14.764,31.813c-1.015,0-1.711-0.951-1.727-2.671c0-1.751,0.759-2.702,1.815-2.702c1.087,0,1.719,0.976,1.719,2.631    c0,1.767-0.664,2.742-1.799,2.742H14.764z M14.804,31.27c0.712,0,1.056-0.839,1.056-2.166c0-1.279-0.32-2.119-1.056-2.119    c-0.64,0-1.055,0.815-1.055,2.119c-0.016,1.351,0.4,2.166,1.047,2.166H14.804z"/>
		<path d="M17.733,31.813c-0.271,0-0.464-0.216-0.464-0.504s0.2-0.504,0.48-0.504s0.472,0.208,0.472,0.504    c0,0.288-0.192,0.504-0.479,0.504H17.733z"/>
		<path d="M20.612,26.44c1.007,0,1.519,0.624,1.519,1.279c0,0.439-0.224,0.92-0.864,1.216v0.023c0.648,0.256,1.047,0.72,1.047,1.344    c0,0.911-0.775,1.511-1.767,1.511c-1.087,0-1.743-0.64-1.743-1.399c0-0.655,0.392-1.127,1.023-1.399v-0.023    c-0.584-0.272-0.832-0.72-0.832-1.167c0-0.824,0.696-1.384,1.607-1.384H20.612z M20.564,31.302c0.632,0,1.04-0.392,1.04-0.928    c0-0.623-0.44-0.936-1.143-1.135c-0.608,0.176-0.936,0.583-0.936,1.079c-0.024,0.52,0.375,0.983,1.031,0.983H20.564z     M20.572,26.944c-0.584,0-0.904,0.384-0.904,0.831c-0.008,0.521,0.392,0.8,0.992,0.96c0.448-0.152,0.792-0.472,0.792-0.943    c0-0.416-0.248-0.848-0.872-0.848H20.572z"/>
		<path d="M24.628,31.813c-1.016,0-1.711-0.951-1.728-2.671c0-1.751,0.76-2.702,1.815-2.702c1.087,0,1.719,0.976,1.719,2.631    c0,1.767-0.664,2.742-1.799,2.742H24.628z M24.668,31.27c0.712,0,1.056-0.839,1.056-2.166c0-1.279-0.32-2.119-1.056-2.119    c-0.64,0-1.055,0.815-1.055,2.119c-0.016,1.351,0.4,2.166,1.047,2.166H24.668z"/>
		<path d="M14.764,45.033c-1.015,0-1.711-0.951-1.727-2.671c0-1.751,0.759-2.702,1.815-2.702c1.087,0,1.719,0.976,1.719,2.631    c0,1.767-0.664,2.742-1.799,2.742H14.764z M14.804,44.489c0.712,0,1.056-0.839,1.056-2.167c0-1.279-0.32-2.118-1.056-2.118    c-0.64,0-1.055,0.815-1.055,2.118c-0.016,1.352,0.4,2.167,1.047,2.167H14.804z"/>
		<path d="M17.733,45.033c-0.271,0-0.464-0.216-0.464-0.504c0-0.287,0.2-0.504,0.48-0.504s0.472,0.208,0.472,0.504    c0,0.288-0.192,0.504-0.479,0.504H17.733z"/>
		<path d="M22.243,39.748v0.464l-2.263,4.733h-0.72l2.247-4.598v-0.016h-2.543v-0.584H22.243z"/>
		<path d="M24.628,45.033c-1.016,0-1.711-0.951-1.728-2.671c0-1.751,0.76-2.702,1.815-2.702c1.087,0,1.719,0.976,1.719,2.631    c0,1.767-0.664,2.742-1.799,2.742H24.628z M24.668,44.489c0.712,0,1.056-0.839,1.056-2.167c0-1.279-0.32-2.118-1.056-2.118    c-0.64,0-1.055,0.815-1.055,2.118c-0.016,1.352,0.4,2.167,1.047,2.167H24.668z"/>
		<path d="M14.764,58.253c-1.015,0-1.711-0.951-1.727-2.671c0-1.751,0.759-2.702,1.815-2.702c1.087,0,1.719,0.976,1.719,2.631    c0,1.767-0.664,2.742-1.799,2.742H14.764z M14.804,57.709c0.712,0,1.056-0.839,1.056-2.166c0-1.279-0.32-2.119-1.056-2.119    c-0.64,0-1.055,0.815-1.055,2.119c-0.016,1.351,0.4,2.166,1.047,2.166H14.804z"/>
		<path d="M17.733,58.253c-0.271,0-0.464-0.216-0.464-0.504s0.2-0.504,0.48-0.504s0.472,0.208,0.472,0.504    c0,0.288-0.192,0.504-0.479,0.504H17.733z"/>
		<path d="M21.835,53.464c-0.144-0.008-0.328,0.008-0.528,0.04c-1.111,0.176-1.687,0.976-1.807,1.839h0.016    c0.248-0.336,0.688-0.607,1.263-0.607c0.92,0,1.567,0.671,1.567,1.679c0,0.959-0.647,1.839-1.735,1.839    c-1.104,0-1.831-0.863-1.831-2.215c0-1.023,0.36-1.831,0.879-2.343c0.432-0.424,1.007-0.688,1.663-0.768    c0.208-0.032,0.384-0.04,0.512-0.04V53.464z M20.628,57.709c0.6,0,1.008-0.504,1.008-1.247s-0.424-1.191-1.072-1.191    c-0.424,0-0.823,0.256-1.015,0.64c-0.04,0.08-0.072,0.176-0.072,0.304c0.008,0.855,0.408,1.495,1.144,1.495H20.628z"/>
		<path d="M24.628,58.253c-1.016,0-1.711-0.951-1.728-2.671c0-1.751,0.76-2.702,1.815-2.702c1.087,0,1.719,0.976,1.719,2.631    c0,1.767-0.664,2.742-1.799,2.742H24.628z M24.668,57.709c0.712,0,1.056-0.839,1.056-2.166c0-1.279-0.32-2.119-1.056-2.119    c-0.64,0-1.055,0.815-1.055,2.119c-0.016,1.351,0.4,2.166,1.047,2.166H24.668z"/>
		<path d="M14.764,71.473c-1.015,0-1.711-0.951-1.727-2.671c0-1.751,0.759-2.702,1.815-2.702c1.087,0,1.719,0.976,1.719,2.631    c0,1.767-0.664,2.742-1.799,2.742H14.764z M14.804,70.929c0.712,0,1.056-0.839,1.056-2.167c0-1.279-0.32-2.118-1.056-2.118    c-0.64,0-1.055,0.815-1.055,2.118c-0.016,1.352,0.4,2.167,1.047,2.167H14.804z"/>
		<path d="M17.733,71.473c-0.271,0-0.464-0.216-0.464-0.504c0-0.287,0.2-0.504,0.48-0.504s0.472,0.208,0.472,0.504    c0,0.288-0.192,0.504-0.479,0.504H17.733z"/>
		<path d="M21.971,66.779h-1.983l-0.2,1.335c0.12-0.016,0.232-0.031,0.424-0.031c0.408,0,0.799,0.088,1.119,0.279    c0.408,0.224,0.744,0.68,0.744,1.335c0,1.016-0.808,1.775-1.935,1.775c-0.567,0-1.039-0.16-1.295-0.319l0.176-0.536    c0.216,0.128,0.64,0.288,1.119,0.288c0.656,0,1.231-0.432,1.224-1.136c0-0.663-0.456-1.144-1.487-1.144    c-0.304,0-0.536,0.024-0.728,0.057l0.336-2.495h2.486V66.779z"/>
		<path d="M24.628,71.473c-1.016,0-1.711-0.951-1.728-2.671c0-1.751,0.76-2.702,1.815-2.702c1.087,0,1.719,0.976,1.719,2.631    c0,1.767-0.664,2.742-1.799,2.742H24.628z M24.668,70.929c0.712,0,1.056-0.839,1.056-2.167c0-1.279-0.32-2.118-1.056-2.118    c-0.64,0-1.055,0.815-1.055,2.118c-0.016,1.352,0.4,2.167,1.047,2.167H24.668z"/>
		<path d="M14.764,84.693c-1.015,0-1.711-0.951-1.727-2.671c0-1.751,0.759-2.702,1.815-2.702c1.087,0,1.719,0.976,1.719,2.631    c0,1.767-0.664,2.742-1.799,2.742H14.764z M14.804,84.149c0.712,0,1.056-0.839,1.056-2.167c0-1.279-0.32-2.118-1.056-2.118    c-0.64,0-1.055,0.815-1.055,2.118c-0.016,1.352,0.4,2.167,1.047,2.167H14.804z"/>
		<path d="M17.733,84.693c-0.271,0-0.464-0.216-0.464-0.504c0-0.287,0.2-0.504,0.48-0.504s0.472,0.208,0.472,0.504    c0,0.288-0.192,0.504-0.479,0.504H17.733z"/>
		<path d="M21.044,84.605v-1.423h-2.415v-0.456l2.318-3.318h0.76v3.23h0.728v0.544h-0.728v1.423H21.044z M21.044,82.639v-1.735    c0-0.271,0.008-0.544,0.024-0.815h-0.024c-0.16,0.304-0.288,0.527-0.432,0.768l-1.271,1.768v0.016H21.044z"/>
		<path d="M24.628,84.693c-1.016,0-1.711-0.951-1.728-2.671c0-1.751,0.76-2.702,1.815-2.702c1.087,0,1.719,0.976,1.719,2.631    c0,1.767-0.664,2.742-1.799,2.742H24.628z M24.668,84.149c0.712,0,1.056-0.839,1.056-2.167c0-1.279-0.32-2.118-1.056-2.118    c-0.64,0-1.055,0.815-1.055,2.118c-0.016,1.352,0.4,2.167,1.047,2.167H24.668z"/>
		<path d="M14.764,97.913c-1.015,0-1.711-0.951-1.727-2.671c0-1.751,0.759-2.702,1.815-2.702c1.087,0,1.719,0.976,1.719,2.631    c0,1.767-0.664,2.742-1.799,2.742H14.764z M14.804,97.369c0.712,0,1.056-0.839,1.056-2.166c0-1.279-0.32-2.119-1.056-2.119    c-0.64,0-1.055,0.815-1.055,2.119c-0.016,1.351,0.4,2.166,1.047,2.166H14.804z"/>
		<path d="M17.733,97.913c-0.271,0-0.464-0.216-0.464-0.504s0.2-0.504,0.48-0.504s0.472,0.208,0.472,0.504    c0,0.288-0.192,0.504-0.479,0.504H17.733z"/>
		<path d="M19.037,97.025c0.2,0.12,0.656,0.32,1.151,0.32c0.896,0,1.183-0.568,1.175-1.008c-0.008-0.728-0.664-1.039-1.343-1.039    h-0.392v-0.528h0.392c0.512,0,1.159-0.264,1.159-0.879c0-0.416-0.264-0.784-0.912-0.784c-0.416,0-0.815,0.185-1.039,0.344    l-0.192-0.512c0.28-0.199,0.808-0.399,1.367-0.399c1.023,0,1.487,0.607,1.487,1.239c0,0.544-0.328,1-0.959,1.231v0.016    c0.64,0.12,1.159,0.6,1.159,1.327c0,0.832-0.656,1.56-1.895,1.56c-0.583,0-1.095-0.184-1.351-0.352L19.037,97.025z"/>
		<path d="M24.628,97.913c-1.016,0-1.711-0.951-1.728-2.671c0-1.751,0.76-2.702,1.815-2.702c1.087,0,1.719,0.976,1.719,2.631    c0,1.767-0.664,2.742-1.799,2.742H24.628z M24.668,97.369c0.712,0,1.056-0.839,1.056-2.166c0-1.279-0.32-2.119-1.056-2.119    c-0.64,0-1.055,0.815-1.055,2.119c-0.016,1.351,0.4,2.166,1.047,2.166H24.668z"/>
		<path d="M14.764,111.133c-1.015,0-1.711-0.951-1.727-2.671c0-1.751,0.759-2.702,1.815-2.702c1.087,0,1.719,0.976,1.719,2.631    c0,1.767-0.664,2.742-1.799,2.742H14.764z M14.804,110.589c0.712,0,1.056-0.839,1.056-2.167c0-1.279-0.32-2.118-1.056-2.118    c-0.64,0-1.055,0.815-1.055,2.118c-0.016,1.352,0.4,2.167,1.047,2.167H14.804z"/>
		<path d="M17.733,111.133c-0.271,0-0.464-0.216-0.464-0.504c0-0.287,0.2-0.504,0.48-0.504s0.472,0.208,0.472,0.504    c0,0.288-0.192,0.504-0.479,0.504H17.733z"/>
		<path d="M18.869,111.045v-0.432l0.552-0.536c1.327-1.263,1.935-1.935,1.935-2.718c0-0.528-0.248-1.016-1.023-1.016    c-0.472,0-0.864,0.239-1.104,0.439l-0.224-0.496c0.352-0.295,0.872-0.527,1.471-0.527c1.111,0,1.583,0.768,1.583,1.512    c0,0.959-0.695,1.734-1.791,2.79l-0.408,0.384v0.016h2.327v0.584H18.869z"/>
		<path d="M24.628,111.133c-1.016,0-1.711-0.951-1.728-2.671c0-1.751,0.76-2.702,1.815-2.702c1.087,0,1.719,0.976,1.719,2.631    c0,1.767-0.664,2.742-1.799,2.742H24.628z M24.668,110.589c0.712,0,1.056-0.839,1.056-2.167c0-1.279-0.32-2.118-1.056-2.118    c-0.64,0-1.055,0.815-1.055,2.118c-0.016,1.352,0.4,2.167,1.047,2.167H24.668z"/>
		<path d="M14.764,124.354c-1.015,0-1.711-0.951-1.727-2.671c0-1.751,0.759-2.702,1.815-2.702c1.087,0,1.719,0.976,1.719,2.631    c0,1.767-0.664,2.742-1.799,2.742H14.764z M14.804,123.81c0.712,0,1.056-0.839,1.056-2.167c0-1.279-0.32-2.118-1.056-2.118    c-0.64,0-1.055,0.815-1.055,2.118c-0.016,1.352,0.4,2.167,1.047,2.167H14.804z"/>
		<path d="M17.733,124.354c-0.271,0-0.464-0.216-0.464-0.504c0-0.287,0.2-0.504,0.48-0.504s0.472,0.208,0.472,0.504    c0,0.288-0.192,0.504-0.479,0.504H17.733z"/>
		<path d="M20.396,119.725H20.38l-0.904,0.487l-0.136-0.536l1.135-0.607h0.6v5.197h-0.68V119.725z"/>
		<path d="M24.628,124.354c-1.016,0-1.711-0.951-1.728-2.671c0-1.751,0.76-2.702,1.815-2.702c1.087,0,1.719,0.976,1.719,2.631    c0,1.767-0.664,2.742-1.799,2.742H24.628z M24.668,123.81c0.712,0,1.056-0.839,1.056-2.167c0-1.279-0.32-2.118-1.056-2.118    c-0.64,0-1.055,0.815-1.055,2.118c-0.016,1.352,0.4,2.167,1.047,2.167H24.668z"/>
		<path d="M14.764,137.573c-1.015,0-1.711-0.951-1.727-2.671c0-1.751,0.759-2.702,1.815-2.702c1.087,0,1.719,0.976,1.719,2.631    c0,1.767-0.664,2.742-1.799,2.742H14.764z M14.804,137.029c0.712,0,1.056-0.839,1.056-2.166c0-1.279-0.32-2.119-1.056-2.119    c-0.64,0-1.055,0.815-1.055,2.119c-0.016,1.351,0.4,2.166,1.047,2.166H14.804z"/>
		<path d="M17.733,137.573c-0.271,0-0.464-0.216-0.464-0.504s0.2-0.504,0.48-0.504s0.472,0.208,0.472,0.504    c0,0.288-0.192,0.504-0.479,0.504H17.733z"/>
		<path d="M20.396,132.943H20.38l-0.904,0.488l-0.136-0.536l1.135-0.607h0.6v5.197h-0.68V132.943z"/>
		<path d="M24.628,137.573c-1.016,0-1.711-0.951-1.728-2.671c0-1.751,0.76-2.702,1.815-2.702c1.087,0,1.719,0.976,1.719,2.631    c0,1.767-0.664,2.742-1.799,2.742H24.628z M24.668,137.029c0.712,0,1.056-0.839,1.056-2.166c0-1.279-0.32-2.119-1.056-2.119    c-0.64,0-1.055,0.815-1.055,2.119c-0.016,1.351,0.4,2.166,1.047,2.166H24.668z"/>
	</g>
	<g>
		<path d="M23.735,145.915v-0.432l0.552-0.536c1.327-1.263,1.935-1.935,1.935-2.718c0-0.528-0.248-1.016-1.023-1.016    c-0.472,0-0.864,0.239-1.104,0.439l-0.224-0.496c0.352-0.296,0.872-0.527,1.471-0.527c1.111,0,1.583,0.768,1.583,1.511    c0,0.96-0.695,1.735-1.791,2.791l-0.408,0.384v0.016h2.327v0.584H23.735z"/>
		<path d="M29.494,146.003c-1.016,0-1.711-0.951-1.728-2.671c0-1.751,0.76-2.702,1.815-2.702c1.087,0,1.719,0.976,1.719,2.631    c0,1.767-0.664,2.742-1.799,2.742H29.494z M29.534,145.459c0.712,0,1.056-0.839,1.056-2.166c0-1.279-0.32-2.119-1.056-2.119    c-0.64,0-1.055,0.815-1.055,2.119c-0.016,1.351,0.4,2.166,1.047,2.166H29.534z"/>
		<path d="M33.598,146.003c-1.015,0-1.711-0.951-1.727-2.671c0-1.751,0.759-2.702,1.815-2.702c1.087,0,1.719,0.976,1.719,2.631    c0,1.767-0.664,2.742-1.799,2.742H33.598z M33.638,145.459c0.712,0,1.056-0.839,1.056-2.166c0-1.279-0.32-2.119-1.056-2.119    c-0.64,0-1.055,0.815-1.055,2.119c-0.016,1.351,0.4,2.166,1.047,2.166H33.638z"/>
		<path d="M36.046,145.915v-0.432l0.552-0.536c1.327-1.263,1.935-1.935,1.935-2.718c0-0.528-0.248-1.016-1.023-1.016    c-0.472,0-0.864,0.239-1.104,0.439l-0.224-0.496c0.352-0.296,0.872-0.527,1.471-0.527c1.111,0,1.583,0.768,1.583,1.511    c0,0.96-0.695,1.735-1.791,2.791l-0.408,0.384v0.016h2.327v0.584H36.046z"/>
	</g>
	<g>
		<path d="M53.834,145.915v-0.432l0.552-0.536c1.327-1.263,1.935-1.935,1.935-2.718c0-0.528-0.248-1.016-1.023-1.016    c-0.472,0-0.864,0.239-1.104,0.439l-0.224-0.496c0.352-0.296,0.872-0.527,1.471-0.527c1.111,0,1.583,0.768,1.583,1.511    c0,0.96-0.695,1.735-1.791,2.791l-0.408,0.384v0.016h2.327v0.584H53.834z"/>
		<path d="M59.594,146.003c-1.016,0-1.711-0.951-1.728-2.671c0-1.751,0.76-2.702,1.815-2.702c1.087,0,1.719,0.976,1.719,2.631    c0,1.767-0.664,2.742-1.799,2.742H59.594z M59.633,145.459c0.712,0,1.056-0.839,1.056-2.166c0-1.279-0.32-2.119-1.056-2.119    c-0.64,0-1.055,0.815-1.055,2.119c-0.016,1.351,0.4,2.166,1.047,2.166H59.633z"/>
		<path d="M63.697,146.003c-1.015,0-1.711-0.951-1.727-2.671c0-1.751,0.759-2.702,1.815-2.702c1.087,0,1.719,0.976,1.719,2.631    c0,1.767-0.664,2.742-1.799,2.742H63.697z M63.737,145.459c0.712,0,1.056-0.839,1.056-2.166c0-1.279-0.32-2.119-1.056-2.119    c-0.64,0-1.055,0.815-1.055,2.119c-0.016,1.351,0.4,2.166,1.047,2.166H63.737z"/>
		<path d="M68.321,145.915v-1.423h-2.415v-0.456l2.318-3.318h0.76v3.23h0.728v0.544h-0.728v1.423H68.321z M68.321,143.948v-1.735    c0-0.271,0.008-0.544,0.024-0.815h-0.024c-0.16,0.304-0.288,0.527-0.432,0.768l-1.271,1.767v0.017H68.321z"/>
	</g>
	<g>
		<path d="M83.935,145.915v-0.432l0.552-0.536c1.327-1.263,1.935-1.935,1.935-2.718c0-0.528-0.248-1.016-1.023-1.016    c-0.472,0-0.864,0.239-1.104,0.439l-0.224-0.496c0.352-0.296,0.872-0.527,1.471-0.527c1.111,0,1.583,0.768,1.583,1.511    c0,0.96-0.695,1.735-1.791,2.791l-0.408,0.384v0.016h2.327v0.584H83.935z"/>
		<path d="M89.694,146.003c-1.016,0-1.711-0.951-1.728-2.671c0-1.751,0.76-2.702,1.815-2.702c1.087,0,1.719,0.976,1.719,2.631    c0,1.767-0.664,2.742-1.799,2.742H89.694z M89.734,145.459c0.712,0,1.056-0.839,1.056-2.166c0-1.279-0.32-2.119-1.056-2.119    c-0.64,0-1.055,0.815-1.055,2.119c-0.016,1.351,0.4,2.166,1.047,2.166H89.734z"/>
		<path d="M93.798,146.003c-1.015,0-1.711-0.951-1.727-2.671c0-1.751,0.759-2.702,1.815-2.702c1.087,0,1.719,0.976,1.719,2.631    c0,1.767-0.664,2.742-1.799,2.742H93.798z M93.838,145.459c0.712,0,1.056-0.839,1.056-2.166c0-1.279-0.32-2.119-1.056-2.119    c-0.64,0-1.055,0.815-1.055,2.119c-0.016,1.351,0.4,2.166,1.047,2.166H93.838z"/>
		<path d="M99.213,141.214c-0.144-0.008-0.328,0.008-0.528,0.04c-1.111,0.176-1.687,0.976-1.807,1.839h0.016    c0.248-0.336,0.688-0.607,1.263-0.607c0.92,0,1.567,0.671,1.567,1.679c0,0.959-0.647,1.839-1.735,1.839    c-1.104,0-1.831-0.863-1.831-2.215c0-1.023,0.36-1.831,0.879-2.343c0.432-0.424,1.007-0.688,1.663-0.768    c0.208-0.032,0.384-0.04,0.512-0.04V141.214z M98.005,145.459c0.6,0,1.008-0.504,1.008-1.247s-0.424-1.191-1.072-1.191    c-0.424,0-0.823,0.256-1.015,0.64c-0.04,0.08-0.072,0.176-0.072,0.304c0.008,0.855,0.408,1.495,1.144,1.495H98.005z"/>
	</g>
	<g>
		<path d="M114.035,145.915v-0.432l0.552-0.536c1.327-1.263,1.935-1.935,1.935-2.718c0-0.528-0.248-1.016-1.023-1.016    c-0.472,0-0.864,0.239-1.104,0.439l-0.224-0.496c0.352-0.296,0.872-0.527,1.471-0.527c1.111,0,1.583,0.768,1.583,1.511    c0,0.96-0.695,1.735-1.791,2.791l-0.408,0.384v0.016h2.327v0.584H114.035z"/>
		<path d="M119.794,146.003c-1.016,0-1.711-0.951-1.728-2.671c0-1.751,0.76-2.702,1.815-2.702c1.087,0,1.719,0.976,1.719,2.631    c0,1.767-0.664,2.742-1.799,2.742H119.794z M119.833,145.459c0.712,0,1.056-0.839,1.056-2.166c0-1.279-0.32-2.119-1.056-2.119    c-0.64,0-1.055,0.815-1.055,2.119c-0.016,1.351,0.4,2.166,1.047,2.166H119.833z"/>
		<path d="M123.897,146.003c-1.015,0-1.711-0.951-1.727-2.671c0-1.751,0.759-2.702,1.815-2.702c1.087,0,1.719,0.976,1.719,2.631    c0,1.767-0.664,2.742-1.799,2.742H123.897z M123.938,145.459c0.712,0,1.056-0.839,1.056-2.166c0-1.279-0.32-2.119-1.056-2.119    c-0.64,0-1.055,0.815-1.055,2.119c-0.016,1.351,0.4,2.166,1.047,2.166H123.938z"/>
		<path d="M128.089,140.63c1.007,0,1.519,0.624,1.519,1.279c0,0.439-0.224,0.92-0.864,1.216v0.023    c0.648,0.256,1.047,0.72,1.047,1.344c0,0.911-0.775,1.511-1.767,1.511c-1.087,0-1.743-0.64-1.743-1.399    c0-0.655,0.392-1.127,1.023-1.399v-0.023c-0.584-0.272-0.832-0.72-0.832-1.167c0-0.824,0.696-1.384,1.607-1.384H128.089z     M128.041,145.491c0.632,0,1.04-0.392,1.04-0.928c0-0.623-0.44-0.936-1.143-1.135c-0.608,0.176-0.936,0.583-0.936,1.079    c-0.024,0.52,0.375,0.983,1.031,0.983H128.041z M128.049,141.134c-0.584,0-0.904,0.384-0.904,0.831    c-0.008,0.521,0.392,0.8,0.992,0.96c0.448-0.152,0.792-0.472,0.792-0.943c0-0.416-0.248-0.848-0.872-0.848H128.049z"/>
	</g>
	<g>
		<path d="M144.135,145.915v-0.432l0.552-0.536c1.327-1.263,1.935-1.935,1.935-2.718c0-0.528-0.248-1.016-1.023-1.016    c-0.472,0-0.864,0.239-1.104,0.439l-0.224-0.496c0.352-0.296,0.872-0.527,1.471-0.527c1.111,0,1.583,0.768,1.583,1.511    c0,0.96-0.695,1.735-1.791,2.791l-0.408,0.384v0.016h2.327v0.584H144.135z"/>
		<path d="M149.895,146.003c-1.016,0-1.711-0.951-1.728-2.671c0-1.751,0.76-2.702,1.815-2.702c1.088,0,1.719,0.976,1.719,2.631    c0,1.767-0.663,2.742-1.799,2.742H149.895z M149.934,145.459c0.712,0,1.056-0.839,1.056-2.166c0-1.279-0.32-2.119-1.056-2.119    c-0.64,0-1.055,0.815-1.055,2.119c-0.016,1.351,0.4,2.166,1.047,2.166H149.934z"/>
		<path d="M153.87,141.373h-0.016l-0.903,0.488l-0.136-0.536l1.135-0.607h0.6v5.197h-0.68V141.373z"/>
		<path d="M158.102,146.003c-1.015,0-1.711-0.951-1.727-2.671c0-1.751,0.76-2.702,1.815-2.702c1.087,0,1.719,0.976,1.719,2.631    c0,1.767-0.664,2.742-1.799,2.742H158.102z M158.142,145.459c0.712,0,1.056-0.839,1.056-2.166c0-1.279-0.319-2.119-1.056-2.119    c-0.64,0-1.055,0.815-1.055,2.119c-0.017,1.351,0.399,2.166,1.047,2.166H158.142z"/>
	</g>
	<g>
		<path d="M174.234,145.915v-0.432l0.552-0.536c1.327-1.263,1.936-1.935,1.936-2.718c0-0.528-0.248-1.016-1.023-1.016    c-0.473,0-0.864,0.239-1.104,0.439l-0.225-0.496c0.353-0.296,0.872-0.527,1.472-0.527c1.111,0,1.583,0.768,1.583,1.511    c0,0.96-0.695,1.735-1.791,2.791l-0.408,0.384v0.016h2.327v0.584H174.234z"/>
		<path d="M179.994,146.003c-1.016,0-1.712-0.951-1.728-2.671c0-1.751,0.76-2.702,1.815-2.702c1.087,0,1.719,0.976,1.719,2.631    c0,1.767-0.664,2.742-1.799,2.742H179.994z M180.033,145.459c0.712,0,1.056-0.839,1.056-2.166c0-1.279-0.319-2.119-1.056-2.119    c-0.64,0-1.055,0.815-1.055,2.119c-0.017,1.351,0.399,2.166,1.047,2.166H180.033z"/>
		<path d="M183.97,141.373h-0.016l-0.904,0.488l-0.136-0.536l1.136-0.607h0.6v5.197h-0.68V141.373z"/>
		<path d="M186.546,145.915v-0.432l0.552-0.536c1.327-1.263,1.936-1.935,1.936-2.718c0-0.528-0.248-1.016-1.023-1.016    c-0.473,0-0.864,0.239-1.104,0.439l-0.225-0.496c0.353-0.296,0.872-0.527,1.472-0.527c1.111,0,1.583,0.768,1.583,1.511    c0,0.96-0.695,1.735-1.791,2.791l-0.408,0.384v0.016h2.327v0.584H186.546z"/>
	</g>
	<g>
		<path d="M204.335,145.915v-0.432l0.552-0.536c1.328-1.263,1.936-1.935,1.936-2.718c0-0.528-0.248-1.016-1.023-1.016    c-0.472,0-0.863,0.239-1.104,0.439l-0.224-0.496c0.352-0.296,0.871-0.527,1.471-0.527c1.111,0,1.583,0.768,1.583,1.511    c0,0.96-0.695,1.735-1.791,2.791l-0.407,0.384v0.016h2.326v0.584H204.335z"/>
		<path d="M210.094,146.003c-1.016,0-1.711-0.951-1.727-2.671c0-1.751,0.76-2.702,1.814-2.702c1.088,0,1.72,0.976,1.72,2.631    c0,1.767-0.664,2.742-1.8,2.742H210.094z M210.134,145.459c0.712,0,1.056-0.839,1.056-2.166c0-1.279-0.32-2.119-1.056-2.119    c-0.64,0-1.056,0.815-1.056,2.119c-0.016,1.351,0.4,2.166,1.048,2.166H210.134z"/>
		<path d="M214.07,141.373h-0.016l-0.903,0.488l-0.136-0.536l1.135-0.607h0.6v5.197h-0.68V141.373z"/>
		<path d="M218.821,145.915v-1.423h-2.414v-0.456l2.318-3.318h0.76v3.23h0.728v0.544h-0.728v1.423H218.821z M218.821,143.948v-1.735    c0-0.271,0.009-0.544,0.024-0.815h-0.024c-0.159,0.304-0.287,0.527-0.432,0.768l-1.271,1.767v0.017H218.821z"/>
	</g>
	<g>
		<path d="M234.992,145.915v-0.432l0.552-0.536c1.327-1.263,1.936-1.935,1.936-2.718c0-0.528-0.248-1.016-1.023-1.016    c-0.472,0-0.864,0.239-1.104,0.439l-0.224-0.496c0.352-0.296,0.871-0.527,1.471-0.527c1.111,0,1.583,0.768,1.583,1.511    c0,0.96-0.695,1.735-1.791,2.791l-0.407,0.384v0.016h2.326v0.584H234.992z"/>
		<path d="M240.751,146.003c-1.016,0-1.711-0.951-1.727-2.671c0-1.751,0.76-2.702,1.814-2.702c1.088,0,1.72,0.976,1.72,2.631    c0,1.767-0.664,2.742-1.8,2.742H240.751z M240.791,145.459c0.712,0,1.056-0.839,1.056-2.166c0-1.279-0.32-2.119-1.056-2.119    c-0.64,0-1.056,0.815-1.056,2.119c-0.016,1.351,0.4,2.166,1.048,2.166H240.791z"/>
		<path d="M244.728,141.373h-0.016l-0.903,0.488l-0.137-0.536l1.136-0.607h0.6v5.197h-0.68V141.373z"/>
		<path d="M249.687,141.214c-0.144-0.008-0.328,0.008-0.527,0.04c-1.111,0.176-1.688,0.976-1.808,1.839h0.017    c0.247-0.336,0.688-0.607,1.263-0.607c0.92,0,1.567,0.671,1.567,1.679c0,0.959-0.647,1.839-1.735,1.839    c-1.104,0-1.831-0.863-1.831-2.215c0-1.023,0.36-1.831,0.88-2.343c0.432-0.424,1.008-0.688,1.663-0.768    c0.208-0.032,0.384-0.04,0.512-0.04V141.214z M248.479,145.459c0.6,0,1.007-0.504,1.007-1.247s-0.424-1.191-1.071-1.191    c-0.424,0-0.823,0.256-1.016,0.64c-0.04,0.08-0.071,0.176-0.071,0.304c0.008,0.855,0.407,1.495,1.143,1.495H248.479z"/>
	</g>
	<g>
		<path d="M264.535,145.915v-0.432l0.552-0.536c1.327-1.263,1.936-1.935,1.936-2.718c0-0.528-0.248-1.016-1.023-1.016    c-0.472,0-0.864,0.239-1.104,0.439l-0.224-0.496c0.352-0.296,0.871-0.527,1.471-0.527c1.111,0,1.583,0.768,1.583,1.511    c0,0.96-0.695,1.735-1.791,2.791l-0.407,0.384v0.016h2.326v0.584H264.535z"/>
		<path d="M270.294,146.003c-1.016,0-1.711-0.951-1.727-2.671c0-1.751,0.76-2.702,1.814-2.702c1.088,0,1.72,0.976,1.72,2.631    c0,1.767-0.664,2.742-1.8,2.742H270.294z M270.334,145.459c0.712,0,1.056-0.839,1.056-2.166c0-1.279-0.32-2.119-1.056-2.119    c-0.64,0-1.056,0.815-1.056,2.119c-0.016,1.351,0.4,2.166,1.048,2.166H270.334z"/>
		<path d="M274.271,141.373h-0.016l-0.903,0.488l-0.137-0.536l1.136-0.607h0.6v5.197h-0.68V141.373z"/>
		<path d="M278.59,140.63c1.008,0,1.52,0.624,1.52,1.279c0,0.439-0.224,0.92-0.863,1.216v0.023c0.647,0.256,1.047,0.72,1.047,1.344    c0,0.911-0.775,1.511-1.767,1.511c-1.088,0-1.743-0.64-1.743-1.399c0-0.655,0.392-1.127,1.023-1.399v-0.023    c-0.584-0.272-0.832-0.72-0.832-1.167c0-0.824,0.696-1.384,1.607-1.384H278.59z M278.542,145.491c0.632,0,1.04-0.392,1.04-0.928    c0-0.623-0.44-0.936-1.144-1.135c-0.608,0.176-0.936,0.583-0.936,1.079c-0.024,0.52,0.376,0.983,1.031,0.983H278.542z     M278.55,141.134c-0.583,0-0.903,0.384-0.903,0.831c-0.008,0.521,0.392,0.8,0.991,0.96c0.448-0.152,0.792-0.472,0.792-0.943    c0-0.416-0.248-0.848-0.871-0.848H278.55z"/>
	</g>
	<g>
		<path d="M294.636,145.915v-0.432l0.552-0.536c1.328-1.263,1.936-1.935,1.936-2.718c0-0.528-0.248-1.016-1.023-1.016    c-0.472,0-0.863,0.239-1.104,0.439l-0.224-0.496c0.352-0.296,0.871-0.527,1.471-0.527c1.111,0,1.583,0.768,1.583,1.511    c0,0.96-0.695,1.735-1.791,2.791l-0.407,0.384v0.016h2.326v0.584H294.636z"/>
		<path d="M300.395,146.003c-1.016,0-1.711-0.951-1.727-2.671c0-1.751,0.76-2.702,1.814-2.702c1.088,0,1.72,0.976,1.72,2.631    c0,1.767-0.664,2.742-1.8,2.742H300.395z M300.435,145.459c0.712,0,1.056-0.839,1.056-2.166c0-1.279-0.32-2.119-1.056-2.119    c-0.64,0-1.056,0.815-1.056,2.119c-0.016,1.351,0.4,2.166,1.048,2.166H300.435z"/>
		<path d="M302.844,145.915v-0.432l0.552-0.536c1.327-1.263,1.936-1.935,1.936-2.718c0-0.528-0.248-1.016-1.023-1.016    c-0.472,0-0.864,0.239-1.104,0.439l-0.224-0.496c0.352-0.296,0.871-0.527,1.471-0.527c1.111,0,1.583,0.768,1.583,1.511    c0,0.96-0.695,1.735-1.791,2.791l-0.407,0.384v0.016h2.326v0.584H302.844z"/>
		<path d="M308.603,146.003c-1.016,0-1.711-0.951-1.727-2.671c0-1.751,0.76-2.702,1.814-2.702c1.088,0,1.72,0.976,1.72,2.631    c0,1.767-0.664,2.742-1.8,2.742H308.603z M308.643,145.459c0.712,0,1.056-0.839,1.056-2.166c0-1.279-0.32-2.119-1.056-2.119    c-0.64,0-1.056,0.815-1.056,2.119c-0.016,1.351,0.4,2.166,1.048,2.166H308.643z"/>
	</g>
	<g>
		<path d="M251.034,99.722c0.352-0.072,0.863-0.12,1.335-0.12c0.744,0,1.231,0.144,1.567,0.448c0.264,0.232,0.424,0.6,0.424,1.023    c0,0.704-0.456,1.175-1.016,1.368v0.024c0.408,0.144,0.656,0.527,0.792,1.087c0.176,0.751,0.304,1.271,0.407,1.479h-0.72    c-0.088-0.16-0.207-0.616-0.352-1.287c-0.16-0.744-0.455-1.023-1.087-1.047h-0.656v2.334h-0.695V99.722z M251.729,102.169h0.712    c0.743,0,1.216-0.408,1.216-1.023c0-0.696-0.504-1-1.24-1c-0.335,0-0.567,0.032-0.688,0.064V102.169z"/>
		<path d="M255.714,103.224c0.016,0.943,0.615,1.335,1.319,1.335c0.504,0,0.815-0.088,1.071-0.2l0.128,0.503    c-0.248,0.112-0.68,0.248-1.295,0.248c-1.184,0-1.903-0.792-1.903-1.951c0-1.167,0.695-2.087,1.823-2.087    c1.263,0,1.591,1.112,1.591,1.823c0,0.144-0.008,0.248-0.024,0.328H255.714z M257.769,102.721    c0.008-0.448-0.184-1.144-0.968-1.144c-0.72,0-1.023,0.656-1.079,1.144H257.769z"/>
		<path d="M259.322,102.425c0-0.496-0.008-0.896-0.032-1.263h0.632l0.04,0.664h0.016c0.28-0.48,0.744-0.752,1.367-0.752    c0.944,0,1.647,0.792,1.647,1.967c0,1.391-0.855,2.079-1.759,2.079c-0.52,0-0.96-0.224-1.191-0.607h-0.017v2.103h-0.703V102.425z     M260.025,103.456c0,0.096,0.009,0.2,0.032,0.288c0.12,0.488,0.552,0.823,1.048,0.823c0.743,0,1.175-0.607,1.175-1.495    c0-0.775-0.399-1.439-1.143-1.439c-0.48,0-0.936,0.335-1.072,0.871c-0.016,0.088-0.04,0.192-0.04,0.28V103.456z"/>
		<path d="M267.112,103.968c0,0.408,0.008,0.76,0.032,1.063h-0.624l-0.04-0.632h-0.016c-0.176,0.312-0.592,0.72-1.279,0.72    c-0.608,0-1.336-0.344-1.336-1.695v-2.263h0.704v2.135c0,0.735,0.231,1.239,0.863,1.239c0.472,0,0.8-0.328,0.928-0.648    c0.04-0.096,0.063-0.224,0.063-0.36v-2.366h0.704V103.968z"/>
		<path d="M268.281,99.354h0.704v2.422h0.016c0.248-0.432,0.696-0.704,1.319-0.704c0.96,0,1.632,0.8,1.632,1.967    c0,1.391-0.88,2.079-1.743,2.079c-0.56,0-1-0.216-1.296-0.728h-0.016l-0.04,0.64h-0.607c0.023-0.264,0.031-0.656,0.031-1V99.354z     M268.985,103.48c0,0.088,0.008,0.176,0.024,0.256c0.136,0.488,0.551,0.824,1.055,0.824c0.744,0,1.176-0.6,1.176-1.487    c0-0.784-0.4-1.447-1.151-1.447c-0.479,0-0.928,0.336-1.063,0.864c-0.024,0.088-0.04,0.184-0.04,0.296V103.48z"/>
		<path d="M272.834,99.354h0.703v5.677h-0.703V99.354z"/>
		<path d="M275.058,100.506c-0.256,0-0.424-0.2-0.424-0.432c0-0.248,0.176-0.439,0.439-0.439c0.256,0,0.432,0.192,0.432,0.439    c0,0.232-0.168,0.432-0.439,0.432H275.058z M274.722,105.031v-3.87h0.703v3.87H274.722z"/>
		<path d="M279.353,104.887c-0.185,0.088-0.592,0.224-1.111,0.224c-1.168,0-1.928-0.792-1.928-1.975    c0-1.191,0.816-2.063,2.079-2.063c0.416,0,0.784,0.104,0.976,0.208l-0.16,0.536c-0.168-0.088-0.432-0.184-0.815-0.184    c-0.888,0-1.367,0.664-1.367,1.463c0,0.896,0.576,1.447,1.344,1.447c0.399,0,0.663-0.096,0.863-0.184L279.353,104.887z"/>
		<path d="M282.904,104.104c0,0.335,0.016,0.664,0.056,0.927h-0.632l-0.063-0.488h-0.024c-0.208,0.304-0.631,0.576-1.183,0.576    c-0.784,0-1.184-0.552-1.184-1.111c0-0.936,0.831-1.447,2.326-1.439v-0.08c0-0.32-0.088-0.904-0.879-0.896    c-0.368,0-0.744,0.104-1.016,0.288l-0.16-0.472c0.32-0.2,0.792-0.336,1.279-0.336c1.191,0,1.479,0.808,1.479,1.583V104.104z     M282.217,103.056c-0.768-0.016-1.64,0.12-1.64,0.872c0,0.464,0.304,0.672,0.656,0.672c0.512,0,0.839-0.32,0.951-0.648    c0.024-0.072,0.032-0.152,0.032-0.224V103.056z"/>
		<path d="M284.033,102.209c0-0.408-0.008-0.728-0.031-1.047h0.623l0.04,0.631h0.017c0.191-0.36,0.64-0.72,1.279-0.72    c0.535,0,1.367,0.32,1.367,1.647v2.311h-0.704V102.8c0-0.624-0.231-1.151-0.896-1.151c-0.455,0-0.815,0.328-0.943,0.72    c-0.032,0.088-0.048,0.216-0.048,0.328v2.334h-0.704V102.209z"/>
		<path d="M288.378,104.312c0.216,0.128,0.583,0.272,0.936,0.272c0.503,0,0.743-0.248,0.743-0.576c0-0.336-0.2-0.512-0.712-0.704    c-0.703-0.256-1.031-0.64-1.031-1.095c0-0.624,0.512-1.136,1.336-1.136c0.392,0,0.735,0.104,0.943,0.24l-0.168,0.503    c-0.152-0.088-0.432-0.224-0.792-0.224c-0.416,0-0.64,0.24-0.64,0.527c0,0.32,0.224,0.464,0.728,0.664    c0.664,0.248,1.016,0.583,1.016,1.159c0,0.688-0.536,1.167-1.439,1.167c-0.424,0-0.815-0.111-1.087-0.272L288.378,104.312z"/>
		<path d="M251.026,111.715c0.432-0.064,0.936-0.112,1.487-0.112c0.999,0,1.711,0.231,2.183,0.672    c0.487,0.439,0.768,1.063,0.768,1.935c0,0.88-0.28,1.6-0.775,2.095c-0.512,0.504-1.344,0.775-2.391,0.775    c-0.504,0-0.912-0.016-1.271-0.063V111.715z M251.729,116.488c0.176,0.031,0.432,0.031,0.704,0.031    c1.487,0.008,2.295-0.831,2.295-2.286c0.008-1.271-0.712-2.079-2.184-2.079c-0.359,0-0.631,0.032-0.815,0.072V116.488z"/>
		<path d="M256.738,115.225c0.016,0.943,0.615,1.335,1.319,1.335c0.504,0,0.815-0.088,1.071-0.199l0.128,0.503    c-0.248,0.112-0.68,0.248-1.295,0.248c-1.184,0-1.903-0.791-1.903-1.951c0-1.167,0.695-2.087,1.823-2.087    c1.263,0,1.591,1.112,1.591,1.823c0,0.145-0.008,0.248-0.024,0.328H256.738z M258.793,114.721    c0.008-0.447-0.184-1.144-0.968-1.144c-0.72,0-1.023,0.656-1.079,1.144H258.793z"/>
		<path d="M260.346,114.209c0-0.407-0.016-0.728-0.031-1.047h0.615l0.032,0.623h0.023c0.217-0.367,0.576-0.712,1.224-0.712    c0.52,0,0.92,0.32,1.088,0.776h0.016c0.12-0.225,0.28-0.384,0.439-0.504c0.232-0.176,0.48-0.272,0.848-0.272    c0.52,0,1.279,0.336,1.279,1.68v2.278h-0.688v-2.19c0-0.752-0.279-1.191-0.84-1.191c-0.407,0-0.711,0.296-0.839,0.632    c-0.032,0.104-0.057,0.231-0.057,0.352v2.398h-0.688v-2.326c0-0.616-0.271-1.056-0.808-1.056c-0.432,0-0.759,0.352-0.871,0.703    c-0.04,0.104-0.056,0.225-0.056,0.345v2.334h-0.688V114.209z"/>
		<path d="M268.593,117.119c-1.039,0-1.854-0.768-1.854-1.99c0-1.296,0.855-2.056,1.919-2.056c1.111,0,1.863,0.808,1.863,1.983    c0,1.439-1,2.062-1.919,2.062H268.593z M268.625,116.592c0.672,0,1.176-0.632,1.176-1.511c0-0.656-0.328-1.479-1.159-1.479    c-0.824,0-1.184,0.768-1.184,1.503c0,0.848,0.479,1.487,1.159,1.487H268.625z"/>
		<path d="M274.169,116.888c-0.185,0.088-0.592,0.224-1.111,0.224c-1.168,0-1.928-0.791-1.928-1.975    c0-1.191,0.816-2.063,2.079-2.063c0.416,0,0.784,0.104,0.976,0.208l-0.16,0.536c-0.168-0.088-0.432-0.184-0.815-0.184    c-0.888,0-1.367,0.663-1.367,1.463c0,0.896,0.576,1.447,1.344,1.447c0.399,0,0.663-0.096,0.863-0.184L274.169,116.888z"/>
		<path d="M274.994,114.369c0-0.456-0.008-0.848-0.032-1.207h0.616l0.031,0.759h0.024c0.176-0.52,0.607-0.848,1.079-0.848    c0.072,0,0.128,0.009,0.192,0.017v0.663c-0.072-0.008-0.145-0.016-0.24-0.016c-0.495,0-0.848,0.376-0.943,0.896    c-0.016,0.104-0.024,0.216-0.024,0.328v2.07h-0.703V114.369z"/>
		<path d="M280.336,116.104c0,0.335,0.017,0.663,0.057,0.927h-0.632l-0.064-0.487h-0.023c-0.208,0.304-0.632,0.575-1.184,0.575    c-0.783,0-1.184-0.552-1.184-1.111c0-0.936,0.832-1.447,2.327-1.438v-0.08c0-0.32-0.088-0.904-0.88-0.896    c-0.367,0-0.743,0.104-1.016,0.287l-0.159-0.472c0.319-0.199,0.791-0.336,1.279-0.336c1.191,0,1.479,0.808,1.479,1.584V116.104z     M279.648,115.057c-0.768-0.016-1.639,0.12-1.639,0.871c0,0.464,0.304,0.672,0.655,0.672c0.512,0,0.84-0.319,0.952-0.647    c0.023-0.072,0.031-0.152,0.031-0.224V115.057z"/>
		<path d="M282.313,112.234v0.928h1.007v0.535h-1.007v2.079c0,0.479,0.136,0.751,0.527,0.751c0.192,0,0.304-0.016,0.408-0.048    l0.032,0.536c-0.137,0.048-0.353,0.096-0.624,0.096c-0.328,0-0.592-0.111-0.76-0.296c-0.191-0.216-0.271-0.56-0.271-1.016v-2.103    h-0.6v-0.535h0.6v-0.712L282.313,112.234z"/>
		<path d="M284.018,116.312c0.216,0.128,0.584,0.272,0.936,0.272c0.504,0,0.744-0.248,0.744-0.576c0-0.336-0.2-0.512-0.712-0.703    c-0.704-0.256-1.031-0.64-1.031-1.096c0-0.624,0.512-1.136,1.335-1.136c0.392,0,0.735,0.104,0.943,0.24l-0.168,0.504    c-0.151-0.088-0.432-0.224-0.791-0.224c-0.416,0-0.64,0.239-0.64,0.527c0,0.32,0.224,0.464,0.728,0.664    c0.663,0.247,1.016,0.583,1.016,1.159c0,0.688-0.536,1.167-1.439,1.167c-0.424,0-0.815-0.111-1.088-0.271L284.018,116.312z"/>
	</g>
	
		<line fill="none" stroke="#000000" stroke-width="0.5" stroke-linejoin="round" stroke-miterlimit="10" x1="31.623" y1="134.458" x2="31.623" y2="2.192"/>
	
		<line fill="none" stroke="#000000" stroke-width="0.5" stroke-linejoin="round" stroke-miterlimit="10" x1="31.623" y1="15.439" x2="28.623" y2="15.439"/>
	
		<line fill="none" stroke="#000000" stroke-width="0.5" stroke-linejoin="round" stroke-miterlimit="10" x1="31.623" y1="28.663" x2="28.623" y2="28.663"/>
	
		<line fill="none" stroke="#A7A9AC" stroke-width="0.5" stroke-linejoin="round" stroke-miterlimit="10" x1="302.521" y1="2.192" x2="31.546" y2="2.192"/>
	
		<line fill="none" stroke="#000000" stroke-width="0.5" stroke-linejoin="round" stroke-miterlimit="10" x1="31.623" y1="2.174" x2="28.623" y2="2.174"/>
	
		<line fill="none" stroke="#000000" stroke-width="0.5" stroke-linejoin="round" stroke-miterlimit="10" x1="31.623" y1="41.887" x2="28.623" y2="41.887"/>
	
		<line fill="none" stroke="#000000" stroke-width="0.5" stroke-linejoin="round" stroke-miterlimit="10" x1="31.623" y1="55.112" x2="28.623" y2="55.112"/>
	
		<line fill="none" stroke="#000000" stroke-width="0.5" stroke-linejoin="round" stroke-miterlimit="10" x1="31.623" y1="68.336" x2="28.623" y2="68.336"/>
	
		<line fill="none" stroke="#000000" stroke-width="0.5" stroke-linejoin="round" stroke-miterlimit="10" x1="31.623" y1="81.56" x2="28.623" y2="81.56"/>
	
		<line fill="none" stroke="#000000" stroke-width="0.5" stroke-linejoin="round" stroke-miterlimit="10" x1="31.623" y1="94.784" x2="28.623" y2="94.784"/>
	
		<line fill="none" stroke="#000000" stroke-width="0.5" stroke-linejoin="round" stroke-miterlimit="10" x1="31.623" y1="108.009" x2="28.623" y2="108.009"/>
	
		<line fill="none" stroke="#000000" stroke-width="0.5" stroke-linejoin="round" stroke-miterlimit="10" x1="31.623" y1="121.233" x2="28.623" y2="121.233"/>
	
		<line fill="none" stroke="#000000" stroke-width="0.5" stroke-linejoin="round" stroke-miterlimit="10" x1="31.623" y1="134.458" x2="28.623" y2="134.458"/>
	
		<line fill="none" stroke="#000000" stroke-width="0.5" stroke-linejoin="round" stroke-miterlimit="10" x1="302.521" y1="134.459" x2="302.521" y2="137.459"/>
	
		<line fill="none" stroke="#000000" stroke-width="0.5" stroke-linejoin="round" stroke-miterlimit="10" x1="272.421" y1="134.459" x2="272.421" y2="137.459"/>
	
		<line fill="none" stroke="#000000" stroke-width="0.5" stroke-linejoin="round" stroke-miterlimit="10" x1="242.321" y1="134.459" x2="242.321" y2="137.459"/>
	
		<line fill="none" stroke="#000000" stroke-width="0.5" stroke-linejoin="round" stroke-miterlimit="10" x1="212.222" y1="134.459" x2="212.222" y2="137.459"/>
	
		<line fill="none" stroke="#000000" stroke-width="0.5" stroke-linejoin="round" stroke-miterlimit="10" x1="182.122" y1="134.459" x2="182.122" y2="137.459"/>
	
		<line fill="none" stroke="#000000" stroke-width="0.5" stroke-linejoin="round" stroke-miterlimit="10" x1="152.022" y1="134.459" x2="152.022" y2="137.459"/>
	
		<line fill="none" stroke="#000000" stroke-width="0.5" stroke-linejoin="round" stroke-miterlimit="10" x1="121.922" y1="134.459" x2="121.922" y2="137.459"/>
	
		<line fill="none" stroke="#000000" stroke-width="0.5" stroke-linejoin="round" stroke-miterlimit="10" x1="91.822" y1="134.459" x2="91.822" y2="137.459"/>
	
		<line fill="none" stroke="#000000" stroke-width="0.5" stroke-linejoin="round" stroke-miterlimit="10" x1="61.723" y1="134.459" x2="61.723" y2="137.459"/>
	
		<line fill="none" stroke="#000000" stroke-width="0.5" stroke-linejoin="round" stroke-miterlimit="10" x1="31.623" y1="134.459" x2="31.623" y2="137.459"/>
	
		<line fill="none" stroke="#000000" stroke-linejoin="round" stroke-miterlimit="10" stroke-dasharray="3,2" x1="229.19" y1="102.375" x2="247.19" y2="102.375"/>
	
		<line fill="none" stroke="#000000" stroke-linejoin="round" stroke-miterlimit="10" x1="229.19" y1="114.375" x2="247.19" y2="114.375"/>
	<circle cx="238.19" cy="102.375" r="1.75"/>
	<circle cx="238.19" cy="114.375" r="1.75"/>
	
		<line fill="none" stroke="#000000" stroke-width="0.5" stroke-linejoin="round" stroke-miterlimit="10" x1="59.04" y1="44.576" x2="64.44" y2="44.576"/>
	
		<line fill="none" stroke="#000000" stroke-width="0.5" stroke-linejoin="round" stroke-miterlimit="10" x1="59.04" y1="60.136" x2="64.44" y2="60.136"/>
	
		<line fill="none" stroke="#000000" stroke-width="0.5" stroke-linejoin="round" stroke-miterlimit="10" x1="61.849" y1="52.397" x2="61.849" y2="44.576"/>
	
		<line fill="none" stroke="#000000" stroke-width="0.5" stroke-linejoin="round" stroke-miterlimit="10" x1="61.849" y1="60.136" x2="61.849" y2="52.397"/>
	
		<line fill="none" stroke="#000000" stroke-width="0.5" stroke-linejoin="round" stroke-miterlimit="10" x1="89.068" y1="48.487" x2="94.469" y2="48.487"/>
	
		<line fill="none" stroke="#000000" stroke-width="0.5" stroke-linejoin="round" stroke-miterlimit="10" x1="89.068" y1="58.78" x2="94.469" y2="58.78"/>
	
		<line fill="none" stroke="#000000" stroke-width="0.5" stroke-linejoin="round" stroke-miterlimit="10" x1="91.877" y1="53.634" x2="91.877" y2="48.487"/>
	
		<line fill="none" stroke="#000000" stroke-width="0.5" stroke-linejoin="round" stroke-miterlimit="10" x1="91.877" y1="58.78" x2="91.877" y2="53.634"/>
	
		<line fill="none" stroke="#000000" stroke-width="0.5" stroke-linejoin="round" stroke-miterlimit="10" x1="119.312" y1="64.338" x2="124.668" y2="64.338"/>
	
		<line fill="none" stroke="#000000" stroke-width="0.5" stroke-linejoin="round" stroke-miterlimit="10" x1="119.312" y1="79.943" x2="124.668" y2="79.943"/>
	
		<line fill="none" stroke="#000000" stroke-width="0.5" stroke-linejoin="round" stroke-miterlimit="10" x1="121.904" y1="72.16" x2="121.904" y2="64.338"/>
	
		<line fill="none" stroke="#000000" stroke-width="0.5" stroke-linejoin="round" stroke-miterlimit="10" x1="121.904" y1="79.943" x2="121.904" y2="72.16"/>
	
		<line fill="none" stroke="#000000" stroke-width="0.5" stroke-linejoin="round" stroke-miterlimit="10" x1="149.34" y1="84.1" x2="154.741" y2="84.1"/>
	
		<line fill="none" stroke="#000000" stroke-width="0.5" stroke-linejoin="round" stroke-miterlimit="10" x1="149.34" y1="94.521" x2="154.741" y2="94.521"/>
	
		<line fill="none" stroke="#000000" stroke-width="0.5" stroke-linejoin="round" stroke-miterlimit="10" x1="152.149" y1="89.246" x2="152.149" y2="84.1"/>
	
		<line fill="none" stroke="#000000" stroke-width="0.5" stroke-linejoin="round" stroke-miterlimit="10" x1="152.149" y1="94.521" x2="152.149" y2="89.246"/>
	
		<line fill="none" stroke="#000000" stroke-width="0.5" stroke-linejoin="round" stroke-miterlimit="10" x1="239.641" y1="61.661" x2="245.039" y2="61.661"/>
	
		<line fill="none" stroke="#000000" stroke-width="0.5" stroke-linejoin="round" stroke-miterlimit="10" x1="239.641" y1="72.073" x2="245.039" y2="72.073"/>
	
		<line fill="none" stroke="#000000" stroke-width="0.5" stroke-linejoin="round" stroke-miterlimit="10" x1="242.234" y1="66.808" x2="242.234" y2="61.661"/>
	
		<line fill="none" stroke="#000000" stroke-width="0.5" stroke-linejoin="round" stroke-miterlimit="10" x1="242.234" y1="72.073" x2="242.234" y2="66.808"/>
	
		<line fill="none" stroke="#000000" stroke-width="0.5" stroke-linejoin="round" stroke-miterlimit="10" x1="254.763" y1="37.988" x2="260.083" y2="37.988"/>
	
		<line fill="none" stroke="#000000" stroke-width="0.5" stroke-linejoin="round" stroke-miterlimit="10" x1="254.763" y1="48.281" x2="260.083" y2="48.281"/>
	
		<line fill="none" stroke="#000000" stroke-width="0.5" stroke-linejoin="round" stroke-miterlimit="10" x1="257.354" y1="43.135" x2="257.354" y2="37.988"/>
	
		<line fill="none" stroke="#000000" stroke-width="0.5" stroke-linejoin="round" stroke-miterlimit="10" x1="257.354" y1="48.281" x2="257.354" y2="43.135"/>
	
		<line fill="none" stroke="#000000" stroke-width="0.5" stroke-linejoin="round" stroke-miterlimit="10" x1="269.669" y1="22.138" x2="275.069" y2="22.138"/>
	
		<line fill="none" stroke="#000000" stroke-width="0.5" stroke-linejoin="round" stroke-miterlimit="10" x1="269.669" y1="27.229" x2="275.069" y2="27.229"/>
	
		<line fill="none" stroke="#000000" stroke-width="0.5" stroke-linejoin="round" stroke-miterlimit="10" x1="272.478" y1="24.607" x2="272.478" y2="22.138"/>
	
		<line fill="none" stroke="#000000" stroke-width="0.5" stroke-linejoin="round" stroke-miterlimit="10" x1="272.478" y1="27.229" x2="272.478" y2="24.607"/>
	
		<line fill="none" stroke="#000000" stroke-width="0.5" stroke-linejoin="round" stroke-miterlimit="10" x1="284.792" y1="14.109" x2="290.176" y2="14.109"/>
	
		<line fill="none" stroke="#000000" stroke-width="0.5" stroke-linejoin="round" stroke-miterlimit="10" x1="284.792" y1="19.256" x2="290.176" y2="19.256"/>
	
		<line fill="none" stroke="#000000" stroke-width="0.5" stroke-linejoin="round" stroke-miterlimit="10" x1="287.385" y1="16.786" x2="287.385" y2="14.109"/>
	
		<line fill="none" stroke="#000000" stroke-width="0.5" stroke-linejoin="round" stroke-miterlimit="10" x1="287.385" y1="19.256" x2="287.385" y2="16.786"/>
	
		<line fill="none" stroke="#000000" stroke-width="0.5" stroke-linejoin="round" stroke-miterlimit="10" x1="59.04" y1="52.397" x2="64.44" y2="52.397"/>
	
		<line fill="none" stroke="#000000" stroke-width="0.5" stroke-linejoin="round" stroke-miterlimit="10" x1="59.04" y1="62.83" x2="64.44" y2="62.83"/>
	
		<line fill="none" stroke="#000000" stroke-width="0.5" stroke-linejoin="round" stroke-miterlimit="10" x1="61.849" y1="57.75" x2="61.849" y2="52.397"/>
	
		<line fill="none" stroke="#000000" stroke-width="0.5" stroke-linejoin="round" stroke-miterlimit="10" x1="61.849" y1="62.83" x2="61.849" y2="57.75"/>
	
		<line fill="none" stroke="#000000" stroke-width="0.5" stroke-linejoin="round" stroke-miterlimit="10" x1="89.068" y1="58.985" x2="94.469" y2="58.985"/>
	
		<line fill="none" stroke="#000000" stroke-width="0.5" stroke-linejoin="round" stroke-miterlimit="10" x1="89.068" y1="69.432" x2="94.469" y2="69.432"/>
	
		<line fill="none" stroke="#000000" stroke-width="0.5" stroke-linejoin="round" stroke-miterlimit="10" x1="91.877" y1="64.338" x2="91.877" y2="58.985"/>
	
		<line fill="none" stroke="#000000" stroke-width="0.5" stroke-linejoin="round" stroke-miterlimit="10" x1="91.877" y1="69.432" x2="91.877" y2="64.338"/>
	
		<line fill="none" stroke="#000000" stroke-width="0.5" stroke-linejoin="round" stroke-miterlimit="10" x1="119.312" y1="61.867" x2="124.668" y2="61.867"/>
	
		<line fill="none" stroke="#000000" stroke-width="0.5" stroke-linejoin="round" stroke-miterlimit="10" x1="119.312" y1="77.302" x2="124.668" y2="77.302"/>
	
		<line fill="none" stroke="#000000" stroke-width="0.5" stroke-linejoin="round" stroke-miterlimit="10" x1="121.904" y1="69.484" x2="121.904" y2="61.867"/>
	
		<line fill="none" stroke="#000000" stroke-width="0.5" stroke-linejoin="round" stroke-miterlimit="10" x1="121.904" y1="77.302" x2="121.904" y2="69.484"/>
	
		<line fill="none" stroke="#000000" stroke-width="0.5" stroke-linejoin="round" stroke-miterlimit="10" x1="149.34" y1="51.163" x2="154.741" y2="51.163"/>
	
		<line fill="none" stroke="#000000" stroke-width="0.5" stroke-linejoin="round" stroke-miterlimit="10" x1="149.34" y1="61.455" x2="154.741" y2="61.455"/>
	
		<line fill="none" stroke="#000000" stroke-width="0.5" stroke-linejoin="round" stroke-miterlimit="10" x1="152.149" y1="56.31" x2="152.149" y2="51.163"/>
	
		<line fill="none" stroke="#000000" stroke-width="0.5" stroke-linejoin="round" stroke-miterlimit="10" x1="152.149" y1="61.455" x2="152.149" y2="56.31"/>
	
		<line fill="none" stroke="#000000" stroke-width="0.5" stroke-linejoin="round" stroke-miterlimit="10" x1="239.641" y1="39.224" x2="245.039" y2="39.224"/>
	
		<line fill="none" stroke="#000000" stroke-width="0.5" stroke-linejoin="round" stroke-miterlimit="10" x1="239.641" y1="49.625" x2="245.039" y2="49.625"/>
	
		<line fill="none" stroke="#000000" stroke-width="0.5" stroke-linejoin="round" stroke-miterlimit="10" x1="242.234" y1="44.37" x2="242.234" y2="39.224"/>
	
		<line fill="none" stroke="#000000" stroke-width="0.5" stroke-linejoin="round" stroke-miterlimit="10" x1="242.234" y1="49.625" x2="242.234" y2="44.37"/>
	
		<line fill="none" stroke="#000000" stroke-width="0.5" stroke-linejoin="round" stroke-miterlimit="10" x1="254.763" y1="24.607" x2="260.083" y2="24.607"/>
	
		<line fill="none" stroke="#000000" stroke-width="0.5" stroke-linejoin="round" stroke-miterlimit="10" x1="254.763" y1="29.869" x2="260.083" y2="29.869"/>
	
		<line fill="none" stroke="#000000" stroke-width="0.5" stroke-linejoin="round" stroke-miterlimit="10" x1="257.354" y1="27.284" x2="257.354" y2="24.607"/>
	
		<line fill="none" stroke="#000000" stroke-width="0.5" stroke-linejoin="round" stroke-miterlimit="10" x1="257.354" y1="29.869" x2="257.354" y2="27.284"/>
	
		<line fill="none" stroke="#000000" stroke-width="0.5" stroke-linejoin="round" stroke-miterlimit="10" x1="269.669" y1="16.785" x2="275.069" y2="16.785"/>
	
		<line fill="none" stroke="#000000" stroke-width="0.5" stroke-linejoin="round" stroke-miterlimit="10" x1="269.669" y1="21.932" x2="275.069" y2="21.932"/>
	
		<line fill="none" stroke="#000000" stroke-width="0.5" stroke-linejoin="round" stroke-miterlimit="10" x1="272.478" y1="19.462" x2="272.478" y2="16.785"/>
	
		<line fill="none" stroke="#000000" stroke-width="0.5" stroke-linejoin="round" stroke-miterlimit="10" x1="272.478" y1="21.932" x2="272.478" y2="19.462"/>
	
		<line fill="none" stroke="#000000" stroke-width="0.5" stroke-linejoin="round" stroke-miterlimit="10" x1="284.792" y1="12.874" x2="290.176" y2="12.874"/>
	
		<line fill="none" stroke="#000000" stroke-width="0.5" stroke-linejoin="round" stroke-miterlimit="10" x1="284.792" y1="17.985" x2="290.176" y2="17.985"/>
	
		<line fill="none" stroke="#000000" stroke-width="0.5" stroke-linejoin="round" stroke-miterlimit="10" x1="287.385" y1="15.345" x2="287.385" y2="12.874"/>
	
		<line fill="none" stroke="#000000" stroke-width="0.5" stroke-linejoin="round" stroke-miterlimit="10" x1="287.385" y1="17.985" x2="287.385" y2="15.345"/>
	<g>
		<g>
			<line fill="none" stroke="#000000" stroke-linejoin="round" x1="61.849" y1="52.397" x2="63.348" y2="52.459"/>
			<polyline fill="none" stroke="#000000" stroke-linejoin="round" stroke-dasharray="3.0205,2.0136" points="65.359,52.542      91.877,53.634 121.904,72.16 152.149,89.246 242.234,66.808 257.354,43.135 272.478,24.607 285.165,17.95    "/>
			<line fill="none" stroke="#000000" stroke-linejoin="round" x1="286.057" y1="17.482" x2="287.385" y2="16.785"/>
		</g>
	</g>
	<polyline fill="none" stroke="#000000" stroke-linejoin="round" stroke-miterlimit="10" points="61.849,57.75 91.877,64.338    121.904,69.483 152.149,56.31 242.234,44.37 257.354,27.284 272.478,19.462 287.385,15.345  "/>
	<circle cx="61.849" cy="52.397" r="1.75"/>
	<circle cx="61.849" cy="57.75" r="1.75"/>
	<circle cx="91.877" cy="53.634" r="1.75"/>
	<circle cx="91.877" cy="64.338" r="1.75"/>
	<circle cx="121.904" cy="72.16" r="1.75"/>
	<circle cx="121.904" cy="69.432" r="1.75"/>
	<circle cx="151.983" cy="88.893" r="1.75"/>
	<circle cx="257.354" cy="27.284" r="1.75"/>
	<circle cx="257.354" cy="43.135" r="1.75"/>
	<circle cx="242.234" cy="66.808" r="1.75"/>
	<circle cx="242.234" cy="44.37" r="1.75"/>
	<circle cx="272.478" cy="19.462" r="1.75"/>
	<circle cx="287.385" cy="15.345" r="1.75"/>
	<circle cx="287.385" cy="16.786" r="1.75"/>
	<circle cx="272.478" cy="24.607" r="1.75"/>
	<circle cx="152.149" cy="56.31" r="1.75"/>
</g>
</svg>