<svg xmlns="http://www.w3.org/2000/svg" xmlns:xlink="http://www.w3.org/1999/xlink" version="1.1" x="0px" y="0px" width="260.556px" height="114.208px" viewBox="0 0 260.556 114.208" enable-background="new 0 0 260.556 114.208" xml:space="preserve">
<g id="wide" display="none">
</g>
<g id="text_column">
</g>
<g id="art">
	
		<rect x="178.403" y="43.039" fill="#CCCCCC" stroke="#000000" stroke-width="0.5" stroke-linejoin="round" stroke-miterlimit="10" width="6" height="5.999"/>
	<g>
		<path d="M189.407,48.212l-1.767-5.389h0.76l0.839,2.655c0.224,0.728,0.424,1.391,0.575,2.015h0.017    c0.151-0.624,0.368-1.303,0.616-2.007l0.91-2.663h0.744l-1.927,5.389H189.407z"/>
		<path d="M193,43.687c-0.256,0-0.424-0.2-0.424-0.432c0-0.248,0.176-0.44,0.439-0.44c0.256,0,0.432,0.192,0.432,0.44    c0,0.231-0.168,0.432-0.439,0.432H193z M192.664,48.212v-3.87h0.703v3.87H192.664z"/>
		<path d="M194.807,44.342l0.76,2.167c0.128,0.36,0.231,0.68,0.312,1h0.023c0.089-0.32,0.201-0.64,0.328-1l0.752-2.167h0.736    l-1.52,3.87h-0.672l-1.471-3.87H194.807z"/>
		<path d="M198.719,43.687c-0.256,0-0.424-0.2-0.424-0.432c0-0.248,0.177-0.44,0.44-0.44c0.256,0,0.432,0.192,0.432,0.44    c0,0.231-0.168,0.432-0.439,0.432H198.719z M198.383,48.212v-3.87h0.704v3.87H198.383z"/>
		<path d="M203.597,42.536v4.677c0,0.344,0.008,0.736,0.032,1h-0.632l-0.031-0.672h-0.017c-0.216,0.432-0.68,0.76-1.312,0.76    c-0.936,0-1.663-0.792-1.663-1.967c-0.008-1.295,0.8-2.079,1.735-2.079c0.6,0,1,0.28,1.167,0.584h0.017v-2.303H203.597z     M202.894,45.917c0-0.096-0.008-0.208-0.032-0.304c-0.104-0.439-0.487-0.808-1.016-0.808c-0.728,0-1.159,0.64-1.159,1.487    c0,0.792,0.392,1.439,1.143,1.439c0.473,0,0.904-0.32,1.032-0.848c0.024-0.088,0.032-0.184,0.032-0.296V45.917z"/>
		<path d="M204.767,45.39c0-0.408-0.008-0.728-0.031-1.048h0.623l0.04,0.632h0.017c0.191-0.36,0.639-0.72,1.279-0.72    c0.535,0,1.367,0.32,1.367,1.647v2.311h-0.704v-2.231c0-0.624-0.231-1.151-0.896-1.151c-0.455,0-0.815,0.328-0.943,0.72    c-0.032,0.088-0.049,0.216-0.049,0.328v2.335h-0.703V45.39z"/>
		<path d="M209.607,46.405c0.016,0.944,0.615,1.335,1.319,1.335c0.504,0,0.815-0.088,1.071-0.2l0.128,0.504    c-0.247,0.112-0.68,0.248-1.296,0.248c-1.183,0-1.902-0.792-1.902-1.951c0-1.167,0.695-2.087,1.823-2.087    c1.263,0,1.591,1.111,1.591,1.823c0,0.144-0.008,0.248-0.023,0.328H209.607z M211.662,45.902c0.008-0.448-0.184-1.144-0.967-1.144    c-0.721,0-1.023,0.656-1.08,1.144H211.662z"/>
		<path d="M213.119,47.493c0.217,0.128,0.584,0.272,0.936,0.272c0.504,0,0.744-0.248,0.744-0.576c0-0.336-0.2-0.512-0.712-0.704    c-0.704-0.256-1.031-0.64-1.031-1.095c0-0.624,0.512-1.136,1.335-1.136c0.393,0,0.736,0.104,0.943,0.24l-0.168,0.503    c-0.151-0.088-0.432-0.224-0.791-0.224c-0.416,0-0.64,0.24-0.64,0.528c0,0.319,0.224,0.463,0.728,0.664    c0.664,0.248,1.016,0.583,1.016,1.159c0,0.688-0.536,1.167-1.439,1.167c-0.424,0-0.815-0.112-1.088-0.272L213.119,47.493z"/>
		<path d="M216.287,47.493c0.217,0.128,0.584,0.272,0.936,0.272c0.504,0,0.744-0.248,0.744-0.576c0-0.336-0.2-0.512-0.712-0.704    c-0.704-0.256-1.031-0.64-1.031-1.095c0-0.624,0.512-1.136,1.335-1.136c0.393,0,0.736,0.104,0.943,0.24l-0.168,0.503    c-0.151-0.088-0.432-0.224-0.791-0.224c-0.416,0-0.64,0.24-0.64,0.528c0,0.319,0.224,0.463,0.728,0.664    c0.664,0.248,1.016,0.583,1.016,1.159c0,0.688-0.536,1.167-1.439,1.167c-0.424,0-0.815-0.112-1.088-0.272L216.287,47.493z"/>
		<path d="M222.822,48.3c-1.039,0-1.855-0.768-1.855-1.991c0-1.295,0.855-2.055,1.92-2.055c1.111,0,1.863,0.808,1.863,1.983    c0,1.439-1,2.063-1.92,2.063H222.822z M222.853,47.772c0.672,0,1.176-0.631,1.176-1.511c0-0.655-0.328-1.479-1.158-1.479    c-0.824,0-1.184,0.768-1.184,1.503c0,0.847,0.479,1.487,1.158,1.487H222.853z"/>
		<path d="M225.703,48.212v-3.334h-0.535v-0.536h0.535v-0.184c0-0.544,0.127-1.04,0.455-1.352c0.264-0.256,0.615-0.359,0.936-0.359    c0.256,0,0.465,0.056,0.6,0.112l-0.088,0.543c-0.111-0.048-0.248-0.088-0.455-0.088c-0.592,0-0.752,0.528-0.752,1.12v0.208h0.936    v0.536h-0.928v3.334H225.703z"/>
		<path d="M230.519,43.415v0.927h1.006v0.536h-1.006v2.079c0,0.48,0.135,0.751,0.527,0.751c0.191,0,0.303-0.016,0.406-0.048    l0.033,0.536c-0.137,0.048-0.352,0.096-0.623,0.096c-0.328,0-0.592-0.112-0.76-0.296c-0.193-0.216-0.273-0.56-0.273-1.016v-2.103    h-0.6v-0.536h0.6v-0.711L230.519,43.415z"/>
		<path d="M232.32,42.536h0.703v2.415h0.016c0.111-0.2,0.287-0.384,0.504-0.496c0.207-0.128,0.455-0.2,0.719-0.2    c0.52,0,1.352,0.32,1.352,1.655v2.303h-0.703v-2.231c0-0.624-0.232-1.143-0.896-1.143c-0.455,0-0.807,0.32-0.943,0.704    c-0.039,0.096-0.047,0.2-0.047,0.335v2.335h-0.703V42.536z"/>
		<path d="M237.158,46.405c0.016,0.944,0.615,1.335,1.32,1.335c0.504,0,0.814-0.088,1.07-0.2l0.129,0.504    c-0.248,0.112-0.68,0.248-1.295,0.248c-1.184,0-1.904-0.792-1.904-1.951c0-1.167,0.695-2.087,1.824-2.087    c1.262,0,1.59,1.111,1.59,1.823c0,0.144-0.008,0.248-0.023,0.328H237.158z M239.212,45.902c0.008-0.448-0.184-1.144-0.967-1.144    c-0.719,0-1.023,0.656-1.08,1.144H239.212z"/>
		<path d="M242.462,45.39c0-0.408-0.016-0.728-0.031-1.048h0.615l0.031,0.624h0.025c0.215-0.368,0.574-0.712,1.223-0.712    c0.52,0,0.92,0.32,1.088,0.776h0.016c0.119-0.224,0.279-0.384,0.439-0.504c0.232-0.176,0.48-0.272,0.848-0.272    c0.52,0,1.279,0.336,1.279,1.679v2.279h-0.688v-2.191c0-0.751-0.279-1.191-0.84-1.191c-0.408,0-0.711,0.296-0.84,0.632    c-0.031,0.104-0.055,0.232-0.055,0.352v2.398h-0.689v-2.327c0-0.616-0.271-1.056-0.807-1.056c-0.432,0-0.76,0.352-0.871,0.704    c-0.041,0.104-0.057,0.224-0.057,0.344v2.335h-0.688V45.39z"/>
		<path d="M251.861,47.285c0,0.336,0.016,0.664,0.057,0.928h-0.633l-0.062-0.488h-0.025c-0.207,0.304-0.631,0.576-1.184,0.576    c-0.783,0-1.182-0.552-1.182-1.111c0-0.936,0.83-1.447,2.326-1.439v-0.08c0-0.32-0.088-0.904-0.881-0.896    c-0.367,0-0.742,0.104-1.014,0.288l-0.16-0.472c0.318-0.2,0.791-0.336,1.279-0.336c1.191,0,1.479,0.808,1.479,1.583V47.285z     M251.173,46.237c-0.768-0.016-1.639,0.12-1.639,0.872c0,0.464,0.303,0.672,0.654,0.672c0.512,0,0.84-0.32,0.953-0.648    c0.023-0.072,0.031-0.152,0.031-0.224V46.237z"/>
		<path d="M252.99,45.39c0-0.408-0.008-0.728-0.031-1.048h0.623l0.039,0.632h0.018c0.191-0.36,0.639-0.72,1.279-0.72    c0.535,0,1.367,0.32,1.367,1.647v2.311h-0.705v-2.231c0-0.624-0.23-1.151-0.895-1.151c-0.455,0-0.816,0.328-0.943,0.72    c-0.031,0.088-0.049,0.216-0.049,0.328v2.335h-0.703V45.39z"/>
		<path d="M257.687,44.342l0.838,2.287c0.098,0.256,0.193,0.56,0.256,0.792h0.018c0.07-0.232,0.15-0.528,0.248-0.808l0.768-2.271    h0.742l-1.055,2.759c-0.504,1.327-0.848,1.999-1.328,2.423c-0.352,0.295-0.688,0.416-0.863,0.447l-0.176-0.583    c0.176-0.056,0.408-0.168,0.615-0.344c0.193-0.152,0.424-0.424,0.592-0.784c0.033-0.072,0.057-0.128,0.057-0.168    s-0.016-0.096-0.057-0.184l-1.422-3.566H257.687z"/>
	</g>
	
		<rect x="178.174" y="56.038" fill="#666666" stroke="#000000" stroke-width="0.5" stroke-linejoin="round" stroke-miterlimit="10" width="6" height="6"/>
	<g>
		<path d="M189.226,61.212l-1.767-5.389h0.759l0.84,2.655c0.224,0.728,0.424,1.391,0.576,2.015h0.016    c0.151-0.624,0.368-1.303,0.615-2.007l0.912-2.663h0.743l-1.927,5.389H189.226z"/>
		<path d="M192.819,56.687c-0.256,0-0.424-0.2-0.424-0.432c0-0.248,0.176-0.44,0.439-0.44c0.256,0,0.432,0.192,0.432,0.44    c0,0.231-0.168,0.432-0.439,0.432H192.819z M192.483,61.212v-3.87h0.703v3.87H192.483z"/>
		<path d="M194.626,57.342l0.76,2.167c0.128,0.36,0.231,0.68,0.312,1h0.024c0.088-0.32,0.199-0.64,0.327-1l0.752-2.167h0.735    l-1.519,3.87h-0.672l-1.472-3.87H194.626z"/>
		<path d="M198.539,56.687c-0.256,0-0.424-0.2-0.424-0.432c0-0.248,0.176-0.44,0.439-0.44c0.256,0,0.432,0.192,0.432,0.44    c0,0.231-0.168,0.432-0.439,0.432H198.539z M198.203,61.212v-3.87h0.703v3.87H198.203z"/>
		<path d="M203.417,55.536v4.677c0,0.344,0.008,0.736,0.032,1h-0.632l-0.032-0.672h-0.016c-0.216,0.432-0.68,0.76-1.312,0.76    c-0.936,0-1.663-0.792-1.663-1.967c-0.008-1.295,0.8-2.079,1.735-2.079c0.6,0,0.999,0.28,1.167,0.584h0.017v-2.303H203.417z     M202.713,58.917c0-0.096-0.009-0.208-0.032-0.304c-0.104-0.439-0.488-0.808-1.016-0.808c-0.728,0-1.159,0.64-1.159,1.487    c0,0.792,0.392,1.439,1.144,1.439c0.472,0,0.903-0.32,1.031-0.848c0.023-0.088,0.032-0.184,0.032-0.296V58.917z"/>
		<path d="M204.586,58.39c0-0.408-0.008-0.728-0.032-1.048h0.624l0.039,0.632h0.017c0.191-0.36,0.64-0.72,1.279-0.72    c0.535,0,1.367,0.32,1.367,1.647v2.311h-0.704v-2.231c0-0.624-0.231-1.151-0.896-1.151c-0.455,0-0.815,0.328-0.943,0.72    c-0.031,0.088-0.048,0.216-0.048,0.328v2.335h-0.703V58.39z"/>
		<path d="M209.426,59.405c0.016,0.944,0.615,1.335,1.319,1.335c0.504,0,0.815-0.088,1.071-0.2l0.128,0.504    c-0.248,0.112-0.68,0.248-1.295,0.248c-1.184,0-1.903-0.792-1.903-1.951c0-1.167,0.695-2.087,1.823-2.087    c1.263,0,1.591,1.111,1.591,1.823c0,0.144-0.008,0.248-0.023,0.328H209.426z M211.481,58.902c0.008-0.448-0.184-1.144-0.967-1.144    c-0.72,0-1.023,0.656-1.08,1.144H211.481z"/>
		<path d="M212.938,60.493c0.217,0.128,0.584,0.272,0.936,0.272c0.504,0,0.744-0.248,0.744-0.576c0-0.336-0.2-0.512-0.712-0.704    c-0.703-0.256-1.031-0.64-1.031-1.095c0-0.624,0.512-1.136,1.335-1.136c0.392,0,0.736,0.104,0.943,0.24l-0.168,0.503    c-0.151-0.088-0.432-0.224-0.791-0.224c-0.416,0-0.64,0.24-0.64,0.528c0,0.319,0.224,0.463,0.728,0.664    c0.664,0.248,1.016,0.583,1.016,1.159c0,0.688-0.536,1.167-1.439,1.167c-0.424,0-0.815-0.112-1.088-0.272L212.938,60.493z"/>
		<path d="M216.106,60.493c0.217,0.128,0.584,0.272,0.936,0.272c0.504,0,0.744-0.248,0.744-0.576c0-0.336-0.2-0.512-0.712-0.704    c-0.703-0.256-1.031-0.64-1.031-1.095c0-0.624,0.512-1.136,1.335-1.136c0.392,0,0.736,0.104,0.943,0.24l-0.168,0.503    c-0.151-0.088-0.432-0.224-0.791-0.224c-0.416,0-0.64,0.24-0.64,0.528c0,0.319,0.224,0.463,0.728,0.664    c0.664,0.248,1.016,0.583,1.016,1.159c0,0.688-0.536,1.167-1.439,1.167c-0.424,0-0.815-0.112-1.088-0.272L216.106,60.493z"/>
		<path d="M222.642,61.3c-1.04,0-1.855-0.768-1.855-1.991c0-1.295,0.855-2.055,1.919-2.055c1.111,0,1.863,0.808,1.863,1.983    c0,1.439-1,2.063-1.919,2.063H222.642z M222.673,60.772c0.672,0,1.176-0.631,1.176-1.511c0-0.655-0.328-1.479-1.159-1.479    c-0.824,0-1.184,0.768-1.184,1.503c0,0.847,0.479,1.487,1.159,1.487H222.673z"/>
		<path d="M225.522,61.212v-3.334h-0.535v-0.536h0.535v-0.184c0-0.544,0.128-1.04,0.456-1.352c0.264-0.256,0.615-0.359,0.936-0.359    c0.256,0,0.464,0.056,0.6,0.112l-0.088,0.543c-0.112-0.048-0.248-0.088-0.456-0.088c-0.592,0-0.752,0.528-0.752,1.12v0.208h0.936    v0.536h-0.927v3.334H225.522z"/>
		<path d="M230.338,56.415v0.927h1.007v0.536h-1.007v2.079c0,0.48,0.136,0.751,0.527,0.751c0.191,0,0.304-0.016,0.408-0.048    l0.031,0.536c-0.136,0.048-0.352,0.096-0.623,0.096c-0.328,0-0.592-0.112-0.76-0.296c-0.192-0.216-0.272-0.56-0.272-1.016v-2.103    h-0.6v-0.536h0.6v-0.711L230.338,56.415z"/>
		<path d="M232.138,55.536h0.703v2.415h0.017c0.111-0.2,0.287-0.384,0.503-0.496c0.208-0.128,0.456-0.2,0.72-0.2    c0.52,0,1.352,0.32,1.352,1.655v2.303h-0.704v-2.231c0-0.624-0.231-1.143-0.896-1.143c-0.455,0-0.807,0.32-0.943,0.704    c-0.04,0.096-0.048,0.2-0.048,0.335v2.335h-0.703V55.536z"/>
		<path d="M236.978,59.405c0.016,0.944,0.616,1.335,1.319,1.335c0.504,0,0.815-0.088,1.071-0.2l0.128,0.504    c-0.248,0.112-0.68,0.248-1.295,0.248c-1.184,0-1.903-0.792-1.903-1.951c0-1.167,0.695-2.087,1.823-2.087    c1.264,0,1.591,1.111,1.591,1.823c0,0.144-0.008,0.248-0.023,0.328H236.978z M239.033,58.902c0.008-0.448-0.184-1.144-0.967-1.144    c-0.72,0-1.023,0.656-1.08,1.144H239.033z"/>
		<path d="M243.857,61.3c-1.04,0-1.855-0.768-1.855-1.991c0-1.295,0.855-2.055,1.919-2.055c1.111,0,1.863,0.808,1.863,1.983    c0,1.439-1,2.063-1.919,2.063H243.857z M243.888,60.772c0.672,0,1.176-0.631,1.176-1.511c0-0.655-0.328-1.479-1.159-1.479    c-0.824,0-1.184,0.768-1.184,1.503c0,0.847,0.479,1.487,1.159,1.487H243.888z"/>
		<path d="M246.674,58.39c0-0.408-0.008-0.728-0.032-1.048h0.624l0.039,0.632h0.017c0.191-0.36,0.64-0.72,1.279-0.72    c0.535,0,1.367,0.32,1.367,1.647v2.311h-0.704v-2.231c0-0.624-0.231-1.151-0.896-1.151c-0.455,0-0.815,0.328-0.943,0.72    c-0.031,0.088-0.048,0.216-0.048,0.328v2.335h-0.703V58.39z"/>
		<path d="M251.513,59.405c0.016,0.944,0.616,1.335,1.319,1.335c0.504,0,0.815-0.088,1.071-0.2l0.128,0.504    c-0.248,0.112-0.68,0.248-1.295,0.248c-1.184,0-1.903-0.792-1.903-1.951c0-1.167,0.695-2.087,1.823-2.087    c1.264,0,1.591,1.111,1.591,1.823c0,0.144-0.008,0.248-0.023,0.328H251.513z M253.568,58.902c0.008-0.448-0.184-1.144-0.967-1.144    c-0.72,0-1.023,0.656-1.08,1.144H253.568z"/>
	</g>
	
		<line fill="none" stroke="#999999" stroke-width="0.5" stroke-linejoin="round" stroke-miterlimit="10" x1="171.229" y1="0" x2="171.229" y2="103.995"/>
	
		<line fill="none" stroke="#999999" stroke-width="0.5" stroke-linejoin="round" stroke-miterlimit="10" x1="154.647" y1="0" x2="154.647" y2="103.995"/>
	
		<line fill="none" stroke="#999999" stroke-width="0.5" stroke-linejoin="round" stroke-miterlimit="10" x1="138.066" y1="0" x2="138.066" y2="103.995"/>
	
		<line fill="none" stroke="#999999" stroke-width="0.5" stroke-linejoin="round" stroke-miterlimit="10" x1="121.483" y1="0" x2="121.483" y2="103.995"/>
	
		<line fill="none" stroke="#999999" stroke-width="0.5" stroke-linejoin="round" stroke-miterlimit="10" x1="105.104" y1="0" x2="105.104" y2="103.995"/>
	
		<line fill="none" stroke="#999999" stroke-width="0.5" stroke-linejoin="round" stroke-miterlimit="10" x1="88.522" y1="0" x2="88.522" y2="103.995"/>
	
		<line fill="none" stroke="#999999" stroke-width="0.5" stroke-linejoin="round" stroke-miterlimit="10" x1="71.94" y1="0" x2="71.94" y2="103.995"/>
	
		<line fill="none" stroke="#999999" stroke-width="0.5" stroke-linejoin="round" stroke-miterlimit="10" x1="55.358" y1="0" x2="55.358" y2="103.995"/>
	<polyline fill="none" stroke="#000000" stroke-width="0.5" stroke-linejoin="round" stroke-miterlimit="10" points="38.709,0.022    38.709,103.995 171.508,103.995  "/>
	<g>
		<path d="M35.018,109.579h-0.016l-0.904,0.488l-0.136-0.536l1.135-0.608h0.6v5.197h-0.679V109.579z"/>
		<path d="M38.114,114.208c-0.272,0-0.463-0.216-0.463-0.503c0-0.288,0.2-0.504,0.479-0.504s0.472,0.208,0.472,0.504    c0,0.288-0.192,0.503-0.479,0.503H38.114z"/>
		<path d="M40.906,114.208c-1.016,0-1.711-0.952-1.728-2.67c0-1.751,0.76-2.703,1.815-2.703c1.087,0,1.719,0.976,1.719,2.63    c0,1.767-0.664,2.743-1.799,2.743H40.906z M40.945,113.665c0.712,0,1.056-0.84,1.056-2.167c0-1.279-0.32-2.119-1.056-2.119    c-0.64,0-1.055,0.815-1.055,2.119c-0.016,1.351,0.4,2.167,1.047,2.167H40.945z"/>
	</g>
	<g>
		<path d="M51.592,109.579h-0.016l-0.904,0.488l-0.136-0.536l1.135-0.608h0.6v5.197h-0.68V109.579z"/>
		<path d="M54.689,114.208c-0.271,0-0.464-0.216-0.464-0.503c0-0.288,0.2-0.504,0.48-0.504s0.472,0.208,0.472,0.504    c0,0.288-0.192,0.503-0.479,0.503H54.689z"/>
		<path d="M58.927,109.515h-1.983l-0.2,1.335c0.12-0.016,0.232-0.032,0.424-0.032c0.408,0,0.799,0.088,1.119,0.28    c0.408,0.224,0.744,0.68,0.744,1.335c0,1.016-0.808,1.775-1.936,1.775c-0.567,0-1.039-0.16-1.295-0.32l0.176-0.536    c0.216,0.128,0.64,0.288,1.119,0.288c0.656,0,1.231-0.432,1.224-1.135c0-0.664-0.456-1.143-1.487-1.143    c-0.304,0-0.536,0.024-0.728,0.056l0.336-2.495h2.486V109.515z"/>
	</g>
	<g>
		<path d="M66.639,114.12v-0.432l0.552-0.536c1.327-1.264,1.936-1.935,1.936-2.719c0-0.528-0.248-1.016-1.023-1.016    c-0.472,0-0.864,0.24-1.104,0.44l-0.224-0.496c0.352-0.296,0.871-0.528,1.471-0.528c1.111,0,1.583,0.768,1.583,1.511    c0,0.959-0.695,1.735-1.791,2.791l-0.407,0.384v0.016h2.326v0.583H66.639z"/>
		<path d="M71.263,114.208c-0.272,0-0.464-0.216-0.464-0.503c0-0.288,0.199-0.504,0.479-0.504s0.472,0.208,0.472,0.504    c0,0.288-0.191,0.503-0.479,0.503H71.263z"/>
		<path d="M74.054,114.208c-1.016,0-1.711-0.952-1.727-2.67c0-1.751,0.76-2.703,1.814-2.703c1.088,0,1.72,0.976,1.72,2.63    c0,1.767-0.664,2.743-1.8,2.743H74.054z M74.094,113.665c0.712,0,1.056-0.84,1.056-2.167c0-1.279-0.32-2.119-1.056-2.119    c-0.64,0-1.056,0.815-1.056,2.119c-0.016,1.351,0.4,2.167,1.048,2.167H74.094z"/>
	</g>
	<g>
		<path d="M83.213,114.12v-0.432l0.552-0.536c1.327-1.264,1.936-1.935,1.936-2.719c0-0.528-0.248-1.016-1.023-1.016    c-0.472,0-0.864,0.24-1.104,0.44l-0.224-0.496c0.352-0.296,0.871-0.528,1.471-0.528c1.111,0,1.583,0.768,1.583,1.511    c0,0.959-0.695,1.735-1.791,2.791l-0.407,0.384v0.016h2.326v0.583H83.213z"/>
		<path d="M87.837,114.208c-0.272,0-0.464-0.216-0.464-0.503c0-0.288,0.199-0.504,0.479-0.504s0.472,0.208,0.472,0.504    c0,0.288-0.191,0.503-0.479,0.503H87.837z"/>
		<path d="M92.076,109.515h-1.982l-0.2,1.335c0.12-0.016,0.231-0.032,0.424-0.032c0.408,0,0.8,0.088,1.119,0.28    c0.408,0.224,0.744,0.68,0.744,1.335c0,1.016-0.808,1.775-1.936,1.775c-0.567,0-1.039-0.16-1.295-0.32l0.176-0.536    c0.216,0.128,0.64,0.288,1.119,0.288c0.656,0,1.231-0.432,1.224-1.135c0-0.664-0.456-1.143-1.487-1.143    c-0.304,0-0.535,0.024-0.728,0.056l0.336-2.495h2.486V109.515z"/>
	</g>
	<g>
		<path d="M99.958,113.321c0.2,0.12,0.656,0.319,1.151,0.319c0.896,0,1.184-0.567,1.176-1.007c-0.008-0.728-0.664-1.04-1.344-1.04    h-0.392v-0.527h0.392c0.512,0,1.16-0.264,1.16-0.88c0-0.416-0.265-0.783-0.912-0.783c-0.415,0-0.815,0.184-1.039,0.344    l-0.192-0.512c0.28-0.2,0.808-0.4,1.367-0.4c1.023,0,1.487,0.608,1.487,1.239c0,0.544-0.327,1-0.959,1.231v0.016    c0.64,0.12,1.159,0.6,1.159,1.327c0,0.832-0.655,1.559-1.895,1.559c-0.584,0-1.096-0.184-1.352-0.352L99.958,113.321z"/>
		<path d="M104.414,114.208c-0.272,0-0.464-0.216-0.464-0.503c0-0.288,0.199-0.504,0.479-0.504s0.472,0.208,0.472,0.504    c0,0.288-0.191,0.503-0.479,0.503H104.414z"/>
		<path d="M107.205,114.208c-1.016,0-1.711-0.952-1.727-2.67c0-1.751,0.76-2.703,1.814-2.703c1.088,0,1.72,0.976,1.72,2.63    c0,1.767-0.664,2.743-1.8,2.743H107.205z M107.245,113.665c0.712,0,1.056-0.84,1.056-2.167c0-1.279-0.32-2.119-1.056-2.119    c-0.64,0-1.056,0.815-1.056,2.119c-0.016,1.351,0.4,2.167,1.048,2.167H107.245z"/>
	</g>
	<g>
		<path d="M116.532,113.321c0.2,0.12,0.656,0.319,1.151,0.319c0.896,0,1.184-0.567,1.176-1.007c-0.008-0.728-0.664-1.04-1.344-1.04    h-0.392v-0.527h0.392c0.512,0,1.16-0.264,1.16-0.88c0-0.416-0.265-0.783-0.912-0.783c-0.415,0-0.815,0.184-1.039,0.344    l-0.192-0.512c0.28-0.2,0.808-0.4,1.367-0.4c1.023,0,1.487,0.608,1.487,1.239c0,0.544-0.327,1-0.959,1.231v0.016    c0.64,0.12,1.159,0.6,1.159,1.327c0,0.832-0.655,1.559-1.895,1.559c-0.584,0-1.096-0.184-1.352-0.352L116.532,113.321z"/>
		<path d="M120.988,114.208c-0.272,0-0.464-0.216-0.464-0.503c0-0.288,0.199-0.504,0.479-0.504s0.472,0.208,0.472,0.504    c0,0.288-0.191,0.503-0.479,0.503H120.988z"/>
		<path d="M125.226,109.515h-1.982l-0.2,1.335c0.12-0.016,0.231-0.032,0.424-0.032c0.408,0,0.8,0.088,1.119,0.28    c0.408,0.224,0.744,0.68,0.744,1.335c0,1.016-0.808,1.775-1.936,1.775c-0.567,0-1.039-0.16-1.295-0.32l0.176-0.536    c0.216,0.128,0.64,0.288,1.119,0.288c0.656,0,1.231-0.432,1.224-1.135c0-0.664-0.456-1.143-1.487-1.143    c-0.304,0-0.535,0.024-0.728,0.056l0.336-2.495h2.486V109.515z"/>
	</g>
	<g>
		<path d="M135.113,114.12v-1.423h-2.414v-0.456l2.318-3.318h0.76v3.23h0.728v0.543h-0.728v1.423H135.113z M135.113,112.153v-1.735    c0-0.271,0.009-0.543,0.024-0.815h-0.024c-0.159,0.304-0.287,0.528-0.432,0.768l-1.271,1.767v0.016H135.113z"/>
		<path d="M137.562,114.208c-0.272,0-0.464-0.216-0.464-0.503c0-0.288,0.199-0.504,0.479-0.504s0.472,0.208,0.472,0.504    c0,0.288-0.191,0.503-0.479,0.503H137.562z"/>
		<path d="M140.353,114.208c-1.016,0-1.711-0.952-1.727-2.67c0-1.751,0.76-2.703,1.814-2.703c1.088,0,1.72,0.976,1.72,2.63    c0,1.767-0.664,2.743-1.8,2.743H140.353z M140.393,113.665c0.712,0,1.056-0.84,1.056-2.167c0-1.279-0.32-2.119-1.056-2.119    c-0.64,0-1.056,0.815-1.056,2.119c-0.016,1.351,0.4,2.167,1.048,2.167H140.393z"/>
	</g>
	<g>
		<path d="M151.687,114.12v-1.423h-2.414v-0.456l2.318-3.318h0.76v3.23h0.728v0.543h-0.728v1.423H151.687z M151.687,112.153v-1.735    c0-0.271,0.009-0.543,0.024-0.815h-0.024c-0.159,0.304-0.287,0.528-0.432,0.768l-1.271,1.767v0.016H151.687z"/>
		<path d="M154.136,114.208c-0.272,0-0.464-0.216-0.464-0.503c0-0.288,0.199-0.504,0.479-0.504s0.472,0.208,0.472,0.504    c0,0.288-0.191,0.503-0.479,0.503H154.136z"/>
		<path d="M158.375,109.515h-1.982l-0.2,1.335c0.12-0.016,0.231-0.032,0.424-0.032c0.408,0,0.8,0.088,1.119,0.28    c0.408,0.224,0.744,0.68,0.744,1.335c0,1.016-0.808,1.775-1.936,1.775c-0.567,0-1.039-0.16-1.295-0.32l0.176-0.536    c0.216,0.128,0.64,0.288,1.119,0.288c0.656,0,1.231-0.432,1.224-1.135c0-0.664-0.456-1.143-1.487-1.143    c-0.304,0-0.535,0.024-0.728,0.056l0.336-2.495h2.486V109.515z"/>
	</g>
	<g>
		<path d="M169.191,109.515h-1.982l-0.2,1.335c0.12-0.016,0.231-0.032,0.424-0.032c0.408,0,0.8,0.088,1.119,0.28    c0.408,0.224,0.744,0.68,0.744,1.335c0,1.016-0.808,1.775-1.936,1.775c-0.567,0-1.039-0.16-1.295-0.32l0.176-0.536    c0.216,0.128,0.64,0.288,1.119,0.288c0.656,0,1.231-0.432,1.224-1.135c0-0.664-0.456-1.143-1.487-1.143    c-0.304,0-0.535,0.024-0.728,0.056l0.336-2.495h2.486V109.515z"/>
		<path d="M170.712,114.208c-0.272,0-0.464-0.216-0.464-0.503c0-0.288,0.199-0.504,0.479-0.504s0.472,0.208,0.472,0.504    c0,0.288-0.191,0.503-0.479,0.503H170.712z"/>
		<path d="M173.503,114.208c-1.016,0-1.711-0.952-1.727-2.67c0-1.751,0.76-2.703,1.814-2.703c1.088,0,1.72,0.976,1.72,2.63    c0,1.767-0.664,2.743-1.8,2.743H173.503z M173.543,113.665c0.712,0,1.056-0.84,1.056-2.167c0-1.279-0.32-2.119-1.056-2.119    c-0.64,0-1.056,0.815-1.056,2.119c-0.016,1.351,0.4,2.167,1.048,2.167H173.543z"/>
	</g>
	<g>
		<path d="M1.612,80.746l-0.56,1.695h-0.72l1.831-5.389h0.84l1.839,5.389H4.099l-0.576-1.695H1.612z M3.379,80.202L2.843,78.65    c-0.112-0.352-0.192-0.671-0.272-0.983H2.547c-0.072,0.312-0.16,0.648-0.264,0.976l-0.528,1.559H3.379z"/>
		<path d="M5.468,79.618c0-0.408-0.016-0.728-0.032-1.047h0.616l0.032,0.624h0.024c0.216-0.368,0.576-0.712,1.224-0.712    c0.52,0,0.919,0.32,1.087,0.776h0.016c0.12-0.224,0.28-0.384,0.439-0.504c0.232-0.176,0.48-0.272,0.848-0.272    c0.52,0,1.279,0.336,1.279,1.679v2.279h-0.688V80.25c0-0.751-0.28-1.191-0.84-1.191c-0.408,0-0.711,0.296-0.839,0.632    c-0.032,0.104-0.056,0.232-0.056,0.352v2.399H7.891v-2.327c0-0.616-0.272-1.056-0.808-1.056c-0.432,0-0.76,0.352-0.872,0.704    c-0.04,0.104-0.056,0.224-0.056,0.344v2.334H5.468V79.618z"/>
		<path d="M12.396,80.633c0.016,0.943,0.616,1.335,1.319,1.335c0.504,0,0.815-0.088,1.071-0.2l0.128,0.503    c-0.248,0.112-0.68,0.248-1.295,0.248c-1.184,0-1.903-0.792-1.903-1.951c0-1.167,0.696-2.087,1.823-2.087    c1.263,0,1.591,1.112,1.591,1.823c0,0.144-0.008,0.248-0.024,0.328H12.396z M14.451,80.13c0.008-0.448-0.184-1.144-0.967-1.144    c-0.72,0-1.023,0.656-1.08,1.144H14.451z"/>
		<path d="M15.86,79.778c0-0.456-0.008-0.848-0.032-1.207h0.616l0.032,0.759H16.5c0.176-0.52,0.608-0.848,1.08-0.848    c0.072,0,0.128,0.008,0.192,0.016v0.664c-0.072-0.008-0.144-0.016-0.24-0.016c-0.496,0-0.848,0.376-0.943,0.896    c-0.016,0.104-0.024,0.216-0.024,0.328v2.071H15.86V79.778z"/>
		<path d="M18.668,77.915c-0.256,0-0.424-0.2-0.424-0.432c0-0.248,0.176-0.439,0.44-0.439c0.256,0,0.432,0.192,0.432,0.439    c0,0.232-0.168,0.432-0.439,0.432H18.668z M18.332,82.44v-3.87h0.704v3.87H18.332z"/>
		<path d="M22.819,82.296c-0.184,0.088-0.592,0.224-1.111,0.224c-1.167,0-1.927-0.792-1.927-1.975c0-1.191,0.816-2.063,2.079-2.063    c0.416,0,0.784,0.104,0.975,0.208l-0.16,0.536c-0.168-0.088-0.432-0.184-0.815-0.184c-0.888,0-1.367,0.664-1.367,1.463    c0,0.896,0.576,1.447,1.343,1.447c0.399,0,0.664-0.096,0.863-0.184L22.819,82.296z"/>
		<path d="M26.227,81.513c0,0.335,0.016,0.664,0.056,0.927h-0.632l-0.064-0.488h-0.024c-0.208,0.304-0.632,0.576-1.183,0.576    c-0.784,0-1.184-0.552-1.184-1.111c0-0.936,0.832-1.447,2.327-1.439v-0.08c0-0.32-0.088-0.904-0.879-0.896    c-0.368,0-0.744,0.104-1.016,0.288l-0.16-0.472c0.32-0.2,0.792-0.336,1.279-0.336c1.191,0,1.479,0.808,1.479,1.583V81.513z     M25.539,80.465c-0.768-0.016-1.639,0.12-1.639,0.872c0,0.464,0.304,0.672,0.656,0.672c0.512,0,0.839-0.32,0.952-0.648    c0.024-0.072,0.032-0.152,0.032-0.224V80.465z"/>
		<path d="M27.212,79.618c0-0.408-0.008-0.728-0.032-1.047h0.624l0.04,0.631h0.016c0.192-0.36,0.64-0.72,1.279-0.72    c0.536,0,1.367,0.32,1.367,1.647v2.311h-0.704v-2.231c0-0.624-0.232-1.151-0.896-1.151c-0.456,0-0.815,0.328-0.943,0.72    c-0.032,0.088-0.048,0.216-0.048,0.328v2.334h-0.704V79.618z"/>
		<path d="M31.412,81.721c0.216,0.128,0.583,0.272,0.936,0.272c0.503,0,0.744-0.248,0.744-0.576c0-0.336-0.2-0.512-0.712-0.704    c-0.704-0.256-1.031-0.64-1.031-1.095c0-0.624,0.512-1.136,1.335-1.136c0.392,0,0.736,0.104,0.944,0.24l-0.168,0.503    c-0.152-0.088-0.432-0.224-0.792-0.224c-0.416,0-0.64,0.24-0.64,0.527c0,0.32,0.224,0.464,0.728,0.664    c0.664,0.248,1.016,0.583,1.016,1.159c0,0.688-0.536,1.167-1.439,1.167c-0.424,0-0.815-0.112-1.087-0.272L31.412,81.721z"/>
	</g>
	<g>
		<path d="M0,22.564h2.902v0.584H0.704v1.791h2.031v0.576H0.704v2.438H0V22.564z"/>
		<path d="M5.311,28.042c-1.039,0-1.855-0.768-1.855-1.991c0-1.295,0.855-2.055,1.919-2.055c1.111,0,1.863,0.808,1.863,1.983    c0,1.439-1,2.063-1.919,2.063H5.311z M5.343,27.514c0.671,0,1.175-0.631,1.175-1.511c0-0.655-0.328-1.479-1.16-1.479    c-0.823,0-1.183,0.768-1.183,1.503c0,0.847,0.48,1.487,1.159,1.487H5.343z"/>
		<path d="M7.984,25.291c0-0.456-0.008-0.848-0.032-1.208h0.616l0.032,0.76h0.024c0.176-0.52,0.608-0.848,1.08-0.848    c0.072,0,0.128,0.008,0.192,0.016v0.664c-0.072-0.008-0.144-0.016-0.24-0.016c-0.496,0-0.848,0.375-0.944,0.896    c-0.016,0.104-0.024,0.216-0.024,0.328v2.071H7.984V25.291z"/>
		<path d="M10.856,26.146c0.016,0.944,0.616,1.335,1.319,1.335c0.504,0,0.815-0.088,1.071-0.2l0.128,0.504    c-0.248,0.112-0.68,0.248-1.295,0.248c-1.184,0-1.903-0.792-1.903-1.951c0-1.167,0.696-2.087,1.823-2.087    c1.263,0,1.591,1.111,1.591,1.823c0,0.144-0.008,0.248-0.024,0.328H10.856z M12.911,25.643c0.008-0.448-0.184-1.144-0.967-1.144    c-0.72,0-1.023,0.656-1.08,1.144H12.911z"/>
		<path d="M14.656,23.428c-0.256,0-0.424-0.2-0.424-0.432c0-0.248,0.176-0.44,0.44-0.44c0.256,0,0.432,0.192,0.432,0.44    c0,0.231-0.168,0.432-0.44,0.432H14.656z M14.32,27.954v-3.87h0.704v3.87H14.32z"/>
		<path d="M19.358,27.386c0,0.896-0.184,1.431-0.552,1.775c-0.384,0.344-0.928,0.463-1.416,0.463c-0.463,0-0.975-0.112-1.287-0.32    l0.176-0.543c0.256,0.168,0.656,0.312,1.136,0.312c0.719,0,1.247-0.375,1.247-1.359V27.29h-0.016    c-0.208,0.36-0.631,0.647-1.231,0.647c-0.96,0-1.647-0.815-1.647-1.895c0-1.311,0.855-2.047,1.751-2.047    c0.672,0,1.032,0.344,1.208,0.672h0.016l0.024-0.584h0.624c-0.024,0.272-0.032,0.592-0.032,1.056V27.386z M18.655,25.603    c0-0.112-0.008-0.216-0.04-0.312c-0.128-0.416-0.464-0.751-0.983-0.751c-0.672,0-1.151,0.567-1.151,1.471    c0,0.751,0.392,1.391,1.143,1.391c0.44,0,0.832-0.272,0.976-0.728c0.04-0.112,0.056-0.248,0.056-0.376V25.603z"/>
		<path d="M20.375,25.131c0-0.408-0.008-0.728-0.032-1.048h0.624l0.04,0.632h0.016c0.192-0.36,0.64-0.72,1.279-0.72    c0.536,0,1.367,0.32,1.367,1.647v2.311h-0.704v-2.231c0-0.624-0.232-1.151-0.896-1.151c-0.456,0-0.815,0.328-0.943,0.72    c-0.032,0.088-0.048,0.216-0.048,0.328v2.335h-0.704V25.131z"/>
		<path d="M25.071,26.146c0.016,0.944,0.616,1.335,1.319,1.335c0.504,0,0.815-0.088,1.071-0.2l0.128,0.504    c-0.248,0.112-0.68,0.248-1.295,0.248c-1.183,0-1.903-0.792-1.903-1.951c0-1.167,0.696-2.087,1.823-2.087    c1.263,0,1.591,1.111,1.591,1.823c0,0.144-0.008,0.248-0.024,0.328H25.071z M27.126,25.643c0.008-0.448-0.184-1.144-0.968-1.144    c-0.72,0-1.023,0.656-1.079,1.144H27.126z"/>
		<path d="M28.536,25.291c0-0.456-0.008-0.848-0.032-1.208h0.616l0.032,0.76h0.024c0.176-0.52,0.608-0.848,1.08-0.848    c0.072,0,0.128,0.008,0.192,0.016v0.664c-0.072-0.008-0.144-0.016-0.24-0.016c-0.496,0-0.848,0.375-0.944,0.896    c-0.016,0.104-0.024,0.216-0.024,0.328v2.071h-0.704V25.291z"/>
		<path d="M30.912,27.234c0.216,0.128,0.583,0.272,0.936,0.272c0.503,0,0.744-0.248,0.744-0.576c0-0.336-0.2-0.512-0.712-0.704    c-0.704-0.256-1.031-0.64-1.031-1.095c0-0.624,0.512-1.136,1.335-1.136c0.392,0,0.735,0.104,0.943,0.24l-0.168,0.503    c-0.152-0.088-0.432-0.224-0.792-0.224c-0.416,0-0.64,0.24-0.64,0.528c0,0.319,0.224,0.463,0.728,0.664    c0.664,0.248,1.015,0.583,1.015,1.159c0,0.688-0.536,1.167-1.439,1.167c-0.424,0-0.815-0.112-1.087-0.272L30.912,27.234z"/>
	</g>
	
		<line fill="none" stroke="#000000" stroke-width="0.5" stroke-linejoin="round" stroke-miterlimit="10" x1="38.709" y1="103.995" x2="38.709" y2="106.995"/>
	
		<line fill="none" stroke="#000000" stroke-width="0.5" stroke-linejoin="round" stroke-miterlimit="10" x1="55.276" y1="103.995" x2="55.276" y2="106.995"/>
	
		<line fill="none" stroke="#000000" stroke-width="0.5" stroke-linejoin="round" stroke-miterlimit="10" x1="71.843" y1="103.995" x2="71.843" y2="106.995"/>
	
		<line fill="none" stroke="#000000" stroke-width="0.5" stroke-linejoin="round" stroke-miterlimit="10" x1="88.41" y1="103.995" x2="88.41" y2="106.995"/>
	
		<line fill="none" stroke="#000000" stroke-width="0.5" stroke-linejoin="round" stroke-miterlimit="10" x1="104.977" y1="103.995" x2="104.977" y2="106.995"/>
	
		<line fill="none" stroke="#000000" stroke-width="0.5" stroke-linejoin="round" stroke-miterlimit="10" x1="121.543" y1="103.995" x2="121.543" y2="106.995"/>
	
		<line fill="none" stroke="#000000" stroke-width="0.5" stroke-linejoin="round" stroke-miterlimit="10" x1="138.11" y1="103.995" x2="138.11" y2="106.995"/>
	
		<line fill="none" stroke="#000000" stroke-width="0.5" stroke-linejoin="round" stroke-miterlimit="10" x1="154.676" y1="103.995" x2="154.676" y2="106.995"/>
	
		<line fill="none" stroke="#000000" stroke-width="0.5" stroke-linejoin="round" stroke-miterlimit="10" x1="171.243" y1="103.995" x2="171.243" y2="106.995"/>
	<path fill="#666666" stroke="#000000" stroke-width="0.5" stroke-miterlimit="10" d="M128.307,38.374H38.729v-13.5h89.578V38.374z    M156.374,94.714H38.729v-13.5h117.644V94.714z"/>
	<path fill="#CCCCCC" stroke="#000000" stroke-width="0.5" stroke-miterlimit="10" d="M142.333,24.874H38.729v-13.5h103.604V24.874z    M156.255,81.214H38.729v-13.32h117.526V81.214z"/>
	<path fill="none" stroke="#000000" stroke-width="0.5" stroke-linejoin="round" stroke-miterlimit="10" d="M162.043,85.714v4.5    M150.64,85.714v4.5 M156.374,88.054h5.67 M150.64,88.054h5.733"/>
	<path fill="none" stroke="#000000" stroke-width="0.5" stroke-linejoin="round" stroke-miterlimit="10" d="M133.189,29.374v4.464    M123.543,29.374v4.464 M128.307,31.534h4.882 M123.543,31.534h4.764"/>
	<path fill="none" stroke="#000000" stroke-width="0.5" stroke-linejoin="round" stroke-miterlimit="10" d="M161.008,72.394v4.413    M151.609,72.394v4.413 M156.255,74.554h4.753 M151.609,74.554h4.646"/>
	<path fill="none" stroke="#000000" stroke-width="0.5" stroke-linejoin="round" stroke-miterlimit="10" d="M148.175,15.874v4.494    M136.479,15.874v4.494 M142.333,18.034h5.842 M136.479,18.034h5.855"/>
</g>
</svg>