<svg xmlns="http://www.w3.org/2000/svg" xmlns:xlink="http://www.w3.org/1999/xlink" version="1.1" x="0px" y="0px" width="288.808px" height="168.445px" viewBox="0 0 288.808 168.445" enable-background="new 0 0 288.808 168.445" xml:space="preserve">
<g id="wide">
</g>
<g id="text_column" display="none">
</g>
<g id="art">
	
		<line fill="none" stroke="#A7A9AC" stroke-width="0.5" stroke-linejoin="round" stroke-miterlimit="10" x1="15.528" y1="109.666" x2="288.808" y2="109.666"/>
	<rect x="212.337" y="97.034" fill="#FFFFFF" width="68.666" height="25"/>
	<g>
		<path d="M243.323,105.385v-6.068h0.863l1.936,3.07c0.441,0.711,0.802,1.351,1.081,1.972l0.026-0.009    c-0.071-0.811-0.09-1.549-0.09-2.485v-2.548h0.738v6.068h-0.792l-1.927-3.079c-0.423-0.675-0.828-1.368-1.125-2.025l-0.027,0.009    c0.045,0.766,0.055,1.495,0.055,2.503v2.593H243.323z"/>
		<path d="M251.083,105.484c-1.17,0-2.088-0.864-2.088-2.242c0-1.458,0.963-2.314,2.16-2.314c1.251,0,2.098,0.91,2.098,2.233    c0,1.621-1.125,2.323-2.16,2.323H251.083z M251.119,104.89c0.757,0,1.323-0.711,1.323-1.702c0-0.738-0.369-1.666-1.305-1.666    c-0.928,0-1.333,0.864-1.333,1.693c0,0.954,0.54,1.674,1.306,1.674H251.119z"/>
		<path d="M254.309,102.208c0-0.459-0.01-0.819-0.037-1.18h0.703l0.045,0.711h0.018c0.217-0.405,0.721-0.811,1.44-0.811    c0.604,0,1.54,0.36,1.54,1.855v2.602h-0.793v-2.512c0-0.702-0.261-1.296-1.008-1.296c-0.514,0-0.918,0.369-1.062,0.81    c-0.036,0.099-0.055,0.243-0.055,0.369v2.629h-0.791V102.208z"/>
		<path d="M259.545,101.028l0.586,2.206c0.116,0.486,0.233,0.945,0.314,1.396h0.027c0.099-0.441,0.242-0.909,0.387-1.386    l0.711-2.215h0.666l0.676,2.179c0.162,0.513,0.288,0.981,0.387,1.422h0.027c0.072-0.441,0.189-0.9,0.333-1.413l0.621-2.188h0.783    l-1.404,4.357h-0.72l-0.666-2.08c-0.154-0.495-0.279-0.927-0.388-1.44h-0.019c-0.107,0.522-0.242,0.981-0.396,1.449l-0.702,2.071    h-0.721l-1.314-4.357H259.545z"/>
		<path d="M265.919,98.993h0.792v2.719h0.018c0.127-0.225,0.324-0.432,0.568-0.558c0.233-0.144,0.513-0.225,0.81-0.225    c0.585,0,1.521,0.36,1.521,1.864v2.593h-0.792v-2.512c0-0.702-0.262-1.288-1.008-1.288c-0.514,0-0.91,0.36-1.062,0.792    c-0.045,0.108-0.055,0.225-0.055,0.378v2.629h-0.792V98.993z"/>
		<path d="M271.305,100.29c-0.289,0-0.478-0.225-0.478-0.486c0-0.279,0.198-0.495,0.495-0.495c0.288,0,0.486,0.216,0.486,0.495    c0,0.261-0.189,0.486-0.495,0.486H271.305z M270.926,105.385v-4.357h0.793v4.357H270.926z"/>
		<path d="M274.022,99.983v1.044h1.135v0.604h-1.135v2.34c0,0.541,0.153,0.846,0.594,0.846c0.217,0,0.343-0.018,0.459-0.054    l0.037,0.603c-0.153,0.054-0.396,0.108-0.703,0.108c-0.369,0-0.666-0.126-0.854-0.333c-0.216-0.243-0.306-0.63-0.306-1.143v-2.368    h-0.676v-0.604h0.676v-0.801L274.022,99.983z"/>
		<path d="M276.458,103.351c0.019,1.062,0.692,1.503,1.485,1.503c0.567,0,0.918-0.099,1.207-0.225l0.144,0.567    c-0.279,0.126-0.766,0.279-1.458,0.279c-1.333,0-2.143-0.891-2.143-2.196c0-1.314,0.783-2.35,2.052-2.35    c1.423,0,1.792,1.251,1.792,2.053c0,0.162-0.01,0.279-0.027,0.369H276.458z M278.772,102.784c0.01-0.504-0.207-1.288-1.09-1.288    c-0.81,0-1.152,0.738-1.215,1.288H278.772z"/>
		<path d="M244.313,117.385l-1.539-6.068h0.828l0.72,3.07c0.181,0.765,0.342,1.513,0.45,2.098h0.018    c0.1-0.603,0.289-1.323,0.496-2.106l0.81-3.061h0.819l0.738,3.079c0.171,0.729,0.333,1.44,0.423,2.08h0.019    c0.125-0.667,0.297-1.341,0.486-2.098l0.801-3.061h0.801l-1.719,6.068h-0.82l-0.765-3.151c-0.188-0.783-0.315-1.377-0.396-1.99    h-0.019c-0.099,0.612-0.243,1.197-0.468,1.98l-0.865,3.16H244.313z"/>
		<path d="M250.995,110.993h0.792v2.719h0.019c0.125-0.225,0.324-0.432,0.566-0.558c0.234-0.144,0.514-0.225,0.811-0.225    c0.586,0,1.521,0.36,1.521,1.864v2.593h-0.792v-2.512c0-0.702-0.261-1.288-1.009-1.288c-0.513,0-0.908,0.36-1.062,0.792    c-0.045,0.108-0.054,0.225-0.054,0.378v2.629h-0.792V110.993z"/>
		<path d="M256.38,112.289c-0.288,0-0.478-0.225-0.478-0.486c0-0.279,0.199-0.495,0.496-0.495c0.287,0,0.486,0.216,0.486,0.495    c0,0.261-0.189,0.486-0.496,0.486H256.38z M256.002,117.385v-4.357h0.792v4.357H256.002z"/>
		<path d="M259.098,111.983v1.044h1.134v0.604h-1.134v2.34c0,0.541,0.152,0.846,0.594,0.846c0.217,0,0.342-0.018,0.459-0.054    l0.036,0.603c-0.153,0.054-0.396,0.108-0.702,0.108c-0.369,0-0.666-0.126-0.855-0.333c-0.216-0.243-0.306-0.63-0.306-1.143v-2.368    h-0.675v-0.604h0.675v-0.801L259.098,111.983z"/>
		<path d="M261.534,115.35c0.018,1.062,0.693,1.503,1.485,1.503c0.567,0,0.919-0.099,1.206-0.225l0.145,0.567    c-0.279,0.126-0.766,0.279-1.459,0.279c-1.332,0-2.143-0.891-2.143-2.196c0-1.314,0.783-2.35,2.053-2.35    c1.422,0,1.791,1.251,1.791,2.053c0,0.162-0.008,0.279-0.026,0.369H261.534z M263.847,114.783    c0.009-0.504-0.207-1.288-1.089-1.288c-0.811,0-1.152,0.738-1.216,1.288H263.847z"/>
	</g>
	<g>
		<path d="M1.728,5.373C0.712,5.373,0.016,4.422,0,2.702C0,0.951,0.76,0,1.815,0c1.087,0,1.719,0.976,1.719,2.631    c0,1.767-0.664,2.742-1.799,2.742H1.728z M1.767,4.829c0.712,0,1.056-0.839,1.056-2.167c0-1.279-0.32-2.118-1.056-2.118    c-0.64,0-1.055,0.815-1.055,2.118c-0.016,1.352,0.4,2.167,1.047,2.167H1.767z"/>
		<path d="M4.696,5.373c-0.272,0-0.463-0.216-0.463-0.504c0-0.287,0.2-0.504,0.479-0.504s0.472,0.208,0.472,0.504    c0,0.288-0.192,0.504-0.479,0.504H4.696z"/>
		<path d="M7.575,0c1.007,0,1.519,0.624,1.519,1.279c0,0.439-0.224,0.92-0.864,1.216v0.023c0.648,0.256,1.048,0.72,1.048,1.344    c0,0.911-0.776,1.511-1.767,1.511c-1.087,0-1.743-0.64-1.743-1.399c0-0.655,0.392-1.127,1.023-1.399V2.551    C6.208,2.279,5.96,1.831,5.96,1.383C5.96,0.56,6.655,0,7.567,0H7.575z M7.527,4.861c0.632,0,1.04-0.392,1.04-0.928    c0-0.623-0.439-0.936-1.144-1.135C6.815,2.975,6.488,3.382,6.488,3.878c-0.024,0.52,0.375,0.983,1.031,0.983H7.527z M7.535,0.504    c-0.584,0-0.904,0.384-0.904,0.831c-0.008,0.521,0.392,0.8,0.992,0.96c0.448-0.152,0.792-0.472,0.792-0.943    c0-0.416-0.248-0.848-0.872-0.848H7.535z"/>
		<path d="M1.728,23.373c-1.016,0-1.711-0.951-1.728-2.671C0,18.951,0.76,18,1.815,18c1.087,0,1.719,0.976,1.719,2.631    c0,1.767-0.664,2.742-1.799,2.742H1.728z M1.767,22.829c0.712,0,1.056-0.839,1.056-2.167c0-1.279-0.32-2.118-1.056-2.118    c-0.64,0-1.055,0.815-1.055,2.118c-0.016,1.352,0.4,2.167,1.047,2.167H1.767z"/>
		<path d="M4.696,23.373c-0.272,0-0.463-0.216-0.463-0.504c0-0.287,0.2-0.504,0.479-0.504s0.472,0.208,0.472,0.504    c0,0.288-0.192,0.504-0.479,0.504H4.696z"/>
		<path d="M9.206,18.088v0.464l-2.263,4.733h-0.72l2.247-4.598v-0.016H5.928v-0.584H9.206z"/>
		<path d="M1.728,41.373c-1.016,0-1.711-0.951-1.728-2.671C0,36.951,0.76,36,1.815,36c1.087,0,1.719,0.976,1.719,2.631    c0,1.767-0.664,2.742-1.799,2.742H1.728z M1.767,40.829c0.712,0,1.056-0.839,1.056-2.167c0-1.279-0.32-2.118-1.056-2.118    c-0.64,0-1.055,0.815-1.055,2.118c-0.016,1.352,0.4,2.167,1.047,2.167H1.767z"/>
		<path d="M4.696,41.373c-0.272,0-0.463-0.216-0.463-0.504c0-0.287,0.2-0.504,0.479-0.504s0.472,0.208,0.472,0.504    c0,0.288-0.192,0.504-0.479,0.504H4.696z"/>
		<path d="M8.798,36.584c-0.144-0.008-0.328,0.008-0.528,0.04C7.159,36.8,6.583,37.6,6.464,38.463h0.016    c0.248-0.336,0.688-0.607,1.264-0.607c0.919,0,1.567,0.671,1.567,1.679c0,0.959-0.647,1.839-1.735,1.839    c-1.104,0-1.831-0.863-1.831-2.215c0-1.023,0.36-1.831,0.879-2.343c0.432-0.424,1.007-0.688,1.663-0.768    c0.208-0.032,0.384-0.04,0.512-0.04V36.584z M7.591,40.829c0.6,0,1.008-0.503,1.008-1.247c0-0.743-0.424-1.191-1.072-1.191    c-0.423,0-0.823,0.256-1.015,0.64c-0.04,0.08-0.072,0.176-0.072,0.304c0.008,0.855,0.408,1.495,1.144,1.495H7.591z"/>
		<path d="M1.728,59.373c-1.016,0-1.711-0.951-1.728-2.671C0,54.951,0.76,54,1.815,54c1.087,0,1.719,0.976,1.719,2.631    c0,1.767-0.664,2.742-1.799,2.742H1.728z M1.767,58.829c0.712,0,1.056-0.839,1.056-2.167c0-1.279-0.32-2.118-1.056-2.118    c-0.64,0-1.055,0.815-1.055,2.118c-0.016,1.352,0.4,2.167,1.047,2.167H1.767z"/>
		<path d="M4.696,59.373c-0.272,0-0.463-0.216-0.463-0.504c0-0.287,0.2-0.504,0.479-0.504s0.472,0.208,0.472,0.504    c0,0.288-0.192,0.504-0.479,0.504H4.696z"/>
		<path d="M8.934,54.68H6.951l-0.2,1.335c0.12-0.016,0.232-0.031,0.424-0.031c0.408,0,0.799,0.088,1.119,0.279    c0.408,0.224,0.744,0.68,0.744,1.335c0,1.016-0.808,1.775-1.935,1.775c-0.568,0-1.04-0.16-1.295-0.319l0.176-0.536    c0.216,0.128,0.64,0.288,1.12,0.288c0.655,0,1.231-0.432,1.223-1.136c0-0.663-0.456-1.144-1.487-1.144    c-0.304,0-0.536,0.024-0.728,0.057l0.336-2.495h2.486V54.68z"/>
		<path d="M1.728,77.373c-1.016,0-1.711-0.951-1.728-2.671C0,72.951,0.76,72,1.815,72c1.087,0,1.719,0.976,1.719,2.631    c0,1.767-0.664,2.742-1.799,2.742H1.728z M1.767,76.829c0.712,0,1.056-0.839,1.056-2.167c0-1.279-0.32-2.118-1.056-2.118    c-0.64,0-1.055,0.815-1.055,2.118c-0.016,1.352,0.4,2.167,1.047,2.167H1.767z"/>
		<path d="M4.696,77.373c-0.272,0-0.463-0.216-0.463-0.504c0-0.287,0.2-0.504,0.479-0.504s0.472,0.208,0.472,0.504    c0,0.288-0.192,0.504-0.479,0.504H4.696z"/>
		<path d="M8.007,77.285v-1.423H5.592v-0.456l2.318-3.318h0.76v3.23h0.728v0.544H8.67v1.423H8.007z M8.007,75.318v-1.735    c0-0.271,0.008-0.544,0.024-0.815H8.007c-0.16,0.304-0.288,0.527-0.432,0.768l-1.271,1.768v0.016H8.007z"/>
		<path d="M1.728,95.373c-1.016,0-1.711-0.951-1.728-2.671C0,90.951,0.76,90,1.815,90c1.087,0,1.719,0.976,1.719,2.631    c0,1.767-0.664,2.742-1.799,2.742H1.728z M1.767,94.829c0.712,0,1.056-0.839,1.056-2.167c0-1.279-0.32-2.118-1.056-2.118    c-0.64,0-1.055,0.815-1.055,2.118c-0.016,1.352,0.4,2.167,1.047,2.167H1.767z"/>
		<path d="M4.696,95.373c-0.272,0-0.463-0.216-0.463-0.504c0-0.287,0.2-0.504,0.479-0.504s0.472,0.208,0.472,0.504    c0,0.288-0.192,0.504-0.479,0.504H4.696z"/>
		<path d="M6,94.485c0.2,0.12,0.655,0.32,1.151,0.32c0.896,0,1.183-0.568,1.175-1.008c-0.008-0.728-0.664-1.039-1.343-1.039H6.592    V92.23h0.392c0.512,0,1.159-0.264,1.159-0.879c0-0.416-0.264-0.784-0.911-0.784c-0.416,0-0.816,0.185-1.04,0.344L6,90.399    C6.28,90.2,6.808,90,7.367,90c1.023,0,1.487,0.607,1.487,1.239c0,0.544-0.328,1-0.959,1.231v0.016    c0.64,0.12,1.159,0.6,1.159,1.328c0,0.831-0.656,1.559-1.895,1.559c-0.583,0-1.095-0.184-1.351-0.352L6,94.485z"/>
		<path d="M1.728,113.373c-1.016,0-1.711-0.951-1.728-2.671C0,108.951,0.76,108,1.815,108c1.087,0,1.719,0.976,1.719,2.631    c0,1.767-0.664,2.742-1.799,2.742H1.728z M1.767,112.829c0.712,0,1.056-0.839,1.056-2.167c0-1.279-0.32-2.118-1.056-2.118    c-0.64,0-1.055,0.815-1.055,2.118c-0.016,1.352,0.4,2.167,1.047,2.167H1.767z"/>
		<path d="M4.696,113.373c-0.272,0-0.463-0.216-0.463-0.504c0-0.287,0.2-0.504,0.479-0.504s0.472,0.208,0.472,0.504    c0,0.288-0.192,0.504-0.479,0.504H4.696z"/>
		<path d="M5.832,113.285v-0.432l0.552-0.536c1.327-1.263,1.935-1.935,1.935-2.718c0-0.528-0.248-1.016-1.023-1.016    c-0.472,0-0.863,0.239-1.103,0.439l-0.224-0.496C6.32,108.232,6.839,108,7.439,108c1.111,0,1.583,0.768,1.583,1.512    c0,0.959-0.696,1.734-1.791,2.79l-0.408,0.384v0.016H9.15v0.584H5.832z"/>
		<path d="M1.728,131.373c-1.016,0-1.711-0.951-1.728-2.671C0,126.951,0.76,126,1.815,126c1.087,0,1.719,0.976,1.719,2.631    c0,1.767-0.664,2.742-1.799,2.742H1.728z M1.767,130.829c0.712,0,1.056-0.839,1.056-2.167c0-1.279-0.32-2.118-1.056-2.118    c-0.64,0-1.055,0.815-1.055,2.118c-0.016,1.352,0.4,2.167,1.047,2.167H1.767z"/>
		<path d="M4.696,131.373c-0.272,0-0.463-0.216-0.463-0.504c0-0.287,0.2-0.504,0.479-0.504s0.472,0.208,0.472,0.504    c0,0.288-0.192,0.504-0.479,0.504H4.696z"/>
		<path d="M7.359,126.744H7.343l-0.904,0.487l-0.136-0.536l1.135-0.607h0.6v5.197H7.359V126.744z"/>
		<path d="M1.728,149.373c-1.016,0-1.711-0.951-1.728-2.671C0,144.951,0.76,144,1.815,144c1.087,0,1.719,0.976,1.719,2.631    c0,1.767-0.664,2.742-1.799,2.742H1.728z M1.767,148.829c0.712,0,1.056-0.839,1.056-2.167c0-1.279-0.32-2.118-1.056-2.118    c-0.64,0-1.055,0.815-1.055,2.118c-0.016,1.352,0.4,2.167,1.047,2.167H1.767z"/>
		<path d="M4.696,149.373c-0.272,0-0.463-0.216-0.463-0.504c0-0.287,0.2-0.504,0.479-0.504s0.472,0.208,0.472,0.504    c0,0.288-0.192,0.504-0.479,0.504H4.696z"/>
		<path d="M7.487,149.373c-1.016,0-1.711-0.951-1.728-2.671c0-1.751,0.76-2.702,1.815-2.702c1.087,0,1.719,0.976,1.719,2.631    c0,1.767-0.664,2.742-1.799,2.742H7.487z M7.527,148.829c0.712,0,1.056-0.839,1.056-2.167c0-1.279-0.32-2.118-1.056-2.118    c-0.64,0-1.055,0.815-1.055,2.118c-0.016,1.352,0.4,2.167,1.047,2.167H7.527z"/>
	</g>
	<g>
		<path d="M23.137,157.086v-5.389h0.768l1.719,2.727c0.392,0.632,0.712,1.199,0.959,1.751l0.024-0.008    c-0.064-0.72-0.08-1.375-0.08-2.207v-2.263h0.656v5.389h-0.704l-1.711-2.734c-0.376-0.6-0.735-1.215-1-1.799l-0.024,0.008    c0.04,0.68,0.048,1.327,0.048,2.223v2.303H23.137z"/>
		<path d="M29.952,157.174c-1.04,0-1.855-0.768-1.855-1.991c0-1.295,0.855-2.055,1.919-2.055c1.111,0,1.863,0.808,1.863,1.983    c0,1.439-1,2.063-1.919,2.063H29.952z M29.984,156.646c0.671,0,1.175-0.631,1.175-1.511c0-0.656-0.328-1.479-1.159-1.479    c-0.824,0-1.184,0.768-1.184,1.503c0,0.847,0.479,1.487,1.159,1.487H29.984z"/>
		<path d="M34.369,156.367c0.216,0.128,0.583,0.272,0.935,0.272c0.503,0,0.744-0.248,0.744-0.576c0-0.336-0.2-0.512-0.712-0.704    c-0.703-0.256-1.031-0.64-1.031-1.095c0-0.624,0.512-1.136,1.334-1.136c0.392,0,0.736,0.104,0.944,0.24l-0.168,0.503    c-0.152-0.088-0.432-0.224-0.792-0.224c-0.416,0-0.64,0.24-0.64,0.527c0,0.32,0.224,0.464,0.728,0.664    c0.664,0.248,1.016,0.583,1.016,1.159c0,0.688-0.536,1.167-1.439,1.167c-0.423,0-0.815-0.112-1.087-0.272L34.369,156.367z"/>
		<path d="M37.968,152.561c-0.256,0-0.424-0.2-0.424-0.432c0-0.248,0.176-0.439,0.44-0.439c0.256,0,0.432,0.192,0.432,0.439    c0,0.232-0.168,0.432-0.439,0.432H37.968z M37.632,157.086v-3.87h0.704v3.87H37.632z"/>
		<path d="M39.503,154.264c0-0.408-0.016-0.728-0.032-1.047h0.616l0.032,0.624h0.024c0.216-0.368,0.576-0.712,1.224-0.712    c0.52,0,0.919,0.32,1.087,0.776h0.016c0.12-0.224,0.28-0.384,0.439-0.504c0.232-0.176,0.48-0.272,0.848-0.272    c0.52,0,1.279,0.336,1.279,1.679v2.279h-0.688v-2.191c0-0.751-0.28-1.191-0.84-1.191c-0.408,0-0.711,0.296-0.839,0.632    c-0.032,0.104-0.056,0.232-0.056,0.352v2.399h-0.688v-2.327c0-0.616-0.272-1.056-0.808-1.056c-0.432,0-0.76,0.352-0.872,0.704    c-0.04,0.104-0.056,0.224-0.056,0.344v2.334h-0.688V154.264z"/>
		<path d="M46.512,152.561c-0.256,0-0.424-0.2-0.424-0.432c0-0.248,0.176-0.439,0.44-0.439c0.256,0,0.432,0.192,0.432,0.439    c0,0.232-0.168,0.432-0.439,0.432H46.512z M46.176,157.086v-3.87h0.704v3.87H46.176z"/>
		<path d="M48.047,151.41h0.704v5.677h-0.704V151.41z"/>
		<path d="M52.662,156.159c0,0.335,0.016,0.664,0.056,0.927h-0.632l-0.064-0.488h-0.024c-0.208,0.304-0.632,0.576-1.183,0.576    c-0.784,0-1.184-0.552-1.184-1.111c0-0.936,0.832-1.447,2.327-1.439v-0.08c0-0.32-0.088-0.904-0.879-0.896    c-0.368,0-0.744,0.104-1.016,0.288l-0.16-0.472c0.32-0.2,0.792-0.336,1.279-0.336c1.191,0,1.479,0.808,1.479,1.583V156.159z     M51.975,155.111c-0.768-0.016-1.639,0.12-1.639,0.872c0,0.464,0.304,0.672,0.656,0.672c0.512,0,0.839-0.32,0.952-0.648    c0.024-0.072,0.032-0.152,0.032-0.224V155.111z"/>
		<path d="M53.792,154.424c0-0.456-0.008-0.848-0.032-1.207h0.616l0.032,0.759h0.024c0.176-0.52,0.608-0.848,1.08-0.848    c0.072,0,0.128,0.008,0.192,0.016v0.664c-0.072-0.008-0.144-0.016-0.24-0.016c-0.496,0-0.848,0.376-0.944,0.896    c-0.016,0.104-0.024,0.216-0.024,0.328v2.071h-0.704V154.424z"/>
		<path d="M56.743,152.561c-0.256,0-0.424-0.2-0.424-0.432c0-0.248,0.176-0.439,0.44-0.439c0.256,0,0.432,0.192,0.432,0.439    c0,0.232-0.168,0.432-0.439,0.432H56.743z M56.407,157.086v-3.87h0.704v3.87H56.407z"/>
		<path d="M59.127,152.289v0.928h1.007v0.536h-1.007v2.079c0,0.48,0.136,0.751,0.528,0.751c0.192,0,0.304-0.016,0.408-0.048    l0.032,0.536c-0.136,0.048-0.352,0.096-0.624,0.096c-0.328,0-0.591-0.112-0.759-0.296c-0.192-0.216-0.272-0.56-0.272-1.016v-2.103    h-0.6v-0.536h0.6v-0.712L59.127,152.289z"/>
		<path d="M61.263,152.561c-0.256,0-0.424-0.2-0.424-0.432c0-0.248,0.176-0.439,0.44-0.439c0.256,0,0.432,0.192,0.432,0.439    c0,0.232-0.168,0.432-0.44,0.432H61.263z M60.927,157.086v-3.87h0.704v3.87H60.927z"/>
		<path d="M63.199,155.279c0.016,0.943,0.616,1.335,1.319,1.335c0.504,0,0.815-0.088,1.071-0.2l0.128,0.503    c-0.248,0.112-0.68,0.248-1.295,0.248c-1.183,0-1.903-0.792-1.903-1.951c0-1.167,0.696-2.087,1.823-2.087    c1.263,0,1.591,1.112,1.591,1.823c0,0.144-0.008,0.248-0.024,0.328H63.199z M65.254,154.776c0.008-0.448-0.184-1.144-0.968-1.144    c-0.72,0-1.023,0.656-1.079,1.144H65.254z"/>
		<path d="M66.711,156.367c0.216,0.128,0.583,0.272,0.936,0.272c0.503,0,0.744-0.248,0.744-0.576c0-0.336-0.2-0.512-0.712-0.704    c-0.704-0.256-1.031-0.64-1.031-1.095c0-0.624,0.512-1.136,1.335-1.136c0.392,0,0.735,0.104,0.943,0.24l-0.168,0.503    c-0.152-0.088-0.432-0.224-0.792-0.224c-0.416,0-0.64,0.24-0.64,0.527c0,0.32,0.224,0.464,0.728,0.664    c0.664,0.248,1.015,0.583,1.015,1.159c0,0.688-0.536,1.167-1.439,1.167c-0.424,0-0.815-0.112-1.087-0.272L66.711,156.367z"/>
	</g>
	<polyline fill="none" stroke="#000000" stroke-width="0.5" stroke-linejoin="round" stroke-miterlimit="10" points="   288.808,145.471 15.533,145.471 15.533,2.146  "/>
	
		<line fill="none" stroke="#000000" stroke-width="0.5" stroke-linejoin="round" stroke-miterlimit="10" x1="15.533" y1="145.471" x2="12.533" y2="145.471"/>
	
		<line fill="none" stroke="#000000" stroke-width="0.5" stroke-linejoin="round" stroke-miterlimit="10" x1="15.533" y1="127.555" x2="12.533" y2="127.555"/>
	
		<line fill="none" stroke="#000000" stroke-width="0.5" stroke-linejoin="round" stroke-miterlimit="10" x1="15.533" y1="109.64" x2="12.533" y2="109.64"/>
	
		<line fill="none" stroke="#000000" stroke-width="0.5" stroke-linejoin="round" stroke-miterlimit="10" x1="15.533" y1="91.724" x2="12.533" y2="91.724"/>
	
		<line fill="none" stroke="#000000" stroke-width="0.5" stroke-linejoin="round" stroke-miterlimit="10" x1="15.533" y1="73.808" x2="12.533" y2="73.808"/>
	
		<line fill="none" stroke="#000000" stroke-width="0.5" stroke-linejoin="round" stroke-miterlimit="10" x1="15.533" y1="55.893" x2="12.533" y2="55.893"/>
	
		<line fill="none" stroke="#000000" stroke-width="0.5" stroke-linejoin="round" stroke-miterlimit="10" x1="15.533" y1="37.977" x2="12.533" y2="37.977"/>
	
		<line fill="none" stroke="#000000" stroke-width="0.5" stroke-linejoin="round" stroke-miterlimit="10" x1="15.533" y1="20.061" x2="12.533" y2="20.061"/>
	
		<line fill="none" stroke="#000000" stroke-width="0.5" stroke-linejoin="round" stroke-miterlimit="10" x1="15.533" y1="2.146" x2="12.533" y2="2.146"/>
	
		<line fill="none" stroke="#000000" stroke-width="0.5" stroke-linejoin="round" stroke-miterlimit="10" x1="45.965" y1="145.471" x2="45.965" y2="148.471"/>
	<g>
		<path d="M94.019,157.174c-1.431,0-2.423-1.104-2.423-2.734c0-1.711,1.056-2.831,2.495-2.831c1.479,0,2.431,1.127,2.431,2.727    c0,1.847-1.127,2.838-2.495,2.838H94.019z M94.059,156.606c1.104,0,1.727-1.015,1.727-2.238c0-1.072-0.56-2.191-1.719-2.191    c-1.159,0-1.735,1.079-1.735,2.247c0,1.135,0.624,2.183,1.719,2.183H94.059z"/>
		<path d="M97.404,154.264c0-0.408-0.008-0.728-0.032-1.047h0.624l0.04,0.631h0.016c0.192-0.36,0.64-0.72,1.279-0.72    c0.536,0,1.367,0.32,1.367,1.647v2.311h-0.704v-2.231c0-0.624-0.232-1.151-0.896-1.151c-0.456,0-0.815,0.328-0.943,0.72    c-0.032,0.088-0.048,0.216-0.048,0.328v2.334h-0.704V154.264z"/>
		<path d="M102.243,155.279c0.016,0.943,0.616,1.335,1.319,1.335c0.504,0,0.815-0.088,1.071-0.2l0.128,0.503    c-0.248,0.112-0.68,0.248-1.295,0.248c-1.184,0-1.903-0.792-1.903-1.951c0-1.167,0.696-2.087,1.823-2.087    c1.263,0,1.591,1.112,1.591,1.823c0,0.144-0.008,0.248-0.024,0.328H102.243z M104.298,154.776    c0.008-0.448-0.184-1.144-0.967-1.144c-0.72,0-1.023,0.656-1.08,1.144H104.298z"/>
		<path d="M110.889,151.41v4.677c0,0.344,0.008,0.736,0.032,1h-0.632l-0.032-0.671h-0.016c-0.216,0.432-0.68,0.759-1.312,0.759    c-0.936,0-1.663-0.792-1.663-1.967c-0.008-1.295,0.8-2.079,1.735-2.079c0.6,0,0.999,0.28,1.167,0.584h0.016v-2.303H110.889z     M110.186,154.792c0-0.096-0.008-0.208-0.032-0.304c-0.104-0.44-0.488-0.808-1.016-0.808c-0.728,0-1.159,0.64-1.159,1.487    c0,0.792,0.392,1.439,1.143,1.439c0.472,0,0.904-0.319,1.032-0.847c0.024-0.088,0.032-0.184,0.032-0.296V154.792z"/>
		<path d="M112.395,152.561c-0.256,0-0.424-0.2-0.424-0.432c0-0.248,0.176-0.439,0.44-0.439c0.256,0,0.432,0.192,0.432,0.439    c0,0.232-0.168,0.432-0.439,0.432H112.395z M112.059,157.086v-3.87h0.704v3.87H112.059z"/>
		<path d="M113.931,154.264c0-0.408-0.016-0.728-0.032-1.047h0.616l0.032,0.624h0.024c0.216-0.368,0.576-0.712,1.224-0.712    c0.52,0,0.919,0.32,1.087,0.776h0.016c0.12-0.224,0.28-0.384,0.44-0.504c0.232-0.176,0.48-0.272,0.848-0.272    c0.52,0,1.279,0.336,1.279,1.679v2.279h-0.688v-2.191c0-0.751-0.28-1.191-0.84-1.191c-0.408,0-0.711,0.296-0.839,0.632    c-0.032,0.104-0.056,0.232-0.056,0.352v2.399h-0.688v-2.327c0-0.616-0.272-1.056-0.808-1.056c-0.432,0-0.759,0.352-0.872,0.704    c-0.04,0.104-0.056,0.224-0.056,0.344v2.334h-0.688V154.264z"/>
		<path d="M121.002,155.279c0.016,0.943,0.616,1.335,1.319,1.335c0.504,0,0.815-0.088,1.071-0.2l0.128,0.503    c-0.248,0.112-0.68,0.248-1.295,0.248c-1.184,0-1.903-0.792-1.903-1.951c0-1.167,0.696-2.087,1.823-2.087    c1.263,0,1.591,1.112,1.591,1.823c0,0.144-0.008,0.248-0.024,0.328H121.002z M123.057,154.776    c0.008-0.448-0.184-1.144-0.967-1.144c-0.72,0-1.023,0.656-1.08,1.144H123.057z"/>
		<path d="M124.611,154.264c0-0.408-0.008-0.728-0.032-1.047h0.624l0.04,0.631h0.016c0.192-0.36,0.64-0.72,1.279-0.72    c0.536,0,1.367,0.32,1.367,1.647v2.311h-0.704v-2.231c0-0.624-0.232-1.151-0.896-1.151c-0.456,0-0.815,0.328-0.943,0.72    c-0.032,0.088-0.048,0.216-0.048,0.328v2.334h-0.704V154.264z"/>
		<path d="M128.955,156.367c0.216,0.128,0.583,0.272,0.936,0.272c0.503,0,0.744-0.248,0.744-0.576c0-0.336-0.2-0.512-0.712-0.704    c-0.704-0.256-1.031-0.64-1.031-1.095c0-0.624,0.512-1.136,1.335-1.136c0.392,0,0.736,0.104,0.944,0.24l-0.168,0.503    c-0.152-0.088-0.432-0.224-0.792-0.224c-0.416,0-0.64,0.24-0.64,0.527c0,0.32,0.224,0.464,0.728,0.664    c0.664,0.248,1.016,0.583,1.016,1.159c0,0.688-0.536,1.167-1.439,1.167c-0.424,0-0.815-0.112-1.087-0.272L128.955,156.367z"/>
		<path d="M132.555,152.561c-0.256,0-0.424-0.2-0.424-0.432c0-0.248,0.176-0.439,0.44-0.439c0.256,0,0.432,0.192,0.432,0.439    c0,0.232-0.168,0.432-0.439,0.432H132.555z M132.219,157.086v-3.87h0.704v3.87H132.219z"/>
		<path d="M135.666,157.174c-1.04,0-1.855-0.768-1.855-1.991c0-1.295,0.855-2.055,1.919-2.055c1.111,0,1.863,0.808,1.863,1.983    c0,1.439-1,2.063-1.919,2.063H135.666z M135.698,156.646c0.671,0,1.175-0.631,1.175-1.511c0-0.656-0.328-1.479-1.159-1.479    c-0.824,0-1.184,0.768-1.184,1.503c0,0.847,0.479,1.487,1.159,1.487H135.698z"/>
		<path d="M138.482,154.264c0-0.408-0.008-0.728-0.032-1.047h0.624l0.04,0.631h0.016c0.192-0.36,0.64-0.72,1.279-0.72    c0.536,0,1.367,0.32,1.367,1.647v2.311h-0.704v-2.231c0-0.624-0.232-1.151-0.896-1.151c-0.456,0-0.815,0.328-0.943,0.72    c-0.032,0.088-0.048,0.216-0.048,0.328v2.334h-0.704V154.264z"/>
		<path d="M99.655,166.774c-1.04,0-1.855-0.768-1.855-1.991c0-1.295,0.855-2.055,1.919-2.055c1.111,0,1.863,0.808,1.863,1.983    c0,1.439-1,2.063-1.919,2.063H99.655z M99.687,166.246c0.671,0,1.175-0.631,1.175-1.511c0-0.655-0.328-1.479-1.159-1.479    c-0.824,0-1.184,0.768-1.184,1.503c0,0.847,0.479,1.487,1.159,1.487H99.687z"/>
		<path d="M102.536,166.686v-3.334H102v-0.536h0.536v-0.184c0-0.544,0.128-1.04,0.456-1.351c0.264-0.256,0.616-0.359,0.936-0.359    c0.256,0,0.463,0.056,0.6,0.112l-0.088,0.543c-0.112-0.048-0.248-0.088-0.456-0.088c-0.591,0-0.751,0.528-0.751,1.12v0.208h0.936    v0.536h-0.928v3.334H102.536z"/>
		<path d="M106.407,165.966c0.216,0.128,0.583,0.272,0.936,0.272c0.503,0,0.744-0.248,0.744-0.576c0-0.336-0.2-0.512-0.712-0.704    c-0.704-0.256-1.031-0.64-1.031-1.095c0-0.624,0.512-1.136,1.335-1.136c0.392,0,0.736,0.104,0.944,0.24l-0.168,0.503    c-0.152-0.088-0.432-0.224-0.792-0.224c-0.416,0-0.64,0.24-0.64,0.528c0,0.319,0.224,0.463,0.728,0.664    c0.664,0.248,1.016,0.583,1.016,1.159c0,0.688-0.536,1.167-1.439,1.167c-0.424,0-0.815-0.112-1.087-0.272L106.407,165.966z"/>
		<path d="M110.007,162.161c-0.256,0-0.424-0.2-0.424-0.432c0-0.248,0.176-0.439,0.44-0.439c0.256,0,0.432,0.191,0.432,0.439    c0,0.231-0.168,0.432-0.439,0.432H110.007z M109.671,166.686v-3.87h0.704v3.87H109.671z"/>
		<path d="M111.543,163.864c0-0.408-0.016-0.728-0.032-1.048h0.616l0.032,0.624h0.024c0.216-0.368,0.576-0.712,1.224-0.712    c0.52,0,0.919,0.32,1.087,0.776h0.016c0.12-0.224,0.28-0.384,0.44-0.504c0.232-0.176,0.48-0.272,0.848-0.272    c0.52,0,1.279,0.336,1.279,1.679v2.279h-0.688v-2.191c0-0.751-0.28-1.191-0.84-1.191c-0.408,0-0.711,0.296-0.839,0.632    c-0.032,0.104-0.056,0.232-0.056,0.352v2.398h-0.688v-2.327c0-0.616-0.272-1.056-0.808-1.056c-0.432,0-0.759,0.352-0.872,0.704    c-0.04,0.104-0.056,0.224-0.056,0.344v2.335h-0.688V163.864z"/>
		<path d="M118.551,162.161c-0.256,0-0.424-0.2-0.424-0.432c0-0.248,0.176-0.439,0.44-0.439c0.256,0,0.432,0.191,0.432,0.439    c0,0.231-0.168,0.432-0.439,0.432H118.551z M118.215,166.686v-3.87h0.704v3.87H118.215z"/>
		<path d="M120.087,161.01h0.704v5.676h-0.704V161.01z"/>
		<path d="M124.701,165.758c0,0.336,0.016,0.664,0.056,0.928h-0.632l-0.064-0.488h-0.024c-0.208,0.304-0.632,0.576-1.183,0.576    c-0.784,0-1.184-0.552-1.184-1.111c0-0.936,0.832-1.447,2.327-1.439v-0.08c0-0.32-0.088-0.904-0.879-0.896    c-0.368,0-0.744,0.104-1.016,0.288l-0.16-0.472c0.32-0.2,0.792-0.336,1.279-0.336c1.191,0,1.479,0.808,1.479,1.583V165.758z     M124.014,164.711c-0.768-0.016-1.639,0.12-1.639,0.872c0,0.464,0.304,0.672,0.656,0.672c0.512,0,0.839-0.32,0.952-0.648    c0.024-0.072,0.032-0.152,0.032-0.224V164.711z"/>
		<path d="M125.831,164.023c0-0.456-0.008-0.848-0.032-1.208h0.616l0.032,0.76h0.024c0.176-0.52,0.608-0.848,1.08-0.848    c0.072,0,0.128,0.008,0.192,0.016v0.664c-0.072-0.008-0.144-0.016-0.24-0.016c-0.496,0-0.848,0.375-0.944,0.896    c-0.016,0.104-0.024,0.216-0.024,0.328v2.071h-0.704V164.023z"/>
		<path d="M128.783,162.161c-0.256,0-0.424-0.2-0.424-0.432c0-0.248,0.176-0.439,0.44-0.439c0.256,0,0.432,0.191,0.432,0.439    c0,0.231-0.168,0.432-0.44,0.432H128.783z M128.447,166.686v-3.87h0.704v3.87H128.447z"/>
		<path d="M131.166,161.889v0.927h1.007v0.536h-1.007v2.079c0,0.48,0.136,0.751,0.528,0.751c0.192,0,0.304-0.016,0.408-0.048    l0.032,0.536c-0.136,0.048-0.352,0.096-0.624,0.096c-0.328,0-0.591-0.112-0.759-0.296c-0.192-0.216-0.272-0.56-0.272-1.016v-2.103    h-0.6v-0.536h0.6v-0.711L131.166,161.889z"/>
		<path d="M133.223,162.816l0.84,2.287c0.096,0.256,0.192,0.56,0.256,0.792h0.016c0.072-0.232,0.152-0.528,0.248-0.808l0.768-2.271    h0.744l-1.056,2.759c-0.503,1.327-0.847,1.999-1.327,2.423c-0.352,0.295-0.688,0.416-0.863,0.447l-0.176-0.583    c0.176-0.056,0.408-0.168,0.615-0.344c0.192-0.152,0.424-0.424,0.592-0.784c0.032-0.072,0.056-0.128,0.056-0.168    s-0.016-0.096-0.056-0.184l-1.423-3.566H133.223z"/>
	</g>
	
		<line fill="none" stroke="#000000" stroke-width="0.5" stroke-linejoin="round" stroke-miterlimit="10" x1="116.829" y1="145.471" x2="116.829" y2="148.471"/>
	<g>
		<path d="M162.07,152.289h-1.639v-0.592h3.99v0.592h-1.647v4.797h-0.704V152.289z"/>
		<path d="M165.279,153.217l0.52,1.958c0.104,0.432,0.207,0.84,0.279,1.24h0.023c0.088-0.392,0.217-0.808,0.344-1.231l0.633-1.967    h0.592l0.6,1.935c0.143,0.456,0.256,0.872,0.344,1.264h0.023c0.064-0.392,0.168-0.8,0.296-1.255l0.552-1.943h0.695l-1.247,3.87    h-0.64l-0.592-1.847c-0.136-0.439-0.248-0.823-0.344-1.279h-0.016c-0.096,0.464-0.217,0.872-0.352,1.288l-0.625,1.839h-0.639    l-1.167-3.87H165.279z"/>
		<path d="M172.461,157.174c-1.039,0-1.854-0.768-1.854-1.991c0-1.295,0.855-2.055,1.919-2.055c1.111,0,1.863,0.808,1.863,1.983    c0,1.439-1,2.063-1.919,2.063H172.461z M172.495,156.646c0.671,0,1.175-0.631,1.175-1.511c0-0.656-0.327-1.479-1.159-1.479    c-0.824,0-1.184,0.768-1.184,1.503c0,0.847,0.48,1.487,1.159,1.487H172.495z"/>
		<path d="M180.317,151.41v4.677c0,0.344,0.008,0.736,0.031,1h-0.631l-0.032-0.671h-0.017c-0.215,0.432-0.68,0.759-1.311,0.759    c-0.936,0-1.664-0.792-1.664-1.967c-0.008-1.295,0.801-2.079,1.736-2.079c0.6,0,0.999,0.28,1.166,0.584h0.017v-2.303H180.317z     M179.613,154.792c0-0.096-0.008-0.208-0.032-0.304c-0.104-0.44-0.487-0.808-1.016-0.808c-0.727,0-1.158,0.64-1.158,1.487    c0,0.792,0.391,1.439,1.143,1.439c0.472,0,0.904-0.319,1.031-0.847c0.024-0.088,0.032-0.184,0.032-0.296V154.792z"/>
		<path d="M181.823,152.561c-0.256,0-0.424-0.2-0.424-0.432c0-0.248,0.176-0.439,0.439-0.439c0.256,0,0.432,0.192,0.432,0.439    c0,0.232-0.168,0.432-0.439,0.432H181.823z M181.487,157.086v-3.87h0.703v3.87H181.487z"/>
		<path d="M183.358,154.264c0-0.408-0.016-0.728-0.031-1.047h0.615l0.032,0.624h0.024c0.216-0.368,0.575-0.712,1.223-0.712    c0.52,0,0.92,0.32,1.088,0.776h0.016c0.12-0.224,0.28-0.384,0.439-0.504c0.232-0.176,0.48-0.272,0.848-0.272    c0.52,0,1.279,0.336,1.279,1.679v2.279h-0.688v-2.191c0-0.751-0.279-1.191-0.84-1.191c-0.407,0-0.711,0.296-0.839,0.632    c-0.032,0.104-0.056,0.232-0.056,0.352v2.399h-0.688v-2.327c0-0.616-0.272-1.056-0.809-1.056c-0.432,0-0.759,0.352-0.871,0.704    c-0.04,0.104-0.056,0.224-0.056,0.344v2.334h-0.688V154.264z"/>
		<path d="M190.43,155.279c0.016,0.943,0.615,1.335,1.319,1.335c0.504,0,0.815-0.088,1.071-0.2l0.128,0.503    c-0.247,0.112-0.68,0.248-1.295,0.248c-1.184,0-1.903-0.792-1.903-1.951c0-1.167,0.695-2.087,1.823-2.087    c1.263,0,1.591,1.112,1.591,1.823c0,0.144-0.008,0.248-0.023,0.328H190.43z M192.485,154.776c0.008-0.448-0.184-1.144-0.967-1.144    c-0.721,0-1.023,0.656-1.08,1.144H192.485z"/>
		<path d="M194.038,154.264c0-0.408-0.008-0.728-0.031-1.047h0.623l0.041,0.631h0.016c0.191-0.36,0.64-0.72,1.279-0.72    c0.535,0,1.367,0.32,1.367,1.647v2.311h-0.703v-2.231c0-0.624-0.232-1.151-0.896-1.151c-0.455,0-0.814,0.328-0.943,0.72    c-0.031,0.088-0.048,0.216-0.048,0.328v2.334h-0.704V154.264z"/>
		<path d="M198.382,156.367c0.216,0.128,0.583,0.272,0.936,0.272c0.503,0,0.743-0.248,0.743-0.576c0-0.336-0.199-0.512-0.711-0.704    c-0.704-0.256-1.031-0.64-1.031-1.095c0-0.624,0.512-1.136,1.335-1.136c0.392,0,0.735,0.104,0.943,0.24l-0.168,0.503    c-0.151-0.088-0.432-0.224-0.792-0.224c-0.416,0-0.639,0.24-0.639,0.527c0,0.32,0.223,0.464,0.727,0.664    c0.664,0.248,1.016,0.583,1.016,1.159c0,0.688-0.535,1.167-1.439,1.167c-0.424,0-0.814-0.112-1.087-0.272L198.382,156.367z"/>
		<path d="M201.982,152.561c-0.256,0-0.424-0.2-0.424-0.432c0-0.248,0.176-0.439,0.44-0.439c0.256,0,0.432,0.192,0.432,0.439    c0,0.232-0.168,0.432-0.44,0.432H201.982z M201.646,157.086v-3.87h0.704v3.87H201.646z"/>
		<path d="M205.093,157.174c-1.039,0-1.854-0.768-1.854-1.991c0-1.295,0.855-2.055,1.918-2.055c1.111,0,1.863,0.808,1.863,1.983    c0,1.439-0.999,2.063-1.918,2.063H205.093z M205.125,156.646c0.672,0,1.176-0.631,1.176-1.511c0-0.656-0.328-1.479-1.16-1.479    c-0.823,0-1.184,0.768-1.184,1.503c0,0.847,0.48,1.487,1.16,1.487H205.125z"/>
		<path d="M207.911,154.264c0-0.408-0.008-0.728-0.032-1.047h0.624l0.039,0.631h0.017c0.192-0.36,0.64-0.72,1.279-0.72    c0.536,0,1.367,0.32,1.367,1.647v2.311H210.5v-2.231c0-0.624-0.231-1.151-0.895-1.151c-0.456,0-0.816,0.328-0.943,0.72    c-0.033,0.088-0.049,0.216-0.049,0.328v2.334h-0.703V154.264z"/>
		<path d="M212.254,156.367c0.215,0.128,0.583,0.272,0.936,0.272c0.503,0,0.743-0.248,0.743-0.576c0-0.336-0.2-0.512-0.712-0.704    c-0.703-0.256-1.031-0.64-1.031-1.095c0-0.624,0.512-1.136,1.335-1.136c0.392,0,0.735,0.104,0.944,0.24l-0.168,0.503    c-0.152-0.088-0.432-0.224-0.792-0.224c-0.416,0-0.64,0.24-0.64,0.527c0,0.32,0.224,0.464,0.728,0.664    c0.663,0.248,1.016,0.583,1.016,1.159c0,0.688-0.536,1.167-1.439,1.167c-0.424,0-0.815-0.112-1.087-0.272L212.254,156.367z"/>
		<path d="M170.518,166.774c-1.039,0-1.855-0.768-1.855-1.991c0-1.295,0.855-2.055,1.92-2.055c1.111,0,1.863,0.808,1.863,1.983    c0,1.439-1,2.063-1.92,2.063H170.518z M170.55,166.246c0.671,0,1.175-0.631,1.175-1.511c0-0.655-0.328-1.479-1.158-1.479    c-0.824,0-1.184,0.768-1.184,1.503c0,0.847,0.479,1.487,1.158,1.487H170.55z"/>
		<path d="M173.399,166.686v-3.334h-0.535v-0.536h0.535v-0.184c0-0.544,0.128-1.04,0.456-1.351c0.264-0.256,0.616-0.359,0.936-0.359    c0.256,0,0.464,0.056,0.6,0.112l-0.088,0.543c-0.112-0.048-0.248-0.088-0.456-0.088c-0.592,0-0.752,0.528-0.752,1.12v0.208h0.936    v0.536h-0.928v3.334H173.399z"/>
		<path d="M177.27,165.966c0.217,0.128,0.584,0.272,0.936,0.272c0.504,0,0.744-0.248,0.744-0.576c0-0.336-0.2-0.512-0.712-0.704    c-0.704-0.256-1.031-0.64-1.031-1.095c0-0.624,0.512-1.136,1.335-1.136c0.393,0,0.736,0.104,0.943,0.24l-0.168,0.503    c-0.151-0.088-0.432-0.224-0.791-0.224c-0.416,0-0.64,0.24-0.64,0.528c0,0.319,0.224,0.463,0.728,0.664    c0.664,0.248,1.016,0.583,1.016,1.159c0,0.688-0.536,1.167-1.439,1.167c-0.424,0-0.815-0.112-1.088-0.272L177.27,165.966z"/>
		<path d="M180.87,162.161c-0.256,0-0.424-0.2-0.424-0.432c0-0.248,0.177-0.439,0.44-0.439c0.256,0,0.432,0.191,0.432,0.439    c0,0.231-0.168,0.432-0.439,0.432H180.87z M180.534,166.686v-3.87h0.704v3.87H180.534z"/>
		<path d="M182.407,163.864c0-0.408-0.016-0.728-0.032-1.048h0.616l0.031,0.624h0.023c0.217-0.368,0.576-0.712,1.225-0.712    c0.52,0,0.919,0.32,1.087,0.776h0.016c0.12-0.224,0.28-0.384,0.44-0.504c0.231-0.176,0.479-0.272,0.848-0.272    c0.52,0,1.279,0.336,1.279,1.679v2.279h-0.688v-2.191c0-0.751-0.28-1.191-0.84-1.191c-0.408,0-0.712,0.296-0.84,0.632    c-0.032,0.104-0.057,0.232-0.057,0.352v2.398h-0.688v-2.327c0-0.616-0.271-1.056-0.807-1.056c-0.432,0-0.76,0.352-0.872,0.704    c-0.04,0.104-0.056,0.224-0.056,0.344v2.335h-0.688V163.864z"/>
		<path d="M189.415,162.161c-0.256,0-0.424-0.2-0.424-0.432c0-0.248,0.176-0.439,0.439-0.439c0.256,0,0.432,0.191,0.432,0.439    c0,0.231-0.168,0.432-0.439,0.432H189.415z M189.079,166.686v-3.87h0.703v3.87H189.079z"/>
		<path d="M190.95,161.01h0.704v5.676h-0.704V161.01z"/>
		<path d="M195.565,165.758c0,0.336,0.016,0.664,0.056,0.928h-0.632l-0.064-0.488h-0.023c-0.208,0.304-0.632,0.576-1.184,0.576    c-0.783,0-1.184-0.552-1.184-1.111c0-0.936,0.832-1.447,2.327-1.439v-0.08c0-0.32-0.088-0.904-0.88-0.896    c-0.367,0-0.743,0.104-1.016,0.288l-0.159-0.472c0.319-0.2,0.792-0.336,1.279-0.336c1.191,0,1.479,0.808,1.479,1.583V165.758z     M194.877,164.711c-0.768-0.016-1.64,0.12-1.64,0.872c0,0.464,0.304,0.672,0.655,0.672c0.512,0,0.84-0.32,0.952-0.648    c0.024-0.072,0.032-0.152,0.032-0.224V164.711z"/>
		<path d="M196.694,164.023c0-0.456-0.008-0.848-0.031-1.208h0.615l0.031,0.76h0.024c0.177-0.52,0.608-0.848,1.079-0.848    c0.072,0,0.129,0.008,0.192,0.016v0.664c-0.071-0.008-0.144-0.016-0.239-0.016c-0.496,0-0.848,0.375-0.944,0.896    c-0.016,0.104-0.024,0.216-0.024,0.328v2.071h-0.703V164.023z"/>
		<path d="M199.646,162.161c-0.256,0-0.424-0.2-0.424-0.432c0-0.248,0.176-0.439,0.44-0.439c0.256,0,0.432,0.191,0.432,0.439    c0,0.231-0.168,0.432-0.44,0.432H199.646z M199.31,166.686v-3.87h0.704v3.87H199.31z"/>
		<path d="M202.03,161.889v0.927h1.007v0.536h-1.007v2.079c0,0.48,0.136,0.751,0.527,0.751c0.191,0,0.304-0.016,0.408-0.048    l0.031,0.536c-0.136,0.048-0.352,0.096-0.623,0.096c-0.328,0-0.592-0.112-0.76-0.296c-0.191-0.216-0.271-0.56-0.271-1.016v-2.103    h-0.6v-0.536h0.6v-0.711L202.03,161.889z"/>
		<path d="M204.086,162.816l0.84,2.287c0.096,0.256,0.191,0.56,0.256,0.792h0.016c0.072-0.232,0.152-0.528,0.248-0.808l0.768-2.271    h0.743l-1.056,2.759c-0.504,1.327-0.848,1.999-1.327,2.423c-0.352,0.295-0.688,0.416-0.863,0.447l-0.176-0.583    c0.176-0.056,0.407-0.168,0.615-0.344c0.192-0.152,0.424-0.424,0.592-0.784c0.032-0.072,0.056-0.128,0.056-0.168    s-0.016-0.096-0.056-0.184l-1.423-3.566H204.086z"/>
	</g>
	
		<line fill="none" stroke="#000000" stroke-width="0.5" stroke-linejoin="round" stroke-miterlimit="10" x1="187.692" y1="145.471" x2="187.692" y2="148.471"/>
	<g>
		<path d="M230.538,152.289h-1.639v-0.592h3.99v0.592h-1.648v4.797h-0.703V152.289z"/>
		<path d="M233.466,151.41h0.704v2.415h0.016c0.111-0.2,0.288-0.384,0.504-0.496c0.207-0.128,0.455-0.2,0.719-0.2    c0.521,0,1.352,0.32,1.352,1.655v2.303h-0.703v-2.231c0-0.624-0.232-1.143-0.896-1.143c-0.456,0-0.808,0.32-0.943,0.704    c-0.04,0.096-0.048,0.2-0.048,0.336v2.334h-0.704V151.41z"/>
		<path d="M237.907,154.424c0-0.456-0.008-0.848-0.032-1.207h0.616l0.031,0.759h0.023c0.177-0.52,0.608-0.848,1.08-0.848    c0.072,0,0.128,0.008,0.191,0.016v0.664c-0.071-0.008-0.144-0.016-0.239-0.016c-0.495,0-0.848,0.376-0.944,0.896    c-0.016,0.104-0.023,0.216-0.023,0.328v2.071h-0.703V154.424z"/>
		<path d="M240.922,155.279c0.016,0.943,0.615,1.335,1.318,1.335c0.504,0,0.816-0.088,1.072-0.2l0.127,0.503    c-0.247,0.112-0.68,0.248-1.295,0.248c-1.184,0-1.902-0.792-1.902-1.951c0-1.167,0.695-2.087,1.822-2.087    c1.264,0,1.592,1.112,1.592,1.823c0,0.144-0.008,0.248-0.024,0.328H240.922z M242.977,154.776    c0.008-0.448-0.184-1.144-0.968-1.144c-0.72,0-1.023,0.656-1.079,1.144H242.977z"/>
		<path d="M244.93,155.279c0.016,0.943,0.615,1.335,1.318,1.335c0.504,0,0.816-0.088,1.072-0.2l0.127,0.503    c-0.247,0.112-0.68,0.248-1.295,0.248c-1.184,0-1.902-0.792-1.902-1.951c0-1.167,0.695-2.087,1.822-2.087    c1.264,0,1.591,1.112,1.591,1.823c0,0.144-0.008,0.248-0.024,0.328H244.93z M246.985,154.776c0.008-0.448-0.184-1.144-0.968-1.144    c-0.72,0-1.023,0.656-1.079,1.144H246.985z"/>
		<path d="M253.576,151.41v4.677c0,0.344,0.008,0.736,0.032,1h-0.632l-0.032-0.671h-0.016c-0.216,0.432-0.68,0.759-1.312,0.759    c-0.936,0-1.663-0.792-1.663-1.967c-0.008-1.295,0.8-2.079,1.735-2.079c0.6,0,0.999,0.28,1.167,0.584h0.016v-2.303H253.576z     M252.872,154.792c0-0.096-0.008-0.208-0.031-0.304c-0.104-0.44-0.488-0.808-1.016-0.808c-0.728,0-1.159,0.64-1.159,1.487    c0,0.792,0.392,1.439,1.144,1.439c0.471,0,0.903-0.319,1.031-0.847c0.023-0.088,0.031-0.184,0.031-0.296V154.792z"/>
		<path d="M255.081,152.561c-0.256,0-0.424-0.2-0.424-0.432c0-0.248,0.177-0.439,0.44-0.439c0.256,0,0.432,0.192,0.432,0.439    c0,0.232-0.168,0.432-0.439,0.432H255.081z M254.745,157.086v-3.87h0.704v3.87H254.745z"/>
		<path d="M256.618,154.264c0-0.408-0.016-0.728-0.032-1.047h0.616l0.031,0.624h0.023c0.217-0.368,0.576-0.712,1.225-0.712    c0.52,0,0.919,0.32,1.087,0.776h0.016c0.12-0.224,0.28-0.384,0.44-0.504c0.231-0.176,0.479-0.272,0.848-0.272    c0.52,0,1.279,0.336,1.279,1.679v2.279h-0.688v-2.191c0-0.751-0.28-1.191-0.84-1.191c-0.408,0-0.712,0.296-0.84,0.632    c-0.032,0.104-0.057,0.232-0.057,0.352v2.399h-0.688v-2.327c0-0.616-0.271-1.056-0.807-1.056c-0.432,0-0.76,0.352-0.872,0.704    c-0.04,0.104-0.056,0.224-0.056,0.344v2.334h-0.688V154.264z"/>
		<path d="M263.689,155.279c0.017,0.943,0.616,1.335,1.319,1.335c0.504,0,0.815-0.088,1.071-0.2l0.128,0.503    c-0.248,0.112-0.68,0.248-1.295,0.248c-1.184,0-1.903-0.792-1.903-1.951c0-1.167,0.696-2.087,1.823-2.087    c1.264,0,1.591,1.112,1.591,1.823c0,0.144-0.008,0.248-0.024,0.328H263.689z M265.744,154.776    c0.009-0.448-0.184-1.144-0.968-1.144c-0.719,0-1.023,0.656-1.079,1.144H265.744z"/>
		<path d="M267.297,154.264c0-0.408-0.008-0.728-0.031-1.047h0.623l0.04,0.631h0.017c0.191-0.36,0.639-0.72,1.279-0.72    c0.535,0,1.367,0.32,1.367,1.647v2.311h-0.704v-2.231c0-0.624-0.231-1.151-0.896-1.151c-0.456,0-0.815,0.328-0.943,0.72    c-0.032,0.088-0.049,0.216-0.049,0.328v2.334h-0.703V154.264z"/>
		<path d="M271.641,156.367c0.217,0.128,0.584,0.272,0.936,0.272c0.504,0,0.744-0.248,0.744-0.576c0-0.336-0.2-0.512-0.712-0.704    c-0.704-0.256-1.031-0.64-1.031-1.095c0-0.624,0.512-1.136,1.335-1.136c0.393,0,0.736,0.104,0.943,0.24l-0.168,0.503    c-0.151-0.088-0.432-0.224-0.791-0.224c-0.416,0-0.64,0.24-0.64,0.527c0,0.32,0.224,0.464,0.728,0.664    c0.664,0.248,1.016,0.583,1.016,1.159c0,0.688-0.536,1.167-1.439,1.167c-0.424,0-0.815-0.112-1.088-0.272L271.641,156.367z"/>
		<path d="M275.241,152.561c-0.256,0-0.424-0.2-0.424-0.432c0-0.248,0.177-0.439,0.44-0.439c0.256,0,0.432,0.192,0.432,0.439    c0,0.232-0.168,0.432-0.439,0.432H275.241z M274.905,157.086v-3.87h0.704v3.87H274.905z"/>
		<path d="M278.352,157.174c-1.039,0-1.854-0.768-1.854-1.991c0-1.295,0.855-2.055,1.919-2.055c1.111,0,1.863,0.808,1.863,1.983    c0,1.439-1,2.063-1.919,2.063H278.352z M278.385,156.646c0.671,0,1.175-0.631,1.175-1.511c0-0.656-0.328-1.479-1.159-1.479    c-0.824,0-1.184,0.768-1.184,1.503c0,0.847,0.479,1.487,1.159,1.487H278.385z"/>
		<path d="M281.168,154.264c0-0.408-0.008-0.728-0.031-1.047h0.623l0.041,0.631h0.016c0.191-0.36,0.64-0.72,1.279-0.72    c0.535,0,1.367,0.32,1.367,1.647v2.311h-0.703v-2.231c0-0.624-0.232-1.151-0.896-1.151c-0.455,0-0.814,0.328-0.943,0.72    c-0.031,0.088-0.048,0.216-0.048,0.328v2.334h-0.704V154.264z"/>
		<path d="M285.513,156.367c0.216,0.128,0.583,0.272,0.936,0.272c0.503,0,0.743-0.248,0.743-0.576c0-0.336-0.199-0.512-0.711-0.704    c-0.704-0.256-1.031-0.64-1.031-1.095c0-0.624,0.512-1.136,1.335-1.136c0.392,0,0.735,0.104,0.943,0.24l-0.168,0.503    c-0.151-0.088-0.432-0.224-0.792-0.224c-0.416,0-0.639,0.24-0.639,0.527c0,0.32,0.223,0.464,0.727,0.664    c0.664,0.248,1.016,0.583,1.016,1.159c0,0.688-0.535,1.167-1.439,1.167c-0.424,0-0.814-0.112-1.087-0.272L285.513,156.367z"/>
		<path d="M241.381,166.774c-1.039,0-1.855-0.768-1.855-1.991c0-1.295,0.855-2.055,1.92-2.055c1.111,0,1.863,0.808,1.863,1.983    c0,1.439-1,2.063-1.92,2.063H241.381z M241.414,166.246c0.671,0,1.175-0.631,1.175-1.511c0-0.655-0.328-1.479-1.158-1.479    c-0.824,0-1.184,0.768-1.184,1.503c0,0.847,0.479,1.487,1.158,1.487H241.414z"/>
		<path d="M244.262,166.686v-3.334h-0.535v-0.536h0.535v-0.184c0-0.544,0.128-1.04,0.456-1.351c0.264-0.256,0.616-0.359,0.936-0.359    c0.256,0,0.464,0.056,0.6,0.112l-0.088,0.543c-0.112-0.048-0.248-0.088-0.456-0.088c-0.592,0-0.752,0.528-0.752,1.12v0.208h0.936    v0.536h-0.928v3.334H244.262z"/>
		<path d="M248.133,165.966c0.217,0.128,0.584,0.272,0.936,0.272c0.504,0,0.744-0.248,0.744-0.576c0-0.336-0.2-0.512-0.712-0.704    c-0.704-0.256-1.031-0.64-1.031-1.095c0-0.624,0.512-1.136,1.335-1.136c0.393,0,0.736,0.104,0.943,0.24l-0.168,0.503    c-0.151-0.088-0.432-0.224-0.791-0.224c-0.416,0-0.64,0.24-0.64,0.528c0,0.319,0.224,0.463,0.728,0.664    c0.664,0.248,1.016,0.583,1.016,1.159c0,0.688-0.536,1.167-1.439,1.167c-0.424,0-0.815-0.112-1.088-0.272L248.133,165.966z"/>
		<path d="M251.733,162.161c-0.256,0-0.424-0.2-0.424-0.432c0-0.248,0.177-0.439,0.44-0.439c0.256,0,0.432,0.191,0.432,0.439    c0,0.231-0.168,0.432-0.439,0.432H251.733z M251.397,166.686v-3.87h0.704v3.87H251.397z"/>
		<path d="M253.27,163.864c0-0.408-0.016-0.728-0.032-1.048h0.616l0.031,0.624h0.023c0.217-0.368,0.576-0.712,1.225-0.712    c0.52,0,0.919,0.32,1.087,0.776h0.016c0.12-0.224,0.28-0.384,0.44-0.504c0.231-0.176,0.479-0.272,0.848-0.272    c0.52,0,1.279,0.336,1.279,1.679v2.279h-0.688v-2.191c0-0.751-0.28-1.191-0.84-1.191c-0.408,0-0.712,0.296-0.84,0.632    c-0.032,0.104-0.057,0.232-0.057,0.352v2.398h-0.688v-2.327c0-0.616-0.271-1.056-0.807-1.056c-0.432,0-0.76,0.352-0.872,0.704    c-0.04,0.104-0.056,0.224-0.056,0.344v2.335h-0.688V163.864z"/>
		<path d="M260.278,162.161c-0.256,0-0.424-0.2-0.424-0.432c0-0.248,0.176-0.439,0.439-0.439c0.256,0,0.432,0.191,0.432,0.439    c0,0.231-0.168,0.432-0.439,0.432H260.278z M259.942,166.686v-3.87h0.703v3.87H259.942z"/>
		<path d="M261.813,161.01h0.704v5.676h-0.704V161.01z"/>
		<path d="M266.428,165.758c0,0.336,0.016,0.664,0.056,0.928h-0.632l-0.064-0.488h-0.023c-0.208,0.304-0.632,0.576-1.184,0.576    c-0.783,0-1.184-0.552-1.184-1.111c0-0.936,0.832-1.447,2.327-1.439v-0.08c0-0.32-0.088-0.904-0.88-0.896    c-0.367,0-0.743,0.104-1.016,0.288l-0.159-0.472c0.319-0.2,0.792-0.336,1.279-0.336c1.191,0,1.479,0.808,1.479,1.583V165.758z     M265.741,164.711c-0.768-0.016-1.64,0.12-1.64,0.872c0,0.464,0.304,0.672,0.655,0.672c0.512,0,0.84-0.32,0.952-0.648    c0.024-0.072,0.032-0.152,0.032-0.224V164.711z"/>
		<path d="M267.557,164.023c0-0.456-0.008-0.848-0.031-1.208h0.615l0.031,0.76h0.024c0.177-0.52,0.608-0.848,1.079-0.848    c0.072,0,0.129,0.008,0.192,0.016v0.664c-0.071-0.008-0.144-0.016-0.239-0.016c-0.496,0-0.848,0.375-0.944,0.896    c-0.016,0.104-0.024,0.216-0.024,0.328v2.071h-0.703V164.023z"/>
		<path d="M270.509,162.161c-0.256,0-0.424-0.2-0.424-0.432c0-0.248,0.176-0.439,0.44-0.439c0.256,0,0.432,0.191,0.432,0.439    c0,0.231-0.168,0.432-0.44,0.432H270.509z M270.173,166.686v-3.87h0.704v3.87H270.173z"/>
		<path d="M272.893,161.889v0.927h1.007v0.536h-1.007v2.079c0,0.48,0.136,0.751,0.527,0.751c0.191,0,0.304-0.016,0.408-0.048    l0.031,0.536c-0.136,0.048-0.352,0.096-0.623,0.096c-0.328,0-0.592-0.112-0.76-0.296c-0.191-0.216-0.271-0.56-0.271-1.016v-2.103    h-0.6v-0.536h0.6v-0.711L272.893,161.889z"/>
		<path d="M274.95,162.816l0.84,2.287c0.096,0.256,0.191,0.56,0.256,0.792h0.016c0.072-0.232,0.152-0.528,0.248-0.808l0.768-2.271    h0.743l-1.056,2.759c-0.504,1.327-0.848,1.999-1.327,2.423c-0.352,0.295-0.688,0.416-0.863,0.447l-0.176-0.583    c0.176-0.056,0.407-0.168,0.615-0.344c0.192-0.152,0.424-0.424,0.592-0.784c0.032-0.072,0.056-0.128,0.056-0.168    s-0.016-0.096-0.056-0.184l-1.423-3.566H274.95z"/>
	</g>
	
		<line fill="none" stroke="#000000" stroke-width="0.5" stroke-linejoin="round" stroke-miterlimit="10" x1="258.555" y1="145.471" x2="258.555" y2="148.471"/>
	<circle cx="227.39" cy="103.639" r="1.75"/>
	<circle cx="45.849" cy="50.965" r="1.75"/>
	<circle cx="116.729" cy="44.385" r="1.75"/>
	<circle cx="187.608" cy="37.905" r="1.75"/>
	<circle cx="258.489" cy="31.425" r="1.75"/>
	
		<line fill="none" stroke="#000000" stroke-linejoin="round" stroke-miterlimit="10" x1="215.39" y1="103.639" x2="239.39" y2="103.639"/>
	<g>
		<g>
			<line fill="none" stroke="#000000" stroke-linejoin="round" x1="215.39" y1="115.639" x2="216.89" y2="115.639"/>
			
				<line fill="none" stroke="#000000" stroke-linejoin="round" stroke-dasharray="2.8636,1.9091" x1="218.799" y1="115.639" x2="236.936" y2="115.639"/>
			<line fill="none" stroke="#000000" stroke-linejoin="round" x1="237.89" y1="115.639" x2="239.39" y2="115.639"/>
		</g>
	</g>
	
		<line fill="none" stroke="#A7A9AC" stroke-width="0.5" stroke-linejoin="round" stroke-miterlimit="10" x1="15.528" y1="2.146" x2="288.808" y2="2.146"/>
	
		<line fill="none" stroke="#A7A9AC" stroke-width="0.5" stroke-linejoin="round" stroke-miterlimit="10" x1="15.528" y1="20.146" x2="288.808" y2="20.146"/>
	
		<line fill="none" stroke="#A7A9AC" stroke-width="0.5" stroke-linejoin="round" stroke-miterlimit="10" x1="15.528" y1="38.146" x2="288.808" y2="38.146"/>
	
		<line fill="none" stroke="#A7A9AC" stroke-width="0.5" stroke-linejoin="round" stroke-miterlimit="10" x1="15.528" y1="55.905" x2="288.808" y2="55.905"/>
	
		<line fill="none" stroke="#A7A9AC" stroke-width="0.5" stroke-linejoin="round" stroke-miterlimit="10" x1="15.528" y1="73.905" x2="288.808" y2="73.905"/>
	
		<line fill="none" stroke="#A7A9AC" stroke-width="0.5" stroke-linejoin="round" stroke-miterlimit="10" x1="15.528" y1="91.666" x2="288.808" y2="91.666"/>
	
		<line fill="none" stroke="#A7A9AC" stroke-width="0.5" stroke-linejoin="round" stroke-miterlimit="10" x1="15.528" y1="127.666" x2="288.808" y2="127.666"/>
	
		<line fill="none" stroke="#000000" stroke-width="0.5" stroke-linejoin="round" stroke-miterlimit="10" x1="42.969" y1="45.585" x2="48.957" y2="45.585"/>
	
		<line fill="none" stroke="#000000" stroke-width="0.5" stroke-linejoin="round" stroke-miterlimit="10" x1="42.969" y1="56.346" x2="48.957" y2="56.346"/>
	
		<line fill="none" stroke="#000000" stroke-width="0.5" stroke-linejoin="round" stroke-miterlimit="10" x1="45.849" y1="50.865" x2="45.849" y2="45.585"/>
	
		<line fill="none" stroke="#000000" stroke-width="0.5" stroke-linejoin="round" stroke-miterlimit="10" x1="45.849" y1="56.346" x2="45.849" y2="50.865"/>
	
		<line fill="none" stroke="#000000" stroke-width="0.5" stroke-linejoin="round" stroke-miterlimit="10" x1="113.848" y1="41.266" x2="119.803" y2="41.266"/>
	
		<line fill="none" stroke="#000000" stroke-width="0.5" stroke-linejoin="round" stroke-miterlimit="10" x1="113.848" y1="47.505" x2="119.803" y2="47.505"/>
	
		<line fill="none" stroke="#000000" stroke-width="0.5" stroke-linejoin="round" stroke-miterlimit="10" x1="116.729" y1="44.385" x2="116.729" y2="41.266"/>
	
		<line fill="none" stroke="#000000" stroke-width="0.5" stroke-linejoin="round" stroke-miterlimit="10" x1="116.729" y1="47.505" x2="116.729" y2="44.385"/>
	
		<line fill="none" stroke="#000000" stroke-width="0.5" stroke-linejoin="round" stroke-miterlimit="10" x1="184.729" y1="35.025" x2="190.651" y2="35.025"/>
	
		<line fill="none" stroke="#000000" stroke-width="0.5" stroke-linejoin="round" stroke-miterlimit="10" x1="184.729" y1="41.025" x2="190.651" y2="41.025"/>
	
		<line fill="none" stroke="#000000" stroke-width="0.5" stroke-linejoin="round" stroke-miterlimit="10" x1="187.608" y1="37.905" x2="187.608" y2="35.025"/>
	
		<line fill="none" stroke="#000000" stroke-width="0.5" stroke-linejoin="round" stroke-miterlimit="10" x1="187.608" y1="41.025" x2="187.608" y2="37.905"/>
	
		<line fill="none" stroke="#000000" stroke-width="0.5" stroke-linejoin="round" stroke-miterlimit="10" x1="255.609" y1="26.386" x2="261.498" y2="26.386"/>
	
		<line fill="none" stroke="#000000" stroke-width="0.5" stroke-linejoin="round" stroke-miterlimit="10" x1="255.609" y1="36.706" x2="261.498" y2="36.706"/>
	
		<line fill="none" stroke="#000000" stroke-width="0.5" stroke-linejoin="round" stroke-miterlimit="10" x1="258.489" y1="31.425" x2="258.489" y2="26.386"/>
	
		<line fill="none" stroke="#000000" stroke-width="0.5" stroke-linejoin="round" stroke-miterlimit="10" x1="258.489" y1="36.706" x2="258.489" y2="31.425"/>
	
		<line fill="none" stroke="#000000" stroke-width="0.5" stroke-linejoin="round" stroke-miterlimit="10" x1="42.969" y1="58.065" x2="48.957" y2="58.065"/>
	
		<line fill="none" stroke="#000000" stroke-width="0.5" stroke-linejoin="round" stroke-miterlimit="10" x1="42.969" y1="64.278" x2="48.957" y2="64.278"/>
	
		<line fill="none" stroke="#000000" stroke-width="0.5" stroke-linejoin="round" stroke-miterlimit="10" x1="45.849" y1="61.186" x2="45.849" y2="58.065"/>
	
		<line fill="none" stroke="#000000" stroke-width="0.5" stroke-linejoin="round" stroke-miterlimit="10" x1="45.849" y1="64.278" x2="45.849" y2="61.186"/>
	
		<line fill="none" stroke="#000000" stroke-width="0.5" stroke-linejoin="round" stroke-miterlimit="10" x1="113.848" y1="44.385" x2="119.803" y2="44.385"/>
	
		<line fill="none" stroke="#000000" stroke-width="0.5" stroke-linejoin="round" stroke-miterlimit="10" x1="113.848" y1="48.172" x2="119.803" y2="48.172"/>
	
		<line fill="none" stroke="#000000" stroke-width="0.5" stroke-linejoin="round" stroke-miterlimit="10" x1="116.729" y1="46.306" x2="116.729" y2="44.385"/>
	
		<line fill="none" stroke="#000000" stroke-width="0.5" stroke-linejoin="round" stroke-miterlimit="10" x1="116.729" y1="48.172" x2="116.729" y2="46.306"/>
	
		<line fill="none" stroke="#000000" stroke-width="0.5" stroke-linejoin="round" stroke-miterlimit="10" x1="184.729" y1="29.746" x2="190.651" y2="29.746"/>
	
		<line fill="none" stroke="#000000" stroke-width="0.5" stroke-linejoin="round" stroke-miterlimit="10" x1="184.729" y1="33.346" x2="190.651" y2="33.346"/>
	
		<line fill="none" stroke="#000000" stroke-width="0.5" stroke-linejoin="round" stroke-miterlimit="10" x1="187.608" y1="31.425" x2="187.608" y2="29.746"/>
	
		<line fill="none" stroke="#000000" stroke-width="0.5" stroke-linejoin="round" stroke-miterlimit="10" x1="187.608" y1="33.346" x2="187.608" y2="31.425"/>
	
		<line fill="none" stroke="#000000" stroke-width="0.5" stroke-linejoin="round" stroke-miterlimit="10" x1="255.609" y1="13.425" x2="261.498" y2="13.425"/>
	
		<line fill="none" stroke="#000000" stroke-width="0.5" stroke-linejoin="round" stroke-miterlimit="10" x1="255.609" y1="19.905" x2="261.498" y2="19.905"/>
	
		<line fill="none" stroke="#000000" stroke-width="0.5" stroke-linejoin="round" stroke-miterlimit="10" x1="258.489" y1="16.785" x2="258.489" y2="13.425"/>
	
		<line fill="none" stroke="#000000" stroke-width="0.5" stroke-linejoin="round" stroke-miterlimit="10" x1="258.489" y1="19.905" x2="258.489" y2="16.785"/>
	
		<line fill="none" stroke="#000000" stroke-linecap="round" stroke-linejoin="round" stroke-miterlimit="10" x1="187.608" y1="37.905" x2="258.489" y2="31.425"/>
	
		<line fill="none" stroke="#000000" stroke-linecap="round" stroke-linejoin="round" stroke-miterlimit="10" x1="116.729" y1="44.385" x2="187.608" y2="37.905"/>
	
		<line fill="none" stroke="#000000" stroke-linecap="round" stroke-linejoin="round" stroke-miterlimit="10" x1="45.849" y1="50.865" x2="116.729" y2="44.385"/>
	<g>
		<g>
			<line fill="none" stroke="#000000" stroke-linejoin="round" x1="187.608" y1="31.425" x2="189.077" y2="31.122"/>
			
				<line fill="none" stroke="#000000" stroke-linejoin="round" stroke-dasharray="3.1064,2.071" x1="191.105" y1="30.703" x2="256.005" y2="17.298"/>
			<line fill="none" stroke="#000000" stroke-linejoin="round" x1="257.02" y1="17.089" x2="258.489" y2="16.786"/>
		</g>
	</g>
	<g>
		<g>
			<line fill="none" stroke="#000000" stroke-linejoin="round" x1="116.729" y1="46.306" x2="118.197" y2="45.998"/>
			
				<line fill="none" stroke="#000000" stroke-linejoin="round" stroke-dasharray="3.1085,2.0724" x1="120.225" y1="45.572" x2="185.125" y2="31.946"/>
			<line fill="none" stroke="#000000" stroke-linejoin="round" x1="186.14" y1="31.733" x2="187.608" y2="31.425"/>
		</g>
	</g>
	<g>
		<g>
			<line fill="none" stroke="#000000" stroke-linejoin="round" x1="45.849" y1="61.117" x2="47.317" y2="60.811"/>
			
				<line fill="none" stroke="#000000" stroke-linejoin="round" stroke-dasharray="3.108,2.072" x1="49.345" y1="60.387" x2="114.247" y2="46.824"/>
			<line fill="none" stroke="#000000" stroke-linejoin="round" x1="115.261" y1="46.612" x2="116.729" y2="46.306"/>
		</g>
	</g>
	<rect x="225.64" y="113.889" width="3.5" height="3.5"/>
	<rect x="44.099" y="59.367" width="3.5" height="3.5"/>
	<rect x="114.979" y="44.384" width="3.5" height="3.5"/>
	<rect x="185.858" y="29.675" width="3.5" height="3.5"/>
	<rect x="256.805" y="14.916" width="3.5" height="3.5"/>
</g>
</svg>