<svg xmlns="http://www.w3.org/2000/svg" xmlns:xlink="http://www.w3.org/1999/xlink" version="1.1" x="0px" y="0px" width="306.573px" height="153.917px" viewBox="0 0 306.573 153.917" enable-background="new 0 0 306.573 153.917" xml:space="preserve">
<g id="wide" display="none">
</g>
<g id="text_column">
</g>
<g id="art">
	
		<line fill="none" stroke="#A7A9AC" stroke-width="0.5" stroke-linejoin="round" stroke-miterlimit="10" x1="14.182" y1="17.936" x2="306.573" y2="17.936"/>
	
		<line fill="none" stroke="#A7A9AC" stroke-width="0.5" stroke-linejoin="round" stroke-miterlimit="10" x1="14.182" y1="2.936" x2="306.573" y2="2.936"/>
	
		<line fill="none" stroke="#A7A9AC" stroke-width="0.5" stroke-linejoin="round" stroke-miterlimit="10" x1="14.182" y1="32.936" x2="306.573" y2="32.936"/>
	
		<line fill="none" stroke="#A7A9AC" stroke-width="0.5" stroke-linejoin="round" stroke-miterlimit="10" x1="14.182" y1="107.942" x2="306.573" y2="107.942"/>
	<rect x="265.406" y="5.612" fill="#FFFFFF" width="30.868" height="25.359"/>
	<g>
		<path d="M1.728,5.373C0.712,5.373,0.016,4.422,0,2.702C0,0.951,0.76,0,1.815,0c1.087,0,1.719,0.976,1.719,2.631    c0,1.767-0.664,2.742-1.799,2.742H1.728z M1.767,4.829c0.712,0,1.056-0.839,1.056-2.167c0-1.279-0.32-2.118-1.056-2.118    c-0.64,0-1.055,0.815-1.055,2.118c-0.016,1.352,0.4,2.167,1.047,2.167H1.767z"/>
		<path d="M4.696,5.373c-0.272,0-0.463-0.216-0.463-0.504c0-0.287,0.2-0.504,0.479-0.504s0.472,0.208,0.472,0.504    c0,0.288-0.192,0.504-0.479,0.504H4.696z"/>
		<path d="M7.575,0c1.007,0,1.519,0.624,1.519,1.279c0,0.439-0.224,0.92-0.864,1.216v0.023c0.648,0.256,1.048,0.72,1.048,1.344    c0,0.911-0.776,1.511-1.767,1.511c-1.087,0-1.743-0.64-1.743-1.399c0-0.655,0.392-1.127,1.023-1.399V2.551    C6.208,2.279,5.96,1.831,5.96,1.383C5.96,0.56,6.655,0,7.567,0H7.575z M7.527,4.861c0.632,0,1.04-0.392,1.04-0.928    c0-0.623-0.439-0.936-1.144-1.135C6.815,2.975,6.488,3.382,6.488,3.878c-0.024,0.52,0.375,0.983,1.031,0.983H7.527z M7.535,0.504    c-0.584,0-0.904,0.384-0.904,0.831c-0.008,0.521,0.392,0.8,0.992,0.96c0.448-0.152,0.792-0.472,0.792-0.943    c0-0.416-0.248-0.848-0.872-0.848H7.535z"/>
		<path d="M1.728,20.373c-1.016,0-1.711-0.951-1.728-2.671C0,15.951,0.76,15,1.815,15c1.087,0,1.719,0.976,1.719,2.631    c0,1.767-0.664,2.742-1.799,2.742H1.728z M1.767,19.829c0.712,0,1.056-0.839,1.056-2.167c0-1.279-0.32-2.118-1.056-2.118    c-0.64,0-1.055,0.815-1.055,2.118c-0.016,1.352,0.4,2.167,1.047,2.167H1.767z"/>
		<path d="M4.696,20.373c-0.272,0-0.463-0.216-0.463-0.504c0-0.287,0.2-0.504,0.479-0.504s0.472,0.208,0.472,0.504    c0,0.288-0.192,0.504-0.479,0.504H4.696z"/>
		<path d="M9.206,15.088v0.464l-2.263,4.733h-0.72l2.247-4.598v-0.016H5.928v-0.584H9.206z"/>
		<path d="M1.728,35.373c-1.016,0-1.711-0.951-1.728-2.671C0,30.951,0.76,30,1.815,30c1.087,0,1.719,0.976,1.719,2.631    c0,1.767-0.664,2.742-1.799,2.742H1.728z M1.767,34.829c0.712,0,1.056-0.839,1.056-2.167c0-1.279-0.32-2.118-1.056-2.118    c-0.64,0-1.055,0.815-1.055,2.118c-0.016,1.352,0.4,2.167,1.047,2.167H1.767z"/>
		<path d="M4.696,35.373c-0.272,0-0.463-0.216-0.463-0.504c0-0.287,0.2-0.504,0.479-0.504s0.472,0.208,0.472,0.504    c0,0.288-0.192,0.504-0.479,0.504H4.696z"/>
		<path d="M8.798,30.584c-0.144-0.008-0.328,0.008-0.528,0.04C7.159,30.8,6.583,31.6,6.464,32.463h0.016    c0.248-0.336,0.688-0.607,1.264-0.607c0.919,0,1.567,0.671,1.567,1.679c0,0.959-0.647,1.839-1.735,1.839    c-1.104,0-1.831-0.863-1.831-2.215c0-1.023,0.36-1.831,0.879-2.343c0.432-0.424,1.007-0.688,1.663-0.768    c0.208-0.032,0.384-0.04,0.512-0.04V30.584z M7.591,34.829c0.6,0,1.008-0.503,1.008-1.247c0-0.743-0.424-1.191-1.072-1.191    c-0.423,0-0.823,0.256-1.015,0.64c-0.04,0.08-0.072,0.176-0.072,0.304c0.008,0.855,0.408,1.495,1.144,1.495H7.591z"/>
		<path d="M1.728,50.373c-1.016,0-1.711-0.951-1.728-2.671C0,45.951,0.76,45,1.815,45c1.087,0,1.719,0.976,1.719,2.631    c0,1.767-0.664,2.742-1.799,2.742H1.728z M1.767,49.829c0.712,0,1.056-0.839,1.056-2.167c0-1.279-0.32-2.118-1.056-2.118    c-0.64,0-1.055,0.815-1.055,2.118c-0.016,1.352,0.4,2.167,1.047,2.167H1.767z"/>
		<path d="M4.696,50.373c-0.272,0-0.463-0.216-0.463-0.504c0-0.287,0.2-0.504,0.479-0.504s0.472,0.208,0.472,0.504    c0,0.288-0.192,0.504-0.479,0.504H4.696z"/>
		<path d="M8.934,45.68H6.951l-0.2,1.335c0.12-0.016,0.232-0.031,0.424-0.031c0.408,0,0.799,0.088,1.119,0.279    c0.408,0.224,0.744,0.68,0.744,1.335c0,1.016-0.808,1.775-1.935,1.775c-0.568,0-1.04-0.16-1.295-0.319l0.176-0.536    c0.216,0.128,0.64,0.288,1.12,0.288c0.655,0,1.231-0.432,1.223-1.136c0-0.663-0.456-1.144-1.487-1.144    c-0.304,0-0.536,0.024-0.728,0.057l0.336-2.495h2.486V45.68z"/>
		<path d="M1.728,65.373c-1.016,0-1.711-0.951-1.728-2.671C0,60.951,0.76,60,1.815,60c1.087,0,1.719,0.976,1.719,2.631    c0,1.767-0.664,2.742-1.799,2.742H1.728z M1.767,64.829c0.712,0,1.056-0.839,1.056-2.167c0-1.279-0.32-2.118-1.056-2.118    c-0.64,0-1.055,0.815-1.055,2.118c-0.016,1.352,0.4,2.167,1.047,2.167H1.767z"/>
		<path d="M4.696,65.373c-0.272,0-0.463-0.216-0.463-0.504c0-0.287,0.2-0.504,0.479-0.504s0.472,0.208,0.472,0.504    c0,0.288-0.192,0.504-0.479,0.504H4.696z"/>
		<path d="M8.007,65.285v-1.423H5.592v-0.456l2.318-3.318h0.76v3.23h0.728v0.544H8.67v1.423H8.007z M8.007,63.318v-1.735    c0-0.271,0.008-0.544,0.024-0.815H8.007c-0.16,0.304-0.288,0.527-0.432,0.768l-1.271,1.768v0.016H8.007z"/>
		<path d="M1.728,80.373c-1.016,0-1.711-0.951-1.728-2.671C0,75.951,0.76,75,1.815,75c1.087,0,1.719,0.976,1.719,2.631    c0,1.767-0.664,2.742-1.799,2.742H1.728z M1.767,79.829c0.712,0,1.056-0.839,1.056-2.167c0-1.279-0.32-2.118-1.056-2.118    c-0.64,0-1.055,0.815-1.055,2.118c-0.016,1.352,0.4,2.167,1.047,2.167H1.767z"/>
		<path d="M4.696,80.373c-0.272,0-0.463-0.216-0.463-0.504c0-0.287,0.2-0.504,0.479-0.504s0.472,0.208,0.472,0.504    c0,0.288-0.192,0.504-0.479,0.504H4.696z"/>
		<path d="M6,79.485c0.2,0.12,0.655,0.32,1.151,0.32c0.896,0,1.183-0.568,1.175-1.008c-0.008-0.728-0.664-1.039-1.343-1.039H6.592    V77.23h0.392c0.512,0,1.159-0.264,1.159-0.879c0-0.416-0.264-0.784-0.911-0.784c-0.416,0-0.816,0.185-1.04,0.344L6,75.399    C6.28,75.2,6.808,75,7.367,75c1.023,0,1.487,0.607,1.487,1.239c0,0.544-0.328,1-0.959,1.231v0.016    c0.64,0.12,1.159,0.6,1.159,1.328c0,0.831-0.656,1.559-1.895,1.559c-0.583,0-1.095-0.184-1.351-0.352L6,79.485z"/>
		<path d="M1.728,95.373c-1.016,0-1.711-0.951-1.728-2.671C0,90.951,0.76,90,1.815,90c1.087,0,1.719,0.976,1.719,2.631    c0,1.767-0.664,2.742-1.799,2.742H1.728z M1.767,94.829c0.712,0,1.056-0.839,1.056-2.167c0-1.279-0.32-2.118-1.056-2.118    c-0.64,0-1.055,0.815-1.055,2.118c-0.016,1.352,0.4,2.167,1.047,2.167H1.767z"/>
		<path d="M4.696,95.373c-0.272,0-0.463-0.216-0.463-0.504c0-0.287,0.2-0.504,0.479-0.504s0.472,0.208,0.472,0.504    c0,0.288-0.192,0.504-0.479,0.504H4.696z"/>
		<path d="M5.832,95.285v-0.432l0.552-0.536c1.327-1.263,1.935-1.935,1.935-2.718c0-0.528-0.248-1.016-1.023-1.016    c-0.472,0-0.863,0.239-1.103,0.439l-0.224-0.496C6.32,90.232,6.839,90,7.439,90c1.111,0,1.583,0.768,1.583,1.512    c0,0.959-0.696,1.734-1.791,2.79l-0.408,0.384v0.016H9.15v0.584H5.832z"/>
		<path d="M1.728,110.373c-1.016,0-1.711-0.951-1.728-2.671C0,105.951,0.76,105,1.815,105c1.087,0,1.719,0.976,1.719,2.631    c0,1.767-0.664,2.742-1.799,2.742H1.728z M1.767,109.829c0.712,0,1.056-0.839,1.056-2.167c0-1.279-0.32-2.118-1.056-2.118    c-0.64,0-1.055,0.815-1.055,2.118c-0.016,1.352,0.4,2.167,1.047,2.167H1.767z"/>
		<path d="M4.696,110.373c-0.272,0-0.463-0.216-0.463-0.504c0-0.287,0.2-0.504,0.479-0.504s0.472,0.208,0.472,0.504    c0,0.288-0.192,0.504-0.479,0.504H4.696z"/>
		<path d="M7.359,105.744H7.343l-0.904,0.487l-0.136-0.536l1.135-0.607h0.6v5.197H7.359V105.744z"/>
		<path d="M1.728,125.373c-1.016,0-1.711-0.951-1.728-2.671C0,120.951,0.76,120,1.815,120c1.087,0,1.719,0.976,1.719,2.631    c0,1.767-0.664,2.742-1.799,2.742H1.728z M1.767,124.829c0.712,0,1.056-0.839,1.056-2.167c0-1.279-0.32-2.118-1.056-2.118    c-0.64,0-1.055,0.815-1.055,2.118c-0.016,1.352,0.4,2.167,1.047,2.167H1.767z"/>
		<path d="M4.696,125.373c-0.272,0-0.463-0.216-0.463-0.504c0-0.287,0.2-0.504,0.479-0.504s0.472,0.208,0.472,0.504    c0,0.288-0.192,0.504-0.479,0.504H4.696z"/>
		<path d="M7.487,125.373c-1.016,0-1.711-0.951-1.728-2.671c0-1.751,0.76-2.702,1.815-2.702c1.087,0,1.719,0.976,1.719,2.631    c0,1.767-0.664,2.742-1.799,2.742H7.487z M7.527,124.829c0.712,0,1.056-0.839,1.056-2.167c0-1.279-0.32-2.118-1.056-2.118    c-0.64,0-1.055,0.815-1.055,2.118c-0.016,1.352,0.4,2.167,1.047,2.167H7.527z"/>
	</g>
	
		<line fill="none" stroke="#A7A9AC" stroke-width="0.5" stroke-linejoin="round" stroke-miterlimit="10" x1="14.182" y1="47.938" x2="306.573" y2="47.938"/>
	
		<line fill="none" stroke="#A7A9AC" stroke-width="0.5" stroke-linejoin="round" stroke-miterlimit="10" x1="14.182" y1="77.94" x2="306.573" y2="77.94"/>
	
		<line fill="none" stroke="#A7A9AC" stroke-width="0.5" stroke-linejoin="round" stroke-miterlimit="10" x1="14.182" y1="92.94" x2="306.573" y2="92.94"/>
	
		<line fill="none" stroke="#A7A9AC" stroke-width="0.5" stroke-linejoin="round" stroke-miterlimit="10" x1="14.182" y1="62.938" x2="306.573" y2="62.938"/>
	
		<line fill="none" stroke="#000000" stroke-width="0.5" stroke-linejoin="round" stroke-miterlimit="10" x1="14.182" y1="122.84" x2="306.573" y2="122.84"/>
	
		<line fill="none" stroke="#000000" stroke-width="0.5" stroke-linejoin="round" stroke-miterlimit="10" x1="14.157" y1="122.934" x2="14.157" y2="2.994"/>
	<g>
		<path d="M24.403,130.463l-0.56,1.695h-0.72l1.831-5.389h0.84l1.839,5.389H26.89l-0.576-1.695H24.403z M26.17,129.919l-0.536-1.551    c-0.112-0.352-0.192-0.671-0.272-0.983h-0.024c-0.072,0.312-0.16,0.648-0.264,0.976l-0.528,1.559H26.17z"/>
		<path d="M28.404,129.335c0-0.408-0.016-0.728-0.032-1.047h0.616l0.032,0.624h0.024c0.216-0.368,0.576-0.712,1.224-0.712    c0.52,0,0.919,0.32,1.087,0.776h0.016c0.12-0.224,0.28-0.384,0.439-0.504c0.232-0.176,0.48-0.272,0.848-0.272    c0.52,0,1.279,0.336,1.279,1.679v2.279H33.25v-2.191c0-0.751-0.28-1.191-0.84-1.191c-0.408,0-0.711,0.296-0.839,0.632    c-0.032,0.104-0.056,0.232-0.056,0.352v2.399h-0.688v-2.327c0-0.616-0.272-1.056-0.808-1.056c-0.432,0-0.76,0.352-0.872,0.704    c-0.04,0.104-0.056,0.224-0.056,0.344v2.334h-0.688V129.335z"/>
		<path d="M36.651,132.246c-1.039,0-1.855-0.768-1.855-1.991c0-1.295,0.855-2.055,1.919-2.055c1.111,0,1.863,0.808,1.863,1.983    c0,1.439-1,2.063-1.919,2.063H36.651z M36.683,131.718c0.671,0,1.175-0.631,1.175-1.511c0-0.656-0.328-1.479-1.16-1.479    c-0.823,0-1.183,0.768-1.183,1.503c0,0.847,0.48,1.487,1.159,1.487H36.683z"/>
		<path d="M39.468,129.335c0-0.408-0.008-0.728-0.032-1.047h0.624l0.04,0.631h0.016c0.192-0.36,0.64-0.72,1.279-0.72    c0.536,0,1.367,0.32,1.367,1.647v2.311h-0.704v-2.231c0-0.624-0.232-1.151-0.896-1.151c-0.456,0-0.815,0.328-0.943,0.72    c-0.032,0.088-0.048,0.216-0.048,0.328v2.334h-0.704V129.335z"/>
		<path d="M47.218,131.59c0,0.896-0.184,1.432-0.552,1.775c-0.384,0.344-0.928,0.463-1.416,0.463c-0.463,0-0.975-0.112-1.287-0.32    l0.176-0.543c0.256,0.168,0.656,0.312,1.135,0.312c0.72,0,1.248-0.376,1.248-1.359v-0.424h-0.016    c-0.208,0.36-0.631,0.647-1.231,0.647c-0.959,0-1.647-0.815-1.647-1.895c0-1.311,0.855-2.047,1.751-2.047    c0.672,0,1.032,0.344,1.208,0.672h0.016l0.024-0.583h0.624c-0.024,0.271-0.032,0.591-0.032,1.055V131.59z M46.515,129.807    c0-0.112-0.008-0.216-0.04-0.312c-0.128-0.416-0.464-0.751-0.983-0.751c-0.672,0-1.151,0.568-1.151,1.471    c0,0.751,0.392,1.391,1.143,1.391c0.44,0,0.832-0.272,0.976-0.728c0.04-0.112,0.056-0.248,0.056-0.376V129.807z"/>
		<path d="M50.923,127.36v0.928h1.007v0.536h-1.007v2.079c0,0.48,0.136,0.751,0.528,0.751c0.192,0,0.304-0.016,0.408-0.048    l0.032,0.536c-0.136,0.048-0.352,0.096-0.624,0.096c-0.328,0-0.592-0.112-0.759-0.296c-0.192-0.216-0.272-0.56-0.272-1.016v-2.103    h-0.6v-0.536h0.6v-0.712L50.923,127.36z"/>
		<path d="M52.723,126.481h0.704v2.415h0.016c0.112-0.2,0.288-0.384,0.504-0.496c0.208-0.128,0.456-0.2,0.719-0.2    c0.52,0,1.352,0.32,1.352,1.655v2.303h-0.704v-2.231c0-0.624-0.232-1.143-0.896-1.143c-0.456,0-0.808,0.32-0.943,0.704    c-0.04,0.096-0.048,0.2-0.048,0.336v2.334h-0.704V126.481z"/>
		<path d="M58.738,132.246c-1.039,0-1.855-0.768-1.855-1.991c0-1.295,0.855-2.055,1.919-2.055c1.111,0,1.863,0.808,1.863,1.983    c0,1.439-1,2.063-1.919,2.063H58.738z M58.771,131.718c0.671,0,1.175-0.631,1.175-1.511c0-0.656-0.328-1.479-1.16-1.479    c-0.823,0-1.183,0.768-1.183,1.503c0,0.847,0.48,1.487,1.159,1.487H58.771z"/>
		<path d="M61.459,131.438c0.216,0.128,0.583,0.272,0.936,0.272c0.503,0,0.744-0.248,0.744-0.576c0-0.336-0.2-0.512-0.712-0.704    c-0.704-0.256-1.031-0.64-1.031-1.095c0-0.624,0.512-1.136,1.335-1.136c0.392,0,0.736,0.104,0.944,0.24l-0.168,0.503    c-0.152-0.088-0.432-0.224-0.792-0.224c-0.416,0-0.64,0.24-0.64,0.527c0,0.32,0.224,0.464,0.728,0.664    c0.664,0.248,1.016,0.583,1.016,1.159c0,0.688-0.536,1.167-1.439,1.167c-0.424,0-0.815-0.112-1.087-0.272L61.459,131.438z"/>
		<path d="M65.123,130.351c0.016,0.943,0.616,1.335,1.319,1.335c0.504,0,0.815-0.088,1.071-0.2l0.128,0.503    c-0.248,0.112-0.68,0.248-1.295,0.248c-1.184,0-1.903-0.792-1.903-1.951c0-1.167,0.696-2.087,1.823-2.087    c1.263,0,1.591,1.112,1.591,1.823c0,0.144-0.008,0.248-0.024,0.328H65.123z M67.178,129.847c0.008-0.448-0.184-1.144-0.967-1.144    c-0.72,0-1.023,0.656-1.08,1.144H67.178z"/>
		<path d="M70.707,128.288l0.52,1.958c0.104,0.432,0.208,0.84,0.28,1.24h0.024c0.088-0.392,0.216-0.808,0.344-1.231l0.632-1.967    h0.592l0.6,1.935c0.144,0.456,0.256,0.872,0.344,1.264h0.024c0.064-0.392,0.168-0.8,0.296-1.255l0.552-1.943h0.695l-1.247,3.87    h-0.64l-0.592-1.847c-0.136-0.439-0.248-0.823-0.344-1.279H72.77c-0.096,0.464-0.216,0.872-0.352,1.288l-0.624,1.839h-0.64    l-1.167-3.87H70.707z"/>
		<path d="M76.315,126.481h0.704v2.415h0.016c0.112-0.2,0.288-0.384,0.504-0.496c0.208-0.128,0.456-0.2,0.719-0.2    c0.52,0,1.352,0.32,1.352,1.655v2.303h-0.704v-2.231c0-0.624-0.232-1.143-0.896-1.143c-0.456,0-0.808,0.32-0.943,0.704    c-0.04,0.096-0.048,0.2-0.048,0.336v2.334h-0.704V126.481z"/>
		<path d="M82.33,132.246c-1.04,0-1.855-0.768-1.855-1.991c0-1.295,0.855-2.055,1.919-2.055c1.111,0,1.863,0.808,1.863,1.983    c0,1.439-1,2.063-1.919,2.063H82.33z M82.362,131.718c0.671,0,1.175-0.631,1.175-1.511c0-0.656-0.328-1.479-1.159-1.479    c-0.824,0-1.184,0.768-1.184,1.503c0,0.847,0.479,1.487,1.159,1.487H82.362z"/>
		<path d="M87.69,127.36v0.928h1.007v0.536H87.69v2.079c0,0.48,0.136,0.751,0.528,0.751c0.192,0,0.304-0.016,0.408-0.048    l0.032,0.536c-0.136,0.048-0.352,0.096-0.624,0.096c-0.328,0-0.591-0.112-0.759-0.296c-0.192-0.216-0.272-0.56-0.272-1.016v-2.103    h-0.6v-0.536h0.6v-0.712L87.69,127.36z"/>
		<path d="M89.491,126.481h0.704v2.415h0.016c0.112-0.2,0.288-0.384,0.504-0.496c0.208-0.128,0.456-0.2,0.719-0.2    c0.52,0,1.352,0.32,1.352,1.655v2.303h-0.704v-2.231c0-0.624-0.232-1.143-0.896-1.143c-0.456,0-0.808,0.32-0.943,0.704    c-0.04,0.096-0.048,0.2-0.048,0.336v2.334h-0.704V126.481z"/>
		<path d="M94.266,127.632c-0.256,0-0.424-0.2-0.424-0.432c0-0.248,0.176-0.439,0.44-0.439c0.256,0,0.432,0.192,0.432,0.439    c0,0.232-0.168,0.432-0.439,0.432H94.266z M93.93,132.158v-3.87h0.704v3.87H93.93z"/>
		<path d="M95.802,129.335c0-0.408-0.008-0.728-0.032-1.047h0.624l0.04,0.631h0.016c0.192-0.36,0.64-0.72,1.279-0.72    c0.536,0,1.367,0.32,1.367,1.647v2.311h-0.704v-2.231c0-0.624-0.232-1.151-0.896-1.151c-0.456,0-0.815,0.328-0.943,0.72    c-0.032,0.088-0.048,0.216-0.048,0.328v2.334h-0.704V129.335z"/>
		<path d="M100.945,130.063h0.016c0.096-0.136,0.224-0.304,0.336-0.44l1.144-1.335h0.839l-1.495,1.591l1.703,2.279h-0.856    l-1.327-1.855l-0.36,0.4v1.455h-0.703v-5.677h0.703V130.063z"/>
		<path d="M23.032,137.36v0.928h1.007v0.536h-1.007v2.079c0,0.48,0.136,0.751,0.528,0.751c0.192,0,0.304-0.016,0.408-0.048    L24,142.141c-0.136,0.048-0.352,0.096-0.624,0.096c-0.328,0-0.592-0.112-0.759-0.296c-0.192-0.216-0.272-0.56-0.272-1.016v-2.103    h-0.6v-0.536h0.6v-0.712L23.032,137.36z"/>
		<path d="M24.832,139.495c0-0.456-0.008-0.848-0.032-1.207h0.616l0.032,0.759h0.024c0.176-0.52,0.608-0.848,1.08-0.848    c0.072,0,0.128,0.008,0.192,0.016v0.664c-0.072-0.008-0.144-0.016-0.24-0.016c-0.496,0-0.848,0.376-0.943,0.896    c-0.016,0.104-0.024,0.216-0.024,0.328v2.071h-0.704V139.495z"/>
		<path d="M30.175,141.23c0,0.335,0.016,0.664,0.056,0.927h-0.632l-0.064-0.488h-0.024c-0.208,0.304-0.632,0.576-1.183,0.576    c-0.784,0-1.184-0.552-1.184-1.111c0-0.936,0.832-1.447,2.327-1.439v-0.08c0-0.32-0.088-0.904-0.879-0.896    c-0.368,0-0.744,0.104-1.016,0.288l-0.16-0.472c0.32-0.2,0.792-0.336,1.279-0.336c1.191,0,1.479,0.808,1.479,1.583V141.23z     M29.487,140.182c-0.768-0.016-1.639,0.12-1.639,0.872c0,0.464,0.304,0.672,0.656,0.672c0.512,0,0.839-0.32,0.952-0.648    c0.024-0.072,0.032-0.152,0.032-0.224V140.182z"/>
		<path d="M34.646,136.481v4.677c0,0.344,0.008,0.736,0.032,1h-0.632l-0.032-0.671h-0.016c-0.216,0.432-0.68,0.759-1.312,0.759    c-0.936,0-1.663-0.792-1.663-1.967c-0.008-1.295,0.8-2.079,1.735-2.079c0.6,0,0.999,0.28,1.167,0.584h0.016v-2.302H34.646z     M33.942,139.862c0-0.096-0.008-0.208-0.032-0.304c-0.104-0.44-0.488-0.808-1.016-0.808c-0.728,0-1.159,0.64-1.159,1.487    c0,0.792,0.392,1.439,1.143,1.439c0.472,0,0.904-0.319,1.032-0.847c0.024-0.088,0.032-0.184,0.032-0.296V139.862z"/>
		<path d="M36.216,140.35c0.016,0.943,0.616,1.335,1.319,1.335c0.504,0,0.815-0.088,1.071-0.2l0.128,0.503    c-0.248,0.112-0.68,0.248-1.295,0.248c-1.183,0-1.903-0.792-1.903-1.951c0-1.167,0.696-2.087,1.823-2.087    c1.263,0,1.591,1.112,1.591,1.823c0,0.144-0.008,0.248-0.024,0.328H36.216z M38.271,139.847c0.008-0.448-0.184-1.144-0.968-1.144    c-0.72,0-1.023,0.656-1.079,1.144H38.271z"/>
		<path d="M41.52,136.481h0.704v2.414h0.016c0.112-0.2,0.288-0.384,0.504-0.496c0.208-0.128,0.456-0.2,0.719-0.2    c0.52,0,1.352,0.32,1.352,1.655v2.303H44.11v-2.231c0-0.624-0.232-1.143-0.896-1.143c-0.456,0-0.808,0.32-0.943,0.704    c-0.04,0.096-0.048,0.2-0.048,0.336v2.334H41.52V136.481z"/>
		<path d="M46.36,140.35c0.016,0.943,0.616,1.335,1.319,1.335c0.504,0,0.815-0.088,1.071-0.2l0.128,0.503    c-0.248,0.112-0.68,0.248-1.295,0.248c-1.184,0-1.903-0.792-1.903-1.951c0-1.167,0.696-2.087,1.823-2.087    c1.263,0,1.591,1.112,1.591,1.823c0,0.144-0.008,0.248-0.024,0.328H46.36z M48.415,139.847c0.008-0.448-0.184-1.144-0.967-1.144    c-0.72,0-1.023,0.656-1.08,1.144H48.415z"/>
		<path d="M49.968,136.481h0.704v5.676h-0.704V136.481z"/>
		<path d="M51.855,139.551c0-0.496-0.008-0.896-0.032-1.263h0.631l0.04,0.664h0.016c0.28-0.48,0.744-0.752,1.367-0.752    c0.943,0,1.647,0.792,1.647,1.967c0,1.391-0.856,2.079-1.759,2.079c-0.52,0-0.959-0.224-1.191-0.607h-0.016v2.103h-0.703V139.551z     M52.559,140.582c0,0.096,0.008,0.2,0.032,0.288c0.12,0.488,0.552,0.823,1.047,0.823c0.744,0,1.175-0.607,1.175-1.495    c0-0.775-0.4-1.439-1.144-1.439c-0.479,0-0.935,0.335-1.071,0.871c-0.016,0.088-0.04,0.192-0.04,0.28V140.582z"/>
		<path d="M56.311,141.438c0.216,0.128,0.583,0.272,0.936,0.272c0.503,0,0.744-0.248,0.744-0.576c0-0.336-0.2-0.512-0.712-0.704    c-0.704-0.256-1.031-0.64-1.031-1.095c0-0.624,0.512-1.136,1.335-1.136c0.392,0,0.736,0.104,0.944,0.24l-0.168,0.503    c-0.152-0.088-0.432-0.224-0.792-0.224c-0.416,0-0.64,0.24-0.64,0.527c0,0.32,0.224,0.464,0.728,0.664    c0.664,0.248,1.016,0.583,1.016,1.159c0,0.688-0.536,1.167-1.439,1.167c-0.424,0-0.815-0.112-1.087-0.272L56.311,141.438z"/>
		<path d="M62.119,137.36v0.928h1.007v0.536h-1.007v2.079c0,0.48,0.136,0.751,0.528,0.751c0.192,0,0.304-0.016,0.408-0.048    l0.032,0.536c-0.136,0.048-0.352,0.096-0.624,0.096c-0.328,0-0.591-0.112-0.759-0.296c-0.192-0.216-0.272-0.56-0.272-1.016v-2.103    h-0.6v-0.536h0.6v-0.712L62.119,137.36z"/>
		<path d="M63.919,136.481h0.704v2.414h0.016c0.112-0.2,0.288-0.384,0.504-0.496c0.208-0.128,0.456-0.2,0.72-0.2    c0.52,0,1.351,0.32,1.351,1.655v2.303H66.51v-2.231c0-0.624-0.232-1.143-0.896-1.143c-0.456,0-0.808,0.32-0.943,0.704    c-0.04,0.096-0.048,0.2-0.048,0.336v2.334h-0.704V136.481z"/>
		<path d="M68.759,140.35c0.016,0.943,0.616,1.335,1.319,1.335c0.504,0,0.815-0.088,1.071-0.2l0.128,0.503    c-0.248,0.112-0.68,0.248-1.295,0.248c-1.184,0-1.903-0.792-1.903-1.951c0-1.167,0.696-2.087,1.823-2.087    c1.263,0,1.591,1.112,1.591,1.823c0,0.144-0.008,0.248-0.024,0.328H68.759z M70.813,139.847c0.008-0.448-0.184-1.144-0.967-1.144    c-0.72,0-1.023,0.656-1.08,1.144H70.813z"/>
		<path d="M74.462,140.35c0.016,0.943,0.616,1.335,1.319,1.335c0.504,0,0.815-0.088,1.071-0.2l0.128,0.503    c-0.248,0.112-0.68,0.248-1.295,0.248c-1.183,0-1.903-0.792-1.903-1.951c0-1.167,0.696-2.087,1.823-2.087    c1.263,0,1.591,1.112,1.591,1.823c0,0.144-0.008,0.248-0.024,0.328H74.462z M76.518,139.847c0.008-0.448-0.184-1.144-0.968-1.144    c-0.72,0-1.023,0.656-1.079,1.144H76.518z"/>
		<path d="M80.83,142.013c-0.184,0.088-0.592,0.224-1.111,0.224c-1.167,0-1.927-0.792-1.927-1.975c0-1.191,0.815-2.063,2.079-2.063    c0.416,0,0.783,0.104,0.976,0.208l-0.16,0.536c-0.168-0.088-0.432-0.184-0.815-0.184c-0.888,0-1.367,0.664-1.367,1.463    c0,0.896,0.576,1.447,1.343,1.447c0.399,0,0.664-0.096,0.863-0.184L80.83,142.013z"/>
		<path d="M83.23,142.245c-1.04,0-1.855-0.768-1.855-1.991c0-1.295,0.855-2.055,1.919-2.055c1.111,0,1.863,0.808,1.863,1.983    c0,1.439-1,2.063-1.919,2.063H83.23z M83.262,141.717c0.671,0,1.175-0.631,1.175-1.511c0-0.656-0.328-1.479-1.159-1.479    c-0.824,0-1.184,0.768-1.184,1.503c0,0.847,0.479,1.487,1.159,1.487H83.262z"/>
		<path d="M86.046,139.335c0-0.408-0.008-0.728-0.032-1.047h0.624l0.04,0.631h0.016c0.192-0.36,0.64-0.72,1.279-0.72    c0.536,0,1.367,0.32,1.367,1.647v2.311h-0.704v-2.231c0-0.624-0.232-1.151-0.896-1.151c-0.456,0-0.815,0.328-0.943,0.72    c-0.032,0.088-0.048,0.216-0.048,0.328v2.334h-0.704V139.335z"/>
		<path d="M92.062,142.245c-1.039,0-1.855-0.768-1.855-1.991c0-1.295,0.855-2.055,1.919-2.055c1.111,0,1.863,0.808,1.863,1.983    c0,1.439-1,2.063-1.919,2.063H92.062z M92.094,141.717c0.671,0,1.175-0.631,1.175-1.511c0-0.656-0.328-1.479-1.16-1.479    c-0.823,0-1.183,0.768-1.183,1.503c0,0.847,0.48,1.487,1.159,1.487H92.094z"/>
		<path d="M94.878,139.335c0-0.408-0.016-0.728-0.032-1.047h0.616l0.032,0.624h0.024c0.216-0.368,0.576-0.712,1.224-0.712    c0.52,0,0.919,0.32,1.087,0.776h0.016c0.12-0.224,0.28-0.384,0.44-0.504c0.232-0.176,0.48-0.272,0.848-0.272    c0.52,0,1.279,0.336,1.279,1.679v2.279h-0.688v-2.191c0-0.751-0.28-1.191-0.84-1.191c-0.408,0-0.711,0.296-0.839,0.632    c-0.032,0.104-0.056,0.232-0.056,0.352v2.399h-0.688v-2.327c0-0.616-0.272-1.056-0.808-1.056c-0.432,0-0.759,0.352-0.872,0.704    c-0.04,0.104-0.056,0.224-0.056,0.344v2.334h-0.688V139.335z"/>
		<path d="M101.806,138.288l0.84,2.287c0.096,0.256,0.192,0.56,0.256,0.792h0.016c0.072-0.232,0.152-0.528,0.248-0.808l0.768-2.271    h0.744l-1.056,2.758c-0.503,1.327-0.847,1.999-1.327,2.422c-0.352,0.296-0.688,0.416-0.863,0.448l-0.176-0.584    c0.176-0.056,0.408-0.168,0.615-0.344c0.192-0.152,0.424-0.424,0.592-0.784c0.032-0.072,0.056-0.128,0.056-0.168    c0-0.04-0.016-0.096-0.056-0.184l-1.423-3.566H101.806z"/>
	</g>
	<g>
		<path d="M122.404,130.463l-0.56,1.695h-0.72l1.831-5.389h0.84l1.839,5.389h-0.744l-0.576-1.695H122.404z M124.171,129.919    l-0.536-1.551c-0.112-0.352-0.192-0.671-0.272-0.983h-0.024c-0.072,0.312-0.16,0.648-0.264,0.976l-0.528,1.559H124.171z"/>
		<path d="M126.404,129.335c0-0.408-0.016-0.728-0.032-1.047h0.616l0.032,0.624h0.024c0.216-0.368,0.576-0.712,1.224-0.712    c0.52,0,0.919,0.32,1.087,0.776h0.016c0.12-0.224,0.28-0.384,0.439-0.504c0.232-0.176,0.48-0.272,0.848-0.272    c0.52,0,1.279,0.336,1.279,1.679v2.279h-0.688v-2.191c0-0.751-0.28-1.191-0.84-1.191c-0.408,0-0.711,0.296-0.839,0.632    c-0.032,0.104-0.056,0.232-0.056,0.352v2.399h-0.688v-2.327c0-0.616-0.272-1.056-0.808-1.056c-0.432,0-0.76,0.352-0.872,0.704    c-0.04,0.104-0.056,0.224-0.056,0.344v2.334h-0.688V129.335z"/>
		<path d="M134.651,132.246c-1.039,0-1.855-0.768-1.855-1.991c0-1.295,0.855-2.055,1.919-2.055c1.111,0,1.863,0.808,1.863,1.983    c0,1.439-1,2.063-1.919,2.063H134.651z M134.684,131.718c0.671,0,1.175-0.631,1.175-1.511c0-0.656-0.328-1.479-1.16-1.479    c-0.823,0-1.183,0.768-1.183,1.503c0,0.847,0.48,1.487,1.159,1.487H134.684z"/>
		<path d="M137.468,129.335c0-0.408-0.008-0.728-0.032-1.047h0.624l0.04,0.631h0.016c0.192-0.36,0.64-0.72,1.279-0.72    c0.536,0,1.367,0.32,1.367,1.647v2.311h-0.704v-2.231c0-0.624-0.232-1.151-0.896-1.151c-0.456,0-0.815,0.328-0.943,0.72    c-0.032,0.088-0.048,0.216-0.048,0.328v2.334h-0.704V129.335z"/>
		<path d="M145.219,131.59c0,0.896-0.184,1.432-0.552,1.775c-0.384,0.344-0.928,0.463-1.416,0.463c-0.463,0-0.975-0.112-1.287-0.32    l0.176-0.543c0.256,0.168,0.656,0.312,1.135,0.312c0.72,0,1.248-0.376,1.248-1.359v-0.424h-0.016    c-0.208,0.36-0.631,0.647-1.231,0.647c-0.959,0-1.647-0.815-1.647-1.895c0-1.311,0.855-2.047,1.751-2.047    c0.672,0,1.032,0.344,1.208,0.672h0.016l0.024-0.583h0.624c-0.024,0.271-0.032,0.591-0.032,1.055V131.59z M144.515,129.807    c0-0.112-0.008-0.216-0.04-0.312c-0.128-0.416-0.464-0.751-0.983-0.751c-0.672,0-1.151,0.568-1.151,1.471    c0,0.751,0.392,1.391,1.143,1.391c0.44,0,0.832-0.272,0.976-0.728c0.04-0.112,0.056-0.248,0.056-0.376V129.807z"/>
		<path d="M148.924,127.36v0.928h1.007v0.536h-1.007v2.079c0,0.48,0.135,0.751,0.527,0.751c0.191,0,0.304-0.016,0.408-0.048    l0.031,0.536c-0.136,0.048-0.352,0.096-0.623,0.096c-0.328,0-0.592-0.112-0.76-0.296c-0.191-0.216-0.271-0.56-0.271-1.016v-2.103    h-0.6v-0.536h0.6v-0.712L148.924,127.36z"/>
		<path d="M150.723,126.481h0.704v2.415h0.017c0.111-0.2,0.287-0.384,0.504-0.496c0.207-0.128,0.455-0.2,0.719-0.2    c0.52,0,1.352,0.32,1.352,1.655v2.303h-0.703v-2.231c0-0.624-0.232-1.143-0.896-1.143c-0.455,0-0.807,0.32-0.943,0.704    c-0.039,0.096-0.048,0.2-0.048,0.336v2.334h-0.704V126.481z"/>
		<path d="M156.739,132.246c-1.039,0-1.855-0.768-1.855-1.991c0-1.295,0.855-2.055,1.92-2.055c1.111,0,1.863,0.808,1.863,1.983    c0,1.439-1,2.063-1.92,2.063H156.739z M156.771,131.718c0.671,0,1.175-0.631,1.175-1.511c0-0.656-0.327-1.479-1.159-1.479    c-0.823,0-1.183,0.768-1.183,1.503c0,0.847,0.479,1.487,1.158,1.487H156.771z"/>
		<path d="M159.459,131.438c0.217,0.128,0.584,0.272,0.936,0.272c0.504,0,0.744-0.248,0.744-0.576c0-0.336-0.2-0.512-0.712-0.704    c-0.704-0.256-1.031-0.64-1.031-1.095c0-0.624,0.512-1.136,1.335-1.136c0.393,0,0.736,0.104,0.943,0.24l-0.168,0.503    c-0.151-0.088-0.432-0.224-0.791-0.224c-0.416,0-0.64,0.24-0.64,0.527c0,0.32,0.224,0.464,0.728,0.664    c0.664,0.248,1.016,0.583,1.016,1.159c0,0.688-0.536,1.167-1.439,1.167c-0.424,0-0.815-0.112-1.088-0.272L159.459,131.438z"/>
		<path d="M163.124,130.351c0.016,0.943,0.615,1.335,1.319,1.335c0.504,0,0.815-0.088,1.071-0.2l0.128,0.503    c-0.247,0.112-0.68,0.248-1.295,0.248c-1.184,0-1.903-0.792-1.903-1.951c0-1.167,0.695-2.087,1.823-2.087    c1.263,0,1.591,1.112,1.591,1.823c0,0.144-0.008,0.248-0.023,0.328H163.124z M165.178,129.847    c0.008-0.448-0.184-1.144-0.967-1.144c-0.721,0-1.023,0.656-1.08,1.144H165.178z"/>
		<path d="M168.708,128.288l0.52,1.958c0.104,0.432,0.208,0.84,0.279,1.24h0.024c0.088-0.392,0.216-0.808,0.344-1.231l0.632-1.967    h0.592l0.6,1.935c0.144,0.456,0.256,0.872,0.344,1.264h0.023c0.064-0.392,0.168-0.8,0.297-1.255l0.551-1.943h0.695l-1.246,3.87    h-0.641l-0.592-1.847c-0.135-0.439-0.247-0.823-0.344-1.279h-0.016c-0.096,0.464-0.216,0.872-0.352,1.288l-0.624,1.839h-0.64    l-1.167-3.87H168.708z"/>
		<path d="M174.315,126.481h0.704v2.415h0.017c0.111-0.2,0.287-0.384,0.504-0.496c0.207-0.128,0.455-0.2,0.719-0.2    c0.52,0,1.352,0.32,1.352,1.655v2.303h-0.703v-2.231c0-0.624-0.232-1.143-0.896-1.143c-0.455,0-0.807,0.32-0.943,0.704    c-0.039,0.096-0.048,0.2-0.048,0.336v2.334h-0.704V126.481z"/>
		<path d="M180.331,132.246c-1.04,0-1.855-0.768-1.855-1.991c0-1.295,0.855-2.055,1.919-2.055c1.111,0,1.863,0.808,1.863,1.983    c0,1.439-0.999,2.063-1.919,2.063H180.331z M180.362,131.718c0.672,0,1.176-0.631,1.176-1.511c0-0.656-0.328-1.479-1.159-1.479    c-0.823,0-1.184,0.768-1.184,1.503c0,0.847,0.479,1.487,1.159,1.487H180.362z"/>
		<path d="M185.69,127.36v0.928h1.008v0.536h-1.008v2.079c0,0.48,0.137,0.751,0.528,0.751c0.192,0,0.304-0.016,0.407-0.048    l0.032,0.536c-0.136,0.048-0.352,0.096-0.624,0.096c-0.327,0-0.591-0.112-0.759-0.296c-0.192-0.216-0.272-0.56-0.272-1.016v-2.103    h-0.6v-0.536h0.6v-0.712L185.69,127.36z"/>
		<path d="M187.491,126.481h0.704v2.415h0.017c0.111-0.2,0.287-0.384,0.504-0.496c0.207-0.128,0.455-0.2,0.719-0.2    c0.52,0,1.352,0.32,1.352,1.655v2.303h-0.703v-2.231c0-0.624-0.232-1.143-0.896-1.143c-0.455,0-0.807,0.32-0.943,0.704    c-0.039,0.096-0.048,0.2-0.048,0.336v2.334h-0.704V126.481z"/>
		<path d="M192.266,127.632c-0.256,0-0.424-0.2-0.424-0.432c0-0.248,0.177-0.439,0.44-0.439c0.256,0,0.432,0.192,0.432,0.439    c0,0.232-0.168,0.432-0.439,0.432H192.266z M191.93,132.158v-3.87h0.704v3.87H191.93z"/>
		<path d="M193.803,129.335c0-0.408-0.008-0.728-0.032-1.047h0.624l0.039,0.631h0.017c0.192-0.36,0.64-0.72,1.279-0.72    c0.536,0,1.367,0.32,1.367,1.647v2.311h-0.704v-2.231c0-0.624-0.231-1.151-0.895-1.151c-0.456,0-0.816,0.328-0.943,0.72    c-0.033,0.088-0.049,0.216-0.049,0.328v2.334h-0.703V129.335z"/>
		<path d="M198.946,130.063h0.016c0.097-0.136,0.225-0.304,0.336-0.44l1.145-1.335h0.839l-1.495,1.591l1.703,2.279h-0.855    l-1.328-1.855l-0.359,0.4v1.455h-0.703v-5.677h0.703V130.063z"/>
		<path d="M123.62,137.36v0.928h1.007v0.536h-1.007v2.079c0,0.48,0.136,0.751,0.528,0.751c0.192,0,0.304-0.016,0.408-0.048    l0.032,0.536c-0.136,0.048-0.352,0.096-0.624,0.096c-0.328,0-0.592-0.112-0.759-0.296c-0.192-0.216-0.272-0.56-0.272-1.016v-2.103    h-0.6v-0.536h0.6v-0.712L123.62,137.36z"/>
		<path d="M125.42,139.495c0-0.456-0.008-0.848-0.032-1.207h0.616l0.032,0.759h0.024c0.176-0.52,0.608-0.848,1.08-0.848    c0.072,0,0.128,0.008,0.192,0.016v0.664c-0.072-0.008-0.144-0.016-0.24-0.016c-0.496,0-0.848,0.376-0.943,0.896    c-0.016,0.104-0.024,0.216-0.024,0.328v2.071h-0.704V139.495z"/>
		<path d="M130.763,141.23c0,0.335,0.016,0.664,0.056,0.927h-0.632l-0.064-0.488H130.1c-0.208,0.304-0.632,0.576-1.183,0.576    c-0.784,0-1.184-0.552-1.184-1.111c0-0.936,0.832-1.447,2.327-1.439v-0.08c0-0.32-0.088-0.904-0.879-0.896    c-0.368,0-0.744,0.104-1.016,0.288l-0.16-0.472c0.32-0.2,0.792-0.336,1.279-0.336c1.191,0,1.479,0.808,1.479,1.583V141.23z     M130.076,140.182c-0.768-0.016-1.639,0.12-1.639,0.872c0,0.464,0.304,0.672,0.656,0.672c0.512,0,0.839-0.32,0.952-0.648    c0.024-0.072,0.032-0.152,0.032-0.224V140.182z"/>
		<path d="M135.234,136.481v4.677c0,0.344,0.008,0.736,0.032,1h-0.632l-0.032-0.671h-0.016c-0.216,0.432-0.68,0.759-1.312,0.759    c-0.936,0-1.663-0.792-1.663-1.967c-0.008-1.295,0.8-2.079,1.735-2.079c0.6,0,0.999,0.28,1.167,0.584h0.016v-2.302H135.234z     M134.531,139.862c0-0.096-0.008-0.208-0.032-0.304c-0.104-0.44-0.488-0.808-1.016-0.808c-0.728,0-1.159,0.64-1.159,1.487    c0,0.792,0.392,1.439,1.143,1.439c0.472,0,0.904-0.319,1.032-0.847c0.024-0.088,0.032-0.184,0.032-0.296V139.862z"/>
		<path d="M136.804,140.35c0.016,0.943,0.616,1.335,1.319,1.335c0.504,0,0.815-0.088,1.071-0.2l0.128,0.503    c-0.248,0.112-0.68,0.248-1.295,0.248c-1.183,0-1.903-0.792-1.903-1.951c0-1.167,0.696-2.087,1.823-2.087    c1.263,0,1.591,1.112,1.591,1.823c0,0.144-0.008,0.248-0.024,0.328H136.804z M138.859,139.847    c0.008-0.448-0.184-1.144-0.968-1.144c-0.72,0-1.023,0.656-1.079,1.144H138.859z"/>
		<path d="M142.108,139.335c0-0.408-0.008-0.728-0.032-1.047h0.624l0.04,0.631h0.016c0.192-0.36,0.64-0.72,1.279-0.72    c0.536,0,1.367,0.32,1.367,1.647v2.311h-0.704v-2.231c0-0.624-0.232-1.151-0.896-1.151c-0.456,0-0.815,0.328-0.943,0.72    c-0.032,0.088-0.048,0.216-0.048,0.328v2.334h-0.704V139.335z"/>
		<path d="M146.948,140.35c0.016,0.943,0.616,1.335,1.32,1.335c0.504,0,0.814-0.088,1.07-0.2l0.129,0.503    c-0.248,0.112-0.68,0.248-1.295,0.248c-1.184,0-1.904-0.792-1.904-1.951c0-1.167,0.696-2.087,1.824-2.087    c1.263,0,1.59,1.112,1.59,1.823c0,0.144-0.008,0.248-0.023,0.328H146.948z M149.002,139.847c0.009-0.448-0.184-1.144-0.967-1.144    c-0.72,0-1.023,0.656-1.08,1.144H149.002z"/>
		<path d="M150.891,137.632c-0.256,0-0.424-0.2-0.424-0.432c0-0.248,0.177-0.439,0.44-0.439c0.256,0,0.432,0.192,0.432,0.439    c0,0.232-0.168,0.432-0.439,0.432H150.891z M150.555,142.157v-3.87h0.704v3.87H150.555z"/>
		<path d="M153.276,137.36v0.928h1.007v0.536h-1.007v2.079c0,0.48,0.136,0.751,0.527,0.751c0.191,0,0.304-0.016,0.408-0.048    l0.031,0.536c-0.136,0.048-0.352,0.096-0.623,0.096c-0.328,0-0.592-0.112-0.76-0.296c-0.191-0.216-0.271-0.56-0.271-1.016v-2.103    h-0.6v-0.536h0.6v-0.712L153.276,137.36z"/>
		<path d="M155.075,136.481h0.704v2.414h0.017c0.111-0.2,0.287-0.384,0.504-0.496c0.207-0.128,0.455-0.2,0.719-0.2    c0.52,0,1.352,0.32,1.352,1.655v2.303h-0.703v-2.231c0-0.624-0.232-1.143-0.896-1.143c-0.455,0-0.807,0.32-0.943,0.704    c-0.039,0.096-0.048,0.2-0.048,0.336v2.334h-0.704V136.481z"/>
		<path d="M159.916,140.35c0.017,0.943,0.616,1.335,1.319,1.335c0.504,0,0.815-0.088,1.071-0.2l0.128,0.503    c-0.248,0.112-0.68,0.248-1.295,0.248c-1.184,0-1.903-0.792-1.903-1.951c0-1.167,0.696-2.087,1.823-2.087    c1.264,0,1.591,1.112,1.591,1.823c0,0.144-0.008,0.248-0.024,0.328H159.916z M161.97,139.847c0.009-0.448-0.184-1.144-0.968-1.144    c-0.719,0-1.023,0.656-1.079,1.144H161.97z"/>
		<path d="M163.524,139.495c0-0.456-0.008-0.848-0.032-1.207h0.616l0.031,0.759h0.023c0.177-0.52,0.608-0.848,1.08-0.848    c0.072,0,0.128,0.008,0.191,0.016v0.664c-0.071-0.008-0.144-0.016-0.239-0.016c-0.496,0-0.848,0.376-0.943,0.896    c-0.017,0.104-0.024,0.216-0.024,0.328v2.071h-0.703V139.495z"/>
		<path d="M167.834,136.481h0.704v2.414h0.017c0.111-0.2,0.287-0.384,0.504-0.496c0.207-0.128,0.455-0.2,0.719-0.2    c0.52,0,1.352,0.32,1.352,1.655v2.303h-0.703v-2.231c0-0.624-0.232-1.143-0.896-1.143c-0.455,0-0.807,0.32-0.943,0.704    c-0.039,0.096-0.048,0.2-0.048,0.336v2.334h-0.704V136.481z"/>
		<path d="M172.675,140.35c0.017,0.943,0.616,1.335,1.319,1.335c0.504,0,0.815-0.088,1.071-0.2l0.128,0.503    c-0.248,0.112-0.68,0.248-1.295,0.248c-1.184,0-1.903-0.792-1.903-1.951c0-1.167,0.696-2.087,1.823-2.087    c1.264,0,1.591,1.112,1.591,1.823c0,0.144-0.008,0.248-0.024,0.328H172.675z M174.73,139.847c0.009-0.448-0.184-1.144-0.968-1.144    c-0.719,0-1.023,0.656-1.079,1.144H174.73z"/>
		<path d="M176.284,136.481h0.703v5.676h-0.703V136.481z"/>
		<path d="M178.17,139.551c0-0.496-0.008-0.896-0.031-1.263h0.632l0.04,0.664h0.016c0.279-0.48,0.744-0.752,1.367-0.752    c0.943,0,1.647,0.792,1.647,1.967c0,1.391-0.856,2.079-1.759,2.079c-0.52,0-0.96-0.224-1.191-0.607h-0.017v2.103h-0.704V139.551z     M178.875,140.582c0,0.096,0.009,0.2,0.032,0.288c0.12,0.488,0.552,0.823,1.047,0.823c0.744,0,1.176-0.607,1.176-1.495    c0-0.775-0.4-1.439-1.144-1.439c-0.479,0-0.935,0.335-1.071,0.871c-0.016,0.088-0.04,0.192-0.04,0.28V140.582z"/>
		<path d="M182.627,141.438c0.215,0.128,0.583,0.272,0.936,0.272c0.503,0,0.743-0.248,0.743-0.576c0-0.336-0.2-0.512-0.712-0.704    c-0.703-0.256-1.031-0.64-1.031-1.095c0-0.624,0.512-1.136,1.335-1.136c0.392,0,0.735,0.104,0.944,0.24l-0.168,0.503    c-0.152-0.088-0.432-0.224-0.792-0.224c-0.416,0-0.64,0.24-0.64,0.527c0,0.32,0.224,0.464,0.728,0.664    c0.663,0.248,1.016,0.583,1.016,1.159c0,0.688-0.536,1.167-1.439,1.167c-0.424,0-0.815-0.112-1.087-0.272L182.627,141.438z"/>
		<path d="M187.586,139.335c0-0.408-0.008-0.728-0.031-1.047h0.623l0.041,0.631h0.016c0.191-0.36,0.64-0.72,1.279-0.72    c0.535,0,1.367,0.32,1.367,1.647v2.311h-0.703v-2.231c0-0.624-0.232-1.151-0.896-1.151c-0.455,0-0.814,0.328-0.943,0.72    c-0.031,0.088-0.048,0.216-0.048,0.328v2.334h-0.704V139.335z"/>
		<path d="M193.602,142.245c-1.039,0-1.855-0.768-1.855-1.991c0-1.295,0.855-2.055,1.92-2.055c1.111,0,1.863,0.808,1.863,1.983    c0,1.439-1,2.063-1.92,2.063H193.602z M193.634,141.717c0.671,0,1.175-0.631,1.175-1.511c0-0.656-0.327-1.479-1.159-1.479    c-0.823,0-1.183,0.768-1.183,1.503c0,0.847,0.479,1.487,1.158,1.487H193.634z"/>
		<path d="M196.418,139.495c0-0.456-0.008-0.848-0.031-1.207h0.615l0.032,0.759h0.024c0.176-0.52,0.607-0.848,1.079-0.848    c0.071,0,0.128,0.008,0.192,0.016v0.664c-0.072-0.008-0.145-0.016-0.24-0.016c-0.496,0-0.848,0.376-0.943,0.896    c-0.016,0.104-0.024,0.216-0.024,0.328v2.071h-0.704V139.495z"/>
		<path d="M130.24,146.48h0.704v2.415h0.016c0.112-0.2,0.288-0.384,0.504-0.496c0.208-0.128,0.456-0.2,0.72-0.2    c0.52,0,1.351,0.32,1.351,1.655v2.303h-0.704v-2.231c0-0.624-0.232-1.143-0.896-1.143c-0.456,0-0.808,0.32-0.943,0.704    c-0.04,0.096-0.048,0.2-0.048,0.336v2.334h-0.704V146.48z"/>
		<path d="M137.918,151.094c0,0.408,0.008,0.76,0.032,1.063h-0.624l-0.04-0.632h-0.016c-0.176,0.312-0.592,0.72-1.279,0.72    c-0.608,0-1.335-0.344-1.335-1.695v-2.263h0.704v2.135c0,0.735,0.232,1.239,0.864,1.239c0.472,0,0.799-0.328,0.927-0.648    c0.04-0.096,0.064-0.224,0.064-0.36v-2.366h0.704V151.094z"/>
		<path d="M139.088,149.495c0-0.456-0.008-0.848-0.032-1.207h0.616l0.032,0.759h0.024c0.176-0.52,0.608-0.848,1.08-0.848    c0.072,0,0.128,0.008,0.192,0.016v0.664c-0.072-0.008-0.144-0.016-0.24-0.016c-0.496,0-0.848,0.376-0.943,0.896    c-0.016,0.104-0.024,0.216-0.024,0.328v2.071h-0.704V149.495z"/>
		<path d="M142.552,147.36v0.928h1.007v0.536h-1.007v2.079c0,0.48,0.136,0.751,0.528,0.751c0.192,0,0.304-0.016,0.408-0.048    l0.032,0.536c-0.136,0.048-0.352,0.096-0.624,0.096c-0.328,0-0.592-0.112-0.759-0.296c-0.192-0.216-0.272-0.56-0.272-1.016v-2.103    h-0.6v-0.536h0.6v-0.712L142.552,147.36z"/>
		<path d="M144.256,151.438c0.216,0.128,0.583,0.272,0.936,0.272c0.503,0,0.744-0.248,0.744-0.576c0-0.336-0.2-0.512-0.712-0.704    c-0.704-0.256-1.031-0.64-1.031-1.095c0-0.624,0.512-1.136,1.335-1.136c0.392,0,0.736,0.104,0.944,0.24l-0.168,0.503    c-0.152-0.088-0.432-0.224-0.792-0.224c-0.416,0-0.64,0.24-0.64,0.527c0,0.32,0.224,0.464,0.728,0.664    c0.664,0.248,1.016,0.583,1.016,1.159c0,0.688-0.536,1.167-1.439,1.167c-0.424,0-0.815-0.112-1.087-0.272L144.256,151.438z"/>
		<path d="M150.063,147.36v0.928h1.008v0.536h-1.008v2.079c0,0.48,0.136,0.751,0.527,0.751c0.192,0,0.305-0.016,0.408-0.048    l0.032,0.536c-0.136,0.048-0.353,0.096-0.624,0.096c-0.327,0-0.592-0.112-0.759-0.296c-0.192-0.216-0.272-0.56-0.272-1.016v-2.103    h-0.6v-0.536h0.6v-0.712L150.063,147.36z"/>
		<path d="M151.864,146.48h0.703v2.415h0.016c0.112-0.2,0.289-0.384,0.504-0.496c0.208-0.128,0.456-0.2,0.72-0.2    c0.521,0,1.352,0.32,1.352,1.655v2.303h-0.704v-2.231c0-0.624-0.231-1.143-0.895-1.143c-0.456,0-0.809,0.32-0.943,0.704    c-0.041,0.096-0.049,0.2-0.049,0.336v2.334h-0.703V146.48z"/>
		<path d="M156.704,150.35c0.016,0.943,0.615,1.335,1.318,1.335c0.504,0,0.816-0.088,1.072-0.2l0.127,0.503    c-0.247,0.112-0.68,0.248-1.295,0.248c-1.184,0-1.902-0.792-1.902-1.951c0-1.167,0.695-2.087,1.822-2.087    c1.264,0,1.592,1.112,1.592,1.823c0,0.144-0.008,0.248-0.024,0.328H156.704z M158.758,149.847    c0.008-0.448-0.184-1.144-0.968-1.144c-0.72,0-1.023,0.656-1.079,1.144H158.758z"/>
		<path d="M162.407,150.35c0.017,0.943,0.616,1.335,1.32,1.335c0.504,0,0.814-0.088,1.07-0.2l0.129,0.503    c-0.248,0.112-0.68,0.248-1.296,0.248c-1.183,0-1.903-0.792-1.903-1.951c0-1.167,0.696-2.087,1.824-2.087    c1.263,0,1.59,1.112,1.59,1.823c0,0.144-0.008,0.248-0.023,0.328H162.407z M164.462,149.847c0.008-0.448-0.185-1.144-0.968-1.144    c-0.72,0-1.023,0.656-1.079,1.144H164.462z"/>
		<path d="M168.774,152.013c-0.184,0.088-0.592,0.224-1.111,0.224c-1.168,0-1.928-0.792-1.928-1.975c0-1.191,0.816-2.063,2.08-2.063    c0.415,0,0.783,0.104,0.975,0.208l-0.16,0.536c-0.168-0.088-0.432-0.184-0.814-0.184c-0.889,0-1.367,0.664-1.367,1.463    c0,0.896,0.575,1.447,1.343,1.447c0.399,0,0.663-0.096,0.863-0.184L168.774,152.013z"/>
		<path d="M171.174,152.245c-1.039,0-1.855-0.768-1.855-1.991c0-1.295,0.855-2.055,1.92-2.055c1.111,0,1.863,0.808,1.863,1.983    c0,1.439-1,2.063-1.92,2.063H171.174z M171.207,151.717c0.671,0,1.175-0.631,1.175-1.511c0-0.656-0.327-1.479-1.159-1.479    c-0.823,0-1.183,0.768-1.183,1.503c0,0.847,0.479,1.487,1.158,1.487H171.207z"/>
		<path d="M173.991,149.335c0-0.408-0.008-0.728-0.031-1.047h0.623l0.041,0.631h0.016c0.191-0.36,0.64-0.72,1.279-0.72    c0.535,0,1.367,0.32,1.367,1.647v2.311h-0.703v-2.231c0-0.624-0.232-1.151-0.896-1.151c-0.455,0-0.814,0.328-0.943,0.72    c-0.031,0.088-0.048,0.216-0.048,0.328v2.334h-0.704V149.335z"/>
		<path d="M180.006,152.245c-1.039,0-1.855-0.768-1.855-1.991c0-1.295,0.855-2.055,1.92-2.055c1.111,0,1.863,0.808,1.863,1.983    c0,1.439-1,2.063-1.92,2.063H180.006z M180.039,151.717c0.671,0,1.175-0.631,1.175-1.511c0-0.656-0.327-1.479-1.159-1.479    c-0.823,0-1.183,0.768-1.183,1.503c0,0.847,0.479,1.487,1.158,1.487H180.039z"/>
		<path d="M182.823,149.335c0-0.408-0.016-0.728-0.031-1.047h0.615l0.032,0.624h0.024c0.216-0.368,0.575-0.712,1.223-0.712    c0.52,0,0.92,0.32,1.088,0.776h0.016c0.12-0.224,0.28-0.384,0.439-0.504c0.232-0.176,0.48-0.272,0.848-0.272    c0.52,0,1.279,0.336,1.279,1.679v2.279h-0.688v-2.191c0-0.751-0.279-1.191-0.84-1.191c-0.407,0-0.711,0.296-0.839,0.632    c-0.032,0.104-0.056,0.232-0.056,0.352v2.399h-0.688v-2.327c0-0.616-0.272-1.056-0.809-1.056c-0.432,0-0.759,0.352-0.871,0.704    c-0.04,0.104-0.056,0.224-0.056,0.344v2.334h-0.688V149.335z"/>
		<path d="M189.75,148.288l0.84,2.287c0.096,0.256,0.192,0.56,0.256,0.792h0.017c0.071-0.232,0.151-0.528,0.247-0.808l0.768-2.271    h0.744l-1.056,2.758c-0.503,1.327-0.847,1.999-1.327,2.422c-0.352,0.296-0.688,0.416-0.863,0.448l-0.176-0.584    c0.176-0.056,0.408-0.168,0.615-0.344c0.191-0.152,0.424-0.424,0.592-0.784c0.032-0.072,0.057-0.128,0.057-0.168    c0-0.04-0.017-0.096-0.057-0.184l-1.424-3.566H189.75z"/>
	</g>
	<g>
		<path d="M220.405,130.463l-0.561,1.695h-0.719l1.83-5.389h0.84l1.84,5.389h-0.744l-0.576-1.695H220.405z M222.171,129.919    l-0.536-1.551c-0.111-0.352-0.191-0.671-0.271-0.983h-0.023c-0.072,0.312-0.16,0.648-0.264,0.976l-0.528,1.559H222.171z"/>
		<path d="M224.405,129.335c0-0.408-0.016-0.728-0.031-1.047h0.615l0.031,0.624h0.024c0.216-0.368,0.575-0.712,1.224-0.712    c0.52,0,0.92,0.32,1.088,0.776h0.016c0.119-0.224,0.279-0.384,0.439-0.504c0.232-0.176,0.48-0.272,0.848-0.272    c0.52,0,1.279,0.336,1.279,1.679v2.279h-0.688v-2.191c0-0.751-0.28-1.191-0.84-1.191c-0.408,0-0.711,0.296-0.84,0.632    c-0.031,0.104-0.056,0.232-0.056,0.352v2.399h-0.688v-2.327c0-0.616-0.272-1.056-0.808-1.056c-0.432,0-0.76,0.352-0.871,0.704    c-0.041,0.104-0.057,0.224-0.057,0.344v2.334h-0.688V129.335z"/>
		<path d="M232.652,132.246c-1.039,0-1.854-0.768-1.854-1.991c0-1.295,0.855-2.055,1.918-2.055c1.111,0,1.863,0.808,1.863,1.983    c0,1.439-0.999,2.063-1.918,2.063H232.652z M232.684,131.718c0.672,0,1.176-0.631,1.176-1.511c0-0.656-0.328-1.479-1.16-1.479    c-0.823,0-1.184,0.768-1.184,1.503c0,0.847,0.48,1.487,1.16,1.487H232.684z"/>
		<path d="M235.469,129.335c0-0.408-0.008-0.728-0.032-1.047h0.624l0.039,0.631h0.017c0.192-0.36,0.64-0.72,1.279-0.72    c0.536,0,1.367,0.32,1.367,1.647v2.311h-0.704v-2.231c0-0.624-0.231-1.151-0.895-1.151c-0.456,0-0.816,0.328-0.943,0.72    c-0.033,0.088-0.049,0.216-0.049,0.328v2.334h-0.703V129.335z"/>
		<path d="M243.219,131.59c0,0.896-0.184,1.432-0.552,1.775c-0.384,0.344-0.928,0.463-1.415,0.463c-0.464,0-0.976-0.112-1.287-0.32    l0.176-0.543c0.256,0.168,0.655,0.312,1.135,0.312c0.72,0,1.248-0.376,1.248-1.359v-0.424h-0.017    c-0.208,0.36-0.632,0.647-1.231,0.647c-0.959,0-1.646-0.815-1.646-1.895c0-1.311,0.855-2.047,1.75-2.047    c0.672,0,1.032,0.344,1.208,0.672h0.017l0.023-0.583h0.623c-0.023,0.271-0.031,0.591-0.031,1.055V131.59z M242.516,129.807    c0-0.112-0.009-0.216-0.041-0.312c-0.127-0.416-0.463-0.751-0.982-0.751c-0.672,0-1.152,0.568-1.152,1.471    c0,0.751,0.393,1.391,1.144,1.391c0.44,0,0.831-0.272,0.976-0.728c0.04-0.112,0.057-0.248,0.057-0.376V129.807z"/>
		<path d="M246.924,127.36v0.928h1.008v0.536h-1.008v2.079c0,0.48,0.136,0.751,0.527,0.751c0.192,0,0.305-0.016,0.408-0.048    l0.032,0.536c-0.136,0.048-0.353,0.096-0.624,0.096c-0.328,0-0.592-0.112-0.76-0.296c-0.191-0.216-0.271-0.56-0.271-1.016v-2.103    h-0.6v-0.536h0.6v-0.712L246.924,127.36z"/>
		<path d="M248.724,126.481h0.704v2.415h0.016c0.111-0.2,0.288-0.384,0.504-0.496c0.207-0.128,0.455-0.2,0.719-0.2    c0.521,0,1.352,0.32,1.352,1.655v2.303h-0.703v-2.231c0-0.624-0.232-1.143-0.896-1.143c-0.456,0-0.808,0.32-0.943,0.704    c-0.04,0.096-0.048,0.2-0.048,0.336v2.334h-0.704V126.481z"/>
		<path d="M254.739,132.246c-1.039,0-1.854-0.768-1.854-1.991c0-1.295,0.855-2.055,1.919-2.055c1.111,0,1.863,0.808,1.863,1.983    c0,1.439-1,2.063-1.919,2.063H254.739z M254.772,131.718c0.671,0,1.175-0.631,1.175-1.511c0-0.656-0.327-1.479-1.159-1.479    c-0.824,0-1.184,0.768-1.184,1.503c0,0.847,0.48,1.487,1.159,1.487H254.772z"/>
		<path d="M257.46,131.438c0.216,0.128,0.583,0.272,0.936,0.272c0.503,0,0.743-0.248,0.743-0.576c0-0.336-0.199-0.512-0.711-0.704    c-0.704-0.256-1.031-0.64-1.031-1.095c0-0.624,0.512-1.136,1.334-1.136c0.393,0,0.736,0.104,0.944,0.24l-0.168,0.503    c-0.151-0.088-0.432-0.224-0.792-0.224c-0.416,0-0.639,0.24-0.639,0.527c0,0.32,0.223,0.464,0.727,0.664    c0.664,0.248,1.016,0.583,1.016,1.159c0,0.688-0.535,1.167-1.439,1.167c-0.424,0-0.814-0.112-1.087-0.272L257.46,131.438z"/>
		<path d="M261.124,130.351c0.017,0.943,0.616,1.335,1.32,1.335c0.504,0,0.814-0.088,1.07-0.2l0.129,0.503    c-0.248,0.112-0.68,0.248-1.295,0.248c-1.184,0-1.904-0.792-1.904-1.951c0-1.167,0.696-2.087,1.824-2.087    c1.263,0,1.59,1.112,1.59,1.823c0,0.144-0.008,0.248-0.023,0.328H261.124z M263.178,129.847c0.009-0.448-0.184-1.144-0.967-1.144    c-0.72,0-1.023,0.656-1.08,1.144H263.178z"/>
		<path d="M266.708,128.288l0.52,1.958c0.104,0.432,0.209,0.84,0.28,1.24h0.024c0.088-0.392,0.215-0.808,0.344-1.231l0.631-1.967    h0.592l0.6,1.935c0.145,0.456,0.256,0.872,0.344,1.264h0.024c0.063-0.392,0.168-0.8,0.296-1.255l0.552-1.943h0.695l-1.247,3.87    h-0.64l-0.592-1.847c-0.136-0.439-0.247-0.823-0.344-1.279h-0.017c-0.096,0.464-0.215,0.872-0.352,1.288l-0.623,1.839h-0.641    l-1.166-3.87H266.708z"/>
		<path d="M272.316,126.481h0.704v2.415h0.016c0.111-0.2,0.288-0.384,0.504-0.496c0.207-0.128,0.455-0.2,0.719-0.2    c0.521,0,1.352,0.32,1.352,1.655v2.303h-0.703v-2.231c0-0.624-0.232-1.143-0.896-1.143c-0.456,0-0.808,0.32-0.943,0.704    c-0.04,0.096-0.048,0.2-0.048,0.336v2.334h-0.704V126.481z"/>
		<path d="M278.331,132.246c-1.039,0-1.855-0.768-1.855-1.991c0-1.295,0.855-2.055,1.92-2.055c1.111,0,1.863,0.808,1.863,1.983    c0,1.439-1,2.063-1.92,2.063H278.331z M278.363,131.718c0.671,0,1.175-0.631,1.175-1.511c0-0.656-0.328-1.479-1.158-1.479    c-0.824,0-1.184,0.768-1.184,1.503c0,0.847,0.479,1.487,1.158,1.487H278.363z"/>
		<path d="M283.691,127.36v0.928h1.007v0.536h-1.007v2.079c0,0.48,0.136,0.751,0.528,0.751c0.191,0,0.303-0.016,0.407-0.048    l0.032,0.536c-0.137,0.048-0.352,0.096-0.624,0.096c-0.327,0-0.591-0.112-0.759-0.296c-0.192-0.216-0.272-0.56-0.272-1.016v-2.103    h-0.6v-0.536h0.6v-0.712L283.691,127.36z"/>
		<path d="M285.492,126.481h0.704v2.415h0.016c0.111-0.2,0.288-0.384,0.504-0.496c0.207-0.128,0.455-0.2,0.719-0.2    c0.521,0,1.352,0.32,1.352,1.655v2.303h-0.703v-2.231c0-0.624-0.232-1.143-0.896-1.143c-0.456,0-0.808,0.32-0.943,0.704    c-0.04,0.096-0.048,0.2-0.048,0.336v2.334h-0.704V126.481z"/>
		<path d="M290.267,127.632c-0.256,0-0.424-0.2-0.424-0.432c0-0.248,0.177-0.439,0.44-0.439c0.256,0,0.432,0.192,0.432,0.439    c0,0.232-0.168,0.432-0.439,0.432H290.267z M289.931,132.158v-3.87h0.704v3.87H289.931z"/>
		<path d="M291.803,129.335c0-0.408-0.008-0.728-0.031-1.047h0.623l0.04,0.631h0.017c0.191-0.36,0.639-0.72,1.279-0.72    c0.535,0,1.367,0.32,1.367,1.647v2.311h-0.704v-2.231c0-0.624-0.231-1.151-0.896-1.151c-0.455,0-0.815,0.328-0.943,0.72    c-0.032,0.088-0.049,0.216-0.049,0.328v2.334h-0.703V129.335z"/>
		<path d="M296.946,130.063h0.017c0.097-0.136,0.224-0.304,0.336-0.44l1.144-1.335h0.84l-1.496,1.591l1.703,2.279h-0.855    l-1.327-1.855l-0.36,0.4v1.455h-0.703v-5.677h0.703V130.063z"/>
		<path d="M219.42,137.36v0.928h1.008v0.536h-1.008v2.079c0,0.48,0.137,0.751,0.528,0.751c0.192,0,0.304-0.016,0.407-0.048    l0.032,0.536c-0.136,0.048-0.352,0.096-0.624,0.096c-0.327,0-0.591-0.112-0.759-0.296c-0.192-0.216-0.272-0.56-0.272-1.016v-2.103    h-0.6v-0.536h0.6v-0.712L219.42,137.36z"/>
		<path d="M221.221,139.495c0-0.456-0.008-0.848-0.031-1.207h0.615l0.031,0.759h0.024c0.177-0.52,0.608-0.848,1.079-0.848    c0.072,0,0.129,0.008,0.192,0.016v0.664c-0.071-0.008-0.144-0.016-0.239-0.016c-0.496,0-0.848,0.376-0.944,0.896    c-0.016,0.104-0.024,0.216-0.024,0.328v2.071h-0.703V139.495z"/>
		<path d="M226.563,141.23c0,0.335,0.017,0.664,0.057,0.927h-0.632l-0.063-0.488H225.9c-0.208,0.304-0.632,0.576-1.183,0.576    c-0.784,0-1.184-0.552-1.184-1.111c0-0.936,0.831-1.447,2.326-1.439v-0.08c0-0.32-0.088-0.904-0.879-0.896    c-0.368,0-0.744,0.104-1.016,0.288l-0.16-0.472c0.32-0.2,0.791-0.336,1.279-0.336c1.191,0,1.479,0.808,1.479,1.583V141.23z     M225.875,140.182c-0.768-0.016-1.639,0.12-1.639,0.872c0,0.464,0.304,0.672,0.656,0.672c0.512,0,0.839-0.32,0.951-0.648    c0.023-0.072,0.031-0.152,0.031-0.224V140.182z"/>
		<path d="M231.036,136.481v4.677c0,0.344,0.008,0.736,0.032,1h-0.632l-0.032-0.671h-0.016c-0.216,0.432-0.68,0.759-1.312,0.759    c-0.936,0-1.663-0.792-1.663-1.967c-0.008-1.295,0.8-2.079,1.735-2.079c0.6,0,0.999,0.28,1.167,0.584h0.017v-2.302H231.036z     M230.333,139.862c0-0.096-0.008-0.208-0.032-0.304c-0.104-0.44-0.487-0.808-1.016-0.808c-0.728,0-1.159,0.64-1.159,1.487    c0,0.792,0.392,1.439,1.143,1.439c0.473,0,0.904-0.319,1.032-0.847c0.024-0.088,0.032-0.184,0.032-0.296V139.862z"/>
		<path d="M232.605,140.35c0.017,0.943,0.616,1.335,1.319,1.335c0.504,0,0.815-0.088,1.071-0.2l0.128,0.503    c-0.248,0.112-0.68,0.248-1.295,0.248c-1.184,0-1.903-0.792-1.903-1.951c0-1.167,0.696-2.087,1.823-2.087    c1.264,0,1.591,1.112,1.591,1.823c0,0.144-0.008,0.248-0.024,0.328H232.605z M234.66,139.847c0.009-0.448-0.184-1.144-0.968-1.144    c-0.719,0-1.023,0.656-1.079,1.144H234.66z"/>
		<path d="M237.909,136.481h0.704v2.414h0.017c0.111-0.2,0.287-0.384,0.504-0.496c0.207-0.128,0.455-0.2,0.719-0.2    c0.52,0,1.352,0.32,1.352,1.655v2.303H240.5v-2.231c0-0.624-0.232-1.143-0.896-1.143c-0.455,0-0.807,0.32-0.943,0.704    c-0.039,0.096-0.048,0.2-0.048,0.336v2.334h-0.704V136.481z"/>
		<path d="M245.586,141.094c0,0.408,0.009,0.76,0.033,1.063h-0.624l-0.04-0.632h-0.016c-0.176,0.312-0.592,0.72-1.279,0.72    c-0.608,0-1.336-0.344-1.336-1.695v-2.263h0.703v2.135c0,0.735,0.232,1.239,0.864,1.239c0.472,0,0.8-0.328,0.927-0.648    c0.041-0.096,0.064-0.224,0.064-0.36v-2.366h0.703V141.094z"/>
		<path d="M246.756,139.495c0-0.456-0.008-0.848-0.031-1.207h0.615l0.032,0.759h0.024c0.176-0.52,0.607-0.848,1.078-0.848    c0.072,0,0.129,0.008,0.192,0.016v0.664c-0.071-0.008-0.144-0.016-0.239-0.016c-0.496,0-0.848,0.376-0.943,0.896    c-0.016,0.104-0.024,0.216-0.024,0.328v2.071h-0.704V139.495z"/>
		<path d="M250.22,137.36v0.928h1.007v0.536h-1.007v2.079c0,0.48,0.136,0.751,0.528,0.751c0.191,0,0.303-0.016,0.407-0.048    l0.032,0.536c-0.137,0.048-0.352,0.096-0.624,0.096c-0.327,0-0.591-0.112-0.759-0.296c-0.192-0.216-0.272-0.56-0.272-1.016v-2.103    h-0.6v-0.536h0.6v-0.712L250.22,137.36z"/>
		<path d="M251.924,141.438c0.216,0.128,0.584,0.272,0.936,0.272c0.504,0,0.744-0.248,0.744-0.576c0-0.336-0.201-0.512-0.713-0.704    c-0.703-0.256-1.031-0.64-1.031-1.095c0-0.624,0.512-1.136,1.336-1.136c0.392,0,0.735,0.104,0.943,0.24l-0.168,0.503    c-0.152-0.088-0.432-0.224-0.791-0.224c-0.416,0-0.641,0.24-0.641,0.527c0,0.32,0.225,0.464,0.729,0.664    c0.663,0.248,1.016,0.583,1.016,1.159c0,0.688-0.537,1.167-1.439,1.167c-0.424,0-0.816-0.112-1.088-0.272L251.924,141.438z"/>
		<path d="M257.732,137.36v0.928h1.007v0.536h-1.007v2.079c0,0.48,0.136,0.751,0.528,0.751c0.191,0,0.303-0.016,0.407-0.048    l0.032,0.536c-0.137,0.048-0.352,0.096-0.624,0.096c-0.327,0-0.591-0.112-0.759-0.296c-0.192-0.216-0.272-0.56-0.272-1.016v-2.103    h-0.6v-0.536h0.6v-0.712L257.732,137.36z"/>
		<path d="M259.532,136.481h0.704v2.414h0.017c0.111-0.2,0.287-0.384,0.504-0.496c0.207-0.128,0.455-0.2,0.719-0.2    c0.52,0,1.352,0.32,1.352,1.655v2.303h-0.703v-2.231c0-0.624-0.232-1.143-0.896-1.143c-0.455,0-0.807,0.32-0.943,0.704    c-0.039,0.096-0.048,0.2-0.048,0.336v2.334h-0.704V136.481z"/>
		<path d="M264.372,140.35c0.017,0.943,0.616,1.335,1.32,1.335c0.504,0,0.814-0.088,1.07-0.2l0.129,0.503    c-0.248,0.112-0.68,0.248-1.295,0.248c-1.184,0-1.904-0.792-1.904-1.951c0-1.167,0.696-2.087,1.824-2.087    c1.263,0,1.59,1.112,1.59,1.823c0,0.144-0.008,0.248-0.023,0.328H264.372z M266.426,139.847c0.009-0.448-0.184-1.144-0.967-1.144    c-0.72,0-1.023,0.656-1.08,1.144H266.426z"/>
		<path d="M270.076,140.35c0.017,0.943,0.616,1.335,1.319,1.335c0.504,0,0.815-0.088,1.071-0.2l0.128,0.503    c-0.248,0.112-0.68,0.248-1.295,0.248c-1.184,0-1.903-0.792-1.903-1.951c0-1.167,0.696-2.087,1.823-2.087    c1.264,0,1.591,1.112,1.591,1.823c0,0.144-0.008,0.248-0.024,0.328H270.076z M272.131,139.847    c0.008-0.448-0.185-1.144-0.969-1.144c-0.719,0-1.023,0.656-1.078,1.144H272.131z"/>
		<path d="M276.443,142.013c-0.185,0.088-0.592,0.224-1.111,0.224c-1.167,0-1.927-0.792-1.927-1.975    c0-1.191,0.814-2.063,2.078-2.063c0.416,0,0.783,0.104,0.977,0.208l-0.16,0.536c-0.168-0.088-0.432-0.184-0.816-0.184    c-0.887,0-1.367,0.664-1.367,1.463c0,0.896,0.576,1.447,1.344,1.447c0.399,0,0.664-0.096,0.863-0.184L276.443,142.013z"/>
		<path d="M278.843,142.245c-1.04,0-1.854-0.768-1.854-1.991c0-1.295,0.855-2.055,1.918-2.055c1.111,0,1.863,0.808,1.863,1.983    c0,1.439-0.999,2.063-1.918,2.063H278.843z M278.875,141.717c0.672,0,1.176-0.631,1.176-1.511c0-0.656-0.328-1.479-1.16-1.479    c-0.823,0-1.184,0.768-1.184,1.503c0,0.847,0.48,1.487,1.16,1.487H278.875z"/>
		<path d="M281.66,139.335c0-0.408-0.008-0.728-0.032-1.047h0.624l0.04,0.631h0.016c0.192-0.36,0.641-0.72,1.279-0.72    c0.536,0,1.367,0.32,1.367,1.647v2.311h-0.703v-2.231c0-0.624-0.232-1.151-0.896-1.151c-0.456,0-0.815,0.328-0.943,0.72    c-0.032,0.088-0.048,0.216-0.048,0.328v2.334h-0.704V139.335z"/>
		<path d="M287.674,142.245c-1.039,0-1.854-0.768-1.854-1.991c0-1.295,0.855-2.055,1.919-2.055c1.111,0,1.863,0.808,1.863,1.983    c0,1.439-1,2.063-1.919,2.063H287.674z M287.708,141.717c0.671,0,1.175-0.631,1.175-1.511c0-0.656-0.327-1.479-1.159-1.479    c-0.824,0-1.184,0.768-1.184,1.503c0,0.847,0.48,1.487,1.159,1.487H287.708z"/>
		<path d="M290.492,139.335c0-0.408-0.016-0.728-0.032-1.047h0.616l0.032,0.624h0.023c0.217-0.368,0.576-0.712,1.224-0.712    c0.52,0,0.919,0.32,1.087,0.776h0.016c0.121-0.224,0.281-0.384,0.44-0.504c0.231-0.176,0.479-0.272,0.848-0.272    c0.52,0,1.279,0.336,1.279,1.679v2.279h-0.688v-2.191c0-0.751-0.28-1.191-0.84-1.191c-0.407,0-0.712,0.296-0.839,0.632    c-0.033,0.104-0.057,0.232-0.057,0.352v2.399h-0.688v-2.327c0-0.616-0.271-1.056-0.808-1.056c-0.432,0-0.759,0.352-0.872,0.704    c-0.039,0.104-0.055,0.224-0.055,0.344v2.334h-0.688V139.335z"/>
		<path d="M297.418,138.288l0.84,2.287c0.096,0.256,0.192,0.56,0.256,0.792h0.017c0.071-0.232,0.151-0.528,0.247-0.808l0.768-2.271    h0.744l-1.056,2.758c-0.503,1.327-0.847,1.999-1.327,2.422c-0.352,0.296-0.688,0.416-0.863,0.448l-0.176-0.584    c0.176-0.056,0.408-0.168,0.615-0.344c0.191-0.152,0.424-0.424,0.592-0.784c0.032-0.072,0.057-0.128,0.057-0.168    c0-0.04-0.017-0.096-0.057-0.184l-1.423-3.566H297.418z"/>
	</g>
	
		<rect x="268.06" y="22.322" fill="#D1D3D4" stroke="#000000" stroke-width="0.5" stroke-linejoin="round" stroke-miterlimit="10" width="6" height="5.999"/>
	<g>
		<path d="M277.633,14.495v-0.432l0.553-0.536c1.326-1.264,1.934-1.935,1.934-2.719c0-0.528-0.247-1.015-1.023-1.015    c-0.471,0-0.863,0.24-1.103,0.439l-0.224-0.496c0.352-0.296,0.871-0.528,1.471-0.528c1.111,0,1.584,0.768,1.584,1.511    c0,0.959-0.696,1.735-1.791,2.791l-0.408,0.384v0.016h2.326v0.583H277.633z"/>
		<path d="M283.393,14.583c-1.016,0-1.711-0.951-1.727-2.67c0-1.751,0.759-2.703,1.814-2.703c1.088,0,1.719,0.976,1.719,2.631    c0,1.767-0.664,2.742-1.799,2.742H283.393z M283.432,14.04c0.713,0,1.057-0.84,1.057-2.167c0-1.279-0.32-2.119-1.057-2.119    c-0.639,0-1.055,0.815-1.055,2.119c-0.016,1.351,0.4,2.167,1.047,2.167H283.432z"/>
		<path d="M287.497,14.583c-1.016,0-1.711-0.951-1.727-2.67c0-1.751,0.759-2.703,1.814-2.703c1.088,0,1.719,0.976,1.719,2.631    c0,1.767-0.664,2.742-1.799,2.742H287.497z M287.536,14.04c0.713,0,1.057-0.84,1.057-2.167c0-1.279-0.32-2.119-1.057-2.119    c-0.639,0-1.055,0.815-1.055,2.119c-0.016,1.351,0.4,2.167,1.047,2.167H287.536z"/>
		<path d="M293.319,9.298v0.464l-2.262,4.733h-0.721l2.248-4.598V9.882h-2.543V9.298H293.319z"/>
	</g>
	
		<rect x="267.832" y="9.322" fill="#808285" stroke="#000000" stroke-width="0.5" stroke-linejoin="round" stroke-miterlimit="10" width="6" height="6"/>
	<g>
		<path d="M277.403,27.495v-0.432l0.552-0.536c1.328-1.264,1.936-1.935,1.936-2.719c0-0.528-0.248-1.015-1.023-1.015    c-0.472,0-0.863,0.24-1.104,0.439l-0.224-0.496c0.352-0.296,0.871-0.528,1.471-0.528c1.111,0,1.583,0.768,1.583,1.511    c0,0.959-0.695,1.735-1.791,2.791l-0.407,0.384v0.016h2.326v0.583H277.403z"/>
		<path d="M283.162,27.583c-1.016,0-1.711-0.951-1.727-2.67c0-1.751,0.76-2.703,1.814-2.703c1.088,0,1.72,0.976,1.72,2.631    c0,1.767-0.664,2.742-1.8,2.742H283.162z M283.202,27.04c0.712,0,1.056-0.84,1.056-2.167c0-1.279-0.32-2.119-1.056-2.119    c-0.64,0-1.056,0.815-1.056,2.119c-0.016,1.351,0.4,2.167,1.048,2.167H283.202z"/>
		<path d="M287.266,27.583c-1.016,0-1.711-0.951-1.727-2.67c0-1.751,0.76-2.703,1.814-2.703c1.088,0,1.72,0.976,1.72,2.631    c0,1.767-0.664,2.742-1.8,2.742H287.266z M287.306,27.04c0.712,0,1.056-0.84,1.056-2.167c0-1.279-0.32-2.119-1.056-2.119    c-0.64,0-1.056,0.815-1.056,2.119c-0.016,1.351,0.4,2.167,1.048,2.167H287.306z"/>
		<path d="M290.123,27c0.152,0.008,0.328,0,0.567-0.032c0.408-0.048,0.792-0.216,1.088-0.496c0.344-0.32,0.592-0.768,0.688-1.383    h-0.024c-0.287,0.352-0.703,0.56-1.23,0.56c-0.936,0-1.535-0.704-1.535-1.599c0-0.975,0.719-1.839,1.782-1.839    s1.72,0.855,1.72,2.191c0,1.143-0.384,1.943-0.896,2.438c-0.4,0.384-0.952,0.632-1.512,0.696c-0.256,0.032-0.487,0.048-0.647,0.04    V27z M291.394,22.746c-0.592,0-1.016,0.528-1.016,1.263c0,0.648,0.392,1.104,0.999,1.104c0.472,0,0.84-0.232,1.032-0.543    c0.031-0.064,0.056-0.144,0.056-0.256c0.008-0.896-0.328-1.567-1.063-1.567H291.394z"/>
	</g>
	
		<line fill="none" stroke="#000000" stroke-width="0.5" stroke-linejoin="round" stroke-miterlimit="10" x1="14.182" y1="2.986" x2="11.182" y2="2.986"/>
	
		<line fill="none" stroke="#000000" stroke-width="0.5" stroke-linejoin="round" stroke-miterlimit="10" x1="14.182" y1="17.986" x2="11.182" y2="17.986"/>
	
		<line fill="none" stroke="#000000" stroke-width="0.5" stroke-linejoin="round" stroke-miterlimit="10" x1="14.182" y1="47.972" x2="11.182" y2="47.972"/>
	
		<line fill="none" stroke="#000000" stroke-width="0.5" stroke-linejoin="round" stroke-miterlimit="10" x1="14.182" y1="92.949" x2="11.182" y2="92.949"/>
	
		<line fill="none" stroke="#000000" stroke-width="0.5" stroke-linejoin="round" stroke-miterlimit="10" x1="14.182" y1="77.957" x2="11.182" y2="77.957"/>
	
		<line fill="none" stroke="#000000" stroke-width="0.5" stroke-linejoin="round" stroke-miterlimit="10" x1="14.182" y1="32.979" x2="11.182" y2="32.979"/>
	
		<line fill="none" stroke="#000000" stroke-width="0.5" stroke-linejoin="round" stroke-miterlimit="10" x1="14.182" y1="62.964" x2="11.182" y2="62.964"/>
	
		<line fill="none" stroke="#000000" stroke-width="0.5" stroke-linejoin="round" stroke-miterlimit="10" x1="14.182" y1="107.942" x2="11.182" y2="107.942"/>
	
		<line fill="none" stroke="#000000" stroke-width="0.5" stroke-linejoin="round" stroke-miterlimit="10" x1="14.182" y1="122.934" x2="11.182" y2="122.934"/>
	
		<rect x="234.323" y="52.114" fill="#808285" stroke="#000000" stroke-width="0.5" stroke-miterlimit="10" width="21.981" height="70.708"/>
	
		<rect x="136.262" y="34.659" fill="#808285" stroke="#000000" stroke-width="0.5" stroke-miterlimit="10" width="21.983" height="88.163"/>
	
		<rect x="38.202" y="14.551" fill="#808285" stroke="#000000" stroke-width="0.5" stroke-miterlimit="10" width="21.982" height="108.271"/>
	
		<rect x="262.123" y="56.755" fill="#D1D3D4" stroke="#000000" stroke-width="0.5" stroke-miterlimit="10" width="21.982" height="66.067"/>
	
		<rect x="164.063" y="41.066" fill="#D1D3D4" stroke="#000000" stroke-width="0.5" stroke-miterlimit="10" width="21.983" height="81.755"/>
	
		<rect x="66.219" y="28.692" fill="#D1D3D4" stroke="#000000" stroke-width="0.5" stroke-miterlimit="10" width="21.982" height="94.129"/>
	
		<line fill="none" stroke="#000000" stroke-width="0.5" stroke-linejoin="round" stroke-miterlimit="10" x1="46.607" y1="12.562" x2="51.923" y2="12.562"/>
	
		<line fill="none" stroke="#000000" stroke-width="0.5" stroke-linejoin="round" stroke-miterlimit="10" x1="46.607" y1="16.54" x2="51.923" y2="16.54"/>
	
		<line fill="none" stroke="#000000" stroke-width="0.5" stroke-linejoin="round" stroke-miterlimit="10" x1="49.193" y1="14.551" x2="49.193" y2="12.562"/>
	
		<line fill="none" stroke="#000000" stroke-width="0.5" stroke-linejoin="round" stroke-miterlimit="10" x1="49.193" y1="16.54" x2="49.193" y2="14.551"/>
	
		<line fill="none" stroke="#000000" stroke-width="0.5" stroke-linejoin="round" stroke-miterlimit="10" x1="144.452" y1="26.925" x2="149.838" y2="26.925"/>
	
		<line fill="none" stroke="#000000" stroke-width="0.5" stroke-linejoin="round" stroke-miterlimit="10" x1="144.452" y1="42.171" x2="149.838" y2="42.171"/>
	
		<line fill="none" stroke="#000000" stroke-width="0.5" stroke-linejoin="round" stroke-miterlimit="10" x1="147.254" y1="34.659" x2="147.254" y2="26.925"/>
	
		<line fill="none" stroke="#000000" stroke-width="0.5" stroke-linejoin="round" stroke-miterlimit="10" x1="147.254" y1="42.171" x2="147.254" y2="34.659"/>
	
		<line fill="none" stroke="#000000" stroke-width="0.5" stroke-linejoin="round" stroke-miterlimit="10" x1="242.511" y1="49.463" x2="247.899" y2="49.463"/>
	
		<line fill="none" stroke="#000000" stroke-width="0.5" stroke-linejoin="round" stroke-miterlimit="10" x1="242.511" y1="54.748" x2="247.899" y2="54.748"/>
	
		<line fill="none" stroke="#000000" stroke-width="0.5" stroke-linejoin="round" stroke-miterlimit="10" x1="245.313" y1="52.114" x2="245.313" y2="49.463"/>
	
		<line fill="none" stroke="#000000" stroke-width="0.5" stroke-linejoin="round" stroke-miterlimit="10" x1="245.313" y1="54.748" x2="245.313" y2="52.114"/>
	
		<line fill="none" stroke="#000000" stroke-width="0.5" stroke-linejoin="round" stroke-miterlimit="10" x1="74.409" y1="26.262" x2="79.797" y2="26.262"/>
	
		<line fill="none" stroke="#000000" stroke-width="0.5" stroke-linejoin="round" stroke-miterlimit="10" x1="74.409" y1="31.345" x2="79.797" y2="31.345"/>
	
		<line fill="none" stroke="#000000" stroke-width="0.5" stroke-linejoin="round" stroke-miterlimit="10" x1="77.21" y1="28.692" x2="77.21" y2="26.262"/>
	
		<line fill="none" stroke="#000000" stroke-width="0.5" stroke-linejoin="round" stroke-miterlimit="10" x1="77.21" y1="31.345" x2="77.21" y2="28.692"/>
	
		<line fill="none" stroke="#000000" stroke-width="0.5" stroke-linejoin="round" stroke-miterlimit="10" x1="172.469" y1="32.891" x2="177.829" y2="32.891"/>
	
		<line fill="none" stroke="#000000" stroke-width="0.5" stroke-linejoin="round" stroke-miterlimit="10" x1="172.469" y1="49.242" x2="177.829" y2="49.242"/>
	
		<line fill="none" stroke="#000000" stroke-width="0.5" stroke-linejoin="round" stroke-miterlimit="10" x1="175.055" y1="41.066" x2="175.055" y2="32.891"/>
	
		<line fill="none" stroke="#000000" stroke-width="0.5" stroke-linejoin="round" stroke-miterlimit="10" x1="175.055" y1="49.242" x2="175.055" y2="41.066"/>
	
		<line fill="none" stroke="#000000" stroke-width="0.5" stroke-linejoin="round" stroke-miterlimit="10" x1="270.529" y1="54.103" x2="275.828" y2="54.103"/>
	
		<line fill="none" stroke="#000000" stroke-width="0.5" stroke-linejoin="round" stroke-miterlimit="10" x1="270.529" y1="59.406" x2="275.828" y2="59.406"/>
	
		<line fill="none" stroke="#000000" stroke-width="0.5" stroke-linejoin="round" stroke-miterlimit="10" x1="273.115" y1="56.755" x2="273.115" y2="54.103"/>
	
		<line fill="none" stroke="#000000" stroke-width="0.5" stroke-linejoin="round" stroke-miterlimit="10" x1="273.115" y1="59.406" x2="273.115" y2="56.755"/>
</g>
</svg>