<svg xmlns="http://www.w3.org/2000/svg" xmlns:xlink="http://www.w3.org/1999/xlink" version="1.1" x="0px" y="0px" width="355.813px" height="215.056px" viewBox="0 0 355.813 215.056" enable-background="new 0 0 355.813 215.056" xml:space="preserve">
<g id="wide">
</g>
<g id="text_column" display="none">
</g>
<g id="art">
	
		<line fill="none" stroke="#A7A9AC" stroke-width="0.5" stroke-linejoin="round" stroke-miterlimit="10" x1="304.571" y1="0" x2="304.571" y2="203.322"/>
	<rect x="277.653" y="140.822" fill="#FFFFFF" width="71.963" height="33"/>
	
		<line fill="none" stroke="#A7A9AC" stroke-width="0.5" stroke-linejoin="round" stroke-miterlimit="10" x1="352.01" y1="0" x2="352.01" y2="203.322"/>
	
		<line fill="none" stroke="#A7A9AC" stroke-width="0.5" stroke-linejoin="round" stroke-miterlimit="10" x1="257.131" y1="0" x2="257.131" y2="203.322"/>
	
		<line fill="none" stroke="#A7A9AC" stroke-width="0.5" stroke-linejoin="round" stroke-miterlimit="10" x1="209.692" y1="0" x2="209.692" y2="203.322"/>
	
		<line fill="none" stroke="#A7A9AC" stroke-width="0.5" stroke-linejoin="round" stroke-miterlimit="10" x1="162.252" y1="0" x2="162.252" y2="203.322"/>
	
		<line fill="none" stroke="#A7A9AC" stroke-width="0.5" stroke-linejoin="round" stroke-miterlimit="10" x1="114.813" y1="0" x2="114.813" y2="203.322"/>
	
		<rect x="67.397" y="14.567" fill="#808285" stroke="#000000" stroke-width="0.5" stroke-linejoin="round" stroke-miterlimit="10" width="193.013" height="7.667"/>
	
		<rect x="67.397" y="43.701" fill="#808285" stroke="#000000" stroke-width="0.5" stroke-linejoin="round" stroke-miterlimit="10" width="153.336" height="7.475"/>
	
		<rect x="67.397" y="72.643" fill="#808285" stroke="#000000" stroke-width="0.5" stroke-linejoin="round" stroke-miterlimit="10" width="150.077" height="7.667"/>
	
		<rect x="67.397" y="101.777" fill="#808285" stroke="#000000" stroke-width="0.5" stroke-linejoin="round" stroke-miterlimit="10" width="208.346" height="7.476"/>
	
		<rect x="67.397" y="130.72" fill="#808285" stroke="#000000" stroke-width="0.5" stroke-linejoin="round" stroke-miterlimit="10" width="109.252" height="7.667"/>
	
		<rect x="67.397" y="159.854" fill="#808285" stroke="#000000" stroke-width="0.5" stroke-linejoin="round" stroke-miterlimit="10" width="175.762" height="7.475"/>
	
		<rect x="67.397" y="188.796" fill="#808285" stroke="#000000" stroke-width="0.5" stroke-linejoin="round" stroke-miterlimit="10" width="141.261" height="7.666"/>
	
		<rect x="67.397" y="6.9" fill="#D1D3D4" stroke="#000000" stroke-width="0.5" stroke-linejoin="round" stroke-miterlimit="10" width="241.888" height="7.667"/>
	
		<rect x="67.397" y="36.034" fill="#D1D3D4" stroke="#000000" stroke-width="0.5" stroke-linejoin="round" stroke-miterlimit="10" width="191.096" height="7.667"/>
	
		<rect x="67.397" y="64.977" fill="#D1D3D4" stroke="#000000" stroke-width="0.5" stroke-linejoin="round" stroke-miterlimit="10" width="217.546" height="7.667"/>
	
		<rect x="67.397" y="94.11" fill="#D1D3D4" stroke="#000000" stroke-width="0.5" stroke-linejoin="round" stroke-miterlimit="10" width="187.07" height="7.667"/>
	
		<rect x="67.397" y="123.053" fill="#D1D3D4" stroke="#000000" stroke-width="0.5" stroke-linejoin="round" stroke-miterlimit="10" width="272.939" height="7.667"/>
	
		<rect x="67.397" y="152.187" fill="#D1D3D4" stroke="#000000" stroke-width="0.5" stroke-linejoin="round" stroke-miterlimit="10" width="156.402" height="7.667"/>
	
		<rect x="67.397" y="181.128" fill="#D1D3D4" stroke="#000000" stroke-width="0.5" stroke-linejoin="round" stroke-miterlimit="10" width="199.528" height="7.667"/>
	
		<line fill="none" stroke="#000000" stroke-width="0.5" stroke-linejoin="round" stroke-miterlimit="10" x1="211.885" y1="190.138" x2="211.885" y2="194.929"/>
	
		<line fill="none" stroke="#000000" stroke-width="0.5" stroke-linejoin="round" stroke-miterlimit="10" x1="205.208" y1="190.138" x2="205.208" y2="194.929"/>
	
		<line fill="none" stroke="#000000" stroke-width="0.5" stroke-linejoin="round" stroke-miterlimit="10" x1="208.658" y1="192.629" x2="211.885" y2="192.629"/>
	
		<line fill="none" stroke="#000000" stroke-width="0.5" stroke-linejoin="round" stroke-miterlimit="10" x1="205.208" y1="192.629" x2="208.658" y2="192.629"/>
	
		<line fill="none" stroke="#000000" stroke-width="0.5" stroke-linejoin="round" stroke-miterlimit="10" x1="246.034" y1="161.195" x2="246.034" y2="165.962"/>
	
		<line fill="none" stroke="#000000" stroke-width="0.5" stroke-linejoin="round" stroke-miterlimit="10" x1="240.284" y1="161.195" x2="240.284" y2="165.962"/>
	
		<line fill="none" stroke="#000000" stroke-width="0.5" stroke-linejoin="round" stroke-miterlimit="10" x1="243.159" y1="163.495" x2="246.034" y2="163.495"/>
	
		<line fill="none" stroke="#000000" stroke-width="0.5" stroke-linejoin="round" stroke-miterlimit="10" x1="240.284" y1="163.495" x2="243.159" y2="163.495"/>
	
		<line fill="none" stroke="#000000" stroke-width="0.5" stroke-linejoin="round" stroke-miterlimit="10" x1="180.23" y1="132.061" x2="180.23" y2="136.853"/>
	
		<line fill="none" stroke="#000000" stroke-width="0.5" stroke-linejoin="round" stroke-miterlimit="10" x1="173.007" y1="132.061" x2="173.007" y2="136.853"/>
	
		<line fill="none" stroke="#000000" stroke-width="0.5" stroke-linejoin="round" stroke-miterlimit="10" x1="176.649" y1="134.553" x2="180.23" y2="134.553"/>
	
		<line fill="none" stroke="#000000" stroke-width="0.5" stroke-linejoin="round" stroke-miterlimit="10" x1="173.007" y1="134.553" x2="176.649" y2="134.553"/>
	
		<line fill="none" stroke="#000000" stroke-width="0.5" stroke-linejoin="round" stroke-miterlimit="10" x1="279.564" y1="103.119" x2="279.564" y2="107.886"/>
	
		<line fill="none" stroke="#000000" stroke-width="0.5" stroke-linejoin="round" stroke-miterlimit="10" x1="271.909" y1="103.119" x2="271.909" y2="107.886"/>
	
		<line fill="none" stroke="#000000" stroke-width="0.5" stroke-linejoin="round" stroke-miterlimit="10" x1="275.743" y1="105.419" x2="279.564" y2="105.419"/>
	
		<line fill="none" stroke="#000000" stroke-width="0.5" stroke-linejoin="round" stroke-miterlimit="10" x1="271.909" y1="105.419" x2="275.743" y2="105.419"/>
	
		<line fill="none" stroke="#000000" stroke-width="0.5" stroke-linejoin="round" stroke-miterlimit="10" x1="221.117" y1="73.985" x2="221.117" y2="78.777"/>
	
		<line fill="none" stroke="#000000" stroke-width="0.5" stroke-linejoin="round" stroke-miterlimit="10" x1="213.833" y1="73.985" x2="213.833" y2="78.777"/>
	
		<line fill="none" stroke="#000000" stroke-width="0.5" stroke-linejoin="round" stroke-miterlimit="10" x1="217.474" y1="76.477" x2="221.117" y2="76.477"/>
	
		<line fill="none" stroke="#000000" stroke-width="0.5" stroke-linejoin="round" stroke-miterlimit="10" x1="213.833" y1="76.477" x2="217.474" y2="76.477"/>
	
		<line fill="none" stroke="#000000" stroke-width="0.5" stroke-linejoin="round" stroke-miterlimit="10" x1="223.583" y1="45.042" x2="223.583" y2="49.81"/>
	
		<line fill="none" stroke="#000000" stroke-width="0.5" stroke-linejoin="round" stroke-miterlimit="10" x1="217.858" y1="45.042" x2="217.858" y2="49.81"/>
	
		<line fill="none" stroke="#000000" stroke-width="0.5" stroke-linejoin="round" stroke-miterlimit="10" x1="220.733" y1="47.343" x2="223.583" y2="47.343"/>
	
		<line fill="none" stroke="#000000" stroke-width="0.5" stroke-linejoin="round" stroke-miterlimit="10" x1="217.858" y1="47.343" x2="220.733" y2="47.343"/>
	
		<line fill="none" stroke="#000000" stroke-width="0.5" stroke-linejoin="round" stroke-miterlimit="10" x1="263.859" y1="15.909" x2="263.859" y2="20.7"/>
	
		<line fill="none" stroke="#000000" stroke-width="0.5" stroke-linejoin="round" stroke-miterlimit="10" x1="256.767" y1="15.909" x2="256.767" y2="20.7"/>
	
		<line fill="none" stroke="#000000" stroke-width="0.5" stroke-linejoin="round" stroke-miterlimit="10" x1="260.41" y1="18.4" x2="263.859" y2="18.4"/>
	
		<line fill="none" stroke="#000000" stroke-width="0.5" stroke-linejoin="round" stroke-miterlimit="10" x1="256.767" y1="18.4" x2="260.41" y2="18.4"/>
	
		<line fill="none" stroke="#000000" stroke-width="0.5" stroke-linejoin="round" stroke-miterlimit="10" x1="270.568" y1="182.662" x2="270.568" y2="187.399"/>
	
		<line fill="none" stroke="#000000" stroke-width="0.5" stroke-linejoin="round" stroke-miterlimit="10" x1="263.092" y1="182.662" x2="263.092" y2="187.399"/>
	
		<line fill="none" stroke="#000000" stroke-width="0.5" stroke-linejoin="round" stroke-miterlimit="10" x1="266.925" y1="184.963" x2="270.568" y2="184.963"/>
	
		<line fill="none" stroke="#000000" stroke-width="0.5" stroke-linejoin="round" stroke-miterlimit="10" x1="263.092" y1="184.963" x2="266.925" y2="184.963"/>
	
		<line fill="none" stroke="#000000" stroke-width="0.5" stroke-linejoin="round" stroke-miterlimit="10" x1="227.2" y1="153.528" x2="227.2" y2="158.32"/>
	
		<line fill="none" stroke="#000000" stroke-width="0.5" stroke-linejoin="round" stroke-miterlimit="10" x1="220.35" y1="153.528" x2="220.35" y2="158.32"/>
	
		<line fill="none" stroke="#000000" stroke-width="0.5" stroke-linejoin="round" stroke-miterlimit="10" x1="223.799" y1="156.02" x2="227.2" y2="156.02"/>
	
		<line fill="none" stroke="#000000" stroke-width="0.5" stroke-linejoin="round" stroke-miterlimit="10" x1="220.35" y1="156.02" x2="223.799" y2="156.02"/>
	
		<line fill="none" stroke="#000000" stroke-width="0.5" stroke-linejoin="round" stroke-miterlimit="10" x1="343.717" y1="124.586" x2="343.717" y2="129.322"/>
	
		<line fill="none" stroke="#000000" stroke-width="0.5" stroke-linejoin="round" stroke-miterlimit="10" x1="336.886" y1="124.586" x2="336.886" y2="129.322"/>
	
		<line fill="none" stroke="#000000" stroke-width="0.5" stroke-linejoin="round" stroke-miterlimit="10" x1="340.336" y1="126.886" x2="343.717" y2="126.886"/>
	
		<line fill="none" stroke="#000000" stroke-width="0.5" stroke-linejoin="round" stroke-miterlimit="10" x1="336.886" y1="126.886" x2="340.336" y2="126.886"/>
	
		<line fill="none" stroke="#000000" stroke-width="0.5" stroke-linejoin="round" stroke-miterlimit="10" x1="257.714" y1="95.452" x2="257.714" y2="100.244"/>
	
		<line fill="none" stroke="#000000" stroke-width="0.5" stroke-linejoin="round" stroke-miterlimit="10" x1="251.208" y1="95.452" x2="251.208" y2="100.244"/>
	
		<line fill="none" stroke="#000000" stroke-width="0.5" stroke-linejoin="round" stroke-miterlimit="10" x1="254.467" y1="97.944" x2="257.714" y2="97.944"/>
	
		<line fill="none" stroke="#000000" stroke-width="0.5" stroke-linejoin="round" stroke-miterlimit="10" x1="251.208" y1="97.944" x2="254.467" y2="97.944"/>
	
		<line fill="none" stroke="#000000" stroke-width="0.5" stroke-linejoin="round" stroke-miterlimit="10" x1="288.306" y1="66.51" x2="288.306" y2="71.246"/>
	
		<line fill="none" stroke="#000000" stroke-width="0.5" stroke-linejoin="round" stroke-miterlimit="10" x1="281.684" y1="66.51" x2="281.684" y2="71.246"/>
	
		<line fill="none" stroke="#000000" stroke-width="0.5" stroke-linejoin="round" stroke-miterlimit="10" x1="284.943" y1="68.81" x2="288.306" y2="68.81"/>
	
		<line fill="none" stroke="#000000" stroke-width="0.5" stroke-linejoin="round" stroke-miterlimit="10" x1="281.684" y1="68.81" x2="284.943" y2="68.81"/>
	
		<line fill="none" stroke="#000000" stroke-width="0.5" stroke-linejoin="round" stroke-miterlimit="10" x1="261.094" y1="37.376" x2="261.094" y2="42.168"/>
	
		<line fill="none" stroke="#000000" stroke-width="0.5" stroke-linejoin="round" stroke-miterlimit="10" x1="256" y1="37.376" x2="256" y2="42.168"/>
	
		<line fill="none" stroke="#000000" stroke-width="0.5" stroke-linejoin="round" stroke-miterlimit="10" x1="258.493" y1="39.867" x2="261.094" y2="39.867"/>
	
		<line fill="none" stroke="#000000" stroke-width="0.5" stroke-linejoin="round" stroke-miterlimit="10" x1="256" y1="39.867" x2="258.493" y2="39.867"/>
	
		<line fill="none" stroke="#000000" stroke-width="0.5" stroke-linejoin="round" stroke-miterlimit="10" x1="312.161" y1="8.434" x2="312.161" y2="13.17"/>
	
		<line fill="none" stroke="#000000" stroke-width="0.5" stroke-linejoin="round" stroke-miterlimit="10" x1="306.218" y1="8.434" x2="306.218" y2="13.17"/>
	
		<line fill="none" stroke="#000000" stroke-width="0.5" stroke-linejoin="round" stroke-miterlimit="10" x1="309.285" y1="10.734" x2="312.161" y2="10.734"/>
	
		<line fill="none" stroke="#000000" stroke-width="0.5" stroke-linejoin="round" stroke-miterlimit="10" x1="306.218" y1="10.734" x2="309.285" y2="10.734"/>
	<polyline fill="none" stroke="#000000" stroke-width="0.5" stroke-linejoin="round" stroke-miterlimit="10" points="67.374,0.056    67.374,203.322 352.01,203.322  "/>
	<g>
		<path d="M63.48,210.426h-0.016l-0.904,0.488l-0.136-0.536l1.135-0.607h0.6v5.197h-0.68V210.426z"/>
		<path d="M66.577,215.056c-0.271,0-0.464-0.216-0.464-0.504s0.2-0.504,0.48-0.504s0.472,0.208,0.472,0.504    c0,0.288-0.192,0.504-0.479,0.504H66.577z"/>
		<path d="M69.368,215.056c-1.015,0-1.711-0.951-1.727-2.671c0-1.751,0.759-2.702,1.815-2.702c1.087,0,1.719,0.976,1.719,2.631    c0,1.767-0.664,2.742-1.799,2.742H69.368z M69.408,214.512c0.712,0,1.056-0.839,1.056-2.166c0-1.279-0.32-2.119-1.056-2.119    c-0.64,0-1.055,0.815-1.055,2.119c-0.016,1.351,0.4,2.166,1.047,2.166H69.408z"/>
	</g>
	<g>
		<path d="M110.92,210.426h-0.016L110,210.914l-0.136-0.536l1.135-0.607h0.6v5.197h-0.68V210.426z"/>
		<path d="M114.017,215.056c-0.271,0-0.464-0.216-0.464-0.504s0.2-0.504,0.48-0.504s0.472,0.208,0.472,0.504    c0,0.288-0.192,0.504-0.479,0.504H114.017z"/>
		<path d="M118.255,210.362h-1.983l-0.2,1.335c0.12-0.016,0.232-0.031,0.424-0.031c0.408,0,0.799,0.088,1.119,0.279    c0.408,0.224,0.744,0.68,0.744,1.335c0,1.016-0.808,1.775-1.935,1.775c-0.567,0-1.039-0.16-1.295-0.319l0.176-0.536    c0.216,0.128,0.64,0.288,1.119,0.288c0.656,0,1.231-0.432,1.224-1.136c0-0.663-0.456-1.144-1.487-1.144    c-0.304,0-0.536,0.024-0.728,0.057l0.336-2.495h2.486V210.362z"/>
	</g>
	<g>
		<path d="M156.832,214.968v-0.432l0.552-0.536c1.327-1.263,1.935-1.935,1.935-2.718c0-0.528-0.248-1.016-1.023-1.016    c-0.472,0-0.863,0.239-1.103,0.439l-0.224-0.496c0.352-0.296,0.872-0.527,1.471-0.527c1.111,0,1.583,0.768,1.583,1.511    c0,0.96-0.696,1.735-1.791,2.791l-0.408,0.384v0.016h2.327v0.584H156.832z"/>
		<path d="M161.456,215.056c-0.272,0-0.463-0.216-0.463-0.504s0.2-0.504,0.479-0.504s0.472,0.208,0.472,0.504    c0,0.288-0.192,0.504-0.479,0.504H161.456z"/>
		<path d="M164.247,215.056c-1.016,0-1.711-0.951-1.728-2.671c0-1.751,0.76-2.702,1.815-2.702c1.087,0,1.719,0.976,1.719,2.631    c0,1.767-0.663,2.742-1.799,2.742H164.247z M164.287,214.512c0.711,0,1.055-0.839,1.055-2.166c0-1.279-0.319-2.119-1.055-2.119    c-0.64,0-1.056,0.815-1.056,2.119c-0.016,1.351,0.399,2.166,1.048,2.166H164.287z"/>
	</g>
	<g>
		<path d="M204.271,214.968v-0.432l0.552-0.536c1.327-1.263,1.936-1.935,1.936-2.718c0-0.528-0.248-1.016-1.023-1.016    c-0.472,0-0.864,0.239-1.104,0.439l-0.224-0.496c0.352-0.296,0.871-0.527,1.471-0.527c1.111,0,1.583,0.768,1.583,1.511    c0,0.96-0.695,1.735-1.791,2.791l-0.407,0.384v0.016h2.326v0.584H204.271z"/>
		<path d="M208.895,215.056c-0.272,0-0.464-0.216-0.464-0.504s0.199-0.504,0.479-0.504s0.472,0.208,0.472,0.504    c0,0.288-0.191,0.504-0.479,0.504H208.895z"/>
		<path d="M213.133,210.362h-1.982l-0.2,1.335c0.12-0.016,0.231-0.031,0.424-0.031c0.408,0,0.8,0.088,1.119,0.279    c0.408,0.224,0.744,0.68,0.744,1.335c0,1.016-0.808,1.775-1.936,1.775c-0.567,0-1.039-0.16-1.295-0.319l0.176-0.536    c0.216,0.128,0.64,0.288,1.119,0.288c0.656,0,1.231-0.432,1.224-1.136c0-0.663-0.456-1.144-1.487-1.144    c-0.304,0-0.535,0.024-0.728,0.057l0.336-2.495h2.486V210.362z"/>
	</g>
	<g>
		<path d="M251.879,214.168c0.2,0.12,0.656,0.32,1.151,0.32c0.896,0,1.184-0.568,1.176-1.008c-0.008-0.728-0.664-1.039-1.344-1.039    h-0.392v-0.528h0.392c0.512,0,1.16-0.264,1.16-0.879c0-0.416-0.265-0.784-0.912-0.784c-0.415,0-0.815,0.185-1.039,0.344    l-0.192-0.512c0.28-0.199,0.808-0.399,1.367-0.399c1.023,0,1.487,0.607,1.487,1.239c0,0.544-0.327,1-0.959,1.231v0.016    c0.64,0.12,1.159,0.6,1.159,1.327c0,0.832-0.655,1.56-1.895,1.56c-0.584,0-1.096-0.184-1.352-0.352L251.879,214.168z"/>
		<path d="M256.335,215.056c-0.272,0-0.464-0.216-0.464-0.504s0.199-0.504,0.479-0.504s0.472,0.208,0.472,0.504    c0,0.288-0.191,0.504-0.479,0.504H256.335z"/>
		<path d="M259.126,215.056c-1.016,0-1.711-0.951-1.727-2.671c0-1.751,0.76-2.702,1.814-2.702c1.088,0,1.72,0.976,1.72,2.631    c0,1.767-0.664,2.742-1.8,2.742H259.126z M259.167,214.512c0.712,0,1.056-0.839,1.056-2.166c0-1.279-0.32-2.119-1.056-2.119    c-0.64,0-1.056,0.815-1.056,2.119c-0.016,1.351,0.4,2.166,1.048,2.166H259.167z"/>
	</g>
	<g>
		<path d="M299.319,214.168c0.2,0.12,0.656,0.32,1.151,0.32c0.896,0,1.184-0.568,1.176-1.008c-0.008-0.728-0.664-1.039-1.344-1.039    h-0.392v-0.528h0.392c0.512,0,1.16-0.264,1.16-0.879c0-0.416-0.265-0.784-0.912-0.784c-0.415,0-0.815,0.185-1.039,0.344    l-0.192-0.512c0.28-0.199,0.808-0.399,1.367-0.399c1.023,0,1.487,0.607,1.487,1.239c0,0.544-0.327,1-0.959,1.231v0.016    c0.64,0.12,1.159,0.6,1.159,1.327c0,0.832-0.655,1.56-1.895,1.56c-0.584,0-1.096-0.184-1.352-0.352L299.319,214.168z"/>
		<path d="M303.775,215.056c-0.272,0-0.464-0.216-0.464-0.504s0.199-0.504,0.479-0.504s0.472,0.208,0.472,0.504    c0,0.288-0.191,0.504-0.479,0.504H303.775z"/>
		<path d="M308.013,210.362h-1.982l-0.2,1.335c0.12-0.016,0.231-0.031,0.424-0.031c0.408,0,0.8,0.088,1.119,0.279    c0.408,0.224,0.744,0.68,0.744,1.335c0,1.016-0.808,1.775-1.936,1.775c-0.567,0-1.039-0.16-1.295-0.319l0.176-0.536    c0.216,0.128,0.64,0.288,1.119,0.288c0.656,0,1.231-0.432,1.224-1.136c0-0.663-0.456-1.144-1.487-1.144    c-0.304,0-0.535,0.024-0.728,0.057l0.336-2.495h2.486V210.362z"/>
	</g>
	<g>
		<path d="M348.765,214.968v-1.423h-2.414v-0.456l2.318-3.318h0.76v3.23h0.728v0.544h-0.728v1.423H348.765z M348.765,213.001v-1.735    c0-0.271,0.009-0.544,0.024-0.815h-0.024c-0.159,0.304-0.287,0.527-0.432,0.768l-1.271,1.767v0.017H348.765z"/>
		<path d="M351.214,215.056c-0.272,0-0.464-0.216-0.464-0.504s0.199-0.504,0.479-0.504s0.472,0.208,0.472,0.504    c0,0.288-0.191,0.504-0.479,0.504H351.214z"/>
		<path d="M354.005,215.056c-1.016,0-1.711-0.951-1.727-2.671c0-1.751,0.76-2.702,1.814-2.702c1.088,0,1.72,0.976,1.72,2.631    c0,1.767-0.664,2.742-1.8,2.742H354.005z M354.045,214.512c0.712,0,1.056-0.839,1.056-2.166c0-1.279-0.32-2.119-1.056-2.119    c-0.64,0-1.056,0.815-1.056,2.119c-0.016,1.351,0.4,2.166,1.048,2.166H354.045z"/>
	</g>
	<g>
		<path d="M1.367,191.678L0,186.289h0.735l0.64,2.727c0.16,0.68,0.304,1.343,0.4,1.862h0.016c0.088-0.535,0.256-1.175,0.439-1.871    l0.72-2.718h0.728l0.656,2.734c0.152,0.647,0.296,1.279,0.376,1.847h0.016c0.112-0.592,0.264-1.191,0.432-1.863l0.712-2.718H6.58    l-1.527,5.389H4.326l-0.68-2.799c-0.168-0.695-0.28-1.223-0.352-1.767H3.278c-0.088,0.544-0.216,1.063-0.416,1.759l-0.768,2.807    H1.367z"/>
		<path d="M8.663,191.766c-1.039,0-1.855-0.768-1.855-1.991c0-1.295,0.855-2.055,1.919-2.055c1.111,0,1.863,0.808,1.863,1.983    c0,1.438-1,2.062-1.919,2.062H8.663z M8.695,191.238c0.671,0,1.175-0.632,1.175-1.512c0-0.655-0.328-1.479-1.16-1.479    c-0.823,0-1.183,0.768-1.183,1.503c0,0.848,0.48,1.487,1.159,1.487H8.695z"/>
		<path d="M11.479,189.016c0-0.456-0.008-0.848-0.032-1.208h0.616l0.032,0.76h0.024c0.176-0.52,0.608-0.848,1.08-0.848    c0.072,0,0.128,0.008,0.192,0.017v0.663c-0.072-0.008-0.144-0.016-0.24-0.016c-0.496,0-0.848,0.376-0.943,0.896    c-0.016,0.104-0.024,0.216-0.024,0.327v2.071h-0.704V189.016z"/>
		<path d="M14.799,189.583h0.016c0.096-0.136,0.224-0.304,0.336-0.439l1.144-1.336h0.839l-1.495,1.592l1.703,2.278h-0.856    l-1.327-1.855l-0.36,0.4v1.455h-0.704v-5.677h0.704V189.583z"/>
		<path d="M18.183,187.152c-0.256,0-0.424-0.2-0.424-0.432c0-0.248,0.176-0.44,0.44-0.44c0.256,0,0.432,0.192,0.432,0.44    c0,0.231-0.168,0.432-0.44,0.432H18.183z M17.847,191.678v-3.87h0.704v3.87H17.847z"/>
		<path d="M19.719,188.855c0-0.408-0.008-0.728-0.032-1.048h0.624l0.04,0.632h0.016c0.192-0.359,0.64-0.72,1.279-0.72    c0.536,0,1.367,0.32,1.367,1.647v2.311H22.31v-2.23c0-0.624-0.232-1.151-0.896-1.151c-0.456,0-0.815,0.327-0.943,0.72    c-0.032,0.088-0.048,0.216-0.048,0.327v2.335h-0.704V188.855z"/>
		<path d="M27.47,191.11c0,0.896-0.184,1.431-0.552,1.774c-0.384,0.344-0.928,0.464-1.416,0.464c-0.463,0-0.975-0.111-1.287-0.319    l0.176-0.544c0.256,0.168,0.656,0.312,1.136,0.312c0.719,0,1.247-0.376,1.247-1.359v-0.424h-0.016    c-0.208,0.36-0.631,0.648-1.231,0.648c-0.96,0-1.647-0.816-1.647-1.896c0-1.312,0.855-2.047,1.751-2.047    c0.672,0,1.032,0.344,1.208,0.672h0.016l0.024-0.584h0.624c-0.024,0.272-0.032,0.592-0.032,1.056V191.11z M26.766,189.327    c0-0.112-0.008-0.216-0.04-0.312c-0.128-0.416-0.464-0.752-0.983-0.752c-0.672,0-1.151,0.567-1.151,1.471    c0,0.752,0.392,1.392,1.143,1.392c0.44,0,0.832-0.271,0.976-0.728c0.04-0.112,0.056-0.248,0.056-0.376V189.327z"/>
		<path d="M33.086,191.534c-0.184,0.088-0.592,0.224-1.111,0.224c-1.167,0-1.927-0.792-1.927-1.975c0-1.191,0.815-2.063,2.079-2.063    c0.416,0,0.783,0.104,0.976,0.208l-0.16,0.536c-0.168-0.088-0.432-0.185-0.815-0.185c-0.888,0-1.367,0.664-1.367,1.464    c0,0.896,0.576,1.447,1.343,1.447c0.399,0,0.664-0.097,0.863-0.185L33.086,191.534z"/>
		<path d="M35.486,191.766c-1.04,0-1.855-0.768-1.855-1.991c0-1.295,0.855-2.055,1.919-2.055c1.111,0,1.863,0.808,1.863,1.983    c0,1.438-1,2.062-1.919,2.062H35.486z M35.519,191.238c0.671,0,1.175-0.632,1.175-1.512c0-0.655-0.328-1.479-1.159-1.479    c-0.824,0-1.184,0.768-1.184,1.503c0,0.848,0.479,1.487,1.159,1.487H35.519z"/>
		<path d="M38.303,188.855c0-0.408-0.008-0.728-0.032-1.048h0.624l0.04,0.632h0.016c0.192-0.359,0.64-0.72,1.279-0.72    c0.536,0,1.367,0.32,1.367,1.647v2.311h-0.704v-2.23c0-0.624-0.232-1.151-0.896-1.151c-0.456,0-0.815,0.327-0.943,0.72    c-0.032,0.088-0.048,0.216-0.048,0.327v2.335h-0.704V188.855z"/>
		<path d="M46.085,186.001v4.678c0,0.344,0.008,0.735,0.032,0.999h-0.632l-0.032-0.672h-0.016c-0.216,0.432-0.68,0.76-1.312,0.76    c-0.936,0-1.663-0.791-1.663-1.967c-0.008-1.295,0.8-2.079,1.735-2.079c0.6,0,1,0.28,1.167,0.584h0.016v-2.303H46.085z     M45.381,189.383c0-0.096-0.008-0.208-0.032-0.304c-0.104-0.439-0.488-0.808-1.016-0.808c-0.728,0-1.159,0.64-1.159,1.487    c0,0.792,0.392,1.439,1.143,1.439c0.472,0,0.904-0.32,1.032-0.848c0.024-0.088,0.032-0.184,0.032-0.296V189.383z"/>
		<path d="M47.591,187.152c-0.256,0-0.424-0.2-0.424-0.432c0-0.248,0.176-0.44,0.44-0.44c0.256,0,0.432,0.192,0.432,0.44    c0,0.231-0.168,0.432-0.439,0.432H47.591z M47.255,191.678v-3.87h0.704v3.87H47.255z"/>
		<path d="M49.975,186.881v0.927h1.007v0.536h-1.007v2.079c0,0.479,0.136,0.751,0.528,0.751c0.192,0,0.304-0.016,0.408-0.048    l0.032,0.536c-0.136,0.048-0.352,0.096-0.624,0.096c-0.328,0-0.591-0.112-0.759-0.296c-0.192-0.216-0.272-0.56-0.272-1.016v-2.103    h-0.6v-0.536h0.6v-0.711L49.975,186.881z"/>
		<path d="M52.111,187.152c-0.256,0-0.424-0.2-0.424-0.432c0-0.248,0.176-0.44,0.44-0.44c0.256,0,0.432,0.192,0.432,0.44    c0,0.231-0.168,0.432-0.44,0.432H52.111z M51.775,191.678v-3.87h0.704v3.87H51.775z"/>
		<path d="M55.222,191.766c-1.04,0-1.855-0.768-1.855-1.991c0-1.295,0.855-2.055,1.919-2.055c1.111,0,1.863,0.808,1.863,1.983    c0,1.438-1,2.062-1.919,2.062H55.222z M55.254,191.238c0.671,0,1.175-0.632,1.175-1.512c0-0.655-0.328-1.479-1.159-1.479    c-0.824,0-1.184,0.768-1.184,1.503c0,0.848,0.479,1.487,1.159,1.487H55.254z"/>
		<path d="M58.039,188.855c0-0.408-0.008-0.728-0.032-1.048h0.624l0.04,0.632h0.016c0.192-0.359,0.64-0.72,1.279-0.72    c0.536,0,1.367,0.32,1.367,1.647v2.311h-0.704v-2.23c0-0.624-0.232-1.151-0.896-1.151c-0.456,0-0.815,0.327-0.943,0.72    c-0.032,0.088-0.048,0.216-0.048,0.327v2.335h-0.704V188.855z"/>
		<path d="M62.383,190.958c0.216,0.128,0.583,0.272,0.936,0.272c0.503,0,0.744-0.248,0.744-0.576c0-0.336-0.2-0.512-0.712-0.703    c-0.704-0.256-1.031-0.641-1.031-1.096c0-0.624,0.512-1.136,1.335-1.136c0.392,0,0.736,0.104,0.944,0.24l-0.168,0.504    c-0.152-0.088-0.432-0.225-0.792-0.225c-0.416,0-0.64,0.24-0.64,0.528c0,0.319,0.224,0.464,0.728,0.663    c0.664,0.248,1.016,0.584,1.016,1.159c0,0.688-0.536,1.168-1.439,1.168c-0.424,0-0.815-0.112-1.087-0.271L62.383,190.958z"/>
	</g>
	<g>
		<path d="M25.142,160.114h-2.087v1.943h2.335v0.583h-3.039v-5.389h2.918v0.584h-2.215v1.703h2.087V160.114z"/>
		<path d="M26.271,159.818c0-0.408-0.008-0.728-0.032-1.048h0.624l0.04,0.632h0.016c0.192-0.36,0.64-0.72,1.279-0.72    c0.536,0,1.367,0.32,1.367,1.647v2.311h-0.704v-2.231c0-0.624-0.232-1.151-0.896-1.151c-0.456,0-0.815,0.328-0.943,0.72    c-0.032,0.088-0.048,0.216-0.048,0.328v2.335h-0.704V159.818z"/>
		<path d="M30.983,158.771l0.76,2.167c0.128,0.36,0.232,0.68,0.312,1h0.024c0.088-0.32,0.2-0.64,0.328-1l0.751-2.167h0.736    l-1.52,3.87h-0.671l-1.471-3.87H30.983z"/>
		<path d="M34.895,158.115c-0.256,0-0.424-0.2-0.424-0.432c0-0.248,0.176-0.44,0.44-0.44c0.256,0,0.432,0.192,0.432,0.44    c0,0.231-0.168,0.432-0.44,0.432H34.895z M34.559,162.641v-3.87h0.704v3.87H34.559z"/>
		<path d="M36.431,159.978c0-0.456-0.008-0.848-0.032-1.208h0.616l0.032,0.76h0.024c0.176-0.52,0.608-0.848,1.08-0.848    c0.072,0,0.128,0.008,0.192,0.016v0.664c-0.072-0.008-0.144-0.016-0.24-0.016c-0.496,0-0.848,0.375-0.944,0.896    c-0.016,0.104-0.024,0.216-0.024,0.328v2.071h-0.704V159.978z"/>
		<path d="M40.622,162.729c-1.04,0-1.855-0.768-1.855-1.991c0-1.295,0.855-2.055,1.919-2.055c1.111,0,1.863,0.808,1.863,1.983    c0,1.439-1,2.063-1.919,2.063H40.622z M40.654,162.201c0.671,0,1.175-0.631,1.175-1.511c0-0.655-0.328-1.479-1.159-1.479    c-0.824,0-1.184,0.768-1.184,1.503c0,0.847,0.479,1.487,1.159,1.487H40.654z"/>
		<path d="M43.438,159.818c0-0.408-0.008-0.728-0.032-1.048h0.624l0.04,0.632h0.016c0.192-0.36,0.64-0.72,1.279-0.72    c0.536,0,1.367,0.32,1.367,1.647v2.311h-0.704v-2.231c0-0.624-0.232-1.151-0.896-1.151c-0.456,0-0.815,0.328-0.943,0.72    c-0.032,0.088-0.048,0.216-0.048,0.328v2.335h-0.704V159.818z"/>
		<path d="M47.878,159.818c0-0.408-0.016-0.728-0.032-1.048h0.616l0.032,0.624h0.024c0.216-0.368,0.576-0.712,1.224-0.712    c0.52,0,0.919,0.32,1.087,0.776h0.016c0.12-0.224,0.28-0.384,0.44-0.504c0.232-0.176,0.48-0.272,0.848-0.272    c0.52,0,1.279,0.336,1.279,1.679v2.279h-0.688v-2.191c0-0.751-0.28-1.191-0.84-1.191c-0.408,0-0.711,0.296-0.839,0.632    c-0.032,0.104-0.056,0.232-0.056,0.352v2.398h-0.688v-2.327c0-0.616-0.272-1.056-0.808-1.056c-0.432,0-0.759,0.352-0.872,0.704    c-0.04,0.104-0.056,0.224-0.056,0.344v2.335h-0.688V159.818z"/>
		<path d="M54.95,160.833c0.016,0.944,0.616,1.335,1.319,1.335c0.504,0,0.815-0.088,1.071-0.2l0.128,0.504    c-0.248,0.112-0.68,0.248-1.295,0.248c-1.184,0-1.903-0.792-1.903-1.951c0-1.167,0.696-2.087,1.823-2.087    c1.263,0,1.591,1.111,1.591,1.823c0,0.144-0.008,0.248-0.024,0.328H54.95z M57.005,160.33c0.008-0.448-0.184-1.144-0.967-1.144    c-0.72,0-1.023,0.656-1.08,1.144H57.005z"/>
		<path d="M58.559,159.818c0-0.408-0.008-0.728-0.032-1.048h0.624l0.04,0.632h0.016c0.192-0.36,0.64-0.72,1.279-0.72    c0.536,0,1.367,0.32,1.367,1.647v2.311h-0.704v-2.231c0-0.624-0.232-1.151-0.896-1.151c-0.456,0-0.815,0.328-0.943,0.72    c-0.032,0.088-0.048,0.216-0.048,0.328v2.335h-0.704V159.818z"/>
		<path d="M63.846,157.843v0.927h1.007v0.536h-1.007v2.079c0,0.48,0.136,0.751,0.528,0.751c0.192,0,0.304-0.016,0.408-0.048    l0.032,0.536c-0.136,0.048-0.352,0.096-0.624,0.096c-0.328,0-0.591-0.112-0.759-0.296c-0.192-0.216-0.272-0.56-0.272-1.016v-2.103    h-0.6v-0.536h0.6v-0.711L63.846,157.843z"/>
	</g>
	<g>
		<path d="M17.975,128.213h0.704v3.606c0,1.431-0.704,1.871-1.631,1.871c-0.264,0-0.576-0.056-0.744-0.128l0.096-0.568    c0.144,0.056,0.352,0.104,0.592,0.104c0.624,0,0.983-0.28,0.983-1.335V128.213z"/>
		<path d="M21.391,133.69c-1.039,0-1.855-0.768-1.855-1.991c0-1.295,0.855-2.055,1.919-2.055c1.111,0,1.863,0.808,1.863,1.983    c0,1.439-1,2.063-1.919,2.063H21.391z M21.423,133.162c0.671,0,1.175-0.631,1.175-1.511c0-0.656-0.328-1.479-1.16-1.479    c-0.823,0-1.183,0.768-1.183,1.503c0,0.847,0.48,1.487,1.159,1.487H21.423z"/>
		<path d="M24.208,127.925h0.704v2.422h0.016c0.248-0.432,0.696-0.704,1.319-0.704c0.959,0,1.631,0.8,1.631,1.967    c0,1.391-0.88,2.079-1.743,2.079c-0.56,0-1-0.216-1.295-0.728h-0.016l-0.04,0.64h-0.607c0.024-0.264,0.032-0.656,0.032-1V127.925z     M24.911,132.051c0,0.088,0.008,0.176,0.024,0.256c0.136,0.488,0.551,0.824,1.055,0.824c0.744,0,1.175-0.6,1.175-1.487    c0-0.784-0.4-1.447-1.151-1.447c-0.479,0-0.927,0.336-1.063,0.864c-0.024,0.088-0.04,0.184-0.04,0.296V132.051z"/>
		<path d="M32.742,132.675c0,0.335,0.016,0.664,0.056,0.927h-0.632l-0.064-0.488h-0.024c-0.208,0.304-0.632,0.576-1.183,0.576    c-0.784,0-1.184-0.552-1.184-1.111c0-0.936,0.832-1.447,2.327-1.439v-0.08c0-0.32-0.088-0.904-0.879-0.896    c-0.368,0-0.744,0.104-1.016,0.288l-0.16-0.472c0.32-0.2,0.792-0.336,1.279-0.336c1.191,0,1.479,0.808,1.479,1.583V132.675z     M32.054,131.627c-0.768-0.016-1.639,0.12-1.639,0.872c0,0.464,0.304,0.672,0.656,0.672c0.512,0,0.839-0.32,0.952-0.648    c0.024-0.072,0.032-0.152,0.032-0.224V131.627z"/>
		<path d="M33.999,129.732l0.76,2.167c0.128,0.36,0.232,0.68,0.312,1h0.024c0.088-0.32,0.2-0.64,0.328-1l0.751-2.167h0.736    l-1.52,3.87h-0.671l-1.471-3.87H33.999z"/>
		<path d="M40.302,132.675c0,0.335,0.016,0.664,0.056,0.927h-0.632l-0.064-0.488h-0.024c-0.208,0.304-0.631,0.576-1.183,0.576    c-0.784,0-1.184-0.552-1.184-1.111c0-0.936,0.832-1.447,2.327-1.439v-0.08c0-0.32-0.088-0.904-0.879-0.896    c-0.368,0-0.744,0.104-1.016,0.288l-0.16-0.472c0.32-0.2,0.792-0.336,1.279-0.336c1.191,0,1.479,0.808,1.479,1.583V132.675z     M39.614,131.627c-0.768-0.016-1.639,0.12-1.639,0.872c0,0.464,0.304,0.672,0.656,0.672c0.512,0,0.839-0.32,0.951-0.648    c0.024-0.072,0.032-0.152,0.032-0.224V131.627z"/>
		<path d="M41.767,129.077c-0.256,0-0.424-0.2-0.424-0.432c0-0.248,0.176-0.439,0.44-0.439c0.256,0,0.432,0.192,0.432,0.439    c0,0.232-0.168,0.432-0.439,0.432H41.767z M41.431,133.602v-3.87h0.704v3.87H41.431z"/>
		<path d="M43.303,127.925h0.704v5.677h-0.704V127.925z"/>
		<path d="M47.917,132.675c0,0.335,0.016,0.664,0.056,0.927h-0.632l-0.064-0.488h-0.024c-0.208,0.304-0.632,0.576-1.183,0.576    c-0.784,0-1.184-0.552-1.184-1.111c0-0.936,0.832-1.447,2.327-1.439v-0.08c0-0.32-0.088-0.904-0.879-0.896    c-0.368,0-0.744,0.104-1.016,0.288l-0.16-0.472c0.32-0.2,0.792-0.336,1.279-0.336c1.191,0,1.479,0.808,1.479,1.583V132.675z     M47.23,131.627c-0.768-0.016-1.639,0.12-1.639,0.872c0,0.464,0.304,0.672,0.656,0.672c0.512,0,0.839-0.32,0.952-0.648    c0.024-0.072,0.032-0.152,0.032-0.224V131.627z"/>
		<path d="M49.047,127.925h0.704v2.422h0.016c0.248-0.432,0.696-0.704,1.319-0.704c0.959,0,1.631,0.8,1.631,1.967    c0,1.391-0.879,2.079-1.743,2.079c-0.56,0-1-0.216-1.295-0.728h-0.016l-0.04,0.64h-0.607c0.024-0.264,0.032-0.656,0.032-1V127.925    z M49.75,132.051c0,0.088,0.008,0.176,0.024,0.256c0.136,0.488,0.552,0.824,1.056,0.824c0.744,0,1.175-0.6,1.175-1.487    c0-0.784-0.4-1.447-1.151-1.447c-0.479,0-0.927,0.336-1.063,0.864c-0.024,0.088-0.04,0.184-0.04,0.296V132.051z"/>
		<path d="M53.935,129.077c-0.256,0-0.424-0.2-0.424-0.432c0-0.248,0.176-0.439,0.44-0.439c0.256,0,0.432,0.192,0.432,0.439    c0,0.232-0.168,0.432-0.44,0.432H53.935z M53.599,133.602v-3.87h0.704v3.87H53.599z"/>
		<path d="M55.471,127.925h0.704v5.677h-0.704V127.925z"/>
		<path d="M57.694,129.077c-0.256,0-0.424-0.2-0.424-0.432c0-0.248,0.176-0.439,0.44-0.439c0.256,0,0.432,0.192,0.432,0.439    c0,0.232-0.168,0.432-0.44,0.432H57.694z M57.358,133.602v-3.87h0.704v3.87H57.358z"/>
		<path d="M60.078,128.805v0.928h1.007v0.536h-1.007v2.079c0,0.48,0.136,0.751,0.528,0.751c0.192,0,0.304-0.016,0.408-0.048    l0.032,0.536c-0.136,0.048-0.352,0.096-0.624,0.096c-0.328,0-0.592-0.112-0.759-0.296c-0.192-0.216-0.272-0.56-0.272-1.016v-2.103    h-0.6v-0.536h0.6v-0.712L60.078,128.805z"/>
		<path d="M62.134,129.732l0.84,2.287c0.096,0.256,0.192,0.56,0.256,0.792h0.016c0.072-0.232,0.152-0.528,0.248-0.808l0.768-2.271    h0.744l-1.056,2.758c-0.503,1.327-0.847,1.999-1.327,2.422c-0.352,0.296-0.688,0.416-0.863,0.448l-0.176-0.584    c0.176-0.056,0.408-0.168,0.615-0.344c0.192-0.152,0.424-0.424,0.592-0.784c0.032-0.072,0.056-0.128,0.056-0.168    c0-0.04-0.016-0.096-0.056-0.184l-1.423-3.566H62.134z"/>
	</g>
	<g>
		<path d="M23.525,104.388c-0.248,0.128-0.768,0.256-1.423,0.256c-1.519,0-2.655-0.959-2.655-2.727c0-1.687,1.144-2.823,2.814-2.823    c0.664,0,1.096,0.144,1.279,0.232l-0.176,0.576c-0.256-0.128-0.631-0.224-1.079-0.224c-1.264,0-2.103,0.808-2.103,2.215    c0,1.319,0.76,2.159,2.063,2.159c0.432,0,0.863-0.088,1.143-0.224L23.525,104.388z"/>
		<path d="M25.958,104.652c-1.04,0-1.855-0.768-1.855-1.991c0-1.295,0.855-2.055,1.919-2.055c1.111,0,1.863,0.808,1.863,1.983    c0,1.439-1,2.063-1.919,2.063H25.958z M25.991,104.124c0.671,0,1.175-0.631,1.175-1.511c0-0.656-0.328-1.479-1.159-1.479    c-0.824,0-1.184,0.768-1.184,1.503c0,0.847,0.479,1.487,1.159,1.487H25.991z"/>
		<path d="M28.679,103.844c0.216,0.128,0.583,0.272,0.936,0.272c0.503,0,0.744-0.248,0.744-0.576c0-0.336-0.2-0.512-0.712-0.704    c-0.704-0.256-1.031-0.64-1.031-1.095c0-0.624,0.512-1.136,1.335-1.136c0.392,0,0.736,0.104,0.944,0.24l-0.168,0.503    c-0.152-0.088-0.432-0.224-0.792-0.224c-0.416,0-0.64,0.24-0.64,0.527c0,0.32,0.224,0.464,0.728,0.664    c0.664,0.248,1.016,0.583,1.016,1.159c0,0.688-0.536,1.167-1.439,1.167c-0.424,0-0.815-0.112-1.087-0.272L28.679,103.844z"/>
		<path d="M32.791,99.767v0.928h1.007v0.536h-1.007v2.079c0,0.48,0.136,0.751,0.528,0.751c0.192,0,0.304-0.016,0.408-0.048    l0.032,0.536c-0.136,0.048-0.352,0.096-0.624,0.096c-0.328,0-0.591-0.112-0.759-0.296c-0.192-0.216-0.272-0.56-0.272-1.016v-2.103    h-0.6v-0.536h0.6v-0.712L32.791,99.767z"/>
		<path d="M37.862,104.652c-1.04,0-1.855-0.768-1.855-1.991c0-1.295,0.855-2.055,1.919-2.055c1.111,0,1.863,0.808,1.863,1.983    c0,1.439-1,2.063-1.919,2.063H37.862z M37.894,104.124c0.671,0,1.175-0.631,1.175-1.511c0-0.656-0.328-1.479-1.159-1.479    c-0.824,0-1.184,0.768-1.184,1.503c0,0.847,0.479,1.487,1.159,1.487H37.894z"/>
		<path d="M40.743,104.564v-3.334h-0.536v-0.536h0.536v-0.184c0-0.544,0.128-1.04,0.456-1.351c0.264-0.256,0.616-0.36,0.936-0.36    c0.256,0,0.463,0.056,0.6,0.112l-0.088,0.543c-0.112-0.048-0.248-0.088-0.456-0.088c-0.591,0-0.751,0.528-0.751,1.12v0.208h0.936    v0.536h-0.928v3.334H40.743z"/>
		<path d="M48.021,103.996c0,0.896-0.184,1.432-0.552,1.775c-0.384,0.344-0.928,0.463-1.416,0.463c-0.463,0-0.975-0.112-1.287-0.32    l0.176-0.543c0.256,0.168,0.656,0.312,1.136,0.312c0.719,0,1.247-0.376,1.247-1.359V103.9h-0.016    c-0.208,0.36-0.631,0.647-1.231,0.647c-0.96,0-1.647-0.815-1.647-1.895c0-1.311,0.855-2.047,1.751-2.047    c0.672,0,1.032,0.344,1.208,0.672h0.016l0.024-0.583h0.624c-0.024,0.271-0.032,0.591-0.032,1.055V103.996z M47.317,102.213    c0-0.112-0.008-0.216-0.04-0.312c-0.128-0.416-0.464-0.751-0.983-0.751c-0.672,0-1.151,0.568-1.151,1.471    c0,0.751,0.392,1.391,1.143,1.391c0.44,0,0.832-0.272,0.976-0.728c0.04-0.112,0.056-0.248,0.056-0.376V102.213z"/>
		<path d="M50.758,104.652c-1.039,0-1.855-0.768-1.855-1.991c0-1.295,0.855-2.055,1.919-2.055c1.111,0,1.863,0.808,1.863,1.983    c0,1.439-1,2.063-1.919,2.063H50.758z M50.79,104.124c0.671,0,1.175-0.631,1.175-1.511c0-0.656-0.328-1.479-1.16-1.479    c-0.823,0-1.183,0.768-1.183,1.503c0,0.847,0.48,1.487,1.159,1.487H50.79z"/>
		<path d="M55.15,104.652c-1.04,0-1.855-0.768-1.855-1.991c0-1.295,0.855-2.055,1.919-2.055c1.111,0,1.863,0.808,1.863,1.983    c0,1.439-1,2.063-1.919,2.063H55.15z M55.182,104.124c0.671,0,1.175-0.631,1.175-1.511c0-0.656-0.328-1.479-1.159-1.479    c-0.824,0-1.184,0.768-1.184,1.503c0,0.847,0.479,1.487,1.159,1.487H55.182z"/>
		<path d="M61.309,98.887v4.677c0,0.344,0.008,0.736,0.032,1h-0.632l-0.032-0.671h-0.016c-0.216,0.432-0.68,0.759-1.312,0.759    c-0.936,0-1.663-0.792-1.663-1.967c-0.008-1.295,0.8-2.079,1.735-2.079c0.6,0,0.999,0.28,1.167,0.584h0.016v-2.303H61.309z     M60.605,102.269c0-0.096-0.008-0.208-0.032-0.304c-0.104-0.44-0.488-0.808-1.016-0.808c-0.728,0-1.159,0.64-1.159,1.487    c0,0.792,0.392,1.439,1.143,1.439c0.472,0,0.904-0.319,1.032-0.847c0.024-0.088,0.032-0.184,0.032-0.296V102.269z"/>
		<path d="M62.383,103.844c0.216,0.128,0.583,0.272,0.936,0.272c0.503,0,0.744-0.248,0.744-0.576c0-0.336-0.2-0.512-0.712-0.704    c-0.704-0.256-1.031-0.64-1.031-1.095c0-0.624,0.512-1.136,1.335-1.136c0.392,0,0.735,0.104,0.943,0.24l-0.168,0.503    c-0.152-0.088-0.432-0.224-0.792-0.224c-0.416,0-0.64,0.24-0.64,0.527c0,0.32,0.224,0.464,0.728,0.664    c0.664,0.248,1.015,0.583,1.015,1.159c0,0.688-0.536,1.167-1.439,1.167c-0.424,0-0.815-0.112-1.087-0.272L62.383,103.844z"/>
	</g>
	<g>
		<path d="M14.615,70.208c0.336-0.064,0.776-0.112,1.335-0.112c0.688,0,1.191,0.16,1.511,0.448c0.296,0.256,0.479,0.648,0.479,1.12    c0,0.488-0.144,0.872-0.423,1.151c-0.368,0.392-0.968,0.592-1.647,0.592c-0.208,0-0.399-0.008-0.56-0.048v2.167h-0.696V70.208z     M15.311,72.791c0.152,0.04,0.344,0.056,0.576,0.056c0.84,0,1.352-0.408,1.352-1.143c0-0.712-0.504-1.056-1.271-1.056    c-0.304,0-0.536,0.024-0.656,0.056V72.791z"/>
		<path d="M18.847,72.863c0-0.456-0.008-0.848-0.032-1.208h0.616l0.032,0.76h0.024c0.176-0.52,0.608-0.848,1.08-0.848    c0.072,0,0.128,0.008,0.192,0.016v0.664c-0.072-0.008-0.144-0.016-0.24-0.016c-0.496,0-0.848,0.375-0.943,0.896    c-0.016,0.104-0.024,0.216-0.024,0.328v2.071h-0.704V72.863z"/>
		<path d="M23.039,75.613c-1.04,0-1.855-0.768-1.855-1.991c0-1.295,0.855-2.055,1.919-2.055c1.111,0,1.863,0.808,1.863,1.983    c0,1.439-1,2.063-1.919,2.063H23.039z M23.071,75.085c0.671,0,1.175-0.631,1.175-1.511c0-0.655-0.328-1.479-1.159-1.479    c-0.824,0-1.184,0.768-1.184,1.503c0,0.847,0.479,1.487,1.159,1.487H23.071z"/>
		<path d="M29.197,69.849v4.677c0,0.344,0.008,0.736,0.032,1h-0.632l-0.032-0.672H28.55c-0.216,0.432-0.68,0.76-1.312,0.76    c-0.936,0-1.663-0.792-1.663-1.967c-0.008-1.295,0.8-2.079,1.735-2.079c0.6,0,0.999,0.28,1.167,0.584h0.016v-2.303H29.197z     M28.494,73.23c0-0.096-0.008-0.208-0.032-0.304c-0.104-0.439-0.488-0.808-1.016-0.808c-0.728,0-1.159,0.64-1.159,1.487    c0,0.792,0.392,1.439,1.143,1.439c0.472,0,0.904-0.32,1.032-0.848c0.024-0.088,0.032-0.184,0.032-0.296V73.23z"/>
		<path d="M33.605,74.462c0,0.408,0.008,0.76,0.032,1.063h-0.624l-0.04-0.632h-0.016c-0.176,0.312-0.592,0.72-1.279,0.72    c-0.608,0-1.335-0.344-1.335-1.695v-2.263h0.704v2.135c0,0.735,0.232,1.239,0.864,1.239c0.472,0,0.799-0.328,0.927-0.648    c0.04-0.096,0.064-0.224,0.064-0.359v-2.367h0.704V74.462z"/>
		<path d="M37.534,75.381c-0.184,0.088-0.592,0.224-1.111,0.224c-1.167,0-1.927-0.792-1.927-1.975c0-1.191,0.815-2.063,2.079-2.063    c0.416,0,0.783,0.104,0.976,0.208l-0.16,0.536c-0.168-0.088-0.432-0.184-0.815-0.184c-0.888,0-1.367,0.664-1.367,1.463    c0,0.896,0.576,1.447,1.343,1.447c0.399,0,0.664-0.096,0.863-0.184L37.534,75.381z"/>
		<path d="M39.207,70.728v0.927h1.007v0.536h-1.007v2.079c0,0.48,0.136,0.751,0.528,0.751c0.192,0,0.304-0.016,0.408-0.048    l0.032,0.536c-0.136,0.048-0.352,0.096-0.624,0.096c-0.328,0-0.591-0.112-0.759-0.296c-0.192-0.216-0.272-0.56-0.272-1.016v-2.103    h-0.6v-0.536h0.6v-0.711L39.207,70.728z"/>
		<path d="M45.342,74.934h-0.016c-0.208,0.376-0.64,0.68-1.263,0.68c-0.903,0-1.639-0.775-1.639-1.959    c0-1.447,0.936-2.087,1.751-2.087c0.6,0,1,0.296,1.191,0.672h0.016l0.024-0.584h0.672c-0.024,0.32-0.032,0.664-0.032,1.063v4.39    h-0.704V74.934z M45.342,73.223c0-0.104-0.008-0.208-0.032-0.296c-0.112-0.432-0.48-0.799-1.008-0.799    c-0.728,0-1.167,0.616-1.167,1.487c0,0.776,0.368,1.439,1.143,1.439c0.456,0,0.848-0.28,1.008-0.768    c0.032-0.096,0.056-0.232,0.056-0.336V73.223z"/>
		<path d="M50.445,74.462c0,0.408,0.008,0.76,0.032,1.063h-0.624l-0.04-0.632h-0.016c-0.176,0.312-0.592,0.72-1.279,0.72    c-0.608,0-1.335-0.344-1.335-1.695v-2.263h0.704v2.135c0,0.735,0.232,1.239,0.864,1.239c0.472,0,0.799-0.328,0.927-0.648    c0.04-0.096,0.064-0.224,0.064-0.359v-2.367h0.704V74.462z"/>
		<path d="M54.341,74.598c0,0.336,0.016,0.664,0.056,0.928h-0.632l-0.064-0.488h-0.024c-0.208,0.304-0.632,0.576-1.183,0.576    c-0.784,0-1.184-0.552-1.184-1.111c0-0.936,0.832-1.447,2.327-1.439v-0.08c0-0.32-0.088-0.904-0.879-0.896    c-0.368,0-0.744,0.104-1.016,0.288l-0.16-0.472c0.32-0.2,0.792-0.336,1.279-0.336c1.191,0,1.479,0.808,1.479,1.583V74.598z     M53.654,73.55c-0.768-0.016-1.639,0.12-1.639,0.872c0,0.464,0.304,0.672,0.656,0.672c0.512,0,0.839-0.32,0.952-0.648    c0.024-0.072,0.032-0.152,0.032-0.224V73.55z"/>
		<path d="M55.471,69.849h0.704v5.677h-0.704V69.849z"/>
		<path d="M57.695,71c-0.256,0-0.424-0.2-0.424-0.432c0-0.248,0.176-0.44,0.44-0.44c0.256,0,0.432,0.192,0.432,0.44    c0,0.231-0.168,0.432-0.439,0.432H57.695z M57.359,75.525v-3.87h0.704v3.87H57.359z"/>
		<path d="M60.079,70.728v0.927h1.007v0.536h-1.007v2.079c0,0.48,0.136,0.751,0.528,0.751c0.192,0,0.304-0.016,0.408-0.048    l0.032,0.536c-0.136,0.048-0.352,0.096-0.624,0.096c-0.328,0-0.591-0.112-0.759-0.296c-0.192-0.216-0.272-0.56-0.272-1.016v-2.103    h-0.6v-0.536h0.6v-0.711L60.079,70.728z"/>
		<path d="M62.134,71.655l0.84,2.287c0.096,0.256,0.192,0.56,0.256,0.792h0.016c0.072-0.232,0.152-0.528,0.248-0.808l0.768-2.271    h0.744l-1.056,2.759c-0.503,1.327-0.847,1.999-1.327,2.423c-0.352,0.295-0.688,0.416-0.863,0.447l-0.176-0.583    c0.176-0.056,0.408-0.168,0.615-0.344c0.192-0.152,0.424-0.424,0.592-0.784c0.032-0.072,0.056-0.128,0.056-0.168    s-0.016-0.096-0.056-0.184l-1.423-3.566H62.134z"/>
	</g>
	<g>
		<path d="M9.688,46.488v-5.389h0.768l1.719,2.727c0.392,0.632,0.711,1.199,0.959,1.751l0.024-0.008    c-0.064-0.72-0.08-1.375-0.08-2.207v-2.263h0.655v5.389H13.03l-1.711-2.734c-0.376-0.6-0.736-1.215-1-1.799l-0.024,0.008    c0.04,0.68,0.048,1.327,0.048,2.223v2.303H9.688z"/>
		<path d="M17.654,45.561c0,0.335,0.016,0.664,0.056,0.927h-0.632L17.014,46H16.99c-0.208,0.304-0.632,0.576-1.183,0.576    c-0.784,0-1.184-0.552-1.184-1.111c0-0.936,0.832-1.447,2.327-1.439v-0.08c0-0.32-0.088-0.904-0.879-0.896    c-0.368,0-0.744,0.104-1.016,0.288l-0.16-0.472c0.32-0.2,0.792-0.336,1.279-0.336c1.191,0,1.479,0.808,1.479,1.583V45.561z     M16.966,44.513c-0.768-0.016-1.639,0.12-1.639,0.872c0,0.464,0.304,0.672,0.656,0.672c0.512,0,0.839-0.32,0.952-0.648    c0.024-0.072,0.032-0.152,0.032-0.224V44.513z"/>
		<path d="M19.631,41.69v0.928h1.007v0.536h-1.007v2.079c0,0.48,0.136,0.751,0.528,0.751c0.192,0,0.304-0.016,0.408-0.048    l0.032,0.536c-0.136,0.048-0.352,0.096-0.624,0.096c-0.328,0-0.591-0.112-0.759-0.296c-0.192-0.216-0.272-0.56-0.272-1.016v-2.103    h-0.6v-0.536h0.6v-0.712L19.631,41.69z"/>
		<path d="M21.767,41.962c-0.256,0-0.424-0.2-0.424-0.432c0-0.248,0.176-0.439,0.44-0.439c0.256,0,0.432,0.192,0.432,0.439    c0,0.232-0.168,0.432-0.439,0.432H21.767z M21.431,46.488v-3.87h0.704v3.87H21.431z"/>
		<path d="M24.878,46.576c-1.04,0-1.855-0.768-1.855-1.991c0-1.295,0.855-2.055,1.919-2.055c1.111,0,1.863,0.808,1.863,1.983    c0,1.439-1,2.063-1.919,2.063H24.878z M24.911,46.048c0.671,0,1.175-0.631,1.175-1.511c0-0.656-0.328-1.479-1.159-1.479    c-0.824,0-1.184,0.768-1.184,1.503c0,0.847,0.479,1.487,1.159,1.487H24.911z"/>
		<path d="M27.695,43.666c0-0.408-0.008-0.728-0.032-1.047h0.624l0.04,0.631h0.016c0.192-0.36,0.64-0.72,1.279-0.72    c0.536,0,1.367,0.32,1.367,1.647v2.311h-0.704v-2.231c0-0.624-0.232-1.151-0.896-1.151c-0.456,0-0.815,0.328-0.943,0.72    c-0.032,0.088-0.048,0.216-0.048,0.328v2.334h-0.704V43.666z"/>
		<path d="M34.862,45.561c0,0.335,0.016,0.664,0.056,0.927h-0.632L34.222,46h-0.024c-0.208,0.304-0.632,0.576-1.183,0.576    c-0.784,0-1.184-0.552-1.184-1.111c0-0.936,0.832-1.447,2.327-1.439v-0.08c0-0.32-0.088-0.904-0.879-0.896    c-0.368,0-0.744,0.104-1.016,0.288l-0.16-0.472c0.32-0.2,0.792-0.336,1.279-0.336c1.191,0,1.479,0.808,1.479,1.583V45.561z     M34.174,44.513c-0.768-0.016-1.639,0.12-1.639,0.872c0,0.464,0.304,0.672,0.656,0.672c0.512,0,0.839-0.32,0.952-0.648    c0.024-0.072,0.032-0.152,0.032-0.224V44.513z"/>
		<path d="M35.991,40.811h0.704v5.677h-0.704V40.811z"/>
		<path d="M39.479,45.768c0.216,0.128,0.583,0.272,0.936,0.272c0.503,0,0.744-0.248,0.744-0.576c0-0.336-0.2-0.512-0.712-0.704    c-0.704-0.256-1.031-0.64-1.031-1.095c0-0.624,0.512-1.136,1.335-1.136c0.392,0,0.735,0.104,0.943,0.24l-0.168,0.503    c-0.152-0.088-0.432-0.224-0.792-0.224c-0.416,0-0.64,0.24-0.64,0.527c0,0.32,0.224,0.464,0.728,0.664    c0.664,0.248,1.015,0.583,1.015,1.159c0,0.688-0.536,1.167-1.439,1.167c-0.424,0-0.815-0.112-1.087-0.272L39.479,45.768z"/>
		<path d="M43.143,44.681c0.016,0.943,0.616,1.335,1.319,1.335c0.504,0,0.815-0.088,1.071-0.2l0.128,0.503    c-0.248,0.112-0.68,0.248-1.295,0.248c-1.183,0-1.903-0.792-1.903-1.951c0-1.167,0.696-2.087,1.823-2.087    c1.263,0,1.591,1.112,1.591,1.823c0,0.144-0.008,0.248-0.024,0.328H43.143z M45.198,44.177c0.008-0.448-0.184-1.144-0.968-1.144    c-0.72,0-1.023,0.656-1.079,1.144H45.198z"/>
		<path d="M49.51,46.344c-0.184,0.088-0.592,0.224-1.111,0.224c-1.167,0-1.927-0.792-1.927-1.975c0-1.191,0.816-2.063,2.079-2.063    c0.416,0,0.784,0.104,0.975,0.208l-0.16,0.536c-0.168-0.088-0.432-0.184-0.815-0.184c-0.888,0-1.367,0.664-1.367,1.463    c0,0.896,0.576,1.447,1.343,1.447c0.399,0,0.664-0.096,0.863-0.184L49.51,46.344z"/>
		<path d="M53.573,45.424c0,0.408,0.008,0.76,0.032,1.063h-0.624l-0.04-0.632h-0.016c-0.176,0.312-0.592,0.72-1.279,0.72    c-0.608,0-1.335-0.344-1.335-1.695v-2.263h0.704v2.135c0,0.735,0.232,1.239,0.864,1.239c0.472,0,0.799-0.328,0.927-0.648    c0.04-0.096,0.064-0.224,0.064-0.36v-2.366h0.704V45.424z"/>
		<path d="M54.743,43.825c0-0.456-0.008-0.848-0.032-1.207h0.616l0.032,0.759h0.024c0.176-0.52,0.608-0.848,1.08-0.848    c0.072,0,0.128,0.008,0.192,0.016v0.664c-0.072-0.008-0.144-0.016-0.24-0.016c-0.496,0-0.848,0.376-0.943,0.896    c-0.016,0.104-0.024,0.216-0.024,0.328v2.071h-0.704V43.825z"/>
		<path d="M57.695,41.962c-0.256,0-0.424-0.2-0.424-0.432c0-0.248,0.176-0.439,0.44-0.439c0.256,0,0.432,0.192,0.432,0.439    c0,0.232-0.168,0.432-0.439,0.432H57.695z M57.359,46.488v-3.87h0.704v3.87H57.359z"/>
		<path d="M60.079,41.69v0.928h1.007v0.536h-1.007v2.079c0,0.48,0.136,0.751,0.528,0.751c0.192,0,0.304-0.016,0.408-0.048    l0.032,0.536c-0.136,0.048-0.352,0.096-0.624,0.096c-0.328,0-0.591-0.112-0.759-0.296c-0.192-0.216-0.272-0.56-0.272-1.016v-2.103    h-0.6v-0.536h0.6v-0.712L60.079,41.69z"/>
		<path d="M62.135,42.618l0.84,2.287c0.096,0.256,0.192,0.56,0.256,0.792h0.016c0.072-0.232,0.152-0.528,0.248-0.808l0.768-2.271    h0.744l-1.055,2.758c-0.504,1.327-0.848,1.999-1.328,2.422c-0.352,0.296-0.688,0.416-0.863,0.448l-0.176-0.584    c0.176-0.056,0.408-0.168,0.616-0.344c0.192-0.152,0.424-0.424,0.592-0.784c0.032-0.072,0.056-0.128,0.056-0.168    c0-0.04-0.016-0.096-0.056-0.184l-1.423-3.566H62.135z"/>
	</g>
	<g>
		<path d="M25.767,16.602c0.312,0.192,0.76,0.344,1.239,0.344c0.712,0,1.127-0.368,1.127-0.911c0-0.504-0.288-0.8-1.015-1.072    c-0.88-0.304-1.423-0.768-1.423-1.519c0-0.839,0.696-1.463,1.743-1.463c0.543,0,0.951,0.128,1.183,0.256l-0.192,0.575    c-0.168-0.104-0.528-0.256-1.015-0.256c-0.736,0-1.016,0.44-1.016,0.808c0,0.496,0.328,0.744,1.071,1.032    c0.912,0.36,1.367,0.792,1.367,1.583c0,0.824-0.607,1.551-1.879,1.551c-0.52,0-1.087-0.16-1.375-0.352L25.767,16.602z"/>
		<path d="M30.623,12.652v0.927h1.007v0.536h-1.007v2.079c0,0.48,0.136,0.751,0.528,0.751c0.192,0,0.304-0.016,0.408-0.048    l0.032,0.536c-0.136,0.048-0.352,0.096-0.624,0.096c-0.328,0-0.592-0.112-0.759-0.296c-0.192-0.216-0.272-0.56-0.272-1.016v-2.103    h-0.6v-0.536h0.6v-0.711L30.623,12.652z"/>
		<path d="M33.998,17.537c-1.04,0-1.855-0.768-1.855-1.991c0-1.295,0.855-2.055,1.919-2.055c1.111,0,1.863,0.808,1.863,1.983    c0,1.439-1,2.063-1.919,2.063H33.998z M34.03,17.009c0.671,0,1.175-0.631,1.175-1.511c0-0.655-0.328-1.479-1.159-1.479    c-0.824,0-1.184,0.768-1.184,1.503c0,0.847,0.479,1.487,1.159,1.487H34.03z"/>
		<path d="M39.574,17.305c-0.184,0.088-0.592,0.224-1.111,0.224c-1.167,0-1.927-0.792-1.927-1.975c0-1.191,0.816-2.063,2.079-2.063    c0.416,0,0.784,0.104,0.975,0.208l-0.16,0.536c-0.168-0.088-0.432-0.184-0.815-0.184c-0.888,0-1.367,0.664-1.367,1.463    c0,0.896,0.576,1.447,1.343,1.447c0.399,0,0.664-0.096,0.863-0.184L39.574,17.305z"/>
		<path d="M41.103,15.354h0.016c0.096-0.136,0.224-0.304,0.336-0.44l1.144-1.335h0.839l-1.495,1.591l1.703,2.279H42.79l-1.327-1.855    l-0.36,0.4v1.455h-0.704v-5.677h0.704V15.354z"/>
		<path d="M45.847,14.843c0-0.496-0.008-0.896-0.032-1.264h0.632l0.04,0.664h0.016c0.28-0.48,0.744-0.752,1.367-0.752    c0.943,0,1.647,0.792,1.647,1.967c0,1.391-0.856,2.079-1.759,2.079c-0.52,0-0.959-0.224-1.191-0.607H46.55v2.103h-0.704V14.843z     M46.55,15.874c0,0.096,0.008,0.2,0.032,0.288c0.12,0.487,0.552,0.823,1.047,0.823c0.744,0,1.175-0.607,1.175-1.495    c0-0.775-0.4-1.439-1.144-1.439c-0.479,0-0.935,0.335-1.071,0.872c-0.016,0.088-0.04,0.191-0.04,0.28V15.874z"/>
		<path d="M50.398,14.787c0-0.456-0.008-0.848-0.032-1.208h0.616l0.032,0.76h0.024c0.176-0.52,0.608-0.848,1.08-0.848    c0.072,0,0.128,0.008,0.192,0.016v0.664c-0.072-0.008-0.144-0.016-0.24-0.016c-0.496,0-0.848,0.375-0.943,0.896    c-0.016,0.104-0.024,0.216-0.024,0.328v2.071h-0.704V14.787z"/>
		<path d="M53.351,12.924c-0.256,0-0.424-0.2-0.424-0.432c0-0.248,0.176-0.44,0.44-0.44c0.256,0,0.432,0.192,0.432,0.44    c0,0.231-0.168,0.432-0.439,0.432H53.351z M53.015,17.449v-3.87h0.704v3.87H53.015z"/>
		<path d="M57.646,17.305c-0.184,0.088-0.592,0.224-1.111,0.224c-1.167,0-1.927-0.792-1.927-1.975c0-1.191,0.815-2.063,2.079-2.063    c0.416,0,0.783,0.104,0.976,0.208l-0.16,0.536c-0.168-0.088-0.432-0.184-0.815-0.184c-0.888,0-1.367,0.664-1.367,1.463    c0,0.896,0.576,1.447,1.343,1.447c0.399,0,0.664-0.096,0.863-0.184L57.646,17.305z"/>
		<path d="M58.871,15.642c0.016,0.944,0.616,1.335,1.319,1.335c0.504,0,0.815-0.088,1.071-0.2l0.128,0.504    c-0.248,0.112-0.68,0.248-1.295,0.248c-1.184,0-1.903-0.792-1.903-1.951c0-1.167,0.696-2.087,1.823-2.087    c1.263,0,1.591,1.111,1.591,1.823c0,0.144-0.008,0.248-0.024,0.328H58.871z M60.925,15.139c0.008-0.448-0.184-1.144-0.967-1.144    c-0.72,0-1.023,0.656-1.08,1.144H60.925z"/>
		<path d="M62.383,16.729c0.216,0.128,0.583,0.272,0.936,0.272c0.503,0,0.744-0.248,0.744-0.576c0-0.336-0.2-0.512-0.712-0.704    c-0.704-0.256-1.031-0.64-1.031-1.095c0-0.624,0.512-1.136,1.335-1.136c0.392,0,0.736,0.104,0.944,0.24l-0.168,0.503    c-0.152-0.088-0.432-0.224-0.792-0.224c-0.416,0-0.64,0.24-0.64,0.528c0,0.319,0.224,0.463,0.728,0.664    c0.664,0.248,1.016,0.583,1.016,1.159c0,0.688-0.536,1.167-1.439,1.167c-0.424,0-0.815-0.112-1.087-0.272L62.383,16.729z"/>
	</g>
	
		<rect x="282.132" y="144.821" fill="#D1D3D4" stroke="#000000" stroke-width="0.5" stroke-linejoin="round" stroke-miterlimit="10" width="6" height="5.999"/>
	<g>
		<path d="M292.649,144.605v5.389h-0.704v-5.389H292.649z"/>
		<path d="M293.841,147.172c0-0.408-0.008-0.728-0.032-1.048h0.624l0.04,0.632h0.016c0.192-0.36,0.64-0.72,1.279-0.72    c0.536,0,1.367,0.32,1.367,1.647v2.311h-0.703v-2.231c0-0.624-0.232-1.151-0.896-1.151c-0.456,0-0.815,0.328-0.943,0.72    c-0.032,0.088-0.049,0.216-0.049,0.328v2.335h-0.703V147.172z"/>
		<path d="M300.68,145.197v0.927h1.008v0.536h-1.008v2.079c0,0.48,0.137,0.751,0.528,0.751c0.191,0,0.304-0.016,0.407-0.048    l0.032,0.536c-0.136,0.048-0.352,0.096-0.624,0.096c-0.327,0-0.591-0.112-0.759-0.296c-0.192-0.216-0.272-0.56-0.272-1.016v-2.103    h-0.6v-0.536h0.6v-0.711L300.68,145.197z"/>
		<path d="M302.185,147.332c0-0.456-0.008-0.848-0.032-1.208h0.616l0.031,0.76h0.024c0.176-0.52,0.607-0.848,1.079-0.848    c0.072,0,0.128,0.008,0.192,0.016v0.664c-0.072-0.008-0.145-0.016-0.24-0.016c-0.495,0-0.848,0.375-0.943,0.896    c-0.016,0.104-0.024,0.216-0.024,0.328v2.071h-0.703V147.332z"/>
		<path d="M307.527,149.066c0,0.336,0.017,0.664,0.057,0.928h-0.632l-0.064-0.488h-0.023c-0.208,0.304-0.632,0.576-1.184,0.576    c-0.783,0-1.184-0.552-1.184-1.111c0-0.936,0.832-1.447,2.327-1.439v-0.08c0-0.32-0.088-0.904-0.88-0.896    c-0.367,0-0.743,0.104-1.016,0.288l-0.159-0.472c0.319-0.2,0.791-0.336,1.279-0.336c1.191,0,1.479,0.808,1.479,1.583V149.066z     M306.839,148.019c-0.768-0.016-1.639,0.12-1.639,0.872c0,0.464,0.304,0.672,0.655,0.672c0.512,0,0.84-0.32,0.952-0.648    c0.023-0.072,0.031-0.152,0.031-0.224V148.019z"/>
		<path d="M311.999,144.317v4.677c0,0.344,0.009,0.736,0.032,1h-0.632l-0.031-0.672h-0.017c-0.216,0.432-0.68,0.76-1.312,0.76    c-0.936,0-1.663-0.792-1.663-1.967c-0.008-1.295,0.8-2.079,1.735-2.079c0.6,0,1,0.28,1.167,0.584h0.017v-2.303H311.999z     M311.295,147.699c0-0.096-0.008-0.208-0.032-0.304c-0.104-0.439-0.487-0.808-1.016-0.808c-0.728,0-1.159,0.64-1.159,1.487    c0,0.792,0.392,1.439,1.144,1.439c0.472,0,0.903-0.32,1.031-0.848c0.024-0.088,0.032-0.184,0.032-0.296V147.699z"/>
		<path d="M313.504,145.469c-0.256,0-0.424-0.2-0.424-0.432c0-0.248,0.177-0.44,0.44-0.44c0.256,0,0.432,0.192,0.432,0.44    c0,0.231-0.168,0.432-0.439,0.432H313.504z M313.168,149.994v-3.87h0.704v3.87H313.168z"/>
		<path d="M315.041,147.172c0-0.408-0.008-0.728-0.031-1.048h0.623l0.04,0.632h0.017c0.191-0.36,0.64-0.72,1.279-0.72    c0.535,0,1.367,0.32,1.367,1.647v2.311h-0.704v-2.231c0-0.624-0.231-1.151-0.896-1.151c-0.455,0-0.815,0.328-0.943,0.72    c-0.032,0.088-0.048,0.216-0.048,0.328v2.335h-0.704V147.172z"/>
		<path d="M322.792,149.426c0,0.896-0.185,1.431-0.552,1.775c-0.384,0.344-0.928,0.463-1.416,0.463c-0.463,0-0.975-0.112-1.287-0.32    l0.176-0.543c0.256,0.168,0.656,0.312,1.136,0.312c0.72,0,1.247-0.375,1.247-1.359v-0.424h-0.016    c-0.208,0.36-0.632,0.647-1.231,0.647c-0.959,0-1.647-0.815-1.647-1.895c0-1.311,0.855-2.047,1.751-2.047    c0.672,0,1.032,0.344,1.208,0.672h0.016l0.024-0.584h0.623c-0.023,0.272-0.031,0.592-0.031,1.056V149.426z M322.087,147.644    c0-0.112-0.008-0.216-0.04-0.312c-0.128-0.416-0.464-0.751-0.983-0.751c-0.672,0-1.151,0.567-1.151,1.471    c0,0.751,0.392,1.391,1.144,1.391c0.439,0,0.831-0.272,0.976-0.728c0.04-0.112,0.056-0.248,0.056-0.376V147.644z"/>
		<path d="M291.929,156.388c0-0.496-0.008-0.896-0.032-1.264h0.632l0.04,0.664h0.016c0.28-0.48,0.744-0.752,1.367-0.752    c0.944,0,1.647,0.792,1.647,1.967c0,1.391-0.855,2.079-1.759,2.079c-0.52,0-0.96-0.224-1.191-0.607h-0.017v2.103h-0.703V156.388z     M292.632,157.419c0,0.096,0.009,0.2,0.032,0.288c0.12,0.487,0.552,0.823,1.048,0.823c0.743,0,1.175-0.607,1.175-1.495    c0-0.775-0.399-1.439-1.143-1.439c-0.48,0-0.936,0.335-1.072,0.872c-0.016,0.088-0.04,0.191-0.04,0.28V157.419z"/>
		<path d="M299.208,158.066c0,0.336,0.016,0.664,0.056,0.928h-0.632l-0.063-0.488h-0.024c-0.208,0.304-0.631,0.576-1.183,0.576    c-0.784,0-1.184-0.552-1.184-1.111c0-0.936,0.831-1.447,2.326-1.439v-0.08c0-0.32-0.088-0.904-0.879-0.896    c-0.368,0-0.744,0.104-1.016,0.288l-0.16-0.472c0.32-0.2,0.792-0.336,1.279-0.336c1.191,0,1.479,0.808,1.479,1.583V158.066z     M298.52,157.019c-0.768-0.016-1.64,0.12-1.64,0.872c0,0.464,0.304,0.672,0.656,0.672c0.512,0,0.839-0.32,0.951-0.648    c0.024-0.072,0.032-0.152,0.032-0.224V157.019z"/>
		<path d="M300.336,156.332c0-0.456-0.008-0.848-0.031-1.208h0.615l0.032,0.76h0.023c0.177-0.52,0.608-0.848,1.08-0.848    c0.071,0,0.128,0.008,0.191,0.016v0.664c-0.071-0.008-0.144-0.016-0.239-0.016c-0.496,0-0.848,0.375-0.943,0.896    c-0.017,0.104-0.024,0.216-0.024,0.328v2.071h-0.704V156.332z"/>
		<path d="M303.8,154.197v0.927h1.008v0.536H303.8v2.079c0,0.48,0.137,0.751,0.528,0.751c0.191,0,0.304-0.016,0.407-0.048    l0.032,0.536c-0.136,0.048-0.352,0.096-0.624,0.096c-0.327,0-0.591-0.112-0.759-0.296c-0.192-0.216-0.272-0.56-0.272-1.016v-2.103    h-0.6v-0.536h0.6v-0.711L303.8,154.197z"/>
		<path d="M305.601,156.172c0-0.408-0.008-0.728-0.032-1.048h0.624l0.04,0.632h0.016c0.192-0.36,0.64-0.72,1.279-0.72    c0.536,0,1.367,0.32,1.367,1.647v2.311h-0.703v-2.231c0-0.624-0.232-1.151-0.896-1.151c-0.456,0-0.815,0.328-0.943,0.72    c-0.032,0.088-0.049,0.216-0.049,0.328v2.335h-0.703V156.172z"/>
		<path d="M310.441,157.187c0.016,0.944,0.615,1.335,1.319,1.335c0.504,0,0.815-0.088,1.071-0.2l0.128,0.504    c-0.248,0.112-0.68,0.248-1.295,0.248c-1.184,0-1.903-0.792-1.903-1.951c0-1.167,0.695-2.087,1.823-2.087    c1.263,0,1.591,1.111,1.591,1.823c0,0.144-0.008,0.248-0.024,0.328H310.441z M312.496,156.684    c0.008-0.448-0.184-1.144-0.968-1.144c-0.72,0-1.023,0.656-1.079,1.144H312.496z"/>
		<path d="M314.048,156.332c0-0.456-0.008-0.848-0.031-1.208h0.615l0.032,0.76h0.023c0.177-0.52,0.608-0.848,1.08-0.848    c0.071,0,0.128,0.008,0.191,0.016v0.664c-0.071-0.008-0.144-0.016-0.239-0.016c-0.496,0-0.848,0.375-0.943,0.896    c-0.017,0.104-0.024,0.216-0.024,0.328v2.071h-0.704V156.332z"/>
		<path d="M321.12,158.85c-0.185,0.088-0.592,0.224-1.111,0.224c-1.168,0-1.928-0.792-1.928-1.975c0-1.191,0.816-2.063,2.079-2.063    c0.416,0,0.784,0.104,0.976,0.208l-0.16,0.536c-0.168-0.088-0.432-0.184-0.815-0.184c-0.888,0-1.367,0.664-1.367,1.463    c0,0.896,0.576,1.447,1.344,1.447c0.399,0,0.663-0.096,0.863-0.184L321.12,158.85z"/>
		<path d="M323.52,159.082c-1.039,0-1.855-0.768-1.855-1.991c0-1.295,0.855-2.055,1.919-2.055c1.111,0,1.863,0.808,1.863,1.983    c0,1.439-0.999,2.063-1.919,2.063H323.52z M323.552,158.554c0.671,0,1.175-0.631,1.175-1.511c0-0.655-0.327-1.479-1.159-1.479    c-0.823,0-1.184,0.768-1.184,1.503c0,0.847,0.48,1.487,1.159,1.487H323.552z"/>
		<path d="M329.576,157.931c0,0.408,0.008,0.76,0.031,1.063h-0.623l-0.04-0.632h-0.017c-0.176,0.312-0.591,0.72-1.279,0.72    c-0.607,0-1.335-0.344-1.335-1.695v-2.263h0.704v2.135c0,0.735,0.231,1.239,0.863,1.239c0.472,0,0.8-0.328,0.928-0.648    c0.04-0.096,0.063-0.224,0.063-0.359v-2.367h0.704V157.931z"/>
		<path d="M330.746,156.172c0-0.408-0.008-0.728-0.032-1.048h0.624l0.039,0.632h0.017c0.191-0.36,0.64-0.72,1.279-0.72    c0.535,0,1.367,0.32,1.367,1.647v2.311h-0.704v-2.231c0-0.624-0.231-1.151-0.896-1.151c-0.455,0-0.815,0.328-0.943,0.72    c-0.031,0.088-0.048,0.216-0.048,0.328v2.335h-0.703V156.172z"/>
		<path d="M336.033,154.197v0.927h1.007v0.536h-1.007v2.079c0,0.48,0.136,0.751,0.527,0.751c0.191,0,0.304-0.016,0.408-0.048    l0.031,0.536c-0.136,0.048-0.352,0.096-0.623,0.096c-0.328,0-0.592-0.112-0.76-0.296c-0.192-0.216-0.272-0.56-0.272-1.016v-2.103    h-0.6v-0.536h0.6v-0.711L336.033,154.197z"/>
		<path d="M337.833,156.332c0-0.456-0.008-0.848-0.032-1.208h0.615l0.032,0.76h0.024c0.176-0.52,0.607-0.848,1.079-0.848    c0.072,0,0.128,0.008,0.191,0.016v0.664c-0.071-0.008-0.144-0.016-0.239-0.016c-0.496,0-0.848,0.375-0.943,0.896    c-0.017,0.104-0.024,0.216-0.024,0.328v2.071h-0.703V156.332z"/>
		<path d="M340.785,154.469c-0.256,0-0.424-0.2-0.424-0.432c0-0.248,0.176-0.44,0.439-0.44c0.256,0,0.432,0.192,0.432,0.44    c0,0.231-0.168,0.432-0.439,0.432H340.785z M340.449,158.994v-3.87h0.703v3.87H340.449z"/>
		<path d="M342.72,157.187c0.016,0.944,0.615,1.335,1.319,1.335c0.504,0,0.815-0.088,1.071-0.2l0.128,0.504    c-0.248,0.112-0.68,0.248-1.295,0.248c-1.184,0-1.903-0.792-1.903-1.951c0-1.167,0.695-2.087,1.823-2.087    c1.263,0,1.591,1.111,1.591,1.823c0,0.144-0.008,0.248-0.023,0.328H342.72z M344.775,156.684c0.008-0.448-0.184-1.144-0.967-1.144    c-0.72,0-1.023,0.656-1.08,1.144H344.775z"/>
		<path d="M346.232,158.274c0.217,0.128,0.584,0.272,0.936,0.272c0.504,0,0.744-0.248,0.744-0.576c0-0.336-0.2-0.512-0.712-0.704    c-0.703-0.256-1.031-0.64-1.031-1.095c0-0.624,0.512-1.136,1.335-1.136c0.392,0,0.736,0.104,0.943,0.24l-0.168,0.503    c-0.151-0.088-0.432-0.224-0.791-0.224c-0.416,0-0.64,0.24-0.64,0.528c0,0.319,0.224,0.463,0.728,0.664    c0.664,0.248,1.016,0.583,1.016,1.159c0,0.688-0.536,1.167-1.439,1.167c-0.424,0-0.815-0.112-1.088-0.272L346.232,158.274z"/>
	</g>
	
		<rect x="281.904" y="165.82" fill="#808285" stroke="#000000" stroke-width="0.5" stroke-linejoin="round" stroke-miterlimit="10" width="6" height="6"/>
	<g>
		<path d="M292.418,165.605v5.389h-0.704v-5.389H292.418z"/>
		<path d="M293.611,168.172c0-0.408-0.009-0.728-0.032-1.048h0.624l0.04,0.632h0.016c0.191-0.36,0.64-0.72,1.279-0.72    c0.535,0,1.367,0.32,1.367,1.647v2.311h-0.704v-2.231c0-0.624-0.231-1.151-0.896-1.151c-0.455,0-0.815,0.328-0.943,0.72    c-0.031,0.088-0.048,0.216-0.048,0.328v2.335h-0.703V168.172z"/>
		<path d="M300.466,165.605v3.198c0,1.2,0.535,1.711,1.255,1.711c0.792,0,1.312-0.528,1.312-1.711v-3.198h0.703v3.15    c0,1.655-0.871,2.327-2.039,2.327c-1.103,0-1.935-0.624-1.935-2.303v-3.174H300.466z"/>
		<path d="M304.858,170.146c0.312,0.192,0.76,0.344,1.239,0.344c0.712,0,1.128-0.368,1.128-0.911c0-0.504-0.288-0.8-1.016-1.072    c-0.88-0.304-1.424-0.768-1.424-1.519c0-0.839,0.696-1.463,1.743-1.463c0.544,0,0.952,0.128,1.184,0.256l-0.191,0.575    c-0.168-0.104-0.528-0.256-1.016-0.256c-0.735,0-1.016,0.44-1.016,0.808c0,0.496,0.328,0.744,1.071,1.032    c0.912,0.36,1.367,0.792,1.367,1.583c0,0.824-0.607,1.551-1.879,1.551c-0.52,0-1.087-0.16-1.375-0.352L304.858,170.146z"/>
	</g>
	
		<line fill="none" stroke="#000000" stroke-width="0.5" stroke-linejoin="round" stroke-miterlimit="10" x1="67.374" y1="203.322" x2="67.374" y2="206.322"/>
	
		<line fill="none" stroke="#000000" stroke-width="0.5" stroke-linejoin="round" stroke-miterlimit="10" x1="114.813" y1="203.322" x2="114.813" y2="206.322"/>
	
		<line fill="none" stroke="#000000" stroke-width="0.5" stroke-linejoin="round" stroke-miterlimit="10" x1="162.252" y1="203.322" x2="162.252" y2="206.322"/>
	
		<line fill="none" stroke="#000000" stroke-width="0.5" stroke-linejoin="round" stroke-miterlimit="10" x1="209.692" y1="203.322" x2="209.692" y2="206.322"/>
	
		<line fill="none" stroke="#000000" stroke-width="0.5" stroke-linejoin="round" stroke-miterlimit="10" x1="257.13" y1="203.322" x2="257.13" y2="206.322"/>
	
		<line fill="none" stroke="#000000" stroke-width="0.5" stroke-linejoin="round" stroke-miterlimit="10" x1="304.57" y1="203.322" x2="304.57" y2="206.322"/>
	
		<line fill="none" stroke="#000000" stroke-width="0.5" stroke-linejoin="round" stroke-miterlimit="10" x1="352.009" y1="203.322" x2="352.009" y2="206.322"/>
</g>
</svg>