<svg xmlns="http://www.w3.org/2000/svg" xmlns:xlink="http://www.w3.org/1999/xlink" version="1.1" x="0px" y="0px" width="297.954px" height="146.881px" viewBox="0 0 297.954 146.881" enable-background="new 0 0 297.954 146.881" xml:space="preserve">
<g id="wide" display="none">
</g>
<g id="text_column">
</g>
<g id="art">
	<path fill="none" stroke="#A7A9AC" stroke-width="0.5" stroke-linejoin="round" stroke-miterlimit="10" d="M28.029,2.945h269.924    M28.029,25.026h269.924 M28.029,46.933h269.924 M28.029,69.014h269.924 M28.029,90.92h269.924 M28.029,113.001h269.924"/>
	<rect x="144.495" y="103.708" fill="#FFFFFF" width="147" height="19"/>
	<g>
		<path d="M16.088,5.285V3.862h-2.415V3.406l2.318-3.318h0.76v3.23h0.728v0.544h-0.728v1.423H16.088z M16.088,3.318V1.583    c0-0.271,0.008-0.544,0.024-0.815h-0.024c-0.16,0.304-0.288,0.527-0.432,0.768l-1.271,1.768v0.016H16.088z"/>
		<path d="M18.537,5.373c-0.272,0-0.463-0.216-0.463-0.504c0-0.287,0.2-0.504,0.479-0.504s0.472,0.208,0.472,0.504    c0,0.288-0.192,0.504-0.479,0.504H18.537z"/>
		<path d="M21.329,5.373c-1.016,0-1.711-0.951-1.728-2.671c0-1.751,0.76-2.702,1.815-2.702c1.087,0,1.719,0.976,1.719,2.631    c0,1.767-0.664,2.742-1.799,2.742H21.329z M21.368,4.829c0.712,0,1.056-0.839,1.056-2.167c0-1.279-0.32-2.118-1.056-2.118    c-0.64,0-1.055,0.815-1.055,2.118c-0.016,1.352,0.4,2.167,1.047,2.167H21.368z"/>
		<path d="M14.082,26.485c0.2,0.12,0.655,0.32,1.151,0.32c0.896,0,1.183-0.568,1.175-1.008c-0.008-0.728-0.664-1.039-1.343-1.039    h-0.392V24.23h0.392c0.512,0,1.159-0.264,1.159-0.879c0-0.416-0.264-0.784-0.911-0.784c-0.416,0-0.816,0.185-1.04,0.344    l-0.192-0.512C14.361,22.2,14.889,22,15.449,22c1.023,0,1.487,0.607,1.487,1.239c0,0.544-0.328,1-0.959,1.231v0.016    c0.64,0.12,1.159,0.6,1.159,1.328c0,0.831-0.656,1.559-1.895,1.559c-0.583,0-1.095-0.184-1.351-0.352L14.082,26.485z"/>
		<path d="M18.537,27.373c-0.272,0-0.463-0.216-0.463-0.504c0-0.287,0.2-0.504,0.479-0.504s0.472,0.208,0.472,0.504    c0,0.288-0.192,0.504-0.479,0.504H18.537z"/>
		<path d="M22.775,22.68h-1.983l-0.2,1.335c0.12-0.016,0.232-0.031,0.424-0.031c0.408,0,0.799,0.088,1.119,0.279    c0.408,0.224,0.744,0.68,0.744,1.335c0,1.016-0.808,1.775-1.935,1.775c-0.568,0-1.04-0.16-1.295-0.319l0.176-0.536    c0.216,0.128,0.64,0.288,1.12,0.288c0.655,0,1.231-0.432,1.223-1.136c0-0.663-0.456-1.144-1.487-1.144    c-0.304,0-0.536,0.024-0.728,0.057l0.336-2.495h2.486V22.68z"/>
		<path d="M14.082,48.485c0.2,0.12,0.655,0.32,1.151,0.32c0.896,0,1.183-0.568,1.175-1.008c-0.008-0.728-0.664-1.039-1.343-1.039    h-0.392V46.23h0.392c0.512,0,1.159-0.264,1.159-0.879c0-0.416-0.264-0.784-0.911-0.784c-0.416,0-0.816,0.185-1.04,0.344    l-0.192-0.512C14.361,44.2,14.889,44,15.449,44c1.023,0,1.487,0.607,1.487,1.239c0,0.544-0.328,1-0.959,1.231v0.016    c0.64,0.12,1.159,0.6,1.159,1.328c0,0.831-0.656,1.559-1.895,1.559c-0.583,0-1.095-0.184-1.351-0.352L14.082,48.485z"/>
		<path d="M18.537,49.373c-0.272,0-0.463-0.216-0.463-0.504c0-0.287,0.2-0.504,0.479-0.504s0.472,0.208,0.472,0.504    c0,0.288-0.192,0.504-0.479,0.504H18.537z"/>
		<path d="M21.329,49.373c-1.016,0-1.711-0.951-1.728-2.671c0-1.751,0.76-2.702,1.815-2.702c1.087,0,1.719,0.976,1.719,2.631    c0,1.767-0.664,2.742-1.799,2.742H21.329z M21.368,48.829c0.712,0,1.056-0.839,1.056-2.167c0-1.279-0.32-2.118-1.056-2.118    c-0.64,0-1.055,0.815-1.055,2.118c-0.016,1.352,0.4,2.167,1.047,2.167H21.368z"/>
		<path d="M13.914,71.285v-0.432l0.552-0.536c1.327-1.263,1.935-1.935,1.935-2.718c0-0.528-0.248-1.016-1.023-1.016    c-0.472,0-0.863,0.239-1.103,0.439l-0.224-0.496C14.401,66.232,14.921,66,15.521,66c1.111,0,1.583,0.768,1.583,1.512    c0,0.959-0.696,1.734-1.791,2.79l-0.408,0.384v0.016h2.327v0.584H13.914z"/>
		<path d="M18.537,71.373c-0.272,0-0.463-0.216-0.463-0.504c0-0.287,0.2-0.504,0.479-0.504s0.472,0.208,0.472,0.504    c0,0.288-0.192,0.504-0.479,0.504H18.537z"/>
		<path d="M22.775,66.68h-1.983l-0.2,1.335c0.12-0.016,0.232-0.031,0.424-0.031c0.408,0,0.799,0.088,1.119,0.279    c0.408,0.224,0.744,0.68,0.744,1.335c0,1.016-0.808,1.775-1.935,1.775c-0.568,0-1.04-0.16-1.295-0.319l0.176-0.536    c0.216,0.128,0.64,0.288,1.12,0.288c0.655,0,1.231-0.432,1.223-1.136c0-0.663-0.456-1.144-1.487-1.144    c-0.304,0-0.536,0.024-0.728,0.057l0.336-2.495h2.486V66.68z"/>
		<path d="M13.914,93.285v-0.432l0.552-0.536c1.327-1.263,1.935-1.935,1.935-2.718c0-0.528-0.248-1.016-1.023-1.016    c-0.472,0-0.863,0.239-1.103,0.439l-0.224-0.496C14.401,88.232,14.921,88,15.521,88c1.111,0,1.583,0.768,1.583,1.512    c0,0.959-0.696,1.734-1.791,2.79l-0.408,0.384v0.016h2.327v0.584H13.914z"/>
		<path d="M18.537,93.373c-0.272,0-0.463-0.216-0.463-0.504c0-0.287,0.2-0.504,0.479-0.504s0.472,0.208,0.472,0.504    c0,0.288-0.192,0.504-0.479,0.504H18.537z"/>
		<path d="M21.329,93.373c-1.016,0-1.711-0.951-1.728-2.671c0-1.751,0.76-2.702,1.815-2.702c1.087,0,1.719,0.976,1.719,2.631    c0,1.767-0.664,2.742-1.799,2.742H21.329z M21.368,92.829c0.712,0,1.056-0.839,1.056-2.167c0-1.279-0.32-2.118-1.056-2.118    c-0.64,0-1.055,0.815-1.055,2.118c-0.016,1.352,0.4,2.167,1.047,2.167H21.368z"/>
		<path d="M15.441,110.744h-0.016l-0.904,0.487l-0.136-0.536l1.135-0.607h0.6v5.197h-0.679V110.744z"/>
		<path d="M18.537,115.373c-0.272,0-0.463-0.216-0.463-0.504c0-0.287,0.2-0.504,0.479-0.504s0.472,0.208,0.472,0.504    c0,0.288-0.192,0.504-0.479,0.504H18.537z"/>
		<path d="M22.775,110.68h-1.983l-0.2,1.335c0.12-0.016,0.232-0.031,0.424-0.031c0.408,0,0.799,0.088,1.119,0.279    c0.408,0.224,0.744,0.68,0.744,1.335c0,1.016-0.808,1.775-1.935,1.775c-0.568,0-1.04-0.16-1.295-0.319l0.176-0.536    c0.216,0.128,0.64,0.288,1.12,0.288c0.655,0,1.231-0.432,1.223-1.136c0-0.663-0.456-1.144-1.487-1.144    c-0.304,0-0.536,0.024-0.728,0.057l0.336-2.495h2.486V110.68z"/>
		<path d="M15.441,132.744h-0.016l-0.904,0.487l-0.136-0.536l1.135-0.607h0.6v5.197h-0.679V132.744z"/>
		<path d="M18.537,137.373c-0.272,0-0.463-0.216-0.463-0.504c0-0.287,0.2-0.504,0.479-0.504s0.472,0.208,0.472,0.504    c0,0.288-0.192,0.504-0.479,0.504H18.537z"/>
		<path d="M21.329,137.373c-1.016,0-1.711-0.951-1.728-2.671c0-1.751,0.76-2.702,1.815-2.702c1.087,0,1.719,0.976,1.719,2.631    c0,1.767-0.664,2.742-1.799,2.742H21.329z M21.368,136.829c0.712,0,1.056-0.839,1.056-2.167c0-1.279-0.32-2.118-1.056-2.118    c-0.64,0-1.055,0.815-1.055,2.118c-0.016,1.352,0.4,2.167,1.047,2.167H21.368z"/>
	</g>
	<g>
		<path d="M37.521,142.02h-0.016l-0.904,0.488l-0.136-0.536l1.135-0.608h0.6v5.197h-0.679V142.02z"/>
		<path d="M41.752,146.649c-1.015,0-1.711-0.952-1.727-2.67c0-1.751,0.759-2.703,1.815-2.703c1.087,0,1.719,0.976,1.719,2.63    c0,1.767-0.664,2.743-1.799,2.743H41.752z M41.792,146.105c0.712,0,1.056-0.84,1.056-2.167c0-1.279-0.32-2.119-1.056-2.119    c-0.64,0-1.055,0.815-1.055,2.119c-0.016,1.351,0.4,2.167,1.047,2.167H41.792z"/>
		<path d="M45.855,146.649c-1.015,0-1.711-0.952-1.727-2.67c0-1.751,0.759-2.703,1.815-2.703c1.087,0,1.719,0.976,1.719,2.63    c0,1.767-0.664,2.743-1.799,2.743H45.855z M45.896,146.105c0.712,0,1.056-0.84,1.056-2.167c0-1.279-0.32-2.119-1.056-2.119    c-0.64,0-1.055,0.815-1.055,2.119c-0.016,1.351,0.4,2.167,1.047,2.167H45.896z"/>
		<path d="M49.96,146.649c-1.016,0-1.711-0.952-1.728-2.67c0-1.751,0.76-2.703,1.815-2.703c1.087,0,1.719,0.976,1.719,2.63    c0,1.767-0.664,2.743-1.799,2.743H49.96z M50,146.105c0.712,0,1.056-0.84,1.056-2.167c0-1.279-0.32-2.119-1.056-2.119    c-0.64,0-1.055,0.815-1.055,2.119c-0.016,1.351,0.4,2.167,1.047,2.167H50z"/>
		<path d="M52.041,146.881l2.223-5.797h0.552l-2.239,5.797H52.041z"/>
		<path d="M56.68,142.02h-0.016l-0.904,0.488l-0.136-0.536l1.135-0.608h0.6v5.197h-0.68V142.02z"/>
	</g>
	<g>
		<path d="M78.128,142.02h-0.016l-0.904,0.488l-0.136-0.536l1.135-0.608h0.6v5.197h-0.68V142.02z"/>
		<path d="M82.36,146.649c-1.016,0-1.711-0.952-1.728-2.67c0-1.751,0.76-2.703,1.815-2.703c1.087,0,1.719,0.976,1.719,2.63    c0,1.767-0.664,2.743-1.799,2.743H82.36z M82.4,146.105c0.712,0,1.056-0.84,1.056-2.167c0-1.279-0.32-2.119-1.056-2.119    c-0.64,0-1.055,0.815-1.055,2.119c-0.016,1.351,0.4,2.167,1.047,2.167H82.4z"/>
		<path d="M86.464,146.649c-1.015,0-1.711-0.952-1.727-2.67c0-1.751,0.759-2.703,1.815-2.703c1.087,0,1.719,0.976,1.719,2.63    c0,1.767-0.664,2.743-1.799,2.743H86.464z M86.504,146.105c0.712,0,1.056-0.84,1.056-2.167c0-1.279-0.32-2.119-1.056-2.119    c-0.64,0-1.055,0.815-1.055,2.119c-0.016,1.351,0.4,2.167,1.047,2.167H86.504z"/>
		<path d="M88.545,146.881l2.223-5.797h0.552l-2.239,5.797H88.545z"/>
		<path d="M93.184,142.02h-0.016l-0.904,0.488l-0.136-0.536l1.135-0.608h0.6v5.197h-0.68V142.02z"/>
	</g>
	<g>
		<path d="M118.735,142.02h-0.016l-0.904,0.488l-0.136-0.536l1.135-0.608h0.6v5.197h-0.68V142.02z"/>
		<path d="M122.968,146.649c-1.016,0-1.711-0.952-1.728-2.67c0-1.751,0.76-2.703,1.815-2.703c1.087,0,1.719,0.976,1.719,2.63    c0,1.767-0.664,2.743-1.799,2.743H122.968z M123.007,146.105c0.712,0,1.056-0.84,1.056-2.167c0-1.279-0.32-2.119-1.056-2.119    c-0.64,0-1.055,0.815-1.055,2.119c-0.016,1.351,0.4,2.167,1.047,2.167H123.007z"/>
		<path d="M125.049,146.881l2.223-5.797h0.552l-2.239,5.797H125.049z"/>
		<path d="M129.688,142.02h-0.016l-0.904,0.488l-0.136-0.536l1.135-0.608h0.6v5.197h-0.679V142.02z"/>
	</g>
	<g>
		<path d="M159.342,142.02h-0.016l-0.903,0.488l-0.136-0.536l1.135-0.608h0.6v5.197h-0.68V142.02z"/>
		<path d="M161.552,146.881l2.223-5.797h0.552l-2.238,5.797H161.552z"/>
		<path d="M166.19,142.02h-0.016l-0.903,0.488l-0.136-0.536l1.135-0.608h0.6v5.197h-0.68V142.02z"/>
	</g>
	<g>
		<path d="M195.846,142.02h-0.016l-0.903,0.488l-0.136-0.536l1.135-0.608h0.6v5.197h-0.68V142.02z"/>
		<path d="M198.056,146.881l2.223-5.797h0.552l-2.238,5.797H198.056z"/>
		<path d="M202.694,142.02h-0.016l-0.903,0.488l-0.136-0.536l1.135-0.608h0.6v5.197h-0.68V142.02z"/>
		<path d="M206.926,146.649c-1.016,0-1.711-0.952-1.727-2.67c0-1.751,0.76-2.703,1.814-2.703c1.088,0,1.719,0.976,1.719,2.63    c0,1.767-0.663,2.743-1.799,2.743H206.926z M206.966,146.105c0.712,0,1.056-0.84,1.056-2.167c0-1.279-0.32-2.119-1.056-2.119    c-0.64,0-1.056,0.815-1.056,2.119c-0.016,1.351,0.4,2.167,1.048,2.167H206.966z"/>
	</g>
	<g>
		<path d="M232.35,142.02h-0.016l-0.903,0.488l-0.136-0.536l1.135-0.608h0.6v5.197h-0.68V142.02z"/>
		<path d="M234.56,146.881l2.223-5.797h0.552l-2.238,5.797H234.56z"/>
		<path d="M239.198,142.02h-0.016l-0.903,0.488l-0.136-0.536l1.135-0.608h0.6v5.197h-0.68V142.02z"/>
		<path d="M243.43,146.649c-1.016,0-1.711-0.952-1.727-2.67c0-1.751,0.76-2.703,1.814-2.703c1.088,0,1.719,0.976,1.719,2.63    c0,1.767-0.663,2.743-1.799,2.743H243.43z M243.47,146.105c0.712,0,1.056-0.84,1.056-2.167c0-1.279-0.32-2.119-1.056-2.119    c-0.64,0-1.056,0.815-1.056,2.119c-0.016,1.351,0.4,2.167,1.048,2.167H243.47z"/>
		<path d="M247.534,146.649c-1.015,0-1.711-0.952-1.727-2.67c0-1.751,0.76-2.703,1.815-2.703c1.087,0,1.719,0.976,1.719,2.63    c0,1.767-0.663,2.743-1.799,2.743H247.534z M247.575,146.105c0.711,0,1.055-0.84,1.055-2.167c0-1.279-0.319-2.119-1.055-2.119    c-0.641,0-1.056,0.815-1.056,2.119c-0.017,1.351,0.399,2.167,1.048,2.167H247.575z"/>
	</g>
	<g>
		<path d="M268.854,142.02h-0.016l-0.904,0.488l-0.135-0.536l1.135-0.608h0.6v5.197h-0.68V142.02z"/>
		<path d="M271.063,146.881l2.223-5.797h0.553l-2.239,5.797H271.063z"/>
		<path d="M275.702,142.02h-0.016l-0.904,0.488l-0.135-0.536l1.135-0.608h0.6v5.197h-0.68V142.02z"/>
		<path d="M279.934,146.649c-1.016,0-1.711-0.952-1.727-2.67c0-1.751,0.759-2.703,1.814-2.703c1.088,0,1.719,0.976,1.719,2.63    c0,1.767-0.664,2.743-1.799,2.743H279.934z M279.973,146.105c0.713,0,1.057-0.84,1.057-2.167c0-1.279-0.32-2.119-1.057-2.119    c-0.639,0-1.055,0.815-1.055,2.119c-0.016,1.351,0.4,2.167,1.047,2.167H279.973z"/>
		<path d="M284.038,146.649c-1.016,0-1.711-0.952-1.727-2.67c0-1.751,0.76-2.703,1.814-2.703c1.088,0,1.719,0.976,1.719,2.63    c0,1.767-0.663,2.743-1.799,2.743H284.038z M284.078,146.105c0.712,0,1.056-0.84,1.056-2.167c0-1.279-0.32-2.119-1.056-2.119    c-0.64,0-1.056,0.815-1.056,2.119c-0.016,1.351,0.4,2.167,1.048,2.167H284.078z"/>
		<path d="M288.141,146.649c-1.015,0-1.711-0.952-1.727-2.67c0-1.751,0.76-2.703,1.815-2.703c1.087,0,1.719,0.976,1.719,2.63    c0,1.767-0.663,2.743-1.799,2.743H288.141z M288.182,146.105c0.711,0,1.055-0.84,1.055-2.167c0-1.279-0.319-2.119-1.055-2.119    c-0.641,0-1.056,0.815-1.056,2.119c-0.017,1.351,0.399,2.167,1.048,2.167H288.182z"/>
	</g>
	<g>
		<path d="M176.36,102.679v3.601c0,1.351,0.604,1.927,1.414,1.927c0.891,0,1.477-0.594,1.477-1.927v-3.601h0.792v3.547    c0,1.864-0.981,2.62-2.296,2.62c-1.242,0-2.178-0.702-2.178-2.593v-3.574H176.36z"/>
		<path d="M181.241,107.792c0.352,0.216,0.855,0.387,1.396,0.387c0.802,0,1.27-0.414,1.27-1.026c0-0.567-0.324-0.9-1.144-1.207    c-0.99-0.342-1.602-0.864-1.602-1.71c0-0.945,0.783-1.647,1.962-1.647c0.612,0,1.071,0.144,1.333,0.288l-0.217,0.648    c-0.189-0.117-0.594-0.288-1.143-0.288c-0.829,0-1.145,0.495-1.145,0.909c0,0.559,0.369,0.837,1.207,1.162    c1.025,0.405,1.539,0.891,1.539,1.782c0,0.928-0.684,1.747-2.115,1.747c-0.586,0-1.225-0.18-1.549-0.396L181.241,107.792z"/>
		<path d="M191.385,108.107c0,1.008-0.207,1.611-0.621,1.999c-0.433,0.387-1.045,0.522-1.594,0.522c-0.522,0-1.099-0.126-1.449-0.36    l0.197-0.612c0.289,0.189,0.738,0.351,1.279,0.351c0.81,0,1.404-0.423,1.404-1.53V108h-0.019    c-0.233,0.405-0.711,0.729-1.386,0.729c-1.081,0-1.855-0.918-1.855-2.134c0-1.476,0.963-2.305,1.972-2.305    c0.757,0,1.161,0.387,1.36,0.756h0.018l0.027-0.657h0.701c-0.027,0.306-0.035,0.667-0.035,1.188V108.107z M190.592,106.1    c0-0.126-0.009-0.243-0.045-0.351c-0.145-0.468-0.521-0.846-1.107-0.846c-0.756,0-1.296,0.639-1.296,1.657    c0,0.846,0.44,1.566,1.287,1.566c0.495,0,0.937-0.306,1.099-0.819c0.045-0.126,0.062-0.279,0.062-0.423V106.1z"/>
		<path d="M195.787,107.702c0,0.378,0.019,0.748,0.063,1.044h-0.711l-0.072-0.549h-0.027c-0.234,0.342-0.711,0.648-1.332,0.648    c-0.883,0-1.333-0.621-1.333-1.251c0-1.053,0.937-1.629,2.62-1.621v-0.09c0-0.36-0.1-1.018-0.99-1.008    c-0.414,0-0.838,0.117-1.144,0.324l-0.181-0.531c0.361-0.225,0.893-0.378,1.441-0.378c1.341,0,1.665,0.91,1.665,1.783V107.702z     M195.012,106.523c-0.863-0.018-1.846,0.135-1.846,0.981c0,0.522,0.342,0.756,0.738,0.756c0.576,0,0.945-0.36,1.072-0.729    c0.026-0.081,0.035-0.171,0.035-0.252V106.523z"/>
		<path d="M197.445,103.651c-0.288,0-0.478-0.225-0.478-0.486c0-0.279,0.199-0.495,0.496-0.495c0.287,0,0.486,0.216,0.486,0.495    c0,0.261-0.189,0.486-0.496,0.486H197.445z M197.067,108.747v-4.357h0.792v4.357H197.067z"/>
		<path d="M199.186,105.569c0-0.459-0.01-0.819-0.037-1.18h0.703l0.045,0.711h0.018c0.217-0.405,0.721-0.811,1.44-0.811    c0.604,0,1.54,0.36,1.54,1.855v2.602h-0.793v-2.512c0-0.702-0.261-1.296-1.008-1.296c-0.514,0-0.918,0.369-1.062,0.81    c-0.036,0.099-0.055,0.243-0.055,0.369v2.629h-0.791V105.569z"/>
		<path d="M204.053,107.937c0.242,0.144,0.656,0.306,1.053,0.306c0.566,0,0.838-0.279,0.838-0.648c0-0.378-0.226-0.576-0.802-0.792    c-0.792-0.288-1.161-0.72-1.161-1.233c0-0.703,0.576-1.279,1.503-1.279c0.441,0,0.829,0.117,1.062,0.271l-0.188,0.567    c-0.172-0.099-0.486-0.252-0.893-0.252c-0.467,0-0.72,0.27-0.72,0.594c0,0.36,0.253,0.522,0.819,0.747    c0.748,0.279,1.144,0.657,1.144,1.306c0,0.774-0.604,1.314-1.62,1.314c-0.478,0-0.919-0.126-1.225-0.306L204.053,107.937z"/>
		<path d="M207.102,109.106l2.502-6.527h0.621l-2.52,6.527H207.102z"/>
		<path d="M211.852,103.345v1.044h1.134v0.604h-1.134v2.34c0,0.541,0.153,0.846,0.594,0.846c0.217,0,0.342-0.018,0.459-0.054    l0.036,0.603c-0.153,0.054-0.396,0.108-0.702,0.108c-0.369,0-0.666-0.126-0.854-0.333c-0.216-0.243-0.306-0.63-0.306-1.143v-2.368    h-0.676v-0.604h0.676v-0.801L211.852,103.345z"/>
		<path d="M213.898,105.749c0-0.513-0.009-0.954-0.036-1.359h0.693l0.036,0.855h0.026c0.199-0.585,0.685-0.955,1.216-0.955    c0.081,0,0.144,0.009,0.216,0.018v0.748c-0.08-0.009-0.162-0.018-0.27-0.018c-0.559,0-0.955,0.423-1.062,1.008    c-0.018,0.117-0.027,0.243-0.027,0.369v2.332h-0.792V105.749z"/>
		<path d="M219.98,107.702c0,0.378,0.019,0.748,0.063,1.044h-0.711l-0.072-0.549h-0.027c-0.234,0.342-0.711,0.648-1.332,0.648    c-0.883,0-1.333-0.621-1.333-1.251c0-1.053,0.937-1.629,2.62-1.621v-0.09c0-0.36-0.1-1.018-0.99-1.008    c-0.414,0-0.838,0.117-1.144,0.324l-0.181-0.531c0.361-0.225,0.892-0.378,1.441-0.378c1.341,0,1.665,0.91,1.665,1.783V107.702z     M219.206,106.523c-0.864-0.018-1.846,0.135-1.846,0.981c0,0.522,0.342,0.756,0.738,0.756c0.576,0,0.945-0.36,1.072-0.729    c0.026-0.081,0.035-0.171,0.035-0.252V106.523z"/>
		<path d="M225.073,102.354v5.267c0,0.387,0.009,0.829,0.036,1.125h-0.712l-0.035-0.756h-0.019    c-0.243,0.486-0.765,0.855-1.476,0.855c-1.055,0-1.873-0.892-1.873-2.215c-0.01-1.458,0.9-2.341,1.953-2.341    c0.676,0,1.125,0.315,1.314,0.657h0.018v-2.593H225.073z M224.28,106.163c0-0.108-0.008-0.234-0.035-0.342    c-0.117-0.495-0.549-0.909-1.144-0.909c-0.819,0-1.306,0.72-1.306,1.674c0,0.891,0.441,1.621,1.287,1.621    c0.531,0,1.018-0.36,1.162-0.955c0.027-0.099,0.035-0.207,0.035-0.333V106.163z"/>
		<path d="M226.78,103.651c-0.287,0-0.477-0.225-0.477-0.486c0-0.279,0.198-0.495,0.495-0.495c0.288,0,0.486,0.216,0.486,0.495    c0,0.261-0.188,0.486-0.495,0.486H226.78z M226.403,108.747v-4.357h0.791v4.357H226.403z"/>
		<path d="M228.526,105.569c0-0.459-0.01-0.819-0.037-1.18h0.703l0.045,0.711h0.018c0.217-0.405,0.721-0.811,1.44-0.811    c0.604,0,1.54,0.36,1.54,1.855v2.602h-0.793v-2.512c0-0.702-0.261-1.296-1.008-1.296c-0.514,0-0.918,0.369-1.062,0.81    c-0.036,0.099-0.055,0.243-0.055,0.369v2.629h-0.791V105.569z"/>
		<path d="M237.301,108.107c0,1.008-0.207,1.611-0.621,1.999c-0.432,0.387-1.044,0.522-1.594,0.522c-0.521,0-1.098-0.126-1.449-0.36    l0.199-0.612c0.287,0.189,0.737,0.351,1.277,0.351c0.811,0,1.404-0.423,1.404-1.53V108H236.5    c-0.234,0.405-0.711,0.729-1.387,0.729c-1.08,0-1.854-0.918-1.854-2.134c0-1.476,0.963-2.305,1.971-2.305    c0.756,0,1.162,0.387,1.359,0.756h0.018l0.027-0.657h0.703c-0.027,0.306-0.037,0.667-0.037,1.188V108.107z M236.51,106.1    c0-0.126-0.01-0.243-0.046-0.351c-0.144-0.468-0.522-0.846-1.106-0.846c-0.757,0-1.297,0.639-1.297,1.657    c0,0.846,0.441,1.566,1.287,1.566c0.495,0,0.937-0.306,1.099-0.819c0.045-0.126,0.063-0.279,0.063-0.423V106.1z"/>
		<path d="M240.513,105.812c0-0.558-0.009-1.008-0.036-1.422h0.711l0.045,0.748h0.019c0.315-0.541,0.837-0.847,1.54-0.847    c1.062,0,1.854,0.892,1.854,2.215c0,1.566-0.963,2.341-1.98,2.341c-0.585,0-1.08-0.252-1.342-0.684h-0.018v2.368h-0.792V105.812z     M241.305,106.973c0,0.108,0.01,0.225,0.036,0.324c0.136,0.549,0.621,0.927,1.18,0.927c0.837,0,1.323-0.685,1.323-1.684    c0-0.874-0.45-1.621-1.287-1.621c-0.541,0-1.054,0.378-1.207,0.981c-0.018,0.099-0.045,0.216-0.045,0.315V106.973z"/>
		<path d="M248.793,107.702c0,0.378,0.019,0.748,0.063,1.044h-0.711l-0.072-0.549h-0.026c-0.234,0.342-0.712,0.648-1.333,0.648    c-0.882,0-1.333-0.621-1.333-1.251c0-1.053,0.938-1.629,2.621-1.621v-0.09c0-0.36-0.1-1.018-0.991-1.008    c-0.414,0-0.837,0.117-1.144,0.324l-0.18-0.531c0.36-0.225,0.892-0.378,1.44-0.378c1.341,0,1.665,0.91,1.665,1.783V107.702z     M248.02,106.523c-0.864-0.018-1.846,0.135-1.846,0.981c0,0.522,0.342,0.756,0.738,0.756c0.576,0,0.945-0.36,1.071-0.729    c0.026-0.081,0.036-0.171,0.036-0.252V106.523z"/>
		<path d="M250.079,105.749c0-0.513-0.009-0.954-0.035-1.359h0.693l0.035,0.855h0.027c0.198-0.585,0.684-0.955,1.215-0.955    c0.082,0,0.145,0.009,0.217,0.018v0.748c-0.081-0.009-0.162-0.018-0.271-0.018c-0.558,0-0.954,0.423-1.062,1.008    c-0.019,0.117-0.027,0.243-0.027,0.369v2.332h-0.793V105.749z"/>
		<path d="M254.264,103.345v1.044h1.134v0.604h-1.134v2.34c0,0.541,0.152,0.846,0.594,0.846c0.217,0,0.342-0.018,0.459-0.054    l0.036,0.603c-0.153,0.054-0.396,0.108-0.702,0.108c-0.369,0-0.666-0.126-0.855-0.333c-0.216-0.243-0.306-0.63-0.306-1.143v-2.368    h-0.675v-0.604h0.675v-0.801L254.264,103.345z"/>
		<path d="M256.31,105.569c0-0.459-0.009-0.819-0.036-1.18h0.702l0.045,0.711h0.019c0.216-0.405,0.72-0.811,1.439-0.811    c0.604,0,1.54,0.36,1.54,1.855v2.602h-0.792v-2.512c0-0.702-0.262-1.296-1.008-1.296c-0.514,0-0.919,0.369-1.062,0.81    c-0.037,0.099-0.055,0.243-0.055,0.369v2.629h-0.792V105.569z"/>
		<path d="M261.809,106.712c0.018,1.062,0.693,1.503,1.484,1.503c0.568,0,0.919-0.099,1.207-0.225l0.145,0.567    c-0.279,0.126-0.766,0.279-1.459,0.279c-1.332,0-2.143-0.891-2.143-2.196c0-1.314,0.783-2.35,2.053-2.35    c1.422,0,1.791,1.251,1.791,2.053c0,0.162-0.009,0.279-0.027,0.369H261.809z M264.122,106.145c0.01-0.504-0.207-1.288-1.089-1.288    c-0.81,0-1.152,0.738-1.216,1.288H264.122z"/>
		<path d="M265.921,105.749c0-0.513-0.009-0.954-0.036-1.359h0.693l0.036,0.855h0.026c0.199-0.585,0.685-0.955,1.216-0.955    c0.081,0,0.144,0.009,0.216,0.018v0.748c-0.08-0.009-0.162-0.018-0.27-0.018c-0.559,0-0.955,0.423-1.062,1.008    c-0.018,0.117-0.027,0.243-0.027,0.369v2.332h-0.792V105.749z"/>
		<path d="M270.772,102.354h0.792v6.392h-0.792V102.354z"/>
		<path d="M274.729,108.846c-1.17,0-2.088-0.864-2.088-2.242c0-1.458,0.963-2.314,2.16-2.314c1.251,0,2.098,0.91,2.098,2.233    c0,1.621-1.125,2.323-2.16,2.323H274.729z M274.765,108.251c0.757,0,1.323-0.711,1.323-1.702c0-0.738-0.369-1.666-1.305-1.666    c-0.928,0-1.333,0.864-1.333,1.693c0,0.954,0.54,1.674,1.306,1.674H274.765z"/>
		<path d="M277.793,107.937c0.244,0.144,0.658,0.306,1.054,0.306c0.567,0,0.837-0.279,0.837-0.648c0-0.378-0.225-0.576-0.801-0.792    c-0.793-0.288-1.162-0.72-1.162-1.233c0-0.703,0.576-1.279,1.504-1.279c0.441,0,0.828,0.117,1.062,0.271l-0.189,0.567    c-0.171-0.099-0.486-0.252-0.891-0.252c-0.469,0-0.721,0.27-0.721,0.594c0,0.36,0.252,0.522,0.819,0.747    c0.747,0.279,1.144,0.657,1.144,1.306c0,0.774-0.604,1.314-1.621,1.314c-0.477,0-0.918-0.126-1.225-0.306L277.793,107.937z"/>
		<path d="M281.985,106.712c0.019,1.062,0.693,1.503,1.486,1.503c0.566,0,0.918-0.099,1.206-0.225l0.144,0.567    c-0.279,0.126-0.766,0.279-1.458,0.279c-1.333,0-2.143-0.891-2.143-2.196c0-1.314,0.783-2.35,2.052-2.35    c1.424,0,1.792,1.251,1.792,2.053c0,0.162-0.009,0.279-0.026,0.369H281.985z M284.299,106.145c0.009-0.504-0.207-1.288-1.09-1.288    c-0.811,0-1.152,0.738-1.215,1.288H284.299z"/>
		<path d="M285.967,107.937c0.242,0.144,0.656,0.306,1.053,0.306c0.566,0,0.838-0.279,0.838-0.648c0-0.378-0.227-0.576-0.803-0.792    c-0.791-0.288-1.16-0.72-1.16-1.233c0-0.703,0.576-1.279,1.504-1.279c0.439,0,0.828,0.117,1.061,0.271l-0.188,0.567    c-0.172-0.099-0.486-0.252-0.893-0.252c-0.467,0-0.719,0.27-0.719,0.594c0,0.36,0.252,0.522,0.818,0.747    c0.748,0.279,1.143,0.657,1.143,1.306c0,0.774-0.602,1.314-1.619,1.314c-0.479,0-0.918-0.126-1.225-0.306L285.967,107.937z"/>
		<path d="M176.36,114.678v3.601c0,1.351,0.604,1.927,1.414,1.927c0.891,0,1.477-0.594,1.477-1.927v-3.601h0.792v3.547    c0,1.864-0.981,2.62-2.296,2.62c-1.242,0-2.178-0.702-2.178-2.593v-3.574H176.36z"/>
		<path d="M181.241,119.792c0.352,0.216,0.855,0.387,1.396,0.387c0.802,0,1.27-0.414,1.27-1.026c0-0.567-0.324-0.9-1.144-1.207    c-0.99-0.342-1.602-0.864-1.602-1.71c0-0.945,0.783-1.647,1.962-1.647c0.612,0,1.071,0.144,1.333,0.288l-0.217,0.648    c-0.189-0.117-0.594-0.288-1.143-0.288c-0.829,0-1.145,0.495-1.145,0.909c0,0.559,0.369,0.837,1.207,1.162    c1.025,0.405,1.539,0.891,1.539,1.782c0,0.928-0.684,1.747-2.115,1.747c-0.586,0-1.225-0.18-1.549-0.396L181.241,119.792z"/>
		<path d="M191.385,120.107c0,1.008-0.207,1.611-0.621,1.999c-0.433,0.387-1.045,0.522-1.594,0.522c-0.522,0-1.099-0.126-1.449-0.36    l0.197-0.612c0.289,0.189,0.738,0.351,1.279,0.351c0.81,0,1.404-0.423,1.404-1.53v-0.477h-0.019    c-0.233,0.405-0.711,0.729-1.386,0.729c-1.081,0-1.855-0.918-1.855-2.134c0-1.476,0.963-2.305,1.972-2.305    c0.757,0,1.161,0.387,1.36,0.756h0.018l0.027-0.657h0.701c-0.027,0.306-0.035,0.667-0.035,1.188V120.107z M190.592,118.099    c0-0.126-0.009-0.243-0.045-0.351c-0.145-0.468-0.521-0.846-1.107-0.846c-0.756,0-1.296,0.639-1.296,1.657    c0,0.846,0.44,1.566,1.287,1.566c0.495,0,0.937-0.306,1.099-0.819c0.045-0.126,0.062-0.279,0.062-0.423V118.099z"/>
		<path d="M195.787,119.702c0,0.378,0.019,0.748,0.063,1.044h-0.711l-0.072-0.549h-0.027c-0.234,0.342-0.711,0.648-1.332,0.648    c-0.883,0-1.333-0.621-1.333-1.251c0-1.053,0.937-1.629,2.62-1.621v-0.09c0-0.36-0.1-1.018-0.99-1.008    c-0.414,0-0.838,0.117-1.144,0.324l-0.181-0.531c0.361-0.225,0.893-0.378,1.441-0.378c1.341,0,1.665,0.91,1.665,1.783V119.702z     M195.012,118.522c-0.863-0.018-1.846,0.135-1.846,0.981c0,0.522,0.342,0.756,0.738,0.756c0.576,0,0.945-0.36,1.072-0.729    c0.026-0.081,0.035-0.171,0.035-0.252V118.522z"/>
		<path d="M197.445,115.65c-0.288,0-0.478-0.225-0.478-0.486c0-0.279,0.199-0.495,0.496-0.495c0.287,0,0.486,0.216,0.486,0.495    c0,0.261-0.189,0.486-0.496,0.486H197.445z M197.067,120.746v-4.357h0.792v4.357H197.067z"/>
		<path d="M199.186,117.568c0-0.459-0.01-0.819-0.037-1.18h0.703l0.045,0.711h0.018c0.217-0.405,0.721-0.811,1.44-0.811    c0.604,0,1.54,0.36,1.54,1.855v2.602h-0.793v-2.512c0-0.702-0.261-1.296-1.008-1.296c-0.514,0-0.918,0.369-1.062,0.81    c-0.036,0.099-0.055,0.243-0.055,0.369v2.629h-0.791V117.568z"/>
		<path d="M204.053,119.936c0.242,0.144,0.656,0.306,1.053,0.306c0.566,0,0.838-0.279,0.838-0.648c0-0.378-0.226-0.576-0.802-0.792    c-0.792-0.288-1.161-0.72-1.161-1.233c0-0.703,0.576-1.279,1.503-1.279c0.441,0,0.829,0.117,1.062,0.271l-0.188,0.567    c-0.172-0.099-0.486-0.252-0.893-0.252c-0.467,0-0.72,0.27-0.72,0.594c0,0.36,0.253,0.522,0.819,0.747    c0.748,0.279,1.144,0.657,1.144,1.306c0,0.774-0.604,1.314-1.62,1.314c-0.478,0-0.919-0.126-1.225-0.306L204.053,119.936z"/>
		<path d="M207.102,121.106l2.502-6.527h0.621l-2.52,6.527H207.102z"/>
		<path d="M211.852,115.344v1.044h1.134v0.604h-1.134v2.34c0,0.541,0.153,0.846,0.594,0.846c0.217,0,0.342-0.018,0.459-0.054    l0.036,0.603c-0.153,0.054-0.396,0.108-0.702,0.108c-0.369,0-0.666-0.126-0.854-0.333c-0.216-0.243-0.306-0.63-0.306-1.143v-2.368    h-0.676v-0.604h0.676v-0.801L211.852,115.344z"/>
		<path d="M213.898,117.748c0-0.513-0.009-0.954-0.036-1.359h0.693l0.036,0.855h0.026c0.199-0.585,0.685-0.955,1.216-0.955    c0.081,0,0.144,0.009,0.216,0.018v0.748c-0.08-0.009-0.162-0.018-0.27-0.018c-0.559,0-0.955,0.423-1.062,1.008    c-0.018,0.117-0.027,0.243-0.027,0.369v2.332h-0.792V117.748z"/>
		<path d="M219.98,119.702c0,0.378,0.019,0.748,0.063,1.044h-0.711l-0.072-0.549h-0.027c-0.234,0.342-0.711,0.648-1.332,0.648    c-0.883,0-1.333-0.621-1.333-1.251c0-1.053,0.937-1.629,2.62-1.621v-0.09c0-0.36-0.1-1.018-0.99-1.008    c-0.414,0-0.838,0.117-1.144,0.324l-0.181-0.531c0.361-0.225,0.892-0.378,1.441-0.378c1.341,0,1.665,0.91,1.665,1.783V119.702z     M219.206,118.522c-0.864-0.018-1.846,0.135-1.846,0.981c0,0.522,0.342,0.756,0.738,0.756c0.576,0,0.945-0.36,1.072-0.729    c0.026-0.081,0.035-0.171,0.035-0.252V118.522z"/>
		<path d="M225.073,114.354v5.267c0,0.387,0.009,0.829,0.036,1.125h-0.712l-0.035-0.756h-0.019    c-0.243,0.486-0.765,0.855-1.476,0.855c-1.055,0-1.873-0.892-1.873-2.215c-0.01-1.458,0.9-2.341,1.953-2.341    c0.676,0,1.125,0.315,1.314,0.657h0.018v-2.593H225.073z M224.28,118.162c0-0.108-0.008-0.234-0.035-0.342    c-0.117-0.495-0.549-0.909-1.144-0.909c-0.819,0-1.306,0.72-1.306,1.674c0,0.891,0.441,1.621,1.287,1.621    c0.531,0,1.018-0.36,1.162-0.955c0.027-0.099,0.035-0.207,0.035-0.333V118.162z"/>
		<path d="M226.78,115.65c-0.287,0-0.477-0.225-0.477-0.486c0-0.279,0.198-0.495,0.495-0.495c0.288,0,0.486,0.216,0.486,0.495    c0,0.261-0.188,0.486-0.495,0.486H226.78z M226.403,120.746v-4.357h0.791v4.357H226.403z"/>
		<path d="M228.526,117.568c0-0.459-0.01-0.819-0.037-1.18h0.703l0.045,0.711h0.018c0.217-0.405,0.721-0.811,1.44-0.811    c0.604,0,1.54,0.36,1.54,1.855v2.602h-0.793v-2.512c0-0.702-0.261-1.296-1.008-1.296c-0.514,0-0.918,0.369-1.062,0.81    c-0.036,0.099-0.055,0.243-0.055,0.369v2.629h-0.791V117.568z"/>
		<path d="M237.301,120.107c0,1.008-0.207,1.611-0.621,1.999c-0.432,0.387-1.044,0.522-1.594,0.522c-0.521,0-1.098-0.126-1.449-0.36    l0.199-0.612c0.287,0.189,0.737,0.351,1.277,0.351c0.811,0,1.404-0.423,1.404-1.53v-0.477H236.5    c-0.234,0.405-0.711,0.729-1.387,0.729c-1.08,0-1.854-0.918-1.854-2.134c0-1.476,0.963-2.305,1.971-2.305    c0.756,0,1.162,0.387,1.359,0.756h0.018l0.027-0.657h0.703c-0.027,0.306-0.037,0.667-0.037,1.188V120.107z M236.51,118.099    c0-0.126-0.01-0.243-0.046-0.351c-0.144-0.468-0.522-0.846-1.106-0.846c-0.757,0-1.297,0.639-1.297,1.657    c0,0.846,0.441,1.566,1.287,1.566c0.495,0,0.937-0.306,1.099-0.819c0.045-0.126,0.063-0.279,0.063-0.423V118.099z"/>
		<path d="M240.513,117.811c0-0.558-0.009-1.008-0.036-1.422h0.711l0.045,0.748h0.019c0.315-0.541,0.837-0.847,1.54-0.847    c1.062,0,1.854,0.892,1.854,2.215c0,1.566-0.963,2.341-1.98,2.341c-0.585,0-1.08-0.252-1.342-0.684h-0.018v2.368h-0.792V117.811z     M241.305,118.973c0,0.108,0.01,0.225,0.036,0.324c0.136,0.549,0.621,0.927,1.18,0.927c0.837,0,1.323-0.685,1.323-1.684    c0-0.874-0.45-1.621-1.287-1.621c-0.541,0-1.054,0.378-1.207,0.981c-0.018,0.099-0.045,0.216-0.045,0.315V118.973z"/>
		<path d="M248.793,119.702c0,0.378,0.019,0.748,0.063,1.044h-0.711l-0.072-0.549h-0.026c-0.234,0.342-0.712,0.648-1.333,0.648    c-0.882,0-1.333-0.621-1.333-1.251c0-1.053,0.938-1.629,2.621-1.621v-0.09c0-0.36-0.1-1.018-0.991-1.008    c-0.414,0-0.837,0.117-1.144,0.324l-0.18-0.531c0.36-0.225,0.892-0.378,1.44-0.378c1.341,0,1.665,0.91,1.665,1.783V119.702z     M248.02,118.522c-0.864-0.018-1.846,0.135-1.846,0.981c0,0.522,0.342,0.756,0.738,0.756c0.576,0,0.945-0.36,1.071-0.729    c0.026-0.081,0.036-0.171,0.036-0.252V118.522z"/>
		<path d="M250.079,117.748c0-0.513-0.009-0.954-0.035-1.359h0.693l0.035,0.855h0.027c0.198-0.585,0.684-0.955,1.215-0.955    c0.082,0,0.145,0.009,0.217,0.018v0.748c-0.081-0.009-0.162-0.018-0.271-0.018c-0.558,0-0.954,0.423-1.062,1.008    c-0.019,0.117-0.027,0.243-0.027,0.369v2.332h-0.793V117.748z"/>
		<path d="M254.264,115.344v1.044h1.134v0.604h-1.134v2.34c0,0.541,0.152,0.846,0.594,0.846c0.217,0,0.342-0.018,0.459-0.054    l0.036,0.603c-0.153,0.054-0.396,0.108-0.702,0.108c-0.369,0-0.666-0.126-0.855-0.333c-0.216-0.243-0.306-0.63-0.306-1.143v-2.368    h-0.675v-0.604h0.675v-0.801L254.264,115.344z"/>
		<path d="M256.31,117.568c0-0.459-0.009-0.819-0.036-1.18h0.702l0.045,0.711h0.019c0.216-0.405,0.72-0.811,1.439-0.811    c0.604,0,1.54,0.36,1.54,1.855v2.602h-0.792v-2.512c0-0.702-0.262-1.296-1.008-1.296c-0.514,0-0.919,0.369-1.062,0.81    c-0.037,0.099-0.055,0.243-0.055,0.369v2.629h-0.792V117.568z"/>
		<path d="M261.809,118.711c0.018,1.062,0.693,1.503,1.484,1.503c0.568,0,0.919-0.099,1.207-0.225l0.145,0.567    c-0.279,0.126-0.766,0.279-1.459,0.279c-1.332,0-2.143-0.891-2.143-2.196c0-1.314,0.783-2.35,2.053-2.35    c1.422,0,1.791,1.251,1.791,2.053c0,0.162-0.009,0.279-0.027,0.369H261.809z M264.122,118.145c0.01-0.504-0.207-1.288-1.089-1.288    c-0.81,0-1.152,0.738-1.216,1.288H264.122z"/>
		<path d="M265.921,117.748c0-0.513-0.009-0.954-0.036-1.359h0.693l0.036,0.855h0.026c0.199-0.585,0.685-0.955,1.216-0.955    c0.081,0,0.144,0.009,0.216,0.018v0.748c-0.08-0.009-0.162-0.018-0.27-0.018c-0.559,0-0.955,0.423-1.062,1.008    c-0.018,0.117-0.027,0.243-0.027,0.369v2.332h-0.792V117.748z"/>
		<path d="M274.499,120.107c0,1.008-0.207,1.611-0.621,1.999c-0.432,0.387-1.044,0.522-1.594,0.522c-0.521,0-1.098-0.126-1.449-0.36    l0.199-0.612c0.287,0.189,0.738,0.351,1.277,0.351c0.811,0,1.404-0.423,1.404-1.53v-0.477h-0.018    c-0.234,0.405-0.711,0.729-1.387,0.729c-1.08,0-1.854-0.918-1.854-2.134c0-1.476,0.963-2.305,1.971-2.305    c0.756,0,1.162,0.387,1.359,0.756h0.018l0.027-0.657h0.703c-0.027,0.306-0.037,0.667-0.037,1.188V120.107z M273.708,118.099    c0-0.126-0.01-0.243-0.046-0.351c-0.144-0.468-0.522-0.846-1.106-0.846c-0.757,0-1.297,0.639-1.297,1.657    c0,0.846,0.441,1.566,1.287,1.566c0.495,0,0.937-0.306,1.098-0.819c0.046-0.126,0.064-0.279,0.064-0.423V118.099z"/>
		<path d="M278.901,119.702c0,0.378,0.018,0.748,0.062,1.044h-0.711l-0.072-0.549h-0.026c-0.234,0.342-0.712,0.648-1.333,0.648    c-0.882,0-1.332-0.621-1.332-1.251c0-1.053,0.937-1.629,2.62-1.621v-0.09c0-0.36-0.099-1.018-0.991-1.008    c-0.414,0-0.836,0.117-1.143,0.324l-0.18-0.531c0.359-0.225,0.891-0.378,1.439-0.378c1.342,0,1.666,0.91,1.666,1.783V119.702z     M278.127,118.522c-0.865-0.018-1.846,0.135-1.846,0.981c0,0.522,0.342,0.756,0.738,0.756c0.576,0,0.945-0.36,1.07-0.729    c0.027-0.081,0.037-0.171,0.037-0.252V118.522z"/>
		<path d="M280.559,115.65c-0.287,0-0.477-0.225-0.477-0.486c0-0.279,0.198-0.495,0.495-0.495c0.288,0,0.486,0.216,0.486,0.495    c0,0.261-0.188,0.486-0.495,0.486H280.559z M280.182,120.746v-4.357h0.791v4.357H280.182z"/>
		<path d="M282.3,117.568c0-0.459-0.009-0.819-0.036-1.18h0.702l0.046,0.711h0.018c0.216-0.405,0.72-0.811,1.439-0.811    c0.604,0,1.541,0.36,1.541,1.855v2.602h-0.793v-2.512c0-0.702-0.262-1.296-1.008-1.296c-0.514,0-0.919,0.369-1.062,0.81    c-0.037,0.099-0.055,0.243-0.055,0.369v2.629H282.3V117.568z"/>
		<path d="M287.167,119.936c0.244,0.144,0.658,0.306,1.055,0.306c0.566,0,0.836-0.279,0.836-0.648c0-0.378-0.225-0.576-0.801-0.792    c-0.791-0.288-1.16-0.72-1.16-1.233c0-0.703,0.576-1.279,1.502-1.279c0.441,0,0.828,0.117,1.062,0.271l-0.189,0.567    c-0.17-0.099-0.484-0.252-0.891-0.252c-0.469,0-0.721,0.27-0.721,0.594c0,0.36,0.252,0.522,0.82,0.747    c0.746,0.279,1.143,0.657,1.143,1.306c0,0.774-0.604,1.314-1.619,1.314c-0.479,0-0.92-0.126-1.225-0.306L287.167,119.936z"/>
	</g>
	<g>
		<path d="M3.646,109.184v2.35h2.188v-2.629h0.657v3.421H0.423v-3.286H1.08v2.494h1.917v-2.35H3.646z"/>
		<path d="M2.133,107.317l0.937-0.621c0.243-0.162,0.459-0.297,0.711-0.441v-0.027c-0.261-0.144-0.486-0.288-0.72-0.441    l-0.927-0.604v-0.864l2.107,1.486l2.25-1.521v0.9l-0.981,0.64c-0.252,0.171-0.495,0.315-0.756,0.468v0.018    c0.261,0.144,0.495,0.297,0.756,0.459l0.981,0.63v0.873l-2.224-1.548l-2.134,1.477V107.317z"/>
		<path d="M1.089,102.278h1.044v-1.134h0.604v1.134h2.34c0.541,0,0.846-0.153,0.846-0.594c0-0.216-0.018-0.342-0.054-0.459    l0.603-0.036c0.054,0.153,0.108,0.396,0.108,0.702c0,0.369-0.126,0.666-0.333,0.855c-0.243,0.216-0.63,0.306-1.143,0.306H2.737    v0.675H2.133v-0.675H1.332L1.089,102.278z"/>
		<path d="M4.456,99.841c1.062-0.018,1.503-0.693,1.503-1.485c0-0.567-0.099-0.918-0.225-1.207l0.567-0.144    c0.126,0.279,0.279,0.766,0.279,1.458c0,1.333-0.891,2.143-2.196,2.143c-1.314,0-2.35-0.783-2.35-2.052    c0-1.423,1.251-1.792,2.053-1.792c0.162,0,0.279,0.009,0.369,0.027V99.841z M3.889,97.528c-0.504-0.009-1.288,0.207-1.288,1.089    c0,0.81,0.738,1.152,1.288,1.215V97.528z"/>
		<path d="M3.313,95.731c-0.459,0-0.819,0.009-1.18,0.036v-0.702l0.711-0.045v-0.018c-0.405-0.216-0.811-0.72-0.811-1.44    c0-0.604,0.36-1.54,1.855-1.54h2.602v0.792H3.979c-0.702,0-1.296,0.261-1.296,1.008c0,0.513,0.369,0.918,0.81,1.062    c0.099,0.036,0.243,0.054,0.369,0.054h2.629v0.792H3.313z"/>
		<path d="M1.089,89.812h1.044v-1.134h0.604v1.134h2.34c0.541,0,0.846-0.153,0.846-0.594c0-0.216-0.018-0.342-0.054-0.459    l0.603-0.036c0.054,0.153,0.108,0.396,0.108,0.702c0,0.369-0.126,0.666-0.333,0.855c-0.243,0.216-0.63,0.306-1.143,0.306H2.737    v0.675H2.133v-0.675H1.332L1.089,89.812z"/>
		<path d="M6.59,84.106c0,1.17-0.864,2.088-2.242,2.088c-1.458,0-2.314-0.963-2.314-2.161c0-1.251,0.91-2.098,2.233-2.098    c1.621,0,2.323,1.125,2.323,2.161V84.106z M5.996,84.07c0-0.756-0.711-1.323-1.702-1.323c-0.738,0-1.666,0.369-1.666,1.305    c0,0.927,0.864,1.333,1.693,1.333c0.954,0,1.674-0.54,1.674-1.305V84.07z"/>
		<path d="M6.491,80.835H2.737v0.603H2.133v-0.603H1.926c-0.612,0-1.17-0.144-1.521-0.513C0.117,80.024,0,79.629,0,79.269    c0-0.288,0.063-0.522,0.126-0.675l0.612,0.099c-0.054,0.126-0.099,0.279-0.099,0.513c0,0.667,0.594,0.846,1.26,0.846h0.234v-1.053    h0.604v1.044h3.754V80.835z"/>
		<path d="M1.089,75.417h1.044v-1.134h0.604v1.134h2.34c0.541,0,0.846-0.153,0.846-0.594c0-0.216-0.018-0.342-0.054-0.459    l0.603-0.036c0.054,0.153,0.108,0.396,0.108,0.702c0,0.369-0.126,0.666-0.333,0.855c-0.243,0.216-0.63,0.306-1.143,0.306H2.737    v0.675H2.133v-0.675H1.332L1.089,75.417z"/>
		<path d="M3.493,73.371c-0.513,0-0.954,0.009-1.359,0.036v-0.693l0.855-0.036v-0.027c-0.585-0.198-0.955-0.684-0.955-1.215    c0-0.081,0.009-0.144,0.018-0.216H2.8c-0.009,0.081-0.018,0.162-0.018,0.27c0,0.558,0.423,0.954,1.008,1.062    c0.117,0.018,0.243,0.027,0.369,0.027h2.332v0.792H3.493z"/>
		<path d="M5.446,67.289c0.378,0,0.748-0.018,1.044-0.063v0.711l-0.549,0.072v0.027c0.342,0.234,0.648,0.711,0.648,1.333    c0,0.882-0.621,1.333-1.251,1.333c-1.053,0-1.629-0.937-1.621-2.62h-0.09c-0.36,0-1.018,0.099-1.008,0.99    c0,0.415,0.117,0.837,0.324,1.144l-0.531,0.18c-0.225-0.36-0.378-0.891-0.378-1.44c0-1.341,0.91-1.666,1.783-1.666H5.446z     M4.267,68.063c-0.018,0.864,0.135,1.845,0.981,1.845c0.522,0,0.756-0.342,0.756-0.738c0-0.576-0.36-0.945-0.729-1.071    c-0.081-0.027-0.171-0.036-0.252-0.036H4.267z"/>
		<path d="M0.099,62.196h5.267c0.387,0,0.829-0.009,1.125-0.036v0.711l-0.756,0.036v0.018c0.486,0.243,0.855,0.765,0.855,1.476    c0,1.054-0.892,1.873-2.215,1.873c-1.458,0.009-2.341-0.9-2.341-1.954c0-0.675,0.315-1.125,0.657-1.314v-0.018H0.099V62.196z     M3.907,62.989c-0.108,0-0.234,0.009-0.342,0.036c-0.495,0.117-0.909,0.549-0.909,1.144c0,0.819,0.72,1.305,1.674,1.305    c0.891,0,1.621-0.441,1.621-1.287c0-0.531-0.36-1.018-0.955-1.162c-0.099-0.027-0.207-0.036-0.333-0.036H3.907z"/>
		<path d="M4.456,60.372c1.062-0.018,1.503-0.693,1.503-1.485c0-0.567-0.099-0.918-0.225-1.207l0.567-0.144    c0.126,0.279,0.279,0.766,0.279,1.458c0,1.333-0.891,2.143-2.196,2.143c-1.314,0-2.35-0.783-2.35-2.052    c0-1.423,1.251-1.792,2.053-1.792c0.162,0,0.279,0.009,0.369,0.027V60.372z M3.889,58.059c-0.504-0.009-1.288,0.207-1.288,1.089    c0,0.81,0.738,1.152,1.288,1.215V58.059z"/>
		<path d="M5.681,54.514c0.144-0.243,0.306-0.657,0.306-1.053c0-0.567-0.279-0.837-0.648-0.837c-0.378,0-0.576,0.225-0.792,0.801    c-0.288,0.792-0.72,1.162-1.233,1.162c-0.703,0-1.279-0.576-1.279-1.503c0-0.441,0.117-0.829,0.271-1.062l0.567,0.189    C2.772,52.38,2.62,52.695,2.62,53.101c0,0.468,0.27,0.72,0.594,0.72c0.36,0,0.522-0.252,0.747-0.819    c0.279-0.748,0.657-1.144,1.306-1.144c0.774,0,1.314,0.604,1.314,1.621c0,0.477-0.126,0.918-0.306,1.225L5.681,54.514z"/>
		<path d="M5.293,47.22c0.459,0,0.855-0.009,1.197-0.036v0.702l-0.711,0.045v0.018c0.352,0.198,0.811,0.667,0.811,1.44    c0,0.685-0.387,1.503-1.909,1.503H2.133v-0.792h2.404c0.828,0,1.396-0.261,1.396-0.972c0-0.531-0.369-0.9-0.729-1.044    c-0.108-0.045-0.252-0.072-0.405-0.072H2.133V47.22H5.293z"/>
		<path d="M3.556,45.885c-0.558,0-1.008,0.009-1.422,0.036V45.21l0.748-0.045v-0.018c-0.541-0.315-0.847-0.837-0.847-1.54    c0-1.062,0.892-1.854,2.215-1.854c1.566,0,2.341,0.963,2.341,1.98c0,0.585-0.252,1.081-0.684,1.342v0.018h2.368v0.792H3.556z     M4.717,45.093c0.108,0,0.225-0.009,0.324-0.036c0.549-0.135,0.927-0.621,0.927-1.179c0-0.837-0.685-1.324-1.684-1.324    c-0.874,0-1.621,0.45-1.621,1.288c0,0.54,0.378,1.053,0.981,1.206c0.099,0.018,0.216,0.045,0.315,0.045H4.717z"/>
		<path d="M3.556,40.702c-0.558,0-1.008,0.009-1.422,0.036v-0.711l0.748-0.045v-0.018c-0.541-0.315-0.847-0.837-0.847-1.54    c0-1.062,0.892-1.854,2.215-1.854c1.566,0,2.341,0.963,2.341,1.98c0,0.585-0.252,1.081-0.684,1.342v0.018h2.368v0.792H3.556z     M4.717,39.91c0.108,0,0.225-0.009,0.324-0.036c0.549-0.135,0.927-0.621,0.927-1.179c0-0.837-0.685-1.324-1.684-1.324    c-0.874,0-1.621,0.45-1.621,1.288c0,0.54,0.378,1.053,0.981,1.206c0.099,0.018,0.216,0.045,0.315,0.045H4.717z"/>
		<path d="M6.59,33.678c0,1.17-0.864,2.088-2.242,2.088c-1.458,0-2.314-0.963-2.314-2.161c0-1.251,0.91-2.098,2.233-2.098    c1.621,0,2.323,1.125,2.323,2.161V33.678z M5.996,33.642c0-0.756-0.711-1.323-1.702-1.323c-0.738,0-1.666,0.369-1.666,1.305    c0,0.927,0.864,1.333,1.693,1.333c0.954,0,1.674-0.54,1.674-1.305V33.642z"/>
		<path d="M3.493,30.452c-0.513,0-0.954,0.009-1.359,0.036v-0.693l0.855-0.036v-0.027c-0.585-0.198-0.955-0.684-0.955-1.215    c0-0.081,0.009-0.144,0.018-0.216H2.8c-0.009,0.081-0.018,0.162-0.018,0.271c0,0.558,0.423,0.954,1.008,1.062    c0.117,0.018,0.243,0.027,0.369,0.027h2.332v0.792H3.493z"/>
		<path d="M1.089,26.268h1.044v-1.134h0.604v1.134h2.34c0.541,0,0.846-0.153,0.846-0.594c0-0.216-0.018-0.342-0.054-0.459    l0.603-0.036c0.054,0.153,0.108,0.396,0.108,0.702c0,0.369-0.126,0.666-0.333,0.855c-0.243,0.216-0.63,0.306-1.143,0.306H2.737    v0.675H2.133v-0.675H1.332L1.089,26.268z"/>
	</g>
	<polyline fill="none" stroke="#000000" stroke-width="0.5" stroke-linejoin="round" stroke-miterlimit="10" points="   297.954,134.945 27.954,134.944 27.954,2.945  "/>
	
		<line fill="none" stroke="#000000" stroke-width="0.5" stroke-linejoin="round" stroke-miterlimit="10" x1="28.029" y1="2.945" x2="25.029" y2="2.945"/>
	
		<line fill="none" stroke="#000000" stroke-width="0.5" stroke-linejoin="round" stroke-miterlimit="10" x1="28.029" y1="24.945" x2="25.029" y2="24.945"/>
	
		<line fill="none" stroke="#000000" stroke-width="0.5" stroke-linejoin="round" stroke-miterlimit="10" x1="28.029" y1="46.945" x2="25.029" y2="46.945"/>
	
		<line fill="none" stroke="#000000" stroke-width="0.5" stroke-linejoin="round" stroke-miterlimit="10" x1="28.029" y1="68.945" x2="25.029" y2="68.945"/>
	
		<line fill="none" stroke="#000000" stroke-width="0.5" stroke-linejoin="round" stroke-miterlimit="10" x1="28.029" y1="90.945" x2="25.029" y2="90.945"/>
	
		<line fill="none" stroke="#000000" stroke-width="0.5" stroke-linejoin="round" stroke-miterlimit="10" x1="28.029" y1="112.945" x2="25.029" y2="112.945"/>
	
		<line fill="none" stroke="#000000" stroke-width="0.5" stroke-linejoin="round" stroke-miterlimit="10" x1="28.029" y1="134.945" x2="25.029" y2="134.945"/>
	
		<line fill="none" stroke="#000000" stroke-width="0.5" stroke-linejoin="round" stroke-miterlimit="10" x1="278.628" y1="134.946" x2="278.628" y2="137.946"/>
	
		<line fill="none" stroke="#000000" stroke-width="0.5" stroke-linejoin="round" stroke-miterlimit="10" x1="240.069" y1="134.946" x2="240.069" y2="137.946"/>
	
		<line fill="none" stroke="#000000" stroke-width="0.5" stroke-linejoin="round" stroke-miterlimit="10" x1="201.509" y1="134.946" x2="201.509" y2="137.946"/>
	
		<line fill="none" stroke="#000000" stroke-width="0.5" stroke-linejoin="round" stroke-miterlimit="10" x1="162.95" y1="134.946" x2="162.95" y2="137.946"/>
	
		<line fill="none" stroke="#000000" stroke-width="0.5" stroke-linejoin="round" stroke-miterlimit="10" x1="124.39" y1="134.946" x2="124.39" y2="137.946"/>
	
		<line fill="none" stroke="#000000" stroke-width="0.5" stroke-linejoin="round" stroke-miterlimit="10" x1="85.83" y1="134.946" x2="85.83" y2="137.946"/>
	
		<line fill="none" stroke="#000000" stroke-width="0.5" stroke-linejoin="round" stroke-miterlimit="10" x1="47.27" y1="134.946" x2="47.27" y2="137.946"/>
	<circle cx="47.25" cy="70.102" r="1.75"/>
	<circle cx="47.25" cy="68.553" r="1.75"/>
	<circle cx="85.84" cy="70.303" r="1.75"/>
	<circle cx="85.84" cy="64.169" r="1.75"/>
	<circle cx="124.431" cy="61.656" r="1.75"/>
	<circle cx="124.431" cy="70.906" r="1.75"/>
	<circle cx="159.645" cy="107.001" r="1.75"/>
	<circle cx="163.022" cy="59.043" r="1.75"/>
	<circle cx="163.022" cy="58.23" r="1.75"/>
	<circle cx="201.612" cy="45.771" r="1.75"/>
	<path fill="none" stroke="#000000" stroke-width="0.5" stroke-linejoin="round" stroke-miterlimit="10" d="M44.906,62.662h4.508    M44.906,77.742h4.508 M47.25,70.102v-7.439 M47.25,77.742v-7.641"/>
	<path fill="none" stroke="#000000" stroke-width="0.5" stroke-linejoin="round" stroke-miterlimit="10" d="M83.496,62.863h4.508    M83.496,77.943h4.508 M85.84,70.303v-7.439 M85.84,77.943v-7.641"/>
	<path fill="none" stroke="#000000" stroke-width="0.5" stroke-linejoin="round" stroke-miterlimit="10" d="M122.086,53.613h4.509    M122.086,69.498h4.509 M124.431,61.656v-8.043 M124.431,69.498v-7.842"/>
	<path fill="none" stroke="#000000" stroke-width="0.5" stroke-linejoin="round" stroke-miterlimit="10" d="M160.677,50.396h4.509    M160.677,66.063h4.509 M163.022,58.238v-7.842 M163.022,66.063v-7.825"/>
	<path fill="none" stroke="#000000" stroke-width="0.5" stroke-linejoin="round" stroke-miterlimit="10" d="M199.268,38.131h4.509    M199.268,53.393h4.509 M201.612,45.771v-7.641 M201.612,53.393v-7.621"/>
	<path fill="none" stroke="#000000" stroke-width="0.5" stroke-linejoin="round" stroke-miterlimit="10" d="M237.859,44.365h4.492    M237.859,59.445h4.492 M240.023,52.006v-7.641 M240.023,59.445v-7.439"/>
	<path fill="none" stroke="#000000" stroke-width="0.5" stroke-linejoin="round" stroke-miterlimit="10" d="M276.45,31.697h4.473    M276.45,46.962h4.473 M278.614,39.338v-7.641 M278.614,46.962v-7.624"/>
	<path fill="none" stroke="#000000" stroke-width="0.5" stroke-linejoin="round" stroke-miterlimit="10" d="M44.906,61.053h4.508    M44.906,76.133h4.508 M47.25,68.693v-7.641 M47.25,76.133v-7.439"/>
	<path fill="none" stroke="#000000" stroke-width="0.5" stroke-linejoin="round" stroke-miterlimit="10" d="M83.496,56.629h4.508    M83.496,71.71h4.508 M85.84,64.271v-7.643 M85.84,71.71v-7.438"/>
	<path fill="none" stroke="#000000" stroke-width="0.5" stroke-linejoin="round" stroke-miterlimit="10" d="M122.086,63.064h4.509    M122.086,78.857h4.509 M124.431,70.906v-7.842 M124.431,78.857v-7.951"/>
	<path fill="none" stroke="#000000" stroke-width="0.5" stroke-linejoin="round" stroke-miterlimit="10" d="M160.677,51.402h4.509    M160.677,66.684h4.509 M163.022,59.043v-7.641 M163.022,66.684v-7.641"/>
	<path fill="none" stroke="#000000" stroke-width="0.5" stroke-linejoin="round" stroke-miterlimit="10" d="M199.268,40.745h4.509    M199.268,55.424h4.509 M201.612,48.186v-7.44 M201.612,55.424v-7.238"/>
	<path fill="none" stroke="#000000" stroke-width="0.5" stroke-linejoin="round" stroke-miterlimit="10" d="M237.859,39.137h4.492    M237.859,54.418h4.492 M240.023,46.777v-7.641 M240.023,54.418v-7.641"/>
	<path fill="none" stroke="#000000" stroke-width="0.5" stroke-linejoin="round" stroke-miterlimit="10" d="M276.45,44.164h4.473    M276.45,58.641h4.473 M278.614,51.402v-7.238 M278.614,58.641v-7.238"/>
	<polyline fill="none" stroke="#000000" stroke-linejoin="round" stroke-miterlimit="10" points="47.25,70.102 85.84,70.303    124.431,61.656 163.022,58.238 201.612,45.771 240.023,52.006 278.614,39.338  "/>
	<g>
		<g>
			<line fill="none" stroke="#000000" stroke-linejoin="round" x1="47.25" y1="68.693" x2="48.74" y2="68.522"/>
			<polyline fill="none" stroke="#000000" stroke-linejoin="round" stroke-dasharray="3.0099,2.0066" points="50.734,68.294      85.84,64.271 124.431,70.906 163.022,59.043 201.612,48.186 240.023,46.777 276.128,51.104    "/>
			<line fill="none" stroke="#000000" stroke-linejoin="round" x1="277.125" y1="51.224" x2="278.614" y2="51.402"/>
		</g>
	</g>
	<circle cx="201.612" cy="48.186" r="1.75"/>
	<circle cx="240.048" cy="51.905" r="1.75"/>
	<circle cx="240.048" cy="46.777" r="1.75"/>
	<circle cx="278.686" cy="51.402" r="1.75"/>
	<circle cx="278.686" cy="39.338" r="1.75"/>
	
		<line fill="none" stroke="#000000" stroke-linejoin="round" stroke-miterlimit="10" x1="147.645" y1="107.001" x2="171.645" y2="107.001"/>
	<circle cx="159.645" cy="119.001" r="1.75"/>
	<g>
		<g>
			<line fill="none" stroke="#000000" stroke-linejoin="round" x1="147.645" y1="119.001" x2="149.145" y2="119.001"/>
			
				<line fill="none" stroke="#000000" stroke-linejoin="round" stroke-dasharray="2.8636,1.9091" x1="151.055" y1="119.001" x2="169.191" y2="119.001"/>
			<line fill="none" stroke="#000000" stroke-linejoin="round" x1="170.145" y1="119.001" x2="171.645" y2="119.001"/>
		</g>
	</g>
</g>
</svg>