<svg xmlns="http://www.w3.org/2000/svg" xmlns:xlink="http://www.w3.org/1999/xlink" version="1.1" x="0px" y="0px" width="359.043px" height="185.502px" viewBox="0 0 359.043 185.502" enable-background="new 0 0 359.043 185.502" xml:space="preserve">
<g id="wide">
</g>
<g id="text_column" display="none">
</g>
<g id="art">
	
		<line fill="none" stroke="#999999" stroke-width="0.5" stroke-linejoin="round" stroke-miterlimit="10" x1="18.244" y1="30.616" x2="170.168" y2="30.616"/>
	
		<line fill="none" stroke="#999999" stroke-width="0.5" stroke-linejoin="round" stroke-miterlimit="10" x1="18.244" y1="49.473" x2="170.168" y2="49.473"/>
	
		<line fill="none" stroke="#999999" stroke-width="0.5" stroke-linejoin="round" stroke-miterlimit="10" x1="18.244" y1="68.33" x2="170.168" y2="68.33"/>
	
		<line fill="none" stroke="#999999" stroke-width="0.5" stroke-linejoin="round" stroke-miterlimit="10" x1="18.244" y1="87.187" x2="170.168" y2="87.187"/>
	
		<line fill="none" stroke="#999999" stroke-width="0.5" stroke-linejoin="round" stroke-miterlimit="10" x1="18.244" y1="106.044" x2="170.168" y2="106.044"/>
	
		<line fill="none" stroke="#999999" stroke-width="0.5" stroke-linejoin="round" stroke-miterlimit="10" x1="18.244" y1="124.902" x2="170.168" y2="124.902"/>
	
		<line fill="none" stroke="#999999" stroke-width="0.5" stroke-linejoin="round" stroke-miterlimit="10" x1="18.244" y1="143.759" x2="170.168" y2="143.759"/>
	<g>
		<path d="M0.192,32.156c0.2,0.12,0.656,0.32,1.151,0.32c0.896,0,1.183-0.568,1.175-1.008c-0.008-0.728-0.664-1.039-1.343-1.039    H0.783v-0.528h0.392c0.512,0,1.159-0.264,1.159-0.879c0-0.416-0.264-0.784-0.912-0.784c-0.416,0-0.815,0.185-1.039,0.344    L0.192,28.07C0.472,27.871,1,27.67,1.559,27.67c1.023,0,1.487,0.607,1.487,1.239c0,0.544-0.328,1-0.959,1.231v0.016    c0.64,0.12,1.159,0.6,1.159,1.328c0,0.831-0.656,1.559-1.895,1.559c-0.583,0-1.095-0.184-1.351-0.352L0.192,32.156z"/>
		<path d="M4.647,33.043c-0.271,0-0.464-0.216-0.464-0.504c0-0.287,0.2-0.504,0.48-0.504s0.472,0.208,0.472,0.504    c0,0.288-0.192,0.504-0.479,0.504H4.647z"/>
		<path d="M7.438,33.043c-1.015,0-1.711-0.951-1.727-2.671c0-1.751,0.759-2.702,1.815-2.702c1.087,0,1.719,0.976,1.719,2.631    c0,1.767-0.664,2.742-1.799,2.742H7.438z M7.479,32.5c0.712,0,1.056-0.839,1.056-2.167c0-1.279-0.32-2.118-1.056-2.118    c-0.64,0-1.055,0.815-1.055,2.118c-0.016,1.352,0.4,2.167,1.047,2.167H7.479z"/>
		<path d="M11.543,33.043c-1.016,0-1.711-0.951-1.728-2.671c0-1.751,0.76-2.702,1.815-2.702c1.087,0,1.719,0.976,1.719,2.631    c0,1.767-0.664,2.742-1.799,2.742H11.543z M11.583,32.5c0.712,0,1.056-0.839,1.056-2.167c0-1.279-0.32-2.118-1.056-2.118    c-0.64,0-1.055,0.815-1.055,2.118c-0.016,1.352,0.4,2.167,1.047,2.167H11.583z"/>
		<path d="M0.024,51.816v-0.432l0.552-0.536c1.327-1.263,1.935-1.935,1.935-2.718c0-0.528-0.248-1.016-1.023-1.016    c-0.472,0-0.864,0.239-1.104,0.439L0.16,47.058c0.352-0.296,0.872-0.527,1.471-0.527c1.111,0,1.583,0.768,1.583,1.511    c0,0.96-0.695,1.735-1.791,2.791l-0.408,0.384v0.016h2.327v0.584H0.024z"/>
		<path d="M4.647,51.904c-0.271,0-0.464-0.216-0.464-0.504s0.2-0.504,0.48-0.504s0.472,0.208,0.472,0.504    c0,0.288-0.192,0.504-0.479,0.504H4.647z"/>
		<path d="M6.191,51.32c0.152,0.009,0.328,0,0.568-0.031c0.408-0.048,0.792-0.216,1.087-0.496c0.344-0.319,0.591-0.768,0.688-1.383    H8.51c-0.288,0.352-0.704,0.56-1.231,0.56c-0.936,0-1.535-0.704-1.535-1.6c0-0.976,0.72-1.839,1.783-1.839    c1.063,0,1.719,0.855,1.719,2.19c0,1.144-0.384,1.943-0.896,2.439c-0.4,0.384-0.951,0.631-1.511,0.695    c-0.256,0.032-0.487,0.048-0.647,0.04V51.32z M7.463,47.067c-0.592,0-1.016,0.527-1.016,1.263c0,0.647,0.392,1.104,1,1.104    c0.472,0,0.839-0.231,1.031-0.544c0.032-0.063,0.056-0.144,0.056-0.256c0.008-0.896-0.328-1.566-1.063-1.566H7.463z"/>
		<path d="M11.543,51.904c-1.016,0-1.711-0.951-1.728-2.671c0-1.751,0.76-2.702,1.815-2.702c1.087,0,1.719,0.976,1.719,2.631    c0,1.767-0.664,2.742-1.799,2.742H11.543z M11.583,51.36c0.712,0,1.056-0.839,1.056-2.166c0-1.279-0.32-2.119-1.056-2.119    c-0.64,0-1.055,0.815-1.055,2.119c-0.016,1.351,0.4,2.166,1.047,2.166H11.583z"/>
		<path d="M0.024,70.675v-0.432l0.552-0.536c1.327-1.263,1.935-1.935,1.935-2.718c0-0.528-0.248-1.016-1.023-1.016    c-0.472,0-0.864,0.239-1.104,0.439L0.16,65.917c0.352-0.296,0.872-0.527,1.471-0.527c1.111,0,1.583,0.768,1.583,1.511    c0,0.96-0.695,1.735-1.791,2.791l-0.408,0.384v0.016h2.327v0.584H0.024z"/>
		<path d="M4.647,70.763c-0.271,0-0.464-0.216-0.464-0.504s0.2-0.504,0.48-0.504s0.472,0.208,0.472,0.504    c0,0.288-0.192,0.504-0.479,0.504H4.647z"/>
		<path d="M7.527,65.39c1.007,0,1.519,0.624,1.519,1.279c0,0.439-0.224,0.92-0.864,1.216v0.023c0.648,0.256,1.047,0.72,1.047,1.344    c0,0.911-0.775,1.511-1.767,1.511c-1.087,0-1.743-0.64-1.743-1.399c0-0.655,0.392-1.127,1.023-1.399v-0.023    c-0.584-0.272-0.832-0.72-0.832-1.167c0-0.824,0.696-1.384,1.607-1.384H7.527z M7.479,70.251c0.632,0,1.04-0.392,1.04-0.928    c0-0.623-0.44-0.936-1.143-1.135c-0.608,0.176-0.936,0.583-0.936,1.079c-0.024,0.52,0.375,0.983,1.031,0.983H7.479z M7.487,65.894    c-0.584,0-0.904,0.384-0.904,0.831c-0.008,0.521,0.392,0.8,0.992,0.96c0.448-0.152,0.792-0.472,0.792-0.943    c0-0.416-0.248-0.848-0.872-0.848H7.487z"/>
		<path d="M11.543,70.763c-1.016,0-1.711-0.951-1.728-2.671c0-1.751,0.76-2.702,1.815-2.702c1.087,0,1.719,0.976,1.719,2.631    c0,1.767-0.664,2.742-1.799,2.742H11.543z M11.583,70.219c0.712,0,1.056-0.839,1.056-2.166c0-1.279-0.32-2.119-1.056-2.119    c-0.64,0-1.055,0.815-1.055,2.119c-0.016,1.351,0.4,2.166,1.047,2.166H11.583z"/>
		<path d="M0.024,89.536v-0.432l0.552-0.536c1.327-1.263,1.935-1.935,1.935-2.718c0-0.528-0.248-1.016-1.023-1.016    c-0.472,0-0.864,0.239-1.104,0.439L0.16,84.778c0.352-0.295,0.872-0.527,1.471-0.527c1.111,0,1.583,0.768,1.583,1.512    c0,0.959-0.695,1.734-1.791,2.79l-0.408,0.384v0.016h2.327v0.584H0.024z"/>
		<path d="M4.647,89.624c-0.271,0-0.464-0.216-0.464-0.504c0-0.287,0.2-0.504,0.48-0.504s0.472,0.208,0.472,0.504    c0,0.288-0.192,0.504-0.479,0.504H4.647z"/>
		<path d="M9.158,84.338v0.464l-2.263,4.733h-0.72l2.247-4.598v-0.016H5.879v-0.584H9.158z"/>
		<path d="M11.543,89.624c-1.016,0-1.711-0.951-1.728-2.671c0-1.751,0.76-2.702,1.815-2.702c1.087,0,1.719,0.976,1.719,2.631    c0,1.767-0.664,2.742-1.799,2.742H11.543z M11.583,89.08c0.712,0,1.056-0.839,1.056-2.167c0-1.279-0.32-2.118-1.056-2.118    c-0.64,0-1.055,0.815-1.055,2.118c-0.016,1.352,0.4,2.167,1.047,2.167H11.583z"/>
		<path d="M0.024,108.396v-0.432l0.552-0.536c1.327-1.263,1.935-1.935,1.935-2.718c0-0.528-0.248-1.016-1.023-1.016    c-0.472,0-0.864,0.239-1.104,0.439l-0.224-0.496c0.352-0.296,0.872-0.527,1.471-0.527c1.111,0,1.583,0.768,1.583,1.511    c0,0.96-0.695,1.735-1.791,2.791l-0.408,0.384v0.016h2.327v0.584H0.024z"/>
		<path d="M4.647,108.484c-0.271,0-0.464-0.216-0.464-0.504s0.2-0.504,0.48-0.504s0.472,0.208,0.472,0.504    c0,0.288-0.192,0.504-0.479,0.504H4.647z"/>
		<path d="M8.75,103.695c-0.144-0.008-0.328,0.008-0.528,0.04c-1.111,0.176-1.687,0.976-1.807,1.839h0.016    c0.248-0.336,0.688-0.607,1.263-0.607c0.92,0,1.567,0.671,1.567,1.679c0,0.959-0.647,1.839-1.735,1.839    c-1.104,0-1.831-0.863-1.831-2.215c0-1.023,0.36-1.831,0.879-2.343c0.432-0.424,1.007-0.688,1.663-0.768    c0.208-0.032,0.384-0.04,0.512-0.04V103.695z M7.542,107.94c0.6,0,1.008-0.504,1.008-1.247s-0.424-1.191-1.072-1.191    c-0.424,0-0.823,0.256-1.015,0.64c-0.04,0.08-0.072,0.176-0.072,0.304c0.008,0.855,0.408,1.495,1.144,1.495H7.542z"/>
		<path d="M11.543,108.484c-1.016,0-1.711-0.951-1.728-2.671c0-1.751,0.76-2.702,1.815-2.702c1.087,0,1.719,0.976,1.719,2.631    c0,1.767-0.664,2.742-1.799,2.742H11.543z M11.583,107.94c0.712,0,1.056-0.839,1.056-2.166c0-1.279-0.32-2.119-1.056-2.119    c-0.64,0-1.055,0.815-1.055,2.119c-0.016,1.351,0.4,2.166,1.047,2.166H11.583z"/>
		<path d="M0.024,127.255v-0.432l0.552-0.536c1.327-1.263,1.935-1.935,1.935-2.718c0-0.528-0.248-1.016-1.023-1.016    c-0.472,0-0.864,0.239-1.104,0.439l-0.224-0.496c0.352-0.296,0.872-0.527,1.471-0.527c1.111,0,1.583,0.768,1.583,1.511    c0,0.96-0.695,1.735-1.791,2.791l-0.408,0.384v0.016h2.327v0.584H0.024z"/>
		<path d="M4.647,127.343c-0.271,0-0.464-0.216-0.464-0.504s0.2-0.504,0.48-0.504s0.472,0.208,0.472,0.504    c0,0.288-0.192,0.504-0.479,0.504H4.647z"/>
		<path d="M8.886,122.65H6.903l-0.2,1.335c0.12-0.016,0.232-0.031,0.424-0.031c0.408,0,0.799,0.088,1.119,0.279    c0.408,0.224,0.744,0.68,0.744,1.335c0,1.016-0.808,1.775-1.935,1.775c-0.567,0-1.039-0.16-1.295-0.319l0.176-0.536    c0.216,0.128,0.64,0.288,1.119,0.288c0.656,0,1.231-0.432,1.224-1.136c0-0.663-0.456-1.144-1.487-1.144    c-0.304,0-0.536,0.024-0.728,0.057l0.336-2.495h2.486V122.65z"/>
		<path d="M11.543,127.343c-1.016,0-1.711-0.951-1.728-2.671c0-1.751,0.76-2.702,1.815-2.702c1.087,0,1.719,0.976,1.719,2.631    c0,1.767-0.664,2.742-1.799,2.742H11.543z M11.583,126.799c0.712,0,1.056-0.839,1.056-2.166c0-1.279-0.32-2.119-1.056-2.119    c-0.64,0-1.055,0.815-1.055,2.119c-0.016,1.351,0.4,2.166,1.047,2.166H11.583z"/>
		<path d="M0.024,146.116v-0.432l0.552-0.536c1.327-1.263,1.935-1.935,1.935-2.718c0-0.528-0.248-1.016-1.023-1.016    c-0.472,0-0.864,0.239-1.104,0.439l-0.224-0.496c0.352-0.295,0.872-0.527,1.471-0.527c1.111,0,1.583,0.768,1.583,1.512    c0,0.959-0.695,1.734-1.791,2.79l-0.408,0.384v0.016h2.327v0.584H0.024z"/>
		<path d="M4.647,146.204c-0.271,0-0.464-0.216-0.464-0.504c0-0.287,0.2-0.504,0.48-0.504s0.472,0.208,0.472,0.504    c0,0.288-0.192,0.504-0.479,0.504H4.647z"/>
		<path d="M7.958,146.116v-1.423H5.544v-0.456l2.318-3.318h0.76v3.23H9.35v0.544H8.622v1.423H7.958z M7.958,144.149v-1.735    c0-0.271,0.008-0.544,0.024-0.815H7.958c-0.16,0.304-0.288,0.527-0.432,0.768l-1.271,1.768v0.016H7.958z"/>
		<path d="M11.543,146.204c-1.016,0-1.711-0.951-1.728-2.671c0-1.751,0.76-2.702,1.815-2.702c1.087,0,1.719,0.976,1.719,2.631    c0,1.767-0.664,2.742-1.799,2.742H11.543z M11.583,145.66c0.712,0,1.056-0.839,1.056-2.167c0-1.279-0.32-2.118-1.056-2.118    c-0.64,0-1.055,0.815-1.055,2.118c-0.016,1.352,0.4,2.167,1.047,2.167H11.583z"/>
		<path d="M0.024,164.975v-0.432l0.552-0.536c1.327-1.263,1.935-1.935,1.935-2.718c0-0.528-0.248-1.016-1.023-1.016    c-0.472,0-0.864,0.239-1.104,0.439l-0.224-0.496c0.352-0.295,0.872-0.527,1.471-0.527c1.111,0,1.583,0.768,1.583,1.512    c0,0.959-0.695,1.734-1.791,2.79l-0.408,0.384v0.016h2.327v0.584H0.024z"/>
		<path d="M4.647,165.063c-0.271,0-0.464-0.216-0.464-0.504c0-0.287,0.2-0.504,0.48-0.504s0.472,0.208,0.472,0.504    c0,0.288-0.192,0.504-0.479,0.504H4.647z"/>
		<path d="M5.952,164.175c0.2,0.12,0.656,0.32,1.151,0.32c0.896,0,1.183-0.568,1.175-1.008c-0.008-0.728-0.664-1.039-1.343-1.039    H6.543v-0.528h0.392c0.512,0,1.159-0.264,1.159-0.879c0-0.416-0.264-0.784-0.912-0.784c-0.416,0-0.815,0.185-1.039,0.344    l-0.192-0.512c0.28-0.199,0.808-0.399,1.367-0.399c1.023,0,1.487,0.607,1.487,1.239c0,0.544-0.328,1-0.959,1.231v0.016    c0.64,0.12,1.159,0.6,1.159,1.328c0,0.831-0.656,1.559-1.895,1.559c-0.583,0-1.095-0.184-1.351-0.352L5.952,164.175z"/>
		<path d="M11.543,165.063c-1.016,0-1.711-0.951-1.728-2.671c0-1.751,0.76-2.702,1.815-2.702c1.087,0,1.719,0.976,1.719,2.631    c0,1.767-0.664,2.742-1.799,2.742H11.543z M11.583,164.519c0.712,0,1.056-0.839,1.056-2.167c0-1.279-0.32-2.118-1.056-2.118    c-0.64,0-1.055,0.815-1.055,2.118c-0.016,1.352,0.4,2.167,1.047,2.167H11.583z"/>
	</g>
	<g>
		<path d="M38.859,168.842v3.198c0,1.199,0.536,1.711,1.255,1.711c0.792,0,1.311-0.527,1.311-1.711v-3.198h0.704v3.15    c0,1.655-0.872,2.327-2.039,2.327c-1.104,0-1.935-0.624-1.935-2.303v-3.174H38.859z"/>
		<path d="M43.25,173.384c0.312,0.192,0.76,0.344,1.24,0.344c0.711,0,1.127-0.368,1.127-0.911c0-0.504-0.288-0.8-1.015-1.072    c-0.879-0.304-1.423-0.768-1.423-1.519c0-0.839,0.696-1.463,1.743-1.463c0.543,0,0.951,0.128,1.183,0.256l-0.192,0.576    c-0.168-0.104-0.527-0.256-1.015-0.256c-0.736,0-1.016,0.439-1.016,0.807c0,0.496,0.328,0.744,1.071,1.032    c0.912,0.36,1.367,0.792,1.367,1.583c0,0.824-0.607,1.551-1.879,1.551c-0.52,0-1.087-0.16-1.375-0.352L43.25,173.384z"/>
		<path d="M52.265,173.664c0,0.896-0.184,1.432-0.552,1.775c-0.384,0.344-0.928,0.463-1.416,0.463c-0.463,0-0.975-0.112-1.287-0.32    l0.176-0.543c0.256,0.168,0.656,0.312,1.136,0.312c0.719,0,1.247-0.376,1.247-1.359v-0.424h-0.016    c-0.208,0.36-0.631,0.647-1.231,0.647c-0.96,0-1.647-0.815-1.647-1.895c0-1.311,0.855-2.047,1.751-2.047    c0.672,0,1.032,0.344,1.208,0.672h0.016l0.024-0.583h0.624c-0.024,0.271-0.032,0.591-0.032,1.055V173.664z M51.562,171.881    c0-0.112-0.008-0.216-0.04-0.312c-0.128-0.416-0.464-0.751-0.983-0.751c-0.672,0-1.151,0.568-1.151,1.471    c0,0.751,0.392,1.391,1.143,1.391c0.44,0,0.832-0.272,0.976-0.728c0.04-0.112,0.056-0.248,0.056-0.376V171.881z"/>
		<path d="M56.153,173.304c0,0.335,0.016,0.664,0.056,0.927h-0.632l-0.064-0.488h-0.024c-0.208,0.304-0.632,0.576-1.183,0.576    c-0.784,0-1.184-0.552-1.184-1.111c0-0.936,0.832-1.447,2.327-1.439v-0.08c0-0.32-0.088-0.904-0.879-0.896    c-0.368,0-0.744,0.104-1.016,0.288l-0.16-0.472c0.32-0.2,0.792-0.336,1.279-0.336c1.191,0,1.479,0.808,1.479,1.583V173.304z     M55.465,172.256c-0.768-0.016-1.639,0.12-1.639,0.872c0,0.464,0.304,0.672,0.656,0.672c0.512,0,0.839-0.32,0.952-0.648    c0.024-0.072,0.032-0.152,0.032-0.224V172.256z"/>
		<path d="M57.618,169.706c-0.256,0-0.424-0.2-0.424-0.432c0-0.248,0.176-0.439,0.44-0.439c0.256,0,0.432,0.192,0.432,0.439    c0,0.232-0.168,0.432-0.44,0.432H57.618z M57.282,174.231v-3.87h0.704v3.87H57.282z"/>
		<path d="M59.154,171.409c0-0.408-0.008-0.728-0.032-1.047h0.624l0.04,0.631h0.016c0.192-0.36,0.64-0.72,1.279-0.72    c0.536,0,1.367,0.32,1.367,1.647v2.311h-0.704V172c0-0.624-0.232-1.151-0.896-1.151c-0.456,0-0.815,0.328-0.943,0.72    c-0.032,0.088-0.048,0.216-0.048,0.328v2.334h-0.704V171.409z"/>
		<path d="M63.499,173.512c0.216,0.128,0.583,0.272,0.936,0.272c0.503,0,0.744-0.248,0.744-0.576c0-0.336-0.2-0.512-0.712-0.704    c-0.704-0.256-1.031-0.64-1.031-1.095c0-0.624,0.512-1.136,1.335-1.136c0.392,0,0.736,0.104,0.944,0.24l-0.168,0.503    c-0.152-0.088-0.432-0.224-0.792-0.224c-0.416,0-0.64,0.24-0.64,0.527c0,0.32,0.224,0.464,0.728,0.664    c0.664,0.248,1.016,0.583,1.016,1.159c0,0.688-0.536,1.167-1.439,1.167c-0.424,0-0.815-0.112-1.087-0.272L63.499,173.512z"/>
		<path d="M66.171,174.551l2.223-5.797h0.552l-2.239,5.797H66.171z"/>
		<path d="M20.087,179.034v0.927h1.007v0.536h-1.007v2.079c0,0.48,0.136,0.751,0.528,0.751c0.192,0,0.304-0.016,0.408-0.048    l0.032,0.536c-0.136,0.048-0.352,0.096-0.624,0.096c-0.328,0-0.591-0.112-0.759-0.296c-0.192-0.216-0.272-0.56-0.272-1.016v-2.103    h-0.6v-0.536h0.6v-0.711L20.087,179.034z"/>
		<path d="M21.887,181.168c0-0.456-0.008-0.848-0.032-1.208h0.616l0.032,0.76h0.024c0.176-0.52,0.608-0.848,1.08-0.848    c0.072,0,0.128,0.008,0.192,0.016v0.664c-0.072-0.008-0.144-0.016-0.24-0.016c-0.496,0-0.848,0.375-0.944,0.896    c-0.016,0.104-0.024,0.216-0.024,0.328v2.071h-0.704V181.168z"/>
		<path d="M27.229,182.903c0,0.336,0.016,0.664,0.056,0.928h-0.632l-0.064-0.488h-0.024c-0.208,0.304-0.632,0.576-1.183,0.576    c-0.784,0-1.184-0.552-1.184-1.111c0-0.936,0.832-1.447,2.327-1.439v-0.08c0-0.32-0.088-0.904-0.879-0.896    c-0.368,0-0.744,0.104-1.016,0.288l-0.16-0.472c0.32-0.2,0.792-0.336,1.279-0.336c1.191,0,1.479,0.808,1.479,1.583V182.903z     M26.542,181.856c-0.768-0.016-1.639,0.12-1.639,0.872c0,0.464,0.304,0.672,0.656,0.672c0.512,0,0.839-0.32,0.952-0.648    c0.024-0.072,0.032-0.152,0.032-0.224V181.856z"/>
		<path d="M31.702,178.155v4.677c0,0.344,0.008,0.736,0.032,1h-0.632l-0.032-0.672h-0.016c-0.216,0.432-0.68,0.76-1.312,0.76    c-0.936,0-1.663-0.792-1.663-1.967c-0.008-1.295,0.8-2.079,1.735-2.079c0.6,0,0.999,0.28,1.167,0.584h0.016v-2.302H31.702z     M30.998,181.536c0-0.096-0.008-0.208-0.032-0.304c-0.104-0.439-0.488-0.808-1.016-0.808c-0.728,0-1.159,0.64-1.159,1.487    c0,0.792,0.392,1.439,1.143,1.439c0.472,0,0.904-0.32,1.032-0.848c0.024-0.088,0.032-0.184,0.032-0.296V181.536z"/>
		<path d="M33.207,179.306c-0.256,0-0.424-0.2-0.424-0.432c0-0.248,0.176-0.439,0.44-0.439c0.256,0,0.432,0.191,0.432,0.439    c0,0.231-0.168,0.432-0.439,0.432H33.207z M32.871,183.831v-3.87h0.704v3.87H32.871z"/>
		<path d="M34.743,181.009c0-0.408-0.008-0.728-0.032-1.048h0.624l0.04,0.632h0.016c0.192-0.36,0.64-0.72,1.279-0.72    c0.536,0,1.367,0.32,1.367,1.647v2.311h-0.704V181.6c0-0.624-0.232-1.151-0.896-1.151c-0.456,0-0.815,0.328-0.943,0.72    c-0.032,0.088-0.048,0.216-0.048,0.328v2.335h-0.704V181.009z"/>
		<path d="M42.493,183.263c0,0.896-0.184,1.431-0.551,1.775c-0.384,0.344-0.928,0.463-1.416,0.463c-0.463,0-0.975-0.112-1.287-0.32    l0.176-0.543c0.256,0.168,0.656,0.312,1.135,0.312c0.72,0,1.248-0.375,1.248-1.359v-0.424h-0.016    c-0.208,0.36-0.631,0.647-1.231,0.647c-0.959,0-1.647-0.815-1.647-1.895c0-1.311,0.855-2.047,1.751-2.047    c0.672,0,1.032,0.344,1.208,0.672h0.016l0.024-0.584h0.623c-0.024,0.272-0.032,0.592-0.032,1.056V183.263z M41.79,181.48    c0-0.112-0.008-0.216-0.04-0.312c-0.128-0.416-0.464-0.751-0.983-0.751c-0.672,0-1.151,0.567-1.151,1.471    c0,0.751,0.392,1.391,1.143,1.391c0.44,0,0.832-0.272,0.976-0.728c0.04-0.112,0.056-0.248,0.056-0.376V181.48z"/>
		<path d="M45.35,181.225c0-0.496-0.008-0.896-0.032-1.264h0.632l0.04,0.664h0.016c0.28-0.48,0.744-0.752,1.367-0.752    c0.943,0,1.647,0.792,1.647,1.967c0,1.391-0.856,2.079-1.759,2.079c-0.52,0-0.959-0.224-1.191-0.607h-0.016v2.103H45.35V181.225z     M46.054,182.256c0,0.096,0.008,0.2,0.032,0.288c0.12,0.487,0.552,0.823,1.047,0.823c0.744,0,1.175-0.607,1.175-1.495    c0-0.775-0.4-1.439-1.144-1.439c-0.479,0-0.935,0.335-1.071,0.872c-0.016,0.088-0.04,0.191-0.04,0.28V182.256z"/>
		<path d="M52.629,182.903c0,0.336,0.016,0.664,0.056,0.928h-0.632l-0.064-0.488h-0.024c-0.208,0.304-0.631,0.576-1.183,0.576    c-0.784,0-1.184-0.552-1.184-1.111c0-0.936,0.832-1.447,2.327-1.439v-0.08c0-0.32-0.088-0.904-0.879-0.896    c-0.368,0-0.744,0.104-1.016,0.288l-0.16-0.472c0.32-0.2,0.792-0.336,1.279-0.336c1.191,0,1.479,0.808,1.479,1.583V182.903z     M51.941,181.856c-0.768-0.016-1.639,0.12-1.639,0.872c0,0.464,0.304,0.672,0.656,0.672c0.512,0,0.839-0.32,0.951-0.648    c0.024-0.072,0.032-0.152,0.032-0.224V181.856z"/>
		<path d="M53.758,181.168c0-0.456-0.008-0.848-0.032-1.208h0.616l0.032,0.76h0.024c0.176-0.52,0.608-0.848,1.08-0.848    c0.072,0,0.128,0.008,0.192,0.016v0.664c-0.072-0.008-0.144-0.016-0.24-0.016c-0.496,0-0.848,0.375-0.943,0.896    c-0.016,0.104-0.024,0.216-0.024,0.328v2.071h-0.704V181.168z"/>
		<path d="M57.222,179.034v0.927h1.007v0.536h-1.007v2.079c0,0.48,0.136,0.751,0.528,0.751c0.192,0,0.304-0.016,0.408-0.048    l0.032,0.536c-0.136,0.048-0.352,0.096-0.624,0.096c-0.328,0-0.592-0.112-0.759-0.296c-0.192-0.216-0.272-0.56-0.272-1.016v-2.103    h-0.6v-0.536h0.6v-0.711L57.222,179.034z"/>
		<path d="M59.022,181.009c0-0.408-0.008-0.728-0.032-1.048h0.624l0.04,0.632h0.016c0.192-0.36,0.64-0.72,1.279-0.72    c0.536,0,1.367,0.32,1.367,1.647v2.311h-0.704V181.6c0-0.624-0.232-1.151-0.896-1.151c-0.456,0-0.815,0.328-0.943,0.72    c-0.032,0.088-0.048,0.216-0.048,0.328v2.335h-0.704V181.009z"/>
		<path d="M63.862,182.024c0.016,0.944,0.616,1.335,1.319,1.335c0.504,0,0.815-0.088,1.071-0.2l0.128,0.504    c-0.248,0.112-0.68,0.248-1.295,0.248c-1.183,0-1.903-0.792-1.903-1.951c0-1.167,0.696-2.087,1.823-2.087    c1.263,0,1.591,1.111,1.591,1.823c0,0.144-0.008,0.248-0.024,0.328H63.862z M65.917,181.521c0.008-0.448-0.184-1.144-0.968-1.144    c-0.72,0-1.023,0.656-1.079,1.144H65.917z"/>
		<path d="M67.47,181.168c0-0.456-0.008-0.848-0.032-1.208h0.616l0.032,0.76h0.024c0.176-0.52,0.608-0.848,1.08-0.848    c0.072,0,0.128,0.008,0.192,0.016v0.664c-0.072-0.008-0.144-0.016-0.24-0.016c-0.496,0-0.848,0.375-0.943,0.896    c-0.016,0.104-0.024,0.216-0.024,0.328v2.071H67.47V181.168z"/>
		<path d="M71.782,178.155h0.704v5.676h-0.704V178.155z"/>
		<path d="M75.245,183.919c-1.039,0-1.855-0.768-1.855-1.991c0-1.295,0.855-2.055,1.919-2.055c1.111,0,1.863,0.808,1.863,1.983    c0,1.439-1,2.063-1.919,2.063H75.245z M75.277,183.391c0.671,0,1.175-0.631,1.175-1.511c0-0.655-0.328-1.479-1.16-1.479    c-0.823,0-1.183,0.768-1.183,1.503c0,0.847,0.48,1.487,1.159,1.487H75.277z"/>
		<path d="M77.966,183.111c0.216,0.128,0.583,0.272,0.936,0.272c0.503,0,0.744-0.248,0.744-0.576c0-0.336-0.2-0.512-0.712-0.704    c-0.704-0.256-1.031-0.64-1.031-1.095c0-0.624,0.512-1.136,1.335-1.136c0.392,0,0.736,0.104,0.944,0.24l-0.168,0.503    c-0.152-0.088-0.432-0.224-0.792-0.224c-0.416,0-0.64,0.24-0.64,0.528c0,0.319,0.224,0.463,0.728,0.664    c0.664,0.248,1.016,0.583,1.016,1.159c0,0.688-0.536,1.167-1.439,1.167c-0.424,0-0.815-0.112-1.087-0.272L77.966,183.111z"/>
		<path d="M81.63,182.024c0.016,0.944,0.616,1.335,1.319,1.335c0.504,0,0.815-0.088,1.071-0.2l0.128,0.504    c-0.248,0.112-0.68,0.248-1.295,0.248c-1.184,0-1.903-0.792-1.903-1.951c0-1.167,0.696-2.087,1.823-2.087    c1.263,0,1.591,1.111,1.591,1.823c0,0.144-0.008,0.248-0.024,0.328H81.63z M83.685,181.521c0.008-0.448-0.184-1.144-0.967-1.144    c-0.72,0-1.023,0.656-1.08,1.144H83.685z"/>
		<path d="M85.142,183.111c0.216,0.128,0.583,0.272,0.936,0.272c0.503,0,0.744-0.248,0.744-0.576c0-0.336-0.2-0.512-0.712-0.704    c-0.704-0.256-1.031-0.64-1.031-1.095c0-0.624,0.512-1.136,1.335-1.136c0.392,0,0.736,0.104,0.944,0.24l-0.168,0.503    c-0.152-0.088-0.432-0.224-0.792-0.224c-0.416,0-0.64,0.24-0.64,0.528c0,0.319,0.224,0.463,0.728,0.664    c0.664,0.248,1.016,0.583,1.016,1.159c0,0.688-0.536,1.167-1.439,1.167c-0.424,0-0.815-0.112-1.087-0.272L85.142,183.111z"/>
	</g>
	<g>
		<path d="M46.823,0.099h0.792V5.51h2.593v0.657h-3.385V0.099z"/>
		<path d="M52.827,6.266c-1.17,0-2.088-0.864-2.088-2.242c0-1.458,0.963-2.314,2.161-2.314c1.251,0,2.098,0.91,2.098,2.233    c0,1.621-1.125,2.323-2.161,2.323H52.827z M52.863,5.672c0.756,0,1.323-0.711,1.323-1.702c0-0.738-0.369-1.666-1.305-1.666    c-0.927,0-1.333,0.864-1.333,1.693c0,0.954,0.54,1.674,1.305,1.674H52.863z"/>
		<path d="M56.284,1.81l0.585,2.206c0.117,0.486,0.234,0.945,0.315,1.396h0.027c0.099-0.441,0.243-0.909,0.387-1.386L58.31,1.81    h0.666l0.675,2.179c0.162,0.513,0.288,0.981,0.387,1.422h0.027c0.072-0.441,0.189-0.9,0.333-1.413l0.621-2.188h0.783l-1.404,4.357    h-0.72l-0.666-2.08c-0.153-0.495-0.279-0.927-0.387-1.44h-0.018c-0.108,0.522-0.243,0.981-0.396,1.449l-0.702,2.071h-0.72    L55.474,1.81H56.284z"/>
		<path d="M64.428,5.213C64.779,5.429,65.284,5.6,65.824,5.6c0.801,0,1.27-0.414,1.27-1.026c0-0.567-0.324-0.9-1.144-1.207    c-0.99-0.342-1.602-0.864-1.602-1.71c0-0.945,0.783-1.647,1.962-1.647c0.612,0,1.071,0.144,1.333,0.288l-0.216,0.648    c-0.189-0.117-0.594-0.288-1.143-0.288c-0.829,0-1.144,0.495-1.144,0.909c0,0.559,0.369,0.837,1.207,1.162    c1.026,0.405,1.539,0.891,1.539,1.782c0,0.928-0.684,1.747-2.115,1.747c-0.585,0-1.225-0.18-1.549-0.396L64.428,5.213z"/>
		<path d="M68.924,0.18c0.486-0.072,1.053-0.126,1.674-0.126c1.125,0,1.927,0.261,2.458,0.756c0.549,0.495,0.864,1.197,0.864,2.179    c0,0.99-0.315,1.8-0.874,2.358c-0.576,0.567-1.512,0.874-2.692,0.874c-0.567,0-1.026-0.018-1.431-0.072V0.18z M69.716,5.555    c0.198,0.036,0.486,0.036,0.792,0.036c1.674,0.009,2.583-0.936,2.583-2.575c0.009-1.432-0.801-2.341-2.458-2.341    c-0.405,0-0.711,0.036-0.918,0.081V5.555z"/>
		<path d="M77.405,6.266c-1.611,0-2.728-1.243-2.728-3.079C74.678,1.261,75.866,0,77.486,0c1.666,0,2.737,1.27,2.737,3.07    c0,2.08-1.269,3.196-2.809,3.196H77.405z M77.45,5.627c1.243,0,1.945-1.144,1.945-2.521c0-1.206-0.63-2.467-1.936-2.467    s-1.954,1.215-1.954,2.53c0,1.278,0.702,2.458,1.936,2.458H77.45z"/>
		<path d="M47.615,12.099v2.539h2.935v-2.539h0.792v6.068H50.55v-2.845h-2.935v2.845h-0.792v-6.068H47.615z"/>
		<path d="M53.098,13.071c-0.288,0-0.477-0.225-0.477-0.486c0-0.279,0.198-0.495,0.495-0.495c0.288,0,0.486,0.216,0.486,0.495    c0,0.261-0.189,0.486-0.495,0.486H53.098z M52.72,18.167v-4.357h0.792v4.357H52.72z"/>
		<path d="M58.6,17.527c0,1.008-0.207,1.611-0.621,1.999c-0.432,0.387-1.044,0.522-1.594,0.522c-0.522,0-1.098-0.126-1.449-0.36    l0.198-0.612c0.288,0.189,0.738,0.351,1.278,0.351c0.81,0,1.404-0.423,1.404-1.53v-0.477h-0.018    c-0.234,0.405-0.711,0.729-1.386,0.729c-1.081,0-1.854-0.918-1.854-2.134c0-1.476,0.963-2.305,1.971-2.305    c0.756,0,1.162,0.387,1.36,0.756h0.018l0.027-0.657h0.702c-0.027,0.306-0.036,0.667-0.036,1.188V17.527z M57.808,15.52    c0-0.126-0.009-0.243-0.045-0.351c-0.144-0.468-0.522-0.846-1.107-0.846c-0.756,0-1.296,0.639-1.296,1.657    c0,0.846,0.441,1.566,1.287,1.566c0.495,0,0.937-0.306,1.098-0.819c0.045-0.126,0.063-0.279,0.063-0.423V15.52z"/>
		<path d="M59.924,11.774h0.792v2.719h0.018c0.126-0.225,0.324-0.432,0.567-0.558c0.234-0.144,0.513-0.225,0.81-0.225    c0.585,0,1.521,0.36,1.521,1.864v2.593h-0.792v-2.512c0-0.702-0.261-1.288-1.008-1.288c-0.513,0-0.909,0.36-1.062,0.792    c-0.045,0.108-0.054,0.225-0.054,0.378v2.629h-0.792V11.774z"/>
		<path d="M66.755,17.212c0.352,0.216,0.855,0.387,1.396,0.387c0.801,0,1.27-0.414,1.27-1.026c0-0.567-0.324-0.9-1.144-1.207    c-0.99-0.342-1.603-0.864-1.603-1.71c0-0.945,0.784-1.647,1.963-1.647c0.612,0,1.071,0.144,1.333,0.288l-0.216,0.648    c-0.189-0.117-0.594-0.288-1.143-0.288c-0.829,0-1.144,0.495-1.144,0.909c0,0.559,0.369,0.837,1.207,1.162    c1.026,0.405,1.539,0.891,1.539,1.782c0,0.928-0.684,1.747-2.115,1.747c-0.585,0-1.225-0.18-1.549-0.396L66.755,17.212z"/>
		<path d="M71.25,12.18c0.486-0.072,1.053-0.126,1.674-0.126c1.125,0,1.927,0.261,2.458,0.756c0.549,0.495,0.864,1.197,0.864,2.179    c0,0.99-0.315,1.8-0.874,2.358c-0.576,0.567-1.512,0.874-2.692,0.874c-0.567,0-1.026-0.018-1.431-0.072V12.18z M72.042,17.554    c0.198,0.036,0.486,0.036,0.792,0.036c1.674,0.009,2.583-0.936,2.583-2.575c0.009-1.432-0.801-2.341-2.458-2.341    c-0.405,0-0.711,0.036-0.918,0.081V17.554z"/>
		<path d="M79.731,18.266c-1.611,0-2.728-1.243-2.728-3.079c0-1.926,1.188-3.187,2.809-3.187c1.666,0,2.737,1.27,2.737,3.07    c0,2.08-1.269,3.196-2.809,3.196H79.731z M79.776,17.626c1.243,0,1.945-1.144,1.945-2.521c0-1.206-0.63-2.467-1.936-2.467    s-1.954,1.215-1.954,2.53c0,1.278,0.702,2.458,1.936,2.458H79.776z"/>
	</g>
	<polyline fill="none" stroke="#000000" stroke-width="0.5" stroke-linejoin="round" stroke-miterlimit="10" points="   170.168,162.616 18.168,162.615 18.168,30.616  "/>
	
		<line fill="none" stroke="#000000" stroke-width="0.5" stroke-linejoin="round" stroke-miterlimit="10" x1="18.244" y1="30.616" x2="15.244" y2="30.616"/>
	
		<line fill="none" stroke="#000000" stroke-width="0.5" stroke-linejoin="round" stroke-miterlimit="10" x1="18.244" y1="49.473" x2="15.244" y2="49.473"/>
	
		<line fill="none" stroke="#000000" stroke-width="0.5" stroke-linejoin="round" stroke-miterlimit="10" x1="18.244" y1="68.33" x2="15.244" y2="68.33"/>
	
		<line fill="none" stroke="#000000" stroke-width="0.5" stroke-linejoin="round" stroke-miterlimit="10" x1="18.244" y1="87.187" x2="15.244" y2="87.187"/>
	
		<line fill="none" stroke="#000000" stroke-width="0.5" stroke-linejoin="round" stroke-miterlimit="10" x1="18.244" y1="106.044" x2="15.244" y2="106.044"/>
	
		<line fill="none" stroke="#000000" stroke-width="0.5" stroke-linejoin="round" stroke-miterlimit="10" x1="18.244" y1="124.901" x2="15.244" y2="124.901"/>
	
		<line fill="none" stroke="#000000" stroke-width="0.5" stroke-linejoin="round" stroke-miterlimit="10" x1="18.244" y1="143.759" x2="15.244" y2="143.759"/>
	
		<line fill="none" stroke="#000000" stroke-width="0.5" stroke-linejoin="round" stroke-miterlimit="10" x1="18.244" y1="162.616" x2="15.244" y2="162.616"/>
	
		<line fill="none" stroke="#000000" stroke-width="0.5" stroke-linejoin="round" stroke-miterlimit="10" x1="53.244" y1="162.616" x2="53.244" y2="165.616"/>
	<g>
		<path d="M120.783,168.842v3.198c0,1.199,0.536,1.711,1.255,1.711c0.792,0,1.311-0.527,1.311-1.711v-3.198h0.704v3.15    c0,1.655-0.872,2.327-2.039,2.327c-1.104,0-1.935-0.624-1.935-2.303v-3.174H120.783z"/>
		<path d="M125.175,173.384c0.312,0.192,0.76,0.344,1.24,0.344c0.711,0,1.127-0.368,1.127-0.911c0-0.504-0.288-0.8-1.015-1.072    c-0.879-0.304-1.423-0.768-1.423-1.519c0-0.839,0.696-1.463,1.743-1.463c0.543,0,0.951,0.128,1.183,0.256l-0.192,0.576    c-0.168-0.104-0.527-0.256-1.015-0.256c-0.736,0-1.016,0.439-1.016,0.807c0,0.496,0.328,0.744,1.071,1.032    c0.912,0.36,1.367,0.792,1.367,1.583c0,0.824-0.607,1.551-1.879,1.551c-0.52,0-1.087-0.16-1.375-0.352L125.175,173.384z"/>
		<path d="M134.189,173.664c0,0.896-0.184,1.432-0.552,1.775c-0.384,0.344-0.928,0.463-1.416,0.463c-0.463,0-0.975-0.112-1.287-0.32    l0.176-0.543c0.256,0.168,0.656,0.312,1.136,0.312c0.719,0,1.247-0.376,1.247-1.359v-0.424h-0.016    c-0.208,0.36-0.631,0.647-1.231,0.647c-0.96,0-1.647-0.815-1.647-1.895c0-1.311,0.855-2.047,1.751-2.047    c0.672,0,1.032,0.344,1.208,0.672h0.016l0.024-0.583h0.624c-0.024,0.271-0.032,0.591-0.032,1.055V173.664z M133.486,171.881    c0-0.112-0.008-0.216-0.04-0.312c-0.128-0.416-0.464-0.751-0.983-0.751c-0.672,0-1.151,0.568-1.151,1.471    c0,0.751,0.392,1.391,1.143,1.391c0.44,0,0.832-0.272,0.976-0.728c0.04-0.112,0.056-0.248,0.056-0.376V171.881z"/>
		<path d="M138.077,173.304c0,0.335,0.016,0.664,0.056,0.927h-0.632l-0.064-0.488h-0.024c-0.208,0.304-0.632,0.576-1.183,0.576    c-0.784,0-1.184-0.552-1.184-1.111c0-0.936,0.832-1.447,2.327-1.439v-0.08c0-0.32-0.088-0.904-0.879-0.896    c-0.368,0-0.744,0.104-1.016,0.288l-0.16-0.472c0.32-0.2,0.792-0.336,1.279-0.336c1.191,0,1.479,0.808,1.479,1.583V173.304z     M137.39,172.256c-0.768-0.016-1.639,0.12-1.639,0.872c0,0.464,0.304,0.672,0.656,0.672c0.512,0,0.839-0.32,0.952-0.648    c0.024-0.072,0.032-0.152,0.032-0.224V172.256z"/>
		<path d="M139.542,169.706c-0.256,0-0.424-0.2-0.424-0.432c0-0.248,0.176-0.439,0.44-0.439c0.256,0,0.432,0.192,0.432,0.439    c0,0.232-0.168,0.432-0.44,0.432H139.542z M139.207,174.231v-3.87h0.704v3.87H139.207z"/>
		<path d="M141.079,171.409c0-0.408-0.008-0.728-0.032-1.047h0.624l0.04,0.631h0.016c0.192-0.36,0.64-0.72,1.279-0.72    c0.536,0,1.367,0.32,1.367,1.647v2.311h-0.704V172c0-0.624-0.232-1.151-0.896-1.151c-0.456,0-0.815,0.328-0.943,0.72    c-0.032,0.088-0.048,0.216-0.048,0.328v2.334h-0.704V171.409z"/>
		<path d="M145.423,173.512c0.216,0.128,0.583,0.272,0.936,0.272c0.503,0,0.744-0.248,0.744-0.576c0-0.336-0.2-0.512-0.712-0.704    c-0.704-0.256-1.031-0.64-1.031-1.095c0-0.624,0.512-1.136,1.335-1.136c0.392,0,0.736,0.104,0.944,0.24l-0.168,0.503    c-0.152-0.088-0.432-0.224-0.792-0.224c-0.416,0-0.64,0.24-0.64,0.527c0,0.32,0.224,0.464,0.728,0.664    c0.664,0.248,1.016,0.583,1.016,1.159c0,0.688-0.536,1.167-1.439,1.167c-0.424,0-0.815-0.112-1.087-0.272L145.423,173.512z"/>
		<path d="M148.095,174.551l2.223-5.797h0.552l-2.239,5.797H148.095z"/>
		<path d="M101.419,179.034v0.927h1.007v0.536h-1.007v2.079c0,0.48,0.136,0.751,0.528,0.751c0.192,0,0.304-0.016,0.408-0.048    l0.032,0.536c-0.136,0.048-0.352,0.096-0.624,0.096c-0.328,0-0.591-0.112-0.759-0.296c-0.192-0.216-0.272-0.56-0.272-1.016v-2.103    h-0.6v-0.536h0.6v-0.711L101.419,179.034z"/>
		<path d="M103.22,181.168c0-0.456-0.008-0.848-0.032-1.208h0.616l0.032,0.76h0.024c0.176-0.52,0.608-0.848,1.08-0.848    c0.072,0,0.128,0.008,0.192,0.016v0.664c-0.072-0.008-0.144-0.016-0.24-0.016c-0.496,0-0.848,0.375-0.944,0.896    c-0.016,0.104-0.024,0.216-0.024,0.328v2.071h-0.704V181.168z"/>
		<path d="M108.562,182.903c0,0.336,0.016,0.664,0.056,0.928h-0.632l-0.064-0.488h-0.024c-0.208,0.304-0.632,0.576-1.183,0.576    c-0.784,0-1.184-0.552-1.184-1.111c0-0.936,0.832-1.447,2.327-1.439v-0.08c0-0.32-0.088-0.904-0.879-0.896    c-0.368,0-0.744,0.104-1.016,0.288l-0.16-0.472c0.32-0.2,0.792-0.336,1.279-0.336c1.191,0,1.479,0.808,1.479,1.583V182.903z     M107.875,181.856c-0.768-0.016-1.639,0.12-1.639,0.872c0,0.464,0.304,0.672,0.656,0.672c0.512,0,0.839-0.32,0.952-0.648    c0.024-0.072,0.032-0.152,0.032-0.224V181.856z"/>
		<path d="M113.034,178.155v4.677c0,0.344,0.008,0.736,0.032,1h-0.632l-0.032-0.672h-0.016c-0.216,0.432-0.68,0.76-1.312,0.76    c-0.936,0-1.663-0.792-1.663-1.967c-0.008-1.295,0.8-2.079,1.735-2.079c0.6,0,0.999,0.28,1.167,0.584h0.016v-2.302H113.034z     M112.331,181.536c0-0.096-0.008-0.208-0.032-0.304c-0.104-0.439-0.488-0.808-1.016-0.808c-0.728,0-1.159,0.64-1.159,1.487    c0,0.792,0.392,1.439,1.143,1.439c0.472,0,0.904-0.32,1.032-0.848c0.024-0.088,0.032-0.184,0.032-0.296V181.536z"/>
		<path d="M114.54,179.306c-0.256,0-0.424-0.2-0.424-0.432c0-0.248,0.176-0.439,0.44-0.439c0.256,0,0.432,0.191,0.432,0.439    c0,0.231-0.168,0.432-0.439,0.432H114.54z M114.204,183.831v-3.87h0.704v3.87H114.204z"/>
		<path d="M116.076,181.009c0-0.408-0.008-0.728-0.032-1.048h0.624l0.04,0.632h0.016c0.192-0.36,0.64-0.72,1.279-0.72    c0.536,0,1.367,0.32,1.367,1.647v2.311h-0.704V181.6c0-0.624-0.232-1.151-0.896-1.151c-0.456,0-0.815,0.328-0.943,0.72    c-0.032,0.088-0.048,0.216-0.048,0.328v2.335h-0.704V181.009z"/>
		<path d="M123.826,183.263c0,0.896-0.184,1.431-0.552,1.775c-0.384,0.344-0.928,0.463-1.416,0.463c-0.463,0-0.975-0.112-1.287-0.32    l0.176-0.543c0.256,0.168,0.656,0.312,1.135,0.312c0.72,0,1.248-0.375,1.248-1.359v-0.424h-0.016    c-0.208,0.36-0.631,0.647-1.231,0.647c-0.959,0-1.647-0.815-1.647-1.895c0-1.311,0.855-2.047,1.751-2.047    c0.672,0,1.032,0.344,1.208,0.672h0.016l0.024-0.584h0.624c-0.024,0.272-0.032,0.592-0.032,1.056V183.263z M123.123,181.48    c0-0.112-0.008-0.216-0.04-0.312c-0.128-0.416-0.464-0.751-0.983-0.751c-0.672,0-1.151,0.567-1.151,1.471    c0,0.751,0.392,1.391,1.143,1.391c0.44,0,0.832-0.272,0.976-0.728c0.04-0.112,0.056-0.248,0.056-0.376V181.48z"/>
		<path d="M126.683,181.225c0-0.496-0.008-0.896-0.032-1.264h0.632l0.04,0.664h0.016c0.28-0.48,0.744-0.752,1.367-0.752    c0.943,0,1.647,0.792,1.647,1.967c0,1.391-0.856,2.079-1.759,2.079c-0.52,0-0.959-0.224-1.191-0.607h-0.016v2.103h-0.704V181.225z     M127.386,182.256c0,0.096,0.008,0.2,0.032,0.288c0.12,0.487,0.552,0.823,1.047,0.823c0.744,0,1.175-0.607,1.175-1.495    c0-0.775-0.4-1.439-1.144-1.439c-0.479,0-0.935,0.335-1.071,0.872c-0.016,0.088-0.04,0.191-0.04,0.28V182.256z"/>
		<path d="M133.961,182.903c0,0.336,0.016,0.664,0.056,0.928h-0.632l-0.064-0.488h-0.024c-0.208,0.304-0.631,0.576-1.183,0.576    c-0.784,0-1.184-0.552-1.184-1.111c0-0.936,0.832-1.447,2.327-1.439v-0.08c0-0.32-0.088-0.904-0.879-0.896    c-0.368,0-0.744,0.104-1.016,0.288l-0.16-0.472c0.32-0.2,0.792-0.336,1.279-0.336c1.191,0,1.479,0.808,1.479,1.583V182.903z     M133.274,181.856c-0.768-0.016-1.639,0.12-1.639,0.872c0,0.464,0.304,0.672,0.656,0.672c0.512,0,0.839-0.32,0.951-0.648    c0.024-0.072,0.032-0.152,0.032-0.224V181.856z"/>
		<path d="M135.091,181.168c0-0.456-0.008-0.848-0.032-1.208h0.616l0.032,0.76h0.024c0.176-0.52,0.608-0.848,1.08-0.848    c0.072,0,0.128,0.008,0.192,0.016v0.664c-0.072-0.008-0.144-0.016-0.24-0.016c-0.496,0-0.848,0.375-0.943,0.896    c-0.016,0.104-0.024,0.216-0.024,0.328v2.071h-0.704V181.168z"/>
		<path d="M138.554,179.034v0.927h1.007v0.536h-1.007v2.079c0,0.48,0.136,0.751,0.528,0.751c0.192,0,0.304-0.016,0.408-0.048    l0.032,0.536c-0.136,0.048-0.352,0.096-0.624,0.096c-0.328,0-0.592-0.112-0.759-0.296c-0.192-0.216-0.272-0.56-0.272-1.016v-2.103    h-0.6v-0.536h0.6v-0.711L138.554,179.034z"/>
		<path d="M140.354,181.009c0-0.408-0.008-0.728-0.032-1.048h0.624l0.04,0.632h0.016c0.192-0.36,0.64-0.72,1.279-0.72    c0.536,0,1.367,0.32,1.367,1.647v2.311h-0.704V181.6c0-0.624-0.232-1.151-0.896-1.151c-0.456,0-0.815,0.328-0.943,0.72    c-0.032,0.088-0.048,0.216-0.048,0.328v2.335h-0.704V181.009z"/>
		<path d="M145.194,182.024c0.016,0.944,0.616,1.335,1.319,1.335c0.504,0,0.815-0.088,1.071-0.2l0.128,0.504    c-0.248,0.112-0.68,0.248-1.295,0.248c-1.183,0-1.903-0.792-1.903-1.951c0-1.167,0.696-2.087,1.823-2.087    c1.263,0,1.591,1.111,1.591,1.823c0,0.144-0.008,0.248-0.024,0.328H145.194z M147.25,181.521c0.008-0.448-0.184-1.144-0.968-1.144    c-0.72,0-1.023,0.656-1.079,1.144H147.25z"/>
		<path d="M148.803,181.168c0-0.456-0.008-0.848-0.032-1.208h0.616l0.032,0.76h0.024c0.176-0.52,0.608-0.848,1.08-0.848    c0.072,0,0.128,0.008,0.192,0.016v0.664c-0.072-0.008-0.144-0.016-0.24-0.016c-0.496,0-0.848,0.375-0.943,0.896    c-0.016,0.104-0.024,0.216-0.024,0.328v2.071h-0.704V181.168z"/>
		<path d="M156.425,183.263c0,0.896-0.184,1.431-0.552,1.775c-0.384,0.344-0.928,0.463-1.416,0.463c-0.463,0-0.975-0.112-1.287-0.32    l0.176-0.543c0.256,0.168,0.656,0.312,1.136,0.312c0.719,0,1.247-0.375,1.247-1.359v-0.424h-0.016    c-0.208,0.36-0.631,0.647-1.231,0.647c-0.96,0-1.647-0.815-1.647-1.895c0-1.311,0.855-2.047,1.751-2.047    c0.672,0,1.032,0.344,1.208,0.672h0.016l0.024-0.584h0.624c-0.024,0.272-0.032,0.592-0.032,1.056V183.263z M155.721,181.48    c0-0.112-0.008-0.216-0.04-0.312c-0.128-0.416-0.464-0.751-0.983-0.751c-0.672,0-1.151,0.567-1.151,1.471    c0,0.751,0.392,1.391,1.143,1.391c0.44,0,0.832-0.272,0.976-0.728c0.04-0.112,0.056-0.248,0.056-0.376V181.48z"/>
		<path d="M160.313,182.903c0,0.336,0.016,0.664,0.056,0.928h-0.632l-0.064-0.488h-0.024c-0.208,0.304-0.631,0.576-1.183,0.576    c-0.784,0-1.184-0.552-1.184-1.111c0-0.936,0.832-1.447,2.327-1.439v-0.08c0-0.32-0.088-0.904-0.879-0.896    c-0.368,0-0.744,0.104-1.016,0.288l-0.16-0.472c0.32-0.2,0.792-0.336,1.279-0.336c1.191,0,1.479,0.808,1.479,1.583V182.903z     M159.625,181.856c-0.768-0.016-1.639,0.12-1.639,0.872c0,0.464,0.304,0.672,0.656,0.672c0.512,0,0.839-0.32,0.951-0.648    c0.024-0.072,0.032-0.152,0.032-0.224V181.856z"/>
		<path d="M161.778,179.306c-0.256,0-0.424-0.2-0.424-0.432c0-0.248,0.176-0.439,0.44-0.439c0.256,0,0.432,0.191,0.432,0.439    c0,0.231-0.168,0.432-0.439,0.432H161.778z M161.442,183.831v-3.87h0.704v3.87H161.442z"/>
		<path d="M163.314,181.009c0-0.408-0.008-0.728-0.032-1.048h0.624l0.04,0.632h0.016c0.192-0.36,0.64-0.72,1.279-0.72    c0.536,0,1.367,0.32,1.367,1.647v2.311h-0.704V181.6c0-0.624-0.232-1.151-0.896-1.151c-0.456,0-0.815,0.328-0.943,0.72    c-0.032,0.088-0.048,0.216-0.048,0.328v2.335h-0.704V181.009z"/>
		<path d="M167.658,183.111c0.216,0.128,0.583,0.272,0.936,0.272c0.503,0,0.744-0.248,0.744-0.576c0-0.336-0.2-0.512-0.712-0.704    c-0.704-0.256-1.031-0.64-1.031-1.095c0-0.624,0.512-1.136,1.335-1.136c0.392,0,0.736,0.104,0.944,0.24l-0.168,0.503    c-0.152-0.088-0.432-0.224-0.792-0.224c-0.416,0-0.64,0.24-0.64,0.528c0,0.319,0.224,0.463,0.728,0.664    c0.664,0.248,1.016,0.583,1.016,1.159c0,0.688-0.536,1.167-1.439,1.167c-0.424,0-0.815-0.112-1.087-0.272L167.658,183.111z"/>
	</g>
	<g>
		<path d="M227.696,168.842v3.198c0,1.199,0.536,1.711,1.255,1.711c0.792,0,1.312-0.527,1.312-1.711v-3.198h0.704v3.15    c0,1.655-0.871,2.327-2.039,2.327c-1.104,0-1.936-0.624-1.936-2.303v-3.174H227.696z"/>
		<path d="M232.088,173.384c0.312,0.192,0.76,0.344,1.24,0.344c0.711,0,1.127-0.368,1.127-0.911c0-0.504-0.288-0.8-1.016-1.072    c-0.879-0.304-1.424-0.768-1.424-1.519c0-0.839,0.696-1.463,1.744-1.463c0.543,0,0.951,0.128,1.183,0.256l-0.192,0.576    c-0.168-0.104-0.527-0.256-1.015-0.256c-0.735,0-1.016,0.439-1.016,0.807c0,0.496,0.327,0.744,1.071,1.032    c0.912,0.36,1.367,0.792,1.367,1.583c0,0.824-0.607,1.551-1.879,1.551c-0.52,0-1.088-0.16-1.375-0.352L232.088,173.384z"/>
		<path d="M241.103,173.664c0,0.896-0.185,1.432-0.552,1.775c-0.384,0.344-0.928,0.463-1.416,0.463c-0.463,0-0.975-0.112-1.287-0.32    l0.176-0.543c0.256,0.168,0.656,0.312,1.137,0.312c0.719,0,1.246-0.376,1.246-1.359v-0.424h-0.016    c-0.207,0.36-0.631,0.647-1.23,0.647c-0.961,0-1.648-0.815-1.648-1.895c0-1.311,0.855-2.047,1.752-2.047    c0.672,0,1.031,0.344,1.207,0.672h0.016l0.024-0.583h0.624c-0.024,0.271-0.032,0.591-0.032,1.055V173.664z M240.398,171.881    c0-0.112-0.008-0.216-0.039-0.312c-0.129-0.416-0.465-0.751-0.984-0.751c-0.672,0-1.15,0.568-1.15,1.471    c0,0.751,0.391,1.391,1.143,1.391c0.439,0,0.832-0.272,0.976-0.728c0.04-0.112,0.056-0.248,0.056-0.376V171.881z"/>
		<path d="M244.99,173.304c0,0.335,0.016,0.664,0.057,0.927h-0.633l-0.063-0.488h-0.024c-0.207,0.304-0.631,0.576-1.183,0.576    c-0.784,0-1.184-0.552-1.184-1.111c0-0.936,0.831-1.447,2.327-1.439v-0.08c0-0.32-0.088-0.904-0.88-0.896    c-0.368,0-0.743,0.104-1.016,0.288l-0.159-0.472c0.319-0.2,0.791-0.336,1.279-0.336c1.191,0,1.479,0.808,1.479,1.583V173.304z     M244.303,172.256c-0.768-0.016-1.639,0.12-1.639,0.872c0,0.464,0.303,0.672,0.655,0.672c0.512,0,0.839-0.32,0.952-0.648    c0.023-0.072,0.031-0.152,0.031-0.224V172.256z"/>
		<path d="M246.455,169.706c-0.256,0-0.424-0.2-0.424-0.432c0-0.248,0.176-0.439,0.44-0.439c0.256,0,0.432,0.192,0.432,0.439    c0,0.232-0.168,0.432-0.44,0.432H246.455z M246.119,174.231v-3.87h0.704v3.87H246.119z"/>
		<path d="M247.992,171.409c0-0.408-0.008-0.728-0.032-1.047h0.624l0.039,0.631h0.017c0.192-0.36,0.64-0.72,1.279-0.72    c0.536,0,1.367,0.32,1.367,1.647v2.311h-0.704V172c0-0.624-0.231-1.151-0.895-1.151c-0.457,0-0.816,0.328-0.943,0.72    c-0.033,0.088-0.049,0.216-0.049,0.328v2.334h-0.703V171.409z"/>
		<path d="M252.336,173.512c0.216,0.128,0.584,0.272,0.936,0.272c0.504,0,0.744-0.248,0.744-0.576c0-0.336-0.201-0.512-0.713-0.704    c-0.703-0.256-1.031-0.64-1.031-1.095c0-0.624,0.512-1.136,1.336-1.136c0.392,0,0.735,0.104,0.943,0.24l-0.168,0.503    c-0.152-0.088-0.432-0.224-0.791-0.224c-0.416,0-0.641,0.24-0.641,0.527c0,0.32,0.225,0.464,0.729,0.664    c0.663,0.248,1.016,0.583,1.016,1.159c0,0.688-0.537,1.167-1.439,1.167c-0.424,0-0.816-0.112-1.088-0.272L252.336,173.512z"/>
		<path d="M255.008,174.551l2.223-5.797h0.553l-2.239,5.797H255.008z"/>
		<path d="M208.924,179.034v0.927h1.008v0.536h-1.008v2.079c0,0.48,0.137,0.751,0.528,0.751c0.192,0,0.304-0.016,0.407-0.048    l0.032,0.536c-0.136,0.048-0.352,0.096-0.624,0.096c-0.327,0-0.591-0.112-0.759-0.296c-0.192-0.216-0.272-0.56-0.272-1.016v-2.103    h-0.6v-0.536h0.6v-0.711L208.924,179.034z"/>
		<path d="M210.725,181.168c0-0.456-0.008-0.848-0.031-1.208h0.615l0.031,0.76h0.024c0.177-0.52,0.608-0.848,1.079-0.848    c0.072,0,0.129,0.008,0.192,0.016v0.664c-0.071-0.008-0.144-0.016-0.239-0.016c-0.496,0-0.848,0.375-0.944,0.896    c-0.016,0.104-0.024,0.216-0.024,0.328v2.071h-0.703V181.168z"/>
		<path d="M216.066,182.903c0,0.336,0.017,0.664,0.057,0.928h-0.632l-0.063-0.488h-0.024c-0.208,0.304-0.632,0.576-1.183,0.576    c-0.784,0-1.184-0.552-1.184-1.111c0-0.936,0.831-1.447,2.326-1.439v-0.08c0-0.32-0.088-0.904-0.879-0.896    c-0.368,0-0.744,0.104-1.016,0.288l-0.16-0.472c0.32-0.2,0.791-0.336,1.279-0.336c1.191,0,1.479,0.808,1.479,1.583V182.903z     M215.379,181.856c-0.768-0.016-1.639,0.12-1.639,0.872c0,0.464,0.304,0.672,0.656,0.672c0.512,0,0.839-0.32,0.951-0.648    c0.023-0.072,0.031-0.152,0.031-0.224V181.856z"/>
		<path d="M220.539,178.155v4.677c0,0.344,0.008,0.736,0.032,1h-0.632l-0.032-0.672h-0.016c-0.216,0.432-0.68,0.76-1.312,0.76    c-0.936,0-1.663-0.792-1.663-1.967c-0.008-1.295,0.8-2.079,1.735-2.079c0.6,0,0.999,0.28,1.167,0.584h0.017v-2.302H220.539z     M219.836,181.536c0-0.096-0.008-0.208-0.032-0.304c-0.104-0.439-0.487-0.808-1.016-0.808c-0.728,0-1.159,0.64-1.159,1.487    c0,0.792,0.392,1.439,1.143,1.439c0.473,0,0.904-0.32,1.032-0.848c0.024-0.088,0.032-0.184,0.032-0.296V181.536z"/>
		<path d="M222.045,179.306c-0.256,0-0.424-0.2-0.424-0.432c0-0.248,0.176-0.439,0.439-0.439c0.256,0,0.432,0.191,0.432,0.439    c0,0.231-0.168,0.432-0.439,0.432H222.045z M221.709,183.831v-3.87h0.703v3.87H221.709z"/>
		<path d="M223.58,181.009c0-0.408-0.008-0.728-0.031-1.048h0.623l0.041,0.632h0.016c0.191-0.36,0.64-0.72,1.279-0.72    c0.535,0,1.367,0.32,1.367,1.647v2.311h-0.703V181.6c0-0.624-0.232-1.151-0.896-1.151c-0.455,0-0.814,0.328-0.943,0.72    c-0.031,0.088-0.048,0.216-0.048,0.328v2.335h-0.704V181.009z"/>
		<path d="M231.33,183.263c0,0.896-0.184,1.431-0.551,1.775c-0.384,0.344-0.928,0.463-1.416,0.463c-0.463,0-0.975-0.112-1.287-0.32    l0.176-0.543c0.256,0.168,0.656,0.312,1.136,0.312c0.72,0,1.247-0.375,1.247-1.359v-0.424h-0.016    c-0.208,0.36-0.631,0.647-1.231,0.647c-0.959,0-1.647-0.815-1.647-1.895c0-1.311,0.855-2.047,1.752-2.047    c0.672,0,1.031,0.344,1.207,0.672h0.016l0.024-0.584h0.623c-0.024,0.272-0.032,0.592-0.032,1.056V183.263z M230.627,181.48    c0-0.112-0.008-0.216-0.039-0.312c-0.129-0.416-0.465-0.751-0.984-0.751c-0.672,0-1.15,0.567-1.15,1.471    c0,0.751,0.391,1.391,1.143,1.391c0.439,0,0.832-0.272,0.976-0.728c0.04-0.112,0.056-0.248,0.056-0.376V181.48z"/>
		<path d="M234.188,181.225c0-0.496-0.008-0.896-0.031-1.264h0.631l0.04,0.664h0.017c0.279-0.48,0.743-0.752,1.367-0.752    c0.943,0,1.646,0.792,1.646,1.967c0,1.391-0.855,2.079-1.759,2.079c-0.52,0-0.96-0.224-1.191-0.607h-0.017v2.103h-0.703V181.225z     M234.891,182.256c0,0.096,0.009,0.2,0.033,0.288c0.119,0.487,0.551,0.823,1.047,0.823c0.744,0,1.176-0.607,1.176-1.495    c0-0.775-0.4-1.439-1.145-1.439c-0.479,0-0.935,0.335-1.07,0.872c-0.016,0.088-0.041,0.191-0.041,0.28V182.256z"/>
		<path d="M241.467,182.903c0,0.336,0.016,0.664,0.056,0.928h-0.632l-0.064-0.488h-0.023c-0.208,0.304-0.631,0.576-1.184,0.576    c-0.783,0-1.184-0.552-1.184-1.111c0-0.936,0.832-1.447,2.327-1.439v-0.08c0-0.32-0.088-0.904-0.88-0.896    c-0.367,0-0.743,0.104-1.016,0.288l-0.159-0.472c0.319-0.2,0.792-0.336,1.279-0.336c1.191,0,1.479,0.808,1.479,1.583V182.903z     M240.779,181.856c-0.768-0.016-1.64,0.12-1.64,0.872c0,0.464,0.304,0.672,0.655,0.672c0.512,0,0.84-0.32,0.951-0.648    c0.025-0.072,0.033-0.152,0.033-0.224V181.856z"/>
		<path d="M242.596,181.168c0-0.456-0.008-0.848-0.031-1.208h0.615l0.031,0.76h0.024c0.177-0.52,0.608-0.848,1.079-0.848    c0.072,0,0.129,0.008,0.192,0.016v0.664c-0.071-0.008-0.144-0.016-0.239-0.016c-0.496,0-0.848,0.375-0.943,0.896    c-0.017,0.104-0.025,0.216-0.025,0.328v2.071h-0.703V181.168z"/>
		<path d="M246.059,179.034v0.927h1.008v0.536h-1.008v2.079c0,0.48,0.137,0.751,0.528,0.751c0.192,0,0.304-0.016,0.407-0.048    l0.033,0.536c-0.137,0.048-0.353,0.096-0.625,0.096c-0.327,0-0.592-0.112-0.759-0.296c-0.192-0.216-0.272-0.56-0.272-1.016v-2.103    h-0.6v-0.536h0.6v-0.711L246.059,179.034z"/>
		<path d="M247.859,181.009c0-0.408-0.008-0.728-0.031-1.048h0.623l0.04,0.632h0.017c0.191-0.36,0.639-0.72,1.279-0.72    c0.535,0,1.367,0.32,1.367,1.647v2.311h-0.704V181.6c0-0.624-0.231-1.151-0.896-1.151c-0.455,0-0.815,0.328-0.943,0.72    c-0.032,0.088-0.049,0.216-0.049,0.328v2.335h-0.703V181.009z"/>
		<path d="M252.699,182.024c0.016,0.944,0.615,1.335,1.319,1.335c0.504,0,0.815-0.088,1.071-0.2l0.128,0.504    c-0.247,0.112-0.68,0.248-1.296,0.248c-1.183,0-1.902-0.792-1.902-1.951c0-1.167,0.695-2.087,1.823-2.087    c1.263,0,1.591,1.111,1.591,1.823c0,0.144-0.008,0.248-0.023,0.328H252.699z M254.754,181.521    c0.008-0.448-0.184-1.144-0.967-1.144c-0.721,0-1.023,0.656-1.08,1.144H254.754z"/>
		<path d="M256.308,181.168c0-0.456-0.008-0.848-0.032-1.208h0.616l0.032,0.76h0.023c0.176-0.52,0.607-0.848,1.08-0.848    c0.071,0,0.127,0.008,0.191,0.016v0.664c-0.072-0.008-0.145-0.016-0.24-0.016c-0.496,0-0.848,0.375-0.943,0.896    c-0.016,0.104-0.023,0.216-0.023,0.328v2.071h-0.704V181.168z"/>
		<path d="M260.619,178.155h0.703v5.676h-0.703V178.155z"/>
		<path d="M264.082,183.919c-1.039,0-1.854-0.768-1.854-1.991c0-1.295,0.855-2.055,1.919-2.055c1.111,0,1.863,0.808,1.863,1.983    c0,1.439-1,2.063-1.919,2.063H264.082z M264.115,183.391c0.671,0,1.175-0.631,1.175-1.511c0-0.655-0.327-1.479-1.159-1.479    c-0.824,0-1.184,0.768-1.184,1.503c0,0.847,0.48,1.487,1.159,1.487H264.115z"/>
		<path d="M266.804,183.111c0.216,0.128,0.583,0.272,0.936,0.272c0.503,0,0.743-0.248,0.743-0.576c0-0.336-0.199-0.512-0.711-0.704    c-0.704-0.256-1.031-0.64-1.031-1.095c0-0.624,0.512-1.136,1.334-1.136c0.393,0,0.736,0.104,0.944,0.24l-0.168,0.503    c-0.151-0.088-0.432-0.224-0.792-0.224c-0.416,0-0.639,0.24-0.639,0.528c0,0.319,0.223,0.463,0.727,0.664    c0.664,0.248,1.016,0.583,1.016,1.159c0,0.688-0.535,1.167-1.439,1.167c-0.424,0-0.814-0.112-1.087-0.272L266.804,183.111z"/>
		<path d="M270.467,182.024c0.017,0.944,0.616,1.335,1.32,1.335c0.504,0,0.814-0.088,1.07-0.2l0.129,0.504    c-0.248,0.112-0.68,0.248-1.295,0.248c-1.184,0-1.904-0.792-1.904-1.951c0-1.167,0.696-2.087,1.824-2.087    c1.263,0,1.59,1.111,1.59,1.823c0,0.144-0.008,0.248-0.023,0.328H270.467z M272.521,181.521c0.009-0.448-0.184-1.144-0.967-1.144    c-0.72,0-1.023,0.656-1.08,1.144H272.521z"/>
		<path d="M273.979,183.111c0.216,0.128,0.583,0.272,0.936,0.272c0.503,0,0.743-0.248,0.743-0.576c0-0.336-0.199-0.512-0.711-0.704    c-0.704-0.256-1.031-0.64-1.031-1.095c0-0.624,0.512-1.136,1.334-1.136c0.393,0,0.736,0.104,0.944,0.24l-0.168,0.503    c-0.151-0.088-0.432-0.224-0.792-0.224c-0.416,0-0.639,0.24-0.639,0.528c0,0.319,0.223,0.463,0.727,0.664    c0.664,0.248,1.016,0.583,1.016,1.159c0,0.688-0.535,1.167-1.439,1.167c-0.424,0-0.814-0.112-1.087-0.272L273.979,183.111z"/>
	</g>
	<g>
		<path d="M309.621,168.842v3.198c0,1.199,0.535,1.711,1.255,1.711c0.792,0,1.312-0.527,1.312-1.711v-3.198h0.703v3.15    c0,1.655-0.871,2.327-2.039,2.327c-1.104,0-1.935-0.624-1.935-2.303v-3.174H309.621z"/>
		<path d="M314.012,173.384c0.312,0.192,0.76,0.344,1.24,0.344c0.711,0,1.127-0.368,1.127-0.911c0-0.504-0.287-0.8-1.016-1.072    c-0.879-0.304-1.423-0.768-1.423-1.519c0-0.839,0.696-1.463,1.743-1.463c0.543,0,0.951,0.128,1.184,0.256l-0.192,0.576    c-0.168-0.104-0.527-0.256-1.015-0.256c-0.736,0-1.016,0.439-1.016,0.807c0,0.496,0.327,0.744,1.07,1.032    c0.912,0.36,1.367,0.792,1.367,1.583c0,0.824-0.607,1.551-1.879,1.551c-0.52,0-1.087-0.16-1.375-0.352L314.012,173.384z"/>
		<path d="M323.027,173.664c0,0.896-0.185,1.432-0.553,1.775c-0.383,0.344-0.928,0.463-1.415,0.463c-0.464,0-0.976-0.112-1.287-0.32    l0.176-0.543c0.256,0.168,0.655,0.312,1.136,0.312c0.719,0,1.247-0.376,1.247-1.359v-0.424h-0.017    c-0.207,0.36-0.631,0.647-1.23,0.647c-0.96,0-1.647-0.815-1.647-1.895c0-1.311,0.855-2.047,1.751-2.047    c0.672,0,1.031,0.344,1.207,0.672h0.017l0.024-0.583h0.623c-0.023,0.271-0.031,0.591-0.031,1.055V173.664z M322.323,171.881    c0-0.112-0.009-0.216-0.04-0.312c-0.128-0.416-0.464-0.751-0.983-0.751c-0.672,0-1.151,0.568-1.151,1.471    c0,0.751,0.392,1.391,1.143,1.391c0.44,0,0.832-0.272,0.977-0.728c0.039-0.112,0.056-0.248,0.056-0.376V171.881z"/>
		<path d="M326.914,173.304c0,0.335,0.017,0.664,0.057,0.927h-0.632l-0.063-0.488h-0.024c-0.208,0.304-0.632,0.576-1.183,0.576    c-0.784,0-1.184-0.552-1.184-1.111c0-0.936,0.831-1.447,2.326-1.439v-0.08c0-0.32-0.088-0.904-0.879-0.896    c-0.368,0-0.744,0.104-1.016,0.288l-0.16-0.472c0.32-0.2,0.791-0.336,1.279-0.336c1.191,0,1.479,0.808,1.479,1.583V173.304z     M326.227,172.256c-0.768-0.016-1.639,0.12-1.639,0.872c0,0.464,0.304,0.672,0.656,0.672c0.512,0,0.839-0.32,0.951-0.648    c0.023-0.072,0.031-0.152,0.031-0.224V172.256z"/>
		<path d="M328.38,169.706c-0.256,0-0.424-0.2-0.424-0.432c0-0.248,0.176-0.439,0.44-0.439c0.256,0,0.432,0.192,0.432,0.439    c0,0.232-0.168,0.432-0.44,0.432H328.38z M328.044,174.231v-3.87h0.704v3.87H328.044z"/>
		<path d="M329.916,171.409c0-0.408-0.008-0.728-0.031-1.047h0.623l0.04,0.631h0.017c0.191-0.36,0.639-0.72,1.279-0.72    c0.535,0,1.367,0.32,1.367,1.647v2.311h-0.704V172c0-0.624-0.231-1.151-0.896-1.151c-0.456,0-0.815,0.328-0.943,0.72    c-0.032,0.088-0.049,0.216-0.049,0.328v2.334h-0.703V171.409z"/>
		<path d="M334.26,173.512c0.217,0.128,0.584,0.272,0.936,0.272c0.504,0,0.744-0.248,0.744-0.576c0-0.336-0.2-0.512-0.712-0.704    c-0.704-0.256-1.031-0.64-1.031-1.095c0-0.624,0.512-1.136,1.335-1.136c0.393,0,0.736,0.104,0.943,0.24l-0.168,0.503    c-0.151-0.088-0.432-0.224-0.791-0.224c-0.416,0-0.64,0.24-0.64,0.527c0,0.32,0.224,0.464,0.728,0.664    c0.664,0.248,1.016,0.583,1.016,1.159c0,0.688-0.536,1.167-1.439,1.167c-0.424,0-0.815-0.112-1.088-0.272L334.26,173.512z"/>
		<path d="M336.933,174.551l2.223-5.797h0.552l-2.238,5.797H336.933z"/>
		<path d="M290.257,179.034v0.927h1.007v0.536h-1.007v2.079c0,0.48,0.136,0.751,0.528,0.751c0.191,0,0.303-0.016,0.407-0.048    l0.032,0.536c-0.137,0.048-0.352,0.096-0.624,0.096c-0.327,0-0.591-0.112-0.759-0.296c-0.192-0.216-0.272-0.56-0.272-1.016v-2.103    h-0.6v-0.536h0.6v-0.711L290.257,179.034z"/>
		<path d="M292.057,181.168c0-0.456-0.008-0.848-0.031-1.208h0.615l0.032,0.76h0.024c0.176-0.52,0.607-0.848,1.079-0.848    c0.071,0,0.128,0.008,0.192,0.016v0.664c-0.072-0.008-0.145-0.016-0.24-0.016c-0.496,0-0.848,0.375-0.943,0.896    c-0.016,0.104-0.024,0.216-0.024,0.328v2.071h-0.704V181.168z"/>
		<path d="M297.399,182.903c0,0.336,0.017,0.664,0.056,0.928h-0.631l-0.064-0.488h-0.023c-0.209,0.304-0.633,0.576-1.184,0.576    c-0.783,0-1.184-0.552-1.184-1.111c0-0.936,0.832-1.447,2.326-1.439v-0.08c0-0.32-0.088-0.904-0.879-0.896    c-0.367,0-0.744,0.104-1.016,0.288l-0.16-0.472c0.32-0.2,0.792-0.336,1.279-0.336c1.191,0,1.479,0.808,1.479,1.583V182.903z     M296.712,181.856c-0.768-0.016-1.64,0.12-1.64,0.872c0,0.464,0.305,0.672,0.656,0.672c0.512,0,0.84-0.32,0.951-0.648    c0.024-0.072,0.032-0.152,0.032-0.224V181.856z"/>
		<path d="M301.871,178.155v4.677c0,0.344,0.008,0.736,0.033,1h-0.633l-0.031-0.672h-0.016c-0.217,0.432-0.68,0.76-1.312,0.76    c-0.936,0-1.662-0.792-1.662-1.967c-0.008-1.295,0.799-2.079,1.734-2.079c0.6,0,1,0.28,1.168,0.584h0.016v-2.302H301.871z     M301.168,181.536c0-0.096-0.008-0.208-0.031-0.304c-0.104-0.439-0.488-0.808-1.016-0.808c-0.729,0-1.16,0.64-1.16,1.487    c0,0.792,0.393,1.439,1.144,1.439c0.472,0,0.903-0.32,1.032-0.848c0.023-0.088,0.031-0.184,0.031-0.296V181.536z"/>
		<path d="M303.377,179.306c-0.256,0-0.424-0.2-0.424-0.432c0-0.248,0.176-0.439,0.439-0.439c0.256,0,0.432,0.191,0.432,0.439    c0,0.231-0.168,0.432-0.439,0.432H303.377z M303.041,183.831v-3.87h0.703v3.87H303.041z"/>
		<path d="M304.913,181.009c0-0.408-0.008-0.728-0.032-1.048h0.624l0.04,0.632h0.016c0.192-0.36,0.641-0.72,1.279-0.72    c0.536,0,1.367,0.32,1.367,1.647v2.311h-0.703V181.6c0-0.624-0.232-1.151-0.896-1.151c-0.456,0-0.815,0.328-0.943,0.72    c-0.032,0.088-0.048,0.216-0.048,0.328v2.335h-0.704V181.009z"/>
		<path d="M312.664,183.263c0,0.896-0.185,1.431-0.553,1.775c-0.383,0.344-0.928,0.463-1.415,0.463c-0.464,0-0.976-0.112-1.287-0.32    l0.176-0.543c0.256,0.168,0.655,0.312,1.136,0.312c0.719,0,1.247-0.375,1.247-1.359v-0.424h-0.017    c-0.207,0.36-0.631,0.647-1.23,0.647c-0.959,0-1.647-0.815-1.647-1.895c0-1.311,0.855-2.047,1.751-2.047    c0.672,0,1.031,0.344,1.207,0.672h0.017l0.024-0.584h0.623c-0.023,0.272-0.031,0.592-0.031,1.056V183.263z M311.96,181.48    c0-0.112-0.009-0.216-0.04-0.312c-0.128-0.416-0.464-0.751-0.983-0.751c-0.672,0-1.151,0.567-1.151,1.471    c0,0.751,0.392,1.391,1.143,1.391c0.44,0,0.832-0.272,0.977-0.728c0.039-0.112,0.056-0.248,0.056-0.376V181.48z"/>
		<path d="M315.52,181.225c0-0.496-0.008-0.896-0.031-1.264h0.632l0.04,0.664h0.016c0.279-0.48,0.744-0.752,1.367-0.752    c0.943,0,1.647,0.792,1.647,1.967c0,1.391-0.856,2.079-1.759,2.079c-0.52,0-0.96-0.224-1.191-0.607h-0.017v2.103h-0.704V181.225z     M316.224,182.256c0,0.096,0.009,0.2,0.032,0.288c0.12,0.487,0.552,0.823,1.047,0.823c0.744,0,1.176-0.607,1.176-1.495    c0-0.775-0.4-1.439-1.144-1.439c-0.479,0-0.935,0.335-1.071,0.872c-0.016,0.088-0.04,0.191-0.04,0.28V182.256z"/>
		<path d="M322.799,182.903c0,0.336,0.016,0.664,0.057,0.928h-0.633l-0.063-0.488h-0.024c-0.207,0.304-0.631,0.576-1.183,0.576    c-0.784,0-1.184-0.552-1.184-1.111c0-0.936,0.831-1.447,2.327-1.439v-0.08c0-0.32-0.088-0.904-0.88-0.896    c-0.368,0-0.743,0.104-1.016,0.288l-0.159-0.472c0.319-0.2,0.791-0.336,1.279-0.336c1.191,0,1.479,0.808,1.479,1.583V182.903z     M322.111,181.856c-0.768-0.016-1.639,0.12-1.639,0.872c0,0.464,0.303,0.672,0.655,0.672c0.512,0,0.839-0.32,0.951-0.648    c0.024-0.072,0.032-0.152,0.032-0.224V181.856z"/>
		<path d="M323.928,181.168c0-0.456-0.008-0.848-0.031-1.208h0.615l0.032,0.76h0.024c0.176-0.52,0.607-0.848,1.079-0.848    c0.071,0,0.128,0.008,0.192,0.016v0.664c-0.072-0.008-0.145-0.016-0.24-0.016c-0.496,0-0.848,0.375-0.943,0.896    c-0.016,0.104-0.024,0.216-0.024,0.328v2.071h-0.704V181.168z"/>
		<path d="M327.392,179.034v0.927h1.007v0.536h-1.007v2.079c0,0.48,0.136,0.751,0.528,0.751c0.191,0,0.303-0.016,0.407-0.048    l0.032,0.536c-0.137,0.048-0.352,0.096-0.624,0.096c-0.327,0-0.592-0.112-0.759-0.296c-0.192-0.216-0.272-0.56-0.272-1.016v-2.103    h-0.6v-0.536h0.6v-0.711L327.392,179.034z"/>
		<path d="M329.191,181.009c0-0.408-0.008-0.728-0.031-1.048h0.623l0.041,0.632h0.016c0.191-0.36,0.64-0.72,1.279-0.72    c0.535,0,1.367,0.32,1.367,1.647v2.311h-0.703V181.6c0-0.624-0.232-1.151-0.896-1.151c-0.455,0-0.814,0.328-0.943,0.72    c-0.031,0.088-0.048,0.216-0.048,0.328v2.335h-0.704V181.009z"/>
		<path d="M334.031,182.024c0.017,0.944,0.616,1.335,1.32,1.335c0.504,0,0.814-0.088,1.07-0.2l0.129,0.504    c-0.248,0.112-0.68,0.248-1.296,0.248c-1.183,0-1.903-0.792-1.903-1.951c0-1.167,0.696-2.087,1.824-2.087    c1.263,0,1.59,1.111,1.59,1.823c0,0.144-0.008,0.248-0.023,0.328H334.031z M336.087,181.521c0.008-0.448-0.185-1.144-0.968-1.144    c-0.72,0-1.023,0.656-1.079,1.144H336.087z"/>
		<path d="M337.641,181.168c0-0.456-0.008-0.848-0.032-1.208h0.616l0.031,0.76h0.023c0.177-0.52,0.608-0.848,1.08-0.848    c0.072,0,0.128,0.008,0.191,0.016v0.664c-0.071-0.008-0.144-0.016-0.239-0.016c-0.496,0-0.848,0.375-0.943,0.896    c-0.017,0.104-0.024,0.216-0.024,0.328v2.071h-0.703V181.168z"/>
		<path d="M345.262,183.263c0,0.896-0.184,1.431-0.551,1.775c-0.385,0.344-0.928,0.463-1.416,0.463c-0.463,0-0.975-0.112-1.287-0.32    l0.176-0.543c0.256,0.168,0.656,0.312,1.136,0.312c0.72,0,1.247-0.375,1.247-1.359v-0.424h-0.016    c-0.208,0.36-0.632,0.647-1.231,0.647c-0.96,0-1.647-0.815-1.647-1.895c0-1.311,0.855-2.047,1.751-2.047    c0.672,0,1.032,0.344,1.208,0.672h0.016l0.023-0.584h0.624c-0.024,0.272-0.032,0.592-0.032,1.056V183.263z M344.559,181.48    c0-0.112-0.008-0.216-0.04-0.312c-0.128-0.416-0.464-0.751-0.983-0.751c-0.672,0-1.151,0.567-1.151,1.471    c0,0.751,0.392,1.391,1.144,1.391c0.439,0,0.831-0.272,0.975-0.728c0.041-0.112,0.057-0.248,0.057-0.376V181.48z"/>
		<path d="M349.15,182.903c0,0.336,0.016,0.664,0.057,0.928h-0.633l-0.063-0.488h-0.024c-0.207,0.304-0.631,0.576-1.183,0.576    c-0.784,0-1.184-0.552-1.184-1.111c0-0.936,0.831-1.447,2.327-1.439v-0.08c0-0.32-0.088-0.904-0.88-0.896    c-0.368,0-0.743,0.104-1.016,0.288l-0.159-0.472c0.319-0.2,0.791-0.336,1.279-0.336c1.191,0,1.479,0.808,1.479,1.583V182.903z     M348.463,181.856c-0.768-0.016-1.639,0.12-1.639,0.872c0,0.464,0.303,0.672,0.655,0.672c0.512,0,0.839-0.32,0.951-0.648    c0.024-0.072,0.032-0.152,0.032-0.224V181.856z"/>
		<path d="M350.615,179.306c-0.256,0-0.424-0.2-0.424-0.432c0-0.248,0.177-0.439,0.44-0.439c0.256,0,0.432,0.191,0.432,0.439    c0,0.231-0.168,0.432-0.439,0.432H350.615z M350.279,183.831v-3.87h0.704v3.87H350.279z"/>
		<path d="M352.152,181.009c0-0.408-0.008-0.728-0.032-1.048h0.624l0.039,0.632h0.017c0.192-0.36,0.64-0.72,1.279-0.72    c0.536,0,1.367,0.32,1.367,1.647v2.311h-0.704V181.6c0-0.624-0.231-1.151-0.895-1.151c-0.456,0-0.816,0.328-0.943,0.72    c-0.033,0.088-0.049,0.216-0.049,0.328v2.335h-0.703V181.009z"/>
		<path d="M356.496,183.111c0.215,0.128,0.583,0.272,0.936,0.272c0.503,0,0.743-0.248,0.743-0.576c0-0.336-0.2-0.512-0.712-0.704    c-0.703-0.256-1.031-0.64-1.031-1.095c0-0.624,0.512-1.136,1.335-1.136c0.392,0,0.735,0.104,0.944,0.24l-0.168,0.503    c-0.152-0.088-0.432-0.224-0.792-0.224c-0.416,0-0.64,0.24-0.64,0.528c0,0.319,0.224,0.463,0.728,0.664    c0.663,0.248,1.016,0.583,1.016,1.159c0,0.688-0.536,1.167-1.439,1.167c-0.424,0-0.815-0.112-1.087-0.272L356.496,183.111z"/>
	</g>
	
		<line fill="none" stroke="#000000" stroke-width="0.5" stroke-linejoin="round" stroke-miterlimit="10" x1="135.168" y1="162.616" x2="135.168" y2="165.616"/>
	
		<line fill="none" stroke="#999999" stroke-width="0.5" stroke-linejoin="round" stroke-miterlimit="10" x1="207.119" y1="30.616" x2="359.043" y2="30.616"/>
	
		<line fill="none" stroke="#999999" stroke-width="0.5" stroke-linejoin="round" stroke-miterlimit="10" x1="207.119" y1="49.473" x2="359.043" y2="49.473"/>
	
		<line fill="none" stroke="#999999" stroke-width="0.5" stroke-linejoin="round" stroke-miterlimit="10" x1="207.119" y1="68.33" x2="359.043" y2="68.33"/>
	
		<line fill="none" stroke="#999999" stroke-width="0.5" stroke-linejoin="round" stroke-miterlimit="10" x1="207.119" y1="87.187" x2="359.043" y2="87.187"/>
	
		<line fill="none" stroke="#999999" stroke-width="0.5" stroke-linejoin="round" stroke-miterlimit="10" x1="207.119" y1="106.044" x2="359.043" y2="106.044"/>
	
		<line fill="none" stroke="#999999" stroke-width="0.5" stroke-linejoin="round" stroke-miterlimit="10" x1="207.119" y1="124.902" x2="359.043" y2="124.902"/>
	
		<line fill="none" stroke="#999999" stroke-width="0.5" stroke-linejoin="round" stroke-miterlimit="10" x1="207.119" y1="143.759" x2="359.043" y2="143.759"/>
	<g>
		<path d="M189.066,32.156c0.2,0.12,0.656,0.32,1.152,0.32c0.895,0,1.183-0.568,1.175-1.008c-0.008-0.728-0.663-1.039-1.343-1.039    h-0.393v-0.528h0.393c0.512,0,1.158-0.264,1.158-0.879c0-0.416-0.264-0.784-0.911-0.784c-0.415,0-0.815,0.185-1.039,0.344    l-0.192-0.512c0.28-0.199,0.809-0.399,1.367-0.399c1.023,0,1.488,0.607,1.488,1.239c0,0.544-0.328,1-0.96,1.231v0.016    c0.64,0.12,1.159,0.6,1.159,1.328c0,0.831-0.656,1.559-1.895,1.559c-0.584,0-1.096-0.184-1.352-0.352L189.066,32.156z"/>
		<path d="M193.522,33.043c-0.271,0-0.464-0.216-0.464-0.504c0-0.287,0.2-0.504,0.48-0.504c0.279,0,0.471,0.208,0.471,0.504    c0,0.288-0.191,0.504-0.479,0.504H193.522z"/>
		<path d="M196.313,33.043c-1.015,0-1.711-0.951-1.727-2.671c0-1.751,0.759-2.702,1.815-2.702c1.087,0,1.719,0.976,1.719,2.631    c0,1.767-0.664,2.742-1.799,2.742H196.313z M196.354,32.5c0.712,0,1.056-0.839,1.056-2.167c0-1.279-0.319-2.118-1.056-2.118    c-0.64,0-1.055,0.815-1.055,2.118c-0.017,1.352,0.399,2.167,1.047,2.167H196.354z"/>
		<path d="M200.418,33.043c-1.016,0-1.711-0.951-1.728-2.671c0-1.751,0.76-2.702,1.815-2.702c1.088,0,1.719,0.976,1.719,2.631    c0,1.767-0.664,2.742-1.799,2.742H200.418z M200.457,32.5c0.713,0,1.057-0.839,1.057-2.167c0-1.279-0.32-2.118-1.057-2.118    c-0.639,0-1.055,0.815-1.055,2.118c-0.016,1.352,0.4,2.167,1.047,2.167H200.457z"/>
		<path d="M188.898,51.816v-0.432l0.553-0.536c1.326-1.263,1.935-1.935,1.935-2.718c0-0.528-0.248-1.016-1.023-1.016    c-0.472,0-0.864,0.239-1.104,0.439l-0.224-0.496c0.352-0.296,0.871-0.527,1.471-0.527c1.111,0,1.583,0.768,1.583,1.511    c0,0.96-0.695,1.735-1.791,2.791l-0.407,0.384v0.016h2.326v0.584H188.898z"/>
		<path d="M193.522,51.904c-0.271,0-0.464-0.216-0.464-0.504s0.2-0.504,0.48-0.504c0.279,0,0.471,0.208,0.471,0.504    c0,0.288-0.191,0.504-0.479,0.504H193.522z"/>
		<path d="M195.066,51.32c0.152,0.009,0.328,0,0.568-0.031c0.407-0.048,0.791-0.216,1.087-0.496    c0.344-0.319,0.591-0.768,0.688-1.383h-0.024c-0.287,0.352-0.703,0.56-1.23,0.56c-0.936,0-1.535-0.704-1.535-1.6    c0-0.976,0.719-1.839,1.783-1.839c1.062,0,1.719,0.855,1.719,2.19c0,1.144-0.385,1.943-0.896,2.439    c-0.399,0.384-0.951,0.631-1.511,0.695c-0.256,0.032-0.487,0.048-0.647,0.04V51.32z M196.338,47.067    c-0.592,0-1.016,0.527-1.016,1.263c0,0.647,0.392,1.104,1,1.104c0.471,0,0.839-0.231,1.031-0.544    c0.031-0.063,0.056-0.144,0.056-0.256c0.008-0.896-0.328-1.566-1.063-1.566H196.338z"/>
		<path d="M200.418,51.904c-1.016,0-1.711-0.951-1.728-2.671c0-1.751,0.76-2.702,1.815-2.702c1.088,0,1.719,0.976,1.719,2.631    c0,1.767-0.664,2.742-1.799,2.742H200.418z M200.457,51.36c0.713,0,1.057-0.839,1.057-2.166c0-1.279-0.32-2.119-1.057-2.119    c-0.639,0-1.055,0.815-1.055,2.119c-0.016,1.351,0.4,2.166,1.047,2.166H200.457z"/>
		<path d="M188.898,70.675v-0.432l0.553-0.536c1.326-1.263,1.935-1.935,1.935-2.718c0-0.528-0.248-1.016-1.023-1.016    c-0.472,0-0.864,0.239-1.104,0.439l-0.224-0.496c0.352-0.296,0.871-0.527,1.471-0.527c1.111,0,1.583,0.768,1.583,1.511    c0,0.96-0.695,1.735-1.791,2.791l-0.407,0.384v0.016h2.326v0.584H188.898z"/>
		<path d="M193.522,70.763c-0.271,0-0.464-0.216-0.464-0.504s0.2-0.504,0.48-0.504c0.279,0,0.471,0.208,0.471,0.504    c0,0.288-0.191,0.504-0.479,0.504H193.522z"/>
		<path d="M196.402,65.39c1.007,0,1.519,0.624,1.519,1.279c0,0.439-0.224,0.92-0.864,1.216v0.023    c0.648,0.256,1.048,0.72,1.048,1.344c0,0.911-0.775,1.511-1.767,1.511c-1.088,0-1.743-0.64-1.743-1.399    c0-0.655,0.392-1.127,1.023-1.399v-0.023c-0.584-0.272-0.831-0.72-0.831-1.167c0-0.824,0.695-1.384,1.606-1.384H196.402z     M196.354,70.251c0.632,0,1.039-0.392,1.039-0.928c0-0.623-0.439-0.936-1.143-1.135c-0.607,0.176-0.936,0.583-0.936,1.079    c-0.024,0.52,0.375,0.983,1.031,0.983H196.354z M196.361,65.894c-0.584,0-0.903,0.384-0.903,0.831    c-0.008,0.521,0.392,0.8,0.991,0.96c0.448-0.152,0.792-0.472,0.792-0.943c0-0.416-0.248-0.848-0.872-0.848H196.361z"/>
		<path d="M200.418,70.763c-1.016,0-1.711-0.951-1.728-2.671c0-1.751,0.76-2.702,1.815-2.702c1.088,0,1.719,0.976,1.719,2.631    c0,1.767-0.664,2.742-1.799,2.742H200.418z M200.457,70.219c0.713,0,1.057-0.839,1.057-2.166c0-1.279-0.32-2.119-1.057-2.119    c-0.639,0-1.055,0.815-1.055,2.119c-0.016,1.351,0.4,2.166,1.047,2.166H200.457z"/>
		<path d="M188.898,89.536v-0.432l0.553-0.536c1.326-1.263,1.935-1.935,1.935-2.718c0-0.528-0.248-1.016-1.023-1.016    c-0.472,0-0.864,0.239-1.104,0.439l-0.224-0.496c0.352-0.295,0.871-0.527,1.471-0.527c1.111,0,1.583,0.768,1.583,1.512    c0,0.959-0.695,1.734-1.791,2.79l-0.407,0.384v0.016h2.326v0.584H188.898z"/>
		<path d="M193.522,89.624c-0.271,0-0.464-0.216-0.464-0.504c0-0.287,0.2-0.504,0.48-0.504c0.279,0,0.471,0.208,0.471,0.504    c0,0.288-0.191,0.504-0.479,0.504H193.522z"/>
		<path d="M198.033,84.338v0.464l-2.264,4.733h-0.719l2.246-4.598v-0.016h-2.543v-0.584H198.033z"/>
		<path d="M200.418,89.624c-1.016,0-1.711-0.951-1.728-2.671c0-1.751,0.76-2.702,1.815-2.702c1.088,0,1.719,0.976,1.719,2.631    c0,1.767-0.664,2.742-1.799,2.742H200.418z M200.457,89.08c0.713,0,1.057-0.839,1.057-2.167c0-1.279-0.32-2.118-1.057-2.118    c-0.639,0-1.055,0.815-1.055,2.118c-0.016,1.352,0.4,2.167,1.047,2.167H200.457z"/>
		<path d="M188.898,108.396v-0.432l0.553-0.536c1.326-1.263,1.935-1.935,1.935-2.718c0-0.528-0.248-1.016-1.023-1.016    c-0.472,0-0.864,0.239-1.104,0.439l-0.224-0.496c0.352-0.296,0.871-0.527,1.471-0.527c1.111,0,1.583,0.768,1.583,1.511    c0,0.96-0.695,1.735-1.791,2.791l-0.407,0.384v0.016h2.326v0.584H188.898z"/>
		<path d="M193.522,108.484c-0.271,0-0.464-0.216-0.464-0.504s0.2-0.504,0.48-0.504c0.279,0,0.471,0.208,0.471,0.504    c0,0.288-0.191,0.504-0.479,0.504H193.522z"/>
		<path d="M197.625,103.695c-0.145-0.008-0.328,0.008-0.527,0.04c-1.111,0.176-1.688,0.976-1.808,1.839h0.017    c0.248-0.336,0.688-0.607,1.263-0.607c0.92,0,1.567,0.671,1.567,1.679c0,0.959-0.647,1.839-1.734,1.839    c-1.104,0-1.832-0.863-1.832-2.215c0-1.023,0.36-1.831,0.88-2.343c0.432-0.424,1.007-0.688,1.663-0.768    c0.208-0.032,0.384-0.04,0.512-0.04V103.695z M196.418,107.94c0.6,0,1.008-0.504,1.008-1.247s-0.424-1.191-1.072-1.191    c-0.424,0-0.823,0.256-1.016,0.64c-0.039,0.08-0.072,0.176-0.072,0.304c0.009,0.855,0.408,1.495,1.145,1.495H196.418z"/>
		<path d="M200.418,108.484c-1.016,0-1.711-0.951-1.728-2.671c0-1.751,0.76-2.702,1.815-2.702c1.088,0,1.719,0.976,1.719,2.631    c0,1.767-0.664,2.742-1.799,2.742H200.418z M200.457,107.94c0.713,0,1.057-0.839,1.057-2.166c0-1.279-0.32-2.119-1.057-2.119    c-0.639,0-1.055,0.815-1.055,2.119c-0.016,1.351,0.4,2.166,1.047,2.166H200.457z"/>
		<path d="M188.898,127.255v-0.432l0.553-0.536c1.326-1.263,1.935-1.935,1.935-2.718c0-0.528-0.248-1.016-1.023-1.016    c-0.472,0-0.864,0.239-1.104,0.439l-0.224-0.496c0.352-0.296,0.871-0.527,1.471-0.527c1.111,0,1.583,0.768,1.583,1.511    c0,0.96-0.695,1.735-1.791,2.791l-0.407,0.384v0.016h2.326v0.584H188.898z"/>
		<path d="M193.522,127.343c-0.271,0-0.464-0.216-0.464-0.504s0.2-0.504,0.48-0.504c0.279,0,0.471,0.208,0.471,0.504    c0,0.288-0.191,0.504-0.479,0.504H193.522z"/>
		<path d="M197.761,122.65h-1.983l-0.199,1.335c0.12-0.016,0.232-0.031,0.424-0.031c0.408,0,0.799,0.088,1.119,0.279    c0.408,0.224,0.744,0.68,0.744,1.335c0,1.016-0.809,1.775-1.936,1.775c-0.567,0-1.039-0.16-1.295-0.319l0.176-0.536    c0.216,0.128,0.64,0.288,1.119,0.288c0.656,0,1.231-0.432,1.224-1.136c0-0.663-0.456-1.144-1.487-1.144    c-0.304,0-0.535,0.024-0.728,0.057l0.336-2.495h2.486V122.65z"/>
		<path d="M200.418,127.343c-1.016,0-1.711-0.951-1.728-2.671c0-1.751,0.76-2.702,1.815-2.702c1.088,0,1.719,0.976,1.719,2.631    c0,1.767-0.664,2.742-1.799,2.742H200.418z M200.457,126.799c0.713,0,1.057-0.839,1.057-2.166c0-1.279-0.32-2.119-1.057-2.119    c-0.639,0-1.055,0.815-1.055,2.119c-0.016,1.351,0.4,2.166,1.047,2.166H200.457z"/>
		<path d="M188.898,146.116v-0.432l0.553-0.536c1.326-1.263,1.935-1.935,1.935-2.718c0-0.528-0.248-1.016-1.023-1.016    c-0.472,0-0.864,0.239-1.104,0.439l-0.224-0.496c0.352-0.295,0.871-0.527,1.471-0.527c1.111,0,1.583,0.768,1.583,1.512    c0,0.959-0.695,1.734-1.791,2.79l-0.407,0.384v0.016h2.326v0.584H188.898z"/>
		<path d="M193.522,146.204c-0.271,0-0.464-0.216-0.464-0.504c0-0.287,0.2-0.504,0.48-0.504c0.279,0,0.471,0.208,0.471,0.504    c0,0.288-0.191,0.504-0.479,0.504H193.522z"/>
		<path d="M196.834,146.116v-1.423h-2.415v-0.456l2.318-3.318h0.76v3.23h0.728v0.544h-0.728v1.423H196.834z M196.834,144.149v-1.735    c0-0.271,0.008-0.544,0.023-0.815h-0.023c-0.16,0.304-0.289,0.527-0.432,0.768l-1.271,1.768v0.016H196.834z"/>
		<path d="M200.418,146.204c-1.016,0-1.711-0.951-1.728-2.671c0-1.751,0.76-2.702,1.815-2.702c1.088,0,1.719,0.976,1.719,2.631    c0,1.767-0.664,2.742-1.799,2.742H200.418z M200.457,145.66c0.713,0,1.057-0.839,1.057-2.167c0-1.279-0.32-2.118-1.057-2.118    c-0.639,0-1.055,0.815-1.055,2.118c-0.016,1.352,0.4,2.167,1.047,2.167H200.457z"/>
		<path d="M188.898,164.975v-0.432l0.553-0.536c1.326-1.263,1.935-1.935,1.935-2.718c0-0.528-0.248-1.016-1.023-1.016    c-0.472,0-0.864,0.239-1.104,0.439l-0.224-0.496c0.352-0.295,0.871-0.527,1.471-0.527c1.111,0,1.583,0.768,1.583,1.512    c0,0.959-0.695,1.734-1.791,2.79l-0.407,0.384v0.016h2.326v0.584H188.898z"/>
		<path d="M193.522,165.063c-0.271,0-0.464-0.216-0.464-0.504c0-0.287,0.2-0.504,0.48-0.504c0.279,0,0.471,0.208,0.471,0.504    c0,0.288-0.191,0.504-0.479,0.504H193.522z"/>
		<path d="M194.826,164.175c0.2,0.12,0.656,0.32,1.152,0.32c0.895,0,1.183-0.568,1.175-1.008c-0.008-0.728-0.663-1.039-1.343-1.039    h-0.393v-0.528h0.393c0.512,0,1.158-0.264,1.158-0.879c0-0.416-0.264-0.784-0.911-0.784c-0.415,0-0.815,0.185-1.039,0.344    l-0.192-0.512c0.28-0.199,0.809-0.399,1.367-0.399c1.023,0,1.488,0.607,1.488,1.239c0,0.544-0.328,1-0.96,1.231v0.016    c0.64,0.12,1.159,0.6,1.159,1.328c0,0.831-0.656,1.559-1.895,1.559c-0.584,0-1.096-0.184-1.352-0.352L194.826,164.175z"/>
		<path d="M200.418,165.063c-1.016,0-1.711-0.951-1.728-2.671c0-1.751,0.76-2.702,1.815-2.702c1.088,0,1.719,0.976,1.719,2.631    c0,1.767-0.664,2.742-1.799,2.742H200.418z M200.457,164.519c0.713,0,1.057-0.839,1.057-2.167c0-1.279-0.32-2.118-1.057-2.118    c-0.639,0-1.055,0.815-1.055,2.118c-0.016,1.352,0.4,2.167,1.047,2.167H200.457z"/>
	</g>
	<polyline fill="none" stroke="#000000" stroke-width="0.5" stroke-linejoin="round" stroke-miterlimit="10" points="   359.043,162.616 207.043,162.615 207.043,30.616  "/>
	
		<line fill="none" stroke="#000000" stroke-width="0.5" stroke-linejoin="round" stroke-miterlimit="10" x1="207.119" y1="30.616" x2="204.119" y2="30.616"/>
	
		<line fill="none" stroke="#000000" stroke-width="0.5" stroke-linejoin="round" stroke-miterlimit="10" x1="207.119" y1="49.473" x2="204.119" y2="49.473"/>
	
		<line fill="none" stroke="#000000" stroke-width="0.5" stroke-linejoin="round" stroke-miterlimit="10" x1="207.119" y1="68.33" x2="204.119" y2="68.33"/>
	
		<line fill="none" stroke="#000000" stroke-width="0.5" stroke-linejoin="round" stroke-miterlimit="10" x1="207.119" y1="87.187" x2="204.119" y2="87.187"/>
	
		<line fill="none" stroke="#000000" stroke-width="0.5" stroke-linejoin="round" stroke-miterlimit="10" x1="207.119" y1="106.044" x2="204.119" y2="106.044"/>
	
		<line fill="none" stroke="#000000" stroke-width="0.5" stroke-linejoin="round" stroke-miterlimit="10" x1="207.119" y1="124.901" x2="204.119" y2="124.901"/>
	
		<line fill="none" stroke="#000000" stroke-width="0.5" stroke-linejoin="round" stroke-miterlimit="10" x1="207.119" y1="143.759" x2="204.119" y2="143.759"/>
	
		<line fill="none" stroke="#000000" stroke-width="0.5" stroke-linejoin="round" stroke-miterlimit="10" x1="207.119" y1="162.616" x2="204.119" y2="162.616"/>
	
		<line fill="none" stroke="#000000" stroke-width="0.5" stroke-linejoin="round" stroke-miterlimit="10" x1="242.119" y1="162.616" x2="242.119" y2="165.616"/>
	
		<line fill="none" stroke="#000000" stroke-width="0.5" stroke-linejoin="round" stroke-miterlimit="10" x1="324.043" y1="162.616" x2="324.043" y2="165.616"/>
	<circle cx="30.9" cy="4.421" r="1.75"/>
	<line fill="none" stroke="#000000" stroke-linejoin="round" stroke-miterlimit="10" x1="18.9" y1="16.421" x2="42.9" y2="16.421"/>
	<circle cx="30.9" cy="16.421" r="1.75"/>
	<circle cx="53.319" cy="53.141" r="1.75"/>
	<circle cx="53.319" cy="118.814" r="1.75"/>
	<circle cx="135.121" cy="92.632" r="1.75"/>
	<circle cx="135.121" cy="62.468" r="1.75"/>
	<circle cx="242.038" cy="72.023" r="1.75"/>
	<circle cx="242.038" cy="100.146" r="1.75"/>
	<circle cx="323.977" cy="56.923" r="1.75"/>
	<circle cx="323.977" cy="98.213" r="1.75"/>
	<g>
		<g>
			<line fill="none" stroke="#000000" stroke-linejoin="round" x1="18.9" y1="4.421" x2="20.4" y2="4.421"/>
			
				<line fill="none" stroke="#000000" stroke-linejoin="round" stroke-dasharray="2.8636,1.9091" x1="22.309" y1="4.421" x2="40.445" y2="4.421"/>
			<line fill="none" stroke="#000000" stroke-linejoin="round" x1="41.4" y1="4.421" x2="42.9" y2="4.421"/>
		</g>
	</g>
	<g>
		<path d="M221.424,6.167V0.099h0.864l1.936,3.07c0.441,0.711,0.802,1.351,1.081,1.972l0.026-0.009    c-0.071-0.811-0.09-1.549-0.09-2.485V0.099h0.738v6.068h-0.792l-1.927-3.079c-0.423-0.675-0.829-1.368-1.126-2.025l-0.026,0.009    c0.045,0.766,0.054,1.495,0.054,2.503v2.593H221.424z"/>
		<path d="M229.184,6.266c-1.17,0-2.088-0.864-2.088-2.242c0-1.458,0.963-2.314,2.16-2.314c1.252,0,2.098,0.91,2.098,2.233    c0,1.621-1.125,2.323-2.16,2.323H229.184z M229.221,5.672c0.756,0,1.322-0.711,1.322-1.702c0-0.738-0.369-1.666-1.305-1.666    c-0.928,0-1.332,0.864-1.332,1.693c0,0.954,0.539,1.674,1.305,1.674H229.221z"/>
		<path d="M232.41,2.989c0-0.459-0.009-0.819-0.036-1.18h0.702l0.045,0.711h0.018c0.217-0.405,0.721-0.811,1.441-0.811    c0.604,0,1.539,0.36,1.539,1.855v2.602h-0.792V3.655c0-0.702-0.261-1.296-1.009-1.296c-0.513,0-0.918,0.369-1.062,0.81    c-0.035,0.099-0.054,0.243-0.054,0.369v2.629h-0.792V2.989z"/>
		<path d="M241.143,3.61v0.54h-3.962V3.61H241.143z"/>
		<path d="M241.385,5.708l1.972-2.566c0.198-0.243,0.369-0.45,0.576-0.684V2.44h-2.368V1.81h3.322v0.495l-1.953,2.539    c-0.181,0.234-0.36,0.459-0.559,0.675v0.018h2.548v0.63h-3.538V5.708z"/>
		<path d="M246.208,4.132c0.019,1.062,0.693,1.503,1.485,1.503c0.567,0,0.918-0.099,1.207-0.225l0.144,0.567    c-0.279,0.126-0.766,0.279-1.458,0.279c-1.333,0-2.143-0.891-2.143-2.196c0-1.314,0.783-2.35,2.052-2.35    c1.423,0,1.792,1.251,1.792,2.053c0,0.162-0.01,0.279-0.027,0.369H246.208z M248.521,3.565c0.01-0.504-0.207-1.288-1.09-1.288    c-0.81,0-1.152,0.738-1.215,1.288H248.521z"/>
		<path d="M250.318,3.169c0-0.513-0.009-0.954-0.036-1.359h0.693l0.036,0.855h0.027c0.197-0.585,0.684-0.955,1.215-0.955    c0.081,0,0.145,0.009,0.216,0.018v0.748c-0.081-0.009-0.161-0.018-0.271-0.018c-0.558,0-0.953,0.423-1.062,1.008    c-0.019,0.117-0.027,0.243-0.027,0.369v2.332h-0.792V3.169z"/>
		<path d="M255.043,6.266c-1.17,0-2.088-0.864-2.088-2.242c0-1.458,0.963-2.314,2.16-2.314c1.252,0,2.098,0.91,2.098,2.233    c0,1.621-1.125,2.323-2.16,2.323H255.043z M255.08,5.672c0.756,0,1.322-0.711,1.322-1.702c0-0.738-0.369-1.666-1.305-1.666    c-0.928,0-1.332,0.864-1.332,1.693c0,0.954,0.539,1.674,1.305,1.674H255.08z"/>
		<path d="M260.33,3.448v0.576h-2.224V3.448H260.33z"/>
		<path d="M261.199,5.357c0.242,0.144,0.656,0.306,1.053,0.306c0.566,0,0.838-0.279,0.838-0.648c0-0.378-0.226-0.576-0.802-0.792    c-0.792-0.288-1.161-0.72-1.161-1.233c0-0.703,0.576-1.279,1.503-1.279c0.441,0,0.829,0.117,1.062,0.271l-0.188,0.567    c-0.172-0.099-0.486-0.252-0.893-0.252c-0.467,0-0.72,0.27-0.72,0.594c0,0.36,0.253,0.522,0.819,0.747    c0.748,0.279,1.144,0.657,1.144,1.306c0,0.774-0.604,1.314-1.62,1.314c-0.478,0-0.919-0.126-1.225-0.306L261.199,5.357z"/>
		<path d="M268.492,4.97c0,0.459,0.01,0.855,0.036,1.197h-0.702l-0.045-0.711h-0.018c-0.199,0.352-0.667,0.811-1.441,0.811    c-0.684,0-1.503-0.387-1.503-1.909V1.81h0.792v2.404c0,0.828,0.262,1.396,0.973,1.396c0.531,0,0.9-0.369,1.044-0.729    c0.045-0.108,0.072-0.252,0.072-0.405V1.81h0.792V4.97z"/>
		<path d="M269.826,2.989c0-0.459-0.018-0.819-0.035-1.18h0.693l0.035,0.702h0.027c0.243-0.414,0.648-0.801,1.377-0.801    c0.586,0,1.035,0.36,1.225,0.874h0.018c0.136-0.252,0.316-0.432,0.496-0.567c0.261-0.198,0.54-0.306,0.954-0.306    c0.585,0,1.44,0.378,1.44,1.891v2.566h-0.774V3.7c0-0.846-0.315-1.341-0.945-1.341c-0.459,0-0.802,0.333-0.945,0.711    c-0.036,0.117-0.063,0.261-0.063,0.396v2.701h-0.773v-2.62c0-0.693-0.307-1.188-0.91-1.188c-0.485,0-0.854,0.396-0.98,0.792    c-0.045,0.117-0.062,0.252-0.062,0.387v2.629h-0.775V2.989z"/>
		<path d="M279.24,3.232c0-0.558-0.008-1.008-0.035-1.422h0.711l0.045,0.748h0.018c0.315-0.541,0.838-0.847,1.54-0.847    c1.062,0,1.854,0.892,1.854,2.215c0,1.566-0.963,2.341-1.98,2.341c-0.586,0-1.08-0.252-1.342-0.684h-0.018V7.95h-0.793V3.232z     M280.033,4.394c0,0.108,0.009,0.225,0.035,0.324c0.136,0.549,0.621,0.927,1.18,0.927c0.838,0,1.324-0.685,1.324-1.684    c0-0.874-0.451-1.621-1.288-1.621c-0.54,0-1.054,0.378-1.206,0.981c-0.018,0.099-0.045,0.216-0.045,0.315V4.394z"/>
		<path d="M284.941,4.132c0.018,1.062,0.693,1.503,1.485,1.503c0.567,0,0.919-0.099,1.206-0.225l0.145,0.567    c-0.279,0.126-0.766,0.279-1.459,0.279c-1.332,0-2.143-0.891-2.143-2.196c0-1.314,0.783-2.35,2.053-2.35    c1.422,0,1.791,1.251,1.791,2.053c0,0.162-0.008,0.279-0.026,0.369H284.941z M287.255,3.565c0.009-0.504-0.207-1.288-1.089-1.288    c-0.811,0-1.152,0.738-1.216,1.288H287.255z"/>
		<path d="M289.051,3.169c0-0.513-0.008-0.954-0.035-1.359h0.693l0.035,0.855h0.027c0.198-0.585,0.684-0.955,1.215-0.955    c0.082,0,0.145,0.009,0.217,0.018v0.748c-0.081-0.009-0.162-0.018-0.271-0.018c-0.558,0-0.954,0.423-1.062,1.008    c-0.019,0.117-0.027,0.243-0.027,0.369v2.332h-0.793V3.169z"/>
		<path d="M295.088,6.005c-0.207,0.099-0.666,0.252-1.251,0.252c-1.314,0-2.169-0.891-2.169-2.224c0-1.341,0.918-2.323,2.34-2.323    c0.469,0,0.883,0.117,1.099,0.234l-0.181,0.603c-0.188-0.099-0.486-0.207-0.918-0.207c-0.999,0-1.539,0.747-1.539,1.647    c0,1.008,0.648,1.629,1.512,1.629c0.451,0,0.748-0.108,0.973-0.207L295.088,6.005z"/>
		<path d="M296.4,4.132c0.019,1.062,0.693,1.503,1.486,1.503c0.566,0,0.918-0.099,1.206-0.225l0.144,0.567    c-0.279,0.126-0.766,0.279-1.458,0.279c-1.333,0-2.143-0.891-2.143-2.196c0-1.314,0.783-2.35,2.052-2.35    c1.424,0,1.792,1.251,1.792,2.053c0,0.162-0.009,0.279-0.026,0.369H296.4z M298.715,3.565c0.009-0.504-0.207-1.288-1.09-1.288    c-0.811,0-1.152,0.738-1.215,1.288H298.715z"/>
		<path d="M300.511,3.232c0-0.558-0.009-1.008-0.036-1.422h0.711l0.045,0.748h0.019c0.315-0.541,0.837-0.847,1.54-0.847    c1.062,0,1.854,0.892,1.854,2.215c0,1.566-0.963,2.341-1.98,2.341c-0.585,0-1.08-0.252-1.342-0.684h-0.018V7.95h-0.792V3.232z     M301.303,4.394c0,0.108,0.01,0.225,0.036,0.324c0.136,0.549,0.621,0.927,1.179,0.927c0.838,0,1.324-0.685,1.324-1.684    c0-0.874-0.45-1.621-1.287-1.621c-0.541,0-1.054,0.378-1.207,0.981c-0.018,0.099-0.045,0.216-0.045,0.315V4.394z"/>
		<path d="M306.625,0.765V1.81h1.133v0.604h-1.133v2.34c0,0.541,0.152,0.846,0.594,0.846c0.216,0,0.342-0.018,0.459-0.054    l0.035,0.603c-0.152,0.054-0.396,0.108-0.701,0.108c-0.369,0-0.666-0.126-0.855-0.333c-0.216-0.243-0.306-0.63-0.306-1.143V2.413    h-0.675V1.81h0.675V1.008L306.625,0.765z"/>
		<path d="M309.027,1.071c-0.289,0-0.478-0.225-0.478-0.486c0-0.279,0.198-0.495,0.495-0.495c0.288,0,0.486,0.216,0.486,0.495    c0,0.261-0.189,0.486-0.495,0.486H309.027z M308.648,6.167V1.81h0.793v4.357H308.648z"/>
		<path d="M312.572,6.266c-1.17,0-2.088-0.864-2.088-2.242c0-1.458,0.963-2.314,2.16-2.314c1.251,0,2.098,0.91,2.098,2.233    c0,1.621-1.125,2.323-2.16,2.323H312.572z M312.608,5.672c0.757,0,1.323-0.711,1.323-1.702c0-0.738-0.369-1.666-1.305-1.666    c-0.928,0-1.333,0.864-1.333,1.693c0,0.954,0.54,1.674,1.306,1.674H312.608z"/>
		<path d="M315.799,2.989c0-0.459-0.01-0.819-0.037-1.18h0.703l0.045,0.711h0.018c0.217-0.405,0.721-0.811,1.44-0.811    c0.604,0,1.54,0.36,1.54,1.855v2.602h-0.793V3.655c0-0.702-0.261-1.296-1.008-1.296c-0.514,0-0.918,0.369-1.062,0.81    c-0.036,0.099-0.055,0.243-0.055,0.369v2.629h-0.791V2.989z"/>
		<path d="M320.666,5.357c0.242,0.144,0.656,0.306,1.053,0.306c0.566,0,0.838-0.279,0.838-0.648c0-0.378-0.226-0.576-0.802-0.792    c-0.792-0.288-1.161-0.72-1.161-1.233c0-0.703,0.576-1.279,1.503-1.279c0.441,0,0.828,0.117,1.062,0.271l-0.188,0.567    c-0.172-0.099-0.486-0.252-0.893-0.252c-0.467,0-0.72,0.27-0.72,0.594c0,0.36,0.253,0.522,0.819,0.747    c0.747,0.279,1.144,0.657,1.144,1.306c0,0.774-0.604,1.314-1.62,1.314c-0.478,0-0.919-0.126-1.225-0.306L320.666,5.357z"/>
		<path d="M221.01,17.708l3.367-4.925v-0.027h-3.079v-0.657h4.097v0.477l-3.35,4.907v0.027h3.395v0.657h-4.43V17.708z"/>
		<path d="M226.785,16.132c0.019,1.062,0.693,1.503,1.486,1.503c0.566,0,0.918-0.099,1.206-0.225l0.144,0.567    c-0.279,0.126-0.766,0.279-1.458,0.279c-1.333,0-2.143-0.891-2.143-2.196c0-1.314,0.783-2.35,2.052-2.35    c1.423,0,1.792,1.251,1.792,2.053c0,0.162-0.009,0.279-0.026,0.369H226.785z M229.1,15.565c0.009-0.504-0.207-1.288-1.09-1.288    c-0.811,0-1.152,0.738-1.215,1.288H229.1z"/>
		<path d="M230.896,15.168c0-0.513-0.009-0.954-0.036-1.359h0.693l0.036,0.855h0.026c0.199-0.585,0.685-0.955,1.216-0.955    c0.081,0,0.144,0.009,0.216,0.018v0.748c-0.08-0.009-0.162-0.018-0.27-0.018c-0.559,0-0.955,0.423-1.062,1.008    c-0.018,0.117-0.027,0.243-0.027,0.369v2.332h-0.792V15.168z"/>
		<path d="M235.621,18.266c-1.171,0-2.089-0.864-2.089-2.242c0-1.458,0.963-2.314,2.161-2.314c1.25,0,2.098,0.91,2.098,2.233    c0,1.621-1.126,2.323-2.161,2.323H235.621z M235.656,17.671c0.757,0,1.324-0.711,1.324-1.702c0-0.738-0.369-1.666-1.306-1.666    c-0.927,0-1.333,0.864-1.333,1.693c0,0.954,0.541,1.674,1.306,1.674H235.656z"/>
		<path d="M240.907,15.448v0.576h-2.224v-0.576H240.907z"/>
		<path d="M241.776,17.356c0.243,0.144,0.657,0.306,1.054,0.306c0.566,0,0.837-0.279,0.837-0.648c0-0.378-0.226-0.576-0.802-0.792    c-0.792-0.288-1.161-0.72-1.161-1.233c0-0.703,0.576-1.279,1.503-1.279c0.441,0,0.829,0.117,1.062,0.271l-0.188,0.567    c-0.171-0.099-0.486-0.252-0.892-0.252c-0.468,0-0.721,0.27-0.721,0.594c0,0.36,0.253,0.522,0.82,0.747    c0.747,0.279,1.143,0.657,1.143,1.306c0,0.774-0.604,1.314-1.62,1.314c-0.478,0-0.919-0.126-1.225-0.306L241.776,17.356z"/>
		<path d="M249.07,16.969c0,0.459,0.009,0.855,0.035,1.197h-0.701l-0.045-0.711h-0.019c-0.198,0.352-0.667,0.811-1.44,0.811    c-0.685,0-1.504-0.387-1.504-1.909v-2.548h0.793v2.404c0,0.828,0.261,1.396,0.972,1.396c0.531,0,0.9-0.369,1.044-0.729    c0.045-0.108,0.072-0.252,0.072-0.405v-2.665h0.793V16.969z"/>
		<path d="M250.404,14.989c0-0.459-0.018-0.819-0.036-1.18h0.693l0.036,0.702h0.027c0.242-0.414,0.647-0.801,1.377-0.801    c0.585,0,1.035,0.36,1.225,0.874h0.018c0.135-0.252,0.315-0.432,0.495-0.567c0.261-0.198,0.54-0.306,0.954-0.306    c0.586,0,1.441,0.378,1.441,1.891v2.566h-0.775V15.7c0-0.846-0.314-1.341-0.945-1.341c-0.459,0-0.801,0.333-0.945,0.711    c-0.035,0.117-0.062,0.261-0.062,0.396v2.701h-0.774v-2.62c0-0.693-0.306-1.188-0.909-1.188c-0.486,0-0.855,0.396-0.98,0.792    c-0.046,0.117-0.063,0.252-0.063,0.387v2.629h-0.774V14.989z"/>
		<path d="M259.818,15.231c0-0.558-0.01-1.008-0.037-1.422h0.712l0.045,0.748h0.019c0.314-0.541,0.836-0.847,1.539-0.847    c1.062,0,1.854,0.892,1.854,2.215c0,1.566-0.964,2.341-1.981,2.341c-0.584,0-1.08-0.252-1.341-0.684h-0.019v2.368h-0.791V15.231z     M260.609,16.393c0,0.108,0.01,0.225,0.037,0.324c0.135,0.549,0.621,0.927,1.18,0.927c0.836,0,1.322-0.685,1.322-1.684    c0-0.874-0.449-1.621-1.287-1.621c-0.54,0-1.053,0.378-1.206,0.981c-0.019,0.099-0.046,0.216-0.046,0.315V16.393z"/>
		<path d="M265.519,16.132c0.019,1.062,0.692,1.503,1.485,1.503c0.567,0,0.918-0.099,1.207-0.225l0.144,0.567    c-0.279,0.126-0.766,0.279-1.458,0.279c-1.333,0-2.143-0.891-2.143-2.196c0-1.314,0.783-2.35,2.052-2.35    c1.423,0,1.792,1.251,1.792,2.053c0,0.162-0.01,0.279-0.027,0.369H265.519z M267.832,15.565c0.01-0.504-0.207-1.288-1.09-1.288    c-0.81,0-1.152,0.738-1.215,1.288H267.832z"/>
		<path d="M269.629,15.168c0-0.513-0.01-0.954-0.037-1.359h0.693l0.037,0.855h0.026c0.198-0.585,0.685-0.955,1.216-0.955    c0.08,0,0.144,0.009,0.215,0.018v0.748c-0.08-0.009-0.161-0.018-0.27-0.018c-0.559,0-0.954,0.423-1.062,1.008    c-0.018,0.117-0.027,0.243-0.027,0.369v2.332h-0.791V15.168z"/>
		<path d="M275.666,18.004c-0.207,0.099-0.666,0.252-1.252,0.252c-1.314,0-2.169-0.891-2.169-2.224c0-1.341,0.918-2.323,2.341-2.323    c0.468,0,0.882,0.117,1.098,0.234l-0.18,0.603c-0.189-0.099-0.486-0.207-0.918-0.207c-1,0-1.539,0.747-1.539,1.647    c0,1.008,0.647,1.629,1.512,1.629c0.45,0,0.747-0.108,0.973-0.207L275.666,18.004z"/>
		<path d="M276.979,16.132c0.018,1.062,0.693,1.503,1.484,1.503c0.568,0,0.919-0.099,1.207-0.225l0.145,0.567    c-0.279,0.126-0.766,0.279-1.459,0.279c-1.332,0-2.143-0.891-2.143-2.196c0-1.314,0.783-2.35,2.053-2.35    c1.422,0,1.791,1.251,1.791,2.053c0,0.162-0.009,0.279-0.027,0.369H276.979z M279.291,15.565c0.01-0.504-0.207-1.288-1.089-1.288    c-0.81,0-1.152,0.738-1.216,1.288H279.291z"/>
		<path d="M281.088,15.231c0-0.558-0.008-1.008-0.035-1.422h0.711l0.045,0.748h0.018c0.315-0.541,0.838-0.847,1.54-0.847    c1.062,0,1.854,0.892,1.854,2.215c0,1.566-0.963,2.341-1.98,2.341c-0.586,0-1.08-0.252-1.342-0.684h-0.018v2.368h-0.793V15.231z     M281.881,16.393c0,0.108,0.009,0.225,0.035,0.324c0.136,0.549,0.621,0.927,1.18,0.927c0.838,0,1.324-0.685,1.324-1.684    c0-0.874-0.451-1.621-1.288-1.621c-0.54,0-1.054,0.378-1.206,0.981c-0.018,0.099-0.045,0.216-0.045,0.315V16.393z"/>
		<path d="M287.201,12.765v1.044h1.135v0.604h-1.135v2.34c0,0.541,0.154,0.846,0.595,0.846c0.216,0,0.343-0.018,0.46-0.054    l0.035,0.603c-0.152,0.054-0.396,0.108-0.702,0.108c-0.369,0-0.666-0.126-0.854-0.333c-0.217-0.243-0.307-0.63-0.307-1.143v-2.368    h-0.676v-0.604h0.676v-0.801L287.201,12.765z"/>
		<path d="M289.604,13.071c-0.288,0-0.478-0.225-0.478-0.486c0-0.279,0.199-0.495,0.496-0.495c0.287,0,0.486,0.216,0.486,0.495    c0,0.261-0.189,0.486-0.496,0.486H289.604z M289.227,18.167v-4.357h0.792v4.357H289.227z"/>
		<path d="M293.15,18.266c-1.17,0-2.088-0.864-2.088-2.242c0-1.458,0.963-2.314,2.16-2.314c1.251,0,2.098,0.91,2.098,2.233    c0,1.621-1.125,2.323-2.16,2.323H293.15z M293.187,17.671c0.757,0,1.323-0.711,1.323-1.702c0-0.738-0.369-1.666-1.305-1.666    c-0.928,0-1.333,0.864-1.333,1.693c0,0.954,0.54,1.674,1.306,1.674H293.187z"/>
		<path d="M296.376,14.989c0-0.459-0.009-0.819-0.036-1.18h0.702l0.046,0.711h0.018c0.216-0.405,0.72-0.811,1.439-0.811    c0.604,0,1.54,0.36,1.54,1.855v2.602h-0.792v-2.512c0-0.702-0.262-1.296-1.008-1.296c-0.514,0-0.919,0.369-1.062,0.81    c-0.037,0.099-0.055,0.243-0.055,0.369v2.629h-0.792V14.989z"/>
		<path d="M301.244,17.356c0.242,0.144,0.656,0.306,1.053,0.306c0.566,0,0.838-0.279,0.838-0.648c0-0.378-0.226-0.576-0.802-0.792    c-0.792-0.288-1.161-0.72-1.161-1.233c0-0.703,0.576-1.279,1.503-1.279c0.441,0,0.829,0.117,1.062,0.271l-0.188,0.567    c-0.172-0.099-0.486-0.252-0.893-0.252c-0.467,0-0.72,0.27-0.72,0.594c0,0.36,0.253,0.522,0.819,0.747    c0.748,0.279,1.144,0.657,1.144,1.306c0,0.774-0.604,1.314-1.62,1.314c-0.478,0-0.919-0.126-1.225-0.306L301.244,17.356z"/>
	</g>
	<circle cx="205.492" cy="4.421" r="1.75"/>
	
		<line fill="none" stroke="#000000" stroke-linejoin="round" stroke-miterlimit="10" x1="193.492" y1="16.421" x2="217.492" y2="16.421"/>
	<circle cx="205.492" cy="16.421" r="1.75"/>
	<g>
		<g>
			<line fill="none" stroke="#000000" stroke-linejoin="round" x1="193.492" y1="4.421" x2="194.992" y2="4.421"/>
			
				<line fill="none" stroke="#000000" stroke-linejoin="round" stroke-dasharray="2.8636,1.9091" x1="196.901" y1="4.421" x2="215.038" y2="4.421"/>
			<line fill="none" stroke="#000000" stroke-linejoin="round" x1="215.992" y1="4.421" x2="217.492" y2="4.421"/>
		</g>
	</g>
	<path fill="none" stroke="#000000" stroke-width="0.5" stroke-linejoin="round" stroke-miterlimit="10" d="M51.219,98.305h4.039    M51.219,139.542h4.039 M53.319,118.814V98.305 M53.319,139.542v-20.729"/>
	<path fill="none" stroke="#000000" stroke-width="0.5" stroke-linejoin="round" stroke-miterlimit="10" d="M133.183,42.014h3.971    M133.183,83.228h3.971 M135.121,62.523V42.014 M135.121,83.228V62.523"/>
	<path fill="none" stroke="#000000" stroke-width="0.5" stroke-linejoin="round" stroke-miterlimit="10" d="M51.219,32.632h4.039    M51.219,73.839h4.039 M53.319,53.141V32.632 M53.319,73.839V53.141"/>
	<path fill="none" stroke="#000000" stroke-width="0.5" stroke-linejoin="round" stroke-miterlimit="10" d="M133.183,71.905h3.971    M133.183,113.271h3.971 M135.121,92.632V71.905 M135.121,113.271V92.632"/>
	<g>
		<g>
			<line fill="none" stroke="#000000" stroke-linejoin="round" x1="53.319" y1="118.814" x2="54.555" y2="117.964"/>
			
				<line fill="none" stroke="#000000" stroke-linejoin="round" stroke-dasharray="2.9783,1.9855" x1="56.191" y1="116.838" x2="133.067" y2="63.936"/>
			<line fill="none" stroke="#000000" stroke-linejoin="round" x1="133.885" y1="63.373" x2="135.121" y2="62.523"/>
		</g>
	</g>
	
		<line fill="none" stroke="#000000" stroke-linecap="round" stroke-linejoin="round" stroke-miterlimit="10" x1="53.319" y1="53.141" x2="135.121" y2="92.617"/>
	<path d="M240.065,79.572h4.107 M240.065,120.75h4.107 M242.038,100.162v-20.59 M242.038,120.75v-20.588"/>
	<path fill="none" stroke="#000000" stroke-width="0.5" stroke-linejoin="round" stroke-miterlimit="10" d="M240.065,79.572h4.107    M240.065,120.75h4.107 M242.038,100.162v-20.59 M242.038,120.75v-20.588"/>
	<path d="M322.005,36.333h4.076 M322.005,77.513h4.076 M323.977,56.923v-20.59 M323.977,77.513v-20.59"/>
	<path fill="none" stroke="#000000" stroke-width="0.5" stroke-linejoin="round" stroke-miterlimit="10" d="M322.005,36.333h4.076    M322.005,77.513h4.076 M323.977,56.923v-20.59 M323.977,77.513v-20.59"/>
	<path d="M240.065,51.433h4.107 M240.065,92.611h4.107 M242.038,72.023v-20.59 M242.038,92.611V72.023"/>
	<path fill="none" stroke="#000000" stroke-width="0.5" stroke-linejoin="round" stroke-miterlimit="10" d="M240.065,51.433h4.107    M240.065,92.611h4.107 M242.038,72.023v-20.59 M242.038,92.611V72.023"/>
	<path d="M322.005,77.513h4.076 M322.005,118.914h4.076 M323.977,98.332V77.513 M323.977,118.914V98.332"/>
	<path fill="none" stroke="#000000" stroke-width="0.5" stroke-linejoin="round" stroke-miterlimit="10" d="M322.005,77.513h4.076    M322.005,118.914h4.076 M323.977,98.332V77.513 M323.977,118.914V98.332"/>
	<g>
		<g>
			<line fill="none" stroke="#000000" stroke-linejoin="round" x1="242.038" y1="100.146" x2="243.365" y2="99.446"/>
			
				<line fill="none" stroke="#000000" stroke-linejoin="round" stroke-dasharray="2.923,1.9487" x1="245.088" y1="98.537" x2="321.788" y2="58.078"/>
			<line fill="none" stroke="#000000" stroke-linejoin="round" x1="322.649" y1="57.623" x2="323.977" y2="56.923"/>
		</g>
	</g>
	
		<line fill="none" stroke="#000000" stroke-linecap="round" stroke-linejoin="round" stroke-miterlimit="10" x1="242.038" y1="72.023" x2="323.977" y2="98.269"/>
</g>
</svg>