<svg xmlns="http://www.w3.org/2000/svg" xmlns:xlink="http://www.w3.org/1999/xlink" version="1.1" x="0px" y="0px" width="304.564px" height="146.773px" viewBox="0 0 304.564 146.773" enable-background="new 0 0 304.564 146.773" xml:space="preserve">
<g id="wide" display="none">
</g>
<g id="text_column">
</g>
<g id="art">
	
		<line fill="none" stroke="#A7A9AC" stroke-width="0.5" stroke-linejoin="round" stroke-miterlimit="10" x1="49.999" y1="24.577" x2="199.215" y2="24.577"/>
	
		<line fill="none" stroke="#A7A9AC" stroke-width="0.5" stroke-linejoin="round" stroke-miterlimit="10" x1="49.999" y1="46.574" x2="199.215" y2="46.574"/>
	
		<line fill="none" stroke="#A7A9AC" stroke-width="0.5" stroke-linejoin="round" stroke-miterlimit="10" x1="49.999" y1="68.57" x2="199.215" y2="68.57"/>
	
		<line fill="none" stroke="#A7A9AC" stroke-width="0.5" stroke-linejoin="round" stroke-miterlimit="10" x1="49.999" y1="90.567" x2="199.215" y2="90.567"/>
	
		<line fill="none" stroke="#A7A9AC" stroke-width="0.5" stroke-linejoin="round" stroke-miterlimit="10" x1="49.999" y1="112.564" x2="199.215" y2="112.564"/>
	
		<line fill="none" stroke="#000000" stroke-width="0.5" stroke-linejoin="round" stroke-miterlimit="10" x1="50.074" y1="134.562" x2="199.215" y2="134.562"/>
	<g>
		<path d="M31.562,5.389V4.957l0.552-0.536c1.327-1.263,1.935-1.935,1.935-2.718c0-0.528-0.248-1.016-1.023-1.016    c-0.472,0-0.864,0.239-1.104,0.439l-0.224-0.496c0.352-0.295,0.872-0.527,1.471-0.527c1.111,0,1.583,0.768,1.583,1.512    c0,0.959-0.695,1.734-1.791,2.79l-0.408,0.384v0.016h2.327v0.584H31.562z"/>
		<path d="M36.185,5.477c-0.271,0-0.464-0.216-0.464-0.504c0-0.287,0.2-0.504,0.48-0.504s0.472,0.208,0.472,0.504    c0,0.288-0.192,0.504-0.479,0.504H36.185z"/>
		<path d="M40.695,0.191v0.464l-2.263,4.733h-0.72l2.247-4.598V0.775h-2.543V0.191H40.695z"/>
		<path d="M43.081,5.477c-1.016,0-1.711-0.951-1.728-2.671c0-1.751,0.76-2.702,1.815-2.702c1.087,0,1.719,0.976,1.719,2.631    c0,1.767-0.664,2.742-1.799,2.742H43.081z M43.12,4.933c0.712,0,1.056-0.839,1.056-2.167c0-1.279-0.32-2.118-1.056-2.118    c-0.64,0-1.055,0.815-1.055,2.118c-0.016,1.352,0.4,2.167,1.047,2.167H43.12z"/>
		<path d="M31.562,27.389v-0.432l0.552-0.536c1.327-1.263,1.935-1.935,1.935-2.718c0-0.528-0.248-1.016-1.023-1.016    c-0.472,0-0.864,0.239-1.104,0.439l-0.224-0.496c0.352-0.295,0.872-0.527,1.471-0.527c1.111,0,1.583,0.768,1.583,1.512    c0,0.959-0.695,1.734-1.791,2.79l-0.408,0.384v0.016h2.327v0.584H31.562z"/>
		<path d="M36.185,27.477c-0.271,0-0.464-0.216-0.464-0.504c0-0.287,0.2-0.504,0.48-0.504s0.472,0.208,0.472,0.504    c0,0.288-0.192,0.504-0.479,0.504H36.185z"/>
		<path d="M40.423,22.783H38.44l-0.2,1.335c0.12-0.016,0.232-0.031,0.424-0.031c0.408,0,0.799,0.088,1.119,0.279    c0.408,0.224,0.744,0.68,0.744,1.335c0,1.016-0.808,1.775-1.935,1.775c-0.567,0-1.039-0.16-1.295-0.319l0.176-0.536    c0.216,0.128,0.64,0.288,1.119,0.288c0.656,0,1.231-0.432,1.224-1.136c0-0.663-0.456-1.144-1.487-1.144    c-0.304,0-0.536,0.024-0.728,0.057l0.336-2.495h2.486V22.783z"/>
		<path d="M43.081,27.477c-1.016,0-1.711-0.951-1.728-2.671c0-1.751,0.76-2.702,1.815-2.702c1.087,0,1.719,0.976,1.719,2.631    c0,1.767-0.664,2.742-1.799,2.742H43.081z M43.12,26.933c0.712,0,1.056-0.839,1.056-2.167c0-1.279-0.32-2.118-1.056-2.118    c-0.64,0-1.055,0.815-1.055,2.118c-0.016,1.352,0.4,2.167,1.047,2.167H43.12z"/>
		<path d="M31.562,49.389v-0.432l0.552-0.536c1.327-1.263,1.935-1.935,1.935-2.718c0-0.528-0.248-1.016-1.023-1.016    c-0.472,0-0.864,0.239-1.104,0.439l-0.224-0.496c0.352-0.295,0.872-0.527,1.471-0.527c1.111,0,1.583,0.768,1.583,1.512    c0,0.959-0.695,1.734-1.791,2.79l-0.408,0.384v0.016h2.327v0.584H31.562z"/>
		<path d="M36.185,49.477c-0.271,0-0.464-0.216-0.464-0.504c0-0.287,0.2-0.504,0.48-0.504s0.472,0.208,0.472,0.504    c0,0.288-0.192,0.504-0.479,0.504H36.185z"/>
		<path d="M37.489,48.589c0.2,0.12,0.656,0.32,1.151,0.32c0.896,0,1.183-0.568,1.175-1.008c-0.008-0.728-0.664-1.039-1.343-1.039    h-0.392v-0.528h0.392c0.512,0,1.159-0.264,1.159-0.879c0-0.416-0.264-0.784-0.912-0.784c-0.416,0-0.815,0.185-1.039,0.344    l-0.192-0.512c0.28-0.199,0.808-0.399,1.367-0.399c1.023,0,1.487,0.607,1.487,1.239c0,0.544-0.328,1-0.959,1.231v0.016    c0.64,0.12,1.159,0.6,1.159,1.328c0,0.831-0.656,1.559-1.895,1.559c-0.583,0-1.095-0.184-1.351-0.352L37.489,48.589z"/>
		<path d="M43.081,49.477c-1.016,0-1.711-0.951-1.728-2.671c0-1.751,0.76-2.702,1.815-2.702c1.087,0,1.719,0.976,1.719,2.631    c0,1.767-0.664,2.742-1.799,2.742H43.081z M43.12,48.933c0.712,0,1.056-0.839,1.056-2.167c0-1.279-0.32-2.118-1.056-2.118    c-0.64,0-1.055,0.815-1.055,2.118c-0.016,1.352,0.4,2.167,1.047,2.167H43.12z"/>
		<path d="M31.562,71.389v-0.432l0.552-0.536c1.327-1.263,1.935-1.935,1.935-2.718c0-0.528-0.248-1.016-1.023-1.016    c-0.472,0-0.864,0.239-1.104,0.439l-0.224-0.496c0.352-0.295,0.872-0.527,1.471-0.527c1.111,0,1.583,0.768,1.583,1.512    c0,0.959-0.695,1.734-1.791,2.79l-0.408,0.384v0.016h2.327v0.584H31.562z"/>
		<path d="M36.185,71.477c-0.271,0-0.464-0.216-0.464-0.504c0-0.287,0.2-0.504,0.48-0.504s0.472,0.208,0.472,0.504    c0,0.288-0.192,0.504-0.479,0.504H36.185z"/>
		<path d="M38.848,66.848h-0.016l-0.904,0.487l-0.136-0.536l1.135-0.607h0.6v5.197h-0.68V66.848z"/>
		<path d="M43.081,71.477c-1.016,0-1.711-0.951-1.728-2.671c0-1.751,0.76-2.702,1.815-2.702c1.087,0,1.719,0.976,1.719,2.631    c0,1.767-0.664,2.742-1.799,2.742H43.081z M43.12,70.933c0.712,0,1.056-0.839,1.056-2.167c0-1.279-0.32-2.118-1.056-2.118    c-0.64,0-1.055,0.815-1.055,2.118c-0.016,1.352,0.4,2.167,1.047,2.167H43.12z"/>
		<path d="M33.088,88.848h-0.016l-0.904,0.487l-0.136-0.536l1.135-0.607h0.6v5.197h-0.68V88.848z"/>
		<path d="M36.185,93.477c-0.271,0-0.464-0.216-0.464-0.504c0-0.287,0.2-0.504,0.48-0.504s0.472,0.208,0.472,0.504    c0,0.288-0.192,0.504-0.479,0.504H36.185z"/>
		<path d="M37.729,92.893c0.152,0.009,0.328,0,0.568-0.031c0.408-0.049,0.792-0.216,1.087-0.496c0.344-0.32,0.591-0.768,0.688-1.383    h-0.024c-0.288,0.352-0.704,0.56-1.231,0.56c-0.936,0-1.535-0.704-1.535-1.6c0-0.976,0.72-1.839,1.783-1.839    c1.063,0,1.719,0.855,1.719,2.19c0,1.144-0.384,1.943-0.896,2.439c-0.4,0.384-0.951,0.631-1.511,0.695    c-0.256,0.032-0.487,0.048-0.647,0.04V92.893z M39,88.64c-0.592,0-1.016,0.527-1.016,1.263c0,0.647,0.392,1.104,1,1.104    c0.472,0,0.839-0.231,1.031-0.544c0.032-0.063,0.056-0.144,0.056-0.256c0.008-0.896-0.328-1.566-1.063-1.566H39z"/>
		<path d="M43.081,93.477c-1.016,0-1.711-0.951-1.728-2.671c0-1.751,0.76-2.702,1.815-2.702c1.087,0,1.719,0.976,1.719,2.631    c0,1.767-0.664,2.742-1.799,2.742H43.081z M43.12,92.933c0.712,0,1.056-0.839,1.056-2.167c0-1.279-0.32-2.118-1.056-2.118    c-0.64,0-1.055,0.815-1.055,2.118c-0.016,1.352,0.4,2.167,1.047,2.167H43.12z"/>
		<path d="M33.088,110.848h-0.016l-0.904,0.487l-0.136-0.536l1.135-0.607h0.6v5.197h-0.68V110.848z"/>
		<path d="M36.185,115.477c-0.271,0-0.464-0.216-0.464-0.504c0-0.287,0.2-0.504,0.48-0.504s0.472,0.208,0.472,0.504    c0,0.288-0.192,0.504-0.479,0.504H36.185z"/>
		<path d="M40.695,110.191v0.464l-2.263,4.733h-0.72l2.247-4.598v-0.016h-2.543v-0.584H40.695z"/>
		<path d="M43.081,115.477c-1.016,0-1.711-0.951-1.728-2.671c0-1.751,0.76-2.702,1.815-2.702c1.087,0,1.719,0.976,1.719,2.631    c0,1.767-0.664,2.742-1.799,2.742H43.081z M43.12,114.933c0.712,0,1.056-0.839,1.056-2.167c0-1.279-0.32-2.118-1.056-2.118    c-0.64,0-1.055,0.815-1.055,2.118c-0.016,1.352,0.4,2.167,1.047,2.167H43.12z"/>
		<path d="M33.088,132.848h-0.016l-0.904,0.487l-0.136-0.536l1.135-0.607h0.6v5.197h-0.68V132.848z"/>
		<path d="M36.185,137.477c-0.271,0-0.464-0.216-0.464-0.504c0-0.287,0.2-0.504,0.48-0.504s0.472,0.208,0.472,0.504    c0,0.288-0.192,0.504-0.479,0.504H36.185z"/>
		<path d="M40.423,132.783H38.44l-0.2,1.335c0.12-0.016,0.232-0.031,0.424-0.031c0.408,0,0.799,0.088,1.119,0.279    c0.408,0.224,0.744,0.68,0.744,1.335c0,1.016-0.808,1.775-1.935,1.775c-0.567,0-1.039-0.16-1.295-0.319l0.176-0.536    c0.216,0.128,0.64,0.288,1.119,0.288c0.656,0,1.231-0.432,1.224-1.136c0-0.663-0.456-1.144-1.487-1.144    c-0.304,0-0.536,0.024-0.728,0.057l0.336-2.495h2.486V132.783z"/>
		<path d="M43.081,137.477c-1.016,0-1.711-0.951-1.728-2.671c0-1.751,0.76-2.702,1.815-2.702c1.087,0,1.719,0.976,1.719,2.631    c0,1.767-0.664,2.742-1.799,2.742H43.081z M43.12,136.933c0.712,0,1.056-0.839,1.056-2.167c0-1.279-0.32-2.118-1.056-2.118    c-0.64,0-1.055,0.815-1.055,2.118c-0.016,1.352,0.4,2.167,1.047,2.167H43.12z"/>
	</g>
	<g>
		<path d="M60.416,141.368c0.335-0.063,0.775-0.111,1.335-0.111c0.688,0,1.191,0.159,1.511,0.447c0.296,0.256,0.48,0.647,0.48,1.119    c0,0.488-0.144,0.872-0.424,1.151c-0.368,0.393-0.968,0.592-1.647,0.592c-0.208,0-0.399-0.008-0.56-0.048v2.167h-0.695V141.368z     M61.111,143.951c0.152,0.04,0.344,0.056,0.576,0.056c0.839,0,1.351-0.407,1.351-1.144c0-0.711-0.503-1.055-1.271-1.055    c-0.304,0-0.536,0.023-0.656,0.056V143.951z"/>
		<path d="M64.647,144.023c0-0.456-0.008-0.848-0.032-1.208h0.616l0.032,0.76h0.024c0.176-0.52,0.608-0.848,1.08-0.848    c0.072,0,0.128,0.008,0.192,0.017v0.663c-0.072-0.008-0.144-0.016-0.24-0.016c-0.496,0-0.848,0.376-0.944,0.896    c-0.016,0.104-0.024,0.216-0.024,0.327v2.071h-0.704V144.023z"/>
		<path d="M67.664,144.879c0.016,0.943,0.616,1.335,1.319,1.335c0.504,0,0.815-0.088,1.071-0.2l0.128,0.504    c-0.248,0.112-0.68,0.248-1.295,0.248c-1.183,0-1.903-0.792-1.903-1.951c0-1.167,0.696-2.087,1.823-2.087    c1.263,0,1.591,1.111,1.591,1.823c0,0.144-0.008,0.248-0.024,0.328H67.664z M69.719,144.375c0.008-0.448-0.184-1.144-0.968-1.144    c-0.72,0-1.023,0.655-1.079,1.144H69.719z"/>
		<path d="M72.903,144.271v0.512h-1.975v-0.512H72.903z"/>
		<path d="M74.127,144.879c0.016,0.943,0.616,1.335,1.319,1.335c0.504,0,0.815-0.088,1.071-0.2l0.128,0.504    c-0.248,0.112-0.68,0.248-1.295,0.248c-1.183,0-1.903-0.792-1.903-1.951c0-1.167,0.696-2.087,1.823-2.087    c1.263,0,1.591,1.111,1.591,1.823c0,0.144-0.008,0.248-0.024,0.328H74.127z M76.183,144.375c0.008-0.448-0.184-1.144-0.968-1.144    c-0.72,0-1.023,0.655-1.079,1.144H76.183z"/>
		<path d="M77.735,141.009h0.704v5.677h-0.704V141.009z"/>
		<path d="M80.023,144.879c0.016,0.943,0.616,1.335,1.319,1.335c0.504,0,0.815-0.088,1.071-0.2l0.128,0.504    c-0.248,0.112-0.68,0.248-1.295,0.248c-1.184,0-1.903-0.792-1.903-1.951c0-1.167,0.696-2.087,1.823-2.087    c1.263,0,1.591,1.111,1.591,1.823c0,0.144-0.008,0.248-0.024,0.328H80.023z M82.078,144.375c0.008-0.448-0.184-1.144-0.967-1.144    c-0.72,0-1.023,0.655-1.08,1.144H82.078z"/>
		<path d="M86.39,146.542c-0.184,0.088-0.592,0.224-1.111,0.224c-1.167,0-1.927-0.792-1.927-1.975c0-1.191,0.815-2.063,2.079-2.063    c0.416,0,0.783,0.104,0.976,0.208l-0.16,0.536c-0.168-0.088-0.432-0.185-0.815-0.185c-0.888,0-1.367,0.664-1.367,1.464    c0,0.896,0.576,1.447,1.343,1.447c0.399,0,0.664-0.097,0.863-0.185L86.39,146.542z"/>
		<path d="M88.063,141.888v0.928h1.007v0.536h-1.007v2.079c0,0.479,0.136,0.751,0.528,0.751c0.192,0,0.304-0.016,0.408-0.048    l0.032,0.536c-0.136,0.048-0.352,0.096-0.624,0.096c-0.328,0-0.591-0.112-0.759-0.296c-0.192-0.216-0.272-0.56-0.272-1.016v-2.103    h-0.6v-0.536h0.6v-0.711L88.063,141.888z"/>
		<path d="M90.199,142.16c-0.256,0-0.424-0.2-0.424-0.432c0-0.248,0.176-0.44,0.44-0.44c0.256,0,0.432,0.192,0.432,0.44    c0,0.231-0.168,0.432-0.44,0.432H90.199z M89.863,146.686v-3.87h0.704v3.87H89.863z"/>
		<path d="M93.31,146.773c-1.04,0-1.855-0.768-1.855-1.991c0-1.295,0.855-2.055,1.919-2.055c1.111,0,1.863,0.808,1.863,1.983    c0,1.438-1,2.062-1.919,2.062H93.31z M93.342,146.246c0.671,0,1.175-0.632,1.175-1.512c0-0.655-0.328-1.479-1.159-1.479    c-0.824,0-1.184,0.768-1.184,1.503c0,0.848,0.479,1.487,1.159,1.487H93.342z"/>
		<path d="M96.127,143.863c0-0.408-0.008-0.728-0.032-1.048h0.624l0.04,0.632h0.016c0.192-0.359,0.64-0.72,1.279-0.72    c0.536,0,1.367,0.32,1.367,1.647v2.311h-0.704v-2.23c0-0.624-0.232-1.151-0.896-1.151c-0.456,0-0.815,0.327-0.943,0.72    c-0.032,0.088-0.048,0.216-0.048,0.327v2.335h-0.704V143.863z"/>
	</g>
	<g>
		<path d="M7.888,0h2.902v0.583H8.591v1.791h2.031V2.95H8.591v2.438H7.888V0z"/>
		<path d="M14.494,4.461c0,0.336,0.016,0.664,0.056,0.928h-0.632l-0.064-0.487h-0.024c-0.208,0.304-0.631,0.575-1.183,0.575    c-0.784,0-1.184-0.552-1.184-1.111c0-0.936,0.832-1.447,2.327-1.439v-0.08c0-0.319-0.088-0.903-0.879-0.896    c-0.368,0-0.744,0.104-1.016,0.288l-0.16-0.472c0.32-0.2,0.792-0.336,1.279-0.336c1.191,0,1.479,0.808,1.479,1.583V4.461z     M13.807,3.414c-0.768-0.017-1.639,0.12-1.639,0.871c0,0.464,0.304,0.672,0.656,0.672c0.512,0,0.839-0.32,0.951-0.647    c0.024-0.072,0.032-0.152,0.032-0.225V3.414z"/>
		<path d="M15.896,1.519l0.76,2.167c0.128,0.36,0.232,0.68,0.312,0.999h0.024c0.088-0.319,0.2-0.639,0.328-0.999l0.751-2.167h0.736    l-1.52,3.87h-0.671l-1.471-3.87H15.896z"/>
		<path d="M21.046,5.477c-1.04,0-1.855-0.768-1.855-1.991c0-1.295,0.855-2.055,1.919-2.055c1.111,0,1.863,0.808,1.863,1.983    c0,1.438-1,2.062-1.919,2.062H21.046z M21.079,4.949c0.671,0,1.175-0.632,1.175-1.512c0-0.655-0.328-1.479-1.159-1.479    c-0.824,0-1.184,0.768-1.184,1.503c0,0.848,0.479,1.487,1.159,1.487H21.079z"/>
		<path d="M23.863,2.727c0-0.456-0.008-0.848-0.032-1.208h0.616l0.032,0.76h0.024c0.176-0.52,0.608-0.848,1.08-0.848    c0.072,0,0.128,0.008,0.192,0.017V2.11c-0.072-0.008-0.144-0.016-0.24-0.016c-0.496,0-0.848,0.376-0.944,0.896    c-0.016,0.104-0.024,0.216-0.024,0.327v2.071h-0.704V2.727z"/>
	</g>
	<g>
		<path d="M2.423,137.65c-1.431,0-2.423-1.104-2.423-2.734c0-1.711,1.056-2.83,2.495-2.83c1.479,0,2.431,1.127,2.431,2.726    c0,1.848-1.127,2.839-2.495,2.839H2.423z M2.463,137.083c1.104,0,1.727-1.016,1.727-2.239c0-1.071-0.56-2.19-1.719-2.19    c-1.159,0-1.735,1.079-1.735,2.247c0,1.135,0.624,2.183,1.719,2.183H2.463z"/>
		<path d="M5.808,134.956c0-0.496-0.008-0.896-0.032-1.264h0.632l0.04,0.664h0.016c0.28-0.479,0.744-0.752,1.367-0.752    c0.943,0,1.647,0.792,1.647,1.967c0,1.392-0.856,2.079-1.759,2.079c-0.52,0-0.959-0.224-1.191-0.607H6.512v2.103H5.808V134.956z     M6.512,135.987c0,0.096,0.008,0.2,0.032,0.288c0.12,0.487,0.552,0.823,1.047,0.823c0.744,0,1.175-0.607,1.175-1.495    c0-0.775-0.4-1.439-1.144-1.439c-0.479,0-0.935,0.336-1.071,0.872c-0.016,0.088-0.04,0.191-0.04,0.279V135.987z"/>
		<path d="M10.36,134.956c0-0.496-0.008-0.896-0.032-1.264h0.632l0.04,0.664h0.016c0.28-0.479,0.744-0.752,1.367-0.752    c0.943,0,1.647,0.792,1.647,1.967c0,1.392-0.856,2.079-1.759,2.079c-0.52,0-0.959-0.224-1.191-0.607h-0.016v2.103H10.36V134.956z     M11.063,135.987c0,0.096,0.008,0.2,0.032,0.288c0.12,0.487,0.552,0.823,1.047,0.823c0.744,0,1.175-0.607,1.175-1.495    c0-0.775-0.4-1.439-1.144-1.439c-0.479,0-0.935,0.336-1.071,0.872c-0.016,0.088-0.04,0.191-0.04,0.279V135.987z"/>
		<path d="M16.487,137.65c-1.04,0-1.855-0.768-1.855-1.991c0-1.295,0.855-2.055,1.919-2.055c1.111,0,1.863,0.808,1.863,1.983    c0,1.438-1,2.062-1.919,2.062H16.487z M16.519,137.123c0.671,0,1.175-0.632,1.175-1.512c0-0.655-0.328-1.479-1.159-1.479    c-0.824,0-1.184,0.768-1.184,1.503c0,0.848,0.479,1.487,1.159,1.487H16.519z"/>
		<path d="M19.208,136.843c0.216,0.128,0.583,0.271,0.936,0.271c0.503,0,0.744-0.247,0.744-0.575c0-0.336-0.2-0.512-0.712-0.704    c-0.704-0.256-1.031-0.639-1.031-1.095c0-0.624,0.512-1.136,1.335-1.136c0.392,0,0.735,0.104,0.943,0.24l-0.168,0.504    c-0.152-0.088-0.432-0.225-0.792-0.225c-0.416,0-0.64,0.24-0.64,0.528c0,0.319,0.224,0.464,0.728,0.663    c0.664,0.248,1.015,0.584,1.015,1.16c0,0.688-0.536,1.167-1.439,1.167c-0.424,0-0.815-0.112-1.087-0.272L19.208,136.843z"/>
		<path d="M22.872,135.756c0.016,0.943,0.616,1.335,1.319,1.335c0.504,0,0.815-0.088,1.071-0.2l0.128,0.504    c-0.248,0.112-0.68,0.248-1.295,0.248c-1.183,0-1.903-0.792-1.903-1.951c0-1.167,0.696-2.087,1.823-2.087    c1.263,0,1.591,1.111,1.591,1.823c0,0.144-0.008,0.248-0.024,0.328H22.872z M24.927,135.252c0.008-0.448-0.184-1.144-0.968-1.144    c-0.72,0-1.023,0.655-1.079,1.144H24.927z"/>
	</g>
	
		<line fill="none" stroke="#000000" stroke-width="0.5" stroke-linejoin="round" stroke-miterlimit="10" x1="50.075" y1="134.562" x2="50.075" y2="2.58"/>
	
		<line fill="none" stroke="#000000" stroke-width="0.5" stroke-linejoin="round" stroke-miterlimit="10" x1="50.075" y1="24.562" x2="47.075" y2="24.562"/>
	
		<line fill="none" stroke="#000000" stroke-width="0.5" stroke-linejoin="round" stroke-miterlimit="10" x1="50.075" y1="46.561" x2="47.075" y2="46.561"/>
	
		<line fill="none" stroke="#A7A9AC" stroke-width="0.5" stroke-linejoin="round" stroke-miterlimit="10" x1="199.215" y1="2.58" x2="49.999" y2="2.58"/>
	
		<line fill="none" stroke="#000000" stroke-width="0.5" stroke-linejoin="round" stroke-miterlimit="10" x1="50.075" y1="2.562" x2="47.075" y2="2.562"/>
	
		<line fill="none" stroke="#000000" stroke-width="0.5" stroke-linejoin="round" stroke-miterlimit="10" x1="50.075" y1="68.561" x2="47.075" y2="68.561"/>
	
		<line fill="none" stroke="#000000" stroke-width="0.5" stroke-linejoin="round" stroke-miterlimit="10" x1="50.075" y1="90.561" x2="47.075" y2="90.561"/>
	
		<line fill="none" stroke="#000000" stroke-width="0.5" stroke-linejoin="round" stroke-miterlimit="10" x1="50.075" y1="112.561" x2="47.075" y2="112.561"/>
	
		<line fill="none" stroke="#000000" stroke-width="0.5" stroke-linejoin="round" stroke-miterlimit="10" x1="50.075" y1="134.562" x2="47.075" y2="134.562"/>
	
		<line fill="none" stroke="#000000" stroke-width="0.5" stroke-linejoin="round" stroke-miterlimit="10" x1="79.927" y1="134.562" x2="79.927" y2="137.562"/>
	<g>
		<path d="M147.943,141.368c0.335-0.063,0.775-0.111,1.335-0.111c0.688,0,1.191,0.159,1.511,0.447    c0.296,0.256,0.48,0.647,0.48,1.119c0,0.488-0.145,0.872-0.424,1.151c-0.368,0.393-0.968,0.592-1.647,0.592    c-0.208,0-0.399-0.008-0.56-0.048v2.167h-0.695V141.368z M148.639,143.951c0.152,0.04,0.344,0.056,0.576,0.056    c0.839,0,1.351-0.407,1.351-1.144c0-0.711-0.504-1.055-1.271-1.055c-0.304,0-0.536,0.023-0.656,0.056V143.951z"/>
		<path d="M153.75,146.773c-1.039,0-1.855-0.768-1.855-1.991c0-1.295,0.855-2.055,1.919-2.055c1.111,0,1.863,0.808,1.863,1.983    c0,1.438-0.999,2.062-1.919,2.062H153.75z M153.782,146.246c0.671,0,1.175-0.632,1.175-1.512c0-0.655-0.327-1.479-1.159-1.479    c-0.823,0-1.184,0.768-1.184,1.503c0,0.848,0.48,1.487,1.159,1.487H153.782z"/>
		<path d="M156.471,145.966c0.216,0.128,0.584,0.271,0.936,0.271c0.504,0,0.744-0.247,0.744-0.575c0-0.336-0.2-0.512-0.712-0.704    c-0.704-0.256-1.031-0.639-1.031-1.095c0-0.624,0.512-1.136,1.335-1.136c0.392,0,0.735,0.104,0.943,0.24l-0.168,0.504    c-0.151-0.088-0.432-0.225-0.791-0.225c-0.416,0-0.64,0.24-0.64,0.528c0,0.319,0.224,0.464,0.728,0.663    c0.663,0.248,1.016,0.584,1.016,1.16c0,0.688-0.536,1.167-1.439,1.167c-0.424,0-0.815-0.112-1.088-0.272L156.471,145.966z"/>
		<path d="M160.582,141.888v0.928h1.008v0.536h-1.008v2.079c0,0.479,0.137,0.751,0.528,0.751c0.191,0,0.304-0.016,0.407-0.048    l0.032,0.536c-0.136,0.048-0.352,0.096-0.624,0.096c-0.327,0-0.591-0.112-0.759-0.296c-0.192-0.216-0.272-0.56-0.272-1.016v-2.103    h-0.6v-0.536h0.6v-0.711L160.582,141.888z"/>
		<path d="M164.014,144.271v0.512h-1.975v-0.512H164.014z"/>
		<path d="M165.238,144.879c0.017,0.943,0.616,1.335,1.319,1.335c0.504,0,0.815-0.088,1.071-0.2l0.128,0.504    c-0.247,0.112-0.68,0.248-1.295,0.248c-1.184,0-1.903-0.792-1.903-1.951c0-1.167,0.696-2.087,1.823-2.087    c1.264,0,1.591,1.111,1.591,1.823c0,0.144-0.008,0.248-0.023,0.328H165.238z M167.294,144.375    c0.008-0.448-0.185-1.144-0.968-1.144c-0.72,0-1.023,0.655-1.079,1.144H167.294z"/>
		<path d="M168.847,141.009h0.703v5.677h-0.703V141.009z"/>
		<path d="M171.135,144.879c0.016,0.943,0.615,1.335,1.319,1.335c0.504,0,0.815-0.088,1.071-0.2l0.128,0.504    c-0.248,0.112-0.68,0.248-1.295,0.248c-1.184,0-1.903-0.792-1.903-1.951c0-1.167,0.695-2.087,1.823-2.087    c1.263,0,1.591,1.111,1.591,1.823c0,0.144-0.008,0.248-0.024,0.328H171.135z M173.189,144.375    c0.008-0.448-0.184-1.144-0.968-1.144c-0.72,0-1.023,0.655-1.079,1.144H173.189z"/>
		<path d="M177.501,146.542c-0.184,0.088-0.592,0.224-1.111,0.224c-1.167,0-1.927-0.792-1.927-1.975    c0-1.191,0.815-2.063,2.079-2.063c0.415,0,0.783,0.104,0.976,0.208l-0.16,0.536c-0.168-0.088-0.432-0.185-0.815-0.185    c-0.888,0-1.367,0.664-1.367,1.464c0,0.896,0.575,1.447,1.343,1.447c0.399,0,0.664-0.097,0.863-0.185L177.501,146.542z"/>
		<path d="M179.174,141.888v0.928h1.008v0.536h-1.008v2.079c0,0.479,0.137,0.751,0.528,0.751c0.191,0,0.304-0.016,0.407-0.048    l0.032,0.536c-0.136,0.048-0.352,0.096-0.624,0.096c-0.327,0-0.591-0.112-0.759-0.296c-0.192-0.216-0.272-0.56-0.272-1.016v-2.103    h-0.6v-0.536h0.6v-0.711L179.174,141.888z"/>
		<path d="M181.311,142.16c-0.256,0-0.424-0.2-0.424-0.432c0-0.248,0.176-0.44,0.439-0.44c0.256,0,0.432,0.192,0.432,0.44    c0,0.231-0.168,0.432-0.439,0.432H181.311z M180.975,146.686v-3.87h0.703v3.87H180.975z"/>
		<path d="M184.421,146.773c-1.039,0-1.854-0.768-1.854-1.991c0-1.295,0.855-2.055,1.919-2.055c1.111,0,1.863,0.808,1.863,1.983    c0,1.438-1,2.062-1.919,2.062H184.421z M184.453,146.246c0.672,0,1.176-0.632,1.176-1.512c0-0.655-0.328-1.479-1.159-1.479    c-0.824,0-1.184,0.768-1.184,1.503c0,0.848,0.479,1.487,1.159,1.487H184.453z"/>
		<path d="M187.238,143.863c0-0.408-0.008-0.728-0.032-1.048h0.624l0.04,0.632h0.016c0.192-0.359,0.64-0.72,1.279-0.72    c0.536,0,1.367,0.32,1.367,1.647v2.311h-0.703v-2.23c0-0.624-0.232-1.151-0.896-1.151c-0.456,0-0.815,0.327-0.943,0.72    c-0.032,0.088-0.049,0.216-0.049,0.327v2.335h-0.703V143.863z"/>
	</g>
	
		<line fill="none" stroke="#000000" stroke-width="0.5" stroke-linejoin="round" stroke-miterlimit="10" x1="169.246" y1="134.562" x2="169.246" y2="137.562"/>
	<g>
		<path d="M231.671,30.404c0.331-0.067,0.812-0.113,1.257-0.113c0.699,0,1.158,0.135,1.475,0.42    c0.248,0.218,0.398,0.563,0.398,0.961c0,0.661-0.429,1.104-0.955,1.284v0.023c0.383,0.135,0.616,0.495,0.744,1.021    c0.166,0.706,0.286,1.193,0.384,1.389h-0.677c-0.083-0.15-0.195-0.578-0.331-1.208c-0.15-0.698-0.429-0.961-1.023-0.984h-0.616    v2.192h-0.655V30.404z M232.326,32.701h0.669c0.7,0,1.144-0.383,1.144-0.961c0-0.653-0.474-0.938-1.166-0.938    c-0.315,0-0.534,0.03-0.646,0.06V32.701z"/>
		<path d="M236.068,33.692c0.016,0.886,0.58,1.254,1.242,1.254c0.474,0,0.767-0.083,1.008-0.188l0.12,0.474    c-0.233,0.104-0.64,0.232-1.219,0.232c-1.113,0-1.79-0.743-1.79-1.832c0-1.096,0.654-1.959,1.715-1.959    c1.188,0,1.497,1.043,1.497,1.712c0,0.135-0.008,0.233-0.022,0.308H236.068z M238.002,33.219c0.008-0.42-0.173-1.074-0.91-1.074    c-0.677,0-0.963,0.616-1.016,1.074H238.002z"/>
		<path d="M239.458,32.941c0-0.466-0.007-0.841-0.029-1.187h0.594l0.038,0.624h0.015c0.264-0.451,0.699-0.706,1.286-0.706    c0.888,0,1.55,0.744,1.55,1.847c0,1.306-0.805,1.952-1.655,1.952c-0.488,0-0.902-0.211-1.12-0.571h-0.016v1.974h-0.662V32.941z     M240.12,33.91c0,0.09,0.008,0.188,0.03,0.271c0.113,0.458,0.52,0.773,0.985,0.773c0.7,0,1.105-0.57,1.105-1.404    c0-0.728-0.376-1.351-1.075-1.351c-0.451,0-0.88,0.315-1.008,0.818c-0.016,0.083-0.038,0.18-0.038,0.263V33.91z"/>
		<path d="M246.781,34.39c0,0.383,0.008,0.713,0.03,0.999h-0.587l-0.037-0.593h-0.016c-0.165,0.293-0.557,0.676-1.203,0.676    c-0.572,0-1.257-0.323-1.257-1.592v-2.125h0.662v2.005c0,0.69,0.218,1.164,0.812,1.164c0.444,0,0.752-0.308,0.873-0.608    c0.037-0.09,0.06-0.21,0.06-0.337v-2.223h0.662V34.39z"/>
		<path d="M247.875,30.059h0.662v2.274h0.016c0.232-0.405,0.654-0.661,1.241-0.661c0.902,0,1.534,0.751,1.534,1.847    c0,1.306-0.827,1.952-1.64,1.952c-0.526,0-0.94-0.203-1.219-0.684h-0.016l-0.037,0.601h-0.571    c0.022-0.248,0.029-0.616,0.029-0.938V30.059z M248.537,33.932c0,0.083,0.008,0.166,0.022,0.24    c0.128,0.458,0.52,0.773,0.993,0.773c0.7,0,1.105-0.563,1.105-1.396c0-0.736-0.376-1.359-1.083-1.359    c-0.451,0-0.872,0.315-1,0.811c-0.022,0.083-0.038,0.172-0.038,0.278V33.932z"/>
		<path d="M252.152,30.059h0.662v5.33h-0.662V30.059z"/>
		<path d="M254.242,31.14c-0.241,0-0.398-0.188-0.398-0.405c0-0.233,0.165-0.413,0.413-0.413c0.241,0,0.406,0.18,0.406,0.413    c0,0.217-0.158,0.405-0.413,0.405H254.242z M253.926,35.389v-3.634h0.662v3.634H253.926z"/>
		<path d="M258.28,35.254c-0.173,0.082-0.557,0.21-1.046,0.21c-1.098,0-1.812-0.743-1.812-1.854c0-1.119,0.767-1.937,1.956-1.937    c0.391,0,0.736,0.098,0.917,0.195l-0.15,0.503c-0.158-0.083-0.406-0.172-0.767-0.172c-0.836,0-1.287,0.623-1.287,1.374    c0,0.841,0.542,1.359,1.264,1.359c0.377,0,0.625-0.09,0.812-0.173L258.28,35.254z"/>
		<path d="M261.617,34.518c0,0.315,0.016,0.624,0.053,0.871h-0.595l-0.06-0.458h-0.022c-0.196,0.285-0.595,0.541-1.113,0.541    c-0.737,0-1.113-0.519-1.113-1.044c0-0.878,0.782-1.359,2.188-1.352v-0.075c0-0.3-0.083-0.849-0.827-0.841    c-0.346,0-0.7,0.098-0.955,0.27l-0.15-0.443c0.301-0.188,0.744-0.315,1.203-0.315c1.121,0,1.392,0.758,1.392,1.487V34.518z     M260.971,33.534c-0.723-0.015-1.543,0.113-1.543,0.818c0,0.436,0.286,0.631,0.617,0.631c0.481,0,0.79-0.3,0.896-0.608    c0.022-0.067,0.03-0.143,0.03-0.21V33.534z"/>
		<path d="M262.675,32.739c0-0.383-0.007-0.683-0.029-0.984h0.586l0.038,0.593h0.015c0.181-0.338,0.603-0.676,1.204-0.676    c0.504,0,1.286,0.3,1.286,1.547v2.169h-0.662v-2.095c0-0.585-0.218-1.081-0.843-1.081c-0.429,0-0.767,0.308-0.888,0.676    c-0.029,0.083-0.045,0.203-0.045,0.308v2.192h-0.662V32.739z"/>
		<path d="M266.756,34.713c0.203,0.12,0.549,0.255,0.88,0.255c0.474,0,0.7-0.233,0.7-0.541c0-0.315-0.188-0.48-0.67-0.661    c-0.662-0.24-0.971-0.601-0.971-1.028c0-0.586,0.481-1.066,1.257-1.066c0.368,0,0.691,0.098,0.888,0.226l-0.158,0.473    c-0.143-0.083-0.406-0.21-0.745-0.21c-0.391,0-0.602,0.225-0.602,0.496c0,0.3,0.211,0.435,0.685,0.623    c0.624,0.232,0.955,0.548,0.955,1.088c0,0.646-0.504,1.096-1.354,1.096c-0.399,0-0.768-0.105-1.023-0.255L266.756,34.713z"/>
		<path d="M271.415,30.059h0.662v2.274h0.016c0.232-0.405,0.654-0.661,1.241-0.661c0.902,0,1.534,0.751,1.534,1.847    c0,1.306-0.827,1.952-1.64,1.952c-0.526,0-0.94-0.203-1.219-0.684h-0.016l-0.037,0.601h-0.571    c0.022-0.248,0.029-0.616,0.029-0.938V30.059z M272.077,33.932c0,0.083,0.008,0.166,0.022,0.24    c0.128,0.458,0.52,0.773,0.993,0.773c0.7,0,1.105-0.563,1.105-1.396c0-0.736-0.376-1.359-1.083-1.359    c-0.451,0-0.872,0.315-1,0.811c-0.022,0.083-0.038,0.172-0.038,0.278V33.932z"/>
		<path d="M276.068,33.692c0.016,0.886,0.58,1.254,1.242,1.254c0.474,0,0.767-0.083,1.008-0.188l0.12,0.474    c-0.233,0.104-0.64,0.232-1.219,0.232c-1.113,0-1.79-0.743-1.79-1.832c0-1.096,0.654-1.959,1.715-1.959    c1.188,0,1.497,1.043,1.497,1.712c0,0.135-0.008,0.233-0.022,0.308H276.068z M278.002,33.219c0.008-0.42-0.173-1.074-0.91-1.074    c-0.677,0-0.963,0.616-1.016,1.074H278.002z"/>
		<path d="M279.519,35.389v-3.13h-0.504v-0.503h0.504v-0.172c0-0.511,0.12-0.976,0.429-1.269c0.248-0.24,0.579-0.337,0.88-0.337    c0.241,0,0.437,0.052,0.564,0.105l-0.083,0.51c-0.105-0.045-0.232-0.083-0.429-0.083c-0.557,0-0.707,0.496-0.707,1.051v0.195h0.88    v0.503h-0.872v3.13H279.519z"/>
		<path d="M283.135,35.472c-0.979,0-1.745-0.721-1.745-1.87c0-1.216,0.805-1.93,1.805-1.93c1.046,0,1.753,0.758,1.753,1.862    c0,1.352-0.94,1.938-1.805,1.938H283.135z M283.165,34.976c0.632,0,1.105-0.593,1.105-1.419c0-0.615-0.309-1.389-1.091-1.389    c-0.774,0-1.113,0.721-1.113,1.412c0,0.795,0.451,1.396,1.091,1.396H283.165z"/>
		<path d="M285.778,32.889c0-0.428-0.007-0.796-0.029-1.134h0.579l0.029,0.713h0.023c0.165-0.488,0.571-0.796,1.016-0.796    c0.067,0,0.12,0.008,0.18,0.015v0.623c-0.067-0.007-0.135-0.015-0.226-0.015c-0.466,0-0.797,0.353-0.888,0.841    c-0.015,0.097-0.022,0.203-0.022,0.308v1.944h-0.662V32.889z"/>
		<path d="M288.612,33.692c0.016,0.886,0.58,1.254,1.241,1.254c0.475,0,0.768-0.083,1.009-0.188l0.12,0.474    c-0.233,0.104-0.64,0.232-1.219,0.232c-1.113,0-1.79-0.743-1.79-1.832c0-1.096,0.654-1.959,1.715-1.959    c1.188,0,1.497,1.043,1.497,1.712c0,0.135-0.008,0.233-0.022,0.308H288.612z M290.546,33.219c0.008-0.42-0.173-1.074-0.91-1.074    c-0.677,0-0.963,0.616-1.016,1.074H290.546z"/>
		<path d="M296.16,34.518c0,0.315,0.016,0.624,0.053,0.871h-0.595l-0.06-0.458h-0.022c-0.196,0.285-0.595,0.541-1.113,0.541    c-0.737,0-1.113-0.519-1.113-1.044c0-0.878,0.782-1.359,2.188-1.352v-0.075c0-0.3-0.083-0.849-0.827-0.841    c-0.346,0-0.7,0.098-0.955,0.27l-0.15-0.443c0.301-0.188,0.744-0.315,1.203-0.315c1.121,0,1.392,0.758,1.392,1.487V34.518z     M295.514,33.534c-0.723-0.015-1.543,0.113-1.543,0.818c0,0.436,0.286,0.631,0.617,0.631c0.481,0,0.79-0.3,0.896-0.608    c0.022-0.067,0.03-0.143,0.03-0.21V33.534z"/>
		<path d="M297.218,32.739c0-0.383-0.007-0.683-0.029-0.984h0.586l0.038,0.593h0.015c0.181-0.338,0.603-0.676,1.204-0.676    c0.504,0,1.286,0.3,1.286,1.547v2.169h-0.662v-2.095c0-0.585-0.218-1.081-0.843-1.081c-0.429,0-0.767,0.308-0.888,0.676    c-0.029,0.083-0.045,0.203-0.045,0.308v2.192h-0.662V32.739z"/>
		<path d="M304.534,30.059v4.392c0,0.323,0.008,0.691,0.03,0.938h-0.594l-0.03-0.631h-0.016c-0.203,0.406-0.639,0.714-1.233,0.714    c-0.88,0-1.564-0.744-1.564-1.847c-0.008-1.216,0.752-1.952,1.632-1.952c0.564,0,0.94,0.263,1.099,0.548h0.015v-2.162H304.534z     M303.872,33.234c0-0.09-0.007-0.195-0.029-0.285c-0.099-0.413-0.459-0.758-0.956-0.758c-0.685,0-1.091,0.601-1.091,1.396    c0,0.743,0.369,1.352,1.076,1.352c0.443,0,0.85-0.301,0.971-0.796c0.022-0.083,0.029-0.173,0.029-0.278V33.234z"/>
		<path d="M234.214,44.518c0,0.315,0.015,0.623,0.053,0.871h-0.595l-0.06-0.458h-0.022c-0.196,0.285-0.595,0.541-1.113,0.541    c-0.737,0-1.113-0.519-1.113-1.044c0-0.878,0.782-1.358,2.188-1.352v-0.075c0-0.3-0.083-0.848-0.827-0.841    c-0.346,0-0.7,0.098-0.955,0.271l-0.15-0.442c0.301-0.188,0.744-0.315,1.203-0.315c1.121,0,1.392,0.758,1.392,1.486V44.518z     M233.567,43.534c-0.723-0.015-1.543,0.112-1.543,0.818c0,0.436,0.286,0.631,0.617,0.631c0.481,0,0.79-0.301,0.896-0.608    c0.022-0.067,0.03-0.143,0.03-0.21V43.534z"/>
		<path d="M235.332,45.389v-3.131h-0.504v-0.503h0.504v-0.173c0-0.51,0.12-0.976,0.429-1.269c0.248-0.24,0.579-0.338,0.88-0.338    c0.241,0,0.437,0.053,0.564,0.105l-0.083,0.511c-0.105-0.045-0.233-0.083-0.429-0.083c-0.557,0-0.707,0.495-0.707,1.051v0.195    h0.88v0.503h-0.872v3.131H235.332z"/>
		<path d="M238.264,40.885v0.87h0.947v0.503h-0.947v1.952c0,0.45,0.128,0.706,0.496,0.706c0.181,0,0.286-0.016,0.384-0.045    l0.03,0.503c-0.128,0.045-0.331,0.09-0.587,0.09c-0.309,0-0.557-0.105-0.715-0.278c-0.181-0.202-0.256-0.525-0.256-0.953v-1.975    h-0.563v-0.503h0.563v-0.668L238.264,40.885z"/>
		<path d="M240.329,43.692c0.016,0.886,0.58,1.253,1.241,1.253c0.475,0,0.768-0.082,1.009-0.188l0.12,0.474    c-0.233,0.104-0.64,0.232-1.219,0.232c-1.113,0-1.79-0.743-1.79-1.832c0-1.096,0.654-1.959,1.715-1.959    c1.188,0,1.497,1.043,1.497,1.711c0,0.136-0.008,0.233-0.022,0.309H240.329z M242.263,43.219c0.008-0.42-0.173-1.073-0.91-1.073    c-0.677,0-0.963,0.615-1.016,1.073H242.263z"/>
		<path d="M243.719,42.889c0-0.428-0.007-0.796-0.029-1.134h0.579l0.029,0.714h0.023c0.165-0.488,0.571-0.796,1.015-0.796    c0.068,0,0.121,0.007,0.181,0.015v0.623c-0.067-0.008-0.135-0.015-0.226-0.015c-0.466,0-0.797,0.353-0.888,0.841    c-0.015,0.098-0.022,0.202-0.022,0.308v1.944h-0.662V42.889z"/>
		<path d="M247.561,45.389v-0.405l0.519-0.503c1.249-1.187,1.82-1.817,1.82-2.553c0-0.495-0.232-0.953-0.963-0.953    c-0.443,0-0.812,0.225-1.038,0.413l-0.21-0.466c0.331-0.277,0.819-0.495,1.384-0.495c1.046,0,1.489,0.721,1.489,1.419    c0,0.9-0.654,1.629-1.685,2.619l-0.384,0.36v0.016h2.188v0.548H247.561z"/>
		<path d="M252.973,45.472c-0.955,0-1.609-0.894-1.625-2.508c0-1.645,0.715-2.537,1.708-2.537c1.023,0,1.617,0.915,1.617,2.47    c0,1.659-0.624,2.575-1.692,2.575H252.973z M253.011,44.961c0.669,0,0.993-0.788,0.993-2.035c0-1.201-0.302-1.989-0.993-1.989    c-0.603,0-0.993,0.766-0.993,1.989c-0.016,1.27,0.376,2.035,0.985,2.035H253.011z"/>
		<path d="M256.828,45.472c-0.955,0-1.609-0.894-1.625-2.508c0-1.645,0.715-2.537,1.708-2.537c1.023,0,1.617,0.915,1.617,2.47    c0,1.659-0.624,2.575-1.692,2.575H256.828z M256.866,44.961c0.669,0,0.993-0.788,0.993-2.035c0-1.201-0.302-1.989-0.993-1.989    c-0.603,0-0.993,0.766-0.993,1.989c-0.016,1.27,0.376,2.035,0.985,2.035H256.866z"/>
		<path d="M260.767,40.427c0.948,0,1.43,0.585,1.43,1.201c0,0.412-0.211,0.863-0.812,1.141v0.022    c0.609,0.24,0.985,0.676,0.985,1.262c0,0.855-0.73,1.419-1.663,1.419c-1.022,0-1.64-0.601-1.64-1.314    c0-0.615,0.368-1.059,0.963-1.313v-0.022c-0.549-0.255-0.782-0.676-0.782-1.097c0-0.772,0.654-1.298,1.512-1.298H260.767z     M260.722,44.991c0.594,0,0.978-0.368,0.978-0.871c0-0.586-0.414-0.879-1.075-1.066c-0.572,0.165-0.881,0.548-0.881,1.014    c-0.022,0.488,0.354,0.924,0.971,0.924H260.722z M260.729,40.899c-0.549,0-0.85,0.36-0.85,0.78    c-0.008,0.488,0.368,0.751,0.933,0.901c0.422-0.143,0.745-0.443,0.745-0.886c0-0.391-0.233-0.796-0.82-0.796H260.729z"/>
		<path d="M265.162,43.692c0.016,0.886,0.58,1.253,1.242,1.253c0.474,0,0.767-0.082,1.008-0.188l0.12,0.474    c-0.233,0.104-0.64,0.232-1.219,0.232c-1.113,0-1.79-0.743-1.79-1.832c0-1.096,0.654-1.959,1.715-1.959    c1.188,0,1.497,1.043,1.497,1.711c0,0.136-0.008,0.233-0.022,0.309H265.162z M267.096,43.219c0.008-0.42-0.173-1.073-0.91-1.073    c-0.677,0-0.963,0.615-1.016,1.073H267.096z"/>
		<path d="M268.552,40.059h0.662v5.33h-0.662V40.059z"/>
		<path d="M270.701,43.692c0.016,0.886,0.58,1.253,1.242,1.253c0.474,0,0.767-0.082,1.008-0.188l0.12,0.474    c-0.233,0.104-0.64,0.232-1.219,0.232c-1.113,0-1.79-0.743-1.79-1.832c0-1.096,0.654-1.959,1.715-1.959    c1.188,0,1.497,1.043,1.497,1.711c0,0.136-0.008,0.233-0.022,0.309H270.701z M272.635,43.219c0.008-0.42-0.173-1.073-0.91-1.073    c-0.677,0-0.963,0.615-1.016,1.073H272.635z"/>
		<path d="M276.687,45.254c-0.173,0.082-0.557,0.21-1.046,0.21c-1.098,0-1.812-0.743-1.812-1.854c0-1.118,0.767-1.937,1.956-1.937    c0.391,0,0.736,0.098,0.917,0.195l-0.15,0.503c-0.158-0.083-0.406-0.173-0.767-0.173c-0.836,0-1.287,0.623-1.287,1.374    c0,0.841,0.542,1.358,1.264,1.358c0.377,0,0.625-0.09,0.812-0.173L276.687,45.254z"/>
		<path d="M278.256,40.885v0.87h0.947v0.503h-0.947v1.952c0,0.45,0.128,0.706,0.496,0.706c0.181,0,0.286-0.016,0.384-0.045    l0.03,0.503c-0.128,0.045-0.331,0.09-0.587,0.09c-0.309,0-0.557-0.105-0.715-0.278c-0.181-0.202-0.256-0.525-0.256-0.953v-1.975    h-0.563v-0.503h0.563v-0.668L278.256,40.885z"/>
		<path d="M280.263,41.14c-0.241,0-0.398-0.188-0.398-0.405c0-0.233,0.165-0.413,0.413-0.413c0.241,0,0.406,0.18,0.406,0.413    c0,0.218-0.158,0.405-0.413,0.405H280.263z M279.946,45.389v-3.634h0.662v3.634H279.946z"/>
		<path d="M283.188,45.472c-0.979,0-1.745-0.721-1.745-1.87c0-1.216,0.805-1.929,1.805-1.929c1.046,0,1.753,0.758,1.753,1.861    c0,1.352-0.94,1.938-1.805,1.938H283.188z M283.218,44.976c0.632,0,1.105-0.593,1.105-1.419c0-0.615-0.309-1.389-1.091-1.389    c-0.774,0-1.113,0.721-1.113,1.411c0,0.796,0.451,1.396,1.091,1.396H283.218z"/>
		<path d="M285.831,42.738c0-0.383-0.007-0.683-0.029-0.983h0.586l0.038,0.594h0.015c0.181-0.338,0.603-0.676,1.204-0.676    c0.504,0,1.286,0.3,1.286,1.546v2.17h-0.662v-2.095c0-0.585-0.218-1.081-0.843-1.081c-0.429,0-0.767,0.308-0.888,0.676    c-0.029,0.083-0.045,0.203-0.045,0.308v2.192h-0.662V42.738z"/>
		<path d="M231.664,50.396c0.406-0.061,0.88-0.105,1.399-0.105c0.939,0,1.609,0.218,2.053,0.631    c0.459,0.413,0.723,0.998,0.723,1.816c0,0.826-0.264,1.502-0.729,1.967c-0.481,0.474-1.264,0.729-2.249,0.729    c-0.475,0-0.858-0.015-1.196-0.06V50.396z M232.326,54.878c0.165,0.03,0.406,0.03,0.661,0.03c1.399,0.008,2.159-0.781,2.159-2.147    c0.008-1.193-0.669-1.951-2.054-1.951c-0.338,0-0.594,0.029-0.767,0.067V54.878z"/>
		<path d="M237.03,53.692c0.016,0.886,0.58,1.253,1.241,1.253c0.475,0,0.768-0.082,1.009-0.188l0.12,0.474    c-0.233,0.104-0.64,0.232-1.219,0.232c-1.113,0-1.79-0.743-1.79-1.832c0-1.096,0.654-1.959,1.715-1.959    c1.188,0,1.497,1.043,1.497,1.711c0,0.136-0.008,0.233-0.022,0.309H237.03z M238.964,53.219c0.008-0.42-0.173-1.073-0.91-1.073    c-0.677,0-0.963,0.615-1.016,1.073H238.964z"/>
		<path d="M240.42,52.738c0-0.383-0.015-0.683-0.029-0.983h0.579l0.029,0.586h0.023c0.203-0.346,0.541-0.668,1.15-0.668    c0.489,0,0.865,0.3,1.023,0.728h0.015c0.113-0.21,0.264-0.36,0.414-0.473c0.218-0.165,0.451-0.255,0.797-0.255    c0.489,0,1.204,0.315,1.204,1.576v2.14h-0.647v-2.057c0-0.706-0.263-1.119-0.789-1.119c-0.384,0-0.67,0.278-0.79,0.594    c-0.03,0.097-0.053,0.217-0.053,0.33v2.252h-0.647v-2.185c0-0.578-0.256-0.991-0.76-0.991c-0.406,0-0.714,0.33-0.819,0.661    c-0.038,0.098-0.053,0.21-0.053,0.322v2.192h-0.647V52.738z"/>
		<path d="M248.171,55.472c-0.979,0-1.745-0.721-1.745-1.87c0-1.216,0.805-1.929,1.805-1.929c1.046,0,1.753,0.758,1.753,1.861    c0,1.352-0.94,1.938-1.805,1.938H248.171z M248.201,54.976c0.632,0,1.105-0.593,1.105-1.419c0-0.615-0.309-1.389-1.091-1.389    c-0.774,0-1.113,0.721-1.113,1.411c0,0.796,0.451,1.396,1.091,1.396H248.201z"/>
		<path d="M253.41,55.254c-0.173,0.082-0.557,0.21-1.046,0.21c-1.098,0-1.812-0.743-1.812-1.854c0-1.118,0.767-1.937,1.956-1.937    c0.391,0,0.736,0.098,0.917,0.195l-0.15,0.503c-0.158-0.083-0.406-0.173-0.767-0.173c-0.836,0-1.287,0.623-1.287,1.374    c0,0.841,0.542,1.358,1.264,1.358c0.377,0,0.625-0.09,0.812-0.173L253.41,55.254z"/>
		<path d="M254.182,52.889c0-0.428-0.007-0.796-0.029-1.134h0.579l0.029,0.714h0.023c0.165-0.488,0.571-0.796,1.015-0.796    c0.068,0,0.121,0.007,0.181,0.015v0.623c-0.067-0.008-0.135-0.015-0.226-0.015c-0.466,0-0.797,0.353-0.888,0.841    c-0.015,0.098-0.022,0.202-0.022,0.308v1.944h-0.662V52.889z"/>
		<path d="M259.205,54.518c0,0.315,0.016,0.623,0.053,0.871h-0.595l-0.06-0.458h-0.022c-0.196,0.285-0.595,0.541-1.113,0.541    c-0.737,0-1.113-0.519-1.113-1.044c0-0.878,0.782-1.358,2.188-1.352v-0.075c0-0.3-0.083-0.848-0.827-0.841    c-0.346,0-0.7,0.098-0.955,0.271l-0.15-0.442c0.301-0.188,0.744-0.315,1.203-0.315c1.121,0,1.392,0.758,1.392,1.486V54.518z     M258.559,53.534c-0.723-0.015-1.543,0.112-1.543,0.818c0,0.436,0.286,0.631,0.617,0.631c0.481,0,0.79-0.301,0.896-0.608    c0.022-0.067,0.03-0.143,0.03-0.21V53.534z"/>
		<path d="M261.06,50.885v0.87h0.947v0.503h-0.947v1.952c0,0.45,0.128,0.706,0.496,0.706c0.181,0,0.286-0.016,0.384-0.045    l0.03,0.503c-0.128,0.045-0.331,0.09-0.587,0.09c-0.309,0-0.557-0.105-0.715-0.278c-0.181-0.202-0.256-0.525-0.256-0.953v-1.975    h-0.563v-0.503h0.563v-0.668L261.06,50.885z"/>
		<path d="M262.66,54.713c0.203,0.12,0.549,0.256,0.88,0.256c0.474,0,0.7-0.233,0.7-0.541c0-0.315-0.188-0.48-0.67-0.66    c-0.662-0.24-0.971-0.602-0.971-1.029c0-0.585,0.481-1.065,1.257-1.065c0.368,0,0.691,0.098,0.888,0.225l-0.158,0.474    c-0.143-0.083-0.406-0.211-0.745-0.211c-0.391,0-0.602,0.226-0.602,0.496c0,0.3,0.211,0.436,0.685,0.623    c0.624,0.232,0.955,0.548,0.955,1.088c0,0.646-0.504,1.097-1.354,1.097c-0.399,0-0.768-0.105-1.023-0.255L262.66,54.713z"/>
		<path d="M267.319,50.059h0.662v2.274h0.016c0.232-0.405,0.654-0.66,1.241-0.66c0.902,0,1.534,0.75,1.534,1.847    c0,1.306-0.827,1.952-1.64,1.952c-0.526,0-0.94-0.203-1.219-0.684h-0.016l-0.037,0.601h-0.571    c0.022-0.248,0.029-0.615,0.029-0.938V50.059z M267.981,53.933c0,0.082,0.008,0.165,0.022,0.24    c0.128,0.458,0.52,0.772,0.993,0.772c0.7,0,1.105-0.562,1.105-1.396c0-0.736-0.376-1.359-1.083-1.359    c-0.451,0-0.872,0.315-1,0.811c-0.022,0.083-0.038,0.173-0.038,0.278V53.933z"/>
		<path d="M271.972,53.692c0.016,0.886,0.58,1.253,1.241,1.253c0.475,0,0.768-0.082,1.009-0.188l0.12,0.474    c-0.233,0.104-0.64,0.232-1.219,0.232c-1.113,0-1.79-0.743-1.79-1.832c0-1.096,0.654-1.959,1.715-1.959    c1.188,0,1.497,1.043,1.497,1.711c0,0.136-0.008,0.233-0.022,0.309H271.972z M273.905,53.219c0.008-0.42-0.173-1.073-0.91-1.073    c-0.677,0-0.963,0.615-1.016,1.073H273.905z"/>
		<path d="M275.422,55.389v-3.131h-0.504v-0.503h0.504v-0.173c0-0.51,0.12-0.976,0.429-1.269c0.248-0.24,0.579-0.338,0.88-0.338    c0.241,0,0.437,0.053,0.564,0.105l-0.083,0.511c-0.105-0.045-0.233-0.083-0.429-0.083c-0.557,0-0.707,0.495-0.707,1.051v0.195    h0.88v0.503h-0.872v3.131H275.422z"/>
		<path d="M279.039,55.472c-0.979,0-1.745-0.721-1.745-1.87c0-1.216,0.805-1.929,1.805-1.929c1.046,0,1.753,0.758,1.753,1.861    c0,1.352-0.94,1.938-1.805,1.938H279.039z M279.069,54.976c0.632,0,1.105-0.593,1.105-1.419c0-0.615-0.309-1.389-1.091-1.389    c-0.774,0-1.113,0.721-1.113,1.411c0,0.796,0.451,1.396,1.091,1.396H279.069z"/>
		<path d="M281.683,52.889c0-0.428-0.007-0.796-0.029-1.134h0.579l0.029,0.714h0.023c0.165-0.488,0.571-0.796,1.016-0.796    c0.067,0,0.12,0.007,0.18,0.015v0.623c-0.067-0.008-0.135-0.015-0.226-0.015c-0.466,0-0.797,0.353-0.888,0.841    c-0.015,0.098-0.022,0.202-0.022,0.308v1.944h-0.662V52.889z"/>
		<path d="M284.517,53.692c0.016,0.886,0.58,1.253,1.241,1.253c0.475,0,0.768-0.082,1.009-0.188l0.12,0.474    c-0.233,0.104-0.64,0.232-1.219,0.232c-1.113,0-1.79-0.743-1.79-1.832c0-1.096,0.654-1.959,1.715-1.959    c1.188,0,1.497,1.043,1.497,1.711c0,0.136-0.008,0.233-0.022,0.309H284.517z M286.45,53.219c0.008-0.42-0.173-1.073-0.91-1.073    c-0.677,0-0.963,0.615-1.016,1.073H286.45z"/>
		<path d="M292.064,54.518c0,0.315,0.016,0.623,0.053,0.871h-0.595l-0.06-0.458h-0.022c-0.196,0.285-0.595,0.541-1.113,0.541    c-0.737,0-1.113-0.519-1.113-1.044c0-0.878,0.782-1.358,2.188-1.352v-0.075c0-0.3-0.083-0.848-0.827-0.841    c-0.346,0-0.7,0.098-0.955,0.271l-0.15-0.442c0.301-0.188,0.744-0.315,1.203-0.315c1.121,0,1.392,0.758,1.392,1.486V54.518z     M291.418,53.534c-0.723-0.015-1.543,0.112-1.543,0.818c0,0.436,0.286,0.631,0.617,0.631c0.481,0,0.79-0.301,0.896-0.608    c0.022-0.067,0.03-0.143,0.03-0.21V53.534z"/>
		<path d="M293.122,52.738c0-0.383-0.007-0.683-0.029-0.983h0.586l0.038,0.594h0.015c0.181-0.338,0.603-0.676,1.204-0.676    c0.504,0,1.286,0.3,1.286,1.546v2.17h-0.662v-2.095c0-0.585-0.218-1.081-0.843-1.081c-0.429,0-0.767,0.308-0.888,0.676    c-0.029,0.083-0.045,0.203-0.045,0.308v2.192h-0.662V52.738z"/>
		<path d="M300.438,50.059v4.392c0,0.323,0.008,0.69,0.03,0.938h-0.595l-0.029-0.631h-0.016c-0.203,0.405-0.639,0.714-1.233,0.714    c-0.88,0-1.564-0.743-1.564-1.848c-0.008-1.216,0.752-1.951,1.632-1.951c0.564,0,0.94,0.263,1.099,0.548h0.015v-2.162H300.438z     M299.775,53.234c0-0.091-0.007-0.195-0.029-0.285c-0.099-0.413-0.459-0.759-0.956-0.759c-0.685,0-1.091,0.601-1.091,1.396    c0,0.743,0.369,1.352,1.076,1.352c0.443,0,0.85-0.301,0.971-0.796c0.022-0.083,0.029-0.173,0.029-0.278V53.234z"/>
		<path d="M234.214,64.518c0,0.315,0.015,0.623,0.053,0.871h-0.595l-0.06-0.458h-0.022c-0.196,0.285-0.595,0.541-1.113,0.541    c-0.737,0-1.113-0.519-1.113-1.044c0-0.878,0.782-1.358,2.188-1.352v-0.075c0-0.3-0.083-0.848-0.827-0.841    c-0.346,0-0.7,0.098-0.955,0.271l-0.15-0.442c0.301-0.188,0.744-0.315,1.203-0.315c1.121,0,1.392,0.758,1.392,1.486V64.518z     M233.567,63.534c-0.723-0.015-1.543,0.112-1.543,0.818c0,0.436,0.286,0.631,0.617,0.631c0.481,0,0.79-0.301,0.896-0.608    c0.022-0.067,0.03-0.143,0.03-0.21V63.534z"/>
		<path d="M235.332,65.389v-3.131h-0.504v-0.503h0.504v-0.173c0-0.51,0.12-0.976,0.429-1.269c0.248-0.24,0.579-0.338,0.88-0.338    c0.241,0,0.437,0.053,0.564,0.105l-0.083,0.511c-0.105-0.045-0.233-0.083-0.429-0.083c-0.557,0-0.707,0.495-0.707,1.051v0.195    h0.88v0.503h-0.872v3.131H235.332z"/>
		<path d="M238.264,60.885v0.87h0.947v0.503h-0.947v1.952c0,0.45,0.128,0.706,0.496,0.706c0.181,0,0.286-0.016,0.384-0.045    l0.03,0.503c-0.128,0.045-0.331,0.09-0.587,0.09c-0.309,0-0.557-0.105-0.715-0.278c-0.181-0.202-0.256-0.525-0.256-0.953v-1.975    h-0.563v-0.503h0.563v-0.668L238.264,60.885z"/>
		<path d="M240.329,63.692c0.016,0.886,0.58,1.253,1.241,1.253c0.475,0,0.768-0.082,1.009-0.188l0.12,0.474    c-0.233,0.104-0.64,0.232-1.219,0.232c-1.113,0-1.79-0.743-1.79-1.832c0-1.096,0.654-1.959,1.715-1.959    c1.188,0,1.497,1.043,1.497,1.711c0,0.136-0.008,0.233-0.022,0.309H240.329z M242.263,63.219c0.008-0.42-0.173-1.073-0.91-1.073    c-0.677,0-0.963,0.615-1.016,1.073H242.263z"/>
		<path d="M243.719,62.889c0-0.428-0.007-0.796-0.029-1.134h0.579l0.029,0.714h0.023c0.165-0.488,0.571-0.796,1.015-0.796    c0.068,0,0.121,0.007,0.181,0.015v0.623c-0.067-0.008-0.135-0.015-0.226-0.015c-0.466,0-0.797,0.353-0.888,0.841    c-0.015,0.098-0.022,0.202-0.022,0.308v1.944h-0.662V62.889z"/>
		<path d="M247.561,65.389v-0.405l0.519-0.503c1.249-1.187,1.82-1.817,1.82-2.553c0-0.495-0.232-0.953-0.963-0.953    c-0.443,0-0.812,0.225-1.038,0.413l-0.21-0.466c0.331-0.277,0.819-0.495,1.384-0.495c1.046,0,1.489,0.721,1.489,1.419    c0,0.9-0.654,1.629-1.685,2.619l-0.384,0.36v0.016h2.188v0.548H247.561z"/>
		<path d="M252.973,65.472c-0.955,0-1.609-0.894-1.625-2.508c0-1.645,0.715-2.537,1.708-2.537c1.023,0,1.617,0.915,1.617,2.47    c0,1.659-0.624,2.575-1.692,2.575H252.973z M253.011,64.961c0.669,0,0.993-0.788,0.993-2.035c0-1.201-0.302-1.989-0.993-1.989    c-0.603,0-0.993,0.766-0.993,1.989c-0.016,1.27,0.376,2.035,0.985,2.035H253.011z"/>
		<path d="M256.828,65.472c-0.955,0-1.609-0.894-1.625-2.508c0-1.645,0.715-2.537,1.708-2.537c1.023,0,1.617,0.915,1.617,2.47    c0,1.659-0.624,2.575-1.692,2.575H256.828z M256.866,64.961c0.669,0,0.993-0.788,0.993-2.035c0-1.201-0.302-1.989-0.993-1.989    c-0.603,0-0.993,0.766-0.993,1.989c-0.016,1.27,0.376,2.035,0.985,2.035H256.866z"/>
		<path d="M260.767,60.427c0.948,0,1.43,0.585,1.43,1.201c0,0.412-0.211,0.863-0.812,1.141v0.022    c0.609,0.24,0.985,0.676,0.985,1.262c0,0.855-0.73,1.419-1.663,1.419c-1.022,0-1.64-0.601-1.64-1.314    c0-0.615,0.368-1.059,0.963-1.313v-0.022c-0.549-0.255-0.782-0.676-0.782-1.097c0-0.772,0.654-1.298,1.512-1.298H260.767z     M260.722,64.991c0.594,0,0.978-0.368,0.978-0.871c0-0.586-0.414-0.879-1.075-1.066c-0.572,0.165-0.881,0.548-0.881,1.014    c-0.022,0.488,0.354,0.924,0.971,0.924H260.722z M260.729,60.899c-0.549,0-0.85,0.36-0.85,0.78    c-0.008,0.488,0.368,0.751,0.933,0.901c0.422-0.143,0.745-0.443,0.745-0.886c0-0.391-0.233-0.796-0.82-0.796H260.729z"/>
		<path d="M265.162,63.692c0.016,0.886,0.58,1.253,1.242,1.253c0.474,0,0.767-0.082,1.008-0.188l0.12,0.474    c-0.233,0.104-0.64,0.232-1.219,0.232c-1.113,0-1.79-0.743-1.79-1.832c0-1.096,0.654-1.959,1.715-1.959    c1.188,0,1.497,1.043,1.497,1.711c0,0.136-0.008,0.233-0.022,0.309H265.162z M267.096,63.219c0.008-0.42-0.173-1.073-0.91-1.073    c-0.677,0-0.963,0.615-1.016,1.073H267.096z"/>
		<path d="M268.552,60.059h0.662v5.33h-0.662V60.059z"/>
		<path d="M270.701,63.692c0.016,0.886,0.58,1.253,1.242,1.253c0.474,0,0.767-0.082,1.008-0.188l0.12,0.474    c-0.233,0.104-0.64,0.232-1.219,0.232c-1.113,0-1.79-0.743-1.79-1.832c0-1.096,0.654-1.959,1.715-1.959    c1.188,0,1.497,1.043,1.497,1.711c0,0.136-0.008,0.233-0.022,0.309H270.701z M272.635,63.219c0.008-0.42-0.173-1.073-0.91-1.073    c-0.677,0-0.963,0.615-1.016,1.073H272.635z"/>
		<path d="M276.687,65.254c-0.173,0.082-0.557,0.21-1.046,0.21c-1.098,0-1.812-0.743-1.812-1.854c0-1.118,0.767-1.937,1.956-1.937    c0.391,0,0.736,0.098,0.917,0.195l-0.15,0.503c-0.158-0.083-0.406-0.173-0.767-0.173c-0.836,0-1.287,0.623-1.287,1.374    c0,0.841,0.542,1.358,1.264,1.358c0.377,0,0.625-0.09,0.812-0.173L276.687,65.254z"/>
		<path d="M278.256,60.885v0.87h0.947v0.503h-0.947v1.952c0,0.45,0.128,0.706,0.496,0.706c0.181,0,0.286-0.016,0.384-0.045    l0.03,0.503c-0.128,0.045-0.331,0.09-0.587,0.09c-0.309,0-0.557-0.105-0.715-0.278c-0.181-0.202-0.256-0.525-0.256-0.953v-1.975    h-0.563v-0.503h0.563v-0.668L278.256,60.885z"/>
		<path d="M280.263,61.14c-0.241,0-0.398-0.188-0.398-0.405c0-0.233,0.165-0.413,0.413-0.413c0.241,0,0.406,0.18,0.406,0.413    c0,0.218-0.158,0.405-0.413,0.405H280.263z M279.946,65.389v-3.634h0.662v3.634H279.946z"/>
		<path d="M283.188,65.472c-0.979,0-1.745-0.721-1.745-1.87c0-1.216,0.805-1.929,1.805-1.929c1.046,0,1.753,0.758,1.753,1.861    c0,1.352-0.94,1.938-1.805,1.938H283.188z M283.218,64.976c0.632,0,1.105-0.593,1.105-1.419c0-0.615-0.309-1.389-1.091-1.389    c-0.774,0-1.113,0.721-1.113,1.411c0,0.796,0.451,1.396,1.091,1.396H283.218z"/>
		<path d="M285.831,62.738c0-0.383-0.007-0.683-0.029-0.983h0.586l0.038,0.594h0.015c0.181-0.338,0.603-0.676,1.204-0.676    c0.504,0,1.286,0.3,1.286,1.546v2.17h-0.662v-2.095c0-0.585-0.218-1.081-0.843-1.081c-0.429,0-0.767,0.308-0.888,0.676    c-0.029,0.083-0.045,0.203-0.045,0.308v2.192h-0.662V62.738z"/>
		<path d="M231.671,70.404c0.331-0.068,0.812-0.113,1.257-0.113c0.699,0,1.158,0.136,1.475,0.421    c0.248,0.218,0.398,0.562,0.398,0.961c0,0.66-0.429,1.104-0.955,1.283v0.022c0.383,0.136,0.616,0.496,0.744,1.021    c0.166,0.705,0.286,1.193,0.384,1.389h-0.677c-0.083-0.15-0.195-0.578-0.331-1.209c-0.15-0.698-0.429-0.961-1.023-0.983h-0.616    v2.192h-0.655V70.404z M232.326,72.701h0.669c0.7,0,1.144-0.383,1.144-0.961c0-0.653-0.474-0.938-1.166-0.938    c-0.315,0-0.534,0.03-0.646,0.06V72.701z"/>
		<path d="M236.068,73.692c0.016,0.886,0.58,1.253,1.242,1.253c0.474,0,0.767-0.082,1.008-0.188l0.12,0.474    c-0.233,0.104-0.64,0.232-1.219,0.232c-1.113,0-1.79-0.743-1.79-1.832c0-1.096,0.654-1.959,1.715-1.959    c1.188,0,1.497,1.043,1.497,1.711c0,0.136-0.008,0.233-0.022,0.309H236.068z M238.002,73.219c0.008-0.42-0.173-1.073-0.91-1.073    c-0.677,0-0.963,0.615-1.016,1.073H238.002z"/>
		<path d="M239.458,72.941c0-0.466-0.007-0.841-0.029-1.187h0.594l0.038,0.623h0.015c0.264-0.45,0.699-0.705,1.286-0.705    c0.888,0,1.55,0.743,1.55,1.847c0,1.306-0.805,1.952-1.655,1.952c-0.488,0-0.902-0.211-1.12-0.571h-0.016v1.975h-0.662V72.941z     M240.12,73.91c0,0.09,0.008,0.188,0.03,0.27c0.113,0.458,0.52,0.773,0.985,0.773c0.7,0,1.105-0.57,1.105-1.403    c0-0.729-0.376-1.352-1.075-1.352c-0.451,0-0.88,0.315-1.008,0.818c-0.016,0.082-0.038,0.18-0.038,0.263V73.91z"/>
		<path d="M246.781,74.391c0,0.383,0.008,0.713,0.03,0.998h-0.587l-0.037-0.593h-0.016c-0.165,0.292-0.557,0.676-1.203,0.676    c-0.572,0-1.257-0.323-1.257-1.592v-2.125h0.662v2.005c0,0.69,0.218,1.163,0.812,1.163c0.444,0,0.752-0.308,0.873-0.607    c0.037-0.091,0.06-0.211,0.06-0.338v-2.223h0.662V74.391z"/>
		<path d="M247.875,70.059h0.662v2.274h0.016c0.232-0.405,0.654-0.66,1.241-0.66c0.902,0,1.534,0.75,1.534,1.847    c0,1.306-0.827,1.952-1.64,1.952c-0.526,0-0.94-0.203-1.219-0.684h-0.016l-0.037,0.601h-0.571    c0.022-0.248,0.029-0.615,0.029-0.938V70.059z M248.537,73.933c0,0.082,0.008,0.165,0.022,0.24    c0.128,0.458,0.52,0.772,0.993,0.772c0.7,0,1.105-0.562,1.105-1.396c0-0.736-0.376-1.359-1.083-1.359    c-0.451,0-0.872,0.315-1,0.811c-0.022,0.083-0.038,0.173-0.038,0.278V73.933z"/>
		<path d="M252.152,70.059h0.662v5.33h-0.662V70.059z"/>
		<path d="M254.242,71.14c-0.241,0-0.398-0.188-0.398-0.405c0-0.233,0.165-0.413,0.413-0.413c0.241,0,0.406,0.18,0.406,0.413    c0,0.218-0.158,0.405-0.413,0.405H254.242z M253.926,75.389v-3.634h0.662v3.634H253.926z"/>
		<path d="M258.28,75.254c-0.173,0.082-0.557,0.21-1.046,0.21c-1.098,0-1.812-0.743-1.812-1.854c0-1.118,0.767-1.937,1.956-1.937    c0.391,0,0.736,0.098,0.917,0.195l-0.15,0.503c-0.158-0.083-0.406-0.173-0.767-0.173c-0.836,0-1.287,0.623-1.287,1.374    c0,0.841,0.542,1.358,1.264,1.358c0.377,0,0.625-0.09,0.812-0.173L258.28,75.254z"/>
		<path d="M261.617,74.518c0,0.315,0.016,0.623,0.053,0.871h-0.595l-0.06-0.458h-0.022c-0.196,0.285-0.595,0.541-1.113,0.541    c-0.737,0-1.113-0.519-1.113-1.044c0-0.878,0.782-1.358,2.188-1.352v-0.075c0-0.3-0.083-0.848-0.827-0.841    c-0.346,0-0.7,0.098-0.955,0.271l-0.15-0.442c0.301-0.188,0.744-0.315,1.203-0.315c1.121,0,1.392,0.758,1.392,1.486V74.518z     M260.971,73.534c-0.723-0.015-1.543,0.112-1.543,0.818c0,0.436,0.286,0.631,0.617,0.631c0.481,0,0.79-0.301,0.896-0.608    c0.022-0.067,0.03-0.143,0.03-0.21V73.534z"/>
		<path d="M262.675,72.738c0-0.383-0.007-0.683-0.029-0.983h0.586l0.038,0.594h0.015c0.181-0.338,0.603-0.676,1.204-0.676    c0.504,0,1.286,0.3,1.286,1.546v2.17h-0.662v-2.095c0-0.585-0.218-1.081-0.843-1.081c-0.429,0-0.767,0.308-0.888,0.676    c-0.029,0.083-0.045,0.203-0.045,0.308v2.192h-0.662V72.738z"/>
		<path d="M266.756,74.713c0.203,0.12,0.549,0.256,0.88,0.256c0.474,0,0.7-0.233,0.7-0.541c0-0.315-0.188-0.48-0.67-0.66    c-0.662-0.24-0.971-0.602-0.971-1.029c0-0.585,0.481-1.065,1.257-1.065c0.368,0,0.691,0.098,0.888,0.225l-0.158,0.474    c-0.143-0.083-0.406-0.211-0.745-0.211c-0.391,0-0.602,0.226-0.602,0.496c0,0.3,0.211,0.436,0.685,0.623    c0.624,0.232,0.955,0.548,0.955,1.088c0,0.646-0.504,1.097-1.354,1.097c-0.399,0-0.768-0.105-1.023-0.255L266.756,74.713z"/>
		<path d="M271.415,70.059h0.662v2.274h0.016c0.232-0.405,0.654-0.66,1.241-0.66c0.902,0,1.534,0.75,1.534,1.847    c0,1.306-0.827,1.952-1.64,1.952c-0.526,0-0.94-0.203-1.219-0.684h-0.016l-0.037,0.601h-0.571    c0.022-0.248,0.029-0.615,0.029-0.938V70.059z M272.077,73.933c0,0.082,0.008,0.165,0.022,0.24    c0.128,0.458,0.52,0.772,0.993,0.772c0.7,0,1.105-0.562,1.105-1.396c0-0.736-0.376-1.359-1.083-1.359    c-0.451,0-0.872,0.315-1,0.811c-0.022,0.083-0.038,0.173-0.038,0.278V73.933z"/>
		<path d="M276.068,73.692c0.016,0.886,0.58,1.253,1.242,1.253c0.474,0,0.767-0.082,1.008-0.188l0.12,0.474    c-0.233,0.104-0.64,0.232-1.219,0.232c-1.113,0-1.79-0.743-1.79-1.832c0-1.096,0.654-1.959,1.715-1.959    c1.188,0,1.497,1.043,1.497,1.711c0,0.136-0.008,0.233-0.022,0.309H276.068z M278.002,73.219c0.008-0.42-0.173-1.073-0.91-1.073    c-0.677,0-0.963,0.615-1.016,1.073H278.002z"/>
		<path d="M279.519,75.389v-3.131h-0.504v-0.503h0.504v-0.173c0-0.51,0.12-0.976,0.429-1.269c0.248-0.24,0.579-0.338,0.88-0.338    c0.241,0,0.437,0.053,0.564,0.105l-0.083,0.511c-0.105-0.045-0.232-0.083-0.429-0.083c-0.557,0-0.707,0.495-0.707,1.051v0.195    h0.88v0.503h-0.872v3.131H279.519z"/>
		<path d="M283.135,75.472c-0.979,0-1.745-0.721-1.745-1.87c0-1.216,0.805-1.929,1.805-1.929c1.046,0,1.753,0.758,1.753,1.861    c0,1.352-0.94,1.938-1.805,1.938H283.135z M283.165,74.976c0.632,0,1.105-0.593,1.105-1.419c0-0.615-0.309-1.389-1.091-1.389    c-0.774,0-1.113,0.721-1.113,1.411c0,0.796,0.451,1.396,1.091,1.396H283.165z"/>
		<path d="M285.778,72.889c0-0.428-0.007-0.796-0.029-1.134h0.579l0.029,0.714h0.023c0.165-0.488,0.571-0.796,1.016-0.796    c0.067,0,0.12,0.007,0.18,0.015v0.623c-0.067-0.008-0.135-0.015-0.226-0.015c-0.466,0-0.797,0.353-0.888,0.841    c-0.015,0.098-0.022,0.202-0.022,0.308v1.944h-0.662V72.889z"/>
		<path d="M288.612,73.692c0.016,0.886,0.58,1.253,1.241,1.253c0.475,0,0.768-0.082,1.009-0.188l0.12,0.474    c-0.233,0.104-0.64,0.232-1.219,0.232c-1.113,0-1.79-0.743-1.79-1.832c0-1.096,0.654-1.959,1.715-1.959    c1.188,0,1.497,1.043,1.497,1.711c0,0.136-0.008,0.233-0.022,0.309H288.612z M290.546,73.219c0.008-0.42-0.173-1.073-0.91-1.073    c-0.677,0-0.963,0.615-1.016,1.073H290.546z"/>
		<path d="M296.16,74.518c0,0.315,0.016,0.623,0.053,0.871h-0.595l-0.06-0.458h-0.022c-0.196,0.285-0.595,0.541-1.113,0.541    c-0.737,0-1.113-0.519-1.113-1.044c0-0.878,0.782-1.358,2.188-1.352v-0.075c0-0.3-0.083-0.848-0.827-0.841    c-0.346,0-0.7,0.098-0.955,0.271l-0.15-0.442c0.301-0.188,0.744-0.315,1.203-0.315c1.121,0,1.392,0.758,1.392,1.486V74.518z     M295.514,73.534c-0.723-0.015-1.543,0.112-1.543,0.818c0,0.436,0.286,0.631,0.617,0.631c0.481,0,0.79-0.301,0.896-0.608    c0.022-0.067,0.03-0.143,0.03-0.21V73.534z"/>
		<path d="M297.218,72.738c0-0.383-0.007-0.683-0.029-0.983h0.586l0.038,0.594h0.015c0.181-0.338,0.603-0.676,1.204-0.676    c0.504,0,1.286,0.3,1.286,1.546v2.17h-0.662v-2.095c0-0.585-0.218-1.081-0.843-1.081c-0.429,0-0.767,0.308-0.888,0.676    c-0.029,0.083-0.045,0.203-0.045,0.308v2.192h-0.662V72.738z"/>
		<path d="M304.534,70.059v4.392c0,0.323,0.008,0.69,0.03,0.938h-0.594l-0.03-0.631h-0.016c-0.203,0.405-0.639,0.714-1.233,0.714    c-0.88,0-1.564-0.743-1.564-1.848c-0.008-1.216,0.752-1.951,1.632-1.951c0.564,0,0.94,0.263,1.099,0.548h0.015v-2.162H304.534z     M303.872,73.234c0-0.091-0.007-0.195-0.029-0.285c-0.099-0.413-0.459-0.759-0.956-0.759c-0.685,0-1.091,0.601-1.091,1.396    c0,0.743,0.369,1.352,1.076,1.352c0.443,0,0.85-0.301,0.971-0.796c0.022-0.083,0.029-0.173,0.029-0.278V73.234z"/>
		<path d="M234.214,84.518c0,0.315,0.015,0.623,0.053,0.871h-0.595l-0.06-0.458h-0.022c-0.196,0.285-0.595,0.541-1.113,0.541    c-0.737,0-1.113-0.519-1.113-1.044c0-0.878,0.782-1.358,2.188-1.352v-0.075c0-0.3-0.083-0.848-0.827-0.841    c-0.346,0-0.7,0.098-0.955,0.271l-0.15-0.442c0.301-0.188,0.744-0.315,1.203-0.315c1.121,0,1.392,0.758,1.392,1.486V84.518z     M233.567,83.534c-0.723-0.015-1.543,0.112-1.543,0.818c0,0.436,0.286,0.631,0.617,0.631c0.481,0,0.79-0.301,0.896-0.608    c0.022-0.067,0.03-0.143,0.03-0.21V83.534z"/>
		<path d="M235.332,85.389v-3.131h-0.504v-0.503h0.504v-0.173c0-0.51,0.12-0.976,0.429-1.269c0.248-0.24,0.579-0.338,0.88-0.338    c0.241,0,0.437,0.053,0.564,0.105l-0.083,0.511c-0.105-0.045-0.233-0.083-0.429-0.083c-0.557,0-0.707,0.495-0.707,1.051v0.195    h0.88v0.503h-0.872v3.131H235.332z"/>
		<path d="M238.264,80.885v0.87h0.947v0.503h-0.947v1.952c0,0.45,0.128,0.706,0.496,0.706c0.181,0,0.286-0.016,0.384-0.045    l0.03,0.503c-0.128,0.045-0.331,0.09-0.587,0.09c-0.309,0-0.557-0.105-0.715-0.278c-0.181-0.202-0.256-0.525-0.256-0.953v-1.975    h-0.563v-0.503h0.563v-0.668L238.264,80.885z"/>
		<path d="M240.329,83.692c0.016,0.886,0.58,1.253,1.241,1.253c0.475,0,0.768-0.082,1.009-0.188l0.12,0.474    c-0.233,0.104-0.64,0.232-1.219,0.232c-1.113,0-1.79-0.743-1.79-1.832c0-1.096,0.654-1.959,1.715-1.959    c1.188,0,1.497,1.043,1.497,1.711c0,0.136-0.008,0.233-0.022,0.309H240.329z M242.263,83.219c0.008-0.42-0.173-1.073-0.91-1.073    c-0.677,0-0.963,0.615-1.016,1.073H242.263z"/>
		<path d="M243.719,82.889c0-0.428-0.007-0.796-0.029-1.134h0.579l0.029,0.714h0.023c0.165-0.488,0.571-0.796,1.015-0.796    c0.068,0,0.121,0.007,0.181,0.015v0.623c-0.067-0.008-0.135-0.015-0.226-0.015c-0.466,0-0.797,0.353-0.888,0.841    c-0.015,0.098-0.022,0.202-0.022,0.308v1.944h-0.662V82.889z"/>
		<path d="M247.561,85.389v-0.405l0.519-0.503c1.249-1.187,1.82-1.817,1.82-2.553c0-0.495-0.232-0.953-0.963-0.953    c-0.443,0-0.812,0.225-1.038,0.413l-0.21-0.466c0.331-0.277,0.819-0.495,1.384-0.495c1.046,0,1.489,0.721,1.489,1.419    c0,0.9-0.654,1.629-1.685,2.619l-0.384,0.36v0.016h2.188v0.548H247.561z"/>
		<path d="M252.973,85.472c-0.955,0-1.609-0.894-1.625-2.508c0-1.645,0.715-2.537,1.708-2.537c1.023,0,1.617,0.915,1.617,2.47    c0,1.659-0.624,2.575-1.692,2.575H252.973z M253.011,84.961c0.669,0,0.993-0.788,0.993-2.035c0-1.201-0.302-1.989-0.993-1.989    c-0.603,0-0.993,0.766-0.993,1.989c-0.016,1.27,0.376,2.035,0.985,2.035H253.011z"/>
		<path d="M256.708,81.125h-0.015l-0.851,0.457l-0.128-0.503l1.068-0.57h0.564v4.88h-0.64V81.125z"/>
		<path d="M259.127,85.389v-0.405l0.519-0.503c1.249-1.187,1.82-1.817,1.82-2.553c0-0.495-0.232-0.953-0.963-0.953    c-0.443,0-0.812,0.225-1.038,0.413l-0.21-0.466c0.331-0.277,0.819-0.495,1.384-0.495c1.046,0,1.489,0.721,1.489,1.419    c0,0.9-0.654,1.629-1.685,2.619l-0.384,0.36v0.016h2.188v0.548H259.127z"/>
		<path d="M265.162,83.692c0.016,0.886,0.58,1.253,1.242,1.253c0.474,0,0.767-0.082,1.008-0.188l0.12,0.474    c-0.233,0.104-0.64,0.232-1.219,0.232c-1.113,0-1.79-0.743-1.79-1.832c0-1.096,0.654-1.959,1.715-1.959    c1.188,0,1.497,1.043,1.497,1.711c0,0.136-0.008,0.233-0.022,0.309H265.162z M267.096,83.219c0.008-0.42-0.173-1.073-0.91-1.073    c-0.677,0-0.963,0.615-1.016,1.073H267.096z"/>
		<path d="M268.552,80.059h0.662v5.33h-0.662V80.059z"/>
		<path d="M270.701,83.692c0.016,0.886,0.58,1.253,1.242,1.253c0.474,0,0.767-0.082,1.008-0.188l0.12,0.474    c-0.233,0.104-0.64,0.232-1.219,0.232c-1.113,0-1.79-0.743-1.79-1.832c0-1.096,0.654-1.959,1.715-1.959    c1.188,0,1.497,1.043,1.497,1.711c0,0.136-0.008,0.233-0.022,0.309H270.701z M272.635,83.219c0.008-0.42-0.173-1.073-0.91-1.073    c-0.677,0-0.963,0.615-1.016,1.073H272.635z"/>
		<path d="M276.687,85.254c-0.173,0.082-0.557,0.21-1.046,0.21c-1.098,0-1.812-0.743-1.812-1.854c0-1.118,0.767-1.937,1.956-1.937    c0.391,0,0.736,0.098,0.917,0.195l-0.15,0.503c-0.158-0.083-0.406-0.173-0.767-0.173c-0.836,0-1.287,0.623-1.287,1.374    c0,0.841,0.542,1.358,1.264,1.358c0.377,0,0.625-0.09,0.812-0.173L276.687,85.254z"/>
		<path d="M278.256,80.885v0.87h0.947v0.503h-0.947v1.952c0,0.45,0.128,0.706,0.496,0.706c0.181,0,0.286-0.016,0.384-0.045    l0.03,0.503c-0.128,0.045-0.331,0.09-0.587,0.09c-0.309,0-0.557-0.105-0.715-0.278c-0.181-0.202-0.256-0.525-0.256-0.953v-1.975    h-0.563v-0.503h0.563v-0.668L278.256,80.885z"/>
		<path d="M280.263,81.14c-0.241,0-0.398-0.188-0.398-0.405c0-0.233,0.165-0.413,0.413-0.413c0.241,0,0.406,0.18,0.406,0.413    c0,0.218-0.158,0.405-0.413,0.405H280.263z M279.946,85.389v-3.634h0.662v3.634H279.946z"/>
		<path d="M283.188,85.472c-0.979,0-1.745-0.721-1.745-1.87c0-1.216,0.805-1.929,1.805-1.929c1.046,0,1.753,0.758,1.753,1.861    c0,1.352-0.94,1.938-1.805,1.938H283.188z M283.218,84.976c0.632,0,1.105-0.593,1.105-1.419c0-0.615-0.309-1.389-1.091-1.389    c-0.774,0-1.113,0.721-1.113,1.411c0,0.796,0.451,1.396,1.091,1.396H283.218z"/>
		<path d="M285.831,82.738c0-0.383-0.007-0.683-0.029-0.983h0.586l0.038,0.594h0.015c0.181-0.338,0.603-0.676,1.204-0.676    c0.504,0,1.286,0.3,1.286,1.546v2.17h-0.662v-2.095c0-0.585-0.218-1.081-0.843-1.081c-0.429,0-0.767,0.308-0.888,0.676    c-0.029,0.083-0.045,0.203-0.045,0.308v2.192h-0.662V82.738z"/>
		<path d="M231.664,90.396c0.406-0.061,0.88-0.105,1.399-0.105c0.939,0,1.609,0.218,2.053,0.631    c0.459,0.413,0.723,0.998,0.723,1.816c0,0.826-0.264,1.502-0.729,1.967c-0.481,0.474-1.264,0.729-2.249,0.729    c-0.475,0-0.858-0.015-1.196-0.06V90.396z M232.326,94.878c0.165,0.03,0.406,0.03,0.661,0.03c1.399,0.008,2.159-0.781,2.159-2.147    c0.008-1.193-0.669-1.951-2.054-1.951c-0.338,0-0.594,0.029-0.767,0.067V94.878z"/>
		<path d="M237.03,93.692c0.016,0.886,0.58,1.253,1.241,1.253c0.475,0,0.768-0.082,1.009-0.188l0.12,0.474    c-0.233,0.104-0.64,0.232-1.219,0.232c-1.113,0-1.79-0.743-1.79-1.832c0-1.096,0.654-1.959,1.715-1.959    c1.188,0,1.497,1.043,1.497,1.711c0,0.136-0.008,0.233-0.022,0.309H237.03z M238.964,93.219c0.008-0.42-0.173-1.073-0.91-1.073    c-0.677,0-0.963,0.615-1.016,1.073H238.964z"/>
		<path d="M240.42,92.738c0-0.383-0.015-0.683-0.029-0.983h0.579l0.029,0.586h0.023c0.203-0.346,0.541-0.668,1.15-0.668    c0.489,0,0.865,0.3,1.023,0.728h0.015c0.113-0.21,0.264-0.36,0.414-0.473c0.218-0.165,0.451-0.255,0.797-0.255    c0.489,0,1.204,0.315,1.204,1.576v2.14h-0.647v-2.057c0-0.706-0.263-1.119-0.789-1.119c-0.384,0-0.67,0.278-0.79,0.594    c-0.03,0.097-0.053,0.217-0.053,0.33v2.252h-0.647v-2.185c0-0.578-0.256-0.991-0.76-0.991c-0.406,0-0.714,0.33-0.819,0.661    c-0.038,0.098-0.053,0.21-0.053,0.322v2.192h-0.647V92.738z"/>
		<path d="M248.171,95.472c-0.979,0-1.745-0.721-1.745-1.87c0-1.216,0.805-1.929,1.805-1.929c1.046,0,1.753,0.758,1.753,1.861    c0,1.352-0.94,1.938-1.805,1.938H248.171z M248.201,94.976c0.632,0,1.105-0.593,1.105-1.419c0-0.615-0.309-1.389-1.091-1.389    c-0.774,0-1.113,0.721-1.113,1.411c0,0.796,0.451,1.396,1.091,1.396H248.201z"/>
		<path d="M253.41,95.254c-0.173,0.082-0.557,0.21-1.046,0.21c-1.098,0-1.812-0.743-1.812-1.854c0-1.118,0.767-1.937,1.956-1.937    c0.391,0,0.736,0.098,0.917,0.195l-0.15,0.503c-0.158-0.083-0.406-0.173-0.767-0.173c-0.836,0-1.287,0.623-1.287,1.374    c0,0.841,0.542,1.358,1.264,1.358c0.377,0,0.625-0.09,0.812-0.173L253.41,95.254z"/>
		<path d="M254.182,92.889c0-0.428-0.007-0.796-0.029-1.134h0.579l0.029,0.714h0.023c0.165-0.488,0.571-0.796,1.015-0.796    c0.068,0,0.121,0.007,0.181,0.015v0.623c-0.067-0.008-0.135-0.015-0.226-0.015c-0.466,0-0.797,0.353-0.888,0.841    c-0.015,0.098-0.022,0.202-0.022,0.308v1.944h-0.662V92.889z"/>
		<path d="M259.205,94.518c0,0.315,0.016,0.623,0.053,0.871h-0.595l-0.06-0.458h-0.022c-0.196,0.285-0.595,0.541-1.113,0.541    c-0.737,0-1.113-0.519-1.113-1.044c0-0.878,0.782-1.358,2.188-1.352v-0.075c0-0.3-0.083-0.848-0.827-0.841    c-0.346,0-0.7,0.098-0.955,0.271l-0.15-0.442c0.301-0.188,0.744-0.315,1.203-0.315c1.121,0,1.392,0.758,1.392,1.486V94.518z     M258.559,93.534c-0.723-0.015-1.543,0.112-1.543,0.818c0,0.436,0.286,0.631,0.617,0.631c0.481,0,0.79-0.301,0.896-0.608    c0.022-0.067,0.03-0.143,0.03-0.21V93.534z"/>
		<path d="M261.06,90.885v0.87h0.947v0.503h-0.947v1.952c0,0.45,0.128,0.706,0.496,0.706c0.181,0,0.286-0.016,0.384-0.045    l0.03,0.503c-0.128,0.045-0.331,0.09-0.587,0.09c-0.309,0-0.557-0.105-0.715-0.278c-0.181-0.202-0.256-0.525-0.256-0.953v-1.975    h-0.563v-0.503h0.563v-0.668L261.06,90.885z"/>
		<path d="M262.66,94.713c0.203,0.12,0.549,0.256,0.88,0.256c0.474,0,0.7-0.233,0.7-0.541c0-0.315-0.188-0.48-0.67-0.66    c-0.662-0.24-0.971-0.602-0.971-1.029c0-0.585,0.481-1.065,1.257-1.065c0.368,0,0.691,0.098,0.888,0.225l-0.158,0.474    c-0.143-0.083-0.406-0.211-0.745-0.211c-0.391,0-0.602,0.226-0.602,0.496c0,0.3,0.211,0.436,0.685,0.623    c0.624,0.232,0.955,0.548,0.955,1.088c0,0.646-0.504,1.097-1.354,1.097c-0.399,0-0.768-0.105-1.023-0.255L262.66,94.713z"/>
		<path d="M267.319,90.059h0.662v2.274h0.016c0.232-0.405,0.654-0.66,1.241-0.66c0.902,0,1.534,0.75,1.534,1.847    c0,1.306-0.827,1.952-1.64,1.952c-0.526,0-0.94-0.203-1.219-0.684h-0.016l-0.037,0.601h-0.571    c0.022-0.248,0.029-0.615,0.029-0.938V90.059z M267.981,93.933c0,0.082,0.008,0.165,0.022,0.24    c0.128,0.458,0.52,0.772,0.993,0.772c0.7,0,1.105-0.562,1.105-1.396c0-0.736-0.376-1.359-1.083-1.359    c-0.451,0-0.872,0.315-1,0.811c-0.022,0.083-0.038,0.173-0.038,0.278V93.933z"/>
		<path d="M271.972,93.692c0.016,0.886,0.58,1.253,1.241,1.253c0.475,0,0.768-0.082,1.009-0.188l0.12,0.474    c-0.233,0.104-0.64,0.232-1.219,0.232c-1.113,0-1.79-0.743-1.79-1.832c0-1.096,0.654-1.959,1.715-1.959    c1.188,0,1.497,1.043,1.497,1.711c0,0.136-0.008,0.233-0.022,0.309H271.972z M273.905,93.219c0.008-0.42-0.173-1.073-0.91-1.073    c-0.677,0-0.963,0.615-1.016,1.073H273.905z"/>
		<path d="M275.422,95.389v-3.131h-0.504v-0.503h0.504v-0.173c0-0.51,0.12-0.976,0.429-1.269c0.248-0.24,0.579-0.338,0.88-0.338    c0.241,0,0.437,0.053,0.564,0.105l-0.083,0.511c-0.105-0.045-0.233-0.083-0.429-0.083c-0.557,0-0.707,0.495-0.707,1.051v0.195    h0.88v0.503h-0.872v3.131H275.422z"/>
		<path d="M279.039,95.472c-0.979,0-1.745-0.721-1.745-1.87c0-1.216,0.805-1.929,1.805-1.929c1.046,0,1.753,0.758,1.753,1.861    c0,1.352-0.94,1.938-1.805,1.938H279.039z M279.069,94.976c0.632,0,1.105-0.593,1.105-1.419c0-0.615-0.309-1.389-1.091-1.389    c-0.774,0-1.113,0.721-1.113,1.411c0,0.796,0.451,1.396,1.091,1.396H279.069z"/>
		<path d="M281.683,92.889c0-0.428-0.007-0.796-0.029-1.134h0.579l0.029,0.714h0.023c0.165-0.488,0.571-0.796,1.016-0.796    c0.067,0,0.12,0.007,0.18,0.015v0.623c-0.067-0.008-0.135-0.015-0.226-0.015c-0.466,0-0.797,0.353-0.888,0.841    c-0.015,0.098-0.022,0.202-0.022,0.308v1.944h-0.662V92.889z"/>
		<path d="M284.517,93.692c0.016,0.886,0.58,1.253,1.241,1.253c0.475,0,0.768-0.082,1.009-0.188l0.12,0.474    c-0.233,0.104-0.64,0.232-1.219,0.232c-1.113,0-1.79-0.743-1.79-1.832c0-1.096,0.654-1.959,1.715-1.959    c1.188,0,1.497,1.043,1.497,1.711c0,0.136-0.008,0.233-0.022,0.309H284.517z M286.45,93.219c0.008-0.42-0.173-1.073-0.91-1.073    c-0.677,0-0.963,0.615-1.016,1.073H286.45z"/>
		<path d="M292.064,94.518c0,0.315,0.016,0.623,0.053,0.871h-0.595l-0.06-0.458h-0.022c-0.196,0.285-0.595,0.541-1.113,0.541    c-0.737,0-1.113-0.519-1.113-1.044c0-0.878,0.782-1.358,2.188-1.352v-0.075c0-0.3-0.083-0.848-0.827-0.841    c-0.346,0-0.7,0.098-0.955,0.271l-0.15-0.442c0.301-0.188,0.744-0.315,1.203-0.315c1.121,0,1.392,0.758,1.392,1.486V94.518z     M291.418,93.534c-0.723-0.015-1.543,0.112-1.543,0.818c0,0.436,0.286,0.631,0.617,0.631c0.481,0,0.79-0.301,0.896-0.608    c0.022-0.067,0.03-0.143,0.03-0.21V93.534z"/>
		<path d="M293.122,92.738c0-0.383-0.007-0.683-0.029-0.983h0.586l0.038,0.594h0.015c0.181-0.338,0.603-0.676,1.204-0.676    c0.504,0,1.286,0.3,1.286,1.546v2.17h-0.662v-2.095c0-0.585-0.218-1.081-0.843-1.081c-0.429,0-0.767,0.308-0.888,0.676    c-0.029,0.083-0.045,0.203-0.045,0.308v2.192h-0.662V92.738z"/>
		<path d="M300.438,90.059v4.392c0,0.323,0.008,0.69,0.03,0.938h-0.595l-0.029-0.631h-0.016c-0.203,0.405-0.639,0.714-1.233,0.714    c-0.88,0-1.564-0.743-1.564-1.848c-0.008-1.216,0.752-1.951,1.632-1.951c0.564,0,0.94,0.263,1.099,0.548h0.015v-2.162H300.438z     M299.775,93.234c0-0.091-0.007-0.195-0.029-0.285c-0.099-0.413-0.459-0.759-0.956-0.759c-0.685,0-1.091,0.601-1.091,1.396    c0,0.743,0.369,1.352,1.076,1.352c0.443,0,0.85-0.301,0.971-0.796c0.022-0.083,0.029-0.173,0.029-0.278V93.234z"/>
		<path d="M234.214,104.518c0,0.315,0.015,0.623,0.053,0.871h-0.595l-0.06-0.458h-0.022c-0.196,0.285-0.595,0.541-1.113,0.541    c-0.737,0-1.113-0.519-1.113-1.044c0-0.878,0.782-1.358,2.188-1.352v-0.075c0-0.3-0.083-0.848-0.827-0.841    c-0.346,0-0.7,0.098-0.955,0.271l-0.15-0.442c0.301-0.188,0.744-0.315,1.203-0.315c1.121,0,1.392,0.758,1.392,1.486V104.518z     M233.567,103.534c-0.723-0.015-1.543,0.112-1.543,0.818c0,0.436,0.286,0.631,0.617,0.631c0.481,0,0.79-0.301,0.896-0.608    c0.022-0.067,0.03-0.143,0.03-0.21V103.534z"/>
		<path d="M235.332,105.389v-3.131h-0.504v-0.503h0.504v-0.173c0-0.51,0.12-0.976,0.429-1.269c0.248-0.24,0.579-0.338,0.88-0.338    c0.241,0,0.437,0.053,0.564,0.105l-0.083,0.511c-0.105-0.045-0.233-0.083-0.429-0.083c-0.557,0-0.707,0.495-0.707,1.051v0.195    h0.88v0.503h-0.872v3.131H235.332z"/>
		<path d="M238.264,100.885v0.87h0.947v0.503h-0.947v1.952c0,0.45,0.128,0.706,0.496,0.706c0.181,0,0.286-0.016,0.384-0.045    l0.03,0.503c-0.128,0.045-0.331,0.09-0.587,0.09c-0.309,0-0.557-0.105-0.715-0.278c-0.181-0.202-0.256-0.525-0.256-0.953v-1.975    h-0.563v-0.503h0.563v-0.668L238.264,100.885z"/>
		<path d="M240.329,103.692c0.016,0.886,0.58,1.253,1.241,1.253c0.475,0,0.768-0.082,1.009-0.188l0.12,0.474    c-0.233,0.104-0.64,0.232-1.219,0.232c-1.113,0-1.79-0.743-1.79-1.832c0-1.096,0.654-1.959,1.715-1.959    c1.188,0,1.497,1.043,1.497,1.711c0,0.136-0.008,0.233-0.022,0.309H240.329z M242.263,103.219c0.008-0.42-0.173-1.073-0.91-1.073    c-0.677,0-0.963,0.615-1.016,1.073H242.263z"/>
		<path d="M243.719,102.889c0-0.428-0.007-0.796-0.029-1.134h0.579l0.029,0.714h0.023c0.165-0.488,0.571-0.796,1.015-0.796    c0.068,0,0.121,0.007,0.181,0.015v0.623c-0.067-0.008-0.135-0.015-0.226-0.015c-0.466,0-0.797,0.353-0.888,0.841    c-0.015,0.098-0.022,0.202-0.022,0.308v1.944h-0.662V102.889z"/>
		<path d="M247.561,105.389v-0.405l0.519-0.503c1.249-1.187,1.82-1.817,1.82-2.553c0-0.495-0.232-0.953-0.963-0.953    c-0.443,0-0.812,0.225-1.038,0.413l-0.21-0.466c0.331-0.277,0.819-0.495,1.384-0.495c1.046,0,1.489,0.721,1.489,1.419    c0,0.9-0.654,1.629-1.685,2.619l-0.384,0.36v0.016h2.188v0.548H247.561z"/>
		<path d="M252.973,105.472c-0.955,0-1.609-0.894-1.625-2.508c0-1.645,0.715-2.537,1.708-2.537c1.023,0,1.617,0.915,1.617,2.47    c0,1.659-0.624,2.575-1.692,2.575H252.973z M253.011,104.961c0.669,0,0.993-0.788,0.993-2.035c0-1.201-0.302-1.989-0.993-1.989    c-0.603,0-0.993,0.766-0.993,1.989c-0.016,1.27,0.376,2.035,0.985,2.035H253.011z"/>
		<path d="M256.708,101.125h-0.015l-0.851,0.457l-0.128-0.503l1.068-0.57h0.564v4.88h-0.64V101.125z"/>
		<path d="M259.127,105.389v-0.405l0.519-0.503c1.249-1.187,1.82-1.817,1.82-2.553c0-0.495-0.232-0.953-0.963-0.953    c-0.443,0-0.812,0.225-1.038,0.413l-0.21-0.466c0.331-0.277,0.819-0.495,1.384-0.495c1.046,0,1.489,0.721,1.489,1.419    c0,0.9-0.654,1.629-1.685,2.619l-0.384,0.36v0.016h2.188v0.548H259.127z"/>
		<path d="M265.162,103.692c0.016,0.886,0.58,1.253,1.242,1.253c0.474,0,0.767-0.082,1.008-0.188l0.12,0.474    c-0.233,0.104-0.64,0.232-1.219,0.232c-1.113,0-1.79-0.743-1.79-1.832c0-1.096,0.654-1.959,1.715-1.959    c1.188,0,1.497,1.043,1.497,1.711c0,0.136-0.008,0.233-0.022,0.309H265.162z M267.096,103.219c0.008-0.42-0.173-1.073-0.91-1.073    c-0.677,0-0.963,0.615-1.016,1.073H267.096z"/>
		<path d="M268.552,100.059h0.662v5.33h-0.662V100.059z"/>
		<path d="M270.701,103.692c0.016,0.886,0.58,1.253,1.242,1.253c0.474,0,0.767-0.082,1.008-0.188l0.12,0.474    c-0.233,0.104-0.64,0.232-1.219,0.232c-1.113,0-1.79-0.743-1.79-1.832c0-1.096,0.654-1.959,1.715-1.959    c1.188,0,1.497,1.043,1.497,1.711c0,0.136-0.008,0.233-0.022,0.309H270.701z M272.635,103.219c0.008-0.42-0.173-1.073-0.91-1.073    c-0.677,0-0.963,0.615-1.016,1.073H272.635z"/>
		<path d="M276.687,105.254c-0.173,0.082-0.557,0.21-1.046,0.21c-1.098,0-1.812-0.743-1.812-1.854c0-1.118,0.767-1.937,1.956-1.937    c0.391,0,0.736,0.098,0.917,0.195l-0.15,0.503c-0.158-0.083-0.406-0.173-0.767-0.173c-0.836,0-1.287,0.623-1.287,1.374    c0,0.841,0.542,1.358,1.264,1.358c0.377,0,0.625-0.09,0.812-0.173L276.687,105.254z"/>
		<path d="M278.256,100.885v0.87h0.947v0.503h-0.947v1.952c0,0.45,0.128,0.706,0.496,0.706c0.181,0,0.286-0.016,0.384-0.045    l0.03,0.503c-0.128,0.045-0.331,0.09-0.587,0.09c-0.309,0-0.557-0.105-0.715-0.278c-0.181-0.202-0.256-0.525-0.256-0.953v-1.975    h-0.563v-0.503h0.563v-0.668L278.256,100.885z"/>
		<path d="M280.263,101.14c-0.241,0-0.398-0.188-0.398-0.405c0-0.233,0.165-0.413,0.413-0.413c0.241,0,0.406,0.18,0.406,0.413    c0,0.218-0.158,0.405-0.413,0.405H280.263z M279.946,105.389v-3.634h0.662v3.634H279.946z"/>
		<path d="M283.188,105.472c-0.979,0-1.745-0.721-1.745-1.87c0-1.216,0.805-1.929,1.805-1.929c1.046,0,1.753,0.758,1.753,1.861    c0,1.352-0.94,1.938-1.805,1.938H283.188z M283.218,104.976c0.632,0,1.105-0.593,1.105-1.419c0-0.615-0.309-1.389-1.091-1.389    c-0.774,0-1.113,0.721-1.113,1.411c0,0.796,0.451,1.396,1.091,1.396H283.218z"/>
		<path d="M285.831,102.738c0-0.383-0.007-0.683-0.029-0.983h0.586l0.038,0.594h0.015c0.181-0.338,0.603-0.676,1.204-0.676    c0.504,0,1.286,0.3,1.286,1.546v2.17h-0.662v-2.095c0-0.585-0.218-1.081-0.843-1.081c-0.429,0-0.767,0.308-0.888,0.676    c-0.029,0.083-0.045,0.203-0.045,0.308v2.192h-0.662V102.738z"/>
	</g>
	
		<line fill="none" stroke="#000000" stroke-linecap="round" stroke-linejoin="round" stroke-miterlimit="10" x1="208.864" y1="33.562" x2="227.864" y2="33.562"/>
	<circle cx="79.849" cy="36.828" r="1.75"/>
	<path fill="none" stroke="#000000" stroke-width="0.5" stroke-linejoin="round" stroke-miterlimit="10" d="M77.824,31.933h4.175    M77.824,41.814h4.175 M79.849,36.828v-4.896 M79.849,41.814v-4.986"/>
	<path fill="none" stroke="#000000" stroke-width="0.5" stroke-linejoin="round" stroke-miterlimit="10" d="M167.205,32.438h4.145    M167.205,42.229h4.145 M169.23,37.334v-4.896 M169.23,42.229v-4.896"/>
	<path fill="none" stroke="#000000" stroke-width="0.5" stroke-linejoin="round" stroke-miterlimit="10" d="M77.824,44.761h4.175    M77.824,53.295h4.175 M79.849,48.98v-4.22 M79.849,53.295V48.98"/>
	<path fill="none" stroke="#000000" stroke-width="0.5" stroke-linejoin="round" stroke-miterlimit="10" d="M167.205,26.531h4.145    M167.205,34.971h4.145 M169.23,30.751v-4.22 M169.23,34.971v-4.22"/>
	<path fill="none" stroke="#000000" stroke-width="0.5" stroke-linejoin="round" stroke-miterlimit="10" d="M77.824,32.438h4.175    M77.824,44.418h4.175 M79.849,38.854v-6.415 M79.849,44.418v-5.564"/>
	<path fill="none" stroke="#000000" stroke-width="0.5" stroke-linejoin="round" stroke-miterlimit="10" d="M167.205,30.751h4.145    M167.205,43.002h4.145 M169.23,37.165v-6.414 M169.23,43.002v-5.837"/>
	<path fill="none" stroke="#000000" stroke-width="0.5" stroke-linejoin="round" stroke-miterlimit="10" d="M77.824,22.311h4.175    M77.824,33.451h4.175 M79.849,27.881v-5.57 M79.849,33.451v-5.57"/>
	<path fill="none" stroke="#000000" stroke-width="0.5" stroke-linejoin="round" stroke-miterlimit="10" d="M167.205,19.947h4.145    M167.205,31.426h4.145 M169.23,25.688v-5.74 M169.23,31.426v-5.738"/>
	
		<line fill="none" stroke="#000000" stroke-linecap="round" stroke-linejoin="round" stroke-miterlimit="10" x1="79.849" y1="36.828" x2="169.23" y2="37.334"/>
	<g>
		<g>
			
				<line fill="none" stroke="#000000" stroke-width="1.35" stroke-linecap="round" stroke-linejoin="round" x1="79.849" y1="48.98" x2="79.849" y2="48.98"/>
			
				<line fill="none" stroke="#000000" stroke-width="1.35" stroke-linecap="round" stroke-linejoin="round" stroke-dasharray="0,3.0405" x1="82.829" y1="48.373" x2="167.741" y2="31.055"/>
			
				<line fill="none" stroke="#000000" stroke-width="1.35" stroke-linecap="round" stroke-linejoin="round" x1="169.23" y1="30.751" x2="169.23" y2="30.751"/>
		</g>
	</g>
	
		<line fill="none" stroke="#808285" stroke-linecap="round" stroke-linejoin="round" stroke-miterlimit="10" x1="79.849" y1="38.836" x2="169.23" y2="37.165"/>
	<g>
		<g>
			
				<line fill="none" stroke="#808285" stroke-width="1.35" stroke-linecap="round" stroke-linejoin="round" x1="79.849" y1="27.881" x2="79.849" y2="27.881"/>
			
				<line fill="none" stroke="#808285" stroke-width="1.35" stroke-linecap="round" stroke-linejoin="round" stroke-dasharray="0,2.98" x1="82.829" y1="27.808" x2="167.741" y2="25.724"/>
			
				<line fill="none" stroke="#808285" stroke-width="1.35" stroke-linecap="round" stroke-linejoin="round" x1="169.23" y1="25.688" x2="169.23" y2="25.688"/>
		</g>
	</g>
	<circle cx="169.73" cy="37.333" r="1.75"/>
	<circle fill="#808285" cx="169.23" cy="37.333" r="1.75"/>
	<circle fill="#808285" cx="79.849" cy="38.574" r="1.75"/>
	<rect x="167.48" y="23.938" fill="#808285" width="3.5" height="3.5"/>
	<rect x="78.099" y="26.131" fill="#808285" width="3.5" height="3.5"/>
	<rect x="167.48" y="29.001" width="3.5" height="3.5"/>
	<rect x="78.099" y="47.23" width="3.5" height="3.5"/>
	<circle cx="218.364" cy="33.843" r="1.75"/>
	<rect x="216.614" y="51.248" width="3.5" height="3.5"/>
	<circle fill="#808285" cx="218.364" cy="73.229" r="1.75"/>
	<rect x="216.614" y="91.812" fill="#808285" width="3.5" height="3.5"/>
	<g>
		<g>
			
				<line fill="none" stroke="#000000" stroke-width="1.35" stroke-linecap="round" stroke-linejoin="round" x1="208.864" y1="52.998" x2="208.864" y2="52.998"/>
			
				<line fill="none" stroke="#000000" stroke-width="1.35" stroke-linecap="round" stroke-linejoin="round" stroke-dasharray="0,3.1664" x1="212.031" y1="52.998" x2="226.281" y2="52.998"/>
			
				<line fill="none" stroke="#000000" stroke-width="1.35" stroke-linecap="round" stroke-linejoin="round" x1="227.864" y1="52.998" x2="227.864" y2="52.998"/>
		</g>
	</g>
	
		<line fill="none" stroke="#808285" stroke-linecap="round" stroke-linejoin="round" stroke-miterlimit="10" x1="208.864" y1="73.28" x2="227.864" y2="73.28"/>
	<g>
		<g>
			
				<line fill="none" stroke="#808285" stroke-width="1.35" stroke-linecap="round" stroke-linejoin="round" x1="208.864" y1="93.562" x2="208.864" y2="93.562"/>
			
				<line fill="none" stroke="#808285" stroke-width="1.35" stroke-linecap="round" stroke-linejoin="round" stroke-dasharray="0,3.1664" x1="212.031" y1="93.562" x2="226.281" y2="93.562"/>
			
				<line fill="none" stroke="#808285" stroke-width="1.35" stroke-linecap="round" stroke-linejoin="round" x1="227.864" y1="93.562" x2="227.864" y2="93.562"/>
		</g>
	</g>
</g>
</svg>