<svg xmlns="http://www.w3.org/2000/svg" xmlns:xlink="http://www.w3.org/1999/xlink" version="1.1" x="0px" y="0px" width="296.059px" height="114.208px" viewBox="0 0 296.059 114.208" enable-background="new 0 0 296.059 114.208" xml:space="preserve">
<g id="wide" display="none">
</g>
<g id="text_column">
</g>
<g id="art">
	
		<rect x="211.982" y="56.039" fill="#D1D3D4" stroke="#000000" stroke-width="0.5" stroke-linejoin="round" stroke-miterlimit="10" width="6" height="5.999"/>
	<g>
		<path d="M222.674,46.517l-0.56,1.695h-0.72l1.831-5.389h0.84l1.839,5.389h-0.743l-0.576-1.695H222.674z M224.441,45.974    l-0.536-1.551c-0.111-0.352-0.191-0.671-0.271-0.983h-0.024c-0.071,0.312-0.159,0.647-0.264,0.976l-0.527,1.559H224.441z"/>
		<path d="M226.675,45.39c0-0.408-0.016-0.728-0.032-1.048h0.616l0.031,0.624h0.024c0.216-0.368,0.575-0.712,1.224-0.712    c0.52,0,0.919,0.32,1.087,0.776h0.016c0.12-0.224,0.28-0.384,0.44-0.504c0.231-0.176,0.479-0.272,0.848-0.272    c0.52,0,1.279,0.336,1.279,1.679v2.279h-0.688v-2.191c0-0.751-0.28-1.191-0.84-1.191c-0.408,0-0.712,0.296-0.84,0.632    c-0.032,0.104-0.056,0.232-0.056,0.352v2.398h-0.688v-2.327c0-0.616-0.272-1.056-0.808-1.056c-0.432,0-0.76,0.352-0.872,0.704    c-0.04,0.104-0.056,0.224-0.056,0.344v2.335h-0.688V45.39z"/>
		<path d="M233.746,46.405c0.017,0.944,0.616,1.335,1.319,1.335c0.504,0,0.815-0.088,1.071-0.2l0.128,0.504    c-0.247,0.112-0.68,0.248-1.295,0.248c-1.184,0-1.903-0.792-1.903-1.951c0-1.167,0.696-2.087,1.823-2.087    c1.264,0,1.591,1.111,1.591,1.823c0,0.144-0.008,0.248-0.023,0.328H233.746z M235.801,45.902c0.009-0.448-0.184-1.144-0.967-1.144    c-0.72,0-1.023,0.656-1.08,1.144H235.801z"/>
		<path d="M237.354,45.55c0-0.456-0.008-0.848-0.032-1.208h0.616l0.031,0.76h0.024c0.176-0.52,0.607-0.848,1.079-0.848    c0.072,0,0.128,0.008,0.192,0.016v0.664c-0.072-0.008-0.145-0.016-0.24-0.016c-0.496,0-0.848,0.375-0.943,0.896    c-0.016,0.104-0.024,0.216-0.024,0.328v2.071h-0.703V45.55z"/>
		<path d="M240.307,43.687c-0.256,0-0.424-0.2-0.424-0.432c0-0.248,0.176-0.44,0.439-0.44c0.256,0,0.432,0.192,0.432,0.44    c0,0.231-0.168,0.432-0.439,0.432H240.307z M239.971,48.212v-3.87h0.703v3.87H239.971z"/>
		<path d="M244.602,48.068c-0.185,0.088-0.592,0.224-1.111,0.224c-1.168,0-1.928-0.792-1.928-1.975c0-1.191,0.815-2.063,2.079-2.063    c0.416,0,0.783,0.104,0.976,0.208l-0.16,0.536c-0.168-0.088-0.432-0.184-0.815-0.184c-0.888,0-1.367,0.664-1.367,1.463    c0,0.896,0.576,1.447,1.344,1.447c0.399,0,0.663-0.096,0.863-0.184L244.602,48.068z"/>
		<path d="M248.153,47.285c0,0.336,0.016,0.664,0.056,0.928h-0.632l-0.063-0.488h-0.024c-0.208,0.304-0.632,0.576-1.183,0.576    c-0.784,0-1.184-0.552-1.184-1.111c0-0.936,0.831-1.447,2.326-1.439v-0.08c0-0.32-0.088-0.904-0.879-0.896    c-0.368,0-0.744,0.104-1.016,0.288l-0.16-0.472c0.32-0.2,0.792-0.336,1.279-0.336c1.191,0,1.479,0.808,1.479,1.583V47.285z     M247.466,46.237c-0.768-0.016-1.64,0.12-1.64,0.872c0,0.464,0.304,0.672,0.656,0.672c0.512,0,0.839-0.32,0.951-0.648    c0.024-0.072,0.032-0.152,0.032-0.224V46.237z"/>
		<path d="M249.282,45.39c0-0.408-0.008-0.728-0.031-1.048h0.623l0.04,0.632h0.017c0.191-0.36,0.64-0.72,1.279-0.72    c0.535,0,1.367,0.32,1.367,1.647v2.311h-0.704v-2.231c0-0.624-0.231-1.151-0.896-1.151c-0.456,0-0.815,0.328-0.943,0.72    c-0.032,0.088-0.048,0.216-0.048,0.328v2.335h-0.704V45.39z"/>
		<path d="M253.627,47.493c0.216,0.128,0.583,0.272,0.936,0.272c0.503,0,0.743-0.248,0.743-0.576c0-0.336-0.2-0.512-0.712-0.704    c-0.703-0.256-1.031-0.64-1.031-1.095c0-0.624,0.512-1.136,1.335-1.136c0.393,0,0.736,0.104,0.944,0.24l-0.168,0.503    c-0.152-0.088-0.432-0.224-0.792-0.224c-0.416,0-0.64,0.24-0.64,0.528c0,0.319,0.224,0.463,0.728,0.664    c0.664,0.248,1.016,0.583,1.016,1.159c0,0.688-0.536,1.167-1.439,1.167c-0.424,0-0.815-0.112-1.087-0.272L253.627,47.493z"/>
		<path d="M261.313,47.285c0,0.336,0.016,0.664,0.056,0.928h-0.632l-0.063-0.488h-0.024c-0.208,0.304-0.632,0.576-1.184,0.576    c-0.783,0-1.183-0.552-1.183-1.111c0-0.936,0.831-1.447,2.326-1.439v-0.08c0-0.32-0.088-0.904-0.88-0.896    c-0.367,0-0.743,0.104-1.015,0.288l-0.16-0.472c0.319-0.2,0.792-0.336,1.279-0.336c1.191,0,1.479,0.808,1.479,1.583V47.285z     M260.626,46.237c-0.768-0.016-1.64,0.12-1.64,0.872c0,0.464,0.304,0.672,0.655,0.672c0.512,0,0.84-0.32,0.952-0.648    c0.023-0.072,0.032-0.152,0.032-0.224V46.237z"/>
		<path d="M262.442,45.55c0-0.456-0.008-0.848-0.032-1.208h0.615l0.032,0.76h0.024c0.176-0.52,0.607-0.848,1.079-0.848    c0.072,0,0.128,0.008,0.191,0.016v0.664c-0.071-0.008-0.144-0.016-0.239-0.016c-0.496,0-0.848,0.375-0.943,0.896    c-0.017,0.104-0.024,0.216-0.024,0.328v2.071h-0.703V45.55z"/>
		<path d="M265.458,46.405c0.016,0.944,0.615,1.335,1.319,1.335c0.504,0,0.815-0.088,1.071-0.2l0.128,0.504    c-0.248,0.112-0.68,0.248-1.295,0.248c-1.184,0-1.903-0.792-1.903-1.951c0-1.167,0.695-2.087,1.823-2.087    c1.263,0,1.591,1.111,1.591,1.823c0,0.144-0.008,0.248-0.023,0.328H265.458z M267.513,45.902c0.008-0.448-0.184-1.144-0.967-1.144    c-0.72,0-1.023,0.656-1.08,1.144H267.513z"/>
		<path d="M270.763,42.536h0.703v5.677h-0.703V42.536z"/>
		<path d="M274.226,48.3c-1.04,0-1.855-0.768-1.855-1.991c0-1.295,0.855-2.055,1.919-2.055c1.111,0,1.863,0.808,1.863,1.983    c0,1.439-1,2.063-1.919,2.063H274.226z M274.257,47.772c0.672,0,1.176-0.631,1.176-1.511c0-0.655-0.328-1.479-1.159-1.479    c-0.824,0-1.184,0.768-1.184,1.503c0,0.847,0.479,1.487,1.159,1.487H274.257z"/>
		<path d="M276.945,47.493c0.216,0.128,0.584,0.272,0.936,0.272c0.504,0,0.744-0.248,0.744-0.576c0-0.336-0.2-0.512-0.712-0.704    c-0.703-0.256-1.031-0.64-1.031-1.095c0-0.624,0.512-1.136,1.335-1.136c0.392,0,0.735,0.104,0.943,0.24l-0.168,0.503    c-0.151-0.088-0.432-0.224-0.791-0.224c-0.416,0-0.64,0.24-0.64,0.528c0,0.319,0.224,0.463,0.728,0.664    c0.663,0.248,1.016,0.583,1.016,1.159c0,0.688-0.536,1.167-1.439,1.167c-0.424,0-0.815-0.112-1.087-0.272L276.945,47.493z"/>
		<path d="M280.609,46.405c0.016,0.944,0.616,1.335,1.319,1.335c0.504,0,0.815-0.088,1.071-0.2l0.128,0.504    c-0.248,0.112-0.68,0.248-1.295,0.248c-1.184,0-1.903-0.792-1.903-1.951c0-1.167,0.695-2.087,1.823-2.087    c1.264,0,1.591,1.111,1.591,1.823c0,0.144-0.008,0.248-0.023,0.328H280.609z M282.664,45.902c0.008-0.448-0.184-1.144-0.967-1.144    c-0.72,0-1.023,0.656-1.08,1.144H282.664z"/>
		<path d="M284.218,45.55c0-0.456-0.008-0.848-0.032-1.208h0.615l0.032,0.76h0.024c0.176-0.52,0.607-0.848,1.079-0.848    c0.072,0,0.128,0.008,0.191,0.016v0.664c-0.071-0.008-0.144-0.016-0.239-0.016c-0.496,0-0.848,0.375-0.943,0.896    c-0.017,0.104-0.024,0.216-0.024,0.328v2.071h-0.703V45.55z"/>
		<path d="M286.737,47.493c0.217,0.128,0.584,0.272,0.936,0.272c0.504,0,0.744-0.248,0.744-0.576c0-0.336-0.2-0.512-0.712-0.704    c-0.703-0.256-1.031-0.64-1.031-1.095c0-0.624,0.512-1.136,1.335-1.136c0.392,0,0.736,0.104,0.943,0.24l-0.168,0.503    c-0.151-0.088-0.432-0.224-0.791-0.224c-0.416,0-0.64,0.24-0.64,0.528c0,0.319,0.224,0.463,0.728,0.664    c0.664,0.248,1.016,0.583,1.016,1.159c0,0.688-0.536,1.167-1.439,1.167c-0.424,0-0.815-0.112-1.088-0.272L286.737,47.493z"/>
	</g>
	
		<rect x="211.754" y="43.039" fill="#808285" stroke="#000000" stroke-width="0.5" stroke-linejoin="round" stroke-miterlimit="10" width="6" height="6"/>
	<g>
		<path d="M222.444,59.517l-0.56,1.695h-0.72l1.831-5.389h0.839l1.839,5.389h-0.743l-0.576-1.695H222.444z M224.211,58.974    l-0.535-1.551c-0.112-0.352-0.192-0.671-0.272-0.983h-0.023c-0.072,0.312-0.16,0.647-0.265,0.976l-0.527,1.559H224.211z"/>
		<path d="M226.444,58.39c0-0.408-0.017-0.728-0.032-1.048h0.615l0.032,0.624h0.024c0.216-0.368,0.575-0.712,1.223-0.712    c0.521,0,0.92,0.32,1.088,0.776h0.016c0.12-0.224,0.28-0.384,0.44-0.504c0.231-0.176,0.479-0.272,0.847-0.272    c0.521,0,1.279,0.336,1.279,1.679v2.279h-0.688v-2.191c0-0.751-0.279-1.191-0.839-1.191c-0.408,0-0.712,0.296-0.84,0.632    c-0.032,0.104-0.056,0.232-0.056,0.352v2.398h-0.688v-2.327c0-0.616-0.271-1.056-0.807-1.056c-0.433,0-0.76,0.352-0.872,0.704    c-0.04,0.104-0.056,0.224-0.056,0.344v2.335h-0.688V58.39z"/>
		<path d="M233.517,59.405c0.016,0.944,0.615,1.335,1.319,1.335c0.504,0,0.815-0.088,1.071-0.2l0.128,0.504    c-0.248,0.112-0.68,0.248-1.295,0.248c-1.184,0-1.903-0.792-1.903-1.951c0-1.167,0.695-2.087,1.823-2.087    c1.263,0,1.591,1.111,1.591,1.823c0,0.144-0.008,0.248-0.023,0.328H233.517z M235.571,58.902c0.008-0.448-0.184-1.144-0.967-1.144    c-0.72,0-1.023,0.656-1.08,1.144H235.571z"/>
		<path d="M237.125,58.55c0-0.456-0.009-0.848-0.032-1.208h0.615l0.032,0.76h0.024c0.176-0.52,0.607-0.848,1.079-0.848    c0.072,0,0.128,0.008,0.192,0.016v0.664c-0.072-0.008-0.145-0.016-0.24-0.016c-0.496,0-0.848,0.375-0.943,0.896    c-0.017,0.104-0.024,0.216-0.024,0.328v2.071h-0.703V58.55z"/>
		<path d="M240.077,56.687c-0.256,0-0.424-0.2-0.424-0.432c0-0.248,0.176-0.44,0.439-0.44c0.256,0,0.432,0.192,0.432,0.44    c0,0.231-0.168,0.432-0.439,0.432H240.077z M239.741,61.212v-3.87h0.703v3.87H239.741z"/>
		<path d="M244.37,61.068c-0.184,0.088-0.592,0.224-1.111,0.224c-1.167,0-1.927-0.792-1.927-1.975c0-1.191,0.815-2.063,2.079-2.063    c0.416,0,0.783,0.104,0.976,0.208l-0.16,0.536c-0.168-0.088-0.432-0.184-0.815-0.184c-0.888,0-1.367,0.664-1.367,1.463    c0,0.896,0.575,1.447,1.343,1.447c0.4,0,0.664-0.096,0.864-0.184L244.37,61.068z"/>
		<path d="M247.923,60.285c0,0.336,0.016,0.664,0.056,0.928h-0.632l-0.063-0.488h-0.024c-0.208,0.304-0.632,0.576-1.184,0.576    c-0.783,0-1.183-0.552-1.183-1.111c0-0.936,0.831-1.447,2.326-1.439v-0.08c0-0.32-0.088-0.904-0.88-0.896    c-0.367,0-0.743,0.104-1.015,0.288l-0.16-0.472c0.319-0.2,0.792-0.336,1.279-0.336c1.191,0,1.479,0.808,1.479,1.583V60.285z     M247.235,59.237c-0.768-0.016-1.64,0.12-1.64,0.872c0,0.464,0.304,0.672,0.655,0.672c0.512,0,0.84-0.32,0.952-0.648    c0.023-0.072,0.032-0.152,0.032-0.224V59.237z"/>
		<path d="M249.053,58.39c0-0.408-0.009-0.728-0.032-1.048h0.624l0.04,0.632h0.016c0.191-0.36,0.64-0.72,1.279-0.72    c0.535,0,1.367,0.32,1.367,1.647v2.311h-0.704v-2.231c0-0.624-0.231-1.151-0.896-1.151c-0.455,0-0.815,0.328-0.943,0.72    c-0.031,0.088-0.048,0.216-0.048,0.328v2.335h-0.703V58.39z"/>
		<path d="M253.396,60.493c0.217,0.128,0.584,0.272,0.936,0.272c0.504,0,0.744-0.248,0.744-0.576c0-0.336-0.2-0.512-0.712-0.704    c-0.703-0.256-1.031-0.64-1.031-1.095c0-0.624,0.512-1.136,1.335-1.136c0.392,0,0.736,0.104,0.943,0.24l-0.168,0.503    c-0.151-0.088-0.432-0.224-0.791-0.224c-0.416,0-0.64,0.24-0.64,0.528c0,0.319,0.224,0.463,0.728,0.664    c0.664,0.248,1.016,0.583,1.016,1.159c0,0.688-0.536,1.167-1.439,1.167c-0.424,0-0.815-0.112-1.088-0.272L253.396,60.493z"/>
		<path d="M261.083,60.285c0,0.336,0.016,0.664,0.056,0.928h-0.632l-0.063-0.488h-0.024c-0.208,0.304-0.632,0.576-1.184,0.576    c-0.783,0-1.183-0.552-1.183-1.111c0-0.936,0.831-1.447,2.326-1.439v-0.08c0-0.32-0.088-0.904-0.88-0.896    c-0.367,0-0.743,0.104-1.015,0.288l-0.16-0.472c0.319-0.2,0.792-0.336,1.279-0.336c1.191,0,1.479,0.808,1.479,1.583V60.285z     M260.396,59.237c-0.768-0.016-1.64,0.12-1.64,0.872c0,0.464,0.304,0.672,0.655,0.672c0.512,0,0.84-0.32,0.952-0.648    c0.023-0.072,0.032-0.152,0.032-0.224V59.237z"/>
		<path d="M262.212,58.55c0-0.456-0.008-0.848-0.032-1.208h0.615l0.032,0.76h0.024c0.176-0.52,0.607-0.848,1.079-0.848    c0.072,0,0.128,0.008,0.191,0.016v0.664c-0.071-0.008-0.144-0.016-0.239-0.016c-0.496,0-0.848,0.375-0.943,0.896    c-0.017,0.104-0.024,0.216-0.024,0.328v2.071h-0.703V58.55z"/>
		<path d="M265.228,59.405c0.016,0.944,0.615,1.335,1.319,1.335c0.504,0,0.815-0.088,1.071-0.2l0.128,0.504    c-0.248,0.112-0.68,0.248-1.295,0.248c-1.184,0-1.903-0.792-1.903-1.951c0-1.167,0.695-2.087,1.823-2.087    c1.263,0,1.591,1.111,1.591,1.823c0,0.144-0.008,0.248-0.023,0.328H265.228z M267.282,58.902c0.008-0.448-0.184-1.144-0.967-1.144    c-0.72,0-1.023,0.656-1.08,1.144H267.282z"/>
		<path d="M270.812,57.342l0.52,1.959c0.104,0.432,0.208,0.84,0.28,1.239h0.024c0.088-0.392,0.216-0.807,0.344-1.231l0.631-1.967    h0.592l0.6,1.935c0.145,0.456,0.256,0.872,0.344,1.263h0.024c0.063-0.392,0.168-0.799,0.296-1.255l0.552-1.943h0.695l-1.247,3.87    h-0.64l-0.592-1.847c-0.136-0.439-0.248-0.823-0.344-1.279h-0.016c-0.097,0.464-0.216,0.872-0.353,1.288l-0.623,1.839h-0.64    l-1.168-3.87H270.812z"/>
		<path d="M276.756,56.687c-0.256,0-0.424-0.2-0.424-0.432c0-0.248,0.176-0.44,0.439-0.44c0.256,0,0.432,0.192,0.432,0.44    c0,0.231-0.168,0.432-0.439,0.432H276.756z M276.42,61.212v-3.87h0.703v3.87H276.42z"/>
		<path d="M278.292,58.39c0-0.408-0.008-0.728-0.032-1.048h0.624l0.039,0.632h0.017c0.191-0.36,0.64-0.72,1.279-0.72    c0.535,0,1.367,0.32,1.367,1.647v2.311h-0.704v-2.231c0-0.624-0.231-1.151-0.896-1.151c-0.455,0-0.815,0.328-0.943,0.72    c-0.031,0.088-0.048,0.216-0.048,0.328v2.335h-0.703V58.39z"/>
		<path d="M282.732,58.39c0-0.408-0.009-0.728-0.032-1.048h0.624l0.04,0.632h0.016c0.191-0.36,0.64-0.72,1.279-0.72    c0.535,0,1.367,0.32,1.367,1.647v2.311h-0.704v-2.231c0-0.624-0.231-1.151-0.896-1.151c-0.455,0-0.815,0.328-0.943,0.72    c-0.031,0.088-0.048,0.216-0.048,0.328v2.335h-0.703V58.39z"/>
		<path d="M287.571,59.405c0.016,0.944,0.615,1.335,1.319,1.335c0.504,0,0.815-0.088,1.071-0.2l0.128,0.504    c-0.248,0.112-0.68,0.248-1.295,0.248c-1.184,0-1.903-0.792-1.903-1.951c0-1.167,0.695-2.087,1.823-2.087    c1.263,0,1.591,1.111,1.591,1.823c0,0.144-0.008,0.248-0.023,0.328H287.571z M289.626,58.902c0.008-0.448-0.184-1.144-0.967-1.144    c-0.72,0-1.023,0.656-1.08,1.144H289.626z"/>
		<path d="M291.18,58.55c0-0.456-0.009-0.848-0.032-1.208h0.615l0.032,0.76h0.024c0.176-0.52,0.607-0.848,1.079-0.848    c0.072,0,0.128,0.008,0.192,0.016v0.664c-0.072-0.008-0.145-0.016-0.24-0.016c-0.496,0-0.848,0.375-0.943,0.896    c-0.017,0.104-0.024,0.216-0.024,0.328v2.071h-0.703V58.55z"/>
		<path d="M293.699,60.493c0.216,0.128,0.584,0.272,0.936,0.272c0.504,0,0.744-0.248,0.744-0.576c0-0.336-0.2-0.512-0.712-0.704    c-0.703-0.256-1.031-0.64-1.031-1.095c0-0.624,0.512-1.136,1.335-1.136c0.392,0,0.735,0.104,0.943,0.24l-0.168,0.503    c-0.151-0.088-0.432-0.224-0.791-0.224c-0.416,0-0.64,0.24-0.64,0.528c0,0.319,0.224,0.463,0.728,0.664    c0.663,0.248,1.016,0.583,1.016,1.159c0,0.688-0.536,1.167-1.439,1.167c-0.424,0-0.815-0.112-1.087-0.272L293.699,60.493z"/>
	</g>
	
		<line fill="none" stroke="#A7A9AC" stroke-width="0.5" stroke-linejoin="round" stroke-miterlimit="10" x1="199.046" y1="0" x2="199.046" y2="103.995"/>
	
		<line fill="none" stroke="#A7A9AC" stroke-width="0.5" stroke-linejoin="round" stroke-miterlimit="10" x1="182.464" y1="0" x2="182.464" y2="103.995"/>
	
		<line fill="none" stroke="#A7A9AC" stroke-width="0.5" stroke-linejoin="round" stroke-miterlimit="10" x1="165.882" y1="0" x2="165.882" y2="103.995"/>
	
		<line fill="none" stroke="#A7A9AC" stroke-width="0.5" stroke-linejoin="round" stroke-miterlimit="10" x1="149.301" y1="0" x2="149.301" y2="103.995"/>
	
		<line fill="none" stroke="#A7A9AC" stroke-width="0.5" stroke-linejoin="round" stroke-miterlimit="10" x1="132.718" y1="0" x2="132.718" y2="103.995"/>
	
		<line fill="none" stroke="#A7A9AC" stroke-width="0.5" stroke-linejoin="round" stroke-miterlimit="10" x1="116.339" y1="0" x2="116.339" y2="103.995"/>
	
		<line fill="none" stroke="#A7A9AC" stroke-width="0.5" stroke-linejoin="round" stroke-miterlimit="10" x1="99.757" y1="0" x2="99.757" y2="103.995"/>
	
		<line fill="none" stroke="#A7A9AC" stroke-width="0.5" stroke-linejoin="round" stroke-miterlimit="10" x1="83.175" y1="0" x2="83.175" y2="103.995"/>
	
		<line fill="none" stroke="#A7A9AC" stroke-width="0.5" stroke-linejoin="round" stroke-miterlimit="10" x1="66.593" y1="0" x2="66.593" y2="103.995"/>
	
		<rect x="50.012" y="23.568" fill="#D1D3D4" stroke="#000000" stroke-width="0.5" stroke-miterlimit="10" width="91.199" height="17.391"/>
	
		<rect x="50.012" y="80.502" fill="#D1D3D4" stroke="#000000" stroke-width="0.5" stroke-miterlimit="10" width="91.604" height="17.593"/>
	
		<rect x="50.012" y="5.975" fill="#808285" stroke="#000000" stroke-width="0.5" stroke-miterlimit="10" width="129.824" height="17.593"/>
	
		<rect x="50.012" y="62.909" fill="#808285" stroke="#000000" stroke-width="0.5" stroke-miterlimit="10" width="90.593" height="17.593"/>
	
		<line fill="none" stroke="#000000" stroke-width="0.5" stroke-linejoin="round" stroke-miterlimit="10" x1="144.852" y1="86.771" x2="144.852" y2="91.797"/>
	
		<line fill="none" stroke="#000000" stroke-width="0.5" stroke-linejoin="round" stroke-miterlimit="10" x1="138.381" y1="86.771" x2="138.381" y2="91.797"/>
	
		<line fill="none" stroke="#000000" stroke-width="0.5" stroke-linejoin="round" stroke-miterlimit="10" x1="141.616" y1="89.198" x2="144.852" y2="89.198"/>
	
		<line fill="none" stroke="#000000" stroke-width="0.5" stroke-linejoin="round" stroke-miterlimit="10" x1="138.381" y1="89.198" x2="141.616" y2="89.198"/>
	
		<line fill="none" stroke="#000000" stroke-width="0.5" stroke-linejoin="round" stroke-miterlimit="10" x1="144.367" y1="29.837" x2="144.367" y2="34.811"/>
	
		<line fill="none" stroke="#000000" stroke-width="0.5" stroke-linejoin="round" stroke-miterlimit="10" x1="137.976" y1="29.837" x2="137.976" y2="34.811"/>
	
		<line fill="none" stroke="#000000" stroke-width="0.5" stroke-linejoin="round" stroke-miterlimit="10" x1="141.211" y1="32.263" x2="144.367" y2="32.263"/>
	
		<line fill="none" stroke="#000000" stroke-width="0.5" stroke-linejoin="round" stroke-miterlimit="10" x1="137.976" y1="32.263" x2="141.211" y2="32.263"/>
	
		<line fill="none" stroke="#000000" stroke-width="0.5" stroke-linejoin="round" stroke-miterlimit="10" x1="145.054" y1="69.178" x2="145.054" y2="74.233"/>
	
		<line fill="none" stroke="#000000" stroke-width="0.5" stroke-linejoin="round" stroke-miterlimit="10" x1="136.156" y1="69.178" x2="136.156" y2="74.233"/>
	
		<line fill="none" stroke="#000000" stroke-width="0.5" stroke-linejoin="round" stroke-miterlimit="10" x1="140.604" y1="71.807" x2="145.054" y2="71.807"/>
	
		<line fill="none" stroke="#000000" stroke-width="0.5" stroke-linejoin="round" stroke-miterlimit="10" x1="136.156" y1="71.807" x2="140.604" y2="71.807"/>
	
		<line fill="none" stroke="#000000" stroke-width="0.5" stroke-linejoin="round" stroke-miterlimit="10" x1="184.284" y1="12.244" x2="184.284" y2="17.275"/>
	
		<line fill="none" stroke="#000000" stroke-width="0.5" stroke-linejoin="round" stroke-miterlimit="10" x1="175.387" y1="12.244" x2="175.387" y2="17.275"/>
	
		<line fill="none" stroke="#000000" stroke-width="0.5" stroke-linejoin="round" stroke-miterlimit="10" x1="179.835" y1="14.67" x2="184.284" y2="14.67"/>
	
		<line fill="none" stroke="#000000" stroke-width="0.5" stroke-linejoin="round" stroke-miterlimit="10" x1="175.387" y1="14.67" x2="179.835" y2="14.67"/>
	<polyline fill="none" stroke="#000000" stroke-width="0.5" stroke-linejoin="round" stroke-miterlimit="10" points="49.944,0.022    49.944,103.995 199.046,103.995  "/>
	<g>
		<path d="M46.253,109.579h-0.016l-0.904,0.488l-0.136-0.536l1.135-0.608h0.6v5.197h-0.679V109.579z"/>
		<path d="M49.349,114.208c-0.272,0-0.463-0.216-0.463-0.503c0-0.288,0.2-0.504,0.479-0.504s0.472,0.208,0.472,0.504    c0,0.288-0.192,0.503-0.479,0.503H49.349z"/>
		<path d="M52.141,114.208c-1.016,0-1.711-0.952-1.728-2.67c0-1.751,0.76-2.703,1.815-2.703c1.087,0,1.719,0.976,1.719,2.63    c0,1.767-0.664,2.743-1.799,2.743H52.141z M52.18,113.665c0.712,0,1.056-0.84,1.056-2.167c0-1.279-0.32-2.119-1.056-2.119    c-0.64,0-1.055,0.815-1.055,2.119c-0.016,1.351,0.4,2.167,1.047,2.167H52.18z"/>
	</g>
	<g>
		<path d="M62.827,109.579h-0.016l-0.904,0.488l-0.136-0.536l1.135-0.608h0.6v5.197h-0.68V109.579z"/>
		<path d="M65.924,114.208c-0.271,0-0.464-0.216-0.464-0.503c0-0.288,0.2-0.504,0.48-0.504s0.472,0.208,0.472,0.504    c0,0.288-0.192,0.503-0.479,0.503H65.924z"/>
		<path d="M70.162,109.515h-1.983l-0.2,1.335c0.12-0.016,0.232-0.032,0.424-0.032c0.408,0,0.799,0.088,1.119,0.28    c0.408,0.224,0.744,0.68,0.744,1.335c0,1.016-0.808,1.775-1.936,1.775c-0.567,0-1.039-0.16-1.295-0.32l0.176-0.536    c0.216,0.128,0.64,0.288,1.119,0.288c0.656,0,1.231-0.432,1.224-1.135c0-0.664-0.456-1.143-1.487-1.143    c-0.304,0-0.536,0.024-0.728,0.056l0.336-2.495h2.486V109.515z"/>
	</g>
	<g>
		<path d="M77.874,114.12v-0.432l0.552-0.536c1.327-1.264,1.936-1.935,1.936-2.719c0-0.528-0.248-1.016-1.023-1.016    c-0.472,0-0.864,0.24-1.104,0.44l-0.224-0.496c0.352-0.296,0.871-0.528,1.471-0.528c1.111,0,1.583,0.768,1.583,1.511    c0,0.959-0.695,1.735-1.791,2.791l-0.407,0.384v0.016h2.326v0.583H77.874z"/>
		<path d="M82.498,114.208c-0.272,0-0.464-0.216-0.464-0.503c0-0.288,0.199-0.504,0.479-0.504s0.472,0.208,0.472,0.504    c0,0.288-0.191,0.503-0.479,0.503H82.498z"/>
		<path d="M85.289,114.208c-1.016,0-1.711-0.952-1.727-2.67c0-1.751,0.76-2.703,1.814-2.703c1.088,0,1.72,0.976,1.72,2.63    c0,1.767-0.664,2.743-1.8,2.743H85.289z M85.329,113.665c0.712,0,1.056-0.84,1.056-2.167c0-1.279-0.32-2.119-1.056-2.119    c-0.64,0-1.056,0.815-1.056,2.119c-0.016,1.351,0.4,2.167,1.048,2.167H85.329z"/>
	</g>
	<g>
		<path d="M94.448,114.12v-0.432L95,113.153c1.327-1.264,1.936-1.935,1.936-2.719c0-0.528-0.248-1.016-1.023-1.016    c-0.472,0-0.864,0.24-1.104,0.44l-0.224-0.496c0.352-0.296,0.871-0.528,1.471-0.528c1.111,0,1.583,0.768,1.583,1.511    c0,0.959-0.695,1.735-1.791,2.791l-0.407,0.384v0.016h2.326v0.583H94.448z"/>
		<path d="M99.072,114.208c-0.272,0-0.464-0.216-0.464-0.503c0-0.288,0.199-0.504,0.479-0.504s0.472,0.208,0.472,0.504    c0,0.288-0.191,0.503-0.479,0.503H99.072z"/>
		<path d="M103.311,109.515h-1.982l-0.2,1.335c0.12-0.016,0.231-0.032,0.424-0.032c0.408,0,0.8,0.088,1.119,0.28    c0.408,0.224,0.744,0.68,0.744,1.335c0,1.016-0.808,1.775-1.936,1.775c-0.567,0-1.039-0.16-1.295-0.32l0.176-0.536    c0.216,0.128,0.64,0.288,1.119,0.288c0.656,0,1.231-0.432,1.224-1.135c0-0.664-0.456-1.143-1.487-1.143    c-0.304,0-0.535,0.024-0.728,0.056l0.336-2.495h2.486V109.515z"/>
	</g>
	<g>
		<path d="M111.192,113.321c0.2,0.12,0.656,0.319,1.151,0.319c0.896,0,1.184-0.567,1.176-1.007c-0.008-0.728-0.664-1.04-1.344-1.04    h-0.392v-0.527h0.392c0.512,0,1.16-0.264,1.16-0.88c0-0.416-0.265-0.783-0.912-0.783c-0.415,0-0.815,0.184-1.039,0.344    l-0.192-0.512c0.28-0.2,0.808-0.4,1.367-0.4c1.023,0,1.487,0.608,1.487,1.239c0,0.544-0.327,1-0.959,1.231v0.016    c0.64,0.12,1.159,0.6,1.159,1.327c0,0.832-0.655,1.559-1.895,1.559c-0.584,0-1.096-0.184-1.352-0.352L111.192,113.321z"/>
		<path d="M115.648,114.208c-0.272,0-0.464-0.216-0.464-0.503c0-0.288,0.199-0.504,0.479-0.504s0.472,0.208,0.472,0.504    c0,0.288-0.191,0.503-0.479,0.503H115.648z"/>
		<path d="M118.439,114.208c-1.016,0-1.711-0.952-1.727-2.67c0-1.751,0.76-2.703,1.814-2.703c1.088,0,1.72,0.976,1.72,2.63    c0,1.767-0.664,2.743-1.8,2.743H118.439z M118.479,113.665c0.712,0,1.056-0.84,1.056-2.167c0-1.279-0.32-2.119-1.056-2.119    c-0.64,0-1.056,0.815-1.056,2.119c-0.016,1.351,0.4,2.167,1.048,2.167H118.479z"/>
	</g>
	<g>
		<path d="M127.767,113.321c0.2,0.12,0.656,0.319,1.151,0.319c0.896,0,1.184-0.567,1.176-1.007c-0.008-0.728-0.664-1.04-1.344-1.04    h-0.392v-0.527h0.392c0.512,0,1.16-0.264,1.16-0.88c0-0.416-0.265-0.783-0.912-0.783c-0.415,0-0.815,0.184-1.039,0.344    l-0.192-0.512c0.28-0.2,0.808-0.4,1.367-0.4c1.023,0,1.487,0.608,1.487,1.239c0,0.544-0.327,1-0.959,1.231v0.016    c0.64,0.12,1.159,0.6,1.159,1.327c0,0.832-0.655,1.559-1.895,1.559c-0.584,0-1.096-0.184-1.352-0.352L127.767,113.321z"/>
		<path d="M132.223,114.208c-0.272,0-0.464-0.216-0.464-0.503c0-0.288,0.199-0.504,0.479-0.504s0.472,0.208,0.472,0.504    c0,0.288-0.191,0.503-0.479,0.503H132.223z"/>
		<path d="M136.461,109.515h-1.982l-0.2,1.335c0.12-0.016,0.231-0.032,0.424-0.032c0.408,0,0.8,0.088,1.119,0.28    c0.408,0.224,0.744,0.68,0.744,1.335c0,1.016-0.808,1.775-1.936,1.775c-0.567,0-1.039-0.16-1.295-0.32l0.176-0.536    c0.216,0.128,0.64,0.288,1.119,0.288c0.656,0,1.231-0.432,1.224-1.135c0-0.664-0.456-1.143-1.487-1.143    c-0.304,0-0.535,0.024-0.728,0.056l0.336-2.495h2.486V109.515z"/>
	</g>
	<g>
		<path d="M146.348,114.12v-1.423h-2.414v-0.456l2.318-3.318h0.76v3.23h0.728v0.543h-0.728v1.423H146.348z M146.348,112.153v-1.735    c0-0.271,0.009-0.543,0.024-0.815h-0.024c-0.159,0.304-0.287,0.528-0.432,0.768l-1.271,1.767v0.016H146.348z"/>
		<path d="M148.797,114.208c-0.272,0-0.464-0.216-0.464-0.503c0-0.288,0.199-0.504,0.479-0.504s0.472,0.208,0.472,0.504    c0,0.288-0.191,0.503-0.479,0.503H148.797z"/>
		<path d="M151.588,114.208c-1.016,0-1.711-0.952-1.727-2.67c0-1.751,0.76-2.703,1.814-2.703c1.088,0,1.72,0.976,1.72,2.63    c0,1.767-0.664,2.743-1.8,2.743H151.588z M151.628,113.665c0.712,0,1.056-0.84,1.056-2.167c0-1.279-0.32-2.119-1.056-2.119    c-0.64,0-1.056,0.815-1.056,2.119c-0.016,1.351,0.4,2.167,1.048,2.167H151.628z"/>
	</g>
	<g>
		<path d="M162.922,114.12v-1.423h-2.414v-0.456l2.318-3.318h0.76v3.23h0.728v0.543h-0.728v1.423H162.922z M162.922,112.153v-1.735    c0-0.271,0.009-0.543,0.024-0.815h-0.024c-0.159,0.304-0.287,0.528-0.432,0.768l-1.271,1.767v0.016H162.922z"/>
		<path d="M165.371,114.208c-0.272,0-0.464-0.216-0.464-0.503c0-0.288,0.199-0.504,0.479-0.504s0.472,0.208,0.472,0.504    c0,0.288-0.191,0.503-0.479,0.503H165.371z"/>
		<path d="M169.609,109.515h-1.982l-0.2,1.335c0.12-0.016,0.231-0.032,0.424-0.032c0.408,0,0.8,0.088,1.119,0.28    c0.408,0.224,0.744,0.68,0.744,1.335c0,1.016-0.808,1.775-1.936,1.775c-0.567,0-1.039-0.16-1.295-0.32l0.176-0.536    c0.216,0.128,0.64,0.288,1.119,0.288c0.656,0,1.231-0.432,1.224-1.135c0-0.664-0.456-1.143-1.487-1.143    c-0.304,0-0.535,0.024-0.728,0.056l0.336-2.495h2.486V109.515z"/>
	</g>
	<g>
		<path d="M180.426,109.515h-1.982l-0.2,1.335c0.12-0.016,0.231-0.032,0.424-0.032c0.408,0,0.8,0.088,1.119,0.28    c0.408,0.224,0.744,0.68,0.744,1.335c0,1.016-0.808,1.775-1.936,1.775c-0.567,0-1.039-0.16-1.295-0.32l0.176-0.536    c0.216,0.128,0.64,0.288,1.119,0.288c0.656,0,1.231-0.432,1.224-1.135c0-0.664-0.456-1.143-1.487-1.143    c-0.304,0-0.535,0.024-0.728,0.056l0.336-2.495h2.486V109.515z"/>
		<path d="M181.947,114.208c-0.272,0-0.464-0.216-0.464-0.503c0-0.288,0.199-0.504,0.479-0.504s0.472,0.208,0.472,0.504    c0,0.288-0.191,0.503-0.479,0.503H181.947z"/>
		<path d="M184.738,114.208c-1.016,0-1.711-0.952-1.727-2.67c0-1.751,0.76-2.703,1.814-2.703c1.088,0,1.72,0.976,1.72,2.63    c0,1.767-0.664,2.743-1.8,2.743H184.738z M184.778,113.665c0.712,0,1.056-0.84,1.056-2.167c0-1.279-0.32-2.119-1.056-2.119    c-0.64,0-1.056,0.815-1.056,2.119c-0.016,1.351,0.4,2.167,1.048,2.167H184.778z"/>
	</g>
	<g>
		<path d="M197,109.515h-1.982l-0.2,1.335c0.12-0.016,0.231-0.032,0.424-0.032c0.408,0,0.8,0.088,1.119,0.28    c0.408,0.224,0.744,0.68,0.744,1.335c0,1.016-0.808,1.775-1.936,1.775c-0.567,0-1.039-0.16-1.295-0.32l0.176-0.536    c0.216,0.128,0.64,0.288,1.119,0.288c0.656,0,1.231-0.432,1.224-1.135c0-0.664-0.456-1.143-1.487-1.143    c-0.304,0-0.535,0.024-0.728,0.056l0.336-2.495H197V109.515z"/>
		<path d="M198.521,114.208c-0.272,0-0.464-0.216-0.464-0.503c0-0.288,0.199-0.504,0.479-0.504s0.472,0.208,0.472,0.504    c0,0.288-0.191,0.503-0.479,0.503H198.521z"/>
		<path d="M202.76,109.515h-1.982l-0.2,1.335c0.12-0.016,0.231-0.032,0.424-0.032c0.408,0,0.8,0.088,1.119,0.28    c0.408,0.224,0.744,0.68,0.744,1.335c0,1.016-0.808,1.775-1.936,1.775c-0.567,0-1.039-0.16-1.295-0.32l0.176-0.536    c0.216,0.128,0.64,0.288,1.119,0.288c0.656,0,1.231-0.432,1.224-1.135c0-0.664-0.456-1.143-1.487-1.143    c-0.304,0-0.535,0.024-0.728,0.056l0.336-2.495h2.486V109.515z"/>
	</g>
	<g>
		<path d="M7.487,77.44L5.72,72.051h0.76l0.839,2.655c0.224,0.728,0.424,1.391,0.576,2.015h0.016    c0.152-0.624,0.368-1.303,0.616-2.007l0.911-2.663h0.744L8.254,77.44H7.487z"/>
		<path d="M10.935,72.915c-0.256,0-0.424-0.2-0.424-0.432c0-0.248,0.176-0.439,0.44-0.439c0.256,0,0.432,0.192,0.432,0.439    c0,0.232-0.168,0.432-0.439,0.432H10.935z M10.599,77.44v-3.87h0.704v3.87H10.599z"/>
		<path d="M12.743,73.571l0.76,2.167c0.128,0.36,0.232,0.68,0.312,1h0.024c0.088-0.32,0.2-0.64,0.328-1l0.751-2.167h0.736    l-1.52,3.87h-0.671l-1.471-3.87H12.743z"/>
		<path d="M16.655,72.915c-0.256,0-0.424-0.2-0.424-0.432c0-0.248,0.176-0.439,0.44-0.439c0.256,0,0.432,0.192,0.432,0.439    c0,0.232-0.168,0.432-0.44,0.432H16.655z M16.319,77.44v-3.87h0.704v3.87H16.319z"/>
		<path d="M21.533,71.764v4.677c0,0.344,0.008,0.736,0.032,1h-0.632l-0.032-0.671h-0.016c-0.216,0.432-0.68,0.759-1.312,0.759    c-0.936,0-1.663-0.792-1.663-1.967c-0.008-1.295,0.8-2.079,1.735-2.079c0.6,0,0.999,0.28,1.167,0.584h0.016v-2.303H21.533z     M20.83,75.146c0-0.096-0.008-0.208-0.032-0.304c-0.104-0.44-0.488-0.808-1.016-0.808c-0.728,0-1.159,0.64-1.159,1.487    c0,0.792,0.392,1.439,1.143,1.439c0.472,0,0.904-0.319,1.032-0.847c0.024-0.088,0.032-0.184,0.032-0.296V75.146z"/>
		<path d="M22.703,74.618c0-0.408-0.008-0.728-0.032-1.047h0.624l0.04,0.631h0.016c0.192-0.36,0.64-0.72,1.279-0.72    c0.536,0,1.367,0.32,1.367,1.647v2.311h-0.704v-2.231c0-0.624-0.232-1.151-0.896-1.151c-0.456,0-0.815,0.328-0.943,0.72    c-0.032,0.088-0.048,0.216-0.048,0.328v2.334h-0.704V74.618z"/>
		<path d="M27.543,75.633c0.016,0.943,0.616,1.335,1.319,1.335c0.504,0,0.815-0.088,1.071-0.2l0.128,0.503    c-0.248,0.112-0.68,0.248-1.295,0.248c-1.184,0-1.903-0.792-1.903-1.951c0-1.167,0.696-2.087,1.823-2.087    c1.263,0,1.591,1.112,1.591,1.823c0,0.144-0.008,0.248-0.024,0.328H27.543z M29.598,75.13c0.008-0.448-0.184-1.144-0.967-1.144    c-0.72,0-1.023,0.656-1.08,1.144H29.598z"/>
		<path d="M31.055,76.721c0.216,0.128,0.583,0.272,0.936,0.272c0.503,0,0.744-0.248,0.744-0.576c0-0.336-0.2-0.512-0.712-0.704    c-0.704-0.256-1.031-0.64-1.031-1.095c0-0.624,0.512-1.136,1.335-1.136c0.392,0,0.736,0.104,0.944,0.24l-0.168,0.503    c-0.152-0.088-0.432-0.224-0.792-0.224c-0.416,0-0.64,0.24-0.64,0.527c0,0.32,0.224,0.464,0.728,0.664    c0.664,0.248,1.016,0.583,1.016,1.159c0,0.688-0.536,1.167-1.439,1.167c-0.424,0-0.815-0.112-1.087-0.272L31.055,76.721z"/>
		<path d="M34.223,76.721c0.216,0.128,0.583,0.272,0.936,0.272c0.503,0,0.744-0.248,0.744-0.576c0-0.336-0.2-0.512-0.712-0.704    c-0.704-0.256-1.031-0.64-1.031-1.095c0-0.624,0.512-1.136,1.335-1.136c0.392,0,0.736,0.104,0.944,0.24l-0.168,0.503    c-0.152-0.088-0.432-0.224-0.792-0.224c-0.416,0-0.64,0.24-0.64,0.527c0,0.32,0.224,0.464,0.728,0.664    c0.664,0.248,1.016,0.583,1.016,1.159c0,0.688-0.536,1.167-1.439,1.167c-0.424,0-0.815-0.112-1.087-0.272L34.223,76.721z"/>
		<path d="M40.758,77.528c-1.039,0-1.855-0.768-1.855-1.991c0-1.295,0.855-2.055,1.919-2.055c1.111,0,1.863,0.808,1.863,1.983    c0,1.439-1,2.063-1.919,2.063H40.758z M40.79,77c0.671,0,1.175-0.631,1.175-1.511c0-0.656-0.328-1.479-1.16-1.479    c-0.823,0-1.183,0.768-1.183,1.503c0,0.847,0.48,1.487,1.159,1.487H40.79z"/>
		<path d="M43.639,77.44v-3.334h-0.536v-0.536h0.536v-0.184c0-0.544,0.128-1.04,0.456-1.351c0.264-0.256,0.616-0.36,0.936-0.36    c0.256,0,0.463,0.056,0.6,0.112l-0.088,0.543c-0.112-0.048-0.248-0.088-0.456-0.088c-0.592,0-0.751,0.528-0.751,1.12v0.208h0.936    v0.536h-0.928v3.334H43.639z"/>
		<path d="M1.287,82.243v0.927h1.007v0.536H1.287v2.079c0,0.48,0.136,0.751,0.528,0.751c0.192,0,0.304-0.016,0.408-0.048    l0.032,0.536c-0.136,0.048-0.352,0.096-0.624,0.096c-0.328,0-0.592-0.112-0.759-0.296C0.68,86.609,0.6,86.265,0.6,85.809v-2.103H0    V83.17h0.6v-0.711L1.287,82.243z"/>
		<path d="M2.792,84.378c0-0.456-0.008-0.848-0.032-1.208h0.616l0.032,0.76h0.024c0.176-0.52,0.608-0.848,1.08-0.848    c0.072,0,0.128,0.008,0.192,0.016v0.664c-0.072-0.008-0.144-0.016-0.24-0.016c-0.496,0-0.848,0.375-0.943,0.896    c-0.016,0.104-0.024,0.216-0.024,0.328v2.071H2.792V84.378z"/>
		<path d="M8.134,86.113c0,0.336,0.016,0.664,0.056,0.928H7.558l-0.064-0.488H7.47c-0.208,0.304-0.631,0.576-1.183,0.576    c-0.784,0-1.184-0.552-1.184-1.111c0-0.936,0.832-1.447,2.327-1.439v-0.08c0-0.32-0.088-0.904-0.879-0.896    c-0.368,0-0.744,0.104-1.016,0.288l-0.16-0.472c0.32-0.2,0.792-0.336,1.279-0.336c1.191,0,1.479,0.808,1.479,1.583V86.113z     M7.446,85.065c-0.768-0.016-1.639,0.12-1.639,0.872c0,0.464,0.304,0.672,0.656,0.672c0.512,0,0.839-0.32,0.951-0.648    c0.024-0.072,0.032-0.152,0.032-0.224V85.065z"/>
		<path d="M12.605,81.364v4.677c0,0.344,0.008,0.736,0.032,1h-0.632l-0.032-0.672h-0.016c-0.216,0.432-0.68,0.76-1.312,0.76    c-0.936,0-1.663-0.792-1.663-1.967c-0.008-1.295,0.8-2.079,1.735-2.079c0.6,0,0.999,0.28,1.167,0.584h0.016v-2.303H12.605z     M11.902,84.746c0-0.096-0.008-0.208-0.032-0.304c-0.104-0.439-0.488-0.808-1.016-0.808c-0.728,0-1.159,0.64-1.159,1.487    c0,0.792,0.392,1.439,1.143,1.439c0.472,0,0.904-0.32,1.032-0.848c0.024-0.088,0.032-0.184,0.032-0.296V84.746z"/>
		<path d="M14.175,85.233c0.016,0.944,0.616,1.335,1.319,1.335c0.504,0,0.815-0.088,1.071-0.2l0.128,0.504    c-0.248,0.112-0.68,0.248-1.295,0.248c-1.183,0-1.903-0.792-1.903-1.951c0-1.167,0.696-2.087,1.823-2.087    c1.263,0,1.591,1.111,1.591,1.823c0,0.144-0.008,0.248-0.024,0.328H14.175z M16.23,84.73c0.008-0.448-0.184-1.144-0.968-1.144    c-0.72,0-1.023,0.656-1.079,1.144H16.23z"/>
		<path d="M19.759,83.17l0.52,1.959c0.104,0.432,0.208,0.84,0.28,1.239h0.024c0.088-0.392,0.216-0.807,0.344-1.231l0.632-1.967    h0.592l0.6,1.935c0.144,0.456,0.256,0.872,0.344,1.263h0.024c0.064-0.392,0.168-0.799,0.296-1.255l0.552-1.943h0.695l-1.247,3.87    h-0.64l-0.592-1.847c-0.136-0.439-0.248-0.823-0.344-1.279h-0.016c-0.096,0.464-0.216,0.872-0.352,1.288l-0.624,1.839h-0.64    l-1.167-3.87H19.759z"/>
		<path d="M25.703,82.515c-0.256,0-0.424-0.2-0.424-0.432c0-0.248,0.176-0.44,0.44-0.44c0.256,0,0.432,0.192,0.432,0.44    c0,0.231-0.168,0.432-0.44,0.432H25.703z M25.367,87.041v-3.87h0.704v3.87H25.367z"/>
		<path d="M27.239,84.218c0-0.408-0.008-0.728-0.032-1.048h0.624l0.04,0.632h0.016c0.192-0.36,0.64-0.72,1.279-0.72    c0.536,0,1.367,0.32,1.367,1.647v2.311H29.83V84.81c0-0.624-0.232-1.151-0.896-1.151c-0.456,0-0.815,0.328-0.943,0.72    c-0.032,0.088-0.048,0.216-0.048,0.328v2.335h-0.704V84.218z"/>
		<path d="M31.679,84.218c0-0.408-0.008-0.728-0.032-1.048h0.624l0.04,0.632h0.016c0.192-0.36,0.64-0.72,1.279-0.72    c0.536,0,1.367,0.32,1.367,1.647v2.311H34.27V84.81c0-0.624-0.232-1.151-0.896-1.151c-0.456,0-0.815,0.328-0.943,0.72    c-0.032,0.088-0.048,0.216-0.048,0.328v2.335h-0.704V84.218z"/>
		<path d="M36.519,85.233c0.016,0.944,0.616,1.335,1.319,1.335c0.504,0,0.815-0.088,1.071-0.2l0.128,0.504    c-0.248,0.112-0.68,0.248-1.295,0.248c-1.183,0-1.903-0.792-1.903-1.951c0-1.167,0.696-2.087,1.823-2.087    c1.263,0,1.591,1.111,1.591,1.823c0,0.144-0.008,0.248-0.024,0.328H36.519z M38.574,84.73c0.008-0.448-0.184-1.144-0.968-1.144    c-0.72,0-1.023,0.656-1.079,1.144H38.574z"/>
		<path d="M40.127,84.378c0-0.456-0.008-0.848-0.032-1.208h0.616l0.032,0.76h0.024c0.176-0.52,0.608-0.848,1.08-0.848    c0.072,0,0.128,0.008,0.192,0.016v0.664c-0.072-0.008-0.144-0.016-0.24-0.016c-0.496,0-0.848,0.375-0.944,0.896    c-0.016,0.104-0.024,0.216-0.024,0.328v2.071h-0.704V84.378z"/>
		<path d="M42.647,86.321c0.216,0.128,0.583,0.272,0.936,0.272c0.503,0,0.744-0.248,0.744-0.576c0-0.336-0.2-0.512-0.712-0.704    c-0.704-0.256-1.031-0.64-1.031-1.095c0-0.624,0.512-1.136,1.335-1.136c0.392,0,0.736,0.104,0.944,0.24l-0.168,0.503    c-0.152-0.088-0.432-0.224-0.792-0.224c-0.416,0-0.64,0.24-0.64,0.528c0,0.319,0.224,0.463,0.728,0.664    c0.664,0.248,1.016,0.583,1.016,1.159c0,0.688-0.536,1.167-1.439,1.167c-0.424,0-0.815-0.112-1.087-0.272L42.647,86.321z"/>
	</g>
	<g>
		<path d="M7.486,20.454l-1.767-5.389h0.76l0.839,2.655c0.224,0.728,0.424,1.391,0.576,2.015H7.91    c0.152-0.624,0.368-1.303,0.616-2.007l0.912-2.663h0.743l-1.927,5.389H7.486z"/>
		<path d="M10.935,15.928c-0.256,0-0.424-0.2-0.424-0.432c0-0.248,0.176-0.44,0.44-0.44c0.256,0,0.432,0.192,0.432,0.44    c0,0.231-0.168,0.432-0.44,0.432H10.935z M10.599,20.454v-3.87h0.704v3.87H10.599z"/>
		<path d="M12.743,16.583l0.76,2.167c0.128,0.36,0.232,0.68,0.312,1h0.024c0.088-0.32,0.2-0.64,0.328-1l0.751-2.167h0.736    l-1.52,3.87h-0.671l-1.471-3.87H12.743z"/>
		<path d="M16.655,15.928c-0.256,0-0.424-0.2-0.424-0.432c0-0.248,0.176-0.44,0.44-0.44c0.256,0,0.432,0.192,0.432,0.44    c0,0.231-0.168,0.432-0.439,0.432H16.655z M16.319,20.454v-3.87h0.704v3.87H16.319z"/>
		<path d="M21.533,14.777v4.677c0,0.344,0.008,0.736,0.032,1h-0.632l-0.032-0.672h-0.016c-0.216,0.432-0.68,0.76-1.312,0.76    c-0.936,0-1.663-0.792-1.663-1.967c-0.008-1.295,0.8-2.079,1.735-2.079c0.6,0,1,0.28,1.167,0.584h0.016v-2.303H21.533z     M20.829,18.159c0-0.096-0.008-0.208-0.032-0.304c-0.104-0.439-0.488-0.808-1.016-0.808c-0.728,0-1.159,0.64-1.159,1.487    c0,0.792,0.392,1.439,1.143,1.439c0.472,0,0.904-0.32,1.032-0.848c0.024-0.088,0.032-0.184,0.032-0.296V18.159z"/>
		<path d="M22.703,17.631c0-0.408-0.008-0.728-0.032-1.048h0.624l0.04,0.632h0.016c0.192-0.36,0.64-0.72,1.279-0.72    c0.536,0,1.367,0.32,1.367,1.647v2.311h-0.704v-2.231c0-0.624-0.232-1.151-0.896-1.151c-0.456,0-0.815,0.328-0.943,0.72    c-0.032,0.088-0.048,0.216-0.048,0.328v2.335h-0.704V17.631z"/>
		<path d="M27.542,18.646c0.016,0.944,0.616,1.335,1.319,1.335c0.504,0,0.815-0.088,1.071-0.2l0.128,0.504    c-0.248,0.112-0.68,0.248-1.295,0.248c-1.183,0-1.903-0.792-1.903-1.951c0-1.167,0.696-2.087,1.823-2.087    c1.263,0,1.591,1.111,1.591,1.823c0,0.144-0.008,0.248-0.024,0.328H27.542z M29.598,18.143C29.605,17.695,29.414,17,28.63,17    c-0.72,0-1.023,0.656-1.079,1.144H29.598z"/>
		<path d="M31.055,19.734c0.216,0.128,0.583,0.272,0.936,0.272c0.503,0,0.744-0.248,0.744-0.576c0-0.336-0.2-0.512-0.712-0.704    c-0.704-0.256-1.031-0.64-1.031-1.095c0-0.624,0.512-1.136,1.335-1.136c0.392,0,0.735,0.104,0.943,0.24l-0.168,0.503    c-0.152-0.088-0.432-0.224-0.792-0.224c-0.416,0-0.64,0.24-0.64,0.528c0,0.319,0.224,0.463,0.728,0.664    c0.664,0.248,1.015,0.583,1.015,1.159c0,0.688-0.536,1.167-1.439,1.167c-0.424,0-0.815-0.112-1.087-0.272L31.055,19.734z"/>
		<path d="M34.223,19.734c0.216,0.128,0.583,0.272,0.936,0.272c0.503,0,0.744-0.248,0.744-0.576c0-0.336-0.2-0.512-0.712-0.704    c-0.704-0.256-1.031-0.64-1.031-1.095c0-0.624,0.512-1.136,1.335-1.136c0.392,0,0.735,0.104,0.943,0.24l-0.168,0.503    c-0.152-0.088-0.432-0.224-0.792-0.224c-0.416,0-0.64,0.24-0.64,0.528c0,0.319,0.224,0.463,0.728,0.664    c0.664,0.248,1.015,0.583,1.015,1.159c0,0.688-0.536,1.167-1.439,1.167c-0.424,0-0.815-0.112-1.087-0.272L34.223,19.734z"/>
		<path d="M40.757,20.542c-1.04,0-1.855-0.768-1.855-1.991c0-1.295,0.855-2.055,1.919-2.055c1.111,0,1.863,0.808,1.863,1.983    c0,1.439-1,2.063-1.919,2.063H40.757z M40.79,20.014c0.671,0,1.175-0.631,1.175-1.511c0-0.655-0.328-1.479-1.159-1.479    c-0.824,0-1.184,0.768-1.184,1.503c0,0.847,0.479,1.487,1.159,1.487H40.79z"/>
		<path d="M43.638,20.454V17.12h-0.536v-0.536h0.536V16.4c0-0.544,0.128-1.04,0.456-1.352c0.264-0.256,0.616-0.359,0.936-0.359    c0.256,0,0.463,0.056,0.6,0.112l-0.088,0.543c-0.112-0.048-0.248-0.088-0.456-0.088c-0.591,0-0.751,0.528-0.751,1.12v0.208h0.936    v0.536h-0.928v3.334H43.638z"/>
		<path d="M8.479,25.256v0.928h1.007v0.536H8.479v2.079c0,0.48,0.136,0.751,0.528,0.751c0.192,0,0.304-0.016,0.408-0.048    l0.032,0.536c-0.136,0.048-0.352,0.096-0.624,0.096c-0.328,0-0.592-0.112-0.759-0.296c-0.192-0.216-0.272-0.56-0.272-1.016V26.72    h-0.6v-0.536h0.6v-0.712L8.479,25.256z"/>
		<path d="M9.983,27.391c0-0.456-0.008-0.848-0.032-1.207h0.616l0.032,0.759h0.024c0.176-0.52,0.608-0.848,1.08-0.848    c0.072,0,0.128,0.008,0.192,0.016v0.664c-0.072-0.008-0.144-0.016-0.24-0.016c-0.496,0-0.848,0.376-0.943,0.896    c-0.016,0.104-0.024,0.216-0.024,0.328v2.071H9.983V27.391z"/>
		<path d="M15.325,29.126c0,0.335,0.016,0.664,0.056,0.927H14.75l-0.064-0.488h-0.024c-0.208,0.304-0.631,0.576-1.183,0.576    c-0.784,0-1.184-0.552-1.184-1.111c0-0.936,0.832-1.447,2.327-1.439v-0.08c0-0.32-0.088-0.904-0.879-0.896    c-0.368,0-0.744,0.104-1.016,0.288l-0.16-0.472c0.32-0.2,0.792-0.336,1.279-0.336c1.191,0,1.479,0.808,1.479,1.583V29.126z     M14.638,28.079c-0.768-0.016-1.639,0.12-1.639,0.872c0,0.464,0.304,0.672,0.656,0.672c0.512,0,0.839-0.32,0.951-0.648    c0.024-0.072,0.032-0.152,0.032-0.224V28.079z"/>
		<path d="M19.797,24.377v4.677c0,0.344,0.008,0.736,0.032,1h-0.632l-0.032-0.671h-0.016c-0.216,0.432-0.68,0.759-1.312,0.759    c-0.936,0-1.663-0.792-1.663-1.967c-0.008-1.295,0.8-2.079,1.735-2.079c0.6,0,0.999,0.28,1.167,0.584h0.016v-2.303H19.797z     M19.093,27.759c0-0.096-0.008-0.208-0.032-0.304c-0.104-0.44-0.488-0.808-1.016-0.808c-0.728,0-1.159,0.64-1.159,1.487    c0,0.792,0.392,1.439,1.143,1.439c0.472,0,0.904-0.319,1.032-0.847c0.024-0.088,0.032-0.184,0.032-0.296V27.759z"/>
		<path d="M21.367,28.247c0.016,0.943,0.616,1.335,1.319,1.335c0.504,0,0.815-0.088,1.071-0.2l0.128,0.503    c-0.248,0.112-0.68,0.248-1.295,0.248c-1.183,0-1.903-0.792-1.903-1.951c0-1.167,0.696-2.087,1.823-2.087    c1.263,0,1.591,1.112,1.591,1.823c0,0.144-0.008,0.248-0.024,0.328H21.367z M23.422,27.743c0.008-0.448-0.184-1.144-0.968-1.144    c-0.72,0-1.023,0.656-1.079,1.144H23.422z"/>
		<path d="M26.67,24.377h0.704v5.677H26.67V24.377z"/>
		<path d="M30.134,30.142c-1.039,0-1.855-0.768-1.855-1.991c0-1.295,0.855-2.055,1.919-2.055c1.111,0,1.863,0.808,1.863,1.983    c0,1.439-1,2.063-1.919,2.063H30.134z M30.166,29.614c0.671,0,1.175-0.631,1.175-1.511c0-0.656-0.328-1.479-1.16-1.479    c-0.823,0-1.183,0.768-1.183,1.503c0,0.847,0.48,1.487,1.159,1.487H30.166z"/>
		<path d="M32.855,29.334c0.216,0.128,0.583,0.272,0.936,0.272c0.503,0,0.744-0.248,0.744-0.576c0-0.336-0.2-0.512-0.712-0.704    c-0.704-0.256-1.031-0.64-1.031-1.095c0-0.624,0.512-1.136,1.335-1.136c0.392,0,0.736,0.104,0.944,0.24l-0.168,0.503    c-0.152-0.088-0.432-0.224-0.792-0.224c-0.416,0-0.64,0.24-0.64,0.527c0,0.32,0.224,0.464,0.728,0.664    c0.664,0.248,1.016,0.583,1.016,1.159c0,0.688-0.536,1.167-1.439,1.167c-0.424,0-0.815-0.112-1.087-0.272L32.855,29.334z"/>
		<path d="M36.519,28.247c0.016,0.943,0.616,1.335,1.319,1.335c0.504,0,0.815-0.088,1.071-0.2l0.128,0.503    c-0.248,0.112-0.68,0.248-1.295,0.248c-1.184,0-1.903-0.792-1.903-1.951c0-1.167,0.696-2.087,1.823-2.087    c1.263,0,1.591,1.112,1.591,1.823c0,0.144-0.008,0.248-0.024,0.328H36.519z M38.573,27.743c0.008-0.448-0.184-1.144-0.967-1.144    c-0.72,0-1.023,0.656-1.08,1.144H38.573z"/>
		<path d="M40.126,27.391c0-0.456-0.008-0.848-0.032-1.207h0.616l0.032,0.759h0.024c0.176-0.52,0.608-0.848,1.08-0.848    c0.072,0,0.128,0.008,0.192,0.016v0.664c-0.072-0.008-0.144-0.016-0.24-0.016c-0.496,0-0.848,0.376-0.943,0.896    c-0.016,0.104-0.024,0.216-0.024,0.328v2.071h-0.704V27.391z"/>
		<path d="M42.646,29.334c0.216,0.128,0.583,0.272,0.936,0.272c0.503,0,0.744-0.248,0.744-0.576c0-0.336-0.2-0.512-0.712-0.704    c-0.704-0.256-1.031-0.64-1.031-1.095c0-0.624,0.512-1.136,1.335-1.136c0.392,0,0.735,0.104,0.943,0.24l-0.168,0.503    c-0.152-0.088-0.432-0.224-0.792-0.224c-0.416,0-0.64,0.24-0.64,0.527c0,0.32,0.224,0.464,0.728,0.664    c0.664,0.248,1.015,0.583,1.015,1.159c0,0.688-0.536,1.167-1.439,1.167c-0.424,0-0.815-0.112-1.087-0.272L42.646,29.334z"/>
	</g>
	
		<line fill="none" stroke="#000000" stroke-width="0.5" stroke-linejoin="round" stroke-miterlimit="10" x1="49.944" y1="103.995" x2="49.944" y2="106.995"/>
	
		<line fill="none" stroke="#000000" stroke-width="0.5" stroke-linejoin="round" stroke-miterlimit="10" x1="66.511" y1="103.995" x2="66.511" y2="106.995"/>
	
		<line fill="none" stroke="#000000" stroke-width="0.5" stroke-linejoin="round" stroke-miterlimit="10" x1="83.078" y1="103.995" x2="83.078" y2="106.995"/>
	
		<line fill="none" stroke="#000000" stroke-width="0.5" stroke-linejoin="round" stroke-miterlimit="10" x1="99.645" y1="103.995" x2="99.645" y2="106.995"/>
	
		<line fill="none" stroke="#000000" stroke-width="0.5" stroke-linejoin="round" stroke-miterlimit="10" x1="116.211" y1="103.995" x2="116.211" y2="106.995"/>
	
		<line fill="none" stroke="#000000" stroke-width="0.5" stroke-linejoin="round" stroke-miterlimit="10" x1="132.778" y1="103.995" x2="132.778" y2="106.995"/>
	
		<line fill="none" stroke="#000000" stroke-width="0.5" stroke-linejoin="round" stroke-miterlimit="10" x1="149.345" y1="103.995" x2="149.345" y2="106.995"/>
	
		<line fill="none" stroke="#000000" stroke-width="0.5" stroke-linejoin="round" stroke-miterlimit="10" x1="165.911" y1="103.995" x2="165.911" y2="106.995"/>
	
		<line fill="none" stroke="#000000" stroke-width="0.5" stroke-linejoin="round" stroke-miterlimit="10" x1="182.478" y1="103.995" x2="182.478" y2="106.995"/>
	
		<line fill="none" stroke="#000000" stroke-width="0.5" stroke-linejoin="round" stroke-miterlimit="10" x1="199.045" y1="103.995" x2="199.045" y2="106.995"/>
</g>
</svg>