<svg xmlns="http://www.w3.org/2000/svg" xmlns:xlink="http://www.w3.org/1999/xlink" version="1.1" x="0px" y="0px" width="299px" height="133.917px" viewBox="0 0 299 133.917" enable-background="new 0 0 299 133.917" xml:space="preserve">
<g id="wide" display="none">
</g>
<g id="text_column">
</g>
<g id="art">
	
		<line fill="none" stroke="#A7A9AC" stroke-width="0.5" stroke-linejoin="round" stroke-miterlimit="10" x1="18.286" y1="17.936" x2="237.377" y2="17.936"/>
	
		<line fill="none" stroke="#A7A9AC" stroke-width="0.5" stroke-linejoin="round" stroke-miterlimit="10" x1="18.286" y1="2.936" x2="237.377" y2="2.936"/>
	
		<line fill="none" stroke="#A7A9AC" stroke-width="0.5" stroke-linejoin="round" stroke-miterlimit="10" x1="18.286" y1="32.936" x2="237.377" y2="32.936"/>
	
		<line fill="none" stroke="#A7A9AC" stroke-width="0.5" stroke-linejoin="round" stroke-miterlimit="10" x1="18.286" y1="107.942" x2="237.377" y2="107.942"/>
	<g>
		<path d="M1.727,5.373C0.711,5.373,0.016,4.422,0,2.702C0,0.951,0.759,0,1.815,0c1.087,0,1.719,0.976,1.719,2.631    c0,1.767-0.664,2.742-1.799,2.742H1.727z M1.767,4.829c0.712,0,1.056-0.839,1.056-2.167c0-1.279-0.32-2.118-1.056-2.118    c-0.64,0-1.055,0.815-1.055,2.118c-0.016,1.352,0.4,2.167,1.047,2.167H1.767z"/>
		<path d="M4.695,5.373c-0.271,0-0.464-0.216-0.464-0.504c0-0.287,0.2-0.504,0.48-0.504s0.472,0.208,0.472,0.504    c0,0.288-0.192,0.504-0.479,0.504H4.695z"/>
		<path d="M7.575,0c1.007,0,1.519,0.624,1.519,1.279c0,0.439-0.224,0.92-0.864,1.216v0.023c0.648,0.256,1.047,0.72,1.047,1.344    c0,0.911-0.775,1.511-1.767,1.511c-1.087,0-1.743-0.64-1.743-1.399c0-0.655,0.392-1.127,1.023-1.399V2.551    c-0.584-0.271-0.832-0.72-0.832-1.168C5.959,0.56,6.655,0,7.566,0H7.575z M7.526,4.861c0.632,0,1.04-0.392,1.04-0.928    c0-0.623-0.44-0.936-1.143-1.135C6.815,2.975,6.487,3.382,6.487,3.878c-0.024,0.52,0.375,0.983,1.031,0.983H7.526z M7.535,0.504    c-0.584,0-0.904,0.384-0.904,0.831c-0.008,0.521,0.392,0.8,0.992,0.96C8.07,2.143,8.414,1.823,8.414,1.352    c0-0.416-0.248-0.848-0.872-0.848H7.535z"/>
		<path d="M11.591,5.373c-1.016,0-1.711-0.951-1.728-2.671C9.863,0.951,10.623,0,11.679,0c1.087,0,1.719,0.976,1.719,2.631    c0,1.767-0.664,2.742-1.799,2.742H11.591z M11.63,4.829c0.712,0,1.056-0.839,1.056-2.167c0-1.279-0.32-2.118-1.056-2.118    c-0.64,0-1.055,0.815-1.055,2.118c-0.016,1.352,0.4,2.167,1.047,2.167H11.63z"/>
		<path d="M1.727,20.373c-1.015,0-1.711-0.951-1.727-2.671C0,15.951,0.759,15,1.815,15c1.087,0,1.719,0.976,1.719,2.631    c0,1.767-0.664,2.742-1.799,2.742H1.727z M1.767,19.829c0.712,0,1.056-0.839,1.056-2.167c0-1.279-0.32-2.118-1.056-2.118    c-0.64,0-1.055,0.815-1.055,2.118c-0.016,1.352,0.4,2.167,1.047,2.167H1.767z"/>
		<path d="M4.695,20.373c-0.271,0-0.464-0.216-0.464-0.504c0-0.287,0.2-0.504,0.48-0.504s0.472,0.208,0.472,0.504    c0,0.288-0.192,0.504-0.479,0.504H4.695z"/>
		<path d="M9.206,15.088v0.464l-2.263,4.733h-0.72l2.247-4.598v-0.016H5.927v-0.584H9.206z"/>
		<path d="M11.591,20.373c-1.016,0-1.711-0.951-1.728-2.671c0-1.751,0.76-2.702,1.815-2.702c1.087,0,1.719,0.976,1.719,2.631    c0,1.767-0.664,2.742-1.799,2.742H11.591z M11.63,19.829c0.712,0,1.056-0.839,1.056-2.167c0-1.279-0.32-2.118-1.056-2.118    c-0.64,0-1.055,0.815-1.055,2.118c-0.016,1.352,0.4,2.167,1.047,2.167H11.63z"/>
		<path d="M1.727,35.373c-1.015,0-1.711-0.951-1.727-2.671C0,30.951,0.759,30,1.815,30c1.087,0,1.719,0.976,1.719,2.631    c0,1.767-0.664,2.742-1.799,2.742H1.727z M1.767,34.829c0.712,0,1.056-0.839,1.056-2.167c0-1.279-0.32-2.118-1.056-2.118    c-0.64,0-1.055,0.815-1.055,2.118c-0.016,1.352,0.4,2.167,1.047,2.167H1.767z"/>
		<path d="M4.695,35.373c-0.271,0-0.464-0.216-0.464-0.504c0-0.287,0.2-0.504,0.48-0.504s0.472,0.208,0.472,0.504    c0,0.288-0.192,0.504-0.479,0.504H4.695z"/>
		<path d="M8.798,30.584c-0.144-0.008-0.328,0.008-0.528,0.04C7.159,30.8,6.583,31.6,6.463,32.463h0.016    c0.248-0.336,0.688-0.607,1.263-0.607c0.92,0,1.567,0.671,1.567,1.679c0,0.959-0.647,1.839-1.735,1.839    c-1.104,0-1.831-0.863-1.831-2.215c0-1.023,0.36-1.831,0.879-2.343c0.432-0.424,1.007-0.688,1.663-0.768    c0.208-0.032,0.384-0.04,0.512-0.04V30.584z M7.59,34.829c0.6,0,1.008-0.503,1.008-1.247c0-0.743-0.424-1.191-1.072-1.191    c-0.424,0-0.823,0.256-1.015,0.64c-0.04,0.08-0.072,0.176-0.072,0.304c0.008,0.855,0.408,1.495,1.144,1.495H7.59z"/>
		<path d="M11.591,35.373c-1.016,0-1.711-0.951-1.728-2.671c0-1.751,0.76-2.702,1.815-2.702c1.087,0,1.719,0.976,1.719,2.631    c0,1.767-0.664,2.742-1.799,2.742H11.591z M11.63,34.829c0.712,0,1.056-0.839,1.056-2.167c0-1.279-0.32-2.118-1.056-2.118    c-0.64,0-1.055,0.815-1.055,2.118c-0.016,1.352,0.4,2.167,1.047,2.167H11.63z"/>
		<path d="M1.727,50.373c-1.015,0-1.711-0.951-1.727-2.671C0,45.951,0.759,45,1.815,45c1.087,0,1.719,0.976,1.719,2.631    c0,1.767-0.664,2.742-1.799,2.742H1.727z M1.767,49.829c0.712,0,1.056-0.839,1.056-2.167c0-1.279-0.32-2.118-1.056-2.118    c-0.64,0-1.055,0.815-1.055,2.118c-0.016,1.352,0.4,2.167,1.047,2.167H1.767z"/>
		<path d="M4.695,50.373c-0.271,0-0.464-0.216-0.464-0.504c0-0.287,0.2-0.504,0.48-0.504s0.472,0.208,0.472,0.504    c0,0.288-0.192,0.504-0.479,0.504H4.695z"/>
		<path d="M8.934,45.68H6.951l-0.2,1.335c0.12-0.016,0.232-0.031,0.424-0.031c0.408,0,0.799,0.088,1.119,0.279    c0.408,0.224,0.744,0.68,0.744,1.335c0,1.016-0.808,1.775-1.935,1.775c-0.567,0-1.039-0.16-1.295-0.319l0.176-0.536    c0.216,0.128,0.64,0.288,1.119,0.288c0.656,0,1.231-0.432,1.224-1.136c0-0.663-0.456-1.144-1.487-1.144    c-0.304,0-0.536,0.024-0.728,0.057l0.336-2.495h2.486V45.68z"/>
		<path d="M11.591,50.373c-1.016,0-1.711-0.951-1.728-2.671c0-1.751,0.76-2.702,1.815-2.702c1.087,0,1.719,0.976,1.719,2.631    c0,1.767-0.664,2.742-1.799,2.742H11.591z M11.63,49.829c0.712,0,1.056-0.839,1.056-2.167c0-1.279-0.32-2.118-1.056-2.118    c-0.64,0-1.055,0.815-1.055,2.118c-0.016,1.352,0.4,2.167,1.047,2.167H11.63z"/>
		<path d="M1.727,65.373c-1.015,0-1.711-0.951-1.727-2.671C0,60.951,0.759,60,1.815,60c1.087,0,1.719,0.976,1.719,2.631    c0,1.767-0.664,2.742-1.799,2.742H1.727z M1.767,64.829c0.712,0,1.056-0.839,1.056-2.167c0-1.279-0.32-2.118-1.056-2.118    c-0.64,0-1.055,0.815-1.055,2.118c-0.016,1.352,0.4,2.167,1.047,2.167H1.767z"/>
		<path d="M4.695,65.373c-0.271,0-0.464-0.216-0.464-0.504c0-0.287,0.2-0.504,0.48-0.504s0.472,0.208,0.472,0.504    c0,0.288-0.192,0.504-0.479,0.504H4.695z"/>
		<path d="M8.006,65.285v-1.423H5.592v-0.456l2.318-3.318h0.76v3.23h0.728v0.544H8.67v1.423H8.006z M8.006,63.318v-1.735    c0-0.271,0.008-0.544,0.024-0.815H8.006c-0.16,0.304-0.288,0.527-0.432,0.768l-1.271,1.768v0.016H8.006z"/>
		<path d="M11.591,65.373c-1.016,0-1.711-0.951-1.728-2.671c0-1.751,0.76-2.702,1.815-2.702c1.087,0,1.719,0.976,1.719,2.631    c0,1.767-0.664,2.742-1.799,2.742H11.591z M11.63,64.829c0.712,0,1.056-0.839,1.056-2.167c0-1.279-0.32-2.118-1.056-2.118    c-0.64,0-1.055,0.815-1.055,2.118c-0.016,1.352,0.4,2.167,1.047,2.167H11.63z"/>
		<path d="M1.727,80.373c-1.015,0-1.711-0.951-1.727-2.671C0,75.951,0.759,75,1.815,75c1.087,0,1.719,0.976,1.719,2.631    c0,1.767-0.664,2.742-1.799,2.742H1.727z M1.767,79.829c0.712,0,1.056-0.839,1.056-2.167c0-1.279-0.32-2.118-1.056-2.118    c-0.64,0-1.055,0.815-1.055,2.118c-0.016,1.352,0.4,2.167,1.047,2.167H1.767z"/>
		<path d="M4.695,80.373c-0.271,0-0.464-0.216-0.464-0.504c0-0.287,0.2-0.504,0.48-0.504s0.472,0.208,0.472,0.504    c0,0.288-0.192,0.504-0.479,0.504H4.695z"/>
		<path d="M6,79.485c0.2,0.12,0.656,0.32,1.151,0.32c0.896,0,1.183-0.568,1.175-1.008c-0.008-0.728-0.664-1.039-1.343-1.039H6.591    V77.23h0.392c0.512,0,1.159-0.264,1.159-0.879c0-0.416-0.264-0.784-0.912-0.784c-0.416,0-0.815,0.185-1.039,0.344L6,75.399    C6.279,75.2,6.807,75,7.367,75c1.023,0,1.487,0.607,1.487,1.239c0,0.544-0.328,1-0.959,1.231v0.016    c0.64,0.12,1.159,0.6,1.159,1.328c0,0.831-0.656,1.559-1.895,1.559c-0.583,0-1.095-0.184-1.351-0.352L6,79.485z"/>
		<path d="M11.591,80.373c-1.016,0-1.711-0.951-1.728-2.671c0-1.751,0.76-2.702,1.815-2.702c1.087,0,1.719,0.976,1.719,2.631    c0,1.767-0.664,2.742-1.799,2.742H11.591z M11.63,79.829c0.712,0,1.056-0.839,1.056-2.167c0-1.279-0.32-2.118-1.056-2.118    c-0.64,0-1.055,0.815-1.055,2.118c-0.016,1.352,0.4,2.167,1.047,2.167H11.63z"/>
		<path d="M1.727,95.373c-1.015,0-1.711-0.951-1.727-2.671C0,90.951,0.759,90,1.815,90c1.087,0,1.719,0.976,1.719,2.631    c0,1.767-0.664,2.742-1.799,2.742H1.727z M1.767,94.829c0.712,0,1.056-0.839,1.056-2.167c0-1.279-0.32-2.118-1.056-2.118    c-0.64,0-1.055,0.815-1.055,2.118c-0.016,1.352,0.4,2.167,1.047,2.167H1.767z"/>
		<path d="M4.695,95.373c-0.271,0-0.464-0.216-0.464-0.504c0-0.287,0.2-0.504,0.48-0.504s0.472,0.208,0.472,0.504    c0,0.288-0.192,0.504-0.479,0.504H4.695z"/>
		<path d="M5.832,95.285v-0.432l0.552-0.536c1.327-1.263,1.935-1.935,1.935-2.718c0-0.528-0.248-1.016-1.023-1.016    c-0.472,0-0.864,0.239-1.104,0.439l-0.224-0.496C6.319,90.232,6.839,90,7.438,90c1.111,0,1.583,0.768,1.583,1.512    c0,0.959-0.695,1.734-1.791,2.79l-0.408,0.384v0.016h2.327v0.584H5.832z"/>
		<path d="M11.591,95.373c-1.016,0-1.711-0.951-1.728-2.671c0-1.751,0.76-2.702,1.815-2.702c1.087,0,1.719,0.976,1.719,2.631    c0,1.767-0.664,2.742-1.799,2.742H11.591z M11.63,94.829c0.712,0,1.056-0.839,1.056-2.167c0-1.279-0.32-2.118-1.056-2.118    c-0.64,0-1.055,0.815-1.055,2.118c-0.016,1.352,0.4,2.167,1.047,2.167H11.63z"/>
		<path d="M1.727,110.373c-1.015,0-1.711-0.951-1.727-2.671C0,105.951,0.759,105,1.815,105c1.087,0,1.719,0.976,1.719,2.631    c0,1.767-0.664,2.742-1.799,2.742H1.727z M1.767,109.829c0.712,0,1.056-0.839,1.056-2.167c0-1.279-0.32-2.118-1.056-2.118    c-0.64,0-1.055,0.815-1.055,2.118c-0.016,1.352,0.4,2.167,1.047,2.167H1.767z"/>
		<path d="M4.695,110.373c-0.271,0-0.464-0.216-0.464-0.504c0-0.287,0.2-0.504,0.48-0.504s0.472,0.208,0.472,0.504    c0,0.288-0.192,0.504-0.479,0.504H4.695z"/>
		<path d="M7.358,105.744H7.343l-0.904,0.487l-0.136-0.536l1.135-0.607h0.6v5.197h-0.68V105.744z"/>
		<path d="M11.591,110.373c-1.016,0-1.711-0.951-1.728-2.671c0-1.751,0.76-2.702,1.815-2.702c1.087,0,1.719,0.976,1.719,2.631    c0,1.767-0.664,2.742-1.799,2.742H11.591z M11.63,109.829c0.712,0,1.056-0.839,1.056-2.167c0-1.279-0.32-2.118-1.056-2.118    c-0.64,0-1.055,0.815-1.055,2.118c-0.016,1.352,0.4,2.167,1.047,2.167H11.63z"/>
		<path d="M1.727,125.373c-1.015,0-1.711-0.951-1.727-2.671C0,120.951,0.759,120,1.815,120c1.087,0,1.719,0.976,1.719,2.631    c0,1.767-0.664,2.742-1.799,2.742H1.727z M1.767,124.829c0.712,0,1.056-0.839,1.056-2.167c0-1.279-0.32-2.118-1.056-2.118    c-0.64,0-1.055,0.815-1.055,2.118c-0.016,1.352,0.4,2.167,1.047,2.167H1.767z"/>
		<path d="M4.695,125.373c-0.271,0-0.464-0.216-0.464-0.504c0-0.287,0.2-0.504,0.48-0.504s0.472,0.208,0.472,0.504    c0,0.288-0.192,0.504-0.479,0.504H4.695z"/>
		<path d="M7.486,125.373c-1.015,0-1.711-0.951-1.727-2.671c0-1.751,0.759-2.702,1.815-2.702c1.087,0,1.719,0.976,1.719,2.631    c0,1.767-0.664,2.742-1.799,2.742H7.486z M7.526,124.829c0.712,0,1.056-0.839,1.056-2.167c0-1.279-0.32-2.118-1.056-2.118    c-0.64,0-1.055,0.815-1.055,2.118c-0.016,1.352,0.4,2.167,1.047,2.167H7.526z"/>
		<path d="M11.591,125.373c-1.016,0-1.711-0.951-1.728-2.671c0-1.751,0.76-2.702,1.815-2.702c1.087,0,1.719,0.976,1.719,2.631    c0,1.767-0.664,2.742-1.799,2.742H11.591z M11.63,124.829c0.712,0,1.056-0.839,1.056-2.167c0-1.279-0.32-2.118-1.056-2.118    c-0.64,0-1.055,0.815-1.055,2.118c-0.016,1.352,0.4,2.167,1.047,2.167H11.63z"/>
	</g>
	
		<line fill="none" stroke="#A7A9AC" stroke-width="0.5" stroke-linejoin="round" stroke-miterlimit="10" x1="18.286" y1="47.938" x2="237.377" y2="47.938"/>
	
		<line fill="none" stroke="#A7A9AC" stroke-width="0.5" stroke-linejoin="round" stroke-miterlimit="10" x1="18.286" y1="77.94" x2="237.377" y2="77.94"/>
	
		<line fill="none" stroke="#A7A9AC" stroke-width="0.5" stroke-linejoin="round" stroke-miterlimit="10" x1="18.286" y1="92.94" x2="237.377" y2="92.94"/>
	
		<line fill="none" stroke="#A7A9AC" stroke-width="0.5" stroke-linejoin="round" stroke-miterlimit="10" x1="18.286" y1="62.938" x2="237.377" y2="62.938"/>
	
		<line fill="none" stroke="#000000" stroke-width="0.5" stroke-linejoin="round" stroke-miterlimit="10" x1="18.286" y1="122.84" x2="237.377" y2="122.84"/>
	
		<line fill="none" stroke="#000000" stroke-width="0.5" stroke-linejoin="round" stroke-miterlimit="10" x1="18.261" y1="122.934" x2="18.261" y2="2.994"/>
	<g>
		<path d="M20.893,126.841c0.335-0.064,0.775-0.112,1.335-0.112c0.688,0,1.191,0.16,1.511,0.448c0.296,0.256,0.48,0.648,0.48,1.12    c0,0.488-0.144,0.872-0.424,1.151c-0.368,0.392-0.968,0.592-1.647,0.592c-0.208,0-0.399-0.008-0.56-0.048v2.167h-0.695V126.841z     M21.588,129.423c0.152,0.04,0.344,0.056,0.576,0.056c0.839,0,1.351-0.408,1.351-1.143c0-0.712-0.503-1.056-1.271-1.056    c-0.304,0-0.536,0.024-0.656,0.056V129.423z"/>
		<path d="M25.524,130.351c0.016,0.943,0.616,1.335,1.319,1.335c0.504,0,0.815-0.088,1.071-0.2l0.128,0.503    c-0.248,0.112-0.68,0.248-1.295,0.248c-1.183,0-1.903-0.792-1.903-1.951c0-1.167,0.696-2.087,1.823-2.087    c1.263,0,1.591,1.112,1.591,1.823c0,0.144-0.008,0.248-0.024,0.328H25.524z M27.58,129.847c0.008-0.448-0.184-1.144-0.968-1.144    c-0.72,0-1.023,0.656-1.079,1.144H27.58z"/>
		<path d="M29.133,129.495c0-0.456-0.008-0.848-0.032-1.207h0.616l0.032,0.759h0.024c0.176-0.52,0.608-0.848,1.08-0.848    c0.072,0,0.128,0.008,0.192,0.016v0.664c-0.072-0.008-0.144-0.016-0.24-0.016c-0.496,0-0.848,0.376-0.943,0.896    c-0.016,0.104-0.024,0.216-0.024,0.328v2.071h-0.704V129.495z"/>
		<path d="M34.507,132.014c-0.184,0.088-0.592,0.224-1.111,0.224c-1.167,0-1.927-0.792-1.927-1.975c0-1.191,0.816-2.063,2.079-2.063    c0.416,0,0.784,0.104,0.975,0.208l-0.16,0.536c-0.168-0.088-0.432-0.184-0.815-0.184c-0.888,0-1.367,0.664-1.367,1.463    c0,0.896,0.576,1.447,1.343,1.447c0.399,0,0.664-0.096,0.863-0.184L34.507,132.014z"/>
		<path d="M35.732,130.351c0.016,0.943,0.616,1.335,1.319,1.335c0.504,0,0.815-0.088,1.071-0.2l0.128,0.503    c-0.248,0.112-0.68,0.248-1.295,0.248c-1.183,0-1.903-0.792-1.903-1.951c0-1.167,0.696-2.087,1.823-2.087    c1.263,0,1.591,1.112,1.591,1.823c0,0.144-0.008,0.248-0.024,0.328H35.732z M37.788,129.847c0.008-0.448-0.184-1.144-0.968-1.144    c-0.72,0-1.023,0.656-1.079,1.144H37.788z"/>
		<path d="M39.676,127.632c-0.256,0-0.424-0.2-0.424-0.432c0-0.248,0.176-0.439,0.44-0.439c0.256,0,0.432,0.192,0.432,0.439    c0,0.232-0.168,0.432-0.44,0.432H39.676z M39.34,132.158v-3.87h0.704v3.87H39.34z"/>
		<path d="M41.484,128.288l0.759,2.167c0.128,0.36,0.232,0.68,0.312,1h0.024c0.088-0.32,0.2-0.64,0.328-1l0.751-2.167h0.736    l-1.52,3.87h-0.671l-1.471-3.87H41.484z"/>
		<path d="M45.46,130.351c0.016,0.943,0.616,1.335,1.319,1.335c0.504,0,0.815-0.088,1.071-0.2l0.128,0.503    c-0.248,0.112-0.68,0.248-1.295,0.248c-1.184,0-1.903-0.792-1.903-1.951c0-1.167,0.696-2.087,1.823-2.087    c1.263,0,1.591,1.112,1.591,1.823c0,0.144-0.008,0.248-0.024,0.328H45.46z M47.515,129.847c0.008-0.448-0.184-1.144-0.967-1.144    c-0.72,0-1.023,0.656-1.08,1.144H47.515z"/>
		<path d="M52.41,126.481v4.677c0,0.344,0.008,0.736,0.032,1h-0.632l-0.032-0.671h-0.016c-0.216,0.432-0.68,0.759-1.312,0.759    c-0.936,0-1.663-0.792-1.663-1.967c-0.008-1.295,0.8-2.079,1.735-2.079c0.6,0,0.999,0.28,1.167,0.584h0.016v-2.303H52.41z     M51.707,129.863c0-0.096-0.008-0.208-0.032-0.304c-0.104-0.44-0.488-0.808-1.016-0.808c-0.728,0-1.159,0.64-1.159,1.487    c0,0.792,0.392,1.439,1.143,1.439c0.472,0,0.904-0.319,1.032-0.847c0.024-0.088,0.032-0.184,0.032-0.296V129.863z"/>
		<path d="M55.18,131.438c0.216,0.128,0.583,0.272,0.936,0.272c0.503,0,0.744-0.248,0.744-0.576c0-0.336-0.2-0.512-0.712-0.704    c-0.704-0.256-1.031-0.64-1.031-1.095c0-0.624,0.512-1.136,1.335-1.136c0.392,0,0.736,0.104,0.944,0.24l-0.168,0.503    c-0.152-0.088-0.432-0.224-0.792-0.224c-0.416,0-0.64,0.24-0.64,0.527c0,0.32,0.224,0.464,0.728,0.664    c0.664,0.248,1.016,0.583,1.016,1.159c0,0.688-0.536,1.167-1.439,1.167c-0.424,0-0.815-0.112-1.087-0.272L55.18,131.438z"/>
		<path d="M58.78,127.632c-0.256,0-0.424-0.2-0.424-0.432c0-0.248,0.176-0.439,0.44-0.439c0.256,0,0.432,0.192,0.432,0.439    c0,0.232-0.168,0.432-0.439,0.432H58.78z M58.444,132.158v-3.87h0.704v3.87H58.444z"/>
		<path d="M60.315,129.335c0-0.408-0.016-0.728-0.032-1.047h0.616l0.032,0.624h0.024c0.216-0.368,0.576-0.712,1.224-0.712    c0.52,0,0.919,0.32,1.087,0.776h0.016c0.12-0.224,0.28-0.384,0.439-0.504c0.232-0.176,0.48-0.272,0.848-0.272    c0.52,0,1.279,0.336,1.279,1.679v2.279h-0.688v-2.191c0-0.751-0.28-1.191-0.84-1.191c-0.408,0-0.711,0.296-0.839,0.632    c-0.032,0.104-0.056,0.232-0.056,0.352v2.399h-0.688v-2.327c0-0.616-0.272-1.056-0.808-1.056c-0.432,0-0.76,0.352-0.872,0.704    c-0.04,0.104-0.056,0.224-0.056,0.344v2.334h-0.688V129.335z"/>
		<path d="M67.324,127.632c-0.256,0-0.424-0.2-0.424-0.432c0-0.248,0.176-0.439,0.44-0.439c0.256,0,0.432,0.192,0.432,0.439    c0,0.232-0.168,0.432-0.439,0.432H67.324z M66.988,132.158v-3.87h0.704v3.87H66.988z"/>
		<path d="M68.859,126.481h0.704v5.677h-0.704V126.481z"/>
		<path d="M73.474,131.23c0,0.335,0.016,0.664,0.056,0.927h-0.632l-0.064-0.488h-0.024c-0.208,0.304-0.632,0.576-1.183,0.576    c-0.784,0-1.184-0.552-1.184-1.111c0-0.936,0.832-1.447,2.327-1.439v-0.08c0-0.32-0.088-0.904-0.879-0.896    c-0.368,0-0.744,0.104-1.016,0.288l-0.16-0.472c0.32-0.2,0.792-0.336,1.279-0.336c1.191,0,1.479,0.808,1.479,1.583V131.23z     M72.787,130.183c-0.768-0.016-1.639,0.12-1.639,0.872c0,0.464,0.304,0.672,0.656,0.672c0.512,0,0.839-0.32,0.952-0.648    c0.024-0.072,0.032-0.152,0.032-0.224V130.183z"/>
		<path d="M74.604,129.495c0-0.456-0.008-0.848-0.032-1.207h0.616l0.032,0.759h0.024c0.176-0.52,0.608-0.848,1.08-0.848    c0.072,0,0.128,0.008,0.192,0.016v0.664c-0.072-0.008-0.144-0.016-0.24-0.016c-0.496,0-0.848,0.376-0.944,0.896    c-0.016,0.104-0.024,0.216-0.024,0.328v2.071h-0.704V129.495z"/>
		<path d="M77.555,127.632c-0.256,0-0.424-0.2-0.424-0.432c0-0.248,0.176-0.439,0.44-0.439c0.256,0,0.432,0.192,0.432,0.439    c0,0.232-0.168,0.432-0.439,0.432H77.555z M77.219,132.158v-3.87h0.704v3.87H77.219z"/>
		<path d="M79.939,127.36v0.928h1.007v0.536h-1.007v2.079c0,0.48,0.136,0.751,0.528,0.751c0.192,0,0.304-0.016,0.408-0.048    l0.032,0.536c-0.136,0.048-0.352,0.096-0.624,0.096c-0.328,0-0.591-0.112-0.759-0.296c-0.192-0.216-0.272-0.56-0.272-1.016v-2.103    h-0.6v-0.536h0.6v-0.712L79.939,127.36z"/>
		<path d="M81.995,128.288l0.84,2.287c0.096,0.256,0.192,0.56,0.256,0.792h0.016c0.072-0.232,0.152-0.528,0.248-0.808l0.768-2.271    h0.744l-1.055,2.758c-0.504,1.327-0.848,1.999-1.328,2.422c-0.352,0.296-0.688,0.416-0.863,0.448l-0.176-0.584    c0.176-0.056,0.408-0.168,0.616-0.344c0.192-0.152,0.424-0.424,0.592-0.784c0.032-0.072,0.056-0.128,0.056-0.168    c0-0.04-0.016-0.096-0.056-0.184l-1.423-3.566H81.995z"/>
	</g>
	<g>
		<path d="M102.965,131.31c0.312,0.192,0.76,0.344,1.239,0.344c0.712,0,1.127-0.368,1.127-0.911c0-0.504-0.288-0.8-1.015-1.072    c-0.88-0.304-1.423-0.768-1.423-1.519c0-0.839,0.696-1.463,1.743-1.463c0.543,0,0.951,0.128,1.183,0.256l-0.192,0.576    c-0.168-0.104-0.528-0.256-1.015-0.256c-0.736,0-1.016,0.439-1.016,0.807c0,0.496,0.328,0.744,1.071,1.032    c0.912,0.36,1.367,0.792,1.367,1.583c0,0.824-0.607,1.551-1.879,1.551c-0.52,0-1.087-0.16-1.375-0.352L102.965,131.31z"/>
		<path d="M110.211,131.094c0,0.408,0.008,0.76,0.032,1.063h-0.624l-0.04-0.632h-0.016c-0.176,0.312-0.592,0.72-1.279,0.72    c-0.608,0-1.335-0.344-1.335-1.695v-2.263h0.704v2.135c0,0.735,0.232,1.239,0.864,1.239c0.472,0,0.799-0.328,0.927-0.648    c0.04-0.096,0.064-0.224,0.064-0.36v-2.366h0.704V131.094z"/>
		<path d="M111.381,129.551c0-0.496-0.008-0.896-0.032-1.263h0.631l0.04,0.664h0.016c0.28-0.48,0.744-0.752,1.367-0.752    c0.944,0,1.647,0.792,1.647,1.967c0,1.391-0.855,2.079-1.759,2.079c-0.52,0-0.959-0.224-1.191-0.607h-0.016v2.103h-0.704V129.551z     M112.085,130.583c0,0.096,0.008,0.2,0.032,0.288c0.12,0.488,0.552,0.823,1.047,0.823c0.744,0,1.175-0.607,1.175-1.495    c0-0.775-0.4-1.439-1.143-1.439c-0.48,0-0.936,0.335-1.072,0.871c-0.016,0.088-0.04,0.192-0.04,0.28V130.583z"/>
		<path d="M115.933,129.551c0-0.496-0.008-0.896-0.032-1.263h0.631l0.04,0.664h0.016c0.28-0.48,0.743-0.752,1.367-0.752    c0.944,0,1.647,0.792,1.647,1.967c0,1.391-0.855,2.079-1.759,2.079c-0.52,0-0.959-0.224-1.191-0.607h-0.016v2.103h-0.704V129.551z     M116.637,130.583c0,0.096,0.008,0.2,0.032,0.288c0.12,0.488,0.551,0.823,1.047,0.823c0.744,0,1.175-0.607,1.175-1.495    c0-0.775-0.4-1.439-1.143-1.439c-0.48,0-0.935,0.335-1.071,0.871c-0.016,0.088-0.04,0.192-0.04,0.28V130.583z"/>
		<path d="M122.06,132.246c-1.039,0-1.855-0.768-1.855-1.991c0-1.295,0.855-2.055,1.919-2.055c1.111,0,1.863,0.808,1.863,1.983    c0,1.439-1,2.063-1.919,2.063H122.06z M122.092,131.718c0.671,0,1.175-0.631,1.175-1.511c0-0.656-0.328-1.479-1.16-1.479    c-0.823,0-1.183,0.768-1.183,1.503c0,0.847,0.48,1.487,1.159,1.487H122.092z"/>
		<path d="M124.876,129.495c0-0.456-0.008-0.848-0.032-1.207h0.616l0.032,0.759h0.024c0.176-0.52,0.608-0.848,1.08-0.848    c0.072,0,0.128,0.008,0.192,0.016v0.664c-0.072-0.008-0.144-0.016-0.24-0.016c-0.496,0-0.848,0.376-0.943,0.896    c-0.016,0.104-0.024,0.216-0.024,0.328v2.071h-0.704V129.495z"/>
		<path d="M128.34,127.36v0.928h1.007v0.536h-1.007v2.079c0,0.48,0.136,0.751,0.528,0.751c0.192,0,0.304-0.016,0.408-0.048    l0.032,0.536c-0.136,0.048-0.352,0.096-0.624,0.096c-0.328,0-0.591-0.112-0.759-0.296c-0.192-0.216-0.272-0.56-0.272-1.016v-2.103    h-0.6v-0.536h0.6v-0.712L128.34,127.36z"/>
		<path d="M131.9,132.158v-3.334h-0.536v-0.536h0.536v-0.184c0-0.544,0.128-1.04,0.456-1.351c0.264-0.256,0.616-0.36,0.936-0.36    c0.256,0,0.463,0.056,0.6,0.112l-0.088,0.543c-0.112-0.048-0.248-0.088-0.456-0.088c-0.592,0-0.751,0.528-0.751,1.12v0.208h0.936    v0.536h-0.928v3.334H131.9z"/>
		<path d="M135.748,132.246c-1.04,0-1.855-0.768-1.855-1.991c0-1.295,0.855-2.055,1.919-2.055c1.111,0,1.863,0.808,1.863,1.983    c0,1.439-1,2.063-1.919,2.063H135.748z M135.78,131.718c0.671,0,1.175-0.631,1.175-1.511c0-0.656-0.328-1.479-1.159-1.479    c-0.824,0-1.184,0.768-1.184,1.503c0,0.847,0.479,1.487,1.159,1.487H135.78z"/>
		<path d="M138.564,129.495c0-0.456-0.008-0.848-0.032-1.207h0.616l0.032,0.759h0.024c0.176-0.52,0.608-0.848,1.08-0.848    c0.072,0,0.128,0.008,0.192,0.016v0.664c-0.072-0.008-0.144-0.016-0.24-0.016c-0.496,0-0.848,0.376-0.943,0.896    c-0.016,0.104-0.024,0.216-0.024,0.328v2.071h-0.704V129.495z"/>
		<path d="M142.892,126.769h2.902v0.584h-2.199v1.791h2.031v0.576h-2.031v2.438h-0.704V126.769z"/>
		<path d="M146.788,126.841c0.432-0.064,0.936-0.112,1.487-0.112c1,0,1.711,0.232,2.182,0.672c0.488,0.439,0.768,1.063,0.768,1.935    c0,0.879-0.279,1.599-0.775,2.095c-0.512,0.503-1.343,0.775-2.39,0.775c-0.504,0-0.912-0.016-1.271-0.064V126.841z     M147.492,131.614c0.176,0.032,0.432,0.032,0.704,0.032c1.487,0.008,2.295-0.832,2.295-2.287c0.008-1.271-0.713-2.079-2.184-2.079    c-0.36,0-0.631,0.032-0.815,0.072V131.614z"/>
		<path d="M152.82,126.769v5.389h-0.704v-5.389H152.82z"/>
	</g>
	<g>
		<path d="M176.046,131.31c0.312,0.192,0.76,0.344,1.239,0.344c0.712,0,1.127-0.368,1.127-0.911c0-0.504-0.287-0.8-1.015-1.072    c-0.88-0.304-1.423-0.768-1.423-1.519c0-0.839,0.695-1.463,1.742-1.463c0.544,0,0.951,0.128,1.184,0.256l-0.191,0.576    c-0.168-0.104-0.528-0.256-1.016-0.256c-0.736,0-1.016,0.439-1.016,0.807c0,0.496,0.328,0.744,1.071,1.032    c0.911,0.36,1.367,0.792,1.367,1.583c0,0.824-0.607,1.551-1.879,1.551c-0.52,0-1.087-0.16-1.375-0.352L176.046,131.31z"/>
		<path d="M183.292,131.094c0,0.408,0.009,0.76,0.032,1.063h-0.624l-0.04-0.632h-0.016c-0.176,0.312-0.592,0.72-1.279,0.72    c-0.607,0-1.336-0.344-1.336-1.695v-2.263h0.704v2.135c0,0.735,0.231,1.239,0.864,1.239c0.471,0,0.799-0.328,0.927-0.648    c0.04-0.096,0.063-0.224,0.063-0.36v-2.366h0.704V131.094z"/>
		<path d="M184.462,129.551c0-0.496-0.008-0.896-0.032-1.263h0.632l0.04,0.664h0.016c0.28-0.48,0.744-0.752,1.367-0.752    c0.944,0,1.647,0.792,1.647,1.967c0,1.391-0.855,2.079-1.759,2.079c-0.52,0-0.959-0.224-1.191-0.607h-0.016v2.103h-0.704V129.551z     M185.167,130.583c0,0.096,0.008,0.2,0.031,0.288c0.12,0.488,0.553,0.823,1.048,0.823c0.743,0,1.175-0.607,1.175-1.495    c0-0.775-0.399-1.439-1.143-1.439c-0.48,0-0.936,0.335-1.072,0.871c-0.016,0.088-0.039,0.192-0.039,0.28V130.583z"/>
		<path d="M189.014,129.551c0-0.496-0.008-0.896-0.031-1.263h0.631l0.04,0.664h0.017c0.279-0.48,0.743-0.752,1.367-0.752    c0.943,0,1.646,0.792,1.646,1.967c0,1.391-0.855,2.079-1.759,2.079c-0.52,0-0.96-0.224-1.191-0.607h-0.017v2.103h-0.703V129.551z     M189.717,130.583c0,0.096,0.009,0.2,0.033,0.288c0.119,0.488,0.551,0.823,1.047,0.823c0.744,0,1.176-0.607,1.176-1.495    c0-0.775-0.4-1.439-1.144-1.439c-0.479,0-0.936,0.335-1.071,0.871c-0.017,0.088-0.041,0.192-0.041,0.28V130.583z"/>
		<path d="M195.141,132.246c-1.039,0-1.855-0.768-1.855-1.991c0-1.295,0.855-2.055,1.919-2.055c1.111,0,1.863,0.808,1.863,1.983    c0,1.439-0.999,2.063-1.919,2.063H195.141z M195.172,131.718c0.672,0,1.176-0.631,1.176-1.511c0-0.656-0.328-1.479-1.16-1.479    c-0.822,0-1.183,0.768-1.183,1.503c0,0.847,0.479,1.487,1.159,1.487H195.172z"/>
		<path d="M197.958,129.495c0-0.456-0.008-0.848-0.031-1.207h0.615l0.031,0.759h0.024c0.177-0.52,0.608-0.848,1.079-0.848    c0.072,0,0.129,0.008,0.192,0.016v0.664c-0.071-0.008-0.144-0.016-0.239-0.016c-0.496,0-0.848,0.376-0.943,0.896    c-0.017,0.104-0.025,0.216-0.025,0.328v2.071h-0.703V129.495z"/>
		<path d="M201.421,127.36v0.928h1.007v0.536h-1.007v2.079c0,0.48,0.136,0.751,0.528,0.751c0.191,0,0.303-0.016,0.407-0.048    l0.032,0.536c-0.137,0.048-0.352,0.096-0.624,0.096c-0.327,0-0.591-0.112-0.759-0.296c-0.192-0.216-0.272-0.56-0.272-1.016v-2.103    h-0.6v-0.536h0.6v-0.712L201.421,127.36z"/>
		<path d="M204.981,132.158v-3.334h-0.535v-0.536h0.535v-0.184c0-0.544,0.129-1.04,0.457-1.351c0.264-0.256,0.615-0.36,0.936-0.36    c0.256,0,0.463,0.056,0.6,0.112l-0.088,0.543c-0.113-0.048-0.248-0.088-0.457-0.088c-0.592,0-0.751,0.528-0.751,1.12v0.208h0.936    v0.536h-0.928v3.334H204.981z"/>
		<path d="M208.829,132.246c-1.039,0-1.855-0.768-1.855-1.991c0-1.295,0.855-2.055,1.92-2.055c1.111,0,1.863,0.808,1.863,1.983    c0,1.439-1,2.063-1.92,2.063H208.829z M208.861,131.718c0.671,0,1.175-0.631,1.175-1.511c0-0.656-0.328-1.479-1.158-1.479    c-0.824,0-1.184,0.768-1.184,1.503c0,0.847,0.479,1.487,1.158,1.487H208.861z"/>
		<path d="M211.645,129.495c0-0.456-0.008-0.848-0.031-1.207h0.615l0.031,0.759h0.024c0.177-0.52,0.608-0.848,1.079-0.848    c0.072,0,0.129,0.008,0.192,0.016v0.664c-0.071-0.008-0.144-0.016-0.239-0.016c-0.496,0-0.848,0.376-0.943,0.896    c-0.017,0.104-0.025,0.216-0.025,0.328v2.071h-0.703V129.495z"/>
		<path d="M216.805,127.36v0.928h1.007v0.536h-1.007v2.079c0,0.48,0.135,0.751,0.527,0.751c0.191,0,0.304-0.016,0.408-0.048    l0.031,0.536c-0.136,0.048-0.352,0.096-0.623,0.096c-0.328,0-0.592-0.112-0.76-0.296c-0.191-0.216-0.271-0.56-0.271-1.016v-2.103    h-0.6v-0.536h0.6v-0.712L216.805,127.36z"/>
		<path d="M218.605,129.495c0-0.456-0.008-0.848-0.032-1.207h0.616l0.032,0.759h0.023c0.176-0.52,0.607-0.848,1.08-0.848    c0.071,0,0.127,0.008,0.191,0.016v0.664c-0.072-0.008-0.145-0.016-0.24-0.016c-0.496,0-0.848,0.376-0.943,0.896    c-0.016,0.104-0.023,0.216-0.023,0.328v2.071h-0.704V129.495z"/>
		<path d="M223.948,131.23c0,0.335,0.016,0.664,0.057,0.927h-0.633l-0.063-0.488h-0.024c-0.207,0.304-0.631,0.576-1.183,0.576    c-0.784,0-1.184-0.552-1.184-1.111c0-0.936,0.831-1.447,2.327-1.439v-0.08c0-0.32-0.088-0.904-0.88-0.896    c-0.368,0-0.743,0.104-1.016,0.288l-0.159-0.472c0.319-0.2,0.791-0.336,1.279-0.336c1.191,0,1.479,0.808,1.479,1.583V131.23z     M223.26,130.183c-0.768-0.016-1.639,0.12-1.639,0.872c0,0.464,0.303,0.672,0.655,0.672c0.512,0,0.839-0.32,0.952-0.648    c0.023-0.072,0.031-0.152,0.031-0.224V130.183z"/>
		<path d="M228.419,126.481v4.677c0,0.344,0.009,0.736,0.032,1h-0.632l-0.032-0.671h-0.016c-0.216,0.432-0.68,0.759-1.312,0.759    c-0.936,0-1.663-0.792-1.663-1.967c-0.008-1.295,0.8-2.079,1.735-2.079c0.6,0,0.999,0.28,1.167,0.584h0.016v-2.303H228.419z     M227.715,129.863c0-0.096-0.008-0.208-0.031-0.304c-0.104-0.44-0.488-0.808-1.016-0.808c-0.728,0-1.159,0.64-1.159,1.487    c0,0.792,0.392,1.439,1.144,1.439c0.471,0,0.903-0.319,1.031-0.847c0.023-0.088,0.031-0.184,0.031-0.296V129.863z"/>
		<path d="M229.989,130.351c0.016,0.943,0.615,1.335,1.319,1.335c0.504,0,0.815-0.088,1.071-0.2l0.128,0.503    c-0.247,0.112-0.68,0.248-1.296,0.248c-1.183,0-1.902-0.792-1.902-1.951c0-1.167,0.695-2.087,1.823-2.087    c1.263,0,1.591,1.112,1.591,1.823c0,0.144-0.008,0.248-0.023,0.328H229.989z M232.043,129.847    c0.008-0.448-0.184-1.144-0.967-1.144c-0.721,0-1.023,0.656-1.08,1.144H232.043z"/>
	</g>
	
		<rect x="248.164" y="45.323" fill="#D1D3D4" stroke="#000000" stroke-width="0.5" stroke-linejoin="round" stroke-miterlimit="10" width="6" height="5.999"/>
	<g>
		<path d="M261.743,50.32c-0.248,0.128-0.768,0.256-1.423,0.256c-1.519,0-2.655-0.959-2.655-2.727c0-1.687,1.145-2.822,2.814-2.822    c0.664,0,1.096,0.144,1.279,0.231l-0.176,0.576c-0.256-0.128-0.631-0.224-1.078-0.224c-1.264,0-2.104,0.808-2.104,2.215    c0,1.319,0.76,2.159,2.062,2.159c0.432,0,0.863-0.088,1.144-0.224L261.743,50.32z"/>
		<path d="M264.176,50.584c-1.039,0-1.855-0.768-1.855-1.991c0-1.295,0.855-2.055,1.92-2.055c1.111,0,1.863,0.808,1.863,1.983    c0,1.439-1,2.063-1.92,2.063H264.176z M264.208,50.056c0.671,0,1.175-0.631,1.175-1.511c0-0.655-0.328-1.479-1.158-1.479    c-0.824,0-1.184,0.768-1.184,1.503c0,0.847,0.479,1.487,1.158,1.487H264.208z"/>
		<path d="M266.993,47.674c0-0.408-0.008-0.728-0.031-1.048h0.623l0.04,0.632h0.017c0.191-0.36,0.639-0.72,1.279-0.72    c0.535,0,1.367,0.32,1.367,1.647v2.311h-0.704v-2.231c0-0.624-0.231-1.151-0.896-1.151c-0.455,0-0.815,0.328-0.943,0.72    c-0.032,0.088-0.049,0.216-0.049,0.328v2.335h-0.703V47.674z"/>
		<path d="M272.28,45.699v0.927h1.008v0.536h-1.008v2.079c0,0.48,0.137,0.751,0.528,0.751c0.192,0,0.304-0.016,0.407-0.048    l0.033,0.536c-0.137,0.048-0.353,0.096-0.625,0.096c-0.327,0-0.592-0.112-0.759-0.296c-0.192-0.216-0.272-0.56-0.272-1.016v-2.103    h-0.6v-0.536h0.6v-0.711L272.28,45.699z"/>
		<path d="M274.081,47.833c0-0.456-0.008-0.848-0.031-1.208h0.615l0.031,0.76h0.024c0.177-0.52,0.608-0.848,1.079-0.848    c0.072,0,0.129,0.008,0.192,0.016v0.664c-0.071-0.008-0.144-0.016-0.239-0.016c-0.496,0-0.848,0.375-0.943,0.896    c-0.017,0.104-0.025,0.216-0.025,0.328v2.071h-0.703V47.833z"/>
		<path d="M278.272,50.584c-1.039,0-1.855-0.768-1.855-1.991c0-1.295,0.855-2.055,1.92-2.055c1.111,0,1.863,0.808,1.863,1.983    c0,1.439-1,2.063-1.92,2.063H278.272z M278.304,50.056c0.671,0,1.175-0.631,1.175-1.511c0-0.655-0.328-1.479-1.158-1.479    c-0.824,0-1.184,0.768-1.184,1.503c0,0.847,0.479,1.487,1.158,1.487H278.304z"/>
		<path d="M281.088,44.819h0.703v5.677h-0.703V44.819z"/>
		<path d="M260.719,59.352c-0.184,0.088-0.592,0.224-1.111,0.224c-1.167,0-1.927-0.792-1.927-1.975c0-1.191,0.815-2.063,2.079-2.063    c0.416,0,0.783,0.104,0.975,0.208l-0.159,0.536c-0.168-0.088-0.432-0.184-0.815-0.184c-0.888,0-1.367,0.664-1.367,1.463    c0,0.896,0.576,1.447,1.344,1.447c0.398,0,0.663-0.096,0.863-0.184L260.719,59.352z"/>
		<path d="M263.12,59.584c-1.039,0-1.854-0.768-1.854-1.991c0-1.295,0.855-2.055,1.919-2.055c1.111,0,1.863,0.808,1.863,1.983    c0,1.439-1,2.063-1.919,2.063H263.12z M263.153,59.056c0.671,0,1.175-0.631,1.175-1.511c0-0.655-0.327-1.479-1.159-1.479    c-0.824,0-1.184,0.768-1.184,1.503c0,0.847,0.48,1.487,1.159,1.487H263.153z"/>
		<path d="M265.937,56.674c0-0.408-0.008-0.728-0.032-1.048h0.624l0.04,0.632h0.016c0.192-0.36,0.641-0.72,1.279-0.72    c0.536,0,1.367,0.32,1.367,1.647v2.311h-0.703v-2.231c0-0.624-0.232-1.151-0.896-1.151c-0.456,0-0.815,0.328-0.943,0.72    c-0.032,0.088-0.048,0.216-0.048,0.328v2.335h-0.704V56.674z"/>
		<path d="M273.719,53.819v4.677c0,0.344,0.008,0.736,0.032,1h-0.632l-0.031-0.672h-0.017c-0.216,0.432-0.68,0.76-1.312,0.76    c-0.936,0-1.663-0.792-1.663-1.967c-0.008-1.295,0.8-2.079,1.735-2.079c0.6,0,1,0.28,1.167,0.584h0.017v-2.303H273.719z     M273.016,57.201c0-0.096-0.008-0.208-0.032-0.304c-0.104-0.439-0.487-0.808-1.016-0.808c-0.728,0-1.159,0.64-1.159,1.487    c0,0.792,0.392,1.439,1.143,1.439c0.473,0,0.904-0.32,1.032-0.848c0.024-0.088,0.032-0.184,0.032-0.296V57.201z"/>
		<path d="M275.225,54.971c-0.256,0-0.424-0.2-0.424-0.432c0-0.248,0.176-0.44,0.439-0.44c0.256,0,0.432,0.192,0.432,0.44    c0,0.231-0.168,0.432-0.439,0.432H275.225z M274.889,59.496v-3.87h0.703v3.87H274.889z"/>
		<path d="M277.608,54.699v0.927h1.008v0.536h-1.008v2.079c0,0.48,0.137,0.751,0.528,0.751c0.192,0,0.304-0.016,0.407-0.048    l0.033,0.536c-0.137,0.048-0.353,0.096-0.625,0.096c-0.327,0-0.592-0.112-0.759-0.296c-0.192-0.216-0.272-0.56-0.272-1.016v-2.103    h-0.6v-0.536h0.6v-0.711L277.608,54.699z"/>
		<path d="M279.745,54.971c-0.256,0-0.424-0.2-0.424-0.432c0-0.248,0.176-0.44,0.439-0.44c0.256,0,0.432,0.192,0.432,0.44    c0,0.231-0.168,0.432-0.439,0.432H279.745z M279.409,59.496v-3.87h0.703v3.87H279.409z"/>
		<path d="M282.856,59.584c-1.039,0-1.855-0.768-1.855-1.991c0-1.295,0.855-2.055,1.92-2.055c1.111,0,1.863,0.808,1.863,1.983    c0,1.439-1,2.063-1.92,2.063H282.856z M282.888,59.056c0.671,0,1.175-0.631,1.175-1.511c0-0.655-0.328-1.479-1.158-1.479    c-0.824,0-1.184,0.768-1.184,1.503c0,0.847,0.479,1.487,1.158,1.487H282.888z"/>
		<path d="M285.672,56.674c0-0.408-0.008-0.728-0.031-1.048h0.623l0.04,0.632h0.017c0.191-0.36,0.639-0.72,1.279-0.72    c0.535,0,1.367,0.32,1.367,1.647v2.311h-0.704v-2.231c0-0.624-0.231-1.151-0.896-1.151c-0.455,0-0.815,0.328-0.943,0.72    c-0.032,0.088-0.049,0.216-0.049,0.328v2.335h-0.703V56.674z"/>
	</g>
	
		<rect x="247.935" y="66.322" fill="#808285" stroke="#000000" stroke-width="0.5" stroke-linejoin="round" stroke-miterlimit="10" width="6" height="6"/>
	<g>
		<path d="M258.634,71.496l-1.367-5.389h0.735l0.64,2.727c0.16,0.68,0.304,1.343,0.399,1.863h0.017    c0.088-0.536,0.256-1.175,0.439-1.871l0.72-2.719h0.728l0.655,2.735c0.152,0.647,0.296,1.279,0.376,1.847h0.017    c0.111-0.592,0.264-1.191,0.432-1.863l0.711-2.719h0.712l-1.527,5.389h-0.728l-0.68-2.798c-0.168-0.696-0.279-1.224-0.352-1.767    h-0.016c-0.088,0.543-0.216,1.063-0.416,1.759l-0.768,2.807H258.634z"/>
		<path d="M264.499,65.819h0.703v2.415h0.017c0.111-0.2,0.287-0.384,0.503-0.496c0.208-0.128,0.456-0.2,0.72-0.2    c0.52,0,1.352,0.32,1.352,1.655v2.303h-0.704v-2.231c0-0.624-0.231-1.143-0.896-1.143c-0.455,0-0.807,0.32-0.943,0.704    c-0.04,0.096-0.048,0.2-0.048,0.335v2.335h-0.703V65.819z"/>
		<path d="M269.338,69.689c0.016,0.944,0.616,1.335,1.319,1.335c0.504,0,0.815-0.088,1.071-0.2l0.128,0.504    c-0.248,0.112-0.68,0.248-1.295,0.248c-1.184,0-1.903-0.792-1.903-1.951c0-1.167,0.695-2.087,1.823-2.087    c1.264,0,1.591,1.111,1.591,1.823c0,0.144-0.008,0.248-0.023,0.328H269.338z M271.393,69.186c0.008-0.448-0.184-1.144-0.967-1.144    c-0.72,0-1.023,0.656-1.08,1.144H271.393z"/>
		<path d="M272.947,68.674c0-0.408-0.008-0.728-0.032-1.048h0.624l0.039,0.632h0.017c0.191-0.36,0.64-0.72,1.279-0.72    c0.535,0,1.367,0.32,1.367,1.647v2.311h-0.704v-2.231c0-0.624-0.231-1.151-0.896-1.151c-0.455,0-0.815,0.328-0.943,0.72    c-0.031,0.088-0.048,0.216-0.048,0.328v2.335h-0.703V68.674z"/>
		<path d="M282.864,71.32c-0.247,0.128-0.768,0.256-1.423,0.256c-1.52,0-2.654-0.959-2.654-2.727c0-1.687,1.144-2.822,2.814-2.822    c0.663,0,1.095,0.144,1.279,0.231l-0.176,0.576c-0.256-0.128-0.632-0.224-1.08-0.224c-1.263,0-2.103,0.808-2.103,2.215    c0,1.319,0.76,2.159,2.062,2.159c0.433,0,0.864-0.088,1.144-0.224L282.864,71.32z"/>
		<path d="M283.722,65.819h0.703v2.415h0.017c0.111-0.2,0.287-0.384,0.503-0.496c0.208-0.128,0.456-0.2,0.72-0.2    c0.52,0,1.352,0.32,1.352,1.655v2.303h-0.704v-2.231c0-0.624-0.231-1.143-0.896-1.143c-0.455,0-0.808,0.32-0.943,0.704    c-0.04,0.096-0.048,0.2-0.048,0.335v2.335h-0.703V65.819z"/>
		<path d="M288.499,66.971c-0.256,0-0.424-0.2-0.424-0.432c0-0.248,0.176-0.44,0.439-0.44c0.256,0,0.432,0.192,0.432,0.44    c0,0.231-0.168,0.432-0.439,0.432H288.499z M288.163,71.496v-3.87h0.703v3.87H288.163z"/>
		<path d="M290.035,68.674c0-0.408-0.008-0.728-0.032-1.048h0.624l0.039,0.632h0.017c0.191-0.36,0.64-0.72,1.279-0.72    c0.535,0,1.367,0.32,1.367,1.647v2.311h-0.704v-2.231c0-0.624-0.231-1.151-0.896-1.151c-0.455,0-0.815,0.328-0.943,0.72    c-0.031,0.088-0.048,0.216-0.048,0.328v2.335h-0.703V68.674z"/>
		<path d="M297.201,70.568c0,0.336,0.016,0.664,0.056,0.928h-0.632l-0.063-0.488h-0.024c-0.208,0.304-0.632,0.576-1.184,0.576    c-0.783,0-1.183-0.552-1.183-1.111c0-0.936,0.831-1.447,2.326-1.439v-0.08c0-0.32-0.088-0.904-0.88-0.896    c-0.367,0-0.743,0.104-1.015,0.288l-0.16-0.472c0.319-0.2,0.792-0.336,1.279-0.336c1.191,0,1.479,0.808,1.479,1.583V70.568z     M296.513,69.521c-0.768-0.016-1.64,0.12-1.64,0.872c0,0.464,0.304,0.672,0.655,0.672c0.512,0,0.84-0.32,0.952-0.648    c0.023-0.072,0.032-0.152,0.032-0.224V69.521z"/>
		<path d="M262.296,78.129c-0.04-0.744-0.088-1.663-0.088-2.327h-0.017c-0.191,0.624-0.407,1.311-0.68,2.047l-0.951,2.614h-0.527    l-0.88-2.566c-0.256-0.76-0.464-1.455-0.615-2.095h-0.017c-0.016,0.671-0.056,1.575-0.104,2.383l-0.145,2.311h-0.663l0.376-5.389    h0.888l0.919,2.607c0.224,0.664,0.399,1.263,0.544,1.823h0.016c0.145-0.543,0.336-1.144,0.576-1.823l0.959-2.607h0.888    l0.336,5.389h-0.688L262.296,78.129z"/>
		<path d="M264.562,78.689c0.016,0.944,0.615,1.335,1.319,1.335c0.504,0,0.815-0.088,1.071-0.2l0.128,0.504    c-0.248,0.112-0.68,0.248-1.295,0.248c-1.184,0-1.903-0.792-1.903-1.951c0-1.167,0.695-2.087,1.823-2.087    c1.263,0,1.591,1.111,1.591,1.823c0,0.144-0.008,0.248-0.023,0.328H264.562z M266.617,78.186c0.008-0.448-0.184-1.144-0.967-1.144    c-0.72,0-1.023,0.656-1.08,1.144H266.617z"/>
		<path d="M269.018,75.699v0.927h1.007v0.536h-1.007v2.079c0,0.48,0.136,0.751,0.527,0.751c0.191,0,0.304-0.016,0.407-0.048    l0.032,0.536c-0.136,0.048-0.352,0.096-0.623,0.096c-0.328,0-0.592-0.112-0.76-0.296c-0.192-0.216-0.272-0.56-0.272-1.016v-2.103    h-0.6v-0.536h0.6v-0.711L269.018,75.699z"/>
		<path d="M276.296,80.32c-0.247,0.128-0.768,0.256-1.423,0.256c-1.52,0-2.654-0.959-2.654-2.727c0-1.687,1.144-2.822,2.814-2.822    c0.663,0,1.095,0.144,1.279,0.231l-0.176,0.576c-0.256-0.128-0.632-0.224-1.08-0.224c-1.263,0-2.103,0.808-2.103,2.215    c0,1.319,0.76,2.159,2.062,2.159c0.432,0,0.864-0.088,1.144-0.224L276.296,80.32z"/>
		<path d="M279.881,79.568c0,0.336,0.016,0.664,0.056,0.928h-0.632l-0.063-0.488h-0.024c-0.208,0.304-0.632,0.576-1.184,0.576    c-0.783,0-1.183-0.552-1.183-1.111c0-0.936,0.831-1.447,2.326-1.439v-0.08c0-0.32-0.088-0.904-0.879-0.896    c-0.368,0-0.744,0.104-1.016,0.288l-0.16-0.472c0.319-0.2,0.791-0.336,1.279-0.336c1.191,0,1.479,0.808,1.479,1.583V79.568z     M279.193,78.521c-0.768-0.016-1.639,0.12-1.639,0.872c0,0.464,0.304,0.672,0.655,0.672c0.512,0,0.84-0.32,0.952-0.648    c0.023-0.072,0.031-0.152,0.031-0.224V78.521z"/>
		<path d="M281.01,77.833c0-0.456-0.009-0.848-0.032-1.208h0.615l0.032,0.76h0.024c0.176-0.52,0.607-0.848,1.079-0.848    c0.072,0,0.128,0.008,0.192,0.016v0.664c-0.072-0.008-0.145-0.016-0.24-0.016c-0.496,0-0.848,0.375-0.943,0.896    c-0.017,0.104-0.024,0.216-0.024,0.328v2.071h-0.703V77.833z"/>
		<path d="M285.202,80.584c-1.04,0-1.855-0.768-1.855-1.991c0-1.295,0.855-2.055,1.919-2.055c1.111,0,1.863,0.808,1.863,1.983    c0,1.439-1,2.063-1.919,2.063H285.202z M285.233,80.056c0.672,0,1.176-0.631,1.176-1.511c0-0.655-0.328-1.479-1.159-1.479    c-0.824,0-1.184,0.768-1.184,1.503c0,0.847,0.479,1.487,1.159,1.487H285.233z"/>
		<path d="M288.018,74.819h0.703v5.677h-0.703V74.819z"/>
		<path d="M290.243,75.971c-0.256,0-0.424-0.2-0.424-0.432c0-0.248,0.176-0.44,0.439-0.44c0.256,0,0.432,0.192,0.432,0.44    c0,0.231-0.168,0.432-0.439,0.432H290.243z M289.907,80.496v-3.87h0.703v3.87H289.907z"/>
		<path d="M291.779,77.674c0-0.408-0.008-0.728-0.032-1.048h0.624l0.039,0.632h0.017c0.191-0.36,0.64-0.72,1.279-0.72    c0.535,0,1.367,0.32,1.367,1.647v2.311h-0.704v-2.231c0-0.624-0.231-1.151-0.896-1.151c-0.455,0-0.815,0.328-0.943,0.72    c-0.031,0.088-0.048,0.216-0.048,0.328v2.335h-0.703V77.674z"/>
		<path d="M298.945,79.568c0,0.336,0.016,0.664,0.056,0.928h-0.632l-0.063-0.488h-0.024c-0.208,0.304-0.632,0.576-1.184,0.576    c-0.783,0-1.183-0.552-1.183-1.111c0-0.936,0.831-1.447,2.326-1.439v-0.08c0-0.32-0.088-0.904-0.88-0.896    c-0.367,0-0.743,0.104-1.015,0.288l-0.16-0.472c0.319-0.2,0.792-0.336,1.279-0.336c1.191,0,1.479,0.808,1.479,1.583V79.568z     M298.257,78.521c-0.768-0.016-1.64,0.12-1.64,0.872c0,0.464,0.304,0.672,0.655,0.672c0.512,0,0.84-0.32,0.952-0.648    c0.023-0.072,0.032-0.152,0.032-0.224V78.521z"/>
	</g>
	
		<line fill="none" stroke="#000000" stroke-width="0.5" stroke-linejoin="round" stroke-miterlimit="10" x1="18.286" y1="2.986" x2="15.286" y2="2.986"/>
	
		<line fill="none" stroke="#000000" stroke-width="0.5" stroke-linejoin="round" stroke-miterlimit="10" x1="18.286" y1="17.986" x2="15.286" y2="17.986"/>
	
		<line fill="none" stroke="#000000" stroke-width="0.5" stroke-linejoin="round" stroke-miterlimit="10" x1="18.286" y1="47.972" x2="15.286" y2="47.972"/>
	
		<line fill="none" stroke="#000000" stroke-width="0.5" stroke-linejoin="round" stroke-miterlimit="10" x1="18.286" y1="92.949" x2="15.286" y2="92.949"/>
	
		<line fill="none" stroke="#000000" stroke-width="0.5" stroke-linejoin="round" stroke-miterlimit="10" x1="18.286" y1="77.957" x2="15.286" y2="77.957"/>
	
		<line fill="none" stroke="#000000" stroke-width="0.5" stroke-linejoin="round" stroke-miterlimit="10" x1="18.286" y1="32.979" x2="15.286" y2="32.979"/>
	
		<line fill="none" stroke="#000000" stroke-width="0.5" stroke-linejoin="round" stroke-miterlimit="10" x1="18.286" y1="62.964" x2="15.286" y2="62.964"/>
	
		<line fill="none" stroke="#000000" stroke-width="0.5" stroke-linejoin="round" stroke-miterlimit="10" x1="18.286" y1="107.942" x2="15.286" y2="107.942"/>
	
		<line fill="none" stroke="#000000" stroke-width="0.5" stroke-linejoin="round" stroke-miterlimit="10" x1="18.286" y1="122.934" x2="15.286" y2="122.934"/>
	
		<rect x="182.86" y="27.731" fill="#D1D3D4" stroke="#000000" stroke-width="0.5" stroke-miterlimit="10" width="18.527" height="95.071"/>
	
		<rect x="107.141" y="21.742" fill="#D1D3D4" stroke="#000000" stroke-width="0.5" stroke-miterlimit="10" width="18.527" height="101.06"/>
	
		<rect x="31.609" y="41.393" fill="#D1D3D4" stroke="#000000" stroke-width="0.5" stroke-miterlimit="10" width="18.527" height="81.409"/>
	
		<rect x="206.441" y="23.614" fill="#808285" stroke="#000000" stroke-width="0.5" stroke-miterlimit="10" width="18.527" height="99.188"/>
	
		<rect x="130.721" y="14.443" fill="#808285" stroke="#000000" stroke-width="0.5" stroke-miterlimit="10" width="18.528" height="108.358"/>
	
		<rect x="55.19" y="32.035" fill="#808285" stroke="#000000" stroke-width="0.5" stroke-miterlimit="10" width="18.527" height="90.767"/>
	
		<line fill="none" stroke="#000000" stroke-width="0.5" stroke-linejoin="round" stroke-miterlimit="10" x1="38.534" y1="39.147" x2="43.175" y2="39.147"/>
	
		<line fill="none" stroke="#000000" stroke-width="0.5" stroke-linejoin="round" stroke-miterlimit="10" x1="38.534" y1="43.598" x2="43.175" y2="43.598"/>
	
		<line fill="none" stroke="#000000" stroke-width="0.5" stroke-linejoin="round" stroke-miterlimit="10" x1="40.78" y1="41.393" x2="40.78" y2="39.147"/>
	
		<line fill="none" stroke="#000000" stroke-width="0.5" stroke-linejoin="round" stroke-miterlimit="10" x1="40.78" y1="43.598" x2="40.78" y2="41.393"/>
	
		<line fill="none" stroke="#000000" stroke-width="0.5" stroke-linejoin="round" stroke-miterlimit="10" x1="114.065" y1="19.123" x2="118.744" y2="19.123"/>
	
		<line fill="none" stroke="#000000" stroke-width="0.5" stroke-linejoin="round" stroke-miterlimit="10" x1="114.065" y1="24.175" x2="118.744" y2="24.175"/>
	
		<line fill="none" stroke="#000000" stroke-width="0.5" stroke-linejoin="round" stroke-miterlimit="10" x1="116.499" y1="21.742" x2="116.499" y2="19.123"/>
	
		<line fill="none" stroke="#000000" stroke-width="0.5" stroke-linejoin="round" stroke-miterlimit="10" x1="116.499" y1="24.175" x2="116.499" y2="21.742"/>
	
		<line fill="none" stroke="#000000" stroke-width="0.5" stroke-linejoin="round" stroke-miterlimit="10" x1="189.785" y1="25.111" x2="194.432" y2="25.111"/>
	
		<line fill="none" stroke="#000000" stroke-width="0.5" stroke-linejoin="round" stroke-miterlimit="10" x1="189.785" y1="30.447" x2="194.432" y2="30.447"/>
	
		<line fill="none" stroke="#000000" stroke-width="0.5" stroke-linejoin="round" stroke-miterlimit="10" x1="192.03" y1="27.731" x2="192.03" y2="25.111"/>
	
		<line fill="none" stroke="#000000" stroke-width="0.5" stroke-linejoin="round" stroke-miterlimit="10" x1="192.03" y1="30.447" x2="192.03" y2="27.731"/>
	
		<line fill="none" stroke="#000000" stroke-width="0.5" stroke-linejoin="round" stroke-miterlimit="10" x1="62.114" y1="29.79" x2="66.704" y2="29.79"/>
	
		<line fill="none" stroke="#000000" stroke-width="0.5" stroke-linejoin="round" stroke-miterlimit="10" x1="62.114" y1="34.27" x2="66.704" y2="34.27"/>
	
		<line fill="none" stroke="#000000" stroke-width="0.5" stroke-linejoin="round" stroke-miterlimit="10" x1="64.36" y1="32.035" x2="64.36" y2="29.79"/>
	
		<line fill="none" stroke="#000000" stroke-width="0.5" stroke-linejoin="round" stroke-miterlimit="10" x1="64.36" y1="34.27" x2="64.36" y2="32.035"/>
	
		<line fill="none" stroke="#000000" stroke-width="0.5" stroke-linejoin="round" stroke-miterlimit="10" x1="137.646" y1="11.823" x2="142.325" y2="11.823"/>
	
		<line fill="none" stroke="#000000" stroke-width="0.5" stroke-linejoin="round" stroke-miterlimit="10" x1="137.646" y1="16.876" x2="142.325" y2="16.876"/>
	
		<line fill="none" stroke="#000000" stroke-width="0.5" stroke-linejoin="round" stroke-miterlimit="10" x1="140.079" y1="14.443" x2="140.079" y2="11.823"/>
	
		<line fill="none" stroke="#000000" stroke-width="0.5" stroke-linejoin="round" stroke-miterlimit="10" x1="140.079" y1="16.876" x2="140.079" y2="14.443"/>
	
		<line fill="none" stroke="#000000" stroke-width="0.5" stroke-linejoin="round" stroke-miterlimit="10" x1="213.365" y1="20.994" x2="217.961" y2="20.994"/>
	
		<line fill="none" stroke="#000000" stroke-width="0.5" stroke-linejoin="round" stroke-miterlimit="10" x1="213.365" y1="26.233" x2="217.961" y2="26.233"/>
	
		<line fill="none" stroke="#000000" stroke-width="0.5" stroke-linejoin="round" stroke-miterlimit="10" x1="215.611" y1="23.614" x2="215.611" y2="20.994"/>
	
		<line fill="none" stroke="#000000" stroke-width="0.5" stroke-linejoin="round" stroke-miterlimit="10" x1="215.611" y1="26.233" x2="215.611" y2="23.614"/>
</g>
</svg>