<svg xmlns="http://www.w3.org/2000/svg" xmlns:xlink="http://www.w3.org/1999/xlink" version="1.1" x="0px" y="0px" width="301.995px" height="190.477px" viewBox="0 0 301.995 190.477" enable-background="new 0 0 301.995 190.477" xml:space="preserve">
<g id="wide" display="none">
</g>
<g id="text_column">
</g>
<g id="art">
	<polyline fill="none" stroke="#000000" stroke-linejoin="round" stroke-miterlimit="10" points="33.793,140.826 77.699,144.25    121.604,147.75 165.375,149.5 209.416,152.25 253.32,154 296.477,155  "/>
	<g>
		<path d="M14.735,6.498c-1.016,0-1.711-0.951-1.728-2.671c0-1.751,0.76-2.702,1.815-2.702c1.087,0,1.719,0.976,1.719,2.631    c0,1.767-0.664,2.742-1.799,2.742H14.735z M14.775,5.954c0.712,0,1.056-0.839,1.056-2.167c0-1.279-0.32-2.118-1.056-2.118    c-0.64,0-1.055,0.815-1.055,2.118c-0.016,1.352,0.4,2.167,1.047,2.167H14.775z"/>
		<path d="M17.704,6.498c-0.272,0-0.463-0.216-0.463-0.504c0-0.287,0.2-0.504,0.479-0.504s0.472,0.208,0.472,0.504    c0,0.288-0.192,0.504-0.479,0.504H17.704z"/>
		<path d="M21.806,1.709c-0.144-0.008-0.328,0.008-0.528,0.04c-1.111,0.176-1.687,0.976-1.807,1.839h0.016    c0.248-0.336,0.688-0.607,1.264-0.607c0.919,0,1.567,0.671,1.567,1.679c0,0.959-0.647,1.839-1.735,1.839    c-1.104,0-1.831-0.863-1.831-2.215c0-1.023,0.36-1.831,0.879-2.343c0.432-0.424,1.007-0.688,1.663-0.768    c0.208-0.032,0.384-0.04,0.512-0.04V1.709z M20.599,5.954c0.6,0,1.008-0.503,1.008-1.247c0-0.743-0.424-1.191-1.072-1.191    c-0.423,0-0.823,0.256-1.015,0.64c-0.04,0.08-0.072,0.176-0.072,0.304c0.008,0.855,0.408,1.495,1.144,1.495H20.599z"/>
		<path d="M14.735,59.158c-1.016,0-1.711-0.951-1.728-2.671c0-1.751,0.76-2.702,1.815-2.702c1.087,0,1.719,0.976,1.719,2.631    c0,1.767-0.664,2.742-1.799,2.742H14.735z M14.775,58.614c0.712,0,1.056-0.839,1.056-2.167c0-1.279-0.32-2.118-1.056-2.118    c-0.64,0-1.055,0.815-1.055,2.118c-0.016,1.352,0.4,2.167,1.047,2.167H14.775z"/>
		<path d="M17.704,59.158c-0.272,0-0.463-0.216-0.463-0.504c0-0.287,0.2-0.504,0.479-0.504s0.472,0.208,0.472,0.504    c0,0.288-0.192,0.504-0.479,0.504H17.704z"/>
		<path d="M21.015,59.07v-1.423H18.6v-0.456l2.318-3.318h0.76v3.23h0.728v0.544h-0.728v1.423H21.015z M21.015,57.104v-1.735    c0-0.271,0.008-0.544,0.024-0.815h-0.024c-0.16,0.304-0.288,0.527-0.432,0.768l-1.271,1.768v0.016H21.015z"/>
		<path d="M14.735,111.818c-1.016,0-1.711-0.951-1.728-2.671c0-1.751,0.76-2.702,1.815-2.702c1.087,0,1.719,0.976,1.719,2.631    c0,1.767-0.664,2.742-1.799,2.742H14.735z M14.775,111.274c0.712,0,1.056-0.839,1.056-2.167c0-1.279-0.32-2.118-1.056-2.118    c-0.64,0-1.055,0.815-1.055,2.118c-0.016,1.352,0.4,2.167,1.047,2.167H14.775z"/>
		<path d="M17.704,111.818c-0.272,0-0.463-0.216-0.463-0.504c0-0.287,0.2-0.504,0.479-0.504s0.472,0.208,0.472,0.504    c0,0.288-0.192,0.504-0.479,0.504H17.704z"/>
		<path d="M18.84,111.73v-0.432l0.552-0.536c1.327-1.263,1.935-1.935,1.935-2.718c0-0.528-0.248-1.016-1.023-1.016    c-0.472,0-0.863,0.239-1.103,0.439l-0.224-0.496c0.352-0.295,0.872-0.527,1.471-0.527c1.111,0,1.583,0.768,1.583,1.512    c0,0.959-0.696,1.734-1.791,2.79l-0.408,0.384v0.016h2.327v0.584H18.84z"/>
		<path d="M14.735,164.479c-1.016,0-1.711-0.951-1.728-2.671c0-1.751,0.76-2.702,1.815-2.702c1.087,0,1.719,0.976,1.719,2.631    c0,1.767-0.664,2.742-1.799,2.742H14.735z M14.775,163.935c0.712,0,1.056-0.839,1.056-2.167c0-1.279-0.32-2.118-1.056-2.118    c-0.64,0-1.055,0.815-1.055,2.118c-0.016,1.352,0.4,2.167,1.047,2.167H14.775z"/>
		<path d="M17.704,164.479c-0.272,0-0.463-0.216-0.463-0.504c0-0.287,0.2-0.504,0.479-0.504s0.472,0.208,0.472,0.504    c0,0.288-0.192,0.504-0.479,0.504H17.704z"/>
		<path d="M20.495,164.479c-1.016,0-1.711-0.951-1.728-2.671c0-1.751,0.76-2.702,1.815-2.702c1.087,0,1.719,0.976,1.719,2.631    c0,1.767-0.664,2.742-1.799,2.742H20.495z M20.535,163.935c0.712,0,1.056-0.839,1.056-2.167c0-1.279-0.32-2.118-1.056-2.118    c-0.64,0-1.055,0.815-1.055,2.118c-0.016,1.352,0.4,2.167,1.047,2.167H20.535z"/>
	</g>
	<g>
		<path d="M33.624,174.45h-0.016l-0.904,0.487l-0.136-0.535l1.135-0.607h0.6v5.197h-0.679V174.45z"/>
	</g>
	<g>
		<path d="M119.907,178.992v-0.432l0.552-0.536c1.327-1.264,1.935-1.935,1.935-2.719c0-0.528-0.248-1.016-1.023-1.016    c-0.472,0-0.863,0.24-1.103,0.44l-0.224-0.496c0.352-0.296,0.872-0.527,1.471-0.527c1.111,0,1.583,0.768,1.583,1.511    c0,0.96-0.696,1.735-1.791,2.79l-0.408,0.385v0.016h2.327v0.584H119.907z"/>
	</g>
	<g>
		<path d="M126.965,188.496v-6.068h0.864l1.936,3.07c0.441,0.711,0.801,1.35,1.081,1.971l0.027-0.008    c-0.072-0.811-0.09-1.549-0.09-2.485v-2.548h0.738v6.068h-0.792l-1.927-3.08c-0.423-0.674-0.828-1.367-1.125-2.025l-0.027,0.01    c0.045,0.766,0.054,1.494,0.054,2.502v2.594H126.965z"/>
		<path d="M135.993,187.451c0,0.379,0.018,0.748,0.063,1.045h-0.711l-0.072-0.55h-0.027c-0.234,0.343-0.711,0.648-1.333,0.648    c-0.882,0-1.333-0.621-1.333-1.251c0-1.054,0.937-1.63,2.62-1.621v-0.09c0-0.36-0.099-1.018-0.99-1.008    c-0.415,0-0.837,0.117-1.144,0.324l-0.18-0.531c0.36-0.226,0.891-0.379,1.44-0.379c1.341,0,1.666,0.91,1.666,1.783V187.451z     M135.218,186.271c-0.864-0.018-1.845,0.136-1.845,0.982c0,0.521,0.342,0.756,0.738,0.756c0.576,0,0.945-0.36,1.071-0.729    c0.027-0.081,0.036-0.171,0.036-0.252V186.271z"/>
		<path d="M138.202,183.094v1.045h1.134v0.604h-1.134v2.34c0,0.541,0.153,0.846,0.594,0.846c0.216,0,0.342-0.018,0.459-0.053    l0.036,0.603c-0.153,0.054-0.396,0.108-0.702,0.108c-0.369,0-0.666-0.127-0.855-0.334c-0.216-0.242-0.306-0.629-0.306-1.143    v-2.367h-0.675v-0.604h0.675v-0.802L138.202,183.094z"/>
		<path d="M140.605,183.4c-0.288,0-0.477-0.226-0.477-0.486c0-0.279,0.198-0.495,0.495-0.495c0.288,0,0.486,0.216,0.486,0.495    c0,0.261-0.189,0.486-0.495,0.486H140.605z M140.227,188.496v-4.357h0.792v4.357H140.227z"/>
		<path d="M144.151,188.595c-1.17,0-2.088-0.864-2.088-2.241c0-1.459,0.963-2.314,2.161-2.314c1.251,0,2.098,0.91,2.098,2.232    c0,1.621-1.126,2.323-2.161,2.323H144.151z M144.187,188c0.756,0,1.323-0.711,1.323-1.701c0-0.738-0.369-1.666-1.305-1.666    c-0.927,0-1.333,0.865-1.333,1.693c0,0.954,0.54,1.674,1.305,1.674H144.187z"/>
		<path d="M147.376,185.318c0-0.46-0.008-0.82-0.035-1.18h0.701l0.045,0.711h0.019c0.216-0.405,0.72-0.811,1.44-0.811    c0.604,0,1.539,0.36,1.539,1.855v2.602h-0.791v-2.512c0-0.703-0.262-1.297-1.009-1.297c-0.513,0-0.919,0.369-1.062,0.811    c-0.036,0.099-0.054,0.242-0.054,0.369v2.629h-0.793V185.318z"/>
		<path d="M155.46,187.451c0,0.379,0.018,0.748,0.062,1.045h-0.711l-0.072-0.55h-0.026c-0.234,0.343-0.712,0.648-1.333,0.648    c-0.881,0-1.332-0.621-1.332-1.251c0-1.054,0.937-1.63,2.62-1.621v-0.09c0-0.36-0.099-1.018-0.99-1.008    c-0.415,0-0.837,0.117-1.144,0.324l-0.18-0.531c0.36-0.226,0.891-0.379,1.439-0.379c1.342,0,1.666,0.91,1.666,1.783V187.451z     M154.686,186.271c-0.864-0.018-1.845,0.136-1.845,0.982c0,0.521,0.342,0.756,0.738,0.756c0.576,0,0.945-0.36,1.07-0.729    c0.027-0.081,0.036-0.171,0.036-0.252V186.271z"/>
		<path d="M156.747,182.104h0.792v6.393h-0.792V182.104z"/>
		<path d="M160.671,187.686c0.243,0.145,0.657,0.306,1.053,0.306c0.567,0,0.838-0.278,0.838-0.647c0-0.379-0.225-0.576-0.801-0.793    c-0.793-0.288-1.162-0.72-1.162-1.232c0-0.703,0.576-1.279,1.504-1.279c0.441,0,0.828,0.117,1.062,0.271l-0.189,0.567    c-0.172-0.1-0.486-0.252-0.892-0.252c-0.468,0-0.72,0.27-0.72,0.594c0,0.359,0.252,0.521,0.818,0.747    c0.748,0.279,1.145,0.657,1.145,1.306c0,0.773-0.604,1.314-1.621,1.314c-0.477,0-0.918-0.127-1.225-0.307L160.671,187.686z"/>
		<path d="M167.964,187.299c0,0.459,0.01,0.854,0.037,1.197h-0.703l-0.045-0.712h-0.018c-0.198,0.352-0.666,0.811-1.44,0.811    c-0.685,0-1.503-0.388-1.503-1.909v-2.547h0.791v2.403c0,0.828,0.262,1.396,0.973,1.396c0.531,0,0.9-0.369,1.045-0.729    c0.045-0.108,0.072-0.252,0.072-0.405v-2.664h0.791V187.299z"/>
		<path d="M169.299,185.561c0-0.559-0.009-1.008-0.036-1.422h0.711l0.045,0.747h0.019c0.315-0.54,0.837-0.847,1.54-0.847    c1.062,0,1.854,0.892,1.854,2.215c0,1.566-0.963,2.341-1.98,2.341c-0.585,0-1.08-0.252-1.342-0.685h-0.018v2.368h-0.792V185.561z     M170.091,186.723c0,0.107,0.01,0.225,0.036,0.324c0.136,0.549,0.621,0.927,1.18,0.927c0.837,0,1.323-0.685,1.323-1.684    c0-0.874-0.45-1.62-1.287-1.62c-0.541,0-1.054,0.377-1.207,0.98c-0.018,0.1-0.045,0.217-0.045,0.315V186.723z"/>
		<path d="M174.999,186.461c0.019,1.062,0.693,1.504,1.486,1.504c0.566,0,0.918-0.1,1.206-0.226l0.144,0.567    c-0.279,0.126-0.766,0.279-1.458,0.279c-1.333,0-2.143-0.892-2.143-2.197c0-1.314,0.783-2.35,2.052-2.35    c1.423,0,1.792,1.252,1.792,2.053c0,0.162-0.009,0.279-0.026,0.369H174.999z M177.313,185.895c0.009-0.505-0.207-1.288-1.09-1.288    c-0.811,0-1.152,0.738-1.215,1.288H177.313z"/>
		<path d="M179.11,185.498c0-0.514-0.01-0.955-0.037-1.359h0.693l0.037,0.855h0.026c0.198-0.586,0.685-0.955,1.216-0.955    c0.08,0,0.144,0.01,0.216,0.018v0.748c-0.081-0.01-0.162-0.018-0.271-0.018c-0.559,0-0.954,0.422-1.062,1.008    c-0.018,0.117-0.027,0.243-0.027,0.369v2.332h-0.791V185.498z"/>
		<path d="M182.481,183.4c-0.287,0-0.477-0.226-0.477-0.486c0-0.279,0.198-0.495,0.495-0.495c0.288,0,0.486,0.216,0.486,0.495    c0,0.261-0.188,0.486-0.495,0.486H182.481z M182.104,188.496v-4.357h0.791v4.357H182.104z"/>
		<path d="M186.027,188.595c-1.171,0-2.089-0.864-2.089-2.241c0-1.459,0.963-2.314,2.161-2.314c1.251,0,2.098,0.91,2.098,2.232    c0,1.621-1.126,2.323-2.161,2.323H186.027z M186.063,188c0.756,0,1.323-0.711,1.323-1.701c0-0.738-0.369-1.666-1.306-1.666    c-0.927,0-1.332,0.865-1.332,1.693c0,0.954,0.54,1.674,1.305,1.674H186.063z"/>
		<path d="M189.253,185.498c0-0.514-0.009-0.955-0.035-1.359h0.693l0.035,0.855h0.027c0.198-0.586,0.684-0.955,1.215-0.955    c0.082,0,0.145,0.01,0.217,0.018v0.748c-0.081-0.01-0.162-0.018-0.271-0.018c-0.558,0-0.954,0.422-1.062,1.008    c-0.019,0.117-0.027,0.243-0.027,0.369v2.332h-0.793V185.498z"/>
		<path d="M192.626,183.4c-0.287,0-0.477-0.226-0.477-0.486c0-0.279,0.198-0.495,0.495-0.495c0.288,0,0.486,0.216,0.486,0.495    c0,0.261-0.188,0.486-0.495,0.486H192.626z M192.249,188.496v-4.357h0.791v4.357H192.249z"/>
		<path d="M195.344,183.094v1.045h1.134v0.604h-1.134v2.34c0,0.541,0.153,0.846,0.595,0.846c0.216,0,0.342-0.018,0.459-0.053    l0.035,0.603c-0.152,0.054-0.396,0.108-0.701,0.108c-0.369,0-0.666-0.127-0.855-0.334c-0.217-0.242-0.307-0.629-0.307-1.143    v-2.367h-0.675v-0.604h0.675v-0.802L195.344,183.094z"/>
		<path d="M197.935,184.139l0.945,2.574c0.107,0.288,0.216,0.631,0.288,0.892h0.019c0.08-0.261,0.17-0.595,0.278-0.909l0.864-2.557    h0.838l-1.189,3.105c-0.566,1.494-0.953,2.251-1.494,2.729c-0.396,0.332-0.773,0.468-0.973,0.504l-0.197-0.658    c0.197-0.062,0.459-0.188,0.693-0.387c0.216-0.171,0.477-0.477,0.666-0.882c0.036-0.081,0.062-0.144,0.062-0.189    c0-0.045-0.018-0.108-0.062-0.207l-1.603-4.015H197.935z"/>
	</g>
	<g>
		<path d="M260.284,51.795v3.601c0,1.351,0.604,1.927,1.414,1.927c0.891,0,1.477-0.594,1.477-1.927v-3.601h0.791v3.547    c0,1.864-0.98,2.62-2.295,2.62c-1.242,0-2.179-0.702-2.179-2.593v-3.574H260.284z"/>
		<path d="M265.165,56.909c0.352,0.216,0.855,0.387,1.395,0.387c0.802,0,1.27-0.414,1.27-1.026c0-0.567-0.324-0.9-1.143-1.207    c-0.99-0.342-1.604-0.864-1.604-1.71c0-0.945,0.784-1.647,1.963-1.647c0.613,0,1.072,0.144,1.333,0.288l-0.216,0.648    c-0.189-0.117-0.595-0.288-1.144-0.288c-0.829,0-1.144,0.495-1.144,0.909c0,0.559,0.369,0.837,1.207,1.162    c1.025,0.405,1.539,0.891,1.539,1.782c0,0.928-0.685,1.747-2.115,1.747c-0.586,0-1.225-0.18-1.549-0.396L265.165,56.909z"/>
		<path d="M275.309,57.224c0,1.008-0.207,1.611-0.621,1.999c-0.433,0.387-1.044,0.522-1.594,0.522c-0.522,0-1.099-0.126-1.449-0.36    l0.198-0.612c0.288,0.189,0.738,0.351,1.278,0.351c0.81,0,1.404-0.423,1.404-1.53v-0.477h-0.019    c-0.233,0.405-0.711,0.729-1.386,0.729c-1.081,0-1.854-0.918-1.854-2.134c0-1.476,0.963-2.305,1.971-2.305    c0.757,0,1.162,0.387,1.359,0.756h0.019l0.027-0.657h0.702c-0.027,0.306-0.036,0.667-0.036,1.188V57.224z M274.517,55.216    c0-0.126-0.01-0.243-0.045-0.351c-0.145-0.468-0.522-0.846-1.107-0.846c-0.756,0-1.297,0.639-1.297,1.657    c0,0.846,0.441,1.566,1.287,1.566c0.496,0,0.938-0.306,1.1-0.819c0.045-0.126,0.062-0.279,0.062-0.423V55.216z"/>
		<path d="M279.71,56.818c0,0.378,0.019,0.748,0.063,1.044h-0.711l-0.072-0.549h-0.026c-0.234,0.342-0.712,0.648-1.333,0.648    c-0.882,0-1.333-0.621-1.333-1.251c0-1.053,0.938-1.629,2.621-1.621V55c0-0.36-0.1-1.018-0.99-1.008    c-0.415,0-0.838,0.117-1.145,0.324l-0.18-0.531c0.36-0.225,0.891-0.378,1.44-0.378c1.341,0,1.665,0.91,1.665,1.783V56.818z     M278.937,55.639c-0.865-0.018-1.846,0.135-1.846,0.981c0,0.522,0.342,0.756,0.738,0.756c0.576,0,0.945-0.36,1.071-0.729    c0.026-0.081,0.036-0.171,0.036-0.252V55.639z"/>
		<path d="M281.368,52.767c-0.288,0-0.477-0.225-0.477-0.486c0-0.279,0.197-0.495,0.494-0.495c0.289,0,0.486,0.216,0.486,0.495    c0,0.261-0.188,0.486-0.494,0.486H281.368z M280.99,57.863v-4.357h0.792v4.357H280.99z"/>
		<path d="M283.108,54.685c0-0.459-0.009-0.819-0.035-1.18h0.701l0.046,0.711h0.018c0.216-0.405,0.72-0.811,1.44-0.811    c0.604,0,1.539,0.36,1.539,1.855v2.602h-0.791v-2.512c0-0.702-0.262-1.296-1.009-1.296c-0.513,0-0.919,0.369-1.062,0.81    c-0.036,0.099-0.054,0.243-0.054,0.369v2.629h-0.793V54.685z"/>
		<path d="M287.976,57.053c0.243,0.144,0.658,0.306,1.054,0.306c0.567,0,0.837-0.279,0.837-0.648c0-0.378-0.225-0.576-0.801-0.792    c-0.793-0.288-1.162-0.72-1.162-1.233c0-0.703,0.576-1.279,1.504-1.279c0.441,0,0.828,0.117,1.062,0.271l-0.189,0.567    c-0.171-0.099-0.486-0.252-0.891-0.252c-0.469,0-0.721,0.27-0.721,0.594c0,0.36,0.252,0.522,0.819,0.747    c0.747,0.279,1.144,0.657,1.144,1.306c0,0.774-0.604,1.314-1.621,1.314c-0.477,0-0.918-0.126-1.224-0.306L287.976,57.053z"/>
	</g>
	<g>
		<path d="M211.898,140.344h-1.845v-0.666h4.492v0.666h-1.855v5.402h-0.792V140.344z"/>
		<path d="M214.706,142.748c0-0.513-0.009-0.954-0.036-1.359h0.693l0.036,0.855h0.027c0.197-0.585,0.684-0.955,1.215-0.955    c0.081,0,0.145,0.009,0.216,0.018v0.748c-0.081-0.009-0.161-0.018-0.271-0.018c-0.558,0-0.953,0.423-1.062,1.008    c-0.019,0.117-0.027,0.243-0.027,0.369v2.332h-0.792V142.748z"/>
		<path d="M220.788,144.701c0,0.378,0.018,0.748,0.062,1.044h-0.711l-0.072-0.549h-0.026c-0.234,0.342-0.712,0.648-1.333,0.648    c-0.882,0-1.332-0.621-1.332-1.251c0-1.053,0.937-1.629,2.62-1.621v-0.09c0-0.36-0.099-1.018-0.99-1.008    c-0.415,0-0.837,0.117-1.144,0.324l-0.18-0.531c0.359-0.225,0.891-0.378,1.439-0.378c1.342,0,1.666,0.91,1.666,1.783V144.701z     M220.014,143.522c-0.864-0.018-1.845,0.135-1.845,0.981c0,0.522,0.342,0.756,0.738,0.756c0.576,0,0.945-0.36,1.07-0.729    c0.027-0.081,0.036-0.171,0.036-0.252V143.522z"/>
		<path d="M225.881,139.354v5.267c0,0.387,0.009,0.829,0.036,1.125h-0.711l-0.037-0.756h-0.018    c-0.242,0.486-0.766,0.855-1.477,0.855c-1.053,0-1.872-0.892-1.872-2.215c-0.009-1.458,0.899-2.341,1.954-2.341    c0.674,0,1.125,0.315,1.313,0.657h0.019v-2.593H225.881z M225.089,143.162c0-0.108-0.01-0.234-0.036-0.342    c-0.117-0.495-0.55-0.909-1.144-0.909c-0.819,0-1.305,0.72-1.305,1.674c0,0.891,0.44,1.621,1.287,1.621    c0.531,0,1.018-0.36,1.161-0.955c0.026-0.099,0.036-0.207,0.036-0.333V143.162z"/>
		<path d="M227.589,140.65c-0.289,0-0.478-0.225-0.478-0.486c0-0.279,0.198-0.495,0.495-0.495c0.288,0,0.486,0.216,0.486,0.495    c0,0.261-0.189,0.486-0.495,0.486H227.589z M227.21,145.746v-4.357h0.793v4.357H227.21z"/>
		<path d="M229.333,142.568c0-0.459-0.009-0.819-0.035-1.18h0.701l0.046,0.711h0.018c0.216-0.405,0.72-0.811,1.44-0.811    c0.604,0,1.539,0.36,1.539,1.855v2.602h-0.792v-2.512c0-0.702-0.261-1.296-1.009-1.296c-0.512,0-0.918,0.369-1.062,0.81    c-0.036,0.099-0.054,0.243-0.054,0.369v2.629h-0.793V142.568z"/>
		<path d="M238.109,145.106c0,1.008-0.207,1.611-0.621,1.999c-0.433,0.387-1.044,0.522-1.594,0.522c-0.522,0-1.099-0.126-1.449-0.36    l0.198-0.612c0.288,0.189,0.738,0.351,1.278,0.351c0.81,0,1.404-0.423,1.404-1.53v-0.477h-0.019    c-0.233,0.405-0.711,0.729-1.386,0.729c-1.081,0-1.854-0.918-1.854-2.134c0-1.476,0.963-2.305,1.971-2.305    c0.757,0,1.162,0.387,1.359,0.756h0.019l0.027-0.657h0.702c-0.027,0.306-0.036,0.667-0.036,1.188V145.106z M237.317,143.099    c0-0.126-0.01-0.243-0.045-0.351c-0.145-0.468-0.522-0.846-1.107-0.846c-0.756,0-1.297,0.639-1.297,1.657    c0,0.846,0.441,1.566,1.287,1.566c0.496,0,0.938-0.306,1.1-0.819c0.045-0.126,0.062-0.279,0.062-0.423V143.099z"/>
		<path d="M241.321,142.811c0-0.558-0.01-1.008-0.037-1.422h0.712l0.045,0.748h0.019c0.314-0.541,0.836-0.847,1.539-0.847    c1.062,0,1.854,0.892,1.854,2.215c0,1.566-0.964,2.341-1.981,2.341c-0.584,0-1.08-0.252-1.341-0.684h-0.019v2.368h-0.791V142.811z     M242.112,143.972c0,0.108,0.01,0.225,0.037,0.324c0.135,0.549,0.621,0.927,1.18,0.927c0.836,0,1.322-0.685,1.322-1.684    c0-0.874-0.449-1.621-1.287-1.621c-0.54,0-1.053,0.378-1.206,0.981c-0.019,0.099-0.046,0.216-0.046,0.315V143.972z"/>
		<path d="M249.602,144.701c0,0.378,0.019,0.748,0.063,1.044h-0.711l-0.072-0.549h-0.027c-0.234,0.342-0.711,0.648-1.332,0.648    c-0.883,0-1.333-0.621-1.333-1.251c0-1.053,0.937-1.629,2.62-1.621v-0.09c0-0.36-0.1-1.018-0.99-1.008    c-0.414,0-0.838,0.117-1.144,0.324l-0.181-0.531c0.361-0.225,0.893-0.378,1.441-0.378c1.341,0,1.665,0.91,1.665,1.783V144.701z     M248.827,143.522c-0.863-0.018-1.846,0.135-1.846,0.981c0,0.522,0.342,0.756,0.738,0.756c0.576,0,0.945-0.36,1.072-0.729    c0.026-0.081,0.035-0.171,0.035-0.252V143.522z"/>
		<path d="M250.887,142.748c0-0.513-0.009-0.954-0.036-1.359h0.693l0.036,0.855h0.026c0.199-0.585,0.685-0.955,1.216-0.955    c0.081,0,0.144,0.009,0.216,0.018v0.748c-0.08-0.009-0.162-0.018-0.27-0.018c-0.559,0-0.955,0.423-1.062,1.008    c-0.018,0.117-0.027,0.243-0.027,0.369v2.332h-0.792V142.748z"/>
		<path d="M255.071,140.344v1.044h1.135v0.604h-1.135v2.34c0,0.541,0.153,0.846,0.594,0.846c0.217,0,0.343-0.018,0.459-0.054    l0.037,0.603c-0.153,0.054-0.396,0.108-0.703,0.108c-0.369,0-0.666-0.126-0.854-0.333c-0.216-0.243-0.306-0.63-0.306-1.143v-2.368    h-0.676v-0.604h0.676v-0.801L255.071,140.344z"/>
		<path d="M257.118,142.568c0-0.459-0.01-0.819-0.037-1.18h0.703l0.045,0.711h0.018c0.217-0.405,0.721-0.811,1.44-0.811    c0.604,0,1.54,0.36,1.54,1.855v2.602h-0.793v-2.512c0-0.702-0.261-1.296-1.008-1.296c-0.514,0-0.918,0.369-1.062,0.81    c-0.036,0.099-0.055,0.243-0.055,0.369v2.629h-0.791V142.568z"/>
		<path d="M262.616,143.711c0.019,1.062,0.693,1.503,1.486,1.503c0.566,0,0.918-0.099,1.206-0.225l0.144,0.567    c-0.279,0.126-0.766,0.279-1.458,0.279c-1.333,0-2.143-0.891-2.143-2.196c0-1.314,0.783-2.35,2.052-2.35    c1.424,0,1.792,1.251,1.792,2.053c0,0.162-0.009,0.279-0.026,0.369H262.616z M264.931,143.144c0.009-0.504-0.207-1.288-1.09-1.288    c-0.811,0-1.152,0.738-1.215,1.288H264.931z"/>
		<path d="M266.729,142.748c0-0.513-0.01-0.954-0.036-1.359h0.693l0.036,0.855h0.027c0.197-0.585,0.684-0.955,1.215-0.955    c0.081,0,0.145,0.009,0.217,0.018v0.748c-0.082-0.009-0.162-0.018-0.271-0.018c-0.558,0-0.953,0.423-1.062,1.008    c-0.019,0.117-0.027,0.243-0.027,0.369v2.332h-0.792V142.748z"/>
		<path d="M275.308,145.106c0,1.008-0.207,1.611-0.621,1.999c-0.433,0.387-1.045,0.522-1.594,0.522c-0.522,0-1.099-0.126-1.449-0.36    l0.197-0.612c0.289,0.189,0.738,0.351,1.279,0.351c0.81,0,1.404-0.423,1.404-1.53v-0.477h-0.019    c-0.233,0.405-0.711,0.729-1.386,0.729c-1.081,0-1.855-0.918-1.855-2.134c0-1.476,0.963-2.305,1.972-2.305    c0.757,0,1.161,0.387,1.36,0.756h0.018l0.027-0.657h0.701c-0.027,0.306-0.035,0.667-0.035,1.188V145.106z M274.515,143.099    c0-0.126-0.009-0.243-0.045-0.351c-0.145-0.468-0.521-0.846-1.107-0.846c-0.756,0-1.296,0.639-1.296,1.657    c0,0.846,0.44,1.566,1.287,1.566c0.495,0,0.937-0.306,1.099-0.819c0.045-0.126,0.062-0.279,0.062-0.423V143.099z"/>
		<path d="M279.709,144.701c0,0.378,0.019,0.748,0.063,1.044h-0.711l-0.072-0.549h-0.027c-0.234,0.342-0.711,0.648-1.332,0.648    c-0.883,0-1.333-0.621-1.333-1.251c0-1.053,0.937-1.629,2.62-1.621v-0.09c0-0.36-0.1-1.018-0.99-1.008    c-0.414,0-0.838,0.117-1.144,0.324l-0.181-0.531c0.361-0.225,0.893-0.378,1.441-0.378c1.341,0,1.665,0.91,1.665,1.783V144.701z     M278.935,143.522c-0.863-0.018-1.846,0.135-1.846,0.981c0,0.522,0.342,0.756,0.738,0.756c0.576,0,0.945-0.36,1.072-0.729    c0.026-0.081,0.035-0.171,0.035-0.252V143.522z"/>
		<path d="M281.367,140.65c-0.288,0-0.478-0.225-0.478-0.486c0-0.279,0.199-0.495,0.496-0.495c0.287,0,0.486,0.216,0.486,0.495    c0,0.261-0.189,0.486-0.496,0.486H281.367z M280.989,145.746v-4.357h0.792v4.357H280.989z"/>
		<path d="M283.107,142.568c0-0.459-0.009-0.819-0.036-1.18h0.702l0.045,0.711h0.019c0.216-0.405,0.72-0.811,1.439-0.811    c0.604,0,1.54,0.36,1.54,1.855v2.602h-0.792v-2.512c0-0.702-0.262-1.296-1.008-1.296c-0.514,0-0.919,0.369-1.062,0.81    c-0.037,0.099-0.055,0.243-0.055,0.369v2.629h-0.792V142.568z"/>
		<path d="M287.976,144.936c0.242,0.144,0.656,0.306,1.053,0.306c0.566,0,0.838-0.279,0.838-0.648c0-0.378-0.226-0.576-0.802-0.792    c-0.792-0.288-1.161-0.72-1.161-1.233c0-0.703,0.576-1.279,1.503-1.279c0.441,0,0.828,0.117,1.062,0.271l-0.188,0.567    c-0.172-0.099-0.486-0.252-0.893-0.252c-0.467,0-0.72,0.27-0.72,0.594c0,0.36,0.253,0.522,0.819,0.747    c0.747,0.279,1.144,0.657,1.144,1.306c0,0.774-0.604,1.314-1.62,1.314c-0.478,0-0.919-0.126-1.225-0.306L287.976,144.936z"/>
	</g>
	<g>
		<path d="M0.504,124.42c-0.072-0.378-0.126-0.874-0.126-1.503c0-0.774,0.18-1.342,0.504-1.702c0.288-0.333,0.729-0.54,1.261-0.54    c0.549,0,0.981,0.162,1.296,0.477c0.441,0.414,0.666,1.089,0.666,1.854c0,0.234-0.009,0.45-0.054,0.63h2.44v0.783H0.504z     M3.412,123.637c0.045-0.171,0.063-0.387,0.063-0.648c0-0.945-0.459-1.521-1.287-1.521c-0.801,0-1.188,0.567-1.188,1.432    c0,0.342,0.027,0.603,0.063,0.738H3.412z"/>
		<path d="M3.493,119.702c-0.513,0-0.954,0.009-1.359,0.036v-0.693l0.855-0.036v-0.027c-0.585-0.198-0.955-0.684-0.955-1.215    c0-0.081,0.009-0.144,0.018-0.216H2.8c-0.009,0.081-0.018,0.162-0.018,0.271c0,0.558,0.423,0.954,1.008,1.062    c0.117,0.018,0.243,0.027,0.369,0.027h2.332v0.792H3.493z"/>
		<path d="M0.243,115.002c0.892,0.657,2.053,1.125,3.691,1.125c1.603,0,2.746-0.495,3.646-1.125v0.612    c-0.747,0.567-1.899,1.179-3.655,1.179c-1.764-0.009-2.926-0.612-3.682-1.179V115.002z"/>
		<path d="M5.681,114.422c0.144-0.243,0.306-0.657,0.306-1.053c0-0.567-0.279-0.837-0.648-0.837c-0.378,0-0.576,0.225-0.792,0.801    c-0.288,0.792-0.72,1.162-1.233,1.162c-0.703,0-1.279-0.576-1.279-1.503c0-0.441,0.117-0.829,0.271-1.062l0.567,0.189    c-0.099,0.171-0.252,0.486-0.252,0.892c0,0.468,0.27,0.72,0.594,0.72c0.36,0,0.522-0.252,0.747-0.819    c0.279-0.748,0.657-1.144,1.306-1.144c0.774,0,1.314,0.604,1.314,1.621c0,0.477-0.126,0.918-0.306,1.225L5.681,114.422z"/>
		<path d="M1.089,109.693h1.044v-1.134h0.604v1.134h2.34c0.541,0,0.846-0.153,0.846-0.594c0-0.216-0.018-0.342-0.054-0.459    l0.603-0.036c0.054,0.153,0.108,0.396,0.108,0.702c0,0.369-0.126,0.666-0.333,0.855c-0.243,0.216-0.63,0.306-1.143,0.306H2.737    v0.675H2.133v-0.675H1.332L1.089,109.693z"/>
		<path d="M6.59,105.934c0,1.17-0.864,2.088-2.242,2.088c-1.458,0-2.314-0.963-2.314-2.161c0-1.251,0.91-2.098,2.233-2.098    c1.621,0,2.323,1.125,2.323,2.161V105.934z M5.996,105.897c0-0.756-0.711-1.323-1.702-1.323c-0.738,0-1.666,0.369-1.666,1.305    c0,0.927,0.864,1.333,1.693,1.333c0.954,0,1.674-0.54,1.674-1.305V105.897z"/>
		<path d="M3.313,102.708c-0.459,0-0.819,0.009-1.18,0.036v-0.702l0.711-0.045v-0.018c-0.405-0.216-0.811-0.72-0.811-1.44    c0-0.604,0.36-1.54,1.855-1.54h2.602v0.792H3.979c-0.702,0-1.296,0.261-1.296,1.008c0,0.513,0.369,0.918,0.81,1.062    c0.099,0.036,0.243,0.054,0.369,0.054h2.629v0.792H3.313z"/>
		<path d="M5.852,93.928c1.008,0,1.611,0.207,1.999,0.621c0.387,0.432,0.522,1.044,0.522,1.594c0,0.522-0.126,1.098-0.36,1.449    L7.4,97.393c0.189-0.288,0.351-0.738,0.351-1.278c0-0.81-0.423-1.404-1.53-1.404H5.744v0.018c0.405,0.234,0.729,0.711,0.729,1.386    c0,1.081-0.918,1.854-2.134,1.854c-1.476,0-2.305-0.963-2.305-1.971c0-0.756,0.387-1.162,0.756-1.36v-0.018l-0.657-0.027v-0.702    c0.306,0.027,0.667,0.036,1.188,0.036H5.852z M3.844,94.719c-0.126,0-0.243,0.009-0.351,0.045    c-0.468,0.144-0.846,0.522-0.846,1.107c0,0.756,0.639,1.296,1.657,1.296c0.846,0,1.566-0.441,1.566-1.287    c0-0.495-0.306-0.937-0.819-1.098c-0.126-0.045-0.279-0.063-0.423-0.063H3.844z"/>
		<path d="M0.099,92.602V91.81h6.392v0.792H0.099z"/>
		<path d="M2.133,90.125l2.575-0.945c0.288-0.108,0.63-0.216,0.892-0.288v-0.018c-0.261-0.081-0.594-0.171-0.909-0.279L2.133,87.73    v-0.837l3.106,1.188c1.495,0.567,2.251,0.954,2.728,1.494c0.333,0.396,0.468,0.774,0.504,0.973l-0.657,0.198    c-0.063-0.198-0.189-0.459-0.387-0.693c-0.171-0.216-0.477-0.478-0.882-0.667c-0.081-0.036-0.144-0.063-0.189-0.063    c-0.045,0-0.108,0.018-0.207,0.063l-4.015,1.603V90.125z"/>
		<path d="M6.491,84.195H2.737v0.603H2.133v-0.603H1.926c-0.612,0-1.17-0.144-1.521-0.513C0.117,83.384,0,82.988,0,82.628    c0-0.288,0.063-0.522,0.126-0.675l0.612,0.099c-0.054,0.126-0.099,0.279-0.099,0.513c0,0.667,0.594,0.846,1.26,0.846h0.234v-1.053    h0.604v1.044h3.754V84.195z"/>
		<path d="M5.446,78.465c0.378,0,0.748-0.018,1.044-0.063v0.711l-0.549,0.072v0.027c0.342,0.234,0.648,0.711,0.648,1.333    c0,0.882-0.621,1.333-1.251,1.333c-1.053,0-1.629-0.937-1.621-2.62h-0.09c-0.36,0-1.018,0.099-1.008,0.991    c0,0.414,0.117,0.837,0.324,1.143l-0.531,0.18c-0.225-0.36-0.378-0.892-0.378-1.44c0-1.341,0.91-1.666,1.783-1.666H5.446z     M4.267,79.239c-0.018,0.864,0.135,1.846,0.981,1.846c0.522,0,0.756-0.342,0.756-0.738c0-0.576-0.36-0.945-0.729-1.071    c-0.081-0.027-0.171-0.036-0.252-0.036H4.267z"/>
		<path d="M2.133,76.989l2.44-0.855c0.405-0.144,0.765-0.261,1.125-0.351v-0.027c-0.36-0.099-0.72-0.225-1.125-0.369l-2.44-0.846    v-0.828l4.357,1.71v0.756l-4.357,1.656V76.989z"/>
		<path d="M6.59,71.244c0,1.17-0.864,2.088-2.242,2.088c-1.458,0-2.314-0.963-2.314-2.161c0-1.251,0.91-2.098,2.233-2.098    c1.621,0,2.323,1.125,2.323,2.161V71.244z M5.996,71.208c0-0.756-0.711-1.323-1.702-1.323c-0.738,0-1.666,0.369-1.666,1.305    c0,0.927,0.864,1.333,1.693,1.333c0.954,0,1.674-0.54,1.674-1.305V71.208z"/>
		<path d="M3.493,68.018c-0.513,0-0.954,0.009-1.359,0.036v-0.693l0.855-0.036v-0.027c-0.585-0.198-0.955-0.684-0.955-1.215    c0-0.081,0.009-0.144,0.018-0.216H2.8c-0.009,0.081-0.018,0.162-0.018,0.271c0,0.558,0.423,0.954,1.008,1.062    c0.117,0.018,0.243,0.027,0.369,0.027h2.332v0.792H3.493z"/>
		<path d="M1.089,62.213h1.044v-1.134h0.604v1.134h2.34c0.541,0,0.846-0.153,0.846-0.594c0-0.216-0.018-0.342-0.054-0.459    l0.603-0.036c0.054,0.153,0.108,0.396,0.108,0.702c0,0.369-0.126,0.666-0.333,0.855c-0.243,0.216-0.63,0.306-1.143,0.306H2.737    v0.675H2.133v-0.675H1.332L1.089,62.213z"/>
		<path d="M3.493,60.167c-0.513,0-0.954,0.009-1.359,0.036v-0.693l0.855-0.036v-0.027c-0.585-0.198-0.955-0.684-0.955-1.215    c0-0.081,0.009-0.144,0.018-0.216H2.8c-0.009,0.081-0.018,0.162-0.018,0.271c0,0.558,0.423,0.954,1.008,1.062    c0.117,0.018,0.243,0.027,0.369,0.027h2.332v0.792H3.493z"/>
		<path d="M5.446,54.084c0.378,0,0.748-0.018,1.044-0.063v0.711l-0.549,0.072v0.027c0.342,0.234,0.648,0.711,0.648,1.333    c0,0.882-0.621,1.333-1.251,1.333c-1.053,0-1.629-0.937-1.621-2.62h-0.09c-0.36,0-1.018,0.099-1.008,0.991    c0,0.414,0.117,0.837,0.324,1.143l-0.531,0.18c-0.225-0.36-0.378-0.892-0.378-1.44c0-1.341,0.91-1.666,1.783-1.666H5.446z     M4.267,54.858c-0.018,0.864,0.135,1.846,0.981,1.846c0.522,0,0.756-0.342,0.756-0.738c0-0.576-0.36-0.945-0.729-1.071    c-0.081-0.027-0.171-0.036-0.252-0.036H4.267z"/>
		<path d="M0.099,48.992h5.267c0.387,0,0.829-0.009,1.125-0.036v0.711l-0.756,0.036v0.018c0.486,0.243,0.855,0.765,0.855,1.476    c0,1.054-0.892,1.873-2.215,1.873c-1.458,0.009-2.341-0.9-2.341-1.954c0-0.675,0.315-1.125,0.657-1.314v-0.018H0.099V48.992z     M3.907,49.785c-0.108,0-0.234,0.009-0.342,0.036c-0.495,0.117-0.909,0.549-0.909,1.144c0,0.819,0.72,1.305,1.674,1.305    c0.891,0,1.621-0.441,1.621-1.287c0-0.531-0.36-1.018-0.955-1.162c-0.099-0.027-0.207-0.036-0.333-0.036H3.907z"/>
		<path d="M4.456,47.168c1.062-0.018,1.503-0.693,1.503-1.485c0-0.567-0.099-0.918-0.225-1.206l0.567-0.144    c0.126,0.279,0.279,0.766,0.279,1.458c0,1.333-0.891,2.143-2.196,2.143c-1.314,0-2.35-0.783-2.35-2.052    c0-1.422,1.251-1.791,2.053-1.791c0.162,0,0.279,0.009,0.369,0.027V47.168z M3.889,44.855c-0.504-0.009-1.288,0.207-1.288,1.089    c0,0.81,0.738,1.152,1.288,1.215V44.855z"/>
		<path d="M7.58,43.782c-0.891-0.63-2.053-1.125-3.673-1.125c-1.62,0-2.764,0.486-3.664,1.125V43.17    c0.738-0.567,1.9-1.18,3.664-1.18C5.671,42,6.815,42.603,7.58,43.17V43.782z"/>
	</g>
	<g>
		<path d="M207.886,178.192c0.199,0.12,0.655,0.319,1.151,0.319c0.896,0,1.183-0.567,1.175-1.008    c-0.008-0.727-0.663-1.039-1.343-1.039h-0.392v-0.527h0.392c0.512,0,1.159-0.264,1.159-0.88c0-0.415-0.264-0.783-0.911-0.783    c-0.416,0-0.815,0.184-1.04,0.344l-0.191-0.512c0.279-0.2,0.808-0.399,1.367-0.399c1.023,0,1.487,0.607,1.487,1.238    c0,0.545-0.328,1-0.96,1.232v0.016c0.641,0.119,1.16,0.6,1.16,1.327c0,0.831-0.656,1.56-1.896,1.56    c-0.583,0-1.095-0.185-1.351-0.352L207.886,178.192z"/>
	</g>
	<g>
		<path d="M297.703,178.992v-1.424h-2.415v-0.455l2.318-3.318h0.76v3.23h0.729v0.543h-0.729v1.424H297.703z M297.703,177.025v-1.736    c0-0.271,0.008-0.543,0.024-0.814h-0.024c-0.16,0.303-0.288,0.527-0.432,0.768L296,177.009v0.017H297.703z"/>
	</g>
	<line fill="none" stroke="#000000" stroke-width="0.5" stroke-miterlimit="10" x1="28.755" y1="3.772" x2="24.755" y2="3.772"/>
	<line fill="none" stroke="#000000" stroke-width="0.5" stroke-miterlimit="10" x1="28.755" y1="56.435" x2="24.755" y2="56.435"/>
	
		<line fill="none" stroke="#000000" stroke-width="0.5" stroke-miterlimit="10" x1="28.755" y1="109.097" x2="24.755" y2="109.097"/>
	<line fill="none" stroke="#000000" stroke-width="0.5" stroke-miterlimit="10" x1="28.755" y1="161.76" x2="24.755" y2="161.76"/>
	<line fill="none" stroke="#000000" stroke-width="0.5" stroke-miterlimit="10" x1="33.793" y1="166.5" x2="33.793" y2="170.5"/>
	<line fill="none" stroke="#000000" stroke-width="0.5" stroke-miterlimit="10" x1="121.604" y1="166.5" x2="121.604" y2="170.5"/>
	<line fill="none" stroke="#000000" stroke-width="0.5" stroke-miterlimit="10" x1="209.415" y1="166.5" x2="209.415" y2="170.5"/>
	<line fill="none" stroke="#000000" stroke-width="0.5" stroke-miterlimit="10" x1="297.226" y1="166.5" x2="297.226" y2="170.5"/>
	<polyline fill="none" stroke="#000000" stroke-width="0.5" stroke-miterlimit="10" points="28.755,0 28.755,166.5 301.995,166.5     "/>
	<rect x="32.043" y="127.26" stroke="#000000" stroke-width="0.35" stroke-miterlimit="10" width="3.5" height="3.5"/>
	<rect x="75.949" y="119.604" stroke="#000000" stroke-width="0.35" stroke-miterlimit="10" width="3.5" height="3.5"/>
	<rect x="119.854" y="110.706" stroke="#000000" stroke-width="0.35" stroke-miterlimit="10" width="3.5" height="3.5"/>
	<rect x="163.76" y="99.19" stroke="#000000" stroke-width="0.35" stroke-miterlimit="10" width="3.5" height="3.5"/>
	<rect x="207.666" y="86.594" stroke="#000000" stroke-width="0.35" stroke-miterlimit="10" width="3.5" height="3.5"/>
	<rect x="251.57" y="72.918" stroke="#000000" stroke-width="0.35" stroke-miterlimit="10" width="3.5" height="3.5"/>
	<rect x="295.476" y="57.853" stroke="#000000" stroke-width="0.35" stroke-miterlimit="10" width="3.5" height="3.5"/>
	<polyline fill="none" stroke="#000000" stroke-linejoin="round" stroke-miterlimit="10" points="33.793,129.01 77.699,121.354    121.604,112.456 165.51,100.94 209.416,88.344 253.32,74.668 297.226,59.603  "/>
	<polygon fill="#BCBEC0" stroke="#000000" stroke-width="0.35" stroke-miterlimit="10" points="31.772,142.326 33.793,138.826    35.814,142.326  "/>
	<polygon fill="#BCBEC0" stroke="#000000" stroke-width="0.35" stroke-miterlimit="10" points="75.678,145.75 77.699,142.25    79.72,145.75  "/>
	<polygon fill="#BCBEC0" stroke="#000000" stroke-width="0.35" stroke-miterlimit="10" points="119.583,149.25 121.604,145.75    123.625,149.25  "/>
	<polygon fill="#BCBEC0" stroke="#000000" stroke-width="0.35" stroke-miterlimit="10" points="163.354,151 165.375,147.5    167.396,151  "/>
	<polygon fill="#BCBEC0" stroke="#000000" stroke-width="0.35" stroke-miterlimit="10" points="207.396,153.75 209.416,150.25    211.437,153.75  "/>
	<polygon fill="#BCBEC0" stroke="#000000" stroke-width="0.35" stroke-miterlimit="10" points="251.3,155.5 253.32,152    255.341,155.5  "/>
	<polygon fill="#BCBEC0" stroke="#000000" stroke-width="0.35" stroke-miterlimit="10" points="294.456,156.5 296.477,153    298.497,156.5  "/>
</g>
</svg>