<svg xmlns="http://www.w3.org/2000/svg" xmlns:xlink="http://www.w3.org/1999/xlink" version="1.1" x="0px" y="0px" width="255.442px" height="118.74px" viewBox="0 0 255.442 118.74" enable-background="new 0 0 255.442 118.74" xml:space="preserve">
<g id="wide" display="none">
</g>
<g id="text_column">
</g>
<g id="art">
	
		<line fill="none" stroke="#A7A9AC" stroke-width="0.5" stroke-linejoin="round" stroke-miterlimit="10" x1="14.182" y1="2.935" x2="253.573" y2="2.935"/>
	
		<line fill="none" stroke="#A7A9AC" stroke-width="0.5" stroke-linejoin="round" stroke-miterlimit="10" x1="14.182" y1="17.936" x2="253.573" y2="17.936"/>
	
		<line fill="none" stroke="#A7A9AC" stroke-width="0.5" stroke-linejoin="round" stroke-miterlimit="10" x1="14.182" y1="92.941" x2="253.573" y2="92.941"/>
	<rect x="178.072" y="5.945" fill="#FFFFFF" width="77.001" height="25.359"/>
	<g>
		<path d="M0.24,4.485c0.2,0.12,0.655,0.32,1.151,0.32c0.896,0,1.183-0.568,1.175-1.008C2.559,3.07,1.903,2.759,1.224,2.759H0.832    V2.23h0.392c0.512,0,1.159-0.264,1.159-0.879c0-0.416-0.264-0.784-0.911-0.784c-0.416,0-0.816,0.185-1.04,0.344L0.24,0.399    C0.52,0.2,1.048,0,1.607,0c1.023,0,1.487,0.607,1.487,1.239c0,0.544-0.328,1-0.959,1.231v0.016c0.64,0.12,1.159,0.6,1.159,1.328    c0,0.831-0.656,1.559-1.895,1.559c-0.583,0-1.095-0.184-1.351-0.352L0.24,4.485z"/>
		<path d="M4.696,5.373c-0.272,0-0.463-0.216-0.463-0.504c0-0.287,0.2-0.504,0.479-0.504s0.472,0.208,0.472,0.504    c0,0.288-0.192,0.504-0.479,0.504H4.696z"/>
		<path d="M8.934,0.68H6.951l-0.2,1.335c0.12-0.016,0.232-0.031,0.424-0.031c0.408,0,0.799,0.088,1.119,0.279    c0.408,0.224,0.744,0.68,0.744,1.335c0,1.016-0.808,1.775-1.935,1.775c-0.568,0-1.04-0.16-1.295-0.319l0.176-0.536    c0.216,0.128,0.64,0.288,1.12,0.288c0.655,0,1.231-0.432,1.223-1.136c0-0.663-0.456-1.144-1.487-1.144    c-0.304,0-0.536,0.024-0.728,0.057l0.336-2.495h2.486V0.68z"/>
		<path d="M0.24,19.485c0.2,0.12,0.655,0.32,1.151,0.32c0.896,0,1.183-0.568,1.175-1.008c-0.008-0.728-0.664-1.039-1.343-1.039    H0.832V17.23h0.392c0.512,0,1.159-0.264,1.159-0.879c0-0.416-0.264-0.784-0.911-0.784c-0.416,0-0.816,0.185-1.04,0.344    L0.24,15.399C0.52,15.2,1.048,15,1.607,15c1.023,0,1.487,0.607,1.487,1.239c0,0.544-0.328,1-0.959,1.231v0.016    c0.64,0.12,1.159,0.6,1.159,1.328c0,0.831-0.656,1.559-1.895,1.559c-0.583,0-1.095-0.184-1.351-0.352L0.24,19.485z"/>
		<path d="M4.696,20.373c-0.272,0-0.463-0.216-0.463-0.504c0-0.287,0.2-0.504,0.479-0.504s0.472,0.208,0.472,0.504    c0,0.288-0.192,0.504-0.479,0.504H4.696z"/>
		<path d="M7.487,20.373c-1.016,0-1.711-0.951-1.728-2.671C5.76,15.951,6.52,15,7.575,15c1.087,0,1.719,0.976,1.719,2.631    c0,1.767-0.664,2.742-1.799,2.742H7.487z M7.527,19.829c0.712,0,1.056-0.839,1.056-2.167c0-1.279-0.32-2.118-1.056-2.118    c-0.64,0-1.055,0.815-1.055,2.118c-0.016,1.352,0.4,2.167,1.047,2.167H7.527z"/>
		<path d="M0.072,35.285v-0.432l0.552-0.536c1.327-1.263,1.935-1.935,1.935-2.718c0-0.528-0.248-1.016-1.023-1.016    c-0.472,0-0.863,0.239-1.103,0.439l-0.224-0.496C0.56,30.232,1.08,30,1.679,30c1.111,0,1.583,0.768,1.583,1.512    c0,0.959-0.696,1.734-1.791,2.79l-0.408,0.384v0.016h2.327v0.584H0.072z"/>
		<path d="M4.696,35.373c-0.272,0-0.463-0.216-0.463-0.504c0-0.287,0.2-0.504,0.479-0.504s0.472,0.208,0.472,0.504    c0,0.288-0.192,0.504-0.479,0.504H4.696z"/>
		<path d="M8.934,30.68H6.951l-0.2,1.335c0.12-0.016,0.232-0.031,0.424-0.031c0.408,0,0.799,0.088,1.119,0.279    c0.408,0.224,0.744,0.68,0.744,1.335c0,1.016-0.808,1.775-1.935,1.775c-0.568,0-1.04-0.16-1.295-0.319l0.176-0.536    c0.216,0.128,0.64,0.288,1.12,0.288c0.655,0,1.231-0.432,1.223-1.136c0-0.663-0.456-1.144-1.487-1.144    c-0.304,0-0.536,0.024-0.728,0.057l0.336-2.495h2.486V30.68z"/>
		<path d="M0.072,50.285v-0.432l0.552-0.536c1.327-1.263,1.935-1.935,1.935-2.718c0-0.528-0.248-1.016-1.023-1.016    c-0.472,0-0.863,0.239-1.103,0.439l-0.224-0.496C0.56,45.232,1.08,45,1.679,45c1.111,0,1.583,0.768,1.583,1.512    c0,0.959-0.696,1.734-1.791,2.79l-0.408,0.384v0.016h2.327v0.584H0.072z"/>
		<path d="M4.696,50.373c-0.272,0-0.463-0.216-0.463-0.504c0-0.287,0.2-0.504,0.479-0.504s0.472,0.208,0.472,0.504    c0,0.288-0.192,0.504-0.479,0.504H4.696z"/>
		<path d="M7.487,50.373c-1.016,0-1.711-0.951-1.728-2.671C5.76,45.951,6.52,45,7.575,45c1.087,0,1.719,0.976,1.719,2.631    c0,1.767-0.664,2.742-1.799,2.742H7.487z M7.527,49.829c0.712,0,1.056-0.839,1.056-2.167c0-1.279-0.32-2.118-1.056-2.118    c-0.64,0-1.055,0.815-1.055,2.118c-0.016,1.352,0.4,2.167,1.047,2.167H7.527z"/>
		<path d="M1.6,60.744H1.583L0.68,61.231l-0.136-0.536l1.135-0.607h0.6v5.197H1.6V60.744z"/>
		<path d="M4.696,65.373c-0.272,0-0.463-0.216-0.463-0.504c0-0.287,0.2-0.504,0.479-0.504s0.472,0.208,0.472,0.504    c0,0.288-0.192,0.504-0.479,0.504H4.696z"/>
		<path d="M8.934,60.68H6.951l-0.2,1.335c0.12-0.016,0.232-0.031,0.424-0.031c0.408,0,0.799,0.088,1.119,0.279    c0.408,0.224,0.744,0.68,0.744,1.335c0,1.016-0.808,1.775-1.935,1.775c-0.568,0-1.04-0.16-1.295-0.319l0.176-0.536    c0.216,0.128,0.64,0.288,1.12,0.288c0.655,0,1.231-0.432,1.223-1.136c0-0.663-0.456-1.144-1.487-1.144    c-0.304,0-0.536,0.024-0.728,0.057l0.336-2.495h2.486V60.68z"/>
		<path d="M1.6,75.744H1.583L0.68,76.231l-0.136-0.536l1.135-0.607h0.6v5.197H1.6V75.744z"/>
		<path d="M4.696,80.373c-0.272,0-0.463-0.216-0.463-0.504c0-0.287,0.2-0.504,0.479-0.504s0.472,0.208,0.472,0.504    c0,0.288-0.192,0.504-0.479,0.504H4.696z"/>
		<path d="M7.487,80.373c-1.016,0-1.711-0.951-1.728-2.671C5.76,75.951,6.52,75,7.575,75c1.087,0,1.719,0.976,1.719,2.631    c0,1.767-0.664,2.742-1.799,2.742H7.487z M7.527,79.829c0.712,0,1.056-0.839,1.056-2.167c0-1.279-0.32-2.118-1.056-2.118    c-0.64,0-1.055,0.815-1.055,2.118c-0.016,1.352,0.4,2.167,1.047,2.167H7.527z"/>
		<path d="M1.728,95.373c-1.016,0-1.711-0.951-1.728-2.671C0,90.951,0.76,90,1.815,90c1.087,0,1.719,0.976,1.719,2.631    c0,1.767-0.664,2.742-1.799,2.742H1.728z M1.767,94.829c0.712,0,1.056-0.839,1.056-2.167c0-1.279-0.32-2.118-1.056-2.118    c-0.64,0-1.055,0.815-1.055,2.118c-0.016,1.352,0.4,2.167,1.047,2.167H1.767z"/>
		<path d="M4.696,95.373c-0.272,0-0.463-0.216-0.463-0.504c0-0.287,0.2-0.504,0.479-0.504s0.472,0.208,0.472,0.504    c0,0.288-0.192,0.504-0.479,0.504H4.696z"/>
		<path d="M8.934,90.68H6.951l-0.2,1.335c0.12-0.016,0.232-0.031,0.424-0.031c0.408,0,0.799,0.088,1.119,0.279    c0.408,0.224,0.744,0.68,0.744,1.335c0,1.016-0.808,1.775-1.935,1.775c-0.568,0-1.04-0.16-1.295-0.319l0.176-0.536    c0.216,0.128,0.64,0.288,1.12,0.288c0.655,0,1.231-0.432,1.223-1.136c0-0.663-0.456-1.144-1.487-1.144    c-0.304,0-0.536,0.024-0.728,0.057l0.336-2.495h2.486V90.68z"/>
		<path d="M1.728,110.373c-1.016,0-1.711-0.951-1.728-2.671C0,105.951,0.76,105,1.815,105c1.087,0,1.719,0.976,1.719,2.631    c0,1.767-0.664,2.742-1.799,2.742H1.728z M1.767,109.829c0.712,0,1.056-0.839,1.056-2.167c0-1.279-0.32-2.118-1.056-2.118    c-0.64,0-1.055,0.815-1.055,2.118c-0.016,1.352,0.4,2.167,1.047,2.167H1.767z"/>
		<path d="M4.696,110.373c-0.272,0-0.463-0.216-0.463-0.504c0-0.287,0.2-0.504,0.479-0.504s0.472,0.208,0.472,0.504    c0,0.288-0.192,0.504-0.479,0.504H4.696z"/>
		<path d="M7.487,110.373c-1.016,0-1.711-0.951-1.728-2.671c0-1.751,0.76-2.702,1.815-2.702c1.087,0,1.719,0.976,1.719,2.631    c0,1.767-0.664,2.742-1.799,2.742H7.487z M7.527,109.829c0.712,0,1.056-0.839,1.056-2.167c0-1.279-0.32-2.118-1.056-2.118    c-0.64,0-1.055,0.815-1.055,2.118c-0.016,1.352,0.4,2.167,1.047,2.167H7.527z"/>
	</g>
	
		<line fill="none" stroke="#A7A9AC" stroke-width="0.5" stroke-linejoin="round" stroke-miterlimit="10" x1="14.182" y1="32.937" x2="253.573" y2="32.937"/>
	
		<line fill="none" stroke="#A7A9AC" stroke-width="0.5" stroke-linejoin="round" stroke-miterlimit="10" x1="14.182" y1="62.939" x2="253.573" y2="62.939"/>
	
		<line fill="none" stroke="#A7A9AC" stroke-width="0.5" stroke-linejoin="round" stroke-miterlimit="10" x1="14.182" y1="77.94" x2="253.573" y2="77.94"/>
	
		<line fill="none" stroke="#A7A9AC" stroke-width="0.5" stroke-linejoin="round" stroke-miterlimit="10" x1="14.182" y1="47.938" x2="253.573" y2="47.938"/>
	
		<line fill="none" stroke="#000000" stroke-width="0.5" stroke-linejoin="round" stroke-miterlimit="10" x1="14.182" y1="107.84" x2="253.573" y2="107.84"/>
	
		<line fill="none" stroke="#000000" stroke-width="0.5" stroke-linejoin="round" stroke-miterlimit="10" x1="14.157" y1="107.934" x2="14.157" y2="2.994"/>
	<g>
		<path d="M34.912,116.981c-0.248,0.128-0.768,0.256-1.423,0.256c-1.519,0-2.654-0.959-2.654-2.727c0-1.687,1.143-2.823,2.814-2.823    c0.664,0,1.095,0.144,1.279,0.232l-0.176,0.576c-0.256-0.128-0.631-0.224-1.079-0.224c-1.263,0-2.103,0.808-2.103,2.215    c0,1.319,0.76,2.159,2.062,2.159c0.432,0,0.863-0.088,1.143-0.224L34.912,116.981z"/>
		<path d="M35.77,111.48h0.704v2.415h0.016c0.112-0.2,0.288-0.384,0.504-0.496c0.208-0.128,0.456-0.2,0.719-0.2    c0.52,0,1.352,0.32,1.352,1.655v2.303H38.36v-2.231c0-0.624-0.232-1.143-0.896-1.143c-0.456,0-0.808,0.32-0.943,0.704    c-0.04,0.096-0.048,0.2-0.048,0.336v2.334H35.77V111.48z"/>
		<path d="M40.546,112.632c-0.256,0-0.424-0.2-0.424-0.432c0-0.248,0.176-0.439,0.44-0.439c0.256,0,0.432,0.192,0.432,0.439    c0,0.232-0.168,0.432-0.439,0.432H40.546z M40.21,117.157v-3.87h0.704v3.87H40.21z"/>
		<path d="M42.082,114.335c0-0.408-0.008-0.728-0.032-1.047h0.624l0.04,0.631h0.016c0.192-0.36,0.64-0.72,1.279-0.72    c0.536,0,1.367,0.32,1.367,1.647v2.311h-0.704v-2.231c0-0.624-0.232-1.151-0.896-1.151c-0.456,0-0.815,0.328-0.943,0.72    c-0.032,0.088-0.048,0.216-0.048,0.328v2.334h-0.704V114.335z"/>
		<path d="M46.921,115.35c0.016,0.943,0.616,1.335,1.319,1.335c0.504,0,0.815-0.088,1.071-0.2l0.128,0.503    c-0.248,0.112-0.68,0.248-1.295,0.248c-1.184,0-1.903-0.792-1.903-1.951c0-1.167,0.696-2.087,1.823-2.087    c1.263,0,1.591,1.112,1.591,1.823c0,0.144-0.008,0.248-0.024,0.328H46.921z M48.976,114.847c0.008-0.448-0.184-1.144-0.967-1.144    c-0.72,0-1.023,0.656-1.08,1.144H48.976z"/>
		<path d="M50.434,116.438c0.216,0.128,0.583,0.272,0.936,0.272c0.503,0,0.744-0.248,0.744-0.576c0-0.336-0.2-0.512-0.712-0.704    c-0.704-0.256-1.031-0.64-1.031-1.095c0-0.624,0.512-1.136,1.335-1.136c0.392,0,0.736,0.104,0.944,0.24l-0.168,0.503    c-0.152-0.088-0.432-0.224-0.792-0.224c-0.416,0-0.64,0.24-0.64,0.527c0,0.32,0.224,0.464,0.728,0.664    c0.664,0.248,1.016,0.583,1.016,1.159c0,0.688-0.536,1.167-1.439,1.167c-0.424,0-0.815-0.112-1.087-0.272L50.434,116.438z"/>
		<path d="M54.097,115.35c0.016,0.943,0.616,1.335,1.319,1.335c0.504,0,0.815-0.088,1.071-0.2l0.128,0.503    c-0.248,0.112-0.68,0.248-1.295,0.248c-1.184,0-1.903-0.792-1.903-1.951c0-1.167,0.696-2.087,1.823-2.087    c1.263,0,1.591,1.112,1.591,1.823c0,0.144-0.008,0.248-0.024,0.328H54.097z M56.152,114.847c0.008-0.448-0.184-1.144-0.967-1.144    c-0.72,0-1.023,0.656-1.08,1.144H56.152z"/>
	</g>
	
		<rect x="180.726" y="9.655" fill="#D1D3D4" stroke="#000000" stroke-width="0.5" stroke-linejoin="round" stroke-miterlimit="10" width="6" height="5.999"/>
	<g>
		<path d="M191.427,14.829l-1.367-5.389h0.735l0.64,2.727c0.16,0.68,0.304,1.343,0.399,1.863h0.017    c0.088-0.536,0.256-1.175,0.439-1.871l0.72-2.719h0.728l0.655,2.735c0.152,0.647,0.297,1.279,0.377,1.847h0.016    c0.111-0.592,0.264-1.191,0.432-1.863l0.711-2.719h0.712l-1.526,5.389h-0.729l-0.68-2.798c-0.168-0.696-0.279-1.224-0.352-1.767    h-0.016c-0.088,0.543-0.217,1.063-0.416,1.759l-0.768,2.807H191.427z"/>
		<path d="M198.867,14.917c-1.04,0-1.854-0.768-1.854-1.991c0-1.295,0.855-2.055,1.918-2.055c1.111,0,1.863,0.808,1.863,1.983    c0,1.439-0.999,2.063-1.918,2.063H198.867z M198.899,14.389c0.672,0,1.176-0.631,1.176-1.511c0-0.655-0.328-1.479-1.16-1.479    c-0.823,0-1.184,0.768-1.184,1.503c0,0.847,0.48,1.487,1.16,1.487H198.899z"/>
		<path d="M201.683,12.006c0-0.408-0.016-0.728-0.032-1.048h0.616l0.032,0.624h0.023c0.217-0.368,0.576-0.712,1.224-0.712    c0.52,0,0.919,0.32,1.087,0.776h0.016c0.121-0.224,0.281-0.384,0.44-0.504c0.231-0.176,0.479-0.272,0.848-0.272    c0.52,0,1.279,0.336,1.279,1.679v2.279h-0.688v-2.191c0-0.751-0.28-1.191-0.84-1.191c-0.407,0-0.712,0.296-0.839,0.632    c-0.033,0.104-0.057,0.232-0.057,0.352v2.398h-0.688v-2.327c0-0.616-0.271-1.056-0.808-1.056c-0.432,0-0.759,0.352-0.872,0.704    c-0.039,0.104-0.055,0.224-0.055,0.344v2.335h-0.688V12.006z"/>
		<path d="M208.755,13.021c0.017,0.944,0.616,1.335,1.319,1.335c0.504,0,0.815-0.088,1.071-0.2l0.128,0.504    c-0.248,0.112-0.68,0.248-1.295,0.248c-1.184,0-1.903-0.792-1.903-1.951c0-1.167,0.696-2.087,1.823-2.087    c1.264,0,1.591,1.111,1.591,1.823c0,0.144-0.008,0.248-0.024,0.328H208.755z M210.811,12.518c0.008-0.448-0.185-1.144-0.969-1.144    c-0.719,0-1.023,0.656-1.078,1.144H210.811z"/>
		<path d="M212.364,12.006c0-0.408-0.008-0.728-0.032-1.048h0.624l0.039,0.632h0.017c0.192-0.36,0.64-0.72,1.279-0.72    c0.536,0,1.367,0.32,1.367,1.647v2.311h-0.704v-2.231c0-0.624-0.231-1.151-0.895-1.151c-0.457,0-0.816,0.328-0.943,0.72    c-0.033,0.088-0.049,0.216-0.049,0.328v2.335h-0.703V12.006z"/>
		<path d="M217.683,9.295c-0.185,0.672-0.528,1.535-0.743,1.903l-0.448,0.048c0.168-0.472,0.384-1.295,0.472-1.871L217.683,9.295z"/>
		<path d="M218.364,14.109c0.215,0.128,0.583,0.272,0.936,0.272c0.503,0,0.743-0.248,0.743-0.576c0-0.336-0.2-0.512-0.712-0.704    c-0.703-0.256-1.031-0.64-1.031-1.095c0-0.624,0.512-1.136,1.336-1.136c0.391,0,0.734,0.104,0.943,0.24l-0.168,0.503    c-0.152-0.088-0.432-0.224-0.792-0.224c-0.416,0-0.64,0.24-0.64,0.528c0,0.319,0.224,0.463,0.728,0.664    c0.663,0.248,1.015,0.583,1.015,1.159c0,0.688-0.535,1.167-1.438,1.167c-0.424,0-0.815-0.112-1.087-0.272L218.364,14.109z"/>
		<path d="M223.659,10.303c-0.256,0-0.424-0.2-0.424-0.432c0-0.248,0.176-0.44,0.439-0.44c0.256,0,0.432,0.192,0.432,0.44    c0,0.231-0.168,0.432-0.439,0.432H223.659z M223.323,14.829v-3.87h0.703v3.87H223.323z"/>
		<path d="M225.098,14.109c0.217,0.128,0.584,0.272,0.936,0.272c0.504,0,0.744-0.248,0.744-0.576c0-0.336-0.199-0.512-0.711-0.704    c-0.703-0.256-1.031-0.64-1.031-1.095c0-0.624,0.512-1.136,1.334-1.136c0.393,0,0.736,0.104,0.943,0.24l-0.168,0.503    c-0.15-0.088-0.432-0.224-0.791-0.224c-0.416,0-0.639,0.24-0.639,0.528c0,0.319,0.223,0.463,0.727,0.664    c0.664,0.248,1.016,0.583,1.016,1.159c0,0.688-0.535,1.167-1.439,1.167c-0.424,0-0.814-0.112-1.087-0.272L225.098,14.109z"/>
		<path d="M228.266,14.109c0.217,0.128,0.584,0.272,0.936,0.272c0.504,0,0.744-0.248,0.744-0.576c0-0.336-0.199-0.512-0.711-0.704    c-0.703-0.256-1.031-0.64-1.031-1.095c0-0.624,0.512-1.136,1.334-1.136c0.393,0,0.736,0.104,0.943,0.24l-0.168,0.503    c-0.15-0.088-0.432-0.224-0.791-0.224c-0.416,0-0.639,0.24-0.639,0.528c0,0.319,0.223,0.463,0.727,0.664    c0.664,0.248,1.016,0.583,1.016,1.159c0,0.688-0.535,1.167-1.439,1.167c-0.424,0-0.814-0.112-1.086-0.272L228.266,14.109z"/>
		<path d="M234.77,13.765c0,0.408,0.008,0.76,0.031,1.063h-0.623l-0.041-0.632h-0.016c-0.176,0.312-0.592,0.72-1.279,0.72    c-0.607,0-1.336-0.344-1.336-1.695v-2.263h0.705v2.135c0,0.735,0.23,1.239,0.863,1.239c0.471,0,0.799-0.328,0.928-0.648    c0.039-0.096,0.062-0.224,0.062-0.359v-2.367h0.705V13.765z"/>
		<path d="M236.338,13.021c0.016,0.944,0.617,1.335,1.32,1.335c0.504,0,0.814-0.088,1.07-0.2l0.129,0.504    c-0.248,0.112-0.68,0.248-1.295,0.248c-1.184,0-1.904-0.792-1.904-1.951c0-1.167,0.695-2.087,1.824-2.087    c1.264,0,1.59,1.111,1.59,1.823c0,0.144-0.008,0.248-0.023,0.328H236.338z M238.393,12.518c0.008-0.448-0.184-1.144-0.967-1.144    c-0.719,0-1.023,0.656-1.08,1.144H238.393z"/>
		<path d="M239.85,14.109c0.217,0.128,0.584,0.272,0.936,0.272c0.504,0,0.744-0.248,0.744-0.576c0-0.336-0.199-0.512-0.711-0.704    c-0.703-0.256-1.031-0.64-1.031-1.095c0-0.624,0.512-1.136,1.334-1.136c0.393,0,0.736,0.104,0.943,0.24l-0.168,0.503    c-0.15-0.088-0.432-0.224-0.791-0.224c-0.416,0-0.639,0.24-0.639,0.528c0,0.319,0.223,0.463,0.727,0.664    c0.664,0.248,1.016,0.583,1.016,1.159c0,0.688-0.535,1.167-1.439,1.167c-0.424,0-0.814-0.112-1.086-0.272L239.85,14.109z"/>
		<path d="M247.538,13.901c0,0.336,0.016,0.664,0.057,0.928h-0.633l-0.062-0.488h-0.025c-0.207,0.304-0.631,0.576-1.184,0.576    c-0.783,0-1.182-0.552-1.182-1.111c0-0.936,0.83-1.447,2.326-1.439v-0.08c0-0.32-0.088-0.904-0.879-0.896    c-0.369,0-0.744,0.104-1.016,0.288l-0.16-0.472c0.318-0.2,0.791-0.336,1.279-0.336c1.191,0,1.479,0.808,1.479,1.583V13.901z     M246.85,12.854c-0.768-0.016-1.639,0.12-1.639,0.872c0,0.464,0.303,0.672,0.654,0.672c0.512,0,0.84-0.32,0.953-0.648    c0.023-0.072,0.031-0.152,0.031-0.224V12.854z"/>
		<path d="M252.008,9.152v4.677c0,0.344,0.008,0.736,0.033,1h-0.633l-0.031-0.672h-0.016c-0.217,0.432-0.68,0.76-1.312,0.76    c-0.936,0-1.662-0.792-1.662-1.967c-0.008-1.295,0.799-2.079,1.734-2.079c0.6,0,1,0.28,1.168,0.584h0.016V9.152H252.008z     M251.305,12.534c0-0.096-0.008-0.208-0.031-0.304c-0.105-0.439-0.488-0.808-1.016-0.808c-0.729,0-1.16,0.64-1.16,1.487    c0,0.792,0.393,1.439,1.145,1.439c0.471,0,0.902-0.32,1.031-0.848c0.023-0.088,0.031-0.184,0.031-0.296V12.534z"/>
		<path d="M253.083,14.109c0.217,0.128,0.584,0.272,0.936,0.272c0.504,0,0.744-0.248,0.744-0.576c0-0.336-0.201-0.512-0.713-0.704    c-0.703-0.256-1.031-0.64-1.031-1.095c0-0.624,0.512-1.136,1.336-1.136c0.391,0,0.736,0.104,0.943,0.24l-0.168,0.503    c-0.152-0.088-0.432-0.224-0.791-0.224c-0.416,0-0.641,0.24-0.641,0.528c0,0.319,0.225,0.463,0.729,0.664    c0.664,0.248,1.016,0.583,1.016,1.159c0,0.688-0.537,1.167-1.439,1.167c-0.424,0-0.816-0.112-1.088-0.272L253.083,14.109z"/>
	</g>
	
		<rect x="180.498" y="22.654" fill="#808285" stroke="#000000" stroke-width="0.5" stroke-linejoin="round" stroke-miterlimit="10" width="6" height="6"/>
	<g>
		<path d="M191.34,23.031h-1.639v-0.592h3.989v0.592h-1.646v4.797h-0.704V23.031z"/>
		<path d="M194.269,25.166c0-0.456-0.008-0.848-0.032-1.208h0.615l0.032,0.76h0.024c0.176-0.52,0.607-0.848,1.079-0.848    c0.072,0,0.128,0.008,0.191,0.016v0.664c-0.071-0.008-0.144-0.016-0.239-0.016c-0.496,0-0.848,0.375-0.943,0.896    c-0.017,0.104-0.024,0.216-0.024,0.328v2.071h-0.703V25.166z"/>
		<path d="M199.612,26.901c0,0.336,0.016,0.664,0.056,0.928h-0.632l-0.063-0.488h-0.024c-0.208,0.304-0.632,0.576-1.184,0.576    c-0.783,0-1.183-0.552-1.183-1.111c0-0.936,0.831-1.447,2.326-1.439v-0.08c0-0.32-0.088-0.904-0.879-0.896    c-0.368,0-0.744,0.104-1.016,0.288l-0.16-0.472c0.319-0.2,0.791-0.336,1.279-0.336c1.191,0,1.479,0.808,1.479,1.583V26.901z     M198.923,25.854c-0.768-0.016-1.639,0.12-1.639,0.872c0,0.464,0.304,0.672,0.655,0.672c0.512,0,0.84-0.32,0.952-0.648    c0.023-0.072,0.031-0.152,0.031-0.224V25.854z"/>
		<path d="M204.083,22.152v4.677c0,0.344,0.008,0.736,0.032,1h-0.632l-0.032-0.672h-0.016c-0.216,0.432-0.68,0.76-1.312,0.76    c-0.936,0-1.663-0.792-1.663-1.967c-0.008-1.295,0.8-2.079,1.735-2.079c0.6,0,0.999,0.28,1.167,0.584h0.017v-2.303H204.083z     M203.38,25.534c0-0.096-0.009-0.208-0.032-0.304c-0.104-0.439-0.488-0.808-1.016-0.808c-0.728,0-1.159,0.64-1.159,1.487    c0,0.792,0.392,1.439,1.144,1.439c0.472,0,0.903-0.32,1.031-0.848c0.023-0.088,0.032-0.184,0.032-0.296V25.534z"/>
		<path d="M205.653,26.021c0.016,0.944,0.616,1.335,1.319,1.335c0.504,0,0.815-0.088,1.071-0.2l0.128,0.504    c-0.248,0.112-0.68,0.248-1.295,0.248c-1.184,0-1.903-0.792-1.903-1.951c0-1.167,0.695-2.087,1.823-2.087    c1.264,0,1.591,1.111,1.591,1.823c0,0.144-0.008,0.248-0.023,0.328H205.653z M207.708,25.518c0.008-0.448-0.184-1.144-0.967-1.144    c-0.72,0-1.023,0.656-1.08,1.144H207.708z"/>
		<path d="M213.684,26.901c0,0.336,0.016,0.664,0.056,0.928h-0.632l-0.063-0.488h-0.024c-0.208,0.304-0.632,0.576-1.184,0.576    c-0.783,0-1.183-0.552-1.183-1.111c0-0.936,0.831-1.447,2.326-1.439v-0.08c0-0.32-0.088-0.904-0.879-0.896    c-0.368,0-0.744,0.104-1.016,0.288l-0.16-0.472c0.319-0.2,0.791-0.336,1.279-0.336c1.191,0,1.479,0.808,1.479,1.583V26.901z     M212.996,25.854c-0.768-0.016-1.639,0.12-1.639,0.872c0,0.464,0.304,0.672,0.655,0.672c0.512,0,0.84-0.32,0.952-0.648    c0.023-0.072,0.031-0.152,0.031-0.224V25.854z"/>
		<path d="M218.155,22.152v4.677c0,0.344,0.008,0.736,0.032,1h-0.632l-0.032-0.672h-0.016c-0.216,0.432-0.68,0.76-1.312,0.76    c-0.936,0-1.663-0.792-1.663-1.967c-0.008-1.295,0.8-2.079,1.735-2.079c0.6,0,0.999,0.28,1.167,0.584h0.017v-2.303H218.155z     M217.452,25.534c0-0.096-0.009-0.208-0.032-0.304c-0.104-0.439-0.488-0.808-1.016-0.808c-0.728,0-1.159,0.64-1.159,1.487    c0,0.792,0.392,1.439,1.144,1.439c0.472,0,0.903-0.32,1.031-0.848c0.023-0.088,0.032-0.184,0.032-0.296V25.534z"/>
		<path d="M219.228,27.109c0.217,0.128,0.584,0.272,0.936,0.272c0.504,0,0.744-0.248,0.744-0.576c0-0.336-0.2-0.512-0.712-0.704    c-0.703-0.256-1.031-0.64-1.031-1.095c0-0.624,0.512-1.136,1.335-1.136c0.392,0,0.736,0.104,0.943,0.24l-0.168,0.503    c-0.151-0.088-0.432-0.224-0.791-0.224c-0.416,0-0.64,0.24-0.64,0.528c0,0.319,0.224,0.463,0.728,0.664    c0.664,0.248,1.016,0.583,1.016,1.159c0,0.688-0.536,1.167-1.439,1.167c-0.424,0-0.815-0.112-1.088-0.272L219.228,27.109z"/>
	</g>
	
		<line fill="none" stroke="#000000" stroke-width="0.5" stroke-linejoin="round" stroke-miterlimit="10" x1="14.182" y1="2.986" x2="11.182" y2="2.986"/>
	
		<line fill="none" stroke="#000000" stroke-width="0.5" stroke-linejoin="round" stroke-miterlimit="10" x1="14.182" y1="32.971" x2="11.182" y2="32.971"/>
	
		<line fill="none" stroke="#000000" stroke-width="0.5" stroke-linejoin="round" stroke-miterlimit="10" x1="14.182" y1="77.949" x2="11.182" y2="77.949"/>
	
		<line fill="none" stroke="#000000" stroke-width="0.5" stroke-linejoin="round" stroke-miterlimit="10" x1="14.182" y1="62.956" x2="11.182" y2="62.956"/>
	
		<line fill="none" stroke="#000000" stroke-width="0.5" stroke-linejoin="round" stroke-miterlimit="10" x1="14.182" y1="17.979" x2="11.182" y2="17.979"/>
	
		<line fill="none" stroke="#000000" stroke-width="0.5" stroke-linejoin="round" stroke-miterlimit="10" x1="14.182" y1="47.964" x2="11.182" y2="47.964"/>
	
		<line fill="none" stroke="#000000" stroke-width="0.5" stroke-linejoin="round" stroke-miterlimit="10" x1="14.182" y1="92.941" x2="11.182" y2="92.941"/>
	
		<line fill="none" stroke="#000000" stroke-width="0.5" stroke-linejoin="round" stroke-miterlimit="10" x1="14.182" y1="107.934" x2="11.182" y2="107.934"/>
	<g>
		<path d="M90.111,111.768h0.704v3.606c0,1.431-0.704,1.871-1.631,1.871c-0.264,0-0.576-0.056-0.744-0.128l0.096-0.568    c0.144,0.056,0.352,0.104,0.592,0.104c0.624,0,0.983-0.28,0.983-1.335V111.768z"/>
		<path d="M94.678,116.23c0,0.335,0.016,0.664,0.056,0.927h-0.632l-0.064-0.488h-0.024c-0.208,0.304-0.631,0.576-1.183,0.576    c-0.783,0-1.183-0.552-1.183-1.111c0-0.936,0.832-1.447,2.326-1.439v-0.08c0-0.32-0.088-0.904-0.879-0.896    c-0.367,0-0.743,0.104-1.015,0.288l-0.16-0.472c0.32-0.2,0.792-0.336,1.279-0.336c1.191,0,1.479,0.808,1.479,1.583V116.23z     M93.99,115.182c-0.768-0.016-1.639,0.12-1.639,0.872c0,0.464,0.304,0.672,0.655,0.672c0.512,0,0.839-0.32,0.951-0.648    c0.024-0.072,0.032-0.152,0.032-0.224V115.182z"/>
		<path d="M95.807,114.551c0-0.496-0.008-0.896-0.032-1.263h0.632l0.04,0.664h0.016c0.28-0.48,0.744-0.752,1.367-0.752    c0.943,0,1.647,0.792,1.647,1.967c0,1.391-0.856,2.079-1.759,2.079c-0.52,0-0.959-0.224-1.191-0.607h-0.016v2.103h-0.704V114.551z     M96.511,115.582c0,0.096,0.008,0.2,0.032,0.288c0.12,0.488,0.552,0.823,1.047,0.823c0.744,0,1.175-0.607,1.175-1.495    c0-0.775-0.4-1.439-1.144-1.439c-0.479,0-0.935,0.335-1.071,0.871c-0.016,0.088-0.04,0.192-0.04,0.28V115.582z"/>
		<path d="M103.085,116.23c0,0.335,0.016,0.664,0.056,0.927h-0.632l-0.064-0.488h-0.024c-0.208,0.304-0.632,0.576-1.183,0.576    c-0.784,0-1.184-0.552-1.184-1.111c0-0.936,0.832-1.447,2.327-1.439v-0.08c0-0.32-0.088-0.904-0.879-0.896    c-0.368,0-0.744,0.104-1.016,0.288l-0.16-0.472c0.32-0.2,0.792-0.336,1.279-0.336c1.191,0,1.479,0.808,1.479,1.583V116.23z     M102.398,115.182c-0.768-0.016-1.639,0.12-1.639,0.872c0,0.464,0.304,0.672,0.656,0.672c0.512,0,0.839-0.32,0.952-0.648    c0.024-0.072,0.032-0.152,0.032-0.224V115.182z"/>
		<path d="M104.215,114.335c0-0.408-0.008-0.728-0.032-1.047h0.624l0.04,0.631h0.016c0.192-0.36,0.64-0.72,1.279-0.72    c0.536,0,1.367,0.32,1.367,1.647v2.311h-0.704v-2.231c0-0.624-0.232-1.151-0.896-1.151c-0.456,0-0.815,0.328-0.943,0.72    c-0.032,0.088-0.048,0.216-0.048,0.328v2.334h-0.704V114.335z"/>
		<path d="M109.055,115.35c0.016,0.943,0.616,1.335,1.319,1.335c0.504,0,0.815-0.088,1.071-0.2l0.128,0.503    c-0.248,0.112-0.68,0.248-1.295,0.248c-1.184,0-1.903-0.792-1.903-1.951c0-1.167,0.696-2.087,1.823-2.087    c1.263,0,1.591,1.112,1.591,1.823c0,0.144-0.008,0.248-0.024,0.328H109.055z M111.109,114.847    c0.008-0.448-0.184-1.144-0.967-1.144c-0.72,0-1.023,0.656-1.08,1.144H111.109z"/>
		<path d="M112.567,116.438c0.216,0.128,0.583,0.272,0.936,0.272c0.503,0,0.744-0.248,0.744-0.576c0-0.336-0.2-0.512-0.712-0.704    c-0.704-0.256-1.031-0.64-1.031-1.095c0-0.624,0.512-1.136,1.335-1.136c0.392,0,0.736,0.104,0.944,0.24l-0.168,0.503    c-0.152-0.088-0.432-0.224-0.792-0.224c-0.416,0-0.64,0.24-0.64,0.527c0,0.32,0.224,0.464,0.728,0.664    c0.664,0.248,1.016,0.583,1.016,1.159c0,0.688-0.536,1.167-1.439,1.167c-0.424,0-0.815-0.112-1.087-0.272L112.567,116.438z"/>
		<path d="M116.23,115.35c0.016,0.943,0.616,1.335,1.319,1.335c0.504,0,0.815-0.088,1.071-0.2l0.128,0.503    c-0.248,0.112-0.68,0.248-1.295,0.248c-1.184,0-1.903-0.792-1.903-1.951c0-1.167,0.696-2.087,1.823-2.087    c1.263,0,1.591,1.112,1.591,1.823c0,0.144-0.008,0.248-0.024,0.328H116.23z M118.285,114.847c0.008-0.448-0.184-1.144-0.967-1.144    c-0.72,0-1.023,0.656-1.08,1.144H118.285z"/>
	</g>
	<g>
		<path d="M150.17,111.848c0.305-0.072,0.793-0.12,1.271-0.12c0.696,0,1.145,0.12,1.471,0.392c0.28,0.208,0.456,0.528,0.456,0.951    c0,0.528-0.352,0.984-0.911,1.184v0.024c0.512,0.12,1.111,0.544,1.111,1.343c0,0.464-0.184,0.815-0.464,1.08    c-0.368,0.344-0.976,0.503-1.854,0.503c-0.479,0-0.848-0.032-1.08-0.064V111.848z M150.867,114.055h0.632    c0.728,0,1.158-0.392,1.158-0.912c0-0.624-0.471-0.879-1.174-0.879c-0.32,0-0.504,0.024-0.616,0.048V114.055z M150.867,116.629    c0.144,0.024,0.336,0.032,0.583,0.032c0.721,0,1.383-0.264,1.383-1.047c0-0.728-0.631-1.04-1.391-1.04h-0.575V116.629z"/>
		<path d="M154.483,114.495c0-0.456-0.008-0.848-0.032-1.207h0.616l0.031,0.759h0.023c0.177-0.52,0.608-0.848,1.08-0.848    c0.072,0,0.128,0.008,0.191,0.016v0.664c-0.071-0.008-0.144-0.016-0.239-0.016c-0.496,0-0.848,0.376-0.943,0.896    c-0.017,0.104-0.024,0.216-0.024,0.328v2.071h-0.703V114.495z"/>
		<path d="M159.825,116.23c0,0.335,0.017,0.664,0.057,0.927h-0.632l-0.063-0.488h-0.024c-0.208,0.304-0.632,0.576-1.183,0.576    c-0.784,0-1.184-0.552-1.184-1.111c0-0.936,0.831-1.447,2.326-1.439v-0.08c0-0.32-0.088-0.904-0.879-0.896    c-0.368,0-0.744,0.104-1.016,0.288l-0.16-0.472c0.32-0.2,0.791-0.336,1.279-0.336c1.191,0,1.479,0.808,1.479,1.583V116.23z     M159.137,115.182c-0.768-0.016-1.639,0.12-1.639,0.872c0,0.464,0.304,0.672,0.656,0.672c0.512,0,0.839-0.32,0.951-0.648    c0.023-0.072,0.031-0.152,0.031-0.224V115.182z"/>
		<path d="M160.514,116.75l1.752-2.279c0.176-0.216,0.327-0.4,0.512-0.608v-0.016h-2.104v-0.56h2.951v0.439l-1.736,2.255    c-0.159,0.208-0.319,0.408-0.495,0.6v0.016h2.263v0.56h-3.143V116.75z"/>
		<path d="M164.714,112.632c-0.256,0-0.424-0.2-0.424-0.432c0-0.248,0.176-0.439,0.44-0.439c0.256,0,0.432,0.192,0.432,0.439    c0,0.232-0.168,0.432-0.44,0.432H164.714z M164.378,117.157v-3.87h0.704v3.87H164.378z"/>
		<path d="M166.25,111.48h0.703v5.677h-0.703V111.48z"/>
		<path d="M168.474,112.632c-0.256,0-0.424-0.2-0.424-0.432c0-0.248,0.176-0.439,0.44-0.439c0.256,0,0.432,0.192,0.432,0.439    c0,0.232-0.168,0.432-0.44,0.432H168.474z M168.138,117.157v-3.87h0.704v3.87H168.138z"/>
		<path d="M172.737,116.23c0,0.335,0.016,0.664,0.057,0.927h-0.633l-0.063-0.488h-0.024c-0.207,0.304-0.631,0.576-1.183,0.576    c-0.784,0-1.184-0.552-1.184-1.111c0-0.936,0.831-1.447,2.327-1.439v-0.08c0-0.32-0.088-0.904-0.88-0.896    c-0.368,0-0.743,0.104-1.016,0.288l-0.159-0.472c0.319-0.2,0.791-0.336,1.279-0.336c1.191,0,1.479,0.808,1.479,1.583V116.23z     M172.049,115.182c-0.768-0.016-1.639,0.12-1.639,0.872c0,0.464,0.303,0.672,0.655,0.672c0.512,0,0.839-0.32,0.951-0.648    c0.024-0.072,0.032-0.152,0.032-0.224V115.182z"/>
		<path d="M173.866,114.335c0-0.408-0.008-0.728-0.031-1.047h0.623l0.041,0.631h0.016c0.191-0.36,0.64-0.72,1.279-0.72    c0.535,0,1.367,0.32,1.367,1.647v2.311h-0.703v-2.231c0-0.624-0.232-1.151-0.896-1.151c-0.455,0-0.814,0.328-0.943,0.72    c-0.031,0.088-0.048,0.216-0.048,0.328v2.334h-0.704V114.335z"/>
	</g>
	<g>
		<path d="M214.793,111.768v5.389h-0.703v-5.389H214.793z"/>
		<path d="M215.986,114.335c0-0.408-0.008-0.728-0.032-1.047h0.624l0.04,0.631h0.016c0.192-0.36,0.641-0.72,1.279-0.72    c0.536,0,1.367,0.32,1.367,1.647v2.311h-0.703v-2.231c0-0.624-0.232-1.151-0.896-1.151c-0.456,0-0.815,0.328-0.943,0.72    c-0.032,0.088-0.048,0.216-0.048,0.328v2.334h-0.704V114.335z"/>
		<path d="M223.768,111.48v4.677c0,0.344,0.008,0.736,0.032,1h-0.632l-0.031-0.671h-0.017c-0.216,0.432-0.68,0.759-1.312,0.759    c-0.936,0-1.663-0.792-1.663-1.967c-0.008-1.295,0.8-2.079,1.735-2.079c0.6,0,1,0.28,1.167,0.584h0.017v-2.303H223.768z     M223.065,114.862c0-0.096-0.008-0.208-0.032-0.304c-0.104-0.44-0.487-0.808-1.016-0.808c-0.728,0-1.159,0.64-1.159,1.487    c0,0.792,0.392,1.439,1.143,1.439c0.473,0,0.904-0.319,1.032-0.847c0.024-0.088,0.032-0.184,0.032-0.296V114.862z"/>
		<path d="M225.274,112.632c-0.256,0-0.424-0.2-0.424-0.432c0-0.248,0.176-0.439,0.439-0.439c0.256,0,0.432,0.192,0.432,0.439    c0,0.232-0.168,0.432-0.439,0.432H225.274z M224.938,117.157v-3.87h0.703v3.87H224.938z"/>
		<path d="M229.536,116.23c0,0.335,0.017,0.664,0.057,0.927h-0.632l-0.063-0.488h-0.024c-0.208,0.304-0.632,0.576-1.183,0.576    c-0.784,0-1.184-0.552-1.184-1.111c0-0.936,0.831-1.447,2.326-1.439v-0.08c0-0.32-0.088-0.904-0.879-0.896    c-0.368,0-0.744,0.104-1.016,0.288l-0.16-0.472c0.32-0.2,0.791-0.336,1.279-0.336c1.191,0,1.479,0.808,1.479,1.583V116.23z     M228.848,115.182c-0.768-0.016-1.639,0.12-1.639,0.872c0,0.464,0.304,0.672,0.656,0.672c0.512,0,0.839-0.32,0.951-0.648    c0.023-0.072,0.031-0.152,0.031-0.224V115.182z"/>
		<path d="M230.666,114.335c0-0.408-0.008-0.728-0.032-1.047h0.624l0.04,0.631h0.016c0.192-0.36,0.641-0.72,1.279-0.72    c0.536,0,1.367,0.32,1.367,1.647v2.311h-0.703v-2.231c0-0.624-0.232-1.151-0.896-1.151c-0.456,0-0.815,0.328-0.943,0.72    c-0.032,0.088-0.048,0.216-0.048,0.328v2.334h-0.704V114.335z"/>
	</g>
	<path fill="#D1D3D4" stroke="#000000" stroke-width="0.5" stroke-miterlimit="10" d="M208.475,53.568h13.429v54.255h-13.429V53.568   z M148.524,38.92h13.428v68.903h-13.428V38.92z M88.708,23.864h13.428v83.959H88.708V23.864z M28.893,50.855h13.428v56.968H28.893   V50.855z"/>
	<path fill="#808285" stroke="#000000" stroke-width="0.5" stroke-miterlimit="10" d="M225.43,56.281h13.428v51.542H225.43V56.281z    M165.614,41.903h13.428v65.92h-13.428V41.903z M105.798,30.51h13.428v77.313h-13.428V30.51z M45.983,59.265h13.428v48.559H45.983   V59.265z"/>
	<path fill="none" stroke="#000000" stroke-width="0.5" stroke-linejoin="round" stroke-miterlimit="10" d="M33.911,47.872h3.373    M33.911,53.801h3.373 M35.539,50.855v-2.983 M35.539,53.801v-2.945"/>
	<path fill="none" stroke="#000000" stroke-width="0.5" stroke-linejoin="round" stroke-miterlimit="10" d="M93.727,20.88h3.391    M93.727,26.811h3.391 M95.49,23.864V20.88 M95.49,26.811v-2.946"/>
	<path fill="none" stroke="#000000" stroke-width="0.5" stroke-linejoin="round" stroke-miterlimit="10" d="M153.542,35.936h3.392    M153.542,41.768h3.392 M155.305,38.92v-2.984 M155.305,41.768V38.92"/>
	<path fill="none" stroke="#000000" stroke-width="0.5" stroke-linejoin="round" stroke-miterlimit="10" d="M213.494,50.584h3.359    M213.494,56.499h3.359 M215.122,53.568v-2.984 M215.122,56.499v-2.931"/>
	<path fill="none" stroke="#000000" stroke-width="0.5" stroke-linejoin="round" stroke-miterlimit="10" d="M51.001,56.281h3.327    M51.001,62.197h3.327 M52.629,59.266v-2.984 M52.629,62.197v-2.932"/>
	<path fill="none" stroke="#000000" stroke-width="0.5" stroke-linejoin="round" stroke-miterlimit="10" d="M110.817,27.526h3.368    M110.817,33.358h3.368 M112.445,30.51v-2.983 M112.445,33.358V30.51"/>
	<path fill="none" stroke="#000000" stroke-width="0.5" stroke-linejoin="round" stroke-miterlimit="10" d="M170.633,38.92h3.391    M170.633,44.752h3.391 M172.396,41.903V38.92 M172.396,44.752v-2.849"/>
	<path fill="none" stroke="#000000" stroke-width="0.5" stroke-linejoin="round" stroke-miterlimit="10" d="M230.449,53.297h3.391    M230.449,59.198h3.391 M232.211,56.281v-2.984 M232.211,59.198v-2.917"/>
</g>
</svg>