<svg xmlns="http://www.w3.org/2000/svg" xmlns:xlink="http://www.w3.org/1999/xlink" version="1.1" x="0px" y="0px" width="284.28px" height="146.881px" viewBox="0 0 284.28 146.881" enable-background="new 0 0 284.28 146.881" xml:space="preserve">
<g id="wide" display="none">
</g>
<g id="text_column">
</g>
<g id="art">
	<g>
		<path d="M2.415,5.285V3.862H0V3.406l2.318-3.318h0.76v3.23h0.728v0.544H3.078v1.423H2.415z M2.415,3.318V1.583    c0-0.271,0.008-0.544,0.024-0.815H2.415c-0.16,0.304-0.288,0.527-0.432,0.768L0.711,3.303v0.016H2.415z"/>
		<path d="M4.863,5.373C4.591,5.373,4.4,5.157,4.4,4.869c0-0.287,0.2-0.504,0.479-0.504s0.472,0.208,0.472,0.504    c0,0.288-0.192,0.504-0.479,0.504H4.863z"/>
		<path d="M7.655,5.373c-1.016,0-1.711-0.951-1.728-2.671C5.927,0.951,6.687,0,7.743,0C8.83,0,9.461,0.976,9.461,2.631    c0,1.767-0.664,2.742-1.799,2.742H7.655z M7.694,4.829c0.712,0,1.056-0.839,1.056-2.167c0-1.279-0.32-2.118-1.056-2.118    c-0.64,0-1.055,0.815-1.055,2.118c-0.016,1.352,0.4,2.167,1.047,2.167H7.694z"/>
		<path d="M0.408,26.485c0.2,0.12,0.655,0.32,1.151,0.32c0.896,0,1.183-0.568,1.175-1.008c-0.008-0.728-0.664-1.039-1.343-1.039H1    V24.23h0.392c0.512,0,1.159-0.264,1.159-0.879c0-0.416-0.264-0.784-0.911-0.784c-0.416,0-0.816,0.185-1.04,0.344l-0.192-0.512    C0.688,22.2,1.215,22,1.775,22c1.023,0,1.487,0.607,1.487,1.239c0,0.544-0.328,1-0.959,1.231v0.016    c0.64,0.12,1.159,0.6,1.159,1.328c0,0.831-0.656,1.559-1.895,1.559c-0.583,0-1.095-0.184-1.351-0.352L0.408,26.485z"/>
		<path d="M4.863,27.373c-0.272,0-0.463-0.216-0.463-0.504c0-0.287,0.2-0.504,0.479-0.504s0.472,0.208,0.472,0.504    c0,0.288-0.192,0.504-0.479,0.504H4.863z"/>
		<path d="M9.102,22.68H7.119l-0.2,1.335c0.12-0.016,0.232-0.031,0.424-0.031c0.408,0,0.799,0.088,1.119,0.279    c0.408,0.224,0.744,0.68,0.744,1.335c0,1.016-0.808,1.775-1.935,1.775c-0.568,0-1.04-0.16-1.295-0.319l0.176-0.536    c0.216,0.128,0.64,0.288,1.12,0.288c0.655,0,1.231-0.432,1.223-1.136c0-0.663-0.456-1.144-1.487-1.144    c-0.304,0-0.536,0.024-0.728,0.057l0.336-2.495h2.486V22.68z"/>
		<path d="M0.408,48.485c0.2,0.12,0.655,0.32,1.151,0.32c0.896,0,1.183-0.568,1.175-1.008c-0.008-0.728-0.664-1.039-1.343-1.039H1    V46.23h0.392c0.512,0,1.159-0.264,1.159-0.879c0-0.416-0.264-0.784-0.911-0.784c-0.416,0-0.816,0.185-1.04,0.344l-0.192-0.512    C0.688,44.2,1.215,44,1.775,44c1.023,0,1.487,0.607,1.487,1.239c0,0.544-0.328,1-0.959,1.231v0.016    c0.64,0.12,1.159,0.6,1.159,1.328c0,0.831-0.656,1.559-1.895,1.559c-0.583,0-1.095-0.184-1.351-0.352L0.408,48.485z"/>
		<path d="M4.863,49.373c-0.272,0-0.463-0.216-0.463-0.504c0-0.287,0.2-0.504,0.479-0.504s0.472,0.208,0.472,0.504    c0,0.288-0.192,0.504-0.479,0.504H4.863z"/>
		<path d="M7.655,49.373c-1.016,0-1.711-0.951-1.728-2.671c0-1.751,0.76-2.702,1.815-2.702c1.087,0,1.719,0.976,1.719,2.631    c0,1.767-0.664,2.742-1.799,2.742H7.655z M7.694,48.829c0.712,0,1.056-0.839,1.056-2.167c0-1.279-0.32-2.118-1.056-2.118    c-0.64,0-1.055,0.815-1.055,2.118c-0.016,1.352,0.4,2.167,1.047,2.167H7.694z"/>
		<path d="M0.24,71.285v-0.432l0.552-0.536c1.327-1.263,1.935-1.935,1.935-2.718c0-0.528-0.248-1.016-1.023-1.016    c-0.472,0-0.863,0.239-1.103,0.439l-0.224-0.496C0.728,66.232,1.247,66,1.847,66c1.111,0,1.583,0.768,1.583,1.512    c0,0.959-0.696,1.734-1.791,2.79l-0.408,0.384v0.016h2.327v0.584H0.24z"/>
		<path d="M4.863,71.373c-0.272,0-0.463-0.216-0.463-0.504c0-0.287,0.2-0.504,0.479-0.504s0.472,0.208,0.472,0.504    c0,0.288-0.192,0.504-0.479,0.504H4.863z"/>
		<path d="M9.102,66.68H7.119l-0.2,1.335c0.12-0.016,0.232-0.031,0.424-0.031c0.408,0,0.799,0.088,1.119,0.279    c0.408,0.224,0.744,0.68,0.744,1.335c0,1.016-0.808,1.775-1.935,1.775c-0.568,0-1.04-0.16-1.295-0.319l0.176-0.536    c0.216,0.128,0.64,0.288,1.12,0.288c0.655,0,1.231-0.432,1.223-1.136c0-0.663-0.456-1.144-1.487-1.144    c-0.304,0-0.536,0.024-0.728,0.057l0.336-2.495h2.486V66.68z"/>
		<path d="M0.24,93.285v-0.432l0.552-0.536c1.327-1.263,1.935-1.935,1.935-2.718c0-0.528-0.248-1.016-1.023-1.016    c-0.472,0-0.863,0.239-1.103,0.439l-0.224-0.496C0.728,88.232,1.247,88,1.847,88c1.111,0,1.583,0.768,1.583,1.512    c0,0.959-0.696,1.734-1.791,2.79l-0.408,0.384v0.016h2.327v0.584H0.24z"/>
		<path d="M4.863,93.373c-0.272,0-0.463-0.216-0.463-0.504c0-0.287,0.2-0.504,0.479-0.504s0.472,0.208,0.472,0.504    c0,0.288-0.192,0.504-0.479,0.504H4.863z"/>
		<path d="M7.655,93.373c-1.016,0-1.711-0.951-1.728-2.671c0-1.751,0.76-2.702,1.815-2.702c1.087,0,1.719,0.976,1.719,2.631    c0,1.767-0.664,2.742-1.799,2.742H7.655z M7.694,92.829c0.712,0,1.056-0.839,1.056-2.167c0-1.279-0.32-2.118-1.056-2.118    c-0.64,0-1.055,0.815-1.055,2.118c-0.016,1.352,0.4,2.167,1.047,2.167H7.694z"/>
		<path d="M1.767,110.744H1.751l-0.904,0.487l-0.136-0.536l1.135-0.607h0.6v5.197H1.767V110.744z"/>
		<path d="M4.863,115.373c-0.272,0-0.463-0.216-0.463-0.504c0-0.287,0.2-0.504,0.479-0.504s0.472,0.208,0.472,0.504    c0,0.288-0.192,0.504-0.479,0.504H4.863z"/>
		<path d="M9.102,110.68H7.119l-0.2,1.335c0.12-0.016,0.232-0.031,0.424-0.031c0.408,0,0.799,0.088,1.119,0.279    c0.408,0.224,0.744,0.68,0.744,1.335c0,1.016-0.808,1.775-1.935,1.775c-0.568,0-1.04-0.16-1.295-0.319l0.176-0.536    c0.216,0.128,0.64,0.288,1.12,0.288c0.655,0,1.231-0.432,1.223-1.136c0-0.663-0.456-1.144-1.487-1.144    c-0.304,0-0.536,0.024-0.728,0.057l0.336-2.495h2.486V110.68z"/>
		<path d="M1.767,132.744H1.751l-0.904,0.487l-0.136-0.536l1.135-0.607h0.6v5.197H1.767V132.744z"/>
		<path d="M4.863,137.373c-0.272,0-0.463-0.216-0.463-0.504c0-0.287,0.2-0.504,0.479-0.504s0.472,0.208,0.472,0.504    c0,0.288-0.192,0.504-0.479,0.504H4.863z"/>
		<path d="M7.655,137.373c-1.016,0-1.711-0.951-1.728-2.671c0-1.751,0.76-2.702,1.815-2.702c1.087,0,1.719,0.976,1.719,2.631    c0,1.767-0.664,2.742-1.799,2.742H7.655z M7.694,136.829c0.712,0,1.056-0.839,1.056-2.167c0-1.279-0.32-2.118-1.056-2.118    c-0.64,0-1.055,0.815-1.055,2.118c-0.016,1.352,0.4,2.167,1.047,2.167H7.694z"/>
	</g>
	<g>
		<path d="M23.847,142.02h-0.016l-0.904,0.488l-0.136-0.536l1.135-0.608h0.6v5.197h-0.679V142.02z"/>
		<path d="M28.078,146.649c-1.015,0-1.711-0.952-1.727-2.67c0-1.751,0.759-2.703,1.815-2.703c1.087,0,1.719,0.976,1.719,2.63    c0,1.767-0.664,2.743-1.799,2.743H28.078z M28.118,146.105c0.712,0,1.056-0.84,1.056-2.167c0-1.279-0.32-2.119-1.056-2.119    c-0.64,0-1.055,0.815-1.055,2.119c-0.016,1.351,0.4,2.167,1.047,2.167H28.118z"/>
		<path d="M32.182,146.649c-1.015,0-1.711-0.952-1.727-2.67c0-1.751,0.759-2.703,1.815-2.703c1.087,0,1.719,0.976,1.719,2.63    c0,1.767-0.664,2.743-1.799,2.743H32.182z M32.222,146.105c0.712,0,1.056-0.84,1.056-2.167c0-1.279-0.32-2.119-1.056-2.119    c-0.64,0-1.055,0.815-1.055,2.119c-0.016,1.351,0.4,2.167,1.047,2.167H32.222z"/>
		<path d="M36.286,146.649c-1.016,0-1.711-0.952-1.728-2.67c0-1.751,0.76-2.703,1.815-2.703c1.087,0,1.719,0.976,1.719,2.63    c0,1.767-0.664,2.743-1.799,2.743H36.286z M36.326,146.105c0.712,0,1.056-0.84,1.056-2.167c0-1.279-0.32-2.119-1.056-2.119    c-0.64,0-1.055,0.815-1.055,2.119c-0.016,1.351,0.4,2.167,1.047,2.167H36.326z"/>
		<path d="M38.367,146.881l2.223-5.797h0.552l-2.239,5.797H38.367z"/>
		<path d="M43.006,142.02H42.99l-0.904,0.488l-0.136-0.536l1.135-0.608h0.6v5.197h-0.68V142.02z"/>
	</g>
	<g>
		<path d="M64.454,142.02h-0.016l-0.904,0.488l-0.136-0.536l1.135-0.608h0.6v5.197h-0.68V142.02z"/>
		<path d="M68.687,146.649c-1.016,0-1.711-0.952-1.728-2.67c0-1.751,0.76-2.703,1.815-2.703c1.087,0,1.719,0.976,1.719,2.63    c0,1.767-0.664,2.743-1.799,2.743H68.687z M68.726,146.105c0.712,0,1.056-0.84,1.056-2.167c0-1.279-0.32-2.119-1.056-2.119    c-0.64,0-1.055,0.815-1.055,2.119c-0.016,1.351,0.4,2.167,1.047,2.167H68.726z"/>
		<path d="M72.79,146.649c-1.015,0-1.711-0.952-1.727-2.67c0-1.751,0.759-2.703,1.815-2.703c1.087,0,1.719,0.976,1.719,2.63    c0,1.767-0.664,2.743-1.799,2.743H72.79z M72.83,146.105c0.712,0,1.056-0.84,1.056-2.167c0-1.279-0.32-2.119-1.056-2.119    c-0.64,0-1.055,0.815-1.055,2.119c-0.016,1.351,0.4,2.167,1.047,2.167H72.83z"/>
		<path d="M74.871,146.881l2.223-5.797h0.552l-2.239,5.797H74.871z"/>
		<path d="M79.51,142.02h-0.016l-0.904,0.488l-0.136-0.536l1.135-0.608h0.6v5.197h-0.68V142.02z"/>
	</g>
	<g>
		<path d="M105.062,142.02h-0.016l-0.904,0.488l-0.136-0.536l1.135-0.608h0.6v5.197h-0.68V142.02z"/>
		<path d="M109.294,146.649c-1.016,0-1.711-0.952-1.728-2.67c0-1.751,0.76-2.703,1.815-2.703c1.087,0,1.719,0.976,1.719,2.63    c0,1.767-0.664,2.743-1.799,2.743H109.294z M109.333,146.105c0.712,0,1.056-0.84,1.056-2.167c0-1.279-0.32-2.119-1.056-2.119    c-0.64,0-1.055,0.815-1.055,2.119c-0.016,1.351,0.4,2.167,1.047,2.167H109.333z"/>
		<path d="M111.375,146.881l2.223-5.797h0.552l-2.239,5.797H111.375z"/>
		<path d="M116.014,142.02h-0.016l-0.904,0.488l-0.136-0.536l1.135-0.608h0.6v5.197h-0.679V142.02z"/>
	</g>
	<g>
		<path d="M145.668,142.02h-0.016l-0.903,0.488l-0.136-0.536l1.135-0.608h0.6v5.197h-0.68V142.02z"/>
		<path d="M147.878,146.881l2.223-5.797h0.552l-2.238,5.797H147.878z"/>
		<path d="M152.516,142.02H152.5l-0.903,0.488l-0.136-0.536l1.135-0.608h0.6v5.197h-0.68V142.02z"/>
	</g>
	<g>
		<path d="M182.172,142.02h-0.016l-0.903,0.488l-0.136-0.536l1.135-0.608h0.6v5.197h-0.68V142.02z"/>
		<path d="M184.382,146.881l2.223-5.797h0.552l-2.238,5.797H184.382z"/>
		<path d="M189.02,142.02h-0.016l-0.903,0.488l-0.136-0.536l1.135-0.608h0.6v5.197h-0.68V142.02z"/>
		<path d="M193.252,146.649c-1.016,0-1.711-0.952-1.727-2.67c0-1.751,0.76-2.703,1.814-2.703c1.088,0,1.719,0.976,1.719,2.63    c0,1.767-0.663,2.743-1.799,2.743H193.252z M193.292,146.105c0.712,0,1.056-0.84,1.056-2.167c0-1.279-0.32-2.119-1.056-2.119    c-0.64,0-1.056,0.815-1.056,2.119c-0.016,1.351,0.4,2.167,1.048,2.167H193.292z"/>
	</g>
	<g>
		<path d="M218.676,142.02h-0.016l-0.903,0.488l-0.136-0.536l1.135-0.608h0.6v5.197h-0.68V142.02z"/>
		<path d="M220.886,146.881l2.223-5.797h0.552l-2.238,5.797H220.886z"/>
		<path d="M225.524,142.02h-0.016l-0.903,0.488l-0.136-0.536l1.135-0.608h0.6v5.197h-0.68V142.02z"/>
		<path d="M229.756,146.649c-1.016,0-1.711-0.952-1.727-2.67c0-1.751,0.76-2.703,1.814-2.703c1.088,0,1.719,0.976,1.719,2.63    c0,1.767-0.663,2.743-1.799,2.743H229.756z M229.796,146.105c0.712,0,1.056-0.84,1.056-2.167c0-1.279-0.32-2.119-1.056-2.119    c-0.64,0-1.056,0.815-1.056,2.119c-0.016,1.351,0.4,2.167,1.048,2.167H229.796z"/>
		<path d="M233.86,146.649c-1.015,0-1.711-0.952-1.727-2.67c0-1.751,0.76-2.703,1.815-2.703c1.087,0,1.719,0.976,1.719,2.63    c0,1.767-0.663,2.743-1.799,2.743H233.86z M233.901,146.105c0.711,0,1.055-0.84,1.055-2.167c0-1.279-0.319-2.119-1.055-2.119    c-0.641,0-1.056,0.815-1.056,2.119c-0.017,1.351,0.399,2.167,1.048,2.167H233.901z"/>
	</g>
	<g>
		<path d="M255.18,142.02h-0.016l-0.904,0.488l-0.135-0.536l1.135-0.608h0.6v5.197h-0.68V142.02z"/>
		<path d="M257.389,146.881l2.223-5.797h0.553l-2.239,5.797H257.389z"/>
		<path d="M262.028,142.02h-0.016l-0.904,0.488l-0.135-0.536l1.135-0.608h0.6v5.197h-0.68V142.02z"/>
		<path d="M266.26,146.649c-1.016,0-1.711-0.952-1.727-2.67c0-1.751,0.759-2.703,1.814-2.703c1.088,0,1.719,0.976,1.719,2.63    c0,1.767-0.664,2.743-1.799,2.743H266.26z M266.299,146.105c0.713,0,1.057-0.84,1.057-2.167c0-1.279-0.32-2.119-1.057-2.119    c-0.639,0-1.055,0.815-1.055,2.119c-0.016,1.351,0.4,2.167,1.047,2.167H266.299z"/>
		<path d="M270.364,146.649c-1.016,0-1.711-0.952-1.727-2.67c0-1.751,0.76-2.703,1.814-2.703c1.088,0,1.719,0.976,1.719,2.63    c0,1.767-0.663,2.743-1.799,2.743H270.364z M270.404,146.105c0.712,0,1.056-0.84,1.056-2.167c0-1.279-0.32-2.119-1.056-2.119    c-0.64,0-1.056,0.815-1.056,2.119c-0.016,1.351,0.4,2.167,1.048,2.167H270.404z"/>
		<path d="M274.467,146.649c-1.015,0-1.711-0.952-1.727-2.67c0-1.751,0.76-2.703,1.815-2.703c1.087,0,1.719,0.976,1.719,2.63    c0,1.767-0.663,2.743-1.799,2.743H274.467z M274.508,146.105c0.711,0,1.055-0.84,1.055-2.167c0-1.279-0.319-2.119-1.055-2.119    c-0.641,0-1.056,0.815-1.056,2.119c-0.017,1.351,0.399,2.167,1.048,2.167H274.508z"/>
	</g>
	<g>
		<path d="M159.779,122.728h-1.845v-0.666h4.492v0.666h-1.855v5.402h-0.792V122.728z"/>
		<path d="M162.586,125.131c0-0.513-0.009-0.954-0.036-1.359h0.693l0.036,0.855h0.027c0.197-0.585,0.684-0.955,1.215-0.955    c0.08,0,0.144,0.009,0.215,0.018v0.748c-0.08-0.009-0.161-0.018-0.27-0.018c-0.558,0-0.953,0.423-1.062,1.008    c-0.019,0.117-0.027,0.243-0.027,0.369v2.332h-0.792V125.131z"/>
		<path d="M168.668,127.085c0,0.378,0.018,0.748,0.062,1.044h-0.711l-0.072-0.549h-0.027c-0.234,0.342-0.711,0.648-1.332,0.648    c-0.883,0-1.332-0.621-1.332-1.251c0-1.053,0.936-1.629,2.619-1.621v-0.09c0-0.36-0.099-1.018-0.99-1.008    c-0.414,0-0.837,0.117-1.143,0.324l-0.181-0.531c0.36-0.225,0.892-0.378,1.44-0.378c1.342,0,1.666,0.91,1.666,1.783V127.085z     M167.893,125.906c-0.863-0.018-1.845,0.135-1.845,0.981c0,0.522,0.342,0.756,0.738,0.756c0.576,0,0.945-0.36,1.071-0.729    c0.027-0.081,0.035-0.171,0.035-0.252V125.906z"/>
		<path d="M173.76,121.737v5.267c0,0.387,0.01,0.829,0.037,1.125h-0.712l-0.036-0.756h-0.018c-0.243,0.486-0.766,0.855-1.477,0.855    c-1.054,0-1.873-0.892-1.873-2.215c-0.009-1.458,0.9-2.341,1.954-2.341c0.675,0,1.125,0.315,1.313,0.657h0.019v-2.593H173.76z     M172.968,125.545c0-0.108-0.009-0.234-0.036-0.342c-0.117-0.495-0.549-0.909-1.143-0.909c-0.82,0-1.306,0.72-1.306,1.674    c0,0.891,0.44,1.621,1.287,1.621c0.531,0,1.018-0.36,1.161-0.955c0.027-0.099,0.036-0.207,0.036-0.333V125.545z"/>
		<path d="M175.468,123.034c-0.288,0-0.478-0.225-0.478-0.486c0-0.279,0.199-0.495,0.496-0.495c0.287,0,0.486,0.216,0.486,0.495    c0,0.261-0.189,0.486-0.496,0.486H175.468z M175.09,128.129v-4.357h0.792v4.357H175.09z"/>
		<path d="M177.213,124.952c0-0.459-0.01-0.819-0.036-1.18h0.702l0.045,0.711h0.018c0.217-0.405,0.721-0.811,1.441-0.811    c0.604,0,1.539,0.36,1.539,1.855v2.602h-0.792v-2.512c0-0.702-0.261-1.296-1.009-1.296c-0.513,0-0.918,0.369-1.062,0.81    c-0.035,0.099-0.054,0.243-0.054,0.369v2.629h-0.792V124.952z"/>
		<path d="M185.99,127.49c0,1.008-0.207,1.611-0.621,1.999c-0.433,0.387-1.044,0.522-1.594,0.522c-0.522,0-1.099-0.126-1.449-0.36    l0.198-0.612c0.288,0.189,0.738,0.351,1.278,0.351c0.81,0,1.404-0.423,1.404-1.53v-0.477h-0.019    c-0.233,0.405-0.711,0.729-1.386,0.729c-1.081,0-1.854-0.918-1.854-2.134c0-1.476,0.963-2.305,1.971-2.305    c0.757,0,1.162,0.387,1.359,0.756h0.019l0.027-0.657h0.702c-0.027,0.306-0.036,0.667-0.036,1.188V127.49z M185.198,125.482    c0-0.126-0.01-0.243-0.045-0.351c-0.145-0.468-0.522-0.846-1.107-0.846c-0.756,0-1.297,0.639-1.297,1.657    c0,0.846,0.441,1.566,1.287,1.566c0.496,0,0.938-0.306,1.1-0.819c0.045-0.126,0.062-0.279,0.062-0.423V125.482z"/>
		<path d="M189.202,125.194c0-0.558-0.01-1.008-0.037-1.422h0.712l0.045,0.748h0.019c0.314-0.541,0.836-0.847,1.539-0.847    c1.062,0,1.854,0.892,1.854,2.215c0,1.566-0.964,2.341-1.981,2.341c-0.584,0-1.08-0.252-1.341-0.684h-0.019v2.368h-0.791V125.194z     M189.993,126.356c0,0.108,0.01,0.225,0.037,0.324c0.135,0.549,0.621,0.927,1.18,0.927c0.836,0,1.322-0.685,1.322-1.684    c0-0.874-0.449-1.621-1.287-1.621c-0.54,0-1.053,0.378-1.206,0.981c-0.019,0.099-0.046,0.216-0.046,0.315V126.356z"/>
		<path d="M197.482,127.085c0,0.378,0.019,0.748,0.063,1.044h-0.711l-0.072-0.549h-0.027c-0.234,0.342-0.711,0.648-1.332,0.648    c-0.883,0-1.333-0.621-1.333-1.251c0-1.053,0.937-1.629,2.62-1.621v-0.09c0-0.36-0.1-1.018-0.99-1.008    c-0.414,0-0.838,0.117-1.144,0.324l-0.181-0.531c0.361-0.225,0.893-0.378,1.441-0.378c1.341,0,1.665,0.91,1.665,1.783V127.085z     M196.708,125.906c-0.863-0.018-1.846,0.135-1.846,0.981c0,0.522,0.342,0.756,0.738,0.756c0.576,0,0.945-0.36,1.072-0.729    c0.026-0.081,0.035-0.171,0.035-0.252V125.906z"/>
		<path d="M198.767,125.131c0-0.513-0.009-0.954-0.036-1.359h0.693l0.036,0.855h0.026c0.199-0.585,0.685-0.955,1.216-0.955    c0.081,0,0.144,0.009,0.216,0.018v0.748c-0.08-0.009-0.162-0.018-0.27-0.018c-0.559,0-0.955,0.423-1.062,1.008    c-0.018,0.117-0.027,0.243-0.027,0.369v2.332h-0.792V125.131z"/>
		<path d="M202.952,122.728v1.044h1.135v0.604h-1.135v2.34c0,0.541,0.153,0.846,0.594,0.846c0.217,0,0.343-0.018,0.459-0.054    l0.037,0.603c-0.153,0.054-0.396,0.108-0.703,0.108c-0.369,0-0.666-0.126-0.854-0.333c-0.216-0.243-0.306-0.63-0.306-1.143v-2.368    h-0.676v-0.604h0.676v-0.801L202.952,122.728z"/>
		<path d="M204.999,124.952c0-0.459-0.01-0.819-0.037-1.18h0.703l0.045,0.711h0.018c0.217-0.405,0.721-0.811,1.44-0.811    c0.604,0,1.54,0.36,1.54,1.855v2.602h-0.793v-2.512c0-0.702-0.261-1.296-1.008-1.296c-0.514,0-0.918,0.369-1.062,0.81    c-0.036,0.099-0.055,0.243-0.055,0.369v2.629h-0.791V124.952z"/>
		<path d="M210.497,126.095c0.019,1.062,0.693,1.503,1.486,1.503c0.566,0,0.918-0.099,1.206-0.225l0.144,0.567    c-0.279,0.126-0.766,0.279-1.458,0.279c-1.333,0-2.143-0.891-2.143-2.196c0-1.314,0.783-2.35,2.052-2.35    c1.424,0,1.791,1.251,1.791,2.053c0,0.162-0.008,0.279-0.026,0.369H210.497z M212.811,125.528c0.009-0.504-0.207-1.288-1.09-1.288    c-0.811,0-1.152,0.738-1.215,1.288H212.811z"/>
		<path d="M214.61,125.131c0-0.513-0.01-0.954-0.037-1.359h0.693l0.037,0.855h0.026c0.198-0.585,0.685-0.955,1.216-0.955    c0.08,0,0.144,0.009,0.216,0.018v0.748c-0.081-0.009-0.162-0.018-0.271-0.018c-0.559,0-0.954,0.423-1.062,1.008    c-0.018,0.117-0.027,0.243-0.027,0.369v2.332h-0.791V125.131z"/>
		<path d="M223.187,127.49c0,1.008-0.207,1.611-0.621,1.999c-0.433,0.387-1.044,0.522-1.594,0.522c-0.522,0-1.099-0.126-1.449-0.36    l0.198-0.612c0.288,0.189,0.738,0.351,1.278,0.351c0.81,0,1.404-0.423,1.404-1.53v-0.477h-0.019    c-0.233,0.405-0.711,0.729-1.386,0.729c-1.081,0-1.854-0.918-1.854-2.134c0-1.476,0.963-2.305,1.971-2.305    c0.757,0,1.162,0.387,1.36,0.756h0.018l0.027-0.657h0.702c-0.027,0.306-0.036,0.667-0.036,1.188V127.49z M222.395,125.482    c0-0.126-0.01-0.243-0.045-0.351c-0.145-0.468-0.522-0.846-1.107-0.846c-0.756,0-1.297,0.639-1.297,1.657    c0,0.846,0.441,1.566,1.287,1.566c0.496,0,0.938-0.306,1.099-0.819c0.046-0.126,0.063-0.279,0.063-0.423V125.482z"/>
		<path d="M227.588,127.085c0,0.378,0.019,0.748,0.063,1.044h-0.711l-0.072-0.549h-0.026c-0.234,0.342-0.712,0.648-1.333,0.648    c-0.882,0-1.333-0.621-1.333-1.251c0-1.053,0.938-1.629,2.621-1.621v-0.09c0-0.36-0.1-1.018-0.991-1.008    c-0.414,0-0.837,0.117-1.144,0.324l-0.18-0.531c0.36-0.225,0.892-0.378,1.44-0.378c1.341,0,1.665,0.91,1.665,1.783V127.085z     M226.815,125.906c-0.864-0.018-1.846,0.135-1.846,0.981c0,0.522,0.342,0.756,0.738,0.756c0.576,0,0.945-0.36,1.071-0.729    c0.026-0.081,0.036-0.171,0.036-0.252V125.906z"/>
		<path d="M229.248,123.034c-0.288,0-0.478-0.225-0.478-0.486c0-0.279,0.199-0.495,0.496-0.495c0.287,0,0.486,0.216,0.486,0.495    c0,0.261-0.189,0.486-0.496,0.486H229.248z M228.87,128.129v-4.357h0.792v4.357H228.87z"/>
		<path d="M230.988,124.952c0-0.459-0.009-0.819-0.036-1.18h0.702l0.045,0.711h0.019c0.216-0.405,0.72-0.811,1.439-0.811    c0.604,0,1.54,0.36,1.54,1.855v2.602h-0.792v-2.512c0-0.702-0.262-1.296-1.008-1.296c-0.514,0-0.919,0.369-1.062,0.81    c-0.037,0.099-0.055,0.243-0.055,0.369v2.629h-0.792V124.952z"/>
		<path d="M235.856,127.319c0.242,0.144,0.656,0.306,1.053,0.306c0.566,0,0.838-0.279,0.838-0.648c0-0.378-0.226-0.576-0.802-0.792    c-0.792-0.288-1.161-0.72-1.161-1.233c0-0.703,0.576-1.279,1.503-1.279c0.441,0,0.828,0.117,1.062,0.271l-0.188,0.567    c-0.172-0.099-0.486-0.252-0.893-0.252c-0.467,0-0.72,0.27-0.72,0.594c0,0.36,0.253,0.522,0.819,0.747    c0.747,0.279,1.144,0.657,1.144,1.306c0,0.774-0.604,1.314-1.62,1.314c-0.478,0-0.919-0.126-1.225-0.306L235.856,127.319z"/>
		<path d="M238.905,128.489l2.502-6.527h0.621l-2.521,6.527H238.905z"/>
		<path d="M243.551,122.062v3.601c0,1.351,0.604,1.927,1.414,1.927c0.891,0,1.477-0.594,1.477-1.927v-3.601h0.792v3.547    c0,1.864-0.981,2.62-2.296,2.62c-1.242,0-2.178-0.702-2.178-2.593v-3.574H243.551z"/>
		<path d="M248.432,127.175c0.352,0.216,0.855,0.387,1.396,0.387c0.802,0,1.27-0.414,1.27-1.026c0-0.567-0.324-0.9-1.144-1.207    c-0.99-0.342-1.603-0.864-1.603-1.71c0-0.945,0.784-1.647,1.963-1.647c0.612,0,1.071,0.144,1.333,0.288l-0.217,0.648    c-0.189-0.117-0.594-0.288-1.143-0.288c-0.829,0-1.145,0.495-1.145,0.909c0,0.559,0.369,0.837,1.207,1.162    c1.026,0.405,1.539,0.891,1.539,1.782c0,0.928-0.684,1.747-2.115,1.747c-0.586,0-1.225-0.18-1.549-0.396L248.432,127.175z"/>
		<path d="M254.849,121.737h0.792v6.392h-0.792V121.737z"/>
		<path d="M258.806,128.229c-1.171,0-2.089-0.864-2.089-2.242c0-1.458,0.963-2.314,2.161-2.314c1.251,0,2.098,0.91,2.098,2.233    c0,1.621-1.126,2.323-2.161,2.323H258.806z M258.842,127.634c0.756,0,1.323-0.711,1.323-1.702c0-0.738-0.369-1.666-1.306-1.666    c-0.927,0-1.332,0.864-1.332,1.693c0,0.954,0.54,1.674,1.305,1.674H258.842z"/>
		<path d="M261.872,127.319c0.242,0.144,0.656,0.306,1.053,0.306c0.566,0,0.837-0.279,0.837-0.648c0-0.378-0.226-0.576-0.802-0.792    c-0.792-0.288-1.16-0.72-1.16-1.233c0-0.703,0.575-1.279,1.502-1.279c0.441,0,0.828,0.117,1.062,0.271l-0.188,0.567    c-0.171-0.099-0.486-0.252-0.892-0.252c-0.468,0-0.721,0.27-0.721,0.594c0,0.36,0.253,0.522,0.82,0.747    c0.746,0.279,1.143,0.657,1.143,1.306c0,0.774-0.604,1.314-1.62,1.314c-0.478,0-0.918-0.126-1.224-0.306L261.872,127.319z"/>
		<path d="M266.062,126.095c0.019,1.062,0.692,1.503,1.485,1.503c0.567,0,0.918-0.099,1.207-0.225l0.144,0.567    c-0.279,0.126-0.766,0.279-1.458,0.279c-1.333,0-2.143-0.891-2.143-2.196c0-1.314,0.783-2.35,2.052-2.35    c1.423,0,1.792,1.251,1.792,2.053c0,0.162-0.01,0.279-0.027,0.369H266.062z M268.375,125.528c0.01-0.504-0.207-1.288-1.09-1.288    c-0.81,0-1.152,0.738-1.215,1.288H268.375z"/>
		<path d="M270.043,127.319c0.242,0.144,0.657,0.306,1.053,0.306c0.567,0,0.838-0.279,0.838-0.648c0-0.378-0.225-0.576-0.801-0.792    c-0.793-0.288-1.162-0.72-1.162-1.233c0-0.703,0.576-1.279,1.504-1.279c0.441,0,0.828,0.117,1.062,0.271l-0.189,0.567    c-0.172-0.099-0.486-0.252-0.892-0.252c-0.468,0-0.72,0.27-0.72,0.594c0,0.36,0.252,0.522,0.818,0.747    c0.748,0.279,1.145,0.657,1.145,1.306c0,0.774-0.604,1.314-1.621,1.314c-0.477,0-0.918-0.126-1.225-0.306L270.043,127.319z"/>
	</g>
	<g>
		<path d="M146.112,28.228h-1.845v-0.666h4.492v0.666h-1.854v5.402h-0.793V28.228z"/>
		<path d="M148.92,30.631c0-0.513-0.01-0.954-0.037-1.359h0.693l0.037,0.855h0.026c0.198-0.585,0.685-0.955,1.215-0.955    c0.081,0,0.144,0.009,0.216,0.018v0.748c-0.08-0.009-0.162-0.018-0.27-0.018c-0.559,0-0.954,0.423-1.062,1.008    c-0.018,0.117-0.027,0.243-0.027,0.369v2.332h-0.791V30.631z"/>
		<path d="M155.001,32.585c0,0.378,0.019,0.748,0.063,1.044h-0.711l-0.072-0.549h-0.027c-0.234,0.342-0.711,0.648-1.332,0.648    c-0.883,0-1.333-0.621-1.333-1.251c0-1.053,0.937-1.629,2.62-1.621v-0.09c0-0.36-0.1-1.018-0.99-1.008    c-0.414,0-0.838,0.117-1.144,0.324l-0.181-0.531c0.361-0.225,0.892-0.378,1.441-0.378c1.341,0,1.665,0.91,1.665,1.783V32.585z     M154.227,31.406c-0.864-0.018-1.846,0.135-1.846,0.981c0,0.522,0.342,0.756,0.738,0.756c0.576,0,0.945-0.36,1.072-0.729    c0.026-0.081,0.035-0.171,0.035-0.252V31.406z"/>
		<path d="M160.094,27.237v5.267c0,0.387,0.009,0.829,0.036,1.125h-0.712l-0.035-0.756h-0.019c-0.243,0.486-0.765,0.855-1.476,0.855    c-1.055,0-1.873-0.892-1.873-2.215c-0.01-1.458,0.9-2.341,1.953-2.341c0.676,0,1.125,0.315,1.314,0.657h0.018v-2.593H160.094z     M159.301,31.045c0-0.108-0.008-0.234-0.035-0.342c-0.117-0.495-0.549-0.909-1.144-0.909c-0.819,0-1.306,0.72-1.306,1.674    c0,0.891,0.441,1.621,1.287,1.621c0.531,0,1.018-0.36,1.162-0.955c0.027-0.099,0.035-0.207,0.035-0.333V31.045z"/>
		<path d="M161.801,28.534c-0.287,0-0.477-0.225-0.477-0.486c0-0.279,0.198-0.495,0.495-0.495c0.288,0,0.486,0.216,0.486,0.495    c0,0.261-0.188,0.486-0.495,0.486H161.801z M161.424,33.629v-4.357h0.791v4.357H161.424z"/>
		<path d="M163.547,30.452c0-0.459-0.01-0.819-0.037-1.18h0.703l0.045,0.711h0.018c0.217-0.405,0.721-0.811,1.44-0.811    c0.604,0,1.54,0.36,1.54,1.855v2.602h-0.793v-2.512c0-0.702-0.261-1.296-1.008-1.296c-0.514,0-0.918,0.369-1.062,0.81    c-0.036,0.099-0.055,0.243-0.055,0.369v2.629h-0.791V30.452z"/>
		<path d="M172.323,32.99c0,1.008-0.207,1.611-0.621,1.999c-0.432,0.387-1.044,0.522-1.594,0.522c-0.521,0-1.098-0.126-1.449-0.36    l0.199-0.612c0.287,0.189,0.737,0.351,1.277,0.351c0.811,0,1.404-0.423,1.404-1.53v-0.477h-0.018    c-0.234,0.405-0.711,0.729-1.387,0.729c-1.08,0-1.854-0.918-1.854-2.134c0-1.476,0.963-2.305,1.971-2.305    c0.756,0,1.162,0.387,1.359,0.756h0.018l0.027-0.657h0.703c-0.027,0.306-0.037,0.667-0.037,1.188V32.99z M171.532,30.982    c0-0.126-0.01-0.243-0.046-0.351c-0.144-0.468-0.522-0.846-1.106-0.846c-0.757,0-1.297,0.639-1.297,1.657    c0,0.846,0.441,1.566,1.287,1.566c0.495,0,0.937-0.306,1.099-0.819c0.045-0.126,0.063-0.279,0.063-0.423V30.982z"/>
		<path d="M175.535,30.694c0-0.558-0.009-1.008-0.036-1.422h0.711l0.045,0.748h0.019c0.315-0.541,0.837-0.847,1.54-0.847    c1.062,0,1.854,0.892,1.854,2.215c0,1.566-0.963,2.341-1.98,2.341c-0.585,0-1.08-0.252-1.342-0.684h-0.018v2.368h-0.792V30.694z     M176.327,31.856c0,0.108,0.01,0.225,0.036,0.324c0.136,0.549,0.621,0.927,1.18,0.927c0.837,0,1.323-0.685,1.323-1.684    c0-0.874-0.45-1.621-1.287-1.621c-0.541,0-1.054,0.378-1.207,0.981c-0.018,0.099-0.045,0.216-0.045,0.315V31.856z"/>
		<path d="M183.815,32.585c0,0.378,0.019,0.748,0.063,1.044h-0.711l-0.072-0.549h-0.026c-0.234,0.342-0.712,0.648-1.333,0.648    c-0.882,0-1.333-0.621-1.333-1.251c0-1.053,0.938-1.629,2.621-1.621v-0.09c0-0.36-0.1-1.018-0.991-1.008    c-0.414,0-0.837,0.117-1.144,0.324l-0.18-0.531c0.36-0.225,0.892-0.378,1.44-0.378c1.341,0,1.665,0.91,1.665,1.783V32.585z     M183.042,31.406c-0.864-0.018-1.846,0.135-1.846,0.981c0,0.522,0.342,0.756,0.738,0.756c0.576,0,0.945-0.36,1.071-0.729    c0.026-0.081,0.036-0.171,0.036-0.252V31.406z"/>
		<path d="M185.1,30.631c0-0.513-0.009-0.954-0.035-1.359h0.693l0.035,0.855h0.027c0.198-0.585,0.684-0.955,1.215-0.955    c0.082,0,0.145,0.009,0.217,0.018v0.748c-0.081-0.009-0.162-0.018-0.271-0.018c-0.558,0-0.954,0.423-1.062,1.008    c-0.019,0.117-0.027,0.243-0.027,0.369v2.332H185.1V30.631z"/>
		<path d="M189.286,28.228v1.044h1.134v0.604h-1.134v2.34c0,0.541,0.152,0.846,0.594,0.846c0.217,0,0.342-0.018,0.459-0.054    l0.036,0.603c-0.153,0.054-0.396,0.108-0.702,0.108c-0.369,0-0.666-0.126-0.855-0.333c-0.216-0.243-0.306-0.63-0.306-1.143v-2.368    h-0.675v-0.604h0.675v-0.801L189.286,28.228z"/>
		<path d="M191.332,30.452c0-0.459-0.009-0.819-0.036-1.18h0.702l0.045,0.711h0.019c0.216-0.405,0.72-0.811,1.439-0.811    c0.604,0,1.54,0.36,1.54,1.855v2.602h-0.792v-2.512c0-0.702-0.262-1.296-1.008-1.296c-0.514,0-0.919,0.369-1.062,0.81    c-0.037,0.099-0.055,0.243-0.055,0.369v2.629h-0.792V30.452z"/>
		<path d="M196.831,31.595c0.018,1.062,0.693,1.503,1.485,1.503c0.567,0,0.919-0.099,1.206-0.225l0.145,0.567    c-0.279,0.126-0.766,0.279-1.459,0.279c-1.332,0-2.143-0.891-2.143-2.196c0-1.314,0.783-2.35,2.053-2.35    c1.423,0,1.791,1.251,1.791,2.053c0,0.162-0.009,0.279-0.027,0.369H196.831z M199.144,31.028c0.009-0.504-0.207-1.288-1.089-1.288    c-0.811,0-1.152,0.738-1.216,1.288H199.144z"/>
		<path d="M200.943,30.631c0-0.513-0.009-0.954-0.036-1.359h0.693l0.036,0.855h0.026c0.199-0.585,0.685-0.955,1.216-0.955    c0.081,0,0.144,0.009,0.216,0.018v0.748c-0.08-0.009-0.162-0.018-0.27-0.018c-0.559,0-0.955,0.423-1.062,1.008    c-0.018,0.117-0.027,0.243-0.027,0.369v2.332h-0.792V30.631z"/>
		<path d="M205.793,27.237h0.792v6.392h-0.792V27.237z"/>
		<path d="M209.75,33.729c-1.17,0-2.088-0.864-2.088-2.242c0-1.458,0.963-2.314,2.16-2.314c1.251,0,2.098,0.91,2.098,2.233    c0,1.621-1.125,2.323-2.16,2.323H209.75z M209.787,33.134c0.757,0,1.323-0.711,1.323-1.702c0-0.738-0.369-1.666-1.305-1.666    c-0.928,0-1.333,0.864-1.333,1.693c0,0.954,0.54,1.674,1.306,1.674H209.787z"/>
		<path d="M212.815,32.819c0.244,0.144,0.658,0.306,1.054,0.306c0.567,0,0.837-0.279,0.837-0.648c0-0.378-0.225-0.576-0.801-0.792    c-0.793-0.288-1.162-0.72-1.162-1.233c0-0.703,0.576-1.279,1.504-1.279c0.441,0,0.828,0.117,1.062,0.271l-0.189,0.567    c-0.171-0.099-0.486-0.252-0.891-0.252c-0.469,0-0.721,0.27-0.721,0.594c0,0.36,0.252,0.522,0.819,0.747    c0.747,0.279,1.144,0.657,1.144,1.306c0,0.774-0.604,1.314-1.621,1.314c-0.477,0-0.918-0.126-1.225-0.306L212.815,32.819z"/>
		<path d="M217.006,31.595c0.019,1.062,0.693,1.503,1.486,1.503c0.566,0,0.918-0.099,1.206-0.225l0.144,0.567    c-0.279,0.126-0.766,0.279-1.458,0.279c-1.333,0-2.143-0.891-2.143-2.196c0-1.314,0.783-2.35,2.052-2.35    c1.424,0,1.792,1.251,1.792,2.053c0,0.162-0.009,0.279-0.026,0.369H217.006z M219.321,31.028c0.009-0.504-0.207-1.288-1.09-1.288    c-0.811,0-1.152,0.738-1.215,1.288H219.321z"/>
		<path d="M220.989,32.819c0.242,0.144,0.656,0.306,1.053,0.306c0.566,0,0.838-0.279,0.838-0.648c0-0.378-0.226-0.576-0.802-0.792    c-0.792-0.288-1.161-0.72-1.161-1.233c0-0.703,0.576-1.279,1.503-1.279c0.441,0,0.829,0.117,1.062,0.271l-0.188,0.567    c-0.172-0.099-0.486-0.252-0.893-0.252c-0.467,0-0.72,0.27-0.72,0.594c0,0.36,0.253,0.522,0.819,0.747    c0.748,0.279,1.144,0.657,1.144,1.306c0,0.774-0.604,1.314-1.62,1.314c-0.478,0-0.919-0.126-1.225-0.306L220.989,32.819z"/>
		<path d="M224.038,33.989l2.502-6.527h0.621l-2.521,6.527H224.038z"/>
		<path d="M228.684,27.562v3.601c0,1.351,0.604,1.927,1.414,1.927c0.891,0,1.477-0.594,1.477-1.927v-3.601h0.792v3.547    c0,1.864-0.981,2.62-2.296,2.62c-1.242,0-2.178-0.702-2.178-2.593v-3.574H228.684z"/>
		<path d="M233.565,32.675c0.352,0.216,0.855,0.387,1.396,0.387c0.802,0,1.27-0.414,1.27-1.026c0-0.567-0.324-0.9-1.144-1.207    c-0.99-0.342-1.602-0.864-1.602-1.71c0-0.945,0.783-1.647,1.962-1.647c0.612,0,1.071,0.144,1.333,0.288l-0.217,0.648    c-0.189-0.117-0.594-0.288-1.143-0.288c-0.829,0-1.145,0.495-1.145,0.909c0,0.559,0.369,0.837,1.207,1.162    c1.025,0.405,1.539,0.891,1.539,1.782c0,0.928-0.684,1.747-2.115,1.747c-0.586,0-1.225-0.18-1.549-0.396L233.565,32.675z"/>
		<path d="M243.709,32.99c0,1.008-0.207,1.611-0.621,1.999c-0.432,0.387-1.045,0.522-1.594,0.522c-0.521,0-1.098-0.126-1.449-0.36    l0.198-0.612c0.288,0.189,0.737,0.351,1.278,0.351c0.811,0,1.404-0.423,1.404-1.53v-0.477h-0.018    c-0.234,0.405-0.711,0.729-1.387,0.729c-1.08,0-1.854-0.918-1.854-2.134c0-1.476,0.963-2.305,1.972-2.305    c0.756,0,1.161,0.387,1.359,0.756h0.018l0.027-0.657h0.702c-0.026,0.306-0.036,0.667-0.036,1.188V32.99z M242.917,30.982    c0-0.126-0.009-0.243-0.046-0.351c-0.144-0.468-0.521-0.846-1.106-0.846c-0.757,0-1.296,0.639-1.296,1.657    c0,0.846,0.44,1.566,1.287,1.566c0.494,0,0.936-0.306,1.098-0.819c0.045-0.126,0.063-0.279,0.063-0.423V30.982z"/>
		<path d="M248.111,32.585c0,0.378,0.019,0.748,0.063,1.044h-0.711l-0.072-0.549h-0.027c-0.234,0.342-0.711,0.648-1.332,0.648    c-0.883,0-1.333-0.621-1.333-1.251c0-1.053,0.937-1.629,2.62-1.621v-0.09c0-0.36-0.1-1.018-0.99-1.008    c-0.414,0-0.838,0.117-1.144,0.324l-0.181-0.531c0.361-0.225,0.893-0.378,1.441-0.378c1.341,0,1.665,0.91,1.665,1.783V32.585z     M247.336,31.406c-0.863-0.018-1.846,0.135-1.846,0.981c0,0.522,0.342,0.756,0.738,0.756c0.576,0,0.945-0.36,1.072-0.729    c0.026-0.081,0.035-0.171,0.035-0.252V31.406z"/>
		<path d="M249.769,28.534c-0.288,0-0.478-0.225-0.478-0.486c0-0.279,0.199-0.495,0.496-0.495c0.287,0,0.486,0.216,0.486,0.495    c0,0.261-0.189,0.486-0.496,0.486H249.769z M249.391,33.629v-4.357h0.792v4.357H249.391z"/>
		<path d="M251.51,30.452c0-0.459-0.01-0.819-0.037-1.18h0.703l0.045,0.711h0.018c0.217-0.405,0.721-0.811,1.44-0.811    c0.604,0,1.54,0.36,1.54,1.855v2.602h-0.793v-2.512c0-0.702-0.261-1.296-1.008-1.296c-0.514,0-0.918,0.369-1.062,0.81    c-0.036,0.099-0.055,0.243-0.055,0.369v2.629h-0.791V30.452z"/>
		<path d="M256.377,32.819c0.242,0.144,0.656,0.306,1.053,0.306c0.566,0,0.838-0.279,0.838-0.648c0-0.378-0.226-0.576-0.802-0.792    c-0.792-0.288-1.161-0.72-1.161-1.233c0-0.703,0.576-1.279,1.503-1.279c0.441,0,0.828,0.117,1.062,0.271l-0.188,0.567    c-0.172-0.099-0.486-0.252-0.893-0.252c-0.467,0-0.72,0.27-0.72,0.594c0,0.36,0.253,0.522,0.819,0.747    c0.747,0.279,1.144,0.657,1.144,1.306c0,0.774-0.604,1.314-1.62,1.314c-0.478,0-0.919-0.126-1.225-0.306L256.377,32.819z"/>
	</g>
	<path fill="none" stroke="#A7A9AC" stroke-width="0.5" stroke-linejoin="round" stroke-miterlimit="10" d="M14.355,2.945H284.28    M14.355,25.026H284.28 M14.355,46.933H284.28 M14.355,69.014H284.28 M14.355,90.92H284.28 M14.355,113.001H284.28"/>
	<polyline fill="none" stroke="#000000" stroke-width="0.5" stroke-linejoin="round" stroke-miterlimit="10" points="   284.28,134.945 14.28,134.944 14.28,2.945  "/>
	<path fill="none" stroke="#000000" stroke-width="0.5" stroke-linejoin="round" stroke-miterlimit="10" d="M31.558,62.581h4.076    M31.558,77.359h4.076 M33.543,70.057v-7.477 M33.543,77.359v-7.302"/>
	<path fill="none" stroke="#000000" stroke-width="0.5" stroke-linejoin="round" stroke-miterlimit="10" d="M70.099,62.928h4.106    M70.099,77.796h4.106 M72.084,70.405v-7.477 M72.084,77.796v-7.391"/>
	<path fill="none" stroke="#000000" stroke-width="0.5" stroke-linejoin="round" stroke-miterlimit="10" d="M108.64,53.713h4.136    M108.64,69.283h4.136 M110.791,61.537v-7.824 M110.791,69.283v-7.746"/>
	<path fill="none" stroke="#000000" stroke-width="0.5" stroke-linejoin="round" stroke-miterlimit="10" d="M147.181,50.584h4.136    M147.181,65.884h4.136 M149.332,58.234v-7.65 M149.332,65.884v-7.649"/>
	<path fill="none" stroke="#000000" stroke-width="0.5" stroke-linejoin="round" stroke-miterlimit="10" d="M185.722,38.24h4.136    M185.722,53.116h4.136 M187.873,45.716V38.24 M187.873,53.116v-7.4"/>
	<path fill="none" stroke="#000000" stroke-width="0.5" stroke-linejoin="round" stroke-miterlimit="10" d="M224.429,44.325h4.062    M224.429,59.265h4.062 M226.414,51.801v-7.476 M226.414,59.265v-7.464"/>
	<path fill="none" stroke="#000000" stroke-width="0.5" stroke-linejoin="round" stroke-miterlimit="10" d="M262.969,31.459h4.093    M262.969,46.504h4.093 M264.955,38.935v-7.476 M264.955,46.504v-7.569"/>
	<path fill="none" stroke="#000000" stroke-width="0.5" stroke-linejoin="round" stroke-miterlimit="10" d="M31.558,88.661h4.076    M31.558,102.73h4.076 M33.543,95.789v-7.128 M33.543,102.73v-6.941"/>
	<path fill="none" stroke="#000000" stroke-width="0.5" stroke-linejoin="round" stroke-miterlimit="10" d="M70.099,92.312h4.106    M70.099,107.612h4.106 M72.084,99.961v-7.65 M72.084,107.612v-7.65"/>
	<path fill="none" stroke="#000000" stroke-width="0.5" stroke-linejoin="round" stroke-miterlimit="10" d="M108.64,99.788h4.136    M108.64,114.741h4.136 M110.791,107.264v-7.476 M110.791,114.741v-7.478"/>
	<path fill="none" stroke="#000000" stroke-width="0.5" stroke-linejoin="round" stroke-miterlimit="10" d="M147.181,108.481h4.136    M147.181,123.202h4.136 M149.332,115.784v-7.303 M149.332,123.202v-7.418"/>
	<path fill="none" stroke="#000000" stroke-width="0.5" stroke-linejoin="round" stroke-miterlimit="10" d="M185.722,103.613h4.136    M185.722,118.739h4.136 M187.873,111.263v-7.65 M187.873,118.739v-7.477"/>
	<path fill="none" stroke="#000000" stroke-width="0.5" stroke-linejoin="round" stroke-miterlimit="10" d="M224.429,102.396h4.062    M224.429,117.001h4.062 M226.414,109.698v-7.302 M226.414,117.001v-7.303"/>
	<path fill="none" stroke="#000000" stroke-width="0.5" stroke-linejoin="round" stroke-miterlimit="10" d="M262.969,99.093h4.093    M262.969,114.914h4.093 M264.955,107.09v-7.997 M264.955,114.914v-7.824"/>
	<path fill="none" stroke="#000000" stroke-linejoin="round" stroke-miterlimit="10" d="M226.414,51.801l38.541-12.866    M187.873,45.716l38.541,6.085 M149.332,58.234l38.541-12.519 M110.791,61.537l38.541-3.303 M72.084,70.367l38.706-8.83    M33.543,70.057l38.541,0.31"/>
	<g>
		<g>
			<g>
				<line fill="none" stroke="#000000" stroke-linejoin="round" x1="226.414" y1="109.698" x2="227.911" y2="109.597"/>
				
					<line fill="none" stroke="#000000" stroke-linejoin="round" stroke-dasharray="2.8888,1.9259" x1="229.832" y1="109.467" x2="262.498" y2="107.257"/>
				<line fill="none" stroke="#000000" stroke-linejoin="round" x1="263.458" y1="107.191" x2="264.955" y2="107.09"/>
			</g>
			<g>
				<line fill="none" stroke="#000000" stroke-linejoin="round" x1="187.873" y1="111.263" x2="189.372" y2="111.202"/>
				
					<line fill="none" stroke="#000000" stroke-linejoin="round" stroke-dasharray="2.8843,1.9229" x1="191.292" y1="111.124" x2="223.955" y2="109.798"/>
				<line fill="none" stroke="#000000" stroke-linejoin="round" x1="224.915" y1="109.759" x2="226.414" y2="109.698"/>
			</g>
			<g>
				<line fill="none" stroke="#000000" stroke-linejoin="round" x1="149.332" y1="115.784" x2="150.822" y2="115.609"/>
				
					<line fill="none" stroke="#000000" stroke-linejoin="round" stroke-dasharray="2.9031,1.9354" x1="152.744" y1="115.384" x2="185.421" y2="111.55"/>
				<line fill="none" stroke="#000000" stroke-linejoin="round" x1="186.382" y1="111.438" x2="187.873" y2="111.263"/>
			</g>
			<g>
				<line fill="none" stroke="#000000" stroke-linejoin="round" x1="110.791" y1="107.264" x2="112.255" y2="107.587"/>
				
					<line fill="none" stroke="#000000" stroke-linejoin="round" stroke-dasharray="2.9572,1.9714" x1="114.18" y1="108.013" x2="146.905" y2="115.248"/>
				<line fill="none" stroke="#000000" stroke-linejoin="round" x1="147.867" y1="115.46" x2="149.332" y2="115.784"/>
			</g>
			<g>
				<line fill="none" stroke="#000000" stroke-linejoin="round" x1="72.084" y1="99.961" x2="73.559" y2="100.239"/>
				
					<line fill="none" stroke="#000000" stroke-linejoin="round" stroke-dasharray="2.9504,1.967" x1="75.491" y1="100.604" x2="108.35" y2="106.803"/>
				<line fill="none" stroke="#000000" stroke-linejoin="round" x1="109.316" y1="106.985" x2="110.791" y2="107.264"/>
			</g>
			<g>
				<line fill="none" stroke="#000000" stroke-linejoin="round" x1="33.543" y1="95.789" x2="35.035" y2="95.951"/>
				
					<line fill="none" stroke="#000000" stroke-linejoin="round" stroke-dasharray="2.9,1.9333" x1="36.957" y1="96.159" x2="69.632" y2="99.696"/>
				<line fill="none" stroke="#000000" stroke-linejoin="round" x1="70.593" y1="99.8" x2="72.084" y2="99.961"/>
			</g>
		</g>
	</g>
	
		<line fill="none" stroke="#000000" stroke-width="0.5" stroke-linejoin="round" stroke-miterlimit="10" x1="14.355" y1="2.945" x2="11.355" y2="2.945"/>
	
		<line fill="none" stroke="#000000" stroke-width="0.5" stroke-linejoin="round" stroke-miterlimit="10" x1="14.355" y1="24.945" x2="11.355" y2="24.945"/>
	
		<line fill="none" stroke="#000000" stroke-width="0.5" stroke-linejoin="round" stroke-miterlimit="10" x1="14.355" y1="46.945" x2="11.355" y2="46.945"/>
	
		<line fill="none" stroke="#000000" stroke-width="0.5" stroke-linejoin="round" stroke-miterlimit="10" x1="14.355" y1="68.945" x2="11.355" y2="68.945"/>
	
		<line fill="none" stroke="#000000" stroke-width="0.5" stroke-linejoin="round" stroke-miterlimit="10" x1="14.355" y1="90.945" x2="11.355" y2="90.945"/>
	
		<line fill="none" stroke="#000000" stroke-width="0.5" stroke-linejoin="round" stroke-miterlimit="10" x1="14.355" y1="112.945" x2="11.355" y2="112.945"/>
	
		<line fill="none" stroke="#000000" stroke-width="0.5" stroke-linejoin="round" stroke-miterlimit="10" x1="14.355" y1="134.945" x2="11.355" y2="134.945"/>
	
		<line fill="none" stroke="#000000" stroke-width="0.5" stroke-linejoin="round" stroke-miterlimit="10" x1="264.955" y1="134.946" x2="264.955" y2="137.946"/>
	
		<line fill="none" stroke="#000000" stroke-width="0.5" stroke-linejoin="round" stroke-miterlimit="10" x1="226.395" y1="134.946" x2="226.395" y2="137.946"/>
	
		<line fill="none" stroke="#000000" stroke-width="0.5" stroke-linejoin="round" stroke-miterlimit="10" x1="187.835" y1="134.946" x2="187.835" y2="137.946"/>
	
		<line fill="none" stroke="#000000" stroke-width="0.5" stroke-linejoin="round" stroke-miterlimit="10" x1="149.276" y1="134.946" x2="149.276" y2="137.946"/>
	
		<line fill="none" stroke="#000000" stroke-width="0.5" stroke-linejoin="round" stroke-miterlimit="10" x1="110.716" y1="134.946" x2="110.716" y2="137.946"/>
	
		<line fill="none" stroke="#000000" stroke-width="0.5" stroke-linejoin="round" stroke-miterlimit="10" x1="72.156" y1="134.946" x2="72.156" y2="137.946"/>
	
		<line fill="none" stroke="#000000" stroke-width="0.5" stroke-linejoin="round" stroke-miterlimit="10" x1="33.596" y1="134.946" x2="33.596" y2="137.946"/>
	<circle cx="33.543" cy="70.057" r="1.75"/>
	<circle cx="33.543" cy="95.695" r="1.75"/>
	<circle cx="72.084" cy="70.405" r="1.75"/>
	<circle cx="72.084" cy="99.962" r="1.75"/>
	<circle cx="110.791" cy="61.537" r="1.75"/>
	<circle cx="149.332" cy="58.234" r="1.75"/>
	<circle cx="149.332" cy="115.784" r="1.75"/>
	<circle cx="110.791" cy="107.265" r="1.75"/>
	<circle cx="187.873" cy="45.716" r="1.75"/>
	<circle cx="187.873" cy="111.176" r="1.75"/>
	<circle cx="226.414" cy="51.634" r="1.75"/>
	<circle cx="264.955" cy="38.935" r="1.75"/>
	<circle cx="226.414" cy="109.426" r="1.75"/>
</g>
</svg>