<svg xmlns="http://www.w3.org/2000/svg" xmlns:xlink="http://www.w3.org/1999/xlink" version="1.1" x="0px" y="0px" width="303.147px" height="168.061px" viewBox="0 0 303.147 168.061" enable-background="new 0 0 303.147 168.061" xml:space="preserve">
<g id="wide" display="none">
</g>
<g id="text_column">
</g>
<g id="art">
	<g>
		<path d="M2.415,5.285V3.862H0V3.406l2.318-3.318h0.76v3.23h0.728v0.544H3.078v1.423H2.415z M2.415,3.318V1.583    c0-0.271,0.008-0.544,0.024-0.815H2.415c-0.16,0.304-0.288,0.527-0.432,0.768L0.711,3.303v0.016H2.415z"/>
		<path d="M4.863,5.373C4.591,5.373,4.4,5.157,4.4,4.869c0-0.287,0.2-0.504,0.479-0.504s0.472,0.208,0.472,0.504    c0,0.288-0.192,0.504-0.479,0.504H4.863z"/>
		<path d="M7.655,5.373c-1.016,0-1.711-0.951-1.728-2.671C5.927,0.951,6.687,0,7.743,0C8.83,0,9.461,0.976,9.461,2.631    c0,1.767-0.664,2.742-1.799,2.742H7.655z M7.694,4.829c0.712,0,1.056-0.839,1.056-2.167c0-1.279-0.32-2.118-1.056-2.118    c-0.64,0-1.055,0.815-1.055,2.118c-0.016,1.352,0.4,2.167,1.047,2.167H7.694z"/>
		<path d="M0.408,28.455c0.2,0.12,0.655,0.32,1.151,0.32c0.896,0,1.183-0.568,1.175-1.008c-0.008-0.728-0.664-1.039-1.343-1.039H1    V26.2h0.392c0.512,0,1.159-0.264,1.159-0.879c0-0.416-0.264-0.784-0.911-0.784c-0.416,0-0.816,0.185-1.04,0.344l-0.192-0.512    c0.28-0.199,0.808-0.399,1.367-0.399c1.023,0,1.487,0.607,1.487,1.239c0,0.544-0.328,1-0.959,1.231v0.016    c0.64,0.12,1.159,0.6,1.159,1.327c0,0.832-0.656,1.56-1.895,1.56c-0.583,0-1.095-0.184-1.351-0.352L0.408,28.455z"/>
		<path d="M4.863,29.343c-0.272,0-0.463-0.216-0.463-0.504s0.2-0.504,0.479-0.504s0.472,0.208,0.472,0.504    c0,0.288-0.192,0.504-0.479,0.504H4.863z"/>
		<path d="M9.102,24.649H7.119l-0.2,1.335c0.12-0.016,0.232-0.031,0.424-0.031c0.408,0,0.799,0.088,1.119,0.279    c0.408,0.224,0.744,0.68,0.744,1.335c0,1.016-0.808,1.775-1.935,1.775c-0.568,0-1.04-0.16-1.295-0.319l0.176-0.536    c0.216,0.128,0.64,0.288,1.12,0.288c0.655,0,1.231-0.432,1.223-1.136c0-0.663-0.456-1.144-1.487-1.144    c-0.304,0-0.536,0.024-0.728,0.057l0.336-2.495h2.486V24.649z"/>
		<path d="M0.408,52.426c0.2,0.12,0.655,0.32,1.151,0.32c0.896,0,1.183-0.568,1.175-1.008c-0.008-0.728-0.664-1.039-1.343-1.039H1    v-0.528h0.392c0.512,0,1.159-0.264,1.159-0.879c0-0.416-0.264-0.784-0.911-0.784c-0.416,0-0.816,0.185-1.04,0.344L0.408,48.34    c0.28-0.199,0.808-0.399,1.367-0.399c1.023,0,1.487,0.607,1.487,1.239c0,0.544-0.328,1-0.959,1.231v0.016    c0.64,0.12,1.159,0.6,1.159,1.327c0,0.832-0.656,1.56-1.895,1.56c-0.583,0-1.095-0.184-1.351-0.352L0.408,52.426z"/>
		<path d="M4.863,53.313c-0.272,0-0.463-0.216-0.463-0.504s0.2-0.504,0.479-0.504s0.472,0.208,0.472,0.504    c0,0.288-0.192,0.504-0.479,0.504H4.863z"/>
		<path d="M7.655,53.313c-1.016,0-1.711-0.951-1.728-2.671c0-1.751,0.76-2.702,1.815-2.702c1.087,0,1.719,0.976,1.719,2.631    c0,1.767-0.664,2.742-1.799,2.742H7.655z M7.694,52.77c0.712,0,1.056-0.839,1.056-2.166c0-1.279-0.32-2.119-1.056-2.119    c-0.64,0-1.055,0.815-1.055,2.119c-0.016,1.351,0.4,2.166,1.047,2.166H7.694z"/>
		<path d="M0.24,77.195v-0.432l0.552-0.536c1.327-1.263,1.935-1.935,1.935-2.718c0-0.528-0.248-1.016-1.023-1.016    c-0.472,0-0.863,0.239-1.103,0.439l-0.224-0.496c0.352-0.295,0.872-0.527,1.471-0.527c1.111,0,1.583,0.768,1.583,1.512    c0,0.959-0.696,1.734-1.791,2.79l-0.408,0.384v0.016h2.327v0.584H0.24z"/>
		<path d="M4.863,77.283c-0.272,0-0.463-0.216-0.463-0.504c0-0.287,0.2-0.504,0.479-0.504s0.472,0.208,0.472,0.504    c0,0.288-0.192,0.504-0.479,0.504H4.863z"/>
		<path d="M9.102,72.59H7.119l-0.2,1.335c0.12-0.016,0.232-0.031,0.424-0.031c0.408,0,0.799,0.088,1.119,0.279    c0.408,0.224,0.744,0.68,0.744,1.335c0,1.016-0.808,1.775-1.935,1.775c-0.568,0-1.04-0.16-1.295-0.319l0.176-0.536    c0.216,0.128,0.64,0.288,1.12,0.288c0.655,0,1.231-0.432,1.223-1.136c0-0.663-0.456-1.144-1.487-1.144    c-0.304,0-0.536,0.024-0.728,0.057l0.336-2.495h2.486V72.59z"/>
		<path d="M0.24,101.165v-0.432l0.552-0.536c1.327-1.263,1.935-1.935,1.935-2.718c0-0.528-0.248-1.016-1.023-1.016    c-0.472,0-0.863,0.239-1.103,0.439l-0.224-0.496c0.352-0.296,0.872-0.527,1.471-0.527c1.111,0,1.583,0.768,1.583,1.511    c0,0.96-0.696,1.735-1.791,2.791l-0.408,0.384v0.016h2.327v0.584H0.24z"/>
		<path d="M4.863,101.253c-0.272,0-0.463-0.216-0.463-0.504s0.2-0.504,0.479-0.504s0.472,0.208,0.472,0.504    c0,0.288-0.192,0.504-0.479,0.504H4.863z"/>
		<path d="M7.655,101.253c-1.016,0-1.711-0.951-1.728-2.671c0-1.751,0.76-2.702,1.815-2.702c1.087,0,1.719,0.976,1.719,2.631    c0,1.767-0.664,2.742-1.799,2.742H7.655z M7.694,100.709c0.712,0,1.056-0.839,1.056-2.166c0-1.279-0.32-2.119-1.056-2.119    c-0.64,0-1.055,0.815-1.055,2.119c-0.016,1.351,0.4,2.166,1.047,2.166H7.694z"/>
		<path d="M1.767,120.594H1.751l-0.904,0.487l-0.136-0.536l1.135-0.607h0.6v5.197H1.767V120.594z"/>
		<path d="M4.863,125.223c-0.272,0-0.463-0.216-0.463-0.504c0-0.287,0.2-0.504,0.479-0.504s0.472,0.208,0.472,0.504    c0,0.288-0.192,0.504-0.479,0.504H4.863z"/>
		<path d="M9.102,120.529H7.119l-0.2,1.335c0.12-0.016,0.232-0.031,0.424-0.031c0.408,0,0.799,0.088,1.119,0.279    c0.408,0.224,0.744,0.68,0.744,1.335c0,1.016-0.808,1.775-1.935,1.775c-0.568,0-1.04-0.16-1.295-0.319l0.176-0.536    c0.216,0.128,0.64,0.288,1.12,0.288c0.655,0,1.231-0.432,1.223-1.136c0-0.663-0.456-1.144-1.487-1.144    c-0.304,0-0.536,0.024-0.728,0.057l0.336-2.495h2.486V120.529z"/>
		<path d="M1.767,144.564H1.751l-0.904,0.487l-0.136-0.536l1.135-0.607h0.6v5.197H1.767V144.564z"/>
		<path d="M4.863,149.193c-0.272,0-0.463-0.216-0.463-0.504c0-0.287,0.2-0.504,0.479-0.504s0.472,0.208,0.472,0.504    c0,0.288-0.192,0.504-0.479,0.504H4.863z"/>
		<path d="M7.655,149.193c-1.016,0-1.711-0.951-1.728-2.671c0-1.751,0.76-2.702,1.815-2.702c1.087,0,1.719,0.976,1.719,2.631    c0,1.767-0.664,2.742-1.799,2.742H7.655z M7.694,148.649c0.712,0,1.056-0.839,1.056-2.167c0-1.279-0.32-2.118-1.056-2.118    c-0.64,0-1.055,0.815-1.055,2.118c-0.016,1.352,0.4,2.167,1.047,2.167H7.694z"/>
	</g>
	<g>
		<path d="M19.74,152.505h-1.639v-0.592h3.99v0.592h-1.647v4.797H19.74V152.505z"/>
		<path d="M22.309,154.64c0-0.456-0.008-0.848-0.032-1.208h0.616l0.032,0.76h0.024c0.176-0.52,0.608-0.848,1.08-0.848    c0.072,0,0.128,0.008,0.192,0.017v0.663c-0.072-0.008-0.144-0.016-0.24-0.016c-0.496,0-0.848,0.376-0.943,0.896    c-0.016,0.104-0.024,0.216-0.024,0.327v2.071h-0.704V154.64z"/>
		<path d="M27.611,156.375c0,0.336,0.016,0.664,0.056,0.928h-0.632l-0.064-0.487h-0.024c-0.208,0.304-0.631,0.575-1.183,0.575    c-0.784,0-1.184-0.552-1.184-1.111c0-0.936,0.832-1.447,2.327-1.439v-0.08c0-0.319-0.088-0.903-0.879-0.896    c-0.368,0-0.744,0.104-1.016,0.288l-0.16-0.472c0.32-0.2,0.792-0.336,1.279-0.336c1.191,0,1.479,0.808,1.479,1.583V156.375z     M26.923,155.328c-0.768-0.017-1.639,0.119-1.639,0.871c0,0.464,0.304,0.672,0.656,0.672c0.512,0,0.839-0.32,0.951-0.647    c0.024-0.072,0.032-0.152,0.032-0.225V155.328z"/>
		<path d="M32.083,151.625v4.678c0,0.344,0.008,0.735,0.032,0.999h-0.632l-0.032-0.672h-0.016c-0.216,0.432-0.68,0.76-1.312,0.76    c-0.936,0-1.663-0.791-1.663-1.967c-0.008-1.295,0.8-2.079,1.735-2.079c0.6,0,0.999,0.28,1.167,0.584h0.016v-2.303H32.083z     M31.379,155.007c0-0.096-0.008-0.208-0.032-0.304c-0.104-0.439-0.488-0.808-1.016-0.808c-0.728,0-1.159,0.64-1.159,1.487    c0,0.792,0.392,1.439,1.143,1.439c0.472,0,0.904-0.32,1.032-0.848c0.024-0.088,0.032-0.184,0.032-0.296V155.007z"/>
		<path d="M33.588,152.777c-0.256,0-0.424-0.2-0.424-0.432c0-0.248,0.176-0.44,0.44-0.44c0.256,0,0.432,0.192,0.432,0.44    c0,0.231-0.168,0.432-0.44,0.432H33.588z M33.252,157.302v-3.87h0.704v3.87H33.252z"/>
		<path d="M35.124,154.48c0-0.408-0.008-0.728-0.032-1.048h0.624l0.04,0.632h0.016c0.192-0.359,0.64-0.72,1.279-0.72    c0.536,0,1.367,0.32,1.367,1.647v2.311h-0.704v-2.23c0-0.624-0.232-1.151-0.896-1.151c-0.456,0-0.815,0.327-0.943,0.72    c-0.032,0.088-0.048,0.216-0.048,0.327v2.335h-0.704V154.48z"/>
		<path d="M42.875,156.735c0,0.896-0.184,1.431-0.552,1.774c-0.384,0.344-0.928,0.464-1.416,0.464c-0.463,0-0.975-0.111-1.287-0.319    l0.176-0.544c0.256,0.168,0.656,0.312,1.136,0.312c0.719,0,1.247-0.376,1.247-1.359v-0.424h-0.016    c-0.208,0.36-0.631,0.648-1.231,0.648c-0.96,0-1.647-0.816-1.647-1.896c0-1.312,0.855-2.047,1.751-2.047    c0.672,0,1.032,0.344,1.208,0.672h0.016l0.024-0.584h0.624c-0.024,0.272-0.032,0.592-0.032,1.056V156.735z M42.171,154.952    c0-0.112-0.008-0.216-0.04-0.312c-0.128-0.416-0.464-0.752-0.983-0.752c-0.672,0-1.151,0.567-1.151,1.471    c0,0.752,0.392,1.392,1.143,1.392c0.44,0,0.832-0.271,0.976-0.728c0.04-0.112,0.056-0.248,0.056-0.376V154.952z"/>
		<path d="M45.732,154.696c0-0.496-0.008-0.896-0.032-1.264h0.631l0.04,0.664h0.016c0.28-0.479,0.744-0.752,1.367-0.752    c0.944,0,1.647,0.792,1.647,1.967c0,1.392-0.855,2.079-1.759,2.079c-0.52,0-0.959-0.224-1.191-0.607h-0.016v2.103h-0.704V154.696z     M46.436,155.727c0,0.096,0.008,0.2,0.032,0.288c0.12,0.487,0.552,0.823,1.047,0.823c0.744,0,1.175-0.607,1.175-1.495    c0-0.775-0.4-1.439-1.143-1.439c-0.48,0-0.936,0.336-1.072,0.872c-0.016,0.088-0.04,0.191-0.04,0.279V155.727z"/>
		<path d="M53.011,156.375c0,0.336,0.016,0.664,0.056,0.928h-0.632l-0.064-0.487h-0.024c-0.208,0.304-0.632,0.575-1.183,0.575    c-0.784,0-1.184-0.552-1.184-1.111c0-0.936,0.832-1.447,2.327-1.439v-0.08c0-0.319-0.088-0.903-0.879-0.896    c-0.368,0-0.744,0.104-1.016,0.288l-0.16-0.472c0.32-0.2,0.792-0.336,1.279-0.336c1.191,0,1.479,0.808,1.479,1.583V156.375z     M52.323,155.328c-0.768-0.017-1.639,0.119-1.639,0.871c0,0.464,0.304,0.672,0.656,0.672c0.512,0,0.839-0.32,0.952-0.647    c0.024-0.072,0.032-0.152,0.032-0.225V155.328z"/>
		<path d="M54.14,154.64c0-0.456-0.008-0.848-0.032-1.208h0.616l0.032,0.76h0.024c0.176-0.52,0.608-0.848,1.08-0.848    c0.072,0,0.128,0.008,0.192,0.017v0.663c-0.072-0.008-0.144-0.016-0.24-0.016c-0.496,0-0.848,0.376-0.943,0.896    c-0.016,0.104-0.024,0.216-0.024,0.327v2.071H54.14V154.64z"/>
		<path d="M57.795,152.505v0.927h1.007v0.536h-1.007v2.079c0,0.479,0.136,0.751,0.528,0.751c0.192,0,0.304-0.016,0.408-0.048    l0.032,0.536c-0.136,0.048-0.352,0.096-0.624,0.096c-0.328,0-0.592-0.112-0.759-0.296c-0.192-0.216-0.272-0.56-0.272-1.016v-2.103    h-0.6v-0.536h0.6v-0.711L57.795,152.505z"/>
		<path d="M59.596,154.48c0-0.408-0.008-0.728-0.032-1.048h0.624l0.04,0.632h0.016c0.192-0.359,0.64-0.72,1.279-0.72    c0.536,0,1.367,0.32,1.367,1.647v2.311h-0.704v-2.23c0-0.624-0.232-1.151-0.896-1.151c-0.456,0-0.815,0.327-0.943,0.72    c-0.032,0.088-0.048,0.216-0.048,0.327v2.335h-0.704V154.48z"/>
		<path d="M64.436,155.496c0.016,0.943,0.616,1.335,1.319,1.335c0.504,0,0.815-0.088,1.071-0.2l0.128,0.504    c-0.248,0.112-0.68,0.248-1.295,0.248c-1.183,0-1.903-0.792-1.903-1.951c0-1.167,0.696-2.087,1.823-2.087    c1.263,0,1.591,1.111,1.591,1.823c0,0.144-0.008,0.248-0.024,0.328H64.436z M66.491,154.992c0.008-0.448-0.184-1.144-0.968-1.144    c-0.72,0-1.023,0.655-1.079,1.144H66.491z"/>
		<path d="M68.043,154.64c0-0.456-0.008-0.848-0.032-1.208h0.616l0.032,0.76h0.024c0.176-0.52,0.608-0.848,1.08-0.848    c0.072,0,0.128,0.008,0.192,0.017v0.663c-0.072-0.008-0.144-0.016-0.24-0.016c-0.496,0-0.848,0.376-0.944,0.896    c-0.016,0.104-0.024,0.216-0.024,0.327v2.071h-0.704V154.64z"/>
		<path d="M16.652,164.496c0.016,0.943,0.616,1.335,1.319,1.335c0.504,0,0.815-0.088,1.071-0.2l0.128,0.504    c-0.248,0.112-0.68,0.248-1.295,0.248c-1.184,0-1.903-0.792-1.903-1.951c0-1.167,0.696-2.087,1.823-2.087    c1.263,0,1.591,1.111,1.591,1.823c0,0.144-0.008,0.248-0.024,0.328H16.652z M18.707,163.992c0.008-0.448-0.184-1.144-0.967-1.144    c-0.72,0-1.023,0.655-1.08,1.144H18.707z"/>
		<path d="M23.019,166.159c-0.184,0.088-0.592,0.224-1.111,0.224c-1.167,0-1.927-0.792-1.927-1.975c0-1.191,0.815-2.063,2.079-2.063    c0.416,0,0.783,0.104,0.976,0.208l-0.16,0.536c-0.168-0.088-0.432-0.185-0.815-0.185c-0.888,0-1.367,0.664-1.367,1.464    c0,0.896,0.576,1.447,1.343,1.447c0.399,0,0.664-0.097,0.863-0.185L23.019,166.159z"/>
		<path d="M25.371,166.39c-1.04,0-1.855-0.768-1.855-1.991c0-1.295,0.855-2.055,1.919-2.055c1.111,0,1.863,0.808,1.863,1.983    c0,1.438-1,2.062-1.919,2.062H25.371z M25.403,165.863c0.671,0,1.175-0.632,1.175-1.512c0-0.655-0.328-1.479-1.159-1.479    c-0.824,0-1.184,0.768-1.184,1.503c0,0.848,0.479,1.487,1.159,1.487H25.403z"/>
		<path d="M28.188,163.48c0-0.408-0.008-0.728-0.032-1.048h0.624l0.04,0.632h0.016c0.192-0.359,0.64-0.72,1.279-0.72    c0.536,0,1.367,0.32,1.367,1.647v2.311h-0.704v-2.23c0-0.624-0.232-1.151-0.896-1.151c-0.456,0-0.815,0.327-0.943,0.72    c-0.032,0.088-0.048,0.216-0.048,0.327v2.335h-0.704V163.48z"/>
		<path d="M34.203,166.39c-1.04,0-1.855-0.768-1.855-1.991c0-1.295,0.855-2.055,1.919-2.055c1.111,0,1.863,0.808,1.863,1.983    c0,1.438-1,2.062-1.919,2.062H34.203z M34.235,165.863c0.671,0,1.175-0.632,1.175-1.512c0-0.655-0.328-1.479-1.159-1.479    c-0.824,0-1.184,0.768-1.184,1.503c0,0.848,0.479,1.487,1.159,1.487H34.235z"/>
		<path d="M37.02,163.48c0-0.408-0.016-0.728-0.032-1.048h0.616l0.032,0.624h0.024c0.216-0.368,0.576-0.712,1.224-0.712    c0.52,0,0.919,0.32,1.087,0.775h0.016c0.12-0.224,0.28-0.384,0.44-0.503c0.232-0.177,0.48-0.272,0.848-0.272    c0.52,0,1.279,0.336,1.279,1.68v2.278h-0.688v-2.19c0-0.752-0.28-1.191-0.84-1.191c-0.408,0-0.711,0.296-0.839,0.632    c-0.032,0.104-0.056,0.231-0.056,0.352v2.398h-0.688v-2.327c0-0.615-0.272-1.055-0.808-1.055c-0.432,0-0.759,0.352-0.872,0.703    c-0.04,0.104-0.056,0.224-0.056,0.344v2.335H37.02V163.48z"/>
		<path d="M43.844,162.432l0.84,2.287c0.096,0.256,0.192,0.56,0.256,0.791h0.016c0.072-0.231,0.152-0.527,0.248-0.808l0.768-2.271    h0.744l-1.056,2.759c-0.503,1.327-0.847,1.999-1.327,2.423c-0.352,0.296-0.688,0.415-0.863,0.447l-0.176-0.583    c0.176-0.057,0.408-0.168,0.615-0.344c0.192-0.152,0.424-0.424,0.592-0.784c0.032-0.072,0.056-0.128,0.056-0.168    s-0.016-0.096-0.056-0.184l-1.423-3.566H43.844z"/>
		<path d="M49.332,162.432l0.52,1.959c0.104,0.432,0.208,0.84,0.28,1.239h0.024c0.088-0.392,0.216-0.808,0.344-1.231l0.632-1.967    h0.592l0.6,1.936c0.144,0.455,0.256,0.871,0.344,1.263h0.024c0.064-0.392,0.168-0.799,0.296-1.255l0.552-1.943h0.695l-1.247,3.87    h-0.64l-0.592-1.847c-0.136-0.44-0.248-0.824-0.344-1.279h-0.016c-0.096,0.464-0.216,0.871-0.352,1.287l-0.624,1.839h-0.64    l-1.167-3.87H49.332z"/>
		<path d="M55.26,164.496c0.016,0.943,0.616,1.335,1.319,1.335c0.504,0,0.815-0.088,1.071-0.2l0.128,0.504    c-0.248,0.112-0.68,0.248-1.295,0.248c-1.183,0-1.903-0.792-1.903-1.951c0-1.167,0.696-2.087,1.823-2.087    c1.263,0,1.591,1.111,1.591,1.823c0,0.144-0.008,0.248-0.024,0.328H55.26z M57.315,163.992c0.008-0.448-0.184-1.144-0.968-1.144    c-0.72,0-1.023,0.655-1.079,1.144H57.315z"/>
		<path d="M61.594,165.375c0,0.336,0.016,0.664,0.056,0.928h-0.632l-0.064-0.487h-0.024c-0.208,0.304-0.631,0.575-1.183,0.575    c-0.784,0-1.184-0.552-1.184-1.111c0-0.936,0.832-1.447,2.327-1.439v-0.08c0-0.319-0.088-0.903-0.879-0.896    c-0.368,0-0.744,0.104-1.016,0.288l-0.16-0.472c0.32-0.2,0.792-0.336,1.279-0.336c1.191,0,1.479,0.808,1.479,1.583V165.375z     M60.907,164.328c-0.768-0.017-1.639,0.119-1.639,0.871c0,0.464,0.304,0.672,0.656,0.672c0.512,0,0.839-0.32,0.951-0.647    c0.024-0.072,0.032-0.152,0.032-0.225V164.328z"/>
		<path d="M63.427,164.208h0.016c0.096-0.136,0.224-0.304,0.336-0.439l1.143-1.336h0.84l-1.495,1.592l1.703,2.278h-0.855    l-1.328-1.855l-0.36,0.4v1.455h-0.704v-5.677h0.704V164.208z"/>
		<path d="M66.875,164.496c0.016,0.943,0.616,1.335,1.319,1.335c0.504,0,0.815-0.088,1.071-0.2l0.128,0.504    c-0.248,0.112-0.68,0.248-1.295,0.248c-1.184,0-1.903-0.792-1.903-1.951c0-1.167,0.696-2.087,1.823-2.087    c1.263,0,1.591,1.111,1.591,1.823c0,0.144-0.008,0.248-0.024,0.328H66.875z M68.93,163.992c0.008-0.448-0.184-1.144-0.967-1.144    c-0.72,0-1.023,0.655-1.08,1.144H68.93z"/>
		<path d="M70.483,163.64c0-0.456-0.008-0.848-0.032-1.208h0.616l0.032,0.76h0.024c0.176-0.52,0.608-0.848,1.08-0.848    c0.072,0,0.128,0.008,0.192,0.017v0.663c-0.072-0.008-0.144-0.016-0.24-0.016c-0.496,0-0.848,0.376-0.943,0.896    c-0.016,0.104-0.024,0.216-0.024,0.327v2.071h-0.704V163.64z"/>
	</g>
	<g>
		<path d="M183.585,152.505h-1.639v-0.592h3.989v0.592h-1.646v4.797h-0.704V152.505z"/>
		<path d="M186.155,154.64c0-0.456-0.008-0.848-0.032-1.208h0.616l0.031,0.76h0.023c0.177-0.52,0.608-0.848,1.08-0.848    c0.072,0,0.128,0.008,0.191,0.017v0.663c-0.071-0.008-0.144-0.016-0.239-0.016c-0.496,0-0.848,0.376-0.943,0.896    c-0.017,0.104-0.024,0.216-0.024,0.327v2.071h-0.703V154.64z"/>
		<path d="M191.457,156.375c0,0.336,0.017,0.664,0.056,0.928h-0.631l-0.064-0.487h-0.023c-0.209,0.304-0.632,0.575-1.184,0.575    c-0.783,0-1.184-0.552-1.184-1.111c0-0.936,0.832-1.447,2.326-1.439v-0.08c0-0.319-0.088-0.903-0.879-0.896    c-0.367,0-0.744,0.104-1.016,0.288l-0.16-0.472c0.32-0.2,0.792-0.336,1.279-0.336c1.191,0,1.479,0.808,1.479,1.583V156.375z     M190.769,155.328c-0.768-0.017-1.64,0.119-1.64,0.871c0,0.464,0.305,0.672,0.656,0.672c0.512,0,0.84-0.32,0.951-0.647    c0.024-0.072,0.032-0.152,0.032-0.225V155.328z"/>
		<path d="M195.928,151.625v4.678c0,0.344,0.008,0.735,0.032,0.999h-0.632l-0.032-0.672h-0.016c-0.216,0.432-0.68,0.76-1.312,0.76    c-0.936,0-1.663-0.791-1.663-1.967c-0.008-1.295,0.8-2.079,1.735-2.079c0.6,0,0.999,0.28,1.167,0.584h0.017v-2.303H195.928z     M195.225,155.007c0-0.096-0.008-0.208-0.032-0.304c-0.104-0.439-0.487-0.808-1.016-0.808c-0.728,0-1.159,0.64-1.159,1.487    c0,0.792,0.392,1.439,1.143,1.439c0.473,0,0.904-0.32,1.032-0.848c0.024-0.088,0.032-0.184,0.032-0.296V155.007z"/>
		<path d="M197.434,152.777c-0.256,0-0.424-0.2-0.424-0.432c0-0.248,0.176-0.44,0.439-0.44c0.256,0,0.432,0.192,0.432,0.44    c0,0.231-0.168,0.432-0.439,0.432H197.434z M197.098,157.302v-3.87h0.703v3.87H197.098z"/>
		<path d="M198.969,154.48c0-0.408-0.008-0.728-0.031-1.048h0.623l0.041,0.632h0.016c0.191-0.359,0.64-0.72,1.279-0.72    c0.535,0,1.367,0.32,1.367,1.647v2.311h-0.703v-2.23c0-0.624-0.232-1.151-0.896-1.151c-0.455,0-0.814,0.327-0.943,0.72    c-0.031,0.088-0.048,0.216-0.048,0.327v2.335h-0.704V154.48z"/>
		<path d="M206.721,156.735c0,0.896-0.185,1.431-0.553,1.774c-0.383,0.344-0.928,0.464-1.415,0.464    c-0.464,0-0.976-0.111-1.287-0.319l0.176-0.544c0.256,0.168,0.655,0.312,1.136,0.312c0.719,0,1.247-0.376,1.247-1.359v-0.424    h-0.017c-0.207,0.36-0.631,0.648-1.23,0.648c-0.96,0-1.647-0.816-1.647-1.896c0-1.312,0.855-2.047,1.751-2.047    c0.672,0,1.031,0.344,1.207,0.672h0.017l0.024-0.584h0.623c-0.023,0.272-0.031,0.592-0.031,1.056V156.735z M206.017,154.952    c0-0.112-0.009-0.216-0.04-0.312c-0.128-0.416-0.464-0.752-0.983-0.752c-0.672,0-1.151,0.567-1.151,1.471    c0,0.752,0.392,1.392,1.143,1.392c0.44,0,0.832-0.271,0.977-0.728c0.039-0.112,0.056-0.248,0.056-0.376V154.952z"/>
		<path d="M209.578,154.696c0-0.496-0.008-0.896-0.032-1.264h0.632l0.04,0.664h0.016c0.28-0.479,0.744-0.752,1.367-0.752    c0.944,0,1.647,0.792,1.647,1.967c0,1.392-0.855,2.079-1.759,2.079c-0.52,0-0.959-0.224-1.191-0.607h-0.016v2.103h-0.704V154.696z     M210.282,155.727c0,0.096,0.008,0.2,0.031,0.288c0.12,0.487,0.553,0.823,1.048,0.823c0.743,0,1.175-0.607,1.175-1.495    c0-0.775-0.399-1.439-1.143-1.439c-0.48,0-0.936,0.336-1.072,0.872c-0.016,0.088-0.039,0.191-0.039,0.279V155.727z"/>
		<path d="M216.856,156.375c0,0.336,0.017,0.664,0.057,0.928h-0.632l-0.063-0.487h-0.024c-0.208,0.304-0.632,0.575-1.183,0.575    c-0.784,0-1.184-0.552-1.184-1.111c0-0.936,0.831-1.447,2.326-1.439v-0.08c0-0.319-0.088-0.903-0.879-0.896    c-0.368,0-0.744,0.104-1.016,0.288l-0.16-0.472c0.32-0.2,0.791-0.336,1.279-0.336c1.191,0,1.479,0.808,1.479,1.583V156.375z     M216.168,155.328c-0.768-0.017-1.639,0.119-1.639,0.871c0,0.464,0.304,0.672,0.656,0.672c0.512,0,0.839-0.32,0.951-0.647    c0.023-0.072,0.031-0.152,0.031-0.225V155.328z"/>
		<path d="M217.985,154.64c0-0.456-0.008-0.848-0.031-1.208h0.615l0.032,0.76h0.024c0.176-0.52,0.607-0.848,1.079-0.848    c0.071,0,0.128,0.008,0.192,0.017v0.663c-0.072-0.008-0.145-0.016-0.24-0.016c-0.496,0-0.848,0.376-0.943,0.896    c-0.016,0.104-0.024,0.216-0.024,0.327v2.071h-0.704V154.64z"/>
		<path d="M221.641,152.505v0.927h1.008v0.536h-1.008v2.079c0,0.479,0.136,0.751,0.527,0.751c0.192,0,0.305-0.016,0.408-0.048    l0.032,0.536c-0.136,0.048-0.353,0.096-0.624,0.096c-0.328,0-0.592-0.112-0.76-0.296c-0.191-0.216-0.271-0.56-0.271-1.016v-2.103    h-0.6v-0.536h0.6v-0.711L221.641,152.505z"/>
		<path d="M223.442,154.48c0-0.408-0.008-0.728-0.032-1.048h0.624l0.039,0.632h0.017c0.192-0.359,0.64-0.72,1.279-0.72    c0.536,0,1.367,0.32,1.367,1.647v2.311h-0.704v-2.23c0-0.624-0.231-1.151-0.895-1.151c-0.456,0-0.816,0.327-0.943,0.72    c-0.033,0.088-0.049,0.216-0.049,0.327v2.335h-0.703V154.48z"/>
		<path d="M228.282,155.496c0.016,0.943,0.615,1.335,1.318,1.335c0.504,0,0.816-0.088,1.072-0.2l0.127,0.504    c-0.247,0.112-0.68,0.248-1.295,0.248c-1.184,0-1.902-0.792-1.902-1.951c0-1.167,0.695-2.087,1.822-2.087    c1.264,0,1.592,1.111,1.592,1.823c0,0.144-0.008,0.248-0.024,0.328H228.282z M230.336,154.992    c0.008-0.448-0.184-1.144-0.968-1.144c-0.72,0-1.023,0.655-1.079,1.144H230.336z"/>
		<path d="M231.889,154.64c0-0.456-0.008-0.848-0.031-1.208h0.615l0.031,0.76h0.024c0.177-0.52,0.608-0.848,1.079-0.848    c0.072,0,0.129,0.008,0.192,0.017v0.663c-0.071-0.008-0.144-0.016-0.239-0.016c-0.496,0-0.848,0.376-0.944,0.896    c-0.016,0.104-0.024,0.216-0.024,0.327v2.071h-0.703V154.64z"/>
		<path d="M182.954,163.48c0-0.408-0.016-0.728-0.031-1.048h0.615l0.032,0.624h0.024c0.216-0.368,0.575-0.712,1.223-0.712    c0.52,0,0.92,0.32,1.088,0.775h0.016c0.12-0.224,0.28-0.384,0.439-0.503c0.232-0.177,0.48-0.272,0.848-0.272    c0.52,0,1.279,0.336,1.279,1.68v2.278h-0.688v-2.19c0-0.752-0.279-1.191-0.84-1.191c-0.407,0-0.711,0.296-0.839,0.632    c-0.032,0.104-0.056,0.231-0.056,0.352v2.398h-0.688v-2.327c0-0.615-0.272-1.055-0.809-1.055c-0.432,0-0.759,0.352-0.871,0.703    c-0.04,0.104-0.056,0.224-0.056,0.344v2.335h-0.688V163.48z"/>
		<path d="M189.961,161.777c-0.256,0-0.424-0.2-0.424-0.432c0-0.248,0.177-0.44,0.44-0.44c0.256,0,0.432,0.192,0.432,0.44    c0,0.231-0.168,0.432-0.439,0.432H189.961z M189.625,166.302v-3.87h0.704v3.87H189.625z"/>
		<path d="M191.499,160.625h0.703v5.677h-0.703V160.625z"/>
		<path d="M193.721,161.777c-0.256,0-0.424-0.2-0.424-0.432c0-0.248,0.177-0.44,0.44-0.44c0.256,0,0.432,0.192,0.432,0.44    c0,0.231-0.168,0.432-0.439,0.432H193.721z M193.385,166.302v-3.87h0.704v3.87H193.385z"/>
		<path d="M196.106,161.505v0.927h1.007v0.536h-1.007v2.079c0,0.479,0.136,0.751,0.527,0.751c0.191,0,0.304-0.016,0.408-0.048    l0.031,0.536c-0.136,0.048-0.352,0.096-0.623,0.096c-0.328,0-0.592-0.112-0.76-0.296c-0.191-0.216-0.271-0.56-0.271-1.016v-2.103    h-0.6v-0.536h0.6v-0.711L196.106,161.505z"/>
		<path d="M200.632,165.375c0,0.336,0.017,0.664,0.056,0.928h-0.631l-0.064-0.487h-0.023c-0.209,0.304-0.632,0.575-1.184,0.575    c-0.783,0-1.184-0.552-1.184-1.111c0-0.936,0.832-1.447,2.326-1.439v-0.08c0-0.319-0.088-0.903-0.879-0.896    c-0.367,0-0.744,0.104-1.016,0.288l-0.16-0.472c0.32-0.2,0.792-0.336,1.279-0.336c1.191,0,1.479,0.808,1.479,1.583V165.375z     M199.945,164.328c-0.768-0.017-1.64,0.119-1.64,0.871c0,0.464,0.305,0.672,0.656,0.672c0.512,0,0.84-0.32,0.951-0.647    c0.024-0.072,0.032-0.152,0.032-0.225V164.328z"/>
		<path d="M201.762,163.64c0-0.456-0.008-0.848-0.032-1.208h0.616l0.031,0.76h0.023c0.177-0.52,0.608-0.848,1.08-0.848    c0.072,0,0.128,0.008,0.191,0.017v0.663c-0.071-0.008-0.144-0.016-0.239-0.016c-0.496,0-0.848,0.376-0.943,0.896    c-0.017,0.104-0.024,0.216-0.024,0.327v2.071h-0.703V163.64z"/>
		<path d="M204.833,162.432l0.84,2.287c0.096,0.256,0.192,0.56,0.256,0.791h0.016c0.072-0.231,0.152-0.527,0.248-0.808l0.768-2.271    h0.743l-1.055,2.759c-0.504,1.327-0.848,1.999-1.328,2.423c-0.352,0.296-0.688,0.415-0.863,0.447l-0.176-0.583    c0.176-0.057,0.408-0.168,0.615-0.344c0.192-0.152,0.424-0.424,0.592-0.784c0.033-0.072,0.057-0.128,0.057-0.168    s-0.016-0.096-0.057-0.184l-1.423-3.566H204.833z"/>
		<path d="M210.322,162.432l0.52,1.959c0.104,0.432,0.208,0.84,0.28,1.239h0.023c0.088-0.392,0.216-0.808,0.344-1.231l0.632-1.967    h0.592l0.6,1.936c0.144,0.455,0.256,0.871,0.344,1.263h0.024c0.063-0.392,0.168-0.799,0.295-1.255l0.553-1.943h0.695l-1.248,3.87    h-0.639l-0.592-1.847c-0.137-0.44-0.248-0.824-0.344-1.279h-0.017c-0.096,0.464-0.216,0.871-0.352,1.287l-0.624,1.839h-0.64    l-1.167-3.87H210.322z"/>
		<path d="M216.25,164.496c0.017,0.943,0.616,1.335,1.319,1.335c0.504,0,0.815-0.088,1.071-0.2l0.128,0.504    c-0.248,0.112-0.68,0.248-1.295,0.248c-1.184,0-1.903-0.792-1.903-1.951c0-1.167,0.696-2.087,1.823-2.087    c1.264,0,1.591,1.111,1.591,1.823c0,0.144-0.008,0.248-0.024,0.328H216.25z M218.304,163.992c0.009-0.448-0.184-1.144-0.968-1.144    c-0.719,0-1.023,0.655-1.079,1.144H218.304z"/>
		<path d="M222.584,165.375c0,0.336,0.016,0.664,0.056,0.928h-0.632l-0.064-0.487h-0.023c-0.208,0.304-0.632,0.575-1.184,0.575    c-0.783,0-1.184-0.552-1.184-1.111c0-0.936,0.832-1.447,2.327-1.439v-0.08c0-0.319-0.088-0.903-0.88-0.896    c-0.367,0-0.743,0.104-1.016,0.288l-0.159-0.472c0.319-0.2,0.792-0.336,1.279-0.336c1.191,0,1.479,0.808,1.479,1.583V165.375z     M221.897,164.328c-0.768-0.017-1.64,0.119-1.64,0.871c0,0.464,0.304,0.672,0.655,0.672c0.512,0,0.84-0.32,0.952-0.647    c0.024-0.072,0.032-0.152,0.032-0.225V164.328z"/>
		<path d="M224.417,164.208h0.017c0.097-0.136,0.224-0.304,0.336-0.439l1.144-1.336h0.84l-1.496,1.592l1.703,2.278h-0.855    l-1.327-1.855l-0.36,0.4v1.455h-0.703v-5.677h0.703V164.208z"/>
		<path d="M227.866,164.496c0.016,0.943,0.615,1.335,1.318,1.335c0.504,0,0.816-0.088,1.072-0.2l0.127,0.504    c-0.247,0.112-0.68,0.248-1.295,0.248c-1.184,0-1.902-0.792-1.902-1.951c0-1.167,0.695-2.087,1.822-2.087    c1.264,0,1.592,1.111,1.592,1.823c0,0.144-0.008,0.248-0.024,0.328H227.866z M229.92,163.992c0.008-0.448-0.184-1.144-0.968-1.144    c-0.72,0-1.023,0.655-1.079,1.144H229.92z"/>
		<path d="M231.473,163.64c0-0.456-0.008-0.848-0.031-1.208h0.615l0.032,0.76h0.024c0.176-0.52,0.607-0.848,1.079-0.848    c0.071,0,0.128,0.008,0.192,0.017v0.663c-0.072-0.008-0.145-0.016-0.24-0.016c-0.496,0-0.848,0.376-0.943,0.896    c-0.016,0.104-0.024,0.216-0.024,0.327v2.071h-0.704V163.64z"/>
	</g>
	<g>
		<path d="M247.588,152.505h-1.639v-0.592h3.989v0.592h-1.647v4.797h-0.703V152.505z"/>
		<path d="M250.157,154.64c0-0.456-0.008-0.848-0.031-1.208h0.615l0.031,0.76h0.024c0.177-0.52,0.608-0.848,1.079-0.848    c0.072,0,0.129,0.008,0.192,0.017v0.663c-0.071-0.008-0.144-0.016-0.239-0.016c-0.496,0-0.848,0.376-0.943,0.896    c-0.017,0.104-0.025,0.216-0.025,0.327v2.071h-0.703V154.64z"/>
		<path d="M255.459,156.375c0,0.336,0.016,0.664,0.056,0.928h-0.632l-0.064-0.487h-0.023c-0.208,0.304-0.631,0.575-1.184,0.575    c-0.783,0-1.184-0.552-1.184-1.111c0-0.936,0.832-1.447,2.327-1.439v-0.08c0-0.319-0.088-0.903-0.88-0.896    c-0.367,0-0.743,0.104-1.016,0.288l-0.159-0.472c0.319-0.2,0.792-0.336,1.279-0.336c1.191,0,1.479,0.808,1.479,1.583V156.375z     M254.772,155.328c-0.768-0.017-1.64,0.119-1.64,0.871c0,0.464,0.304,0.672,0.655,0.672c0.512,0,0.84-0.32,0.951-0.647    c0.025-0.072,0.033-0.152,0.033-0.225V155.328z"/>
		<path d="M259.93,151.625v4.678c0,0.344,0.008,0.735,0.033,0.999h-0.633l-0.031-0.672h-0.016c-0.217,0.432-0.68,0.76-1.312,0.76    c-0.936,0-1.662-0.791-1.662-1.967c-0.008-1.295,0.799-2.079,1.734-2.079c0.6,0,1,0.28,1.168,0.584h0.016v-2.303H259.93z     M259.227,155.007c0-0.096-0.008-0.208-0.031-0.304c-0.104-0.439-0.488-0.808-1.016-0.808c-0.729,0-1.16,0.64-1.16,1.487    c0,0.792,0.393,1.439,1.144,1.439c0.472,0,0.903-0.32,1.032-0.848c0.023-0.088,0.031-0.184,0.031-0.296V155.007z"/>
		<path d="M261.436,152.777c-0.256,0-0.424-0.2-0.424-0.432c0-0.248,0.176-0.44,0.44-0.44c0.256,0,0.432,0.192,0.432,0.44    c0,0.231-0.168,0.432-0.44,0.432H261.436z M261.1,157.302v-3.87h0.704v3.87H261.1z"/>
		<path d="M262.972,154.48c0-0.408-0.008-0.728-0.032-1.048h0.624l0.04,0.632h0.016c0.192-0.359,0.641-0.72,1.279-0.72    c0.536,0,1.367,0.32,1.367,1.647v2.311h-0.703v-2.23c0-0.624-0.232-1.151-0.896-1.151c-0.456,0-0.815,0.327-0.943,0.72    c-0.032,0.088-0.048,0.216-0.048,0.327v2.335h-0.704V154.48z"/>
		<path d="M270.723,156.735c0,0.896-0.184,1.431-0.552,1.774c-0.384,0.344-0.928,0.464-1.415,0.464    c-0.464,0-0.976-0.111-1.287-0.319l0.176-0.544c0.256,0.168,0.655,0.312,1.135,0.312c0.72,0,1.248-0.376,1.248-1.359v-0.424    h-0.017c-0.208,0.36-0.632,0.648-1.231,0.648c-0.959,0-1.646-0.816-1.646-1.896c0-1.312,0.855-2.047,1.75-2.047    c0.672,0,1.032,0.344,1.208,0.672h0.017l0.023-0.584h0.623c-0.023,0.272-0.031,0.592-0.031,1.056V156.735z M270.02,154.952    c0-0.112-0.009-0.216-0.041-0.312c-0.127-0.416-0.463-0.752-0.982-0.752c-0.672,0-1.152,0.567-1.152,1.471    c0,0.752,0.393,1.392,1.144,1.392c0.44,0,0.831-0.271,0.976-0.728c0.04-0.112,0.057-0.248,0.057-0.376V154.952z"/>
		<path d="M273.581,154.696c0-0.496-0.008-0.896-0.032-1.264h0.632l0.039,0.664h0.017c0.28-0.479,0.743-0.752,1.367-0.752    c0.944,0,1.647,0.792,1.647,1.967c0,1.392-0.855,2.079-1.76,2.079c-0.52,0-0.959-0.224-1.191-0.607h-0.016v2.103h-0.703V154.696z     M274.284,155.727c0,0.096,0.008,0.2,0.032,0.288c0.12,0.487,0.552,0.823,1.048,0.823c0.743,0,1.175-0.607,1.175-1.495    c0-0.775-0.399-1.439-1.144-1.439c-0.479,0-0.936,0.336-1.071,0.872c-0.017,0.088-0.04,0.191-0.04,0.279V155.727z"/>
		<path d="M280.859,156.375c0,0.336,0.017,0.664,0.056,0.928h-0.631l-0.064-0.487h-0.023c-0.209,0.304-0.633,0.575-1.184,0.575    c-0.783,0-1.184-0.552-1.184-1.111c0-0.936,0.832-1.447,2.326-1.439v-0.08c0-0.319-0.088-0.903-0.879-0.896    c-0.367,0-0.744,0.104-1.016,0.288l-0.16-0.472c0.32-0.2,0.792-0.336,1.279-0.336c1.191,0,1.479,0.808,1.479,1.583V156.375z     M280.171,155.328c-0.768-0.017-1.64,0.119-1.64,0.871c0,0.464,0.305,0.672,0.656,0.672c0.512,0,0.84-0.32,0.951-0.647    c0.024-0.072,0.032-0.152,0.032-0.225V155.328z"/>
		<path d="M281.988,154.64c0-0.456-0.008-0.848-0.032-1.208h0.616l0.032,0.76h0.023c0.176-0.52,0.607-0.848,1.08-0.848    c0.071,0,0.127,0.008,0.191,0.017v0.663c-0.072-0.008-0.145-0.016-0.24-0.016c-0.496,0-0.848,0.376-0.943,0.896    c-0.016,0.104-0.023,0.216-0.023,0.327v2.071h-0.704V154.64z"/>
		<path d="M285.643,152.505v0.927h1.008v0.536h-1.008v2.079c0,0.479,0.137,0.751,0.528,0.751c0.192,0,0.304-0.016,0.407-0.048    l0.033,0.536c-0.137,0.048-0.353,0.096-0.625,0.096c-0.327,0-0.592-0.112-0.759-0.296c-0.192-0.216-0.272-0.56-0.272-1.016v-2.103    h-0.6v-0.536h0.6v-0.711L285.643,152.505z"/>
		<path d="M287.444,154.48c0-0.408-0.008-0.728-0.031-1.048h0.623l0.04,0.632h0.017c0.191-0.359,0.639-0.72,1.279-0.72    c0.535,0,1.367,0.32,1.367,1.647v2.311h-0.704v-2.23c0-0.624-0.231-1.151-0.896-1.151c-0.455,0-0.815,0.327-0.943,0.72    c-0.032,0.088-0.049,0.216-0.049,0.327v2.335h-0.703V154.48z"/>
		<path d="M292.284,155.496c0.016,0.943,0.615,1.335,1.319,1.335c0.504,0,0.815-0.088,1.071-0.2l0.128,0.504    c-0.247,0.112-0.68,0.248-1.296,0.248c-1.183,0-1.902-0.792-1.902-1.951c0-1.167,0.695-2.087,1.823-2.087    c1.263,0,1.591,1.111,1.591,1.823c0,0.144-0.008,0.248-0.023,0.328H292.284z M294.338,154.992    c0.008-0.448-0.184-1.144-0.967-1.144c-0.721,0-1.023,0.655-1.08,1.144H294.338z"/>
		<path d="M295.891,154.64c0-0.456-0.008-0.848-0.031-1.208h0.615l0.032,0.76h0.024c0.176-0.52,0.607-0.848,1.079-0.848    c0.071,0,0.128,0.008,0.192,0.017v0.663c-0.072-0.008-0.145-0.016-0.24-0.016c-0.496,0-0.848,0.376-0.943,0.896    c-0.016,0.104-0.024,0.216-0.024,0.327v2.071h-0.704V154.64z"/>
		<path d="M244.84,163.48c0-0.408-0.016-0.728-0.031-1.048h0.615l0.031,0.624h0.024c0.216-0.368,0.575-0.712,1.224-0.712    c0.52,0,0.92,0.32,1.088,0.775h0.016c0.119-0.224,0.279-0.384,0.439-0.503c0.232-0.177,0.48-0.272,0.848-0.272    c0.52,0,1.279,0.336,1.279,1.68v2.278h-0.688v-2.19c0-0.752-0.279-1.191-0.84-1.191c-0.408,0-0.711,0.296-0.84,0.632    c-0.031,0.104-0.056,0.231-0.056,0.352v2.398h-0.688v-2.327c0-0.615-0.272-1.055-0.808-1.055c-0.432,0-0.76,0.352-0.871,0.703    c-0.041,0.104-0.057,0.224-0.057,0.344v2.335h-0.688V163.48z"/>
		<path d="M251.848,161.777c-0.256,0-0.424-0.2-0.424-0.432c0-0.248,0.176-0.44,0.439-0.44c0.256,0,0.432,0.192,0.432,0.44    c0,0.231-0.168,0.432-0.439,0.432H251.848z M251.512,166.302v-3.87h0.703v3.87H251.512z"/>
		<path d="M253.384,160.625h0.704v5.677h-0.704V160.625z"/>
		<path d="M255.608,161.777c-0.256,0-0.424-0.2-0.424-0.432c0-0.248,0.176-0.44,0.439-0.44c0.256,0,0.432,0.192,0.432,0.44    c0,0.231-0.168,0.432-0.439,0.432H255.608z M255.272,166.302v-3.87h0.703v3.87H255.272z"/>
		<path d="M257.992,161.505v0.927h1.007v0.536h-1.007v2.079c0,0.479,0.136,0.751,0.528,0.751c0.191,0,0.303-0.016,0.407-0.048    l0.032,0.536c-0.137,0.048-0.352,0.096-0.624,0.096c-0.327,0-0.591-0.112-0.759-0.296c-0.192-0.216-0.272-0.56-0.272-1.016v-2.103    h-0.6v-0.536h0.6v-0.711L257.992,161.505z"/>
		<path d="M262.518,165.375c0,0.336,0.017,0.664,0.057,0.928h-0.632l-0.063-0.487h-0.024c-0.208,0.304-0.632,0.575-1.183,0.575    c-0.784,0-1.184-0.552-1.184-1.111c0-0.936,0.831-1.447,2.326-1.439v-0.08c0-0.319-0.088-0.903-0.879-0.896    c-0.368,0-0.744,0.104-1.016,0.288l-0.16-0.472c0.32-0.2,0.791-0.336,1.279-0.336c1.191,0,1.479,0.808,1.479,1.583V165.375z     M261.831,164.328c-0.768-0.017-1.639,0.119-1.639,0.871c0,0.464,0.304,0.672,0.656,0.672c0.512,0,0.839-0.32,0.951-0.647    c0.023-0.072,0.031-0.152,0.031-0.225V164.328z"/>
		<path d="M263.648,163.64c0-0.456-0.008-0.848-0.032-1.208h0.616l0.032,0.76h0.023c0.176-0.52,0.607-0.848,1.08-0.848    c0.071,0,0.127,0.008,0.191,0.017v0.663c-0.072-0.008-0.145-0.016-0.24-0.016c-0.496,0-0.848,0.376-0.943,0.896    c-0.016,0.104-0.023,0.216-0.023,0.327v2.071h-0.704V163.64z"/>
		<path d="M266.719,162.432l0.84,2.287c0.096,0.256,0.192,0.56,0.256,0.791h0.016c0.072-0.231,0.152-0.527,0.248-0.808l0.768-2.271    h0.744l-1.055,2.759c-0.504,1.327-0.848,1.999-1.328,2.423c-0.352,0.296-0.688,0.415-0.863,0.447l-0.176-0.583    c0.176-0.057,0.408-0.168,0.615-0.344c0.191-0.152,0.424-0.424,0.592-0.784c0.032-0.072,0.057-0.128,0.057-0.168    s-0.017-0.096-0.057-0.184l-1.424-3.566H266.719z"/>
		<path d="M271.833,165.583c0.215,0.128,0.583,0.272,0.936,0.272c0.503,0,0.743-0.248,0.743-0.576c0-0.336-0.2-0.512-0.712-0.703    c-0.703-0.256-1.031-0.641-1.031-1.096c0-0.624,0.512-1.136,1.336-1.136c0.391,0,0.734,0.104,0.943,0.24l-0.168,0.504    c-0.152-0.088-0.432-0.225-0.792-0.225c-0.416,0-0.64,0.24-0.64,0.528c0,0.319,0.224,0.464,0.728,0.663    c0.663,0.248,1.015,0.584,1.015,1.159c0,0.688-0.535,1.168-1.438,1.168c-0.424,0-0.815-0.112-1.087-0.271L271.833,165.583z"/>
		<path d="M275.944,161.505v0.927h1.007v0.536h-1.007v2.079c0,0.479,0.135,0.751,0.527,0.751c0.191,0,0.304-0.016,0.408-0.048    l0.031,0.536c-0.136,0.048-0.352,0.096-0.623,0.096c-0.328,0-0.592-0.112-0.76-0.296c-0.191-0.216-0.271-0.56-0.271-1.016v-2.103    h-0.6v-0.536h0.6v-0.711L275.944,161.505z"/>
		<path d="M277.744,163.64c0-0.456-0.008-0.848-0.032-1.208h0.616l0.032,0.76h0.023c0.176-0.52,0.607-0.848,1.08-0.848    c0.071,0,0.127,0.008,0.191,0.017v0.663c-0.072-0.008-0.145-0.016-0.24-0.016c-0.496,0-0.848,0.376-0.943,0.896    c-0.016,0.104-0.023,0.216-0.023,0.327v2.071h-0.704V163.64z"/>
		<path d="M281.855,166.39c-1.04,0-1.854-0.768-1.854-1.991c0-1.295,0.855-2.055,1.918-2.055c1.111,0,1.863,0.808,1.863,1.983    c0,1.438-0.999,2.062-1.918,2.062H281.855z M281.887,165.863c0.672,0,1.176-0.632,1.176-1.512c0-0.655-0.328-1.479-1.16-1.479    c-0.823,0-1.184,0.768-1.184,1.503c0,0.848,0.48,1.487,1.16,1.487H281.887z"/>
		<path d="M284.672,163.48c0-0.408-0.008-0.728-0.032-1.048h0.624l0.039,0.632h0.017c0.192-0.359,0.64-0.72,1.279-0.72    c0.536,0,1.367,0.32,1.367,1.647v2.311h-0.704v-2.23c0-0.624-0.231-1.151-0.895-1.151c-0.457,0-0.816,0.327-0.943,0.72    c-0.033,0.088-0.049,0.216-0.049,0.327v2.335h-0.703V163.48z"/>
		<path d="M292.422,165.735c0,0.896-0.184,1.431-0.552,1.774c-0.384,0.344-0.928,0.464-1.415,0.464    c-0.464,0-0.976-0.111-1.287-0.319l0.176-0.544c0.256,0.168,0.655,0.312,1.135,0.312c0.72,0,1.248-0.376,1.248-1.359v-0.424    h-0.017c-0.208,0.36-0.632,0.648-1.231,0.648c-0.959,0-1.646-0.816-1.646-1.896c0-1.312,0.855-2.047,1.75-2.047    c0.672,0,1.032,0.344,1.208,0.672h0.017l0.023-0.584h0.623c-0.023,0.272-0.031,0.592-0.031,1.056V165.735z M291.719,163.952    c0-0.112-0.009-0.216-0.041-0.312c-0.127-0.416-0.463-0.752-0.982-0.752c-0.672,0-1.152,0.567-1.152,1.471    c0,0.752,0.393,1.392,1.144,1.392c0.44,0,0.831-0.271,0.976-0.728c0.04-0.112,0.057-0.248,0.057-0.376V163.952z"/>
		<path d="M293.983,164.496c0.017,0.943,0.616,1.335,1.32,1.335c0.504,0,0.814-0.088,1.07-0.2l0.129,0.504    c-0.248,0.112-0.68,0.248-1.295,0.248c-1.184,0-1.904-0.792-1.904-1.951c0-1.167,0.696-2.087,1.824-2.087    c1.263,0,1.59,1.111,1.59,1.823c0,0.144-0.008,0.248-0.023,0.328H293.983z M296.038,163.992c0.009-0.448-0.184-1.144-0.967-1.144    c-0.72,0-1.023,0.655-1.08,1.144H296.038z"/>
		<path d="M297.591,163.64c0-0.456-0.008-0.848-0.032-1.208h0.616l0.032,0.76h0.023c0.176-0.52,0.607-0.848,1.08-0.848    c0.071,0,0.127,0.008,0.191,0.017v0.663c-0.072-0.008-0.145-0.016-0.24-0.016c-0.496,0-0.848,0.376-0.943,0.896    c-0.016,0.104-0.023,0.216-0.023,0.327v2.071h-0.704V163.64z"/>
	</g>
	<g>
		<path d="M85.588,152.505H83.95v-0.592h3.99v0.592h-1.647v4.797h-0.704V152.505z"/>
		<path d="M88.157,154.64c0-0.456-0.008-0.848-0.032-1.208h0.616l0.032,0.76h0.024c0.176-0.52,0.608-0.848,1.08-0.848    c0.072,0,0.128,0.008,0.192,0.017v0.663c-0.072-0.008-0.144-0.016-0.24-0.016c-0.496,0-0.848,0.376-0.943,0.896    c-0.016,0.104-0.024,0.216-0.024,0.327v2.071h-0.704V154.64z"/>
		<path d="M93.459,156.375c0,0.336,0.016,0.664,0.056,0.928h-0.632l-0.064-0.487h-0.024c-0.208,0.304-0.631,0.575-1.183,0.575    c-0.784,0-1.184-0.552-1.184-1.111c0-0.936,0.832-1.447,2.327-1.439v-0.08c0-0.319-0.088-0.903-0.879-0.896    c-0.368,0-0.744,0.104-1.016,0.288l-0.16-0.472c0.32-0.2,0.792-0.336,1.279-0.336c1.191,0,1.479,0.808,1.479,1.583V156.375z     M92.772,155.328c-0.768-0.017-1.639,0.119-1.639,0.871c0,0.464,0.304,0.672,0.656,0.672c0.512,0,0.839-0.32,0.951-0.647    c0.024-0.072,0.032-0.152,0.032-0.225V155.328z"/>
		<path d="M97.931,151.625v4.678c0,0.344,0.008,0.735,0.032,0.999h-0.632l-0.032-0.672h-0.016c-0.216,0.432-0.68,0.76-1.312,0.76    c-0.936,0-1.663-0.791-1.663-1.967c-0.008-1.295,0.8-2.079,1.735-2.079c0.6,0,0.999,0.28,1.167,0.584h0.016v-2.303H97.931z     M97.228,155.007c0-0.096-0.008-0.208-0.032-0.304c-0.104-0.439-0.488-0.808-1.016-0.808c-0.728,0-1.159,0.64-1.159,1.487    c0,0.792,0.392,1.439,1.143,1.439c0.472,0,0.904-0.32,1.032-0.848c0.024-0.088,0.032-0.184,0.032-0.296V155.007z"/>
		<path d="M99.437,152.777c-0.256,0-0.424-0.2-0.424-0.432c0-0.248,0.176-0.44,0.44-0.44c0.256,0,0.432,0.192,0.432,0.44    c0,0.231-0.168,0.432-0.44,0.432H99.437z M99.101,157.302v-3.87h0.704v3.87H99.101z"/>
		<path d="M100.973,154.48c0-0.408-0.008-0.728-0.032-1.048h0.624l0.04,0.632h0.016c0.192-0.359,0.64-0.72,1.279-0.72    c0.536,0,1.367,0.32,1.367,1.647v2.311h-0.704v-2.23c0-0.624-0.232-1.151-0.896-1.151c-0.456,0-0.815,0.327-0.943,0.72    c-0.032,0.088-0.048,0.216-0.048,0.327v2.335h-0.704V154.48z"/>
		<path d="M108.724,156.735c0,0.896-0.184,1.431-0.552,1.774c-0.384,0.344-0.928,0.464-1.416,0.464    c-0.463,0-0.975-0.111-1.287-0.319l0.176-0.544c0.256,0.168,0.656,0.312,1.136,0.312c0.719,0,1.247-0.376,1.247-1.359v-0.424    h-0.016c-0.208,0.36-0.631,0.648-1.231,0.648c-0.96,0-1.647-0.816-1.647-1.896c0-1.312,0.855-2.047,1.751-2.047    c0.672,0,1.032,0.344,1.208,0.672h0.016l0.024-0.584h0.624c-0.024,0.272-0.032,0.592-0.032,1.056V156.735z M108.02,154.952    c0-0.112-0.008-0.216-0.04-0.312c-0.128-0.416-0.464-0.752-0.983-0.752c-0.672,0-1.151,0.567-1.151,1.471    c0,0.752,0.392,1.392,1.143,1.392c0.44,0,0.832-0.271,0.976-0.728c0.04-0.112,0.056-0.248,0.056-0.376V154.952z"/>
		<path d="M111.581,154.696c0-0.496-0.008-0.896-0.032-1.264h0.631l0.04,0.664h0.016c0.28-0.479,0.744-0.752,1.367-0.752    c0.944,0,1.647,0.792,1.647,1.967c0,1.392-0.855,2.079-1.759,2.079c-0.52,0-0.959-0.224-1.191-0.607h-0.016v2.103h-0.704V154.696z     M112.284,155.727c0,0.096,0.008,0.2,0.032,0.288c0.12,0.487,0.552,0.823,1.047,0.823c0.744,0,1.175-0.607,1.175-1.495    c0-0.775-0.4-1.439-1.143-1.439c-0.48,0-0.936,0.336-1.072,0.872c-0.016,0.088-0.04,0.191-0.04,0.279V155.727z"/>
		<path d="M118.859,156.375c0,0.336,0.016,0.664,0.056,0.928h-0.632l-0.064-0.487h-0.024c-0.208,0.304-0.632,0.575-1.183,0.575    c-0.784,0-1.184-0.552-1.184-1.111c0-0.936,0.832-1.447,2.327-1.439v-0.08c0-0.319-0.088-0.903-0.879-0.896    c-0.368,0-0.744,0.104-1.016,0.288l-0.16-0.472c0.32-0.2,0.792-0.336,1.279-0.336c1.191,0,1.479,0.808,1.479,1.583V156.375z     M118.172,155.328c-0.768-0.017-1.639,0.119-1.639,0.871c0,0.464,0.304,0.672,0.656,0.672c0.512,0,0.839-0.32,0.952-0.647    c0.024-0.072,0.032-0.152,0.032-0.225V155.328z"/>
		<path d="M119.988,154.64c0-0.456-0.008-0.848-0.032-1.208h0.616l0.032,0.76h0.024c0.176-0.52,0.608-0.848,1.08-0.848    c0.072,0,0.128,0.008,0.192,0.017v0.663c-0.072-0.008-0.144-0.016-0.24-0.016c-0.496,0-0.848,0.376-0.943,0.896    c-0.016,0.104-0.024,0.216-0.024,0.327v2.071h-0.704V154.64z"/>
		<path d="M123.644,152.505v0.927h1.007v0.536h-1.007v2.079c0,0.479,0.136,0.751,0.528,0.751c0.192,0,0.304-0.016,0.408-0.048    l0.032,0.536c-0.136,0.048-0.352,0.096-0.624,0.096c-0.328,0-0.592-0.112-0.759-0.296c-0.192-0.216-0.272-0.56-0.272-1.016v-2.103    h-0.6v-0.536h0.6v-0.711L123.644,152.505z"/>
		<path d="M125.444,154.48c0-0.408-0.008-0.728-0.032-1.048h0.624l0.04,0.632h0.016c0.192-0.359,0.64-0.72,1.279-0.72    c0.536,0,1.367,0.32,1.367,1.647v2.311h-0.704v-2.23c0-0.624-0.232-1.151-0.896-1.151c-0.456,0-0.815,0.327-0.943,0.72    c-0.032,0.088-0.048,0.216-0.048,0.327v2.335h-0.704V154.48z"/>
		<path d="M130.284,155.496c0.016,0.943,0.616,1.335,1.319,1.335c0.504,0,0.815-0.088,1.071-0.2l0.128,0.504    c-0.248,0.112-0.68,0.248-1.295,0.248c-1.183,0-1.903-0.792-1.903-1.951c0-1.167,0.696-2.087,1.823-2.087    c1.263,0,1.591,1.111,1.591,1.823c0,0.144-0.008,0.248-0.024,0.328H130.284z M132.339,154.992    c0.008-0.448-0.184-1.144-0.968-1.144c-0.72,0-1.023,0.655-1.079,1.144H132.339z"/>
		<path d="M133.892,154.64c0-0.456-0.008-0.848-0.032-1.208h0.616l0.032,0.76h0.024c0.176-0.52,0.608-0.848,1.08-0.848    c0.072,0,0.128,0.008,0.192,0.017v0.663c-0.072-0.008-0.144-0.016-0.24-0.016c-0.496,0-0.848,0.376-0.944,0.896    c-0.016,0.104-0.024,0.216-0.024,0.327v2.071h-0.704V154.64z"/>
		<path d="M80.385,164.496c0.016,0.943,0.616,1.335,1.319,1.335c0.504,0,0.815-0.088,1.071-0.2l0.128,0.504    c-0.248,0.112-0.68,0.248-1.295,0.248c-1.183,0-1.903-0.792-1.903-1.951c0-1.167,0.696-2.087,1.823-2.087    c1.263,0,1.591,1.111,1.591,1.823c0,0.144-0.008,0.248-0.024,0.328H80.385z M82.44,163.992c0.008-0.448-0.184-1.144-0.968-1.144    c-0.72,0-1.023,0.655-1.079,1.144H82.44z"/>
		<path d="M86.751,166.159c-0.184,0.088-0.592,0.224-1.111,0.224c-1.167,0-1.927-0.792-1.927-1.975c0-1.191,0.816-2.063,2.079-2.063    c0.416,0,0.784,0.104,0.975,0.208l-0.16,0.536c-0.168-0.088-0.432-0.185-0.815-0.185c-0.888,0-1.367,0.664-1.367,1.464    c0,0.896,0.576,1.447,1.343,1.447c0.399,0,0.664-0.097,0.863-0.185L86.751,166.159z"/>
		<path d="M89.104,166.39c-1.039,0-1.855-0.768-1.855-1.991c0-1.295,0.855-2.055,1.919-2.055c1.111,0,1.863,0.808,1.863,1.983    c0,1.438-1,2.062-1.919,2.062H89.104z M89.136,165.863c0.671,0,1.175-0.632,1.175-1.512c0-0.655-0.328-1.479-1.16-1.479    c-0.823,0-1.183,0.768-1.183,1.503c0,0.848,0.48,1.487,1.159,1.487H89.136z"/>
		<path d="M91.921,163.48c0-0.408-0.008-0.728-0.032-1.048h0.624l0.04,0.632h0.016c0.192-0.359,0.64-0.72,1.279-0.72    c0.536,0,1.367,0.32,1.367,1.647v2.311h-0.704v-2.23c0-0.624-0.232-1.151-0.896-1.151c-0.456,0-0.815,0.327-0.943,0.72    c-0.032,0.088-0.048,0.216-0.048,0.327v2.335h-0.704V163.48z"/>
		<path d="M97.936,166.39c-1.039,0-1.855-0.768-1.855-1.991c0-1.295,0.855-2.055,1.919-2.055c1.111,0,1.863,0.808,1.863,1.983    c0,1.438-1,2.062-1.919,2.062H97.936z M97.968,165.863c0.671,0,1.175-0.632,1.175-1.512c0-0.655-0.328-1.479-1.16-1.479    c-0.823,0-1.183,0.768-1.183,1.503c0,0.848,0.48,1.487,1.159,1.487H97.968z"/>
		<path d="M100.753,163.48c0-0.408-0.016-0.728-0.032-1.048h0.616l0.032,0.624h0.024c0.216-0.368,0.576-0.712,1.224-0.712    c0.52,0,0.919,0.32,1.087,0.775h0.016c0.12-0.224,0.28-0.384,0.44-0.503c0.232-0.177,0.48-0.272,0.848-0.272    c0.52,0,1.279,0.336,1.279,1.68v2.278h-0.688v-2.19c0-0.752-0.28-1.191-0.84-1.191c-0.408,0-0.711,0.296-0.839,0.632    c-0.032,0.104-0.056,0.231-0.056,0.352v2.398h-0.688v-2.327c0-0.615-0.272-1.055-0.808-1.055c-0.432,0-0.759,0.352-0.872,0.703    c-0.04,0.104-0.056,0.224-0.056,0.344v2.335h-0.688V163.48z"/>
		<path d="M107.577,162.432l0.84,2.287c0.096,0.256,0.192,0.56,0.256,0.791h0.016c0.072-0.231,0.152-0.527,0.248-0.808l0.768-2.271    h0.744l-1.055,2.759c-0.504,1.327-0.848,1.999-1.328,2.423c-0.352,0.296-0.688,0.415-0.863,0.447l-0.176-0.583    c0.176-0.057,0.408-0.168,0.616-0.344c0.192-0.152,0.424-0.424,0.592-0.784c0.032-0.072,0.056-0.128,0.056-0.168    s-0.016-0.096-0.056-0.184l-1.423-3.566H107.577z"/>
		<path d="M112.689,165.583c0.216,0.128,0.583,0.272,0.936,0.272c0.503,0,0.744-0.248,0.744-0.576c0-0.336-0.2-0.512-0.712-0.703    c-0.704-0.256-1.031-0.641-1.031-1.096c0-0.624,0.512-1.136,1.335-1.136c0.392,0,0.735,0.104,0.943,0.24l-0.168,0.504    c-0.152-0.088-0.432-0.225-0.792-0.225c-0.416,0-0.64,0.24-0.64,0.528c0,0.319,0.224,0.464,0.728,0.663    c0.664,0.248,1.015,0.584,1.015,1.159c0,0.688-0.536,1.168-1.439,1.168c-0.424,0-0.815-0.112-1.087-0.271L112.689,165.583z"/>
		<path d="M116.8,161.505v0.927h1.007v0.536H116.8v2.079c0,0.479,0.136,0.751,0.528,0.751c0.192,0,0.304-0.016,0.408-0.048    l0.032,0.536c-0.136,0.048-0.352,0.096-0.624,0.096c-0.328,0-0.592-0.112-0.759-0.296c-0.192-0.216-0.272-0.56-0.272-1.016v-2.103    h-0.6v-0.536h0.6v-0.711L116.8,161.505z"/>
		<path d="M118.601,163.64c0-0.456-0.008-0.848-0.032-1.208h0.616l0.032,0.76h0.024c0.176-0.52,0.608-0.848,1.08-0.848    c0.072,0,0.128,0.008,0.192,0.017v0.663c-0.072-0.008-0.144-0.016-0.24-0.016c-0.496,0-0.848,0.376-0.943,0.896    c-0.016,0.104-0.024,0.216-0.024,0.327v2.071h-0.704V163.64z"/>
		<path d="M122.712,166.39c-1.04,0-1.855-0.768-1.855-1.991c0-1.295,0.855-2.055,1.919-2.055c1.111,0,1.863,0.808,1.863,1.983    c0,1.438-1,2.062-1.919,2.062H122.712z M122.744,165.863c0.671,0,1.175-0.632,1.175-1.512c0-0.655-0.328-1.479-1.159-1.479    c-0.824,0-1.184,0.768-1.184,1.503c0,0.848,0.479,1.487,1.159,1.487H122.744z"/>
		<path d="M125.528,163.48c0-0.408-0.008-0.728-0.032-1.048h0.624l0.04,0.632h0.016c0.192-0.359,0.64-0.72,1.279-0.72    c0.536,0,1.367,0.32,1.367,1.647v2.311h-0.704v-2.23c0-0.624-0.232-1.151-0.896-1.151c-0.456,0-0.815,0.327-0.943,0.72    c-0.032,0.088-0.048,0.216-0.048,0.327v2.335h-0.704V163.48z"/>
		<path d="M133.279,165.735c0,0.896-0.184,1.431-0.552,1.774c-0.384,0.344-0.928,0.464-1.416,0.464    c-0.463,0-0.975-0.111-1.287-0.319l0.176-0.544c0.256,0.168,0.656,0.312,1.136,0.312c0.719,0,1.247-0.376,1.247-1.359v-0.424    h-0.016c-0.208,0.36-0.631,0.648-1.231,0.648c-0.96,0-1.647-0.816-1.647-1.896c0-1.312,0.855-2.047,1.751-2.047    c0.672,0,1.032,0.344,1.208,0.672h0.016l0.024-0.584h0.624c-0.024,0.272-0.032,0.592-0.032,1.056V165.735z M132.576,163.952    c0-0.112-0.008-0.216-0.04-0.312c-0.128-0.416-0.464-0.752-0.983-0.752c-0.672,0-1.151,0.567-1.151,1.471    c0,0.752,0.392,1.392,1.143,1.392c0.44,0,0.832-0.271,0.976-0.728c0.04-0.112,0.056-0.248,0.056-0.376V163.952z"/>
		<path d="M134.84,164.496c0.016,0.943,0.616,1.335,1.319,1.335c0.504,0,0.815-0.088,1.071-0.2l0.128,0.504    c-0.248,0.112-0.68,0.248-1.295,0.248c-1.184,0-1.903-0.792-1.903-1.951c0-1.167,0.696-2.087,1.823-2.087    c1.263,0,1.591,1.111,1.591,1.823c0,0.144-0.008,0.248-0.024,0.328H134.84z M136.895,163.992c0.008-0.448-0.184-1.144-0.967-1.144    c-0.72,0-1.023,0.655-1.08,1.144H136.895z"/>
		<path d="M138.448,163.64c0-0.456-0.008-0.848-0.032-1.208h0.616l0.032,0.76h0.024c0.176-0.52,0.608-0.848,1.08-0.848    c0.072,0,0.128,0.008,0.192,0.017v0.663c-0.072-0.008-0.144-0.016-0.24-0.016c-0.496,0-0.848,0.376-0.943,0.896    c-0.016,0.104-0.024,0.216-0.024,0.327v2.071h-0.704V163.64z"/>
	</g>
	
		<line fill="none" stroke="#000000" stroke-width="0.5" stroke-linejoin="round" stroke-miterlimit="10" x1="14.225" y1="2.416" x2="11.225" y2="2.416"/>
	
		<line fill="none" stroke="#000000" stroke-width="0.5" stroke-linejoin="round" stroke-miterlimit="10" x1="14.225" y1="26.383" x2="11.225" y2="26.383"/>
	
		<line fill="none" stroke="#000000" stroke-width="0.5" stroke-linejoin="round" stroke-miterlimit="10" x1="14.225" y1="50.351" x2="11.225" y2="50.351"/>
	
		<line fill="none" stroke="#000000" stroke-width="0.5" stroke-linejoin="round" stroke-miterlimit="10" x1="14.225" y1="74.317" x2="11.225" y2="74.317"/>
	
		<line fill="none" stroke="#000000" stroke-width="0.5" stroke-linejoin="round" stroke-miterlimit="10" x1="14.225" y1="98.285" x2="11.225" y2="98.285"/>
	
		<line fill="none" stroke="#000000" stroke-width="0.5" stroke-linejoin="round" stroke-miterlimit="10" x1="14.225" y1="122.252" x2="11.225" y2="122.252"/>
	
		<line fill="none" stroke="#000000" stroke-width="0.5" stroke-linejoin="round" stroke-miterlimit="10" x1="14.063" y1="146.267" x2="11.063" y2="146.267"/>
	
		<line fill="none" stroke="#A7A9AC" stroke-width="0.5" stroke-linejoin="round" stroke-miterlimit="10" x1="14.225" y1="2.416" x2="303.147" y2="2.416"/>
	
		<line fill="none" stroke="#A7A9AC" stroke-width="0.5" stroke-linejoin="round" stroke-miterlimit="10" x1="14.225" y1="26.502" x2="303.147" y2="26.502"/>
	
		<line fill="none" stroke="#A7A9AC" stroke-width="0.5" stroke-linejoin="round" stroke-miterlimit="10" x1="14.225" y1="50.418" x2="303.147" y2="50.418"/>
	
		<line fill="none" stroke="#A7A9AC" stroke-width="0.5" stroke-linejoin="round" stroke-miterlimit="10" x1="14.225" y1="74.505" x2="303.147" y2="74.505"/>
	
		<line fill="none" stroke="#A7A9AC" stroke-width="0.5" stroke-linejoin="round" stroke-miterlimit="10" x1="14.225" y1="98.421" x2="303.147" y2="98.421"/>
	
		<line fill="none" stroke="#A7A9AC" stroke-width="0.5" stroke-linejoin="round" stroke-miterlimit="10" x1="14.225" y1="122.336" x2="303.147" y2="122.336"/>
	<polyline fill="none" stroke="#000000" stroke-width="0.5" stroke-linejoin="round" stroke-miterlimit="10" points="14.063,2.416    14.063,146.267 303.147,146.267  "/>
	<g>
		
			<rect x="28.574" y="63.92" fill-rule="evenodd" clip-rule="evenodd" fill="#808285" stroke="#000000" stroke-width="0.5" stroke-miterlimit="10" width="34.945" height="82.347"/>
		
			<line fill="none" stroke="#000000" stroke-width="0.5" stroke-linejoin="round" stroke-miterlimit="10" x1="42.981" y1="62.34" x2="48.981" y2="62.34"/>
		
			<line fill="none" stroke="#000000" stroke-width="0.5" stroke-linejoin="round" stroke-miterlimit="10" x1="42.981" y1="65.552" x2="48.981" y2="65.552"/>
		
			<line fill="none" stroke="#000000" stroke-width="0.5" stroke-linejoin="round" stroke-miterlimit="10" x1="46.101" y1="63.87" x2="46.101" y2="62.34"/>
		
			<line fill="none" stroke="#000000" stroke-width="0.5" stroke-linejoin="round" stroke-miterlimit="10" x1="46.101" y1="65.552" x2="46.101" y2="63.87"/>
	</g>
	<g>
		
			<rect x="92.524" y="58.498" fill-rule="evenodd" clip-rule="evenodd" fill="#D1D3D4" stroke="#000000" stroke-width="0.5" stroke-miterlimit="10" width="34.945" height="87.769"/>
		
			<line fill="none" stroke="#000000" stroke-width="0.5" stroke-linejoin="round" stroke-miterlimit="10" x1="107.061" y1="56.878" x2="112.997" y2="56.878"/>
		
			<line fill="none" stroke="#000000" stroke-width="0.5" stroke-linejoin="round" stroke-miterlimit="10" x1="107.061" y1="60.129" x2="112.997" y2="60.129"/>
		
			<line fill="none" stroke="#000000" stroke-width="0.5" stroke-linejoin="round" stroke-miterlimit="10" x1="109.941" y1="58.408" x2="109.941" y2="56.878"/>
		
			<line fill="none" stroke="#000000" stroke-width="0.5" stroke-linejoin="round" stroke-miterlimit="10" x1="109.941" y1="60.129" x2="109.941" y2="58.408"/>
	</g>
	<g>
		
			<rect x="190.424" y="59.985" fill-rule="evenodd" clip-rule="evenodd" fill="#808285" stroke="#000000" stroke-width="0.5" stroke-miterlimit="10" width="34.944" height="86.282"/>
		
			<line fill="none" stroke="#000000" stroke-width="0.5" stroke-linejoin="round" stroke-miterlimit="10" x1="204.981" y1="58.408" x2="210.896" y2="58.408"/>
		
			<line fill="none" stroke="#000000" stroke-width="0.5" stroke-linejoin="round" stroke-miterlimit="10" x1="204.981" y1="61.617" x2="210.896" y2="61.617"/>
		
			<line fill="none" stroke="#000000" stroke-width="0.5" stroke-linejoin="round" stroke-miterlimit="10" x1="207.861" y1="59.937" x2="207.861" y2="58.408"/>
		
			<line fill="none" stroke="#000000" stroke-width="0.5" stroke-linejoin="round" stroke-miterlimit="10" x1="207.861" y1="61.617" x2="207.861" y2="59.937"/>
	</g>
	<g>
		
			<rect x="254.374" y="62.433" fill-rule="evenodd" clip-rule="evenodd" fill="#D1D3D4" stroke="#000000" stroke-width="0.5" stroke-miterlimit="10" width="34.945" height="83.834"/>
		
			<line fill="none" stroke="#000000" stroke-width="0.5" stroke-linejoin="round" stroke-miterlimit="10" x1="268.821" y1="60.811" x2="274.821" y2="60.811"/>
		
			<line fill="none" stroke="#000000" stroke-width="0.5" stroke-linejoin="round" stroke-miterlimit="10" x1="268.821" y1="64.064" x2="274.821" y2="64.064"/>
		
			<line fill="none" stroke="#000000" stroke-width="0.5" stroke-linejoin="round" stroke-miterlimit="10" x1="271.941" y1="62.34" x2="271.941" y2="60.811"/>
		
			<line fill="none" stroke="#000000" stroke-width="0.5" stroke-linejoin="round" stroke-miterlimit="10" x1="271.941" y1="64.064" x2="271.941" y2="62.34"/>
	</g>
</g>
</svg>