<svg xmlns="http://www.w3.org/2000/svg" xmlns:xlink="http://www.w3.org/1999/xlink" version="1.1" x="0px" y="0px" width="302.305px" height="128.315px" viewBox="0 0 302.305 128.315" enable-background="new 0 0 302.305 128.315" xml:space="preserve">
<g id="wide" display="none">
</g>
<g id="text_column">
</g>
<g id="art">
	<g>
		<path d="M0,5.285V4.854l0.552-0.536C1.879,3.055,2.486,2.383,2.486,1.6c0-0.528-0.248-1.016-1.023-1.016    c-0.472,0-0.863,0.239-1.103,0.439L0.136,0.527C0.488,0.232,1.007,0,1.607,0C2.718,0,3.19,0.768,3.19,1.512    c0,0.959-0.696,1.734-1.791,2.79L0.991,4.686v0.016h2.327v0.584H0z"/>
		<path d="M4.624,5.373c-0.272,0-0.463-0.216-0.463-0.504c0-0.287,0.2-0.504,0.479-0.504s0.472,0.208,0.472,0.504    c0,0.288-0.192,0.504-0.479,0.504H4.624z"/>
		<path d="M5.76,5.285V4.854l0.552-0.536C7.639,3.055,8.246,2.383,8.246,1.6c0-0.528-0.248-1.016-1.023-1.016    c-0.472,0-0.863,0.239-1.103,0.439L5.896,0.527C6.248,0.232,6.767,0,7.367,0C8.478,0,8.95,0.768,8.95,1.512    c0,0.959-0.696,1.734-1.791,2.79L6.751,4.686v0.016h2.327v0.584H5.76z"/>
		<path d="M0,24.516v-0.432l0.552-0.536c1.327-1.263,1.935-1.935,1.935-2.718c0-0.528-0.248-1.016-1.023-1.016    c-0.472,0-0.863,0.239-1.103,0.439l-0.224-0.496c0.352-0.295,0.872-0.527,1.471-0.527c1.111,0,1.583,0.768,1.583,1.512    c0,0.959-0.696,1.734-1.791,2.79l-0.408,0.384v0.016h2.327v0.584H0z"/>
		<path d="M4.624,24.604c-0.272,0-0.463-0.216-0.463-0.504c0-0.287,0.2-0.504,0.479-0.504s0.472,0.208,0.472,0.504    c0,0.288-0.192,0.504-0.479,0.504H4.624z"/>
		<path d="M7.415,24.604c-1.016,0-1.711-0.951-1.728-2.671c0-1.751,0.76-2.702,1.815-2.702c1.087,0,1.719,0.976,1.719,2.631    c0,1.767-0.664,2.742-1.799,2.742H7.415z M7.455,24.06c0.712,0,1.056-0.839,1.056-2.167c0-1.279-0.32-2.118-1.056-2.118    c-0.64,0-1.055,0.815-1.055,2.118c-0.016,1.352,0.4,2.167,1.047,2.167H7.455z"/>
		<path d="M1.527,39.203H1.511l-0.904,0.488l-0.136-0.536l1.135-0.607h0.6v5.197H1.527V39.203z"/>
		<path d="M4.624,43.833c-0.272,0-0.463-0.216-0.463-0.504s0.2-0.504,0.479-0.504s0.472,0.208,0.472,0.504    c0,0.288-0.192,0.504-0.479,0.504H4.624z"/>
		<path d="M7.503,38.46c1.007,0,1.519,0.624,1.519,1.279c0,0.439-0.224,0.92-0.864,1.216v0.023c0.648,0.256,1.048,0.72,1.048,1.344    c0,0.911-0.776,1.511-1.767,1.511c-1.087,0-1.743-0.64-1.743-1.399c0-0.655,0.392-1.127,1.023-1.399v-0.023    c-0.583-0.272-0.832-0.72-0.832-1.167c0-0.824,0.695-1.384,1.607-1.384H7.503z M7.455,43.321c0.632,0,1.04-0.392,1.04-0.928    c0-0.623-0.439-0.936-1.144-1.135c-0.607,0.176-0.935,0.583-0.935,1.079c-0.024,0.52,0.375,0.983,1.031,0.983H7.455z     M7.463,38.964c-0.584,0-0.904,0.384-0.904,0.831c-0.008,0.521,0.392,0.8,0.992,0.96c0.448-0.152,0.792-0.472,0.792-0.943    c0-0.416-0.248-0.848-0.872-0.848H7.463z"/>
		<path d="M1.527,58.434H1.511l-0.904,0.488l-0.136-0.536l1.135-0.607h0.6v5.197H1.527V58.434z"/>
		<path d="M4.624,63.063c-0.272,0-0.463-0.216-0.463-0.504s0.2-0.504,0.479-0.504s0.472,0.208,0.472,0.504    c0,0.288-0.192,0.504-0.479,0.504H4.624z"/>
		<path d="M8.726,58.274c-0.144-0.008-0.328,0.008-0.528,0.04c-1.111,0.176-1.687,0.976-1.807,1.839h0.016    c0.248-0.336,0.688-0.607,1.264-0.607c0.919,0,1.567,0.671,1.567,1.679c0,0.959-0.647,1.839-1.735,1.839    c-1.104,0-1.831-0.863-1.831-2.215c0-1.023,0.36-1.831,0.879-2.343c0.432-0.424,1.007-0.688,1.663-0.768    c0.208-0.032,0.384-0.04,0.512-0.04V58.274z M7.519,62.52c0.6,0,1.008-0.504,1.008-1.247s-0.424-1.191-1.072-1.191    c-0.423,0-0.823,0.256-1.015,0.64c-0.04,0.08-0.072,0.176-0.072,0.304c0.008,0.855,0.408,1.495,1.144,1.495H7.519z"/>
		<path d="M1.527,77.664H1.511l-0.904,0.487l-0.136-0.536l1.135-0.607h0.6v5.197H1.527V77.664z"/>
		<path d="M4.624,82.293c-0.272,0-0.463-0.216-0.463-0.504c0-0.287,0.2-0.504,0.479-0.504s0.472,0.208,0.472,0.504    c0,0.288-0.192,0.504-0.479,0.504H4.624z"/>
		<path d="M7.935,82.205v-1.423H5.52v-0.456l2.318-3.318h0.76v3.23h0.728v0.544H8.598v1.423H7.935z M7.935,80.238v-1.735    c0-0.271,0.008-0.544,0.024-0.815H7.935c-0.16,0.304-0.288,0.527-0.432,0.768l-1.271,1.768v0.016H7.935z"/>
		<path d="M1.527,96.895H1.511l-0.904,0.487l-0.136-0.536l1.135-0.607h0.6v5.197H1.527V96.895z"/>
		<path d="M4.624,101.523c-0.272,0-0.463-0.216-0.463-0.504c0-0.287,0.2-0.504,0.479-0.504s0.472,0.208,0.472,0.504    c0,0.288-0.192,0.504-0.479,0.504H4.624z"/>
		<path d="M5.76,101.436v-0.432l0.552-0.536c1.327-1.263,1.935-1.935,1.935-2.718c0-0.528-0.248-1.016-1.023-1.016    c-0.472,0-0.863,0.239-1.103,0.439l-0.224-0.496c0.352-0.295,0.872-0.527,1.471-0.527c1.111,0,1.583,0.768,1.583,1.512    c0,0.959-0.696,1.734-1.791,2.79l-0.408,0.384v0.016h2.327v0.584H5.76z"/>
		<path d="M1.527,116.123H1.511l-0.904,0.488l-0.136-0.536l1.135-0.607h0.6v5.197H1.527V116.123z"/>
		<path d="M4.624,120.753c-0.272,0-0.463-0.216-0.463-0.504s0.2-0.504,0.479-0.504s0.472,0.208,0.472,0.504    c0,0.288-0.192,0.504-0.479,0.504H4.624z"/>
		<path d="M7.415,120.753c-1.016,0-1.711-0.951-1.728-2.671c0-1.751,0.76-2.702,1.815-2.702c1.087,0,1.719,0.976,1.719,2.631    c0,1.767-0.664,2.742-1.799,2.742H7.415z M7.455,120.209c0.712,0,1.056-0.839,1.056-2.166c0-1.279-0.32-2.119-1.056-2.119    c-0.64,0-1.055,0.815-1.055,2.119c-0.016,1.351,0.4,2.166,1.047,2.166H7.455z"/>
	</g>
	<g>
		<path d="M31.064,128.228v-5.389h0.768l1.719,2.727c0.392,0.631,0.712,1.199,0.959,1.751l0.024-0.009    c-0.064-0.719-0.08-1.375-0.08-2.206v-2.263h0.656v5.389h-0.704l-1.711-2.734c-0.376-0.6-0.735-1.216-1-1.799l-0.024,0.008    c0.04,0.68,0.048,1.327,0.048,2.223v2.303H31.064z"/>
		<path d="M37.879,128.315c-1.04,0-1.855-0.768-1.855-1.991c0-1.295,0.855-2.055,1.919-2.055c1.111,0,1.863,0.808,1.863,1.983    c0,1.438-1,2.062-1.919,2.062H37.879z M37.912,127.788c0.671,0,1.175-0.632,1.175-1.512c0-0.655-0.328-1.479-1.159-1.479    c-0.824,0-1.184,0.768-1.184,1.503c0,0.848,0.479,1.487,1.159,1.487H37.912z"/>
		<path d="M40.696,125.405c0-0.408-0.008-0.728-0.032-1.048h0.624l0.04,0.632h0.016c0.192-0.359,0.64-0.72,1.279-0.72    c0.536,0,1.367,0.32,1.367,1.647v2.311h-0.704v-2.23c0-0.624-0.232-1.151-0.896-1.151c-0.456,0-0.815,0.327-0.943,0.72    c-0.032,0.088-0.048,0.216-0.048,0.327v2.335h-0.704V125.405z"/>
		<path d="M45.312,124.357l0.52,1.959c0.104,0.432,0.208,0.84,0.28,1.239h0.024c0.088-0.392,0.216-0.808,0.344-1.231l0.632-1.967    h0.592l0.6,1.936c0.144,0.455,0.256,0.871,0.344,1.263h0.024c0.064-0.392,0.168-0.799,0.296-1.255l0.552-1.943h0.695l-1.247,3.87    h-0.64l-0.592-1.847c-0.136-0.44-0.248-0.824-0.344-1.279h-0.016c-0.096,0.464-0.216,0.871-0.352,1.287l-0.624,1.839h-0.64    l-1.167-3.87H45.312z"/>
		<path d="M50.92,122.551h0.704v2.415h0.016c0.112-0.2,0.288-0.385,0.504-0.496c0.208-0.128,0.456-0.2,0.72-0.2    c0.52,0,1.351,0.32,1.351,1.655v2.303h-0.704v-2.23c0-0.624-0.232-1.144-0.896-1.144c-0.456,0-0.808,0.319-0.943,0.703    c-0.04,0.097-0.048,0.2-0.048,0.336v2.335H50.92V122.551z"/>
		<path d="M55.696,123.702c-0.256,0-0.424-0.2-0.424-0.432c0-0.248,0.176-0.44,0.44-0.44c0.256,0,0.432,0.192,0.432,0.44    c0,0.231-0.168,0.432-0.439,0.432H55.696z M55.36,128.228v-3.87h0.704v3.87H55.36z"/>
		<path d="M58.08,123.431v0.927h1.007v0.536H58.08v2.079c0,0.479,0.136,0.751,0.528,0.751c0.192,0,0.304-0.016,0.408-0.048    l0.032,0.536c-0.136,0.048-0.352,0.096-0.624,0.096c-0.328,0-0.591-0.112-0.759-0.296c-0.192-0.216-0.272-0.56-0.272-1.016v-2.103    h-0.6v-0.536h0.6v-0.711L58.08,123.431z"/>
		<path d="M60.231,126.421c0.016,0.943,0.616,1.335,1.319,1.335c0.504,0,0.815-0.088,1.071-0.2l0.128,0.504    c-0.248,0.112-0.68,0.248-1.295,0.248c-1.184,0-1.903-0.792-1.903-1.951c0-1.167,0.696-2.087,1.823-2.087    c1.263,0,1.591,1.111,1.591,1.823c0,0.144-0.008,0.248-0.024,0.328H60.231z M62.286,125.917c0.008-0.448-0.184-1.144-0.967-1.144    c-0.72,0-1.023,0.655-1.08,1.144H62.286z"/>
		<path d="M68.294,128.084c-0.184,0.088-0.592,0.224-1.111,0.224c-1.167,0-1.927-0.792-1.927-1.975c0-1.191,0.815-2.063,2.079-2.063    c0.416,0,0.783,0.104,0.976,0.208l-0.16,0.536c-0.168-0.088-0.432-0.185-0.815-0.185c-0.888,0-1.367,0.664-1.367,1.464    c0,0.896,0.576,1.447,1.343,1.447c0.399,0,0.664-0.097,0.863-0.185L68.294,128.084z"/>
		<path d="M70.647,128.315c-1.04,0-1.855-0.768-1.855-1.991c0-1.295,0.855-2.055,1.919-2.055c1.111,0,1.863,0.808,1.863,1.983    c0,1.438-1,2.062-1.919,2.062H70.647z M70.679,127.788c0.671,0,1.175-0.632,1.175-1.512c0-0.655-0.328-1.479-1.159-1.479    c-0.824,0-1.184,0.768-1.184,1.503c0,0.848,0.479,1.487,1.159,1.487H70.679z"/>
		<path d="M76.702,127.164c0,0.408,0.008,0.76,0.032,1.063H76.11l-0.04-0.632h-0.016c-0.176,0.312-0.592,0.72-1.279,0.72    c-0.608,0-1.335-0.344-1.335-1.695v-2.263h0.704v2.135c0,0.736,0.232,1.239,0.864,1.239c0.472,0,0.799-0.327,0.927-0.647    c0.04-0.096,0.064-0.224,0.064-0.359v-2.367h0.704V127.164z"/>
		<path d="M77.872,125.405c0-0.408-0.008-0.728-0.032-1.048h0.624l0.04,0.632h0.016c0.192-0.359,0.64-0.72,1.279-0.72    c0.536,0,1.367,0.32,1.367,1.647v2.311h-0.704v-2.23c0-0.624-0.232-1.151-0.896-1.151c-0.456,0-0.815,0.327-0.943,0.72    c-0.032,0.088-0.048,0.216-0.048,0.327v2.335h-0.704V125.405z"/>
		<path d="M83.127,123.431v0.927h1.007v0.536h-1.007v2.079c0,0.479,0.136,0.751,0.528,0.751c0.192,0,0.304-0.016,0.408-0.048    l0.032,0.536c-0.136,0.048-0.352,0.096-0.624,0.096c-0.328,0-0.591-0.112-0.759-0.296c-0.192-0.216-0.272-0.56-0.272-1.016v-2.103    h-0.6v-0.536h0.6v-0.711L83.127,123.431z"/>
		<path d="M84.927,125.565c0-0.456-0.008-0.848-0.032-1.208h0.616l0.032,0.76h0.024c0.176-0.52,0.608-0.848,1.08-0.848    c0.072,0,0.128,0.008,0.192,0.017v0.663c-0.072-0.008-0.144-0.016-0.24-0.016c-0.496,0-0.848,0.376-0.943,0.896    c-0.016,0.104-0.024,0.216-0.024,0.327v2.071h-0.704V125.565z"/>
		<path d="M87.912,123.702c-0.256,0-0.424-0.2-0.424-0.432c0-0.248,0.176-0.44,0.44-0.44c0.256,0,0.432,0.192,0.432,0.44    c0,0.231-0.168,0.432-0.439,0.432H87.912z M87.576,128.228v-3.87h0.704v3.87H87.576z"/>
		<path d="M89.847,126.421c0.016,0.943,0.616,1.335,1.319,1.335c0.504,0,0.815-0.088,1.071-0.2l0.128,0.504    c-0.248,0.112-0.68,0.248-1.295,0.248c-1.183,0-1.903-0.792-1.903-1.951c0-1.167,0.696-2.087,1.823-2.087    c1.263,0,1.591,1.111,1.591,1.823c0,0.144-0.008,0.248-0.024,0.328H89.847z M91.902,125.917c0.008-0.448-0.184-1.144-0.968-1.144    c-0.72,0-1.023,0.655-1.079,1.144H91.902z"/>
		<path d="M93.36,127.508c0.216,0.128,0.583,0.272,0.936,0.272c0.503,0,0.744-0.248,0.744-0.576c0-0.336-0.2-0.512-0.712-0.703    c-0.704-0.256-1.031-0.641-1.031-1.096c0-0.624,0.512-1.136,1.335-1.136c0.392,0,0.736,0.104,0.944,0.24l-0.168,0.504    c-0.152-0.088-0.432-0.225-0.792-0.225c-0.416,0-0.64,0.24-0.64,0.528c0,0.319,0.224,0.464,0.728,0.663    c0.664,0.248,1.016,0.584,1.016,1.159c0,0.688-0.536,1.168-1.439,1.168c-0.424,0-0.815-0.112-1.087-0.271L93.36,127.508z"/>
	</g>
	<g>
		<path d="M148.853,128.228l-1.367-5.389h0.735l0.64,2.727c0.16,0.68,0.304,1.343,0.4,1.862h0.016    c0.088-0.535,0.256-1.175,0.439-1.871l0.72-2.718h0.728l0.655,2.734c0.152,0.647,0.297,1.279,0.376,1.847h0.017    c0.111-0.592,0.264-1.191,0.432-1.863l0.711-2.718h0.712l-1.526,5.389h-0.729l-0.68-2.799c-0.168-0.695-0.279-1.223-0.352-1.767    h-0.016c-0.088,0.544-0.217,1.063-0.416,1.759l-0.768,2.807H148.853z"/>
		<path d="M154.677,122.551h0.704v2.415h0.016c0.111-0.2,0.288-0.385,0.504-0.496c0.208-0.128,0.455-0.2,0.72-0.2    c0.52,0,1.351,0.32,1.351,1.655v2.303h-0.703v-2.23c0-0.624-0.232-1.144-0.896-1.144c-0.456,0-0.808,0.319-0.943,0.703    c-0.04,0.097-0.048,0.2-0.048,0.336v2.335h-0.704V122.551z"/>
		<path d="M159.454,123.702c-0.256,0-0.424-0.2-0.424-0.432c0-0.248,0.176-0.44,0.439-0.44c0.256,0,0.432,0.192,0.432,0.44    c0,0.231-0.168,0.432-0.439,0.432H159.454z M159.118,128.228v-3.87h0.703v3.87H159.118z"/>
		<path d="M161.836,123.431v0.927h1.008v0.536h-1.008v2.079c0,0.479,0.137,0.751,0.528,0.751c0.192,0,0.304-0.016,0.407-0.048    l0.032,0.536c-0.136,0.048-0.352,0.096-0.624,0.096c-0.327,0-0.591-0.112-0.759-0.296c-0.192-0.216-0.272-0.56-0.272-1.016v-2.103    h-0.6v-0.536h0.6v-0.711L161.836,123.431z"/>
		<path d="M163.989,126.421c0.016,0.943,0.615,1.335,1.319,1.335c0.504,0,0.815-0.088,1.071-0.2l0.128,0.504    c-0.247,0.112-0.68,0.248-1.295,0.248c-1.184,0-1.903-0.792-1.903-1.951c0-1.167,0.695-2.087,1.823-2.087    c1.263,0,1.591,1.111,1.591,1.823c0,0.144-0.008,0.248-0.023,0.328H163.989z M166.043,125.917    c0.008-0.448-0.184-1.144-0.967-1.144c-0.721,0-1.023,0.655-1.08,1.144H166.043z"/>
		<path d="M172.051,128.084c-0.184,0.088-0.592,0.224-1.111,0.224c-1.167,0-1.927-0.792-1.927-1.975    c0-1.191,0.815-2.063,2.079-2.063c0.416,0,0.783,0.104,0.976,0.208l-0.16,0.536c-0.168-0.088-0.432-0.185-0.815-0.185    c-0.888,0-1.367,0.664-1.367,1.464c0,0.896,0.576,1.447,1.344,1.447c0.398,0,0.663-0.097,0.863-0.185L172.051,128.084z"/>
		<path d="M174.405,128.315c-1.04,0-1.855-0.768-1.855-1.991c0-1.295,0.855-2.055,1.919-2.055c1.111,0,1.863,0.808,1.863,1.983    c0,1.438-0.999,2.062-1.919,2.062H174.405z M174.436,127.788c0.672,0,1.176-0.632,1.176-1.512c0-0.655-0.328-1.479-1.159-1.479    c-0.823,0-1.184,0.768-1.184,1.503c0,0.848,0.479,1.487,1.159,1.487H174.436z"/>
		<path d="M180.459,127.164c0,0.408,0.008,0.76,0.031,1.063h-0.623l-0.04-0.632h-0.017c-0.176,0.312-0.592,0.72-1.279,0.72    c-0.607,0-1.335-0.344-1.335-1.695v-2.263h0.704v2.135c0,0.736,0.231,1.239,0.863,1.239c0.472,0,0.799-0.327,0.928-0.647    c0.039-0.096,0.063-0.224,0.063-0.359v-2.367h0.704V127.164z"/>
		<path d="M181.629,125.405c0-0.408-0.008-0.728-0.032-1.048h0.624l0.039,0.632h0.017c0.192-0.359,0.64-0.72,1.279-0.72    c0.536,0,1.367,0.32,1.367,1.647v2.311h-0.704v-2.23c0-0.624-0.231-1.151-0.895-1.151c-0.456,0-0.816,0.327-0.943,0.72    c-0.033,0.088-0.049,0.216-0.049,0.327v2.335h-0.703V125.405z"/>
		<path d="M186.885,123.431v0.927h1.007v0.536h-1.007v2.079c0,0.479,0.136,0.751,0.527,0.751c0.191,0,0.304-0.016,0.408-0.048    l0.031,0.536c-0.136,0.048-0.352,0.096-0.623,0.096c-0.328,0-0.592-0.112-0.76-0.296c-0.191-0.216-0.271-0.56-0.271-1.016v-2.103    h-0.6v-0.536h0.6v-0.711L186.885,123.431z"/>
		<path d="M188.684,125.565c0-0.456-0.008-0.848-0.031-1.208h0.615l0.032,0.76h0.024c0.176-0.52,0.607-0.848,1.079-0.848    c0.071,0,0.128,0.008,0.192,0.017v0.663c-0.072-0.008-0.145-0.016-0.24-0.016c-0.496,0-0.848,0.376-0.943,0.896    c-0.016,0.104-0.024,0.216-0.024,0.327v2.071h-0.704V125.565z"/>
		<path d="M191.668,123.702c-0.256,0-0.424-0.2-0.424-0.432c0-0.248,0.177-0.44,0.44-0.44c0.256,0,0.432,0.192,0.432,0.44    c0,0.231-0.168,0.432-0.439,0.432H191.668z M191.333,128.228v-3.87h0.704v3.87H191.333z"/>
		<path d="M193.604,126.421c0.017,0.943,0.616,1.335,1.32,1.335c0.504,0,0.814-0.088,1.07-0.2l0.129,0.504    c-0.248,0.112-0.68,0.248-1.296,0.248c-1.183,0-1.903-0.792-1.903-1.951c0-1.167,0.696-2.087,1.824-2.087    c1.263,0,1.59,1.111,1.59,1.823c0,0.144-0.008,0.248-0.023,0.328H193.604z M195.66,125.917c0.008-0.448-0.185-1.144-0.968-1.144    c-0.72,0-1.023,0.655-1.079,1.144H195.66z"/>
		<path d="M197.118,127.508c0.215,0.128,0.583,0.272,0.936,0.272c0.503,0,0.743-0.248,0.743-0.576c0-0.336-0.2-0.512-0.712-0.703    c-0.703-0.256-1.031-0.641-1.031-1.096c0-0.624,0.512-1.136,1.335-1.136c0.392,0,0.735,0.104,0.944,0.24l-0.168,0.504    c-0.152-0.088-0.432-0.225-0.792-0.225c-0.416,0-0.64,0.24-0.64,0.528c0,0.319,0.224,0.464,0.728,0.663    c0.663,0.248,1.016,0.584,1.016,1.159c0,0.688-0.536,1.168-1.439,1.168c-0.424,0-0.815-0.112-1.087-0.271L197.118,127.508z"/>
	</g>
	
		<line fill="none" stroke="#000000" stroke-width="0.5" stroke-linejoin="round" stroke-miterlimit="10" x1="14.134" y1="2.42" x2="11.134" y2="2.42"/>
	
		<line fill="none" stroke="#000000" stroke-width="0.5" stroke-linejoin="round" stroke-miterlimit="10" x1="14.134" y1="21.652" x2="11.134" y2="21.652"/>
	
		<line fill="none" stroke="#000000" stroke-width="0.5" stroke-linejoin="round" stroke-miterlimit="10" x1="14.134" y1="40.885" x2="11.134" y2="40.885"/>
	
		<line fill="none" stroke="#000000" stroke-width="0.5" stroke-linejoin="round" stroke-miterlimit="10" x1="14.134" y1="60.118" x2="11.134" y2="60.118"/>
	
		<line fill="none" stroke="#000000" stroke-width="0.5" stroke-linejoin="round" stroke-miterlimit="10" x1="14.134" y1="79.351" x2="11.134" y2="79.351"/>
	
		<line fill="none" stroke="#000000" stroke-width="0.5" stroke-linejoin="round" stroke-miterlimit="10" x1="14.134" y1="98.583" x2="11.134" y2="98.583"/>
	
		<line fill="none" stroke="#000000" stroke-width="0.5" stroke-linejoin="round" stroke-miterlimit="10" x1="14.134" y1="117.816" x2="11.134" y2="117.816"/>
	
		<line fill="none" stroke="#A7A9AC" stroke-width="0.5" stroke-linejoin="round" stroke-miterlimit="10" x1="14.216" y1="2.42" x2="223.946" y2="2.42"/>
	
		<line fill="none" stroke="#A7A9AC" stroke-width="0.5" stroke-linejoin="round" stroke-miterlimit="10" x1="14.216" y1="21.68" x2="223.946" y2="21.68"/>
	
		<line fill="none" stroke="#A7A9AC" stroke-width="0.5" stroke-linejoin="round" stroke-miterlimit="10" x1="14.216" y1="40.94" x2="223.946" y2="40.94"/>
	
		<line fill="none" stroke="#A7A9AC" stroke-width="0.5" stroke-linejoin="round" stroke-miterlimit="10" x1="14.216" y1="60.2" x2="223.946" y2="60.2"/>
	
		<line fill="none" stroke="#A7A9AC" stroke-width="0.5" stroke-linejoin="round" stroke-miterlimit="10" x1="14.216" y1="79.28" x2="223.946" y2="79.28"/>
	
		<line fill="none" stroke="#A7A9AC" stroke-width="0.5" stroke-linejoin="round" stroke-miterlimit="10" x1="14.216" y1="98.54" x2="223.946" y2="98.54"/>
	
		<rect x="143.436" y="14.3" fill="#808285" stroke="#000000" stroke-width="0.5" stroke-miterlimit="10" width="27" height="103.5"/>
	<rect x="33.556" y="35" fill="#808285" stroke="#000000" stroke-width="0.5" stroke-miterlimit="10" width="26.82" height="82.8"/>
	
		<rect x="177.635" y="11.78" fill="#D1D3D4" stroke="#000000" stroke-width="0.5" stroke-miterlimit="10" width="26.82" height="106.02"/>
	
		<rect x="67.756" y="47.24" fill="#D1D3D4" stroke="#000000" stroke-width="0.5" stroke-miterlimit="10" width="26.82" height="70.56"/>
	
		<line fill="none" stroke="#000000" stroke-width="0.5" stroke-linejoin="round" stroke-miterlimit="10" x1="44.716" y1="40.905" x2="49.216" y2="40.905"/>
	
		<line fill="none" stroke="#000000" stroke-width="0.5" stroke-linejoin="round" stroke-miterlimit="10" x1="44.716" y1="29.06" x2="49.216" y2="29.06"/>
	
		<line fill="none" stroke="#000000" stroke-width="0.5" stroke-linejoin="round" stroke-miterlimit="10" x1="47.056" y1="35" x2="47.056" y2="40.905"/>
	
		<line fill="none" stroke="#000000" stroke-width="0.5" stroke-linejoin="round" stroke-miterlimit="10" x1="47.056" y1="29.06" x2="47.056" y2="35"/>
	
		<line fill="none" stroke="#000000" stroke-width="0.5" stroke-linejoin="round" stroke-miterlimit="10" x1="154.596" y1="21.293" x2="159.096" y2="21.293"/>
	
		<line fill="none" stroke="#000000" stroke-width="0.5" stroke-linejoin="round" stroke-miterlimit="10" x1="154.596" y1="7.46" x2="159.096" y2="7.46"/>
	
		<line fill="none" stroke="#000000" stroke-width="0.5" stroke-linejoin="round" stroke-miterlimit="10" x1="156.936" y1="14.3" x2="156.936" y2="21.293"/>
	
		<line fill="none" stroke="#000000" stroke-width="0.5" stroke-linejoin="round" stroke-miterlimit="10" x1="156.936" y1="7.46" x2="156.936" y2="14.3"/>
	
		<line fill="none" stroke="#000000" stroke-width="0.5" stroke-linejoin="round" stroke-miterlimit="10" x1="78.916" y1="49.94" x2="83.409" y2="49.94"/>
	
		<line fill="none" stroke="#000000" stroke-width="0.5" stroke-linejoin="round" stroke-miterlimit="10" x1="78.916" y1="44.36" x2="83.409" y2="44.36"/>
	
		<line fill="none" stroke="#000000" stroke-width="0.5" stroke-linejoin="round" stroke-miterlimit="10" x1="81.076" y1="47.24" x2="81.076" y2="49.94"/>
	
		<line fill="none" stroke="#000000" stroke-width="0.5" stroke-linejoin="round" stroke-miterlimit="10" x1="81.076" y1="44.36" x2="81.076" y2="47.24"/>
	
		<line fill="none" stroke="#000000" stroke-width="0.5" stroke-linejoin="round" stroke-miterlimit="10" x1="188.795" y1="14.948" x2="193.295" y2="14.948"/>
	
		<line fill="none" stroke="#000000" stroke-width="0.5" stroke-linejoin="round" stroke-miterlimit="10" x1="188.795" y1="8.54" x2="193.295" y2="8.54"/>
	
		<line fill="none" stroke="#000000" stroke-width="0.5" stroke-linejoin="round" stroke-miterlimit="10" x1="191.135" y1="11.78" x2="191.135" y2="14.948"/>
	
		<line fill="none" stroke="#000000" stroke-width="0.5" stroke-linejoin="round" stroke-miterlimit="10" x1="191.135" y1="8.54" x2="191.135" y2="11.78"/>
	<polyline fill="none" stroke="#000000" stroke-width="0.5" stroke-linejoin="round" stroke-miterlimit="10" points="   223.946,117.816 14.134,117.816 14.134,2.42  "/>
	
		<rect x="231.323" y="62.286" fill="#D1D3D4" stroke="#000000" stroke-width="0.5" stroke-linejoin="round" stroke-miterlimit="10" width="6" height="5.999"/>
	<g>
		<path d="M242.243,55.43l-0.56,1.695h-0.72l1.831-5.389h0.84l1.839,5.389h-0.744l-0.575-1.695H242.243z M244.01,54.886    l-0.536-1.551c-0.112-0.352-0.192-0.671-0.272-0.983h-0.023c-0.072,0.312-0.16,0.647-0.264,0.976l-0.527,1.559H244.01z"/>
		<path d="M246.243,54.303c0-0.408-0.016-0.728-0.031-1.048h0.615l0.032,0.624h0.024c0.216-0.368,0.575-0.712,1.223-0.712    c0.52,0,0.92,0.32,1.088,0.776h0.016c0.12-0.224,0.28-0.384,0.439-0.504c0.232-0.176,0.48-0.272,0.848-0.272    c0.52,0,1.279,0.336,1.279,1.679v2.279h-0.688v-2.191c0-0.751-0.279-1.191-0.84-1.191c-0.407,0-0.711,0.296-0.839,0.632    c-0.032,0.104-0.056,0.232-0.056,0.352v2.398h-0.688v-2.327c0-0.616-0.272-1.056-0.809-1.056c-0.432,0-0.759,0.352-0.871,0.704    c-0.04,0.104-0.056,0.224-0.056,0.344v2.335h-0.688V54.303z"/>
		<path d="M254.491,57.213c-1.04,0-1.855-0.768-1.855-1.991c0-1.295,0.855-2.055,1.919-2.055c1.111,0,1.863,0.808,1.863,1.983    c0,1.439-0.999,2.063-1.919,2.063H254.491z M254.522,56.685c0.672,0,1.176-0.631,1.176-1.511c0-0.655-0.328-1.479-1.159-1.479    c-0.823,0-1.184,0.768-1.184,1.503c0,0.847,0.479,1.487,1.159,1.487H254.522z"/>
		<path d="M257.307,54.303c0-0.408-0.008-0.728-0.031-1.048h0.623l0.04,0.632h0.017c0.191-0.36,0.639-0.72,1.279-0.72    c0.535,0,1.367,0.32,1.367,1.647v2.311h-0.704v-2.231c0-0.624-0.231-1.151-0.896-1.151c-0.456,0-0.815,0.328-0.943,0.72    c-0.032,0.088-0.049,0.216-0.049,0.328v2.335h-0.703V54.303z"/>
		<path d="M265.057,56.557c0,0.896-0.184,1.431-0.551,1.775c-0.385,0.344-0.928,0.463-1.416,0.463c-0.463,0-0.975-0.112-1.287-0.32    l0.176-0.543c0.256,0.168,0.656,0.312,1.136,0.312c0.72,0,1.247-0.375,1.247-1.359v-0.424h-0.016    c-0.208,0.36-0.632,0.647-1.231,0.647c-0.96,0-1.647-0.815-1.647-1.895c0-1.311,0.855-2.047,1.751-2.047    c0.672,0,1.032,0.344,1.208,0.672h0.016l0.023-0.584h0.624c-0.024,0.272-0.032,0.592-0.032,1.056V56.557z M264.354,54.774    c0-0.112-0.008-0.216-0.04-0.312c-0.128-0.416-0.464-0.751-0.983-0.751c-0.672,0-1.151,0.567-1.151,1.471    c0,0.751,0.392,1.391,1.144,1.391c0.439,0,0.831-0.272,0.975-0.728c0.041-0.112,0.057-0.248,0.057-0.376V54.774z"/>
		<path d="M267.915,54.303c0-0.408-0.008-0.728-0.031-1.048h0.623l0.041,0.632h0.016c0.191-0.36,0.64-0.72,1.279-0.72    c0.535,0,1.367,0.32,1.367,1.647v2.311h-0.703v-2.231c0-0.624-0.232-1.151-0.896-1.151c-0.455,0-0.814,0.328-0.943,0.72    c-0.031,0.088-0.048,0.216-0.048,0.328v2.335h-0.704V54.303z"/>
		<path d="M273.93,57.213c-1.039,0-1.855-0.768-1.855-1.991c0-1.295,0.855-2.055,1.92-2.055c1.111,0,1.863,0.808,1.863,1.983    c0,1.439-1,2.063-1.92,2.063H273.93z M273.962,56.685c0.671,0,1.175-0.631,1.175-1.511c0-0.655-0.327-1.479-1.159-1.479    c-0.823,0-1.183,0.768-1.183,1.503c0,0.847,0.479,1.487,1.158,1.487H273.962z"/>
		<path d="M276.748,54.303c0-0.408-0.008-0.728-0.032-1.048h0.624l0.039,0.632h0.017c0.191-0.36,0.64-0.72,1.279-0.72    c0.535,0,1.367,0.32,1.367,1.647v2.311h-0.704v-2.231c0-0.624-0.231-1.151-0.896-1.151c-0.455,0-0.815,0.328-0.943,0.72    c-0.031,0.088-0.048,0.216-0.048,0.328v2.335h-0.703V54.303z"/>
		<path d="M281.466,53.255l0.52,1.959c0.104,0.432,0.208,0.84,0.28,1.239h0.024c0.088-0.392,0.216-0.807,0.344-1.231l0.631-1.967    h0.592l0.6,1.935c0.145,0.456,0.256,0.872,0.344,1.263h0.024c0.063-0.392,0.168-0.799,0.296-1.255l0.552-1.943h0.695l-1.247,3.87    h-0.64l-0.592-1.847c-0.136-0.439-0.248-0.823-0.344-1.279h-0.016c-0.097,0.464-0.216,0.872-0.353,1.288l-0.623,1.839h-0.64    l-1.168-3.87H281.466z"/>
		<path d="M287.076,51.448h0.703v2.415h0.017c0.111-0.2,0.287-0.384,0.503-0.496c0.208-0.128,0.456-0.2,0.72-0.2    c0.52,0,1.352,0.32,1.352,1.655v2.303h-0.704v-2.231c0-0.624-0.231-1.143-0.896-1.143c-0.455,0-0.808,0.32-0.943,0.704    c-0.04,0.096-0.048,0.2-0.048,0.335v2.335h-0.703V51.448z"/>
		<path d="M291.851,52.6c-0.256,0-0.424-0.2-0.424-0.432c0-0.248,0.176-0.44,0.439-0.44c0.256,0,0.432,0.192,0.432,0.44    c0,0.231-0.168,0.432-0.439,0.432H291.851z M291.515,57.125v-3.87h0.703v3.87H291.515z"/>
		<path d="M294.235,52.328v0.927h1.007v0.536h-1.007v2.079c0,0.48,0.136,0.751,0.527,0.751c0.191,0,0.304-0.016,0.407-0.048    l0.032,0.536c-0.136,0.048-0.352,0.096-0.623,0.096c-0.328,0-0.592-0.112-0.76-0.296c-0.192-0.216-0.272-0.56-0.272-1.016v-2.103    h-0.6v-0.536h0.6v-0.711L294.235,52.328z"/>
		<path d="M296.434,55.318c0.016,0.944,0.616,1.335,1.319,1.335c0.504,0,0.815-0.088,1.071-0.2l0.128,0.504    c-0.248,0.112-0.68,0.248-1.295,0.248c-1.184,0-1.903-0.792-1.903-1.951c0-1.167,0.695-2.087,1.823-2.087    c1.264,0,1.591,1.111,1.591,1.823c0,0.144-0.008,0.248-0.023,0.328H296.434z M298.489,54.814c0.008-0.448-0.184-1.144-0.967-1.144    c-0.72,0-1.023,0.656-1.08,1.144H298.489z"/>
		<path d="M299.946,56.405c0.216,0.128,0.584,0.272,0.936,0.272c0.504,0,0.744-0.248,0.744-0.576c0-0.336-0.2-0.512-0.712-0.704    c-0.703-0.256-1.031-0.64-1.031-1.095c0-0.624,0.512-1.136,1.335-1.136c0.392,0,0.735,0.104,0.943,0.24l-0.168,0.503    c-0.151-0.088-0.432-0.224-0.791-0.224c-0.416,0-0.64,0.24-0.64,0.528c0,0.319,0.224,0.463,0.728,0.664    c0.663,0.248,1.016,0.583,1.016,1.159c0,0.688-0.536,1.167-1.439,1.167c-0.424,0-0.815-0.112-1.087-0.272L299.946,56.405z"/>
	</g>
	
		<rect x="231.323" y="51.952" fill="#808285" stroke="#000000" stroke-width="0.5" stroke-linejoin="round" stroke-miterlimit="10" width="6" height="6"/>
	<g>
		<path d="M241.784,65.764l-0.56,1.695h-0.72l1.831-5.389h0.839l1.839,5.389h-0.743l-0.576-1.695H241.784z M243.55,65.22    l-0.535-1.551c-0.112-0.352-0.192-0.671-0.272-0.983h-0.023c-0.072,0.312-0.16,0.647-0.265,0.976l-0.527,1.559H243.55z"/>
		<path d="M245.784,64.637c0-0.408-0.017-0.728-0.032-1.048h0.615l0.032,0.624h0.024c0.216-0.368,0.575-0.712,1.223-0.712    c0.521,0,0.92,0.32,1.088,0.776h0.016c0.12-0.224,0.28-0.384,0.44-0.504c0.231-0.176,0.479-0.272,0.847-0.272    c0.521,0,1.279,0.336,1.279,1.679v2.279h-0.688v-2.191c0-0.751-0.279-1.191-0.839-1.191c-0.408,0-0.712,0.296-0.84,0.632    c-0.032,0.104-0.056,0.232-0.056,0.352v2.398h-0.688v-2.327c0-0.616-0.271-1.056-0.807-1.056c-0.433,0-0.76,0.352-0.872,0.704    c-0.04,0.104-0.056,0.224-0.056,0.344v2.335h-0.688V64.637z"/>
		<path d="M254.032,67.547c-1.04,0-1.855-0.768-1.855-1.991c0-1.295,0.855-2.055,1.919-2.055c1.111,0,1.863,0.808,1.863,1.983    c0,1.439-1,2.063-1.919,2.063H254.032z M254.063,67.019c0.672,0,1.176-0.631,1.176-1.511c0-0.655-0.328-1.479-1.159-1.479    c-0.824,0-1.184,0.768-1.184,1.503c0,0.847,0.479,1.487,1.159,1.487H254.063z"/>
		<path d="M256.848,64.637c0-0.408-0.008-0.728-0.032-1.048h0.624l0.039,0.632h0.017c0.191-0.36,0.64-0.72,1.279-0.72    c0.535,0,1.367,0.32,1.367,1.647v2.311h-0.704v-2.231c0-0.624-0.231-1.151-0.896-1.151c-0.455,0-0.815,0.328-0.943,0.72    c-0.031,0.088-0.048,0.216-0.048,0.328v2.335h-0.703V64.637z"/>
		<path d="M264.597,66.891c0,0.896-0.184,1.431-0.552,1.775c-0.384,0.344-0.927,0.463-1.415,0.463c-0.464,0-0.976-0.112-1.287-0.32    l0.176-0.543c0.256,0.168,0.655,0.312,1.136,0.312c0.72,0,1.247-0.375,1.247-1.359v-0.424h-0.016    c-0.208,0.36-0.632,0.647-1.231,0.647c-0.96,0-1.647-0.815-1.647-1.895c0-1.311,0.855-2.047,1.751-2.047    c0.672,0,1.031,0.344,1.207,0.672h0.017l0.023-0.584h0.624c-0.023,0.272-0.032,0.592-0.032,1.056V66.891z M263.894,65.108    c0-0.112-0.008-0.216-0.04-0.312c-0.128-0.416-0.464-0.751-0.983-0.751c-0.672,0-1.151,0.567-1.151,1.471    c0,0.751,0.392,1.391,1.144,1.391c0.439,0,0.831-0.272,0.976-0.728c0.039-0.112,0.056-0.248,0.056-0.376V65.108z"/>
		<path d="M267.735,63.589l0.52,1.959c0.104,0.432,0.208,0.84,0.28,1.239h0.024c0.088-0.392,0.216-0.807,0.344-1.231l0.631-1.967    h0.592l0.6,1.935c0.145,0.456,0.256,0.872,0.344,1.263h0.024c0.063-0.392,0.168-0.799,0.296-1.255l0.552-1.943h0.695l-1.247,3.87    h-0.64l-0.592-1.847c-0.136-0.439-0.248-0.823-0.344-1.279h-0.016c-0.097,0.464-0.216,0.872-0.353,1.288l-0.623,1.839h-0.64    l-1.168-3.87H267.735z"/>
		<path d="M273.344,61.782h0.703v2.415h0.017c0.111-0.2,0.287-0.384,0.503-0.496c0.208-0.128,0.456-0.2,0.72-0.2    c0.52,0,1.352,0.32,1.352,1.655v2.303h-0.704v-2.231c0-0.624-0.231-1.143-0.896-1.143c-0.455,0-0.808,0.32-0.943,0.704    c-0.04,0.096-0.048,0.2-0.048,0.335v2.335h-0.703V61.782z"/>
		<path d="M278.12,62.934c-0.256,0-0.424-0.2-0.424-0.432c0-0.248,0.176-0.44,0.439-0.44c0.256,0,0.432,0.192,0.432,0.44    c0,0.231-0.168,0.432-0.439,0.432H278.12z M277.784,67.459v-3.87h0.703v3.87H277.784z"/>
		<path d="M280.503,62.662v0.927h1.007v0.536h-1.007v2.079c0,0.48,0.136,0.751,0.527,0.751c0.191,0,0.304-0.016,0.407-0.048    l0.032,0.536c-0.136,0.048-0.352,0.096-0.623,0.096c-0.328,0-0.592-0.112-0.76-0.296c-0.192-0.216-0.272-0.56-0.272-1.016v-2.103    h-0.6v-0.536h0.6v-0.711L280.503,62.662z"/>
		<path d="M282.703,65.652c0.016,0.944,0.616,1.335,1.319,1.335c0.504,0,0.815-0.088,1.071-0.2l0.128,0.504    c-0.248,0.112-0.68,0.248-1.295,0.248c-1.184,0-1.903-0.792-1.903-1.951c0-1.167,0.695-2.087,1.823-2.087    c1.264,0,1.591,1.111,1.591,1.823c0,0.144-0.008,0.248-0.023,0.328H282.703z M284.757,65.148c0.008-0.448-0.184-1.144-0.967-1.144    c-0.72,0-1.023,0.656-1.08,1.144H284.757z"/>
		<path d="M286.215,66.739c0.217,0.128,0.584,0.272,0.936,0.272c0.504,0,0.744-0.248,0.744-0.576c0-0.336-0.2-0.512-0.712-0.704    c-0.703-0.256-1.031-0.64-1.031-1.095c0-0.624,0.512-1.136,1.335-1.136c0.392,0,0.736,0.104,0.943,0.24l-0.168,0.503    c-0.151-0.088-0.432-0.224-0.791-0.224c-0.416,0-0.64,0.24-0.64,0.528c0,0.319,0.224,0.463,0.728,0.664    c0.664,0.248,1.016,0.583,1.016,1.159c0,0.688-0.536,1.167-1.439,1.167c-0.424,0-0.815-0.112-1.088-0.272L286.215,66.739z"/>
	</g>
</g>
</svg>