<svg xmlns="http://www.w3.org/2000/svg" xmlns:xlink="http://www.w3.org/1999/xlink" version="1.1" x="0px" y="0px" width="357.21px" height="170.721px" viewBox="0 0 357.21 170.721" enable-background="new 0 0 357.21 170.721" xml:space="preserve">
<g id="wide">
</g>
<g id="text_column" display="none">
</g>
<g id="art">
	
		<line fill="none" stroke="#000000" stroke-width="0.5" stroke-linejoin="round" stroke-miterlimit="10" x1="34.236" y1="2.926" x2="31.236" y2="2.926"/>
	
		<line fill="none" stroke="#000000" stroke-width="0.5" stroke-linejoin="round" stroke-miterlimit="10" x1="34.236" y1="17.926" x2="31.236" y2="17.926"/>
	
		<line fill="none" stroke="#000000" stroke-width="0.5" stroke-linejoin="round" stroke-miterlimit="10" x1="34.236" y1="32.926" x2="31.236" y2="32.926"/>
	
		<line fill="none" stroke="#000000" stroke-width="0.5" stroke-linejoin="round" stroke-miterlimit="10" x1="34.236" y1="47.926" x2="31.236" y2="47.926"/>
	
		<line fill="none" stroke="#000000" stroke-width="0.5" stroke-linejoin="round" stroke-miterlimit="10" x1="34.236" y1="62.926" x2="31.236" y2="62.926"/>
	
		<line fill="none" stroke="#000000" stroke-width="0.5" stroke-linejoin="round" stroke-miterlimit="10" x1="34.236" y1="77.926" x2="31.236" y2="77.926"/>
	
		<line fill="none" stroke="#000000" stroke-width="0.5" stroke-linejoin="round" stroke-miterlimit="10" x1="34.236" y1="92.926" x2="31.236" y2="92.926"/>
	
		<line fill="none" stroke="#000000" stroke-width="0.5" stroke-linejoin="round" stroke-miterlimit="10" x1="34.236" y1="107.926" x2="31.236" y2="107.926"/>
	
		<line fill="none" stroke="#000000" stroke-width="0.5" stroke-linejoin="round" stroke-miterlimit="10" x1="34.236" y1="122.926" x2="31.236" y2="122.926"/>
	
		<line fill="none" stroke="#000000" stroke-width="0.5" stroke-linejoin="round" stroke-miterlimit="10" x1="34.236" y1="137.926" x2="31.236" y2="137.926"/>
	<g>
		<path d="M22.644,4.79c0.145,0.008,0.312,0,0.54-0.032c0.388-0.048,0.752-0.216,1.033-0.496c0.327-0.32,0.562-0.768,0.654-1.383    h-0.023c-0.273,0.352-0.668,0.56-1.17,0.56c-0.889,0-1.459-0.704-1.459-1.599C22.218,0.864,22.902,0,23.913,0    s1.634,0.855,1.634,2.191c0,1.143-0.365,1.943-0.851,2.438c-0.38,0.384-0.904,0.632-1.436,0.696    c-0.243,0.032-0.464,0.048-0.616,0.04V4.79z M23.852,0.536c-0.562,0-0.965,0.528-0.965,1.263c0,0.648,0.373,1.104,0.95,1.104    c0.448,0,0.798-0.232,0.98-0.543c0.03-0.064,0.053-0.144,0.053-0.256c0.007-0.896-0.312-1.567-1.011-1.567H23.852z"/>
		<path d="M27.728,5.373c-0.965,0-1.626-0.951-1.642-2.67C26.086,0.952,26.809,0,27.812,0c1.033,0,1.634,0.976,1.634,2.631    c0,1.767-0.631,2.742-1.71,2.742H27.728z M27.766,4.83c0.676,0,1.003-0.84,1.003-2.167c0-1.279-0.304-2.119-1.003-2.119    c-0.608,0-1.003,0.815-1.003,2.119c-0.015,1.351,0.38,2.167,0.996,2.167H27.766z"/>
		<path d="M23.913,15c0.958,0,1.444,0.624,1.444,1.279c0,0.44-0.213,0.919-0.821,1.215v0.024c0.616,0.256,0.996,0.72,0.996,1.343    c0,0.912-0.737,1.511-1.68,1.511c-1.033,0-1.656-0.64-1.656-1.399c0-0.655,0.372-1.127,0.973-1.399v-0.024    c-0.555-0.272-0.791-0.72-0.791-1.167c0-0.824,0.661-1.383,1.527-1.383H23.913z M23.867,19.861c0.6,0,0.988-0.392,0.988-0.927    c0-0.624-0.418-0.936-1.087-1.136c-0.577,0.176-0.889,0.584-0.889,1.08c-0.022,0.52,0.357,0.983,0.98,0.983H23.867z     M23.875,15.504c-0.555,0-0.858,0.384-0.858,0.832c-0.008,0.52,0.372,0.799,0.942,0.959c0.426-0.152,0.752-0.472,0.752-0.943    c0-0.416-0.235-0.848-0.828-0.848H23.875z"/>
		<path d="M27.728,20.373c-0.965,0-1.626-0.951-1.642-2.67c0-1.751,0.722-2.703,1.725-2.703c1.033,0,1.634,0.976,1.634,2.631    c0,1.767-0.631,2.742-1.71,2.742H27.728z M27.766,19.83c0.676,0,1.003-0.84,1.003-2.167c0-1.279-0.304-2.119-1.003-2.119    c-0.608,0-1.003,0.815-1.003,2.119c-0.015,1.351,0.38,2.167,0.996,2.167H27.766z"/>
		<path d="M25.463,30.088v0.464l-2.151,4.733h-0.684l2.135-4.598v-0.016h-2.417v-0.584H25.463z"/>
		<path d="M27.728,35.373c-0.965,0-1.626-0.951-1.642-2.67c0-1.751,0.722-2.703,1.725-2.703c1.033,0,1.634,0.976,1.634,2.631    c0,1.767-0.631,2.742-1.71,2.742H27.728z M27.766,34.83c0.676,0,1.003-0.84,1.003-2.167c0-1.279-0.304-2.119-1.003-2.119    c-0.608,0-1.003,0.815-1.003,2.119c-0.015,1.351,0.38,2.167,0.996,2.167H27.766z"/>
		<path d="M25.075,45.584c-0.137-0.008-0.312,0.008-0.501,0.04c-1.056,0.176-1.604,0.976-1.717,1.839h0.015    c0.235-0.336,0.653-0.608,1.201-0.608c0.874,0,1.489,0.672,1.489,1.679c0,0.959-0.616,1.839-1.649,1.839    c-1.049,0-1.74-0.863-1.74-2.215c0-1.023,0.342-1.831,0.836-2.343c0.41-0.424,0.958-0.688,1.581-0.768    c0.198-0.032,0.365-0.04,0.486-0.04V45.584z M23.928,49.83c0.57,0,0.958-0.504,0.958-1.248s-0.403-1.191-1.018-1.191    c-0.403,0-0.783,0.256-0.965,0.64c-0.038,0.08-0.068,0.176-0.068,0.304c0.008,0.856,0.388,1.496,1.087,1.496H23.928z"/>
		<path d="M27.728,50.373c-0.965,0-1.626-0.951-1.642-2.67c0-1.751,0.722-2.703,1.725-2.703c1.033,0,1.634,0.976,1.634,2.631    c0,1.767-0.631,2.742-1.71,2.742H27.728z M27.766,49.83c0.676,0,1.003-0.84,1.003-2.167c0-1.279-0.304-2.119-1.003-2.119    c-0.608,0-1.003,0.815-1.003,2.119c-0.015,1.351,0.38,2.167,0.996,2.167H27.766z"/>
		<path d="M25.205,60.68H23.32l-0.19,1.335c0.114-0.016,0.22-0.032,0.403-0.032c0.388,0,0.76,0.088,1.064,0.28    c0.387,0.224,0.707,0.68,0.707,1.335c0,1.015-0.768,1.775-1.839,1.775c-0.54,0-0.988-0.16-1.231-0.32l0.167-0.536    c0.205,0.128,0.608,0.288,1.064,0.288c0.623,0,1.17-0.432,1.163-1.136c0-0.664-0.433-1.143-1.414-1.143    c-0.289,0-0.509,0.024-0.691,0.056l0.319-2.495h2.363V60.68z"/>
		<path d="M27.728,65.373c-0.965,0-1.626-0.951-1.642-2.67c0-1.751,0.722-2.703,1.725-2.703c1.033,0,1.634,0.976,1.634,2.631    c0,1.767-0.631,2.742-1.71,2.742H27.728z M27.766,64.83c0.676,0,1.003-0.84,1.003-2.167c0-1.279-0.304-2.119-1.003-2.119    c-0.608,0-1.003,0.815-1.003,2.119c-0.015,1.351,0.38,2.167,0.996,2.167H27.766z"/>
		<path d="M24.323,80.285v-1.423h-2.295v-0.456l2.204-3.318h0.722v3.23h0.691v0.543h-0.691v1.423H24.323z M24.323,78.318v-1.735    c0-0.271,0.008-0.543,0.023-0.815h-0.023c-0.152,0.304-0.273,0.528-0.41,0.768l-1.208,1.767v0.016H24.323z"/>
		<path d="M27.728,80.373c-0.965,0-1.626-0.951-1.642-2.67c0-1.751,0.722-2.703,1.725-2.703c1.033,0,1.634,0.976,1.634,2.631    c0,1.767-0.631,2.742-1.71,2.742H27.728z M27.766,79.83c0.676,0,1.003-0.84,1.003-2.167c0-1.279-0.304-2.119-1.003-2.119    c-0.608,0-1.003,0.815-1.003,2.119c-0.015,1.351,0.38,2.167,0.996,2.167H27.766z"/>
		<path d="M22.416,94.485c0.19,0.12,0.623,0.32,1.094,0.32c0.851,0,1.125-0.568,1.117-1.008c-0.008-0.728-0.631-1.039-1.277-1.039    h-0.372v-0.528h0.372c0.486,0,1.102-0.264,1.102-0.879c0-0.416-0.251-0.784-0.866-0.784c-0.395,0-0.775,0.184-0.988,0.344    L22.416,90.4c0.266-0.2,0.768-0.4,1.299-0.4c0.973,0,1.414,0.608,1.414,1.239c0,0.544-0.312,1-0.912,1.231v0.016    c0.608,0.12,1.102,0.6,1.102,1.327c0,0.832-0.623,1.559-1.801,1.559c-0.555,0-1.041-0.184-1.284-0.352L22.416,94.485z"/>
		<path d="M27.728,95.373c-0.965,0-1.626-0.951-1.642-2.67c0-1.751,0.722-2.703,1.725-2.703c1.033,0,1.634,0.976,1.634,2.631    c0,1.767-0.631,2.742-1.71,2.742H27.728z M27.766,94.83c0.676,0,1.003-0.84,1.003-2.167c0-1.279-0.304-2.119-1.003-2.119    c-0.608,0-1.003,0.815-1.003,2.119c-0.015,1.351,0.38,2.167,0.996,2.167H27.766z"/>
		<path d="M22.256,110.285v-0.432l0.524-0.536c1.261-1.264,1.839-1.935,1.839-2.719c0-0.528-0.235-1.015-0.973-1.015    c-0.448,0-0.821,0.24-1.048,0.439l-0.213-0.496c0.334-0.296,0.828-0.528,1.398-0.528c1.057,0,1.505,0.768,1.505,1.511    c0,0.959-0.661,1.735-1.702,2.791l-0.388,0.384v0.016h2.211v0.583H22.256z"/>
		<path d="M27.728,110.373c-0.965,0-1.626-0.951-1.642-2.67c0-1.751,0.722-2.703,1.725-2.703c1.033,0,1.634,0.976,1.634,2.631    c0,1.767-0.631,2.742-1.71,2.742H27.728z M27.766,109.83c0.676,0,1.003-0.84,1.003-2.167c0-1.279-0.304-2.119-1.003-2.119    c-0.608,0-1.003,0.815-1.003,2.119c-0.015,1.351,0.38,2.167,0.996,2.167H27.766z"/>
		<path d="M23.708,120.744h-0.015l-0.859,0.488l-0.129-0.536l1.079-0.608h0.57v5.197h-0.646V120.744z"/>
		<path d="M27.728,125.373c-0.965,0-1.626-0.951-1.642-2.67c0-1.751,0.722-2.703,1.725-2.703c1.033,0,1.634,0.976,1.634,2.631    c0,1.767-0.631,2.742-1.71,2.742H27.728z M27.766,124.83c0.676,0,1.003-0.84,1.003-2.167c0-1.279-0.304-2.119-1.003-2.119    c-0.608,0-1.003,0.815-1.003,2.119c-0.015,1.351,0.38,2.167,0.996,2.167H27.766z"/>
		<path d="M27.728,140.373c-0.965,0-1.626-0.951-1.642-2.67c0-1.751,0.722-2.703,1.725-2.703c1.033,0,1.634,0.976,1.634,2.631    c0,1.767-0.631,2.742-1.71,2.742H27.728z M27.766,139.83c0.676,0,1.003-0.84,1.003-2.167c0-1.279-0.304-2.119-1.003-2.119    c-0.608,0-1.003,0.815-1.003,2.119c-0.015,1.351,0.38,2.167,0.996,2.167H27.766z"/>
	</g>
	<g>
		<path d="M39.759,152.868c-0.076,0.257-0.335,0.696-0.775,1.137c-1.021,1.021-2.463,1.105-3.712-0.144    c-1.192-1.193-1.228-2.764-0.104-3.887c0.446-0.446,0.838-0.635,1.023-0.696l0.289,0.525c-0.263,0.081-0.582,0.266-0.883,0.567    c-0.85,0.849-0.844,1.984,0.152,2.979c0.933,0.933,2.037,1.016,2.912,0.14c0.291-0.291,0.519-0.643,0.611-0.927L39.759,152.868z"/>
		<path d="M36.444,148.402l0.473-0.473l1.707,1.708l0.012-0.011c-0.066-0.216-0.078-0.465-0.013-0.689    c0.05-0.23,0.165-0.448,0.343-0.625c0.348-0.349,1.134-0.681,2.078,0.263l1.628,1.628l-0.474,0.473l-1.576-1.577    c-0.441-0.441-0.965-0.653-1.41-0.207c-0.307,0.306-0.317,0.769-0.137,1.131c0.041,0.095,0.109,0.173,0.205,0.27l1.65,1.651    l-0.473,0.473L36.444,148.402z"/>
		<path d="M40.467,146.008c-0.172,0.172-0.427,0.143-0.59-0.021c-0.175-0.175-0.192-0.429-0.016-0.606    c0.172-0.172,0.426-0.154,0.601,0.021c0.164,0.164,0.193,0.418,0.01,0.601L40.467,146.008z M43.44,149.434l-2.736-2.736    l0.474-0.473l2.736,2.736L43.44,149.434z"/>
		<path d="M42.702,146.181c-0.288-0.289-0.52-0.509-0.762-0.719l0.42-0.419l0.473,0.42l0.012-0.011    c-0.126-0.383-0.08-0.939,0.35-1.369c0.359-0.359,1.146-0.692,2.084,0.247l1.634,1.634l-0.473,0.473l-1.577-1.577    c-0.441-0.441-0.971-0.659-1.416-0.212c-0.307,0.306-0.316,0.78-0.125,1.143c0.041,0.084,0.12,0.185,0.199,0.264l1.65,1.651    l-0.473,0.473L42.702,146.181z"/>
		<path d="M48.857,142.706c0.237,0.237,0.479,0.458,0.693,0.618l-0.425,0.425l-0.387-0.302l-0.018,0.017    c0.076,0.354-0.017,0.832-0.387,1.202c-0.527,0.526-1.186,0.405-1.582,0.009c-0.662-0.662-0.465-1.582,0.546-2.581l-0.057-0.057    c-0.226-0.226-0.698-0.58-1.224-0.042c-0.247,0.247-0.427,0.573-0.479,0.886l-0.44-0.226c0.073-0.356,0.293-0.77,0.621-1.098    c0.801-0.801,1.566-0.423,2.115,0.126L48.857,142.706z M47.654,142.427c-0.526,0.504-1.017,1.187-0.485,1.718    c0.328,0.328,0.68,0.271,0.916,0.034c0.344-0.344,0.338-0.79,0.182-1.097c-0.035-0.067-0.086-0.129-0.137-0.18L47.654,142.427z"/>
	</g>
	<g>
		<path d="M60.305,153.979c-0.553-0.499-1.235-1.117-1.705-1.586l-0.01,0.011c0.312,0.57,0.652,1.201,0.99,1.904l1.209,2.488    l-0.354,0.354l-2.406-1.224c-0.709-0.365-1.341-0.717-1.895-1.067l-0.011,0.011c0.464,0.485,1.076,1.151,1.615,1.754l1.537,1.73    L58.83,158.8l-3.558-4.063l0.596-0.597l2.461,1.226c0.62,0.319,1.162,0.625,1.654,0.924l0.012-0.011    c-0.288-0.481-0.584-1.034-0.902-1.676l-1.199-2.488l0.597-0.596l4.036,3.584l-0.462,0.462L60.305,153.979z"/>
		<path d="M62.253,152.821c0.679,0.657,1.358,0.53,1.831,0.058c0.338-0.338,0.486-0.61,0.578-0.861l0.442,0.271    c-0.087,0.245-0.28,0.631-0.694,1.045c-0.796,0.795-1.839,0.719-2.658-0.101c-0.826-0.825-1.01-1.943-0.252-2.701    c0.85-0.849,1.855-0.283,2.359,0.22c0.102,0.102,0.17,0.181,0.215,0.248L62.253,152.821z M63.279,151.083    c-0.312-0.321-0.933-0.685-1.459-0.158c-0.483,0.484-0.224,1.151,0.083,1.534L63.279,151.083z"/>
		<path d="M63.439,148.718l0.96,0.217c0.248,0.056,0.465,0.111,0.709,0.183l0.016-0.016c-0.078-0.25-0.133-0.477-0.188-0.715    l-0.223-0.942l0.516-0.516l0.437,2.209l2.322,0.505l-0.538,0.538l-0.997-0.235c-0.261-0.056-0.5-0.123-0.754-0.195l-0.012,0.011    c0.078,0.25,0.134,0.488,0.201,0.749l0.24,0.992l-0.521,0.521l-0.473-2.32l-2.221-0.459L63.439,148.718z"/>
		<path d="M65.469,145.761c-0.172,0.172-0.426,0.143-0.59-0.021c-0.176-0.175-0.193-0.429-0.016-0.606    c0.172-0.172,0.426-0.154,0.602,0.021c0.163,0.164,0.191,0.418,0.01,0.601L65.469,145.761z M68.444,149.187l-2.736-2.736    l0.473-0.473l2.736,2.736L68.444,149.187z"/>
		<path d="M71.454,145.974c-0.062,0.186-0.24,0.556-0.589,0.905c-0.784,0.785-1.854,0.736-2.692-0.101    c-0.842-0.842-0.91-2.007-0.061-2.856c0.279-0.279,0.6-0.453,0.803-0.508l0.271,0.486c-0.175,0.051-0.419,0.161-0.677,0.418    c-0.598,0.597-0.45,1.388,0.115,1.953c0.633,0.633,1.41,0.637,1.926,0.121c0.269-0.269,0.378-0.514,0.449-0.71L71.454,145.974z"/>
		<path d="M73.198,144.558c-0.699,0.699-1.791,0.704-2.655-0.161c-0.916-0.916-0.878-2.029-0.164-2.743    c0.747-0.748,1.823-0.681,2.654,0.15c1.019,1.018,0.788,2.13,0.169,2.749L73.198,144.558z M72.845,144.163    c0.451-0.451,0.343-1.236-0.278-1.858c-0.464-0.463-1.267-0.826-1.825-0.267c-0.554,0.554-0.253,1.338,0.268,1.858    c0.599,0.599,1.374,0.729,1.831,0.272L72.845,144.163z"/>
	</g>
	<g>
		<path d="M85.335,156.802c-0.076,0.256-0.336,0.696-0.775,1.137c-1.021,1.021-2.463,1.106-3.713-0.144    c-1.192-1.193-1.227-2.764-0.104-3.887c0.445-0.446,0.838-0.634,1.023-0.696l0.289,0.525c-0.264,0.081-0.583,0.266-0.884,0.567    c-0.849,0.849-0.843,1.984,0.153,2.979c0.933,0.933,2.036,1.016,2.912,0.14c0.29-0.29,0.518-0.642,0.61-0.927L85.335,156.802z"/>
		<path d="M87.173,153.899c0.238,0.237,0.48,0.458,0.693,0.618l-0.424,0.425l-0.389-0.302l-0.016,0.016    c0.075,0.354-0.018,0.832-0.388,1.202c-0.526,0.527-1.186,0.405-1.581,0.009c-0.662-0.662-0.465-1.582,0.545-2.581l-0.057-0.057    c-0.226-0.226-0.697-0.58-1.224-0.042c-0.247,0.247-0.427,0.573-0.479,0.885l-0.44-0.226c0.073-0.356,0.294-0.77,0.622-1.098    c0.801-0.801,1.565-0.423,2.114,0.126L87.173,153.899z M85.971,153.621c-0.527,0.505-1.017,1.187-0.485,1.718    c0.328,0.328,0.68,0.271,0.915,0.035c0.345-0.344,0.339-0.791,0.182-1.098c-0.034-0.067-0.085-0.129-0.136-0.18L85.971,153.621z"/>
		<path d="M86.591,151.802c-0.288-0.289-0.52-0.509-0.762-0.719l0.419-0.419l0.474,0.42l0.011-0.011    c-0.126-0.383-0.079-0.939,0.351-1.369c0.359-0.36,1.146-0.692,2.084,0.246l1.634,1.634l-0.474,0.473l-1.576-1.577    c-0.441-0.441-0.971-0.659-1.416-0.213c-0.307,0.307-0.316,0.78-0.126,1.143c0.041,0.084,0.121,0.185,0.2,0.264l1.65,1.651    l-0.473,0.473L86.591,151.802z"/>
		<path d="M92.746,148.327c0.238,0.237,0.48,0.458,0.694,0.618l-0.425,0.425l-0.388-0.302l-0.017,0.016    c0.076,0.354-0.017,0.832-0.388,1.203c-0.526,0.526-1.185,0.405-1.581,0.009c-0.662-0.662-0.465-1.582,0.546-2.581l-0.057-0.057    c-0.226-0.226-0.698-0.58-1.224-0.042c-0.247,0.247-0.427,0.573-0.479,0.885l-0.44-0.226c0.073-0.356,0.294-0.77,0.621-1.098    c0.801-0.8,1.565-0.422,2.114,0.126L92.746,148.327z M91.543,148.048c-0.526,0.504-1.017,1.187-0.485,1.718    c0.328,0.328,0.68,0.271,0.916,0.035c0.344-0.344,0.338-0.791,0.182-1.098c-0.035-0.067-0.086-0.129-0.137-0.18L91.543,148.048z"/>
		<path d="M92.392,141.965l3.307,3.308c0.244,0.243,0.526,0.514,0.729,0.685l-0.424,0.424l-0.497-0.454l-0.011,0.011    c0.16,0.451,0.081,0.994-0.344,1.419c-0.629,0.628-1.678,0.558-2.509-0.273c-0.921-0.911-0.933-2.008-0.304-2.636    c0.402-0.403,0.869-0.474,1.197-0.372l0.011-0.011l-1.628-1.628L92.392,141.965z M94.31,144.829    c-0.067-0.068-0.152-0.142-0.236-0.193c-0.38-0.241-0.898-0.243-1.253,0.112c-0.489,0.489-0.327,1.231,0.272,1.83    c0.561,0.56,1.281,0.755,1.787,0.25c0.316-0.317,0.38-0.833,0.093-1.292c-0.046-0.078-0.108-0.151-0.188-0.23L94.31,144.829z"/>
		<path d="M98.368,142.706c0.237,0.237,0.479,0.458,0.693,0.618l-0.425,0.425l-0.387-0.302l-0.018,0.017    c0.076,0.354-0.017,0.832-0.387,1.202c-0.527,0.526-1.186,0.405-1.582,0.009c-0.662-0.662-0.465-1.582,0.546-2.581l-0.057-0.057    c-0.226-0.226-0.698-0.58-1.224-0.042c-0.247,0.247-0.427,0.573-0.479,0.886l-0.44-0.226c0.073-0.356,0.293-0.77,0.621-1.098    c0.801-0.801,1.566-0.423,2.115,0.126L98.368,142.706z M97.165,142.427c-0.526,0.504-1.017,1.187-0.485,1.718    c0.328,0.328,0.68,0.271,0.916,0.034c0.344-0.344,0.338-0.79,0.182-1.097c-0.035-0.067-0.086-0.129-0.137-0.18L97.165,142.427z"/>
	</g>
	<g>
		<path d="M108.267,151.25l0.473-0.473l2.551,2.55c1.012,1.012,0.85,1.796,0.227,2.419c-0.178,0.178-0.426,0.348-0.59,0.409    l-0.337-0.465c0.136-0.058,0.31-0.164,0.472-0.325c0.418-0.419,0.462-0.859-0.284-1.605L108.267,151.25z"/>
		<path d="M114.491,151.336c0.237,0.237,0.479,0.458,0.693,0.618l-0.425,0.424l-0.387-0.302l-0.017,0.016    c0.075,0.354-0.017,0.832-0.388,1.203c-0.527,0.526-1.186,0.405-1.582,0.009c-0.661-0.662-0.465-1.582,0.547-2.581l-0.057-0.057    c-0.227-0.226-0.698-0.58-1.225-0.042c-0.247,0.247-0.426,0.573-0.479,0.885l-0.441-0.226c0.074-0.356,0.294-0.77,0.622-1.098    c0.8-0.8,1.565-0.422,2.114,0.126L114.491,151.336z M113.289,151.058c-0.527,0.504-1.018,1.187-0.486,1.718    c0.328,0.328,0.68,0.271,0.916,0.035c0.344-0.344,0.338-0.79,0.182-1.098c-0.035-0.067-0.086-0.129-0.137-0.18L113.289,151.058z"/>
		<path d="M114.062,149.392c-0.352-0.351-0.639-0.628-0.915-0.873l0.425-0.424l0.496,0.442l0.01-0.011    c-0.15-0.527-0.031-1.031,0.387-1.45c0.635-0.634,1.668-0.547,2.498,0.284c0.984,0.984,0.896,2.045,0.289,2.652    c-0.35,0.349-0.803,0.486-1.23,0.371l-0.011,0.011l1.487,1.487l-0.474,0.473L114.062,149.392z M115.263,149.647    c0.068,0.068,0.147,0.136,0.226,0.182c0.425,0.264,0.953,0.212,1.286-0.122c0.5-0.5,0.36-1.219-0.268-1.847    c-0.548-0.548-1.285-0.749-1.785-0.249c-0.322,0.323-0.393,0.866-0.104,1.336c0.051,0.073,0.107,0.162,0.17,0.225L115.263,149.647    z"/>
		<path d="M120.138,145.688c0.238,0.237,0.48,0.458,0.693,0.618l-0.424,0.424l-0.388-0.302l-0.017,0.016    c0.076,0.354-0.017,0.832-0.388,1.203c-0.526,0.526-1.185,0.405-1.581,0.009c-0.662-0.662-0.465-1.582,0.545-2.581l-0.057-0.057    c-0.226-0.226-0.697-0.58-1.223-0.042c-0.248,0.247-0.427,0.573-0.479,0.885l-0.44-0.226c0.073-0.356,0.293-0.77,0.621-1.097    c0.801-0.801,1.565-0.423,2.114,0.126L120.138,145.688z M118.936,145.41c-0.526,0.504-1.017,1.187-0.485,1.718    c0.328,0.328,0.68,0.271,0.916,0.035c0.344-0.344,0.338-0.79,0.182-1.098c-0.035-0.067-0.086-0.129-0.137-0.18L118.936,145.41z"/>
		<path d="M119.556,143.591c-0.288-0.289-0.519-0.509-0.762-0.719l0.42-0.419l0.473,0.42l0.012-0.011    c-0.126-0.383-0.08-0.939,0.35-1.369c0.359-0.359,1.146-0.692,2.084,0.247l1.634,1.634l-0.473,0.473l-1.577-1.577    c-0.441-0.441-0.971-0.659-1.416-0.212c-0.307,0.306-0.316,0.78-0.125,1.143c0.041,0.084,0.12,0.185,0.199,0.264l1.65,1.651    l-0.473,0.473L119.556,143.591z"/>
	</g>
	<g>
		<path d="M139.597,144.752l2.262,2.262c0.849,0.848,1.569,0.85,2.054,0.367c0.531-0.532,0.508-1.254-0.329-2.091l-2.262-2.262    l0.474-0.473l2.227,2.228c1.171,1.17,1.061,2.231,0.275,3.016c-0.741,0.741-1.741,0.859-2.929-0.328l-2.245-2.245L139.597,144.752    z"/>
		<path d="M142.606,141.743l0.468-0.467l1.837,1.837l0.017-0.016c-0.05-0.244-0.089-0.477-0.122-0.691l-0.324-2.538l0.581-0.581    l0.306,2.928l3.607,0.781l-0.554,0.553l-3.06-0.683l0.07,0.768l1.452,1.453l-0.468,0.467L142.606,141.743z"/>
	</g>
	<g>
		<path d="M158.38,150.648l3.811,3.811l-0.473,0.473l-3.811-3.811L158.38,150.648z"/>
		<path d="M161.049,151.608c-0.288-0.289-0.52-0.509-0.762-0.72l0.42-0.419l0.473,0.42l0.012-0.011    c-0.126-0.383-0.08-0.939,0.35-1.369c0.36-0.36,1.146-0.692,2.084,0.247l1.634,1.634l-0.473,0.473l-1.577-1.577    c-0.441-0.441-0.971-0.659-1.416-0.212c-0.307,0.306-0.316,0.78-0.125,1.143c0.041,0.084,0.12,0.185,0.199,0.264l1.65,1.651    l-0.473,0.473L161.049,151.608z"/>
		<path d="M164.26,144.361l3.307,3.308c0.244,0.243,0.526,0.514,0.729,0.685l-0.424,0.424l-0.497-0.454l-0.011,0.011    c0.16,0.451,0.081,0.994-0.344,1.419c-0.629,0.628-1.678,0.558-2.509-0.273c-0.921-0.911-0.933-2.008-0.304-2.636    c0.402-0.403,0.869-0.474,1.197-0.372l0.011-0.011l-1.628-1.628L164.26,144.361z M166.178,147.226    c-0.067-0.068-0.152-0.142-0.236-0.193c-0.38-0.241-0.898-0.243-1.253,0.112c-0.489,0.489-0.327,1.231,0.272,1.831    c0.56,0.56,1.281,0.754,1.787,0.249c0.316-0.317,0.38-0.833,0.093-1.292c-0.046-0.078-0.108-0.151-0.188-0.23L166.178,147.226z"/>
		<path d="M166.084,144.165c-0.172,0.172-0.426,0.143-0.59-0.021c-0.175-0.175-0.193-0.429-0.016-0.606    c0.172-0.172,0.426-0.154,0.602,0.021c0.164,0.164,0.192,0.418,0.01,0.601L166.084,144.165z M169.059,147.59l-2.736-2.736    l0.473-0.473l2.736,2.736L169.059,147.59z"/>
		<path d="M171.492,143.845c0.237,0.237,0.48,0.458,0.693,0.618l-0.424,0.425l-0.389-0.302l-0.016,0.016    c0.075,0.354-0.018,0.832-0.389,1.203c-0.525,0.526-1.185,0.405-1.58,0.009c-0.662-0.662-0.465-1.582,0.545-2.581l-0.057-0.057    c-0.226-0.226-0.697-0.58-1.223-0.042c-0.248,0.247-0.428,0.573-0.48,0.886l-0.44-0.226c0.073-0.356,0.294-0.77,0.622-1.098    c0.801-0.8,1.564-0.422,2.113,0.126L171.492,143.845z M170.289,143.566c-0.527,0.505-1.016,1.187-0.484,1.718    c0.328,0.328,0.68,0.271,0.915,0.035c0.344-0.344,0.339-0.791,0.182-1.098c-0.034-0.067-0.086-0.129-0.137-0.18L170.289,143.566z"/>
	</g>
	<g>
		<path d="M182.929,154.903l-1.402,1.402l1.373,1.374l1.569-1.569l0.413,0.413l-2.043,2.042l-3.811-3.811l1.963-1.962l0.412,0.413    l-1.488,1.489l1.203,1.204l1.402-1.402L182.929,154.903z"/>
		<path d="M186.86,153.041c0.288,0.289,0.543,0.532,0.773,0.73l-0.419,0.419l-0.474-0.42l-0.011,0.011    c0.103,0.339,0.111,0.907-0.351,1.369c-0.408,0.408-1.141,0.654-2.097-0.301l-1.6-1.6l0.473-0.473l1.51,1.51    c0.521,0.52,1.033,0.721,1.457,0.296c0.317-0.317,0.305-0.77,0.165-1.082c-0.04-0.094-0.115-0.201-0.211-0.297l-1.674-1.674    l0.473-0.473L186.86,153.041z"/>
		<path d="M186.514,151.125c-0.321-0.322-0.604-0.594-0.875-0.832l0.413-0.414l0.559,0.516l0.017-0.016    c-0.249-0.485-0.19-1.008,0.126-1.325c0.049-0.048,0.092-0.08,0.141-0.117l0.469,0.469c-0.055,0.042-0.107,0.085-0.172,0.149    c-0.333,0.333-0.305,0.835-0.001,1.268c0.062,0.084,0.137,0.169,0.216,0.248l1.464,1.464l-0.473,0.473L186.514,151.125z"/>
		<path d="M191.222,150.308c-0.699,0.699-1.791,0.704-2.655-0.161c-0.916-0.916-0.878-2.029-0.164-2.743    c0.747-0.747,1.823-0.681,2.654,0.15c1.019,1.018,0.788,2.13,0.169,2.749L191.222,150.308z M190.869,149.913    c0.452-0.452,0.344-1.236-0.277-1.858c-0.464-0.463-1.267-0.826-1.826-0.267c-0.553,0.553-0.252,1.337,0.269,1.858    c0.599,0.599,1.374,0.729,1.831,0.272L190.869,149.913z"/>
		<path d="M191.208,146.511c-0.352-0.351-0.64-0.627-0.916-0.872l0.425-0.424l0.496,0.442l0.011-0.011    c-0.151-0.527-0.031-1.032,0.387-1.451c0.635-0.634,1.668-0.547,2.498,0.284c0.984,0.984,0.896,2.045,0.289,2.652    c-0.35,0.349-0.804,0.487-1.23,0.371l-0.011,0.01l1.487,1.487l-0.474,0.473L191.208,146.511z M192.41,146.767    c0.068,0.068,0.146,0.137,0.225,0.183c0.426,0.264,0.954,0.211,1.287-0.121c0.5-0.5,0.359-1.22-0.268-1.848    c-0.549-0.548-1.286-0.749-1.785-0.249c-0.322,0.322-0.393,0.866-0.104,1.336c0.052,0.073,0.108,0.162,0.171,0.224L192.41,146.767    z"/>
		<path d="M195.099,143.75c0.678,0.657,1.357,0.531,1.831,0.058c0.339-0.338,0.485-0.61,0.578-0.861l0.442,0.271    c-0.087,0.245-0.281,0.631-0.695,1.045c-0.795,0.795-1.838,0.719-2.658-0.101c-0.824-0.825-1.008-1.943-0.25-2.701    c0.848-0.849,1.855-0.283,2.358,0.22c0.102,0.102,0.17,0.181,0.216,0.248L195.099,143.75z M196.125,142.012    c-0.312-0.321-0.933-0.685-1.459-0.158c-0.484,0.484-0.225,1.152,0.083,1.534L196.125,142.012z"/>
	</g>
	<g>
		<path d="M205.862,152.79c0.186-0.287,0.495-0.665,0.812-0.982c0.5-0.5,0.93-0.725,1.369-0.737c0.342-0.013,0.709,0.14,1.009,0.439    c0.497,0.498,0.525,1.138,0.284,1.649l0.018,0.018c0.375-0.172,0.812-0.068,1.301,0.236c0.65,0.414,1.104,0.695,1.32,0.772    l-0.484,0.484c-0.172-0.055-0.574-0.295-1.146-0.674c-0.633-0.418-1.029-0.417-1.471-0.01l-0.441,0.44l1.651,1.651l-0.468,0.468    L205.862,152.79z M208.059,154.052l0.479-0.478c0.5-0.5,0.528-1.104,0.093-1.54c-0.491-0.492-1.045-0.368-1.539,0.126    c-0.226,0.226-0.359,0.404-0.417,0.507L208.059,154.052z"/>
		<path d="M213.915,150.741c0.289,0.289,0.543,0.532,0.773,0.73l-0.418,0.419l-0.475-0.419l-0.01,0.01    c0.102,0.339,0.111,0.907-0.352,1.369c-0.408,0.408-1.141,0.654-2.096-0.301l-1.6-1.6l0.473-0.473l1.51,1.51    c0.52,0.52,1.032,0.721,1.457,0.296c0.316-0.317,0.305-0.77,0.164-1.082c-0.04-0.094-0.115-0.201-0.211-0.296l-1.674-1.674    l0.473-0.473L213.915,150.741z"/>
		<path d="M214.878,150.264c0.235-0.055,0.585-0.2,0.821-0.437c0.339-0.339,0.324-0.675,0.092-0.907    c-0.236-0.237-0.496-0.228-0.975-0.02c-0.654,0.292-1.146,0.241-1.468-0.082c-0.44-0.441-0.46-1.147,0.094-1.7    c0.263-0.263,0.567-0.42,0.804-0.464l0.243,0.469c-0.163,0.04-0.448,0.132-0.689,0.374c-0.279,0.279-0.261,0.599-0.057,0.803    c0.226,0.226,0.478,0.177,0.958-0.02c0.621-0.271,1.096-0.27,1.502,0.137c0.486,0.486,0.466,1.185-0.142,1.792    c-0.284,0.285-0.627,0.469-0.923,0.538L214.878,150.264z"/>
		<path d="M217.006,148.136c0.236-0.055,0.584-0.2,0.821-0.437c0.339-0.338,0.324-0.675,0.093-0.907    c-0.238-0.237-0.496-0.228-0.977-0.02c-0.652,0.292-1.145,0.241-1.467-0.081c-0.441-0.441-0.459-1.147,0.094-1.701    c0.264-0.263,0.568-0.421,0.804-0.464l0.243,0.469c-0.164,0.04-0.447,0.132-0.689,0.374c-0.279,0.279-0.26,0.599-0.057,0.803    c0.226,0.226,0.479,0.177,0.958-0.02c0.621-0.271,1.095-0.27,1.502,0.138c0.485,0.486,0.466,1.185-0.142,1.792    c-0.285,0.285-0.627,0.469-0.924,0.539L217.006,148.136z"/>
		<path d="M216.734,143.026c-0.172,0.172-0.427,0.143-0.59-0.021c-0.175-0.175-0.192-0.429-0.016-0.606    c0.172-0.172,0.426-0.154,0.601,0.021c0.164,0.164,0.193,0.418,0.01,0.601L216.734,143.026z M219.708,146.452l-2.736-2.736    l0.474-0.473l2.736,2.736L219.708,146.452z"/>
		<path d="M222.142,142.706c0.237,0.237,0.479,0.458,0.693,0.618l-0.425,0.425l-0.387-0.302l-0.018,0.017    c0.076,0.354-0.017,0.832-0.387,1.202c-0.527,0.526-1.186,0.405-1.582,0.009c-0.662-0.662-0.465-1.582,0.546-2.581l-0.057-0.057    c-0.226-0.226-0.698-0.58-1.224-0.042c-0.247,0.247-0.427,0.573-0.479,0.886l-0.44-0.226c0.073-0.356,0.293-0.77,0.621-1.098    c0.801-0.801,1.566-0.423,2.115,0.126L222.142,142.706z M220.939,142.428c-0.526,0.504-1.017,1.187-0.485,1.718    c0.328,0.328,0.68,0.271,0.916,0.034c0.344-0.344,0.338-0.79,0.182-1.097c-0.035-0.067-0.086-0.129-0.137-0.18L220.939,142.428z"/>
	</g>
	<g>
		<path d="M220.325,169.39c0.346-0.074,0.754-0.267,1.076-0.59c0.479-0.478,0.497-1.018,0.113-1.402    c-0.357-0.356-0.76-0.372-1.44-0.076c-0.806,0.376-1.5,0.414-2.031-0.117c-0.593-0.593-0.566-1.502,0.138-2.206    c0.365-0.365,0.729-0.549,0.976-0.614l0.278,0.536c-0.187,0.04-0.535,0.174-0.863,0.502c-0.494,0.494-0.371,0.993-0.111,1.253    c0.351,0.351,0.746,0.306,1.449,0.009c0.867-0.358,1.479-0.359,2.039,0.201c0.582,0.583,0.688,1.505-0.167,2.36    c-0.349,0.349-0.844,0.617-1.173,0.675L220.325,169.39z"/>
		<path d="M224.77,166.268c-0.699,0.699-1.79,0.704-2.654-0.161c-0.916-0.916-0.879-2.029-0.164-2.743    c0.746-0.747,1.822-0.681,2.654,0.15c1.018,1.018,0.787,2.131,0.169,2.749L224.77,166.268z M224.417,165.873    c0.451-0.451,0.344-1.236-0.278-1.858c-0.463-0.463-1.266-0.826-1.825-0.267c-0.554,0.554-0.253,1.338,0.268,1.858    c0.599,0.599,1.374,0.729,1.831,0.272L224.417,165.873z"/>
		<path d="M228.023,161.386c0.288,0.289,0.543,0.532,0.773,0.73l-0.419,0.419l-0.475-0.419l-0.01,0.011    c0.103,0.338,0.111,0.906-0.351,1.369c-0.408,0.408-1.141,0.654-2.097-0.301l-1.6-1.6l0.473-0.473l1.51,1.51    c0.521,0.52,1.033,0.721,1.457,0.296c0.317-0.317,0.305-0.77,0.165-1.082c-0.04-0.094-0.116-0.201-0.212-0.296l-1.674-1.674    l0.474-0.473L228.023,161.386z"/>
		<path d="M226.737,157.391l0.656,0.656l0.678-0.677l0.379,0.379l-0.678,0.677l1.47,1.47c0.339,0.339,0.623,0.44,0.886,0.177    c0.129-0.129,0.193-0.215,0.24-0.309l0.4,0.357c-0.057,0.126-0.168,0.305-0.352,0.487c-0.22,0.22-0.477,0.318-0.719,0.302    c-0.281-0.024-0.579-0.213-0.901-0.536l-1.487-1.487l-0.402,0.403l-0.379-0.379l0.402-0.403l-0.502-0.503L226.737,157.391z"/>
		<path d="M227.325,155.56l0.473-0.473l1.707,1.708l0.012-0.011c-0.066-0.216-0.078-0.465-0.013-0.689    c0.05-0.23,0.165-0.448,0.343-0.625c0.349-0.349,1.134-0.681,2.078,0.263l1.628,1.628l-0.473,0.473l-1.577-1.577    c-0.441-0.441-0.965-0.653-1.41-0.207c-0.307,0.306-0.316,0.769-0.137,1.131c0.041,0.095,0.109,0.173,0.205,0.27l1.65,1.651    l-0.473,0.473L227.325,155.56z"/>
		<path d="M231.667,151.625l0.467-0.468l1.838,1.837l0.016-0.016c-0.051-0.244-0.089-0.477-0.122-0.691l-0.323-2.538l0.58-0.581    l0.306,2.928l3.606,0.781l-0.553,0.553l-3.059-0.683l0.069,0.767l1.452,1.453l-0.467,0.468L231.667,151.625z"/>
		<path d="M239.495,151.543c-0.699,0.698-1.79,0.704-2.654-0.161c-0.916-0.916-0.879-2.029-0.164-2.743    c0.746-0.747,1.822-0.681,2.654,0.15c1.018,1.018,0.787,2.131,0.169,2.749L239.495,151.543z M239.142,151.148    c0.451-0.451,0.344-1.236-0.278-1.858c-0.463-0.463-1.266-0.826-1.825-0.267c-0.554,0.554-0.253,1.338,0.268,1.858    c0.599,0.599,1.374,0.729,1.831,0.272L239.142,151.148z"/>
		<path d="M239.44,147.707c-0.321-0.322-0.604-0.594-0.874-0.833l0.413-0.414l0.559,0.516l0.017-0.017    c-0.249-0.485-0.191-1.008,0.126-1.325c0.048-0.048,0.092-0.08,0.141-0.118l0.469,0.469c-0.055,0.043-0.107,0.086-0.172,0.15    c-0.334,0.333-0.305,0.835-0.001,1.268c0.062,0.084,0.137,0.169,0.216,0.248l1.464,1.464l-0.474,0.473L239.44,147.707z"/>
		<path d="M242.018,146.339c0.678,0.657,1.357,0.531,1.83,0.058c0.339-0.338,0.486-0.61,0.579-0.862l0.442,0.271    c-0.088,0.246-0.281,0.632-0.695,1.046c-0.795,0.795-1.838,0.719-2.658-0.101c-0.825-0.825-1.009-1.943-0.251-2.701    c0.849-0.849,1.855-0.283,2.358,0.22c0.102,0.102,0.17,0.181,0.216,0.248L242.018,146.339z M243.043,144.602    c-0.312-0.321-0.933-0.685-1.459-0.158c-0.484,0.483-0.225,1.151,0.083,1.534L243.043,144.602z"/>
		<path d="M246.895,142.706c0.238,0.237,0.48,0.458,0.693,0.618l-0.424,0.424l-0.388-0.302l-0.017,0.016    c0.076,0.354-0.017,0.832-0.388,1.203c-0.526,0.526-1.185,0.405-1.581,0.009c-0.662-0.662-0.465-1.582,0.545-2.581l-0.057-0.057    c-0.226-0.226-0.697-0.58-1.223-0.042c-0.248,0.247-0.427,0.573-0.479,0.885l-0.44-0.226c0.073-0.356,0.293-0.77,0.621-1.097    c0.801-0.801,1.565-0.423,2.114,0.126L246.895,142.706z M245.693,142.427c-0.526,0.504-1.017,1.187-0.485,1.718    c0.328,0.328,0.68,0.271,0.916,0.035c0.344-0.344,0.338-0.79,0.182-1.098c-0.035-0.067-0.086-0.129-0.137-0.18L245.693,142.427z"/>
	</g>
	<g>
		<path d="M254.696,154.189l-1.102,1.102l-0.418-0.418l2.681-2.681l0.419,0.418l-1.107,1.107l3.393,3.392l-0.473,0.473    L254.696,154.189z"/>
		<path d="M260.887,153.47c0.238,0.237,0.48,0.458,0.693,0.618l-0.424,0.425l-0.388-0.302l-0.017,0.017    c0.076,0.354-0.018,0.832-0.388,1.202c-0.526,0.526-1.185,0.405-1.581,0.009c-0.662-0.662-0.465-1.582,0.545-2.581l-0.057-0.057    c-0.226-0.226-0.697-0.58-1.223-0.042c-0.248,0.247-0.427,0.573-0.48,0.886l-0.439-0.227c0.072-0.355,0.293-0.77,0.621-1.097    c0.801-0.801,1.565-0.423,2.114,0.126L260.887,153.47z M259.684,153.191c-0.526,0.504-1.016,1.186-0.484,1.717    c0.328,0.328,0.68,0.271,0.916,0.035c0.344-0.344,0.338-0.79,0.181-1.097c-0.034-0.067-0.086-0.129-0.137-0.18L259.684,153.191z"/>
		<path d="M259.328,149.942c-0.173,0.172-0.427,0.144-0.591-0.02c-0.175-0.175-0.192-0.429-0.015-0.607    c0.172-0.172,0.425-0.154,0.601,0.021c0.164,0.164,0.192,0.418,0.01,0.601L259.328,149.942z M262.301,153.368l-2.736-2.736    l0.473-0.473l2.736,2.736L262.301,153.368z"/>
		<path d="M261.01,149.186l1.734,1.036c0.375,0.235,0.734,0.454,1.064,0.688l0.016-0.016c-0.217-0.336-0.426-0.716-0.639-1.101    l-0.967-1.815l0.398-0.398l1.771,0.965c0.419,0.226,0.788,0.444,1.124,0.662l0.016-0.016c-0.232-0.32-0.451-0.678-0.688-1.086    l-1.004-1.745l0.469-0.468l1.897,3.575l-0.431,0.43l-1.703-0.909c-0.402-0.219-0.748-0.416-1.135-0.673l-0.012,0.011    c0.264,0.392,0.472,0.761,0.674,1.147l0.881,1.719l-0.43,0.43l-3.521-1.952L261.01,149.186z"/>
		<path d="M268.668,145.688c0.238,0.237,0.48,0.458,0.693,0.618l-0.424,0.424l-0.388-0.302l-0.017,0.016    c0.076,0.354-0.017,0.832-0.388,1.203c-0.526,0.526-1.185,0.405-1.581,0.009c-0.662-0.662-0.465-1.582,0.545-2.581l-0.057-0.057    c-0.226-0.226-0.697-0.58-1.223-0.042c-0.248,0.247-0.427,0.573-0.479,0.885l-0.44-0.226c0.073-0.356,0.293-0.77,0.621-1.097    c0.801-0.801,1.565-0.423,2.114,0.126L268.668,145.688z M267.466,145.41c-0.526,0.504-1.017,1.187-0.485,1.718    c0.328,0.328,0.68,0.271,0.916,0.035c0.344-0.344,0.338-0.79,0.182-1.098c-0.035-0.067-0.086-0.129-0.137-0.18L267.466,145.41z"/>
		<path d="M268.086,143.591c-0.288-0.289-0.519-0.509-0.762-0.719l0.42-0.419l0.473,0.42l0.012-0.011    c-0.126-0.383-0.08-0.939,0.35-1.369c0.359-0.359,1.146-0.692,2.084,0.247l1.634,1.634l-0.473,0.473l-1.577-1.577    c-0.441-0.441-0.971-0.659-1.416-0.212c-0.307,0.306-0.316,0.78-0.125,1.143c0.041,0.084,0.12,0.185,0.199,0.264l1.65,1.651    l-0.473,0.473L268.086,143.591z"/>
	</g>
	<g>
		<path d="M279.17,153.631l1.951-1.95l0.412,0.413l-1.477,1.477l1.266,1.266l1.365-1.365l0.408,0.407l-1.365,1.365l1.725,1.724    l-0.475,0.473L279.17,153.631z"/>
		<path d="M283.565,153.092c-0.32-0.322-0.604-0.594-0.875-0.832l0.414-0.414l0.559,0.516l0.018-0.017    c-0.25-0.485-0.191-1.008,0.125-1.325c0.049-0.048,0.092-0.08,0.141-0.118l0.469,0.469c-0.055,0.043-0.107,0.086-0.172,0.15    c-0.334,0.333-0.305,0.835,0,1.267c0.062,0.084,0.137,0.169,0.215,0.248l1.465,1.464l-0.475,0.473L283.565,153.092z"/>
		<path d="M288.356,150.756c0.236,0.237,0.48,0.458,0.693,0.618l-0.426,0.425l-0.387-0.302l-0.016,0.017    c0.074,0.354-0.018,0.832-0.389,1.202c-0.525,0.526-1.186,0.405-1.582,0.009c-0.66-0.662-0.465-1.582,0.547-2.581l-0.057-0.057    c-0.227-0.226-0.697-0.58-1.225-0.042c-0.246,0.247-0.426,0.573-0.479,0.886l-0.441-0.226c0.074-0.356,0.295-0.77,0.623-1.098    c0.801-0.801,1.564-0.423,2.113,0.126L288.356,150.756z M287.153,150.478c-0.527,0.504-1.018,1.187-0.486,1.718    c0.328,0.328,0.68,0.271,0.916,0.034c0.344-0.344,0.338-0.79,0.182-1.097c-0.033-0.067-0.086-0.129-0.137-0.18L287.153,150.478z"/>
		<path d="M287.774,148.659c-0.289-0.289-0.52-0.509-0.762-0.719l0.418-0.419l0.475,0.42l0.01-0.011    c-0.125-0.383-0.078-0.939,0.352-1.369c0.359-0.36,1.145-0.692,2.084,0.246l1.633,1.634l-0.473,0.473l-1.578-1.577    c-0.439-0.441-0.969-0.659-1.416-0.213c-0.305,0.306-0.314,0.78-0.125,1.143c0.041,0.084,0.121,0.185,0.201,0.264l1.65,1.651    l-0.473,0.473L287.774,148.659z"/>
		<path d="M294.504,145.716c-0.062,0.186-0.24,0.556-0.59,0.905c-0.783,0.785-1.854,0.735-2.691-0.102    c-0.842-0.842-0.91-2.007-0.061-2.856c0.279-0.279,0.6-0.453,0.803-0.508l0.271,0.485c-0.176,0.051-0.42,0.161-0.678,0.419    c-0.598,0.597-0.451,1.388,0.115,1.953c0.633,0.633,1.41,0.636,1.926,0.121c0.268-0.269,0.379-0.514,0.449-0.711L294.504,145.716z    "/>
		<path d="M294.118,143.75c0.678,0.657,1.357,0.531,1.832,0.058c0.338-0.338,0.484-0.61,0.578-0.861l0.441,0.271    c-0.086,0.245-0.281,0.631-0.695,1.045c-0.795,0.795-1.838,0.719-2.658-0.101c-0.824-0.825-1.008-1.943-0.25-2.701    c0.848-0.849,1.855-0.283,2.359,0.22c0.102,0.102,0.17,0.181,0.215,0.248L294.118,143.75z M295.143,142.013    c-0.311-0.321-0.932-0.685-1.459-0.158c-0.484,0.484-0.225,1.152,0.084,1.534L295.143,142.013z"/>
	</g>
	<g>
		<path d="M293.789,170.191c0.346-0.074,0.754-0.267,1.076-0.59c0.479-0.478,0.497-1.018,0.113-1.402    c-0.357-0.356-0.76-0.372-1.44-0.076c-0.806,0.376-1.499,0.414-2.03-0.118c-0.594-0.593-0.567-1.501,0.137-2.206    c0.365-0.365,0.729-0.549,0.976-0.614l0.278,0.535c-0.187,0.04-0.535,0.174-0.863,0.502c-0.494,0.494-0.371,0.994-0.111,1.253    c0.351,0.351,0.746,0.305,1.449,0.009c0.867-0.358,1.479-0.359,2.039,0.201c0.582,0.583,0.688,1.505-0.167,2.36    c-0.349,0.349-0.844,0.617-1.173,0.675L293.789,170.191z"/>
		<path d="M298.256,165.61c0.237,0.237,0.479,0.458,0.693,0.618l-0.425,0.424l-0.387-0.302l-0.017,0.016    c0.075,0.354-0.017,0.832-0.388,1.203c-0.527,0.526-1.186,0.405-1.582,0.009c-0.661-0.662-0.465-1.582,0.547-2.581l-0.057-0.057    c-0.227-0.226-0.698-0.58-1.225-0.042c-0.247,0.247-0.426,0.573-0.479,0.885l-0.441-0.226c0.074-0.356,0.295-0.77,0.622-1.098    c0.8-0.8,1.565-0.422,2.114,0.126L298.256,165.61z M297.054,165.331c-0.527,0.504-1.018,1.187-0.486,1.718    c0.328,0.328,0.68,0.271,0.916,0.035c0.344-0.344,0.338-0.791,0.182-1.098c-0.035-0.067-0.086-0.129-0.137-0.18L297.054,165.331z"/>
		<path d="M301.095,162.579c0.288,0.289,0.543,0.532,0.773,0.73l-0.42,0.419l-0.474-0.42l-0.011,0.011    c0.104,0.338,0.112,0.906-0.35,1.369c-0.408,0.408-1.141,0.654-2.097-0.301l-1.601-1.6l0.474-0.473l1.51,1.51    c0.521,0.52,1.032,0.721,1.456,0.296c0.317-0.317,0.306-0.77,0.166-1.082c-0.041-0.094-0.116-0.201-0.212-0.296l-1.674-1.674    l0.474-0.473L301.095,162.579z"/>
		<path d="M300.863,156.286l3.309,3.308c0.242,0.243,0.525,0.515,0.728,0.685l-0.425,0.424l-0.496-0.454l-0.011,0.011    c0.16,0.451,0.081,0.994-0.344,1.419c-0.628,0.628-1.678,0.558-2.509-0.273c-0.922-0.911-0.933-2.008-0.305-2.636    c0.404-0.403,0.871-0.474,1.198-0.372l0.011-0.011l-1.629-1.628L300.863,156.286z M302.783,159.15    c-0.068-0.068-0.152-0.142-0.236-0.193c-0.381-0.241-0.899-0.243-1.254,0.112c-0.488,0.489-0.327,1.231,0.271,1.831    c0.561,0.56,1.282,0.754,1.787,0.25c0.316-0.317,0.381-0.833,0.094-1.293c-0.046-0.078-0.108-0.151-0.188-0.23L302.783,159.15z"/>
		<path d="M302.689,156.09c-0.172,0.172-0.428,0.144-0.591-0.02c-0.175-0.175-0.192-0.429-0.015-0.607    c0.172-0.172,0.426-0.154,0.601,0.021c0.163,0.164,0.192,0.418,0.009,0.601L302.689,156.09z M305.662,159.516l-2.736-2.736    l0.474-0.473l2.736,2.736L305.662,159.516z"/>
		<path d="M307.462,155.318l0.822,1.575l-0.483,0.484l-2.58-5.041l0.563-0.564l5.047,2.575l-0.5,0.5l-1.586-0.812L307.462,155.318z     M308.265,153.747l-1.456-0.737c-0.324-0.173-0.604-0.346-0.878-0.512l-0.017,0.016c0.172,0.269,0.351,0.565,0.513,0.867    l0.748,1.457L308.265,153.747z"/>
		<path d="M309.464,151.947c-0.321-0.322-0.604-0.594-0.875-0.832l0.414-0.414l0.559,0.516l0.017-0.017    c-0.249-0.485-0.191-1.008,0.126-1.325c0.048-0.048,0.092-0.08,0.141-0.117l0.469,0.469c-0.055,0.042-0.107,0.085-0.172,0.149    c-0.334,0.333-0.305,0.835-0.001,1.268c0.062,0.084,0.137,0.169,0.216,0.248l1.464,1.464l-0.474,0.473L309.464,151.947z"/>
		<path d="M314.255,149.611c0.236,0.237,0.479,0.458,0.693,0.618l-0.426,0.425l-0.387-0.302l-0.017,0.017    c0.075,0.354-0.017,0.832-0.388,1.202c-0.526,0.526-1.186,0.405-1.582,0.009c-0.661-0.662-0.464-1.583,0.547-2.581l-0.057-0.057    c-0.227-0.226-0.698-0.58-1.225-0.042c-0.246,0.247-0.426,0.573-0.479,0.886l-0.441-0.227c0.074-0.355,0.295-0.77,0.622-1.097    c0.801-0.801,1.565-0.423,2.114,0.126L314.255,149.611z M313.052,149.333c-0.527,0.505-1.018,1.187-0.486,1.718    c0.328,0.328,0.68,0.271,0.916,0.034c0.344-0.344,0.338-0.79,0.182-1.097c-0.034-0.067-0.086-0.129-0.137-0.18L313.052,149.333z"/>
		<path d="M311.655,145.495l0.474-0.473l1.713,1.713l0.01-0.01c-0.139-0.472-0.029-0.965,0.389-1.384    c0.646-0.645,1.662-0.53,2.488,0.295c0.983,0.984,0.879,2.062,0.299,2.642c-0.377,0.376-0.825,0.519-1.385,0.355l-0.012,0.011    l0.426,0.479l-0.408,0.408c-0.172-0.202-0.442-0.485-0.686-0.728L311.655,145.495z M315.045,147.939    c0.062,0.062,0.13,0.12,0.196,0.165c0.437,0.254,0.953,0.211,1.291-0.126c0.5-0.5,0.367-1.214-0.262-1.842    c-0.554-0.554-1.291-0.754-1.796-0.25c-0.323,0.323-0.386,0.861-0.104,1.325c0.047,0.079,0.104,0.156,0.184,0.236L315.045,147.939    z"/>
		<path d="M315.752,143.026c-0.172,0.172-0.427,0.143-0.59-0.021c-0.175-0.175-0.192-0.429-0.016-0.606    c0.172-0.172,0.426-0.154,0.601,0.021c0.164,0.164,0.193,0.418,0.01,0.601L315.752,143.026z M318.726,146.451l-2.736-2.736    l0.474-0.473l2.736,2.736L318.726,146.451z"/>
		<path d="M321.161,142.706c0.237,0.237,0.479,0.458,0.693,0.618l-0.425,0.425l-0.387-0.302l-0.018,0.017    c0.076,0.354-0.017,0.832-0.387,1.202c-0.527,0.526-1.186,0.405-1.582,0.009c-0.662-0.662-0.465-1.582,0.546-2.581l-0.057-0.057    c-0.226-0.226-0.698-0.58-1.224-0.042c-0.247,0.247-0.427,0.573-0.479,0.886l-0.44-0.226c0.073-0.356,0.293-0.77,0.621-1.098    c0.801-0.801,1.566-0.423,2.115,0.126L321.161,142.706z M319.958,142.427c-0.526,0.504-1.017,1.187-0.485,1.718    c0.328,0.328,0.68,0.271,0.916,0.034c0.344-0.344,0.338-0.79,0.182-1.097c-0.035-0.067-0.086-0.129-0.137-0.18L319.958,142.427z"/>
	</g>
	<g>
		<path d="M328.444,160.489l-4.998-2.623l0.512-0.51l2.441,1.313c0.664,0.363,1.268,0.698,1.811,1.037l0.012-0.011    c-0.34-0.543-0.676-1.168-1.006-1.833l-1.27-2.496l0.5-0.5l2.514,5.106L328.444,160.489z"/>
		<path d="M327.573,154.962c-0.174,0.172-0.428,0.144-0.592-0.02c-0.174-0.175-0.191-0.429-0.014-0.607    c0.172-0.172,0.426-0.154,0.6,0.021c0.164,0.164,0.193,0.418,0.01,0.601L327.573,154.962z M330.545,158.388l-2.736-2.736    l0.473-0.473l2.736,2.736L330.545,158.388z"/>
		<path d="M330.793,155.583c0.68,0.657,1.359,0.531,1.832,0.058c0.338-0.338,0.486-0.61,0.578-0.862l0.441,0.271    c-0.086,0.246-0.281,0.632-0.695,1.046c-0.795,0.795-1.838,0.719-2.658-0.101c-0.824-0.825-1.008-1.944-0.25-2.702    c0.85-0.849,1.855-0.283,2.359,0.22c0.102,0.102,0.17,0.181,0.215,0.248L330.793,155.583z M331.819,153.847    c-0.311-0.322-0.932-0.685-1.459-0.159c-0.482,0.484-0.223,1.152,0.084,1.534L331.819,153.847z"/>
		<path d="M331.672,150.476l0.656,0.656l0.678-0.677l0.379,0.379l-0.678,0.677l1.471,1.47c0.338,0.339,0.623,0.44,0.885,0.177    c0.129-0.129,0.193-0.215,0.24-0.308l0.4,0.357c-0.057,0.126-0.168,0.305-0.352,0.487c-0.219,0.22-0.477,0.318-0.719,0.302    c-0.281-0.024-0.578-0.213-0.9-0.536l-1.488-1.487l-0.402,0.403l-0.379-0.379l0.402-0.403l-0.502-0.503L331.672,150.476z"/>
		<path d="M334.28,150.663c-0.289-0.289-0.521-0.508-0.764-0.719l0.42-0.419l0.473,0.42l0.012-0.011    c-0.125-0.383-0.08-0.939,0.35-1.369c0.361-0.36,1.146-0.692,2.084,0.246l1.635,1.634l-0.473,0.473l-1.578-1.577    c-0.441-0.441-0.971-0.659-1.416-0.212c-0.307,0.306-0.316,0.78-0.125,1.143c0.041,0.084,0.121,0.185,0.199,0.264l1.65,1.651    l-0.473,0.473L334.28,150.663z"/>
		<path d="M340.434,147.188c0.236,0.237,0.479,0.458,0.693,0.618l-0.426,0.424l-0.387-0.302l-0.016,0.016    c0.074,0.354-0.018,0.832-0.389,1.203c-0.527,0.526-1.186,0.405-1.582,0.009c-0.66-0.662-0.465-1.582,0.547-2.581l-0.057-0.057    c-0.227-0.226-0.697-0.58-1.225-0.042c-0.246,0.248-0.426,0.573-0.479,0.886l-0.441-0.226c0.074-0.356,0.295-0.77,0.621-1.097    c0.801-0.801,1.566-0.423,2.115,0.126L340.434,147.188z M339.231,146.91c-0.527,0.504-1.018,1.186-0.486,1.717    c0.328,0.328,0.68,0.271,0.916,0.035c0.344-0.344,0.338-0.79,0.182-1.098c-0.035-0.067-0.086-0.128-0.137-0.179L339.231,146.91z"/>
		<path d="M339.852,145.091c-0.289-0.289-0.525-0.503-0.764-0.719l0.414-0.414l0.463,0.42l0.016-0.017    c-0.115-0.405-0.115-0.89,0.318-1.325c0.35-0.35,0.846-0.392,1.281-0.182l0.01-0.011c-0.078-0.239-0.084-0.459-0.061-0.652    c0.031-0.28,0.129-0.515,0.377-0.762c0.35-0.35,1.098-0.622,2.047,0.328l1.611,1.611l-0.461,0.462l-1.549-1.549    c-0.533-0.532-1.031-0.655-1.408-0.279c-0.273,0.274-0.268,0.688-0.117,1.011c0.053,0.095,0.127,0.202,0.211,0.287l1.697,1.696    l-0.463,0.462l-1.645-1.645c-0.436-0.436-0.93-0.563-1.289-0.204c-0.291,0.29-0.262,0.759-0.09,1.083    c0.049,0.1,0.121,0.196,0.207,0.281l1.65,1.651l-0.463,0.462L339.852,145.091z"/>
	</g>
	
		<line fill="none" stroke="#A7A9AC" stroke-width="0.5" stroke-linejoin="round" stroke-miterlimit="10" x1="34.21" y1="2.926" x2="357.142" y2="2.926"/>
	
		<line fill="none" stroke="#A7A9AC" stroke-width="0.5" stroke-linejoin="round" stroke-miterlimit="10" x1="34.21" y1="17.982" x2="357.142" y2="17.982"/>
	
		<line fill="none" stroke="#A7A9AC" stroke-width="0.5" stroke-linejoin="round" stroke-miterlimit="10" x1="34.21" y1="33.038" x2="357.142" y2="33.038"/>
	
		<line fill="none" stroke="#A7A9AC" stroke-width="0.5" stroke-linejoin="round" stroke-miterlimit="10" x1="34.21" y1="48.096" x2="357.142" y2="48.096"/>
	
		<line fill="none" stroke="#A7A9AC" stroke-width="0.5" stroke-linejoin="round" stroke-miterlimit="10" x1="34.21" y1="62.863" x2="357.142" y2="62.863"/>
	
		<line fill="none" stroke="#A7A9AC" stroke-width="0.5" stroke-linejoin="round" stroke-miterlimit="10" x1="34.21" y1="77.919" x2="357.142" y2="77.919"/>
	
		<line fill="none" stroke="#A7A9AC" stroke-width="0.5" stroke-linejoin="round" stroke-miterlimit="10" x1="34.21" y1="92.975" x2="357.142" y2="92.975"/>
	
		<line fill="none" stroke="#A7A9AC" stroke-width="0.5" stroke-linejoin="round" stroke-miterlimit="10" x1="34.21" y1="108.032" x2="357.142" y2="108.032"/>
	
		<line fill="none" stroke="#A7A9AC" stroke-width="0.5" stroke-linejoin="round" stroke-miterlimit="10" x1="34.21" y1="122.799" x2="357.142" y2="122.799"/>
	
		<rect x="337.58" y="136.118" fill="#A7A9AC" stroke="#000000" stroke-width="0.5" stroke-miterlimit="10" width="15.271" height="1.737"/>
	
		<rect x="312.723" y="134.959" fill="#A7A9AC" stroke="#000000" stroke-width="0.5" stroke-miterlimit="10" width="15.27" height="2.896"/>
	
		<rect x="287.866" y="134.959" fill="#A7A9AC" stroke="#000000" stroke-width="0.5" stroke-miterlimit="10" width="15.474" height="2.896"/>
	
		<rect x="263.01" y="133.512" fill="#A7A9AC" stroke="#000000" stroke-width="0.5" stroke-miterlimit="10" width="15.473" height="4.343"/>
	
		<rect x="238.357" y="133.223" fill="#A7A9AC" stroke="#000000" stroke-width="0.5" stroke-miterlimit="10" width="15.27" height="4.633"/>
	
		<rect x="213.5" y="132.644" fill="#A7A9AC" stroke="#000000" stroke-width="0.5" stroke-miterlimit="10" width="15.27" height="5.211"/>
	
		<rect x="188.643" y="130.038" fill="#A7A9AC" stroke="#000000" stroke-width="0.5" stroke-miterlimit="10" width="15.271" height="7.818"/>
	
		<rect x="163.788" y="128.3" fill="#A7A9AC" stroke="#000000" stroke-width="0.5" stroke-miterlimit="10" width="15.27" height="9.555"/>
	
		<rect x="138.93" y="124.826" fill="#A7A9AC" stroke="#000000" stroke-width="0.5" stroke-miterlimit="10" width="15.27" height="13.03"/>
	
		<rect x="114.074" y="97.319" fill="#A7A9AC" stroke="#000000" stroke-width="0.5" stroke-miterlimit="10" width="15.27" height="40.537"/>
	
		<rect x="89.217" y="88.922" fill="#A7A9AC" stroke="#000000" stroke-width="0.5" stroke-miterlimit="10" width="15.27" height="48.933"/>
	
		<rect x="64.361" y="59.967" fill="#A7A9AC" stroke="#000000" stroke-width="0.5" stroke-miterlimit="10" width="15.27" height="77.888"/>
	
		<rect x="39.504" y="10.744" fill="#A7A9AC" stroke="#000000" stroke-width="0.5" stroke-miterlimit="10" width="15.27" height="127.112"/>
	
		<line fill="none" stroke="#000000" stroke-width="0.5" stroke-linejoin="round" stroke-miterlimit="10" x1="44.594" y1="8.717" x2="49.684" y2="8.717"/>
	
		<line fill="none" stroke="#000000" stroke-width="0.5" stroke-linejoin="round" stroke-miterlimit="10" x1="44.594" y1="12.481" x2="49.684" y2="12.481"/>
	
		<line fill="none" stroke="#000000" stroke-width="0.5" stroke-linejoin="round" stroke-miterlimit="10" x1="47.241" y1="10.744" x2="47.241" y2="8.717"/>
	
		<line fill="none" stroke="#000000" stroke-width="0.5" stroke-linejoin="round" stroke-miterlimit="10" x1="47.241" y1="12.481" x2="47.241" y2="10.744"/>
	
		<line fill="none" stroke="#000000" stroke-width="0.5" stroke-linejoin="round" stroke-miterlimit="10" x1="69.451" y1="57.361" x2="74.541" y2="57.361"/>
	
		<line fill="none" stroke="#000000" stroke-width="0.5" stroke-linejoin="round" stroke-miterlimit="10" x1="69.451" y1="62.719" x2="74.541" y2="62.719"/>
	
		<line fill="none" stroke="#000000" stroke-width="0.5" stroke-linejoin="round" stroke-miterlimit="10" x1="72.097" y1="59.967" x2="72.097" y2="57.361"/>
	
		<line fill="none" stroke="#000000" stroke-width="0.5" stroke-linejoin="round" stroke-miterlimit="10" x1="72.097" y1="62.719" x2="72.097" y2="59.967"/>
	
		<line fill="none" stroke="#000000" stroke-width="0.5" stroke-linejoin="round" stroke-miterlimit="10" x1="94.307" y1="86.605" x2="99.392" y2="86.605"/>
	
		<line fill="none" stroke="#000000" stroke-width="0.5" stroke-linejoin="round" stroke-miterlimit="10" x1="94.307" y1="91.497" x2="99.392" y2="91.497"/>
	
		<line fill="none" stroke="#000000" stroke-width="0.5" stroke-linejoin="round" stroke-miterlimit="10" x1="96.75" y1="88.922" x2="96.75" y2="86.605"/>
	
		<line fill="none" stroke="#000000" stroke-width="0.5" stroke-linejoin="round" stroke-miterlimit="10" x1="96.75" y1="91.497" x2="96.75" y2="88.922"/>
	
		<line fill="none" stroke="#000000" stroke-width="0.5" stroke-linejoin="round" stroke-miterlimit="10" x1="119.164" y1="95.001" x2="124.236" y2="95.001"/>
	
		<line fill="none" stroke="#000000" stroke-width="0.5" stroke-linejoin="round" stroke-miterlimit="10" x1="119.164" y1="99.635" x2="124.236" y2="99.635"/>
	
		<line fill="none" stroke="#000000" stroke-width="0.5" stroke-linejoin="round" stroke-miterlimit="10" x1="121.607" y1="97.319" x2="121.607" y2="95.001"/>
	
		<line fill="none" stroke="#000000" stroke-width="0.5" stroke-linejoin="round" stroke-miterlimit="10" x1="121.607" y1="99.635" x2="121.607" y2="97.319"/>
	
		<line fill="none" stroke="#000000" stroke-width="0.5" stroke-linejoin="round" stroke-miterlimit="10" x1="144.021" y1="123.377" x2="149.081" y2="123.377"/>
	
		<line fill="none" stroke="#000000" stroke-width="0.5" stroke-linejoin="round" stroke-miterlimit="10" x1="144.021" y1="126.214" x2="149.081" y2="126.214"/>
	
		<line fill="none" stroke="#000000" stroke-width="0.5" stroke-linejoin="round" stroke-miterlimit="10" x1="146.463" y1="124.826" x2="146.463" y2="123.377"/>
	
		<line fill="none" stroke="#000000" stroke-width="0.5" stroke-linejoin="round" stroke-miterlimit="10" x1="146.463" y1="126.214" x2="146.463" y2="124.826"/>
	
		<line fill="none" stroke="#000000" stroke-width="0.5" stroke-linejoin="round" stroke-miterlimit="10" x1="168.877" y1="127.142" x2="173.924" y2="127.142"/>
	
		<line fill="none" stroke="#000000" stroke-width="0.5" stroke-linejoin="round" stroke-miterlimit="10" x1="168.877" y1="129.611" x2="173.924" y2="129.611"/>
	
		<line fill="none" stroke="#000000" stroke-width="0.5" stroke-linejoin="round" stroke-miterlimit="10" x1="171.321" y1="128.3" x2="171.321" y2="127.142"/>
	
		<line fill="none" stroke="#000000" stroke-width="0.5" stroke-linejoin="round" stroke-miterlimit="10" x1="171.321" y1="129.611" x2="171.321" y2="128.3"/>
	
		<line fill="none" stroke="#000000" stroke-width="0.5" stroke-linejoin="round" stroke-miterlimit="10" x1="193.734" y1="128.879" x2="198.769" y2="128.879"/>
	
		<line fill="none" stroke="#000000" stroke-width="0.5" stroke-linejoin="round" stroke-miterlimit="10" x1="193.734" y1="131.196" x2="198.769" y2="131.196"/>
	
		<line fill="none" stroke="#000000" stroke-width="0.5" stroke-linejoin="round" stroke-miterlimit="10" x1="196.176" y1="130.038" x2="196.176" y2="128.879"/>
	
		<line fill="none" stroke="#000000" stroke-width="0.5" stroke-linejoin="round" stroke-miterlimit="10" x1="196.176" y1="131.196" x2="196.176" y2="130.038"/>
	
		<line fill="none" stroke="#000000" stroke-width="0.5" stroke-linejoin="round" stroke-miterlimit="10" x1="218.59" y1="131.486" x2="223.613" y2="131.486"/>
	
		<line fill="none" stroke="#000000" stroke-width="0.5" stroke-linejoin="round" stroke-miterlimit="10" x1="218.59" y1="133.503" x2="223.613" y2="133.503"/>
	
		<line fill="none" stroke="#000000" stroke-width="0.5" stroke-linejoin="round" stroke-miterlimit="10" x1="221.034" y1="132.644" x2="221.034" y2="131.486"/>
	
		<line fill="none" stroke="#000000" stroke-width="0.5" stroke-linejoin="round" stroke-miterlimit="10" x1="221.034" y1="133.503" x2="221.034" y2="132.644"/>
	
		<line fill="none" stroke="#000000" stroke-width="0.5" stroke-linejoin="round" stroke-miterlimit="10" x1="243.447" y1="132.353" x2="248.457" y2="132.353"/>
	
		<line fill="none" stroke="#000000" stroke-width="0.5" stroke-linejoin="round" stroke-miterlimit="10" x1="243.447" y1="134.09" x2="248.457" y2="134.09"/>
	
		<line fill="none" stroke="#000000" stroke-width="0.5" stroke-linejoin="round" stroke-miterlimit="10" x1="245.889" y1="133.223" x2="245.889" y2="132.353"/>
	
		<line fill="none" stroke="#000000" stroke-width="0.5" stroke-linejoin="round" stroke-miterlimit="10" x1="245.889" y1="134.09" x2="245.889" y2="133.223"/>
	
		<line fill="none" stroke="#000000" stroke-width="0.5" stroke-linejoin="round" stroke-miterlimit="10" x1="268.303" y1="132.644" x2="273.3" y2="132.644"/>
	
		<line fill="none" stroke="#000000" stroke-width="0.5" stroke-linejoin="round" stroke-miterlimit="10" x1="268.303" y1="134.321" x2="273.3" y2="134.321"/>
	
		<line fill="none" stroke="#000000" stroke-width="0.5" stroke-linejoin="round" stroke-miterlimit="10" x1="270.747" y1="133.512" x2="270.747" y2="132.644"/>
	
		<line fill="none" stroke="#000000" stroke-width="0.5" stroke-linejoin="round" stroke-miterlimit="10" x1="270.747" y1="134.321" x2="270.747" y2="133.512"/>
	
		<line fill="none" stroke="#000000" stroke-width="0.5" stroke-linejoin="round" stroke-miterlimit="10" x1="292.956" y1="134.091" x2="298.045" y2="134.091"/>
	
		<line fill="none" stroke="#000000" stroke-width="0.5" stroke-linejoin="round" stroke-miterlimit="10" x1="292.956" y1="135.539" x2="298.045" y2="135.539"/>
	
		<line fill="none" stroke="#000000" stroke-width="0.5" stroke-linejoin="round" stroke-miterlimit="10" x1="295.603" y1="134.959" x2="295.603" y2="134.091"/>
	
		<line fill="none" stroke="#000000" stroke-width="0.5" stroke-linejoin="round" stroke-miterlimit="10" x1="295.603" y1="135.539" x2="295.603" y2="134.959"/>
	
		<line fill="none" stroke="#000000" stroke-width="0.5" stroke-linejoin="round" stroke-miterlimit="10" x1="317.813" y1="134.091" x2="322.903" y2="134.091"/>
	
		<line fill="none" stroke="#000000" stroke-width="0.5" stroke-linejoin="round" stroke-miterlimit="10" x1="317.813" y1="135.539" x2="322.903" y2="135.539"/>
	
		<line fill="none" stroke="#000000" stroke-width="0.5" stroke-linejoin="round" stroke-miterlimit="10" x1="320.459" y1="134.959" x2="320.459" y2="134.091"/>
	
		<line fill="none" stroke="#000000" stroke-width="0.5" stroke-linejoin="round" stroke-miterlimit="10" x1="320.459" y1="135.539" x2="320.459" y2="134.959"/>
	
		<line fill="none" stroke="#000000" stroke-width="0.5" stroke-linejoin="round" stroke-miterlimit="10" x1="342.669" y1="135.539" x2="347.759" y2="135.539"/>
	
		<line fill="none" stroke="#000000" stroke-width="0.5" stroke-linejoin="round" stroke-miterlimit="10" x1="342.669" y1="136.696" x2="347.759" y2="136.696"/>
	
		<line fill="none" stroke="#000000" stroke-width="0.5" stroke-linejoin="round" stroke-miterlimit="10" x1="345.316" y1="136.118" x2="345.316" y2="135.539"/>
	
		<line fill="none" stroke="#000000" stroke-width="0.5" stroke-linejoin="round" stroke-miterlimit="10" x1="345.316" y1="136.696" x2="345.316" y2="136.118"/>
	<polyline fill="none" stroke="#000000" stroke-width="0.5" stroke-linejoin="round" stroke-miterlimit="10" points="   357.21,137.926 34.236,137.926 34.236,2.926  "/>
	<g>
		<path d="M0.504,125.979c-0.072-0.359-0.126-0.829-0.126-1.427c0-0.735,0.18-1.273,0.504-1.615    c0.288-0.316,0.729-0.513,1.261-0.513c0.549,0,0.981,0.154,1.296,0.453c0.441,0.393,0.666,1.034,0.666,1.76    c0,0.223-0.009,0.428-0.054,0.599h2.44v0.743H0.504z M3.412,125.236c0.045-0.163,0.063-0.368,0.063-0.615    c0-0.897-0.459-1.444-1.287-1.444c-0.801,0-1.188,0.538-1.188,1.358c0,0.325,0.027,0.573,0.063,0.701H3.412z"/>
		<path d="M4.456,121.243c1.062-0.018,1.503-0.658,1.503-1.41c0-0.538-0.099-0.872-0.225-1.145l0.567-0.137    c0.126,0.265,0.279,0.726,0.279,1.384c0,1.265-0.891,2.034-2.196,2.034c-1.314,0-2.35-0.744-2.35-1.948    c0-1.35,1.251-1.701,2.053-1.701c0.162,0,0.279,0.009,0.369,0.026V121.243z M3.889,119.047c-0.504-0.009-1.288,0.196-1.288,1.034    c0,0.769,0.738,1.094,1.288,1.153V119.047z"/>
		<path d="M3.493,117.387c-0.513,0-0.954,0.009-1.359,0.034v-0.658l0.855-0.034v-0.026c-0.585-0.188-0.955-0.649-0.955-1.153    c0-0.077,0.009-0.137,0.018-0.205H2.8c-0.009,0.077-0.018,0.154-0.018,0.256c0,0.53,0.423,0.906,1.008,1.008    c0.117,0.017,0.243,0.025,0.369,0.025h2.332v0.752H3.493z"/>
		<path d="M6.329,111.729c0.099,0.196,0.252,0.632,0.252,1.188c0,1.248-0.891,2.06-2.224,2.06c-1.341,0-2.323-0.872-2.323-2.222    c0-0.444,0.117-0.837,0.234-1.042l0.603,0.171c-0.099,0.179-0.207,0.461-0.207,0.872c0,0.948,0.747,1.461,1.647,1.461    c1.008,0,1.629-0.615,1.629-1.436c0-0.427-0.108-0.709-0.207-0.923L6.329,111.729z"/>
		<path d="M4.456,110.47c1.062-0.017,1.503-0.658,1.503-1.41c0-0.539-0.099-0.872-0.225-1.145l0.567-0.137    c0.126,0.265,0.279,0.727,0.279,1.384c0,1.265-0.891,2.034-2.196,2.034c-1.314,0-2.35-0.743-2.35-1.948    c0-1.35,1.251-1.7,2.053-1.7c0.162,0,0.279,0.008,0.369,0.025V110.47z M3.889,108.274c-0.504-0.008-1.288,0.197-1.288,1.034    c0,0.77,0.738,1.094,1.288,1.154V108.274z"/>
		<path d="M3.313,106.614c-0.459,0-0.819,0.008-1.18,0.034v-0.667l0.711-0.042v-0.017c-0.405-0.205-0.811-0.684-0.811-1.367    c0-0.572,0.36-1.461,1.855-1.461h2.602v0.752H3.979c-0.702,0-1.296,0.248-1.296,0.957c0,0.487,0.369,0.871,0.81,1.008    c0.099,0.034,0.243,0.052,0.369,0.052h2.629v0.752H3.313z"/>
		<path d="M1.089,100.997h1.044V99.92h0.604v1.077h2.34c0.541,0,0.846-0.146,0.846-0.564c0-0.205-0.018-0.324-0.054-0.436    l0.603-0.034c0.054,0.146,0.108,0.376,0.108,0.667c0,0.35-0.126,0.632-0.333,0.812c-0.243,0.205-0.63,0.29-1.143,0.29H2.737v0.641    H2.133v-0.641H1.332L1.089,100.997z"/>
		<path d="M5.446,96.159c0.378,0,0.748-0.017,1.044-0.06v0.675l-0.549,0.068v0.025c0.342,0.223,0.648,0.675,0.648,1.265    c0,0.838-0.621,1.265-1.251,1.265c-1.053,0-1.629-0.889-1.621-2.486h-0.09c-0.36,0-1.018,0.094-1.008,0.94    c0,0.393,0.117,0.794,0.324,1.085l-0.531,0.171c-0.225-0.342-0.378-0.846-0.378-1.367c0-1.273,0.91-1.581,1.783-1.581H5.446z     M4.267,96.894c-0.018,0.82,0.135,1.751,0.981,1.751c0.522,0,0.756-0.324,0.756-0.7c0-0.547-0.36-0.897-0.729-1.017    c-0.081-0.026-0.171-0.034-0.252-0.034H4.267z"/>
		<path d="M5.852,91.414c1.008,0,1.611,0.197,1.999,0.59c0.387,0.41,0.522,0.991,0.522,1.513c0,0.495-0.126,1.042-0.36,1.375    L7.4,94.704c0.189-0.273,0.351-0.701,0.351-1.213c0-0.769-0.423-1.333-1.53-1.333H5.744v0.017    c0.405,0.222,0.729,0.675,0.729,1.316c0,1.025-0.918,1.76-2.134,1.76c-1.476,0-2.305-0.914-2.305-1.871    c0-0.718,0.387-1.103,0.756-1.291v-0.017l-0.657-0.025V91.38c0.306,0.026,0.667,0.034,1.188,0.034H5.852z M3.844,92.166    c-0.126,0-0.243,0.009-0.351,0.043c-0.468,0.137-0.846,0.496-0.846,1.051c0,0.718,0.639,1.23,1.657,1.23    c0.846,0,1.566-0.418,1.566-1.222c0-0.47-0.306-0.889-0.819-1.042c-0.126-0.042-0.279-0.06-0.423-0.06H3.844z"/>
		<path d="M4.456,89.745c1.062-0.017,1.503-0.658,1.503-1.41c0-0.539-0.099-0.872-0.225-1.145l0.567-0.137    c0.126,0.265,0.279,0.727,0.279,1.384c0,1.265-0.891,2.034-2.196,2.034c-1.314,0-2.35-0.743-2.35-1.948    c0-1.35,1.251-1.7,2.053-1.7c0.162,0,0.279,0.008,0.369,0.025V89.745z M3.889,87.549c-0.504-0.008-1.288,0.197-1.288,1.034    c0,0.77,0.738,1.094,1.288,1.154V87.549z"/>
		<path d="M6.59,82.393c0,1.111-0.864,1.982-2.242,1.982c-1.458,0-2.314-0.915-2.314-2.051c0-1.188,0.91-1.991,2.233-1.991    c1.621,0,2.323,1.068,2.323,2.051V82.393z M5.996,82.359c0-0.718-0.711-1.256-1.702-1.256c-0.738,0-1.666,0.351-1.666,1.239    c0,0.88,0.864,1.265,1.693,1.265c0.954,0,1.674-0.513,1.674-1.239V82.359z"/>
		<path d="M6.491,79.314H2.737v0.572H2.133v-0.572H1.926c-0.612,0-1.17-0.137-1.521-0.487C0.117,78.545,0,78.169,0,77.827    c0-0.273,0.063-0.495,0.126-0.641l0.612,0.094c-0.054,0.12-0.099,0.265-0.099,0.487c0,0.632,0.594,0.803,1.26,0.803h0.234v-1    h0.604v0.991h3.754V79.314z"/>
		<path d="M3.313,75.073c-0.459,0-0.819,0.009-1.18,0.034v-0.666l0.711-0.043v-0.017c-0.405-0.205-0.811-0.684-0.811-1.367    c0-0.573,0.36-1.461,1.855-1.461h2.602v0.752H3.979c-0.702,0-1.296,0.248-1.296,0.957c0,0.487,0.369,0.872,0.81,1.009    c0.099,0.034,0.243,0.051,0.369,0.051h2.629v0.752H3.313z"/>
		<path d="M5.446,67.415c0.378,0,0.748-0.017,1.044-0.06v0.675l-0.549,0.068v0.026c0.342,0.222,0.648,0.675,0.648,1.265    c0,0.837-0.621,1.265-1.251,1.265c-1.053,0-1.629-0.889-1.621-2.487h-0.09c-0.36,0-1.018,0.094-1.008,0.94    c0,0.393,0.117,0.795,0.324,1.085l-0.531,0.171c-0.225-0.342-0.378-0.846-0.378-1.367c0-1.273,0.91-1.581,1.783-1.581H5.446z     M4.267,68.149c-0.018,0.82,0.135,1.752,0.981,1.752c0.522,0,0.756-0.325,0.756-0.701c0-0.547-0.36-0.897-0.729-1.017    c-0.081-0.025-0.171-0.034-0.252-0.034H4.267z"/>
		<path d="M1.089,65.336h1.044v-1.077h0.604v1.077h2.34c0.541,0,0.846-0.146,0.846-0.564c0-0.205-0.018-0.324-0.054-0.436    l0.603-0.034c0.054,0.146,0.108,0.376,0.108,0.667c0,0.35-0.126,0.632-0.333,0.812c-0.243,0.205-0.63,0.29-1.143,0.29H2.737v0.641    H2.133V66.07H1.332L1.089,65.336z"/>
		<path d="M1.395,63.053c0,0.273-0.225,0.453-0.486,0.453c-0.279,0-0.495-0.188-0.495-0.47c0-0.273,0.216-0.461,0.495-0.461    c0.261,0,0.486,0.179,0.486,0.47V63.053z M6.491,63.411H2.133v-0.752h4.357V63.411z"/>
		<path d="M6.59,59.728c0,1.111-0.864,1.982-2.242,1.982c-1.458,0-2.314-0.914-2.314-2.051c0-1.188,0.91-1.991,2.233-1.991    c1.621,0,2.323,1.068,2.323,2.051V59.728z M5.996,59.693c0-0.718-0.711-1.256-1.702-1.256c-0.738,0-1.666,0.35-1.666,1.239    c0,0.88,0.864,1.265,1.693,1.265c0.954,0,1.674-0.513,1.674-1.239V59.693z"/>
		<path d="M3.313,56.717c-0.459,0-0.819,0.009-1.18,0.034v-0.666l0.711-0.043v-0.017c-0.405-0.205-0.811-0.684-0.811-1.367    c0-0.573,0.36-1.461,1.855-1.461h2.602v0.752H3.979c-0.702,0-1.296,0.248-1.296,0.957c0,0.487,0.369,0.872,0.81,1.009    c0.099,0.034,0.243,0.051,0.369,0.051h2.629v0.752H3.313z"/>
		<path d="M5.446,49.058c0.378,0,0.748-0.017,1.044-0.06v0.675l-0.549,0.068v0.026c0.342,0.222,0.648,0.675,0.648,1.265    c0,0.837-0.621,1.265-1.251,1.265c-1.053,0-1.629-0.889-1.621-2.487h-0.09c-0.36,0-1.018,0.095-1.008,0.94    c0,0.393,0.117,0.795,0.324,1.085l-0.531,0.171c-0.225-0.342-0.378-0.846-0.378-1.367c0-1.272,0.91-1.581,1.783-1.581H5.446z     M4.267,49.793c-0.018,0.82,0.135,1.752,0.981,1.752c0.522,0,0.756-0.325,0.756-0.701c0-0.547-0.36-0.897-0.729-1.017    c-0.081-0.025-0.171-0.034-0.252-0.034H4.267z"/>
		<path d="M0.099,47.851v-0.752h6.392v0.752H0.099z"/>
		<path d="M5.681,44.123c0.144-0.23,0.306-0.624,0.306-0.999c0-0.539-0.279-0.795-0.648-0.795c-0.378,0-0.576,0.213-0.792,0.76    c-0.288,0.752-0.721,1.103-1.233,1.103c-0.703,0-1.279-0.547-1.279-1.427c0-0.419,0.117-0.786,0.271-1.008l0.567,0.179    c-0.099,0.163-0.252,0.462-0.252,0.847c0,0.443,0.27,0.684,0.594,0.684c0.36,0,0.522-0.24,0.747-0.778    c0.279-0.709,0.657-1.085,1.305-1.085c0.774,0,1.314,0.572,1.314,1.538c0,0.453-0.126,0.872-0.306,1.162L5.681,44.123z"/>
		<path d="M5.446,37.722c0.378,0,0.748-0.018,1.044-0.061v0.676l-0.549,0.068v0.025c0.342,0.222,0.648,0.675,0.648,1.265    c0,0.837-0.621,1.265-1.251,1.265c-1.053,0-1.629-0.889-1.621-2.486h-0.09c-0.36,0-1.018,0.094-1.008,0.939    c0,0.393,0.117,0.795,0.324,1.085l-0.531,0.171c-0.225-0.342-0.378-0.846-0.378-1.367c0-1.273,0.91-1.58,1.783-1.58H5.446z     M4.267,38.456c-0.018,0.82,0.135,1.752,0.981,1.752c0.522,0,0.756-0.325,0.756-0.701c0-0.547-0.36-0.896-0.729-1.017    c-0.081-0.025-0.171-0.034-0.252-0.034H4.267z"/>
		<path d="M3.313,36.514c-0.459,0-0.819,0.018-1.18,0.034V35.89l0.702-0.033V35.83c-0.414-0.23-0.801-0.615-0.801-1.308    c0-0.555,0.36-0.982,0.874-1.162v-0.017c-0.252-0.128-0.432-0.299-0.567-0.47c-0.198-0.248-0.306-0.513-0.306-0.906    c0-0.555,0.378-1.367,1.891-1.367h2.566v0.735H4.024c-0.846,0-1.341,0.299-1.341,0.897c0,0.436,0.333,0.76,0.711,0.896    c0.117,0.034,0.261,0.061,0.396,0.061h2.701v0.734h-2.62c-0.693,0-1.188,0.291-1.188,0.863c0,0.461,0.396,0.812,0.792,0.932    c0.117,0.042,0.252,0.06,0.387,0.06h2.629v0.734H3.313z"/>
		<path d="M3.556,29.383c-0.558,0-1.008,0.009-1.422,0.034v-0.675l0.748-0.043v-0.017c-0.541-0.299-0.847-0.795-0.847-1.461    c0-1.009,0.892-1.761,2.215-1.761c1.566,0,2.341,0.914,2.341,1.88c0,0.556-0.252,1.025-0.684,1.273v0.017h2.368v0.752H3.556z     M4.717,28.631c0.108,0,0.225-0.009,0.324-0.034c0.549-0.128,0.927-0.59,0.927-1.119c0-0.795-0.685-1.256-1.684-1.256    c-0.874,0-1.621,0.427-1.621,1.222c0,0.513,0.378,1,0.981,1.146c0.099,0.017,0.216,0.042,0.315,0.042H4.717z"/>
		<path d="M0.099,24.518v-0.752h6.392v0.752H0.099z"/>
		<path d="M4.456,22.073c1.062-0.018,1.503-0.658,1.503-1.41c0-0.538-0.099-0.871-0.225-1.145l0.567-0.137    c0.126,0.265,0.279,0.726,0.279,1.384c0,1.265-0.891,2.034-2.196,2.034c-1.314,0-2.35-0.744-2.35-1.949    c0-1.35,1.251-1.7,2.053-1.7c0.162,0,0.279,0.009,0.369,0.026V22.073z M3.889,19.877c-0.504-0.009-1.288,0.196-1.288,1.034    c0,0.769,0.738,1.094,1.288,1.153V19.877z"/>
		<path d="M13.313,110.056c-0.459,0-0.819,0.008-1.18,0.034v-0.667l0.711-0.042v-0.017c-0.405-0.205-0.811-0.684-0.811-1.367    c0-0.572,0.36-1.461,1.855-1.461h2.602v0.752h-2.512c-0.702,0-1.296,0.248-1.296,0.957c0,0.487,0.369,0.871,0.81,1.008    c0.099,0.034,0.243,0.052,0.369,0.052h2.629v0.752H13.313z"/>
		<path d="M15.446,102.396c0.378,0,0.748-0.017,1.044-0.06v0.675l-0.549,0.068v0.025c0.342,0.223,0.648,0.675,0.648,1.265    c0,0.838-0.621,1.265-1.251,1.265c-1.053,0-1.629-0.889-1.621-2.486h-0.09c-0.36,0-1.018,0.094-1.008,0.94    c0,0.393,0.117,0.794,0.324,1.085l-0.531,0.171c-0.225-0.342-0.378-0.846-0.378-1.367c0-1.273,0.91-1.581,1.783-1.581H15.446z     M14.267,103.131c-0.018,0.82,0.135,1.751,0.981,1.751c0.522,0,0.756-0.324,0.756-0.7c0-0.547-0.36-0.897-0.729-1.017    c-0.081-0.026-0.171-0.034-0.252-0.034H14.267z"/>
		<path d="M13.313,101.189c-0.459,0-0.819,0.017-1.18,0.034v-0.658l0.702-0.034v-0.025c-0.414-0.231-0.801-0.615-0.801-1.308    c0-0.556,0.36-0.982,0.874-1.162v-0.017c-0.252-0.128-0.432-0.299-0.567-0.47c-0.198-0.248-0.306-0.513-0.306-0.905    c0-0.556,0.378-1.367,1.891-1.367h2.566v0.734h-2.467c-0.846,0-1.341,0.299-1.341,0.897c0,0.436,0.333,0.761,0.711,0.897    c0.117,0.034,0.261,0.06,0.396,0.06h2.701V98.6h-2.62c-0.693,0-1.188,0.291-1.188,0.863c0,0.462,0.396,0.812,0.792,0.932    c0.117,0.043,0.252,0.06,0.387,0.06h2.629v0.735H13.313z"/>
		<path d="M11.395,93.699c0,0.273-0.225,0.453-0.486,0.453c-0.279,0-0.495-0.188-0.495-0.47c0-0.273,0.216-0.462,0.495-0.462    c0.261,0,0.486,0.18,0.486,0.47V93.699z M16.491,94.059h-4.357v-0.752h4.357V94.059z"/>
		<path d="M13.313,92.058c-0.459,0-0.819,0.009-1.18,0.034v-0.666l0.711-0.043v-0.017c-0.405-0.205-0.811-0.684-0.811-1.367    c0-0.573,0.36-1.461,1.855-1.461h2.602v0.752h-2.512c-0.702,0-1.296,0.248-1.296,0.957c0,0.487,0.369,0.872,0.81,1.009    c0.099,0.034,0.243,0.051,0.369,0.051h2.629v0.752H13.313z"/>
		<path d="M15.852,83.775c1.008,0,1.611,0.196,1.999,0.589c0.387,0.41,0.522,0.991,0.522,1.512c0,0.496-0.126,1.043-0.36,1.376    L17.4,87.065c0.189-0.273,0.351-0.701,0.351-1.213c0-0.769-0.423-1.333-1.53-1.333h-0.477v0.017    c0.405,0.222,0.729,0.675,0.729,1.316c0,1.025-0.918,1.76-2.134,1.76c-1.476,0-2.305-0.915-2.305-1.872    c0-0.718,0.387-1.102,0.756-1.29v-0.017l-0.657-0.026v-0.666c0.306,0.025,0.667,0.034,1.188,0.034H15.852z M13.844,84.527    c-0.126,0-0.243,0.008-0.351,0.042c-0.468,0.137-0.846,0.496-0.846,1.051c0,0.718,0.639,1.23,1.657,1.23    c0.846,0,1.566-0.419,1.566-1.222c0-0.47-0.306-0.889-0.819-1.042c-0.126-0.043-0.279-0.06-0.423-0.06H13.844z"/>
		<path d="M14.456,80.294c1.062-0.018,1.503-0.658,1.503-1.41c0-0.538-0.099-0.872-0.225-1.145l0.567-0.137    c0.126,0.265,0.279,0.726,0.279,1.384c0,1.265-0.891,2.034-2.196,2.034c-1.314,0-2.35-0.744-2.35-1.948    c0-1.35,1.251-1.701,2.053-1.701c0.162,0,0.279,0.009,0.369,0.026V80.294z M13.889,78.098c-0.504-0.009-1.288,0.196-1.288,1.034    c0,0.769,0.738,1.094,1.288,1.153V78.098z"/>
		<path d="M15.446,73.523c0.378,0,0.748-0.017,1.044-0.06v0.675l-0.549,0.068v0.025c0.342,0.223,0.648,0.675,0.648,1.265    c0,0.838-0.621,1.265-1.251,1.265c-1.053,0-1.629-0.889-1.621-2.486h-0.09c-0.36,0-1.018,0.094-1.008,0.94    c0,0.393,0.117,0.794,0.324,1.085l-0.531,0.171c-0.225-0.342-0.378-0.846-0.378-1.367c0-1.273,0.91-1.581,1.783-1.581H15.446z     M14.267,74.258c-0.018,0.82,0.135,1.751,0.981,1.751c0.522,0,0.756-0.324,0.756-0.7c0-0.547-0.36-0.897-0.729-1.017    c-0.081-0.026-0.171-0.034-0.252-0.034H14.267z"/>
		<path d="M16.329,69.368c0.099,0.196,0.252,0.632,0.252,1.188c0,1.248-0.891,2.06-2.224,2.06c-1.341,0-2.323-0.872-2.323-2.222    c0-0.444,0.117-0.837,0.234-1.042l0.603,0.171c-0.099,0.179-0.207,0.461-0.207,0.872c0,0.948,0.747,1.461,1.647,1.461    c1.008,0,1.629-0.615,1.629-1.436c0-0.427-0.108-0.709-0.207-0.923L16.329,69.368z"/>
		<path d="M10.099,68.486v-0.752h2.719v-0.018c-0.225-0.119-0.433-0.308-0.559-0.538c-0.144-0.222-0.225-0.487-0.225-0.769    c0-0.555,0.36-1.444,1.864-1.444h2.593v0.752h-2.512c-0.702,0-1.288,0.248-1.288,0.957c0,0.487,0.36,0.863,0.792,1.008    c0.108,0.043,0.225,0.052,0.378,0.052h2.629v0.752H10.099z"/>
		<path d="M16.329,58.98c0.099,0.197,0.252,0.632,0.252,1.188c0,1.247-0.891,2.059-2.224,2.059c-1.341,0-2.323-0.872-2.323-2.222    c0-0.444,0.117-0.837,0.234-1.042l0.603,0.171c-0.099,0.18-0.207,0.461-0.207,0.872c0,0.949,0.747,1.461,1.647,1.461    c1.008,0,1.629-0.615,1.629-1.436c0-0.428-0.108-0.709-0.207-0.923L16.329,58.98z"/>
		<path d="M16.59,56.466c0,1.111-0.864,1.982-2.242,1.982c-1.458,0-2.314-0.914-2.314-2.051c0-1.188,0.91-1.991,2.233-1.991    c1.621,0,2.323,1.068,2.323,2.051V56.466z M15.996,56.432c0-0.718-0.711-1.256-1.702-1.256c-0.738,0-1.666,0.35-1.666,1.239    c0,0.88,0.864,1.265,1.693,1.265c0.954,0,1.674-0.513,1.674-1.239V56.432z"/>
		<path d="M15.293,49.995c0.459,0,0.855-0.009,1.197-0.035v0.667l-0.711,0.043v0.017c0.351,0.188,0.811,0.633,0.811,1.367    c0,0.649-0.387,1.427-1.909,1.427h-2.548v-0.752h2.404c0.828,0,1.396-0.248,1.396-0.923c0-0.504-0.369-0.854-0.729-0.991    c-0.108-0.042-0.252-0.068-0.405-0.068h-2.665v-0.751H15.293z"/>
		<path d="M13.313,48.744c-0.459,0-0.819,0.009-1.18,0.034v-0.666l0.711-0.043v-0.018c-0.405-0.205-0.811-0.684-0.811-1.367    c0-0.572,0.36-1.461,1.855-1.461h2.602v0.752h-2.512c-0.702,0-1.296,0.248-1.296,0.957c0,0.487,0.369,0.872,0.81,1.009    c0.099,0.034,0.243,0.051,0.369,0.051h2.629v0.752H13.313z"/>
		<path d="M11.089,43.128h1.044v-1.077h0.604v1.077h2.34c0.541,0,0.846-0.146,0.846-0.564c0-0.205-0.018-0.324-0.054-0.436    l0.603-0.034c0.054,0.146,0.108,0.376,0.108,0.667c0,0.35-0.126,0.632-0.333,0.812c-0.243,0.205-0.63,0.29-1.143,0.29h-2.368    v0.641h-0.604v-0.641h-0.801L11.089,43.128z"/>
		<path d="M13.493,41.203c-0.513,0-0.954,0.009-1.359,0.034v-0.658l0.855-0.033V40.52c-0.585-0.188-0.955-0.649-0.955-1.153    c0-0.077,0.009-0.137,0.018-0.205H12.8c-0.009,0.077-0.018,0.154-0.018,0.256c0,0.53,0.423,0.906,1.008,1.009    c0.117,0.017,0.243,0.025,0.369,0.025h2.332v0.752H13.493z"/>
		<path d="M12.133,37.92l2.575-0.897c0.288-0.102,0.63-0.205,0.892-0.273v-0.017c-0.261-0.077-0.594-0.162-0.91-0.265l-2.557-0.82    v-0.795l3.106,1.128c1.495,0.538,2.251,0.905,2.728,1.419c0.333,0.375,0.468,0.734,0.504,0.922l-0.657,0.188    c-0.063-0.188-0.189-0.436-0.387-0.658c-0.171-0.205-0.478-0.452-0.882-0.632c-0.081-0.034-0.144-0.061-0.189-0.061    c-0.045,0-0.108,0.018-0.207,0.061l-4.015,1.521V37.92z"/>
	</g>
</g>
</svg>