<svg xmlns="http://www.w3.org/2000/svg" xmlns:xlink="http://www.w3.org/1999/xlink" version="1.1" x="0px" y="0px" width="306.147px" height="175.939px" viewBox="0 0 306.147 175.939" enable-background="new 0 0 306.147 175.939" xml:space="preserve">
<g id="wide" display="none">
</g>
<g id="text_column">
</g>
<g id="art">
	<g>
		<path d="M2.415,5.285V3.862H0V3.406l2.318-3.318h0.76v3.23h0.728v0.544H3.078v1.423H2.415z M2.415,3.318V1.583    c0-0.271,0.008-0.544,0.024-0.815H2.415c-0.16,0.304-0.288,0.527-0.432,0.768L0.711,3.303v0.016H2.415z"/>
		<path d="M4.863,5.373C4.591,5.373,4.4,5.157,4.4,4.869c0-0.287,0.2-0.504,0.479-0.504s0.472,0.208,0.472,0.504    c0,0.288-0.192,0.504-0.479,0.504H4.863z"/>
		<path d="M7.655,5.373c-1.016,0-1.711-0.951-1.728-2.671C5.927,0.951,6.687,0,7.743,0C8.83,0,9.461,0.976,9.461,2.631    c0,1.767-0.664,2.742-1.799,2.742H7.655z M7.694,4.829c0.712,0,1.056-0.839,1.056-2.167c0-1.279-0.32-2.118-1.056-2.118    c-0.64,0-1.055,0.815-1.055,2.118c-0.016,1.352,0.4,2.167,1.047,2.167H7.694z"/>
		<path d="M0.408,28.455c0.2,0.12,0.655,0.32,1.151,0.32c0.896,0,1.183-0.568,1.175-1.008c-0.008-0.728-0.664-1.039-1.343-1.039H1    V26.2h0.392c0.512,0,1.159-0.264,1.159-0.879c0-0.416-0.264-0.784-0.911-0.784c-0.416,0-0.816,0.185-1.04,0.344l-0.192-0.512    c0.28-0.199,0.808-0.399,1.367-0.399c1.023,0,1.487,0.607,1.487,1.239c0,0.544-0.328,1-0.959,1.231v0.016    c0.64,0.12,1.159,0.6,1.159,1.327c0,0.832-0.656,1.56-1.895,1.56c-0.583,0-1.095-0.184-1.351-0.352L0.408,28.455z"/>
		<path d="M4.863,29.343c-0.272,0-0.463-0.216-0.463-0.504s0.2-0.504,0.479-0.504s0.472,0.208,0.472,0.504    c0,0.288-0.192,0.504-0.479,0.504H4.863z"/>
		<path d="M9.102,24.649H7.119l-0.2,1.335c0.12-0.016,0.232-0.031,0.424-0.031c0.408,0,0.799,0.088,1.119,0.279    c0.408,0.224,0.744,0.68,0.744,1.335c0,1.016-0.808,1.775-1.935,1.775c-0.568,0-1.04-0.16-1.295-0.319l0.176-0.536    c0.216,0.128,0.64,0.288,1.12,0.288c0.655,0,1.231-0.432,1.223-1.136c0-0.663-0.456-1.144-1.487-1.144    c-0.304,0-0.536,0.024-0.728,0.057l0.336-2.495h2.486V24.649z"/>
		<path d="M0.408,52.426c0.2,0.12,0.655,0.32,1.151,0.32c0.896,0,1.183-0.568,1.175-1.008c-0.008-0.728-0.664-1.039-1.343-1.039H1    v-0.528h0.392c0.512,0,1.159-0.264,1.159-0.879c0-0.416-0.264-0.784-0.911-0.784c-0.416,0-0.816,0.185-1.04,0.344L0.408,48.34    c0.28-0.199,0.808-0.399,1.367-0.399c1.023,0,1.487,0.607,1.487,1.239c0,0.544-0.328,1-0.959,1.231v0.016    c0.64,0.12,1.159,0.6,1.159,1.327c0,0.832-0.656,1.56-1.895,1.56c-0.583,0-1.095-0.184-1.351-0.352L0.408,52.426z"/>
		<path d="M4.863,53.313c-0.272,0-0.463-0.216-0.463-0.504s0.2-0.504,0.479-0.504s0.472,0.208,0.472,0.504    c0,0.288-0.192,0.504-0.479,0.504H4.863z"/>
		<path d="M7.655,53.313c-1.016,0-1.711-0.951-1.728-2.671c0-1.751,0.76-2.702,1.815-2.702c1.087,0,1.719,0.976,1.719,2.631    c0,1.767-0.664,2.742-1.799,2.742H7.655z M7.694,52.77c0.712,0,1.056-0.839,1.056-2.166c0-1.279-0.32-2.119-1.056-2.119    c-0.64,0-1.055,0.815-1.055,2.119c-0.016,1.351,0.4,2.166,1.047,2.166H7.694z"/>
		<path d="M0.24,77.195v-0.432l0.552-0.536c1.327-1.263,1.935-1.935,1.935-2.718c0-0.528-0.248-1.016-1.023-1.016    c-0.472,0-0.863,0.239-1.103,0.439l-0.224-0.496c0.352-0.295,0.872-0.527,1.471-0.527c1.111,0,1.583,0.768,1.583,1.512    c0,0.959-0.696,1.734-1.791,2.79l-0.408,0.384v0.016h2.327v0.584H0.24z"/>
		<path d="M4.863,77.283c-0.272,0-0.463-0.216-0.463-0.504c0-0.287,0.2-0.504,0.479-0.504s0.472,0.208,0.472,0.504    c0,0.288-0.192,0.504-0.479,0.504H4.863z"/>
		<path d="M9.102,72.59H7.119l-0.2,1.335c0.12-0.016,0.232-0.031,0.424-0.031c0.408,0,0.799,0.088,1.119,0.279    c0.408,0.224,0.744,0.68,0.744,1.335c0,1.016-0.808,1.775-1.935,1.775c-0.568,0-1.04-0.16-1.295-0.319l0.176-0.536    c0.216,0.128,0.64,0.288,1.12,0.288c0.655,0,1.231-0.432,1.223-1.136c0-0.663-0.456-1.144-1.487-1.144    c-0.304,0-0.536,0.024-0.728,0.057l0.336-2.495h2.486V72.59z"/>
		<path d="M0.24,101.165v-0.432l0.552-0.536c1.327-1.263,1.935-1.935,1.935-2.718c0-0.528-0.248-1.016-1.023-1.016    c-0.472,0-0.863,0.239-1.103,0.439l-0.224-0.496c0.352-0.296,0.872-0.527,1.471-0.527c1.111,0,1.583,0.768,1.583,1.511    c0,0.96-0.696,1.735-1.791,2.791l-0.408,0.384v0.016h2.327v0.584H0.24z"/>
		<path d="M4.863,101.253c-0.272,0-0.463-0.216-0.463-0.504s0.2-0.504,0.479-0.504s0.472,0.208,0.472,0.504    c0,0.288-0.192,0.504-0.479,0.504H4.863z"/>
		<path d="M7.655,101.253c-1.016,0-1.711-0.951-1.728-2.671c0-1.751,0.76-2.702,1.815-2.702c1.087,0,1.719,0.976,1.719,2.631    c0,1.767-0.664,2.742-1.799,2.742H7.655z M7.694,100.709c0.712,0,1.056-0.839,1.056-2.166c0-1.279-0.32-2.119-1.056-2.119    c-0.64,0-1.055,0.815-1.055,2.119c-0.016,1.351,0.4,2.166,1.047,2.166H7.694z"/>
		<path d="M1.767,120.594H1.751l-0.904,0.487l-0.136-0.536l1.135-0.607h0.6v5.197H1.767V120.594z"/>
		<path d="M4.863,125.223c-0.272,0-0.463-0.216-0.463-0.504c0-0.287,0.2-0.504,0.479-0.504s0.472,0.208,0.472,0.504    c0,0.288-0.192,0.504-0.479,0.504H4.863z"/>
		<path d="M9.102,120.529H7.119l-0.2,1.335c0.12-0.016,0.232-0.031,0.424-0.031c0.408,0,0.799,0.088,1.119,0.279    c0.408,0.224,0.744,0.68,0.744,1.335c0,1.016-0.808,1.775-1.935,1.775c-0.568,0-1.04-0.16-1.295-0.319l0.176-0.536    c0.216,0.128,0.64,0.288,1.12,0.288c0.655,0,1.231-0.432,1.223-1.136c0-0.663-0.456-1.144-1.487-1.144    c-0.304,0-0.536,0.024-0.728,0.057l0.336-2.495h2.486V120.529z"/>
		<path d="M1.767,144.564H1.751l-0.904,0.487l-0.136-0.536l1.135-0.607h0.6v5.197H1.767V144.564z"/>
		<path d="M4.863,149.193c-0.272,0-0.463-0.216-0.463-0.504c0-0.287,0.2-0.504,0.479-0.504s0.472,0.208,0.472,0.504    c0,0.288-0.192,0.504-0.479,0.504H4.863z"/>
		<path d="M7.655,149.193c-1.016,0-1.711-0.951-1.728-2.671c0-1.751,0.76-2.702,1.815-2.702c1.087,0,1.719,0.976,1.719,2.631    c0,1.767-0.664,2.742-1.799,2.742H7.655z M7.694,148.649c0.712,0,1.056-0.839,1.056-2.167c0-1.279-0.32-2.118-1.056-2.118    c-0.64,0-1.055,0.815-1.055,2.118c-0.016,1.352,0.4,2.167,1.047,2.167H7.694z"/>
	</g>
	<g>
		<path d="M30.701,156.093c-0.248,0.128-0.768,0.256-1.423,0.256c-1.519,0-2.654-0.96-2.654-2.727c0-1.688,1.143-2.822,2.814-2.822    c0.664,0,1.095,0.144,1.279,0.231l-0.176,0.576c-0.256-0.128-0.631-0.225-1.079-0.225c-1.264,0-2.103,0.808-2.103,2.215    c0,1.319,0.76,2.159,2.063,2.159c0.432,0,0.863-0.088,1.143-0.224L30.701,156.093z"/>
		<path d="M34.701,155.205c0,0.408,0.008,0.76,0.032,1.063h-0.624l-0.04-0.632h-0.016c-0.176,0.312-0.592,0.72-1.279,0.72    c-0.608,0-1.335-0.344-1.335-1.695v-2.263h0.704v2.135c0,0.736,0.232,1.239,0.864,1.239c0.472,0,0.799-0.327,0.927-0.647    c0.04-0.096,0.064-0.224,0.064-0.359v-2.367h0.704V155.205z"/>
		<path d="M35.871,150.592h0.704v5.677h-0.704V150.592z"/>
		<path d="M38.606,151.472v0.927h1.007v0.536h-1.007v2.079c0,0.479,0.136,0.751,0.528,0.751c0.192,0,0.304-0.016,0.408-0.048    l0.032,0.536c-0.136,0.048-0.352,0.096-0.624,0.096c-0.328,0-0.591-0.112-0.759-0.296c-0.192-0.216-0.272-0.56-0.272-1.016v-2.103    h-0.6v-0.536h0.6v-0.711L38.606,151.472z"/>
		<path d="M43.645,155.205c0,0.408,0.008,0.76,0.032,1.063h-0.624l-0.04-0.632h-0.016c-0.176,0.312-0.592,0.72-1.279,0.72    c-0.608,0-1.335-0.344-1.335-1.695v-2.263h0.704v2.135c0,0.736,0.232,1.239,0.864,1.239c0.472,0,0.799-0.327,0.927-0.647    c0.04-0.096,0.064-0.224,0.064-0.359v-2.367h0.704V155.205z"/>
		<path d="M44.814,153.606c0-0.456-0.008-0.848-0.032-1.208h0.616l0.032,0.76h0.024c0.176-0.52,0.608-0.848,1.08-0.848    c0.072,0,0.128,0.008,0.192,0.017v0.663c-0.072-0.008-0.144-0.016-0.24-0.016c-0.496,0-0.848,0.376-0.943,0.896    c-0.016,0.104-0.024,0.216-0.024,0.327v2.071h-0.704V153.606z"/>
		<path d="M50.117,155.341c0,0.336,0.016,0.664,0.056,0.928h-0.632l-0.064-0.487h-0.024c-0.208,0.304-0.632,0.575-1.183,0.575    c-0.784,0-1.184-0.552-1.184-1.111c0-0.936,0.832-1.447,2.327-1.439v-0.08c0-0.319-0.088-0.903-0.879-0.896    c-0.368,0-0.744,0.104-1.016,0.288l-0.16-0.472c0.32-0.2,0.792-0.336,1.279-0.336c1.191,0,1.479,0.808,1.479,1.583V155.341z     M49.429,154.294c-0.768-0.017-1.639,0.119-1.639,0.871c0,0.464,0.304,0.672,0.656,0.672c0.512,0,0.839-0.32,0.952-0.647    c0.024-0.072,0.032-0.152,0.032-0.225V154.294z"/>
		<path d="M51.246,150.592h0.704v5.677h-0.704V150.592z"/>
		<path d="M53.134,150.592h0.704v5.677h-0.704V150.592z"/>
		<path d="M55.278,152.398l0.84,2.287c0.096,0.256,0.192,0.56,0.256,0.791h0.016c0.072-0.231,0.152-0.527,0.248-0.808l0.768-2.271    h0.744l-1.056,2.759c-0.503,1.327-0.847,1.999-1.327,2.423c-0.352,0.296-0.688,0.415-0.863,0.447l-0.176-0.583    c0.176-0.057,0.408-0.168,0.615-0.344c0.192-0.152,0.424-0.424,0.592-0.784c0.032-0.072,0.056-0.128,0.056-0.168    s-0.016-0.096-0.056-0.184l-1.423-3.566H55.278z"/>
		<path d="M31.787,164.549c0.216,0.128,0.583,0.272,0.936,0.272c0.503,0,0.744-0.248,0.744-0.576c0-0.336-0.2-0.512-0.712-0.703    c-0.704-0.256-1.031-0.641-1.031-1.096c0-0.624,0.512-1.136,1.335-1.136c0.392,0,0.736,0.104,0.944,0.24l-0.168,0.504    c-0.152-0.088-0.432-0.225-0.792-0.225c-0.416,0-0.64,0.24-0.64,0.528c0,0.319,0.224,0.464,0.728,0.663    c0.664,0.248,1.016,0.584,1.016,1.159c0,0.688-0.536,1.168-1.439,1.168c-0.424,0-0.815-0.112-1.087-0.271L31.787,164.549z"/>
		<path d="M35.386,160.743c-0.256,0-0.424-0.2-0.424-0.432c0-0.248,0.176-0.44,0.44-0.44c0.256,0,0.432,0.192,0.432,0.44    c0,0.231-0.168,0.432-0.439,0.432H35.386z M35.05,165.269v-3.87h0.704v3.87H35.05z"/>
		<path d="M36.922,162.446c0-0.408-0.016-0.728-0.032-1.048h0.616l0.032,0.624h0.024c0.216-0.368,0.576-0.712,1.224-0.712    c0.52,0,0.919,0.32,1.087,0.775h0.016c0.12-0.224,0.28-0.384,0.44-0.503c0.232-0.177,0.48-0.272,0.848-0.272    c0.52,0,1.279,0.336,1.279,1.68v2.278h-0.688v-2.19c0-0.752-0.28-1.191-0.84-1.191c-0.408,0-0.711,0.296-0.839,0.632    c-0.032,0.104-0.056,0.231-0.056,0.352v2.398h-0.688v-2.327c0-0.615-0.272-1.055-0.808-1.055c-0.432,0-0.759,0.352-0.872,0.703    c-0.04,0.104-0.056,0.224-0.056,0.344v2.335h-0.688V162.446z"/>
		<path d="M43.93,160.743c-0.256,0-0.424-0.2-0.424-0.432c0-0.248,0.176-0.44,0.44-0.44c0.256,0,0.432,0.192,0.432,0.44    c0,0.231-0.168,0.432-0.439,0.432H43.93z M43.594,165.269v-3.87h0.704v3.87H43.594z"/>
		<path d="M45.466,159.592h0.704v5.677h-0.704V159.592z"/>
		<path d="M50.081,164.341c0,0.336,0.016,0.664,0.056,0.928h-0.632l-0.064-0.487h-0.024c-0.208,0.304-0.632,0.575-1.183,0.575    c-0.784,0-1.184-0.552-1.184-1.111c0-0.936,0.832-1.447,2.327-1.439v-0.08c0-0.319-0.088-0.903-0.879-0.896    c-0.368,0-0.744,0.104-1.016,0.288l-0.16-0.472c0.32-0.2,0.792-0.336,1.279-0.336c1.191,0,1.479,0.808,1.479,1.583V164.341z     M49.393,163.294c-0.768-0.017-1.639,0.119-1.639,0.871c0,0.464,0.304,0.672,0.656,0.672c0.512,0,0.839-0.32,0.952-0.647    c0.024-0.072,0.032-0.152,0.032-0.225V163.294z"/>
		<path d="M51.21,162.606c0-0.456-0.008-0.848-0.032-1.208h0.616l0.032,0.76h0.024c0.176-0.52,0.608-0.848,1.08-0.848    c0.072,0,0.128,0.008,0.192,0.017v0.663c-0.072-0.008-0.144-0.016-0.24-0.016c-0.496,0-0.848,0.376-0.944,0.896    c-0.016,0.104-0.024,0.216-0.024,0.327v2.071H51.21V162.606z"/>
	</g>
	<g>
		<path d="M133.412,150.88v2.254h2.606v-2.254h0.704v5.389h-0.704v-2.526h-2.606v2.526h-0.704v-5.389H133.412z"/>
		<path d="M138.324,151.743c-0.256,0-0.424-0.2-0.424-0.432c0-0.248,0.176-0.44,0.44-0.44c0.256,0,0.432,0.192,0.432,0.44    c0,0.231-0.168,0.432-0.439,0.432H138.324z M137.988,156.269v-3.87h0.704v3.87H137.988z"/>
		<path d="M143.171,155.701c0,0.896-0.184,1.431-0.552,1.774c-0.384,0.344-0.928,0.464-1.416,0.464    c-0.463,0-0.975-0.111-1.287-0.319l0.176-0.544c0.256,0.168,0.656,0.312,1.136,0.312c0.719,0,1.247-0.376,1.247-1.359v-0.424    h-0.016c-0.208,0.36-0.631,0.648-1.231,0.648c-0.96,0-1.647-0.816-1.647-1.896c0-1.312,0.855-2.047,1.751-2.047    c0.672,0,1.032,0.344,1.208,0.672h0.016l0.024-0.584h0.624c-0.024,0.272-0.032,0.592-0.032,1.056V155.701z M142.467,153.918    c0-0.112-0.008-0.216-0.04-0.312c-0.128-0.416-0.464-0.752-0.983-0.752c-0.672,0-1.151,0.567-1.151,1.471    c0,0.752,0.392,1.392,1.143,1.392c0.44,0,0.832-0.271,0.976-0.728c0.04-0.112,0.056-0.248,0.056-0.376V153.918z"/>
		<path d="M144.332,150.592h0.704v2.415h0.016c0.112-0.2,0.288-0.385,0.504-0.496c0.208-0.128,0.456-0.2,0.719-0.2    c0.52,0,1.352,0.32,1.352,1.655v2.303h-0.704v-2.23c0-0.624-0.231-1.144-0.895-1.144c-0.456,0-0.808,0.319-0.943,0.703    c-0.04,0.097-0.048,0.2-0.048,0.336v2.335h-0.704V150.592z"/>
		<path d="M125.873,164.549c0.216,0.128,0.583,0.272,0.936,0.272c0.503,0,0.744-0.248,0.744-0.576c0-0.336-0.2-0.512-0.712-0.703    c-0.704-0.256-1.031-0.641-1.031-1.096c0-0.624,0.512-1.136,1.335-1.136c0.392,0,0.736,0.104,0.944,0.24l-0.168,0.504    c-0.152-0.088-0.432-0.225-0.792-0.225c-0.416,0-0.64,0.24-0.64,0.528c0,0.319,0.224,0.464,0.728,0.663    c0.664,0.248,1.016,0.584,1.016,1.159c0,0.688-0.536,1.168-1.439,1.168c-0.424,0-0.815-0.112-1.087-0.271L125.873,164.549z"/>
		<path d="M129.984,160.472v0.927h1.007v0.536h-1.007v2.079c0,0.479,0.136,0.751,0.528,0.751c0.192,0,0.304-0.016,0.408-0.048    l0.032,0.536c-0.136,0.048-0.352,0.096-0.624,0.096c-0.328,0-0.591-0.112-0.759-0.296c-0.192-0.216-0.272-0.56-0.272-1.016v-2.103    h-0.6v-0.536h0.6v-0.711L129.984,160.472z"/>
		<path d="M134.511,164.341c0,0.336,0.016,0.664,0.056,0.928h-0.632l-0.064-0.487h-0.024c-0.208,0.304-0.631,0.575-1.183,0.575    c-0.784,0-1.184-0.552-1.184-1.111c0-0.936,0.832-1.447,2.327-1.439v-0.08c0-0.319-0.088-0.903-0.879-0.896    c-0.368,0-0.744,0.104-1.016,0.288l-0.16-0.472c0.32-0.2,0.792-0.336,1.279-0.336c1.191,0,1.479,0.808,1.479,1.583V164.341z     M133.824,163.294c-0.768-0.017-1.639,0.119-1.639,0.871c0,0.464,0.304,0.672,0.656,0.672c0.512,0,0.839-0.32,0.951-0.647    c0.024-0.072,0.032-0.152,0.032-0.225V163.294z"/>
		<path d="M135.641,162.446c0-0.408-0.008-0.728-0.032-1.048h0.624l0.04,0.632h0.016c0.192-0.359,0.64-0.72,1.279-0.72    c0.536,0,1.367,0.32,1.367,1.647v2.311h-0.704v-2.23c0-0.624-0.232-1.151-0.896-1.151c-0.456,0-0.815,0.327-0.943,0.72    c-0.032,0.088-0.048,0.216-0.048,0.327v2.335h-0.704V162.446z"/>
		<path d="M143.423,159.592v4.678c0,0.344,0.008,0.735,0.032,0.999h-0.632l-0.032-0.672h-0.016c-0.216,0.432-0.68,0.76-1.312,0.76    c-0.936,0-1.663-0.791-1.663-1.967c-0.008-1.295,0.8-2.079,1.735-2.079c0.6,0,1,0.28,1.167,0.584h0.016v-2.303H143.423z     M142.719,162.974c0-0.096-0.008-0.208-0.032-0.304c-0.104-0.439-0.488-0.808-1.016-0.808c-0.728,0-1.159,0.64-1.159,1.487    c0,0.792,0.392,1.439,1.143,1.439c0.472,0,0.904-0.32,1.032-0.848c0.024-0.088,0.032-0.184,0.032-0.296V162.974z"/>
		<path d="M147.319,164.341c0,0.336,0.017,0.664,0.057,0.928h-0.632l-0.064-0.487h-0.024c-0.208,0.304-0.632,0.575-1.183,0.575    c-0.784,0-1.184-0.552-1.184-1.111c0-0.936,0.832-1.447,2.327-1.439v-0.08c0-0.319-0.088-0.903-0.879-0.896    c-0.368,0-0.744,0.104-1.016,0.288l-0.16-0.472c0.32-0.2,0.792-0.336,1.279-0.336c1.191,0,1.479,0.808,1.479,1.583V164.341z     M146.632,163.294c-0.768-0.017-1.639,0.119-1.639,0.871c0,0.464,0.304,0.672,0.656,0.672c0.512,0,0.839-0.32,0.952-0.647    c0.024-0.072,0.032-0.152,0.032-0.225V163.294z"/>
		<path d="M148.448,162.606c0-0.456-0.008-0.848-0.031-1.208h0.615l0.032,0.76h0.024c0.176-0.52,0.607-0.848,1.079-0.848    c0.071,0,0.128,0.008,0.192,0.017v0.663c-0.072-0.008-0.145-0.016-0.24-0.016c-0.496,0-0.848,0.376-0.943,0.896    c-0.016,0.104-0.024,0.216-0.024,0.327v2.071h-0.704V162.606z"/>
		<path d="M154.327,159.592v4.678c0,0.344,0.008,0.735,0.032,0.999h-0.632l-0.032-0.672h-0.016c-0.216,0.432-0.68,0.76-1.312,0.76    c-0.936,0-1.663-0.791-1.663-1.967c-0.008-1.295,0.8-2.079,1.735-2.079c0.6,0,0.999,0.28,1.167,0.584h0.017v-2.303H154.327z     M153.624,162.974c0-0.096-0.008-0.208-0.032-0.304c-0.104-0.439-0.487-0.808-1.016-0.808c-0.728,0-1.159,0.64-1.159,1.487    c0,0.792,0.392,1.439,1.143,1.439c0.473,0,0.904-0.32,1.032-0.848c0.024-0.088,0.032-0.184,0.032-0.296V162.974z"/>
		<path d="M128.9,174.356c-1.039,0-1.855-0.768-1.855-1.991c0-1.295,0.855-2.055,1.919-2.055c1.111,0,1.863,0.808,1.863,1.983    c0,1.438-1,2.062-1.919,2.062H128.9z M128.932,173.829c0.671,0,1.175-0.632,1.175-1.512c0-0.655-0.328-1.479-1.16-1.479    c-0.823,0-1.183,0.768-1.183,1.503c0,0.848,0.48,1.487,1.159,1.487H128.932z"/>
		<path d="M131.781,174.269v-3.334h-0.536v-0.536h0.536v-0.184c0-0.544,0.128-1.039,0.456-1.352    c0.264-0.256,0.616-0.359,0.936-0.359c0.256,0,0.463,0.056,0.6,0.111l-0.088,0.544c-0.112-0.048-0.248-0.088-0.456-0.088    c-0.592,0-0.751,0.527-0.751,1.119v0.208h0.936v0.536h-0.928v3.334H131.781z"/>
		<path d="M135.749,168.592h0.704v5.677h-0.704V168.592z"/>
		<path d="M137.973,169.743c-0.256,0-0.424-0.2-0.424-0.432c0-0.248,0.176-0.44,0.44-0.44c0.256,0,0.432,0.192,0.432,0.44    c0,0.231-0.168,0.432-0.439,0.432H137.973z M137.637,174.269v-3.87h0.704v3.87H137.637z"/>
		<path d="M139.78,170.398l0.76,2.167c0.128,0.359,0.232,0.68,0.312,1h0.024c0.088-0.32,0.2-0.641,0.328-1l0.751-2.167h0.736    l-1.52,3.87H140.5l-1.471-3.87H139.78z"/>
		<path d="M143.692,169.743c-0.256,0-0.424-0.2-0.424-0.432c0-0.248,0.176-0.44,0.44-0.44c0.256,0,0.432,0.192,0.432,0.44    c0,0.231-0.168,0.432-0.439,0.432H143.692z M143.356,174.269v-3.87h0.704v3.87H143.356z"/>
		<path d="M145.229,171.446c0-0.408-0.008-0.728-0.032-1.048h0.624l0.04,0.632h0.016c0.192-0.359,0.64-0.72,1.279-0.72    c0.536,0,1.367,0.32,1.367,1.647v2.311h-0.704v-2.23c0-0.624-0.231-1.151-0.895-1.151c-0.456,0-0.816,0.327-0.944,0.72    c-0.032,0.088-0.048,0.216-0.048,0.327v2.335h-0.704V171.446z"/>
		<path d="M152.979,173.701c0,0.896-0.185,1.431-0.553,1.774c-0.383,0.344-0.928,0.464-1.415,0.464    c-0.464,0-0.976-0.111-1.287-0.319l0.176-0.544c0.256,0.168,0.655,0.312,1.136,0.312c0.719,0,1.247-0.376,1.247-1.359v-0.424    h-0.017c-0.207,0.36-0.631,0.648-1.23,0.648c-0.96,0-1.647-0.816-1.647-1.896c0-1.312,0.855-2.047,1.751-2.047    c0.672,0,1.031,0.344,1.207,0.672h0.017l0.024-0.584h0.623c-0.023,0.272-0.031,0.592-0.031,1.056V173.701z M152.275,171.918    c0-0.112-0.009-0.216-0.04-0.312c-0.128-0.416-0.464-0.752-0.983-0.752c-0.672,0-1.151,0.567-1.151,1.471    c0,0.752,0.392,1.392,1.143,1.392c0.44,0,0.832-0.271,0.977-0.728c0.039-0.112,0.056-0.248,0.056-0.376V171.918z"/>
	</g>
	<g>
		<path d="M172.958,150.951c0.335-0.063,0.775-0.111,1.335-0.111c0.688,0,1.191,0.159,1.512,0.447    c0.295,0.256,0.479,0.647,0.479,1.119c0,0.488-0.144,0.872-0.424,1.151c-0.368,0.393-0.968,0.592-1.647,0.592    c-0.207,0-0.399-0.008-0.56-0.048v2.167h-0.695V150.951z M173.654,153.534c0.151,0.04,0.344,0.056,0.575,0.056    c0.84,0,1.352-0.407,1.352-1.144c0-0.711-0.504-1.055-1.271-1.055c-0.303,0-0.535,0.023-0.655,0.056V153.534z"/>
		<path d="M178.565,156.356c-1.039,0-1.854-0.768-1.854-1.991c0-1.295,0.855-2.055,1.919-2.055c1.111,0,1.863,0.808,1.863,1.983    c0,1.438-1,2.062-1.919,2.062H178.565z M178.598,155.829c0.671,0,1.175-0.632,1.175-1.512c0-0.655-0.328-1.479-1.159-1.479    c-0.824,0-1.184,0.768-1.184,1.503c0,0.848,0.479,1.487,1.159,1.487H178.598z"/>
		<path d="M182.958,156.356c-1.04,0-1.855-0.768-1.855-1.991c0-1.295,0.855-2.055,1.919-2.055c1.111,0,1.863,0.808,1.863,1.983    c0,1.438-0.999,2.062-1.919,2.062H182.958z M182.989,155.829c0.672,0,1.176-0.632,1.176-1.512c0-0.655-0.328-1.479-1.159-1.479    c-0.823,0-1.184,0.768-1.184,1.503c0,0.848,0.479,1.487,1.159,1.487H182.989z"/>
		<path d="M185.774,153.606c0-0.456-0.008-0.848-0.031-1.208h0.615l0.031,0.76h0.024c0.177-0.52,0.608-0.848,1.079-0.848    c0.072,0,0.129,0.008,0.192,0.017v0.663c-0.071-0.008-0.144-0.016-0.239-0.016c-0.496,0-0.848,0.376-0.944,0.896    c-0.016,0.104-0.024,0.216-0.024,0.327v2.071h-0.703V153.606z"/>
		<path d="M165.803,164.549c0.215,0.128,0.583,0.272,0.936,0.272c0.503,0,0.743-0.248,0.743-0.576c0-0.336-0.2-0.512-0.712-0.703    c-0.703-0.256-1.031-0.641-1.031-1.096c0-0.624,0.512-1.136,1.335-1.136c0.392,0,0.735,0.104,0.944,0.24l-0.168,0.504    c-0.152-0.088-0.432-0.225-0.792-0.225c-0.416,0-0.64,0.24-0.64,0.528c0,0.319,0.224,0.464,0.728,0.663    c0.663,0.248,1.016,0.584,1.016,1.159c0,0.688-0.536,1.168-1.439,1.168c-0.424,0-0.815-0.112-1.087-0.271L165.803,164.549z"/>
		<path d="M169.915,160.472v0.927h1.007v0.536h-1.007v2.079c0,0.479,0.136,0.751,0.527,0.751c0.191,0,0.304-0.016,0.408-0.048    l0.031,0.536c-0.136,0.048-0.352,0.096-0.623,0.096c-0.328,0-0.592-0.112-0.76-0.296c-0.191-0.216-0.271-0.56-0.271-1.016v-2.103    h-0.6v-0.536h0.6v-0.711L169.915,160.472z"/>
		<path d="M174.441,164.341c0,0.336,0.017,0.664,0.056,0.928h-0.631l-0.064-0.487h-0.023c-0.209,0.304-0.632,0.575-1.184,0.575    c-0.783,0-1.184-0.552-1.184-1.111c0-0.936,0.832-1.447,2.326-1.439v-0.08c0-0.319-0.088-0.903-0.879-0.896    c-0.367,0-0.744,0.104-1.016,0.288l-0.16-0.472c0.32-0.2,0.792-0.336,1.279-0.336c1.191,0,1.479,0.808,1.479,1.583V164.341z     M173.753,163.294c-0.768-0.017-1.64,0.119-1.64,0.871c0,0.464,0.305,0.672,0.656,0.672c0.512,0,0.84-0.32,0.951-0.647    c0.024-0.072,0.032-0.152,0.032-0.225V163.294z"/>
		<path d="M175.571,162.446c0-0.408-0.008-0.728-0.032-1.048h0.624l0.039,0.632h0.017c0.192-0.359,0.64-0.72,1.279-0.72    c0.536,0,1.367,0.32,1.367,1.647v2.311h-0.704v-2.23c0-0.624-0.231-1.151-0.895-1.151c-0.456,0-0.816,0.327-0.943,0.72    c-0.033,0.088-0.049,0.216-0.049,0.327v2.335h-0.703V162.446z"/>
		<path d="M183.352,159.592v4.678c0,0.344,0.009,0.735,0.033,0.999h-0.633l-0.031-0.672h-0.016c-0.217,0.432-0.68,0.76-1.312,0.76    c-0.936,0-1.662-0.791-1.662-1.967c-0.008-1.295,0.799-2.079,1.734-2.079c0.6,0,1,0.28,1.168,0.584h0.016v-2.303H183.352z     M182.649,162.974c0-0.096-0.008-0.208-0.031-0.304c-0.104-0.439-0.488-0.808-1.016-0.808c-0.729,0-1.16,0.64-1.16,1.487    c0,0.792,0.393,1.439,1.144,1.439c0.472,0,0.903-0.32,1.032-0.848c0.023-0.088,0.031-0.184,0.031-0.296V162.974z"/>
		<path d="M187.249,164.341c0,0.336,0.017,0.664,0.057,0.928h-0.632l-0.063-0.487h-0.024c-0.208,0.304-0.632,0.575-1.183,0.575    c-0.784,0-1.184-0.552-1.184-1.111c0-0.936,0.831-1.447,2.326-1.439v-0.08c0-0.319-0.088-0.903-0.879-0.896    c-0.368,0-0.744,0.104-1.016,0.288l-0.16-0.472c0.32-0.2,0.791-0.336,1.279-0.336c1.191,0,1.479,0.808,1.479,1.583V164.341z     M186.561,163.294c-0.768-0.017-1.639,0.119-1.639,0.871c0,0.464,0.304,0.672,0.656,0.672c0.512,0,0.839-0.32,0.951-0.647    c0.023-0.072,0.031-0.152,0.031-0.225V163.294z"/>
		<path d="M188.377,162.606c0-0.456-0.008-0.848-0.031-1.208h0.615l0.032,0.76h0.024c0.176-0.52,0.607-0.848,1.079-0.848    c0.071,0,0.128,0.008,0.192,0.017v0.663c-0.072-0.008-0.145-0.016-0.24-0.016c-0.496,0-0.848,0.376-0.943,0.896    c-0.016,0.104-0.024,0.216-0.024,0.327v2.071h-0.704V162.606z"/>
		<path d="M194.256,159.592v4.678c0,0.344,0.008,0.735,0.032,0.999h-0.632l-0.032-0.672h-0.016c-0.216,0.432-0.68,0.76-1.312,0.76    c-0.936,0-1.663-0.791-1.663-1.967c-0.008-1.295,0.8-2.079,1.735-2.079c0.6,0,0.999,0.28,1.167,0.584h0.017v-2.303H194.256z     M193.553,162.974c0-0.096-0.008-0.208-0.032-0.304c-0.104-0.439-0.487-0.808-1.016-0.808c-0.728,0-1.159,0.64-1.159,1.487    c0,0.792,0.392,1.439,1.143,1.439c0.473,0,0.904-0.32,1.032-0.848c0.024-0.088,0.032-0.184,0.032-0.296V162.974z"/>
		<path d="M168.83,174.356c-1.039,0-1.854-0.768-1.854-1.991c0-1.295,0.855-2.055,1.918-2.055c1.111,0,1.863,0.808,1.863,1.983    c0,1.438-0.999,2.062-1.918,2.062H168.83z M168.862,173.829c0.672,0,1.176-0.632,1.176-1.512c0-0.655-0.328-1.479-1.16-1.479    c-0.823,0-1.184,0.768-1.184,1.503c0,0.848,0.48,1.487,1.16,1.487H168.862z"/>
		<path d="M171.71,174.269v-3.334h-0.536v-0.536h0.536v-0.184c0-0.544,0.128-1.039,0.456-1.352c0.264-0.256,0.615-0.359,0.936-0.359    c0.256,0,0.463,0.056,0.6,0.111l-0.088,0.544c-0.112-0.048-0.248-0.088-0.456-0.088c-0.592,0-0.751,0.527-0.751,1.119v0.208h0.936    v0.536h-0.928v3.334H171.71z"/>
		<path d="M175.678,168.592h0.703v5.677h-0.703V168.592z"/>
		<path d="M177.903,169.743c-0.256,0-0.424-0.2-0.424-0.432c0-0.248,0.176-0.44,0.439-0.44c0.256,0,0.432,0.192,0.432,0.44    c0,0.231-0.168,0.432-0.439,0.432H177.903z M177.567,174.269v-3.87h0.703v3.87H177.567z"/>
		<path d="M179.709,170.398l0.76,2.167c0.129,0.359,0.232,0.68,0.312,1h0.023c0.088-0.32,0.2-0.641,0.328-1l0.752-2.167h0.735    l-1.52,3.87h-0.671l-1.472-3.87H179.709z"/>
		<path d="M183.622,169.743c-0.256,0-0.424-0.2-0.424-0.432c0-0.248,0.177-0.44,0.44-0.44c0.256,0,0.432,0.192,0.432,0.44    c0,0.231-0.168,0.432-0.439,0.432H183.622z M183.286,174.269v-3.87h0.704v3.87H183.286z"/>
		<path d="M185.159,171.446c0-0.408-0.008-0.728-0.032-1.048h0.624l0.039,0.632h0.017c0.192-0.359,0.64-0.72,1.279-0.72    c0.536,0,1.367,0.32,1.367,1.647v2.311h-0.704v-2.23c0-0.624-0.231-1.151-0.895-1.151c-0.456,0-0.816,0.327-0.943,0.72    c-0.033,0.088-0.049,0.216-0.049,0.327v2.335h-0.703V171.446z"/>
		<path d="M192.909,173.701c0,0.896-0.185,1.431-0.553,1.774c-0.383,0.344-0.928,0.464-1.415,0.464    c-0.464,0-0.976-0.111-1.287-0.319l0.176-0.544c0.256,0.168,0.655,0.312,1.136,0.312c0.719,0,1.247-0.376,1.247-1.359v-0.424    h-0.017c-0.207,0.36-0.631,0.648-1.23,0.648c-0.96,0-1.647-0.816-1.647-1.896c0-1.312,0.855-2.047,1.751-2.047    c0.672,0,1.031,0.344,1.207,0.672h0.017l0.024-0.584h0.623c-0.023,0.272-0.031,0.592-0.031,1.056V173.701z M192.205,171.918    c0-0.112-0.009-0.216-0.04-0.312c-0.128-0.416-0.464-0.752-0.983-0.752c-0.672,0-1.151,0.567-1.151,1.471    c0,0.752,0.392,1.392,1.143,1.392c0.44,0,0.832-0.271,0.977-0.728c0.039-0.112,0.056-0.248,0.056-0.376V171.918z"/>
	</g>
	<g>
		<path d="M218.738,150.951c0.432-0.063,0.936-0.111,1.487-0.111c1,0,1.711,0.231,2.183,0.671c0.487,0.44,0.768,1.063,0.768,1.936    c0,0.879-0.28,1.599-0.775,2.095c-0.512,0.504-1.343,0.775-2.391,0.775c-0.504,0-0.911-0.016-1.271-0.063V150.951z     M219.442,155.725c0.176,0.032,0.432,0.032,0.703,0.032c1.487,0.008,2.295-0.832,2.295-2.287c0.008-1.271-0.712-2.078-2.184-2.078    c-0.359,0-0.631,0.031-0.814,0.071V155.725z"/>
		<path d="M224.481,154.462c0.017,0.943,0.616,1.335,1.32,1.335c0.504,0,0.814-0.088,1.07-0.2l0.129,0.504    c-0.248,0.112-0.68,0.248-1.296,0.248c-1.183,0-1.903-0.792-1.903-1.951c0-1.167,0.696-2.087,1.824-2.087    c1.263,0,1.59,1.111,1.59,1.823c0,0.144-0.008,0.248-0.023,0.328H224.481z M226.537,153.958c0.008-0.448-0.185-1.144-0.968-1.144    c-0.72,0-1.023,0.655-1.079,1.144H226.537z"/>
		<path d="M228.089,153.446c0-0.408-0.016-0.728-0.032-1.048h0.616l0.032,0.624h0.023c0.216-0.368,0.576-0.712,1.224-0.712    c0.52,0,0.919,0.32,1.087,0.775h0.017c0.12-0.224,0.28-0.384,0.439-0.503c0.231-0.177,0.479-0.272,0.848-0.272    c0.52,0,1.279,0.336,1.279,1.68v2.278h-0.688v-2.19c0-0.752-0.28-1.191-0.84-1.191c-0.407,0-0.712,0.296-0.839,0.632    c-0.033,0.104-0.057,0.231-0.057,0.352v2.398h-0.688v-2.327c0-0.615-0.271-1.055-0.808-1.055c-0.432,0-0.76,0.352-0.872,0.703    c-0.039,0.104-0.055,0.224-0.055,0.344v2.335h-0.688V153.446z"/>
		<path d="M236.336,156.356c-1.039,0-1.854-0.768-1.854-1.991c0-1.295,0.855-2.055,1.919-2.055c1.111,0,1.863,0.808,1.863,1.983    c0,1.438-1,2.062-1.919,2.062H236.336z M236.37,155.829c0.671,0,1.175-0.632,1.175-1.512c0-0.655-0.328-1.479-1.159-1.479    c-0.824,0-1.184,0.768-1.184,1.503c0,0.848,0.479,1.487,1.159,1.487H236.37z"/>
		<path d="M241.913,156.125c-0.185,0.088-0.592,0.224-1.111,0.224c-1.168,0-1.928-0.792-1.928-1.975    c0-1.191,0.815-2.063,2.079-2.063c0.415,0,0.783,0.104,0.976,0.208l-0.16,0.536c-0.168-0.088-0.432-0.185-0.815-0.185    c-0.888,0-1.367,0.664-1.367,1.464c0,0.896,0.575,1.447,1.343,1.447c0.4,0,0.664-0.097,0.863-0.185L241.913,156.125z"/>
		<path d="M242.737,153.606c0-0.456-0.008-0.848-0.031-1.208h0.615l0.032,0.76h0.024c0.176-0.52,0.607-0.848,1.079-0.848    c0.071,0,0.128,0.008,0.192,0.017v0.663c-0.072-0.008-0.145-0.016-0.24-0.016c-0.496,0-0.848,0.376-0.943,0.896    c-0.016,0.104-0.024,0.216-0.024,0.327v2.071h-0.704V153.606z"/>
		<path d="M248.04,155.341c0,0.336,0.017,0.664,0.057,0.928h-0.632l-0.063-0.487h-0.024c-0.208,0.304-0.632,0.575-1.183,0.575    c-0.784,0-1.184-0.552-1.184-1.111c0-0.936,0.831-1.447,2.326-1.439v-0.08c0-0.319-0.088-0.903-0.879-0.896    c-0.368,0-0.744,0.104-1.016,0.288l-0.16-0.472c0.32-0.2,0.791-0.336,1.279-0.336c1.191,0,1.479,0.808,1.479,1.583V155.341z     M247.352,154.294c-0.768-0.017-1.639,0.119-1.639,0.871c0,0.464,0.304,0.672,0.656,0.672c0.512,0,0.839-0.32,0.951-0.647    c0.023-0.072,0.031-0.152,0.031-0.225V154.294z"/>
		<path d="M251.928,156.125c-0.184,0.088-0.592,0.224-1.111,0.224c-1.168,0-1.928-0.792-1.928-1.975c0-1.191,0.816-2.063,2.08-2.063    c0.415,0,0.783,0.104,0.975,0.208l-0.16,0.536c-0.168-0.088-0.432-0.185-0.814-0.185c-0.889,0-1.367,0.664-1.367,1.464    c0,0.896,0.575,1.447,1.343,1.447c0.399,0,0.663-0.097,0.863-0.185L251.928,156.125z"/>
		<path d="M253.153,152.398l0.84,2.287c0.096,0.256,0.192,0.56,0.256,0.791h0.017c0.071-0.231,0.151-0.527,0.247-0.808l0.768-2.271    h0.744l-1.056,2.759c-0.503,1.327-0.847,1.999-1.327,2.423c-0.352,0.296-0.688,0.415-0.863,0.447l-0.176-0.583    c0.176-0.057,0.408-0.168,0.615-0.344c0.191-0.152,0.424-0.424,0.592-0.784c0.032-0.072,0.057-0.128,0.057-0.168    s-0.017-0.096-0.057-0.184l-1.424-3.566H253.153z"/>
	</g>
	<g>
		<path d="M268.042,156.269v-5.389h0.768l1.719,2.727c0.392,0.631,0.712,1.199,0.96,1.751l0.023-0.009    c-0.064-0.719-0.08-1.375-0.08-2.206v-2.263h0.656v5.389h-0.704l-1.711-2.734c-0.376-0.6-0.735-1.216-0.999-1.799l-0.024,0.008    c0.04,0.68,0.048,1.327,0.048,2.223v2.303H268.042z"/>
		<path d="M274.858,156.356c-1.04,0-1.855-0.768-1.855-1.991c0-1.295,0.855-2.055,1.919-2.055c1.111,0,1.863,0.808,1.863,1.983    c0,1.438-0.999,2.062-1.919,2.062H274.858z M274.889,155.829c0.672,0,1.176-0.632,1.176-1.512c0-0.655-0.328-1.479-1.159-1.479    c-0.823,0-1.184,0.768-1.184,1.503c0,0.848,0.479,1.487,1.159,1.487H274.889z"/>
		<path d="M278.522,151.472v0.927h1.007v0.536h-1.007v2.079c0,0.479,0.136,0.751,0.527,0.751c0.191,0,0.304-0.016,0.408-0.048    l0.031,0.536c-0.136,0.048-0.352,0.096-0.623,0.096c-0.328,0-0.592-0.112-0.76-0.296c-0.191-0.216-0.271-0.56-0.271-1.016v-2.103    h-0.6v-0.536h0.6v-0.711L278.522,151.472z"/>
		<path d="M284.745,155.341c0,0.336,0.016,0.664,0.056,0.928h-0.632l-0.064-0.487h-0.023c-0.208,0.304-0.632,0.575-1.184,0.575    c-0.783,0-1.184-0.552-1.184-1.111c0-0.936,0.832-1.447,2.327-1.439v-0.08c0-0.319-0.088-0.903-0.88-0.896    c-0.367,0-0.743,0.104-1.016,0.288l-0.159-0.472c0.319-0.2,0.792-0.336,1.279-0.336c1.191,0,1.479,0.808,1.479,1.583V155.341z     M284.057,154.294c-0.768-0.017-1.64,0.119-1.64,0.871c0,0.464,0.304,0.672,0.655,0.672c0.512,0,0.84-0.32,0.952-0.647    c0.024-0.072,0.032-0.152,0.032-0.225V154.294z"/>
		<path d="M258.838,159.951c0.432-0.063,0.936-0.111,1.487-0.111c0.999,0,1.711,0.231,2.183,0.671    c0.488,0.44,0.768,1.063,0.768,1.936c0,0.879-0.279,1.599-0.775,2.095c-0.512,0.504-1.344,0.775-2.391,0.775    c-0.504,0-0.912-0.016-1.271-0.063V159.951z M259.542,164.725c0.176,0.032,0.432,0.032,0.704,0.032    c1.487,0.008,2.295-0.832,2.295-2.287c0.008-1.271-0.712-2.078-2.183-2.078c-0.36,0-0.632,0.031-0.816,0.071V164.725z"/>
		<path d="M264.583,163.462c0.016,0.943,0.615,1.335,1.318,1.335c0.504,0,0.816-0.088,1.072-0.2l0.127,0.504    c-0.247,0.112-0.68,0.248-1.295,0.248c-1.184,0-1.902-0.792-1.902-1.951c0-1.167,0.695-2.087,1.822-2.087    c1.264,0,1.592,1.111,1.592,1.823c0,0.144-0.008,0.248-0.024,0.328H264.583z M266.637,162.958    c0.008-0.448-0.184-1.144-0.968-1.144c-0.72,0-1.023,0.655-1.079,1.144H266.637z"/>
		<path d="M268.19,162.446c0-0.408-0.016-0.728-0.031-1.048h0.615l0.031,0.624h0.024c0.216-0.368,0.575-0.712,1.224-0.712    c0.52,0,0.92,0.32,1.088,0.775h0.016c0.119-0.224,0.279-0.384,0.439-0.503c0.232-0.177,0.48-0.272,0.848-0.272    c0.52,0,1.279,0.336,1.279,1.68v2.278h-0.688v-2.19c0-0.752-0.28-1.191-0.84-1.191c-0.408,0-0.711,0.296-0.84,0.632    c-0.031,0.104-0.056,0.231-0.056,0.352v2.398h-0.688v-2.327c0-0.615-0.272-1.055-0.808-1.055c-0.432,0-0.76,0.352-0.871,0.703    c-0.041,0.104-0.057,0.224-0.057,0.344v2.335h-0.688V162.446z"/>
		<path d="M276.438,165.356c-1.04,0-1.855-0.768-1.855-1.991c0-1.295,0.855-2.055,1.919-2.055c1.111,0,1.863,0.808,1.863,1.983    c0,1.438-0.999,2.062-1.919,2.062H276.438z M276.469,164.829c0.672,0,1.176-0.632,1.176-1.512c0-0.655-0.328-1.479-1.159-1.479    c-0.823,0-1.184,0.768-1.184,1.503c0,0.848,0.479,1.487,1.159,1.487H276.469z"/>
		<path d="M282.012,165.125c-0.184,0.088-0.592,0.224-1.111,0.224c-1.167,0-1.927-0.792-1.927-1.975    c0-1.191,0.815-2.063,2.079-2.063c0.416,0,0.783,0.104,0.976,0.208l-0.16,0.536c-0.168-0.088-0.432-0.185-0.815-0.185    c-0.888,0-1.367,0.664-1.367,1.464c0,0.896,0.576,1.447,1.344,1.447c0.398,0,0.663-0.097,0.863-0.185L282.012,165.125z"/>
		<path d="M282.838,162.606c0-0.456-0.008-0.848-0.032-1.208h0.616l0.031,0.76h0.023c0.177-0.52,0.608-0.848,1.08-0.848    c0.072,0,0.128,0.008,0.191,0.017v0.663c-0.071-0.008-0.144-0.016-0.239-0.016c-0.496,0-0.848,0.376-0.943,0.896    c-0.017,0.104-0.024,0.216-0.024,0.327v2.071h-0.703V162.606z"/>
		<path d="M288.141,164.341c0,0.336,0.016,0.664,0.056,0.928h-0.632l-0.064-0.487h-0.023c-0.208,0.304-0.632,0.575-1.184,0.575    c-0.783,0-1.184-0.552-1.184-1.111c0-0.936,0.832-1.447,2.327-1.439v-0.08c0-0.319-0.088-0.903-0.88-0.896    c-0.367,0-0.743,0.104-1.016,0.288l-0.159-0.472c0.319-0.2,0.792-0.336,1.279-0.336c1.191,0,1.479,0.808,1.479,1.583V164.341z     M287.454,163.294c-0.768-0.017-1.64,0.119-1.64,0.871c0,0.464,0.304,0.672,0.655,0.672c0.512,0,0.84-0.32,0.952-0.647    c0.024-0.072,0.032-0.152,0.032-0.225V163.294z"/>
		<path d="M292.029,165.125c-0.185,0.088-0.592,0.224-1.111,0.224c-1.167,0-1.927-0.792-1.927-1.975    c0-1.191,0.815-2.063,2.078-2.063c0.416,0,0.784,0.104,0.976,0.208l-0.159,0.536c-0.168-0.088-0.432-0.185-0.816-0.185    c-0.887,0-1.367,0.664-1.367,1.464c0,0.896,0.576,1.447,1.344,1.447c0.399,0,0.664-0.097,0.863-0.185L292.029,165.125z"/>
		<path d="M293.254,161.398l0.84,2.287c0.096,0.256,0.191,0.56,0.256,0.791h0.016c0.072-0.231,0.152-0.527,0.248-0.808l0.768-2.271    h0.743l-1.056,2.759c-0.504,1.327-0.848,1.999-1.327,2.423c-0.352,0.296-0.688,0.415-0.863,0.447l-0.176-0.583    c0.176-0.057,0.407-0.168,0.615-0.344c0.192-0.152,0.424-0.424,0.592-0.784c0.032-0.072,0.056-0.128,0.056-0.168    s-0.016-0.096-0.056-0.184l-1.423-3.566H293.254z"/>
	</g>
	<g>
		<path d="M70.606,156.093c-0.248,0.128-0.768,0.256-1.423,0.256c-1.519,0-2.654-0.96-2.654-2.727c0-1.688,1.143-2.822,2.814-2.822    c0.664,0,1.095,0.144,1.279,0.231l-0.176,0.576c-0.256-0.128-0.631-0.225-1.079-0.225c-1.264,0-2.103,0.808-2.103,2.215    c0,1.319,0.76,2.159,2.063,2.159c0.432,0,0.863-0.088,1.143-0.224L70.606,156.093z"/>
		<path d="M74.606,155.205c0,0.408,0.008,0.76,0.032,1.063h-0.624l-0.04-0.632h-0.016c-0.176,0.312-0.592,0.72-1.279,0.72    c-0.608,0-1.335-0.344-1.335-1.695v-2.263h0.704v2.135c0,0.736,0.232,1.239,0.864,1.239c0.472,0,0.799-0.327,0.927-0.647    c0.04-0.096,0.064-0.224,0.064-0.359v-2.367h0.704V155.205z"/>
		<path d="M75.776,150.592h0.704v5.677h-0.704V150.592z"/>
		<path d="M78.512,151.472v0.927h1.007v0.536h-1.007v2.079c0,0.479,0.136,0.751,0.528,0.751c0.192,0,0.304-0.016,0.408-0.048    l0.032,0.536c-0.136,0.048-0.352,0.096-0.624,0.096c-0.328,0-0.591-0.112-0.759-0.296c-0.192-0.216-0.272-0.56-0.272-1.016v-2.103    h-0.6v-0.536h0.6v-0.711L78.512,151.472z"/>
		<path d="M83.55,155.205c0,0.408,0.008,0.76,0.032,1.063h-0.624l-0.04-0.632h-0.016c-0.176,0.312-0.592,0.72-1.279,0.72    c-0.608,0-1.335-0.344-1.335-1.695v-2.263h0.704v2.135c0,0.736,0.232,1.239,0.864,1.239c0.472,0,0.799-0.327,0.927-0.647    c0.04-0.096,0.064-0.224,0.064-0.359v-2.367h0.704V155.205z"/>
		<path d="M84.72,153.606c0-0.456-0.008-0.848-0.032-1.208h0.616l0.032,0.76h0.024c0.176-0.52,0.608-0.848,1.08-0.848    c0.072,0,0.128,0.008,0.192,0.017v0.663c-0.072-0.008-0.144-0.016-0.24-0.016c-0.496,0-0.848,0.376-0.943,0.896    c-0.016,0.104-0.024,0.216-0.024,0.327v2.071H84.72V153.606z"/>
		<path d="M90.022,155.341c0,0.336,0.016,0.664,0.056,0.928h-0.632l-0.064-0.487h-0.024c-0.208,0.304-0.632,0.575-1.183,0.575    c-0.784,0-1.184-0.552-1.184-1.111c0-0.936,0.832-1.447,2.327-1.439v-0.08c0-0.319-0.088-0.903-0.879-0.896    c-0.368,0-0.744,0.104-1.016,0.288l-0.16-0.472c0.32-0.2,0.792-0.336,1.279-0.336c1.191,0,1.479,0.808,1.479,1.583V155.341z     M89.335,154.294c-0.768-0.017-1.639,0.119-1.639,0.871c0,0.464,0.304,0.672,0.656,0.672c0.512,0,0.839-0.32,0.952-0.647    c0.024-0.072,0.032-0.152,0.032-0.225V154.294z"/>
		<path d="M91.152,150.592h0.704v5.677h-0.704V150.592z"/>
		<path d="M93.04,150.592h0.704v5.677H93.04V150.592z"/>
		<path d="M95.184,152.398l0.84,2.287c0.096,0.256,0.192,0.56,0.256,0.791h0.016c0.072-0.231,0.152-0.527,0.248-0.808l0.768-2.271    h0.744l-1.056,2.759c-0.503,1.327-0.847,1.999-1.327,2.423c-0.352,0.296-0.688,0.415-0.863,0.447l-0.176-0.583    c0.176-0.057,0.408-0.168,0.615-0.344c0.192-0.152,0.424-0.424,0.592-0.784c0.032-0.072,0.056-0.128,0.056-0.168    s-0.016-0.096-0.056-0.184l-1.423-3.566H95.184z"/>
		<path d="M71.826,159.592v4.678c0,0.344,0.008,0.735,0.032,0.999h-0.632l-0.032-0.672h-0.016c-0.216,0.432-0.68,0.76-1.312,0.76    c-0.936,0-1.663-0.791-1.663-1.967c-0.008-1.295,0.8-2.079,1.735-2.079c0.6,0,1,0.28,1.167,0.584h0.016v-2.303H71.826z     M71.123,162.974c0-0.096-0.008-0.208-0.032-0.304c-0.104-0.439-0.488-0.808-1.016-0.808c-0.728,0-1.159,0.64-1.159,1.487    c0,0.792,0.392,1.439,1.143,1.439c0.472,0,0.904-0.32,1.032-0.848c0.024-0.088,0.032-0.184,0.032-0.296V162.974z"/>
		<path d="M73.332,160.743c-0.256,0-0.424-0.2-0.424-0.432c0-0.248,0.176-0.44,0.44-0.44c0.256,0,0.432,0.192,0.432,0.44    c0,0.231-0.168,0.432-0.439,0.432H73.332z M72.996,165.269v-3.87H73.7v3.87H72.996z"/>
		<path d="M77.258,165.269v-3.334h-1.623v3.334h-0.704v-3.334h-0.536v-0.536h0.536v-0.111c0-0.544,0.128-1.016,0.432-1.327    c0.231-0.225,0.552-0.36,0.983-0.36c0.224,0,0.432,0.072,0.552,0.136l-0.152,0.528c-0.104-0.057-0.256-0.104-0.408-0.104    c-0.551,0-0.711,0.472-0.711,1.08v0.159h1.631v-0.184c0-0.544,0.128-1.039,0.456-1.352c0.264-0.256,0.616-0.359,0.936-0.359    c0.256,0,0.464,0.056,0.6,0.111l-0.088,0.544c-0.112-0.048-0.248-0.088-0.456-0.088c-0.591,0-0.751,0.527-0.751,1.119v0.208h0.936    v0.536h-0.927v3.334H77.258z"/>
		<path d="M79.828,163.462c0.016,0.943,0.616,1.335,1.319,1.335c0.504,0,0.815-0.088,1.071-0.2l0.128,0.504    c-0.248,0.112-0.68,0.248-1.295,0.248c-1.184,0-1.903-0.792-1.903-1.951c0-1.167,0.696-2.087,1.823-2.087    c1.263,0,1.591,1.111,1.591,1.823c0,0.144-0.008,0.248-0.024,0.328H79.828z M81.882,162.958c0.008-0.448-0.184-1.144-0.967-1.144    c-0.72,0-1.023,0.655-1.08,1.144H81.882z"/>
		<path d="M83.436,162.606c0-0.456-0.008-0.848-0.032-1.208h0.616l0.032,0.76h0.024c0.176-0.52,0.608-0.848,1.08-0.848    c0.072,0,0.128,0.008,0.192,0.017v0.663c-0.072-0.008-0.144-0.016-0.24-0.016c-0.496,0-0.848,0.376-0.943,0.896    c-0.016,0.104-0.024,0.216-0.024,0.327v2.071h-0.704V162.606z"/>
		<path d="M86.372,163.462c0.016,0.943,0.616,1.335,1.319,1.335c0.504,0,0.815-0.088,1.071-0.2l0.128,0.504    c-0.248,0.112-0.68,0.248-1.295,0.248c-1.184,0-1.903-0.792-1.903-1.951c0-1.167,0.696-2.087,1.823-2.087    c1.263,0,1.591,1.111,1.591,1.823c0,0.144-0.008,0.248-0.024,0.328H86.372z M88.426,162.958c0.008-0.448-0.184-1.144-0.967-1.144    c-0.72,0-1.023,0.655-1.08,1.144H88.426z"/>
		<path d="M89.979,162.446c0-0.408-0.008-0.728-0.032-1.048h0.624l0.04,0.632h0.016c0.192-0.359,0.64-0.72,1.279-0.72    c0.536,0,1.367,0.32,1.367,1.647v2.311H92.57v-2.23c0-0.624-0.232-1.151-0.896-1.151c-0.456,0-0.815,0.327-0.943,0.72    c-0.032,0.088-0.048,0.216-0.048,0.327v2.335h-0.704V162.446z"/>
		<path d="M95.235,160.472v0.927h1.007v0.536h-1.007v2.079c0,0.479,0.136,0.751,0.528,0.751c0.192,0,0.304-0.016,0.408-0.048    l0.032,0.536c-0.136,0.048-0.352,0.096-0.624,0.096c-0.328,0-0.591-0.112-0.759-0.296c-0.192-0.216-0.272-0.56-0.272-1.016v-2.103    h-0.6v-0.536h0.6v-0.711L95.235,160.472z"/>
	</g>
	
		<line fill="none" stroke="#000000" stroke-width="0.5" stroke-linejoin="round" stroke-miterlimit="10" x1="14.225" y1="2.416" x2="11.225" y2="2.416"/>
	
		<line fill="none" stroke="#000000" stroke-width="0.5" stroke-linejoin="round" stroke-miterlimit="10" x1="14.225" y1="26.383" x2="11.225" y2="26.383"/>
	
		<line fill="none" stroke="#000000" stroke-width="0.5" stroke-linejoin="round" stroke-miterlimit="10" x1="14.225" y1="50.351" x2="11.225" y2="50.351"/>
	
		<line fill="none" stroke="#000000" stroke-width="0.5" stroke-linejoin="round" stroke-miterlimit="10" x1="14.225" y1="74.317" x2="11.225" y2="74.317"/>
	
		<line fill="none" stroke="#000000" stroke-width="0.5" stroke-linejoin="round" stroke-miterlimit="10" x1="14.225" y1="98.285" x2="11.225" y2="98.285"/>
	
		<line fill="none" stroke="#000000" stroke-width="0.5" stroke-linejoin="round" stroke-miterlimit="10" x1="14.225" y1="122.252" x2="11.225" y2="122.252"/>
	
		<line fill="none" stroke="#000000" stroke-width="0.5" stroke-linejoin="round" stroke-miterlimit="10" x1="14.063" y1="146.267" x2="11.063" y2="146.267"/>
	
		<line fill="none" stroke="#A7A9AC" stroke-width="0.5" stroke-linejoin="round" stroke-miterlimit="10" x1="14.225" y1="2.416" x2="306.147" y2="2.416"/>
	
		<line fill="none" stroke="#A7A9AC" stroke-width="0.5" stroke-linejoin="round" stroke-miterlimit="10" x1="14.225" y1="26.502" x2="306.147" y2="26.502"/>
	
		<line fill="none" stroke="#A7A9AC" stroke-width="0.5" stroke-linejoin="round" stroke-miterlimit="10" x1="14.225" y1="50.418" x2="306.147" y2="50.418"/>
	
		<line fill="none" stroke="#A7A9AC" stroke-width="0.5" stroke-linejoin="round" stroke-miterlimit="10" x1="14.225" y1="74.505" x2="306.147" y2="74.505"/>
	
		<line fill="none" stroke="#A7A9AC" stroke-width="0.5" stroke-linejoin="round" stroke-miterlimit="10" x1="14.225" y1="98.421" x2="306.147" y2="98.421"/>
	
		<line fill="none" stroke="#A7A9AC" stroke-width="0.5" stroke-linejoin="round" stroke-miterlimit="10" x1="14.225" y1="122.336" x2="306.147" y2="122.336"/>
	
		<rect x="30.147" y="56.578" fill="#808285" stroke="#000000" stroke-width="0.5" stroke-linejoin="round" stroke-miterlimit="10" width="24" height="89.642"/>
	
		<rect x="70.146" y="66.032" fill="#D1D3D4" stroke="#000000" stroke-width="0.5" stroke-linejoin="round" stroke-miterlimit="10" width="24" height="80.187"/>
	
		<rect x="128.146" y="56.194" fill="#808285" stroke="#000000" stroke-width="0.5" stroke-linejoin="round" stroke-miterlimit="10" width="24" height="90.025"/>
	
		<rect x="168.147" y="66.416" fill="#D1D3D4" stroke="#000000" stroke-width="0.5" stroke-linejoin="round" stroke-miterlimit="10" width="24" height="79.803"/>
	
		<rect x="225.147" y="55.954" fill="#808285" stroke="#000000" stroke-width="0.5" stroke-linejoin="round" stroke-miterlimit="10" width="24" height="90.265"/>
	
		<rect x="265.147" y="66.656" fill="#D1D3D4" stroke="#000000" stroke-width="0.5" stroke-linejoin="round" stroke-miterlimit="10" width="24" height="79.563"/>
	
		<line fill="none" stroke="#000000" stroke-width="0.5" stroke-linejoin="round" stroke-miterlimit="10" x1="39.944" y1="55.031" x2="44.263" y2="55.031"/>
	
		<line fill="none" stroke="#000000" stroke-width="0.5" stroke-linejoin="round" stroke-miterlimit="10" x1="39.944" y1="58.106" x2="44.263" y2="58.106"/>
	
		<line fill="none" stroke="#000000" stroke-width="0.5" stroke-linejoin="round" stroke-miterlimit="10" x1="42.189" y1="56.568" x2="42.189" y2="55.031"/>
	
		<line fill="none" stroke="#000000" stroke-width="0.5" stroke-linejoin="round" stroke-miterlimit="10" x1="42.189" y1="58.106" x2="42.189" y2="56.568"/>
	
		<line fill="none" stroke="#000000" stroke-width="0.5" stroke-linejoin="round" stroke-miterlimit="10" x1="80.046" y1="64.426" x2="84.306" y2="64.426"/>
	
		<line fill="none" stroke="#000000" stroke-width="0.5" stroke-linejoin="round" stroke-miterlimit="10" x1="80.046" y1="67.616" x2="84.306" y2="67.616"/>
	
		<line fill="none" stroke="#000000" stroke-width="0.5" stroke-linejoin="round" stroke-miterlimit="10" x1="82.119" y1="65.964" x2="82.119" y2="64.426"/>
	
		<line fill="none" stroke="#000000" stroke-width="0.5" stroke-linejoin="round" stroke-miterlimit="10" x1="82.119" y1="67.616" x2="82.119" y2="65.964"/>
	
		<line fill="none" stroke="#000000" stroke-width="0.5" stroke-linejoin="round" stroke-miterlimit="10" x1="137.904" y1="54.518" x2="142.222" y2="54.518"/>
	
		<line fill="none" stroke="#000000" stroke-width="0.5" stroke-linejoin="round" stroke-miterlimit="10" x1="137.904" y1="57.765" x2="142.222" y2="57.765"/>
	
		<line fill="none" stroke="#000000" stroke-width="0.5" stroke-linejoin="round" stroke-miterlimit="10" x1="140.149" y1="56.227" x2="140.149" y2="54.518"/>
	
		<line fill="none" stroke="#000000" stroke-width="0.5" stroke-linejoin="round" stroke-miterlimit="10" x1="140.149" y1="57.765" x2="140.149" y2="56.227"/>
	
		<line fill="none" stroke="#000000" stroke-width="0.5" stroke-linejoin="round" stroke-miterlimit="10" x1="178.005" y1="64.768" x2="182.305" y2="64.768"/>
	
		<line fill="none" stroke="#000000" stroke-width="0.5" stroke-linejoin="round" stroke-miterlimit="10" x1="178.005" y1="68" x2="182.305" y2="68"/>
	
		<line fill="none" stroke="#000000" stroke-width="0.5" stroke-linejoin="round" stroke-miterlimit="10" x1="180.079" y1="66.476" x2="180.079" y2="64.768"/>
	
		<line fill="none" stroke="#000000" stroke-width="0.5" stroke-linejoin="round" stroke-miterlimit="10" x1="180.079" y1="68" x2="180.079" y2="66.476"/>
	
		<line fill="none" stroke="#000000" stroke-width="0.5" stroke-linejoin="round" stroke-miterlimit="10" x1="235.037" y1="54.347" x2="239.306" y2="54.347"/>
	
		<line fill="none" stroke="#000000" stroke-width="0.5" stroke-linejoin="round" stroke-miterlimit="10" x1="235.037" y1="57.538" x2="239.306" y2="57.538"/>
	
		<line fill="none" stroke="#000000" stroke-width="0.5" stroke-linejoin="round" stroke-miterlimit="10" x1="237.11" y1="55.885" x2="237.11" y2="54.347"/>
	
		<line fill="none" stroke="#000000" stroke-width="0.5" stroke-linejoin="round" stroke-miterlimit="10" x1="237.11" y1="57.538" x2="237.11" y2="55.885"/>
	
		<line fill="none" stroke="#000000" stroke-width="0.5" stroke-linejoin="round" stroke-miterlimit="10" x1="274.965" y1="65.11" x2="279.284" y2="65.11"/>
	
		<line fill="none" stroke="#000000" stroke-width="0.5" stroke-linejoin="round" stroke-miterlimit="10" x1="274.965" y1="68.185" x2="279.284" y2="68.185"/>
	
		<line fill="none" stroke="#000000" stroke-width="0.5" stroke-linejoin="round" stroke-miterlimit="10" x1="277.21" y1="66.647" x2="277.21" y2="65.11"/>
	
		<line fill="none" stroke="#000000" stroke-width="0.5" stroke-linejoin="round" stroke-miterlimit="10" x1="277.21" y1="68.185" x2="277.21" y2="66.647"/>
	<polyline fill="none" stroke="#000000" stroke-width="0.5" stroke-linejoin="round" stroke-miterlimit="10" points="   306.063,146.565 14.063,146.267 14.063,2.416  "/>
</g>
</svg>