<svg xmlns="http://www.w3.org/2000/svg" xmlns:xlink="http://www.w3.org/1999/xlink" version="1.1" x="0px" y="0px" width="357.132px" height="170.895px" viewBox="0 0 357.132 170.895" enable-background="new 0 0 357.132 170.895" xml:space="preserve">
<g id="wide">
</g>
<g id="text_column" display="none">
</g>
<g id="art">
	<g>
		<path d="M0.216,5.05c0.225,0.135,0.738,0.36,1.296,0.36c1.008,0,1.333-0.639,1.323-1.134c-0.009-0.819-0.747-1.17-1.512-1.17    H0.882V2.512h0.441c0.576,0,1.305-0.297,1.305-0.99c0-0.468-0.297-0.882-1.026-0.882c-0.468,0-0.918,0.207-1.17,0.387L0.216,0.45    C0.531,0.225,1.125,0,1.756,0C2.908,0,3.43,0.684,3.43,1.396c0,0.612-0.369,1.125-1.08,1.386V2.8    c0.72,0.135,1.305,0.675,1.305,1.495c0,0.936-0.738,1.755-2.134,1.755C0.864,6.05,0.288,5.843,0,5.654L0.216,5.05z"/>
		<path d="M6.507,6.05c-1.143,0-1.926-1.071-1.944-3.007C4.563,1.071,5.418,0,6.606,0c1.225,0,1.936,1.098,1.936,2.962    c0,1.989-0.747,3.088-2.025,3.088H6.507z M6.552,5.438c0.801,0,1.188-0.945,1.188-2.44c0-1.44-0.36-2.385-1.188-2.385    c-0.72,0-1.188,0.918-1.188,2.385c-0.018,1.521,0.45,2.44,1.179,2.44H6.552z"/>
		<path d="M0.027,29.541v-0.486l0.621-0.603c1.495-1.422,2.179-2.179,2.179-3.061c0-0.594-0.279-1.143-1.152-1.143    c-0.531,0-0.972,0.27-1.243,0.495L0.18,24.184c0.396-0.333,0.981-0.594,1.657-0.594c1.251,0,1.782,0.864,1.782,1.702    c0,1.08-0.783,1.953-2.017,3.142l-0.459,0.432v0.018h2.62v0.657H0.027z"/>
		<path d="M8.137,24.355H5.904l-0.225,1.503c0.135-0.018,0.261-0.036,0.477-0.036c0.459,0,0.9,0.099,1.26,0.315    c0.459,0.252,0.837,0.765,0.837,1.503c0,1.143-0.909,1.999-2.179,1.999c-0.639,0-1.17-0.18-1.458-0.36l0.198-0.603    C5.058,28.82,5.535,29,6.075,29c0.738,0,1.387-0.486,1.377-1.278c0-0.748-0.513-1.288-1.674-1.288    c-0.342,0-0.603,0.027-0.819,0.063l0.378-2.809h2.8V24.355z"/>
		<path d="M0.027,53.131v-0.486l0.621-0.603c1.495-1.422,2.179-2.179,2.179-3.061c0-0.594-0.279-1.143-1.152-1.143    c-0.531,0-0.972,0.27-1.243,0.495L0.18,47.774c0.396-0.333,0.981-0.594,1.657-0.594c1.251,0,1.782,0.864,1.782,1.701    c0,1.081-0.783,1.954-2.017,3.142l-0.459,0.432v0.018h2.62v0.657H0.027z"/>
		<path d="M6.507,53.23c-1.143,0-1.926-1.071-1.944-3.007c0-1.972,0.855-3.043,2.043-3.043c1.225,0,1.936,1.098,1.936,2.962    c0,1.989-0.747,3.088-2.025,3.088H6.507z M6.552,52.618c0.801,0,1.188-0.945,1.188-2.439c0-1.44-0.36-2.386-1.188-2.386    c-0.72,0-1.188,0.918-1.188,2.386c-0.018,1.521,0.45,2.439,1.179,2.439H6.552z"/>
		<path d="M1.747,71.607H1.729l-1.017,0.549l-0.153-0.603l1.279-0.684h0.675v5.852H1.747V71.607z"/>
		<path d="M8.137,71.535H5.904l-0.225,1.503c0.135-0.018,0.261-0.036,0.477-0.036c0.459,0,0.9,0.099,1.26,0.315    c0.459,0.252,0.837,0.765,0.837,1.503c0,1.143-0.909,1.999-2.179,1.999c-0.639,0-1.17-0.18-1.458-0.36l0.198-0.603    c0.243,0.144,0.72,0.324,1.26,0.324c0.738,0,1.387-0.486,1.377-1.278c0-0.748-0.513-1.288-1.674-1.288    c-0.342,0-0.603,0.027-0.819,0.063l0.378-2.809h2.8V71.535z"/>
		<path d="M1.747,95.197H1.729l-1.017,0.549l-0.153-0.603l1.279-0.684h0.675v5.852H1.747V95.197z"/>
		<path d="M6.507,100.41c-1.143,0-1.926-1.071-1.944-3.007c0-1.972,0.855-3.043,2.043-3.043c1.225,0,1.936,1.098,1.936,2.962    c0,1.989-0.747,3.088-2.025,3.088H6.507z M6.552,99.797c0.801,0,1.188-0.945,1.188-2.439c0-1.44-0.36-2.386-1.188-2.386    c-0.72,0-1.188,0.918-1.188,2.386c-0.018,1.521,0.45,2.439,1.179,2.439H6.552z"/>
		<path d="M8.137,118.715H5.905l-0.225,1.503c0.135-0.018,0.261-0.036,0.477-0.036c0.459,0,0.9,0.099,1.26,0.315    c0.459,0.252,0.837,0.765,0.837,1.503c0,1.143-0.909,1.999-2.179,1.999c-0.639,0-1.17-0.18-1.458-0.36l0.198-0.603    c0.243,0.144,0.72,0.324,1.26,0.324c0.738,0,1.387-0.486,1.377-1.278c0-0.748-0.513-1.288-1.674-1.288    c-0.342,0-0.604,0.027-0.819,0.063l0.378-2.809h2.8V118.715z"/>
		<path d="M6.508,147.589c-1.143,0-1.926-1.071-1.944-3.007c0-1.972,0.855-3.043,2.043-3.043c1.225,0,1.936,1.099,1.936,2.962    c0,1.99-0.747,3.088-2.025,3.088H6.508z M6.553,146.978c0.801,0,1.188-0.945,1.188-2.44c0-1.44-0.36-2.386-1.188-2.386    c-0.72,0-1.188,0.919-1.188,2.386c-0.018,1.521,0.45,2.44,1.179,2.44H6.553z"/>
	</g>
	
		<line fill="none" stroke="#A7A9AC" stroke-width="0.35" stroke-linejoin="round" stroke-miterlimit="10" x1="13.506" y1="2.765" x2="355.602" y2="2.765"/>
	
		<line fill="none" stroke="#A7A9AC" stroke-width="0.35" stroke-linejoin="round" stroke-miterlimit="10" x1="13.506" y1="26.357" x2="355.602" y2="26.357"/>
	
		<line fill="none" stroke="#A7A9AC" stroke-width="0.35" stroke-linejoin="round" stroke-miterlimit="10" x1="13.506" y1="49.949" x2="355.602" y2="49.949"/>
	
		<line fill="none" stroke="#A7A9AC" stroke-width="0.35" stroke-linejoin="round" stroke-miterlimit="10" x1="13.506" y1="73.541" x2="355.602" y2="73.541"/>
	
		<line fill="none" stroke="#A7A9AC" stroke-width="0.35" stroke-linejoin="round" stroke-miterlimit="10" x1="13.506" y1="97.133" x2="355.602" y2="97.133"/>
	
		<line fill="none" stroke="#A7A9AC" stroke-width="0.35" stroke-linejoin="round" stroke-miterlimit="10" x1="13.506" y1="120.725" x2="355.602" y2="120.725"/>
	<polyline fill="none" stroke="#000000" stroke-width="0.5" stroke-linejoin="round" stroke-miterlimit="10" points="   355.656,144.317 13.526,144.317 13.526,2.765  "/>
	<g>
		<path d="M224.878,149.084v1.833h2.119v-1.833h0.572v4.381h-0.572v-2.054h-2.119v2.054h-0.572v-4.381H224.878z"/>
		<path d="M228.857,151.996c0.013,0.767,0.5,1.086,1.072,1.086c0.41,0,0.663-0.072,0.871-0.163l0.104,0.409    c-0.201,0.091-0.553,0.202-1.053,0.202c-0.962,0-1.547-0.644-1.547-1.586c0-0.949,0.565-1.697,1.482-1.697    c1.026,0,1.293,0.904,1.293,1.482c0,0.117-0.006,0.201-0.02,0.266H228.857z M230.527,151.587c0.007-0.364-0.148-0.93-0.786-0.93    c-0.585,0-0.832,0.533-0.878,0.93H230.527z"/>
		<path d="M231.789,148.85h0.572v4.615h-0.572V148.85z"/>
		<path d="M233.322,151.346c0-0.403-0.006-0.728-0.025-1.027h0.514l0.032,0.54h0.013c0.228-0.39,0.604-0.611,1.111-0.611    c0.768,0,1.34,0.644,1.34,1.599c0,1.131-0.695,1.69-1.431,1.69c-0.423,0-0.78-0.182-0.968-0.494h-0.014v1.709h-0.572V151.346z     M233.894,152.185c0,0.078,0.007,0.163,0.026,0.234c0.097,0.396,0.448,0.669,0.852,0.669c0.604,0,0.955-0.494,0.955-1.216    c0-0.63-0.325-1.17-0.929-1.17c-0.391,0-0.762,0.273-0.871,0.708c-0.014,0.072-0.033,0.156-0.033,0.228V152.185z"/>
		<path d="M236.943,152.88c0.175,0.104,0.475,0.221,0.76,0.221c0.41,0,0.605-0.201,0.605-0.468c0-0.273-0.163-0.416-0.579-0.572    c-0.572-0.208-0.839-0.52-0.839-0.89c0-0.507,0.416-0.923,1.086-0.923c0.318,0,0.598,0.084,0.768,0.195l-0.137,0.409    c-0.124-0.071-0.352-0.182-0.645-0.182c-0.338,0-0.52,0.195-0.52,0.429c0,0.26,0.182,0.377,0.592,0.54    c0.539,0.202,0.825,0.475,0.825,0.943c0,0.559-0.436,0.949-1.17,0.949c-0.345,0-0.663-0.091-0.884-0.221L236.943,152.88z"/>
		<path d="M241.558,149.084v2.6c0,0.975,0.436,1.391,1.02,1.391c0.645,0,1.066-0.429,1.066-1.391v-2.6h0.572v2.561    c0,1.346-0.709,1.892-1.658,1.892c-0.896,0-1.572-0.507-1.572-1.872v-2.581H241.558z"/>
		<path d="M245.126,152.776c0.253,0.156,0.617,0.279,1.008,0.279c0.578,0,0.916-0.299,0.916-0.741c0-0.41-0.234-0.65-0.826-0.871    c-0.715-0.247-1.156-0.624-1.156-1.235c0-0.682,0.565-1.189,1.417-1.189c0.442,0,0.773,0.104,0.962,0.208l-0.156,0.468    c-0.137-0.084-0.429-0.208-0.825-0.208c-0.599,0-0.825,0.357-0.825,0.656c0,0.403,0.266,0.604,0.871,0.839    c0.74,0.292,1.111,0.644,1.111,1.287c0,0.67-0.494,1.261-1.527,1.261c-0.423,0-0.885-0.13-1.119-0.286L245.126,152.776z"/>
		<path d="M229.855,162.388c0.266-0.02,0.487-0.091,0.624-0.24c0.155-0.176,0.221-0.429,0.221-1.183v-2.646h0.572v2.867    c0,0.611-0.098,1.007-0.377,1.293c-0.254,0.253-0.67,0.357-0.976,0.357L229.855,162.388z M230.972,157.786    c-0.207,0-0.344-0.163-0.344-0.351c0-0.201,0.143-0.357,0.357-0.357s0.352,0.156,0.352,0.357c0,0.188-0.131,0.351-0.357,0.351    H230.972z"/>
		<path d="M233.488,161.537c-0.844,0-1.508-0.624-1.508-1.618c0-1.053,0.695-1.671,1.561-1.671c0.903,0,1.515,0.657,1.515,1.612    c0,1.17-0.812,1.677-1.56,1.677H233.488z M233.515,161.108c0.545,0,0.955-0.514,0.955-1.229c0-0.533-0.267-1.203-0.943-1.203    c-0.669,0-0.961,0.624-0.961,1.222c0,0.689,0.39,1.209,0.941,1.209H233.515z"/>
		<path d="M235.777,156.85h0.571v1.97h0.013c0.202-0.351,0.566-0.572,1.073-0.572c0.78,0,1.325,0.65,1.325,1.599    c0,1.131-0.715,1.69-1.416,1.69c-0.455,0-0.812-0.175-1.054-0.591h-0.013l-0.033,0.52h-0.493c0.02-0.214,0.026-0.533,0.026-0.812    V156.85z M236.348,160.204c0,0.072,0.007,0.143,0.02,0.208c0.11,0.396,0.448,0.67,0.858,0.67c0.604,0,0.955-0.488,0.955-1.209    c0-0.637-0.324-1.176-0.936-1.176c-0.391,0-0.754,0.273-0.865,0.702c-0.02,0.071-0.032,0.149-0.032,0.24V160.204z"/>
		<path d="M239.396,160.88c0.176,0.104,0.475,0.221,0.762,0.221c0.408,0,0.604-0.201,0.604-0.468c0-0.273-0.162-0.416-0.578-0.572    c-0.572-0.208-0.838-0.52-0.838-0.89c0-0.507,0.416-0.923,1.085-0.923c0.318,0,0.598,0.084,0.767,0.195l-0.137,0.409    c-0.123-0.071-0.351-0.182-0.643-0.182c-0.338,0-0.521,0.195-0.521,0.429c0,0.26,0.183,0.377,0.592,0.54    c0.539,0.202,0.825,0.475,0.825,0.943c0,0.559-0.436,0.949-1.17,0.949c-0.345,0-0.663-0.091-0.884-0.221L239.396,160.88z"/>
	</g>
	<g>
		<path d="M56.338,152.087l-0.455,1.378h-0.585l1.488-4.381h0.683l1.495,4.381H58.36l-0.468-1.378H56.338z M57.775,151.645    l-0.436-1.261c-0.091-0.286-0.156-0.546-0.221-0.8h-0.02c-0.058,0.254-0.13,0.527-0.214,0.793l-0.429,1.267H57.775z"/>
		<path d="M61.831,153.348c-0.15,0.072-0.481,0.182-0.904,0.182c-0.949,0-1.566-0.644-1.566-1.605c0-0.969,0.663-1.677,1.69-1.677    c0.338,0,0.637,0.084,0.793,0.169l-0.13,0.436c-0.137-0.071-0.351-0.149-0.663-0.149c-0.722,0-1.111,0.54-1.111,1.189    c0,0.728,0.468,1.177,1.092,1.177c0.325,0,0.54-0.078,0.702-0.149L61.831,153.348z"/>
		<path d="M64.743,153.348c-0.15,0.072-0.481,0.182-0.904,0.182c-0.949,0-1.566-0.644-1.566-1.605c0-0.969,0.663-1.677,1.69-1.677    c0.338,0,0.637,0.084,0.793,0.169l-0.13,0.436c-0.137-0.071-0.351-0.149-0.663-0.149c-0.722,0-1.111,0.54-1.111,1.189    c0,0.728,0.468,1.177,1.092,1.177c0.325,0,0.54-0.078,0.702-0.149L64.743,153.348z"/>
		<path d="M65.737,151.996c0.013,0.767,0.501,1.086,1.073,1.086c0.41,0,0.663-0.072,0.871-0.163l0.104,0.409    c-0.202,0.091-0.553,0.202-1.053,0.202c-0.962,0-1.547-0.644-1.547-1.586c0-0.949,0.565-1.697,1.482-1.697    c1.027,0,1.293,0.904,1.293,1.482c0,0.117-0.006,0.201-0.02,0.266H65.737z M67.408,151.587c0.006-0.364-0.149-0.93-0.787-0.93    c-0.585,0-0.832,0.533-0.877,0.93H67.408z"/>
		<path d="M68.591,152.88c0.175,0.104,0.475,0.221,0.761,0.221c0.409,0,0.604-0.201,0.604-0.468c0-0.273-0.163-0.416-0.579-0.572    c-0.572-0.208-0.838-0.52-0.838-0.89c0-0.507,0.416-0.923,1.085-0.923c0.318,0,0.598,0.084,0.767,0.195l-0.137,0.409    c-0.124-0.071-0.351-0.182-0.644-0.182c-0.338,0-0.52,0.195-0.52,0.429c0,0.26,0.182,0.377,0.592,0.54    c0.539,0.202,0.825,0.475,0.825,0.943c0,0.559-0.436,0.949-1.17,0.949c-0.345,0-0.663-0.091-0.884-0.221L68.591,152.88z"/>
		<path d="M71.165,152.88c0.176,0.104,0.475,0.221,0.761,0.221c0.409,0,0.604-0.201,0.604-0.468c0-0.273-0.163-0.416-0.579-0.572    c-0.572-0.208-0.838-0.52-0.838-0.89c0-0.507,0.416-0.923,1.085-0.923c0.318,0,0.598,0.084,0.767,0.195l-0.137,0.409    c-0.124-0.071-0.351-0.182-0.644-0.182c-0.338,0-0.52,0.195-0.52,0.429c0,0.26,0.182,0.377,0.592,0.54    c0.54,0.202,0.825,0.475,0.825,0.943c0,0.559-0.436,0.949-1.17,0.949c-0.345,0-0.663-0.091-0.884-0.221L71.165,152.88z"/>
		<path d="M53.348,157.565v0.754h0.819v0.436h-0.819v1.69c0,0.39,0.11,0.611,0.429,0.611c0.156,0,0.247-0.013,0.332-0.039    l0.026,0.436c-0.111,0.039-0.286,0.078-0.507,0.078c-0.266,0-0.481-0.091-0.617-0.24c-0.156-0.176-0.221-0.455-0.221-0.826v-1.709    h-0.487v-0.436h0.487v-0.579L53.348,157.565z"/>
		<path d="M56.091,161.537c-0.845,0-1.508-0.624-1.508-1.618c0-1.053,0.695-1.671,1.56-1.671c0.903,0,1.515,0.657,1.515,1.612    c0,1.17-0.812,1.677-1.56,1.677H56.091z M56.117,161.108c0.546,0,0.956-0.514,0.956-1.229c0-0.533-0.267-1.203-0.943-1.203    c-0.669,0-0.962,0.624-0.962,1.222c0,0.689,0.39,1.209,0.942,1.209H56.117z"/>
		<path d="M62.448,161.004c0,0.728-0.149,1.164-0.448,1.443c-0.312,0.28-0.754,0.377-1.151,0.377c-0.377,0-0.793-0.091-1.046-0.26    l0.143-0.442c0.208,0.136,0.533,0.253,0.923,0.253c0.585,0,1.014-0.306,1.014-1.105v-0.345h-0.013    c-0.169,0.292-0.513,0.526-1.001,0.526c-0.78,0-1.339-0.663-1.339-1.541c0-1.066,0.695-1.664,1.423-1.664    c0.546,0,0.839,0.28,0.981,0.546h0.013l0.02-0.475h0.507c-0.019,0.221-0.026,0.481-0.026,0.858V161.004z M61.876,159.554    c0-0.091-0.007-0.175-0.033-0.253c-0.104-0.338-0.377-0.611-0.799-0.611c-0.546,0-0.936,0.461-0.936,1.196    c0,0.611,0.318,1.131,0.929,1.131c0.358,0,0.676-0.221,0.793-0.591c0.032-0.091,0.045-0.202,0.045-0.306V159.554z"/>
		<path d="M64.671,161.537c-0.845,0-1.508-0.624-1.508-1.618c0-1.053,0.695-1.671,1.56-1.671c0.903,0,1.515,0.657,1.515,1.612    c0,1.17-0.812,1.677-1.56,1.677H64.671z M64.697,161.108c0.546,0,0.956-0.514,0.956-1.229c0-0.533-0.267-1.203-0.943-1.203    c-0.669,0-0.962,0.624-0.962,1.222c0,0.689,0.39,1.209,0.942,1.209H64.697z"/>
		<path d="M68.239,161.537c-0.845,0-1.508-0.624-1.508-1.618c0-1.053,0.695-1.671,1.56-1.671c0.903,0,1.515,0.657,1.515,1.612    c0,1.17-0.812,1.677-1.56,1.677H68.239z M68.266,161.108c0.546,0,0.956-0.514,0.956-1.229c0-0.533-0.267-1.203-0.943-1.203    c-0.669,0-0.962,0.624-0.962,1.222c0,0.689,0.39,1.209,0.942,1.209H68.266z"/>
		<path d="M73.244,156.85v3.803c0,0.279,0.007,0.598,0.026,0.812h-0.514l-0.026-0.546h-0.013c-0.175,0.351-0.552,0.617-1.066,0.617    c-0.761,0-1.352-0.644-1.352-1.599c-0.006-1.053,0.65-1.69,1.411-1.69c0.487,0,0.812,0.228,0.949,0.475h0.013v-1.872H73.244z     M72.672,159.6c0-0.078-0.006-0.169-0.026-0.247c-0.084-0.357-0.396-0.656-0.826-0.656c-0.591,0-0.942,0.52-0.942,1.209    c0,0.644,0.318,1.17,0.929,1.17c0.384,0,0.735-0.26,0.839-0.689c0.02-0.071,0.026-0.149,0.026-0.24V159.6z"/>
		<path d="M74.115,160.88c0.175,0.104,0.475,0.221,0.761,0.221c0.409,0,0.604-0.201,0.604-0.468c0-0.273-0.163-0.416-0.579-0.572    c-0.572-0.208-0.838-0.52-0.838-0.89c0-0.507,0.416-0.923,1.085-0.923c0.318,0,0.598,0.084,0.767,0.195l-0.137,0.409    c-0.124-0.071-0.351-0.182-0.644-0.182c-0.338,0-0.52,0.195-0.52,0.429c0,0.26,0.182,0.377,0.592,0.54    c0.539,0.202,0.825,0.475,0.825,0.943c0,0.559-0.436,0.949-1.17,0.949c-0.345,0-0.663-0.091-0.884-0.221L74.115,160.88z"/>
	</g>
	<g>
		<path d="M19.673,149.083v1.833h2.119v-1.833h0.572v4.381h-0.572v-2.054h-2.119v2.054h-0.572v-4.381H19.673z"/>
		<path d="M23.651,151.995c0.013,0.767,0.501,1.086,1.073,1.086c0.41,0,0.663-0.072,0.871-0.163l0.104,0.409    c-0.202,0.091-0.553,0.202-1.053,0.202c-0.962,0-1.547-0.644-1.547-1.586c0-0.949,0.565-1.697,1.482-1.697    c1.027,0,1.293,0.904,1.293,1.482c0,0.117-0.006,0.201-0.02,0.266H23.651z M25.322,151.586c0.006-0.364-0.149-0.93-0.787-0.93    c-0.585,0-0.832,0.533-0.877,0.93H25.322z"/>
		<path d="M26.583,148.849h0.572v4.615h-0.572V148.849z"/>
		<path d="M28.117,151.345c0-0.403-0.007-0.728-0.026-1.027h0.513l0.033,0.54h0.013c0.228-0.39,0.605-0.611,1.112-0.611    c0.767,0,1.339,0.644,1.339,1.599c0,1.131-0.695,1.69-1.43,1.69c-0.423,0-0.78-0.182-0.969-0.494h-0.013v1.709h-0.572V151.345z     M28.688,152.184c0,0.078,0.007,0.163,0.026,0.234c0.097,0.396,0.448,0.669,0.851,0.669c0.605,0,0.956-0.494,0.956-1.216    c0-0.63-0.325-1.17-0.929-1.17c-0.39,0-0.761,0.273-0.871,0.708c-0.013,0.072-0.033,0.156-0.033,0.228V152.184z"/>
		<path d="M31.737,152.879c0.176,0.104,0.475,0.221,0.761,0.221c0.409,0,0.604-0.201,0.604-0.468c0-0.273-0.163-0.416-0.579-0.572    c-0.572-0.208-0.838-0.52-0.838-0.89c0-0.507,0.416-0.923,1.085-0.923c0.318,0,0.598,0.084,0.767,0.195l-0.137,0.409    c-0.124-0.071-0.351-0.182-0.644-0.182c-0.338,0-0.52,0.195-0.52,0.429c0,0.26,0.182,0.377,0.592,0.54    c0.54,0.202,0.825,0.475,0.825,0.943c0,0.559-0.436,0.949-1.17,0.949c-0.345,0-0.663-0.091-0.884-0.221L31.737,152.879z"/>
		<path d="M36.352,149.083v2.6c0,0.975,0.436,1.391,1.021,1.391c0.644,0,1.066-0.429,1.066-1.391v-2.6h0.572v2.561    c0,1.346-0.708,1.892-1.658,1.892c-0.897,0-1.573-0.507-1.573-1.872v-2.581H36.352z"/>
		<path d="M39.92,152.775c0.254,0.156,0.618,0.279,1.008,0.279c0.579,0,0.917-0.299,0.917-0.741c0-0.41-0.234-0.65-0.826-0.871    c-0.715-0.247-1.157-0.624-1.157-1.235c0-0.682,0.566-1.189,1.417-1.189c0.442,0,0.773,0.104,0.962,0.208l-0.156,0.468    c-0.136-0.084-0.429-0.208-0.825-0.208c-0.598,0-0.826,0.357-0.826,0.656c0,0.403,0.267,0.604,0.871,0.839    c0.741,0.292,1.111,0.644,1.111,1.287c0,0.67-0.494,1.261-1.527,1.261c-0.422,0-0.884-0.13-1.118-0.286L39.92,152.775z"/>
		<path d="M18.76,159.995c0.013,0.767,0.5,1.086,1.073,1.086c0.41,0,0.663-0.072,0.871-0.163l0.104,0.409    c-0.202,0.091-0.553,0.202-1.053,0.202c-0.962,0-1.547-0.644-1.547-1.586c0-0.949,0.565-1.697,1.482-1.697    c1.027,0,1.293,0.904,1.293,1.482c0,0.117-0.006,0.201-0.02,0.266H18.76z M20.431,159.586c0.006-0.364-0.149-0.93-0.787-0.93    c-0.585,0-0.832,0.533-0.877,0.93H20.431z"/>
		<path d="M23.934,161.347c-0.15,0.072-0.481,0.182-0.904,0.182c-0.949,0-1.566-0.644-1.566-1.605c0-0.969,0.663-1.677,1.69-1.677    c0.338,0,0.637,0.084,0.793,0.169l-0.13,0.436c-0.137-0.071-0.351-0.149-0.663-0.149c-0.722,0-1.111,0.54-1.111,1.189    c0,0.728,0.468,1.177,1.092,1.177c0.325,0,0.54-0.078,0.702-0.149L23.934,161.347z"/>
		<path d="M25.884,161.536c-0.845,0-1.508-0.624-1.508-1.618c0-1.053,0.695-1.671,1.56-1.671c0.903,0,1.515,0.657,1.515,1.612    c0,1.17-0.812,1.677-1.56,1.677H25.884z M25.91,161.107c0.546,0,0.956-0.514,0.956-1.229c0-0.533-0.267-1.203-0.943-1.203    c-0.669,0-0.962,0.624-0.962,1.222c0,0.689,0.39,1.209,0.942,1.209H25.91z"/>
		<path d="M28.172,159.17c0-0.332-0.006-0.592-0.026-0.852h0.507l0.032,0.513h0.013c0.156-0.292,0.52-0.585,1.04-0.585    c0.436,0,1.112,0.26,1.112,1.339v1.878h-0.572v-1.813c0-0.507-0.188-0.936-0.728-0.936c-0.371,0-0.663,0.267-0.767,0.585    c-0.026,0.071-0.039,0.175-0.039,0.267v1.898h-0.572V159.17z"/>
		<path d="M33.06,161.536c-0.845,0-1.508-0.624-1.508-1.618c0-1.053,0.695-1.671,1.56-1.671c0.903,0,1.515,0.657,1.515,1.612    c0,1.17-0.812,1.677-1.56,1.677H33.06z M33.086,161.107c0.546,0,0.956-0.514,0.956-1.229c0-0.533-0.267-1.203-0.943-1.203    c-0.669,0-0.962,0.624-0.962,1.222c0,0.689,0.39,1.209,0.942,1.209H33.086z"/>
		<path d="M35.348,159.17c0-0.332-0.013-0.592-0.026-0.852h0.5l0.026,0.507h0.02c0.175-0.299,0.468-0.579,0.995-0.579    c0.422,0,0.748,0.26,0.884,0.631h0.013c0.097-0.182,0.228-0.312,0.357-0.41c0.188-0.143,0.39-0.221,0.689-0.221    c0.422,0,1.04,0.273,1.04,1.365v1.853h-0.559v-1.781c0-0.611-0.228-0.968-0.683-0.968c-0.332,0-0.578,0.24-0.682,0.513    c-0.026,0.085-0.046,0.189-0.046,0.286v1.95h-0.559v-1.892c0-0.5-0.221-0.858-0.656-0.858c-0.351,0-0.618,0.286-0.708,0.572    c-0.033,0.084-0.045,0.182-0.045,0.28v1.898h-0.559V159.17z"/>
		<path d="M40.977,158.318l0.683,1.859c0.078,0.208,0.156,0.455,0.208,0.644h0.013c0.059-0.188,0.124-0.429,0.202-0.656l0.624-1.846    h0.604l-0.858,2.243c-0.41,1.079-0.689,1.625-1.079,1.969c-0.286,0.241-0.559,0.338-0.702,0.364l-0.143-0.475    c0.143-0.045,0.332-0.137,0.5-0.28c0.156-0.123,0.345-0.344,0.481-0.637c0.026-0.059,0.046-0.104,0.046-0.137    c0-0.032-0.013-0.078-0.046-0.149l-1.157-2.899H40.977z"/>
	</g>
	<g>
		<path d="M195.048,149.083v1.833h2.119v-1.833h0.572v4.381h-0.572v-2.054h-2.119v2.054h-0.572v-4.381H195.048z"/>
		<path d="M199.026,151.995c0.013,0.767,0.501,1.086,1.073,1.086c0.409,0,0.662-0.072,0.871-0.163l0.104,0.409    c-0.201,0.091-0.553,0.202-1.053,0.202c-0.963,0-1.547-0.644-1.547-1.586c0-0.949,0.564-1.697,1.481-1.697    c1.026,0,1.294,0.904,1.294,1.482c0,0.117-0.007,0.201-0.02,0.266H199.026z M200.697,151.586c0.006-0.364-0.149-0.93-0.787-0.93    c-0.584,0-0.832,0.533-0.877,0.93H200.697z"/>
		<path d="M201.958,148.849h0.571v4.615h-0.571V148.849z"/>
		<path d="M203.492,151.345c0-0.403-0.006-0.728-0.025-1.027h0.513l0.032,0.54h0.014c0.227-0.39,0.604-0.611,1.111-0.611    c0.768,0,1.339,0.644,1.339,1.599c0,1.131-0.695,1.69-1.431,1.69c-0.422,0-0.779-0.182-0.968-0.494h-0.013v1.709h-0.572V151.345z     M204.064,152.184c0,0.078,0.006,0.163,0.025,0.234c0.098,0.396,0.449,0.669,0.852,0.669c0.605,0,0.955-0.494,0.955-1.216    c0-0.63-0.324-1.17-0.929-1.17c-0.39,0-0.761,0.273-0.871,0.708c-0.013,0.072-0.032,0.156-0.032,0.228V152.184z"/>
		<path d="M207.112,152.879c0.175,0.104,0.475,0.221,0.761,0.221c0.409,0,0.604-0.201,0.604-0.468c0-0.273-0.163-0.416-0.579-0.572    c-0.572-0.208-0.838-0.52-0.838-0.89c0-0.507,0.416-0.923,1.086-0.923c0.318,0,0.598,0.084,0.767,0.195l-0.137,0.409    c-0.124-0.071-0.351-0.182-0.644-0.182c-0.338,0-0.52,0.195-0.52,0.429c0,0.26,0.182,0.377,0.592,0.54    c0.539,0.202,0.824,0.475,0.824,0.943c0,0.559-0.436,0.949-1.17,0.949c-0.344,0-0.662-0.091-0.883-0.221L207.112,152.879z"/>
		<path d="M196.253,161.003c0,0.728-0.148,1.164-0.447,1.443c-0.312,0.28-0.755,0.377-1.151,0.377c-0.377,0-0.793-0.091-1.046-0.26    l0.143-0.442c0.208,0.136,0.533,0.253,0.923,0.253c0.585,0,1.015-0.306,1.015-1.105v-0.345h-0.014    c-0.169,0.292-0.514,0.526-1.001,0.526c-0.78,0-1.339-0.663-1.339-1.541c0-1.066,0.695-1.664,1.424-1.664    c0.546,0,0.838,0.28,0.98,0.546h0.014l0.02-0.475h0.507c-0.019,0.221-0.026,0.481-0.026,0.858V161.003z M195.682,159.553    c0-0.091-0.007-0.175-0.032-0.253c-0.104-0.338-0.377-0.611-0.8-0.611c-0.546,0-0.937,0.461-0.937,1.196    c0,0.611,0.318,1.131,0.93,1.131c0.357,0,0.676-0.221,0.793-0.591c0.033-0.091,0.046-0.202,0.046-0.306V159.553z"/>
		<path d="M197.197,156.849h0.571v4.615h-0.571V156.849z"/>
		<path d="M200.011,161.536c-0.846,0-1.508-0.624-1.508-1.618c0-1.053,0.695-1.671,1.56-1.671c0.903,0,1.515,0.657,1.515,1.612    c0,1.17-0.812,1.677-1.561,1.677H200.011z M200.037,161.107c0.547,0,0.956-0.514,0.956-1.229c0-0.533-0.267-1.203-0.942-1.203    c-0.67,0-0.963,0.624-0.963,1.222c0,0.689,0.391,1.209,0.943,1.209H200.037z"/>
		<path d="M202.298,156.849h0.572v1.97h0.014c0.201-0.351,0.564-0.572,1.072-0.572c0.779,0,1.326,0.65,1.326,1.599    c0,1.131-0.715,1.69-1.418,1.69c-0.455,0-0.812-0.175-1.053-0.591h-0.013l-0.032,0.52h-0.494c0.02-0.214,0.025-0.533,0.025-0.812    V156.849z M202.871,160.203c0,0.072,0.007,0.143,0.02,0.208c0.111,0.396,0.449,0.67,0.857,0.67c0.605,0,0.956-0.488,0.956-1.209    c0-0.637-0.325-1.176-0.937-1.176c-0.389,0-0.754,0.273-0.863,0.702c-0.02,0.071-0.033,0.149-0.033,0.24V160.203z"/>
		<path d="M208.213,160.71c0,0.273,0.013,0.54,0.046,0.754h-0.514l-0.053-0.396h-0.02c-0.168,0.247-0.513,0.468-0.961,0.468    c-0.637,0-0.963-0.448-0.963-0.903c0-0.761,0.676-1.177,1.893-1.17v-0.065c0-0.26-0.072-0.735-0.715-0.728    c-0.3,0-0.605,0.084-0.826,0.234l-0.13-0.384c0.26-0.162,0.644-0.273,1.04-0.273c0.969,0,1.202,0.657,1.202,1.287V160.71z     M207.654,159.859c-0.623-0.013-1.332,0.098-1.332,0.708c0,0.377,0.247,0.546,0.533,0.546c0.416,0,0.683-0.26,0.773-0.526    c0.02-0.059,0.025-0.124,0.025-0.182V159.859z"/>
		<path d="M209.13,156.849h0.572v4.615h-0.572V156.849z"/>
		<path d="M189.741,167.995c0.013,0.767,0.501,1.086,1.073,1.086c0.409,0,0.662-0.072,0.871-0.163l0.104,0.409    c-0.201,0.091-0.553,0.202-1.053,0.202c-0.963,0-1.547-0.644-1.547-1.586c0-0.949,0.564-1.697,1.481-1.697    c1.026,0,1.294,0.904,1.294,1.482c0,0.117-0.007,0.201-0.02,0.266H189.741z M191.412,167.586c0.006-0.364-0.149-0.93-0.787-0.93    c-0.584,0-0.832,0.533-0.877,0.93H191.412z"/>
		<path d="M194.916,169.347c-0.15,0.072-0.482,0.182-0.904,0.182c-0.949,0-1.566-0.644-1.566-1.605c0-0.969,0.663-1.677,1.689-1.677    c0.338,0,0.638,0.084,0.793,0.169l-0.129,0.436c-0.137-0.071-0.352-0.149-0.664-0.149c-0.721,0-1.111,0.54-1.111,1.189    c0,0.728,0.469,1.177,1.092,1.177c0.326,0,0.54-0.078,0.703-0.149L194.916,169.347z"/>
		<path d="M196.865,169.536c-0.845,0-1.508-0.624-1.508-1.618c0-1.053,0.695-1.671,1.561-1.671c0.902,0,1.514,0.657,1.514,1.612    c0,1.17-0.812,1.677-1.56,1.677H196.865z M196.891,169.107c0.546,0,0.956-0.514,0.956-1.229c0-0.533-0.268-1.203-0.943-1.203    c-0.67,0-0.962,0.624-0.962,1.222c0,0.689,0.39,1.209,0.942,1.209H196.891z"/>
		<path d="M199.153,167.17c0-0.332-0.007-0.592-0.026-0.852h0.508l0.031,0.513h0.014c0.156-0.292,0.52-0.585,1.04-0.585    c0.436,0,1.112,0.26,1.112,1.339v1.878h-0.572v-1.813c0-0.507-0.189-0.936-0.729-0.936c-0.371,0-0.663,0.267-0.768,0.585    c-0.025,0.071-0.039,0.175-0.039,0.267v1.898h-0.571V167.17z"/>
		<path d="M204.041,169.536c-0.845,0-1.508-0.624-1.508-1.618c0-1.053,0.695-1.671,1.561-1.671c0.902,0,1.514,0.657,1.514,1.612    c0,1.17-0.812,1.677-1.56,1.677H204.041z M204.067,169.107c0.546,0,0.956-0.514,0.956-1.229c0-0.533-0.268-1.203-0.943-1.203    c-0.67,0-0.962,0.624-0.962,1.222c0,0.689,0.39,1.209,0.942,1.209H204.067z"/>
		<path d="M206.329,167.17c0-0.332-0.013-0.592-0.026-0.852h0.501l0.026,0.507h0.02c0.175-0.299,0.467-0.579,0.994-0.579    c0.422,0,0.748,0.26,0.884,0.631h0.013c0.098-0.182,0.229-0.312,0.357-0.41c0.189-0.143,0.391-0.221,0.689-0.221    c0.422,0,1.04,0.273,1.04,1.365v1.853h-0.56v-1.781c0-0.611-0.227-0.968-0.682-0.968c-0.332,0-0.578,0.24-0.683,0.513    c-0.026,0.085-0.046,0.189-0.046,0.286v1.95h-0.559v-1.892c0-0.5-0.221-0.858-0.656-0.858c-0.352,0-0.618,0.286-0.709,0.572    c-0.033,0.084-0.045,0.182-0.045,0.28v1.898h-0.56V167.17z"/>
		<path d="M211.958,166.318l0.682,1.859c0.078,0.208,0.156,0.455,0.209,0.644h0.012c0.059-0.188,0.124-0.429,0.202-0.656    l0.624-1.846h0.604l-0.858,2.243c-0.409,1.079-0.688,1.625-1.078,1.969c-0.287,0.241-0.56,0.338-0.703,0.364l-0.143-0.475    c0.143-0.045,0.332-0.137,0.5-0.28c0.156-0.123,0.346-0.344,0.481-0.637c0.026-0.059,0.046-0.104,0.046-0.137    c0-0.032-0.014-0.078-0.046-0.149l-1.157-2.899H211.958z"/>
	</g>
	<g>
		<path d="M87.365,149.084v4.381h-0.572v-4.381H87.365z"/>
		<path d="M88.333,151.171c0-0.332-0.013-0.592-0.026-0.852h0.5l0.026,0.507h0.02c0.175-0.299,0.468-0.579,0.995-0.579    c0.422,0,0.748,0.26,0.884,0.631h0.013c0.097-0.182,0.228-0.312,0.357-0.41c0.188-0.143,0.39-0.221,0.689-0.221    c0.422,0,1.04,0.273,1.04,1.365v1.853h-0.559v-1.781c0-0.611-0.228-0.968-0.683-0.968c-0.332,0-0.578,0.24-0.682,0.513    c-0.026,0.085-0.046,0.189-0.046,0.286v1.95h-0.559v-1.892c0-0.5-0.221-0.858-0.657-0.858c-0.351,0-0.618,0.286-0.708,0.572    c-0.033,0.084-0.045,0.182-0.045,0.28v1.898h-0.559V151.171z"/>
		<path d="M93.754,151.346c0-0.403-0.007-0.728-0.026-1.027h0.513l0.033,0.54h0.013c0.228-0.39,0.605-0.611,1.112-0.611    c0.767,0,1.339,0.644,1.339,1.599c0,1.131-0.695,1.69-1.43,1.69c-0.423,0-0.78-0.182-0.969-0.494h-0.013v1.709h-0.572V151.346z     M94.326,152.185c0,0.078,0.007,0.163,0.026,0.234c0.097,0.396,0.448,0.669,0.851,0.669c0.605,0,0.956-0.494,0.956-1.216    c0-0.63-0.325-1.17-0.929-1.17c-0.39,0-0.761,0.273-0.871,0.708c-0.013,0.072-0.033,0.156-0.033,0.228V152.185z"/>
		<path d="M97.453,151.301c0-0.371-0.007-0.689-0.026-0.981h0.5l0.026,0.617h0.02c0.143-0.422,0.494-0.689,0.877-0.689    c0.059,0,0.104,0.007,0.156,0.013v0.54c-0.059-0.006-0.117-0.013-0.195-0.013c-0.403,0-0.689,0.306-0.767,0.728    c-0.013,0.084-0.02,0.176-0.02,0.267v1.684h-0.572V151.301z"/>
		<path d="M100.858,153.537c-0.845,0-1.508-0.624-1.508-1.618c0-1.053,0.695-1.671,1.56-1.671c0.903,0,1.515,0.657,1.515,1.612    c0,1.17-0.812,1.677-1.56,1.677H100.858z M100.885,153.108c0.546,0,0.956-0.514,0.956-1.229c0-0.533-0.267-1.203-0.943-1.203    c-0.669,0-0.962,0.624-0.962,1.222c0,0.689,0.39,1.209,0.942,1.209H100.885z"/>
		<path d="M103.367,150.319l0.618,1.761c0.104,0.293,0.188,0.553,0.253,0.812h0.02c0.072-0.26,0.163-0.52,0.267-0.812l0.611-1.761    h0.598l-1.235,3.146h-0.546l-1.196-3.146H103.367z"/>
		<path d="M106.598,151.996c0.013,0.767,0.5,1.086,1.073,1.086c0.41,0,0.663-0.072,0.871-0.163l0.104,0.409    c-0.202,0.091-0.553,0.202-1.053,0.202c-0.962,0-1.547-0.644-1.547-1.586c0-0.949,0.565-1.697,1.482-1.697    c1.027,0,1.293,0.904,1.293,1.482c0,0.117-0.006,0.201-0.02,0.266H106.598z M108.269,151.587c0.006-0.364-0.149-0.93-0.787-0.93    c-0.585,0-0.832,0.533-0.877,0.93H108.269z"/>
		<path d="M109.451,152.88c0.175,0.104,0.475,0.221,0.761,0.221c0.409,0,0.604-0.201,0.604-0.468c0-0.273-0.163-0.416-0.579-0.572    c-0.572-0.208-0.838-0.52-0.838-0.89c0-0.507,0.416-0.923,1.085-0.923c0.318,0,0.598,0.084,0.767,0.195l-0.137,0.409    c-0.124-0.071-0.351-0.182-0.644-0.182c-0.338,0-0.52,0.195-0.52,0.429c0,0.26,0.182,0.377,0.592,0.54    c0.539,0.202,0.825,0.475,0.825,0.943c0,0.559-0.436,0.949-1.17,0.949c-0.345,0-0.663-0.091-0.884-0.221L109.451,152.88z"/>
		<path d="M82.005,159.301c0-0.371-0.007-0.689-0.026-0.981h0.5l0.026,0.617h0.02c0.143-0.422,0.494-0.689,0.877-0.689    c0.059,0,0.104,0.007,0.156,0.013v0.54c-0.059-0.006-0.117-0.013-0.195-0.013c-0.403,0-0.689,0.306-0.767,0.728    c-0.013,0.084-0.02,0.176-0.02,0.267v1.684h-0.572V159.301z"/>
		<path d="M84.456,159.996c0.013,0.767,0.501,1.086,1.073,1.086c0.41,0,0.663-0.072,0.871-0.163l0.104,0.409    c-0.202,0.091-0.553,0.202-1.053,0.202c-0.962,0-1.547-0.644-1.547-1.586c0-0.949,0.565-1.697,1.482-1.697    c1.027,0,1.293,0.904,1.293,1.482c0,0.117-0.006,0.201-0.02,0.266H84.456z M86.126,159.587c0.006-0.364-0.149-0.93-0.787-0.93    c-0.585,0-0.832,0.533-0.877,0.93H86.126z"/>
		<path d="M87.387,156.85h0.572v4.615h-0.572V156.85z"/>
		<path d="M91.138,160.711c0,0.273,0.013,0.54,0.046,0.754H90.67l-0.052-0.396h-0.02c-0.169,0.247-0.513,0.468-0.962,0.468    c-0.637,0-0.962-0.448-0.962-0.903c0-0.761,0.676-1.177,1.892-1.17v-0.065c0-0.26-0.072-0.735-0.715-0.728    c-0.299,0-0.605,0.084-0.826,0.234l-0.13-0.384c0.26-0.162,0.643-0.273,1.04-0.273c0.968,0,1.202,0.657,1.202,1.287V160.711z     M90.579,159.86c-0.624-0.013-1.333,0.098-1.333,0.708c0,0.377,0.247,0.546,0.533,0.546c0.416,0,0.683-0.26,0.773-0.526    c0.02-0.059,0.026-0.124,0.026-0.182V159.86z"/>
		<path d="M92.743,157.565v0.754h0.819v0.436h-0.819v1.69c0,0.39,0.11,0.611,0.429,0.611c0.156,0,0.247-0.013,0.331-0.039    l0.026,0.436c-0.111,0.039-0.286,0.078-0.507,0.078c-0.266,0-0.481-0.091-0.617-0.24c-0.156-0.176-0.221-0.455-0.221-0.826v-1.709    h-0.487v-0.436h0.487v-0.579L92.743,157.565z"/>
		<path d="M94.479,157.786c-0.208,0-0.345-0.163-0.345-0.351c0-0.201,0.143-0.357,0.358-0.357c0.208,0,0.351,0.156,0.351,0.357    c0,0.188-0.136,0.351-0.357,0.351H94.479z M94.206,161.465v-3.146h0.572v3.146H94.206z"/>
		<path d="M97.007,161.537c-0.845,0-1.508-0.624-1.508-1.618c0-1.053,0.695-1.671,1.56-1.671c0.903,0,1.515,0.657,1.515,1.612    c0,1.17-0.812,1.677-1.56,1.677H97.007z M97.033,161.108c0.546,0,0.956-0.514,0.956-1.229c0-0.533-0.267-1.203-0.943-1.203    c-0.669,0-0.962,0.624-0.962,1.222c0,0.689,0.39,1.209,0.942,1.209H97.033z"/>
		<path d="M99.295,159.171c0-0.332-0.006-0.592-0.026-0.852h0.507l0.032,0.513h0.013c0.156-0.292,0.52-0.585,1.04-0.585    c0.436,0,1.112,0.26,1.112,1.339v1.878h-0.572v-1.813c0-0.507-0.188-0.936-0.728-0.936c-0.371,0-0.663,0.267-0.767,0.585    c-0.026,0.071-0.039,0.175-0.039,0.267v1.898h-0.572V159.171z"/>
		<path d="M102.824,160.88c0.175,0.104,0.475,0.221,0.761,0.221c0.409,0,0.604-0.201,0.604-0.468c0-0.273-0.163-0.416-0.579-0.572    c-0.572-0.208-0.838-0.52-0.838-0.89c0-0.507,0.416-0.923,1.085-0.923c0.318,0,0.598,0.084,0.767,0.195l-0.137,0.409    c-0.124-0.071-0.351-0.182-0.644-0.182c-0.338,0-0.52,0.195-0.52,0.429c0,0.26,0.182,0.377,0.592,0.54    c0.539,0.202,0.825,0.475,0.825,0.943c0,0.559-0.436,0.949-1.17,0.949c-0.345,0-0.663-0.091-0.884-0.221L102.824,160.88z"/>
		<path d="M105.477,156.85h0.572v1.963h0.013c0.091-0.162,0.234-0.312,0.41-0.403c0.169-0.104,0.37-0.163,0.585-0.163    c0.422,0,1.099,0.26,1.099,1.346v1.872h-0.572v-1.813c0-0.507-0.188-0.93-0.728-0.93c-0.371,0-0.657,0.26-0.767,0.572    c-0.032,0.078-0.039,0.162-0.039,0.273v1.898h-0.572V156.85z"/>
		<path d="M109.357,157.786c-0.208,0-0.345-0.163-0.345-0.351c0-0.201,0.143-0.357,0.358-0.357c0.208,0,0.351,0.156,0.351,0.357    c0,0.188-0.136,0.351-0.357,0.351H109.357z M109.084,161.465v-3.146h0.572v3.146H109.084z"/>
		<path d="M110.605,159.346c0-0.403-0.007-0.728-0.026-1.027h0.513l0.033,0.54h0.013c0.228-0.39,0.605-0.611,1.112-0.611    c0.767,0,1.339,0.644,1.339,1.599c0,1.131-0.695,1.69-1.43,1.69c-0.423,0-0.78-0.182-0.969-0.494h-0.013v1.709h-0.572V159.346z     M111.177,160.185c0,0.078,0.007,0.163,0.026,0.234c0.097,0.396,0.448,0.669,0.851,0.669c0.605,0,0.956-0.494,0.956-1.216    c0-0.63-0.325-1.17-0.929-1.17c-0.39,0-0.761,0.273-0.871,0.708c-0.013,0.072-0.033,0.156-0.033,0.228V160.185z"/>
		<path d="M114.225,160.88c0.176,0.104,0.475,0.221,0.761,0.221c0.409,0,0.604-0.201,0.604-0.468c0-0.273-0.163-0.416-0.579-0.572    c-0.572-0.208-0.838-0.52-0.838-0.89c0-0.507,0.416-0.923,1.085-0.923c0.318,0,0.598,0.084,0.767,0.195l-0.137,0.409    c-0.124-0.071-0.351-0.182-0.644-0.182c-0.338,0-0.52,0.195-0.52,0.429c0,0.26,0.182,0.377,0.592,0.54    c0.54,0.202,0.825,0.475,0.825,0.943c0,0.559-0.436,0.949-1.17,0.949c-0.345,0-0.663-0.091-0.884-0.221L114.225,160.88z"/>
	</g>
	<g>
		<path d="M153.88,153.321c-0.202,0.104-0.624,0.208-1.157,0.208c-1.235,0-2.158-0.78-2.158-2.216c0-1.372,0.93-2.295,2.288-2.295    c0.54,0,0.891,0.117,1.04,0.188l-0.143,0.468c-0.208-0.104-0.513-0.182-0.877-0.182c-1.027,0-1.709,0.657-1.709,1.801    c0,1.072,0.618,1.755,1.677,1.755c0.351,0,0.702-0.071,0.929-0.182L153.88,153.321z"/>
		<path d="M155.856,153.536c-0.845,0-1.508-0.624-1.508-1.618c0-1.053,0.695-1.671,1.56-1.671c0.903,0,1.515,0.657,1.515,1.612    c0,1.17-0.812,1.677-1.56,1.677H155.856z M155.882,153.107c0.546,0,0.956-0.514,0.956-1.229c0-0.533-0.267-1.203-0.943-1.203    c-0.669,0-0.962,0.624-0.962,1.222c0,0.689,0.39,1.209,0.942,1.209H155.882z"/>
		<path d="M158.144,151.17c0-0.332-0.013-0.592-0.026-0.852h0.5l0.026,0.507h0.02c0.175-0.299,0.468-0.579,0.995-0.579    c0.422,0,0.748,0.26,0.884,0.631h0.013c0.097-0.182,0.228-0.312,0.357-0.41c0.188-0.143,0.39-0.221,0.689-0.221    c0.422,0,1.04,0.273,1.04,1.365v1.853h-0.559v-1.781c0-0.611-0.228-0.968-0.683-0.968c-0.332,0-0.578,0.24-0.682,0.513    c-0.026,0.085-0.046,0.189-0.046,0.286v1.95h-0.559v-1.892c0-0.5-0.221-0.858-0.657-0.858c-0.351,0-0.618,0.286-0.708,0.572    c-0.033,0.084-0.045,0.182-0.045,0.28v1.898h-0.559V151.17z"/>
		<path d="M163.565,151.345c0-0.403-0.007-0.728-0.026-1.027h0.513l0.033,0.54h0.013c0.228-0.39,0.605-0.611,1.112-0.611    c0.767,0,1.339,0.644,1.339,1.599c0,1.131-0.695,1.69-1.43,1.69c-0.423,0-0.78-0.182-0.969-0.494h-0.013v1.709h-0.572V151.345z     M164.137,152.184c0,0.078,0.007,0.163,0.026,0.234c0.097,0.396,0.448,0.669,0.851,0.669c0.605,0,0.956-0.494,0.956-1.216    c0-0.63-0.325-1.17-0.929-1.17c-0.39,0-0.761,0.273-0.871,0.708c-0.013,0.072-0.033,0.156-0.033,0.228V152.184z"/>
		<path d="M167.588,151.995c0.013,0.767,0.5,1.086,1.073,1.086c0.41,0,0.663-0.072,0.871-0.163l0.104,0.409    c-0.202,0.091-0.553,0.202-1.053,0.202c-0.962,0-1.547-0.644-1.547-1.586c0-0.949,0.565-1.697,1.482-1.697    c1.027,0,1.293,0.904,1.293,1.482c0,0.117-0.006,0.201-0.02,0.266H167.588z M169.259,151.586c0.006-0.364-0.149-0.93-0.787-0.93    c-0.585,0-0.832,0.533-0.877,0.93H169.259z"/>
		<path d="M171.209,149.564v0.754h0.819v0.436h-0.819v1.69c0,0.39,0.11,0.611,0.429,0.611c0.156,0,0.247-0.013,0.331-0.039    l0.026,0.436c-0.111,0.039-0.286,0.078-0.507,0.078c-0.266,0-0.481-0.091-0.617-0.24c-0.156-0.176-0.221-0.455-0.221-0.826v-1.709    h-0.487v-0.436h0.487v-0.579L171.209,149.564z"/>
		<path d="M172.945,149.785c-0.209,0-0.345-0.163-0.345-0.351c0-0.201,0.143-0.357,0.358-0.357c0.208,0,0.351,0.156,0.351,0.357    c0,0.188-0.137,0.351-0.357,0.351H172.945z M172.671,153.464v-3.146h0.572v3.146H172.671z"/>
		<path d="M174.881,149.564v0.754h0.819v0.436h-0.819v1.69c0,0.39,0.11,0.611,0.429,0.611c0.156,0,0.247-0.013,0.332-0.039    l0.025,0.436c-0.11,0.039-0.285,0.078-0.507,0.078c-0.267,0-0.481-0.091-0.617-0.24c-0.156-0.176-0.222-0.455-0.222-0.826v-1.709    h-0.486v-0.436h0.486v-0.579L174.881,149.564z"/>
		<path d="M176.617,149.785c-0.208,0-0.345-0.163-0.345-0.351c0-0.201,0.144-0.357,0.358-0.357c0.207,0,0.35,0.156,0.35,0.357    c0,0.188-0.136,0.351-0.357,0.351H176.617z M176.343,153.464v-3.146h0.572v3.146H176.343z"/>
		<path d="M179.145,153.536c-0.845,0-1.508-0.624-1.508-1.618c0-1.053,0.695-1.671,1.56-1.671c0.904,0,1.516,0.657,1.516,1.612    c0,1.17-0.812,1.677-1.561,1.677H179.145z M179.171,153.107c0.546,0,0.955-0.514,0.955-1.229c0-0.533-0.266-1.203-0.942-1.203    c-0.669,0-0.962,0.624-0.962,1.222c0,0.689,0.391,1.209,0.942,1.209H179.171z"/>
		<path d="M181.433,151.17c0-0.332-0.007-0.592-0.025-0.852h0.506l0.033,0.513h0.013c0.156-0.292,0.521-0.585,1.04-0.585    c0.436,0,1.111,0.26,1.111,1.339v1.878h-0.572v-1.813c0-0.507-0.188-0.936-0.728-0.936c-0.37,0-0.663,0.267-0.767,0.585    c-0.026,0.071-0.039,0.175-0.039,0.267v1.898h-0.572V151.17z"/>
		<path d="M158.242,157.785c-0.208,0-0.345-0.163-0.345-0.351c0-0.201,0.143-0.357,0.358-0.357c0.208,0,0.351,0.156,0.351,0.357    c0,0.188-0.136,0.351-0.357,0.351H158.242z M157.969,161.464v-3.146h0.572v3.146H157.969z"/>
		<path d="M159.412,160.879c0.176,0.104,0.475,0.221,0.761,0.221c0.409,0,0.604-0.201,0.604-0.468c0-0.273-0.163-0.416-0.579-0.572    c-0.572-0.208-0.838-0.52-0.838-0.89c0-0.507,0.416-0.923,1.085-0.923c0.318,0,0.598,0.084,0.767,0.195l-0.137,0.409    c-0.124-0.071-0.351-0.182-0.644-0.182c-0.338,0-0.52,0.195-0.52,0.429c0,0.26,0.182,0.377,0.592,0.54    c0.54,0.202,0.825,0.475,0.825,0.943c0,0.559-0.436,0.949-1.17,0.949c-0.345,0-0.663-0.091-0.884-0.221L159.412,160.879z"/>
		<path d="M166.132,161.003c0,0.728-0.149,1.164-0.448,1.443c-0.312,0.28-0.754,0.377-1.151,0.377c-0.377,0-0.793-0.091-1.046-0.26    l0.143-0.442c0.208,0.136,0.533,0.253,0.923,0.253c0.585,0,1.014-0.306,1.014-1.105v-0.345h-0.013    c-0.169,0.292-0.513,0.526-1.001,0.526c-0.78,0-1.339-0.663-1.339-1.541c0-1.066,0.695-1.664,1.423-1.664    c0.546,0,0.839,0.28,0.981,0.546h0.013l0.02-0.475h0.507c-0.019,0.221-0.026,0.481-0.026,0.858V161.003z M165.561,159.553    c0-0.091-0.007-0.175-0.033-0.253c-0.104-0.338-0.377-0.611-0.799-0.611c-0.546,0-0.936,0.461-0.936,1.196    c0,0.611,0.318,1.131,0.929,1.131c0.358,0,0.676-0.221,0.793-0.591c0.032-0.091,0.045-0.202,0.045-0.306V159.553z"/>
		<path d="M168.355,161.536c-0.845,0-1.508-0.624-1.508-1.618c0-1.053,0.695-1.671,1.56-1.671c0.903,0,1.515,0.657,1.515,1.612    c0,1.17-0.812,1.677-1.56,1.677H168.355z M168.382,161.107c0.546,0,0.956-0.514,0.956-1.229c0-0.533-0.267-1.203-0.943-1.203    c-0.669,0-0.962,0.624-0.962,1.222c0,0.689,0.39,1.209,0.942,1.209H168.382z"/>
		<path d="M171.924,161.536c-0.845,0-1.508-0.624-1.508-1.618c0-1.053,0.695-1.671,1.56-1.671c0.903,0,1.515,0.657,1.515,1.612    c0,1.17-0.812,1.677-1.56,1.677H171.924z M171.95,161.107c0.546,0,0.956-0.514,0.956-1.229c0-0.533-0.267-1.203-0.943-1.203    c-0.669,0-0.962,0.624-0.962,1.222c0,0.689,0.39,1.209,0.942,1.209H171.95z"/>
		<path d="M176.929,156.849v3.803c0,0.279,0.006,0.598,0.025,0.812h-0.514l-0.025-0.546h-0.014    c-0.175,0.351-0.552,0.617-1.065,0.617c-0.761,0-1.353-0.644-1.353-1.599c-0.006-1.053,0.65-1.69,1.411-1.69    c0.487,0,0.812,0.228,0.948,0.475h0.014v-1.872H176.929z M176.357,159.599c0-0.078-0.006-0.169-0.025-0.247    c-0.085-0.357-0.396-0.656-0.826-0.656c-0.592,0-0.942,0.52-0.942,1.209c0,0.644,0.318,1.17,0.929,1.17    c0.385,0,0.735-0.26,0.84-0.689c0.02-0.071,0.025-0.149,0.025-0.24V159.599z"/>
	</g>
	<g>
		<path d="M264.656,152.086l-0.455,1.378h-0.585l1.488-4.381h0.683l1.495,4.381h-0.604l-0.468-1.378H264.656z M266.092,151.644    l-0.436-1.261c-0.091-0.286-0.156-0.546-0.222-0.8h-0.02c-0.058,0.254-0.13,0.527-0.214,0.793l-0.43,1.267H266.092z"/>
		<path d="M267.906,151.17c0-0.332-0.007-0.592-0.026-0.852h0.507l0.033,0.513h0.013c0.156-0.292,0.52-0.585,1.04-0.585    c0.436,0,1.111,0.26,1.111,1.339v1.878h-0.572v-1.813c0-0.507-0.188-0.936-0.728-0.936c-0.371,0-0.663,0.267-0.768,0.585    c-0.025,0.071-0.039,0.175-0.039,0.267v1.898h-0.571V151.17z"/>
		<path d="M272.202,149.564v0.754h0.819v0.436h-0.819v1.69c0,0.39,0.11,0.611,0.43,0.611c0.155,0,0.246-0.013,0.331-0.039    l0.026,0.436c-0.111,0.039-0.286,0.078-0.508,0.078c-0.266,0-0.48-0.091-0.617-0.24c-0.156-0.176-0.221-0.455-0.221-0.826v-1.709    h-0.487v-0.436h0.487v-0.579L272.202,149.564z"/>
		<path d="M273.937,149.785c-0.208,0-0.345-0.163-0.345-0.351c0-0.201,0.144-0.357,0.358-0.357c0.208,0,0.351,0.156,0.351,0.357    c0,0.188-0.137,0.351-0.357,0.351H273.937z M273.665,153.464v-3.146h0.571v3.146H273.665z"/>
		<path d="M276.511,151.501v0.416h-1.605v-0.416H276.511z"/>
		<path d="M254.48,157.785c-0.208,0-0.345-0.163-0.345-0.351c0-0.201,0.143-0.357,0.357-0.357c0.208,0,0.351,0.156,0.351,0.357    c0,0.188-0.136,0.351-0.357,0.351H254.48z M254.207,161.464v-3.146h0.572v3.146H254.207z"/>
		<path d="M255.65,160.879c0.176,0.104,0.475,0.221,0.761,0.221c0.409,0,0.604-0.201,0.604-0.468c0-0.273-0.163-0.416-0.579-0.572    c-0.572-0.208-0.838-0.52-0.838-0.89c0-0.507,0.416-0.923,1.085-0.923c0.318,0,0.599,0.084,0.768,0.195l-0.137,0.409    c-0.124-0.071-0.352-0.182-0.644-0.182c-0.338,0-0.521,0.195-0.521,0.429c0,0.26,0.183,0.377,0.592,0.54    c0.54,0.202,0.825,0.475,0.825,0.943c0,0.559-0.436,0.949-1.17,0.949c-0.345,0-0.663-0.091-0.884-0.221L255.65,160.879z"/>
		<path d="M259.582,161.536c-0.845,0-1.508-0.624-1.508-1.618c0-1.053,0.695-1.671,1.561-1.671c0.903,0,1.515,0.657,1.515,1.612    c0,1.17-0.812,1.677-1.561,1.677H259.582z M259.608,161.107c0.546,0,0.956-0.514,0.956-1.229c0-0.533-0.267-1.203-0.943-1.203    c-0.669,0-0.962,0.624-0.962,1.222c0,0.689,0.391,1.209,0.942,1.209H259.608z"/>
		<path d="M261.871,156.849h0.571v4.615h-0.571V156.849z"/>
		<path d="M265.621,160.71c0,0.273,0.013,0.54,0.046,0.754h-0.514l-0.053-0.396h-0.02c-0.169,0.247-0.513,0.468-0.962,0.468    c-0.637,0-0.962-0.448-0.962-0.903c0-0.761,0.676-1.177,1.892-1.17v-0.065c0-0.26-0.071-0.735-0.715-0.728    c-0.299,0-0.604,0.084-0.825,0.234l-0.13-0.384c0.26-0.162,0.644-0.273,1.04-0.273c0.968,0,1.202,0.657,1.202,1.287V160.71z     M265.062,159.859c-0.624-0.013-1.333,0.098-1.333,0.708c0,0.377,0.247,0.546,0.533,0.546c0.416,0,0.683-0.26,0.773-0.526    c0.02-0.059,0.026-0.124,0.026-0.182V159.859z"/>
		<path d="M267.226,157.564v0.754h0.818v0.436h-0.818v1.69c0,0.39,0.11,0.611,0.429,0.611c0.156,0,0.247-0.013,0.332-0.039    l0.025,0.436c-0.11,0.039-0.286,0.078-0.507,0.078c-0.267,0-0.481-0.091-0.617-0.24c-0.156-0.176-0.222-0.455-0.222-0.826v-1.709    h-0.487v-0.436h0.487v-0.579L267.226,157.564z"/>
		<path d="M268.961,157.785c-0.208,0-0.345-0.163-0.345-0.351c0-0.201,0.144-0.357,0.358-0.357c0.208,0,0.351,0.156,0.351,0.357    c0,0.188-0.137,0.351-0.357,0.351H268.961z M268.689,161.464v-3.146h0.571v3.146H268.689z"/>
		<path d="M271.49,161.536c-0.845,0-1.508-0.624-1.508-1.618c0-1.053,0.695-1.671,1.561-1.671c0.903,0,1.515,0.657,1.515,1.612    c0,1.17-0.812,1.677-1.561,1.677H271.49z M271.516,161.107c0.546,0,0.956-0.514,0.956-1.229c0-0.533-0.267-1.203-0.943-1.203    c-0.669,0-0.962,0.624-0.962,1.222c0,0.689,0.391,1.209,0.942,1.209H271.516z"/>
		<path d="M273.778,159.17c0-0.332-0.006-0.592-0.025-0.852h0.507l0.032,0.513h0.013c0.156-0.292,0.521-0.585,1.04-0.585    c0.436,0,1.112,0.26,1.112,1.339v1.878h-0.572v-1.813c0-0.507-0.188-0.936-0.729-0.936c-0.37,0-0.663,0.267-0.767,0.585    c-0.026,0.071-0.039,0.175-0.039,0.267v1.898h-0.572V159.17z"/>
		<path d="M277.659,157.785c-0.208,0-0.345-0.163-0.345-0.351c0-0.201,0.143-0.357,0.357-0.357c0.208,0,0.351,0.156,0.351,0.357    c0,0.188-0.136,0.351-0.357,0.351H277.659z M277.385,161.464v-3.146h0.572v3.146H277.385z"/>
		<path d="M278.829,160.879c0.176,0.104,0.475,0.221,0.761,0.221c0.409,0,0.604-0.201,0.604-0.468c0-0.273-0.163-0.416-0.579-0.572    c-0.572-0.208-0.838-0.52-0.838-0.89c0-0.507,0.416-0.923,1.085-0.923c0.318,0,0.599,0.084,0.768,0.195l-0.137,0.409    c-0.124-0.071-0.352-0.182-0.644-0.182c-0.338,0-0.521,0.195-0.521,0.429c0,0.26,0.183,0.377,0.592,0.54    c0.54,0.202,0.825,0.475,0.825,0.943c0,0.559-0.436,0.949-1.17,0.949c-0.345,0-0.663-0.091-0.884-0.221L278.829,160.879z"/>
		<path d="M281.48,159.17c0-0.332-0.013-0.592-0.025-0.852h0.5l0.026,0.507H282c0.175-0.299,0.468-0.579,0.994-0.579    c0.423,0,0.748,0.26,0.884,0.631h0.014c0.097-0.182,0.228-0.312,0.357-0.41c0.188-0.143,0.39-0.221,0.688-0.221    c0.423,0,1.04,0.273,1.04,1.365v1.853h-0.559v-1.781c0-0.611-0.228-0.968-0.683-0.968c-0.332,0-0.578,0.24-0.683,0.513    c-0.026,0.085-0.046,0.189-0.046,0.286v1.95h-0.559v-1.892c0-0.5-0.221-0.858-0.656-0.858c-0.352,0-0.618,0.286-0.709,0.572    c-0.032,0.084-0.045,0.182-0.045,0.28v1.898h-0.56V159.17z"/>
	</g>
	<g>
		<path d="M296.851,149.083v1.833h2.119v-1.833h0.572v4.381h-0.572v-2.054h-2.119v2.054h-0.572v-4.381H296.851z"/>
		<path d="M300.83,151.995c0.013,0.767,0.5,1.086,1.072,1.086c0.409,0,0.663-0.072,0.871-0.163l0.104,0.409    c-0.201,0.091-0.552,0.202-1.053,0.202c-0.962,0-1.547-0.644-1.547-1.586c0-0.949,0.565-1.697,1.482-1.697    c1.026,0,1.293,0.904,1.293,1.482c0,0.117-0.006,0.201-0.02,0.266H300.83z M302.5,151.586c0.007-0.364-0.149-0.93-0.786-0.93    c-0.585,0-0.832,0.533-0.878,0.93H302.5z"/>
		<path d="M303.76,148.849h0.572v4.615h-0.572V148.849z"/>
		<path d="M305.294,151.345c0-0.403-0.007-0.728-0.026-1.027h0.514l0.032,0.54h0.014c0.228-0.39,0.604-0.611,1.111-0.611    c0.767,0,1.339,0.644,1.339,1.599c0,1.131-0.695,1.69-1.43,1.69c-0.423,0-0.78-0.182-0.969-0.494h-0.013v1.709h-0.572V151.345z     M305.867,152.184c0,0.078,0.006,0.163,0.025,0.234c0.098,0.396,0.449,0.669,0.852,0.669c0.604,0,0.956-0.494,0.956-1.216    c0-0.63-0.325-1.17-0.93-1.17c-0.39,0-0.761,0.273-0.871,0.708c-0.013,0.072-0.032,0.156-0.032,0.228V152.184z"/>
		<path d="M308.915,152.879c0.176,0.104,0.475,0.221,0.761,0.221c0.409,0,0.604-0.201,0.604-0.468c0-0.273-0.163-0.416-0.579-0.572    c-0.571-0.208-0.838-0.52-0.838-0.89c0-0.507,0.416-0.923,1.085-0.923c0.319,0,0.599,0.084,0.768,0.195l-0.137,0.409    c-0.123-0.071-0.351-0.182-0.644-0.182c-0.338,0-0.52,0.195-0.52,0.429c0,0.26,0.182,0.377,0.591,0.54    c0.54,0.202,0.826,0.475,0.826,0.943c0,0.559-0.436,0.949-1.171,0.949c-0.344,0-0.662-0.091-0.884-0.221L308.915,152.879z"/>
		<path d="M293.065,159.345c0-0.403-0.007-0.728-0.026-1.027h0.514l0.032,0.54h0.014c0.228-0.39,0.604-0.611,1.111-0.611    c0.767,0,1.339,0.644,1.339,1.599c0,1.131-0.695,1.69-1.43,1.69c-0.423,0-0.78-0.182-0.969-0.494h-0.013v1.709h-0.572V159.345z     M293.637,160.184c0,0.078,0.006,0.163,0.025,0.234c0.098,0.396,0.449,0.669,0.852,0.669c0.604,0,0.956-0.494,0.956-1.216    c0-0.63-0.325-1.17-0.93-1.17c-0.391,0-0.761,0.273-0.871,0.708c-0.013,0.072-0.032,0.156-0.032,0.228V160.184z"/>
		<path d="M296.763,159.3c0-0.371-0.007-0.689-0.026-0.981h0.501l0.025,0.617h0.02c0.144-0.422,0.494-0.689,0.878-0.689    c0.059,0,0.104,0.007,0.156,0.013v0.54c-0.059-0.006-0.117-0.013-0.195-0.013c-0.403,0-0.688,0.306-0.767,0.728    c-0.014,0.084-0.02,0.176-0.02,0.267v1.684h-0.572V159.3z"/>
		<path d="M300.169,161.536c-0.845,0-1.508-0.624-1.508-1.618c0-1.053,0.695-1.671,1.56-1.671c0.904,0,1.515,0.657,1.515,1.612    c0,1.17-0.812,1.677-1.56,1.677H300.169z M300.196,161.107c0.546,0,0.955-0.514,0.955-1.229c0-0.533-0.267-1.203-0.942-1.203    c-0.669,0-0.962,0.624-0.962,1.222c0,0.689,0.39,1.209,0.942,1.209H300.196z"/>
		<path d="M305.174,156.849v3.803c0,0.279,0.007,0.598,0.026,0.812h-0.514l-0.026-0.546h-0.013    c-0.176,0.351-0.553,0.617-1.066,0.617c-0.76,0-1.352-0.644-1.352-1.599c-0.007-1.053,0.65-1.69,1.41-1.69    c0.488,0,0.812,0.228,0.949,0.475h0.013v-1.872H305.174z M304.602,159.599c0-0.078-0.006-0.169-0.025-0.247    c-0.085-0.357-0.396-0.656-0.825-0.656c-0.592,0-0.943,0.52-0.943,1.209c0,0.644,0.318,1.17,0.93,1.17    c0.384,0,0.734-0.26,0.839-0.689c0.02-0.071,0.025-0.149,0.025-0.24V159.599z"/>
		<path d="M308.756,160.6c0,0.332,0.006,0.618,0.025,0.865h-0.507l-0.032-0.514h-0.013c-0.144,0.254-0.481,0.585-1.04,0.585    c-0.494,0-1.086-0.279-1.086-1.378v-1.839h0.572v1.735c0,0.598,0.188,1.008,0.702,1.008c0.383,0,0.649-0.267,0.754-0.527    c0.032-0.078,0.052-0.182,0.052-0.292v-1.924h0.572V160.6z"/>
		<path d="M311.947,161.347c-0.149,0.072-0.48,0.182-0.903,0.182c-0.949,0-1.566-0.644-1.566-1.605c0-0.969,0.663-1.677,1.69-1.677    c0.338,0,0.637,0.084,0.793,0.169l-0.131,0.436c-0.136-0.071-0.351-0.149-0.662-0.149c-0.722,0-1.112,0.54-1.112,1.189    c0,0.728,0.469,1.177,1.093,1.177c0.324,0,0.539-0.078,0.701-0.149L311.947,161.347z"/>
		<path d="M313.305,157.564v0.754h0.819v0.436h-0.819v1.69c0,0.39,0.111,0.611,0.43,0.611c0.156,0,0.247-0.013,0.331-0.039    l0.026,0.436c-0.11,0.039-0.286,0.078-0.507,0.078c-0.267,0-0.481-0.091-0.618-0.24c-0.155-0.176-0.221-0.455-0.221-0.826v-1.709    h-0.487v-0.436h0.487v-0.579L313.305,157.564z"/>
		<path d="M296.74,168.983h-0.013c-0.169,0.306-0.52,0.552-1.027,0.552c-0.734,0-1.332-0.63-1.332-1.592    c0-1.177,0.761-1.697,1.424-1.697c0.487,0,0.812,0.241,0.968,0.546h0.014l0.02-0.475h0.546c-0.02,0.26-0.026,0.54-0.026,0.864    v3.569h-0.572V168.983z M296.74,167.592c0-0.084-0.006-0.169-0.025-0.241c-0.091-0.351-0.391-0.65-0.819-0.65    c-0.592,0-0.949,0.5-0.949,1.209c0,0.631,0.3,1.17,0.93,1.17c0.371,0,0.689-0.228,0.819-0.624    c0.025-0.078,0.045-0.189,0.045-0.273V167.592z"/>
		<path d="M300.887,168.6c0,0.332,0.006,0.618,0.025,0.865h-0.507l-0.032-0.514h-0.013c-0.144,0.254-0.481,0.585-1.04,0.585    c-0.494,0-1.086-0.279-1.086-1.378v-1.839h0.572v1.735c0,0.598,0.188,1.008,0.702,1.008c0.383,0,0.649-0.267,0.754-0.527    c0.032-0.078,0.052-0.182,0.052-0.292v-1.924h0.572V168.6z"/>
		<path d="M304.053,168.71c0,0.273,0.013,0.54,0.045,0.754h-0.514l-0.052-0.396h-0.02c-0.169,0.247-0.514,0.468-0.962,0.468    c-0.637,0-0.962-0.448-0.962-0.903c0-0.761,0.676-1.177,1.892-1.17v-0.065c0-0.26-0.071-0.735-0.715-0.728    c-0.299,0-0.604,0.084-0.826,0.234l-0.13-0.384c0.261-0.162,0.644-0.273,1.04-0.273c0.969,0,1.203,0.657,1.203,1.287V168.71z     M303.494,167.859c-0.624-0.013-1.332,0.098-1.332,0.708c0,0.377,0.247,0.546,0.533,0.546c0.416,0,0.682-0.26,0.773-0.526    c0.02-0.059,0.025-0.124,0.025-0.182V167.859z"/>
		<path d="M304.969,164.849h0.572v4.615h-0.572V164.849z"/>
		<path d="M306.776,165.785c-0.208,0-0.344-0.163-0.344-0.351c0-0.201,0.143-0.357,0.357-0.357c0.208,0,0.351,0.156,0.351,0.357    c0,0.188-0.137,0.351-0.357,0.351H306.776z M306.503,169.464v-3.146h0.572v3.146H306.503z"/>
		<path d="M308.712,165.564v0.754h0.819v0.436h-0.819v1.69c0,0.39,0.111,0.611,0.43,0.611c0.156,0,0.247-0.013,0.331-0.039    l0.026,0.436c-0.11,0.039-0.286,0.078-0.507,0.078c-0.267,0-0.481-0.091-0.618-0.24c-0.155-0.176-0.221-0.455-0.221-0.826v-1.709    h-0.487v-0.436h0.487v-0.579L308.712,165.564z"/>
		<path d="M310.383,166.318l0.683,1.859c0.078,0.208,0.156,0.455,0.208,0.644h0.013c0.059-0.188,0.124-0.429,0.201-0.656    l0.624-1.846h0.604l-0.857,2.243c-0.409,1.079-0.689,1.625-1.079,1.969c-0.286,0.241-0.56,0.338-0.702,0.364l-0.143-0.475    c0.143-0.045,0.331-0.137,0.5-0.28c0.156-0.123,0.345-0.344,0.481-0.637c0.025-0.059,0.045-0.104,0.045-0.137    c0-0.032-0.013-0.078-0.045-0.149l-1.157-2.899H310.383z"/>
	</g>
	<g>
		<path d="M320.662,149.083v4.381h-0.572v-4.381H320.662z"/>
		<path d="M321.63,151.17c0-0.332-0.008-0.592-0.027-0.852h0.508l0.033,0.513h0.012c0.156-0.292,0.521-0.585,1.041-0.585    c0.436,0,1.111,0.26,1.111,1.339v1.878h-0.572v-1.813c0-0.507-0.189-0.936-0.729-0.936c-0.369,0-0.662,0.267-0.766,0.585    c-0.027,0.071-0.039,0.175-0.039,0.267v1.898h-0.572V151.17z"/>
		<path d="M327.48,153.347c-0.15,0.072-0.48,0.182-0.904,0.182c-0.949,0-1.566-0.644-1.566-1.605c0-0.969,0.664-1.677,1.691-1.677    c0.338,0,0.637,0.084,0.793,0.169l-0.131,0.436c-0.137-0.071-0.352-0.149-0.662-0.149c-0.723,0-1.113,0.54-1.113,1.189    c0,0.728,0.469,1.177,1.094,1.177c0.324,0,0.539-0.078,0.701-0.149L327.48,153.347z"/>
		<path d="M328.15,151.3c0-0.371-0.008-0.689-0.027-0.981h0.502l0.025,0.617h0.02c0.143-0.422,0.494-0.689,0.877-0.689    c0.059,0,0.104,0.007,0.156,0.013v0.54c-0.059-0.006-0.117-0.013-0.195-0.013c-0.402,0-0.689,0.306-0.766,0.728    c-0.014,0.084-0.02,0.176-0.02,0.267v1.684h-0.572V151.3z"/>
		<path d="M330.599,151.995c0.014,0.767,0.5,1.086,1.072,1.086c0.41,0,0.664-0.072,0.871-0.163l0.104,0.409    c-0.201,0.091-0.551,0.202-1.053,0.202c-0.961,0-1.547-0.644-1.547-1.586c0-0.949,0.566-1.697,1.482-1.697    c1.027,0,1.293,0.904,1.293,1.482c0,0.117-0.006,0.201-0.02,0.266H330.599z M332.269,151.586c0.008-0.364-0.148-0.93-0.785-0.93    c-0.586,0-0.832,0.533-0.879,0.93H332.269z"/>
		<path d="M335.748,152.71c0,0.273,0.014,0.54,0.045,0.754h-0.514l-0.051-0.396h-0.02c-0.17,0.247-0.514,0.468-0.963,0.468    c-0.637,0-0.961-0.448-0.961-0.903c0-0.761,0.676-1.177,1.891-1.17v-0.065c0-0.26-0.07-0.735-0.715-0.728    c-0.299,0-0.604,0.084-0.826,0.234l-0.129-0.384c0.26-0.162,0.643-0.273,1.039-0.273c0.969,0,1.203,0.657,1.203,1.287V152.71z     M335.189,151.859c-0.625-0.013-1.332,0.098-1.332,0.708c0,0.377,0.246,0.546,0.533,0.546c0.416,0,0.682-0.26,0.773-0.526    c0.02-0.059,0.025-0.124,0.025-0.182V151.859z"/>
		<path d="M336.585,152.879c0.176,0.104,0.475,0.221,0.762,0.221c0.408,0,0.604-0.201,0.604-0.468c0-0.273-0.162-0.416-0.578-0.572    c-0.572-0.208-0.838-0.52-0.838-0.89c0-0.507,0.416-0.923,1.084-0.923c0.32,0,0.6,0.084,0.768,0.195l-0.137,0.409    c-0.123-0.071-0.35-0.182-0.643-0.182c-0.338,0-0.52,0.195-0.52,0.429c0,0.26,0.182,0.377,0.59,0.54    c0.541,0.202,0.826,0.475,0.826,0.943c0,0.559-0.436,0.949-1.17,0.949c-0.344,0-0.662-0.091-0.885-0.221L336.585,152.879z"/>
		<path d="M339.564,151.995c0.012,0.767,0.5,1.086,1.072,1.086c0.408,0,0.662-0.072,0.871-0.163l0.104,0.409    c-0.201,0.091-0.553,0.202-1.053,0.202c-0.963,0-1.547-0.644-1.547-1.586c0-0.949,0.564-1.697,1.482-1.697    c1.025,0,1.293,0.904,1.293,1.482c0,0.117-0.008,0.201-0.02,0.266H339.564z M341.234,151.586c0.006-0.364-0.15-0.93-0.787-0.93    c-0.584,0-0.832,0.533-0.877,0.93H341.234z"/>
		<path d="M342.416,152.879c0.176,0.104,0.475,0.221,0.762,0.221c0.408,0,0.604-0.201,0.604-0.468c0-0.273-0.162-0.416-0.578-0.572    c-0.572-0.208-0.838-0.52-0.838-0.89c0-0.507,0.416-0.923,1.084-0.923c0.32,0,0.6,0.084,0.768,0.195l-0.137,0.409    c-0.123-0.071-0.35-0.182-0.643-0.182c-0.338,0-0.52,0.195-0.52,0.429c0,0.26,0.182,0.377,0.59,0.54    c0.541,0.202,0.826,0.475,0.826,0.943c0,0.559-0.436,0.949-1.17,0.949c-0.344,0-0.662-0.091-0.885-0.221L342.416,152.879z"/>
		<path d="M345.673,154.387c0.266-0.02,0.486-0.091,0.623-0.24c0.156-0.176,0.221-0.429,0.221-1.183v-2.646h0.572v2.867    c0,0.611-0.098,1.007-0.377,1.293c-0.254,0.253-0.67,0.357-0.975,0.357L345.673,154.387z M346.791,149.785    c-0.207,0-0.344-0.163-0.344-0.351c0-0.201,0.143-0.357,0.357-0.357s0.35,0.156,0.35,0.357c0,0.188-0.129,0.351-0.357,0.351    H346.791z"/>
		<path d="M349.306,153.536c-0.846,0-1.508-0.624-1.508-1.618c0-1.053,0.695-1.671,1.559-1.671c0.904,0,1.516,0.657,1.516,1.612    c0,1.17-0.812,1.677-1.561,1.677H349.306z M349.332,153.107c0.547,0,0.955-0.514,0.955-1.229c0-0.533-0.266-1.203-0.941-1.203    c-0.67,0-0.963,0.624-0.963,1.222c0,0.689,0.391,1.209,0.943,1.209H349.332z"/>
		<path d="M351.593,148.849h0.572v1.97h0.014c0.201-0.351,0.564-0.572,1.072-0.572c0.779,0,1.326,0.65,1.326,1.599    c0,1.131-0.715,1.69-1.418,1.69c-0.455,0-0.812-0.175-1.053-0.591h-0.014l-0.031,0.52h-0.494c0.02-0.214,0.025-0.533,0.025-0.812    V148.849z M352.166,152.203c0,0.072,0.006,0.143,0.02,0.208c0.111,0.396,0.449,0.67,0.857,0.67c0.605,0,0.957-0.488,0.957-1.209    c0-0.637-0.326-1.176-0.938-1.176c-0.389,0-0.754,0.273-0.863,0.702c-0.02,0.071-0.033,0.149-0.033,0.24V152.203z"/>
		<path d="M355.214,152.879c0.176,0.104,0.475,0.221,0.762,0.221c0.408,0,0.604-0.201,0.604-0.468c0-0.273-0.162-0.416-0.578-0.572    c-0.572-0.208-0.838-0.52-0.838-0.89c0-0.507,0.416-0.923,1.084-0.923c0.32,0,0.6,0.084,0.768,0.195l-0.137,0.409    c-0.123-0.071-0.35-0.182-0.643-0.182c-0.338,0-0.52,0.195-0.52,0.429c0,0.26,0.182,0.377,0.59,0.54    c0.541,0.202,0.826,0.475,0.826,0.943c0,0.559-0.436,0.949-1.17,0.949c-0.344,0-0.662-0.091-0.885-0.221L355.214,152.879z"/>
		<path d="M330.814,161.003c0,0.728-0.15,1.164-0.449,1.443c-0.311,0.28-0.754,0.377-1.15,0.377c-0.377,0-0.793-0.091-1.047-0.26    l0.145-0.442c0.207,0.136,0.533,0.253,0.922,0.253c0.586,0,1.014-0.306,1.014-1.105v-0.345h-0.012    c-0.17,0.292-0.514,0.526-1.002,0.526c-0.779,0-1.338-0.663-1.338-1.541c0-1.066,0.695-1.664,1.424-1.664    c0.545,0,0.838,0.28,0.98,0.546h0.014l0.02-0.475h0.506c-0.02,0.221-0.025,0.481-0.025,0.858V161.003z M330.242,159.553    c0-0.091-0.006-0.175-0.031-0.253c-0.105-0.338-0.379-0.611-0.801-0.611c-0.545,0-0.936,0.461-0.936,1.196    c0,0.611,0.318,1.131,0.93,1.131c0.357,0,0.676-0.221,0.793-0.591c0.033-0.091,0.045-0.202,0.045-0.306V159.553z"/>
		<path d="M331.757,156.849h0.572v4.615h-0.572V156.849z"/>
		<path d="M334.57,161.536c-0.844,0-1.508-0.624-1.508-1.618c0-1.053,0.695-1.671,1.561-1.671c0.904,0,1.514,0.657,1.514,1.612    c0,1.17-0.812,1.677-1.559,1.677H334.57z M334.597,161.107c0.545,0,0.955-0.514,0.955-1.229c0-0.533-0.268-1.203-0.943-1.203    c-0.668,0-0.961,0.624-0.961,1.222c0,0.689,0.389,1.209,0.941,1.209H334.597z"/>
		<path d="M336.859,156.849h0.572v1.97h0.014c0.201-0.351,0.564-0.572,1.072-0.572c0.779,0,1.326,0.65,1.326,1.599    c0,1.131-0.715,1.69-1.418,1.69c-0.455,0-0.812-0.175-1.053-0.591h-0.014l-0.031,0.52h-0.494c0.02-0.214,0.025-0.533,0.025-0.812    V156.849z M337.431,160.203c0,0.072,0.006,0.143,0.02,0.208c0.111,0.396,0.449,0.67,0.857,0.67c0.605,0,0.957-0.488,0.957-1.209    c0-0.637-0.326-1.176-0.938-1.176c-0.389,0-0.754,0.273-0.863,0.702c-0.02,0.071-0.033,0.149-0.033,0.24V160.203z"/>
		<path d="M342.775,160.71c0,0.273,0.012,0.54,0.045,0.754h-0.514l-0.053-0.396h-0.02c-0.168,0.247-0.514,0.468-0.961,0.468    c-0.637,0-0.963-0.448-0.963-0.903c0-0.761,0.676-1.177,1.893-1.17v-0.065c0-0.26-0.072-0.735-0.715-0.728    c-0.299,0-0.605,0.084-0.826,0.234l-0.131-0.384c0.262-0.162,0.645-0.273,1.041-0.273c0.969,0,1.203,0.657,1.203,1.287V160.71z     M342.214,159.859c-0.623-0.013-1.332,0.098-1.332,0.708c0,0.377,0.248,0.546,0.533,0.546c0.416,0,0.682-0.26,0.773-0.526    c0.02-0.059,0.025-0.124,0.025-0.182V159.859z"/>
		<path d="M343.691,156.849h0.572v4.615h-0.572V156.849z"/>
		<path d="M345.224,156.849h0.572v4.615h-0.572V156.849z"/>
		<path d="M346.966,158.318l0.682,1.859c0.078,0.208,0.156,0.455,0.209,0.644h0.012c0.059-0.188,0.125-0.429,0.201-0.656    l0.625-1.846h0.604l-0.857,2.243c-0.408,1.079-0.689,1.625-1.078,1.969c-0.287,0.241-0.561,0.338-0.703,0.364l-0.143-0.475    c0.143-0.045,0.332-0.137,0.5-0.28c0.156-0.123,0.346-0.344,0.482-0.637c0.025-0.059,0.045-0.104,0.045-0.137    c0-0.032-0.014-0.078-0.045-0.149l-1.158-2.899H346.966z"/>
	</g>
	<g>
		<path d="M123.989,149.083h0.572v3.907h1.872v0.475h-2.444V149.083z"/>
		<path d="M128.325,153.536c-0.845,0-1.508-0.624-1.508-1.618c0-1.053,0.695-1.671,1.56-1.671c0.904,0,1.515,0.657,1.515,1.612    c0,1.17-0.812,1.677-1.56,1.677H128.325z M128.352,153.107c0.546,0,0.955-0.514,0.955-1.229c0-0.533-0.267-1.203-0.942-1.203    c-0.669,0-0.962,0.624-0.962,1.222c0,0.689,0.39,1.209,0.942,1.209H128.352z"/>
		<path d="M130.841,150.318l0.423,1.592c0.084,0.351,0.169,0.683,0.227,1.008h0.02c0.072-0.319,0.176-0.657,0.28-1.001l0.514-1.599    h0.48l0.487,1.573c0.117,0.371,0.208,0.708,0.28,1.027h0.019c0.053-0.319,0.137-0.65,0.241-1.021l0.448-1.58h0.565l-1.014,3.146    h-0.521l-0.48-1.501c-0.11-0.357-0.202-0.669-0.279-1.04h-0.014c-0.078,0.377-0.176,0.708-0.286,1.046l-0.507,1.495h-0.52    l-0.949-3.146H130.841z"/>
		<path d="M135.722,151.995c0.013,0.767,0.5,1.086,1.072,1.086c0.409,0,0.663-0.072,0.871-0.163l0.104,0.409    c-0.201,0.091-0.552,0.202-1.053,0.202c-0.962,0-1.547-0.644-1.547-1.586c0-0.949,0.565-1.697,1.482-1.697    c1.026,0,1.293,0.904,1.293,1.482c0,0.117-0.007,0.201-0.02,0.266H135.722z M137.392,151.586c0.007-0.364-0.149-0.93-0.786-0.93    c-0.585,0-0.832,0.533-0.878,0.93H137.392z"/>
		<path d="M138.653,151.3c0-0.371-0.007-0.689-0.026-0.981h0.501l0.025,0.617h0.02c0.144-0.422,0.494-0.689,0.878-0.689    c0.059,0,0.104,0.007,0.156,0.013v0.54c-0.059-0.006-0.117-0.013-0.195-0.013c-0.403,0-0.689,0.306-0.767,0.728    c-0.014,0.084-0.02,0.176-0.02,0.267v1.684h-0.572V151.3z"/>
		<path d="M140.7,152.879c0.176,0.104,0.475,0.221,0.761,0.221c0.409,0,0.604-0.201,0.604-0.468c0-0.273-0.163-0.416-0.579-0.572    c-0.571-0.208-0.838-0.52-0.838-0.89c0-0.507,0.416-0.923,1.085-0.923c0.319,0,0.599,0.084,0.768,0.195l-0.137,0.409    c-0.123-0.071-0.351-0.182-0.644-0.182c-0.338,0-0.52,0.195-0.52,0.429c0,0.26,0.182,0.377,0.591,0.54    c0.54,0.202,0.826,0.475,0.826,0.943c0,0.559-0.436,0.949-1.171,0.949c-0.344,0-0.662-0.091-0.884-0.221L140.7,152.879z"/>
		<path d="M129.018,161.347c-0.149,0.072-0.48,0.182-0.903,0.182c-0.949,0-1.566-0.644-1.566-1.605c0-0.969,0.663-1.677,1.69-1.677    c0.338,0,0.637,0.084,0.793,0.169l-0.131,0.436c-0.136-0.071-0.351-0.149-0.662-0.149c-0.722,0-1.112,0.54-1.112,1.189    c0,0.728,0.469,1.177,1.093,1.177c0.324,0,0.539-0.078,0.701-0.149L129.018,161.347z"/>
		<path d="M130.968,161.536c-0.845,0-1.508-0.624-1.508-1.618c0-1.053,0.695-1.671,1.56-1.671c0.904,0,1.515,0.657,1.515,1.612    c0,1.17-0.812,1.677-1.56,1.677H130.968z M130.994,161.107c0.546,0,0.955-0.514,0.955-1.229c0-0.533-0.267-1.203-0.942-1.203    c-0.669,0-0.962,0.624-0.962,1.222c0,0.689,0.39,1.209,0.942,1.209H130.994z"/>
		<path d="M133.178,160.879c0.176,0.104,0.475,0.221,0.761,0.221c0.409,0,0.604-0.201,0.604-0.468c0-0.273-0.163-0.416-0.579-0.572    c-0.571-0.208-0.838-0.52-0.838-0.89c0-0.507,0.416-0.923,1.085-0.923c0.319,0,0.599,0.084,0.768,0.195l-0.137,0.409    c-0.123-0.071-0.351-0.182-0.644-0.182c-0.338,0-0.52,0.195-0.52,0.429c0,0.26,0.182,0.377,0.591,0.54    c0.54,0.202,0.826,0.475,0.826,0.943c0,0.559-0.436,0.949-1.17,0.949c-0.345,0-0.663-0.091-0.885-0.221L133.178,160.879z"/>
		<path d="M136.519,157.564v0.754h0.819v0.436h-0.819v1.69c0,0.39,0.111,0.611,0.43,0.611c0.156,0,0.247-0.013,0.331-0.039    l0.026,0.436c-0.11,0.039-0.286,0.078-0.507,0.078c-0.267,0-0.481-0.091-0.618-0.24c-0.155-0.176-0.221-0.455-0.221-0.826v-1.709    h-0.487v-0.436h0.487v-0.579L136.519,157.564z"/>
		<path d="M137.903,160.879c0.176,0.104,0.475,0.221,0.761,0.221c0.409,0,0.604-0.201,0.604-0.468c0-0.273-0.163-0.416-0.579-0.572    c-0.571-0.208-0.838-0.52-0.838-0.89c0-0.507,0.416-0.923,1.085-0.923c0.319,0,0.599,0.084,0.768,0.195l-0.137,0.409    c-0.123-0.071-0.351-0.182-0.644-0.182c-0.338,0-0.52,0.195-0.52,0.429c0,0.26,0.182,0.377,0.591,0.54    c0.54,0.202,0.826,0.475,0.826,0.943c0,0.559-0.436,0.949-1.171,0.949c-0.344,0-0.662-0.091-0.884-0.221L137.903,160.879z"/>
	</g>
	
		<line fill="none" stroke="#000000" stroke-width="0.5" stroke-linejoin="round" stroke-miterlimit="10" x1="13.506" y1="2.765" x2="10.506" y2="2.765"/>
	
		<line fill="none" stroke="#000000" stroke-width="0.5" stroke-linejoin="round" stroke-miterlimit="10" x1="13.506" y1="26.357" x2="10.506" y2="26.357"/>
	
		<line fill="none" stroke="#000000" stroke-width="0.5" stroke-linejoin="round" stroke-miterlimit="10" x1="13.506" y1="49.949" x2="10.506" y2="49.949"/>
	
		<line fill="none" stroke="#000000" stroke-width="0.5" stroke-linejoin="round" stroke-miterlimit="10" x1="13.506" y1="73.541" x2="10.506" y2="73.541"/>
	
		<line fill="none" stroke="#000000" stroke-width="0.5" stroke-linejoin="round" stroke-miterlimit="10" x1="13.506" y1="97.133" x2="10.506" y2="97.133"/>
	
		<line fill="none" stroke="#000000" stroke-width="0.5" stroke-linejoin="round" stroke-miterlimit="10" x1="13.506" y1="120.725" x2="10.506" y2="120.725"/>
	
		<line fill="none" stroke="#000000" stroke-width="0.5" stroke-linejoin="round" stroke-miterlimit="10" x1="13.506" y1="144.317" x2="10.506" y2="144.317"/>
	<path fill="#A7A9AC" stroke="#000000" stroke-width="0.5" stroke-linejoin="round" stroke-miterlimit="10" d="M329.896,139.679   h17.112v4.638h-17.112V139.679z M295.671,130.124h17.113v14.193h-17.113V130.124z M261.616,125.442h17.111v18.875h-17.111V125.442z    M227.391,120.76h17.112v23.557h-17.112V120.76z M193.167,120.76h17.111v23.557h-17.111V120.76z M158.943,111.399h17.112v32.918   h-17.112V111.399z M124.719,101.842h17.112v42.475h-17.112V101.842z M90.495,97.162h17.112v47.155H90.495V97.162z M56.271,73.563   h17.112v70.754H56.271V73.563z M22.046,40.602h17.112v103.715H22.046V40.602z"/>
	<path fill="none" stroke="#000000" stroke-width="0.5" stroke-linejoin="round" stroke-miterlimit="10" d="M28.589,31.825h4.139    M28.589,49.183h4.139 M30.603,40.602v-8.777 M30.603,49.183v-8.581"/>
	<path fill="none" stroke="#000000" stroke-width="0.5" stroke-linejoin="round" stroke-miterlimit="10" d="M62.813,66.151h4.124    M62.813,80.973h4.124 M64.827,73.563v-7.412 M64.827,80.973v-7.41"/>
	<path fill="none" stroke="#000000" stroke-width="0.5" stroke-linejoin="round" stroke-miterlimit="10" d="M96.87,90.92h4.194    M96.87,103.403h4.194 M99.051,97.162V90.92 M99.051,103.403v-6.241"/>
	<path fill="none" stroke="#000000" stroke-width="0.5" stroke-linejoin="round" stroke-miterlimit="10" d="M131.093,95.796h4.195    M131.093,107.863h4.195 M133.275,101.842v-6.046 M133.275,107.863v-6.021"/>
	<path fill="none" stroke="#000000" stroke-width="0.5" stroke-linejoin="round" stroke-miterlimit="10" d="M165.318,105.938h4.194    M165.318,116.646h4.194 M167.5,111.399v-5.461 M167.5,116.646v-5.247"/>
	<path fill="none" stroke="#000000" stroke-width="0.5" stroke-linejoin="round" stroke-miterlimit="10" d="M199.542,116.081h4.194    M199.542,125.247h4.194 M201.723,120.761v-4.681 M201.723,125.247v-4.485"/>
	<path fill="none" stroke="#000000" stroke-width="0.5" stroke-linejoin="round" stroke-miterlimit="10" d="M233.767,116.081h4.193    M233.767,125.247h4.193 M235.948,120.761v-4.681 M235.948,125.247v-4.485"/>
	<path fill="none" stroke="#000000" stroke-width="0.5" stroke-linejoin="round" stroke-miterlimit="10" d="M267.991,121.346h4.194    M267.991,129.538h4.194 M270.171,125.442v-4.096 M270.171,129.538v-4.096"/>
	<path fill="none" stroke="#000000" stroke-width="0.5" stroke-linejoin="round" stroke-miterlimit="10" d="M302.215,126.612h4.188    M302.215,133.741h4.188 M304.228,130.124v-3.512 M304.228,133.741v-3.617"/>
	<path fill="none" stroke="#000000" stroke-width="0.5" stroke-linejoin="round" stroke-miterlimit="10" d="M336.439,137.534h4.173    M336.439,141.629h4.173 M338.453,139.679v-2.146 M338.453,141.629v-1.95"/>
</g>
</svg>