<svg xmlns="http://www.w3.org/2000/svg" xmlns:xlink="http://www.w3.org/1999/xlink" version="1.1" x="0px" y="0px" width="301.867px" height="133.163px" viewBox="0 0 301.867 133.163" enable-background="new 0 0 301.867 133.163" xml:space="preserve">
<g id="wide" display="none">
</g>
<g id="text_column">
</g>
<g id="art">
	<g>
		<path d="M0.24,12.851c0.2,0.12,0.655,0.32,1.151,0.32c0.896,0,1.183-0.568,1.175-1.008c-0.008-0.728-0.664-1.039-1.343-1.039    H0.832v-0.528h0.392c0.512,0,1.159-0.264,1.159-0.879c0-0.416-0.264-0.784-0.911-0.784c-0.416,0-0.816,0.185-1.04,0.344    L0.24,8.765c0.28-0.199,0.808-0.399,1.367-0.399c1.023,0,1.487,0.607,1.487,1.239c0,0.544-0.328,1-0.959,1.231v0.016    c0.64,0.12,1.159,0.6,1.159,1.328c0,0.831-0.656,1.559-1.895,1.559c-0.583,0-1.095-0.184-1.351-0.352L0.24,12.851z"/>
		<path d="M4.696,13.738c-0.272,0-0.463-0.216-0.463-0.504c0-0.287,0.2-0.504,0.479-0.504s0.472,0.208,0.472,0.504    c0,0.288-0.192,0.504-0.479,0.504H4.696z"/>
		<path d="M8.934,9.045H6.951l-0.2,1.335c0.12-0.016,0.232-0.031,0.424-0.031c0.408,0,0.799,0.088,1.119,0.279    c0.408,0.224,0.744,0.68,0.744,1.335c0,1.016-0.808,1.775-1.935,1.775c-0.568,0-1.04-0.16-1.295-0.319l0.176-0.536    c0.216,0.128,0.64,0.288,1.12,0.288c0.655,0,1.231-0.432,1.223-1.136c0-0.663-0.456-1.144-1.487-1.144    c-0.304,0-0.536,0.024-0.728,0.057l0.336-2.495h2.486V9.045z"/>
		<path d="M0.24,24.851c0.2,0.12,0.655,0.32,1.151,0.32c0.896,0,1.183-0.568,1.175-1.008c-0.008-0.728-0.664-1.039-1.343-1.039    H0.832v-0.528h0.392c0.512,0,1.159-0.264,1.159-0.879c0-0.416-0.264-0.784-0.911-0.784c-0.416,0-0.816,0.185-1.04,0.344    L0.24,20.765c0.28-0.199,0.808-0.399,1.367-0.399c1.023,0,1.487,0.607,1.487,1.239c0,0.544-0.328,1-0.959,1.231v0.016    c0.64,0.12,1.159,0.6,1.159,1.328c0,0.831-0.656,1.559-1.895,1.559c-0.583,0-1.095-0.184-1.351-0.352L0.24,24.851z"/>
		<path d="M4.696,25.738c-0.272,0-0.463-0.216-0.463-0.504c0-0.287,0.2-0.504,0.479-0.504s0.472,0.208,0.472,0.504    c0,0.288-0.192,0.504-0.479,0.504H4.696z"/>
		<path d="M7.487,25.738c-1.016,0-1.711-0.951-1.728-2.671c0-1.751,0.76-2.702,1.815-2.702c1.087,0,1.719,0.976,1.719,2.631    c0,1.767-0.664,2.742-1.799,2.742H7.487z M7.527,25.194c0.712,0,1.056-0.839,1.056-2.167c0-1.279-0.32-2.118-1.056-2.118    c-0.64,0-1.055,0.815-1.055,2.118c-0.016,1.352,0.4,2.167,1.047,2.167H7.527z"/>
		<path d="M0.072,37.65v-0.432l0.552-0.536c1.327-1.263,1.935-1.935,1.935-2.718c0-0.528-0.248-1.016-1.023-1.016    c-0.472,0-0.863,0.239-1.103,0.439l-0.224-0.496c0.352-0.295,0.872-0.527,1.471-0.527c1.111,0,1.583,0.768,1.583,1.512    c0,0.959-0.696,1.734-1.791,2.79l-0.408,0.384v0.016h2.327v0.584H0.072z"/>
		<path d="M4.696,37.738c-0.272,0-0.463-0.216-0.463-0.504c0-0.287,0.2-0.504,0.479-0.504s0.472,0.208,0.472,0.504    c0,0.288-0.192,0.504-0.479,0.504H4.696z"/>
		<path d="M8.934,33.045H6.951l-0.2,1.335c0.12-0.016,0.232-0.031,0.424-0.031c0.408,0,0.799,0.088,1.119,0.279    c0.408,0.224,0.744,0.68,0.744,1.335c0,1.016-0.808,1.775-1.935,1.775c-0.568,0-1.04-0.16-1.295-0.319l0.176-0.536    c0.216,0.128,0.64,0.288,1.12,0.288c0.655,0,1.231-0.432,1.223-1.136c0-0.663-0.456-1.144-1.487-1.144    c-0.304,0-0.536,0.024-0.728,0.057l0.336-2.495h2.486V33.045z"/>
		<path d="M0.072,49.65v-0.432l0.552-0.536c1.327-1.263,1.935-1.935,1.935-2.718c0-0.528-0.248-1.016-1.023-1.016    c-0.472,0-0.863,0.239-1.103,0.439l-0.224-0.496c0.352-0.295,0.872-0.527,1.471-0.527c1.111,0,1.583,0.768,1.583,1.512    c0,0.959-0.696,1.734-1.791,2.79l-0.408,0.384v0.016h2.327v0.584H0.072z"/>
		<path d="M4.696,49.738c-0.272,0-0.463-0.216-0.463-0.504c0-0.287,0.2-0.504,0.479-0.504s0.472,0.208,0.472,0.504    c0,0.288-0.192,0.504-0.479,0.504H4.696z"/>
		<path d="M7.487,49.738c-1.016,0-1.711-0.951-1.728-2.671c0-1.751,0.76-2.702,1.815-2.702c1.087,0,1.719,0.976,1.719,2.631    c0,1.767-0.664,2.742-1.799,2.742H7.487z M7.527,49.194c0.712,0,1.056-0.839,1.056-2.167c0-1.279-0.32-2.118-1.056-2.118    c-0.64,0-1.055,0.815-1.055,2.118c-0.016,1.352,0.4,2.167,1.047,2.167H7.527z"/>
		<path d="M1.6,57.109H1.583L0.68,57.597l-0.136-0.536l1.135-0.607h0.6v5.197H1.6V57.109z"/>
		<path d="M4.696,61.738c-0.272,0-0.463-0.216-0.463-0.504c0-0.287,0.2-0.504,0.479-0.504s0.472,0.208,0.472,0.504    c0,0.288-0.192,0.504-0.479,0.504H4.696z"/>
		<path d="M8.934,57.045H6.951l-0.2,1.335c0.12-0.016,0.232-0.031,0.424-0.031c0.408,0,0.799,0.088,1.119,0.279    c0.408,0.224,0.744,0.68,0.744,1.335c0,1.016-0.808,1.775-1.935,1.775c-0.568,0-1.04-0.16-1.295-0.319l0.176-0.536    c0.216,0.128,0.64,0.288,1.12,0.288c0.655,0,1.231-0.432,1.223-1.136c0-0.663-0.456-1.144-1.487-1.144    c-0.304,0-0.536,0.024-0.728,0.057l0.336-2.495h2.486V57.045z"/>
		<path d="M1.6,69.109H1.583L0.68,69.597l-0.136-0.536l1.135-0.607h0.6v5.197H1.6V69.109z"/>
		<path d="M4.696,73.738c-0.272,0-0.463-0.216-0.463-0.504c0-0.287,0.2-0.504,0.479-0.504s0.472,0.208,0.472,0.504    c0,0.288-0.192,0.504-0.479,0.504H4.696z"/>
		<path d="M7.487,73.738c-1.016,0-1.711-0.951-1.728-2.671c0-1.751,0.76-2.702,1.815-2.702c1.087,0,1.719,0.976,1.719,2.631    c0,1.767-0.664,2.742-1.799,2.742H7.487z M7.527,73.194c0.712,0,1.056-0.839,1.056-2.167c0-1.279-0.32-2.118-1.056-2.118    c-0.64,0-1.055,0.815-1.055,2.118c-0.016,1.352,0.4,2.167,1.047,2.167H7.527z"/>
		<path d="M1.728,85.738c-1.016,0-1.711-0.951-1.728-2.671c0-1.751,0.76-2.702,1.815-2.702c1.087,0,1.719,0.976,1.719,2.631    c0,1.767-0.664,2.742-1.799,2.742H1.728z M1.767,85.194c0.712,0,1.056-0.839,1.056-2.167c0-1.279-0.32-2.118-1.056-2.118    c-0.64,0-1.055,0.815-1.055,2.118c-0.016,1.352,0.4,2.167,1.047,2.167H1.767z"/>
		<path d="M4.696,85.738c-0.272,0-0.463-0.216-0.463-0.504c0-0.287,0.2-0.504,0.479-0.504s0.472,0.208,0.472,0.504    c0,0.288-0.192,0.504-0.479,0.504H4.696z"/>
		<path d="M8.934,81.045H6.951l-0.2,1.335c0.12-0.016,0.232-0.031,0.424-0.031c0.408,0,0.799,0.088,1.119,0.279    c0.408,0.224,0.744,0.68,0.744,1.335c0,1.016-0.808,1.775-1.935,1.775c-0.568,0-1.04-0.16-1.295-0.319l0.176-0.536    c0.216,0.128,0.64,0.288,1.12,0.288c0.655,0,1.231-0.432,1.223-1.136c0-0.663-0.456-1.144-1.487-1.144    c-0.304,0-0.536,0.024-0.728,0.057l0.336-2.495h2.486V81.045z"/>
		<path d="M1.728,97.738c-1.016,0-1.711-0.951-1.728-2.671c0-1.751,0.76-2.702,1.815-2.702c1.087,0,1.719,0.976,1.719,2.631    c0,1.767-0.664,2.742-1.799,2.742H1.728z M1.767,97.194c0.712,0,1.056-0.839,1.056-2.167c0-1.279-0.32-2.118-1.056-2.118    c-0.64,0-1.055,0.815-1.055,2.118c-0.016,1.352,0.4,2.167,1.047,2.167H1.767z"/>
		<path d="M4.696,97.738c-0.272,0-0.463-0.216-0.463-0.504c0-0.287,0.2-0.504,0.479-0.504s0.472,0.208,0.472,0.504    c0,0.288-0.192,0.504-0.479,0.504H4.696z"/>
		<path d="M7.487,97.738c-1.016,0-1.711-0.951-1.728-2.671c0-1.751,0.76-2.702,1.815-2.702c1.087,0,1.719,0.976,1.719,2.631    c0,1.767-0.664,2.742-1.799,2.742H7.487z M7.527,97.194c0.712,0,1.056-0.839,1.056-2.167c0-1.279-0.32-2.118-1.056-2.118    c-0.64,0-1.055,0.815-1.055,2.118c-0.016,1.352,0.4,2.167,1.047,2.167H7.527z"/>
	</g>
	<g>
		<path d="M163.24,12.851c0.199,0.12,0.655,0.32,1.151,0.32c0.896,0,1.183-0.568,1.175-1.008c-0.008-0.728-0.663-1.039-1.343-1.039    h-0.392v-0.528h0.392c0.512,0,1.159-0.264,1.159-0.879c0-0.416-0.264-0.784-0.911-0.784c-0.416,0-0.815,0.185-1.04,0.344    l-0.191-0.512c0.279-0.199,0.808-0.399,1.367-0.399c1.023,0,1.487,0.607,1.487,1.239c0,0.544-0.328,1-0.96,1.231v0.016    c0.641,0.12,1.16,0.6,1.16,1.328c0,0.831-0.656,1.559-1.896,1.559c-0.583,0-1.095-0.184-1.351-0.352L163.24,12.851z"/>
		<path d="M167.695,13.738c-0.271,0-0.463-0.216-0.463-0.504c0-0.287,0.199-0.504,0.479-0.504s0.472,0.208,0.472,0.504    c0,0.288-0.191,0.504-0.479,0.504H167.695z"/>
		<path d="M171.933,9.045h-1.982l-0.199,1.335c0.119-0.016,0.231-0.031,0.424-0.031c0.407,0,0.799,0.088,1.119,0.279    c0.407,0.224,0.743,0.68,0.743,1.335c0,1.016-0.808,1.775-1.935,1.775c-0.568,0-1.039-0.16-1.295-0.319l0.176-0.536    c0.215,0.128,0.639,0.288,1.119,0.288c0.655,0,1.23-0.432,1.223-1.136c0-0.663-0.455-1.144-1.486-1.144    c-0.305,0-0.536,0.024-0.729,0.057l0.336-2.495h2.486V9.045z"/>
		<path d="M163.24,24.851c0.199,0.12,0.655,0.32,1.151,0.32c0.896,0,1.183-0.568,1.175-1.008c-0.008-0.728-0.663-1.039-1.343-1.039    h-0.392v-0.528h0.392c0.512,0,1.159-0.264,1.159-0.879c0-0.416-0.264-0.784-0.911-0.784c-0.416,0-0.815,0.185-1.04,0.344    l-0.191-0.512c0.279-0.199,0.808-0.399,1.367-0.399c1.023,0,1.487,0.607,1.487,1.239c0,0.544-0.328,1-0.96,1.231v0.016    c0.641,0.12,1.16,0.6,1.16,1.328c0,0.831-0.656,1.559-1.896,1.559c-0.583,0-1.095-0.184-1.351-0.352L163.24,24.851z"/>
		<path d="M167.695,25.738c-0.271,0-0.463-0.216-0.463-0.504c0-0.287,0.199-0.504,0.479-0.504s0.472,0.208,0.472,0.504    c0,0.288-0.191,0.504-0.479,0.504H167.695z"/>
		<path d="M170.487,25.738c-1.016,0-1.712-0.951-1.728-2.671c0-1.751,0.76-2.702,1.815-2.702c1.087,0,1.719,0.976,1.719,2.631    c0,1.767-0.663,2.742-1.799,2.742H170.487z M170.527,25.194c0.711,0,1.055-0.839,1.055-2.167c0-1.279-0.319-2.118-1.055-2.118    c-0.641,0-1.056,0.815-1.056,2.118c-0.017,1.352,0.399,2.167,1.048,2.167H170.527z"/>
		<path d="M163.072,37.65v-0.432l0.552-0.536c1.327-1.263,1.935-1.935,1.935-2.718c0-0.528-0.248-1.016-1.023-1.016    c-0.472,0-0.863,0.239-1.104,0.439l-0.224-0.496c0.353-0.295,0.872-0.527,1.472-0.527c1.111,0,1.583,0.768,1.583,1.512    c0,0.959-0.696,1.734-1.791,2.79l-0.408,0.384v0.016h2.327v0.584H163.072z"/>
		<path d="M167.695,37.738c-0.271,0-0.463-0.216-0.463-0.504c0-0.287,0.199-0.504,0.479-0.504s0.472,0.208,0.472,0.504    c0,0.288-0.191,0.504-0.479,0.504H167.695z"/>
		<path d="M171.933,33.045h-1.982l-0.199,1.335c0.119-0.016,0.231-0.031,0.424-0.031c0.407,0,0.799,0.088,1.119,0.279    c0.407,0.224,0.743,0.68,0.743,1.335c0,1.016-0.808,1.775-1.935,1.775c-0.568,0-1.039-0.16-1.295-0.319l0.176-0.536    c0.215,0.128,0.639,0.288,1.119,0.288c0.655,0,1.23-0.432,1.223-1.136c0-0.663-0.455-1.144-1.486-1.144    c-0.305,0-0.536,0.024-0.729,0.057l0.336-2.495h2.486V33.045z"/>
		<path d="M163.072,49.65v-0.432l0.552-0.536c1.327-1.263,1.935-1.935,1.935-2.718c0-0.528-0.248-1.016-1.023-1.016    c-0.472,0-0.863,0.239-1.104,0.439l-0.224-0.496c0.353-0.295,0.872-0.527,1.472-0.527c1.111,0,1.583,0.768,1.583,1.512    c0,0.959-0.696,1.734-1.791,2.79l-0.408,0.384v0.016h2.327v0.584H163.072z"/>
		<path d="M167.695,49.738c-0.271,0-0.463-0.216-0.463-0.504c0-0.287,0.199-0.504,0.479-0.504s0.472,0.208,0.472,0.504    c0,0.288-0.191,0.504-0.479,0.504H167.695z"/>
		<path d="M170.487,49.738c-1.016,0-1.712-0.951-1.728-2.671c0-1.751,0.76-2.702,1.815-2.702c1.087,0,1.719,0.976,1.719,2.631    c0,1.767-0.663,2.742-1.799,2.742H170.487z M170.527,49.194c0.711,0,1.055-0.839,1.055-2.167c0-1.279-0.319-2.118-1.055-2.118    c-0.641,0-1.056,0.815-1.056,2.118c-0.017,1.352,0.399,2.167,1.048,2.167H170.527z"/>
		<path d="M164.599,57.109h-0.016l-0.904,0.487l-0.136-0.536l1.136-0.607h0.6v5.197h-0.68V57.109z"/>
		<path d="M167.695,61.738c-0.271,0-0.463-0.216-0.463-0.504c0-0.287,0.199-0.504,0.479-0.504s0.472,0.208,0.472,0.504    c0,0.288-0.191,0.504-0.479,0.504H167.695z"/>
		<path d="M171.933,57.045h-1.982l-0.199,1.335c0.119-0.016,0.231-0.031,0.424-0.031c0.407,0,0.799,0.088,1.119,0.279    c0.407,0.224,0.743,0.68,0.743,1.335c0,1.016-0.808,1.775-1.935,1.775c-0.568,0-1.039-0.16-1.295-0.319l0.176-0.536    c0.215,0.128,0.639,0.288,1.119,0.288c0.655,0,1.23-0.432,1.223-1.136c0-0.663-0.455-1.144-1.486-1.144    c-0.305,0-0.536,0.024-0.729,0.057l0.336-2.495h2.486V57.045z"/>
		<path d="M164.599,69.109h-0.016l-0.904,0.487l-0.136-0.536l1.136-0.607h0.6v5.197h-0.68V69.109z"/>
		<path d="M167.695,73.738c-0.271,0-0.463-0.216-0.463-0.504c0-0.287,0.199-0.504,0.479-0.504s0.472,0.208,0.472,0.504    c0,0.288-0.191,0.504-0.479,0.504H167.695z"/>
		<path d="M170.487,73.738c-1.016,0-1.712-0.951-1.728-2.671c0-1.751,0.76-2.702,1.815-2.702c1.087,0,1.719,0.976,1.719,2.631    c0,1.767-0.663,2.742-1.799,2.742H170.487z M170.527,73.194c0.711,0,1.055-0.839,1.055-2.167c0-1.279-0.319-2.118-1.055-2.118    c-0.641,0-1.056,0.815-1.056,2.118c-0.017,1.352,0.399,2.167,1.048,2.167H170.527z"/>
		<path d="M164.727,85.738c-1.016,0-1.712-0.951-1.728-2.671c0-1.751,0.76-2.702,1.815-2.702c1.087,0,1.719,0.976,1.719,2.631    c0,1.767-0.663,2.742-1.799,2.742H164.727z M164.767,85.194c0.711,0,1.055-0.839,1.055-2.167c0-1.279-0.319-2.118-1.055-2.118    c-0.641,0-1.056,0.815-1.056,2.118c-0.017,1.352,0.399,2.167,1.048,2.167H164.767z"/>
		<path d="M167.695,85.738c-0.271,0-0.463-0.216-0.463-0.504c0-0.287,0.199-0.504,0.479-0.504s0.472,0.208,0.472,0.504    c0,0.288-0.191,0.504-0.479,0.504H167.695z"/>
		<path d="M171.933,81.045h-1.982l-0.199,1.335c0.119-0.016,0.231-0.031,0.424-0.031c0.407,0,0.799,0.088,1.119,0.279    c0.407,0.224,0.743,0.68,0.743,1.335c0,1.016-0.808,1.775-1.935,1.775c-0.568,0-1.039-0.16-1.295-0.319l0.176-0.536    c0.215,0.128,0.639,0.288,1.119,0.288c0.655,0,1.23-0.432,1.223-1.136c0-0.663-0.455-1.144-1.486-1.144    c-0.305,0-0.536,0.024-0.729,0.057l0.336-2.495h2.486V81.045z"/>
		<path d="M164.727,97.738c-1.016,0-1.712-0.951-1.728-2.671c0-1.751,0.76-2.702,1.815-2.702c1.087,0,1.719,0.976,1.719,2.631    c0,1.767-0.663,2.742-1.799,2.742H164.727z M164.767,97.194c0.711,0,1.055-0.839,1.055-2.167c0-1.279-0.319-2.118-1.055-2.118    c-0.641,0-1.056,0.815-1.056,2.118c-0.017,1.352,0.399,2.167,1.048,2.167H164.767z"/>
		<path d="M167.695,97.738c-0.271,0-0.463-0.216-0.463-0.504c0-0.287,0.199-0.504,0.479-0.504s0.472,0.208,0.472,0.504    c0,0.288-0.191,0.504-0.479,0.504H167.695z"/>
		<path d="M170.487,97.738c-1.016,0-1.712-0.951-1.728-2.671c0-1.751,0.76-2.702,1.815-2.702c1.087,0,1.719,0.976,1.719,2.631    c0,1.767-0.663,2.742-1.799,2.742H170.487z M170.527,97.194c0.711,0,1.055-0.839,1.055-2.167c0-1.279-0.319-2.118-1.055-2.118    c-0.641,0-1.056,0.815-1.056,2.118c-0.017,1.352,0.399,2.167,1.048,2.167H170.527z"/>
	</g>
	<g>
		<path d="M22.951,99.825c0.352-0.072,0.863-0.12,1.335-0.12c0.744,0,1.231,0.144,1.567,0.447c0.264,0.232,0.424,0.6,0.424,1.023    c0,0.704-0.456,1.176-1.016,1.367v0.024c0.408,0.144,0.656,0.527,0.792,1.087c0.176,0.752,0.304,1.271,0.408,1.479h-0.72    c-0.088-0.16-0.208-0.615-0.352-1.287c-0.16-0.744-0.456-1.023-1.087-1.048h-0.656v2.335h-0.695V99.825z M23.646,102.271h0.712    c0.743,0,1.215-0.408,1.215-1.023c0-0.695-0.503-1-1.239-1c-0.335,0-0.567,0.032-0.688,0.064V102.271z"/>
		<path d="M27.662,103.327c0.016,0.943,0.616,1.335,1.319,1.335c0.504,0,0.815-0.088,1.071-0.2l0.128,0.504    c-0.248,0.112-0.68,0.248-1.295,0.248c-1.183,0-1.903-0.792-1.903-1.951c0-1.167,0.696-2.087,1.823-2.087    c1.263,0,1.591,1.111,1.591,1.823c0,0.144-0.008,0.248-0.024,0.328H27.662z M29.717,102.823c0.008-0.448-0.184-1.144-0.968-1.144    c-0.72,0-1.023,0.655-1.079,1.144H29.717z"/>
		<path d="M31.27,102.527c0-0.496-0.008-0.896-0.032-1.264h0.631l0.04,0.664h0.016c0.28-0.479,0.744-0.752,1.367-0.752    c0.944,0,1.647,0.792,1.647,1.967c0,1.392-0.855,2.079-1.759,2.079c-0.52,0-0.959-0.224-1.191-0.607h-0.016v2.103H31.27V102.527z     M31.974,103.558c0,0.096,0.008,0.2,0.032,0.288c0.12,0.487,0.552,0.823,1.047,0.823c0.744,0,1.175-0.607,1.175-1.495    c0-0.775-0.4-1.439-1.143-1.439c-0.48,0-0.936,0.336-1.072,0.872c-0.016,0.088-0.04,0.191-0.04,0.279V103.558z"/>
		<path d="M39.061,104.07c0,0.408,0.008,0.76,0.032,1.063h-0.624l-0.04-0.632h-0.016c-0.176,0.312-0.592,0.72-1.279,0.72    c-0.608,0-1.335-0.344-1.335-1.695v-2.263h0.704v2.135c0,0.736,0.232,1.239,0.864,1.239c0.472,0,0.799-0.327,0.927-0.647    c0.04-0.096,0.064-0.224,0.064-0.359v-2.367h0.704V104.07z"/>
		<path d="M40.23,99.457h0.704v2.423h0.016c0.248-0.432,0.696-0.704,1.319-0.704c0.959,0,1.631,0.8,1.631,1.967    c0,1.392-0.879,2.079-1.743,2.079c-0.56,0-1-0.216-1.295-0.728h-0.016l-0.04,0.64h-0.607c0.024-0.264,0.032-0.655,0.032-0.999    V99.457z M40.934,103.583c0,0.088,0.008,0.176,0.024,0.256c0.136,0.487,0.552,0.823,1.056,0.823c0.744,0,1.175-0.6,1.175-1.487    c0-0.783-0.4-1.447-1.151-1.447c-0.479,0-0.927,0.336-1.063,0.863c-0.024,0.088-0.04,0.185-0.04,0.296V103.583z"/>
		<path d="M44.782,99.457h0.704v5.677h-0.704V99.457z"/>
		<path d="M47.006,100.608c-0.256,0-0.424-0.2-0.424-0.432c0-0.248,0.176-0.44,0.44-0.44c0.256,0,0.432,0.192,0.432,0.44    c0,0.231-0.168,0.432-0.439,0.432H47.006z M46.67,105.133v-3.87h0.704v3.87H46.67z"/>
		<path d="M51.301,104.99c-0.184,0.088-0.592,0.224-1.111,0.224c-1.167,0-1.927-0.792-1.927-1.975c0-1.191,0.815-2.063,2.079-2.063    c0.416,0,0.783,0.104,0.976,0.208l-0.16,0.536c-0.168-0.088-0.432-0.185-0.815-0.185c-0.888,0-1.367,0.664-1.367,1.464    c0,0.896,0.576,1.447,1.343,1.447c0.399,0,0.664-0.097,0.863-0.185L51.301,104.99z"/>
		<path d="M54.853,104.206c0,0.336,0.016,0.664,0.056,0.928h-0.632l-0.064-0.487h-0.024c-0.208,0.304-0.632,0.575-1.183,0.575    c-0.784,0-1.184-0.552-1.184-1.111c0-0.936,0.832-1.447,2.327-1.439v-0.08c0-0.319-0.088-0.903-0.879-0.896    c-0.368,0-0.744,0.104-1.016,0.288l-0.16-0.472c0.32-0.2,0.792-0.336,1.279-0.336c1.191,0,1.479,0.808,1.479,1.583V104.206z     M54.165,103.159c-0.768-0.017-1.639,0.119-1.639,0.871c0,0.464,0.304,0.672,0.656,0.672c0.512,0,0.839-0.32,0.952-0.647    c0.024-0.072,0.032-0.152,0.032-0.225V103.159z"/>
		<path d="M55.981,102.311c0-0.408-0.008-0.728-0.032-1.048h0.624l0.04,0.632h0.016c0.192-0.359,0.64-0.72,1.279-0.72    c0.536,0,1.367,0.32,1.367,1.647v2.311h-0.704v-2.23c0-0.624-0.232-1.151-0.896-1.151c-0.456,0-0.815,0.327-0.943,0.72    c-0.032,0.088-0.048,0.216-0.048,0.327v2.335h-0.704V102.311z"/>
		<path d="M60.326,104.414c0.216,0.128,0.583,0.272,0.936,0.272c0.503,0,0.744-0.248,0.744-0.576c0-0.336-0.2-0.512-0.712-0.703    c-0.704-0.256-1.031-0.641-1.031-1.096c0-0.624,0.512-1.136,1.335-1.136c0.392,0,0.736,0.104,0.944,0.24l-0.168,0.504    c-0.152-0.088-0.432-0.225-0.792-0.225c-0.416,0-0.64,0.24-0.64,0.528c0,0.319,0.224,0.464,0.728,0.663    c0.664,0.248,1.016,0.584,1.016,1.159c0,0.688-0.536,1.168-1.439,1.168c-0.424,0-0.815-0.112-1.087-0.271L60.326,104.414z"/>
	</g>
	<g>
		<path d="M92.058,99.816c0.432-0.063,0.936-0.111,1.487-0.111c1,0,1.711,0.231,2.183,0.671c0.488,0.44,0.768,1.063,0.768,1.936    c0,0.879-0.28,1.599-0.775,2.095c-0.512,0.504-1.343,0.775-2.391,0.775c-0.504,0-0.912-0.016-1.271-0.063V99.816z M92.761,104.589    c0.176,0.032,0.432,0.032,0.704,0.032c1.487,0.008,2.295-0.832,2.295-2.287c0.008-1.271-0.712-2.078-2.183-2.078    c-0.359,0-0.631,0.031-0.815,0.071V104.589z"/>
		<path d="M97.801,103.327c0.016,0.943,0.616,1.335,1.319,1.335c0.504,0,0.815-0.088,1.071-0.2l0.128,0.504    c-0.248,0.112-0.68,0.248-1.295,0.248c-1.184,0-1.903-0.792-1.903-1.951c0-1.167,0.696-2.087,1.823-2.087    c1.263,0,1.591,1.111,1.591,1.823c0,0.144-0.008,0.248-0.024,0.328H97.801z M99.856,102.823c0.008-0.448-0.184-1.144-0.967-1.144    c-0.72,0-1.023,0.655-1.08,1.144H99.856z"/>
		<path d="M101.409,102.311c0-0.408-0.016-0.728-0.032-1.048h0.616l0.032,0.624h0.024c0.216-0.368,0.576-0.712,1.224-0.712    c0.52,0,0.919,0.32,1.087,0.775h0.016c0.12-0.224,0.28-0.384,0.44-0.503c0.232-0.177,0.48-0.272,0.848-0.272    c0.52,0,1.279,0.336,1.279,1.68v2.278h-0.688v-2.19c0-0.752-0.28-1.191-0.84-1.191c-0.408,0-0.711,0.296-0.839,0.632    c-0.032,0.104-0.056,0.231-0.056,0.352v2.398h-0.688v-2.327c0-0.615-0.272-1.055-0.808-1.055c-0.432,0-0.759,0.352-0.872,0.703    c-0.04,0.104-0.056,0.224-0.056,0.344v2.335h-0.688V102.311z"/>
		<path d="M109.656,105.221c-1.04,0-1.855-0.768-1.855-1.991c0-1.295,0.855-2.055,1.919-2.055c1.111,0,1.863,0.808,1.863,1.983    c0,1.438-1,2.062-1.919,2.062H109.656z M109.688,104.694c0.671,0,1.175-0.632,1.175-1.512c0-0.655-0.328-1.479-1.159-1.479    c-0.824,0-1.184,0.768-1.184,1.503c0,0.848,0.479,1.487,1.159,1.487H109.688z"/>
		<path d="M115.232,104.99c-0.184,0.088-0.592,0.224-1.111,0.224c-1.167,0-1.927-0.792-1.927-1.975c0-1.191,0.816-2.063,2.079-2.063    c0.416,0,0.784,0.104,0.975,0.208l-0.16,0.536c-0.168-0.088-0.432-0.185-0.815-0.185c-0.888,0-1.367,0.664-1.367,1.464    c0,0.896,0.576,1.447,1.343,1.447c0.399,0,0.664-0.097,0.863-0.185L115.232,104.99z"/>
		<path d="M116.057,102.471c0-0.456-0.008-0.848-0.032-1.208h0.616l0.032,0.76h0.024c0.176-0.52,0.608-0.848,1.08-0.848    c0.072,0,0.128,0.008,0.192,0.017v0.663c-0.072-0.008-0.144-0.016-0.24-0.016c-0.496,0-0.848,0.376-0.944,0.896    c-0.016,0.104-0.024,0.216-0.024,0.327v2.071h-0.704V102.471z"/>
		<path d="M121.36,104.206c0,0.336,0.016,0.664,0.056,0.928h-0.632l-0.064-0.487h-0.024c-0.208,0.304-0.631,0.575-1.183,0.575    c-0.784,0-1.184-0.552-1.184-1.111c0-0.936,0.832-1.447,2.327-1.439v-0.08c0-0.319-0.088-0.903-0.879-0.896    c-0.368,0-0.744,0.104-1.016,0.288l-0.16-0.472c0.32-0.2,0.792-0.336,1.279-0.336c1.191,0,1.479,0.808,1.479,1.583V104.206z     M120.672,103.159c-0.768-0.017-1.639,0.119-1.639,0.871c0,0.464,0.304,0.672,0.656,0.672c0.512,0,0.839-0.32,0.951-0.647    c0.024-0.072,0.032-0.152,0.032-0.225V103.159z"/>
		<path d="M123.305,100.336v0.927h1.007v0.536h-1.007v2.079c0,0.479,0.136,0.751,0.528,0.751c0.192,0,0.304-0.016,0.408-0.048    l0.032,0.536c-0.136,0.048-0.352,0.096-0.624,0.096c-0.328,0-0.591-0.112-0.759-0.296c-0.192-0.216-0.272-0.56-0.272-1.016v-2.103    h-0.6v-0.536h0.6v-0.711L123.305,100.336z"/>
		<path d="M125.01,104.414c0.216,0.128,0.583,0.272,0.936,0.272c0.503,0,0.744-0.248,0.744-0.576c0-0.336-0.2-0.512-0.712-0.703    c-0.704-0.256-1.031-0.641-1.031-1.096c0-0.624,0.512-1.136,1.335-1.136c0.392,0,0.736,0.104,0.944,0.24l-0.168,0.504    c-0.152-0.088-0.432-0.225-0.792-0.225c-0.416,0-0.64,0.24-0.64,0.528c0,0.319,0.224,0.464,0.728,0.663    c0.664,0.248,1.016,0.584,1.016,1.159c0,0.688-0.536,1.168-1.439,1.168c-0.424,0-0.815-0.112-1.087-0.271L125.01,104.414z"/>
	</g>
	<g>
		<path d="M186.723,99.825c0.352-0.072,0.863-0.12,1.335-0.12c0.744,0,1.231,0.144,1.567,0.447c0.264,0.232,0.424,0.6,0.424,1.023    c0,0.704-0.456,1.176-1.016,1.367v0.024c0.407,0.144,0.655,0.527,0.792,1.087c0.176,0.752,0.303,1.271,0.407,1.479h-0.72    c-0.088-0.16-0.207-0.615-0.352-1.287c-0.16-0.744-0.456-1.023-1.088-1.048h-0.655v2.335h-0.695V99.825z M187.418,102.271h0.712    c0.743,0,1.215-0.408,1.215-1.023c0-0.695-0.504-1-1.239-1c-0.335,0-0.567,0.032-0.688,0.064V102.271z"/>
		<path d="M191.435,103.327c0.016,0.943,0.615,1.335,1.318,1.335c0.504,0,0.816-0.088,1.072-0.2l0.127,0.504    c-0.247,0.112-0.68,0.248-1.295,0.248c-1.184,0-1.902-0.792-1.902-1.951c0-1.167,0.695-2.087,1.822-2.087    c1.264,0,1.592,1.111,1.592,1.823c0,0.144-0.008,0.248-0.024,0.328H191.435z M193.49,102.823c0.008-0.448-0.184-1.144-0.968-1.144    c-0.72,0-1.023,0.655-1.079,1.144H193.49z"/>
		<path d="M195.042,102.527c0-0.496-0.008-0.896-0.031-1.264h0.631l0.04,0.664h0.017c0.279-0.479,0.743-0.752,1.367-0.752    c0.943,0,1.646,0.792,1.646,1.967c0,1.392-0.855,2.079-1.759,2.079c-0.52,0-0.96-0.224-1.191-0.607h-0.017v2.103h-0.703V102.527z     M195.746,103.558c0,0.096,0.009,0.2,0.033,0.288c0.119,0.487,0.551,0.823,1.047,0.823c0.744,0,1.176-0.607,1.176-1.495    c0-0.775-0.4-1.439-1.144-1.439c-0.479,0-0.936,0.336-1.071,0.872c-0.017,0.088-0.041,0.191-0.041,0.279V103.558z"/>
		<path d="M202.833,104.07c0,0.408,0.008,0.76,0.031,1.063h-0.623l-0.04-0.632h-0.017c-0.176,0.312-0.592,0.72-1.279,0.72    c-0.607,0-1.335-0.344-1.335-1.695v-2.263h0.704v2.135c0,0.736,0.231,1.239,0.863,1.239c0.472,0,0.799-0.327,0.928-0.647    c0.039-0.096,0.063-0.224,0.063-0.359v-2.367h0.704V104.07z"/>
		<path d="M204.002,99.457h0.704v2.423h0.016c0.248-0.432,0.695-0.704,1.319-0.704c0.96,0,1.631,0.8,1.631,1.967    c0,1.392-0.88,2.079-1.743,2.079c-0.56,0-0.999-0.216-1.295-0.728h-0.016l-0.041,0.64h-0.607c0.024-0.264,0.032-0.655,0.032-0.999    V99.457z M204.707,103.583c0,0.088,0.008,0.176,0.023,0.256c0.137,0.487,0.552,0.823,1.056,0.823c0.743,0,1.175-0.6,1.175-1.487    c0-0.783-0.399-1.447-1.15-1.447c-0.48,0-0.928,0.336-1.064,0.863c-0.023,0.088-0.039,0.185-0.039,0.296V103.583z"/>
		<path d="M208.554,99.457h0.703v5.677h-0.703V99.457z"/>
		<path d="M210.779,100.608c-0.256,0-0.424-0.2-0.424-0.432c0-0.248,0.176-0.44,0.439-0.44c0.256,0,0.432,0.192,0.432,0.44    c0,0.231-0.168,0.432-0.439,0.432H210.779z M210.443,105.133v-3.87h0.703v3.87H210.443z"/>
		<path d="M215.074,104.99c-0.185,0.088-0.592,0.224-1.111,0.224c-1.168,0-1.928-0.792-1.928-1.975c0-1.191,0.815-2.063,2.079-2.063    c0.415,0,0.783,0.104,0.976,0.208l-0.16,0.536c-0.168-0.088-0.432-0.185-0.815-0.185c-0.888,0-1.367,0.664-1.367,1.464    c0,0.896,0.575,1.447,1.343,1.447c0.4,0,0.664-0.097,0.863-0.185L215.074,104.99z"/>
		<path d="M218.625,104.206c0,0.336,0.017,0.664,0.057,0.928h-0.632l-0.063-0.487h-0.024c-0.208,0.304-0.632,0.575-1.183,0.575    c-0.784,0-1.184-0.552-1.184-1.111c0-0.936,0.831-1.447,2.326-1.439v-0.08c0-0.319-0.088-0.903-0.879-0.896    c-0.368,0-0.744,0.104-1.016,0.288l-0.16-0.472c0.32-0.2,0.791-0.336,1.279-0.336c1.191,0,1.479,0.808,1.479,1.583V104.206z     M217.937,103.159c-0.768-0.017-1.639,0.119-1.639,0.871c0,0.464,0.304,0.672,0.656,0.672c0.512,0,0.839-0.32,0.951-0.647    c0.023-0.072,0.031-0.152,0.031-0.225V103.159z"/>
		<path d="M219.753,102.311c0-0.408-0.008-0.728-0.031-1.048h0.623l0.041,0.632h0.016c0.191-0.359,0.64-0.72,1.279-0.72    c0.535,0,1.367,0.32,1.367,1.647v2.311h-0.703v-2.23c0-0.624-0.232-1.151-0.896-1.151c-0.455,0-0.814,0.327-0.943,0.72    c-0.031,0.088-0.048,0.216-0.048,0.327v2.335h-0.704V102.311z"/>
		<path d="M224.099,104.414c0.215,0.128,0.583,0.272,0.936,0.272c0.503,0,0.743-0.248,0.743-0.576c0-0.336-0.2-0.512-0.712-0.703    c-0.703-0.256-1.031-0.641-1.031-1.096c0-0.624,0.512-1.136,1.335-1.136c0.392,0,0.735,0.104,0.944,0.24l-0.168,0.504    c-0.152-0.088-0.432-0.225-0.792-0.225c-0.416,0-0.64,0.24-0.64,0.528c0,0.319,0.224,0.464,0.728,0.663    c0.663,0.248,1.016,0.584,1.016,1.159c0,0.688-0.536,1.168-1.439,1.168c-0.424,0-0.815-0.112-1.087-0.271L224.099,104.414z"/>
	</g>
	<g>
		<path d="M255.83,99.816c0.432-0.063,0.936-0.111,1.488-0.111c0.999,0,1.711,0.231,2.182,0.671c0.488,0.44,0.768,1.063,0.768,1.936    c0,0.879-0.279,1.599-0.775,2.095c-0.512,0.504-1.343,0.775-2.391,0.775c-0.504,0-0.911-0.016-1.271-0.063V99.816z     M256.534,104.589c0.176,0.032,0.432,0.032,0.704,0.032c1.486,0.008,2.295-0.832,2.295-2.287c0.008-1.271-0.713-2.078-2.184-2.078    c-0.359,0-0.631,0.031-0.815,0.071V104.589z"/>
		<path d="M261.574,103.327c0.016,0.943,0.615,1.335,1.319,1.335c0.504,0,0.815-0.088,1.071-0.2l0.128,0.504    c-0.247,0.112-0.68,0.248-1.295,0.248c-1.184,0-1.903-0.792-1.903-1.951c0-1.167,0.695-2.087,1.823-2.087    c1.263,0,1.591,1.111,1.591,1.823c0,0.144-0.008,0.248-0.023,0.328H261.574z M263.628,102.823    c0.008-0.448-0.184-1.144-0.967-1.144c-0.721,0-1.023,0.655-1.08,1.144H263.628z"/>
		<path d="M265.181,102.311c0-0.408-0.016-0.728-0.031-1.048h0.615l0.032,0.624h0.024c0.216-0.368,0.575-0.712,1.223-0.712    c0.52,0,0.92,0.32,1.088,0.775h0.016c0.12-0.224,0.28-0.384,0.439-0.503c0.232-0.177,0.48-0.272,0.848-0.272    c0.52,0,1.279,0.336,1.279,1.68v2.278h-0.688v-2.19c0-0.752-0.279-1.191-0.84-1.191c-0.407,0-0.711,0.296-0.839,0.632    c-0.032,0.104-0.056,0.231-0.056,0.352v2.398h-0.688v-2.327c0-0.615-0.272-1.055-0.809-1.055c-0.432,0-0.759,0.352-0.871,0.703    c-0.04,0.104-0.056,0.224-0.056,0.344v2.335h-0.688V102.311z"/>
		<path d="M273.429,105.221c-1.04,0-1.855-0.768-1.855-1.991c0-1.295,0.855-2.055,1.919-2.055c1.111,0,1.863,0.808,1.863,1.983    c0,1.438-0.999,2.062-1.919,2.062H273.429z M273.46,104.694c0.672,0,1.176-0.632,1.176-1.512c0-0.655-0.328-1.479-1.159-1.479    c-0.823,0-1.184,0.768-1.184,1.503c0,0.848,0.479,1.487,1.159,1.487H273.46z"/>
		<path d="M279.004,104.99c-0.185,0.088-0.592,0.224-1.111,0.224c-1.167,0-1.927-0.792-1.927-1.975c0-1.191,0.815-2.063,2.078-2.063    c0.416,0,0.784,0.104,0.976,0.208l-0.159,0.536c-0.168-0.088-0.432-0.185-0.816-0.185c-0.887,0-1.367,0.664-1.367,1.464    c0,0.896,0.576,1.447,1.344,1.447c0.399,0,0.664-0.097,0.863-0.185L279.004,104.99z"/>
		<path d="M279.83,102.471c0-0.456-0.008-0.848-0.031-1.208h0.615l0.031,0.76h0.024c0.177-0.52,0.608-0.848,1.079-0.848    c0.072,0,0.129,0.008,0.192,0.017v0.663c-0.071-0.008-0.144-0.016-0.239-0.016c-0.496,0-0.848,0.376-0.944,0.896    c-0.016,0.104-0.024,0.216-0.024,0.327v2.071h-0.703V102.471z"/>
		<path d="M285.132,104.206c0,0.336,0.016,0.664,0.057,0.928h-0.633l-0.063-0.487h-0.024c-0.207,0.304-0.631,0.575-1.183,0.575    c-0.784,0-1.184-0.552-1.184-1.111c0-0.936,0.831-1.447,2.327-1.439v-0.08c0-0.319-0.088-0.903-0.88-0.896    c-0.368,0-0.743,0.104-1.016,0.288l-0.159-0.472c0.319-0.2,0.791-0.336,1.279-0.336c1.191,0,1.479,0.808,1.479,1.583V104.206z     M284.445,103.159c-0.768-0.017-1.639,0.119-1.639,0.871c0,0.464,0.303,0.672,0.655,0.672c0.512,0,0.839-0.32,0.951-0.647    c0.024-0.072,0.032-0.152,0.032-0.225V103.159z"/>
		<path d="M287.078,100.336v0.927h1.007v0.536h-1.007v2.079c0,0.479,0.136,0.751,0.527,0.751c0.191,0,0.304-0.016,0.408-0.048    l0.031,0.536c-0.136,0.048-0.352,0.096-0.623,0.096c-0.328,0-0.592-0.112-0.76-0.296c-0.191-0.216-0.271-0.56-0.271-1.016v-2.103    h-0.6v-0.536h0.6v-0.711L287.078,100.336z"/>
		<path d="M288.783,104.414c0.215,0.128,0.583,0.272,0.936,0.272c0.503,0,0.743-0.248,0.743-0.576c0-0.336-0.2-0.512-0.712-0.703    c-0.703-0.256-1.031-0.641-1.031-1.096c0-0.624,0.512-1.136,1.335-1.136c0.392,0,0.735,0.104,0.944,0.24l-0.168,0.504    c-0.152-0.088-0.432-0.225-0.792-0.225c-0.416,0-0.64,0.24-0.64,0.528c0,0.319,0.224,0.464,0.728,0.663    c0.663,0.248,1.016,0.584,1.016,1.159c0,0.688-0.536,1.168-1.439,1.168c-0.424,0-0.815-0.112-1.087-0.271L288.783,104.414z"/>
	</g>
	
		<rect x="14.374" y="126.318" fill="#D1D3D4" stroke="#000000" stroke-width="0.5" stroke-linejoin="round" stroke-miterlimit="10" width="6" height="5.999"/>
	<g>
		<path d="M25.119,115.769v3.198c0,1.2,0.536,1.711,1.255,1.711c0.792,0,1.311-0.528,1.311-1.711v-3.198h0.704v3.15    c0,1.655-0.872,2.327-2.039,2.327c-1.104,0-1.935-0.624-1.935-2.303v-3.174H25.119z"/>
		<path d="M29.511,120.31c0.312,0.192,0.76,0.344,1.24,0.344c0.711,0,1.127-0.368,1.127-0.911c0-0.504-0.288-0.8-1.015-1.072    c-0.879-0.304-1.423-0.768-1.423-1.519c0-0.839,0.696-1.463,1.743-1.463c0.543,0,0.951,0.128,1.183,0.256l-0.192,0.575    c-0.168-0.104-0.527-0.256-1.015-0.256c-0.736,0-1.016,0.44-1.016,0.808c0,0.496,0.328,0.744,1.071,1.032    c0.912,0.36,1.367,0.792,1.367,1.583c0,0.824-0.607,1.551-1.879,1.551c-0.52,0-1.087-0.16-1.375-0.352L29.511,120.31z"/>
		<path d="M35.215,115.481h0.704v5.677h-0.704V115.481z"/>
		<path d="M38.678,121.246c-1.04,0-1.855-0.768-1.855-1.991c0-1.295,0.855-2.055,1.919-2.055c1.111,0,1.863,0.808,1.863,1.983    c0,1.439-1,2.063-1.919,2.063H38.678z M38.71,120.718c0.671,0,1.175-0.631,1.175-1.511c0-0.655-0.328-1.479-1.159-1.479    c-0.824,0-1.184,0.768-1.184,1.503c0,0.847,0.479,1.487,1.159,1.487H38.71z"/>
		<path d="M41.399,120.438c0.216,0.128,0.583,0.272,0.936,0.272c0.503,0,0.744-0.248,0.744-0.576c0-0.336-0.2-0.512-0.712-0.704    c-0.704-0.256-1.031-0.64-1.031-1.095c0-0.624,0.512-1.136,1.335-1.136c0.392,0,0.735,0.104,0.943,0.24l-0.168,0.503    c-0.152-0.088-0.432-0.224-0.792-0.224c-0.416,0-0.64,0.24-0.64,0.528c0,0.319,0.224,0.463,0.728,0.664    c0.664,0.248,1.015,0.583,1.015,1.159c0,0.688-0.536,1.167-1.439,1.167c-0.424,0-0.815-0.112-1.087-0.272L41.399,120.438z"/>
		<path d="M45.062,119.351c0.016,0.944,0.616,1.335,1.319,1.335c0.504,0,0.815-0.088,1.071-0.2l0.128,0.504    c-0.248,0.112-0.68,0.248-1.295,0.248c-1.183,0-1.903-0.792-1.903-1.951c0-1.167,0.696-2.087,1.823-2.087    c1.263,0,1.591,1.111,1.591,1.823c0,0.144-0.008,0.248-0.024,0.328H45.062z M47.118,118.847c0.008-0.448-0.184-1.144-0.968-1.144    c-0.72,0-1.023,0.656-1.079,1.144H47.118z"/>
		<path d="M48.575,120.438c0.216,0.128,0.583,0.272,0.936,0.272c0.503,0,0.744-0.248,0.744-0.576c0-0.336-0.2-0.512-0.712-0.704    c-0.704-0.256-1.031-0.64-1.031-1.095c0-0.624,0.512-1.136,1.335-1.136c0.392,0,0.735,0.104,0.943,0.24l-0.168,0.503    c-0.152-0.088-0.432-0.224-0.792-0.224c-0.416,0-0.64,0.24-0.64,0.528c0,0.319,0.224,0.463,0.728,0.664    c0.664,0.248,1.015,0.583,1.015,1.159c0,0.688-0.536,1.167-1.439,1.167c-0.424,0-0.815-0.112-1.087-0.272L48.575,120.438z"/>
		<path d="M51.247,121.478l2.223-5.797h0.552l-2.239,5.797H51.247z"/>
		<path d="M55.43,116.36v0.927h1.007v0.536H55.43v2.079c0,0.48,0.136,0.751,0.528,0.751c0.192,0,0.304-0.016,0.408-0.048    l0.032,0.536c-0.136,0.048-0.352,0.096-0.624,0.096c-0.328,0-0.592-0.112-0.759-0.296c-0.192-0.216-0.272-0.56-0.272-1.016v-2.103    h-0.6v-0.536h0.6v-0.711L55.43,116.36z"/>
		<path d="M57.23,118.495c0-0.456-0.008-0.848-0.032-1.208h0.616l0.032,0.76h0.024c0.176-0.52,0.608-0.848,1.08-0.848    c0.072,0,0.128,0.008,0.191,0.016v0.664c-0.071-0.008-0.144-0.016-0.239-0.016c-0.496,0-0.848,0.375-0.943,0.896    c-0.016,0.104-0.024,0.216-0.024,0.328v2.071H57.23V118.495z"/>
		<path d="M62.574,120.23c0,0.336,0.016,0.664,0.056,0.928h-0.632l-0.063-0.488H61.91c-0.208,0.304-0.632,0.576-1.184,0.576    c-0.783,0-1.183-0.552-1.183-1.111c0-0.936,0.831-1.447,2.326-1.439v-0.08c0-0.32-0.088-0.904-0.879-0.896    c-0.368,0-0.744,0.104-1.016,0.288l-0.16-0.472c0.319-0.2,0.791-0.336,1.279-0.336c1.191,0,1.479,0.808,1.479,1.583V120.23z     M61.885,119.183c-0.768-0.016-1.639,0.12-1.639,0.872c0,0.464,0.304,0.672,0.655,0.672c0.512,0,0.84-0.32,0.952-0.648    c0.023-0.072,0.031-0.152,0.031-0.224V119.183z"/>
		<path d="M67.044,115.481v4.677c0,0.344,0.008,0.736,0.032,1h-0.632l-0.032-0.672h-0.016c-0.216,0.432-0.68,0.76-1.312,0.76    c-0.936,0-1.663-0.792-1.663-1.967c-0.008-1.295,0.8-2.079,1.735-2.079c0.6,0,0.999,0.28,1.167,0.584h0.017v-2.303H67.044z     M66.341,118.863c0-0.096-0.009-0.208-0.032-0.304c-0.104-0.439-0.488-0.808-1.016-0.808c-0.728,0-1.159,0.64-1.159,1.487    c0,0.792,0.392,1.439,1.144,1.439c0.472,0,0.903-0.32,1.031-0.848c0.023-0.088,0.032-0.184,0.032-0.296V118.863z"/>
		<path d="M68.55,116.632c-0.256,0-0.424-0.2-0.424-0.432c0-0.248,0.176-0.44,0.439-0.44c0.256,0,0.432,0.192,0.432,0.44    c0,0.231-0.168,0.432-0.439,0.432H68.55z M68.214,121.158v-3.87h0.703v3.87H68.214z"/>
		<path d="M70.086,118.335c0-0.408-0.008-0.728-0.032-1.048h0.624l0.039,0.632h0.017c0.191-0.36,0.64-0.72,1.279-0.72    c0.535,0,1.367,0.32,1.367,1.647v2.311h-0.704v-2.231c0-0.624-0.231-1.151-0.896-1.151c-0.455,0-0.815,0.328-0.943,0.72    c-0.031,0.088-0.048,0.216-0.048,0.328v2.335h-0.703V118.335z"/>
		<path d="M77.836,120.59c0,0.896-0.184,1.431-0.552,1.775c-0.384,0.344-0.927,0.463-1.415,0.463c-0.464,0-0.976-0.112-1.287-0.32    l0.176-0.543c0.256,0.168,0.656,0.312,1.136,0.312c0.72,0,1.247-0.375,1.247-1.359v-0.424h-0.016    c-0.208,0.36-0.632,0.647-1.231,0.647c-0.96,0-1.647-0.815-1.647-1.895c0-1.311,0.855-2.047,1.751-2.047    c0.672,0,1.031,0.344,1.208,0.672h0.016l0.023-0.584h0.624c-0.024,0.272-0.032,0.592-0.032,1.056V120.59z M77.133,118.807    c0-0.112-0.008-0.216-0.04-0.312c-0.128-0.416-0.464-0.751-0.983-0.751c-0.672,0-1.151,0.567-1.151,1.471    c0,0.751,0.392,1.391,1.144,1.391c0.439,0,0.831-0.272,0.975-0.728c0.04-0.112,0.057-0.248,0.057-0.376V118.807z"/>
		<path d="M80.695,118.551c0-0.496-0.009-0.896-0.032-1.264h0.632l0.04,0.664h0.016c0.28-0.48,0.744-0.752,1.367-0.752    c0.943,0,1.647,0.792,1.647,1.967c0,1.391-0.855,2.079-1.759,2.079c-0.521,0-0.96-0.224-1.191-0.607h-0.017v2.103h-0.703V118.551z     M81.398,119.583c0,0.096,0.008,0.2,0.032,0.288c0.12,0.487,0.552,0.823,1.047,0.823c0.744,0,1.176-0.607,1.176-1.495    c0-0.775-0.399-1.439-1.144-1.439c-0.479,0-0.936,0.335-1.071,0.872c-0.016,0.088-0.04,0.191-0.04,0.28V119.583z"/>
		<path d="M87.973,120.23c0,0.336,0.016,0.664,0.056,0.928h-0.632l-0.063-0.488h-0.024c-0.208,0.304-0.632,0.576-1.184,0.576    c-0.783,0-1.183-0.552-1.183-1.111c0-0.936,0.831-1.447,2.326-1.439v-0.08c0-0.32-0.088-0.904-0.88-0.896    c-0.367,0-0.743,0.104-1.015,0.288l-0.16-0.472c0.319-0.2,0.792-0.336,1.279-0.336c1.191,0,1.479,0.808,1.479,1.583V120.23z     M87.286,119.183c-0.768-0.016-1.64,0.12-1.64,0.872c0,0.464,0.304,0.672,0.655,0.672c0.512,0,0.84-0.32,0.952-0.648    c0.023-0.072,0.032-0.152,0.032-0.224V119.183z"/>
		<path d="M89.102,118.495c0-0.456-0.008-0.848-0.032-1.208h0.615l0.032,0.76h0.024c0.176-0.52,0.607-0.848,1.079-0.848    c0.072,0,0.128,0.008,0.191,0.016v0.664c-0.071-0.008-0.144-0.016-0.239-0.016c-0.496,0-0.848,0.375-0.943,0.896    c-0.017,0.104-0.024,0.216-0.024,0.328v2.071h-0.703V118.495z"/>
		<path d="M92.566,116.36v0.927h1.007v0.536h-1.007v2.079c0,0.48,0.136,0.751,0.527,0.751c0.191,0,0.304-0.016,0.407-0.048    l0.032,0.536c-0.136,0.048-0.352,0.096-0.623,0.096c-0.328,0-0.592-0.112-0.76-0.296c-0.192-0.216-0.272-0.56-0.272-1.016v-2.103    h-0.6v-0.536h0.6v-0.711L92.566,116.36z"/>
		<path d="M94.366,118.335c0-0.408-0.008-0.728-0.032-1.048h0.624l0.039,0.632h0.017c0.191-0.36,0.64-0.72,1.279-0.72    c0.535,0,1.367,0.32,1.367,1.647v2.311h-0.704v-2.231c0-0.624-0.231-1.151-0.896-1.151c-0.455,0-0.815,0.328-0.943,0.72    c-0.031,0.088-0.048,0.216-0.048,0.328v2.335h-0.703V118.335z"/>
		<path d="M99.206,119.351c0.016,0.944,0.615,1.335,1.319,1.335c0.504,0,0.815-0.088,1.071-0.2l0.128,0.504    c-0.248,0.112-0.68,0.248-1.295,0.248c-1.184,0-1.903-0.792-1.903-1.951c0-1.167,0.695-2.087,1.823-2.087    c1.263,0,1.591,1.111,1.591,1.823c0,0.144-0.008,0.248-0.023,0.328H99.206z M101.26,118.847c0.008-0.448-0.184-1.144-0.967-1.144    c-0.72,0-1.023,0.656-1.08,1.144H101.26z"/>
		<path d="M102.814,118.495c0-0.456-0.009-0.848-0.032-1.208h0.615l0.032,0.76h0.024c0.176-0.52,0.607-0.848,1.079-0.848    c0.072,0,0.128,0.008,0.192,0.016v0.664c-0.072-0.008-0.145-0.016-0.24-0.016c-0.496,0-0.848,0.375-0.943,0.896    c-0.017,0.104-0.024,0.216-0.024,0.328v2.071h-0.703V118.495z"/>
		<path d="M110.435,120.59c0,0.896-0.184,1.431-0.552,1.775c-0.384,0.344-0.927,0.463-1.415,0.463c-0.464,0-0.976-0.112-1.287-0.32    l0.176-0.543c0.256,0.168,0.655,0.312,1.136,0.312c0.72,0,1.247-0.375,1.247-1.359v-0.424h-0.016    c-0.208,0.36-0.632,0.647-1.231,0.647c-0.96,0-1.647-0.815-1.647-1.895c0-1.311,0.855-2.047,1.751-2.047    c0.672,0,1.031,0.344,1.207,0.672h0.017l0.023-0.584h0.624c-0.023,0.272-0.032,0.592-0.032,1.056V120.59z M109.732,118.807    c0-0.112-0.008-0.216-0.04-0.312c-0.128-0.416-0.464-0.751-0.983-0.751c-0.672,0-1.151,0.567-1.151,1.471    c0,0.751,0.392,1.391,1.144,1.391c0.439,0,0.831-0.272,0.976-0.728c0.039-0.112,0.056-0.248,0.056-0.376V118.807z"/>
		<path d="M114.325,120.23c0,0.336,0.016,0.664,0.056,0.928h-0.632l-0.063-0.488h-0.024c-0.208,0.304-0.632,0.576-1.184,0.576    c-0.783,0-1.183-0.552-1.183-1.111c0-0.936,0.831-1.447,2.326-1.439v-0.08c0-0.32-0.088-0.904-0.88-0.896    c-0.367,0-0.743,0.104-1.015,0.288l-0.16-0.472c0.319-0.2,0.792-0.336,1.279-0.336c1.191,0,1.479,0.808,1.479,1.583V120.23z     M113.637,119.183c-0.768-0.016-1.64,0.12-1.64,0.872c0,0.464,0.304,0.672,0.655,0.672c0.512,0,0.84-0.32,0.952-0.648    c0.023-0.072,0.032-0.152,0.032-0.224V119.183z"/>
		<path d="M115.79,116.632c-0.256,0-0.424-0.2-0.424-0.432c0-0.248,0.176-0.44,0.439-0.44c0.256,0,0.432,0.192,0.432,0.44    c0,0.231-0.168,0.432-0.439,0.432H115.79z M115.454,121.158v-3.87h0.703v3.87H115.454z"/>
		<path d="M117.326,118.335c0-0.408-0.009-0.728-0.032-1.048h0.624l0.04,0.632h0.016c0.191-0.36,0.64-0.72,1.279-0.72    c0.535,0,1.367,0.32,1.367,1.647v2.311h-0.704v-2.231c0-0.624-0.231-1.151-0.896-1.151c-0.455,0-0.815,0.328-0.943,0.72    c-0.031,0.088-0.048,0.216-0.048,0.328v2.335h-0.703V118.335z"/>
		<path d="M121.669,120.438c0.216,0.128,0.584,0.272,0.936,0.272c0.504,0,0.744-0.248,0.744-0.576c0-0.336-0.2-0.512-0.712-0.704    c-0.703-0.256-1.031-0.64-1.031-1.095c0-0.624,0.512-1.136,1.335-1.136c0.392,0,0.735,0.104,0.943,0.24l-0.168,0.503    c-0.151-0.088-0.432-0.224-0.791-0.224c-0.416,0-0.64,0.24-0.64,0.528c0,0.319,0.224,0.463,0.728,0.664    c0.663,0.248,1.016,0.583,1.016,1.159c0,0.688-0.536,1.167-1.439,1.167c-0.424,0-0.815-0.112-1.087-0.272L121.669,120.438z"/>
	</g>
	<g>
		<path d="M15.841,0.423v6.068h-0.792V0.423H15.841z"/>
		<path d="M17.182,3.313c0-0.459-0.009-0.819-0.036-1.18h0.702l0.045,0.711h0.018c0.216-0.405,0.72-0.811,1.44-0.811    c0.604,0,1.54,0.36,1.54,1.855v2.602h-0.792V3.979c0-0.702-0.261-1.296-1.008-1.296c-0.513,0-0.918,0.369-1.062,0.81    c-0.036,0.099-0.054,0.243-0.054,0.369v2.629h-0.792V3.313z"/>
		<path d="M25.904,5.852c0,1.008-0.207,1.611-0.621,1.999c-0.432,0.387-1.044,0.522-1.594,0.522c-0.522,0-1.098-0.126-1.449-0.36    L22.438,7.4c0.288,0.189,0.738,0.351,1.278,0.351c0.81,0,1.404-0.423,1.404-1.53V5.744h-0.018    c-0.234,0.405-0.711,0.729-1.386,0.729c-1.081,0-1.854-0.918-1.854-2.134c0-1.476,0.963-2.305,1.971-2.305    c0.756,0,1.162,0.387,1.359,0.756h0.018l0.027-0.657h0.702c-0.027,0.306-0.036,0.667-0.036,1.188V5.852z M25.112,3.844    c0-0.126-0.009-0.243-0.045-0.351c-0.144-0.468-0.522-0.846-1.107-0.846c-0.756,0-1.296,0.639-1.296,1.657    c0,0.846,0.441,1.566,1.287,1.566c0.495,0,0.937-0.306,1.099-0.819c0.045-0.126,0.063-0.279,0.063-0.423V3.844z"/>
		<path d="M27.208,3.493c0-0.513-0.009-0.954-0.036-1.359h0.693l0.036,0.855h0.027c0.198-0.585,0.684-0.955,1.215-0.955    c0.081,0,0.144,0.009,0.216,0.018V2.8c-0.081-0.009-0.162-0.018-0.271-0.018c-0.558,0-0.954,0.423-1.062,1.008    C28.009,3.907,28,4.033,28,4.159v2.332h-0.792V3.493z"/>
		<path d="M31.924,6.59c-1.17,0-2.088-0.864-2.088-2.242c0-1.458,0.963-2.314,2.161-2.314c1.251,0,2.098,0.91,2.098,2.233    c0,1.621-1.125,2.323-2.161,2.323H31.924z M31.96,5.996c0.756,0,1.323-0.711,1.323-1.702c0-0.738-0.369-1.666-1.305-1.666    c-0.927,0-1.333,0.864-1.333,1.693c0,0.954,0.54,1.674,1.305,1.674H31.96z"/>
		<path d="M38.738,5.293c0,0.459,0.009,0.855,0.036,1.197h-0.702l-0.045-0.711h-0.018c-0.198,0.351-0.667,0.811-1.44,0.811    c-0.685,0-1.503-0.387-1.503-1.909V2.133h0.792v2.404c0,0.828,0.261,1.396,0.972,1.396c0.531,0,0.9-0.369,1.044-0.729    c0.045-0.108,0.072-0.252,0.072-0.405V2.133h0.792V5.293z"/>
		<path d="M40.051,3.556c0-0.558-0.009-1.008-0.036-1.422h0.711l0.045,0.748h0.018c0.315-0.541,0.837-0.847,1.54-0.847    c1.062,0,1.854,0.892,1.854,2.215c0,1.566-0.963,2.341-1.98,2.341c-0.585,0-1.081-0.252-1.342-0.684h-0.018v2.368h-0.792V3.556z     M40.843,4.717c0,0.108,0.009,0.225,0.036,0.324c0.135,0.549,0.621,0.927,1.179,0.927c0.837,0,1.324-0.685,1.324-1.684    c0-0.874-0.45-1.621-1.288-1.621c-0.54,0-1.053,0.378-1.206,0.981c-0.018,0.099-0.045,0.216-0.045,0.315V4.717z"/>
		<path d="M47.151,6.491V2.737h-0.603V2.133h0.603V1.926c0-0.612,0.144-1.17,0.513-1.521C47.962,0.117,48.358,0,48.718,0    c0.288,0,0.522,0.063,0.675,0.126l-0.099,0.612c-0.126-0.054-0.279-0.099-0.513-0.099c-0.667,0-0.846,0.594-0.846,1.26v0.234    h1.053v0.604h-1.044v3.754H47.151z"/>
		<path d="M52.778,5.446c0,0.378,0.018,0.748,0.062,1.044h-0.711l-0.072-0.549H52.03c-0.233,0.342-0.711,0.648-1.332,0.648    c-0.882,0-1.333-0.621-1.333-1.251c0-1.053,0.936-1.629,2.62-1.621v-0.09c0-0.36-0.099-1.018-0.99-1.008    c-0.414,0-0.837,0.117-1.144,0.324l-0.18-0.531c0.36-0.225,0.892-0.378,1.44-0.378c1.342,0,1.666,0.91,1.666,1.783V5.446z     M52.003,4.267c-0.864-0.018-1.846,0.135-1.846,0.981c0,0.522,0.342,0.756,0.738,0.756c0.576,0,0.945-0.36,1.071-0.729    c0.027-0.081,0.036-0.171,0.036-0.252V4.267z"/>
		<path d="M54.351,2.133l0.855,2.44c0.145,0.405,0.262,0.765,0.352,1.125h0.026c0.1-0.36,0.226-0.721,0.369-1.125l0.847-2.44h0.828    l-1.711,4.357h-0.756l-1.656-4.357H54.351z"/>
		<path d="M60.148,6.59c-1.17,0-2.089-0.864-2.089-2.242c0-1.458,0.964-2.314,2.161-2.314c1.251,0,2.098,0.91,2.098,2.233    c0,1.621-1.126,2.323-2.161,2.323H60.148z M60.184,5.996c0.756,0,1.323-0.711,1.323-1.702c0-0.738-0.369-1.666-1.306-1.666    c-0.927,0-1.332,0.864-1.332,1.693c0,0.954,0.54,1.674,1.306,1.674H60.184z"/>
		<path d="M63.316,3.493c0-0.513-0.009-0.954-0.036-1.359h0.693l0.036,0.855h0.026c0.198-0.585,0.685-0.955,1.216-0.955    c0.081,0,0.144,0.009,0.216,0.018V2.8c-0.081-0.009-0.162-0.018-0.27-0.018c-0.559,0-0.955,0.423-1.062,1.008    c-0.019,0.117-0.027,0.243-0.027,0.369v2.332h-0.792V3.493z"/>
		<path d="M66.636,1.395c-0.288,0-0.477-0.225-0.477-0.486c0-0.279,0.197-0.495,0.495-0.495c0.288,0,0.485,0.216,0.485,0.495    c0,0.261-0.188,0.486-0.495,0.486H66.636z M66.258,6.491V2.133h0.792v4.357H66.258z"/>
		<path d="M69.319,1.089v1.044h1.135v0.604h-1.135v2.34c0,0.541,0.153,0.846,0.595,0.846c0.216,0,0.342-0.018,0.459-0.054    l0.036,0.603c-0.153,0.054-0.396,0.108-0.702,0.108c-0.369,0-0.667-0.126-0.855-0.333c-0.216-0.243-0.307-0.63-0.307-1.143V2.737    H67.87V2.133h0.675V1.332L69.319,1.089z"/>
		<path d="M71.721,1.395c-0.288,0-0.477-0.225-0.477-0.486c0-0.279,0.197-0.495,0.495-0.495c0.288,0,0.485,0.216,0.485,0.495    c0,0.261-0.188,0.486-0.495,0.486H71.721z M71.343,6.491V2.133h0.792v4.357H71.343z"/>
		<path d="M73.341,5.681c0.243,0.144,0.657,0.306,1.054,0.306c0.567,0,0.837-0.279,0.837-0.648c0-0.378-0.225-0.576-0.801-0.792    c-0.792-0.288-1.161-0.721-1.161-1.233c0-0.703,0.576-1.279,1.503-1.279c0.441,0,0.828,0.117,1.062,0.271l-0.189,0.567    c-0.171-0.099-0.485-0.252-0.891-0.252c-0.469,0-0.721,0.27-0.721,0.594c0,0.36,0.252,0.522,0.819,0.747    c0.747,0.279,1.144,0.657,1.144,1.305c0,0.774-0.604,1.314-1.62,1.314c-0.478,0-0.919-0.126-1.225-0.306L73.341,5.681z"/>
		<path d="M77.013,3.313c0-0.459-0.018-0.819-0.036-1.18h0.693l0.036,0.702h0.026c0.243-0.414,0.648-0.801,1.378-0.801    c0.585,0,1.035,0.36,1.225,0.874h0.018c0.135-0.252,0.315-0.432,0.495-0.567c0.262-0.198,0.54-0.306,0.954-0.306    c0.586,0,1.44,0.378,1.44,1.891v2.566h-0.773V4.024c0-0.846-0.315-1.341-0.945-1.341c-0.46,0-0.802,0.333-0.945,0.711    c-0.036,0.117-0.063,0.261-0.063,0.396v2.701h-0.774v-2.62c0-0.693-0.306-1.188-0.909-1.188c-0.486,0-0.855,0.396-0.981,0.792    c-0.045,0.117-0.062,0.252-0.062,0.387v2.629h-0.774V3.313z"/>
	</g>
	<g>
		<path d="M181.145,6.59c-1.611,0-2.728-1.243-2.728-3.079c0-1.926,1.188-3.187,2.809-3.187c1.666,0,2.736,1.27,2.736,3.07    c0,2.08-1.269,3.196-2.809,3.196H181.145z M181.191,5.951c1.242,0,1.943-1.144,1.943-2.521c0-1.206-0.63-2.467-1.936-2.467    c-1.305,0-1.953,1.215-1.953,2.53c0,1.278,0.702,2.458,1.936,2.458H181.191z"/>
		<path d="M188.597,5.293c0,0.459,0.01,0.855,0.037,1.197h-0.703l-0.045-0.711h-0.018c-0.198,0.351-0.666,0.811-1.44,0.811    c-0.685,0-1.503-0.387-1.503-1.909V2.133h0.791v2.404c0,0.828,0.262,1.396,0.973,1.396c0.531,0,0.9-0.369,1.045-0.729    c0.045-0.108,0.072-0.252,0.072-0.405V2.133h0.791V5.293z"/>
		<path d="M190.865,1.089v1.044h1.134v0.604h-1.134v2.34c0,0.541,0.152,0.846,0.594,0.846c0.217,0,0.342-0.018,0.459-0.054    l0.036,0.603c-0.153,0.054-0.396,0.108-0.702,0.108c-0.369,0-0.666-0.126-0.855-0.333c-0.216-0.243-0.306-0.63-0.306-1.143V2.737    h-0.675V2.133h0.675V1.332L190.865,1.089z"/>
		<path d="M196.617,5.852c0,1.008-0.207,1.611-0.621,1.999c-0.433,0.387-1.045,0.522-1.594,0.522c-0.522,0-1.099-0.126-1.449-0.36    L193.15,7.4c0.289,0.189,0.738,0.351,1.279,0.351c0.81,0,1.404-0.423,1.404-1.53V5.744h-0.019    c-0.233,0.405-0.711,0.729-1.386,0.729c-1.081,0-1.855-0.918-1.855-2.134c0-1.476,0.963-2.305,1.972-2.305    c0.757,0,1.161,0.387,1.36,0.756h0.018l0.027-0.657h0.701c-0.027,0.306-0.035,0.667-0.035,1.188V5.852z M195.824,3.844    c0-0.126-0.009-0.243-0.045-0.351c-0.145-0.468-0.521-0.846-1.107-0.846c-0.756,0-1.296,0.639-1.296,1.657    c0,0.846,0.44,1.566,1.287,1.566c0.495,0,0.937-0.306,1.099-0.819c0.045-0.126,0.062-0.279,0.062-0.423V3.844z"/>
		<path d="M197.92,3.493c0-0.513-0.009-0.954-0.036-1.359h0.693l0.036,0.855h0.026c0.199-0.585,0.685-0.955,1.216-0.955    c0.081,0,0.144,0.009,0.216,0.018V2.8c-0.08-0.009-0.162-0.018-0.27-0.018c-0.559,0-0.955,0.423-1.062,1.008    c-0.018,0.117-0.027,0.243-0.027,0.369v2.332h-0.792V3.493z"/>
		<path d="M202.636,6.59c-1.17,0-2.088-0.864-2.088-2.242c0-1.458,0.963-2.314,2.16-2.314c1.252,0,2.098,0.91,2.098,2.233    c0,1.621-1.125,2.323-2.16,2.323H202.636z M202.673,5.996c0.756,0,1.322-0.711,1.322-1.702c0-0.738-0.369-1.666-1.305-1.666    c-0.928,0-1.332,0.864-1.332,1.693c0,0.954,0.539,1.674,1.305,1.674H202.673z"/>
		<path d="M209.451,5.293c0,0.459,0.009,0.855,0.035,1.197h-0.701l-0.045-0.711h-0.019c-0.198,0.351-0.667,0.811-1.44,0.811    c-0.685,0-1.504-0.387-1.504-1.909V2.133h0.793v2.404c0,0.828,0.261,1.396,0.972,1.396c0.531,0,0.9-0.369,1.044-0.729    c0.045-0.108,0.072-0.252,0.072-0.405V2.133h0.793V5.293z"/>
		<path d="M210.763,3.556c0-0.558-0.01-1.008-0.036-1.422h0.712l0.045,0.748h0.018c0.314-0.541,0.838-0.847,1.539-0.847    c1.062,0,1.855,0.892,1.855,2.215c0,1.566-0.965,2.341-1.98,2.341c-0.586,0-1.081-0.252-1.342-0.684h-0.019v2.368h-0.792V3.556z     M211.555,4.717c0,0.108,0.009,0.225,0.036,0.324c0.135,0.549,0.621,0.927,1.18,0.927c0.838,0,1.322-0.685,1.322-1.684    c0-0.874-0.449-1.621-1.287-1.621c-0.539,0-1.053,0.378-1.205,0.981c-0.019,0.099-0.046,0.216-0.046,0.315V4.717z"/>
		<path d="M218.169,1.395c-0.287,0-0.477-0.225-0.477-0.486c0-0.279,0.197-0.495,0.496-0.495c0.287,0,0.484,0.216,0.484,0.495    c0,0.261-0.188,0.486-0.494,0.486H218.169z M217.792,6.491V2.133h0.791v4.357H217.792z"/>
		<path d="M219.898,3.313c0-0.459-0.01-0.819-0.037-1.18h0.703l0.045,0.711h0.018c0.217-0.405,0.721-0.811,1.441-0.811    c0.602,0,1.539,0.36,1.539,1.855v2.602h-0.793V3.979c0-0.702-0.26-1.296-1.008-1.296c-0.514,0-0.918,0.369-1.062,0.81    c-0.035,0.099-0.055,0.243-0.055,0.369v2.629h-0.791V3.313z"/>
		<path d="M228.656,0.099v5.267c0,0.387,0.01,0.829,0.035,1.125h-0.711l-0.035-0.756h-0.018c-0.244,0.486-0.766,0.855-1.477,0.855    c-1.055,0-1.873-0.891-1.873-2.215c-0.01-1.458,0.9-2.341,1.953-2.341c0.676,0,1.125,0.315,1.314,0.657h0.018V0.099H228.656z     M227.863,3.907c0-0.108-0.008-0.234-0.035-0.342c-0.117-0.495-0.549-0.909-1.143-0.909c-0.82,0-1.307,0.72-1.307,1.674    c0,0.891,0.441,1.621,1.287,1.621c0.531,0,1.018-0.36,1.162-0.955c0.027-0.099,0.035-0.207,0.035-0.333V3.907z"/>
		<path d="M230.347,1.395c-0.289,0-0.477-0.225-0.477-0.486c0-0.279,0.197-0.495,0.494-0.495c0.289,0,0.486,0.216,0.486,0.495    c0,0.261-0.189,0.486-0.496,0.486H230.347z M229.968,6.491V2.133h0.793v4.357H229.968z"/>
		<path d="M234.765,6.491V2.737h-1.826v3.754h-0.793V2.737h-0.604V2.133h0.604V2.007c0-0.612,0.145-1.143,0.486-1.494    c0.262-0.252,0.621-0.405,1.107-0.405c0.252,0,0.486,0.081,0.621,0.153l-0.172,0.594c-0.115-0.063-0.287-0.117-0.459-0.117    c-0.621,0-0.801,0.531-0.801,1.216v0.18h1.836V1.926c0-0.612,0.145-1.17,0.514-1.521C235.576,0.117,235.972,0,236.332,0    c0.289,0,0.523,0.063,0.676,0.126l-0.1,0.612c-0.125-0.054-0.277-0.099-0.512-0.099c-0.666,0-0.848,0.594-0.848,1.26v0.234h1.055    v0.604h-1.045v3.754H234.765z"/>
		<path d="M237.771,4.456c0.018,1.062,0.693,1.503,1.486,1.503c0.566,0,0.918-0.099,1.205-0.225l0.145,0.567    c-0.279,0.126-0.766,0.279-1.459,0.279c-1.332,0-2.143-0.891-2.143-2.196c0-1.314,0.783-2.35,2.053-2.35    c1.424,0,1.793,1.251,1.793,2.053c0,0.162-0.01,0.279-0.027,0.369H237.771z M240.085,3.889c0.008-0.504-0.207-1.288-1.09-1.288    c-0.811,0-1.152,0.738-1.215,1.288H240.085z"/>
		<path d="M241.83,3.493c0-0.513-0.008-0.954-0.035-1.359h0.693l0.035,0.855h0.027c0.197-0.585,0.684-0.955,1.215-0.955    c0.082,0,0.145,0.009,0.217,0.018V2.8c-0.082-0.009-0.162-0.018-0.27-0.018c-0.559,0-0.955,0.423-1.062,1.008    c-0.02,0.117-0.027,0.243-0.027,0.369v2.332h-0.793V3.493z"/>
		<path d="M245.224,4.456c0.018,1.062,0.693,1.503,1.484,1.503c0.568,0,0.918-0.099,1.207-0.225l0.145,0.567    c-0.279,0.126-0.766,0.279-1.459,0.279c-1.332,0-2.143-0.891-2.143-2.196c0-1.314,0.783-2.35,2.053-2.35    c1.422,0,1.791,1.251,1.791,2.053c0,0.162-0.008,0.279-0.027,0.369H245.224z M247.537,3.889c0.01-0.504-0.207-1.288-1.088-1.288    c-0.811,0-1.152,0.738-1.217,1.288H247.537z"/>
		<path d="M249.283,3.313c0-0.459-0.01-0.819-0.037-1.18h0.703l0.045,0.711h0.018c0.217-0.405,0.721-0.811,1.441-0.811    c0.602,0,1.539,0.36,1.539,1.855v2.602h-0.793V3.979c0-0.702-0.26-1.296-1.008-1.296c-0.514,0-0.918,0.369-1.062,0.81    c-0.035,0.099-0.055,0.243-0.055,0.369v2.629h-0.791V3.313z"/>
		<path d="M257.382,6.329c-0.207,0.099-0.666,0.252-1.25,0.252c-1.314,0-2.17-0.891-2.17-2.224c0-1.341,0.918-2.323,2.34-2.323    c0.469,0,0.883,0.117,1.1,0.234l-0.18,0.603c-0.189-0.099-0.486-0.207-0.92-0.207c-0.998,0-1.539,0.747-1.539,1.647    c0,1.008,0.648,1.629,1.514,1.629c0.449,0,0.746-0.108,0.971-0.207L257.382,6.329z"/>
		<path d="M258.759,4.456c0.018,1.062,0.693,1.503,1.486,1.503c0.566,0,0.918-0.099,1.205-0.225l0.145,0.567    c-0.279,0.126-0.766,0.279-1.459,0.279c-1.332,0-2.143-0.891-2.143-2.196c0-1.314,0.783-2.35,2.053-2.35    c1.424,0,1.793,1.251,1.793,2.053c0,0.162-0.01,0.279-0.027,0.369H258.759z M261.074,3.889c0.008-0.504-0.207-1.288-1.09-1.288    c-0.811,0-1.152,0.738-1.215,1.288H261.074z"/>
	</g>
	
		<rect x="14.374" y="115.984" fill="#808285" stroke="#000000" stroke-width="0.5" stroke-linejoin="round" stroke-miterlimit="10" width="6" height="6"/>
	<g>
		<path d="M24.66,126.103v3.198c0,1.2,0.535,1.711,1.255,1.711c0.792,0,1.312-0.528,1.312-1.711v-3.198h0.703v3.15    c0,1.655-0.871,2.327-2.039,2.327c-1.103,0-1.935-0.624-1.935-2.303v-3.174H24.66z"/>
		<path d="M29.051,130.644c0.312,0.192,0.76,0.344,1.239,0.344c0.712,0,1.128-0.368,1.128-0.911c0-0.504-0.288-0.8-1.016-1.072    c-0.88-0.304-1.423-0.768-1.423-1.519c0-0.839,0.695-1.463,1.742-1.463c0.544,0,0.952,0.128,1.184,0.256l-0.191,0.575    c-0.168-0.104-0.528-0.256-1.016-0.256c-0.735,0-1.016,0.44-1.016,0.808c0,0.496,0.328,0.744,1.071,1.032    c0.911,0.36,1.367,0.792,1.367,1.583c0,0.824-0.607,1.551-1.879,1.551c-0.52,0-1.087-0.16-1.375-0.352L29.051,130.644z"/>
		<path d="M38.065,130.924c0,0.896-0.184,1.431-0.552,1.775c-0.384,0.344-0.927,0.463-1.415,0.463c-0.464,0-0.976-0.112-1.287-0.32    l0.176-0.543c0.256,0.168,0.655,0.312,1.136,0.312c0.72,0,1.247-0.375,1.247-1.359v-0.424h-0.016    c-0.208,0.36-0.632,0.647-1.231,0.647c-0.96,0-1.647-0.815-1.647-1.895c0-1.311,0.855-2.047,1.751-2.047    c0.672,0,1.031,0.344,1.207,0.672h0.017l0.023-0.584h0.624c-0.023,0.272-0.032,0.592-0.032,1.056V130.924z M37.362,129.141    c0-0.112-0.008-0.216-0.04-0.312c-0.128-0.416-0.464-0.751-0.983-0.751c-0.672,0-1.151,0.567-1.151,1.471    c0,0.751,0.392,1.391,1.144,1.391c0.439,0,0.831-0.272,0.976-0.728c0.039-0.112,0.056-0.248,0.056-0.376V129.141z"/>
		<path d="M41.955,130.564c0,0.336,0.016,0.664,0.056,0.928h-0.632l-0.063-0.488h-0.024c-0.208,0.304-0.632,0.576-1.184,0.576    c-0.783,0-1.183-0.552-1.183-1.111c0-0.936,0.831-1.447,2.326-1.439v-0.08c0-0.32-0.088-0.904-0.88-0.896    c-0.367,0-0.743,0.104-1.015,0.288l-0.16-0.472c0.319-0.2,0.792-0.336,1.279-0.336c1.191,0,1.479,0.808,1.479,1.583V130.564z     M41.267,129.517c-0.768-0.016-1.64,0.12-1.64,0.872c0,0.464,0.304,0.672,0.655,0.672c0.512,0,0.84-0.32,0.952-0.648    c0.023-0.072,0.032-0.152,0.032-0.224V129.517z"/>
		<path d="M43.419,126.966c-0.256,0-0.424-0.2-0.424-0.432c0-0.248,0.176-0.44,0.439-0.44c0.256,0,0.432,0.192,0.432,0.44    c0,0.231-0.168,0.432-0.439,0.432H43.419z M43.083,131.492v-3.87h0.703v3.87H43.083z"/>
		<path d="M44.956,128.669c0-0.408-0.009-0.728-0.032-1.048h0.624l0.04,0.632h0.016c0.191-0.36,0.64-0.72,1.279-0.72    c0.535,0,1.367,0.32,1.367,1.647v2.311h-0.704v-2.231c0-0.624-0.231-1.151-0.896-1.151c-0.455,0-0.815,0.328-0.943,0.72    c-0.031,0.088-0.048,0.216-0.048,0.328v2.335h-0.703V128.669z"/>
		<path d="M49.299,130.772c0.216,0.128,0.584,0.272,0.936,0.272c0.504,0,0.744-0.248,0.744-0.576c0-0.336-0.2-0.512-0.712-0.704    c-0.703-0.256-1.031-0.64-1.031-1.095c0-0.624,0.512-1.136,1.335-1.136c0.392,0,0.735,0.104,0.943,0.24l-0.168,0.503    c-0.151-0.088-0.432-0.224-0.791-0.224c-0.416,0-0.64,0.24-0.64,0.528c0,0.319,0.224,0.463,0.728,0.664    c0.663,0.248,1.016,0.583,1.016,1.159c0,0.688-0.536,1.167-1.439,1.167c-0.424,0-0.815-0.112-1.087-0.272L49.299,130.772z"/>
		<path d="M51.972,131.812l2.223-5.797h0.552l-2.239,5.797H51.972z"/>
		<path d="M56.155,126.694v0.927h1.007v0.536h-1.007v2.079c0,0.48,0.136,0.751,0.527,0.751c0.191,0,0.304-0.016,0.407-0.048    l0.032,0.536c-0.136,0.048-0.352,0.096-0.623,0.096c-0.328,0-0.592-0.112-0.76-0.296c-0.192-0.216-0.272-0.56-0.272-1.016v-2.103    h-0.6v-0.536h0.6v-0.711L56.155,126.694z"/>
		<path d="M57.956,128.829c0-0.456-0.009-0.848-0.032-1.208h0.615l0.032,0.76h0.024c0.176-0.52,0.607-0.848,1.079-0.848    c0.072,0,0.128,0.008,0.192,0.016v0.664c-0.072-0.008-0.145-0.016-0.24-0.016c-0.496,0-0.848,0.375-0.943,0.896    c-0.017,0.104-0.024,0.216-0.024,0.328v2.071h-0.703V128.829z"/>
		<path d="M63.298,130.564c0,0.336,0.016,0.664,0.056,0.928h-0.632l-0.063-0.488h-0.024c-0.208,0.304-0.632,0.576-1.184,0.576    c-0.783,0-1.183-0.552-1.183-1.111c0-0.936,0.831-1.447,2.326-1.439v-0.08c0-0.32-0.088-0.904-0.88-0.896    c-0.367,0-0.743,0.104-1.015,0.288l-0.16-0.472c0.319-0.2,0.792-0.336,1.279-0.336c1.191,0,1.479,0.808,1.479,1.583V130.564z     M62.611,129.517c-0.768-0.016-1.64,0.12-1.64,0.872c0,0.464,0.304,0.672,0.655,0.672c0.512,0,0.84-0.32,0.952-0.648    c0.023-0.072,0.032-0.152,0.032-0.224V129.517z"/>
		<path d="M67.769,125.815v4.677c0,0.344,0.008,0.736,0.032,1h-0.632l-0.032-0.672h-0.016c-0.216,0.432-0.68,0.76-1.312,0.76    c-0.936,0-1.663-0.792-1.663-1.967c-0.008-1.295,0.8-2.079,1.735-2.079c0.6,0,0.999,0.28,1.167,0.584h0.017v-2.303H67.769z     M67.066,129.197c0-0.096-0.009-0.208-0.032-0.304c-0.104-0.439-0.488-0.808-1.016-0.808c-0.728,0-1.159,0.64-1.159,1.487    c0,0.792,0.392,1.439,1.144,1.439c0.472,0,0.903-0.32,1.031-0.848c0.023-0.088,0.032-0.184,0.032-0.296V129.197z"/>
		<path d="M69.275,126.966c-0.256,0-0.424-0.2-0.424-0.432c0-0.248,0.176-0.44,0.439-0.44c0.256,0,0.432,0.192,0.432,0.44    c0,0.231-0.168,0.432-0.439,0.432H69.275z M68.939,131.492v-3.87h0.703v3.87H68.939z"/>
		<path d="M70.811,128.669c0-0.408-0.009-0.728-0.032-1.048h0.624l0.04,0.632h0.016c0.191-0.36,0.64-0.72,1.279-0.72    c0.535,0,1.367,0.32,1.367,1.647v2.311h-0.704v-2.231c0-0.624-0.231-1.151-0.896-1.151c-0.455,0-0.815,0.328-0.943,0.72    c-0.031,0.088-0.048,0.216-0.048,0.328v2.335h-0.703V128.669z"/>
		<path d="M78.561,130.924c0,0.896-0.184,1.431-0.552,1.775c-0.384,0.344-0.927,0.463-1.415,0.463c-0.464,0-0.976-0.112-1.287-0.32    l0.176-0.543c0.256,0.168,0.655,0.312,1.136,0.312c0.72,0,1.247-0.375,1.247-1.359v-0.424H77.85    c-0.208,0.36-0.632,0.647-1.231,0.647c-0.96,0-1.647-0.815-1.647-1.895c0-1.311,0.855-2.047,1.751-2.047    c0.672,0,1.031,0.344,1.207,0.672h0.017l0.023-0.584h0.624c-0.023,0.272-0.032,0.592-0.032,1.056V130.924z M77.858,129.141    c0-0.112-0.008-0.216-0.04-0.312c-0.128-0.416-0.464-0.751-0.983-0.751c-0.672,0-1.151,0.567-1.151,1.471    c0,0.751,0.392,1.391,1.144,1.391c0.439,0,0.831-0.272,0.976-0.728c0.039-0.112,0.056-0.248,0.056-0.376V129.141z"/>
		<path d="M81.419,128.885c0-0.496-0.008-0.896-0.032-1.264h0.632l0.04,0.664h0.016c0.28-0.48,0.743-0.752,1.367-0.752    c0.943,0,1.647,0.792,1.647,1.967c0,1.391-0.855,2.079-1.76,2.079c-0.52,0-0.959-0.224-1.19-0.607h-0.017v2.103h-0.703V128.885z     M82.123,129.917c0,0.096,0.008,0.2,0.032,0.288c0.12,0.487,0.552,0.823,1.048,0.823c0.743,0,1.175-0.607,1.175-1.495    c0-0.775-0.399-1.439-1.144-1.439c-0.479,0-0.936,0.335-1.071,0.872c-0.016,0.088-0.04,0.191-0.04,0.28V129.917z"/>
		<path d="M88.698,130.564c0,0.336,0.016,0.664,0.056,0.928h-0.632l-0.063-0.488h-0.024c-0.208,0.304-0.632,0.576-1.184,0.576    c-0.783,0-1.183-0.552-1.183-1.111c0-0.936,0.831-1.447,2.326-1.439v-0.08c0-0.32-0.088-0.904-0.879-0.896    c-0.368,0-0.744,0.104-1.016,0.288l-0.16-0.472c0.319-0.2,0.791-0.336,1.279-0.336c1.191,0,1.479,0.808,1.479,1.583V130.564z     M88.009,129.517c-0.768-0.016-1.639,0.12-1.639,0.872c0,0.464,0.304,0.672,0.655,0.672c0.512,0,0.84-0.32,0.952-0.648    c0.023-0.072,0.031-0.152,0.031-0.224V129.517z"/>
		<path d="M89.827,128.829c0-0.456-0.009-0.848-0.032-1.208h0.615l0.032,0.76h0.024c0.176-0.52,0.607-0.848,1.079-0.848    c0.072,0,0.128,0.008,0.192,0.016v0.664c-0.072-0.008-0.145-0.016-0.24-0.016c-0.496,0-0.848,0.375-0.943,0.896    c-0.017,0.104-0.024,0.216-0.024,0.328v2.071h-0.703V128.829z"/>
		<path d="M93.291,126.694v0.927h1.007v0.536h-1.007v2.079c0,0.48,0.136,0.751,0.527,0.751c0.191,0,0.304-0.016,0.408-0.048    l0.031,0.536c-0.136,0.048-0.352,0.096-0.623,0.096c-0.328,0-0.592-0.112-0.76-0.296c-0.192-0.216-0.272-0.56-0.272-1.016v-2.103    h-0.6v-0.536h0.6v-0.711L93.291,126.694z"/>
		<path d="M95.09,128.669c0-0.408-0.009-0.728-0.032-1.048h0.624l0.04,0.632h0.016c0.191-0.36,0.64-0.72,1.279-0.72    c0.535,0,1.367,0.32,1.367,1.647v2.311H97.68v-2.231c0-0.624-0.231-1.151-0.896-1.151c-0.455,0-0.815,0.328-0.943,0.72    c-0.031,0.088-0.048,0.216-0.048,0.328v2.335H95.09V128.669z"/>
		<path d="M99.93,129.685c0.016,0.944,0.616,1.335,1.319,1.335c0.504,0,0.815-0.088,1.071-0.2l0.128,0.504    c-0.248,0.112-0.68,0.248-1.295,0.248c-1.184,0-1.903-0.792-1.903-1.951c0-1.167,0.695-2.087,1.823-2.087    c1.264,0,1.591,1.111,1.591,1.823c0,0.144-0.008,0.248-0.023,0.328H99.93z M101.985,129.181c0.008-0.448-0.184-1.144-0.967-1.144    c-0.72,0-1.023,0.656-1.08,1.144H101.985z"/>
		<path d="M103.539,128.829c0-0.456-0.008-0.848-0.032-1.208h0.615l0.032,0.76h0.024c0.176-0.52,0.607-0.848,1.079-0.848    c0.072,0,0.128,0.008,0.191,0.016v0.664c-0.071-0.008-0.144-0.016-0.239-0.016c-0.496,0-0.848,0.375-0.943,0.896    c-0.017,0.104-0.024,0.216-0.024,0.328v2.071h-0.703V128.829z"/>
		<path d="M107.85,125.815h0.703v5.677h-0.703V125.815z"/>
		<path d="M111.314,131.58c-1.04,0-1.855-0.768-1.855-1.991c0-1.295,0.855-2.055,1.919-2.055c1.111,0,1.863,0.808,1.863,1.983    c0,1.439-1,2.063-1.919,2.063H111.314z M111.345,131.052c0.672,0,1.176-0.631,1.176-1.511c0-0.655-0.328-1.479-1.159-1.479    c-0.824,0-1.184,0.768-1.184,1.503c0,0.847,0.479,1.487,1.159,1.487H111.345z"/>
		<path d="M114.034,130.772c0.216,0.128,0.584,0.272,0.936,0.272c0.504,0,0.744-0.248,0.744-0.576c0-0.336-0.2-0.512-0.712-0.704    c-0.703-0.256-1.031-0.64-1.031-1.095c0-0.624,0.512-1.136,1.335-1.136c0.392,0,0.735,0.104,0.943,0.24l-0.168,0.503    c-0.151-0.088-0.432-0.224-0.791-0.224c-0.416,0-0.64,0.24-0.64,0.528c0,0.319,0.224,0.463,0.728,0.664    c0.663,0.248,1.016,0.583,1.016,1.159c0,0.688-0.536,1.167-1.439,1.167c-0.424,0-0.815-0.112-1.087-0.272L114.034,130.772z"/>
		<path d="M117.698,129.685c0.016,0.944,0.616,1.335,1.319,1.335c0.504,0,0.815-0.088,1.071-0.2l0.128,0.504    c-0.248,0.112-0.68,0.248-1.295,0.248c-1.184,0-1.903-0.792-1.903-1.951c0-1.167,0.695-2.087,1.823-2.087    c1.264,0,1.591,1.111,1.591,1.823c0,0.144-0.008,0.248-0.023,0.328H117.698z M119.752,129.181    c0.008-0.448-0.184-1.144-0.967-1.144c-0.72,0-1.023,0.656-1.08,1.144H119.752z"/>
		<path d="M121.209,130.772c0.216,0.128,0.584,0.272,0.936,0.272c0.504,0,0.744-0.248,0.744-0.576c0-0.336-0.2-0.512-0.712-0.704    c-0.703-0.256-1.031-0.64-1.031-1.095c0-0.624,0.512-1.136,1.335-1.136c0.392,0,0.735,0.104,0.943,0.24l-0.168,0.503    c-0.151-0.088-0.432-0.224-0.791-0.224c-0.416,0-0.64,0.24-0.64,0.528c0,0.319,0.224,0.463,0.728,0.664    c0.663,0.248,1.016,0.583,1.016,1.159c0,0.688-0.536,1.167-1.439,1.167c-0.424,0-0.815-0.112-1.087-0.272L121.209,130.772z"/>
	</g>
	
		<rect x="178.093" y="126.318" fill="#D1D3D4" stroke="#000000" stroke-width="0.5" stroke-linejoin="round" stroke-miterlimit="10" width="6" height="5.999"/>
	<g>
		<path d="M188.838,115.769v3.198c0,1.2,0.535,1.711,1.255,1.711c0.792,0,1.312-0.528,1.312-1.711v-3.198h0.704v3.15    c0,1.655-0.872,2.327-2.039,2.327c-1.104,0-1.936-0.624-1.936-2.303v-3.174H188.838z"/>
		<path d="M193.23,120.31c0.312,0.192,0.76,0.344,1.24,0.344c0.711,0,1.127-0.368,1.127-0.911c0-0.504-0.288-0.8-1.016-1.072    c-0.879-0.304-1.423-0.768-1.423-1.519c0-0.839,0.695-1.463,1.743-1.463c0.543,0,0.951,0.128,1.183,0.256l-0.191,0.575    c-0.168-0.104-0.527-0.256-1.016-0.256c-0.735,0-1.016,0.44-1.016,0.808c0,0.496,0.328,0.744,1.071,1.032    c0.912,0.36,1.367,0.792,1.367,1.583c0,0.824-0.607,1.551-1.879,1.551c-0.52,0-1.087-0.16-1.375-0.352L193.23,120.31z"/>
		<path d="M202.245,120.59c0,0.896-0.184,1.431-0.552,1.775c-0.384,0.344-0.928,0.463-1.415,0.463c-0.464,0-0.976-0.112-1.287-0.32    l0.176-0.543c0.256,0.168,0.655,0.312,1.136,0.312c0.719,0,1.247-0.375,1.247-1.359v-0.424h-0.017    c-0.207,0.36-0.631,0.647-1.23,0.647c-0.96,0-1.647-0.815-1.647-1.895c0-1.311,0.855-2.047,1.751-2.047    c0.672,0,1.031,0.344,1.207,0.672h0.017l0.023-0.584h0.624c-0.024,0.272-0.032,0.592-0.032,1.056V120.59z M201.542,118.807    c0-0.112-0.009-0.216-0.04-0.312c-0.128-0.416-0.464-0.751-0.983-0.751c-0.672,0-1.151,0.567-1.151,1.471    c0,0.751,0.392,1.391,1.143,1.391c0.44,0,0.832-0.272,0.976-0.728c0.04-0.112,0.057-0.248,0.057-0.376V118.807z"/>
		<path d="M206.132,120.23c0,0.336,0.017,0.664,0.057,0.928h-0.632l-0.064-0.488h-0.023c-0.208,0.304-0.632,0.576-1.184,0.576    c-0.783,0-1.184-0.552-1.184-1.111c0-0.936,0.832-1.447,2.327-1.439v-0.08c0-0.32-0.088-0.904-0.88-0.896    c-0.367,0-0.743,0.104-1.016,0.288l-0.159-0.472c0.319-0.2,0.791-0.336,1.279-0.336c1.191,0,1.479,0.808,1.479,1.583V120.23z     M205.445,119.183c-0.768-0.016-1.639,0.12-1.639,0.872c0,0.464,0.304,0.672,0.655,0.672c0.512,0,0.84-0.32,0.952-0.648    c0.023-0.072,0.031-0.152,0.031-0.224V119.183z"/>
		<path d="M207.598,116.632c-0.256,0-0.424-0.2-0.424-0.432c0-0.248,0.176-0.44,0.439-0.44c0.256,0,0.432,0.192,0.432,0.44    c0,0.231-0.168,0.432-0.439,0.432H207.598z M207.262,121.158v-3.87h0.703v3.87H207.262z"/>
		<path d="M209.134,118.335c0-0.408-0.008-0.728-0.032-1.048h0.624l0.04,0.632h0.016c0.192-0.36,0.64-0.72,1.279-0.72    c0.536,0,1.367,0.32,1.367,1.647v2.311h-0.703v-2.231c0-0.624-0.232-1.151-0.896-1.151c-0.456,0-0.815,0.328-0.943,0.72    c-0.032,0.088-0.049,0.216-0.049,0.328v2.335h-0.703V118.335z"/>
		<path d="M213.478,120.438c0.216,0.128,0.584,0.272,0.936,0.272c0.504,0,0.744-0.248,0.744-0.576c0-0.336-0.2-0.512-0.712-0.704    c-0.704-0.256-1.031-0.64-1.031-1.095c0-0.624,0.512-1.136,1.335-1.136c0.392,0,0.735,0.104,0.943,0.24l-0.168,0.503    c-0.151-0.088-0.432-0.224-0.791-0.224c-0.416,0-0.64,0.24-0.64,0.528c0,0.319,0.224,0.463,0.728,0.664    c0.663,0.248,1.016,0.583,1.016,1.159c0,0.688-0.536,1.167-1.439,1.167c-0.424,0-0.815-0.112-1.088-0.272L213.478,120.438z"/>
		<path d="M216.151,121.478l2.223-5.797h0.552l-2.239,5.797H216.151z"/>
		<path d="M220.333,116.36v0.927h1.008v0.536h-1.008v2.079c0,0.48,0.137,0.751,0.528,0.751c0.191,0,0.304-0.016,0.407-0.048    l0.032,0.536c-0.136,0.048-0.352,0.096-0.624,0.096c-0.327,0-0.591-0.112-0.759-0.296c-0.192-0.216-0.272-0.56-0.272-1.016v-2.103    h-0.6v-0.536h0.6v-0.711L220.333,116.36z"/>
		<path d="M222.133,118.495c0-0.456-0.008-0.848-0.031-1.208h0.615l0.032,0.76h0.024c0.176-0.52,0.607-0.848,1.079-0.848    c0.072,0,0.128,0.008,0.191,0.016v0.664c-0.071-0.008-0.144-0.016-0.239-0.016c-0.496,0-0.848,0.375-0.943,0.896    c-0.017,0.104-0.024,0.216-0.024,0.328v2.071h-0.704V118.495z"/>
		<path d="M227.477,120.23c0,0.336,0.016,0.664,0.056,0.928h-0.632l-0.063-0.488h-0.024c-0.208,0.304-0.632,0.576-1.184,0.576    c-0.783,0-1.183-0.552-1.183-1.111c0-0.936,0.831-1.447,2.326-1.439v-0.08c0-0.32-0.088-0.904-0.879-0.896    c-0.368,0-0.744,0.104-1.016,0.288l-0.16-0.472c0.319-0.2,0.791-0.336,1.279-0.336c1.191,0,1.479,0.808,1.479,1.583V120.23z     M226.789,119.183c-0.768-0.016-1.639,0.12-1.639,0.872c0,0.464,0.304,0.672,0.655,0.672c0.512,0,0.84-0.32,0.952-0.648    c0.023-0.072,0.031-0.152,0.031-0.224V119.183z"/>
		<path d="M231.949,115.481v4.677c0,0.344,0.008,0.736,0.032,1h-0.632l-0.032-0.672h-0.016c-0.216,0.432-0.68,0.76-1.312,0.76    c-0.936,0-1.663-0.792-1.663-1.967c-0.008-1.295,0.8-2.079,1.735-2.079c0.6,0,0.999,0.28,1.167,0.584h0.017v-2.303H231.949z     M231.246,118.863c0-0.096-0.009-0.208-0.032-0.304c-0.104-0.439-0.488-0.808-1.016-0.808c-0.728,0-1.159,0.64-1.159,1.487    c0,0.792,0.392,1.439,1.144,1.439c0.472,0,0.903-0.32,1.031-0.848c0.023-0.088,0.032-0.184,0.032-0.296V118.863z"/>
		<path d="M233.455,116.632c-0.256,0-0.424-0.2-0.424-0.432c0-0.248,0.176-0.44,0.439-0.44c0.256,0,0.432,0.192,0.432,0.44    c0,0.231-0.168,0.432-0.439,0.432H233.455z M233.119,121.158v-3.87h0.703v3.87H233.119z"/>
		<path d="M234.991,118.335c0-0.408-0.009-0.728-0.032-1.048h0.624l0.04,0.632h0.016c0.191-0.36,0.64-0.72,1.279-0.72    c0.535,0,1.367,0.32,1.367,1.647v2.311h-0.704v-2.231c0-0.624-0.231-1.151-0.896-1.151c-0.455,0-0.815,0.328-0.943,0.72    c-0.031,0.088-0.048,0.216-0.048,0.328v2.335h-0.703V118.335z"/>
		<path d="M242.74,120.59c0,0.896-0.184,1.431-0.552,1.775c-0.384,0.344-0.927,0.463-1.415,0.463c-0.464,0-0.976-0.112-1.287-0.32    l0.176-0.543c0.256,0.168,0.656,0.312,1.136,0.312c0.72,0,1.247-0.375,1.247-1.359v-0.424h-0.016    c-0.208,0.36-0.632,0.647-1.231,0.647c-0.96,0-1.647-0.815-1.647-1.895c0-1.311,0.855-2.047,1.751-2.047    c0.672,0,1.031,0.344,1.208,0.672h0.016l0.023-0.584h0.624c-0.024,0.272-0.032,0.592-0.032,1.056V120.59z M242.037,118.807    c0-0.112-0.008-0.216-0.04-0.312c-0.128-0.416-0.464-0.751-0.983-0.751c-0.672,0-1.151,0.567-1.151,1.471    c0,0.751,0.392,1.391,1.144,1.391c0.439,0,0.831-0.272,0.975-0.728c0.04-0.112,0.057-0.248,0.057-0.376V118.807z"/>
		<path d="M245.598,118.551c0-0.496-0.009-0.896-0.032-1.264h0.632l0.04,0.664h0.016c0.28-0.48,0.744-0.752,1.367-0.752    c0.943,0,1.647,0.792,1.647,1.967c0,1.391-0.855,2.079-1.759,2.079c-0.521,0-0.96-0.224-1.191-0.607h-0.017v2.103h-0.703V118.551z     M246.301,119.583c0,0.096,0.008,0.2,0.032,0.288c0.12,0.487,0.552,0.823,1.047,0.823c0.744,0,1.176-0.607,1.176-1.495    c0-0.775-0.399-1.439-1.144-1.439c-0.479,0-0.936,0.335-1.071,0.872c-0.016,0.088-0.04,0.191-0.04,0.28V119.583z"/>
		<path d="M252.876,120.23c0,0.336,0.016,0.664,0.056,0.928H252.3l-0.063-0.488h-0.024c-0.208,0.304-0.632,0.576-1.184,0.576    c-0.783,0-1.183-0.552-1.183-1.111c0-0.936,0.831-1.447,2.326-1.439v-0.08c0-0.32-0.088-0.904-0.88-0.896    c-0.367,0-0.743,0.104-1.015,0.288l-0.16-0.472c0.319-0.2,0.792-0.336,1.279-0.336c1.191,0,1.479,0.808,1.479,1.583V120.23z     M252.189,119.183c-0.768-0.016-1.64,0.12-1.64,0.872c0,0.464,0.304,0.672,0.655,0.672c0.512,0,0.84-0.32,0.952-0.648    c0.023-0.072,0.032-0.152,0.032-0.224V119.183z"/>
		<path d="M254.006,118.495c0-0.456-0.009-0.848-0.032-1.208h0.615l0.032,0.76h0.024c0.176-0.52,0.607-0.848,1.079-0.848    c0.072,0,0.128,0.008,0.192,0.016v0.664c-0.072-0.008-0.145-0.016-0.24-0.016c-0.496,0-0.848,0.375-0.943,0.896    c-0.017,0.104-0.024,0.216-0.024,0.328v2.071h-0.703V118.495z"/>
		<path d="M257.469,116.36v0.927h1.007v0.536h-1.007v2.079c0,0.48,0.136,0.751,0.527,0.751c0.191,0,0.304-0.016,0.407-0.048    l0.032,0.536c-0.136,0.048-0.352,0.096-0.623,0.096c-0.328,0-0.592-0.112-0.76-0.296c-0.192-0.216-0.272-0.56-0.272-1.016v-2.103    h-0.6v-0.536h0.6v-0.711L257.469,116.36z"/>
		<path d="M259.27,118.335c0-0.408-0.009-0.728-0.032-1.048h0.624l0.04,0.632h0.016c0.191-0.36,0.64-0.72,1.279-0.72    c0.535,0,1.367,0.32,1.367,1.647v2.311h-0.704v-2.231c0-0.624-0.231-1.151-0.896-1.151c-0.455,0-0.815,0.328-0.943,0.72    c-0.031,0.088-0.048,0.216-0.048,0.328v2.335h-0.703V118.335z"/>
		<path d="M264.109,119.351c0.016,0.944,0.615,1.335,1.319,1.335c0.504,0,0.815-0.088,1.071-0.2l0.128,0.504    c-0.248,0.112-0.68,0.248-1.295,0.248c-1.184,0-1.903-0.792-1.903-1.951c0-1.167,0.695-2.087,1.823-2.087    c1.263,0,1.591,1.111,1.591,1.823c0,0.144-0.008,0.248-0.023,0.328H264.109z M266.164,118.847    c0.008-0.448-0.184-1.144-0.967-1.144c-0.72,0-1.023,0.656-1.08,1.144H266.164z"/>
		<path d="M267.718,118.495c0-0.456-0.008-0.848-0.032-1.208h0.615l0.032,0.76h0.024c0.176-0.52,0.607-0.848,1.079-0.848    c0.072,0,0.128,0.008,0.191,0.016v0.664c-0.071-0.008-0.144-0.016-0.239-0.016c-0.496,0-0.848,0.375-0.943,0.896    c-0.017,0.104-0.024,0.216-0.024,0.328v2.071h-0.703V118.495z"/>
		<path d="M275.339,120.59c0,0.896-0.184,1.431-0.552,1.775c-0.384,0.344-0.927,0.463-1.415,0.463c-0.464,0-0.976-0.112-1.287-0.32    l0.176-0.543c0.256,0.168,0.656,0.312,1.136,0.312c0.72,0,1.247-0.375,1.247-1.359v-0.424h-0.016    c-0.208,0.36-0.632,0.647-1.231,0.647c-0.96,0-1.647-0.815-1.647-1.895c0-1.311,0.855-2.047,1.751-2.047    c0.672,0,1.031,0.344,1.208,0.672h0.016l0.023-0.584h0.624c-0.024,0.272-0.032,0.592-0.032,1.056V120.59z M274.636,118.807    c0-0.112-0.008-0.216-0.04-0.312c-0.128-0.416-0.464-0.751-0.983-0.751c-0.672,0-1.151,0.567-1.151,1.471    c0,0.751,0.392,1.391,1.144,1.391c0.439,0,0.831-0.272,0.975-0.728c0.04-0.112,0.057-0.248,0.057-0.376V118.807z"/>
		<path d="M279.228,120.23c0,0.336,0.016,0.664,0.056,0.928h-0.632l-0.063-0.488h-0.024c-0.208,0.304-0.632,0.576-1.184,0.576    c-0.783,0-1.183-0.552-1.183-1.111c0-0.936,0.831-1.447,2.326-1.439v-0.08c0-0.32-0.088-0.904-0.88-0.896    c-0.367,0-0.743,0.104-1.015,0.288l-0.16-0.472c0.319-0.2,0.792-0.336,1.279-0.336c1.191,0,1.479,0.808,1.479,1.583V120.23z     M278.541,119.183c-0.768-0.016-1.64,0.12-1.64,0.872c0,0.464,0.304,0.672,0.655,0.672c0.512,0,0.84-0.32,0.952-0.648    c0.023-0.072,0.032-0.152,0.032-0.224V119.183z"/>
		<path d="M280.694,116.632c-0.256,0-0.424-0.2-0.424-0.432c0-0.248,0.176-0.44,0.439-0.44c0.256,0,0.432,0.192,0.432,0.44    c0,0.231-0.168,0.432-0.439,0.432H280.694z M280.358,121.158v-3.87h0.703v3.87H280.358z"/>
		<path d="M282.23,118.335c0-0.408-0.008-0.728-0.032-1.048h0.624l0.039,0.632h0.017c0.191-0.36,0.64-0.72,1.279-0.72    c0.535,0,1.367,0.32,1.367,1.647v2.311h-0.704v-2.231c0-0.624-0.231-1.151-0.896-1.151c-0.455,0-0.815,0.328-0.943,0.72    c-0.031,0.088-0.048,0.216-0.048,0.328v2.335h-0.703V118.335z"/>
		<path d="M286.573,120.438c0.216,0.128,0.584,0.272,0.936,0.272c0.504,0,0.744-0.248,0.744-0.576c0-0.336-0.2-0.512-0.712-0.704    c-0.703-0.256-1.031-0.64-1.031-1.095c0-0.624,0.512-1.136,1.335-1.136c0.392,0,0.735,0.104,0.943,0.24l-0.168,0.503    c-0.151-0.088-0.432-0.224-0.791-0.224c-0.416,0-0.64,0.24-0.64,0.528c0,0.319,0.224,0.463,0.728,0.664    c0.663,0.248,1.016,0.583,1.016,1.159c0,0.688-0.536,1.167-1.439,1.167c-0.424,0-0.815-0.112-1.087-0.272L286.573,120.438z"/>
	</g>
	
		<rect x="178.093" y="115.984" fill="#808285" stroke="#000000" stroke-width="0.5" stroke-linejoin="round" stroke-miterlimit="10" width="6" height="6"/>
	<g>
		<path d="M188.378,126.103v3.198c0,1.2,0.535,1.711,1.255,1.711c0.792,0,1.312-0.528,1.312-1.711v-3.198h0.703v3.15    c0,1.655-0.871,2.327-2.039,2.327c-1.103,0-1.935-0.624-1.935-2.303v-3.174H188.378z"/>
		<path d="M192.77,130.644c0.312,0.192,0.76,0.344,1.239,0.344c0.712,0,1.128-0.368,1.128-0.911c0-0.504-0.288-0.8-1.016-1.072    c-0.88-0.304-1.423-0.768-1.423-1.519c0-0.839,0.695-1.463,1.742-1.463c0.544,0,0.952,0.128,1.184,0.256l-0.191,0.575    c-0.168-0.104-0.528-0.256-1.016-0.256c-0.735,0-1.016,0.44-1.016,0.808c0,0.496,0.328,0.744,1.071,1.032    c0.911,0.36,1.367,0.792,1.367,1.583c0,0.824-0.607,1.551-1.879,1.551c-0.52,0-1.087-0.16-1.375-0.352L192.77,130.644z"/>
		<path d="M201.784,130.924c0,0.896-0.184,1.431-0.552,1.775c-0.384,0.344-0.927,0.463-1.415,0.463c-0.464,0-0.976-0.112-1.287-0.32    l0.176-0.543c0.256,0.168,0.655,0.312,1.136,0.312c0.72,0,1.247-0.375,1.247-1.359v-0.424h-0.016    c-0.208,0.36-0.632,0.647-1.231,0.647c-0.96,0-1.647-0.815-1.647-1.895c0-1.311,0.855-2.047,1.751-2.047    c0.672,0,1.031,0.344,1.207,0.672h0.017l0.023-0.584h0.624c-0.023,0.272-0.032,0.592-0.032,1.056V130.924z M201.081,129.141    c0-0.112-0.008-0.216-0.04-0.312c-0.128-0.416-0.464-0.751-0.983-0.751c-0.672,0-1.151,0.567-1.151,1.471    c0,0.751,0.392,1.391,1.144,1.391c0.439,0,0.831-0.272,0.976-0.728c0.039-0.112,0.056-0.248,0.056-0.376V129.141z"/>
		<path d="M205.673,130.564c0,0.336,0.016,0.664,0.056,0.928h-0.632l-0.063-0.488h-0.024c-0.208,0.304-0.632,0.576-1.184,0.576    c-0.783,0-1.183-0.552-1.183-1.111c0-0.936,0.831-1.447,2.326-1.439v-0.08c0-0.32-0.088-0.904-0.88-0.896    c-0.367,0-0.743,0.104-1.015,0.288l-0.16-0.472c0.319-0.2,0.792-0.336,1.279-0.336c1.191,0,1.479,0.808,1.479,1.583V130.564z     M204.986,129.517c-0.768-0.016-1.64,0.12-1.64,0.872c0,0.464,0.304,0.672,0.655,0.672c0.512,0,0.84-0.32,0.952-0.648    c0.023-0.072,0.032-0.152,0.032-0.224V129.517z"/>
		<path d="M207.138,126.966c-0.256,0-0.424-0.2-0.424-0.432c0-0.248,0.176-0.44,0.439-0.44c0.256,0,0.432,0.192,0.432,0.44    c0,0.231-0.168,0.432-0.439,0.432H207.138z M206.802,131.492v-3.87h0.703v3.87H206.802z"/>
		<path d="M208.674,128.669c0-0.408-0.009-0.728-0.032-1.048h0.624l0.04,0.632h0.016c0.191-0.36,0.64-0.72,1.279-0.72    c0.535,0,1.367,0.32,1.367,1.647v2.311h-0.704v-2.231c0-0.624-0.231-1.151-0.896-1.151c-0.455,0-0.815,0.328-0.943,0.72    c-0.031,0.088-0.048,0.216-0.048,0.328v2.335h-0.703V128.669z"/>
		<path d="M213.018,130.772c0.216,0.128,0.584,0.272,0.936,0.272c0.504,0,0.744-0.248,0.744-0.576c0-0.336-0.2-0.512-0.712-0.704    c-0.703-0.256-1.031-0.64-1.031-1.095c0-0.624,0.512-1.136,1.335-1.136c0.392,0,0.735,0.104,0.943,0.24l-0.168,0.503    c-0.151-0.088-0.432-0.224-0.791-0.224c-0.416,0-0.64,0.24-0.64,0.528c0,0.319,0.224,0.463,0.728,0.664    c0.663,0.248,1.016,0.583,1.016,1.159c0,0.688-0.536,1.167-1.439,1.167c-0.424,0-0.815-0.112-1.087-0.272L213.018,130.772z"/>
		<path d="M215.691,131.812l2.223-5.797h0.552l-2.239,5.797H215.691z"/>
		<path d="M219.874,126.694v0.927h1.007v0.536h-1.007v2.079c0,0.48,0.136,0.751,0.527,0.751c0.191,0,0.304-0.016,0.407-0.048    l0.032,0.536c-0.136,0.048-0.352,0.096-0.623,0.096c-0.328,0-0.592-0.112-0.76-0.296c-0.192-0.216-0.272-0.56-0.272-1.016v-2.103    h-0.6v-0.536h0.6v-0.711L219.874,126.694z"/>
		<path d="M221.674,128.829c0-0.456-0.009-0.848-0.032-1.208h0.615l0.032,0.76h0.024c0.176-0.52,0.607-0.848,1.079-0.848    c0.072,0,0.128,0.008,0.192,0.016v0.664c-0.072-0.008-0.145-0.016-0.24-0.016c-0.496,0-0.848,0.375-0.943,0.896    c-0.017,0.104-0.024,0.216-0.024,0.328v2.071h-0.703V128.829z"/>
		<path d="M227.017,130.564c0,0.336,0.016,0.664,0.056,0.928h-0.632l-0.063-0.488h-0.024c-0.208,0.304-0.632,0.576-1.184,0.576    c-0.783,0-1.183-0.552-1.183-1.111c0-0.936,0.831-1.447,2.326-1.439v-0.08c0-0.32-0.088-0.904-0.88-0.896    c-0.367,0-0.743,0.104-1.015,0.288l-0.16-0.472c0.319-0.2,0.792-0.336,1.279-0.336c1.191,0,1.479,0.808,1.479,1.583V130.564z     M226.33,129.517c-0.768-0.016-1.64,0.12-1.64,0.872c0,0.464,0.304,0.672,0.655,0.672c0.512,0,0.84-0.32,0.952-0.648    c0.023-0.072,0.032-0.152,0.032-0.224V129.517z"/>
		<path d="M231.488,125.815v4.677c0,0.344,0.008,0.736,0.032,1h-0.632l-0.032-0.672h-0.016c-0.216,0.432-0.68,0.76-1.312,0.76    c-0.936,0-1.663-0.792-1.663-1.967c-0.008-1.295,0.8-2.079,1.735-2.079c0.6,0,0.999,0.28,1.167,0.584h0.017v-2.303H231.488z     M230.785,129.197c0-0.096-0.009-0.208-0.032-0.304c-0.104-0.439-0.488-0.808-1.016-0.808c-0.728,0-1.159,0.64-1.159,1.487    c0,0.792,0.392,1.439,1.144,1.439c0.472,0,0.903-0.32,1.031-0.848c0.023-0.088,0.032-0.184,0.032-0.296V129.197z"/>
		<path d="M232.994,126.966c-0.256,0-0.424-0.2-0.424-0.432c0-0.248,0.176-0.44,0.439-0.44c0.256,0,0.432,0.192,0.432,0.44    c0,0.231-0.168,0.432-0.439,0.432H232.994z M232.658,131.492v-3.87h0.703v3.87H232.658z"/>
		<path d="M234.53,128.669c0-0.408-0.009-0.728-0.032-1.048h0.624l0.04,0.632h0.016c0.191-0.36,0.64-0.72,1.279-0.72    c0.535,0,1.367,0.32,1.367,1.647v2.311h-0.704v-2.231c0-0.624-0.231-1.151-0.896-1.151c-0.455,0-0.815,0.328-0.943,0.72    c-0.031,0.088-0.048,0.216-0.048,0.328v2.335h-0.703V128.669z"/>
		<path d="M242.28,130.924c0,0.896-0.184,1.431-0.552,1.775c-0.384,0.344-0.927,0.463-1.415,0.463c-0.464,0-0.976-0.112-1.287-0.32    l0.176-0.543c0.256,0.168,0.655,0.312,1.136,0.312c0.72,0,1.247-0.375,1.247-1.359v-0.424h-0.016    c-0.208,0.36-0.632,0.647-1.231,0.647c-0.96,0-1.647-0.815-1.647-1.895c0-1.311,0.855-2.047,1.751-2.047    c0.672,0,1.031,0.344,1.207,0.672h0.017l0.023-0.584h0.624c-0.023,0.272-0.032,0.592-0.032,1.056V130.924z M241.577,129.141    c0-0.112-0.008-0.216-0.04-0.312c-0.128-0.416-0.464-0.751-0.983-0.751c-0.672,0-1.151,0.567-1.151,1.471    c0,0.751,0.392,1.391,1.144,1.391c0.439,0,0.831-0.272,0.976-0.728c0.039-0.112,0.056-0.248,0.056-0.376V129.141z"/>
		<path d="M245.138,128.885c0-0.496-0.008-0.896-0.032-1.264h0.632l0.04,0.664h0.016c0.28-0.48,0.743-0.752,1.367-0.752    c0.943,0,1.647,0.792,1.647,1.967c0,1.391-0.855,2.079-1.76,2.079c-0.52,0-0.959-0.224-1.19-0.607h-0.017v2.103h-0.703V128.885z     M245.841,129.917c0,0.096,0.008,0.2,0.032,0.288c0.12,0.487,0.552,0.823,1.048,0.823c0.743,0,1.175-0.607,1.175-1.495    c0-0.775-0.399-1.439-1.144-1.439c-0.479,0-0.936,0.335-1.071,0.872c-0.016,0.088-0.04,0.191-0.04,0.28V129.917z"/>
		<path d="M252.417,130.564c0,0.336,0.016,0.664,0.056,0.928h-0.632l-0.063-0.488h-0.024c-0.208,0.304-0.632,0.576-1.184,0.576    c-0.783,0-1.183-0.552-1.183-1.111c0-0.936,0.831-1.447,2.326-1.439v-0.08c0-0.32-0.088-0.904-0.879-0.896    c-0.368,0-0.744,0.104-1.016,0.288l-0.16-0.472c0.319-0.2,0.791-0.336,1.279-0.336c1.191,0,1.479,0.808,1.479,1.583V130.564z     M251.728,129.517c-0.768-0.016-1.639,0.12-1.639,0.872c0,0.464,0.304,0.672,0.655,0.672c0.512,0,0.84-0.32,0.952-0.648    c0.023-0.072,0.031-0.152,0.031-0.224V129.517z"/>
		<path d="M253.545,128.829c0-0.456-0.009-0.848-0.032-1.208h0.615l0.032,0.76h0.024c0.176-0.52,0.607-0.848,1.079-0.848    c0.072,0,0.128,0.008,0.192,0.016v0.664c-0.072-0.008-0.145-0.016-0.24-0.016c-0.496,0-0.848,0.375-0.943,0.896    c-0.017,0.104-0.024,0.216-0.024,0.328v2.071h-0.703V128.829z"/>
		<path d="M257.009,126.694v0.927h1.007v0.536h-1.007v2.079c0,0.48,0.136,0.751,0.527,0.751c0.191,0,0.304-0.016,0.408-0.048    l0.031,0.536c-0.136,0.048-0.352,0.096-0.623,0.096c-0.328,0-0.592-0.112-0.76-0.296c-0.192-0.216-0.272-0.56-0.272-1.016v-2.103    h-0.6v-0.536h0.6v-0.711L257.009,126.694z"/>
		<path d="M258.809,128.669c0-0.408-0.009-0.728-0.032-1.048h0.624l0.04,0.632h0.016c0.191-0.36,0.64-0.72,1.279-0.72    c0.535,0,1.367,0.32,1.367,1.647v2.311h-0.704v-2.231c0-0.624-0.231-1.151-0.896-1.151c-0.455,0-0.815,0.328-0.943,0.72    c-0.031,0.088-0.048,0.216-0.048,0.328v2.335h-0.703V128.669z"/>
		<path d="M263.649,129.685c0.016,0.944,0.616,1.335,1.319,1.335c0.504,0,0.815-0.088,1.071-0.2l0.128,0.504    c-0.248,0.112-0.68,0.248-1.295,0.248c-1.184,0-1.903-0.792-1.903-1.951c0-1.167,0.695-2.087,1.823-2.087    c1.264,0,1.591,1.111,1.591,1.823c0,0.144-0.008,0.248-0.023,0.328H263.649z M265.704,129.181    c0.008-0.448-0.184-1.144-0.967-1.144c-0.72,0-1.023,0.656-1.08,1.144H265.704z"/>
		<path d="M267.257,128.829c0-0.456-0.008-0.848-0.032-1.208h0.615l0.032,0.76h0.024c0.176-0.52,0.607-0.848,1.079-0.848    c0.072,0,0.128,0.008,0.191,0.016v0.664c-0.071-0.008-0.144-0.016-0.239-0.016c-0.496,0-0.848,0.375-0.943,0.896    c-0.017,0.104-0.024,0.216-0.024,0.328v2.071h-0.703V128.829z"/>
		<path d="M271.569,125.815h0.703v5.677h-0.703V125.815z"/>
		<path d="M275.033,131.58c-1.04,0-1.855-0.768-1.855-1.991c0-1.295,0.855-2.055,1.919-2.055c1.111,0,1.863,0.808,1.863,1.983    c0,1.439-1,2.063-1.919,2.063H275.033z M275.064,131.052c0.672,0,1.176-0.631,1.176-1.511c0-0.655-0.328-1.479-1.159-1.479    c-0.824,0-1.184,0.768-1.184,1.503c0,0.847,0.479,1.487,1.159,1.487H275.064z"/>
		<path d="M277.752,130.772c0.216,0.128,0.584,0.272,0.936,0.272c0.504,0,0.744-0.248,0.744-0.576c0-0.336-0.2-0.512-0.712-0.704    c-0.703-0.256-1.031-0.64-1.031-1.095c0-0.624,0.512-1.136,1.335-1.136c0.392,0,0.735,0.104,0.943,0.24l-0.168,0.503    c-0.151-0.088-0.432-0.224-0.791-0.224c-0.416,0-0.64,0.24-0.64,0.528c0,0.319,0.224,0.463,0.728,0.664    c0.663,0.248,1.016,0.583,1.016,1.159c0,0.688-0.536,1.167-1.439,1.167c-0.424,0-0.815-0.112-1.087-0.272L277.752,130.772z"/>
		<path d="M281.417,129.685c0.016,0.944,0.616,1.335,1.319,1.335c0.504,0,0.815-0.088,1.071-0.2l0.128,0.504    c-0.248,0.112-0.68,0.248-1.295,0.248c-1.184,0-1.903-0.792-1.903-1.951c0-1.167,0.695-2.087,1.823-2.087    c1.264,0,1.591,1.111,1.591,1.823c0,0.144-0.008,0.248-0.023,0.328H281.417z M283.471,129.181    c0.008-0.448-0.184-1.144-0.967-1.144c-0.72,0-1.023,0.656-1.08,1.144H283.471z"/>
		<path d="M284.928,130.772c0.216,0.128,0.584,0.272,0.936,0.272c0.504,0,0.744-0.248,0.744-0.576c0-0.336-0.2-0.512-0.712-0.704    c-0.703-0.256-1.031-0.64-1.031-1.095c0-0.624,0.512-1.136,1.335-1.136c0.392,0,0.735,0.104,0.943,0.24l-0.168,0.503    c-0.151-0.088-0.432-0.224-0.791-0.224c-0.416,0-0.64,0.24-0.64,0.528c0,0.319,0.224,0.463,0.728,0.664    c0.663,0.248,1.016,0.583,1.016,1.159c0,0.688-0.536,1.167-1.439,1.167c-0.424,0-0.815-0.112-1.087-0.272L284.928,130.772z"/>
	</g>
	
		<line fill="none" stroke="#A7A9AC" stroke-width="0.5" stroke-linejoin="round" stroke-miterlimit="10" x1="14.374" y1="11.16" x2="138.054" y2="11.16"/>
	
		<line fill="none" stroke="#A7A9AC" stroke-width="0.5" stroke-linejoin="round" stroke-miterlimit="10" x1="14.374" y1="23.142" x2="138.054" y2="23.142"/>
	
		<line fill="none" stroke="#A7A9AC" stroke-width="0.5" stroke-linejoin="round" stroke-miterlimit="10" x1="14.374" y1="35.123" x2="138.054" y2="35.123"/>
	
		<line fill="none" stroke="#A7A9AC" stroke-width="0.5" stroke-linejoin="round" stroke-miterlimit="10" x1="14.374" y1="47.104" x2="138.054" y2="47.104"/>
	
		<line fill="none" stroke="#A7A9AC" stroke-width="0.5" stroke-linejoin="round" stroke-miterlimit="10" x1="14.374" y1="59.227" x2="138.054" y2="59.227"/>
	
		<line fill="none" stroke="#A7A9AC" stroke-width="0.5" stroke-linejoin="round" stroke-miterlimit="10" x1="14.374" y1="71.209" x2="138.054" y2="71.209"/>
	
		<line fill="none" stroke="#A7A9AC" stroke-width="0.5" stroke-linejoin="round" stroke-miterlimit="10" x1="14.374" y1="83.19" x2="138.054" y2="83.19"/>
	
		<rect x="90.074" y="52.32" fill="#808285" stroke="#000000" stroke-width="0.5" stroke-miterlimit="10" width="18" height="42.84"/>
	
		<rect x="23.174" y="59.086" fill="#808285" stroke="#000000" stroke-width="0.5" stroke-miterlimit="10" width="18" height="36.074"/>
	
		<rect x="111.254" y="31.599" fill="#D1D3D4" stroke="#000000" stroke-width="0.5" stroke-miterlimit="10" width="18" height="63.561"/>
	
		<rect x="44.294" y="25.397" fill="#D1D3D4" stroke="#000000" stroke-width="0.5" stroke-miterlimit="10" width="18" height="69.763"/>
	
		<line fill="none" stroke="#000000" stroke-width="0.5" stroke-linejoin="round" stroke-miterlimit="10" x1="30.734" y1="56.831" x2="33.688" y2="56.831"/>
	
		<line fill="none" stroke="#000000" stroke-width="0.5" stroke-linejoin="round" stroke-miterlimit="10" x1="30.734" y1="61.299" x2="33.688" y2="61.299"/>
	
		<line fill="none" stroke="#000000" stroke-width="0.5" stroke-linejoin="round" stroke-miterlimit="10" x1="32.174" y1="59.086" x2="32.174" y2="56.831"/>
	
		<line fill="none" stroke="#000000" stroke-width="0.5" stroke-linejoin="round" stroke-miterlimit="10" x1="32.174" y1="61.299" x2="32.174" y2="59.086"/>
	
		<line fill="none" stroke="#000000" stroke-width="0.5" stroke-linejoin="round" stroke-miterlimit="10" x1="97.574" y1="50.065" x2="100.574" y2="50.065"/>
	
		<line fill="none" stroke="#000000" stroke-width="0.5" stroke-linejoin="round" stroke-miterlimit="10" x1="97.574" y1="54.434" x2="100.574" y2="54.434"/>
	
		<line fill="none" stroke="#000000" stroke-width="0.5" stroke-linejoin="round" stroke-miterlimit="10" x1="99.135" y1="52.32" x2="99.135" y2="50.065"/>
	
		<line fill="none" stroke="#000000" stroke-width="0.5" stroke-linejoin="round" stroke-miterlimit="10" x1="99.135" y1="54.434" x2="99.135" y2="52.32"/>
	
		<line fill="none" stroke="#000000" stroke-width="0.5" stroke-linejoin="round" stroke-miterlimit="10" x1="51.854" y1="23.142" x2="54.84" y2="23.142"/>
	
		<line fill="none" stroke="#000000" stroke-width="0.5" stroke-linejoin="round" stroke-miterlimit="10" x1="51.854" y1="27.652" x2="54.84" y2="27.652"/>
	
		<line fill="none" stroke="#000000" stroke-width="0.5" stroke-linejoin="round" stroke-miterlimit="10" x1="53.295" y1="25.397" x2="53.295" y2="23.142"/>
	
		<line fill="none" stroke="#000000" stroke-width="0.5" stroke-linejoin="round" stroke-miterlimit="10" x1="53.295" y1="27.652" x2="53.295" y2="25.397"/>
	
		<line fill="none" stroke="#000000" stroke-width="0.5" stroke-linejoin="round" stroke-miterlimit="10" x1="118.695" y1="29.484" x2="121.695" y2="29.484"/>
	
		<line fill="none" stroke="#000000" stroke-width="0.5" stroke-linejoin="round" stroke-miterlimit="10" x1="118.695" y1="33.854" x2="121.695" y2="33.854"/>
	
		<line fill="none" stroke="#000000" stroke-width="0.5" stroke-linejoin="round" stroke-miterlimit="10" x1="120.253" y1="31.599" x2="120.253" y2="29.484"/>
	
		<line fill="none" stroke="#000000" stroke-width="0.5" stroke-linejoin="round" stroke-miterlimit="10" x1="120.253" y1="33.854" x2="120.253" y2="31.599"/>
	<polyline fill="none" stroke="#000000" stroke-width="0.5" stroke-linejoin="round" stroke-miterlimit="10" points="138.093,95.16    14.32,95.16 14.32,11.16  "/>
	
		<line fill="none" stroke="#A7A9AC" stroke-width="0.5" stroke-linejoin="round" stroke-miterlimit="10" x1="178.148" y1="11.16" x2="301.828" y2="11.16"/>
	
		<line fill="none" stroke="#A7A9AC" stroke-width="0.5" stroke-linejoin="round" stroke-miterlimit="10" x1="178.148" y1="23.141" x2="301.828" y2="23.141"/>
	
		<line fill="none" stroke="#A7A9AC" stroke-width="0.5" stroke-linejoin="round" stroke-miterlimit="10" x1="178.148" y1="35.123" x2="301.828" y2="35.123"/>
	
		<line fill="none" stroke="#A7A9AC" stroke-width="0.5" stroke-linejoin="round" stroke-miterlimit="10" x1="178.148" y1="47.104" x2="301.828" y2="47.104"/>
	
		<line fill="none" stroke="#A7A9AC" stroke-width="0.5" stroke-linejoin="round" stroke-miterlimit="10" x1="178.148" y1="59.227" x2="301.828" y2="59.227"/>
	
		<line fill="none" stroke="#A7A9AC" stroke-width="0.5" stroke-linejoin="round" stroke-miterlimit="10" x1="178.148" y1="71.209" x2="301.828" y2="71.209"/>
	
		<line fill="none" stroke="#A7A9AC" stroke-width="0.5" stroke-linejoin="round" stroke-miterlimit="10" x1="178.148" y1="83.19" x2="301.828" y2="83.19"/>
	
		<rect x="275.027" y="31.74" fill="#D1D3D4" stroke="#000000" stroke-width="0.5" stroke-miterlimit="10" width="18" height="63.42"/>
	
		<rect x="208.067" y="25.397" fill="#D1D3D4" stroke="#000000" stroke-width="0.5" stroke-miterlimit="10" width="18" height="69.763"/>
	
		<rect x="253.846" y="25.538" fill="#808285" stroke="#000000" stroke-width="0.5" stroke-miterlimit="10" width="18" height="69.622"/>
	
		<rect x="186.947" y="33.29" fill="#808285" stroke="#000000" stroke-width="0.5" stroke-miterlimit="10" width="18" height="61.87"/>
	
		<line fill="none" stroke="#000000" stroke-width="0.5" stroke-linejoin="round" stroke-miterlimit="10" x1="215.554" y1="23.141" x2="218.507" y2="23.141"/>
	
		<line fill="none" stroke="#000000" stroke-width="0.5" stroke-linejoin="round" stroke-miterlimit="10" x1="215.554" y1="27.608" x2="218.507" y2="27.608"/>
	
		<line fill="none" stroke="#000000" stroke-width="0.5" stroke-linejoin="round" stroke-miterlimit="10" x1="217.067" y1="23.141" x2="217.067" y2="25.397"/>
	
		<line fill="none" stroke="#000000" stroke-width="0.5" stroke-linejoin="round" stroke-miterlimit="10" x1="217.067" y1="25.397" x2="217.067" y2="27.608"/>
	
		<line fill="none" stroke="#000000" stroke-width="0.5" stroke-linejoin="round" stroke-miterlimit="10" x1="282.527" y1="29.484" x2="285.527" y2="29.484"/>
	
		<line fill="none" stroke="#000000" stroke-width="0.5" stroke-linejoin="round" stroke-miterlimit="10" x1="282.527" y1="33.995" x2="285.527" y2="33.995"/>
	
		<line fill="none" stroke="#000000" stroke-width="0.5" stroke-linejoin="round" stroke-miterlimit="10" x1="283.966" y1="29.484" x2="283.966" y2="31.74"/>
	
		<line fill="none" stroke="#000000" stroke-width="0.5" stroke-linejoin="round" stroke-miterlimit="10" x1="283.966" y1="31.74" x2="283.966" y2="33.995"/>
	
		<line fill="none" stroke="#000000" stroke-width="0.5" stroke-linejoin="round" stroke-miterlimit="10" x1="194.402" y1="31.035" x2="197.386" y2="31.035"/>
	
		<line fill="none" stroke="#000000" stroke-width="0.5" stroke-linejoin="round" stroke-miterlimit="10" x1="194.402" y1="35.481" x2="197.386" y2="35.481"/>
	
		<line fill="none" stroke="#000000" stroke-width="0.5" stroke-linejoin="round" stroke-miterlimit="10" x1="195.947" y1="31.035" x2="195.947" y2="33.29"/>
	
		<line fill="none" stroke="#000000" stroke-width="0.5" stroke-linejoin="round" stroke-miterlimit="10" x1="195.947" y1="33.29" x2="195.947" y2="35.481"/>
	
		<line fill="none" stroke="#000000" stroke-width="0.5" stroke-linejoin="round" stroke-miterlimit="10" x1="261.406" y1="23.282" x2="264.406" y2="23.282"/>
	
		<line fill="none" stroke="#000000" stroke-width="0.5" stroke-linejoin="round" stroke-miterlimit="10" x1="261.406" y1="27.727" x2="264.406" y2="27.727"/>
	
		<line fill="none" stroke="#000000" stroke-width="0.5" stroke-linejoin="round" stroke-miterlimit="10" x1="262.847" y1="23.282" x2="262.847" y2="25.538"/>
	
		<line fill="none" stroke="#000000" stroke-width="0.5" stroke-linejoin="round" stroke-miterlimit="10" x1="262.847" y1="25.538" x2="262.847" y2="27.727"/>
	<polyline fill="none" stroke="#000000" stroke-width="0.5" stroke-linejoin="round" stroke-miterlimit="10" points="301.867,95.16    178.093,95.16 178.093,11.16  "/>
	
		<line fill="none" stroke="#000000" stroke-width="0.5" stroke-linejoin="round" stroke-miterlimit="10" x1="14.374" y1="11.16" x2="11.374" y2="11.16"/>
	
		<line fill="none" stroke="#000000" stroke-width="0.5" stroke-linejoin="round" stroke-miterlimit="10" x1="14.374" y1="23.16" x2="11.374" y2="23.16"/>
	
		<line fill="none" stroke="#000000" stroke-width="0.5" stroke-linejoin="round" stroke-miterlimit="10" x1="14.374" y1="35.16" x2="11.374" y2="35.16"/>
	
		<line fill="none" stroke="#000000" stroke-width="0.5" stroke-linejoin="round" stroke-miterlimit="10" x1="14.374" y1="47.16" x2="11.374" y2="47.16"/>
	
		<line fill="none" stroke="#000000" stroke-width="0.5" stroke-linejoin="round" stroke-miterlimit="10" x1="14.374" y1="59.16" x2="11.374" y2="59.16"/>
	
		<line fill="none" stroke="#000000" stroke-width="0.5" stroke-linejoin="round" stroke-miterlimit="10" x1="14.374" y1="71.16" x2="11.374" y2="71.16"/>
	
		<line fill="none" stroke="#000000" stroke-width="0.5" stroke-linejoin="round" stroke-miterlimit="10" x1="14.374" y1="83.16" x2="11.374" y2="83.16"/>
	
		<line fill="none" stroke="#000000" stroke-width="0.5" stroke-linejoin="round" stroke-miterlimit="10" x1="14.374" y1="95.16" x2="11.374" y2="95.16"/>
	
		<line fill="none" stroke="#000000" stroke-width="0.5" stroke-linejoin="round" stroke-miterlimit="10" x1="178.093" y1="11.16" x2="175.093" y2="11.16"/>
	
		<line fill="none" stroke="#000000" stroke-width="0.5" stroke-linejoin="round" stroke-miterlimit="10" x1="178.093" y1="23.16" x2="175.093" y2="23.16"/>
	
		<line fill="none" stroke="#000000" stroke-width="0.5" stroke-linejoin="round" stroke-miterlimit="10" x1="178.093" y1="35.16" x2="175.093" y2="35.16"/>
	
		<line fill="none" stroke="#000000" stroke-width="0.5" stroke-linejoin="round" stroke-miterlimit="10" x1="178.093" y1="47.16" x2="175.093" y2="47.16"/>
	
		<line fill="none" stroke="#000000" stroke-width="0.5" stroke-linejoin="round" stroke-miterlimit="10" x1="178.093" y1="59.16" x2="175.093" y2="59.16"/>
	
		<line fill="none" stroke="#000000" stroke-width="0.5" stroke-linejoin="round" stroke-miterlimit="10" x1="178.093" y1="71.16" x2="175.093" y2="71.16"/>
	
		<line fill="none" stroke="#000000" stroke-width="0.5" stroke-linejoin="round" stroke-miterlimit="10" x1="178.093" y1="83.16" x2="175.093" y2="83.16"/>
	
		<line fill="none" stroke="#000000" stroke-width="0.5" stroke-linejoin="round" stroke-miterlimit="10" x1="178.093" y1="95.16" x2="175.093" y2="95.16"/>
</g>
</svg>