<svg xmlns="http://www.w3.org/2000/svg" xmlns:xlink="http://www.w3.org/1999/xlink" version="1.1" x="0px" y="0px" width="295.907px" height="147.586px" viewBox="0 0 295.907 147.586" enable-background="new 0 0 295.907 147.586" xml:space="preserve">
<g id="wide" display="none">
</g>
<g id="text_column">
</g>
<g id="art">
	
		<line fill="none" stroke="#A7A9AC" stroke-width="0.5" stroke-linejoin="round" stroke-miterlimit="10" x1="14.405" y1="18.974" x2="284.405" y2="18.974"/>
	
		<line fill="none" stroke="#A7A9AC" stroke-width="0.5" stroke-linejoin="round" stroke-miterlimit="10" x1="14.405" y1="35.471" x2="284.405" y2="35.471"/>
	
		<line fill="none" stroke="#A7A9AC" stroke-width="0.5" stroke-linejoin="round" stroke-miterlimit="10" x1="14.405" y1="51.969" x2="284.405" y2="51.969"/>
	
		<line fill="none" stroke="#A7A9AC" stroke-width="0.5" stroke-linejoin="round" stroke-miterlimit="10" x1="14.405" y1="68.467" x2="284.405" y2="68.467"/>
	
		<line fill="none" stroke="#A7A9AC" stroke-width="0.5" stroke-linejoin="round" stroke-miterlimit="10" x1="14.405" y1="84.965" x2="284.405" y2="84.965"/>
	
		<line fill="none" stroke="#A7A9AC" stroke-width="0.5" stroke-linejoin="round" stroke-miterlimit="10" x1="14.405" y1="101.463" x2="284.405" y2="101.463"/>
	
		<line fill="none" stroke="#A7A9AC" stroke-width="0.5" stroke-linejoin="round" stroke-miterlimit="10" x1="14.405" y1="117.96" x2="284.405" y2="117.96"/>
	
		<line fill="none" stroke="#000000" stroke-width="0.5" stroke-linejoin="round" stroke-miterlimit="10" x1="14.481" y1="134.458" x2="284.405" y2="134.458"/>
	<g>
		<path d="M1.728,5.373C0.712,5.373,0.016,4.422,0,2.702C0,0.951,0.76,0,1.815,0c1.087,0,1.719,0.976,1.719,2.631    c0,1.767-0.664,2.742-1.799,2.742H1.728z M1.767,4.829c0.712,0,1.056-0.839,1.056-2.167c0-1.279-0.32-2.118-1.056-2.118    c-0.64,0-1.055,0.815-1.055,2.118c-0.016,1.352,0.4,2.167,1.047,2.167H1.767z"/>
		<path d="M4.696,5.373c-0.272,0-0.463-0.216-0.463-0.504c0-0.287,0.2-0.504,0.479-0.504s0.472,0.208,0.472,0.504    c0,0.288-0.192,0.504-0.479,0.504H4.696z"/>
		<path d="M7.575,0c1.007,0,1.519,0.624,1.519,1.279c0,0.439-0.224,0.92-0.864,1.216v0.023c0.648,0.256,1.048,0.72,1.048,1.344    c0,0.911-0.776,1.511-1.767,1.511c-1.087,0-1.743-0.64-1.743-1.399c0-0.655,0.392-1.127,1.023-1.399V2.551    C6.208,2.279,5.96,1.831,5.96,1.383C5.96,0.56,6.655,0,7.567,0H7.575z M7.527,4.861c0.632,0,1.04-0.392,1.04-0.928    c0-0.623-0.439-0.936-1.144-1.135C6.815,2.975,6.488,3.382,6.488,3.878c-0.024,0.52,0.375,0.983,1.031,0.983H7.527z M7.535,0.504    c-0.584,0-0.904,0.384-0.904,0.831c-0.008,0.521,0.392,0.8,0.992,0.96c0.448-0.152,0.792-0.472,0.792-0.943    c0-0.416-0.248-0.848-0.872-0.848H7.535z"/>
		<path d="M1.728,21.873c-1.016,0-1.711-0.951-1.728-2.671C0,17.451,0.76,16.5,1.815,16.5c1.087,0,1.719,0.976,1.719,2.631    c0,1.767-0.664,2.742-1.799,2.742H1.728z M1.767,21.329c0.712,0,1.056-0.839,1.056-2.167c0-1.279-0.32-2.118-1.056-2.118    c-0.64,0-1.055,0.815-1.055,2.118c-0.016,1.352,0.4,2.167,1.047,2.167H1.767z"/>
		<path d="M4.696,21.873c-0.272,0-0.463-0.216-0.463-0.504c0-0.287,0.2-0.504,0.479-0.504s0.472,0.208,0.472,0.504    c0,0.288-0.192,0.504-0.479,0.504H4.696z"/>
		<path d="M9.206,16.588v0.464l-2.263,4.733h-0.72l2.247-4.598v-0.016H5.928v-0.584H9.206z"/>
		<path d="M1.728,38.373c-1.016,0-1.711-0.951-1.728-2.671C0,33.951,0.76,33,1.815,33c1.087,0,1.719,0.976,1.719,2.631    c0,1.767-0.664,2.742-1.799,2.742H1.728z M1.767,37.829c0.712,0,1.056-0.839,1.056-2.167c0-1.279-0.32-2.118-1.056-2.118    c-0.64,0-1.055,0.815-1.055,2.118c-0.016,1.352,0.4,2.167,1.047,2.167H1.767z"/>
		<path d="M4.696,38.373c-0.272,0-0.463-0.216-0.463-0.504c0-0.287,0.2-0.504,0.479-0.504s0.472,0.208,0.472,0.504    c0,0.288-0.192,0.504-0.479,0.504H4.696z"/>
		<path d="M8.798,33.584c-0.144-0.008-0.328,0.008-0.528,0.04C7.159,33.8,6.583,34.6,6.464,35.463h0.016    c0.248-0.336,0.688-0.607,1.264-0.607c0.919,0,1.567,0.671,1.567,1.679c0,0.959-0.647,1.839-1.735,1.839    c-1.104,0-1.831-0.863-1.831-2.215c0-1.023,0.36-1.831,0.879-2.343c0.432-0.424,1.007-0.688,1.663-0.768    c0.208-0.032,0.384-0.04,0.512-0.04V33.584z M7.591,37.829c0.6,0,1.008-0.503,1.008-1.247c0-0.743-0.424-1.191-1.072-1.191    c-0.423,0-0.823,0.256-1.015,0.64c-0.04,0.08-0.072,0.176-0.072,0.304c0.008,0.855,0.408,1.495,1.144,1.495H7.591z"/>
		<path d="M1.728,54.873c-1.016,0-1.711-0.951-1.728-2.671C0,50.451,0.76,49.5,1.815,49.5c1.087,0,1.719,0.976,1.719,2.631    c0,1.767-0.664,2.742-1.799,2.742H1.728z M1.767,54.329c0.712,0,1.056-0.839,1.056-2.167c0-1.279-0.32-2.118-1.056-2.118    c-0.64,0-1.055,0.815-1.055,2.118c-0.016,1.352,0.4,2.167,1.047,2.167H1.767z"/>
		<path d="M4.696,54.873c-0.272,0-0.463-0.216-0.463-0.504c0-0.287,0.2-0.504,0.479-0.504s0.472,0.208,0.472,0.504    c0,0.288-0.192,0.504-0.479,0.504H4.696z"/>
		<path d="M8.934,50.18H6.951l-0.2,1.335c0.12-0.016,0.232-0.031,0.424-0.031c0.408,0,0.799,0.088,1.119,0.279    c0.408,0.224,0.744,0.68,0.744,1.335c0,1.016-0.808,1.775-1.935,1.775c-0.568,0-1.04-0.16-1.295-0.319l0.176-0.536    c0.216,0.128,0.64,0.288,1.12,0.288c0.655,0,1.231-0.432,1.223-1.136c0-0.663-0.456-1.144-1.487-1.144    c-0.304,0-0.536,0.024-0.728,0.057l0.336-2.495h2.486V50.18z"/>
		<path d="M1.728,71.373c-1.016,0-1.711-0.951-1.728-2.671C0,66.951,0.76,66,1.815,66c1.087,0,1.719,0.976,1.719,2.631    c0,1.767-0.664,2.742-1.799,2.742H1.728z M1.767,70.829c0.712,0,1.056-0.839,1.056-2.167c0-1.279-0.32-2.118-1.056-2.118    c-0.64,0-1.055,0.815-1.055,2.118c-0.016,1.352,0.4,2.167,1.047,2.167H1.767z"/>
		<path d="M4.696,71.373c-0.272,0-0.463-0.216-0.463-0.504c0-0.287,0.2-0.504,0.479-0.504s0.472,0.208,0.472,0.504    c0,0.288-0.192,0.504-0.479,0.504H4.696z"/>
		<path d="M8.007,71.285v-1.423H5.592v-0.456l2.318-3.318h0.76v3.23h0.728v0.544H8.67v1.423H8.007z M8.007,69.318v-1.735    c0-0.271,0.008-0.544,0.024-0.815H8.007c-0.16,0.304-0.288,0.527-0.432,0.768l-1.271,1.768v0.016H8.007z"/>
		<path d="M1.728,87.873c-1.016,0-1.711-0.951-1.728-2.671C0,83.451,0.76,82.5,1.815,82.5c1.087,0,1.719,0.976,1.719,2.631    c0,1.767-0.664,2.742-1.799,2.742H1.728z M1.767,87.329c0.712,0,1.056-0.839,1.056-2.167c0-1.279-0.32-2.118-1.056-2.118    c-0.64,0-1.055,0.815-1.055,2.118c-0.016,1.352,0.4,2.167,1.047,2.167H1.767z"/>
		<path d="M4.696,87.873c-0.272,0-0.463-0.216-0.463-0.504c0-0.287,0.2-0.504,0.479-0.504s0.472,0.208,0.472,0.504    c0,0.288-0.192,0.504-0.479,0.504H4.696z"/>
		<path d="M6,86.985c0.2,0.12,0.655,0.32,1.151,0.32c0.896,0,1.183-0.568,1.175-1.008c-0.008-0.728-0.664-1.039-1.343-1.039H6.592    V84.73h0.392c0.512,0,1.159-0.264,1.159-0.879c0-0.416-0.264-0.784-0.911-0.784c-0.416,0-0.816,0.185-1.04,0.344L6,82.899    C6.28,82.7,6.808,82.5,7.367,82.5c1.023,0,1.487,0.607,1.487,1.239c0,0.544-0.328,1-0.959,1.231v0.016    c0.64,0.12,1.159,0.6,1.159,1.328c0,0.831-0.656,1.559-1.895,1.559c-0.583,0-1.095-0.184-1.351-0.352L6,86.985z"/>
		<path d="M1.728,104.373c-1.016,0-1.711-0.951-1.728-2.671C0,99.951,0.76,99,1.815,99c1.087,0,1.719,0.976,1.719,2.631    c0,1.767-0.664,2.742-1.799,2.742H1.728z M1.767,103.829c0.712,0,1.056-0.839,1.056-2.167c0-1.279-0.32-2.118-1.056-2.118    c-0.64,0-1.055,0.815-1.055,2.118c-0.016,1.352,0.4,2.167,1.047,2.167H1.767z"/>
		<path d="M4.696,104.373c-0.272,0-0.463-0.216-0.463-0.504c0-0.287,0.2-0.504,0.479-0.504s0.472,0.208,0.472,0.504    c0,0.288-0.192,0.504-0.479,0.504H4.696z"/>
		<path d="M5.832,104.285v-0.432l0.552-0.536c1.327-1.263,1.935-1.935,1.935-2.718c0-0.528-0.248-1.016-1.023-1.016    c-0.472,0-0.863,0.239-1.103,0.439l-0.224-0.496C6.32,99.232,6.839,99,7.439,99c1.111,0,1.583,0.768,1.583,1.512    c0,0.959-0.696,1.734-1.791,2.79l-0.408,0.384v0.016H9.15v0.584H5.832z"/>
		<path d="M1.728,120.873c-1.016,0-1.711-0.951-1.728-2.671c0-1.751,0.76-2.702,1.815-2.702c1.087,0,1.719,0.976,1.719,2.631    c0,1.767-0.664,2.742-1.799,2.742H1.728z M1.767,120.329c0.712,0,1.056-0.839,1.056-2.167c0-1.279-0.32-2.118-1.056-2.118    c-0.64,0-1.055,0.815-1.055,2.118c-0.016,1.352,0.4,2.167,1.047,2.167H1.767z"/>
		<path d="M4.696,120.873c-0.272,0-0.463-0.216-0.463-0.504c0-0.287,0.2-0.504,0.479-0.504s0.472,0.208,0.472,0.504    c0,0.288-0.192,0.504-0.479,0.504H4.696z"/>
		<path d="M7.359,116.244H7.343l-0.904,0.487l-0.136-0.536l1.135-0.607h0.6v5.197H7.359V116.244z"/>
		<path d="M1.728,137.373c-1.016,0-1.711-0.951-1.728-2.671C0,132.951,0.76,132,1.815,132c1.087,0,1.719,0.976,1.719,2.631    c0,1.767-0.664,2.742-1.799,2.742H1.728z M1.767,136.829c0.712,0,1.056-0.839,1.056-2.167c0-1.279-0.32-2.118-1.056-2.118    c-0.64,0-1.055,0.815-1.055,2.118c-0.016,1.352,0.4,2.167,1.047,2.167H1.767z"/>
		<path d="M4.696,137.373c-0.272,0-0.463-0.216-0.463-0.504c0-0.287,0.2-0.504,0.479-0.504s0.472,0.208,0.472,0.504    c0,0.288-0.192,0.504-0.479,0.504H4.696z"/>
		<path d="M7.487,137.373c-1.016,0-1.711-0.951-1.728-2.671c0-1.751,0.76-2.702,1.815-2.702c1.087,0,1.719,0.976,1.719,2.631    c0,1.767-0.664,2.742-1.799,2.742H7.487z M7.527,136.829c0.712,0,1.056-0.839,1.056-2.167c0-1.279-0.32-2.118-1.056-2.118    c-0.64,0-1.055,0.815-1.055,2.118c-0.016,1.352,0.4,2.167,1.047,2.167H7.527z"/>
	</g>
	<g>
		<path d="M5.185,140.526h0.704v3.605c0,1.432-0.704,1.871-1.631,1.871c-0.264,0-0.576-0.056-0.744-0.128l0.096-0.567    c0.144,0.056,0.352,0.104,0.592,0.104c0.624,0,0.983-0.279,0.983-1.335V140.526z"/>
		<path d="M9.751,144.987c0,0.336,0.016,0.664,0.056,0.928H9.176l-0.064-0.487H9.088c-0.208,0.304-0.631,0.575-1.183,0.575    c-0.784,0-1.184-0.552-1.184-1.111c0-0.936,0.832-1.447,2.327-1.439v-0.08c0-0.319-0.088-0.903-0.879-0.896    c-0.368,0-0.744,0.104-1.016,0.288l-0.16-0.472c0.32-0.2,0.792-0.336,1.279-0.336c1.191,0,1.479,0.808,1.479,1.583V144.987z     M9.064,143.94c-0.768-0.017-1.639,0.12-1.639,0.871c0,0.464,0.304,0.672,0.656,0.672c0.512,0,0.839-0.32,0.951-0.647    c0.024-0.072,0.032-0.152,0.032-0.225V143.94z"/>
		<path d="M10.881,143.093c0-0.408-0.008-0.728-0.032-1.048h0.624l0.04,0.632h0.016c0.192-0.359,0.64-0.72,1.279-0.72    c0.536,0,1.367,0.32,1.367,1.647v2.311h-0.704v-2.23c0-0.624-0.232-1.151-0.896-1.151c-0.456,0-0.815,0.327-0.943,0.72    c-0.032,0.088-0.048,0.216-0.048,0.327v2.335h-0.704V143.093z"/>
		<path d="M16.952,143.5v0.512h-1.975V143.5H16.952z"/>
		<path d="M19.081,141.373h-0.016l-0.904,0.488l-0.136-0.536l1.135-0.607h0.6v5.197h-0.679V141.373z"/>
		<path d="M24.624,141.214c-0.144-0.008-0.328,0.008-0.528,0.04c-1.111,0.176-1.687,0.976-1.807,1.839h0.016    c0.248-0.336,0.688-0.607,1.263-0.607c0.92,0,1.567,0.671,1.567,1.679c0,0.959-0.647,1.839-1.735,1.839    c-1.104,0-1.831-0.863-1.831-2.215c0-1.023,0.36-1.831,0.879-2.343c0.432-0.424,1.007-0.688,1.663-0.768    c0.208-0.032,0.384-0.04,0.512-0.04V141.214z M23.416,145.459c0.6,0,1.008-0.504,1.008-1.247s-0.424-1.191-1.072-1.191    c-0.424,0-0.823,0.256-1.015,0.64c-0.04,0.08-0.072,0.176-0.072,0.304c0.008,0.855,0.408,1.495,1.144,1.495H23.416z"/>
	</g>
	<g>
		<path d="M37.446,144.22l-0.56,1.695h-0.72l1.831-5.389h0.84l1.839,5.389h-0.744l-0.576-1.695H37.446z M39.213,143.676    l-0.536-1.551c-0.112-0.352-0.192-0.672-0.272-0.983h-0.024c-0.072,0.312-0.16,0.647-0.264,0.976l-0.528,1.559H39.213z"/>
		<path d="M44.685,144.852c0,0.408,0.008,0.76,0.032,1.063h-0.624l-0.04-0.632h-0.016c-0.176,0.312-0.592,0.72-1.279,0.72    c-0.608,0-1.335-0.344-1.335-1.695v-2.263h0.704v2.135c0,0.736,0.232,1.239,0.864,1.239c0.472,0,0.799-0.327,0.927-0.647    c0.04-0.096,0.064-0.224,0.064-0.359v-2.367h0.704V144.852z"/>
		<path d="M49.165,145.348c0,0.896-0.184,1.431-0.552,1.774c-0.384,0.344-0.928,0.464-1.416,0.464c-0.463,0-0.975-0.111-1.287-0.319    l0.176-0.544c0.256,0.168,0.656,0.312,1.136,0.312c0.719,0,1.247-0.376,1.247-1.359v-0.424h-0.016    c-0.208,0.36-0.631,0.648-1.231,0.648c-0.96,0-1.647-0.815-1.647-1.896c0-1.312,0.855-2.047,1.751-2.047    c0.672,0,1.032,0.344,1.208,0.672h0.016l0.024-0.584h0.624c-0.024,0.272-0.032,0.592-0.032,1.056V145.348z M48.461,143.564    c0-0.112-0.008-0.216-0.04-0.312c-0.128-0.416-0.464-0.752-0.983-0.752c-0.672,0-1.151,0.567-1.151,1.471    c0,0.752,0.392,1.392,1.143,1.392c0.44,0,0.832-0.271,0.976-0.728c0.04-0.112,0.056-0.248,0.056-0.376V143.564z"/>
		<path d="M51.958,143.5v0.512h-1.975V143.5H51.958z"/>
		<path d="M54.086,141.373H54.07l-0.904,0.488l-0.136-0.536l1.135-0.607h0.6v5.197h-0.679V141.373z"/>
		<path d="M59.629,141.214c-0.144-0.008-0.328,0.008-0.528,0.04c-1.111,0.176-1.687,0.976-1.807,1.839h0.016    c0.248-0.336,0.688-0.607,1.263-0.607c0.92,0,1.567,0.671,1.567,1.679c0,0.959-0.647,1.839-1.735,1.839    c-1.104,0-1.831-0.863-1.831-2.215c0-1.023,0.36-1.831,0.879-2.343c0.432-0.424,1.007-0.688,1.663-0.768    c0.208-0.032,0.384-0.04,0.512-0.04V141.214z M58.421,145.459c0.6,0,1.008-0.504,1.008-1.247s-0.424-1.191-1.072-1.191    c-0.424,0-0.823,0.256-1.015,0.64c-0.04,0.08-0.072,0.176-0.072,0.304c0.008,0.855,0.408,1.495,1.144,1.495H58.421z"/>
	</g>
	<g>
		<path d="M75.298,143.549c-0.04-0.744-0.088-1.664-0.088-2.327h-0.016c-0.192,0.624-0.408,1.312-0.68,2.047l-0.952,2.614h-0.528    l-0.879-2.566c-0.256-0.76-0.464-1.455-0.616-2.095h-0.016c-0.016,0.672-0.056,1.575-0.104,2.383l-0.144,2.311h-0.664l0.375-5.389    h0.888l0.919,2.606c0.224,0.663,0.4,1.263,0.544,1.822h0.016c0.144-0.543,0.336-1.143,0.576-1.822l0.959-2.606h0.888l0.336,5.389    h-0.688L75.298,143.549z"/>
		<path d="M79.89,144.987c0,0.336,0.016,0.664,0.056,0.928h-0.632l-0.064-0.487h-0.024c-0.208,0.304-0.632,0.575-1.183,0.575    c-0.784,0-1.184-0.552-1.184-1.111c0-0.936,0.832-1.447,2.327-1.439v-0.08c0-0.319-0.088-0.903-0.879-0.896    c-0.368,0-0.744,0.104-1.016,0.288l-0.16-0.472c0.32-0.2,0.792-0.336,1.279-0.336c1.191,0,1.479,0.808,1.479,1.583V144.987z     M79.203,143.94c-0.768-0.017-1.639,0.12-1.639,0.871c0,0.464,0.304,0.672,0.656,0.672c0.512,0,0.839-0.32,0.952-0.647    c0.024-0.072,0.032-0.152,0.032-0.225V143.94z"/>
		<path d="M81.02,143.253c0-0.456-0.008-0.848-0.032-1.208h0.616l0.032,0.76h0.024c0.176-0.52,0.608-0.848,1.08-0.848    c0.072,0,0.128,0.008,0.192,0.017v0.663c-0.072-0.008-0.144-0.016-0.24-0.016c-0.496,0-0.848,0.376-0.943,0.896    c-0.016,0.104-0.024,0.216-0.024,0.327v2.071H81.02V143.253z"/>
		<path d="M85.267,143.5v0.512h-1.975V143.5H85.267z"/>
		<path d="M87.396,141.373h-0.016l-0.904,0.488l-0.136-0.536l1.135-0.607h0.6v5.197h-0.679V141.373z"/>
		<path d="M93.346,140.718v0.464l-2.263,4.733h-0.72l2.247-4.598v-0.016h-2.543v-0.584H93.346z"/>
	</g>
	<g>
		<path d="M109.043,143.549c-0.04-0.744-0.088-1.664-0.088-2.327h-0.016c-0.192,0.624-0.408,1.312-0.68,2.047l-0.952,2.614h-0.528    l-0.879-2.566c-0.256-0.76-0.464-1.455-0.616-2.095h-0.016c-0.016,0.672-0.056,1.575-0.104,2.383l-0.144,2.311h-0.664l0.375-5.389    h0.888l0.919,2.606c0.224,0.663,0.4,1.263,0.544,1.822h0.016c0.144-0.543,0.336-1.143,0.576-1.822l0.959-2.606h0.888l0.336,5.389    h-0.688L109.043,143.549z"/>
		<path d="M113.635,144.987c0,0.336,0.016,0.664,0.056,0.928h-0.632l-0.064-0.487h-0.024c-0.208,0.304-0.632,0.575-1.183,0.575    c-0.784,0-1.184-0.552-1.184-1.111c0-0.936,0.832-1.447,2.327-1.439v-0.08c0-0.319-0.088-0.903-0.879-0.896    c-0.368,0-0.744,0.104-1.016,0.288l-0.16-0.472c0.32-0.2,0.792-0.336,1.279-0.336c1.191,0,1.479,0.808,1.479,1.583V144.987z     M112.948,143.94c-0.768-0.017-1.639,0.12-1.639,0.871c0,0.464,0.304,0.672,0.656,0.672c0.512,0,0.839-0.32,0.952-0.647    c0.024-0.072,0.032-0.152,0.032-0.225V143.94z"/>
		<path d="M114.765,143.253c0-0.456-0.008-0.848-0.032-1.208h0.616l0.032,0.76h0.024c0.176-0.52,0.608-0.848,1.08-0.848    c0.072,0,0.128,0.008,0.192,0.017v0.663c-0.072-0.008-0.144-0.016-0.24-0.016c-0.496,0-0.848,0.376-0.943,0.896    c-0.016,0.104-0.024,0.216-0.024,0.327v2.071h-0.704V143.253z"/>
		<path d="M119.012,143.5v0.512h-1.975V143.5H119.012z"/>
		<path d="M121.141,141.373h-0.016l-0.904,0.488l-0.136-0.536l1.135-0.607h0.6v5.197h-0.679V141.373z"/>
		<path d="M127.091,140.718v0.464l-2.263,4.733h-0.72l2.247-4.598v-0.016h-2.543v-0.584H127.091z"/>
	</g>
	<g>
		<path d="M142.789,143.549c-0.04-0.744-0.089-1.664-0.089-2.327h-0.016c-0.191,0.624-0.407,1.312-0.68,2.047l-0.951,2.614h-0.527    l-0.88-2.566c-0.256-0.76-0.464-1.455-0.616-2.095h-0.016c-0.016,0.672-0.056,1.575-0.104,2.383l-0.145,2.311h-0.663l0.376-5.389    h0.887l0.92,2.606c0.225,0.663,0.4,1.263,0.544,1.822h0.016c0.144-0.543,0.336-1.143,0.575-1.822l0.96-2.606h0.888l0.336,5.389    h-0.688L142.789,143.549z"/>
		<path d="M147.381,144.987c0,0.336,0.016,0.664,0.056,0.928h-0.632l-0.064-0.487h-0.023c-0.208,0.304-0.632,0.575-1.184,0.575    c-0.783,0-1.184-0.552-1.184-1.111c0-0.936,0.832-1.447,2.327-1.439v-0.08c0-0.319-0.088-0.903-0.88-0.896    c-0.367,0-0.743,0.104-1.016,0.288l-0.159-0.472c0.319-0.2,0.792-0.336,1.279-0.336c1.191,0,1.479,0.808,1.479,1.583V144.987z     M146.694,143.94c-0.768-0.017-1.64,0.12-1.64,0.871c0,0.464,0.304,0.672,0.655,0.672c0.512,0,0.84-0.32,0.952-0.647    c0.024-0.072,0.032-0.152,0.032-0.225V143.94z"/>
		<path d="M148.51,143.253c0-0.456-0.008-0.848-0.031-1.208h0.615l0.032,0.76h0.024c0.176-0.52,0.607-0.848,1.079-0.848    c0.071,0,0.128,0.008,0.192,0.017v0.663c-0.072-0.008-0.145-0.016-0.24-0.016c-0.496,0-0.848,0.376-0.943,0.896    c-0.016,0.104-0.024,0.216-0.024,0.327v2.071h-0.704V143.253z"/>
		<path d="M152.758,143.5v0.512h-1.976V143.5H152.758z"/>
		<path d="M154.886,141.373h-0.017l-0.903,0.488l-0.136-0.536l1.135-0.607h0.6v5.197h-0.679V141.373z"/>
		<path d="M159.206,140.63c1.008,0,1.52,0.624,1.52,1.279c0,0.439-0.225,0.92-0.863,1.216v0.023c0.647,0.256,1.047,0.72,1.047,1.344    c0,0.911-0.775,1.511-1.767,1.511c-1.087,0-1.743-0.64-1.743-1.399c0-0.655,0.392-1.127,1.023-1.399v-0.023    c-0.584-0.272-0.832-0.72-0.832-1.167c0-0.824,0.696-1.384,1.607-1.384H159.206z M159.158,145.491c0.632,0,1.04-0.392,1.04-0.928    c0-0.623-0.44-0.936-1.144-1.135c-0.608,0.176-0.936,0.583-0.936,1.079c-0.024,0.52,0.376,0.983,1.031,0.983H159.158z     M159.167,141.134c-0.584,0-0.904,0.384-0.904,0.831c-0.008,0.521,0.393,0.8,0.992,0.96c0.447-0.152,0.791-0.472,0.791-0.943    c0-0.416-0.248-0.848-0.871-0.848H159.167z"/>
	</g>
	<g>
		<path d="M176.534,143.549c-0.039-0.744-0.088-1.664-0.088-2.327h-0.016c-0.191,0.624-0.408,1.312-0.68,2.047l-0.951,2.614h-0.528    l-0.88-2.566c-0.256-0.76-0.463-1.455-0.615-2.095h-0.016c-0.016,0.672-0.057,1.575-0.104,2.383l-0.145,2.311h-0.664l0.376-5.389    h0.888l0.92,2.606c0.224,0.663,0.399,1.263,0.543,1.822h0.016c0.145-0.543,0.336-1.143,0.576-1.822l0.959-2.606h0.889l0.336,5.389    h-0.688L176.534,143.549z"/>
		<path d="M181.126,144.987c0,0.336,0.017,0.664,0.056,0.928h-0.631l-0.064-0.487h-0.023c-0.209,0.304-0.633,0.575-1.184,0.575    c-0.783,0-1.184-0.552-1.184-1.111c0-0.936,0.832-1.447,2.326-1.439v-0.08c0-0.319-0.088-0.903-0.879-0.896    c-0.367,0-0.744,0.104-1.016,0.288l-0.16-0.472c0.32-0.2,0.792-0.336,1.279-0.336c1.191,0,1.479,0.808,1.479,1.583V144.987z     M180.439,143.94c-0.768-0.017-1.64,0.12-1.64,0.871c0,0.464,0.305,0.672,0.656,0.672c0.512,0,0.84-0.32,0.951-0.647    c0.024-0.072,0.032-0.152,0.032-0.225V143.94z"/>
		<path d="M182.256,143.253c0-0.456-0.008-0.848-0.031-1.208h0.615l0.031,0.76h0.024c0.177-0.52,0.608-0.848,1.079-0.848    c0.072,0,0.129,0.008,0.192,0.017v0.663c-0.071-0.008-0.144-0.016-0.239-0.016c-0.496,0-0.848,0.376-0.943,0.896    c-0.017,0.104-0.025,0.216-0.025,0.327v2.071h-0.703V143.253z"/>
		<path d="M186.503,143.5v0.512h-1.976V143.5H186.503z"/>
		<path d="M188.631,141.373h-0.016l-0.904,0.488l-0.135-0.536l1.135-0.607h0.6v5.197h-0.68V141.373z"/>
		<path d="M192.952,140.63c1.008,0,1.52,0.624,1.52,1.279c0,0.439-0.225,0.92-0.864,1.216v0.023c0.647,0.256,1.048,0.72,1.048,1.344    c0,0.911-0.775,1.511-1.768,1.511c-1.087,0-1.742-0.64-1.742-1.399c0-0.655,0.391-1.127,1.023-1.399v-0.023    c-0.584-0.272-0.832-0.72-0.832-1.167c0-0.824,0.695-1.384,1.607-1.384H192.952z M192.903,145.491c0.633,0,1.04-0.392,1.04-0.928    c0-0.623-0.44-0.936-1.144-1.135c-0.607,0.176-0.936,0.583-0.936,1.079c-0.023,0.52,0.376,0.983,1.031,0.983H192.903z     M192.912,141.134c-0.584,0-0.903,0.384-0.903,0.831c-0.008,0.521,0.392,0.8,0.991,0.96c0.448-0.152,0.792-0.472,0.792-0.943    c0-0.416-0.248-0.848-0.872-0.848H192.912z"/>
	</g>
	<g>
		<path d="M210.28,143.549c-0.04-0.744-0.088-1.664-0.088-2.327h-0.016c-0.192,0.624-0.408,1.312-0.68,2.047l-0.952,2.614h-0.528    l-0.879-2.566c-0.256-0.76-0.464-1.455-0.615-2.095h-0.017c-0.016,0.672-0.056,1.575-0.104,2.383l-0.144,2.311h-0.664l0.375-5.389    h0.889l0.919,2.606c0.224,0.663,0.399,1.263,0.544,1.822h0.016c0.145-0.543,0.336-1.143,0.576-1.822l0.959-2.606h0.888    l0.336,5.389h-0.688L210.28,143.549z"/>
		<path d="M214.872,144.987c0,0.336,0.017,0.664,0.057,0.928h-0.632l-0.063-0.487h-0.024c-0.208,0.304-0.632,0.575-1.183,0.575    c-0.784,0-1.184-0.552-1.184-1.111c0-0.936,0.831-1.447,2.326-1.439v-0.08c0-0.319-0.088-0.903-0.879-0.896    c-0.368,0-0.744,0.104-1.016,0.288l-0.16-0.472c0.32-0.2,0.791-0.336,1.279-0.336c1.191,0,1.479,0.808,1.479,1.583V144.987z     M214.184,143.94c-0.768-0.017-1.639,0.12-1.639,0.871c0,0.464,0.304,0.672,0.656,0.672c0.512,0,0.839-0.32,0.951-0.647    c0.023-0.072,0.031-0.152,0.031-0.225V143.94z"/>
		<path d="M216.002,143.253c0-0.456-0.008-0.848-0.032-1.208h0.616l0.031,0.76h0.023c0.177-0.52,0.608-0.848,1.08-0.848    c0.072,0,0.128,0.008,0.191,0.017v0.663c-0.071-0.008-0.144-0.016-0.239-0.016c-0.496,0-0.848,0.376-0.943,0.896    c-0.017,0.104-0.024,0.216-0.024,0.327v2.071h-0.703V143.253z"/>
		<path d="M220.249,143.5v0.512h-1.975V143.5H220.249z"/>
		<path d="M222.377,141.373h-0.016l-0.904,0.488l-0.136-0.536l1.136-0.607h0.6v5.197h-0.68V141.373z"/>
		<path d="M225.362,145.419c0.152,0.009,0.328,0,0.568-0.031c0.407-0.048,0.791-0.216,1.087-0.496    c0.344-0.319,0.591-0.768,0.688-1.383h-0.024c-0.287,0.352-0.703,0.56-1.23,0.56c-0.936,0-1.535-0.704-1.535-1.6    c0-0.976,0.719-1.839,1.783-1.839c1.062,0,1.719,0.855,1.719,2.19c0,1.144-0.385,1.943-0.896,2.439    c-0.399,0.384-0.951,0.631-1.511,0.695c-0.256,0.032-0.487,0.048-0.647,0.04V145.419z M226.633,141.166    c-0.592,0-1.016,0.527-1.016,1.263c0,0.647,0.392,1.104,1,1.104c0.471,0,0.839-0.231,1.031-0.544    c0.031-0.063,0.056-0.144,0.056-0.256c0.008-0.896-0.328-1.566-1.063-1.566H226.633z"/>
	</g>
	<g>
		<path d="M244.025,143.549c-0.04-0.744-0.089-1.664-0.089-2.327h-0.016c-0.191,0.624-0.407,1.312-0.68,2.047l-0.951,2.614h-0.527    l-0.88-2.566c-0.256-0.76-0.464-1.455-0.616-2.095h-0.016c-0.016,0.672-0.056,1.575-0.104,2.383l-0.145,2.311h-0.663l0.376-5.389    h0.887l0.92,2.606c0.225,0.663,0.4,1.263,0.544,1.822h0.016c0.144-0.543,0.336-1.143,0.575-1.822l0.96-2.606h0.888l0.336,5.389    h-0.688L244.025,143.549z"/>
		<path d="M248.618,144.987c0,0.336,0.016,0.664,0.056,0.928h-0.632l-0.064-0.487h-0.023c-0.208,0.304-0.632,0.575-1.184,0.575    c-0.783,0-1.184-0.552-1.184-1.111c0-0.936,0.832-1.447,2.327-1.439v-0.08c0-0.319-0.088-0.903-0.88-0.896    c-0.367,0-0.743,0.104-1.016,0.288l-0.159-0.472c0.319-0.2,0.792-0.336,1.279-0.336c1.191,0,1.479,0.808,1.479,1.583V144.987z     M247.93,143.94c-0.768-0.017-1.64,0.12-1.64,0.871c0,0.464,0.304,0.672,0.655,0.672c0.512,0,0.84-0.32,0.952-0.647    c0.024-0.072,0.032-0.152,0.032-0.225V143.94z"/>
		<path d="M249.747,143.253c0-0.456-0.008-0.848-0.031-1.208h0.615l0.032,0.76h0.024c0.176-0.52,0.607-0.848,1.079-0.848    c0.071,0,0.128,0.008,0.192,0.017v0.663c-0.072-0.008-0.145-0.016-0.24-0.016c-0.496,0-0.848,0.376-0.943,0.896    c-0.016,0.104-0.024,0.216-0.024,0.327v2.071h-0.704V143.253z"/>
		<path d="M253.995,143.5v0.512h-1.976V143.5H253.995z"/>
		<path d="M256.123,141.373h-0.017l-0.903,0.488l-0.136-0.536l1.135-0.607h0.6v5.197h-0.679V141.373z"/>
		<path d="M259.107,145.419c0.151,0.009,0.327,0,0.567-0.031c0.408-0.048,0.792-0.216,1.088-0.496    c0.344-0.319,0.592-0.768,0.688-1.383h-0.023c-0.289,0.352-0.704,0.56-1.232,0.56c-0.936,0-1.535-0.704-1.535-1.6    c0-0.976,0.721-1.839,1.783-1.839c1.063,0,1.719,0.855,1.719,2.19c0,1.144-0.383,1.943-0.895,2.439    c-0.4,0.384-0.951,0.631-1.512,0.695c-0.256,0.032-0.487,0.048-0.647,0.04V145.419z M260.378,141.166    c-0.592,0-1.016,0.527-1.016,1.263c0,0.647,0.392,1.104,0.999,1.104c0.473,0,0.84-0.231,1.031-0.544    c0.033-0.063,0.057-0.144,0.057-0.256c0.008-0.896-0.328-1.566-1.063-1.566H260.378z"/>
	</g>
	<g>
		<path d="M277.77,143.549c-0.039-0.744-0.088-1.664-0.088-2.327h-0.016c-0.191,0.624-0.408,1.312-0.68,2.047l-0.951,2.614h-0.528    l-0.88-2.566c-0.256-0.76-0.463-1.455-0.615-2.095h-0.016c-0.016,0.672-0.057,1.575-0.104,2.383l-0.145,2.311h-0.664l0.376-5.389    h0.888l0.92,2.606c0.224,0.663,0.399,1.263,0.543,1.822h0.016c0.145-0.543,0.336-1.143,0.576-1.822l0.959-2.606h0.889l0.336,5.389    h-0.688L277.77,143.549z"/>
		<path d="M282.363,144.987c0,0.336,0.017,0.664,0.056,0.928h-0.631l-0.064-0.487H281.7c-0.209,0.304-0.633,0.575-1.184,0.575    c-0.783,0-1.184-0.552-1.184-1.111c0-0.936,0.832-1.447,2.326-1.439v-0.08c0-0.319-0.088-0.903-0.879-0.896    c-0.367,0-0.744,0.104-1.016,0.288l-0.16-0.472c0.32-0.2,0.792-0.336,1.279-0.336c1.191,0,1.479,0.808,1.479,1.583V144.987z     M281.675,143.94c-0.768-0.017-1.64,0.12-1.64,0.871c0,0.464,0.305,0.672,0.656,0.672c0.512,0,0.84-0.32,0.951-0.647    c0.024-0.072,0.032-0.152,0.032-0.225V143.94z"/>
		<path d="M283.493,143.253c0-0.456-0.008-0.848-0.031-1.208h0.615l0.031,0.76h0.024c0.177-0.52,0.608-0.848,1.079-0.848    c0.072,0,0.129,0.008,0.192,0.017v0.663c-0.071-0.008-0.144-0.016-0.239-0.016c-0.496,0-0.848,0.376-0.943,0.896    c-0.017,0.104-0.025,0.216-0.025,0.327v2.071h-0.703V143.253z"/>
		<path d="M287.74,143.5v0.512h-1.976V143.5H287.74z"/>
		<path d="M288.34,145.915v-0.432l0.553-0.536c1.326-1.263,1.934-1.935,1.934-2.718c0-0.528-0.247-1.016-1.023-1.016    c-0.471,0-0.863,0.239-1.103,0.439l-0.224-0.496c0.352-0.296,0.871-0.527,1.471-0.527c1.111,0,1.584,0.768,1.584,1.511    c0,0.96-0.696,1.735-1.791,2.791l-0.408,0.384v0.016h2.326v0.584H288.34z"/>
		<path d="M294.1,146.003c-1.016,0-1.711-0.951-1.727-2.671c0-1.751,0.759-2.702,1.814-2.702c1.088,0,1.719,0.976,1.719,2.631    c0,1.767-0.664,2.742-1.799,2.742H294.1z M294.139,145.459c0.713,0,1.057-0.839,1.057-2.166c0-1.279-0.32-2.119-1.057-2.119    c-0.639,0-1.055,0.815-1.055,2.119c-0.016,1.351,0.4,2.166,1.047,2.166H294.139z"/>
	</g>
	
		<line fill="none" stroke="#000000" stroke-width="0.5" stroke-linejoin="round" stroke-miterlimit="10" x1="14.481" y1="134.458" x2="14.481" y2="2.476"/>
	
		<line fill="none" stroke="#000000" stroke-width="0.5" stroke-linejoin="round" stroke-miterlimit="10" x1="14.481" y1="18.958" x2="11.481" y2="18.958"/>
	
		<line fill="none" stroke="#000000" stroke-width="0.5" stroke-linejoin="round" stroke-miterlimit="10" x1="14.481" y1="35.458" x2="11.481" y2="35.458"/>
	
		<line fill="none" stroke="#A7A9AC" stroke-width="0.5" stroke-linejoin="round" stroke-miterlimit="10" x1="284.405" y1="2.476" x2="14.405" y2="2.476"/>
	
		<line fill="none" stroke="#000000" stroke-width="0.5" stroke-linejoin="round" stroke-miterlimit="10" x1="14.481" y1="2.458" x2="11.481" y2="2.458"/>
	
		<line fill="none" stroke="#000000" stroke-width="0.5" stroke-linejoin="round" stroke-miterlimit="10" x1="14.481" y1="51.958" x2="11.481" y2="51.958"/>
	
		<line fill="none" stroke="#000000" stroke-width="0.5" stroke-linejoin="round" stroke-miterlimit="10" x1="14.481" y1="68.458" x2="11.481" y2="68.458"/>
	
		<line fill="none" stroke="#000000" stroke-width="0.5" stroke-linejoin="round" stroke-miterlimit="10" x1="14.481" y1="84.957" x2="11.481" y2="84.957"/>
	
		<line fill="none" stroke="#000000" stroke-width="0.5" stroke-linejoin="round" stroke-miterlimit="10" x1="14.481" y1="101.457" x2="11.481" y2="101.457"/>
	
		<line fill="none" stroke="#000000" stroke-width="0.5" stroke-linejoin="round" stroke-miterlimit="10" x1="14.481" y1="117.957" x2="11.481" y2="117.957"/>
	
		<line fill="none" stroke="#000000" stroke-width="0.5" stroke-linejoin="round" stroke-miterlimit="10" x1="14.481" y1="134.458" x2="11.481" y2="134.458"/>
	
		<line fill="none" stroke="#000000" stroke-width="0.5" stroke-linejoin="round" stroke-miterlimit="10" x1="284.405" y1="134.459" x2="284.405" y2="137.459"/>
	
		<line fill="none" stroke="#000000" stroke-width="0.5" stroke-linejoin="round" stroke-miterlimit="10" x1="250.665" y1="134.459" x2="250.665" y2="137.459"/>
	
		<line fill="none" stroke="#000000" stroke-width="0.5" stroke-linejoin="round" stroke-miterlimit="10" x1="216.924" y1="134.459" x2="216.924" y2="137.459"/>
	
		<line fill="none" stroke="#000000" stroke-width="0.5" stroke-linejoin="round" stroke-miterlimit="10" x1="183.184" y1="134.459" x2="183.184" y2="137.459"/>
	
		<line fill="none" stroke="#000000" stroke-width="0.5" stroke-linejoin="round" stroke-miterlimit="10" x1="149.445" y1="134.459" x2="149.445" y2="137.459"/>
	
		<line fill="none" stroke="#000000" stroke-width="0.5" stroke-linejoin="round" stroke-miterlimit="10" x1="115.703" y1="134.459" x2="115.703" y2="137.459"/>
	
		<line fill="none" stroke="#000000" stroke-width="0.5" stroke-linejoin="round" stroke-miterlimit="10" x1="81.963" y1="134.459" x2="81.963" y2="137.459"/>
	
		<line fill="none" stroke="#000000" stroke-width="0.5" stroke-linejoin="round" stroke-miterlimit="10" x1="48.222" y1="134.459" x2="48.222" y2="137.459"/>
	
		<line fill="none" stroke="#000000" stroke-width="0.5" stroke-linejoin="round" stroke-miterlimit="10" x1="14.482" y1="134.459" x2="14.482" y2="137.459"/>
	<path fill="none" stroke="#000000" stroke-width="0.5" stroke-linejoin="round" stroke-miterlimit="10" d="M53.529,42.106h4.312    M53.529,45.792h4.312 M55.625,43.869v-1.763 M55.625,45.792v-1.923"/>
	<path fill="none" stroke="#000000" stroke-width="0.5" stroke-linejoin="round" stroke-miterlimit="10" d="M99.487,39.287h4.369    M99.487,42.739h4.369 M101.759,41.049v-1.762 M101.759,42.739v-1.69"/>
	<path fill="none" stroke="#000000" stroke-width="0.5" stroke-linejoin="round" stroke-miterlimit="10" d="M176.725,35.058h4.303    M176.725,38.873h4.303 M178.821,36.995v-1.938 M178.821,38.873v-1.878"/>
	<path fill="none" stroke="#000000" stroke-width="0.5" stroke-linejoin="round" stroke-miterlimit="10" d="M217.616,33.647h4.367    M217.616,37.349h4.367 M219.887,35.586v-1.938 M219.887,37.349v-1.763"/>
	<path fill="none" stroke="#000000" stroke-width="0.5" stroke-linejoin="round" stroke-miterlimit="10" d="M263.922,32.942h4.348    M263.922,36.291h4.348 M266.02,34.706v-1.764 M266.02,36.291v-1.585"/>
	<path fill="none" stroke="#000000" stroke-width="0.5" stroke-linejoin="round" stroke-miterlimit="10" d="M53.529,62.371h4.312    M53.529,67.654h4.312 M55.625,65.015v-2.644 M55.625,67.654v-2.64"/>
	<path fill="none" stroke="#000000" stroke-width="0.5" stroke-linejoin="round" stroke-miterlimit="10" d="M99.487,36.995h4.369    M99.487,41.577h4.369 M101.759,39.287v-2.292 M101.759,41.577v-2.29"/>
	<path fill="none" stroke="#000000" stroke-width="0.5" stroke-linejoin="round" stroke-miterlimit="10" d="M176.725,16.202h4.303    M176.725,20.945h4.303 M178.821,18.493v-2.291 M178.821,20.945v-2.452"/>
	<path fill="none" stroke="#000000" stroke-width="0.5" stroke-linejoin="round" stroke-miterlimit="10" d="M217.616,19.903h4.367    M217.616,24.251h4.367 M219.887,22.194v-2.291 M219.887,24.251v-2.057"/>
	<path fill="none" stroke="#000000" stroke-width="0.5" stroke-linejoin="round" stroke-miterlimit="10" d="M263.922,15.674h4.348    M263.922,20.08h4.348 M266.02,17.964v-2.29 M266.02,20.08v-2.116"/>
	<polyline fill="none" stroke="#000000" stroke-linejoin="round" stroke-miterlimit="10" points="55.625,43.869 101.759,41.049    178.821,36.995 219.887,35.586 266.02,34.706  "/>
	<g>
		<g>
			<line fill="none" stroke="#000000" stroke-linejoin="round" x1="55.625" y1="64.992" x2="56.936" y2="64.262"/>
			<polyline fill="none" stroke="#000000" stroke-linejoin="round" stroke-dasharray="3.0027,2.0017" points="58.685,63.288      101.759,39.287 178.821,18.493 219.887,22.194 263.53,18.194    "/>
			<line fill="none" stroke="#000000" stroke-linejoin="round" x1="264.526" y1="18.103" x2="266.02" y2="17.966"/>
		</g>
	</g>
	<rect x="209.688" y="89.84" fill="#FFFFFF" width="66.508" height="22.451"/>
	<g>
		<path d="M233.894,92.785c0.353-0.072,0.865-0.12,1.338-0.12c0.745,0,1.234,0.144,1.57,0.448c0.265,0.232,0.425,0.6,0.425,1.023    c0,0.704-0.457,1.176-1.018,1.367v0.024c0.408,0.144,0.657,0.527,0.793,1.087c0.177,0.751,0.305,1.271,0.409,1.479h-0.722    c-0.088-0.16-0.208-0.616-0.353-1.287c-0.16-0.744-0.456-1.023-1.089-1.048h-0.657v2.335h-0.697V92.785z M234.591,95.231h0.713    c0.745,0,1.218-0.408,1.218-1.023c0-0.696-0.505-1-1.241-1c-0.337,0-0.569,0.032-0.689,0.064V95.231z"/>
		<path d="M238.584,96.287c0.016,0.944,0.617,1.335,1.322,1.335c0.504,0,0.816-0.088,1.073-0.2l0.128,0.504    c-0.248,0.112-0.681,0.248-1.298,0.248c-1.186,0-1.906-0.792-1.906-1.951c0-1.167,0.696-2.087,1.826-2.087    c1.266,0,1.594,1.111,1.594,1.823c0,0.144-0.008,0.248-0.023,0.328H238.584z M240.643,95.783c0.008-0.448-0.184-1.144-0.969-1.144    c-0.722,0-1.025,0.656-1.082,1.144H240.643z"/>
		<path d="M242.201,95.487c0-0.496-0.008-0.896-0.032-1.264h0.633l0.04,0.664h0.016c0.281-0.48,0.745-0.752,1.37-0.752    c0.945,0,1.65,0.792,1.65,1.967c0,1.391-0.857,2.079-1.763,2.079c-0.521,0-0.961-0.224-1.193-0.607h-0.016v2.103h-0.705V95.487z     M242.906,96.519c0,0.096,0.008,0.2,0.032,0.288c0.12,0.487,0.553,0.823,1.049,0.823c0.745,0,1.178-0.607,1.178-1.495    c0-0.775-0.4-1.439-1.146-1.439c-0.48,0-0.938,0.335-1.073,0.872c-0.017,0.088-0.04,0.191-0.04,0.28V96.519z"/>
		<path d="M250.006,97.03c0,0.408,0.008,0.76,0.032,1.063h-0.625l-0.04-0.632h-0.016c-0.177,0.312-0.593,0.72-1.282,0.72    c-0.608,0-1.338-0.344-1.338-1.695v-2.263h0.705v2.135c0,0.735,0.232,1.239,0.865,1.239c0.473,0,0.801-0.328,0.93-0.648    c0.04-0.096,0.063-0.224,0.063-0.359v-2.367h0.705V97.03z"/>
		<path d="M251.179,92.417h0.705v2.422h0.016c0.248-0.432,0.697-0.704,1.322-0.704c0.961,0,1.634,0.8,1.634,1.967    c0,1.391-0.881,2.079-1.746,2.079c-0.561,0-1.002-0.216-1.298-0.728h-0.017l-0.04,0.64h-0.608c0.024-0.264,0.032-0.656,0.032-1    V92.417z M251.884,96.542c0,0.088,0.008,0.176,0.023,0.256c0.137,0.488,0.553,0.824,1.058,0.824c0.745,0,1.178-0.6,1.178-1.487    c0-0.784-0.4-1.447-1.153-1.447c-0.48,0-0.93,0.336-1.065,0.864c-0.024,0.088-0.04,0.184-0.04,0.296V96.542z"/>
		<path d="M255.741,92.417h0.705v5.677h-0.705V92.417z"/>
		<path d="M257.969,93.568c-0.256,0-0.424-0.2-0.424-0.432c0-0.248,0.176-0.44,0.44-0.44c0.256,0,0.433,0.192,0.433,0.44    c0,0.231-0.169,0.432-0.44,0.432H257.969z M257.633,98.094v-3.87h0.705v3.87H257.633z"/>
		<path d="M262.273,97.95c-0.185,0.088-0.593,0.224-1.113,0.224c-1.17,0-1.931-0.792-1.931-1.975c0-1.191,0.816-2.063,2.083-2.063    c0.416,0,0.784,0.104,0.977,0.208l-0.16,0.536c-0.168-0.088-0.433-0.184-0.816-0.184c-0.89,0-1.37,0.664-1.37,1.463    c0,0.896,0.576,1.447,1.346,1.447c0.4,0,0.665-0.096,0.865-0.184L262.273,97.95z"/>
		<path d="M265.833,97.166c0,0.336,0.016,0.664,0.057,0.928h-0.634l-0.063-0.488h-0.024c-0.208,0.304-0.633,0.576-1.186,0.576    c-0.785,0-1.186-0.552-1.186-1.111c0-0.936,0.833-1.447,2.331-1.439v-0.08c0-0.32-0.088-0.904-0.881-0.896    c-0.368,0-0.745,0.104-1.018,0.288l-0.16-0.472c0.32-0.2,0.793-0.336,1.282-0.336c1.193,0,1.481,0.808,1.481,1.583V97.166z     M265.144,96.119c-0.77-0.016-1.643,0.12-1.643,0.872c0,0.464,0.305,0.672,0.657,0.672c0.513,0,0.841-0.32,0.953-0.648    c0.023-0.072,0.032-0.152,0.032-0.224V96.119z"/>
		<path d="M266.965,95.271c0-0.408-0.008-0.728-0.032-1.048h0.625l0.04,0.632h0.016c0.192-0.36,0.642-0.72,1.282-0.72    c0.536,0,1.37,0.32,1.37,1.647v2.311h-0.705v-2.231c0-0.624-0.232-1.151-0.897-1.151c-0.457,0-0.817,0.328-0.945,0.72    c-0.032,0.088-0.048,0.216-0.048,0.328v2.335h-0.705V95.271z"/>
		<path d="M271.318,97.374c0.217,0.128,0.585,0.272,0.938,0.272c0.505,0,0.745-0.248,0.745-0.576c0-0.336-0.2-0.512-0.713-0.704    c-0.705-0.256-1.033-0.64-1.033-1.095c0-0.624,0.513-1.136,1.338-1.136c0.393,0,0.736,0.104,0.945,0.24l-0.169,0.503    c-0.151-0.088-0.433-0.224-0.793-0.224c-0.416,0-0.641,0.24-0.641,0.528c0,0.319,0.225,0.463,0.729,0.664    c0.664,0.248,1.017,0.583,1.017,1.159c0,0.688-0.536,1.167-1.441,1.167c-0.425,0-0.817-0.112-1.09-0.271L271.318,97.374z"/>
		<path d="M233.886,104.751c0.433-0.063,0.938-0.111,1.49-0.111c1.001,0,1.714,0.231,2.187,0.671c0.489,0.44,0.77,1.063,0.77,1.936    c0,0.879-0.28,1.599-0.777,2.095c-0.513,0.504-1.346,0.775-2.395,0.775c-0.505,0-0.914-0.016-1.274-0.063V104.751z     M234.591,109.524c0.177,0.032,0.433,0.032,0.705,0.032c1.49,0.008,2.299-0.832,2.299-2.287c0.008-1.271-0.713-2.078-2.187-2.078    c-0.36,0-0.633,0.031-0.817,0.071V109.524z"/>
		<path d="M239.61,108.262c0.016,0.943,0.617,1.335,1.322,1.335c0.504,0,0.816-0.088,1.073-0.2l0.128,0.504    c-0.248,0.112-0.681,0.248-1.298,0.248c-1.186,0-1.906-0.792-1.906-1.951c0-1.167,0.696-2.087,1.826-2.087    c1.266,0,1.594,1.111,1.594,1.823c0,0.144-0.008,0.248-0.023,0.328H239.61z M241.668,107.758c0.008-0.448-0.184-1.144-0.969-1.144    c-0.722,0-1.025,0.655-1.082,1.144H241.668z"/>
		<path d="M243.226,107.246c0-0.408-0.017-0.728-0.032-1.048h0.617l0.031,0.624h0.024c0.217-0.368,0.577-0.712,1.226-0.712    c0.521,0,0.922,0.32,1.09,0.775h0.016c0.12-0.224,0.28-0.384,0.44-0.503c0.232-0.177,0.481-0.272,0.85-0.272    c0.521,0,1.281,0.336,1.281,1.68v2.278h-0.688v-2.19c0-0.752-0.28-1.191-0.841-1.191c-0.409,0-0.713,0.296-0.842,0.632    c-0.032,0.104-0.056,0.231-0.056,0.352v2.398h-0.689v-2.327c0-0.615-0.272-1.055-0.809-1.055c-0.433,0-0.761,0.352-0.873,0.703    c-0.04,0.104-0.057,0.224-0.057,0.344v2.335h-0.688V107.246z"/>
		<path d="M251.491,110.156c-1.042,0-1.858-0.768-1.858-1.991c0-1.295,0.856-2.055,1.922-2.055c1.114,0,1.867,0.808,1.867,1.983    c0,1.438-1.002,2.062-1.923,2.062H251.491z M251.523,109.629c0.673,0,1.178-0.632,1.178-1.512c0-0.655-0.329-1.479-1.162-1.479    c-0.825,0-1.186,0.768-1.186,1.503c0,0.848,0.48,1.487,1.161,1.487H251.523z"/>
		<path d="M257.078,109.925c-0.185,0.088-0.593,0.224-1.113,0.224c-1.17,0-1.931-0.792-1.931-1.975c0-1.191,0.816-2.063,2.083-2.063    c0.416,0,0.784,0.104,0.977,0.208l-0.16,0.536c-0.168-0.088-0.433-0.185-0.816-0.185c-0.89,0-1.37,0.664-1.37,1.464    c0,0.896,0.576,1.447,1.346,1.447c0.4,0,0.665-0.097,0.865-0.185L257.078,109.925z"/>
		<path d="M257.906,107.406c0-0.456-0.008-0.848-0.032-1.208h0.617l0.031,0.76h0.024c0.177-0.52,0.609-0.848,1.081-0.848    c0.072,0,0.129,0.008,0.192,0.017v0.663c-0.071-0.008-0.144-0.016-0.24-0.016c-0.496,0-0.849,0.376-0.945,0.896    c-0.016,0.104-0.023,0.216-0.023,0.327v2.071h-0.705V107.406z"/>
		<path d="M263.259,109.141c0,0.336,0.017,0.664,0.057,0.928h-0.634l-0.063-0.487h-0.024c-0.208,0.304-0.633,0.575-1.186,0.575    c-0.785,0-1.186-0.552-1.186-1.111c0-0.936,0.833-1.447,2.331-1.439v-0.08c0-0.319-0.088-0.903-0.881-0.896    c-0.368,0-0.745,0.104-1.018,0.288l-0.16-0.472c0.32-0.2,0.793-0.336,1.282-0.336c1.193,0,1.481,0.808,1.481,1.583V109.141z     M262.571,108.094c-0.77-0.017-1.643,0.119-1.643,0.871c0,0.464,0.305,0.672,0.657,0.672c0.513,0,0.841-0.32,0.953-0.647    c0.023-0.072,0.032-0.152,0.032-0.225V108.094z"/>
		<path d="M265.241,105.271v0.927h1.01v0.536h-1.01v2.079c0,0.479,0.137,0.751,0.529,0.751c0.192,0,0.304-0.016,0.408-0.048    l0.032,0.536c-0.137,0.048-0.353,0.096-0.625,0.096c-0.328,0-0.593-0.112-0.761-0.296c-0.192-0.216-0.272-0.56-0.272-1.016v-2.103    h-0.601v-0.536h0.601v-0.711L265.241,105.271z"/>
		<path d="M266.949,109.349c0.217,0.128,0.585,0.272,0.938,0.272c0.505,0,0.745-0.248,0.745-0.576c0-0.336-0.2-0.512-0.713-0.703    c-0.705-0.256-1.033-0.641-1.033-1.096c0-0.624,0.513-1.136,1.338-1.136c0.393,0,0.736,0.104,0.945,0.24L269,106.854    c-0.151-0.088-0.433-0.225-0.793-0.225c-0.416,0-0.641,0.24-0.641,0.528c0,0.319,0.225,0.464,0.729,0.663    c0.664,0.248,1.017,0.584,1.017,1.159c0,0.688-0.536,1.168-1.441,1.168c-0.425,0-0.817-0.112-1.09-0.271L266.949,109.349z"/>
	</g>
	
		<line fill="none" stroke="#000000" stroke-linejoin="round" stroke-miterlimit="10" stroke-dasharray="3,2" x1="212.049" y1="95.444" x2="230.049" y2="95.444"/>
	
		<line fill="none" stroke="#000000" stroke-linejoin="round" stroke-miterlimit="10" x1="212.049" y1="107.418" x2="230.049" y2="107.418"/>
	<circle cx="221.049" cy="95.444" r="1.75"/>
	<circle cx="55.625" cy="64.992" r="1.75"/>
	<circle cx="55.625" cy="43.949" r="1.75"/>
	<circle cx="101.759" cy="41.048" r="1.75"/>
	<circle cx="101.759" cy="39.286" r="1.75"/>
	<circle cx="178.876" cy="18.973" r="1.75"/>
	<circle cx="219.887" cy="35.602" r="1.75"/>
	<circle cx="266.02" cy="34.706" r="1.75"/>
	<circle cx="266.02" cy="17.963" r="1.75"/>
	<circle cx="178.876" cy="36.995" r="1.75"/>
	<circle cx="221.049" cy="107.418" r="1.75"/>
</g>
</svg>