<svg xmlns="http://www.w3.org/2000/svg" xmlns:xlink="http://www.w3.org/1999/xlink" version="1.1" x="0px" y="0px" width="278.773px" height="158.187px" viewBox="0 0 278.773 158.187" enable-background="new 0 0 278.773 158.187" xml:space="preserve">
<g id="wide">
</g>
<g id="text_column" display="none">
</g>
<g id="art">
	<g>
		<path d="M2.415,5.285V3.862H0V3.406l2.318-3.318h0.76v3.23h0.728v0.544H3.078v1.423H2.415z M2.415,3.318V1.583    c0-0.271,0.008-0.544,0.024-0.815H2.415c-0.16,0.304-0.288,0.527-0.432,0.768L0.711,3.303v0.016H2.415z"/>
		<path d="M4.863,5.373C4.591,5.373,4.4,5.157,4.4,4.869c0-0.287,0.2-0.504,0.479-0.504s0.472,0.208,0.472,0.504    c0,0.288-0.192,0.504-0.479,0.504H4.863z"/>
		<path d="M7.655,5.373c-1.016,0-1.711-0.951-1.728-2.671C5.927,0.951,6.687,0,7.743,0C8.83,0,9.461,0.976,9.461,2.631    c0,1.767-0.664,2.742-1.799,2.742H7.655z M7.694,4.829c0.712,0,1.056-0.839,1.056-2.167c0-1.279-0.32-2.118-1.056-2.118    c-0.64,0-1.055,0.815-1.055,2.118c-0.016,1.352,0.4,2.167,1.047,2.167H7.694z"/>
		<path d="M0.408,28.485c0.2,0.12,0.655,0.32,1.151,0.32c0.896,0,1.183-0.568,1.175-1.008c-0.008-0.728-0.664-1.039-1.343-1.039H1    V26.23h0.392c0.512,0,1.159-0.264,1.159-0.879c0-0.416-0.264-0.784-0.911-0.784c-0.416,0-0.816,0.185-1.04,0.344l-0.192-0.512    C0.688,24.2,1.215,24,1.775,24c1.023,0,1.487,0.607,1.487,1.239c0,0.544-0.328,1-0.959,1.231v0.016    c0.64,0.12,1.159,0.6,1.159,1.328c0,0.831-0.656,1.559-1.895,1.559c-0.583,0-1.095-0.184-1.351-0.352L0.408,28.485z"/>
		<path d="M4.863,29.373c-0.272,0-0.463-0.216-0.463-0.504c0-0.287,0.2-0.504,0.479-0.504s0.472,0.208,0.472,0.504    c0,0.288-0.192,0.504-0.479,0.504H4.863z"/>
		<path d="M9.102,24.68H7.119l-0.2,1.335c0.12-0.016,0.232-0.031,0.424-0.031c0.408,0,0.799,0.088,1.119,0.279    c0.408,0.224,0.744,0.68,0.744,1.335c0,1.016-0.808,1.775-1.935,1.775c-0.568,0-1.04-0.16-1.295-0.319l0.176-0.536    c0.216,0.128,0.64,0.288,1.12,0.288c0.655,0,1.231-0.432,1.223-1.136c0-0.663-0.456-1.144-1.487-1.144    c-0.304,0-0.536,0.024-0.728,0.057l0.336-2.495h2.486V24.68z"/>
		<path d="M0.408,52.485c0.2,0.12,0.655,0.32,1.151,0.32c0.896,0,1.183-0.568,1.175-1.008c-0.008-0.728-0.664-1.039-1.343-1.039H1    V50.23h0.392c0.512,0,1.159-0.264,1.159-0.879c0-0.416-0.264-0.784-0.911-0.784c-0.416,0-0.816,0.185-1.04,0.344l-0.192-0.512    C0.688,48.2,1.215,48,1.775,48c1.023,0,1.487,0.607,1.487,1.239c0,0.544-0.328,1-0.959,1.231v0.016    c0.64,0.12,1.159,0.6,1.159,1.328c0,0.831-0.656,1.559-1.895,1.559c-0.583,0-1.095-0.184-1.351-0.352L0.408,52.485z"/>
		<path d="M4.863,53.373c-0.272,0-0.463-0.216-0.463-0.504c0-0.287,0.2-0.504,0.479-0.504s0.472,0.208,0.472,0.504    c0,0.288-0.192,0.504-0.479,0.504H4.863z"/>
		<path d="M7.655,53.373c-1.016,0-1.711-0.951-1.728-2.671c0-1.751,0.76-2.702,1.815-2.702c1.087,0,1.719,0.976,1.719,2.631    c0,1.767-0.664,2.742-1.799,2.742H7.655z M7.694,52.829c0.712,0,1.056-0.839,1.056-2.167c0-1.279-0.32-2.118-1.056-2.118    c-0.64,0-1.055,0.815-1.055,2.118c-0.016,1.352,0.4,2.167,1.047,2.167H7.694z"/>
		<path d="M0.24,77.285v-0.432l0.552-0.536c1.327-1.263,1.935-1.935,1.935-2.718c0-0.528-0.248-1.016-1.023-1.016    c-0.472,0-0.863,0.239-1.103,0.439l-0.224-0.496C0.728,72.232,1.247,72,1.847,72c1.111,0,1.583,0.768,1.583,1.512    c0,0.959-0.696,1.734-1.791,2.79l-0.408,0.384v0.016h2.327v0.584H0.24z"/>
		<path d="M4.863,77.373c-0.272,0-0.463-0.216-0.463-0.504c0-0.287,0.2-0.504,0.479-0.504s0.472,0.208,0.472,0.504    c0,0.288-0.192,0.504-0.479,0.504H4.863z"/>
		<path d="M9.102,72.68H7.119l-0.2,1.335c0.12-0.016,0.232-0.031,0.424-0.031c0.408,0,0.799,0.088,1.119,0.279    c0.408,0.224,0.744,0.68,0.744,1.335c0,1.016-0.808,1.775-1.935,1.775c-0.568,0-1.04-0.16-1.295-0.319l0.176-0.536    c0.216,0.128,0.64,0.288,1.12,0.288c0.655,0,1.231-0.432,1.223-1.136c0-0.663-0.456-1.144-1.487-1.144    c-0.304,0-0.536,0.024-0.728,0.057l0.336-2.495h2.486V72.68z"/>
		<path d="M0.24,101.285v-0.432l0.552-0.536c1.327-1.263,1.935-1.935,1.935-2.718c0-0.528-0.248-1.016-1.023-1.016    c-0.472,0-0.863,0.239-1.103,0.439l-0.224-0.496C0.728,96.232,1.247,96,1.847,96c1.111,0,1.583,0.768,1.583,1.512    c0,0.959-0.696,1.734-1.791,2.79l-0.408,0.384v0.016h2.327v0.584H0.24z"/>
		<path d="M4.863,101.373c-0.272,0-0.463-0.216-0.463-0.504c0-0.287,0.2-0.504,0.479-0.504s0.472,0.208,0.472,0.504    c0,0.288-0.192,0.504-0.479,0.504H4.863z"/>
		<path d="M7.655,101.373c-1.016,0-1.711-0.951-1.728-2.671c0-1.751,0.76-2.702,1.815-2.702c1.087,0,1.719,0.976,1.719,2.631    c0,1.767-0.664,2.742-1.799,2.742H7.655z M7.694,100.829c0.712,0,1.056-0.839,1.056-2.167c0-1.279-0.32-2.118-1.056-2.118    c-0.64,0-1.055,0.815-1.055,2.118c-0.016,1.352,0.4,2.167,1.047,2.167H7.694z"/>
		<path d="M1.767,120.744H1.751l-0.904,0.487l-0.136-0.536l1.135-0.607h0.6v5.197H1.767V120.744z"/>
		<path d="M4.863,125.373c-0.272,0-0.463-0.216-0.463-0.504c0-0.287,0.2-0.504,0.479-0.504s0.472,0.208,0.472,0.504    c0,0.288-0.192,0.504-0.479,0.504H4.863z"/>
		<path d="M9.102,120.68H7.119l-0.2,1.335c0.12-0.016,0.232-0.031,0.424-0.031c0.408,0,0.799,0.088,1.119,0.279    c0.408,0.224,0.744,0.68,0.744,1.335c0,1.016-0.808,1.775-1.935,1.775c-0.568,0-1.04-0.16-1.295-0.319l0.176-0.536    c0.216,0.128,0.64,0.288,1.12,0.288c0.655,0,1.231-0.432,1.223-1.136c0-0.663-0.456-1.144-1.487-1.144    c-0.304,0-0.536,0.024-0.728,0.057l0.336-2.495h2.486V120.68z"/>
		<path d="M1.767,144.744H1.751l-0.904,0.487l-0.136-0.536l1.135-0.607h0.6v5.197H1.767V144.744z"/>
		<path d="M4.863,149.373c-0.272,0-0.463-0.216-0.463-0.504c0-0.287,0.2-0.504,0.479-0.504s0.472,0.208,0.472,0.504    c0,0.288-0.192,0.504-0.479,0.504H4.863z"/>
		<path d="M7.655,149.373c-1.016,0-1.711-0.951-1.728-2.671c0-1.751,0.76-2.702,1.815-2.702c1.087,0,1.719,0.976,1.719,2.631    c0,1.767-0.664,2.742-1.799,2.742H7.655z M7.694,148.829c0.712,0,1.056-0.839,1.056-2.167c0-1.279-0.32-2.118-1.056-2.118    c-0.64,0-1.055,0.815-1.055,2.118c-0.016,1.352,0.4,2.167,1.047,2.167H7.694z"/>
	</g>
	<g>
		<path d="M23.969,153.325h-0.016l-0.904,0.488l-0.136-0.536l1.135-0.608h0.6v5.197h-0.679V153.325z"/>
		<path d="M28.201,157.955c-1.015,0-1.711-0.952-1.727-2.67c0-1.751,0.759-2.703,1.815-2.703c1.087,0,1.719,0.976,1.719,2.63    c0,1.767-0.664,2.743-1.799,2.743H28.201z M28.241,157.411c0.712,0,1.056-0.84,1.056-2.167c0-1.279-0.32-2.119-1.056-2.119    c-0.64,0-1.055,0.815-1.055,2.119c-0.016,1.351,0.4,2.167,1.047,2.167H28.241z"/>
		<path d="M32.304,157.955c-1.015,0-1.711-0.952-1.727-2.67c0-1.751,0.759-2.703,1.815-2.703c1.087,0,1.719,0.976,1.719,2.63    c0,1.767-0.664,2.743-1.799,2.743H32.304z M32.344,157.411c0.712,0,1.056-0.84,1.056-2.167c0-1.279-0.32-2.119-1.056-2.119    c-0.64,0-1.055,0.815-1.055,2.119c-0.016,1.351,0.4,2.167,1.047,2.167H32.344z"/>
		<path d="M36.409,157.955c-1.016,0-1.711-0.952-1.728-2.67c0-1.751,0.76-2.703,1.815-2.703c1.087,0,1.719,0.976,1.719,2.63    c0,1.767-0.664,2.743-1.799,2.743H36.409z M36.448,157.411c0.712,0,1.056-0.84,1.056-2.167c0-1.279-0.32-2.119-1.056-2.119    c-0.64,0-1.055,0.815-1.055,2.119c-0.016,1.351,0.4,2.167,1.047,2.167H36.448z"/>
		<path d="M38.49,158.187l2.223-5.797h0.552l-2.239,5.797H38.49z"/>
		<path d="M43.128,153.325h-0.016l-0.904,0.488l-0.136-0.536l1.135-0.608h0.6v5.197h-0.68V153.325z"/>
	</g>
	<g>
		<path d="M63.712,153.325h-0.016l-0.904,0.488l-0.136-0.536l1.135-0.608h0.6v5.197h-0.68V153.325z"/>
		<path d="M67.945,157.955c-1.016,0-1.711-0.952-1.728-2.67c0-1.751,0.76-2.703,1.815-2.703c1.087,0,1.719,0.976,1.719,2.63    c0,1.767-0.664,2.743-1.799,2.743H67.945z M67.984,157.411c0.712,0,1.056-0.84,1.056-2.167c0-1.279-0.32-2.119-1.056-2.119    c-0.64,0-1.055,0.815-1.055,2.119c-0.016,1.351,0.4,2.167,1.047,2.167H67.984z"/>
		<path d="M72.048,157.955c-1.015,0-1.711-0.952-1.727-2.67c0-1.751,0.759-2.703,1.815-2.703c1.087,0,1.719,0.976,1.719,2.63    c0,1.767-0.664,2.743-1.799,2.743H72.048z M72.088,157.411c0.712,0,1.056-0.84,1.056-2.167c0-1.279-0.32-2.119-1.056-2.119    c-0.64,0-1.055,0.815-1.055,2.119c-0.016,1.351,0.4,2.167,1.047,2.167H72.088z"/>
		<path d="M74.129,158.187l2.223-5.797h0.552l-2.239,5.797H74.129z"/>
		<path d="M78.768,153.325h-0.016l-0.904,0.488l-0.136-0.536l1.135-0.608h0.6v5.197h-0.68V153.325z"/>
	</g>
	<g>
		<path d="M103.456,153.325h-0.016l-0.904,0.488l-0.136-0.536l1.135-0.608h0.6v5.197h-0.68V153.325z"/>
		<path d="M107.688,157.955c-1.016,0-1.711-0.952-1.728-2.67c0-1.751,0.76-2.703,1.815-2.703c1.087,0,1.719,0.976,1.719,2.63    c0,1.767-0.664,2.743-1.799,2.743H107.688z M107.728,157.411c0.712,0,1.056-0.84,1.056-2.167c0-1.279-0.32-2.119-1.056-2.119    c-0.64,0-1.055,0.815-1.055,2.119c-0.016,1.351,0.4,2.167,1.047,2.167H107.728z"/>
		<path d="M109.769,158.187l2.223-5.797h0.552l-2.239,5.797H109.769z"/>
		<path d="M114.408,153.325h-0.016l-0.904,0.488l-0.136-0.536l1.135-0.608h0.6v5.197h-0.679V153.325z"/>
	</g>
	<g>
		<path d="M143.199,153.325h-0.016l-0.904,0.488l-0.135-0.536l1.135-0.608h0.6v5.197h-0.68V153.325z"/>
		<path d="M145.408,158.187l2.223-5.797h0.553l-2.239,5.797H145.408z"/>
		<path d="M150.046,153.325h-0.016l-0.904,0.488l-0.135-0.536l1.135-0.608h0.6v5.197h-0.68V153.325z"/>
	</g>
	<g>
		<path d="M178.838,153.325h-0.016l-0.903,0.488l-0.137-0.536l1.136-0.608h0.6v5.197h-0.68V153.325z"/>
		<path d="M181.048,158.187l2.223-5.797h0.551l-2.238,5.797H181.048z"/>
		<path d="M185.686,153.325h-0.016l-0.903,0.488l-0.137-0.536l1.136-0.608h0.6v5.197h-0.68V153.325z"/>
		<path d="M189.918,157.955c-1.016,0-1.712-0.952-1.728-2.67c0-1.751,0.76-2.703,1.815-2.703c1.087,0,1.719,0.976,1.719,2.63    c0,1.767-0.663,2.743-1.799,2.743H189.918z M189.958,157.411c0.711,0,1.055-0.84,1.055-2.167c0-1.279-0.319-2.119-1.055-2.119    c-0.641,0-1.056,0.815-1.056,2.119c-0.017,1.351,0.399,2.167,1.048,2.167H189.958z"/>
	</g>
	<g>
		<path d="M214.478,153.325h-0.016l-0.904,0.488l-0.135-0.536l1.135-0.608h0.6v5.197h-0.68V153.325z"/>
		<path d="M216.687,158.187l2.223-5.797h0.553l-2.239,5.797H216.687z"/>
		<path d="M221.326,153.325h-0.016l-0.904,0.488l-0.135-0.536l1.135-0.608h0.6v5.197h-0.68V153.325z"/>
		<path d="M225.558,157.955c-1.016,0-1.711-0.952-1.728-2.67c0-1.751,0.76-2.703,1.815-2.703c1.088,0,1.719,0.976,1.719,2.63    c0,1.767-0.664,2.743-1.799,2.743H225.558z M225.597,157.411c0.713,0,1.057-0.84,1.057-2.167c0-1.279-0.32-2.119-1.057-2.119    c-0.639,0-1.055,0.815-1.055,2.119c-0.016,1.351,0.4,2.167,1.047,2.167H225.597z"/>
		<path d="M229.662,157.955c-1.016,0-1.711-0.952-1.727-2.67c0-1.751,0.76-2.703,1.814-2.703c1.088,0,1.719,0.976,1.719,2.63    c0,1.767-0.663,2.743-1.799,2.743H229.662z M229.702,157.411c0.712,0,1.056-0.84,1.056-2.167c0-1.279-0.32-2.119-1.056-2.119    c-0.64,0-1.056,0.815-1.056,2.119c-0.016,1.351,0.4,2.167,1.048,2.167H229.702z"/>
	</g>
	<g>
		<path d="M250.118,153.325h-0.017l-0.903,0.488l-0.136-0.536l1.135-0.608h0.6v5.197h-0.679V153.325z"/>
		<path d="M252.327,158.187l2.223-5.797h0.552l-2.238,5.797H252.327z"/>
		<path d="M256.965,153.325h-0.017l-0.903,0.488l-0.136-0.536l1.135-0.608h0.6v5.197h-0.679V153.325z"/>
		<path d="M261.197,157.955c-1.016,0-1.711-0.952-1.727-2.67c0-1.751,0.76-2.703,1.814-2.703c1.088,0,1.719,0.976,1.719,2.63    c0,1.767-0.663,2.743-1.799,2.743H261.197z M261.237,157.411c0.712,0,1.056-0.84,1.056-2.167c0-1.279-0.32-2.119-1.056-2.119    c-0.64,0-1.056,0.815-1.056,2.119c-0.016,1.351,0.4,2.167,1.048,2.167H261.237z"/>
		<path d="M265.301,157.955c-1.016,0-1.712-0.952-1.728-2.67c0-1.751,0.76-2.703,1.815-2.703c1.087,0,1.719,0.976,1.719,2.63    c0,1.767-0.663,2.743-1.799,2.743H265.301z M265.341,157.411c0.711,0,1.055-0.84,1.055-2.167c0-1.279-0.319-2.119-1.055-2.119    c-0.641,0-1.056,0.815-1.056,2.119c-0.017,1.351,0.399,2.167,1.048,2.167H265.341z"/>
		<path d="M269.405,157.955c-1.015,0-1.711-0.952-1.727-2.67c0-1.751,0.759-2.703,1.815-2.703c1.087,0,1.719,0.976,1.719,2.63    c0,1.767-0.664,2.743-1.799,2.743H269.405z M269.445,157.411c0.712,0,1.056-0.84,1.056-2.167c0-1.279-0.319-2.119-1.056-2.119    c-0.64,0-1.055,0.815-1.055,2.119c-0.017,1.351,0.399,2.167,1.047,2.167H269.445z"/>
	</g>
	<g>
		<path d="M185.169,42.639h-1.845v-0.666h4.492v0.666h-1.854v5.402h-0.793V42.639z"/>
		<path d="M188.464,45.042c0-0.513-0.01-0.954-0.037-1.359h0.693l0.037,0.855h0.026c0.198-0.585,0.685-0.955,1.216-0.955    c0.08,0,0.144,0.009,0.216,0.018v0.748c-0.081-0.009-0.162-0.018-0.271-0.018c-0.559,0-0.954,0.423-1.062,1.008    c-0.018,0.117-0.027,0.243-0.027,0.369v2.332h-0.791V45.042z"/>
		<path d="M194.476,46.996c0,0.378,0.019,0.748,0.063,1.044h-0.711l-0.072-0.549h-0.026c-0.234,0.342-0.712,0.648-1.333,0.648    c-0.882,0-1.333-0.621-1.333-1.251c0-1.053,0.938-1.629,2.621-1.621v-0.09c0-0.36-0.1-1.018-0.991-1.008    c-0.414,0-0.837,0.117-1.144,0.324l-0.18-0.531c0.36-0.225,0.892-0.378,1.44-0.378c1.341,0,1.665,0.91,1.665,1.783V46.996z     M193.703,45.817c-0.864-0.018-1.846,0.135-1.846,0.981c0,0.522,0.342,0.756,0.738,0.756c0.576,0,0.945-0.36,1.071-0.729    c0.026-0.081,0.036-0.171,0.036-0.252V45.817z"/>
		<path d="M199.507,41.648v5.267c0,0.387,0.01,0.829,0.037,1.125h-0.712l-0.036-0.756h-0.018c-0.243,0.486-0.766,0.855-1.477,0.855    c-1.054,0-1.873-0.892-1.873-2.215c-0.009-1.458,0.9-2.341,1.954-2.341c0.675,0,1.125,0.315,1.313,0.657h0.019v-2.593H199.507z     M198.715,45.457c0-0.108-0.009-0.234-0.036-0.342c-0.117-0.495-0.549-0.909-1.143-0.909c-0.82,0-1.306,0.72-1.306,1.674    c0,0.891,0.44,1.621,1.287,1.621c0.531,0,1.018-0.36,1.161-0.955c0.027-0.099,0.036-0.207,0.036-0.333V45.457z"/>
		<path d="M201.199,42.945c-0.289,0-0.478-0.225-0.478-0.486c0-0.279,0.198-0.495,0.495-0.495c0.288,0,0.486,0.216,0.486,0.495    c0,0.261-0.189,0.486-0.495,0.486H201.199z M200.82,48.041v-4.357h0.793v4.357H200.82z"/>
		<path d="M202.926,44.863c0-0.459-0.009-0.819-0.036-1.18h0.702l0.045,0.711h0.019c0.216-0.405,0.72-0.811,1.439-0.811    c0.604,0,1.54,0.36,1.54,1.855v2.602h-0.792v-2.512c0-0.702-0.262-1.296-1.008-1.296c-0.514,0-0.919,0.369-1.062,0.81    c-0.037,0.099-0.055,0.243-0.055,0.369v2.629h-0.792V44.863z"/>
		<path d="M211.648,47.401c0,1.008-0.207,1.611-0.621,1.999c-0.432,0.387-1.044,0.522-1.594,0.522c-0.521,0-1.098-0.126-1.449-0.36    l0.199-0.612c0.287,0.189,0.737,0.351,1.277,0.351c0.811,0,1.404-0.423,1.404-1.53v-0.477h-0.018    c-0.234,0.405-0.711,0.729-1.387,0.729c-1.08,0-1.854-0.918-1.854-2.134c0-1.476,0.963-2.305,1.971-2.305    c0.756,0,1.162,0.387,1.359,0.756h0.018l0.027-0.657h0.703c-0.027,0.306-0.037,0.667-0.037,1.188V47.401z M210.857,45.394    c0-0.126-0.01-0.243-0.046-0.351c-0.144-0.468-0.522-0.846-1.106-0.846c-0.757,0-1.297,0.639-1.297,1.657    c0,0.846,0.441,1.566,1.287,1.566c0.495,0,0.937-0.306,1.099-0.819c0.045-0.126,0.063-0.279,0.063-0.423V45.394z"/>
		<path d="M214.86,45.105c0-0.558-0.009-1.008-0.036-1.422h0.711l0.045,0.748h0.019c0.315-0.541,0.837-0.847,1.54-0.847    c1.062,0,1.854,0.892,1.854,2.215c0,1.566-0.963,2.341-1.98,2.341c-0.585,0-1.08-0.252-1.342-0.684h-0.018v2.368h-0.792V45.105z     M215.652,46.267c0,0.108,0.01,0.225,0.036,0.324c0.136,0.549,0.621,0.927,1.179,0.927c0.838,0,1.324-0.685,1.324-1.684    c0-0.874-0.45-1.621-1.287-1.621c-0.541,0-1.054,0.378-1.207,0.981c-0.018,0.099-0.045,0.216-0.045,0.315V46.267z"/>
		<path d="M223.05,46.996c0,0.378,0.018,0.748,0.062,1.044h-0.711l-0.072-0.549h-0.026c-0.234,0.342-0.712,0.648-1.333,0.648    c-0.882,0-1.332-0.621-1.332-1.251c0-1.053,0.937-1.629,2.62-1.621v-0.09c0-0.36-0.099-1.018-0.991-1.008    c-0.414,0-0.836,0.117-1.143,0.324l-0.18-0.531c0.359-0.225,0.891-0.378,1.439-0.378c1.342,0,1.666,0.91,1.666,1.783V46.996z     M222.277,45.817c-0.865-0.018-1.846,0.135-1.846,0.981c0,0.522,0.342,0.756,0.738,0.756c0.576,0,0.945-0.36,1.07-0.729    c0.027-0.081,0.037-0.171,0.037-0.252V45.817z"/>
		<path d="M224.318,45.042c0-0.513-0.008-0.954-0.035-1.359h0.693l0.035,0.855h0.027c0.198-0.585,0.684-0.955,1.215-0.955    c0.082,0,0.145,0.009,0.217,0.018v0.748c-0.081-0.009-0.162-0.018-0.271-0.018c-0.558,0-0.954,0.423-1.062,1.008    c-0.019,0.117-0.027,0.243-0.027,0.369v2.332h-0.793V45.042z"/>
		<path d="M228.216,42.639v1.044h1.134v0.604h-1.134v2.34c0,0.541,0.152,0.846,0.594,0.846c0.217,0,0.342-0.018,0.459-0.054    l0.036,0.603c-0.153,0.054-0.396,0.108-0.702,0.108c-0.369,0-0.666-0.126-0.855-0.333c-0.216-0.243-0.306-0.63-0.306-1.143v-2.368    h-0.675v-0.604h0.675v-0.801L228.216,42.639z"/>
		<path d="M230.24,44.863c0-0.459-0.008-0.819-0.035-1.18h0.701l0.045,0.711h0.019c0.216-0.405,0.72-0.811,1.44-0.811    c0.604,0,1.539,0.36,1.539,1.855v2.602h-0.791v-2.512c0-0.702-0.262-1.296-1.009-1.296c-0.513,0-0.919,0.369-1.062,0.81    c-0.036,0.099-0.054,0.243-0.054,0.369v2.629h-0.793V44.863z"/>
		<path d="M235.685,46.006c0.019,1.062,0.693,1.503,1.486,1.503c0.566,0,0.918-0.099,1.206-0.225l0.144,0.567    c-0.279,0.126-0.766,0.279-1.458,0.279c-1.333,0-2.143-0.891-2.143-2.196c0-1.314,0.783-2.35,2.052-2.35    c1.424,0,1.792,1.251,1.792,2.053c0,0.162-0.009,0.279-0.026,0.369H235.685z M238,45.439c0.009-0.504-0.207-1.288-1.09-1.288    c-0.811,0-1.152,0.738-1.215,1.288H238z"/>
		<path d="M239.744,45.042c0-0.513-0.008-0.954-0.035-1.359h0.693l0.035,0.855h0.027c0.198-0.585,0.684-0.955,1.215-0.955    c0.082,0,0.145,0.009,0.217,0.018v0.748c-0.081-0.009-0.162-0.018-0.271-0.018c-0.558,0-0.954,0.423-1.062,1.008    c-0.019,0.117-0.027,0.243-0.027,0.369v2.332h-0.793V45.042z"/>
		<path d="M244.595,41.648h0.792v6.392h-0.792V41.648z"/>
		<path d="M248.493,48.14c-1.171,0-2.089-0.864-2.089-2.242c0-1.458,0.963-2.314,2.161-2.314c1.251,0,2.098,0.91,2.098,2.233    c0,1.621-1.126,2.323-2.161,2.323H248.493z M248.529,47.545c0.756,0,1.323-0.711,1.323-1.702c0-0.738-0.369-1.666-1.306-1.666    c-0.927,0-1.332,0.864-1.332,1.693c0,0.954,0.54,1.674,1.305,1.674H248.529z"/>
		<path d="M251.552,47.23c0.242,0.144,0.657,0.306,1.053,0.306c0.567,0,0.838-0.279,0.838-0.648c0-0.378-0.225-0.576-0.801-0.792    c-0.793-0.288-1.162-0.72-1.162-1.233c0-0.703,0.576-1.279,1.504-1.279c0.441,0,0.828,0.117,1.062,0.271l-0.189,0.567    c-0.172-0.099-0.486-0.252-0.892-0.252c-0.468,0-0.72,0.27-0.72,0.594c0,0.36,0.252,0.522,0.818,0.747    c0.748,0.279,1.145,0.657,1.145,1.306c0,0.774-0.604,1.314-1.621,1.314c-0.477,0-0.918-0.126-1.225-0.306L251.552,47.23z"/>
		<path d="M255.674,46.006c0.019,1.062,0.692,1.503,1.485,1.503c0.567,0,0.918-0.099,1.207-0.225l0.144,0.567    c-0.279,0.126-0.766,0.279-1.458,0.279c-1.333,0-2.143-0.891-2.143-2.196c0-1.314,0.783-2.35,2.052-2.35    c1.423,0,1.792,1.251,1.792,2.053c0,0.162-0.01,0.279-0.027,0.369H255.674z M257.988,45.439c0.01-0.504-0.207-1.288-1.09-1.288    c-0.81,0-1.152,0.738-1.215,1.288H257.988z"/>
		<path d="M259.625,47.23c0.244,0.144,0.658,0.306,1.054,0.306c0.567,0,0.837-0.279,0.837-0.648c0-0.378-0.225-0.576-0.801-0.792    c-0.793-0.288-1.162-0.72-1.162-1.233c0-0.703,0.576-1.279,1.504-1.279c0.441,0,0.828,0.117,1.062,0.271l-0.189,0.567    c-0.171-0.099-0.486-0.252-0.891-0.252c-0.469,0-0.721,0.27-0.721,0.594c0,0.36,0.252,0.522,0.819,0.747    c0.747,0.279,1.144,0.657,1.144,1.306c0,0.774-0.604,1.314-1.621,1.314c-0.477,0-0.918-0.126-1.225-0.306L259.625,47.23z"/>
		<path d="M262.63,48.4l2.502-6.527h0.621l-2.52,6.527H262.63z"/>
		<path d="M204.323,58.642c-0.279,0.144-0.864,0.288-1.603,0.288c-1.711,0-2.988-1.08-2.988-3.07c0-1.899,1.287-3.178,3.168-3.178    c0.748,0,1.234,0.162,1.441,0.261l-0.199,0.648c-0.287-0.144-0.711-0.252-1.215-0.252c-1.422,0-2.367,0.909-2.367,2.494    c0,1.485,0.855,2.431,2.322,2.431c0.486,0,0.973-0.099,1.287-0.252L204.323,58.642z"/>
		<path d="M208.354,57.795c0,0.378,0.019,0.748,0.063,1.044h-0.711l-0.072-0.549h-0.027c-0.234,0.342-0.711,0.648-1.332,0.648    c-0.883,0-1.333-0.621-1.333-1.251c0-1.053,0.937-1.629,2.62-1.621v-0.09c0-0.36-0.1-1.018-0.99-1.008    c-0.414,0-0.838,0.117-1.144,0.324l-0.181-0.531c0.361-0.225,0.892-0.378,1.441-0.378c1.341,0,1.665,0.91,1.665,1.783V57.795z     M207.58,56.616c-0.864-0.018-1.846,0.135-1.846,0.981c0,0.522,0.342,0.756,0.738,0.756c0.576,0,0.945-0.36,1.072-0.729    c0.026-0.081,0.035-0.171,0.035-0.252V56.616z"/>
		<path d="M209.623,55.662c0-0.459-0.01-0.819-0.037-1.18h0.703l0.045,0.711h0.018c0.217-0.405,0.721-0.811,1.44-0.811    c0.604,0,1.54,0.36,1.54,1.855v2.602h-0.793v-2.512c0-0.702-0.261-1.296-1.008-1.296c-0.514,0-0.918,0.369-1.062,0.81    c-0.036,0.099-0.055,0.243-0.055,0.369v2.629h-0.791V55.662z"/>
		<path d="M217.687,57.795c0,0.378,0.018,0.748,0.062,1.044h-0.711l-0.072-0.549h-0.027c-0.234,0.342-0.711,0.648-1.332,0.648    c-0.883,0-1.332-0.621-1.332-1.251c0-1.053,0.936-1.629,2.619-1.621v-0.09c0-0.36-0.099-1.018-0.99-1.008    c-0.414,0-0.837,0.117-1.143,0.324l-0.181-0.531c0.36-0.225,0.892-0.378,1.44-0.378c1.342,0,1.666,0.91,1.666,1.783V57.795z     M216.912,56.616c-0.863-0.018-1.845,0.135-1.845,0.981c0,0.522,0.342,0.756,0.738,0.756c0.576,0,0.945-0.36,1.071-0.729    c0.027-0.081,0.035-0.171,0.035-0.252V56.616z"/>
		<path d="M222.718,52.448v5.267c0,0.387,0.008,0.829,0.035,1.125h-0.711l-0.036-0.756h-0.019c-0.242,0.486-0.765,0.855-1.476,0.855    c-1.054,0-1.872-0.892-1.872-2.215c-0.01-1.458,0.899-2.341,1.953-2.341c0.675,0,1.125,0.315,1.314,0.657h0.018v-2.593H222.718z     M221.925,56.256c0-0.108-0.009-0.234-0.035-0.342c-0.117-0.495-0.55-0.909-1.145-0.909c-0.818,0-1.305,0.72-1.305,1.674    c0,0.891,0.441,1.621,1.287,1.621c0.531,0,1.018-0.36,1.162-0.955c0.026-0.099,0.035-0.207,0.035-0.333V56.256z"/>
		<path d="M227.101,57.795c0,0.378,0.018,0.748,0.062,1.044h-0.711l-0.072-0.549h-0.027c-0.234,0.342-0.711,0.648-1.332,0.648    c-0.883,0-1.332-0.621-1.332-1.251c0-1.053,0.936-1.629,2.619-1.621v-0.09c0-0.36-0.099-1.018-0.99-1.008    c-0.414,0-0.837,0.117-1.143,0.324l-0.181-0.531c0.36-0.225,0.892-0.378,1.44-0.378c1.342,0,1.666,0.91,1.666,1.783V57.795z     M226.326,56.616c-0.863-0.018-1.845,0.135-1.845,0.981c0,0.522,0.342,0.756,0.738,0.756c0.576,0,0.945-0.36,1.071-0.729    c0.027-0.081,0.035-0.171,0.035-0.252V56.616z"/>
		<path d="M234.003,58.201c0,1.008-0.207,1.611-0.621,1.999c-0.432,0.387-1.045,0.522-1.594,0.522c-0.521,0-1.098-0.126-1.449-0.36    l0.198-0.612c0.288,0.189,0.737,0.351,1.278,0.351c0.811,0,1.404-0.423,1.404-1.53v-0.477h-0.018    c-0.234,0.405-0.711,0.729-1.387,0.729c-1.08,0-1.854-0.918-1.854-2.134c0-1.476,0.963-2.305,1.972-2.305    c0.756,0,1.161,0.387,1.359,0.756h0.018l0.027-0.657h0.702c-0.026,0.306-0.036,0.667-0.036,1.188V58.201z M233.211,56.193    c0-0.126-0.009-0.243-0.046-0.351c-0.144-0.468-0.521-0.846-1.106-0.846c-0.757,0-1.296,0.639-1.296,1.657    c0,0.846,0.44,1.566,1.287,1.566c0.494,0,0.936-0.306,1.098-0.819c0.045-0.126,0.063-0.279,0.063-0.423V56.193z"/>
		<path d="M238.377,57.795c0,0.378,0.019,0.748,0.063,1.044h-0.711l-0.072-0.549h-0.027c-0.234,0.342-0.711,0.648-1.332,0.648    c-0.883,0-1.333-0.621-1.333-1.251c0-1.053,0.937-1.629,2.62-1.621v-0.09c0-0.36-0.1-1.018-0.99-1.008    c-0.414,0-0.838,0.117-1.144,0.324l-0.181-0.531c0.361-0.225,0.893-0.378,1.441-0.378c1.341,0,1.665,0.91,1.665,1.783V57.795z     M237.603,56.616c-0.863-0.018-1.846,0.135-1.846,0.981c0,0.522,0.342,0.756,0.738,0.756c0.576,0,0.945-0.36,1.072-0.729    c0.026-0.081,0.035-0.171,0.035-0.252V56.616z"/>
		<path d="M240.023,53.744c-0.287,0-0.477-0.225-0.477-0.486c0-0.279,0.198-0.495,0.495-0.495c0.288,0,0.486,0.216,0.486,0.495    c0,0.261-0.188,0.486-0.495,0.486H240.023z M239.646,58.84v-4.357h0.791v4.357H239.646z"/>
		<path d="M241.751,55.662c0-0.459-0.01-0.819-0.036-1.18h0.702l0.045,0.711h0.018c0.217-0.405,0.721-0.811,1.441-0.811    c0.604,0,1.539,0.36,1.539,1.855v2.602h-0.792v-2.512c0-0.702-0.261-1.296-1.009-1.296c-0.513,0-0.918,0.369-1.062,0.81    c-0.035,0.099-0.054,0.243-0.054,0.369v2.629h-0.792V55.662z"/>
		<path d="M246.638,58.03c0.242,0.144,0.657,0.306,1.053,0.306c0.567,0,0.838-0.279,0.838-0.648c0-0.378-0.225-0.576-0.801-0.792    c-0.793-0.288-1.162-0.72-1.162-1.233c0-0.703,0.576-1.279,1.504-1.279c0.441,0,0.828,0.117,1.062,0.271l-0.189,0.567    c-0.172-0.099-0.486-0.252-0.892-0.252c-0.468,0-0.72,0.27-0.72,0.594c0,0.36,0.252,0.522,0.818,0.747    c0.748,0.279,1.145,0.657,1.145,1.306c0,0.774-0.604,1.314-1.621,1.314c-0.477,0-0.918-0.126-1.225-0.306L246.638,58.03z"/>
	</g>
	<g>
		<path d="M185.169,105.306h-1.845v-0.666h4.492v0.666h-1.854v5.402h-0.793V105.306z"/>
		<path d="M188.464,107.709c0-0.513-0.01-0.954-0.037-1.359h0.693l0.037,0.855h0.026c0.198-0.585,0.685-0.955,1.216-0.955    c0.08,0,0.144,0.009,0.216,0.018v0.748c-0.081-0.009-0.162-0.018-0.271-0.018c-0.559,0-0.954,0.423-1.062,1.008    c-0.018,0.117-0.027,0.243-0.027,0.369v2.332h-0.791V107.709z"/>
		<path d="M194.476,109.663c0,0.378,0.019,0.748,0.063,1.044h-0.711l-0.072-0.549h-0.026c-0.234,0.342-0.712,0.648-1.333,0.648    c-0.882,0-1.333-0.621-1.333-1.251c0-1.053,0.938-1.629,2.621-1.621v-0.09c0-0.36-0.1-1.018-0.991-1.008    c-0.414,0-0.837,0.117-1.144,0.324l-0.18-0.531c0.36-0.225,0.892-0.378,1.44-0.378c1.341,0,1.665,0.91,1.665,1.783V109.663z     M193.703,108.484c-0.864-0.018-1.846,0.135-1.846,0.981c0,0.522,0.342,0.756,0.738,0.756c0.576,0,0.945-0.36,1.071-0.729    c0.026-0.081,0.036-0.171,0.036-0.252V108.484z"/>
		<path d="M199.507,104.315v5.267c0,0.387,0.01,0.829,0.037,1.125h-0.712l-0.036-0.756h-0.018c-0.243,0.486-0.766,0.855-1.477,0.855    c-1.054,0-1.873-0.892-1.873-2.215c-0.009-1.458,0.9-2.341,1.954-2.341c0.675,0,1.125,0.315,1.313,0.657h0.019v-2.593H199.507z     M198.715,108.124c0-0.108-0.009-0.234-0.036-0.342c-0.117-0.495-0.549-0.909-1.143-0.909c-0.82,0-1.306,0.72-1.306,1.674    c0,0.891,0.44,1.621,1.287,1.621c0.531,0,1.018-0.36,1.161-0.955c0.027-0.099,0.036-0.207,0.036-0.333V108.124z"/>
		<path d="M201.199,105.612c-0.289,0-0.478-0.225-0.478-0.486c0-0.279,0.198-0.495,0.495-0.495c0.288,0,0.486,0.216,0.486,0.495    c0,0.261-0.189,0.486-0.495,0.486H201.199z M200.82,110.708v-4.357h0.793v4.357H200.82z"/>
		<path d="M202.926,107.53c0-0.459-0.009-0.819-0.036-1.18h0.702l0.045,0.711h0.019c0.216-0.405,0.72-0.811,1.439-0.811    c0.604,0,1.54,0.36,1.54,1.855v2.602h-0.792v-2.512c0-0.702-0.262-1.296-1.008-1.296c-0.514,0-0.919,0.369-1.062,0.81    c-0.037,0.099-0.055,0.243-0.055,0.369v2.629h-0.792V107.53z"/>
		<path d="M211.648,110.068c0,1.008-0.207,1.611-0.621,1.999c-0.432,0.387-1.044,0.522-1.594,0.522c-0.521,0-1.098-0.126-1.449-0.36    l0.199-0.612c0.287,0.189,0.737,0.351,1.277,0.351c0.811,0,1.404-0.423,1.404-1.53v-0.477h-0.018    c-0.234,0.405-0.711,0.729-1.387,0.729c-1.08,0-1.854-0.918-1.854-2.134c0-1.476,0.963-2.305,1.971-2.305    c0.756,0,1.162,0.387,1.359,0.756h0.018l0.027-0.657h0.703c-0.027,0.306-0.037,0.667-0.037,1.188V110.068z M210.857,108.061    c0-0.126-0.01-0.243-0.046-0.351c-0.144-0.468-0.522-0.846-1.106-0.846c-0.757,0-1.297,0.639-1.297,1.657    c0,0.846,0.441,1.566,1.287,1.566c0.495,0,0.937-0.306,1.099-0.819c0.045-0.126,0.063-0.279,0.063-0.423V108.061z"/>
		<path d="M214.86,107.772c0-0.558-0.009-1.008-0.036-1.422h0.711l0.045,0.748h0.019c0.315-0.541,0.837-0.847,1.54-0.847    c1.062,0,1.854,0.892,1.854,2.215c0,1.566-0.963,2.341-1.98,2.341c-0.585,0-1.08-0.252-1.342-0.684h-0.018v2.368h-0.792V107.772z     M215.652,108.934c0,0.108,0.01,0.225,0.036,0.324c0.136,0.549,0.621,0.927,1.179,0.927c0.838,0,1.324-0.685,1.324-1.684    c0-0.874-0.45-1.621-1.287-1.621c-0.541,0-1.054,0.378-1.207,0.981c-0.018,0.099-0.045,0.216-0.045,0.315V108.934z"/>
		<path d="M223.05,109.663c0,0.378,0.018,0.748,0.062,1.044h-0.711l-0.072-0.549h-0.026c-0.234,0.342-0.712,0.648-1.333,0.648    c-0.882,0-1.332-0.621-1.332-1.251c0-1.053,0.937-1.629,2.62-1.621v-0.09c0-0.36-0.099-1.018-0.991-1.008    c-0.414,0-0.836,0.117-1.143,0.324l-0.18-0.531c0.359-0.225,0.891-0.378,1.439-0.378c1.342,0,1.666,0.91,1.666,1.783V109.663z     M222.277,108.484c-0.865-0.018-1.846,0.135-1.846,0.981c0,0.522,0.342,0.756,0.738,0.756c0.576,0,0.945-0.36,1.07-0.729    c0.027-0.081,0.037-0.171,0.037-0.252V108.484z"/>
		<path d="M224.318,107.709c0-0.513-0.008-0.954-0.035-1.359h0.693l0.035,0.855h0.027c0.198-0.585,0.684-0.955,1.215-0.955    c0.082,0,0.145,0.009,0.217,0.018v0.748c-0.081-0.009-0.162-0.018-0.271-0.018c-0.558,0-0.954,0.423-1.062,1.008    c-0.019,0.117-0.027,0.243-0.027,0.369v2.332h-0.793V107.709z"/>
		<path d="M228.216,105.306v1.044h1.134v0.604h-1.134v2.34c0,0.541,0.152,0.846,0.594,0.846c0.217,0,0.342-0.018,0.459-0.054    l0.036,0.603c-0.153,0.054-0.396,0.108-0.702,0.108c-0.369,0-0.666-0.126-0.855-0.333c-0.216-0.243-0.306-0.63-0.306-1.143v-2.368    h-0.675v-0.604h0.675v-0.801L228.216,105.306z"/>
		<path d="M230.24,107.53c0-0.459-0.008-0.819-0.035-1.18h0.701l0.045,0.711h0.019c0.216-0.405,0.72-0.811,1.44-0.811    c0.604,0,1.539,0.36,1.539,1.855v2.602h-0.791v-2.512c0-0.702-0.262-1.296-1.009-1.296c-0.513,0-0.919,0.369-1.062,0.81    c-0.036,0.099-0.054,0.243-0.054,0.369v2.629h-0.793V107.53z"/>
		<path d="M235.685,108.673c0.019,1.062,0.693,1.503,1.486,1.503c0.566,0,0.918-0.099,1.206-0.225l0.144,0.567    c-0.279,0.126-0.766,0.279-1.458,0.279c-1.333,0-2.143-0.891-2.143-2.196c0-1.314,0.783-2.35,2.052-2.35    c1.424,0,1.792,1.251,1.792,2.053c0,0.162-0.009,0.279-0.026,0.369H235.685z M238,108.106c0.009-0.504-0.207-1.288-1.09-1.288    c-0.811,0-1.152,0.738-1.215,1.288H238z"/>
		<path d="M239.744,107.709c0-0.513-0.008-0.954-0.035-1.359h0.693l0.035,0.855h0.027c0.198-0.585,0.684-0.955,1.215-0.955    c0.082,0,0.145,0.009,0.217,0.018v0.748c-0.081-0.009-0.162-0.018-0.271-0.018c-0.558,0-0.954,0.423-1.062,1.008    c-0.019,0.117-0.027,0.243-0.027,0.369v2.332h-0.793V107.709z"/>
		<path d="M248.322,110.068c0,1.008-0.207,1.611-0.621,1.999c-0.432,0.387-1.044,0.522-1.594,0.522c-0.521,0-1.098-0.126-1.449-0.36    l0.199-0.612c0.287,0.189,0.738,0.351,1.277,0.351c0.811,0,1.404-0.423,1.404-1.53v-0.477h-0.018    c-0.234,0.405-0.711,0.729-1.387,0.729c-1.08,0-1.854-0.918-1.854-2.134c0-1.476,0.963-2.305,1.971-2.305    c0.756,0,1.162,0.387,1.359,0.756h0.018l0.027-0.657h0.703c-0.027,0.306-0.037,0.667-0.037,1.188V110.068z M247.531,108.061    c0-0.126-0.01-0.243-0.046-0.351c-0.144-0.468-0.522-0.846-1.106-0.846c-0.757,0-1.297,0.639-1.297,1.657    c0,0.846,0.441,1.566,1.287,1.566c0.495,0,0.937-0.306,1.098-0.819c0.046-0.126,0.064-0.279,0.064-0.423V108.061z"/>
		<path d="M252.696,109.663c0,0.378,0.019,0.748,0.063,1.044h-0.711l-0.072-0.549h-0.027c-0.234,0.342-0.711,0.648-1.332,0.648    c-0.883,0-1.333-0.621-1.333-1.251c0-1.053,0.937-1.629,2.62-1.621v-0.09c0-0.36-0.1-1.018-0.99-1.008    c-0.414,0-0.838,0.117-1.144,0.324l-0.181-0.531c0.361-0.225,0.893-0.378,1.441-0.378c1.341,0,1.665,0.91,1.665,1.783V109.663z     M251.921,108.484c-0.863-0.018-1.846,0.135-1.846,0.981c0,0.522,0.342,0.756,0.738,0.756c0.576,0,0.945-0.36,1.072-0.729    c0.026-0.081,0.035-0.171,0.035-0.252V108.484z"/>
		<path d="M254.341,105.612c-0.287,0-0.477-0.225-0.477-0.486c0-0.279,0.198-0.495,0.495-0.495c0.288,0,0.486,0.216,0.486,0.495    c0,0.261-0.188,0.486-0.495,0.486H254.341z M253.964,110.708v-4.357h0.791v4.357H253.964z"/>
		<path d="M256.07,107.53c0-0.459-0.01-0.819-0.036-1.18h0.702l0.045,0.711h0.018c0.217-0.405,0.721-0.811,1.441-0.811    c0.604,0,1.539,0.36,1.539,1.855v2.602h-0.792v-2.512c0-0.702-0.261-1.296-1.009-1.296c-0.513,0-0.918,0.369-1.062,0.81    c-0.035,0.099-0.054,0.243-0.054,0.369v2.629h-0.792V107.53z"/>
		<path d="M260.957,109.897c0.244,0.144,0.658,0.306,1.054,0.306c0.567,0,0.837-0.279,0.837-0.648c0-0.378-0.225-0.576-0.801-0.792    c-0.793-0.288-1.162-0.72-1.162-1.233c0-0.703,0.576-1.279,1.504-1.279c0.441,0,0.828,0.117,1.062,0.271l-0.189,0.567    c-0.172-0.099-0.486-0.252-0.891-0.252c-0.469,0-0.721,0.27-0.721,0.594c0,0.36,0.252,0.522,0.819,0.747    c0.747,0.279,1.144,0.657,1.144,1.306c0,0.774-0.604,1.314-1.621,1.314c-0.477,0-0.918-0.126-1.225-0.306L260.957,109.897z"/>
		<path d="M263.962,111.067l2.502-6.527h0.621l-2.52,6.527H263.962z"/>
		<path d="M205.655,121.309c-0.279,0.144-0.864,0.288-1.603,0.288c-1.711,0-2.988-1.08-2.988-3.07c0-1.899,1.287-3.178,3.168-3.178    c0.748,0,1.234,0.162,1.441,0.261l-0.199,0.648c-0.287-0.144-0.711-0.252-1.215-0.252c-1.422,0-2.367,0.909-2.367,2.494    c0,1.485,0.855,2.431,2.322,2.431c0.486,0,0.973-0.099,1.287-0.252L205.655,121.309z"/>
		<path d="M209.686,120.462c0,0.378,0.019,0.748,0.063,1.044h-0.711l-0.072-0.549h-0.027c-0.234,0.342-0.711,0.648-1.332,0.648    c-0.883,0-1.333-0.621-1.333-1.251c0-1.053,0.937-1.629,2.62-1.621v-0.09c0-0.36-0.1-1.018-0.99-1.008    c-0.414,0-0.838,0.117-1.144,0.324l-0.181-0.531c0.361-0.225,0.892-0.378,1.441-0.378c1.341,0,1.665,0.91,1.665,1.783V120.462z     M208.912,119.283c-0.864-0.018-1.846,0.135-1.846,0.981c0,0.522,0.342,0.756,0.738,0.756c0.576,0,0.945-0.36,1.072-0.729    c0.026-0.081,0.035-0.171,0.035-0.252V119.283z"/>
		<path d="M210.955,118.329c0-0.459-0.01-0.819-0.037-1.18h0.703l0.045,0.711h0.018c0.217-0.405,0.721-0.811,1.44-0.811    c0.604,0,1.539,0.36,1.539,1.855v2.602h-0.792v-2.512c0-0.702-0.261-1.296-1.008-1.296c-0.514,0-0.918,0.369-1.062,0.81    c-0.036,0.099-0.055,0.243-0.055,0.369v2.629h-0.791V118.329z"/>
		<path d="M219.019,120.462c0,0.378,0.018,0.748,0.062,1.044h-0.711l-0.072-0.549h-0.027c-0.234,0.342-0.711,0.648-1.332,0.648    c-0.883,0-1.332-0.621-1.332-1.251c0-1.053,0.936-1.629,2.619-1.621v-0.09c0-0.36-0.099-1.018-0.99-1.008    c-0.414,0-0.837,0.117-1.143,0.324l-0.181-0.531c0.36-0.225,0.892-0.378,1.44-0.378c1.342,0,1.666,0.91,1.666,1.783V120.462z     M218.244,119.283c-0.863-0.018-1.845,0.135-1.845,0.981c0,0.522,0.342,0.756,0.738,0.756c0.576,0,0.945-0.36,1.071-0.729    c0.027-0.081,0.035-0.171,0.035-0.252V119.283z"/>
		<path d="M224.05,115.115v5.267c0,0.387,0.008,0.829,0.035,1.125h-0.711l-0.036-0.756h-0.019c-0.242,0.486-0.765,0.855-1.476,0.855    c-1.054,0-1.872-0.892-1.872-2.215c-0.01-1.458,0.899-2.341,1.953-2.341c0.675,0,1.125,0.315,1.314,0.657h0.018v-2.593H224.05z     M223.257,118.923c0-0.108-0.009-0.234-0.035-0.342c-0.117-0.495-0.55-0.909-1.145-0.909c-0.818,0-1.305,0.72-1.305,1.674    c0,0.891,0.441,1.621,1.287,1.621c0.531,0,1.018-0.36,1.162-0.955c0.026-0.099,0.035-0.207,0.035-0.333V118.923z"/>
		<path d="M228.433,120.462c0,0.378,0.018,0.748,0.062,1.044h-0.711l-0.072-0.549h-0.027c-0.234,0.342-0.711,0.648-1.332,0.648    c-0.883,0-1.332-0.621-1.332-1.251c0-1.053,0.936-1.629,2.619-1.621v-0.09c0-0.36-0.099-1.018-0.99-1.008    c-0.414,0-0.837,0.117-1.143,0.324l-0.181-0.531c0.36-0.225,0.892-0.378,1.44-0.378c1.342,0,1.666,0.91,1.666,1.783V120.462z     M227.658,119.283c-0.863-0.018-1.845,0.135-1.845,0.981c0,0.522,0.342,0.756,0.738,0.756c0.576,0,0.945-0.36,1.071-0.729    c0.027-0.081,0.035-0.171,0.035-0.252V119.283z"/>
		<path d="M231.609,115.115h0.791v6.392h-0.791V115.115z"/>
		<path d="M235.505,121.606c-1.17,0-2.088-0.864-2.088-2.242c0-1.458,0.963-2.314,2.16-2.314c1.252,0,2.098,0.91,2.098,2.233    c0,1.621-1.125,2.323-2.16,2.323H235.505z M235.542,121.012c0.756,0,1.322-0.711,1.322-1.702c0-0.738-0.369-1.666-1.305-1.666    c-0.928,0-1.332,0.864-1.332,1.693c0,0.954,0.539,1.674,1.305,1.674H235.542z"/>
		<path d="M238.566,120.697c0.242,0.144,0.656,0.306,1.053,0.306c0.566,0,0.838-0.279,0.838-0.648c0-0.378-0.226-0.576-0.802-0.792    c-0.792-0.288-1.161-0.72-1.161-1.233c0-0.703,0.576-1.279,1.503-1.279c0.441,0,0.829,0.117,1.062,0.271l-0.188,0.567    c-0.172-0.099-0.486-0.252-0.893-0.252c-0.467,0-0.72,0.27-0.72,0.594c0,0.36,0.253,0.522,0.819,0.747    c0.748,0.279,1.144,0.657,1.144,1.306c0,0.774-0.604,1.314-1.62,1.314c-0.478,0-0.919-0.126-1.225-0.306L238.566,120.697z"/>
		<path d="M242.687,119.472c0.019,1.062,0.693,1.503,1.486,1.503c0.566,0,0.918-0.099,1.206-0.225l0.144,0.567    c-0.279,0.126-0.766,0.279-1.458,0.279c-1.333,0-2.143-0.891-2.143-2.196c0-1.314,0.783-2.35,2.052-2.35    c1.424,0,1.792,1.251,1.792,2.053c0,0.162-0.009,0.279-0.026,0.369H242.687z M245.001,118.905c0.009-0.504-0.207-1.288-1.09-1.288    c-0.811,0-1.152,0.738-1.215,1.288H245.001z"/>
		<path d="M246.638,120.697c0.242,0.144,0.657,0.306,1.053,0.306c0.567,0,0.838-0.279,0.838-0.648c0-0.378-0.225-0.576-0.801-0.792    c-0.793-0.288-1.162-0.72-1.162-1.233c0-0.703,0.576-1.279,1.504-1.279c0.441,0,0.828,0.117,1.062,0.271l-0.189,0.567    c-0.172-0.099-0.486-0.252-0.892-0.252c-0.468,0-0.72,0.27-0.72,0.594c0,0.36,0.252,0.522,0.818,0.747    c0.748,0.279,1.145,0.657,1.145,1.306c0,0.774-0.604,1.314-1.621,1.314c-0.477,0-0.918-0.126-1.225-0.306L246.638,120.697z"/>
	</g>
	
		<line fill="none" stroke="#999999" stroke-width="0.5" stroke-linejoin="round" stroke-miterlimit="10" x1="14.773" y1="2.713" x2="278.773" y2="2.713"/>
	
		<line fill="none" stroke="#999999" stroke-width="0.5" stroke-linejoin="round" stroke-miterlimit="10" x1="14.773" y1="26.793" x2="278.773" y2="26.793"/>
	
		<line fill="none" stroke="#999999" stroke-width="0.5" stroke-linejoin="round" stroke-miterlimit="10" x1="14.773" y1="50.722" x2="278.773" y2="50.722"/>
	
		<line fill="none" stroke="#999999" stroke-width="0.5" stroke-linejoin="round" stroke-miterlimit="10" x1="14.773" y1="74.801" x2="278.773" y2="74.801"/>
	
		<line fill="none" stroke="#999999" stroke-width="0.5" stroke-linejoin="round" stroke-miterlimit="10" x1="14.773" y1="98.73" x2="278.773" y2="98.73"/>
	
		<line fill="none" stroke="#999999" stroke-width="0.5" stroke-linejoin="round" stroke-miterlimit="10" x1="14.773" y1="122.659" x2="278.773" y2="122.659"/>
	<polyline fill="none" stroke="#000000" stroke-width="0.5" stroke-linejoin="round" stroke-miterlimit="10" points="   278.773,146.713 14.801,146.713 14.801,2.713  "/>
	<polyline fill="none" stroke="#000000" stroke-linejoin="round" stroke-miterlimit="10" points="33.714,85.336 71.432,79.467    109.151,88.164 146.869,84.282 184.424,61.256 222.141,64.718 259.86,59.3  "/>
	<polyline fill="none" stroke="#000000" stroke-linejoin="round" stroke-miterlimit="10" stroke-dasharray="3,2" points="   33.714,90.152 71.432,85.788 109.151,87.744 146.869,101.138 184.424,96.774 222.141,100.235 259.86,102.041  "/>
	<g>
		<g>
			
				<line fill="none" stroke="#000000" stroke-width="0.5" stroke-miterlimit="8" x1="116.171" y1="47.041" x2="116.171" y2="49.041"/>
			
				<line fill="none" stroke="#000000" stroke-width="0.5" stroke-miterlimit="8" stroke-dasharray="3.905,1.9525" x1="116.171" y1="50.994" x2="116.171" y2="143.737"/>
			
				<line fill="none" stroke="#000000" stroke-width="0.5" stroke-miterlimit="8" x1="116.171" y1="144.713" x2="116.171" y2="146.713"/>
		</g>
	</g>
	
		<line fill="none" stroke="#000000" stroke-width="0.5" stroke-linejoin="round" stroke-miterlimit="10" x1="11.744" y1="2.713" x2="14.744" y2="2.713"/>
	
		<line fill="none" stroke="#000000" stroke-width="0.5" stroke-linejoin="round" stroke-miterlimit="10" x1="11.744" y1="26.713" x2="14.744" y2="26.713"/>
	
		<line fill="none" stroke="#000000" stroke-width="0.5" stroke-linejoin="round" stroke-miterlimit="10" x1="11.744" y1="50.713" x2="14.744" y2="50.713"/>
	
		<line fill="none" stroke="#000000" stroke-width="0.5" stroke-linejoin="round" stroke-miterlimit="10" x1="11.744" y1="74.713" x2="14.744" y2="74.713"/>
	
		<line fill="none" stroke="#000000" stroke-width="0.5" stroke-linejoin="round" stroke-miterlimit="10" x1="11.744" y1="98.713" x2="14.744" y2="98.713"/>
	
		<line fill="none" stroke="#000000" stroke-width="0.5" stroke-linejoin="round" stroke-miterlimit="10" x1="11.744" y1="122.713" x2="14.744" y2="122.713"/>
	
		<line fill="none" stroke="#000000" stroke-width="0.5" stroke-linejoin="round" stroke-miterlimit="10" x1="11.744" y1="146.713" x2="14.744" y2="146.713"/>
	
		<line fill="none" stroke="#000000" stroke-width="0.5" stroke-linejoin="round" stroke-miterlimit="10" x1="33.714" y1="149.713" x2="33.714" y2="146.713"/>
	
		<line fill="none" stroke="#000000" stroke-width="0.5" stroke-linejoin="round" stroke-miterlimit="10" x1="71.405" y1="149.713" x2="71.405" y2="146.713"/>
	
		<line fill="none" stroke="#000000" stroke-width="0.5" stroke-linejoin="round" stroke-miterlimit="10" x1="109.096" y1="149.713" x2="109.096" y2="146.713"/>
	
		<line fill="none" stroke="#000000" stroke-width="0.5" stroke-linejoin="round" stroke-miterlimit="10" x1="146.788" y1="149.713" x2="146.788" y2="146.713"/>
	
		<line fill="none" stroke="#000000" stroke-width="0.5" stroke-linejoin="round" stroke-miterlimit="10" x1="184.478" y1="149.713" x2="184.478" y2="146.713"/>
	
		<line fill="none" stroke="#000000" stroke-width="0.5" stroke-linejoin="round" stroke-miterlimit="10" x1="222.169" y1="149.713" x2="222.169" y2="146.713"/>
	
		<line fill="none" stroke="#000000" stroke-width="0.5" stroke-linejoin="round" stroke-miterlimit="10" x1="259.86" y1="149.713" x2="259.86" y2="146.713"/>
</g>
</svg>