<svg xmlns="http://www.w3.org/2000/svg" xmlns:xlink="http://www.w3.org/1999/xlink" version="1.1" x="0px" y="0px" width="288.739px" height="142.916px" viewBox="0 0 288.739 142.916" enable-background="new 0 0 288.739 142.916" xml:space="preserve">
<g id="wide" display="none">
</g>
<g id="text_column">
</g>
<g id="art">
	
		<line fill="none" stroke="#A7A9AC" stroke-width="0.5" stroke-linejoin="round" stroke-miterlimit="10" x1="14.182" y1="2.934" x2="287.573" y2="2.934"/>
	
		<line fill="none" stroke="#A7A9AC" stroke-width="0.5" stroke-linejoin="round" stroke-miterlimit="10" x1="14.182" y1="17.935" x2="287.573" y2="17.935"/>
	
		<line fill="none" stroke="#A7A9AC" stroke-width="0.5" stroke-linejoin="round" stroke-miterlimit="10" x1="14.182" y1="32.936" x2="287.573" y2="32.936"/>
	
		<line fill="none" stroke="#A7A9AC" stroke-width="0.5" stroke-linejoin="round" stroke-miterlimit="10" x1="14.182" y1="107.941" x2="287.573" y2="107.941"/>
	<rect x="207.738" y="7.957" fill="#FFFFFF" width="81.001" height="34.359"/>
	<g>
		<path d="M1.728,5.373C0.712,5.373,0.016,4.422,0,2.702C0,0.951,0.76,0,1.815,0c1.087,0,1.719,0.976,1.719,2.631    c0,1.767-0.664,2.742-1.799,2.742H1.728z M1.767,4.829c0.712,0,1.056-0.839,1.056-2.167c0-1.279-0.32-2.118-1.056-2.118    c-0.64,0-1.055,0.815-1.055,2.118c-0.016,1.352,0.4,2.167,1.047,2.167H1.767z"/>
		<path d="M4.696,5.373c-0.272,0-0.463-0.216-0.463-0.504c0-0.287,0.2-0.504,0.479-0.504s0.472,0.208,0.472,0.504    c0,0.288-0.192,0.504-0.479,0.504H4.696z"/>
		<path d="M7.575,0c1.007,0,1.519,0.624,1.519,1.279c0,0.439-0.224,0.92-0.864,1.216v0.023c0.648,0.256,1.048,0.72,1.048,1.344    c0,0.911-0.776,1.511-1.767,1.511c-1.087,0-1.743-0.64-1.743-1.399c0-0.655,0.392-1.127,1.023-1.399V2.551    C6.208,2.279,5.96,1.831,5.96,1.383C5.96,0.56,6.655,0,7.567,0H7.575z M7.527,4.861c0.632,0,1.04-0.392,1.04-0.928    c0-0.623-0.439-0.936-1.144-1.135C6.815,2.975,6.488,3.382,6.488,3.878c-0.024,0.52,0.375,0.983,1.031,0.983H7.527z M7.535,0.504    c-0.584,0-0.904,0.384-0.904,0.831c-0.008,0.521,0.392,0.8,0.992,0.96c0.448-0.152,0.792-0.472,0.792-0.943    c0-0.416-0.248-0.848-0.872-0.848H7.535z"/>
		<path d="M1.728,20.373c-1.016,0-1.711-0.951-1.728-2.671C0,15.951,0.76,15,1.815,15c1.087,0,1.719,0.976,1.719,2.631    c0,1.767-0.664,2.742-1.799,2.742H1.728z M1.767,19.829c0.712,0,1.056-0.839,1.056-2.167c0-1.279-0.32-2.118-1.056-2.118    c-0.64,0-1.055,0.815-1.055,2.118c-0.016,1.352,0.4,2.167,1.047,2.167H1.767z"/>
		<path d="M4.696,20.373c-0.272,0-0.463-0.216-0.463-0.504c0-0.287,0.2-0.504,0.479-0.504s0.472,0.208,0.472,0.504    c0,0.288-0.192,0.504-0.479,0.504H4.696z"/>
		<path d="M9.206,15.088v0.464l-2.263,4.733h-0.72l2.247-4.598v-0.016H5.928v-0.584H9.206z"/>
		<path d="M1.728,35.373c-1.016,0-1.711-0.951-1.728-2.671C0,30.951,0.76,30,1.815,30c1.087,0,1.719,0.976,1.719,2.631    c0,1.767-0.664,2.742-1.799,2.742H1.728z M1.767,34.829c0.712,0,1.056-0.839,1.056-2.167c0-1.279-0.32-2.118-1.056-2.118    c-0.64,0-1.055,0.815-1.055,2.118c-0.016,1.352,0.4,2.167,1.047,2.167H1.767z"/>
		<path d="M4.696,35.373c-0.272,0-0.463-0.216-0.463-0.504c0-0.287,0.2-0.504,0.479-0.504s0.472,0.208,0.472,0.504    c0,0.288-0.192,0.504-0.479,0.504H4.696z"/>
		<path d="M8.798,30.584c-0.144-0.008-0.328,0.008-0.528,0.04C7.159,30.8,6.583,31.6,6.464,32.463h0.016    c0.248-0.336,0.688-0.607,1.264-0.607c0.919,0,1.567,0.671,1.567,1.679c0,0.959-0.647,1.839-1.735,1.839    c-1.104,0-1.831-0.863-1.831-2.215c0-1.023,0.36-1.831,0.879-2.343c0.432-0.424,1.007-0.688,1.663-0.768    c0.208-0.032,0.384-0.04,0.512-0.04V30.584z M7.591,34.829c0.6,0,1.008-0.503,1.008-1.247c0-0.743-0.424-1.191-1.072-1.191    c-0.423,0-0.823,0.256-1.015,0.64c-0.04,0.08-0.072,0.176-0.072,0.304c0.008,0.855,0.408,1.495,1.144,1.495H7.591z"/>
		<path d="M1.728,50.373c-1.016,0-1.711-0.951-1.728-2.671C0,45.951,0.76,45,1.815,45c1.087,0,1.719,0.976,1.719,2.631    c0,1.767-0.664,2.742-1.799,2.742H1.728z M1.767,49.829c0.712,0,1.056-0.839,1.056-2.167c0-1.279-0.32-2.118-1.056-2.118    c-0.64,0-1.055,0.815-1.055,2.118c-0.016,1.352,0.4,2.167,1.047,2.167H1.767z"/>
		<path d="M4.696,50.373c-0.272,0-0.463-0.216-0.463-0.504c0-0.287,0.2-0.504,0.479-0.504s0.472,0.208,0.472,0.504    c0,0.288-0.192,0.504-0.479,0.504H4.696z"/>
		<path d="M8.934,45.68H6.951l-0.2,1.335c0.12-0.016,0.232-0.031,0.424-0.031c0.408,0,0.799,0.088,1.119,0.279    c0.408,0.224,0.744,0.68,0.744,1.335c0,1.016-0.808,1.775-1.935,1.775c-0.568,0-1.04-0.16-1.295-0.319l0.176-0.536    c0.216,0.128,0.64,0.288,1.12,0.288c0.655,0,1.231-0.432,1.223-1.136c0-0.663-0.456-1.144-1.487-1.144    c-0.304,0-0.536,0.024-0.728,0.057l0.336-2.495h2.486V45.68z"/>
		<path d="M1.728,65.373c-1.016,0-1.711-0.951-1.728-2.671C0,60.951,0.76,60,1.815,60c1.087,0,1.719,0.976,1.719,2.631    c0,1.767-0.664,2.742-1.799,2.742H1.728z M1.767,64.829c0.712,0,1.056-0.839,1.056-2.167c0-1.279-0.32-2.118-1.056-2.118    c-0.64,0-1.055,0.815-1.055,2.118c-0.016,1.352,0.4,2.167,1.047,2.167H1.767z"/>
		<path d="M4.696,65.373c-0.272,0-0.463-0.216-0.463-0.504c0-0.287,0.2-0.504,0.479-0.504s0.472,0.208,0.472,0.504    c0,0.288-0.192,0.504-0.479,0.504H4.696z"/>
		<path d="M8.007,65.285v-1.423H5.592v-0.456l2.318-3.318h0.76v3.23h0.728v0.544H8.67v1.423H8.007z M8.007,63.318v-1.735    c0-0.271,0.008-0.544,0.024-0.815H8.007c-0.16,0.304-0.288,0.527-0.432,0.768l-1.271,1.768v0.016H8.007z"/>
		<path d="M1.728,80.373c-1.016,0-1.711-0.951-1.728-2.671C0,75.951,0.76,75,1.815,75c1.087,0,1.719,0.976,1.719,2.631    c0,1.767-0.664,2.742-1.799,2.742H1.728z M1.767,79.829c0.712,0,1.056-0.839,1.056-2.167c0-1.279-0.32-2.118-1.056-2.118    c-0.64,0-1.055,0.815-1.055,2.118c-0.016,1.352,0.4,2.167,1.047,2.167H1.767z"/>
		<path d="M4.696,80.373c-0.272,0-0.463-0.216-0.463-0.504c0-0.287,0.2-0.504,0.479-0.504s0.472,0.208,0.472,0.504    c0,0.288-0.192,0.504-0.479,0.504H4.696z"/>
		<path d="M6,79.485c0.2,0.12,0.655,0.32,1.151,0.32c0.896,0,1.183-0.568,1.175-1.008c-0.008-0.728-0.664-1.039-1.343-1.039H6.592    V77.23h0.392c0.512,0,1.159-0.264,1.159-0.879c0-0.416-0.264-0.784-0.911-0.784c-0.416,0-0.816,0.185-1.04,0.344L6,75.399    C6.28,75.2,6.808,75,7.367,75c1.023,0,1.487,0.607,1.487,1.239c0,0.544-0.328,1-0.959,1.231v0.016    c0.64,0.12,1.159,0.6,1.159,1.328c0,0.831-0.656,1.559-1.895,1.559c-0.583,0-1.095-0.184-1.351-0.352L6,79.485z"/>
		<path d="M1.728,95.373c-1.016,0-1.711-0.951-1.728-2.671C0,90.951,0.76,90,1.815,90c1.087,0,1.719,0.976,1.719,2.631    c0,1.767-0.664,2.742-1.799,2.742H1.728z M1.767,94.829c0.712,0,1.056-0.839,1.056-2.167c0-1.279-0.32-2.118-1.056-2.118    c-0.64,0-1.055,0.815-1.055,2.118c-0.016,1.352,0.4,2.167,1.047,2.167H1.767z"/>
		<path d="M4.696,95.373c-0.272,0-0.463-0.216-0.463-0.504c0-0.287,0.2-0.504,0.479-0.504s0.472,0.208,0.472,0.504    c0,0.288-0.192,0.504-0.479,0.504H4.696z"/>
		<path d="M5.832,95.285v-0.432l0.552-0.536c1.327-1.263,1.935-1.935,1.935-2.718c0-0.528-0.248-1.016-1.023-1.016    c-0.472,0-0.863,0.239-1.103,0.439l-0.224-0.496C6.32,90.232,6.839,90,7.439,90c1.111,0,1.583,0.768,1.583,1.512    c0,0.959-0.696,1.734-1.791,2.79l-0.408,0.384v0.016H9.15v0.584H5.832z"/>
		<path d="M1.728,110.373c-1.016,0-1.711-0.951-1.728-2.671C0,105.951,0.76,105,1.815,105c1.087,0,1.719,0.976,1.719,2.631    c0,1.767-0.664,2.742-1.799,2.742H1.728z M1.767,109.829c0.712,0,1.056-0.839,1.056-2.167c0-1.279-0.32-2.118-1.056-2.118    c-0.64,0-1.055,0.815-1.055,2.118c-0.016,1.352,0.4,2.167,1.047,2.167H1.767z"/>
		<path d="M4.696,110.373c-0.272,0-0.463-0.216-0.463-0.504c0-0.287,0.2-0.504,0.479-0.504s0.472,0.208,0.472,0.504    c0,0.288-0.192,0.504-0.479,0.504H4.696z"/>
		<path d="M7.359,105.744H7.343l-0.904,0.487l-0.136-0.536l1.135-0.607h0.6v5.197H7.359V105.744z"/>
		<path d="M1.728,125.373c-1.016,0-1.711-0.951-1.728-2.671C0,120.951,0.76,120,1.815,120c1.087,0,1.719,0.976,1.719,2.631    c0,1.767-0.664,2.742-1.799,2.742H1.728z M1.767,124.829c0.712,0,1.056-0.839,1.056-2.167c0-1.279-0.32-2.118-1.056-2.118    c-0.64,0-1.055,0.815-1.055,2.118c-0.016,1.352,0.4,2.167,1.047,2.167H1.767z"/>
		<path d="M4.696,125.373c-0.272,0-0.463-0.216-0.463-0.504c0-0.287,0.2-0.504,0.479-0.504s0.472,0.208,0.472,0.504    c0,0.288-0.192,0.504-0.479,0.504H4.696z"/>
		<path d="M7.487,125.373c-1.016,0-1.711-0.951-1.728-2.671c0-1.751,0.76-2.702,1.815-2.702c1.087,0,1.719,0.976,1.719,2.631    c0,1.767-0.664,2.742-1.799,2.742H7.487z M7.527,124.829c0.712,0,1.056-0.839,1.056-2.167c0-1.279-0.32-2.118-1.056-2.118    c-0.64,0-1.055,0.815-1.055,2.118c-0.016,1.352,0.4,2.167,1.047,2.167H7.527z"/>
	</g>
	
		<line fill="none" stroke="#A7A9AC" stroke-width="0.5" stroke-linejoin="round" stroke-miterlimit="10" x1="14.182" y1="47.937" x2="287.573" y2="47.937"/>
	
		<line fill="none" stroke="#A7A9AC" stroke-width="0.5" stroke-linejoin="round" stroke-miterlimit="10" x1="14.182" y1="77.939" x2="287.573" y2="77.939"/>
	
		<line fill="none" stroke="#A7A9AC" stroke-width="0.5" stroke-linejoin="round" stroke-miterlimit="10" x1="14.182" y1="92.94" x2="287.573" y2="92.94"/>
	
		<line fill="none" stroke="#A7A9AC" stroke-width="0.5" stroke-linejoin="round" stroke-miterlimit="10" x1="14.182" y1="62.938" x2="287.573" y2="62.938"/>
	
		<line fill="none" stroke="#000000" stroke-width="0.5" stroke-linejoin="round" stroke-miterlimit="10" x1="14.182" y1="122.84" x2="287.573" y2="122.84"/>
	
		<line fill="none" stroke="#000000" stroke-width="0.5" stroke-linejoin="round" stroke-miterlimit="10" x1="14.157" y1="122.934" x2="14.157" y2="2.994"/>
	<g>
		<path d="M31.454,132.157v-5.389h0.768l1.719,2.727c0.392,0.632,0.711,1.199,0.959,1.751l0.024-0.008    c-0.064-0.72-0.08-1.375-0.08-2.207v-2.263H35.5v5.389h-0.703l-1.711-2.734c-0.376-0.6-0.736-1.215-1-1.799l-0.024,0.008    c0.04,0.68,0.048,1.327,0.048,2.223v2.303H31.454z"/>
		<path d="M37.093,130.35c0.016,0.943,0.616,1.335,1.319,1.335c0.504,0,0.815-0.088,1.071-0.2l0.128,0.503    c-0.248,0.112-0.68,0.248-1.295,0.248c-1.184,0-1.903-0.792-1.903-1.951c0-1.167,0.696-2.087,1.823-2.087    c1.263,0,1.591,1.112,1.591,1.823c0,0.144-0.008,0.248-0.024,0.328H37.093z M39.148,129.847c0.008-0.448-0.184-1.144-0.967-1.144    c-0.72,0-1.023,0.656-1.08,1.144H39.148z"/>
		<path d="M44.012,131.589c0,0.896-0.184,1.432-0.552,1.775c-0.384,0.344-0.928,0.463-1.416,0.463c-0.463,0-0.975-0.112-1.287-0.32    l0.176-0.543c0.256,0.168,0.656,0.312,1.135,0.312c0.72,0,1.248-0.376,1.248-1.359v-0.424H43.3    c-0.208,0.36-0.631,0.647-1.231,0.647c-0.959,0-1.647-0.815-1.647-1.895c0-1.311,0.855-2.047,1.751-2.047    c0.672,0,1.032,0.344,1.208,0.672h0.016l0.024-0.583h0.624c-0.024,0.271-0.032,0.591-0.032,1.055V131.589z M43.309,129.807    c0-0.112-0.008-0.216-0.04-0.312c-0.128-0.416-0.464-0.751-0.983-0.751c-0.672,0-1.151,0.568-1.151,1.471    c0,0.751,0.392,1.391,1.143,1.391c0.44,0,0.832-0.272,0.976-0.728c0.04-0.112,0.056-0.248,0.056-0.376V129.807z"/>
		<path d="M47.9,131.23c0,0.335,0.016,0.664,0.056,0.927h-0.632l-0.064-0.488h-0.024c-0.208,0.304-0.631,0.576-1.183,0.576    c-0.784,0-1.184-0.552-1.184-1.111c0-0.936,0.832-1.447,2.327-1.439v-0.08c0-0.32-0.088-0.904-0.879-0.896    c-0.368,0-0.744,0.104-1.016,0.288l-0.16-0.472c0.32-0.2,0.792-0.336,1.279-0.336c1.191,0,1.479,0.808,1.479,1.583V131.23z     M47.212,130.182c-0.768-0.016-1.639,0.12-1.639,0.872c0,0.464,0.304,0.672,0.656,0.672c0.512,0,0.839-0.32,0.951-0.648    c0.024-0.072,0.032-0.152,0.032-0.224V130.182z"/>
		<path d="M49.877,127.36v0.928h1.007v0.536h-1.007v2.079c0,0.48,0.136,0.751,0.528,0.751c0.192,0,0.304-0.016,0.408-0.048    l0.032,0.536c-0.136,0.048-0.352,0.096-0.624,0.096c-0.328,0-0.591-0.112-0.759-0.296c-0.192-0.216-0.272-0.56-0.272-1.016v-2.103    h-0.6v-0.536h0.6v-0.712L49.877,127.36z"/>
		<path d="M52.013,127.632c-0.256,0-0.424-0.2-0.424-0.432c0-0.248,0.176-0.439,0.44-0.439c0.256,0,0.432,0.192,0.432,0.439    c0,0.232-0.168,0.432-0.44,0.432H52.013z M51.677,132.157v-3.87h0.704v3.87H51.677z"/>
		<path d="M53.821,128.288l0.76,2.167c0.128,0.36,0.232,0.68,0.312,1h0.024c0.088-0.32,0.2-0.64,0.328-1l0.751-2.167h0.736    l-1.52,3.87h-0.671l-1.471-3.87H53.821z"/>
		<path d="M57.797,130.35c0.016,0.943,0.616,1.335,1.319,1.335c0.504,0,0.815-0.088,1.071-0.2l0.128,0.503    c-0.248,0.112-0.68,0.248-1.295,0.248c-1.184,0-1.903-0.792-1.903-1.951c0-1.167,0.696-2.087,1.823-2.087    c1.263,0,1.591,1.112,1.591,1.823c0,0.144-0.008,0.248-0.024,0.328H57.797z M59.852,129.847c0.008-0.448-0.184-1.144-0.967-1.144    c-0.72,0-1.023,0.656-1.08,1.144H59.852z"/>
		<path d="M31.022,139.35c0.016,0.943,0.616,1.335,1.319,1.335c0.504,0,0.815-0.088,1.071-0.2l0.128,0.503    c-0.248,0.112-0.68,0.248-1.295,0.248c-1.183,0-1.903-0.792-1.903-1.951c0-1.167,0.696-2.087,1.823-2.087    c1.263,0,1.591,1.112,1.591,1.823c0,0.144-0.008,0.248-0.024,0.328H31.022z M33.077,138.846c0.008-0.448-0.184-1.144-0.968-1.144    c-0.72,0-1.023,0.656-1.079,1.144H33.077z"/>
		<path d="M34.63,138.334c0-0.408-0.016-0.728-0.032-1.047h0.615l0.032,0.624h0.024c0.216-0.368,0.576-0.712,1.224-0.712    c0.52,0,0.919,0.32,1.087,0.776h0.016c0.12-0.224,0.28-0.384,0.439-0.504c0.232-0.176,0.48-0.272,0.848-0.272    c0.52,0,1.279,0.336,1.279,1.679v2.279h-0.688v-2.191c0-0.751-0.28-1.191-0.84-1.191c-0.408,0-0.711,0.296-0.839,0.632    c-0.032,0.104-0.056,0.232-0.056,0.352v2.399h-0.688v-2.327c0-0.616-0.272-1.056-0.808-1.056c-0.432,0-0.76,0.352-0.872,0.704    c-0.04,0.104-0.056,0.224-0.056,0.344v2.334H34.63V138.334z"/>
		<path d="M42.877,141.245c-1.04,0-1.855-0.768-1.855-1.991c0-1.295,0.855-2.055,1.919-2.055c1.111,0,1.863,0.808,1.863,1.983    c0,1.439-1,2.063-1.919,2.063H42.877z M42.909,140.717c0.671,0,1.175-0.631,1.175-1.511c0-0.656-0.328-1.479-1.159-1.479    c-0.824,0-1.184,0.768-1.184,1.503c0,0.847,0.479,1.487,1.159,1.487H42.909z"/>
		<path d="M46.541,136.36v0.927h1.007v0.536h-1.007v2.079c0,0.48,0.136,0.751,0.528,0.751c0.192,0,0.304-0.016,0.408-0.048    l0.032,0.536c-0.136,0.048-0.352,0.096-0.624,0.096c-0.328,0-0.591-0.112-0.759-0.296c-0.192-0.216-0.272-0.56-0.272-1.016v-2.103    h-0.6v-0.536h0.6v-0.712L46.541,136.36z"/>
		<path d="M48.677,136.631c-0.256,0-0.424-0.2-0.424-0.432c0-0.248,0.176-0.439,0.44-0.439c0.256,0,0.432,0.192,0.432,0.439    c0,0.232-0.168,0.432-0.44,0.432H48.677z M48.341,141.157v-3.87h0.704v3.87H48.341z"/>
		<path d="M51.789,141.245c-1.039,0-1.855-0.768-1.855-1.991c0-1.295,0.855-2.055,1.919-2.055c1.111,0,1.863,0.808,1.863,1.983    c0,1.439-1,2.063-1.919,2.063H51.789z M51.821,140.717c0.671,0,1.175-0.631,1.175-1.511c0-0.656-0.328-1.479-1.16-1.479    c-0.823,0-1.183,0.768-1.183,1.503c0,0.847,0.48,1.487,1.159,1.487H51.821z"/>
		<path d="M54.605,138.334c0-0.408-0.008-0.728-0.032-1.047h0.624l0.04,0.631h0.016c0.192-0.36,0.64-0.72,1.279-0.72    c0.536,0,1.367,0.32,1.367,1.647v2.311h-0.704v-2.231c0-0.624-0.232-1.151-0.896-1.151c-0.456,0-0.815,0.328-0.943,0.72    c-0.032,0.088-0.048,0.216-0.048,0.328v2.334h-0.704V138.334z"/>
		<path d="M58.95,140.437c0.216,0.128,0.583,0.272,0.936,0.272c0.503,0,0.744-0.248,0.744-0.576c0-0.336-0.2-0.512-0.712-0.704    c-0.704-0.256-1.031-0.64-1.031-1.095c0-0.624,0.512-1.136,1.335-1.136c0.392,0,0.735,0.104,0.943,0.24l-0.168,0.503    c-0.152-0.088-0.432-0.224-0.792-0.224c-0.416,0-0.64,0.24-0.64,0.527c0,0.32,0.224,0.464,0.728,0.664    c0.664,0.248,1.015,0.583,1.015,1.159c0,0.688-0.536,1.167-1.439,1.167c-0.424,0-0.815-0.112-1.087-0.272L58.95,140.437z"/>
	</g>
	
		<rect x="210.392" y="24.667" fill="#D1D3D4" stroke="#000000" stroke-width="0.5" stroke-linejoin="round" stroke-miterlimit="10" width="6" height="5.999"/>
	<g>
		<path d="M221.084,15.145l-0.559,1.695h-0.721l1.832-5.389h0.84l1.838,5.389h-0.743l-0.575-1.695H221.084z M222.852,14.602    l-0.535-1.551c-0.112-0.352-0.192-0.671-0.272-0.983h-0.024c-0.071,0.312-0.159,0.647-0.264,0.976l-0.527,1.559H222.852z"/>
		<path d="M225.933,12.043v0.927h1.007v0.536h-1.007v2.079c0,0.48,0.136,0.751,0.528,0.751c0.191,0,0.303-0.016,0.407-0.048    l0.032,0.536c-0.137,0.048-0.352,0.096-0.624,0.096c-0.327,0-0.591-0.112-0.759-0.296c-0.192-0.216-0.272-0.56-0.272-1.016v-2.103    h-0.6V12.97h0.6v-0.711L225.933,12.043z"/>
		<path d="M228.581,12.043v0.927h1.008v0.536h-1.008v2.079c0,0.48,0.137,0.751,0.528,0.751c0.192,0,0.304-0.016,0.407-0.048    l0.033,0.536c-0.137,0.048-0.353,0.096-0.625,0.096c-0.327,0-0.592-0.112-0.759-0.296c-0.192-0.216-0.272-0.56-0.272-1.016v-2.103    h-0.6V12.97h0.6v-0.711L228.581,12.043z"/>
		<path d="M230.381,14.178c0-0.456-0.008-0.848-0.031-1.208h0.615l0.031,0.76h0.024c0.177-0.52,0.608-0.848,1.079-0.848    c0.072,0,0.129,0.008,0.192,0.016v0.664c-0.071-0.008-0.144-0.016-0.239-0.016c-0.496,0-0.848,0.375-0.943,0.896    c-0.017,0.104-0.025,0.216-0.025,0.328v2.071h-0.703V14.178z"/>
		<path d="M233.333,12.315c-0.256,0-0.424-0.2-0.424-0.432c0-0.248,0.177-0.44,0.44-0.44c0.256,0,0.432,0.192,0.432,0.44    c0,0.231-0.168,0.432-0.439,0.432H233.333z M232.998,16.84v-3.87h0.704v3.87H232.998z"/>
		<path d="M234.87,11.164h0.703v2.422h0.016c0.248-0.432,0.696-0.704,1.32-0.704c0.959,0,1.631,0.8,1.631,1.967    c0,1.391-0.88,2.079-1.743,2.079c-0.56,0-0.999-0.216-1.296-0.728h-0.016l-0.04,0.64h-0.607c0.024-0.264,0.032-0.656,0.032-1    V11.164z M235.573,15.289c0,0.088,0.008,0.176,0.023,0.256c0.137,0.488,0.553,0.824,1.057,0.824c0.743,0,1.175-0.6,1.175-1.487    c0-0.784-0.399-1.447-1.151-1.447c-0.479,0-0.928,0.336-1.063,0.864c-0.024,0.088-0.04,0.184-0.04,0.296V15.289z"/>
		<path d="M242.66,15.777c0,0.408,0.009,0.76,0.032,1.063h-0.623l-0.041-0.632h-0.016c-0.176,0.312-0.592,0.72-1.279,0.72    c-0.607,0-1.336-0.344-1.336-1.695V12.97h0.704v2.135c0,0.735,0.231,1.239,0.864,1.239c0.471,0,0.799-0.328,0.927-0.648    c0.04-0.096,0.063-0.224,0.063-0.359V12.97h0.704V15.777z"/>
		<path d="M244.676,12.043v0.927h1.008v0.536h-1.008v2.079c0,0.48,0.137,0.751,0.528,0.751c0.192,0,0.304-0.016,0.407-0.048    l0.033,0.536c-0.137,0.048-0.353,0.096-0.625,0.096c-0.327,0-0.592-0.112-0.759-0.296c-0.192-0.216-0.272-0.56-0.272-1.016v-2.103    h-0.6V12.97h0.6v-0.711L244.676,12.043z"/>
		<path d="M246.813,12.315c-0.256,0-0.424-0.2-0.424-0.432c0-0.248,0.176-0.44,0.439-0.44c0.256,0,0.432,0.192,0.432,0.44    c0,0.231-0.168,0.432-0.439,0.432H246.813z M246.477,16.84v-3.87h0.703v3.87H246.477z"/>
		<path d="M249.924,16.928c-1.039,0-1.855-0.768-1.855-1.991c0-1.295,0.855-2.055,1.92-2.055c1.111,0,1.863,0.808,1.863,1.983    c0,1.439-1,2.063-1.92,2.063H249.924z M249.957,16.4c0.671,0,1.175-0.631,1.175-1.511c0-0.655-0.328-1.479-1.158-1.479    c-0.824,0-1.184,0.768-1.184,1.503c0,0.847,0.479,1.487,1.158,1.487H249.957z"/>
		<path d="M252.741,14.018c0-0.408-0.008-0.728-0.031-1.048h0.623l0.04,0.632h0.017c0.191-0.36,0.639-0.72,1.279-0.72    c0.535,0,1.367,0.32,1.367,1.647v2.311h-0.705v-2.231c0-0.624-0.23-1.151-0.895-1.151c-0.455,0-0.815,0.328-0.943,0.72    c-0.032,0.088-0.049,0.216-0.049,0.328v2.335h-0.703V14.018z"/>
		<path d="M259.725,12.043v0.927h1.006v0.536h-1.006v2.079c0,0.48,0.135,0.751,0.527,0.751c0.191,0,0.303-0.016,0.408-0.048    l0.031,0.536c-0.137,0.048-0.352,0.096-0.623,0.096c-0.328,0-0.592-0.112-0.76-0.296c-0.193-0.216-0.273-0.56-0.273-1.016v-2.103    h-0.6V12.97h0.6v-0.711L259.725,12.043z"/>
		<path d="M263.1,16.928c-1.039,0-1.855-0.768-1.855-1.991c0-1.295,0.855-2.055,1.92-2.055c1.111,0,1.863,0.808,1.863,1.983    c0,1.439-1,2.063-1.92,2.063H263.1z M263.131,16.4c0.672,0,1.176-0.631,1.176-1.511c0-0.655-0.328-1.479-1.158-1.479    c-0.824,0-1.184,0.768-1.184,1.503c0,0.847,0.479,1.487,1.158,1.487H263.131z"/>
		<path d="M268.461,12.043v0.927h1.006v0.536h-1.006v2.079c0,0.48,0.135,0.751,0.527,0.751c0.191,0,0.303-0.016,0.408-0.048    l0.031,0.536c-0.137,0.048-0.352,0.096-0.623,0.096c-0.328,0-0.592-0.112-0.76-0.296c-0.193-0.216-0.273-0.56-0.273-1.016v-2.103    h-0.6V12.97h0.6v-0.711L268.461,12.043z"/>
		<path d="M270.26,14.178c0-0.456-0.008-0.848-0.031-1.208h0.615l0.031,0.76h0.025c0.176-0.52,0.607-0.848,1.078-0.848    c0.072,0,0.129,0.008,0.193,0.016v0.664c-0.072-0.008-0.145-0.016-0.24-0.016c-0.496,0-0.848,0.375-0.943,0.896    c-0.018,0.104-0.025,0.216-0.025,0.328v2.071h-0.703V14.178z"/>
		<path d="M275.604,15.913c0,0.336,0.016,0.664,0.055,0.928h-0.631l-0.064-0.488h-0.023c-0.209,0.304-0.633,0.576-1.184,0.576    c-0.783,0-1.184-0.552-1.184-1.111c0-0.936,0.832-1.447,2.326-1.439v-0.08c0-0.32-0.088-0.904-0.879-0.896    c-0.367,0-0.744,0.104-1.016,0.288l-0.16-0.472c0.32-0.2,0.793-0.336,1.279-0.336c1.191,0,1.48,0.808,1.48,1.583V15.913z     M274.917,14.865c-0.768-0.016-1.641,0.12-1.641,0.872c0,0.464,0.305,0.672,0.656,0.672c0.512,0,0.84-0.32,0.951-0.648    c0.023-0.072,0.033-0.152,0.033-0.224V14.865z"/>
		<path d="M280.075,11.164v4.677c0,0.344,0.008,0.736,0.033,1h-0.633l-0.031-0.672h-0.016c-0.217,0.432-0.68,0.76-1.312,0.76    c-0.936,0-1.662-0.792-1.662-1.967c-0.008-1.295,0.799-2.079,1.734-2.079c0.6,0,1,0.28,1.168,0.584h0.016v-2.303H280.075z     M279.372,14.545c0-0.096-0.008-0.208-0.031-0.304c-0.105-0.439-0.488-0.808-1.016-0.808c-0.729,0-1.16,0.64-1.16,1.487    c0,0.792,0.393,1.439,1.145,1.439c0.471,0,0.902-0.32,1.031-0.848c0.023-0.088,0.031-0.184,0.031-0.296V14.545z"/>
		<path d="M281.645,15.033c0.016,0.944,0.615,1.335,1.318,1.335c0.504,0,0.816-0.088,1.072-0.2l0.127,0.504    c-0.248,0.112-0.68,0.248-1.295,0.248c-1.184,0-1.902-0.792-1.902-1.951c0-1.167,0.695-2.087,1.822-2.087    c1.264,0,1.592,1.111,1.592,1.823c0,0.144-0.008,0.248-0.023,0.328H281.645z M283.7,14.53c0.008-0.448-0.184-1.144-0.967-1.144    c-0.721,0-1.023,0.656-1.08,1.144H283.7z"/>
	</g>
	
		<rect x="210.164" y="11.667" fill="#808285" stroke="#000000" stroke-width="0.5" stroke-linejoin="round" stroke-miterlimit="10" width="6" height="6"/>
	<g>
		<path d="M220.855,28.145l-0.56,1.695h-0.72l1.831-5.389h0.839l1.839,5.389h-0.743l-0.576-1.695H220.855z M222.622,27.602    l-0.535-1.551c-0.112-0.352-0.192-0.671-0.272-0.983h-0.023c-0.072,0.312-0.16,0.647-0.265,0.976l-0.527,1.559H222.622z"/>
		<path d="M225.703,25.043v0.927h1.007v0.536h-1.007v2.079c0,0.48,0.136,0.751,0.527,0.751c0.191,0,0.304-0.016,0.408-0.048    l0.031,0.536c-0.136,0.048-0.352,0.096-0.623,0.096c-0.328,0-0.592-0.112-0.76-0.296c-0.192-0.216-0.272-0.56-0.272-1.016v-2.103    h-0.6V25.97h0.6v-0.711L225.703,25.043z"/>
		<path d="M228.351,25.043v0.927h1.007v0.536h-1.007v2.079c0,0.48,0.136,0.751,0.527,0.751c0.191,0,0.304-0.016,0.408-0.048    l0.031,0.536c-0.136,0.048-0.352,0.096-0.623,0.096c-0.328,0-0.592-0.112-0.76-0.296c-0.192-0.216-0.272-0.56-0.272-1.016v-2.103    h-0.6V25.97h0.6v-0.711L228.351,25.043z"/>
		<path d="M230.152,27.178c0-0.456-0.008-0.848-0.032-1.208h0.615l0.032,0.76h0.024c0.176-0.52,0.607-0.848,1.079-0.848    c0.072,0,0.128,0.008,0.191,0.016v0.664c-0.071-0.008-0.144-0.016-0.239-0.016c-0.496,0-0.848,0.375-0.943,0.896    c-0.017,0.104-0.024,0.216-0.024,0.328v2.071h-0.703V27.178z"/>
		<path d="M233.103,25.315c-0.256,0-0.424-0.2-0.424-0.432c0-0.248,0.176-0.44,0.439-0.44c0.256,0,0.432,0.192,0.432,0.44    c0,0.231-0.168,0.432-0.439,0.432H233.103z M232.767,29.84v-3.87h0.703v3.87H232.767z"/>
		<path d="M234.639,24.164h0.703v2.422h0.017c0.247-0.432,0.695-0.704,1.318-0.704c0.96,0,1.632,0.8,1.632,1.967    c0,1.391-0.88,2.079-1.743,2.079c-0.56,0-1-0.216-1.295-0.728h-0.017l-0.04,0.64h-0.607c0.023-0.264,0.032-0.656,0.032-1V24.164z     M235.342,28.289c0,0.088,0.008,0.176,0.024,0.256c0.136,0.488,0.552,0.824,1.055,0.824c0.744,0,1.176-0.6,1.176-1.487    c0-0.784-0.399-1.447-1.151-1.447c-0.479,0-0.928,0.336-1.063,0.864c-0.023,0.088-0.04,0.184-0.04,0.296V28.289z"/>
		<path d="M242.429,28.777c0,0.408,0.008,0.76,0.031,1.063h-0.623l-0.04-0.632h-0.017c-0.176,0.312-0.591,0.72-1.279,0.72    c-0.607,0-1.335-0.344-1.335-1.695V25.97h0.704v2.135c0,0.735,0.231,1.239,0.863,1.239c0.472,0,0.8-0.328,0.928-0.648    c0.04-0.096,0.063-0.224,0.063-0.359V25.97h0.704V28.777z"/>
		<path d="M244.447,25.043v0.927h1.007v0.536h-1.007v2.079c0,0.48,0.136,0.751,0.527,0.751c0.191,0,0.304-0.016,0.408-0.048    l0.031,0.536c-0.136,0.048-0.352,0.096-0.623,0.096c-0.328,0-0.592-0.112-0.76-0.296c-0.192-0.216-0.272-0.56-0.272-1.016v-2.103    h-0.6V25.97h0.6v-0.711L244.447,25.043z"/>
		<path d="M246.583,25.315c-0.256,0-0.424-0.2-0.424-0.432c0-0.248,0.176-0.44,0.439-0.44c0.256,0,0.432,0.192,0.432,0.44    c0,0.231-0.168,0.432-0.439,0.432H246.583z M246.248,29.84v-3.87h0.703v3.87H246.248z"/>
		<path d="M249.694,29.928c-1.04,0-1.855-0.768-1.855-1.991c0-1.295,0.855-2.055,1.919-2.055c1.111,0,1.863,0.808,1.863,1.983    c0,1.439-1,2.063-1.919,2.063H249.694z M249.725,29.4c0.672,0,1.176-0.631,1.176-1.511c0-0.655-0.328-1.479-1.159-1.479    c-0.824,0-1.184,0.768-1.184,1.503c0,0.847,0.479,1.487,1.159,1.487H249.725z"/>
		<path d="M252.511,27.018c0-0.408-0.008-0.728-0.032-1.048h0.624l0.039,0.632h0.017c0.191-0.36,0.64-0.72,1.279-0.72    c0.535,0,1.367,0.32,1.367,1.647v2.311h-0.704v-2.231c0-0.624-0.231-1.151-0.896-1.151c-0.455,0-0.815,0.328-0.943,0.72    c-0.031,0.088-0.048,0.216-0.048,0.328v2.335h-0.703V27.018z"/>
		<path d="M259.495,25.043v0.927h1.007v0.536h-1.007v2.079c0,0.48,0.136,0.751,0.527,0.751c0.191,0,0.304-0.016,0.407-0.048    l0.032,0.536c-0.136,0.048-0.352,0.096-0.623,0.096c-0.328,0-0.592-0.112-0.76-0.296c-0.192-0.216-0.272-0.56-0.272-1.016v-2.103    h-0.6V25.97h0.6v-0.711L259.495,25.043z"/>
		<path d="M262.87,29.928c-1.04,0-1.855-0.768-1.855-1.991c0-1.295,0.855-2.055,1.919-2.055c1.111,0,1.863,0.808,1.863,1.983    c0,1.439-1,2.063-1.919,2.063H262.87z M262.901,29.4c0.672,0,1.176-0.631,1.176-1.511c0-0.655-0.328-1.479-1.159-1.479    c-0.824,0-1.184,0.768-1.184,1.503c0,0.847,0.479,1.487,1.159,1.487H262.901z"/>
		<path d="M222.686,37.913c0,0.336,0.016,0.664,0.056,0.928h-0.632l-0.063-0.488h-0.024c-0.208,0.304-0.632,0.576-1.184,0.576    c-0.783,0-1.183-0.552-1.183-1.111c0-0.936,0.831-1.447,2.326-1.439v-0.08c0-0.32-0.088-0.904-0.879-0.896    c-0.368,0-0.744,0.104-1.016,0.288l-0.16-0.472c0.319-0.2,0.791-0.336,1.279-0.336c1.191,0,1.479,0.808,1.479,1.583V37.913z     M221.998,36.865c-0.768-0.016-1.639,0.12-1.639,0.872c0,0.464,0.304,0.672,0.655,0.672c0.512,0,0.84-0.32,0.952-0.648    c0.023-0.072,0.031-0.152,0.031-0.224V36.865z"/>
		<path d="M227.054,37.777c0,0.408,0.008,0.76,0.031,1.063h-0.623l-0.04-0.632h-0.017c-0.176,0.312-0.591,0.72-1.279,0.72    c-0.607,0-1.335-0.344-1.335-1.695V34.97h0.704v2.135c0,0.735,0.231,1.239,0.863,1.239c0.472,0,0.8-0.328,0.928-0.648    c0.04-0.096,0.063-0.224,0.063-0.359V34.97h0.704V37.777z"/>
		<path d="M229.071,34.043v0.927h1.007v0.536h-1.007v2.079c0,0.48,0.136,0.751,0.527,0.751c0.191,0,0.304-0.016,0.407-0.048    l0.032,0.536c-0.136,0.048-0.352,0.096-0.623,0.096c-0.328,0-0.592-0.112-0.76-0.296c-0.192-0.216-0.272-0.56-0.272-1.016v-2.103    h-0.6V34.97h0.6v-0.711L229.071,34.043z"/>
		<path d="M232.447,38.928c-1.04,0-1.855-0.768-1.855-1.991c0-1.295,0.855-2.055,1.919-2.055c1.111,0,1.863,0.808,1.863,1.983    c0,1.439-1,2.063-1.919,2.063H232.447z M232.478,38.4c0.672,0,1.176-0.631,1.176-1.511c0-0.655-0.328-1.479-1.159-1.479    c-0.824,0-1.184,0.768-1.184,1.503c0,0.847,0.479,1.487,1.159,1.487H232.478z"/>
		<path d="M235.263,36.018c0-0.408-0.017-0.728-0.032-1.048h0.615l0.032,0.624h0.024c0.216-0.368,0.575-0.712,1.223-0.712    c0.521,0,0.92,0.32,1.088,0.776h0.016c0.12-0.224,0.28-0.384,0.44-0.504c0.231-0.176,0.479-0.272,0.847-0.272    c0.521,0,1.279,0.336,1.279,1.679v2.279h-0.688v-2.191c0-0.751-0.279-1.191-0.839-1.191c-0.408,0-0.712,0.296-0.84,0.632    c-0.032,0.104-0.056,0.232-0.056,0.352v2.398h-0.688v-2.327c0-0.616-0.271-1.056-0.807-1.056c-0.433,0-0.76,0.352-0.872,0.704    c-0.04,0.104-0.056,0.224-0.056,0.344v2.335h-0.688V36.018z"/>
		<path d="M244.662,37.913c0,0.336,0.016,0.664,0.056,0.928h-0.632l-0.063-0.488h-0.024c-0.208,0.304-0.632,0.576-1.184,0.576    c-0.783,0-1.183-0.552-1.183-1.111c0-0.936,0.831-1.447,2.326-1.439v-0.08c0-0.32-0.088-0.904-0.88-0.896    c-0.367,0-0.743,0.104-1.015,0.288l-0.16-0.472c0.319-0.2,0.792-0.336,1.279-0.336c1.191,0,1.479,0.808,1.479,1.583V37.913z     M243.974,36.865c-0.768-0.016-1.64,0.12-1.64,0.872c0,0.464,0.304,0.672,0.655,0.672c0.512,0,0.84-0.32,0.952-0.648    c0.023-0.072,0.032-0.152,0.032-0.224V36.865z"/>
		<path d="M246.639,34.043v0.927h1.007v0.536h-1.007v2.079c0,0.48,0.136,0.751,0.527,0.751c0.191,0,0.304-0.016,0.407-0.048    l0.032,0.536c-0.136,0.048-0.352,0.096-0.623,0.096c-0.328,0-0.592-0.112-0.76-0.296c-0.192-0.216-0.272-0.56-0.272-1.016v-2.103    h-0.6V34.97h0.6v-0.711L246.639,34.043z"/>
		<path d="M248.775,34.315c-0.256,0-0.424-0.2-0.424-0.432c0-0.248,0.176-0.44,0.439-0.44c0.256,0,0.432,0.192,0.432,0.44    c0,0.231-0.168,0.432-0.439,0.432H248.775z M248.439,38.84v-3.87h0.703v3.87H248.439z"/>
		<path d="M251.886,38.928c-1.04,0-1.855-0.768-1.855-1.991c0-1.295,0.855-2.055,1.919-2.055c1.111,0,1.863,0.808,1.863,1.983    c0,1.439-1,2.063-1.919,2.063H251.886z M251.917,38.4c0.672,0,1.176-0.631,1.176-1.511c0-0.655-0.328-1.479-1.159-1.479    c-0.824,0-1.184,0.768-1.184,1.503c0,0.847,0.479,1.487,1.159,1.487H251.917z"/>
		<path d="M254.703,36.018c0-0.408-0.008-0.728-0.032-1.048h0.624l0.039,0.632h0.017c0.191-0.36,0.64-0.72,1.279-0.72    c0.535,0,1.367,0.32,1.367,1.647v2.311h-0.704v-2.231c0-0.624-0.231-1.151-0.896-1.151c-0.455,0-0.815,0.328-0.943,0.72    c-0.031,0.088-0.048,0.216-0.048,0.328v2.335h-0.703V36.018z"/>
	</g>
	
		<line fill="none" stroke="#000000" stroke-width="0.5" stroke-linejoin="round" stroke-miterlimit="10" x1="14.182" y1="2.994" x2="11.182" y2="2.994"/>
	
		<line fill="none" stroke="#000000" stroke-width="0.5" stroke-linejoin="round" stroke-miterlimit="10" x1="14.182" y1="17.986" x2="11.182" y2="17.986"/>
	
		<line fill="none" stroke="#000000" stroke-width="0.5" stroke-linejoin="round" stroke-miterlimit="10" x1="14.182" y1="47.971" x2="11.182" y2="47.971"/>
	
		<line fill="none" stroke="#000000" stroke-width="0.5" stroke-linejoin="round" stroke-miterlimit="10" x1="14.182" y1="92.949" x2="11.182" y2="92.949"/>
	
		<line fill="none" stroke="#000000" stroke-width="0.5" stroke-linejoin="round" stroke-miterlimit="10" x1="14.182" y1="77.956" x2="11.182" y2="77.956"/>
	
		<line fill="none" stroke="#000000" stroke-width="0.5" stroke-linejoin="round" stroke-miterlimit="10" x1="14.182" y1="32.979" x2="11.182" y2="32.979"/>
	
		<line fill="none" stroke="#000000" stroke-width="0.5" stroke-linejoin="round" stroke-miterlimit="10" x1="14.182" y1="62.964" x2="11.182" y2="62.964"/>
	
		<line fill="none" stroke="#000000" stroke-width="0.5" stroke-linejoin="round" stroke-miterlimit="10" x1="14.182" y1="107.941" x2="11.182" y2="107.941"/>
	
		<line fill="none" stroke="#000000" stroke-width="0.5" stroke-linejoin="round" stroke-miterlimit="10" x1="14.182" y1="122.934" x2="11.182" y2="122.934"/>
	
		<rect x="29.834" y="21.349" fill="#808285" stroke="#000000" stroke-width="0.5" stroke-linejoin="round" stroke-miterlimit="10" width="14" height="101.584"/>
	
		<rect x="47.834" y="36.078" fill="#D1D3D4" stroke="#000000" stroke-width="0.5" stroke-linejoin="round" stroke-miterlimit="10" width="14" height="86.856"/>
	<g>
		<path d="M99.078,131.31c0.312,0.192,0.76,0.344,1.24,0.344c0.711,0,1.126-0.368,1.126-0.911c0-0.504-0.288-0.8-1.015-1.072    c-0.879-0.304-1.423-0.768-1.423-1.519c0-0.839,0.696-1.463,1.743-1.463c0.543,0,0.951,0.128,1.183,0.256l-0.192,0.576    c-0.168-0.104-0.527-0.256-1.015-0.256c-0.736,0-1.016,0.439-1.016,0.807c0,0.496,0.328,0.744,1.071,1.032    c0.911,0.36,1.367,0.792,1.367,1.583c0,0.824-0.607,1.551-1.878,1.551c-0.52,0-1.087-0.16-1.375-0.352L99.078,131.31z"/>
		<path d="M106.324,131.094c0,0.408,0.008,0.76,0.032,1.063h-0.624l-0.04-0.632h-0.016c-0.176,0.312-0.592,0.72-1.279,0.72    c-0.608,0-1.335-0.344-1.335-1.695v-2.263h0.704v2.135c0,0.735,0.232,1.239,0.864,1.239c0.472,0,0.799-0.328,0.927-0.648    c0.04-0.096,0.064-0.224,0.064-0.36v-2.366h0.704V131.094z"/>
		<path d="M107.494,129.551c0-0.496-0.008-0.896-0.032-1.263h0.632l0.04,0.664h0.016c0.28-0.48,0.744-0.752,1.367-0.752    c0.943,0,1.647,0.792,1.647,1.967c0,1.391-0.856,2.079-1.759,2.079c-0.52,0-0.959-0.224-1.191-0.607h-0.016v2.103h-0.704V129.551z     M108.197,130.582c0,0.096,0.008,0.2,0.032,0.288c0.12,0.488,0.552,0.823,1.047,0.823c0.744,0,1.175-0.607,1.175-1.495    c0-0.775-0.4-1.439-1.144-1.439c-0.479,0-0.935,0.335-1.071,0.871c-0.016,0.088-0.04,0.192-0.04,0.28V130.582z"/>
		<path d="M112.045,129.551c0-0.496-0.008-0.896-0.032-1.263h0.632l0.04,0.664h0.016c0.28-0.48,0.744-0.752,1.367-0.752    c0.943,0,1.647,0.792,1.647,1.967c0,1.391-0.856,2.079-1.759,2.079c-0.52,0-0.959-0.224-1.191-0.607h-0.016v2.103h-0.704V129.551z     M112.749,130.582c0,0.096,0.008,0.2,0.032,0.288c0.12,0.488,0.552,0.823,1.047,0.823c0.744,0,1.175-0.607,1.175-1.495    c0-0.775-0.4-1.439-1.144-1.439c-0.479,0-0.935,0.335-1.071,0.871c-0.016,0.088-0.04,0.192-0.04,0.28V130.582z"/>
		<path d="M118.172,132.245c-1.04,0-1.855-0.768-1.855-1.991c0-1.295,0.855-2.055,1.919-2.055c1.111,0,1.863,0.808,1.863,1.983    c0,1.439-1,2.063-1.919,2.063H118.172z M118.205,131.717c0.671,0,1.175-0.631,1.175-1.511c0-0.656-0.328-1.479-1.159-1.479    c-0.824,0-1.184,0.768-1.184,1.503c0,0.847,0.479,1.487,1.159,1.487H118.205z"/>
		<path d="M120.989,129.495c0-0.456-0.008-0.848-0.032-1.207h0.616l0.032,0.759h0.024c0.176-0.52,0.608-0.848,1.08-0.848    c0.072,0,0.128,0.008,0.192,0.016v0.664c-0.072-0.008-0.144-0.016-0.24-0.016c-0.496,0-0.848,0.376-0.944,0.896    c-0.016,0.104-0.024,0.216-0.024,0.328v2.071h-0.704V129.495z"/>
		<path d="M124.453,127.36v0.928h1.007v0.536h-1.007v2.079c0,0.48,0.136,0.751,0.528,0.751c0.192,0,0.304-0.016,0.408-0.048    l0.032,0.536c-0.136,0.048-0.352,0.096-0.624,0.096c-0.328,0-0.591-0.112-0.759-0.296c-0.192-0.216-0.272-0.56-0.272-1.016v-2.103    h-0.6v-0.536h0.6v-0.712L124.453,127.36z"/>
		<path d="M98.422,141.157v-3.334h-0.536v-0.536h0.536v-0.184c0-0.544,0.128-1.039,0.456-1.351c0.264-0.256,0.616-0.36,0.936-0.36    c0.256,0,0.463,0.056,0.6,0.112l-0.088,0.543c-0.112-0.048-0.248-0.088-0.456-0.088c-0.591,0-0.751,0.528-0.751,1.119v0.208h0.936    v0.536h-0.928v3.334H98.422z"/>
		<path d="M102.269,141.245c-1.039,0-1.854-0.768-1.854-1.991c0-1.295,0.855-2.055,1.918-2.055c1.111,0,1.863,0.808,1.863,1.983    c0,1.439-1,2.063-1.919,2.063H102.269z M102.301,140.717c0.671,0,1.175-0.631,1.175-1.511c0-0.656-0.328-1.479-1.16-1.479    c-0.823,0-1.183,0.768-1.183,1.503c0,0.847,0.48,1.487,1.159,1.487H102.301z"/>
		<path d="M105.085,138.494c0-0.456-0.008-0.848-0.032-1.207h0.616l0.032,0.759h0.024c0.176-0.52,0.608-0.848,1.08-0.848    c0.072,0,0.128,0.008,0.192,0.016v0.664c-0.072-0.008-0.144-0.016-0.24-0.016c-0.496,0-0.848,0.376-0.943,0.896    c-0.016,0.104-0.024,0.216-0.024,0.328v2.071h-0.704V138.494z"/>
		<path d="M110.245,136.36v0.927h1.007v0.536h-1.007v2.079c0,0.48,0.136,0.751,0.528,0.751c0.192,0,0.304-0.016,0.408-0.048    l0.032,0.536c-0.136,0.048-0.352,0.096-0.624,0.096c-0.328,0-0.591-0.112-0.759-0.296c-0.192-0.216-0.272-0.56-0.272-1.016v-2.103    h-0.6v-0.536h0.6v-0.712L110.245,136.36z"/>
		<path d="M112.045,138.494c0-0.456-0.008-0.848-0.032-1.207h0.616l0.032,0.759h0.024c0.176-0.52,0.608-0.848,1.08-0.848    c0.072,0,0.128,0.008,0.192,0.016v0.664c-0.072-0.008-0.144-0.016-0.24-0.016c-0.496,0-0.848,0.376-0.943,0.896    c-0.016,0.104-0.024,0.216-0.024,0.328v2.071h-0.704V138.494z"/>
		<path d="M117.388,140.229c0,0.335,0.016,0.664,0.056,0.927h-0.632l-0.064-0.488h-0.024c-0.208,0.304-0.631,0.576-1.183,0.576    c-0.784,0-1.184-0.552-1.184-1.111c0-0.936,0.832-1.447,2.327-1.439v-0.08c0-0.32-0.088-0.904-0.879-0.896    c-0.368,0-0.744,0.104-1.016,0.288l-0.16-0.472c0.32-0.2,0.792-0.336,1.279-0.336c1.191,0,1.479,0.808,1.479,1.583V140.229z     M116.7,139.182c-0.768-0.016-1.639,0.12-1.639,0.872c0,0.464,0.304,0.672,0.656,0.672c0.512,0,0.839-0.32,0.951-0.648    c0.024-0.072,0.032-0.152,0.032-0.224V139.182z"/>
		<path d="M121.859,135.48v4.677c0,0.344,0.008,0.736,0.032,1h-0.632l-0.032-0.671h-0.016c-0.216,0.432-0.68,0.759-1.312,0.759    c-0.936,0-1.663-0.792-1.663-1.967c-0.008-1.295,0.8-2.079,1.735-2.079c0.6,0,0.999,0.28,1.167,0.584h0.016v-2.302H121.859z     M121.156,138.862c0-0.096-0.008-0.208-0.032-0.304c-0.104-0.44-0.488-0.808-1.016-0.808c-0.728,0-1.159,0.64-1.159,1.487    c0,0.792,0.392,1.439,1.143,1.439c0.472,0,0.904-0.319,1.032-0.847c0.024-0.088,0.032-0.184,0.032-0.296V138.862z"/>
		<path d="M123.429,139.35c0.016,0.943,0.616,1.335,1.319,1.335c0.504,0,0.815-0.088,1.071-0.2l0.128,0.503    c-0.248,0.112-0.68,0.248-1.295,0.248c-1.184,0-1.903-0.792-1.903-1.951c0-1.167,0.696-2.087,1.823-2.087    c1.263,0,1.591,1.112,1.591,1.823c0,0.144-0.008,0.248-0.024,0.328H123.429z M125.483,138.846    c0.008-0.448-0.184-1.144-0.967-1.144c-0.72,0-1.023,0.656-1.08,1.144H125.483z"/>
	</g>
	
		<rect x="96.114" y="35.176" fill="#808285" stroke="#000000" stroke-width="0.5" stroke-linejoin="round" stroke-miterlimit="10" width="14" height="87.758"/>
	
		<rect x="114.114" y="26.459" fill="#D1D3D4" stroke="#000000" stroke-width="0.5" stroke-linejoin="round" stroke-miterlimit="10" width="14" height="96.475"/>
	<g>
		<path d="M159.141,126.848c0.305-0.072,0.793-0.12,1.271-0.12c0.696,0,1.145,0.12,1.472,0.392c0.28,0.208,0.456,0.528,0.456,0.951    c0,0.528-0.352,0.984-0.912,1.184v0.024c0.512,0.12,1.111,0.544,1.111,1.343c0,0.464-0.184,0.815-0.463,1.08    c-0.368,0.344-0.977,0.503-1.855,0.503c-0.479,0-0.848-0.032-1.08-0.064V126.848z M159.837,129.055h0.632    c0.728,0,1.159-0.392,1.159-0.912c0-0.624-0.472-0.879-1.175-0.879c-0.32,0-0.504,0.024-0.616,0.048V129.055z M159.837,131.629    c0.144,0.024,0.336,0.032,0.583,0.032c0.721,0,1.384-0.264,1.384-1.047c0-0.728-0.632-1.04-1.392-1.04h-0.575V131.629z"/>
		<path d="M163.854,130.35c0.016,0.943,0.615,1.335,1.318,1.335c0.504,0,0.816-0.088,1.072-0.2l0.127,0.503    c-0.247,0.112-0.68,0.248-1.295,0.248c-1.184,0-1.902-0.792-1.902-1.951c0-1.167,0.695-2.087,1.822-2.087    c1.264,0,1.592,1.112,1.592,1.823c0,0.144-0.008,0.248-0.024,0.328H163.854z M165.909,129.847    c0.008-0.448-0.184-1.144-0.968-1.144c-0.72,0-1.023,0.656-1.079,1.144H165.909z"/>
		<path d="M167.461,126.48h0.703v5.677h-0.703V126.48z"/>
		<path d="M169.685,127.632c-0.256,0-0.424-0.2-0.424-0.432c0-0.248,0.176-0.439,0.44-0.439c0.256,0,0.432,0.192,0.432,0.439    c0,0.232-0.168,0.432-0.44,0.432H169.685z M169.349,132.157v-3.87h0.704v3.87H169.349z"/>
		<path d="M171.621,130.35c0.017,0.943,0.616,1.335,1.319,1.335c0.504,0,0.815-0.088,1.071-0.2l0.128,0.503    c-0.248,0.112-0.68,0.248-1.295,0.248c-1.184,0-1.903-0.792-1.903-1.951c0-1.167,0.696-2.087,1.823-2.087    c1.264,0,1.591,1.112,1.591,1.823c0,0.144-0.008,0.248-0.024,0.328H171.621z M173.675,129.847    c0.009-0.448-0.184-1.144-0.968-1.144c-0.719,0-1.023,0.656-1.079,1.144H173.675z"/>
		<path d="M175.5,128.288l0.76,2.167c0.129,0.36,0.232,0.68,0.312,1h0.023c0.088-0.32,0.2-0.64,0.328-1l0.752-2.167h0.735    l-1.52,3.87h-0.671l-1.472-3.87H175.5z"/>
		<path d="M179.477,130.35c0.016,0.943,0.615,1.335,1.318,1.335c0.504,0,0.816-0.088,1.072-0.2l0.127,0.503    c-0.247,0.112-0.68,0.248-1.295,0.248c-1.184,0-1.902-0.792-1.902-1.951c0-1.167,0.695-2.087,1.822-2.087    c1.264,0,1.592,1.112,1.592,1.823c0,0.144-0.008,0.248-0.024,0.328H179.477z M181.532,129.847    c0.008-0.448-0.184-1.144-0.968-1.144c-0.72,0-1.023,0.656-1.079,1.144H181.532z"/>
		<path d="M183.83,133.292c0.327-0.024,0.6-0.112,0.768-0.296c0.192-0.216,0.271-0.527,0.271-1.455v-3.254h0.704v3.526    c0,0.751-0.12,1.239-0.464,1.591c-0.312,0.312-0.823,0.439-1.199,0.439L183.83,133.292z M185.205,127.632    c-0.256,0-0.424-0.2-0.424-0.432c0-0.248,0.177-0.439,0.44-0.439s0.432,0.192,0.432,0.439c0,0.232-0.16,0.432-0.439,0.432H185.205    z"/>
		<path d="M188.299,132.245c-1.039,0-1.854-0.768-1.854-1.991c0-1.295,0.855-2.055,1.919-2.055c1.111,0,1.863,0.808,1.863,1.983    c0,1.439-1,2.063-1.919,2.063H188.299z M188.333,131.717c0.671,0,1.175-0.631,1.175-1.511c0-0.656-0.328-1.479-1.159-1.479    c-0.824,0-1.184,0.768-1.184,1.503c0,0.847,0.479,1.487,1.159,1.487H188.333z"/>
		<path d="M191.117,126.48h0.704v2.422h0.016c0.248-0.432,0.695-0.704,1.319-0.704c0.96,0,1.631,0.8,1.631,1.967    c0,1.391-0.88,2.079-1.743,2.079c-0.56,0-0.999-0.216-1.295-0.728h-0.016l-0.041,0.64h-0.607c0.024-0.264,0.032-0.656,0.032-1    V126.48z M191.821,130.606c0,0.088,0.008,0.176,0.023,0.256c0.137,0.488,0.552,0.824,1.056,0.824c0.743,0,1.175-0.6,1.175-1.487    c0-0.784-0.399-1.447-1.15-1.447c-0.48,0-0.928,0.336-1.064,0.864c-0.023,0.088-0.039,0.184-0.039,0.296V130.606z"/>
		<path d="M195.573,131.438c0.216,0.128,0.584,0.272,0.936,0.272c0.504,0,0.744-0.248,0.744-0.576c0-0.336-0.201-0.512-0.713-0.704    c-0.703-0.256-1.031-0.64-1.031-1.095c0-0.624,0.512-1.136,1.336-1.136c0.392,0,0.735,0.104,0.943,0.24l-0.168,0.503    c-0.152-0.088-0.432-0.224-0.791-0.224c-0.416,0-0.641,0.24-0.641,0.527c0,0.32,0.225,0.464,0.729,0.664    c0.663,0.248,1.015,0.583,1.015,1.159c0,0.688-0.536,1.167-1.438,1.167c-0.424,0-0.816-0.112-1.088-0.272L195.573,131.438z"/>
		<path d="M161.128,141.013c-0.185,0.088-0.592,0.224-1.111,0.224c-1.167,0-1.927-0.792-1.927-1.975    c0-1.191,0.814-2.063,2.078-2.063c0.416,0,0.783,0.104,0.977,0.208l-0.16,0.536c-0.168-0.088-0.432-0.184-0.816-0.184    c-0.887,0-1.367,0.664-1.367,1.463c0,0.896,0.576,1.447,1.344,1.447c0.399,0,0.664-0.096,0.863-0.184L161.128,141.013z"/>
		<path d="M163.529,141.245c-1.04,0-1.854-0.768-1.854-1.991c0-1.295,0.855-2.055,1.918-2.055c1.111,0,1.863,0.808,1.863,1.983    c0,1.439-0.999,2.063-1.918,2.063H163.529z M163.561,140.717c0.672,0,1.176-0.631,1.176-1.511c0-0.656-0.328-1.479-1.16-1.479    c-0.823,0-1.184,0.768-1.184,1.503c0,0.847,0.48,1.487,1.16,1.487H163.561z"/>
		<path d="M169.583,140.093c0,0.408,0.009,0.76,0.032,1.063h-0.624l-0.04-0.632h-0.016c-0.176,0.312-0.592,0.72-1.279,0.72    c-0.607,0-1.335-0.344-1.335-1.695v-2.263h0.704v2.135c0,0.735,0.231,1.239,0.863,1.239c0.471,0,0.799-0.328,0.927-0.648    c0.04-0.096,0.063-0.224,0.063-0.36v-2.366h0.704V140.093z"/>
		<path d="M170.752,135.48h0.704v5.676h-0.704V135.48z"/>
		<path d="M175.983,135.48v4.677c0,0.344,0.009,0.736,0.033,1h-0.633l-0.031-0.671h-0.016c-0.217,0.432-0.68,0.759-1.312,0.759    c-0.936,0-1.662-0.792-1.662-1.967c-0.008-1.295,0.799-2.079,1.734-2.079c0.6,0,1,0.28,1.168,0.584h0.016v-2.302H175.983z     M175.28,138.862c0-0.096-0.008-0.208-0.031-0.304c-0.104-0.44-0.488-0.808-1.016-0.808c-0.729,0-1.16,0.64-1.16,1.487    c0,0.792,0.393,1.439,1.144,1.439c0.472,0,0.903-0.319,1.032-0.847c0.023-0.088,0.031-0.184,0.031-0.296V138.862z"/>
		<path d="M178.848,138.494c0-0.456-0.008-0.848-0.031-1.207h0.615l0.032,0.759h0.024c0.176-0.52,0.607-0.848,1.079-0.848    c0.071,0,0.128,0.008,0.192,0.016v0.664c-0.072-0.008-0.145-0.016-0.24-0.016c-0.496,0-0.848,0.376-0.943,0.896    c-0.016,0.104-0.024,0.216-0.024,0.328v2.071h-0.704V138.494z"/>
		<path d="M181.865,139.35c0.017,0.943,0.616,1.335,1.319,1.335c0.504,0,0.815-0.088,1.071-0.2l0.128,0.503    c-0.248,0.112-0.68,0.248-1.295,0.248c-1.184,0-1.903-0.792-1.903-1.951c0-1.167,0.696-2.087,1.823-2.087    c1.264,0,1.591,1.112,1.591,1.823c0,0.144-0.008,0.248-0.024,0.328H181.865z M183.919,138.846    c0.009-0.448-0.184-1.144-0.968-1.144c-0.719,0-1.023,0.656-1.079,1.144H183.919z"/>
		<path d="M186.321,136.36v0.927h1.007v0.536h-1.007v2.079c0,0.48,0.136,0.751,0.527,0.751c0.191,0,0.304-0.016,0.408-0.048    l0.031,0.536c-0.136,0.048-0.352,0.096-0.623,0.096c-0.328,0-0.592-0.112-0.76-0.296c-0.191-0.216-0.271-0.56-0.271-1.016v-2.103    h-0.6v-0.536h0.6v-0.712L186.321,136.36z"/>
		<path d="M191.359,140.093c0,0.408,0.009,0.76,0.032,1.063h-0.624l-0.04-0.632h-0.016c-0.176,0.312-0.592,0.72-1.279,0.72    c-0.607,0-1.336-0.344-1.336-1.695v-2.263h0.704v2.135c0,0.735,0.231,1.239,0.864,1.239c0.471,0,0.799-0.328,0.927-0.648    c0.04-0.096,0.063-0.224,0.063-0.36v-2.366h0.704V140.093z"/>
		<path d="M192.529,138.494c0-0.456-0.008-0.848-0.032-1.207h0.616l0.032,0.759h0.023c0.176-0.52,0.607-0.848,1.08-0.848    c0.071,0,0.127,0.008,0.191,0.016v0.664c-0.072-0.008-0.145-0.016-0.24-0.016c-0.495,0-0.848,0.376-0.943,0.896    c-0.016,0.104-0.023,0.216-0.023,0.328v2.071h-0.704V138.494z"/>
		<path d="M195.145,138.334c0-0.408-0.008-0.728-0.032-1.047h0.624l0.039,0.631h0.017c0.192-0.36,0.64-0.72,1.279-0.72    c0.536,0,1.367,0.32,1.367,1.647v2.311h-0.704v-2.231c0-0.624-0.231-1.151-0.895-1.151c-0.456,0-0.816,0.328-0.943,0.72    c-0.033,0.088-0.049,0.216-0.049,0.328v2.334h-0.703V138.334z"/>
	</g>
	
		<rect x="162.393" y="39.985" fill="#808285" stroke="#000000" stroke-width="0.5" stroke-linejoin="round" stroke-miterlimit="10" width="14" height="82.949"/>
	
		<rect x="180.393" y="49.303" fill="#D1D3D4" stroke="#000000" stroke-width="0.5" stroke-linejoin="round" stroke-miterlimit="10" width="14" height="73.631"/>
	<g>
		<path d="M213.69,130.462l-0.561,1.695h-0.719l1.83-5.389h0.84l1.84,5.389h-0.744l-0.576-1.695H213.69z M215.457,129.918    l-0.536-1.551c-0.111-0.352-0.191-0.671-0.271-0.983h-0.023c-0.072,0.312-0.16,0.648-0.264,0.976l-0.528,1.559H215.457z"/>
		<path d="M217.594,131.438c0.216,0.128,0.584,0.272,0.936,0.272c0.504,0,0.744-0.248,0.744-0.576c0-0.336-0.201-0.512-0.713-0.704    c-0.703-0.256-1.031-0.64-1.031-1.095c0-0.624,0.512-1.136,1.336-1.136c0.392,0,0.735,0.104,0.943,0.24l-0.168,0.503    c-0.152-0.088-0.432-0.224-0.791-0.224c-0.416,0-0.641,0.24-0.641,0.527c0,0.32,0.225,0.464,0.729,0.664    c0.663,0.248,1.015,0.583,1.015,1.159c0,0.688-0.536,1.167-1.438,1.167c-0.424,0-0.816-0.112-1.088-0.272L217.594,131.438z"/>
		<path d="M220.762,131.438c0.216,0.128,0.584,0.272,0.936,0.272c0.504,0,0.744-0.248,0.744-0.576c0-0.336-0.201-0.512-0.713-0.704    c-0.703-0.256-1.031-0.64-1.031-1.095c0-0.624,0.512-1.136,1.336-1.136c0.392,0,0.735,0.104,0.943,0.24l-0.168,0.503    c-0.152-0.088-0.432-0.224-0.791-0.224c-0.416,0-0.641,0.24-0.641,0.527c0,0.32,0.225,0.464,0.729,0.664    c0.663,0.248,1.015,0.583,1.015,1.159c0,0.688-0.536,1.167-1.438,1.167c-0.424,0-0.816-0.112-1.088-0.272L220.762,131.438z"/>
		<path d="M224.426,130.35c0.016,0.943,0.615,1.335,1.318,1.335c0.504,0,0.816-0.088,1.072-0.2l0.127,0.503    c-0.247,0.112-0.68,0.248-1.295,0.248c-1.184,0-1.902-0.792-1.902-1.951c0-1.167,0.695-2.087,1.822-2.087    c1.264,0,1.592,1.112,1.592,1.823c0,0.144-0.008,0.248-0.024,0.328H224.426z M226.481,129.847    c0.008-0.448-0.184-1.144-0.968-1.144c-0.72,0-1.023,0.656-1.079,1.144H226.481z"/>
		<path d="M228.034,129.495c0-0.456-0.008-0.848-0.031-1.207h0.615l0.031,0.759h0.024c0.177-0.52,0.608-0.848,1.079-0.848    c0.072,0,0.129,0.008,0.192,0.016v0.664c-0.071-0.008-0.144-0.016-0.239-0.016c-0.496,0-0.848,0.376-0.944,0.896    c-0.016,0.104-0.024,0.216-0.024,0.328v2.071h-0.703V129.495z"/>
		<path d="M231.498,127.36v0.928h1.007v0.536h-1.007v2.079c0,0.48,0.136,0.751,0.528,0.751c0.191,0,0.303-0.016,0.407-0.048    l0.032,0.536c-0.137,0.048-0.352,0.096-0.624,0.096c-0.327,0-0.592-0.112-0.759-0.296c-0.192-0.216-0.272-0.56-0.272-1.016v-2.103    h-0.6v-0.536h0.6v-0.712L231.498,127.36z"/>
		<path d="M233.633,127.632c-0.256,0-0.424-0.2-0.424-0.432c0-0.248,0.177-0.439,0.44-0.439c0.255,0,0.431,0.192,0.431,0.439    c0,0.232-0.168,0.432-0.438,0.432H233.633z M233.297,132.157v-3.87H234v3.87H233.297z"/>
		<path d="M235.169,129.335c0-0.408-0.008-0.728-0.032-1.047h0.624l0.04,0.631h0.016c0.192-0.36,0.641-0.72,1.279-0.72    c0.536,0,1.367,0.32,1.367,1.647v2.311h-0.703v-2.231c0-0.624-0.232-1.151-0.896-1.151c-0.456,0-0.815,0.328-0.943,0.72    c-0.032,0.088-0.048,0.216-0.048,0.328v2.334h-0.704V129.335z"/>
		<path d="M242.919,131.589c0,0.896-0.185,1.432-0.552,1.775c-0.384,0.344-0.928,0.463-1.416,0.463c-0.463,0-0.975-0.112-1.287-0.32    l0.176-0.543c0.256,0.168,0.656,0.312,1.137,0.312c0.719,0,1.246-0.376,1.246-1.359v-0.424h-0.016    c-0.207,0.36-0.631,0.647-1.23,0.647c-0.961,0-1.648-0.815-1.648-1.895c0-1.311,0.855-2.047,1.752-2.047    c0.672,0,1.031,0.344,1.207,0.672h0.016l0.024-0.583h0.624c-0.024,0.271-0.032,0.591-0.032,1.055V131.589z M242.215,129.807    c0-0.112-0.008-0.216-0.039-0.312c-0.129-0.416-0.465-0.751-0.984-0.751c-0.672,0-1.15,0.568-1.15,1.471    c0,0.751,0.391,1.391,1.143,1.391c0.439,0,0.832-0.272,0.976-0.728c0.04-0.112,0.056-0.248,0.056-0.376V129.807z"/>
		<path d="M246.672,130.462l-0.56,1.695h-0.72l1.831-5.389h0.84l1.839,5.389h-0.744l-0.575-1.695H246.672z M248.44,129.918    l-0.536-1.551c-0.112-0.352-0.192-0.671-0.272-0.983h-0.023c-0.072,0.312-0.16,0.648-0.264,0.976l-0.527,1.559H248.44z"/>
		<path d="M250.672,129.335c0-0.408-0.016-0.728-0.031-1.047h0.615l0.032,0.624h0.024c0.215-0.368,0.575-0.712,1.223-0.712    c0.52,0,0.92,0.32,1.088,0.776h0.016c0.12-0.224,0.28-0.384,0.439-0.504c0.232-0.176,0.48-0.272,0.848-0.272    c0.52,0,1.279,0.336,1.279,1.679v2.279h-0.688v-2.191c0-0.751-0.279-1.191-0.84-1.191c-0.407,0-0.711,0.296-0.839,0.632    c-0.032,0.104-0.056,0.232-0.056,0.352v2.399h-0.688v-2.327c0-0.616-0.272-1.056-0.809-1.056c-0.432,0-0.76,0.352-0.871,0.704    c-0.04,0.104-0.056,0.224-0.056,0.344v2.334h-0.688V129.335z"/>
		<path d="M257.745,130.35c0.017,0.943,0.616,1.335,1.32,1.335c0.504,0,0.814-0.088,1.07-0.2l0.129,0.503    c-0.248,0.112-0.68,0.248-1.295,0.248c-1.184,0-1.904-0.792-1.904-1.951c0-1.167,0.696-2.087,1.824-2.087    c1.263,0,1.59,1.112,1.59,1.823c0,0.144-0.008,0.248-0.023,0.328H257.745z M259.799,129.847c0.009-0.448-0.184-1.144-0.967-1.144    c-0.72,0-1.023,0.656-1.08,1.144H259.799z"/>
		<path d="M261.353,129.495c0-0.456-0.008-0.848-0.032-1.207h0.616l0.032,0.759h0.023c0.176-0.52,0.607-0.848,1.08-0.848    c0.071,0,0.127,0.008,0.191,0.016v0.664c-0.072-0.008-0.145-0.016-0.24-0.016c-0.496,0-0.848,0.376-0.943,0.896    c-0.016,0.104-0.023,0.216-0.023,0.328v2.071h-0.704V129.495z"/>
		<path d="M264.305,127.632c-0.256,0-0.424-0.2-0.424-0.432c0-0.248,0.176-0.439,0.439-0.439c0.256,0,0.432,0.192,0.432,0.439    c0,0.232-0.168,0.432-0.439,0.432H264.305z M263.969,132.157v-3.87h0.703v3.87H263.969z"/>
		<path d="M268.6,132.013c-0.185,0.088-0.592,0.224-1.111,0.224c-1.168,0-1.928-0.792-1.928-1.975c0-1.191,0.816-2.063,2.079-2.063    c0.415,0,0.784,0.104,0.976,0.208l-0.16,0.536c-0.168-0.088-0.432-0.184-0.815-0.184c-0.888,0-1.367,0.664-1.367,1.463    c0,0.896,0.575,1.447,1.343,1.447c0.4,0,0.664-0.096,0.863-0.184L268.6,132.013z"/>
		<path d="M272.151,131.23c0,0.335,0.017,0.664,0.057,0.927h-0.632l-0.063-0.488h-0.024c-0.208,0.304-0.632,0.576-1.183,0.576    c-0.784,0-1.184-0.552-1.184-1.111c0-0.936,0.831-1.447,2.326-1.439v-0.08c0-0.32-0.088-0.904-0.879-0.896    c-0.368,0-0.744,0.104-1.016,0.288l-0.16-0.472c0.32-0.2,0.791-0.336,1.279-0.336c1.191,0,1.479,0.808,1.479,1.583V131.23z     M271.463,130.182c-0.768-0.016-1.639,0.12-1.639,0.872c0,0.464,0.304,0.672,0.656,0.672c0.512,0,0.839-0.32,0.951-0.648    c0.023-0.072,0.031-0.152,0.031-0.224V130.182z"/>
		<path d="M273.281,129.335c0-0.408-0.008-0.728-0.032-1.047h0.624l0.04,0.631h0.016c0.192-0.36,0.641-0.72,1.279-0.72    c0.536,0,1.367,0.32,1.367,1.647v2.311h-0.703v-2.231c0-0.624-0.232-1.151-0.896-1.151c-0.456,0-0.815,0.328-0.943,0.72    c-0.032,0.088-0.048,0.216-0.048,0.328v2.334h-0.704V129.335z"/>
		<path d="M227.202,140.437c0.217,0.128,0.584,0.272,0.936,0.272c0.504,0,0.744-0.248,0.744-0.576c0-0.336-0.2-0.512-0.712-0.704    c-0.704-0.256-1.031-0.64-1.031-1.095c0-0.624,0.512-1.136,1.335-1.136c0.393,0,0.736,0.104,0.943,0.24l-0.168,0.503    c-0.151-0.088-0.432-0.224-0.791-0.224c-0.416,0-0.64,0.24-0.64,0.527c0,0.32,0.224,0.464,0.728,0.664    c0.664,0.248,1.016,0.583,1.016,1.159c0,0.688-0.536,1.167-1.439,1.167c-0.424,0-0.815-0.112-1.088-0.272L227.202,140.437z"/>
		<path d="M233.704,140.093c0,0.408,0.008,0.76,0.032,1.063h-0.623l-0.04-0.632h-0.016c-0.176,0.312-0.592,0.72-1.279,0.72    c-0.608,0-1.336-0.344-1.336-1.695v-2.263h0.703v2.135c0,0.735,0.232,1.239,0.864,1.239c0.472,0,0.8-0.328,0.927-0.648    c0.041-0.096,0.064-0.224,0.064-0.36v-2.366h0.703V140.093z"/>
		<path d="M234.874,138.55c0-0.496-0.008-0.896-0.031-1.263h0.631l0.04,0.664h0.017c0.279-0.48,0.743-0.752,1.367-0.752    c0.943,0,1.646,0.792,1.646,1.967c0,1.391-0.855,2.079-1.759,2.079c-0.52,0-0.96-0.224-1.191-0.607h-0.017v2.103h-0.703V138.55z     M235.577,139.582c0,0.096,0.009,0.2,0.033,0.288c0.119,0.488,0.551,0.823,1.047,0.823c0.744,0,1.176-0.607,1.176-1.495    c0-0.775-0.4-1.439-1.145-1.439c-0.479,0-0.935,0.335-1.07,0.871c-0.016,0.088-0.041,0.192-0.041,0.28V139.582z"/>
		<path d="M239.825,139.35c0.017,0.943,0.616,1.335,1.32,1.335c0.504,0,0.814-0.088,1.07-0.2l0.129,0.503    c-0.248,0.112-0.68,0.248-1.295,0.248c-1.184,0-1.904-0.792-1.904-1.951c0-1.167,0.696-2.087,1.824-2.087    c1.263,0,1.59,1.112,1.59,1.823c0,0.144-0.008,0.248-0.023,0.328H239.825z M241.879,138.846c0.009-0.448-0.184-1.144-0.967-1.144    c-0.72,0-1.023,0.656-1.08,1.144H241.879z"/>
		<path d="M243.433,138.494c0-0.456-0.008-0.848-0.032-1.207h0.616l0.032,0.759h0.023c0.176-0.52,0.607-0.848,1.08-0.848    c0.071,0,0.127,0.008,0.191,0.016v0.664c-0.072-0.008-0.145-0.016-0.24-0.016c-0.496,0-0.848,0.376-0.943,0.896    c-0.016,0.104-0.023,0.216-0.023,0.328v2.071h-0.704V138.494z"/>
		<path d="M246.385,136.631c-0.256,0-0.424-0.2-0.424-0.432c0-0.248,0.176-0.439,0.439-0.439c0.256,0,0.432,0.192,0.432,0.439    c0,0.232-0.168,0.432-0.439,0.432H246.385z M246.049,141.157v-3.87h0.703v3.87H246.049z"/>
		<path d="M249.497,141.245c-1.039,0-1.855-0.768-1.855-1.991c0-1.295,0.855-2.055,1.919-2.055c1.111,0,1.863,0.808,1.863,1.983    c0,1.439-0.999,2.063-1.919,2.063H249.497z M249.528,140.717c0.672,0,1.176-0.631,1.176-1.511c0-0.656-0.328-1.479-1.16-1.479    c-0.822,0-1.183,0.768-1.183,1.503c0,0.847,0.479,1.487,1.159,1.487H249.528z"/>
		<path d="M252.313,138.494c0-0.456-0.008-0.848-0.031-1.207h0.615l0.031,0.759h0.024c0.177-0.52,0.608-0.848,1.079-0.848    c0.072,0,0.129,0.008,0.192,0.016v0.664c-0.071-0.008-0.144-0.016-0.239-0.016c-0.496,0-0.848,0.376-0.943,0.896    c-0.017,0.104-0.025,0.216-0.025,0.328v2.071h-0.703V138.494z"/>
		<path d="M255.265,136.631c-0.256,0-0.424-0.2-0.424-0.432c0-0.248,0.177-0.439,0.44-0.439c0.256,0,0.432,0.192,0.432,0.439    c0,0.232-0.168,0.432-0.439,0.432H255.265z M254.929,141.157v-3.87h0.704v3.87H254.929z"/>
		<path d="M257.649,136.36v0.927h1.007v0.536h-1.007v2.079c0,0.48,0.135,0.751,0.527,0.751c0.191,0,0.304-0.016,0.408-0.048    l0.031,0.536c-0.136,0.048-0.352,0.096-0.623,0.096c-0.328,0-0.592-0.112-0.76-0.296c-0.191-0.216-0.271-0.56-0.271-1.016v-2.103    h-0.6v-0.536h0.6v-0.712L257.649,136.36z"/>
		<path d="M259.705,137.287l0.84,2.287c0.096,0.256,0.192,0.56,0.256,0.792h0.017c0.071-0.232,0.151-0.528,0.247-0.808l0.768-2.271    h0.743l-1.055,2.758c-0.504,1.327-0.848,1.999-1.328,2.422c-0.352,0.296-0.688,0.416-0.863,0.448l-0.176-0.584    c0.176-0.056,0.408-0.168,0.615-0.344c0.192-0.152,0.424-0.424,0.592-0.784c0.033-0.072,0.057-0.128,0.057-0.168    c0-0.04-0.016-0.096-0.057-0.184l-1.423-3.566H259.705z"/>
	</g>
	
		<rect x="228.672" y="81.766" fill="#808285" stroke="#000000" stroke-width="0.5" stroke-linejoin="round" stroke-miterlimit="10" width="14" height="41.168"/>
	
		<rect x="246.672" y="91.685" fill="#D1D3D4" stroke="#000000" stroke-width="0.5" stroke-linejoin="round" stroke-miterlimit="10" width="14" height="31.249"/>
	<g>
		<g>
			
				<line fill="none" stroke="#000000" stroke-width="0.5" stroke-linejoin="round" x1="36.834" y1="19.333" x2="36.834" y2="24.243"/>
			<g>
				<rect x="35.209" y="19.083" width="3.25" height="0.5"/>
			</g>
			<g>
				<rect x="35.209" y="23.993" width="3.25" height="0.5"/>
			</g>
		</g>
	</g>
	<g>
		<g>
			
				<line fill="none" stroke="#000000" stroke-width="0.5" stroke-linejoin="round" x1="54.834" y1="33.16" x2="54.834" y2="39.573"/>
			<g>
				<rect x="53.209" y="32.91" width="3.25" height="0.5"/>
			</g>
			<g>
				<rect x="53.209" y="39.323" width="3.25" height="0.5"/>
			</g>
		</g>
	</g>
	<g>
		<g>
			
				<line fill="none" stroke="#000000" stroke-width="0.5" stroke-linejoin="round" x1="103.114" y1="33.16" x2="103.114" y2="38.671"/>
			<g>
				<rect x="101.489" y="32.91" width="3.25" height="0.5"/>
			</g>
			<g>
				<rect x="101.489" y="38.421" width="3.25" height="0.5"/>
			</g>
		</g>
	</g>
	<g>
		<g>
			
				<line fill="none" stroke="#000000" stroke-width="0.5" stroke-linejoin="round" x1="121.114" y1="24.743" x2="121.114" y2="29.353"/>
			<g>
				<rect x="119.489" y="24.493" width="3.25" height="0.5"/>
			</g>
			<g>
				<rect x="119.489" y="29.103" width="3.25" height="0.5"/>
			</g>
		</g>
	</g>
	<g>
		<g>
			
				<line fill="none" stroke="#000000" stroke-width="0.5" stroke-linejoin="round" x1="169.393" y1="37.668" x2="169.393" y2="43.781"/>
			<g>
				<rect x="167.768" y="37.418" width="3.25" height="0.5"/>
			</g>
			<g>
				<rect x="167.768" y="43.531" width="3.25" height="0.5"/>
			</g>
		</g>
	</g>
	<g>
		<g>
			
				<line fill="none" stroke="#000000" stroke-width="0.5" stroke-linejoin="round" x1="187.393" y1="45.784" x2="187.393" y2="52.197"/>
			<g>
				<rect x="185.768" y="45.534" width="3.25" height="0.5"/>
			</g>
			<g>
				<rect x="185.768" y="51.947" width="3.25" height="0.5"/>
			</g>
		</g>
	</g>
	<g>
		<g>
			
				<line fill="none" stroke="#000000" stroke-width="0.5" stroke-linejoin="round" x1="235.673" y1="79.449" x2="235.673" y2="84.66"/>
			<g>
				<rect x="234.048" y="79.199" width="3.25" height="0.5"/>
			</g>
			<g>
				<rect x="234.048" y="84.41" width="3.25" height="0.5"/>
			</g>
		</g>
	</g>
	<g>
		<g>
			
				<line fill="none" stroke="#000000" stroke-width="0.5" stroke-linejoin="round" x1="253.673" y1="89.067" x2="253.673" y2="94.278"/>
			<g>
				<rect x="252.048" y="88.817" width="3.25" height="0.5"/>
			</g>
			<g>
				<rect x="252.048" y="94.028" width="3.25" height="0.5"/>
			</g>
		</g>
	</g>
</g>
</svg>