<svg xmlns="http://www.w3.org/2000/svg" xmlns:xlink="http://www.w3.org/1999/xlink" version="1.1" id="Layer_1" x="0px" y="0px" width="282.171px" height="151.14px" viewBox="163.394 196.444 282.171 151.14" enable-background="new 163.394 196.444 282.171 151.14" xml:space="preserve">
<g id="wide" display="none">
</g>
<g id="text_column">
</g>
<g id="art">
	<g>
		<path d="M163.8,302.048c-0.081-0.396-0.127-0.964-0.127-1.503c0-0.838,0.153-1.377,0.495-1.757    c0.271-0.306,0.685-0.477,1.151-0.477c0.803,0,1.333,0.504,1.55,1.144h0.026c0.162-0.468,0.594-0.748,1.226-0.892    c0.846-0.198,1.431-0.342,1.665-0.468v0.81c-0.172,0.1-0.693,0.234-1.449,0.405c-0.838,0.18-1.152,0.504-1.181,1.215v0.738h2.63    v0.783L163.8,302.048L163.8,302.048z M166.563,301.264v-0.801c0-0.837-0.459-1.369-1.151-1.369c-0.783,0-1.126,0.566-1.136,1.396    c0,0.378,0.036,0.648,0.072,0.774H166.563z"/>
		<path d="M169.786,294.756l-0.55,0.063v0.027c0.343,0.242,0.647,0.711,0.647,1.333c0,0.882-0.621,1.333-1.251,1.333    c-1.054,0-1.63-0.938-1.62-2.62h-0.091c-0.359,0-1.008,0.099-1.008,0.989c0,0.405,0.126,0.829,0.323,1.136l-0.521,0.18    c-0.234-0.36-0.387-0.882-0.387-1.431c0-1.333,0.908-1.657,1.781-1.657h1.631c0.378,0,0.746-0.019,1.044-0.072L169.786,294.756    L169.786,294.756z M167.562,294.873c-0.018,0.864,0.135,1.845,0.981,1.845c0.513,0,0.756-0.342,0.756-0.746    c0-0.567-0.36-0.928-0.729-1.054c-0.08-0.026-0.171-0.045-0.252-0.045H167.562L167.562,294.873z"/>
		<path d="M166.608,292.813c-0.449,0-0.818,0.009-1.18,0.036v-0.702l0.721-0.045v-0.019c-0.414-0.216-0.818-0.72-0.818-1.439    c0-0.604,0.358-1.54,1.854-1.54h2.603v0.792h-2.513c-0.702,0-1.287,0.261-1.287,1.008c0,0.521,0.369,0.927,0.811,1.062    c0.1,0.036,0.233,0.055,0.369,0.055h2.62v0.792L166.608,292.813L166.608,292.813z"/>
		<path d="M165.429,284.011c0.315,0.018,0.666,0.035,1.197,0.035h2.529c0.999,0,1.611,0.198,1.989,0.622    c0.396,0.423,0.522,1.035,0.522,1.584c0,0.522-0.126,1.099-0.36,1.449l-0.604-0.198c0.181-0.288,0.343-0.737,0.343-1.277    c0-0.811-0.424-1.404-1.521-1.404h-0.485v0.018c0.404,0.243,0.729,0.712,0.729,1.387c0,1.081-0.919,1.854-2.125,1.854    c-1.477,0-2.312-0.963-2.312-1.962c0-0.756,0.396-1.17,0.756-1.359v-0.018l-0.657-0.036V284.011L165.429,284.011z M167.148,284.83    c-0.135,0-0.252,0.009-0.359,0.045c-0.459,0.145-0.837,0.531-0.837,1.107c0,0.756,0.639,1.296,1.646,1.296    c0.855,0,1.566-0.432,1.566-1.287c0-0.486-0.308-0.927-0.812-1.099c-0.135-0.045-0.288-0.063-0.423-0.063L167.148,284.83    L167.148,284.83z"/>
		<path d="M167.752,282.239c1.07-0.018,1.512-0.703,1.512-1.495c0-0.566-0.099-0.909-0.225-1.207l0.566-0.135    c0.126,0.279,0.271,0.756,0.271,1.449c0,1.341-0.882,2.143-2.196,2.143c-1.313,0-2.35-0.773-2.35-2.043    c0-1.422,1.251-1.8,2.053-1.8c0.162,0,0.288,0.018,0.369,0.027V282.239L167.752,282.239z M167.185,279.916    c-0.504-0.009-1.288,0.207-1.288,1.099c0,0.801,0.738,1.151,1.288,1.215V279.916z"/>
		<path d="M163.538,274.544c0.883,0.657,2.053,1.135,3.683,1.135c1.604,0,2.755-0.495,3.654-1.135v0.621    c-0.747,0.567-1.899,1.18-3.654,1.18c-1.773-0.01-2.926-0.612-3.683-1.18V274.544z"/>
		<path d="M167.428,272.907v-0.018c-0.153-0.108-0.343-0.262-0.495-0.388l-1.504-1.277v-0.954l1.792,1.684l2.565-1.918v0.963    l-2.09,1.503l0.45,0.405h1.64v0.783h-6.393v-0.783H167.428L167.428,272.907z"/>
		<path d="M164.204,268.423c0.271-0.009,0.485,0.189,0.485,0.505c0,0.278-0.216,0.477-0.485,0.477c-0.278,0-0.495-0.207-0.495-0.495    C163.709,268.612,163.926,268.423,164.204,268.423z M169.786,269.306h-4.357v-0.792h4.357V269.306z"/>
		<path d="M163.395,267.193v-0.792h6.393v0.792H163.395z"/>
		<path d="M167.571,261.067c1.611,0,2.313,1.117,2.313,2.17c0,1.179-0.864,2.088-2.241,2.088c-1.458,0-2.312-0.954-2.312-2.161    C165.33,261.914,166.239,261.067,167.571,261.067z M167.616,264.524c0.953,0,1.675-0.549,1.675-1.323    c0-0.756-0.711-1.323-1.692-1.323c-0.738,0-1.675,0.369-1.675,1.306C165.924,264.119,166.788,264.524,167.616,264.524z"/>
		<path d="M166.608,260.01c-0.449,0-0.818,0.009-1.18,0.035v-0.692l0.702-0.036v-0.027c-0.414-0.243-0.801-0.647-0.801-1.368    c0-0.594,0.358-1.044,0.873-1.232v-0.019c-0.243-0.135-0.434-0.306-0.567-0.485c-0.198-0.262-0.306-0.549-0.306-0.963    c0-0.576,0.378-1.432,1.891-1.432h2.565v0.774h-2.468c-0.837,0-1.342,0.306-1.342,0.945c0,0.449,0.334,0.801,0.721,0.937    c0.108,0.036,0.253,0.063,0.396,0.063h2.691v0.773h-2.61c-0.693,0-1.198,0.306-1.198,0.909c0,0.495,0.396,0.854,0.793,0.98    c0.117,0.046,0.252,0.063,0.387,0.063h2.63v0.773H166.608L166.608,260.01z"/>
		<path d="M167.752,251.986c1.07-0.019,1.512-0.702,1.512-1.495c0-0.567-0.099-0.909-0.225-1.207l0.566-0.135    c0.126,0.279,0.271,0.756,0.271,1.449c0,1.341-0.882,2.143-2.196,2.143c-1.313,0-2.35-0.774-2.35-2.043    c0-1.422,1.251-1.8,2.053-1.8c0.162,0,0.288,0.018,0.369,0.026V251.986L167.752,251.986z M167.185,249.664    c-0.504-0.009-1.288,0.207-1.288,1.099c0,0.801,0.738,1.151,1.288,1.215V249.664z"/>
		<path d="M164.178,246.895h1.251v-1.134h0.604v1.134h2.35c0.54,0,0.846-0.153,0.846-0.594c0-0.207-0.025-0.36-0.054-0.46    l0.595-0.035c0.062,0.152,0.107,0.396,0.107,0.701c0,0.369-0.117,0.666-0.333,0.855c-0.234,0.225-0.621,0.306-1.134,0.306h-2.377    v0.676h-0.604v-0.676h-1.044L164.178,246.895z"/>
		<path d="M167.752,244.464c1.07-0.018,1.512-0.701,1.512-1.494c0-0.567-0.099-0.909-0.225-1.207l0.566-0.136    c0.126,0.279,0.271,0.756,0.271,1.449c0,1.341-0.882,2.144-2.196,2.144c-1.313,0-2.35-0.774-2.35-2.043    c0-1.423,1.251-1.801,2.053-1.801c0.162,0,0.288,0.019,0.369,0.027V244.464L167.752,244.464z M167.185,242.141    c-0.504-0.01-1.288,0.207-1.288,1.098c0,0.801,0.738,1.152,1.288,1.215V242.141z"/>
		<path d="M166.788,240.344c-0.514,0-0.954,0.009-1.359,0.035v-0.692l0.855-0.027v-0.036c-0.585-0.197-0.954-0.675-0.954-1.207    c0-0.09,0.009-0.152,0.025-0.225h0.748c-0.019,0.081-0.026,0.162-0.026,0.271c0,0.559,0.423,0.954,1.018,1.062    c0.107,0.018,0.233,0.036,0.369,0.036h2.322v0.783H166.788z"/>
		<path d="M168.976,237.402c0.153-0.234,0.315-0.648,0.315-1.044c0-0.576-0.288-0.847-0.648-0.847c-0.378,0-0.585,0.225-0.801,0.811    c-0.279,0.783-0.712,1.152-1.233,1.152c-0.701,0-1.277-0.567-1.277-1.503c0-0.441,0.126-0.829,0.27-1.071l0.576,0.198    c-0.107,0.171-0.252,0.485-0.252,0.892c0,0.468,0.271,0.729,0.595,0.729c0.359,0,0.521-0.262,0.738-0.828    c0.288-0.757,0.666-1.145,1.312-1.145c0.767,0,1.307,0.594,1.307,1.629c0,0.479-0.117,0.918-0.297,1.226L168.976,237.402z"/>
		<path d="M170.875,234.481c-0.892-0.64-2.062-1.134-3.683-1.134c-1.61,0-2.764,0.485-3.654,1.134v-0.612    c0.737-0.576,1.891-1.18,3.664-1.18c1.765,0,2.907,0.604,3.673,1.18V234.481z"/>
	</g>
	<g>
		<path d="M178.078,197.082h-1.862l-0.188,1.254c0.113-0.016,0.219-0.029,0.398-0.029c0.375,0,0.75,0.083,1.051,0.263    c0.383,0.218,0.698,0.639,0.698,1.254c0,0.953-0.758,1.667-1.816,1.667c-0.532,0-0.983-0.15-1.216-0.301l0.165-0.503    c0.203,0.12,0.602,0.271,1.043,0.271c0.623,0,1.156-0.404,1.156-1.059c-0.008-0.631-0.428-1.081-1.404-1.081    c-0.277,0-0.496,0.03-0.676,0.053l0.315-2.343h2.334v0.555H178.078z"/>
		<path d="M182.255,198.914c0,1.659-0.616,2.575-1.697,2.575c-0.954,0-1.599-0.894-1.614-2.508c0-1.637,0.706-2.537,1.696-2.537    C181.67,196.444,182.255,197.359,182.255,198.914z M179.605,198.989c0,1.269,0.392,1.989,0.991,1.989    c0.676,0,0.999-0.788,0.999-2.034c0-1.201-0.308-1.99-0.991-1.99C180.026,196.954,179.605,197.66,179.605,198.989z"/>
		<path d="M177.207,229.072v-1.329h-2.268v-0.436l2.178-3.115h0.713v3.033h0.683v0.518h-0.683v1.329H177.207z M177.207,227.226    v-1.629c0-0.257,0.007-0.512,0.021-0.767h-0.021c-0.15,0.285-0.271,0.495-0.405,0.722l-1.194,1.657v0.017H177.207z"/>
		<path d="M182.255,226.58c0,1.659-0.616,2.575-1.697,2.575c-0.954,0-1.599-0.894-1.614-2.508c0-1.637,0.706-2.537,1.696-2.537    C181.67,224.11,182.255,225.025,182.255,226.58z M179.605,226.655c0,1.269,0.392,1.989,0.991,1.989    c0.676,0,0.999-0.788,0.999-2.034c0-1.201-0.308-1.99-0.991-1.99C180.026,224.62,179.605,225.326,179.605,226.655z"/>
		<path d="M175.323,255.98c0.188,0.12,0.623,0.308,1.081,0.308c0.849,0,1.111-0.541,1.104-0.946    c-0.008-0.683-0.623-0.976-1.261-0.976h-0.368v-0.496h0.368c0.479,0,1.088-0.247,1.088-0.825c0-0.391-0.248-0.735-0.855-0.735    c-0.391,0-0.766,0.173-0.976,0.322l-0.173-0.479c0.255-0.188,0.751-0.375,1.275-0.375c0.961,0,1.396,0.57,1.396,1.163    c0,0.503-0.3,0.931-0.901,1.147v0.017c0.602,0.12,1.088,0.569,1.088,1.253c0,0.781-0.607,1.465-1.778,1.465    c-0.549,0-1.028-0.173-1.27-0.331L175.323,255.98z"/>
		<path d="M182.255,254.246c0,1.659-0.616,2.575-1.697,2.575c-0.954,0-1.599-0.894-1.614-2.508c0-1.637,0.706-2.537,1.696-2.537    C181.67,251.776,182.255,252.691,182.255,254.246z M179.605,254.321c0,1.269,0.392,1.989,0.991,1.989    c0.676,0,0.999-0.788,0.999-2.034c0-1.201-0.308-1.99-0.991-1.99C180.026,252.286,179.605,252.992,179.605,254.321z"/>
		<path d="M175.165,284.404v-0.405l0.518-0.503c1.246-1.187,1.81-1.816,1.816-2.553c0-0.495-0.24-0.953-0.969-0.953    c-0.442,0-0.811,0.225-1.035,0.413l-0.21-0.466c0.338-0.285,0.817-0.495,1.381-0.495c1.051,0,1.494,0.721,1.494,1.418    c0,0.901-0.653,1.63-1.683,2.62l-0.391,0.359v0.017h2.191v0.548H175.165L175.165,284.404z"/>
		<path d="M182.255,281.912c0,1.659-0.616,2.575-1.697,2.575c-0.954,0-1.599-0.895-1.614-2.508c0-1.638,0.706-2.537,1.696-2.537    C181.67,279.442,182.255,280.357,182.255,281.912z M179.605,281.987c0,1.269,0.392,1.989,0.991,1.989    c0.676,0,0.999-0.788,0.999-2.034c0-1.201-0.308-1.99-0.991-1.99C180.026,279.952,179.605,280.658,179.605,281.987z"/>
		<path d="M176.599,307.806h-0.015l-0.85,0.458l-0.127-0.503l1.066-0.57h0.562v4.88h-0.638V307.806z"/>
		<path d="M182.255,309.578c0,1.659-0.616,2.575-1.697,2.575c-0.954,0-1.599-0.894-1.614-2.508c0-1.637,0.706-2.537,1.696-2.537    C181.67,307.108,182.255,308.023,182.255,309.578z M179.605,309.653c0,1.27,0.392,1.989,0.991,1.989    c0.676,0,0.999-0.788,0.999-2.034c0-1.201-0.308-1.99-0.991-1.99C180.026,307.618,179.605,308.324,179.605,309.653z"/>
		<path d="M182.256,337.244c0,1.659-0.616,2.575-1.697,2.575c-0.953,0-1.599-0.894-1.614-2.508c0-1.637,0.706-2.537,1.697-2.537    C181.67,334.774,182.256,335.689,182.256,337.244z M179.606,337.319c0,1.27,0.391,1.989,0.991,1.989    c0.676,0,0.999-0.788,0.999-2.034c0-1.201-0.308-1.99-0.991-1.99C180.026,335.284,179.606,335.99,179.606,337.319z"/>
	</g>
	<g>
		<path d="M180.227,343.235h-0.015l-0.85,0.458l-0.127-0.503l1.066-0.57h0.563v4.88h-0.639V343.235z"/>
		<path d="M182.58,346.262c0-0.616,0.367-1.052,0.968-1.308l-0.007-0.021c-0.541-0.256-0.773-0.676-0.773-1.096    c0-0.773,0.653-1.3,1.509-1.3c0.946,0,1.419,0.594,1.419,1.201c0,0.412-0.202,0.855-0.804,1.142v0.021    c0.608,0.24,0.983,0.668,0.983,1.262c0,0.849-0.729,1.419-1.659,1.419C183.195,347.584,182.58,346.975,182.58,346.262z     M185.207,346.231c0-0.594-0.413-0.879-1.073-1.066c-0.571,0.165-0.878,0.541-0.878,1.007c-0.023,0.496,0.353,0.932,0.976,0.932    C184.824,347.103,185.207,346.734,185.207,346.231z M183.39,343.791c0,0.488,0.368,0.752,0.931,0.901    c0.421-0.143,0.743-0.443,0.743-0.886c0-0.392-0.232-0.796-0.826-0.796C183.69,343.011,183.39,343.371,183.39,343.791z"/>
		<path d="M186.427,346.262c0-0.616,0.368-1.052,0.968-1.308l-0.007-0.021c-0.541-0.256-0.772-0.676-0.772-1.096    c0-0.773,0.652-1.3,1.509-1.3c0.945,0,1.418,0.594,1.418,1.201c0,0.412-0.203,0.855-0.804,1.142v0.021    c0.608,0.24,0.984,0.668,0.984,1.262c0,0.849-0.729,1.419-1.659,1.419C187.042,347.584,186.427,346.975,186.427,346.262z     M189.054,346.231c0-0.594-0.413-0.879-1.074-1.066c-0.569,0.165-0.878,0.541-0.878,1.007c-0.021,0.496,0.354,0.932,0.977,0.932    C188.671,347.103,189.054,346.734,189.054,346.231z M187.237,343.791c0,0.488,0.368,0.752,0.932,0.901    c0.42-0.143,0.743-0.443,0.743-0.886c0-0.392-0.233-0.796-0.826-0.796C187.538,343.011,187.237,343.371,187.237,343.791z"/>
		<path d="M193.577,345.009c0,1.659-0.616,2.575-1.697,2.575c-0.954,0-1.6-0.895-1.614-2.509c0-1.637,0.706-2.537,1.696-2.537    C192.992,342.538,193.577,343.453,193.577,345.009z M190.927,345.084c0,1.269,0.391,1.988,0.991,1.988    c0.676,0,0.999-0.788,0.999-2.034c0-1.2-0.309-1.989-0.991-1.989C191.348,343.049,190.927,343.755,190.927,345.084z"/>
	</g>
	<g>
		<path d="M222.225,343.235h-0.015l-0.85,0.458l-0.127-0.503l1.066-0.57h0.562v4.88h-0.638V343.235z"/>
		<path d="M225.021,347.034c0.144,0.017,0.309,0,0.533-0.021c0.383-0.052,0.743-0.21,1.021-0.474    c0.322-0.293,0.555-0.721,0.646-1.299h-0.021c-0.271,0.33-0.661,0.525-1.149,0.525c-0.878,0-1.441-0.66-1.441-1.494    c0-0.923,0.668-1.733,1.667-1.733c0.998,0,1.614,0.812,1.614,2.058c0,1.073-0.36,1.824-0.841,2.29    c-0.375,0.367-0.894,0.593-1.419,0.651c-0.24,0.038-0.45,0.047-0.608,0.038L225.021,347.034L225.021,347.034z M225.261,344.227    c0,0.608,0.368,1.036,0.938,1.036c0.442,0,0.787-0.218,0.961-0.511c0.037-0.061,0.06-0.136,0.06-0.24    c0-0.833-0.308-1.472-0.999-1.472C225.659,343.041,225.261,343.536,225.261,344.227z"/>
		<path d="M231.728,345.009c0,1.659-0.616,2.575-1.697,2.575c-0.952,0-1.599-0.895-1.613-2.509c0-1.637,0.706-2.537,1.696-2.537    C231.143,342.538,231.728,343.453,231.728,345.009z M229.078,345.084c0,1.269,0.39,1.988,0.99,1.988    c0.677,0,0.999-0.788,0.999-2.034c0-1.2-0.308-1.989-0.99-1.989C229.498,343.049,229.078,343.755,229.078,345.084z"/>
		<path d="M235.575,345.009c0,1.659-0.616,2.575-1.697,2.575c-0.954,0-1.6-0.895-1.614-2.509c0-1.637,0.706-2.537,1.696-2.537    C234.99,342.538,235.575,343.453,235.575,345.009z M232.925,345.084c0,1.269,0.391,1.988,0.991,1.988    c0.676,0,0.999-0.788,0.999-2.034c0-1.2-0.309-1.989-0.991-1.989C233.346,343.049,232.925,343.755,232.925,345.084z"/>
	</g>
	<g>
		<path d="M264.223,343.235h-0.015l-0.85,0.458l-0.127-0.503l1.066-0.57h0.562v4.88h-0.638V343.235L264.223,343.235z"/>
		<path d="M267.019,347.034c0.144,0.017,0.309,0,0.533-0.021c0.383-0.052,0.743-0.21,1.021-0.474    c0.323-0.293,0.556-0.721,0.646-1.299h-0.022c-0.271,0.33-0.66,0.525-1.148,0.525c-0.878,0-1.441-0.66-1.441-1.494    c0-0.923,0.668-1.733,1.667-1.733c0.998,0,1.614,0.812,1.614,2.058c0,1.073-0.36,1.824-0.841,2.29    c-0.375,0.367-0.894,0.593-1.419,0.651c-0.24,0.038-0.45,0.047-0.608,0.038L267.019,347.034L267.019,347.034z M267.259,344.227    c0,0.608,0.368,1.036,0.938,1.036c0.443,0,0.788-0.218,0.962-0.511c0.037-0.061,0.06-0.136,0.06-0.24    c0-0.833-0.308-1.472-0.999-1.472C267.657,343.041,267.259,343.536,267.259,344.227z"/>
		<path d="M270.483,347.5v-0.404l0.519-0.503c1.246-1.188,1.809-1.817,1.815-2.554c0-0.494-0.239-0.952-0.968-0.952    c-0.442,0-0.811,0.225-1.036,0.412l-0.21-0.466c0.338-0.285,0.818-0.495,1.381-0.495c1.052,0,1.494,0.722,1.494,1.418    c0,0.901-0.652,1.631-1.682,2.62l-0.392,0.36v0.016h2.192v0.548H270.483L270.483,347.5z"/>
		<path d="M277.573,345.009c0,1.659-0.615,2.575-1.696,2.575c-0.954,0-1.6-0.895-1.614-2.509c0-1.637,0.706-2.537,1.696-2.537    C276.988,342.538,277.573,343.453,277.573,345.009z M274.923,345.084c0,1.269,0.391,1.988,0.991,1.988    c0.676,0,0.999-0.788,0.999-2.034c0-1.2-0.309-1.989-0.991-1.989C275.344,343.049,274.923,343.755,274.923,345.084z"/>
	</g>
	<g>
		<path d="M306.221,343.235h-0.015l-0.85,0.458l-0.127-0.503l1.066-0.57h0.562v4.88h-0.638V343.235L306.221,343.235z"/>
		<path d="M309.017,347.034c0.144,0.017,0.309,0,0.533-0.021c0.383-0.052,0.743-0.21,1.021-0.474    c0.323-0.293,0.557-0.721,0.646-1.299h-0.023c-0.27,0.33-0.659,0.525-1.147,0.525c-0.878,0-1.441-0.66-1.441-1.494    c0-0.923,0.668-1.733,1.667-1.733c0.998,0,1.614,0.812,1.614,2.058c0,1.073-0.361,1.824-0.842,2.29    c-0.375,0.367-0.894,0.593-1.418,0.651c-0.24,0.038-0.451,0.047-0.608,0.038L309.017,347.034L309.017,347.034z M309.257,344.227    c0,0.608,0.368,1.036,0.938,1.036c0.443,0,0.788-0.218,0.961-0.511c0.037-0.061,0.062-0.136,0.062-0.24    c0-0.833-0.309-1.472-0.999-1.472C309.654,343.041,309.257,343.536,309.257,344.227z"/>
		<path d="M314.523,347.5v-1.328h-2.268v-0.437l2.177-3.115h0.714v3.033h0.684v0.519h-0.684v1.328H314.523z M314.523,345.653v-1.629    c0-0.256,0.007-0.511,0.021-0.766h-0.021c-0.149,0.285-0.271,0.495-0.405,0.721l-1.193,1.658v0.016H314.523z"/>
		<path d="M319.571,345.009c0,1.659-0.615,2.575-1.695,2.575c-0.954,0-1.601-0.895-1.614-2.509c0-1.637,0.706-2.537,1.696-2.537    C318.986,342.538,319.571,343.453,319.571,345.009z M316.921,345.084c0,1.269,0.391,1.988,0.991,1.988    c0.676,0,0.998-0.788,0.998-2.034c0-1.2-0.309-1.989-0.99-1.989C317.342,343.049,316.921,343.755,316.921,345.084z"/>
	</g>
	<g>
		<path d="M348.219,343.235h-0.016l-0.849,0.458l-0.128-0.503l1.065-0.57h0.562v4.88h-0.638v-4.265H348.219z"/>
		<path d="M351.015,347.034c0.144,0.017,0.309,0,0.533-0.021c0.383-0.052,0.743-0.21,1.021-0.474    c0.323-0.293,0.557-0.721,0.646-1.299h-0.023c-0.27,0.33-0.66,0.525-1.147,0.525c-0.878,0-1.441-0.66-1.441-1.494    c0-0.923,0.668-1.733,1.667-1.733c0.998,0,1.614,0.812,1.614,2.058c0,1.073-0.361,1.824-0.842,2.29    c-0.375,0.367-0.894,0.593-1.418,0.651c-0.24,0.038-0.451,0.047-0.608,0.038L351.015,347.034L351.015,347.034z M351.255,344.227    c0,0.608,0.368,1.036,0.938,1.036c0.443,0,0.788-0.218,0.961-0.511c0.037-0.061,0.062-0.136,0.062-0.24    c0-0.833-0.31-1.472-0.999-1.472C351.652,343.041,351.255,343.536,351.255,344.227z"/>
		<path d="M357.264,343.087c-0.135-0.009-0.307,0-0.495,0.029c-1.036,0.172-1.584,0.932-1.696,1.733h0.022    c0.232-0.309,0.638-0.562,1.179-0.562c0.863,0,1.472,0.623,1.472,1.576c0,0.895-0.607,1.72-1.621,1.72    c-1.043,0-1.728-0.812-1.728-2.079c0-0.961,0.347-1.72,0.826-2.199c0.404-0.398,0.945-0.646,1.562-0.722    c0.194-0.029,0.36-0.037,0.479-0.037V343.087z M357.076,345.901c0-0.698-0.397-1.119-1.007-1.119    c-0.396,0-0.766,0.248-0.944,0.602c-0.045,0.075-0.076,0.173-0.076,0.293c0.016,0.804,0.384,1.396,1.074,1.396    C356.693,347.072,357.076,346.599,357.076,345.901z"/>
		<path d="M361.569,345.009c0,1.659-0.615,2.575-1.695,2.575c-0.954,0-1.601-0.895-1.614-2.509c0-1.637,0.706-2.537,1.696-2.537    C360.984,342.538,361.569,343.453,361.569,345.009z M358.919,345.084c0,1.269,0.391,1.988,0.991,1.988    c0.676,0,0.998-0.788,0.998-2.034c0-1.2-0.309-1.989-0.99-1.989C359.34,343.049,358.919,343.755,358.919,345.084z"/>
	</g>
	<g>
		<path d="M390.217,343.235h-0.016l-0.849,0.458l-0.128-0.503l1.065-0.57h0.562v4.88h-0.638v-4.265H390.217z"/>
		<path d="M393.013,347.034c0.143,0.017,0.308,0,0.533-0.021c0.383-0.052,0.743-0.21,1.021-0.474    c0.323-0.293,0.557-0.721,0.646-1.299h-0.023c-0.27,0.33-0.66,0.525-1.147,0.525c-0.878,0-1.441-0.66-1.441-1.494    c0-0.923,0.668-1.733,1.667-1.733c0.998,0,1.614,0.812,1.614,2.058c0,1.073-0.361,1.824-0.842,2.29    c-0.375,0.367-0.894,0.593-1.418,0.651c-0.24,0.038-0.451,0.047-0.608,0.038L393.013,347.034L393.013,347.034z M393.253,344.227    c0,0.608,0.368,1.036,0.938,1.036c0.443,0,0.788-0.218,0.961-0.511c0.037-0.061,0.062-0.136,0.062-0.24    c0-0.833-0.31-1.472-0.999-1.472C393.65,343.041,393.253,343.536,393.253,344.227z"/>
		<path d="M396.417,346.262c0-0.616,0.368-1.052,0.968-1.308l-0.007-0.021c-0.54-0.256-0.773-0.676-0.773-1.096    c0-0.773,0.653-1.3,1.509-1.3c0.946,0,1.42,0.594,1.42,1.201c0,0.412-0.202,0.855-0.805,1.142v0.021    c0.609,0.24,0.984,0.668,0.984,1.262c0,0.849-0.729,1.419-1.659,1.419C397.033,347.584,396.417,346.975,396.417,346.262z     M399.045,346.231c0-0.594-0.413-0.879-1.074-1.066c-0.57,0.165-0.878,0.541-0.878,1.007c-0.022,0.496,0.353,0.932,0.976,0.932    C398.662,347.103,399.045,346.734,399.045,346.231z M397.228,343.791c0,0.488,0.368,0.752,0.932,0.901    c0.421-0.143,0.743-0.443,0.743-0.886c0-0.392-0.232-0.796-0.825-0.796C397.527,343.011,397.228,343.371,397.228,343.791z"/>
		<path d="M403.567,345.009c0,1.659-0.615,2.575-1.695,2.575c-0.954,0-1.601-0.895-1.614-2.509c0-1.637,0.706-2.537,1.696-2.537    C402.982,342.538,403.567,343.453,403.567,345.009z M400.917,345.084c0,1.269,0.391,1.988,0.991,1.988    c0.676,0,0.997-0.788,0.997-2.034c0-1.2-0.308-1.989-0.989-1.989C401.338,343.049,400.917,343.755,400.917,345.084z"/>
	</g>
	<g>
		<path d="M430.781,347.5v-0.404l0.519-0.503c1.246-1.188,1.809-1.817,1.815-2.554c0-0.494-0.239-0.952-0.969-0.952    c-0.442,0-0.811,0.225-1.035,0.412l-0.211-0.466c0.338-0.285,0.818-0.495,1.382-0.495c1.051,0,1.494,0.722,1.494,1.418    c0,0.901-0.653,1.631-1.682,2.62l-0.392,0.36v0.016h2.192v0.548H430.781L430.781,347.5z"/>
		<path d="M437.87,345.009c0,1.659-0.614,2.575-1.696,2.575c-0.953,0-1.6-0.895-1.613-2.509c0-1.637,0.705-2.537,1.696-2.537    C437.284,342.538,437.87,343.453,437.87,345.009z M435.221,345.084c0,1.269,0.391,1.988,0.991,1.988    c0.676,0,0.999-0.788,0.999-2.034c0-1.2-0.31-1.989-0.992-1.989C435.642,343.049,435.221,343.755,435.221,345.084z"/>
		<path d="M441.719,345.009c0,1.659-0.616,2.575-1.697,2.575c-0.953,0-1.6-0.895-1.614-2.509c0-1.637,0.706-2.537,1.696-2.537    C441.133,342.538,441.719,343.453,441.719,345.009z M439.068,345.084c0,1.269,0.392,1.988,0.99,1.988    c0.676,0,0.999-0.788,0.999-2.034c0-1.2-0.309-1.989-0.991-1.989C439.488,343.049,439.068,343.755,439.068,345.084z"/>
		<path d="M445.565,345.009c0,1.659-0.616,2.575-1.696,2.575c-0.954,0-1.6-0.895-1.613-2.509c0-1.637,0.706-2.537,1.695-2.537    C444.98,342.538,445.565,343.453,445.565,345.009z M442.914,345.084c0,1.269,0.392,1.988,0.991,1.988    c0.676,0,0.998-0.788,0.998-2.034c0-1.2-0.308-1.989-0.99-1.989C443.336,343.049,442.914,343.755,442.914,345.084z"/>
	</g>
	<g>
		<g>
			<g>
				
					<line fill="none" stroke="#A7A9AC" stroke-width="0.5" stroke-linejoin="round" x1="186.149" y1="225.925" x2="187.149" y2="225.925"/>
				
					<line fill="none" stroke="#A7A9AC" stroke-width="0.5" stroke-linejoin="round" stroke-dasharray="1.9999,1.9999" x1="189.149" y1="225.925" x2="436.138" y2="225.925"/>
				
					<line fill="none" stroke="#A7A9AC" stroke-width="0.5" stroke-linejoin="round" x1="437.138" y1="225.925" x2="438.138" y2="225.925"/>
			</g>
			<g>
				
					<line fill="none" stroke="#A7A9AC" stroke-width="0.5" stroke-linejoin="round" x1="186.149" y1="253.591" x2="187.149" y2="253.591"/>
				
					<line fill="none" stroke="#A7A9AC" stroke-width="0.5" stroke-linejoin="round" stroke-dasharray="1.9999,1.9999" x1="189.149" y1="253.591" x2="436.138" y2="253.591"/>
				
					<line fill="none" stroke="#A7A9AC" stroke-width="0.5" stroke-linejoin="round" x1="437.138" y1="253.591" x2="438.138" y2="253.591"/>
			</g>
			<g>
				
					<line fill="none" stroke="#A7A9AC" stroke-width="0.5" stroke-linejoin="round" x1="186.149" y1="281.257" x2="187.149" y2="281.257"/>
				
					<line fill="none" stroke="#A7A9AC" stroke-width="0.5" stroke-linejoin="round" stroke-dasharray="1.9999,1.9999" x1="189.149" y1="281.257" x2="436.138" y2="281.257"/>
				
					<line fill="none" stroke="#A7A9AC" stroke-width="0.5" stroke-linejoin="round" x1="437.138" y1="281.257" x2="438.138" y2="281.257"/>
			</g>
			<g>
				
					<line fill="none" stroke="#A7A9AC" stroke-width="0.5" stroke-linejoin="round" x1="186.149" y1="308.925" x2="187.149" y2="308.925"/>
				
					<line fill="none" stroke="#A7A9AC" stroke-width="0.5" stroke-linejoin="round" stroke-dasharray="1.9999,1.9999" x1="189.149" y1="308.925" x2="436.138" y2="308.925"/>
				
					<line fill="none" stroke="#A7A9AC" stroke-width="0.5" stroke-linejoin="round" x1="437.138" y1="308.925" x2="438.138" y2="308.925"/>
			</g>
		</g>
	</g>
	<g>
		<g>
			<g>
				
					<line fill="none" stroke="#A7A9AC" stroke-width="0.5" stroke-linejoin="round" x1="396.264" y1="199.006" x2="396.264" y2="200.006"/>
				
					<line fill="none" stroke="#A7A9AC" stroke-width="0.5" stroke-linejoin="round" stroke-dasharray="2.0125,2.0125" x1="396.264" y1="202.019" x2="396.264" y2="333.837"/>
				
					<line fill="none" stroke="#A7A9AC" stroke-width="0.5" stroke-linejoin="round" x1="396.264" y1="334.843" x2="396.264" y2="335.843"/>
			</g>
			<g>
				
					<line fill="none" stroke="#A7A9AC" stroke-width="0.5" stroke-linejoin="round" x1="354.389" y1="199.006" x2="354.389" y2="200.006"/>
				
					<line fill="none" stroke="#A7A9AC" stroke-width="0.5" stroke-linejoin="round" stroke-dasharray="2.0125,2.0125" x1="354.389" y1="202.019" x2="354.389" y2="333.837"/>
				
					<line fill="none" stroke="#A7A9AC" stroke-width="0.5" stroke-linejoin="round" x1="354.389" y1="334.843" x2="354.389" y2="335.843"/>
			</g>
			<g>
				
					<line fill="none" stroke="#A7A9AC" stroke-width="0.5" stroke-linejoin="round" x1="312.518" y1="199.006" x2="312.518" y2="200.006"/>
				
					<line fill="none" stroke="#A7A9AC" stroke-width="0.5" stroke-linejoin="round" stroke-dasharray="2.0125,2.0125" x1="312.518" y1="202.019" x2="312.518" y2="333.837"/>
				
					<line fill="none" stroke="#A7A9AC" stroke-width="0.5" stroke-linejoin="round" x1="312.518" y1="334.843" x2="312.518" y2="335.843"/>
			</g>
			<g>
				
					<line fill="none" stroke="#A7A9AC" stroke-width="0.5" stroke-linejoin="round" x1="269.896" y1="199.006" x2="269.896" y2="200.006"/>
				
					<line fill="none" stroke="#A7A9AC" stroke-width="0.5" stroke-linejoin="round" stroke-dasharray="2.0125,2.0125" x1="269.896" y1="202.019" x2="269.896" y2="333.837"/>
				
					<line fill="none" stroke="#A7A9AC" stroke-width="0.5" stroke-linejoin="round" x1="269.896" y1="334.843" x2="269.896" y2="335.843"/>
			</g>
			<g>
				
					<line fill="none" stroke="#A7A9AC" stroke-width="0.5" stroke-linejoin="round" x1="228.022" y1="199.006" x2="228.022" y2="200.006"/>
				
					<line fill="none" stroke="#A7A9AC" stroke-width="0.5" stroke-linejoin="round" stroke-dasharray="2.0125,2.0125" x1="228.022" y1="202.019" x2="228.022" y2="333.837"/>
				
					<line fill="none" stroke="#A7A9AC" stroke-width="0.5" stroke-linejoin="round" x1="228.022" y1="334.843" x2="228.022" y2="335.843"/>
			</g>
		</g>
	</g>
	
		<rect x="186.206" y="198.8" fill="none" stroke="#000000" stroke-width="0.5" stroke-linejoin="round" stroke-miterlimit="10" width="251.941" height="137.237"/>
	<circle cx="222.284" cy="317.149" r="2"/>
	<circle cx="228.017" cy="311.327" r="2"/>
	<circle cx="234.87" cy="320.138" r="2"/>
	<circle cx="240.908" cy="311.816" r="2"/>
	<circle cx="255.92" cy="310.511" r="2"/>
	<circle cx="293.125" cy="278.854" r="2"/>
	<circle cx="293.125" cy="286.523" r="2"/>
	<circle cx="305.853" cy="288.482" r="2"/>
	<circle cx="308.137" cy="303.331" r="2"/>
	<circle cx="305.689" cy="327.645" r="2"/>
	<circle cx="318.253" cy="319.977" r="2"/>
	<circle cx="318.253" cy="302.19" r="2"/>
	<circle cx="336.856" cy="309.533" r="2"/>
	<circle cx="339.466" cy="314.265" r="2"/>
	<circle cx="343.873" cy="284.73" r="2"/>
	<circle cx="343.873" cy="270.208" r="2"/>
	<circle cx="343.873" cy="252.421" r="2"/>
	<circle cx="368.512" cy="294.031" r="2"/>
	<circle cx="381.24" cy="284.894" r="2"/>
	<circle cx="383.688" cy="293.868" r="2"/>
	<circle cx="385.972" cy="301.538" r="2"/>
	<circle cx="385.972" cy="253.237" r="2"/>
	<circle cx="387.767" cy="233.982" r="2"/>
	<circle cx="402.29" cy="225.66" r="2"/>
	<circle cx="341.587" cy="260.253" r="2"/>
</g>
</svg>