<svg xmlns="http://www.w3.org/2000/svg" xmlns:xlink="http://www.w3.org/1999/xlink" version="1.1" id="Layer_1" x="0px" y="0px" width="301.921px" height="211.368px" viewBox="0 0 301.921 211.368" enable-background="new 0 0 301.921 211.368" xml:space="preserve">
<path fill="none" stroke="#939598" stroke-linejoin="round" stroke-miterlimit="10" d="M301.421,177.689  c-0.959-0.113-1.92-0.225-2.879-0.343c-0.961-0.118-1.92-0.242-2.88-0.368c-0.959-0.126-1.92-0.258-2.879-0.393  c-0.959-0.134-1.92-0.271-2.879-0.413s-1.92-0.288-2.88-0.437c-0.962-0.15-1.921-0.303-2.879-0.462  c-0.959-0.159-1.92-0.32-2.879-0.49s-1.92-0.344-2.879-0.53c-0.96-0.185-1.921-0.375-2.88-0.585  c-0.961-0.209-1.92-0.424-2.879-0.669c-0.961-0.245-1.92-0.501-2.879-0.8c-0.96-0.299-1.921-0.617-2.88-0.992  c-0.959-0.377-1.92-0.784-2.879-1.269c-0.961-0.484-1.92-1.014-2.879-1.639c-0.959-0.626-1.92-1.314-2.88-2.111  c-0.959-0.796-1.92-1.68-2.879-2.669c-0.961-0.991-1.92-2.086-2.879-3.276c-0.961-1.189-1.92-2.493-2.88-3.858  c-0.961-1.364-1.92-2.845-2.879-4.333c-0.959-1.487-1.92-3.069-2.879-4.591c-0.961-1.521-1.92-3.098-2.879-4.542  c-0.961-1.441-1.921-2.879-2.88-4.113c-0.961-1.236-1.92-2.393-2.879-3.298s-1.92-1.657-2.879-2.137  c-0.961-0.479-1.921-0.741-2.88-0.741c-0.962,0-1.92,0.262-2.879,0.741c-0.961,0.479-1.92,1.231-2.879,2.137s-1.92,2.062-2.88,3.298  c-0.961,1.234-1.92,2.672-2.879,4.113c-0.961,1.444-1.92,3.021-2.879,4.542c-0.961,1.521-1.92,3.104-2.88,4.591  c-0.961,1.488-1.92,2.969-2.879,4.333c-0.961,1.365-1.92,2.669-2.879,3.858c-0.961,1.19-1.92,2.285-2.879,3.276  c-0.961,0.989-1.921,1.873-2.88,2.669c-0.961,0.797-1.92,1.485-2.879,2.111c-0.961,0.625-1.92,1.154-2.879,1.639  c-0.961,0.484-1.921,0.892-2.88,1.269c-0.961,0.375-1.92,0.693-2.879,0.992c-0.961,0.299-1.92,0.555-2.879,0.8  c-0.961,0.245-1.92,0.46-2.88,0.669c-0.961,0.21-1.92,0.4-2.879,0.585c-0.961,0.187-1.92,0.36-2.879,0.53  c-0.961,0.17-1.92,0.331-2.88,0.49c-0.961,0.159-1.92,0.312-2.882,0.462c-0.957,0.148-1.917,0.295-2.876,0.437  c-0.961,0.142-1.92,0.279-2.879,0.413c-0.961,0.135-1.921,0.267-2.88,0.393c-0.961,0.126-1.92,0.25-2.881,0.368  c-0.959,0.118-1.918,0.233-2.877,0.345c-0.961,0.11-1.921,0.218-2.88,0.32c-0.961,0.104-1.92,0.202-2.881,0.298  c-0.959,0.096-1.918,0.187-2.878,0.273c-0.96,0.087-1.92,0.171-2.88,0.25c-0.959,0.079-1.919,0.156-2.879,0.229  c-0.96,0.071-1.919,0.141-2.878,0.207c-0.96,0.064-1.92,0.127-2.879,0.184c-0.961,0.06-1.92,0.115-2.88,0.167  c-0.96,0.051-1.92,0.101-2.879,0.148c-0.961,0.046-1.92,0.089-2.879,0.129c-0.96,0.042-1.92,0.081-2.88,0.115  c-0.96,0.037-1.919,0.071-2.878,0.102c-0.96,0.032-1.92,0.061-2.88,0.088c-0.961,0.028-1.92,0.053-2.879,0.077  c-0.96,0.022-1.92,0.045-2.88,0.065c-0.96,0.021-1.919,0.039-2.878,0.057c-0.961,0.018-1.92,0.034-2.88,0.049  s-1.919,0.028-2.879,0.041c-0.961,0.012-1.92,0.024-2.88,0.034c-0.96,0.011-1.919,0.021-2.878,0.029  c-0.961,0.009-1.92,0.017-2.88,0.024c-0.96,0.007-1.919,0.014-2.878,0.021c-0.961,0.006-1.921,0.012-2.881,0.017  c-0.96,0.006-1.919,0.01-2.878,0.014c-0.961,0.004-1.92,0.008-2.88,0.013c-0.96,0.003-1.919,0.005-2.879,0.009  c-0.96,0.003-1.919,0.005-2.879,0.008c-0.96,0.002-1.92,0.004-2.88,0.006s-1.919,0.003-2.879,0.004  c-0.96,0.002-1.919,0.003-2.879,0.004c-0.96,0.002-1.919,0.003-2.879,0.004c-0.96,0-1.919,0.001-2.879,0.002s-1.92,0.001-2.88,0.002  c-0.96,0.002-1.919,0.003-2.879,0.003c-0.96,0.001-1.919,0.001-2.879,0.001c-0.96,0.001-1.919,0.001-2.879,0.001  c-0.96,0.001-1.919,0.001-2.879,0.001c-0.96,0-1.92,0.001-2.88,0.001H45.17c-0.96,0-1.919,0-2.879,0.001h-2.879h-2.879h-2.88h-2.879  h-2.879h-2.879h-2.879c-0.961,0-1.92,0-2.88,0.001c-0.96,0-1.967-0.001-2.879,0h-2.591h-0.366"/>
<path fill="none" stroke="#939598" stroke-linejoin="round" stroke-miterlimit="10" d="M301.421,180.688h-2.879h-2.88h-2.879h-2.879  h-2.88h-2.879h-2.879h-2.879h-2.88h-2.879h-2.879h-2.88h-2.879h-2.879h-2.88h-2.879h-2.879h-2.88h-2.879h-2.879h-2.879h-2.88h-2.879  h-2.879h-2.88h-2.879h-2.879h-2.88h-2.879h-2.879h-2.88h-2.879h-2.879h-2.879h-2.88h-2.879h-2.879h-2.88h-2.879h-2.879h-2.88h-2.879  h-2.879h-2.88h-2.882h-2.876h-2.879h-2.88h-2.881h-2.877h-2.88H151.7h-2.878h-2.88h-2.879h-2.878h-2.879h-2.88h-2.879h-2.879h-2.88  h-2.878h-2.88h-2.879h-2.88h-2.878h-2.88h-2.879h-2.88h-2.878h-2.88h-2.878h-2.881c-0.96,0-1.919,0-2.878-0.001h-2.88  c-0.96,0-1.919,0-2.879-0.002s-1.919-0.002-2.879-0.011c-0.96-0.008-1.92-0.01-2.88-0.038c-0.96-0.027-1.919-0.043-2.879-0.131  s-1.919-0.151-2.879-0.399s-1.919-0.47-2.879-1.087c-0.96-0.619-1.919-1.255-2.879-2.622s-1.92-2.909-2.88-5.581  s-1.919-5.857-2.879-10.454c-0.96-4.595-1.919-10.219-2.879-17.122c-0.96-6.902-1.919-15.353-2.879-24.292  s-1.919-19.595-2.879-29.346c-0.96-9.753-1.92-20.67-2.88-29.165c-0.96-8.496-1.919-16.822-2.879-21.809  c-0.814-4.228-2.066-8.116-2.879-8.116c-0.814,0-2.066,3.888-2.879,8.116c-0.96,4.987-1.92,13.313-2.879,21.809  c-0.961,8.495-1.92,19.412-2.88,29.165c-0.959,9.751-1.919,20.407-2.879,29.346s-1.92,17.39-2.879,24.292  c-0.96,6.903-1.92,12.527-2.879,17.122c-0.96,4.597-1.92,7.782-2.879,10.454c-0.961,2.672-1.92,4.214-2.88,5.581  s-1.967,2.072-2.879,2.622c-0.912,0.549-2.116,0.5-2.591,0.67c-0.205,0.072-0.239,0.318-0.26,0.35l-0.106,0.056"/>
<g>
	<defs>
		<rect id="SVGID_1_" width="301.92" height="211.354"/>
	</defs>
	<clipPath id="SVGID_2_">
		<use xlink:href="#SVGID_1_" overflow="visible"/>
	</clipPath>
	
		<path clip-path="url(#SVGID_2_)" fill="none" stroke="#000000" stroke-linecap="round" stroke-linejoin="round" stroke-miterlimit="10" d="   M301.421,179.132c-0.959-0.149-1.92-0.221-2.879-0.302c-0.961-0.08-1.92-0.164-2.88-0.251c-0.959-0.089-1.92-0.18-2.879-0.275   s-1.92-0.195-2.879-0.3c-0.959-0.104-1.92-0.212-2.88-0.325c-0.962-0.111-1.921-0.228-2.879-0.349   c-0.959-0.121-1.92-0.245-2.879-0.374c-0.959-0.128-1.92-0.261-2.879-0.396c-0.96-0.138-1.921-0.278-2.88-0.424   c-0.961-0.143-1.92-0.292-2.879-0.443c-0.961-0.151-1.92-0.308-2.879-0.465c-0.96-0.159-1.921-0.322-2.88-0.487   c-0.959-0.164-1.92-0.333-2.879-0.504c-0.961-0.17-1.92-0.345-2.879-0.521c-0.959-0.175-1.92-0.354-2.88-0.535   c-0.959-0.18-1.92-0.363-2.879-0.549c-0.961-0.184-1.92-0.371-2.879-0.56c-0.961-0.188-1.92-0.378-2.88-0.569   c-0.961-0.19-1.92-0.384-2.879-0.578c-0.959-0.193-1.92-0.39-2.879-0.586c-0.961-0.196-1.92-0.394-2.879-0.593   c-0.961-0.2-1.921-0.4-2.88-0.6c-0.961-0.203-1.92-0.405-2.879-0.609c-0.959-0.205-1.92-0.41-2.879-0.617   c-0.961-0.208-1.921-0.416-2.88-0.628c-0.962-0.211-1.92-0.424-2.879-0.64c-0.961-0.215-1.92-0.434-2.879-0.654   c-0.959-0.222-1.92-0.445-2.88-0.673c-0.961-0.228-1.92-0.457-2.879-0.691c-0.961-0.234-1.92-0.473-2.879-0.715   c-0.961-0.243-1.92-0.489-2.88-0.739c-0.961-0.251-1.92-0.506-2.879-0.766c-0.961-0.259-1.92-0.522-2.879-0.791   c-0.961-0.268-1.92-0.541-2.879-0.818c-0.961-0.275-1.921-0.557-2.88-0.841c-0.961-0.284-1.92-0.571-2.879-0.86   c-0.961-0.29-1.92-0.584-2.879-0.878c-0.961-0.295-1.921-0.591-2.88-0.886c-0.961-0.295-1.92-0.591-2.879-0.883   c-0.961-0.293-1.92-0.586-2.879-0.874c-0.961-0.287-1.92-0.571-2.88-0.848c-0.961-0.277-1.92-0.55-2.879-0.812   c-0.961-0.261-1.92-0.517-2.879-0.758c-0.961-0.242-1.92-0.475-2.88-0.692c-0.961-0.216-1.92-0.421-2.882-0.606   c-0.957-0.187-1.917-0.358-2.876-0.51c-0.961-0.151-1.92-0.285-2.879-0.396c-0.961-0.109-1.921-0.202-2.88-0.27   c-0.961-0.067-1.92-0.113-2.881-0.132c-0.959-0.021-1.918-0.017-2.877,0.013c-0.961,0.031-1.921,0.086-2.88,0.167   c-0.961,0.082-1.92,0.188-2.881,0.323c-0.959,0.133-1.918,0.293-2.878,0.477c-0.96,0.185-1.92,0.398-2.88,0.632   c-0.959,0.235-1.919,0.496-2.879,0.778s-1.919,0.589-2.878,0.915c-0.96,0.326-1.92,0.675-2.879,1.04   c-0.961,0.366-1.92,0.752-2.88,1.151c-0.96,0.398-1.92,0.816-2.879,1.243c-0.961,0.429-1.92,0.872-2.879,1.322   c-0.96,0.45-1.92,0.911-2.88,1.378c-0.96,0.464-1.919,0.941-2.878,1.416c-0.96,0.475-1.92,0.955-2.88,1.434   c-0.961,0.479-1.92,0.961-2.879,1.436c-0.96,0.476-1.92,0.951-2.88,1.419c-0.96,0.467-1.919,0.931-2.878,1.385   c-0.961,0.455-1.92,0.903-2.88,1.339c-0.96,0.438-1.919,0.866-2.879,1.281c-0.961,0.416-1.92,0.821-2.88,1.213   c-0.96,0.393-1.919,0.771-2.878,1.136c-0.961,0.366-1.92,0.719-2.88,1.057c-0.96,0.339-1.919,0.662-2.878,0.972   c-0.961,0.311-1.921,0.605-2.881,0.886c-0.96,0.281-1.919,0.548-2.878,0.801c-0.961,0.253-1.92,0.49-2.88,0.717   c-0.96,0.226-1.919,0.438-2.879,0.637s-1.919,0.386-2.879,0.562c-0.96,0.175-1.92,0.337-2.88,0.489s-1.919,0.293-2.879,0.425   c-0.96,0.131-1.919,0.252-2.879,0.364s-1.919,0.215-2.879,0.311s-1.919,0.182-2.879,0.263c-0.96,0.08-1.92,0.153-2.88,0.22   c-0.96,0.068-1.919,0.128-2.879,0.184s-1.919,0.104-2.879,0.15c-0.96,0.047-1.919,0.087-2.879,0.124   c-0.96,0.038-1.919,0.071-2.879,0.102c-0.96,0.03-1.92,0.058-2.88,0.082c-0.96,0.023-1.919,0.045-2.879,0.064   s-1.919,0.036-2.879,0.051c-0.96,0.017-1.92,0.029-2.879,0.041c-0.96,0.013-1.92,0.022-2.879,0.032   c-0.961,0.009-1.92,0.019-2.88,0.025c-0.959,0.007-1.919,0.013-2.879,0.018c-0.96,0.007-1.92,0.013-2.879,0.017   c-0.96,0.003-1.92,0.007-2.879,0.011c-0.96,0.003-1.92,0.005-2.879,0.008c-0.961,0.003-1.92,0.004-2.88,0.006   s-1.967,0.004-2.879,0.005s-2.116,0.001-2.591,0.001l-0.206,0.002h-0.16"/>
</g>
<path fill="none" stroke="#000000" stroke-linejoin="round" stroke-miterlimit="10" d="M301.421,180.688h-2.879h-2.88h-2.879h-2.879  h-2.88h-2.879h-2.879h-2.879c-0.96-0.001-1.921-0.001-2.88-0.001h-2.879h-2.879h-2.88h-2.879c-0.961,0-1.92-0.001-2.879-0.001h-2.88  c-0.959-0.001-1.92-0.001-2.879-0.001c-0.961-0.001-1.92-0.001-2.879-0.001c-0.961-0.001-1.92-0.002-2.88-0.002  c-0.961-0.003-1.92-0.003-2.879-0.004s-1.92-0.002-2.879-0.003c-0.961-0.001-1.92-0.003-2.879-0.005  c-0.961-0.002-1.921-0.004-2.88-0.007c-0.961-0.002-1.92-0.005-2.879-0.008c-0.959-0.004-1.92-0.009-2.879-0.012  c-0.961-0.005-1.921-0.012-2.88-0.017c-0.962-0.006-1.92-0.014-2.879-0.021c-0.961-0.01-1.92-0.019-2.879-0.029  s-1.92-0.023-2.88-0.037c-0.961-0.016-1.92-0.031-2.879-0.05c-0.961-0.02-1.92-0.04-2.879-0.064c-0.961-0.024-1.92-0.051-2.88-0.082  c-0.961-0.03-1.92-0.065-2.879-0.106c-0.961-0.039-1.92-0.083-2.879-0.133c-0.961-0.05-1.92-0.104-2.879-0.167  c-0.961-0.064-1.921-0.133-2.88-0.21c-0.961-0.079-1.92-0.164-2.879-0.261c-0.961-0.098-1.92-0.201-2.879-0.32  c-0.961-0.117-1.921-0.246-2.88-0.391c-0.961-0.143-1.92-0.298-2.879-0.471c-0.961-0.174-1.92-0.361-2.879-0.567  c-0.961-0.207-1.92-0.43-2.88-0.675c-0.961-0.246-1.92-0.509-2.879-0.797c-0.961-0.289-1.92-0.599-2.879-0.936  c-0.961-0.337-1.92-0.696-2.88-1.086c-0.961-0.391-1.92-0.806-2.882-1.253c-0.957-0.446-1.917-0.921-2.876-1.431  c-0.961-0.508-1.92-1.047-2.879-1.621c-0.961-0.574-1.921-1.18-2.88-1.819c-0.961-0.643-1.92-1.317-2.881-2.028  c-0.959-0.71-1.918-1.456-2.877-2.236c-0.961-0.779-1.921-1.595-2.88-2.442c-0.961-0.85-1.92-1.732-2.881-2.646  c-0.959-0.912-1.918-1.86-2.878-2.834c-0.96-0.975-1.92-1.979-2.88-3.008c-0.959-1.028-1.919-2.085-2.879-3.158  s-1.919-2.171-2.878-3.278c-0.96-1.106-1.92-2.233-2.879-3.362c-0.961-1.127-1.92-2.272-2.88-3.407  c-0.96-1.136-1.92-2.28-2.879-3.408c-0.961-1.127-1.92-2.255-2.879-3.356c-0.96-1.104-1.92-2.198-2.88-3.259  c-0.96-1.06-1.919-2.103-2.878-3.101c-0.96-0.999-1.92-1.973-2.88-2.894c-0.961-0.921-1.92-1.807-2.879-2.633  c-0.96-0.824-1.92-1.606-2.88-2.32c-0.96-0.716-1.919-1.378-2.878-1.968c-0.961-0.591-1.92-1.119-2.88-1.572  c-0.96-0.454-1.919-0.84-2.879-1.148c-0.961-0.307-1.92-0.542-2.88-0.698c-0.96-0.153-1.919-0.232-2.878-0.232  c-0.961,0-1.92,0.079-2.88,0.232c-0.96,0.156-1.919,0.392-2.878,0.698c-0.961,0.309-1.921,0.694-2.881,1.148  c-0.96,0.453-1.919,0.981-2.878,1.572c-0.961,0.59-1.92,1.252-2.88,1.968c-0.96,0.714-1.919,1.496-2.879,2.32  c-0.96,0.826-1.919,1.712-2.879,2.633c-0.96,0.921-1.92,1.895-2.88,2.894c-0.96,0.998-1.919,2.041-2.879,3.101  c-0.96,1.061-1.919,2.154-2.879,3.259c-0.96,1.102-1.919,2.229-2.879,3.356c-0.96,1.128-1.919,2.272-2.879,3.408  c-0.96,1.135-1.92,2.28-2.88,3.407c-0.96,1.129-1.919,2.256-2.879,3.362c-0.96,1.107-1.919,2.205-2.879,3.278  s-1.919,2.13-2.879,3.158s-1.919,2.033-2.879,3.008c-0.96,0.974-1.92,1.922-2.88,2.834c-0.96,0.914-1.919,1.797-2.879,2.646  c-0.96,0.848-1.919,1.663-2.879,2.442c-0.96,0.78-1.92,1.526-2.879,2.236c-0.96,0.711-1.92,1.386-2.879,2.028  c-0.961,0.64-1.92,1.245-2.88,1.819c-0.959,0.574-1.919,1.113-2.879,1.621c-0.96,0.51-1.92,0.984-2.879,1.431  c-0.96,0.447-1.92,0.862-2.879,1.253c-0.96,0.39-1.92,0.749-2.879,1.086c-0.961,0.337-1.92,0.646-2.88,0.936  c-0.96,0.288-1.967,0.606-2.879,0.797c-0.912,0.192-2.116,0.249-2.591,0.353l-0.206,0.294h-0.16"/>
<path fill="none" stroke="#000000" stroke-linejoin="round" stroke-miterlimit="10" stroke-dasharray="5,2" d="M301.421,180.688  c-0.959-0.99-1.92-2.408-2.879-2.972c-0.961-0.562-1.92-0.262-2.88-0.402c-0.959-0.141-1.92-0.287-2.879-0.44  s-1.92-0.312-2.879-0.479s-1.92-0.34-2.88-0.52c-0.962-0.18-1.921-0.366-2.879-0.559c-0.959-0.192-1.92-0.394-2.879-0.599  c-0.959-0.206-1.92-0.418-2.879-0.637c-0.96-0.219-1.921-0.444-2.88-0.676c-0.961-0.229-1.92-0.467-2.879-0.71  c-0.961-0.243-1.92-0.492-2.879-0.745c-0.96-0.255-1.921-0.514-2.88-0.778c-0.959-0.264-1.92-0.532-2.879-0.807  c-0.961-0.273-1.92-0.552-2.879-0.833c-0.959-0.282-1.92-0.568-2.88-0.858c-0.959-0.29-1.92-0.583-2.879-0.878  c-0.961-0.296-1.92-0.596-2.879-0.896c-0.961-0.303-1.92-0.607-2.88-0.913c-0.961-0.309-1.92-0.617-2.879-0.928  c-0.959-0.312-1.92-0.625-2.879-0.942c-0.961-0.315-1.92-0.633-2.879-0.953c-0.961-0.321-1.921-0.642-2.88-0.967  c-0.961-0.325-1.92-0.652-2.879-0.983c-0.959-0.33-1.92-0.662-2.879-0.999c-0.961-0.337-1.921-0.675-2.88-1.02  c-0.962-0.344-1.92-0.692-2.879-1.046c-0.961-0.354-1.92-0.71-2.879-1.076c-0.959-0.365-1.92-0.736-2.88-1.113  c-0.961-0.379-1.92-0.763-2.879-1.158c-0.961-0.393-1.92-0.794-2.879-1.207c-0.961-0.41-1.92-0.832-2.88-1.264  c-0.961-0.433-1.92-0.875-2.879-1.33c-0.961-0.454-1.92-0.92-2.879-1.399c-0.961-0.479-1.92-0.971-2.879-1.476  c-0.961-0.506-1.921-1.023-2.88-1.557c-0.961-0.532-1.92-1.078-2.879-1.64c-0.961-0.56-1.92-1.135-2.879-1.723  c-0.961-0.588-1.921-1.189-2.88-1.806c-0.961-0.615-1.92-1.245-2.879-1.888c-0.961-0.641-1.92-1.296-2.879-1.962  c-0.961-0.667-1.92-1.345-2.88-2.032c-0.961-0.689-1.92-1.39-2.879-2.097c-0.961-0.708-1.92-1.425-2.879-2.148  c-0.961-0.724-1.92-1.456-2.88-2.191c-0.961-0.737-1.92-1.479-2.882-2.225c-0.957-0.746-1.917-1.496-2.876-2.247  c-0.961-0.75-1.92-1.503-2.879-2.254c-0.961-0.752-1.921-1.504-2.88-2.254c-0.961-0.748-1.92-1.496-2.881-2.239  c-0.959-0.742-1.918-1.482-2.877-2.213c-0.961-0.733-1.921-1.46-2.88-2.179c-0.961-0.718-1.92-1.429-2.881-2.129  c-0.959-0.698-1.918-1.392-2.878-2.068c-0.96-0.68-1.92-1.348-2.88-1.999c-0.959-0.651-1.919-1.291-2.879-1.911  c-0.96-0.621-1.919-1.229-2.878-1.814c-0.96-0.585-1.92-1.155-2.879-1.698c-0.961-0.545-1.92-1.07-2.88-1.567  c-0.96-0.498-1.92-0.973-2.879-1.417c-0.961-0.444-1.92-0.862-2.879-1.245c-0.96-0.382-1.92-0.737-2.88-1.052  s-1.919-0.598-2.878-0.837c-0.96-0.238-1.92-0.441-2.88-0.597c-0.961-0.155-1.92-0.272-2.879-0.336  c-0.96-0.065-1.92-0.085-2.88-0.053c-0.96,0.034-1.919,0.114-2.878,0.251c-0.961,0.137-1.92,0.324-2.88,0.569  c-0.96,0.246-1.919,0.546-2.879,0.903c-0.961,0.358-1.92,0.771-2.88,1.242c-0.96,0.472-1.919,1.001-2.878,1.585  c-0.961,0.585-1.92,1.227-2.88,1.924c-0.96,0.695-1.919,1.449-2.878,2.252c-0.961,0.802-1.921,1.661-2.881,2.564  c-0.96,0.903-1.919,1.858-2.878,2.854c-0.961,0.994-1.92,2.038-2.88,3.113c-0.96,1.077-1.919,2.196-2.879,3.342  c-0.96,1.145-1.919,2.329-2.879,3.529c-0.96,1.201-1.92,2.435-2.88,3.677s-1.919,2.512-2.879,3.78  c-0.96,1.271-1.919,2.559-2.879,3.841s-1.919,2.575-2.879,3.855c-0.96,1.281-1.919,2.562-2.879,3.827  c-0.96,1.265-1.92,2.524-2.88,3.761s-1.919,2.461-2.879,3.656s-1.919,2.374-2.879,3.52c-0.96,1.146-1.919,2.27-2.879,3.355  c-0.96,1.088-1.919,2.147-2.879,3.17c-0.96,1.021-1.92,2.012-2.88,2.965c-0.96,0.952-1.919,1.869-2.879,2.749  c-0.96,0.879-1.919,1.722-2.879,2.526s-1.92,1.57-2.879,2.301c-0.96,0.73-1.92,1.422-2.879,2.079  c-0.961,0.655-1.92,1.274-2.88,1.859c-0.959,0.586-1.919,1.135-2.879,1.651c-0.96,0.519-1.92,1.001-2.879,1.455  c-0.959,0.453-1.92,0.875-2.879,1.269c-0.96,0.396-1.92,0.761-2.879,1.101c-0.961,0.341-1.92,0.653-2.88,0.944  c-0.96,0.292-1.967,0.612-2.879,0.806s-2.116,0.252-2.591,0.354l-0.205,0.312h-0.161"/>
<line fill="none" stroke="#000000" stroke-width="0.5" stroke-linejoin="round" x1="51.283" y1="191.021" x2="87.477" y2="191.021"/>
<polygon points="86.072,192.873 86.859,191.021 86.072,189.17 90.461,191.021 "/>
<line fill="none" stroke="#000000" stroke-width="0.5" stroke-linejoin="round" x1="227.69" y1="191.021" x2="178.726" y2="191.021"/>
<polygon points="180.13,189.17 179.343,191.021 180.13,192.873 175.74,191.021 "/>
<polyline fill="none" stroke="#000000" stroke-width="0.5" stroke-linejoin="round" stroke-miterlimit="10" points="  301.421,180.688 13.499,180.688 13.499,0 "/>
<path fill="#939598" d="M42.146,194.604c0.324,0.216,0.963,0.387,1.548,0.387c1.432,0,2.125-0.811,2.125-1.746  c0-0.892-0.522-1.387-1.549-1.783c-0.837-0.324-1.206-0.603-1.206-1.17c0-0.414,0.315-0.91,1.143-0.91  c0.55,0,0.955,0.181,1.153,0.288l0.216-0.639c-0.27-0.153-0.72-0.297-1.342-0.297c-1.179,0-1.962,0.702-1.962,1.647  c0,0.855,0.612,1.368,1.602,1.72c0.819,0.314,1.144,0.639,1.144,1.207c0,0.611-0.469,1.034-1.27,1.034  c-0.54,0-1.053-0.18-1.404-0.396L42.146,194.604z M37.268,194.9v-2.593c0-1.009-0.018-1.737-0.063-2.504l0.027-0.009  c0.306,0.658,0.711,1.352,1.134,2.026l1.927,3.079h0.792v-6.068h-0.738v2.539c0,0.945,0.018,1.683,0.09,2.494l-0.018,0.009  c-0.288-0.621-0.639-1.261-1.089-1.972l-1.945-3.07H36.53v6.068H37.268z"/>
<polygon fill="#939598" points="47.62,196.9 48.13,196.9 48.13,193.002 47.68,193.002 46.828,193.458 46.93,193.86 47.608,193.494   47.62,193.494 "/>
<path d="M166.604,194.604c0.323,0.216,0.963,0.387,1.548,0.387c1.432,0,2.125-0.811,2.125-1.746c0-0.892-0.522-1.387-1.548-1.783  c-0.839-0.324-1.207-0.603-1.207-1.17c0-0.414,0.314-0.91,1.144-0.91c0.549,0,0.954,0.181,1.152,0.289l0.216-0.64  c-0.271-0.153-0.72-0.297-1.341-0.297c-1.181,0-1.963,0.702-1.963,1.647c0,0.855,0.611,1.368,1.603,1.719  c0.819,0.315,1.144,0.64,1.144,1.207c0,0.612-0.469,1.035-1.271,1.035c-0.54,0-1.053-0.18-1.404-0.396L166.604,194.604z"/>
<path d="M173.422,196.9v-0.438h-1.751v-0.012l0.312-0.288c0.821-0.791,1.343-1.373,1.343-2.092c0-0.559-0.354-1.134-1.192-1.134  c-0.45,0-0.834,0.168-1.104,0.396l0.168,0.372c0.181-0.15,0.475-0.33,0.828-0.33c0.581,0,0.773,0.366,0.773,0.762  c-0.007,0.588-0.455,1.092-1.451,2.038l-0.414,0.402v0.324H173.422z"/>
<path d="M98.762,194.604c0.324,0.216,0.963,0.387,1.548,0.387c1.432,0,2.125-0.811,2.125-1.746c0-0.892-0.522-1.387-1.549-1.783  c-0.837-0.324-1.206-0.603-1.206-1.17c0-0.414,0.315-0.91,1.143-0.91c0.55,0,0.955,0.181,1.153,0.288l0.216-0.639  c-0.27-0.153-0.72-0.297-1.342-0.297c-1.179,0-1.962,0.702-1.962,1.647c0,0.855,0.612,1.368,1.602,1.72  c0.819,0.314,1.144,0.639,1.144,1.207c0,0.611-0.469,1.034-1.27,1.034c-0.54,0-1.053-0.18-1.404-0.396L98.762,194.604z   M93.884,194.9v-2.593c0-1.009-0.018-1.737-0.063-2.504l0.027-0.009c0.306,0.658,0.711,1.352,1.134,2.026l1.927,3.079h0.792v-6.068  h-0.738v2.539c0,0.945,0.018,1.683,0.09,2.494l-0.018,0.009c-0.288-0.621-0.639-1.261-1.089-1.972l-1.945-3.07h-0.855v6.068H93.884z  "/>
<path d="M105.579,196.9v-0.438h-1.751v-0.012l0.312-0.288c0.821-0.791,1.343-1.373,1.343-2.092c0-0.559-0.354-1.134-1.193-1.134  c-0.45,0-0.834,0.168-1.104,0.396l0.168,0.372c0.18-0.15,0.474-0.33,0.828-0.33c0.581,0,0.773,0.366,0.773,0.762  c-0.006,0.588-0.455,1.092-1.451,2.038l-0.414,0.402v0.324H105.579z"/>
<path d="M33.959,209.118h0.792v-2.62c0-0.135,0.018-0.27,0.054-0.369c0.135-0.44,0.54-0.81,1.062-0.81  c0.748,0,1.009,0.585,1.009,1.287v2.512h0.792v-2.602c0-1.494-0.936-1.854-1.54-1.854c-0.72,0-1.224,0.405-1.44,0.819H34.67  l-0.045-0.721h-0.702c0.027,0.36,0.036,0.729,0.036,1.18V209.118z M31.917,207.651l-0.045,0.252  c-0.126,0.369-0.487,0.729-1.054,0.729c-0.405,0-0.747-0.242-0.747-0.756c0-0.847,0.981-1,1.846-0.981V207.651z M32.754,209.118  c-0.054-0.297-0.072-0.666-0.072-1.044v-1.63c0-0.873-0.324-1.782-1.657-1.782c-0.549,0-1.071,0.153-1.431,0.387l0.18,0.522  c0.306-0.198,0.729-0.324,1.134-0.324c0.892,0,0.991,0.648,0.991,1.008v0.09c-1.684-0.009-2.62,0.567-2.62,1.621  c0,0.63,0.45,1.251,1.332,1.251c0.621,0,1.09-0.306,1.333-0.647h0.027l0.063,0.549H32.754z M27.911,203.041  c-0.288,0-0.495,0.216-0.495,0.495c0,0.271,0.198,0.486,0.477,0.486c0.315,0,0.513-0.216,0.504-0.486  C28.397,203.257,28.208,203.041,27.911,203.041 M28.307,204.761h-0.792v4.357h0.792V204.761z M23.177,206.588  c0-0.126,0.027-0.233,0.045-0.323c0.162-0.604,0.666-0.973,1.207-0.973c0.846,0,1.296,0.747,1.296,1.62c0,1-0.495,1.675-1.323,1.675  c-0.577,0-1.036-0.378-1.189-0.927c-0.018-0.09-0.036-0.189-0.036-0.289V206.588z M23.042,209.118l0.036-0.72h0.027  c0.324,0.576,0.828,0.818,1.459,0.818c0.972,0,1.953-0.773,1.953-2.332c0.009-1.322-0.756-2.223-1.836-2.223  c-0.703,0-1.207,0.315-1.486,0.801h-0.018v-2.736h-0.783v5.267c0,0.387-0.018,0.828-0.036,1.125H23.042z M20.352,207.651  l-0.045,0.252c-0.126,0.369-0.486,0.729-1.054,0.729c-0.405,0-0.747-0.242-0.747-0.756c0-0.847,0.981-1,1.846-0.981V207.651z   M21.189,209.118c-0.054-0.297-0.072-0.666-0.072-1.044v-1.63c0-0.873-0.324-1.782-1.657-1.782c-0.549,0-1.071,0.153-1.431,0.387  l0.18,0.522c0.306-0.198,0.729-0.324,1.134-0.324c0.892,0,0.991,0.648,0.991,1.008v0.09c-1.684-0.009-2.62,0.567-2.62,1.621  c0,0.63,0.45,1.251,1.332,1.251c0.621,0,1.09-0.306,1.333-0.647h0.027l0.063,0.549H21.189z M14.105,209.118h0.783v-2.746h2.296  v-0.647h-2.296v-2.018h2.485v-0.657h-3.268V209.118z"/>
<path fill="#939598" d="M57.595,18.042c0.223-0.375,0.575-1.263,0.759-1.942l-0.783,0.08c-0.088,0.583-0.304,1.439-0.48,1.91  L57.595,18.042z M54.034,14.796c0.056-0.487,0.368-1.143,1.08-1.143c0.791,0,0.983,0.696,0.975,1.143H54.034z M56.745,15.301  c0.008-0.072,0.024-0.184,0.024-0.328c0-0.711-0.336-1.823-1.599-1.823c-1.128,0-1.815,0.92-1.815,2.087s0.711,1.951,1.903,1.951  c0.615,0,1.039-0.128,1.287-0.24l-0.12-0.504c-0.264,0.112-0.568,0.2-1.071,0.2c-0.704,0-1.312-0.392-1.328-1.343H56.745z   M51.195,12.311v0.927h-0.6v0.536h0.6v2.111c0,0.455,0.071,0.799,0.271,1.007c0.168,0.192,0.432,0.296,0.76,0.296  c0.272,0,0.488-0.04,0.624-0.096l-0.032-0.528c-0.088,0.024-0.224,0.048-0.408,0.048c-0.392,0-0.528-0.272-0.528-0.751v-2.087h1.008  v-0.536h-1.008v-1.111L51.195,12.311z M49.223,15.805l-0.04,0.224c-0.112,0.327-0.432,0.647-0.935,0.647  c-0.36,0-0.664-0.216-0.664-0.671c0-0.752,0.872-0.888,1.639-0.872V15.805z M49.967,17.107c-0.048-0.264-0.064-0.592-0.064-0.927  v-1.448c0-0.775-0.288-1.583-1.471-1.583c-0.488,0-0.952,0.136-1.272,0.344l0.16,0.464c0.272-0.176,0.648-0.288,1.008-0.288  c0.791,0,0.879,0.576,0.879,0.895v0.08c-1.495-0.008-2.327,0.504-2.327,1.44c0,0.559,0.4,1.111,1.184,1.111  c0.551,0,0.967-0.272,1.183-0.576h0.024l0.056,0.488H49.967z M44.702,12.311v0.927h-0.6v0.536h0.6v2.111  c0,0.455,0.072,0.799,0.272,1.007c0.168,0.192,0.431,0.296,0.759,0.296c0.272,0,0.488-0.04,0.624-0.096l-0.032-0.528  c-0.088,0.024-0.224,0.048-0.408,0.048c-0.392,0-0.528-0.272-0.528-0.751v-2.087h1.008v-0.536h-1.008v-1.111L44.702,12.311z   M41.107,16.923c0.272,0.16,0.663,0.264,1.087,0.264c0.92,0,1.447-0.48,1.447-1.159c0-0.576-0.344-0.912-1.015-1.168  c-0.504-0.192-0.736-0.336-0.736-0.655c0-0.288,0.232-0.528,0.648-0.528c0.36,0,0.64,0.128,0.791,0.224l0.176-0.512  c-0.216-0.128-0.559-0.24-0.951-0.24c-0.832,0-1.335,0.512-1.335,1.136c0,0.463,0.327,0.847,1.023,1.095  c0.52,0.192,0.72,0.376,0.72,0.712c0,0.319-0.24,0.575-0.752,0.575c-0.352,0-0.72-0.144-0.927-0.28L41.107,16.923z M36.945,17.107  h0.704v-2.327c0-0.12,0.016-0.24,0.048-0.328c0.12-0.391,0.48-0.719,0.943-0.719c0.664,0,0.896,0.52,0.896,1.143v2.231h0.703v-2.311  c0-1.327-0.831-1.647-1.367-1.647c-0.64,0-1.087,0.36-1.279,0.728h-0.016l-0.04-0.64h-0.624c0.024,0.32,0.032,0.648,0.032,1.048  V17.107z M34.182,13.678c0.831,0,1.159,0.831,1.159,1.487c0,0.872-0.503,1.503-1.175,1.503c-0.688,0-1.175-0.639-1.175-1.487  C32.991,14.444,33.35,13.678,34.182,13.678 M34.198,13.149c-1.071,0-1.919,0.76-1.919,2.055c0,1.223,0.808,1.991,1.855,1.991  c0.935,0,1.927-0.624,1.927-2.055C36.061,13.958,35.309,13.149,34.198,13.149 M27.979,17.107v-2.303  c0-0.895-0.016-1.543-0.056-2.223l0.024-0.008c0.272,0.584,0.632,1.2,1.007,1.8l1.712,2.734h0.703v-5.389h-0.656v2.255  c0,0.839,0.016,1.495,0.08,2.215l-0.016,0.008c-0.255-0.552-0.567-1.12-0.967-1.752l-1.727-2.726h-0.76v5.389H27.979z"/>
<path fill="#939598" d="M55,25.924c0.271,0.16,0.663,0.264,1.087,0.264c0.92,0,1.447-0.48,1.447-1.16  c0-0.575-0.344-0.911-1.015-1.167c-0.504-0.192-0.736-0.336-0.736-0.656c0-0.288,0.232-0.527,0.648-0.527  c0.36,0,0.639,0.127,0.791,0.223l0.176-0.511c-0.216-0.128-0.559-0.24-0.951-0.24c-0.832,0-1.335,0.512-1.335,1.135  c0,0.464,0.327,0.848,1.023,1.096c0.52,0.191,0.72,0.375,0.72,0.711c0,0.32-0.24,0.576-0.752,0.576c-0.352,0-0.72-0.144-0.927-0.28  L55,25.924z M52.64,21.366c0.727,0,1.055,0.84,1.055,2.119c0,1.327-0.344,2.167-1.063,2.167c-0.64,0-1.056-0.768-1.056-2.119  C51.576,22.118,52.023,21.366,52.64,21.366 M52.68,20.823c-1.056,0-1.807,0.959-1.807,2.702c0.016,1.719,0.703,2.671,1.719,2.671  c1.151,0,1.807-0.976,1.807-2.743C54.398,21.798,53.774,20.823,52.68,20.823 M49.942,20.91h-2.487l-0.336,2.495  c0.192-0.024,0.424-0.056,0.72-0.056c1.039,0,1.487,0.48,1.495,1.152c0,0.695-0.567,1.127-1.231,1.127  c-0.472,0-0.896-0.16-1.112-0.288l-0.175,0.536c0.247,0.16,0.727,0.32,1.295,0.32c1.127,0,1.935-0.76,1.935-1.775  c0-0.656-0.336-1.104-0.744-1.336c-0.32-0.192-0.719-0.28-1.119-0.28c-0.192,0-0.304,0.016-0.424,0.032l0.2-1.335h1.983V20.91z   M44.423,21.358c0.735,0,1.063,0.68,1.063,1.567c0,0.112-0.024,0.192-0.064,0.256c-0.184,0.312-0.552,0.544-1.023,0.544  c-0.608,0-1-0.456-1-1.103C43.399,21.886,43.824,21.358,44.423,21.358 M43.144,26.188c0.168,0.008,0.392,0,0.648-0.04  c0.56-0.064,1.111-0.304,1.511-0.696c0.512-0.496,0.896-1.295,0.896-2.439c0-1.327-0.656-2.19-1.719-2.19  c-1.064,0-1.775,0.863-1.775,1.847c0,0.887,0.599,1.591,1.535,1.591c0.519,0,0.935-0.208,1.223-0.56h0.024  c-0.096,0.616-0.344,1.071-0.688,1.383c-0.295,0.28-0.679,0.448-1.087,0.504c-0.24,0.024-0.416,0.04-0.568,0.024V26.188z   M40.16,26.108h0.679V20.91h-0.599l-1.136,0.608l0.136,0.536l0.904-0.488h0.016V26.108z M35.808,26.196  c0.296,0,0.48-0.216,0.48-0.504c0-0.296-0.192-0.504-0.472-0.504c-0.28,0-0.48,0.208-0.48,0.504  C35.335,25.98,35.527,26.196,35.808,26.196 M33.687,24.804l-0.04,0.224c-0.112,0.328-0.431,0.648-0.935,0.648  c-0.36,0-0.664-0.216-0.664-0.672c0-0.751,0.872-0.887,1.639-0.871V24.804z M34.431,26.108c-0.048-0.264-0.064-0.592-0.064-0.928  v-1.447c0-0.776-0.288-1.583-1.471-1.583c-0.488,0-0.952,0.136-1.272,0.344l0.16,0.463c0.272-0.176,0.648-0.287,1.008-0.287  c0.791,0,0.879,0.575,0.879,0.895v0.08c-1.495-0.008-2.326,0.504-2.326,1.439c0,0.56,0.399,1.112,1.183,1.112  c0.552,0,0.967-0.272,1.183-0.576h0.024l0.056,0.488H34.431z M30.703,25.436c-0.2,0.088-0.464,0.192-0.864,0.192  c-0.767,0-1.343-0.552-1.343-1.447c0-0.808,0.48-1.464,1.367-1.464c0.384,0,0.648,0.088,0.816,0.184l0.16-0.543  c-0.192-0.096-0.56-0.2-0.976-0.2c-1.263,0-2.078,0.863-2.078,2.055c0,1.183,0.759,1.975,1.927,1.975  c0.519,0,0.927-0.128,1.111-0.224L30.703,25.436z"/>
<path d="M118.526,130.968c0.223-0.375,0.575-1.263,0.759-1.941l-0.783,0.08c-0.088,0.583-0.304,1.438-0.48,1.91L118.526,130.968z   M114.965,127.722c0.056-0.486,0.368-1.143,1.08-1.143c0.791,0,0.983,0.696,0.975,1.143H114.965z M117.676,128.227  c0.008-0.072,0.024-0.185,0.024-0.328c0-0.711-0.336-1.823-1.599-1.823c-1.128,0-1.815,0.92-1.815,2.087s0.711,1.951,1.903,1.951  c0.615,0,1.039-0.128,1.287-0.24l-0.12-0.504c-0.264,0.112-0.568,0.2-1.071,0.2c-0.704,0-1.312-0.393-1.328-1.343H117.676z   M112.126,125.236v0.927h-0.6v0.536h0.6v2.111c0,0.455,0.071,0.799,0.271,1.007c0.168,0.191,0.432,0.296,0.76,0.296  c0.272,0,0.488-0.04,0.624-0.096l-0.032-0.528c-0.088,0.023-0.224,0.048-0.408,0.048c-0.392,0-0.528-0.271-0.528-0.751v-2.087h1.008  v-0.536h-1.008v-1.111L112.126,125.236z M110.154,128.73l-0.04,0.224c-0.112,0.327-0.432,0.647-0.935,0.647  c-0.36,0-0.664-0.217-0.664-0.672c0-0.752,0.872-0.888,1.639-0.871V128.73z M110.898,130.033c-0.048-0.264-0.064-0.592-0.064-0.927  v-1.448c0-0.775-0.288-1.583-1.471-1.583c-0.488,0-0.952,0.136-1.272,0.344l0.16,0.464c0.272-0.176,0.648-0.288,1.008-0.288  c0.791,0,0.879,0.576,0.879,0.896v0.08c-1.495-0.008-2.327,0.504-2.327,1.439c0,0.56,0.4,1.111,1.184,1.111  c0.551,0,0.967-0.271,1.183-0.576h0.024l0.056,0.488H110.898z M105.633,125.236v0.927h-0.6v0.536h0.6v2.111  c0,0.455,0.072,0.799,0.272,1.007c0.168,0.191,0.431,0.296,0.759,0.296c0.272,0,0.488-0.04,0.624-0.096l-0.032-0.528  c-0.088,0.023-0.224,0.048-0.408,0.048c-0.392,0-0.528-0.271-0.528-0.751v-2.087h1.008v-0.536h-1.008v-1.111L105.633,125.236z   M102.039,129.85c0.272,0.159,0.663,0.264,1.087,0.264c0.92,0,1.447-0.48,1.447-1.159c0-0.576-0.344-0.912-1.015-1.168  c-0.504-0.192-0.736-0.336-0.736-0.655c0-0.288,0.232-0.527,0.648-0.527c0.36,0,0.64,0.128,0.791,0.224l0.176-0.512  c-0.216-0.128-0.559-0.24-0.951-0.24c-0.832,0-1.335,0.512-1.335,1.136c0,0.463,0.327,0.848,1.023,1.096  c0.52,0.191,0.72,0.376,0.72,0.712c0,0.318-0.24,0.574-0.752,0.574c-0.352,0-0.72-0.144-0.927-0.279L102.039,129.85z   M97.876,130.033h0.704v-2.327c0-0.12,0.016-0.24,0.048-0.328c0.12-0.391,0.48-0.719,0.943-0.719c0.664,0,0.896,0.52,0.896,1.143  v2.231h0.703v-2.312c0-1.326-0.831-1.646-1.367-1.646c-0.64,0-1.087,0.36-1.279,0.728h-0.016l-0.04-0.64h-0.624  c0.024,0.32,0.032,0.648,0.032,1.048V130.033z M95.113,126.604c0.831,0,1.159,0.831,1.159,1.486c0,0.872-0.503,1.503-1.175,1.503  c-0.688,0-1.175-0.639-1.175-1.486C93.922,127.37,94.281,126.604,95.113,126.604 M95.129,126.075c-1.072,0-1.919,0.76-1.919,2.055  c0,1.224,0.808,1.991,1.855,1.991c0.935,0,1.927-0.624,1.927-2.055C96.992,126.883,96.24,126.075,95.129,126.075 M88.911,130.033  v-2.303c0-0.896-0.016-1.543-0.056-2.224l0.024-0.008c0.272,0.584,0.632,1.2,1.007,1.8l1.712,2.734h0.703v-5.389h-0.656v2.255  c0,0.839,0.016,1.495,0.08,2.215l-0.016,0.008c-0.255-0.552-0.567-1.12-0.967-1.752l-1.727-2.726h-0.76v5.389H88.911z"/>
<path d="M115.932,138.85c0.271,0.16,0.663,0.264,1.087,0.264c0.92,0,1.447-0.479,1.447-1.16c0-0.574-0.344-0.91-1.015-1.167  c-0.504-0.191-0.736-0.336-0.736-0.655c0-0.288,0.232-0.527,0.648-0.527c0.36,0,0.639,0.127,0.791,0.223l0.176-0.511  c-0.216-0.128-0.559-0.24-0.951-0.24c-0.832,0-1.335,0.513-1.335,1.136c0,0.464,0.327,0.848,1.023,1.096  c0.52,0.191,0.72,0.375,0.72,0.711c0,0.32-0.24,0.576-0.752,0.576c-0.352,0-0.72-0.145-0.927-0.28L115.932,138.85z M113.571,134.292  c0.727,0,1.055,0.84,1.055,2.118c0,1.327-0.344,2.167-1.063,2.167c-0.64,0-1.056-0.768-1.056-2.118  C112.507,135.044,112.955,134.292,113.571,134.292 M113.611,133.749c-1.056,0-1.807,0.959-1.807,2.701  c0.016,1.72,0.703,2.671,1.719,2.671c1.151,0,1.807-0.976,1.807-2.742C115.33,134.724,114.706,133.749,113.611,133.749   M111.09,139.033v-0.584h-2.335v-0.016l0.416-0.384c1.095-1.056,1.791-1.831,1.791-2.79c0-0.744-0.472-1.511-1.591-1.511  c-0.6,0-1.112,0.223-1.471,0.526l0.223,0.496c0.24-0.2,0.632-0.439,1.104-0.439c0.775,0,1.031,0.487,1.031,1.016  c-0.008,0.783-0.607,1.455-1.935,2.718l-0.551,0.536v0.432H111.09z M105.363,134.292c0.727,0,1.055,0.84,1.055,2.118  c0,1.327-0.344,2.167-1.063,2.167c-0.64,0-1.056-0.768-1.056-2.118C104.299,135.044,104.747,134.292,105.363,134.292   M105.403,133.749c-1.056,0-1.807,0.959-1.807,2.701c0.016,1.72,0.703,2.671,1.719,2.671c1.151,0,1.807-0.976,1.807-2.742  C107.122,134.724,106.498,133.749,105.403,133.749 M102.882,139.033v-0.584h-2.335v-0.016l0.416-0.384  c1.095-1.056,1.791-1.831,1.791-2.79c0-0.744-0.472-1.511-1.591-1.511c-0.6,0-1.112,0.223-1.472,0.526l0.224,0.496  c0.24-0.2,0.632-0.439,1.104-0.439c0.775,0,1.031,0.487,1.031,1.016c-0.008,0.783-0.607,1.455-1.935,2.718l-0.551,0.536v0.432  H102.882z M96.739,139.121c0.296,0,0.48-0.216,0.48-0.504c0-0.296-0.192-0.504-0.472-0.504c-0.28,0-0.48,0.208-0.48,0.504  C96.267,138.905,96.458,139.121,96.739,139.121 M94.618,137.729l-0.04,0.224c-0.112,0.328-0.431,0.648-0.935,0.648  c-0.36,0-0.664-0.216-0.664-0.672c0-0.751,0.872-0.887,1.639-0.871V137.729z M95.362,139.033c-0.048-0.264-0.064-0.592-0.064-0.928  v-1.447c0-0.775-0.288-1.583-1.471-1.583c-0.488,0-0.952,0.137-1.272,0.345l0.16,0.463c0.272-0.176,0.648-0.287,1.008-0.287  c0.791,0,0.879,0.575,0.879,0.895v0.08c-1.495-0.008-2.326,0.504-2.326,1.439c0,0.56,0.399,1.111,1.183,1.111  c0.552,0,0.967-0.271,1.183-0.575h0.024l0.056,0.487H95.362z M91.634,138.361c-0.2,0.088-0.464,0.192-0.864,0.192  c-0.767,0-1.343-0.552-1.343-1.447c0-0.808,0.48-1.464,1.367-1.464c0.384,0,0.648,0.088,0.816,0.184l0.16-0.543  c-0.192-0.096-0.56-0.199-0.976-0.199c-1.263,0-2.078,0.862-2.078,2.055c0,1.183,0.759,1.975,1.927,1.975  c0.519,0,0.927-0.128,1.111-0.224L91.634,138.361z"/>
<path d="M128.117,81.004c0.224-0.375,0.576-1.263,0.76-1.942l-0.784,0.079c-0.088,0.584-0.304,1.44-0.48,1.911L128.117,81.004z   M126.261,80.069h0.704v-5.677h-0.704V80.069z M124.373,80.069h0.704v-5.677h-0.704V80.069z M122.555,78.766l-0.04,0.224  c-0.112,0.327-0.431,0.647-0.935,0.647c-0.36,0-0.664-0.216-0.664-0.671c0-0.752,0.872-0.888,1.639-0.872V78.766z M123.299,80.069  c-0.048-0.264-0.064-0.592-0.064-0.928v-1.447c0-0.775-0.288-1.583-1.471-1.583c-0.488,0-0.952,0.136-1.272,0.344l0.16,0.464  c0.272-0.176,0.648-0.288,1.008-0.288c0.791,0,0.879,0.576,0.879,0.895v0.08c-1.495-0.008-2.326,0.504-2.326,1.44  c0,0.559,0.399,1.111,1.183,1.111c0.552,0,0.967-0.272,1.183-0.576h0.024l0.056,0.488H123.299z M117.939,80.069h0.696v-2.063  c0-0.12,0.016-0.232,0.032-0.328c0.096-0.527,0.448-0.903,0.944-0.903c0.095,0,0.167,0.008,0.239,0.024v-0.664l-0.199-0.024  c-0.472,0-0.896,0.328-1.072,0.848h-0.032l-0.024-0.76h-0.616c0.024,0.36,0.032,0.752,0.032,1.207V80.069z M114.332,77.758  c0.056-0.487,0.368-1.143,1.08-1.143c0.791,0,0.983,0.696,0.975,1.143H114.332z M117.042,78.262  c0.008-0.072,0.024-0.184,0.024-0.328c0-0.711-0.336-1.823-1.599-1.823c-1.128,0-1.815,0.92-1.815,2.087s0.711,1.951,1.902,1.951  c0.616,0,1.04-0.128,1.288-0.24l-0.12-0.504c-0.264,0.112-0.568,0.2-1.072,0.2c-0.703,0-1.311-0.392-1.327-1.343H117.042z   M109.685,76.199l1.472,3.87h0.671l1.519-3.87h-0.735l-0.752,2.175c-0.128,0.352-0.24,0.672-0.328,0.991h-0.024  c-0.08-0.319-0.183-0.639-0.311-0.991l-0.76-2.175H109.685z M106.716,75.16c1.159,0,1.719,1.119,1.719,2.19  c0,1.224-0.624,2.239-1.727,2.239c-1.095,0-1.719-1.031-1.719-2.183C104.989,76.223,105.564,75.16,106.716,75.16 M106.748,74.592  c-1.439,0-2.503,1.119-2.503,2.83c0,1.632,1,2.735,2.423,2.735c1.375,0,2.503-0.984,2.503-2.838  C109.17,75.719,108.219,74.592,106.748,74.592"/>
<path d="M128.881,88.886c0.271,0.16,0.663,0.264,1.087,0.264c0.92,0,1.447-0.48,1.447-1.16c0-0.575-0.344-0.911-1.015-1.167  c-0.504-0.192-0.736-0.336-0.736-0.656c0-0.288,0.232-0.527,0.648-0.527c0.36,0,0.639,0.127,0.791,0.223l0.176-0.511  c-0.216-0.128-0.559-0.24-0.951-0.24c-0.832,0-1.335,0.512-1.335,1.135c0,0.464,0.327,0.848,1.023,1.096  c0.52,0.191,0.72,0.375,0.72,0.711c0,0.32-0.24,0.576-0.752,0.576c-0.352,0-0.72-0.144-0.927-0.28L128.881,88.886z M126.521,84.328  c0.727,0,1.055,0.84,1.055,2.119c0,1.327-0.344,2.167-1.063,2.167c-0.64,0-1.056-0.768-1.056-2.119  C125.456,85.08,125.904,84.328,126.521,84.328 M126.56,83.785c-1.056,0-1.807,0.959-1.807,2.702  c0.016,1.719,0.703,2.671,1.719,2.671c1.151,0,1.807-0.976,1.807-2.743C128.279,84.76,127.655,83.785,126.56,83.785 M124.039,89.069  v-0.584h-2.335V88.47l0.416-0.384c1.095-1.055,1.791-1.831,1.791-2.79c0-0.744-0.472-1.511-1.591-1.511  c-0.6,0-1.112,0.223-1.471,0.527l0.223,0.496c0.24-0.2,0.632-0.44,1.104-0.44c0.775,0,1.031,0.488,1.031,1.016  c-0.008,0.783-0.607,1.455-1.935,2.718l-0.551,0.536v0.432H124.039z M118.312,84.328c0.727,0,1.055,0.84,1.055,2.119  c0,1.327-0.344,2.167-1.063,2.167c-0.64,0-1.056-0.768-1.056-2.119C117.248,85.08,117.696,84.328,118.312,84.328 M118.353,83.785  c-1.056,0-1.807,0.959-1.807,2.702c0.016,1.719,0.703,2.671,1.719,2.671c1.151,0,1.807-0.976,1.807-2.743  C120.071,84.76,119.447,83.785,118.353,83.785 M115.831,89.069v-0.584h-2.335V88.47l0.416-0.384c1.095-1.055,1.791-1.831,1.791-2.79  c0-0.744-0.472-1.511-1.591-1.511c-0.6,0-1.112,0.223-1.472,0.527l0.224,0.496c0.24-0.2,0.632-0.44,1.104-0.44  c0.775,0,1.031,0.488,1.031,1.016c-0.008,0.783-0.607,1.455-1.935,2.718l-0.551,0.536v0.432H115.831z M109.688,89.158  c0.296,0,0.48-0.216,0.48-0.504c0-0.296-0.192-0.504-0.472-0.504s-0.48,0.208-0.48,0.504  C109.216,88.941,109.408,89.158,109.688,89.158 M107.567,87.766l-0.04,0.224c-0.112,0.328-0.431,0.648-0.935,0.648  c-0.36,0-0.664-0.216-0.664-0.672c0-0.751,0.872-0.887,1.639-0.871V87.766z M108.312,89.069c-0.048-0.264-0.064-0.592-0.064-0.928  v-1.447c0-0.776-0.288-1.583-1.471-1.583c-0.488,0-0.952,0.136-1.272,0.344l0.16,0.463c0.272-0.176,0.648-0.287,1.008-0.287  c0.791,0,0.879,0.575,0.879,0.895v0.08c-1.495-0.008-2.326,0.504-2.326,1.439c0,0.56,0.399,1.112,1.183,1.112  c0.552,0,0.967-0.272,1.183-0.576h0.024l0.056,0.488H108.312z M104.583,88.397c-0.2,0.088-0.464,0.192-0.864,0.192  c-0.767,0-1.343-0.552-1.343-1.447c0-0.808,0.48-1.464,1.367-1.464c0.384,0,0.648,0.088,0.816,0.184l0.16-0.543  c-0.192-0.096-0.56-0.2-0.976-0.2c-1.263,0-2.078,0.863-2.078,2.055c0,1.183,0.759,1.975,1.927,1.975  c0.519,0,0.927-0.128,1.111-0.224L104.583,88.397z"/>
<path fill="#939598" d="M237.943,119.188c0.225-0.375,0.576-1.264,0.761-1.943l-0.784,0.08c-0.088,0.584-0.305,1.44-0.48,1.911  L237.943,119.188z M234.384,115.942c0.056-0.488,0.368-1.144,1.079-1.144c0.792,0,0.983,0.695,0.976,1.144H234.384z   M237.094,116.446c0.008-0.072,0.024-0.184,0.024-0.328c0-0.712-0.336-1.823-1.6-1.823c-1.127,0-1.814,0.92-1.814,2.087  s0.712,1.951,1.902,1.951c0.616,0,1.04-0.128,1.287-0.239l-0.119-0.505c-0.264,0.112-0.567,0.2-1.071,0.2  c-0.703,0-1.312-0.392-1.327-1.343H237.094z M231.521,113.455v0.928h-0.599v0.536h0.599v2.111c0,0.455,0.072,0.799,0.272,1.007  c0.168,0.192,0.432,0.296,0.76,0.296c0.272,0,0.488-0.04,0.624-0.096l-0.032-0.528c-0.088,0.024-0.224,0.048-0.408,0.048  c-0.392,0-0.527-0.271-0.527-0.751v-2.087h1.008v-0.536h-1.008v-1.11L231.521,113.455z M229.571,116.95l-0.04,0.223  c-0.111,0.328-0.432,0.648-0.936,0.648c-0.359,0-0.663-0.216-0.663-0.672c0-0.751,0.871-0.887,1.639-0.871V116.95z M230.314,118.253  c-0.048-0.264-0.063-0.592-0.063-0.928v-1.447c0-0.774-0.287-1.583-1.472-1.583c-0.486,0-0.95,0.137-1.271,0.345l0.16,0.464  c0.271-0.176,0.647-0.288,1.007-0.288c0.792,0,0.88,0.575,0.88,0.895v0.08c-1.495-0.008-2.327,0.504-2.327,1.439  c0,0.56,0.4,1.111,1.185,1.111c0.551,0,0.967-0.271,1.183-0.575h0.024l0.056,0.487H230.314z M225.07,113.455v0.928h-0.599v0.536  h0.599v2.111c0,0.455,0.072,0.799,0.272,1.007c0.168,0.192,0.432,0.296,0.76,0.296c0.272,0,0.488-0.04,0.623-0.096l-0.032-0.528  c-0.087,0.024-0.223,0.048-0.406,0.048c-0.393,0-0.528-0.271-0.528-0.751v-2.087h1.007v-0.536h-1.007v-1.11L225.07,113.455z   M220.746,117.989c0.287,0.192,0.855,0.344,1.375,0.344c1.271,0,1.887-0.72,1.887-1.551c0-0.792-0.464-1.232-1.375-1.583  c-0.744-0.288-1.071-0.536-1.071-1.04c0-0.368,0.279-0.807,1.016-0.807c0.487,0,0.848,0.159,1.022,0.255l0.192-0.567  c-0.24-0.136-0.64-0.264-1.191-0.264c-1.047,0-1.743,0.624-1.743,1.463c0,0.76,0.544,1.215,1.423,1.527  c0.729,0.279,1.017,0.567,1.017,1.071c0,0.543-0.416,0.919-1.128,0.919c-0.48,0-0.936-0.159-1.247-0.352L220.746,117.989z"/>
<path fill="#939598" d="M242.022,127.069c0.271,0.16,0.663,0.264,1.087,0.264c0.92,0,1.446-0.479,1.446-1.159  c0-0.575-0.344-0.911-1.015-1.167c-0.504-0.192-0.736-0.336-0.736-0.656c0-0.288,0.232-0.527,0.648-0.527  c0.36,0,0.639,0.127,0.791,0.224l0.176-0.512c-0.216-0.128-0.559-0.239-0.951-0.239c-0.832,0-1.335,0.512-1.335,1.135  c0,0.464,0.327,0.848,1.023,1.096c0.52,0.191,0.72,0.375,0.72,0.711c0,0.32-0.24,0.576-0.752,0.576c-0.352,0-0.72-0.144-0.927-0.28  L242.022,127.069z M239.661,122.512c0.727,0,1.055,0.84,1.055,2.119c0,1.326-0.344,2.167-1.062,2.167  c-0.641,0-1.057-0.769-1.057-2.119C238.597,123.264,239.045,122.512,239.661,122.512 M239.701,121.969  c-1.056,0-1.807,0.959-1.807,2.702c0.016,1.719,0.702,2.671,1.719,2.671c1.15,0,1.807-0.977,1.807-2.743  C241.42,122.943,240.796,121.969,239.701,121.969 M236.964,122.056h-2.486l-0.337,2.495c0.192-0.024,0.425-0.057,0.721-0.057  c1.039,0,1.486,0.48,1.495,1.152c0,0.695-0.567,1.127-1.231,1.127c-0.472,0-0.896-0.16-1.112-0.288l-0.175,0.536  c0.247,0.16,0.728,0.32,1.295,0.32c1.127,0,1.936-0.761,1.936-1.775c0-0.656-0.336-1.104-0.744-1.336  c-0.32-0.192-0.719-0.28-1.119-0.28c-0.192,0-0.304,0.017-0.424,0.032l0.2-1.335h1.982V122.056z M231.445,122.504  c0.734,0,1.062,0.68,1.062,1.566c0,0.112-0.023,0.192-0.063,0.256c-0.185,0.312-0.552,0.544-1.023,0.544c-0.607,0-1-0.456-1-1.103  C230.421,123.031,230.845,122.504,231.445,122.504 M230.165,127.333c0.168,0.009,0.392,0,0.648-0.039  c0.56-0.064,1.11-0.305,1.511-0.696c0.512-0.496,0.896-1.295,0.896-2.439c0-1.327-0.655-2.189-1.719-2.189s-1.774,0.862-1.774,1.847  c0,0.887,0.599,1.591,1.534,1.591c0.52,0,0.936-0.208,1.224-0.56h0.023c-0.096,0.616-0.344,1.07-0.688,1.383  c-0.295,0.28-0.68,0.448-1.087,0.504c-0.24,0.024-0.416,0.04-0.568,0.024V127.333z M227.181,127.254h0.68v-5.198h-0.6l-1.136,0.607  l0.136,0.536l0.904-0.487h0.016V127.254z M222.829,127.342c0.296,0,0.48-0.217,0.48-0.504c0-0.297-0.192-0.505-0.473-0.505  s-0.479,0.208-0.479,0.505C222.357,127.125,222.549,127.342,222.829,127.342 M220.708,125.949l-0.04,0.225  c-0.112,0.328-0.431,0.647-0.935,0.647c-0.36,0-0.664-0.216-0.664-0.672c0-0.751,0.872-0.887,1.639-0.871V125.949z M221.452,127.254  c-0.048-0.265-0.064-0.593-0.064-0.929v-1.446c0-0.776-0.288-1.583-1.471-1.583c-0.488,0-0.952,0.136-1.271,0.344l0.159,0.463  c0.272-0.176,0.648-0.287,1.009-0.287c0.791,0,0.879,0.575,0.879,0.896v0.079c-1.495-0.008-2.326,0.505-2.326,1.439  c0,0.56,0.398,1.112,1.183,1.112c0.553,0,0.967-0.272,1.184-0.576h0.023l0.057,0.488H221.452z M217.724,126.581  c-0.199,0.089-0.464,0.192-0.863,0.192c-0.768,0-1.343-0.552-1.343-1.447c0-0.808,0.479-1.464,1.366-1.464  c0.385,0,0.648,0.088,0.816,0.185l0.16-0.543c-0.192-0.097-0.561-0.2-0.977-0.2c-1.263,0-2.078,0.862-2.078,2.055  c0,1.183,0.76,1.975,1.928,1.975c0.519,0,0.927-0.128,1.11-0.224L217.724,126.581z"/>
<path d="M169.532,138.646c0.225-0.375,0.576-1.264,0.761-1.943l-0.784,0.08c-0.088,0.584-0.305,1.439-0.48,1.911L169.532,138.646z   M165.973,135.399c0.056-0.488,0.368-1.144,1.079-1.144c0.792,0,0.983,0.695,0.976,1.144H165.973z M168.683,135.903  c0.008-0.072,0.023-0.185,0.023-0.328c0-0.712-0.335-1.823-1.599-1.823c-1.127,0-1.814,0.92-1.814,2.087s0.712,1.951,1.902,1.951  c0.616,0,1.04-0.128,1.287-0.24l-0.119-0.504c-0.264,0.112-0.567,0.2-1.072,0.2c-0.702,0-1.311-0.392-1.326-1.343H168.683z   M163.11,132.912v0.928h-0.599v0.536h0.599v2.111c0,0.455,0.072,0.799,0.272,1.007c0.168,0.192,0.432,0.296,0.76,0.296  c0.271,0,0.488-0.04,0.624-0.096l-0.032-0.528c-0.088,0.024-0.224,0.048-0.408,0.048c-0.392,0-0.527-0.271-0.527-0.751v-2.087h1.008  v-0.536h-1.008v-1.11L163.11,132.912z M161.16,136.407l-0.04,0.223c-0.111,0.328-0.432,0.648-0.936,0.648  c-0.359,0-0.663-0.216-0.663-0.672c0-0.751,0.871-0.888,1.639-0.871V136.407z M161.903,137.71c-0.048-0.264-0.063-0.592-0.063-0.928  v-1.447c0-0.774-0.287-1.583-1.472-1.583c-0.486,0-0.95,0.136-1.271,0.344l0.16,0.465c0.271-0.177,0.647-0.288,1.007-0.288  c0.792,0,0.88,0.574,0.88,0.895v0.08c-1.495-0.008-2.327,0.504-2.327,1.439c0,0.56,0.4,1.111,1.185,1.111  c0.551,0,0.967-0.271,1.183-0.576h0.024l0.056,0.488H161.903z M156.659,132.912v0.928h-0.599v0.536h0.599v2.111  c0,0.455,0.072,0.799,0.272,1.007c0.168,0.192,0.432,0.296,0.76,0.296c0.272,0,0.488-0.04,0.623-0.096l-0.032-0.528  c-0.087,0.024-0.223,0.048-0.407,0.048c-0.392,0-0.527-0.271-0.527-0.751v-2.087h1.007v-0.536h-1.007v-1.11L156.659,132.912z   M152.335,137.446c0.287,0.191,0.855,0.344,1.375,0.344c1.271,0,1.887-0.72,1.887-1.551c0-0.792-0.464-1.232-1.375-1.583  c-0.744-0.288-1.071-0.536-1.071-1.04c0-0.368,0.279-0.808,1.015-0.808c0.488,0,0.849,0.159,1.023,0.256l0.192-0.567  c-0.24-0.136-0.64-0.264-1.191-0.264c-1.047,0-1.743,0.624-1.743,1.463c0,0.76,0.544,1.215,1.423,1.526  c0.729,0.28,1.017,0.568,1.017,1.072c0,0.543-0.416,0.919-1.128,0.919c-0.48,0-0.936-0.16-1.247-0.352L152.335,137.446z"/>
<path d="M173.611,146.526c0.271,0.16,0.662,0.264,1.087,0.264c0.92,0,1.446-0.479,1.446-1.16c0-0.574-0.344-0.91-1.015-1.167  c-0.504-0.191-0.736-0.336-0.736-0.655c0-0.288,0.232-0.527,0.648-0.527c0.36,0,0.639,0.127,0.791,0.223l0.176-0.511  c-0.216-0.128-0.559-0.24-0.951-0.24c-0.832,0-1.335,0.513-1.335,1.136c0,0.464,0.327,0.848,1.023,1.096  c0.52,0.191,0.72,0.375,0.72,0.711c0,0.32-0.24,0.576-0.752,0.576c-0.352,0-0.72-0.145-0.927-0.28L173.611,146.526z M171.25,141.969  c0.727,0,1.055,0.84,1.055,2.118c0,1.327-0.344,2.167-1.062,2.167c-0.641,0-1.057-0.768-1.057-2.118  C170.186,142.721,170.634,141.969,171.25,141.969 M171.29,141.426c-1.056,0-1.808,0.959-1.808,2.701  c0.017,1.72,0.703,2.672,1.72,2.672c1.15,0,1.807-0.977,1.807-2.743C173.009,142.4,172.385,141.426,171.29,141.426 M168.769,146.71  v-0.584h-2.335v-0.016l0.416-0.384c1.096-1.056,1.791-1.831,1.791-2.79c0-0.744-0.472-1.511-1.591-1.511  c-0.6,0-1.112,0.223-1.471,0.526l0.223,0.496c0.24-0.2,0.632-0.439,1.104-0.439c0.774,0,1.03,0.487,1.03,1.016  c-0.008,0.783-0.606,1.455-1.935,2.718l-0.551,0.536v0.432H168.769z M163.042,141.969c0.727,0,1.055,0.84,1.055,2.118  c0,1.327-0.344,2.167-1.062,2.167c-0.641,0-1.057-0.768-1.057-2.118C161.978,142.721,162.426,141.969,163.042,141.969   M163.082,141.426c-1.056,0-1.808,0.959-1.808,2.701c0.017,1.72,0.703,2.672,1.72,2.672c1.15,0,1.807-0.977,1.807-2.743  C164.801,142.4,164.177,141.426,163.082,141.426 M160.561,146.71v-0.584h-2.335v-0.016l0.416-0.384  c1.096-1.056,1.791-1.831,1.791-2.79c0-0.744-0.472-1.511-1.591-1.511c-0.6,0-1.112,0.223-1.472,0.526l0.224,0.496  c0.24-0.2,0.632-0.439,1.104-0.439c0.774,0,1.03,0.487,1.03,1.016c-0.008,0.783-0.606,1.455-1.935,2.718l-0.551,0.536v0.432H160.561  z M154.418,146.799c0.296,0,0.479-0.217,0.479-0.505c0-0.296-0.191-0.504-0.472-0.504s-0.479,0.208-0.479,0.504  C153.946,146.582,154.138,146.799,154.418,146.799 M152.297,145.406l-0.04,0.224c-0.112,0.328-0.431,0.648-0.935,0.648  c-0.36,0-0.665-0.216-0.665-0.672c0-0.751,0.873-0.887,1.639-0.871V145.406z M153.041,146.71c-0.048-0.264-0.064-0.592-0.064-0.928  v-1.447c0-0.775-0.288-1.583-1.471-1.583c-0.488,0-0.952,0.137-1.272,0.345l0.16,0.463c0.272-0.176,0.648-0.287,1.008-0.287  c0.791,0,0.879,0.575,0.879,0.895v0.08c-1.495-0.008-2.326,0.504-2.326,1.439c0,0.56,0.399,1.112,1.183,1.112  c0.552,0,0.967-0.272,1.184-0.576h0.023l0.057,0.487H153.041z M149.313,146.038c-0.2,0.088-0.464,0.192-0.864,0.192  c-0.767,0-1.343-0.552-1.343-1.447c0-0.808,0.48-1.464,1.367-1.464c0.384,0,0.648,0.088,0.816,0.184l0.16-0.543  c-0.192-0.096-0.56-0.199-0.976-0.199c-1.263,0-2.078,0.862-2.078,2.055c0,1.183,0.759,1.975,1.927,1.975  c0.519,0,0.927-0.128,1.111-0.224L149.313,146.038z"/>
<path d="M4.931,75.525c-0.549-0.063-1.287-0.414-1.287-1.215c0-0.892,0.783-1.108,1.287-1.099V75.525z M5.499,72.473  c-0.081-0.009-0.207-0.027-0.37-0.027c-0.801,0-2.052,0.378-2.052,1.801c0,1.269,1.035,2.043,2.35,2.043  c1.314,0,2.196-0.801,2.196-2.143c0-0.693-0.144-1.17-0.27-1.449l-0.567,0.135c0.126,0.297,0.225,0.639,0.225,1.206  c0,0.793-0.441,1.477-1.512,1.495V72.473z M6.777,76.982c0.099,0.225,0.216,0.522,0.216,0.972c0,0.865-0.621,1.513-1.629,1.513  c-0.91,0-1.648-0.54-1.648-1.54c0-0.432,0.099-0.729,0.207-0.918l-0.612-0.18c-0.108,0.216-0.225,0.63-0.225,1.098  c0,1.423,0.972,2.341,2.314,2.341c1.332,0,2.223-0.855,2.223-2.17c0-0.585-0.144-1.044-0.252-1.251L6.777,76.982z M7.533,84.948  v-0.792h-2.62c-0.135,0-0.27-0.018-0.369-0.054c-0.441-0.135-0.81-0.54-0.81-1.063c0-0.747,0.585-1.008,1.287-1.008h2.512v-0.792  H4.931c-1.494,0-1.854,0.936-1.854,1.539c0,0.721,0.405,1.225,0.819,1.441v0.018l-0.72,0.045v0.702  c0.36-0.027,0.729-0.036,1.179-0.036H7.533z M4.931,89.007c-0.549-0.063-1.287-0.414-1.287-1.215c0-0.892,0.783-1.108,1.287-1.099  V89.007z M5.499,85.955c-0.081-0.009-0.207-0.027-0.37-0.027c-0.801,0-2.052,0.378-2.052,1.8c0,1.27,1.035,2.044,2.35,2.044  c1.314,0,2.196-0.801,2.196-2.143c0-0.693-0.144-1.17-0.27-1.449l-0.567,0.135c0.126,0.297,0.225,0.639,0.225,1.206  c0,0.793-0.441,1.477-1.512,1.495V85.955z M5.706,91.562c0.126,0,0.234,0.009,0.342,0.036c0.594,0.144,0.945,0.63,0.945,1.161  c0,0.856-0.729,1.288-1.611,1.288c-0.964,0-1.684-0.486-1.684-1.306c0-0.594,0.414-1.026,0.918-1.143  c0.099-0.027,0.234-0.036,0.333-0.036H5.706z M1.141,91.562h2.602v0.018c-0.351,0.198-0.666,0.648-0.666,1.314  c0,1.063,0.891,1.963,2.341,1.954c1.323,0,2.214-0.81,2.214-1.863c0-0.712-0.369-1.243-0.855-1.486v-0.018l0.756-0.036v-0.711  c-0.297,0.027-0.738,0.036-1.125,0.036H1.141V91.562z M1.456,96.243c0,0.288,0.216,0.495,0.496,0.495  c0.27,0,0.486-0.198,0.486-0.477c0-0.315-0.216-0.513-0.486-0.504C1.672,95.757,1.456,95.946,1.456,96.243 M7.533,95.847H3.176  v0.792h4.357V95.847z M6.777,97.7c0.099,0.225,0.216,0.522,0.216,0.972c0,0.865-0.621,1.513-1.629,1.513  c-0.91,0-1.648-0.54-1.648-1.54c0-0.432,0.099-0.729,0.207-0.918l-0.612-0.18c-0.108,0.216-0.225,0.63-0.225,1.098  c0,1.423,0.972,2.341,2.314,2.341c1.332,0,2.223-0.855,2.223-2.17c0-0.585-0.144-1.044-0.252-1.251L6.777,97.7z M7.533,105.666  v-0.792h-2.62c-0.135,0-0.27-0.018-0.369-0.054c-0.441-0.135-0.81-0.541-0.81-1.063c0-0.747,0.585-1.008,1.287-1.008h2.512v-0.792  H4.931c-1.494,0-1.854,0.936-1.854,1.539c0,0.72,0.405,1.225,0.819,1.441v0.018L3.176,105v0.702c0.36-0.027,0.729-0.036,1.179-0.036  H7.533z M1.465,107.88h6.068v-0.783H1.465V107.88z"/>
<path d="M301.018,208.362c-0.226,0.099-0.522,0.216-0.973,0.216c-0.863,0-1.512-0.621-1.512-1.63c0-0.909,0.54-1.647,1.539-1.647  c0.432,0,0.729,0.1,0.918,0.207l0.18-0.611c-0.216-0.108-0.63-0.226-1.098-0.226c-1.422,0-2.341,0.973-2.341,2.313  c0,1.333,0.855,2.224,2.17,2.224c0.585,0,1.044-0.144,1.251-0.252L301.018,208.362z M296.337,203.041  c-0.287,0-0.494,0.216-0.494,0.495c0,0.271,0.197,0.486,0.477,0.486c0.315,0,0.513-0.216,0.504-0.486  C296.823,203.257,296.635,203.041,296.337,203.041 M296.733,204.761h-0.792v4.357h0.792V204.761z M290.946,209.118h0.792v-2.62  c0-0.135,0.019-0.27,0.054-0.369c0.136-0.44,0.54-0.81,1.062-0.81c0.747,0,1.009,0.585,1.009,1.287v2.512h0.792v-2.602  c0-1.494-0.936-1.854-1.54-1.854c-0.72,0-1.224,0.405-1.439,0.819h-0.019l-0.045-0.721h-0.702c0.027,0.36,0.036,0.729,0.036,1.18  V209.118z M287.832,205.256c0.938,0,1.307,0.937,1.307,1.674c0,0.982-0.568,1.693-1.324,1.693c-0.774,0-1.323-0.72-1.323-1.675  C286.491,206.12,286.896,205.256,287.832,205.256 M287.851,204.662c-1.206,0-2.16,0.855-2.16,2.313c0,1.378,0.909,2.241,2.088,2.241  c1.054,0,2.17-0.701,2.17-2.313C289.948,205.571,289.103,204.662,287.851,204.662 M281.946,206.517  c0.063-0.55,0.414-1.287,1.215-1.287c0.892,0,1.107,0.782,1.099,1.287H281.946z M284.998,207.083  c0.01-0.081,0.027-0.207,0.027-0.369c0-0.801-0.378-2.052-1.801-2.052c-1.27,0-2.043,1.035-2.043,2.349  c0,1.315,0.801,2.197,2.142,2.197c0.693,0,1.171-0.144,1.45-0.27l-0.135-0.567c-0.297,0.126-0.641,0.225-1.207,0.225  c-0.792,0-1.477-0.44-1.494-1.513H284.998z M279.372,209.118h0.792v-6.392h-0.792V209.118z M276.259,205.256  c0.937,0,1.306,0.937,1.306,1.674c0,0.982-0.567,1.693-1.324,1.693c-0.773,0-1.323-0.72-1.323-1.675  C274.917,206.12,275.322,205.256,276.259,205.256 M276.276,204.662c-1.206,0-2.16,0.855-2.16,2.313c0,1.378,0.909,2.241,2.088,2.241  c1.055,0,2.17-0.701,2.17-2.313C278.374,205.571,277.528,204.662,276.276,204.662 M270.094,206.597c0-0.107,0.026-0.225,0.054-0.323  c0.153-0.595,0.657-0.981,1.197-0.981c0.838,0,1.297,0.747,1.297,1.62c0,1-0.486,1.684-1.324,1.684  c-0.567,0-1.044-0.378-1.188-0.927c-0.018-0.099-0.035-0.207-0.035-0.325V206.597z M269.311,210.901h0.783v-2.368h0.018  c0.261,0.432,0.765,0.684,1.341,0.684c1.027,0,1.981-0.773,1.981-2.341c0-1.323-0.792-2.214-1.847-2.214  c-0.711,0-1.224,0.315-1.548,0.846h-0.018l-0.036-0.747h-0.711c0.018,0.414,0.036,0.864,0.036,1.423V210.901z M267.269,207.651  l-0.045,0.252c-0.127,0.369-0.487,0.729-1.055,0.729c-0.404,0-0.746-0.242-0.746-0.756c0-0.847,0.98-1,1.846-0.981V207.651z   M268.105,209.118c-0.054-0.297-0.072-0.666-0.072-1.044v-1.63c0-0.873-0.324-1.782-1.657-1.782c-0.549,0-1.07,0.153-1.431,0.387  l0.18,0.522c0.307-0.198,0.729-0.324,1.135-0.324c0.891,0,0.99,0.648,0.99,1.008v0.09c-1.684-0.009-2.619,0.567-2.619,1.621  c0,0.63,0.449,1.251,1.331,1.251c0.621,0,1.09-0.306,1.333-0.647h0.027l0.063,0.549H268.105z M259.815,209.118v-2.593  c0-1.008-0.018-1.737-0.063-2.503l0.027-0.01c0.306,0.658,0.711,1.352,1.134,2.026l1.928,3.079h0.792v-6.068h-0.738v2.539  c0,0.945,0.018,1.684,0.09,2.494l-0.018,0.009c-0.288-0.621-0.64-1.261-1.09-1.972l-1.944-3.07h-0.855v6.068H259.815z"/>
<path fill="#939598" d="M230.068,194.603c0.324,0.217,0.963,0.388,1.548,0.388c1.432,0,2.125-0.811,2.125-1.746  c0-0.893-0.521-1.388-1.548-1.783c-0.838-0.324-1.207-0.604-1.207-1.17c0-0.414,0.315-0.91,1.144-0.91  c0.55,0,0.954,0.18,1.152,0.289l0.216-0.64c-0.27-0.153-0.72-0.298-1.341-0.298c-1.18,0-1.963,0.702-1.963,1.648  c0,0.855,0.612,1.368,1.603,1.719c0.819,0.315,1.144,0.64,1.144,1.207c0,0.612-0.468,1.035-1.271,1.035  c-0.54,0-1.053-0.18-1.403-0.396L230.068,194.603z"/>
<polygon fill="#939598" points="235.542,196.9 236.052,196.9 236.052,193.002 235.603,193.002 234.75,193.458 234.853,193.86   235.53,193.494 235.542,193.494 "/>
</svg>