<svg xmlns="http://www.w3.org/2000/svg" xmlns:xlink="http://www.w3.org/1999/xlink" version="1.1" x="0px" y="0px" width="298.63px" height="189.676px" viewBox="0 0 298.63 189.676" enable-background="new 0 0 298.63 189.676" xml:space="preserve">
<g id="wide" display="none">
</g>
<g id="text_column">
</g>
<g id="art">
	<g>
		<g>
			
				<line fill="none" stroke="#999999" stroke-width="0.5" stroke-miterlimit="10" x1="25.379" y1="137.295" x2="26.379" y2="137.295"/>
			
				<line fill="none" stroke="#999999" stroke-width="0.5" stroke-miterlimit="10" stroke-dasharray="2.0074,2.0074" x1="28.387" y1="137.295" x2="296.376" y2="137.295"/>
			
				<line fill="none" stroke="#999999" stroke-width="0.5" stroke-miterlimit="10" x1="297.38" y1="137.295" x2="298.38" y2="137.295"/>
		</g>
	</g>
	<g>
		<g>
			
				<line fill="none" stroke="#999999" stroke-width="0.5" stroke-miterlimit="10" x1="25.379" y1="122.295" x2="26.379" y2="122.295"/>
			
				<line fill="none" stroke="#999999" stroke-width="0.5" stroke-miterlimit="10" stroke-dasharray="2.0074,2.0074" x1="28.387" y1="122.295" x2="296.376" y2="122.295"/>
			
				<line fill="none" stroke="#999999" stroke-width="0.5" stroke-miterlimit="10" x1="297.38" y1="122.295" x2="298.38" y2="122.295"/>
		</g>
	</g>
	<g>
		<g>
			
				<line fill="none" stroke="#999999" stroke-width="0.5" stroke-miterlimit="10" x1="25.379" y1="107.295" x2="26.379" y2="107.295"/>
			
				<line fill="none" stroke="#999999" stroke-width="0.5" stroke-miterlimit="10" stroke-dasharray="2.0074,2.0074" x1="28.387" y1="107.295" x2="296.376" y2="107.295"/>
			
				<line fill="none" stroke="#999999" stroke-width="0.5" stroke-miterlimit="10" x1="297.38" y1="107.295" x2="298.38" y2="107.295"/>
		</g>
	</g>
	<g>
		<g>
			
				<line fill="none" stroke="#999999" stroke-width="0.5" stroke-miterlimit="10" x1="25.379" y1="92.295" x2="26.379" y2="92.295"/>
			
				<line fill="none" stroke="#999999" stroke-width="0.5" stroke-miterlimit="10" stroke-dasharray="2.0074,2.0074" x1="28.387" y1="92.295" x2="296.376" y2="92.295"/>
			
				<line fill="none" stroke="#999999" stroke-width="0.5" stroke-miterlimit="10" x1="297.38" y1="92.295" x2="298.38" y2="92.295"/>
		</g>
	</g>
	<g>
		<g>
			
				<line fill="none" stroke="#999999" stroke-width="0.5" stroke-miterlimit="10" x1="25.379" y1="77.295" x2="26.379" y2="77.295"/>
			
				<line fill="none" stroke="#999999" stroke-width="0.5" stroke-miterlimit="10" stroke-dasharray="2.0074,2.0074" x1="28.387" y1="77.295" x2="296.376" y2="77.295"/>
			
				<line fill="none" stroke="#999999" stroke-width="0.5" stroke-miterlimit="10" x1="297.38" y1="77.295" x2="298.38" y2="77.295"/>
		</g>
	</g>
	<g>
		<g>
			
				<line fill="none" stroke="#999999" stroke-width="0.5" stroke-miterlimit="10" x1="25.379" y1="62.295" x2="26.379" y2="62.295"/>
			
				<line fill="none" stroke="#999999" stroke-width="0.5" stroke-miterlimit="10" stroke-dasharray="2.0074,2.0074" x1="28.387" y1="62.295" x2="296.376" y2="62.295"/>
			
				<line fill="none" stroke="#999999" stroke-width="0.5" stroke-miterlimit="10" x1="297.38" y1="62.295" x2="298.38" y2="62.295"/>
		</g>
	</g>
	<g>
		<g>
			
				<line fill="none" stroke="#999999" stroke-width="0.5" stroke-miterlimit="10" x1="25.379" y1="47.295" x2="26.379" y2="47.295"/>
			
				<line fill="none" stroke="#999999" stroke-width="0.5" stroke-miterlimit="10" stroke-dasharray="2.0074,2.0074" x1="28.387" y1="47.295" x2="296.376" y2="47.295"/>
			
				<line fill="none" stroke="#999999" stroke-width="0.5" stroke-miterlimit="10" x1="297.38" y1="47.295" x2="298.38" y2="47.295"/>
		</g>
	</g>
	<g>
		<g>
			
				<line fill="none" stroke="#999999" stroke-width="0.5" stroke-miterlimit="10" x1="25.379" y1="32.295" x2="26.379" y2="32.295"/>
			
				<line fill="none" stroke="#999999" stroke-width="0.5" stroke-miterlimit="10" stroke-dasharray="2.0074,2.0074" x1="28.387" y1="32.295" x2="296.376" y2="32.295"/>
			
				<line fill="none" stroke="#999999" stroke-width="0.5" stroke-miterlimit="10" x1="297.38" y1="32.295" x2="298.38" y2="32.295"/>
		</g>
	</g>
	<g>
		<g>
			
				<line fill="none" stroke="#999999" stroke-width="0.5" stroke-miterlimit="10" x1="25.379" y1="17.295" x2="26.379" y2="17.295"/>
			
				<line fill="none" stroke="#999999" stroke-width="0.5" stroke-miterlimit="10" stroke-dasharray="2.0074,2.0074" x1="28.387" y1="17.295" x2="296.376" y2="17.295"/>
			
				<line fill="none" stroke="#999999" stroke-width="0.5" stroke-miterlimit="10" x1="297.38" y1="17.295" x2="298.38" y2="17.295"/>
		</g>
	</g>
	<g>
		<g>
			<line fill="none" stroke="#999999" stroke-width="0.5" stroke-miterlimit="10" x1="25.379" y1="2.295" x2="26.379" y2="2.295"/>
			
				<line fill="none" stroke="#999999" stroke-width="0.5" stroke-miterlimit="10" stroke-dasharray="2.0074,2.0074" x1="28.387" y1="2.295" x2="296.376" y2="2.295"/>
			<line fill="none" stroke="#999999" stroke-width="0.5" stroke-miterlimit="10" x1="297.38" y1="2.295" x2="298.38" y2="2.295"/>
		</g>
	</g>
	<g>
		<path d="M0.424,129.833h6.067v0.783H0.424V129.833z"/>
		<path d="M3.313,128.465c-0.45,0-0.819,0.009-1.18,0.036v-0.702l0.721-0.045v-0.018c-0.414-0.216-0.819-0.72-0.819-1.44    c0-0.604,0.359-1.54,1.854-1.54h2.602v0.792H3.979c-0.702,0-1.287,0.261-1.287,1.008c0,0.522,0.369,0.927,0.81,1.062    c0.1,0.036,0.234,0.054,0.369,0.054h2.62v0.792H3.313z"/>
		<path d="M6.329,120.31c0.108,0.207,0.252,0.666,0.252,1.251c0,1.314-0.891,2.169-2.224,2.169c-1.341,0-2.313-0.918-2.313-2.34    c0-0.468,0.117-0.882,0.225-1.099l0.612,0.18c-0.107,0.189-0.207,0.486-0.207,0.918c0,0.999,0.738,1.539,1.647,1.539    c1.009,0,1.63-0.648,1.63-1.512c0-0.45-0.117-0.747-0.216-0.972L6.329,120.31z"/>
		<path d="M0.909,118.501c0.271-0.009,0.486,0.189,0.486,0.504c0,0.279-0.216,0.477-0.486,0.477c-0.278,0-0.495-0.207-0.495-0.495    C0.414,118.69,0.631,118.501,0.909,118.501z M6.491,119.384H2.134v-0.792h4.357V119.384z"/>
		<path d="M0.1,113.462h5.267c0.387,0,0.828-0.009,1.125-0.036v0.711l-0.756,0.036v0.018c0.485,0.243,0.854,0.774,0.854,1.485    c0,1.053-0.891,1.863-2.214,1.863c-1.45,0.009-2.341-0.891-2.341-1.954c0-0.666,0.314-1.116,0.666-1.314v-0.018H0.1V113.462z     M3.907,114.255c-0.099,0-0.233,0.009-0.333,0.036c-0.504,0.117-0.918,0.549-0.918,1.144c0,0.819,0.72,1.305,1.684,1.305    c0.882,0,1.611-0.432,1.611-1.287c0-0.531-0.352-1.018-0.945-1.162c-0.108-0.027-0.216-0.036-0.342-0.036H3.907z"/>
		<path d="M4.457,111.65c1.071-0.018,1.512-0.702,1.512-1.495c0-0.567-0.099-0.909-0.225-1.207l0.567-0.135    c0.126,0.279,0.27,0.756,0.27,1.449c0,1.341-0.882,2.143-2.196,2.143s-2.35-0.774-2.35-2.043c0-1.422,1.251-1.8,2.053-1.8    c0.162,0,0.288,0.018,0.369,0.027V111.65z M3.89,109.328c-0.504-0.009-1.288,0.207-1.288,1.098c0,0.801,0.738,1.152,1.288,1.215    V109.328z"/>
		<path d="M3.313,107.531c-0.45,0-0.819,0.009-1.18,0.036v-0.702l0.721-0.045v-0.018c-0.414-0.216-0.819-0.72-0.819-1.44    c0-0.604,0.359-1.54,1.854-1.54h2.602v0.792H3.979c-0.702,0-1.287,0.261-1.287,1.008c0,0.522,0.369,0.927,0.81,1.062    c0.1,0.036,0.234,0.054,0.369,0.054h2.62v0.792H3.313z"/>
		<path d="M6.329,99.378c0.108,0.207,0.252,0.667,0.252,1.251c0,1.314-0.891,2.169-2.224,2.169c-1.341,0-2.313-0.918-2.313-2.34    c0-0.468,0.117-0.882,0.225-1.099l0.612,0.18c-0.107,0.189-0.207,0.486-0.207,0.918c0,0.999,0.738,1.539,1.647,1.539    c1.009,0,1.63-0.648,1.63-1.512c0-0.45-0.117-0.747-0.216-0.972L6.329,99.378z"/>
		<path d="M4.457,98.071c1.071-0.018,1.512-0.702,1.512-1.495c0-0.567-0.099-0.909-0.225-1.207l0.567-0.135    c0.126,0.279,0.27,0.756,0.27,1.449c0,1.341-0.882,2.143-2.196,2.143s-2.35-0.774-2.35-2.043c0-1.422,1.251-1.8,2.053-1.8    c0.162,0,0.288,0.018,0.369,0.027V98.071z M3.89,95.749c-0.504-0.009-1.288,0.207-1.288,1.098c0,0.801,0.738,1.152,1.288,1.215    V95.749z"/>
		<path d="M0.243,90.376c0.883,0.657,2.053,1.135,3.683,1.135c1.603,0,2.755-0.495,3.654-1.135v0.622    c-0.747,0.567-1.899,1.179-3.654,1.179C2.152,92.168,1,91.564,0.243,90.998V90.376z"/>
		<path d="M3.313,89.765c-0.45,0-0.819,0.009-1.18,0.036v-0.702l0.721-0.045v-0.018c-0.414-0.216-0.819-0.72-0.819-1.44    c0-0.604,0.359-1.54,1.854-1.54h2.602v0.792H3.979c-0.702,0-1.287,0.261-1.287,1.008c0,0.522,0.369,0.927,0.81,1.062    c0.1,0.036,0.234,0.054,0.369,0.054h2.62v0.792H3.313z"/>
		<path d="M5.303,81.124c0.45,0,0.847-0.009,1.188-0.036v0.702L5.78,81.834v0.018c0.351,0.207,0.81,0.667,0.81,1.44    c0,0.685-0.378,1.503-1.908,1.503H2.134v-0.792h2.413c0.828,0,1.386-0.252,1.386-0.972c0-0.531-0.369-0.9-0.72-1.044    c-0.117-0.045-0.261-0.072-0.405-0.072H2.134v-0.792H5.303z"/>
		<path d="M3.313,79.789c-0.45,0-0.819,0.009-1.18,0.036v-0.693l0.702-0.036v-0.027c-0.414-0.243-0.801-0.648-0.801-1.368    c0-0.594,0.359-1.044,0.873-1.233v-0.018c-0.243-0.135-0.433-0.306-0.567-0.486C2.143,75.702,2.035,75.414,2.035,75    c0-0.576,0.378-1.431,1.891-1.431h2.565v0.774H4.024c-0.837,0-1.342,0.306-1.342,0.945c0,0.45,0.334,0.801,0.721,0.937    c0.108,0.036,0.252,0.063,0.396,0.063h2.691v0.774h-2.61c-0.693,0-1.198,0.306-1.198,0.909c0,0.495,0.396,0.855,0.793,0.981    c0.117,0.045,0.252,0.063,0.387,0.063h2.629v0.774H3.313z"/>
		<path d="M6.491,72.297c-0.297-0.018-0.738-0.036-1.125-0.036H0.1v-0.783h2.736V71.46c-0.486-0.279-0.801-0.783-0.801-1.485    c0-1.081,0.9-1.846,2.224-1.836c1.558,0,2.331,0.981,2.331,1.954c0,0.63-0.242,1.134-0.818,1.458v0.027l0.72,0.036V72.297z     M4.745,71.478c0.099,0,0.197-0.018,0.288-0.036c0.549-0.153,0.927-0.612,0.927-1.188c0-0.829-0.675-1.324-1.675-1.324    c-0.873,0-1.62,0.45-1.62,1.296c0,0.54,0.369,1.044,0.973,1.207c0.09,0.018,0.197,0.045,0.324,0.045H4.745z"/>
		<path d="M4.457,66.588c1.071-0.018,1.512-0.702,1.512-1.495c0-0.567-0.099-0.909-0.225-1.207l0.567-0.135    c0.126,0.279,0.27,0.756,0.27,1.449c0,1.341-0.882,2.143-2.196,2.143s-2.35-0.774-2.35-2.043c0-1.422,1.251-1.8,2.053-1.8    c0.162,0,0.288,0.018,0.369,0.027V66.588z M3.89,64.265c-0.504-0.009-1.288,0.207-1.288,1.098c0,0.801,0.738,1.152,1.288,1.215    V64.265z"/>
		<path d="M3.493,62.469c-0.513,0-0.954,0.009-1.359,0.036v-0.693l0.855-0.027v-0.036c-0.585-0.198-0.954-0.675-0.954-1.207    c0-0.09,0.009-0.153,0.026-0.225H2.81c-0.019,0.081-0.027,0.162-0.027,0.27c0,0.558,0.423,0.954,1.018,1.062    c0.107,0.018,0.233,0.036,0.369,0.036h2.322v0.783H3.493z"/>
		<path d="M4.276,53.675c1.611,0,2.313,1.117,2.313,2.17c0,1.179-0.864,2.088-2.241,2.088c-1.458,0-2.313-0.954-2.313-2.161    C2.035,54.521,2.944,53.675,4.276,53.675z M4.321,57.132c0.954,0,1.675-0.549,1.675-1.323c0-0.756-0.711-1.323-1.692-1.323    c-0.738,0-1.675,0.369-1.675,1.305C2.629,56.727,3.493,57.132,4.321,57.132z"/>
		<path d="M6.491,52.564H2.737v0.612H2.134v-0.612H1.927c-0.612,0-1.17-0.135-1.521-0.504C0.117,51.763,0,51.367,0,50.998    c0-0.279,0.063-0.522,0.126-0.675l0.612,0.108C0.685,50.548,0.64,50.71,0.64,50.935c0,0.675,0.594,0.846,1.26,0.846h0.234v-1.053    h0.604v1.053h3.754V52.564z"/>
		<path d="M6.491,45.697L5.942,45.76v0.027C6.284,46.03,6.59,46.499,6.59,47.12c0,0.882-0.621,1.333-1.251,1.333    c-1.054,0-1.63-0.937-1.62-2.62H3.628c-0.359,0-1.008,0.099-1.008,0.99c0,0.405,0.126,0.829,0.324,1.135l-0.522,0.18    c-0.234-0.36-0.387-0.882-0.387-1.431c0-1.333,0.909-1.657,1.782-1.657h1.63c0.378,0,0.747-0.018,1.044-0.072V45.697z     M4.268,45.814C4.25,46.679,4.402,47.66,5.249,47.66c0.513,0,0.756-0.342,0.756-0.747c0-0.567-0.36-0.927-0.729-1.053    c-0.08-0.027-0.171-0.045-0.252-0.045H4.268z"/>
		<path d="M6.329,40.625c0.108,0.207,0.252,0.667,0.252,1.251c0,1.314-0.891,2.169-2.224,2.169c-1.341,0-2.313-0.918-2.313-2.34    c0-0.468,0.117-0.882,0.225-1.099l0.612,0.18c-0.107,0.189-0.207,0.486-0.207,0.918c0,0.999,0.738,1.539,1.647,1.539    c1.009,0,1.63-0.648,1.63-1.512c0-0.45-0.117-0.747-0.216-0.972L6.329,40.625z"/>
		<path d="M0.883,38.514h1.251V37.38h0.604v1.134h2.35c0.54,0,0.846-0.153,0.846-0.594c0-0.207-0.026-0.36-0.054-0.459l0.595-0.036    c0.062,0.153,0.107,0.396,0.107,0.702c0,0.369-0.117,0.666-0.333,0.855c-0.234,0.225-0.621,0.306-1.134,0.306H2.737v0.675H2.134    v-0.675H1.09L0.883,38.514z"/>
		<path d="M4.276,32.584c1.611,0,2.313,1.117,2.313,2.17c0,1.179-0.864,2.088-2.241,2.088c-1.458,0-2.313-0.954-2.313-2.161    C2.035,33.431,2.944,32.584,4.276,32.584z M4.321,36.042c0.954,0,1.675-0.549,1.675-1.323c0-0.756-0.711-1.323-1.692-1.323    c-0.738,0-1.675,0.369-1.675,1.305C2.629,35.637,3.493,36.042,4.321,36.042z"/>
		<path d="M3.493,31.528c-0.513,0-0.954,0.009-1.359,0.036v-0.693l0.855-0.027v-0.036c-0.585-0.198-0.954-0.675-0.954-1.207    c0-0.09,0.009-0.153,0.026-0.225H2.81c-0.019,0.081-0.027,0.162-0.027,0.27c0,0.558,0.423,0.954,1.018,1.062    c0.107,0.018,0.233,0.036,0.369,0.036h2.322v0.783H3.493z"/>
		<path d="M5.681,28.586c0.153-0.234,0.315-0.648,0.315-1.044c0-0.576-0.288-0.847-0.648-0.847c-0.378,0-0.585,0.225-0.801,0.811    c-0.279,0.783-0.712,1.152-1.233,1.152c-0.702,0-1.278-0.567-1.278-1.503c0-0.441,0.126-0.828,0.27-1.071l0.576,0.198    c-0.107,0.171-0.252,0.486-0.252,0.892c0,0.468,0.271,0.729,0.595,0.729c0.359,0,0.521-0.261,0.738-0.828    c0.288-0.756,0.666-1.144,1.313-1.144c0.766,0,1.306,0.594,1.306,1.629c0,0.478-0.117,0.918-0.297,1.225L5.681,28.586z"/>
		<path d="M7.58,25.665c-0.891-0.639-2.062-1.134-3.682-1.134c-1.611,0-2.764,0.486-3.655,1.134v-0.612    c0.738-0.576,1.891-1.179,3.664-1.179c1.765,0,2.908,0.603,3.673,1.179V25.665z"/>
	</g>
	<g>
		<path d="M101.123,186.84c0.351,0.216,0.864,0.396,1.404,0.396c0.801,0,1.27-0.423,1.27-1.035c0-0.567-0.324-0.891-1.144-1.206    c-0.99-0.352-1.602-0.864-1.602-1.72c0-0.945,0.783-1.647,1.962-1.647c0.621,0,1.071,0.145,1.341,0.297l-0.216,0.64    c-0.198-0.108-0.604-0.288-1.152-0.288c-0.829,0-1.144,0.495-1.144,0.909c0,0.567,0.369,0.847,1.207,1.17    c1.026,0.396,1.548,0.892,1.548,1.783c0,0.937-0.693,1.746-2.125,1.746c-0.585,0-1.225-0.171-1.549-0.387L101.123,186.84z"/>
		<path d="M106.48,182.186v1.251h1.134v0.604h-1.134v2.35c0,0.54,0.153,0.846,0.594,0.846c0.207,0,0.36-0.026,0.459-0.054    l0.036,0.595c-0.153,0.062-0.396,0.107-0.702,0.107c-0.369,0-0.666-0.117-0.855-0.333c-0.225-0.234-0.306-0.621-0.306-1.134    v-2.377h-0.675v-0.604h0.675v-1.044L106.48,182.186z"/>
		<path d="M108.527,184.796c0-0.513-0.009-0.954-0.036-1.359h0.693l0.027,0.855h0.036c0.198-0.585,0.675-0.954,1.207-0.954    c0.09,0,0.153,0.009,0.225,0.026v0.748c-0.081-0.019-0.162-0.027-0.271-0.027c-0.558,0-0.954,0.423-1.062,1.018    c-0.018,0.107-0.036,0.233-0.036,0.369v2.322h-0.783V184.796z"/>
		<path d="M111.924,185.76c0.018,1.071,0.703,1.512,1.495,1.512c0.567,0,0.909-0.099,1.207-0.225l0.135,0.567    c-0.279,0.126-0.756,0.27-1.449,0.27c-1.341,0-2.143-0.882-2.143-2.196s0.774-2.35,2.043-2.35c1.422,0,1.8,1.251,1.8,2.053    c0,0.162-0.018,0.288-0.027,0.369H111.924z M114.247,185.192c0.009-0.504-0.207-1.288-1.098-1.288    c-0.801,0-1.152,0.738-1.215,1.288H114.247z"/>
		<path d="M116.043,184.616c0-0.45-0.009-0.819-0.036-1.18h0.702l0.045,0.721h0.018c0.216-0.414,0.72-0.819,1.44-0.819    c0.604,0,1.54,0.359,1.54,1.854v2.602h-0.792v-2.512c0-0.702-0.261-1.287-1.008-1.287c-0.522,0-0.927,0.369-1.062,0.81    c-0.036,0.1-0.054,0.234-0.054,0.369v2.62h-0.792V184.616z"/>
		<path d="M124.844,183.437c-0.018,0.315-0.036,0.666-0.036,1.197v2.53c0,0.999-0.198,1.611-0.622,1.989    c-0.423,0.396-1.035,0.522-1.584,0.522c-0.522,0-1.098-0.126-1.449-0.36l0.198-0.604c0.288,0.181,0.738,0.343,1.278,0.343    c0.81,0,1.404-0.424,1.404-1.521v-0.486h-0.018c-0.243,0.405-0.711,0.729-1.386,0.729c-1.081,0-1.854-0.919-1.854-2.125    c0-1.477,0.963-2.313,1.962-2.313c0.756,0,1.17,0.396,1.359,0.756h0.018l0.036-0.657H124.844z M124.025,185.156    c0-0.135-0.009-0.252-0.045-0.36c-0.144-0.459-0.531-0.837-1.107-0.837c-0.756,0-1.296,0.639-1.296,1.647    c0,0.855,0.432,1.566,1.287,1.566c0.486,0,0.927-0.307,1.099-0.811c0.045-0.135,0.063-0.288,0.063-0.423V185.156z"/>
		<path d="M127.135,182.186v1.251h1.134v0.604h-1.134v2.35c0,0.54,0.153,0.846,0.594,0.846c0.207,0,0.36-0.026,0.459-0.054    l0.036,0.595c-0.153,0.062-0.396,0.107-0.702,0.107c-0.369,0-0.666-0.117-0.855-0.333c-0.225-0.234-0.306-0.621-0.306-1.134    v-2.377h-0.675v-0.604h0.675v-1.044L127.135,182.186z"/>
		<path d="M129.16,181.402h0.792v2.719h0.018c0.126-0.226,0.324-0.424,0.567-0.559c0.234-0.135,0.513-0.225,0.81-0.225    c0.585,0,1.521,0.359,1.521,1.863v2.593h-0.792v-2.503c0-0.702-0.261-1.296-1.008-1.296c-0.513,0-0.918,0.359-1.062,0.792    c-0.045,0.108-0.054,0.225-0.054,0.378v2.629h-0.792V181.402z"/>
		<path d="M137.782,181.546c-0.657,0.883-1.135,2.053-1.135,3.683c0,1.603,0.495,2.755,1.135,3.654h-0.622    c-0.567-0.747-1.179-1.899-1.179-3.654c0.009-1.773,0.612-2.926,1.179-3.683H137.782z"/>
		<path d="M139.406,182.186v1.251h1.134v0.604h-1.134v2.35c0,0.54,0.153,0.846,0.594,0.846c0.207,0,0.36-0.026,0.459-0.054    l0.036,0.595c-0.153,0.062-0.396,0.107-0.702,0.107c-0.369,0-0.666-0.117-0.855-0.333c-0.225-0.234-0.306-0.621-0.306-1.134    v-2.377h-0.675v-0.604h0.675v-1.044L139.406,182.186z"/>
		<path d="M141.431,181.402h0.792v2.719h0.018c0.126-0.226,0.324-0.424,0.567-0.559c0.233-0.135,0.513-0.225,0.81-0.225    c0.586,0,1.521,0.359,1.521,1.863v2.593h-0.791v-2.503c0-0.702-0.262-1.296-1.009-1.296c-0.513,0-0.919,0.359-1.062,0.792    c-0.045,0.108-0.054,0.225-0.054,0.378v2.629h-0.792V181.402z"/>
		<path d="M150.424,185.579c0,1.611-1.116,2.313-2.17,2.313c-1.179,0-2.089-0.864-2.089-2.241c0-1.458,0.955-2.313,2.161-2.313    C149.577,183.338,150.424,184.247,150.424,185.579z M146.967,185.624c0,0.954,0.549,1.675,1.323,1.675    c0.756,0,1.323-0.711,1.323-1.692c0-0.738-0.369-1.675-1.306-1.675C147.372,183.932,146.967,184.796,146.967,185.624z"/>
		<path d="M155.122,186.605c0,0.45,0.009,0.847,0.035,1.188h-0.701l-0.045-0.711h-0.019c-0.207,0.351-0.667,0.81-1.44,0.81    c-0.685,0-1.504-0.378-1.504-1.908v-2.548h0.793v2.413c0,0.828,0.252,1.386,0.972,1.386c0.531,0,0.9-0.369,1.044-0.72    c0.045-0.117,0.072-0.261,0.072-0.405v-2.674h0.793V186.605z"/>
		<path d="M156.333,186.983c0.234,0.153,0.648,0.315,1.044,0.315c0.576,0,0.847-0.288,0.847-0.648c0-0.378-0.225-0.585-0.811-0.801    c-0.783-0.279-1.152-0.712-1.152-1.233c0-0.702,0.567-1.278,1.504-1.278c0.441,0,0.828,0.126,1.07,0.27l-0.197,0.576    c-0.172-0.107-0.486-0.252-0.892-0.252c-0.468,0-0.729,0.271-0.729,0.595c0,0.359,0.262,0.521,0.828,0.738    c0.757,0.288,1.145,0.666,1.145,1.313c0,0.766-0.595,1.306-1.63,1.306c-0.478,0-0.919-0.117-1.225-0.297L156.333,186.983z"/>
		<path d="M162.524,187.794l-0.062-0.549h-0.027c-0.243,0.342-0.711,0.647-1.332,0.647c-0.883,0-1.333-0.621-1.333-1.251    c0-1.054,0.937-1.63,2.62-1.62v-0.091c0-0.359-0.1-1.008-0.99-1.008c-0.405,0-0.828,0.126-1.135,0.324l-0.18-0.522    c0.359-0.234,0.882-0.387,1.432-0.387c1.332,0,1.656,0.909,1.656,1.782v1.63c0,0.378,0.018,0.747,0.072,1.044H162.524z     M162.407,185.57c-0.864-0.018-1.846,0.135-1.846,0.981c0,0.513,0.342,0.756,0.748,0.756c0.566,0,0.927-0.36,1.053-0.729    c0.027-0.08,0.045-0.171,0.045-0.252V185.57z"/>
		<path d="M164.467,184.616c0-0.45-0.009-0.819-0.036-1.18h0.702l0.045,0.721h0.019c0.216-0.414,0.72-0.819,1.439-0.819    c0.604,0,1.54,0.359,1.54,1.854v2.602h-0.792v-2.512c0-0.702-0.262-1.287-1.008-1.287c-0.523,0-0.928,0.369-1.062,0.81    c-0.037,0.1-0.055,0.234-0.055,0.369v2.62h-0.792V184.616z"/>
		<path d="M173.284,181.402v5.267c0,0.387,0.008,0.828,0.035,1.125h-0.711l-0.036-0.756h-0.019    c-0.242,0.485-0.773,0.854-1.484,0.854c-1.054,0-1.863-0.891-1.863-2.214c-0.01-1.45,0.891-2.341,1.953-2.341    c0.666,0,1.116,0.314,1.314,0.666h0.018v-2.602H173.284z M172.491,185.21c0-0.099-0.009-0.233-0.035-0.333    c-0.117-0.504-0.55-0.918-1.145-0.918c-0.818,0-1.305,0.72-1.305,1.684c0,0.882,0.432,1.611,1.287,1.611    c0.531,0,1.018-0.352,1.162-0.945c0.026-0.108,0.035-0.216,0.035-0.342V185.21z"/>
		<path d="M179.61,187.632c-0.207,0.108-0.666,0.252-1.252,0.252c-1.314,0-2.169-0.891-2.169-2.224c0-1.341,0.918-2.313,2.341-2.313    c0.468,0,0.882,0.117,1.098,0.225l-0.18,0.612c-0.189-0.107-0.486-0.207-0.918-0.207c-1,0-1.539,0.738-1.539,1.647    c0,1.009,0.647,1.63,1.512,1.63c0.45,0,0.747-0.117,0.973-0.216L179.61,187.632z"/>
		<path d="M184.412,185.579c0,1.611-1.116,2.313-2.17,2.313c-1.179,0-2.089-0.864-2.089-2.241c0-1.458,0.955-2.313,2.161-2.313    C183.565,183.338,184.412,184.247,184.412,185.579z M180.955,185.624c0,0.954,0.549,1.675,1.323,1.675    c0.756,0,1.323-0.711,1.323-1.692c0-0.738-0.369-1.675-1.306-1.675C181.36,183.932,180.955,184.796,180.955,185.624z"/>
		<path d="M185.468,184.616c0-0.45-0.009-0.819-0.035-1.18h0.693l0.035,0.702h0.027c0.243-0.414,0.648-0.801,1.368-0.801    c0.595,0,1.044,0.359,1.233,0.873h0.018c0.136-0.243,0.307-0.433,0.486-0.567c0.262-0.198,0.55-0.306,0.964-0.306    c0.576,0,1.431,0.378,1.431,1.891v2.565h-0.773v-2.467c0-0.837-0.307-1.342-0.945-1.342c-0.45,0-0.801,0.334-0.937,0.721    c-0.036,0.108-0.063,0.252-0.063,0.396v2.691h-0.773v-2.61c0-0.693-0.307-1.198-0.91-1.198c-0.494,0-0.854,0.396-0.98,0.793    c-0.045,0.117-0.062,0.252-0.062,0.387v2.629h-0.775V184.616z"/>
		<path d="M192.964,187.794c0.018-0.297,0.035-0.738,0.035-1.125v-5.267h0.783v2.736h0.019c0.278-0.486,0.783-0.801,1.485-0.801    c1.08,0,1.846,0.9,1.836,2.224c0,1.558-0.98,2.331-1.953,2.331c-0.63,0-1.135-0.242-1.458-0.818h-0.027l-0.036,0.72H192.964z     M193.782,186.048c0,0.099,0.019,0.197,0.037,0.288c0.152,0.549,0.611,0.927,1.188,0.927c0.828,0,1.324-0.675,1.324-1.675    c0-0.873-0.451-1.62-1.297-1.62c-0.54,0-1.045,0.369-1.207,0.973c-0.018,0.09-0.045,0.197-0.045,0.324V186.048z"/>
		<path d="M200.618,187.794l-0.062-0.549h-0.027c-0.242,0.342-0.711,0.647-1.332,0.647c-0.883,0-1.332-0.621-1.332-1.251    c0-1.054,0.936-1.63,2.619-1.62v-0.091c0-0.359-0.099-1.008-0.99-1.008c-0.404,0-0.828,0.126-1.135,0.324l-0.18-0.522    c0.36-0.234,0.883-0.387,1.432-0.387c1.332,0,1.656,0.909,1.656,1.782v1.63c0,0.378,0.019,0.747,0.072,1.044H200.618z     M200.502,185.57c-0.864-0.018-1.846,0.135-1.846,0.981c0,0.513,0.342,0.756,0.747,0.756c0.567,0,0.928-0.36,1.053-0.729    c0.027-0.08,0.046-0.171,0.046-0.252V185.57z"/>
		<path d="M203.481,182.186v1.251h1.134v0.604h-1.134v2.35c0,0.54,0.152,0.846,0.594,0.846c0.207,0,0.36-0.026,0.459-0.054    l0.036,0.595c-0.153,0.062-0.396,0.107-0.702,0.107c-0.369,0-0.666-0.117-0.855-0.333c-0.225-0.234-0.306-0.621-0.306-1.134    v-2.377h-0.675v-0.604h0.675v-1.044L203.481,182.186z"/>
		<path d="M208.013,187.794l-0.062-0.549h-0.027c-0.243,0.342-0.711,0.647-1.332,0.647c-0.883,0-1.333-0.621-1.333-1.251    c0-1.054,0.937-1.63,2.62-1.62v-0.091c0-0.359-0.1-1.008-0.99-1.008c-0.405,0-0.828,0.126-1.135,0.324l-0.18-0.522    c0.359-0.234,0.882-0.387,1.432-0.387c1.332,0,1.656,0.909,1.656,1.782v1.63c0,0.378,0.018,0.747,0.072,1.044H208.013z     M207.896,185.57c-0.864-0.018-1.846,0.135-1.846,0.981c0,0.513,0.342,0.756,0.748,0.756c0.566,0,0.927-0.36,1.053-0.729    c0.027-0.08,0.045-0.171,0.045-0.252V185.57z"/>
		<path d="M209.955,184.616c0-0.45-0.009-0.819-0.036-1.18h0.702l0.045,0.721h0.019c0.216-0.414,0.72-0.819,1.439-0.819    c0.604,0,1.54,0.359,1.54,1.854v2.602h-0.792v-2.512c0-0.702-0.262-1.287-1.008-1.287c-0.523,0-0.928,0.369-1.062,0.81    c-0.037,0.1-0.055,0.234-0.055,0.369v2.62h-0.792V184.616z"/>
		<path d="M215.875,182.186v1.251h1.134v0.604h-1.134v2.35c0,0.54,0.153,0.846,0.595,0.846c0.207,0,0.359-0.026,0.459-0.054    l0.035,0.595c-0.152,0.062-0.396,0.107-0.701,0.107c-0.369,0-0.666-0.117-0.855-0.333c-0.225-0.234-0.307-0.621-0.307-1.134    v-2.377h-0.675v-0.604h0.675v-1.044L215.875,182.186z"/>
		<path d="M217.917,186.983c0.234,0.153,0.648,0.315,1.044,0.315c0.576,0,0.847-0.288,0.847-0.648c0-0.378-0.225-0.585-0.811-0.801    c-0.783-0.279-1.152-0.712-1.152-1.233c0-0.702,0.567-1.278,1.504-1.278c0.441,0,0.828,0.126,1.07,0.27l-0.197,0.576    c-0.172-0.107-0.486-0.252-0.892-0.252c-0.468,0-0.729,0.271-0.729,0.595c0,0.359,0.262,0.521,0.828,0.738    c0.757,0.288,1.145,0.666,1.145,1.313c0,0.766-0.595,1.306-1.63,1.306c-0.478,0-0.919-0.117-1.225-0.297L217.917,186.983z"/>
		<path d="M220.839,188.883c0.639-0.891,1.134-2.062,1.134-3.682c0-1.611-0.486-2.764-1.134-3.655h0.611    c0.576,0.738,1.18,1.891,1.18,3.664c0,1.765-0.604,2.908-1.18,3.673H220.839z"/>
	</g>
	<g>
		<path d="M18.436,0.638h-1.862l-0.188,1.254c0.113-0.016,0.218-0.03,0.398-0.03c0.375,0,0.75,0.083,1.051,0.263    c0.383,0.218,0.698,0.639,0.698,1.254c0,0.953-0.758,1.667-1.816,1.667c-0.533,0-0.984-0.15-1.216-0.301l0.165-0.503    c0.203,0.12,0.601,0.271,1.043,0.271c0.623,0,1.156-0.405,1.156-1.059c-0.008-0.631-0.428-1.081-1.404-1.081    c-0.278,0-0.496,0.03-0.676,0.053l0.315-2.343h2.334V0.638z"/>
		<path d="M22.613,2.47c0,1.659-0.616,2.575-1.697,2.575c-0.954,0-1.599-0.894-1.614-2.508C19.303,0.9,20.008,0,20.999,0    C22.028,0,22.613,0.915,22.613,2.47z M19.963,2.545c0,1.269,0.391,1.989,0.991,1.989c0.676,0,0.999-0.788,0.999-2.034    c0-1.201-0.308-1.99-0.991-1.99C20.384,0.51,19.963,1.216,19.963,2.545z"/>
		<path d="M17.565,19.962v-1.329h-2.267v-0.436l2.177-3.115h0.713v3.033h0.683v0.518h-0.683v1.329H17.565z M17.565,18.115v-1.629    c0-0.256,0.007-0.511,0.022-0.766h-0.022c-0.15,0.285-0.271,0.495-0.405,0.721L15.966,18.1v0.016H17.565z"/>
		<path d="M22.283,15.638h-1.862l-0.188,1.254c0.113-0.016,0.218-0.03,0.398-0.03c0.375,0,0.75,0.083,1.051,0.263    c0.383,0.218,0.698,0.639,0.698,1.254c0,0.953-0.758,1.667-1.817,1.667c-0.533,0-0.983-0.15-1.216-0.301l0.165-0.503    c0.203,0.12,0.601,0.271,1.043,0.271c0.623,0,1.156-0.405,1.156-1.059c-0.007-0.631-0.428-1.081-1.404-1.081    c-0.278,0-0.496,0.03-0.676,0.053l0.315-2.343h2.334V15.638z"/>
		<path d="M17.565,34.962v-1.329h-2.267v-0.436l2.177-3.115h0.713v3.033h0.683v0.518h-0.683v1.329H17.565z M17.565,33.115v-1.629    c0-0.256,0.007-0.511,0.022-0.766h-0.022c-0.15,0.285-0.271,0.495-0.405,0.721L15.966,33.1v0.016H17.565z"/>
		<path d="M22.613,32.47c0,1.659-0.616,2.575-1.697,2.575c-0.954,0-1.599-0.894-1.614-2.508c0-1.637,0.706-2.537,1.696-2.537    C22.028,30,22.613,30.915,22.613,32.47z M19.963,32.545c0,1.269,0.391,1.989,0.991,1.989c0.676,0,0.999-0.788,0.999-2.034    c0-1.201-0.308-1.99-0.991-1.99C20.384,30.51,19.963,31.216,19.963,32.545z"/>
		<path d="M15.681,49.204c0.188,0.12,0.623,0.308,1.081,0.308c0.848,0,1.111-0.541,1.104-0.946    c-0.008-0.683-0.623-0.976-1.261-0.976h-0.368v-0.496h0.368c0.48,0,1.088-0.247,1.088-0.825c0-0.391-0.248-0.736-0.855-0.736    c-0.391,0-0.766,0.173-0.976,0.323l-0.173-0.48C15.943,45.188,16.439,45,16.964,45c0.961,0,1.396,0.57,1.396,1.163    c0,0.503-0.3,0.931-0.901,1.148v0.016c0.601,0.12,1.088,0.57,1.088,1.253c0,0.781-0.608,1.465-1.779,1.465    c-0.548,0-1.028-0.173-1.269-0.331L15.681,49.204z"/>
		<path d="M22.283,45.638h-1.862l-0.188,1.254c0.113-0.016,0.218-0.03,0.398-0.03c0.375,0,0.75,0.083,1.051,0.263    c0.383,0.218,0.698,0.639,0.698,1.254c0,0.953-0.758,1.667-1.817,1.667c-0.533,0-0.983-0.15-1.216-0.301l0.165-0.503    c0.203,0.12,0.601,0.271,1.043,0.271c0.623,0,1.156-0.405,1.156-1.059c-0.007-0.631-0.428-1.081-1.404-1.081    c-0.278,0-0.496,0.03-0.676,0.053l0.315-2.343h2.334V45.638z"/>
		<path d="M15.681,64.204c0.188,0.12,0.623,0.308,1.081,0.308c0.848,0,1.111-0.541,1.104-0.946    c-0.008-0.683-0.623-0.976-1.261-0.976h-0.368v-0.496h0.368c0.48,0,1.088-0.247,1.088-0.825c0-0.391-0.248-0.736-0.855-0.736    c-0.391,0-0.766,0.173-0.976,0.323l-0.173-0.48C15.943,60.188,16.439,60,16.964,60c0.961,0,1.396,0.57,1.396,1.163    c0,0.503-0.3,0.931-0.901,1.148v0.016c0.601,0.12,1.088,0.57,1.088,1.253c0,0.781-0.608,1.465-1.779,1.465    c-0.548,0-1.028-0.173-1.269-0.331L15.681,64.204z"/>
		<path d="M22.613,62.47c0,1.659-0.616,2.575-1.697,2.575c-0.954,0-1.599-0.894-1.614-2.508c0-1.637,0.706-2.537,1.696-2.537    C22.028,60,22.613,60.915,22.613,62.47z M19.963,62.545c0,1.269,0.391,1.989,0.991,1.989c0.676,0,0.999-0.788,0.999-2.034    c0-1.201-0.308-1.99-0.991-1.99C20.384,60.51,19.963,61.216,19.963,62.545z"/>
		<path d="M15.523,79.962v-0.405l0.518-0.503c1.246-1.187,1.809-1.817,1.816-2.553c0-0.495-0.24-0.953-0.968-0.953    c-0.443,0-0.811,0.225-1.036,0.413l-0.21-0.466C15.981,75.21,16.461,75,17.024,75c1.051,0,1.494,0.721,1.494,1.418    c0,0.901-0.653,1.63-1.682,2.62l-0.391,0.36v0.016h2.192v0.548H15.523z"/>
		<path d="M22.283,75.638h-1.862l-0.188,1.254c0.113-0.016,0.218-0.03,0.398-0.03c0.375,0,0.75,0.083,1.051,0.263    c0.383,0.218,0.698,0.639,0.698,1.254c0,0.953-0.758,1.667-1.817,1.667c-0.533,0-0.983-0.15-1.216-0.301l0.165-0.503    c0.203,0.12,0.601,0.271,1.043,0.271c0.623,0,1.156-0.405,1.156-1.059c-0.007-0.631-0.428-1.081-1.404-1.081    c-0.278,0-0.496,0.03-0.676,0.053l0.315-2.343h2.334V75.638z"/>
		<path d="M15.523,94.962v-0.405l0.518-0.503c1.246-1.187,1.809-1.817,1.816-2.553c0-0.495-0.24-0.953-0.968-0.953    c-0.443,0-0.811,0.225-1.036,0.413l-0.21-0.466C15.981,90.21,16.461,90,17.024,90c1.051,0,1.494,0.721,1.494,1.418    c0,0.901-0.653,1.63-1.682,2.62l-0.391,0.36v0.016h2.192v0.548H15.523z"/>
		<path d="M22.613,92.47c0,1.659-0.616,2.575-1.697,2.575c-0.954,0-1.599-0.894-1.614-2.508c0-1.637,0.706-2.537,1.696-2.537    C22.028,90,22.613,90.915,22.613,92.47z M19.963,92.545c0,1.269,0.391,1.989,0.991,1.989c0.676,0,0.999-0.788,0.999-2.034    c0-1.201-0.308-1.99-0.991-1.99C20.384,90.51,19.963,91.216,19.963,92.545z"/>
		<path d="M16.957,105.697h-0.015l-0.849,0.458l-0.127-0.503l1.066-0.57h0.563v4.88h-0.638V105.697z"/>
		<path d="M22.283,105.638h-1.862l-0.188,1.254c0.113-0.016,0.218-0.03,0.398-0.03c0.375,0,0.75,0.083,1.051,0.263    c0.383,0.218,0.698,0.639,0.698,1.254c0,0.953-0.758,1.667-1.817,1.667c-0.533,0-0.983-0.15-1.216-0.301l0.165-0.503    c0.203,0.12,0.601,0.271,1.043,0.271c0.623,0,1.156-0.405,1.156-1.059c-0.007-0.631-0.428-1.081-1.404-1.081    c-0.278,0-0.496,0.03-0.676,0.053l0.315-2.343h2.334V105.638z"/>
		<path d="M16.957,120.697h-0.015l-0.849,0.458l-0.127-0.503l1.066-0.57h0.563v4.88h-0.638V120.697z"/>
		<path d="M22.613,122.47c0,1.659-0.616,2.575-1.697,2.575c-0.954,0-1.599-0.894-1.614-2.508c0-1.637,0.706-2.537,1.696-2.537    C22.028,120,22.613,120.915,22.613,122.47z M19.963,122.545c0,1.269,0.391,1.989,0.991,1.989c0.676,0,0.999-0.788,0.999-2.034    c0-1.201-0.308-1.99-0.991-1.99C20.384,120.51,19.963,121.216,19.963,122.545z"/>
		<path d="M22.283,135.638h-1.862l-0.188,1.254c0.113-0.016,0.218-0.03,0.398-0.03c0.375,0,0.75,0.083,1.051,0.263    c0.383,0.218,0.698,0.639,0.698,1.254c0,0.953-0.758,1.667-1.816,1.667c-0.533,0-0.984-0.15-1.216-0.301l0.165-0.503    c0.203,0.12,0.601,0.271,1.043,0.271c0.623,0,1.156-0.405,1.156-1.059c-0.008-0.631-0.428-1.081-1.404-1.081    c-0.278,0-0.496,0.03-0.676,0.053l0.315-2.343h2.334V135.638z"/>
		<path d="M22.614,152.47c0,1.659-0.616,2.575-1.697,2.575c-0.953,0-1.599-0.894-1.614-2.508C19.303,150.9,20.009,150,21,150    C22.028,150,22.614,150.915,22.614,152.47z M19.964,152.545c0,1.269,0.39,1.989,0.991,1.989c0.676,0,0.999-0.788,0.999-2.034    c0-1.201-0.308-1.99-0.991-1.99C20.384,150.51,19.964,151.216,19.964,152.545z"/>
	</g>
	<g>
		<path d="M21.642,163.552c0.133,0.908,0.541,1.879,1.502,2.84c0.945,0.944,1.916,1.332,2.824,1.486l-0.366,0.366    c-0.775-0.105-1.815-0.424-2.851-1.459c-1.041-1.051-1.364-2.086-1.476-2.867L21.642,163.552z"/>
		<path d="M26.2,162.837c1.174,1.173,1.385,2.256,0.621,3.021c-0.674,0.674-1.763,0.499-2.914-0.631    c-1.158-1.158-1.295-2.294-0.596-2.994C24.04,161.505,25.101,161.738,26.2,162.837z M24.38,164.764    c0.896,0.897,1.683,1.131,2.107,0.707c0.478-0.478,0.148-1.264-0.732-2.145c-0.85-0.85-1.625-1.19-2.108-0.707    C23.237,163.028,23.44,163.824,24.38,164.764z"/>
		<path d="M28.889,164.98c-0.196-0.43-0.622-1.142-0.95-1.587l0.467-0.574c0.33,0.574,0.686,1.396,0.785,1.793L28.889,164.98z"/>
		<path d="M29.613,156.833l-1.316,1.316l0.754,1.02c0.068-0.091,0.133-0.176,0.26-0.303c0.266-0.266,0.589-0.472,0.929-0.558    c0.426-0.117,0.945-0.042,1.381,0.393c0.674,0.674,0.643,1.715-0.105,2.463c-0.377,0.377-0.803,0.59-1.073,0.648l-0.239-0.473    c0.229-0.059,0.616-0.233,0.93-0.547c0.44-0.44,0.531-1.104,0.068-1.566c-0.451-0.44-1.066-0.462-1.756,0.229    c-0.197,0.196-0.33,0.372-0.441,0.515l-1.434-1.88l1.65-1.651L29.613,156.833z"/>
		<path d="M33.841,160.005c-0.148-0.902-0.547-1.884-1.502-2.839c-0.95-0.95-1.916-1.343-2.824-1.487l0.361-0.361    c0.774,0.096,1.811,0.419,2.855,1.465c1.041,1.04,1.359,2.071,1.471,2.861L33.841,160.005z"/>
	</g>
	<g>
		<path d="M31.921,166.272c0.133,0.908,0.542,1.879,1.503,2.84c0.944,0.944,1.915,1.333,2.823,1.486l-0.366,0.367    c-0.774-0.106-1.815-0.425-2.851-1.459c-1.04-1.051-1.363-2.086-1.476-2.867L31.921,166.272z"/>
		<path d="M34.95,164.496l-1.316,1.316l0.754,1.02c0.069-0.091,0.133-0.176,0.261-0.303c0.265-0.265,0.589-0.472,0.929-0.557    c0.425-0.117,0.945-0.042,1.38,0.393c0.674,0.674,0.643,1.715-0.106,2.463c-0.376,0.376-0.801,0.589-1.071,0.647l-0.239-0.473    c0.229-0.058,0.615-0.233,0.93-0.546c0.439-0.44,0.53-1.104,0.068-1.566c-0.451-0.44-1.066-0.461-1.757,0.229    c-0.196,0.196-0.329,0.372-0.44,0.515l-1.434-1.879l1.65-1.651L34.95,164.496z"/>
		<path d="M39.169,167.7c-0.197-0.43-0.623-1.142-0.951-1.588l0.467-0.573c0.33,0.574,0.686,1.396,0.785,1.794L39.169,167.7z"/>
		<path d="M38.89,160.642l-0.011,0.01l-0.276,0.924l-0.445-0.265l0.35-1.157l0.398-0.398l3.451,3.451l-0.451,0.451L38.89,160.642z"/>
		<path d="M44.143,157.895c1.173,1.173,1.386,2.256,0.62,3.021c-0.674,0.674-1.762,0.499-2.914-0.632    c-1.157-1.158-1.295-2.293-0.594-2.994C41.981,156.562,43.044,156.796,44.143,157.895z M42.321,159.822    c0.897,0.897,1.684,1.131,2.107,0.706c0.479-0.478,0.148-1.264-0.732-2.145c-0.85-0.85-1.625-1.189-2.107-0.706    C41.18,158.086,41.382,158.882,42.321,159.822z"/>
		<path d="M46.841,160.005c-0.148-0.902-0.547-1.884-1.502-2.839c-0.95-0.95-1.916-1.343-2.824-1.487l0.361-0.361    c0.774,0.096,1.811,0.419,2.855,1.465c1.041,1.04,1.359,2.071,1.471,2.861L46.841,160.005z"/>
	</g>
	<g>
		<path d="M42.2,168.994c0.133,0.907,0.542,1.879,1.503,2.84c0.944,0.944,1.915,1.333,2.823,1.486l-0.366,0.366    c-0.774-0.106-1.815-0.425-2.851-1.459c-1.04-1.051-1.363-2.086-1.476-2.867L42.2,168.994z"/>
		<path d="M44.226,168.305l-0.01,0.01l-0.276,0.924l-0.446-0.265l0.352-1.157l0.397-0.398l3.45,3.451l-0.451,0.451L44.226,168.305z"/>
		<path d="M49.479,165.558c1.174,1.173,1.385,2.256,0.621,3.021c-0.674,0.674-1.763,0.499-2.914-0.631    c-1.158-1.158-1.295-2.294-0.596-2.994C47.319,164.226,48.38,164.459,49.479,165.558z M47.659,167.485    c0.896,0.897,1.682,1.131,2.107,0.707c0.478-0.478,0.148-1.264-0.732-2.145c-0.85-0.85-1.625-1.19-2.108-0.707    C46.517,165.749,46.72,166.545,47.659,167.485z"/>
		<path d="M52.168,167.701c-0.196-0.43-0.622-1.142-0.95-1.587l0.467-0.574c0.33,0.574,0.686,1.396,0.785,1.793L52.168,167.701z"/>
		<path d="M51.89,160.642l-0.012,0.011l-0.275,0.924l-0.446-0.265l0.351-1.157l0.398-0.398l3.45,3.451l-0.45,0.451L51.89,160.642z"/>
		<path d="M55.612,156.834l-1.316,1.316l0.754,1.02c0.069-0.091,0.133-0.176,0.261-0.303c0.266-0.266,0.589-0.472,0.929-0.557    c0.426-0.117,0.945-0.042,1.381,0.393c0.674,0.674,0.642,1.715-0.107,2.464c-0.376,0.376-0.801,0.589-1.071,0.647l-0.239-0.473    c0.229-0.058,0.615-0.233,0.93-0.546c0.439-0.44,0.53-1.104,0.068-1.566c-0.451-0.441-1.066-0.461-1.757,0.229    c-0.196,0.196-0.329,0.371-0.44,0.515l-1.434-1.879l1.65-1.651L55.612,156.834z"/>
		<path d="M59.841,160.006c-0.148-0.903-0.547-1.885-1.502-2.84c-0.95-0.95-1.916-1.343-2.824-1.486l0.361-0.361    c0.774,0.095,1.81,0.419,2.855,1.465c1.04,1.04,1.359,2.07,1.471,2.861L59.841,160.006z"/>
	</g>
	<g>
		<path d="M55.2,168.994c0.133,0.907,0.542,1.879,1.503,2.84c0.944,0.944,1.915,1.333,2.823,1.486l-0.366,0.366    c-0.774-0.106-1.815-0.425-2.851-1.459c-1.04-1.051-1.363-2.086-1.476-2.867L55.2,168.994z"/>
		<path d="M57.226,168.305l-0.01,0.01l-0.276,0.924l-0.446-0.265l0.352-1.157l0.397-0.398l3.45,3.451l-0.451,0.451L57.226,168.305z"/>
		<path d="M60.95,164.497l-1.316,1.316l0.754,1.019c0.068-0.091,0.133-0.175,0.26-0.303c0.266-0.266,0.59-0.472,0.93-0.558    c0.424-0.116,0.945-0.042,1.38,0.393c0.674,0.674,0.643,1.715-0.106,2.463c-0.377,0.377-0.801,0.59-1.072,0.647l-0.238-0.473    c0.228-0.058,0.615-0.233,0.929-0.546c0.44-0.44,0.53-1.104,0.069-1.566c-0.451-0.44-1.066-0.462-1.758,0.229    c-0.195,0.196-0.328,0.371-0.439,0.515l-1.434-1.88l1.65-1.65L60.95,164.497z"/>
		<path d="M65.168,167.701c-0.196-0.43-0.622-1.142-0.95-1.587l0.467-0.574c0.33,0.574,0.686,1.396,0.785,1.793L65.168,167.701z"/>
		<path d="M66.891,164.671l-0.286-0.287l0.01-0.722c0.043-1.72-0.006-2.564-0.52-3.09c-0.351-0.35-0.844-0.504-1.359,0.011    c-0.312,0.313-0.414,0.731-0.44,1.024l-0.478-0.181c0.037-0.44,0.229-0.929,0.626-1.327c0.743-0.743,1.566-0.547,2.06-0.054    c0.637,0.637,0.69,1.614,0.664,3.042l-0.021,0.531l0.011,0.011l1.55-1.55l0.388,0.387L66.891,164.671z"/>
		<path d="M70.142,157.896c1.174,1.173,1.386,2.256,0.621,3.021c-0.674,0.674-1.762,0.499-2.914-0.632    c-1.157-1.158-1.295-2.293-0.595-2.994C67.981,156.563,69.043,156.796,70.142,157.896z M68.321,159.823    c0.896,0.897,1.683,1.131,2.107,0.706c0.479-0.478,0.148-1.264-0.732-2.145c-0.85-0.85-1.625-1.189-2.107-0.707    C67.18,158.086,67.382,158.883,68.321,159.823z"/>
		<path d="M72.841,160.006c-0.148-0.903-0.547-1.885-1.502-2.84c-0.95-0.95-1.916-1.343-2.824-1.486l0.361-0.361    c0.774,0.095,1.81,0.419,2.855,1.465c1.04,1.04,1.359,2.07,1.471,2.861L72.841,160.006z"/>
	</g>
	<g>
		<path d="M68.2,168.994c0.133,0.907,0.542,1.879,1.503,2.84c0.944,0.944,1.915,1.333,2.823,1.486l-0.366,0.366    c-0.774-0.106-1.815-0.425-2.851-1.459c-1.04-1.051-1.363-2.086-1.476-2.867L68.2,168.994z"/>
		<path d="M72.228,172.334l-0.286-0.287l0.011-0.722c0.043-1.72-0.006-2.564-0.521-3.09c-0.351-0.35-0.843-0.504-1.358,0.011    c-0.313,0.313-0.414,0.732-0.441,1.025l-0.478-0.181c0.037-0.44,0.229-0.929,0.626-1.327c0.744-0.743,1.566-0.546,2.06-0.053    c0.638,0.637,0.69,1.614,0.663,3.042l-0.021,0.531l0.011,0.011l1.551-1.55l0.387,0.387L72.228,172.334z"/>
		<path d="M75.479,165.558c1.174,1.173,1.385,2.256,0.621,3.021c-0.674,0.674-1.763,0.499-2.914-0.631    c-1.158-1.158-1.295-2.294-0.596-2.994C73.319,164.226,74.38,164.459,75.479,165.558z M73.659,167.485    c0.896,0.897,1.682,1.131,2.107,0.707c0.478-0.478,0.148-1.264-0.732-2.145c-0.85-0.85-1.625-1.19-2.108-0.707    C72.517,165.749,72.72,166.545,73.659,167.485z"/>
		<path d="M78.168,167.701c-0.196-0.43-0.622-1.142-0.95-1.587l0.467-0.574c0.33,0.574,0.686,1.396,0.785,1.793L78.168,167.701z"/>
		<path d="M79.891,164.671l-0.286-0.287l0.01-0.722c0.043-1.72-0.006-2.564-0.52-3.09c-0.351-0.35-0.844-0.504-1.359,0.011    c-0.312,0.313-0.414,0.731-0.44,1.024l-0.478-0.181c0.037-0.44,0.229-0.929,0.626-1.327c0.743-0.743,1.566-0.547,2.06-0.054    c0.637,0.637,0.69,1.614,0.664,3.042l-0.021,0.531l0.011,0.011l1.55-1.55l0.388,0.387L79.891,164.671z"/>
		<path d="M81.612,156.834l-1.316,1.316l0.754,1.02c0.069-0.091,0.133-0.176,0.261-0.303c0.266-0.266,0.589-0.472,0.929-0.557    c0.426-0.117,0.945-0.042,1.381,0.393c0.674,0.674,0.642,1.715-0.107,2.464c-0.376,0.376-0.801,0.589-1.071,0.647l-0.239-0.473    c0.229-0.058,0.615-0.233,0.93-0.546c0.439-0.44,0.53-1.104,0.068-1.566c-0.451-0.441-1.066-0.461-1.757,0.229    c-0.196,0.196-0.329,0.371-0.44,0.515l-1.434-1.879l1.65-1.651L81.612,156.834z"/>
		<path d="M85.841,160.006c-0.148-0.903-0.547-1.885-1.502-2.84c-0.95-0.95-1.916-1.343-2.824-1.486l0.361-0.361    c0.774,0.095,1.81,0.419,2.855,1.465c1.04,1.04,1.359,2.07,1.471,2.861L85.841,160.006z"/>
	</g>
	<g>
		<path d="M81.2,168.994c0.133,0.907,0.542,1.879,1.503,2.84c0.944,0.944,1.915,1.333,2.823,1.486l-0.366,0.366    c-0.774-0.106-1.815-0.425-2.851-1.459c-1.04-1.051-1.363-2.086-1.476-2.867L81.2,168.994z"/>
		<path d="M85.228,172.334l-0.286-0.287l0.011-0.722c0.043-1.72-0.006-2.564-0.521-3.09c-0.351-0.35-0.843-0.504-1.358,0.011    c-0.313,0.313-0.414,0.732-0.441,1.025l-0.478-0.181c0.037-0.44,0.229-0.929,0.626-1.327c0.744-0.743,1.566-0.546,2.06-0.053    c0.638,0.637,0.69,1.614,0.663,3.042l-0.021,0.531l0.011,0.011l1.551-1.55l0.387,0.387L85.228,172.334z"/>
		<path d="M86.95,164.497l-1.316,1.316l0.754,1.019c0.068-0.091,0.133-0.175,0.26-0.303c0.266-0.266,0.59-0.472,0.93-0.558    c0.424-0.116,0.945-0.042,1.38,0.393c0.674,0.674,0.643,1.715-0.106,2.463c-0.377,0.377-0.801,0.59-1.072,0.647l-0.238-0.473    c0.228-0.058,0.615-0.233,0.929-0.546c0.44-0.44,0.53-1.104,0.069-1.566c-0.451-0.44-1.066-0.462-1.758,0.229    c-0.195,0.196-0.328,0.371-0.439,0.515l-1.434-1.88l1.65-1.65L86.95,164.497z"/>
		<path d="M91.168,167.701c-0.196-0.43-0.622-1.142-0.95-1.587l0.467-0.574c0.33,0.574,0.686,1.396,0.785,1.793L91.168,167.701z"/>
		<path d="M92.466,164.024c0.219-0.048,0.658-0.224,0.982-0.547c0.6-0.6,0.403-1.168,0.111-1.449    c-0.488-0.478-1.131-0.25-1.582,0.202l-0.26,0.26l-0.351-0.351l0.26-0.26c0.34-0.34,0.595-0.945,0.187-1.354    c-0.276-0.276-0.696-0.346-1.126,0.084c-0.276,0.276-0.419,0.665-0.462,0.919l-0.462-0.218c0.048-0.313,0.266-0.796,0.638-1.167    c0.68-0.68,1.391-0.584,1.811-0.165c0.355,0.355,0.445,0.871,0.174,1.449l0.012,0.011c0.51-0.34,1.172-0.367,1.655,0.116    c0.552,0.552,0.606,1.465-0.223,2.294c-0.388,0.387-0.849,0.605-1.131,0.663L92.466,164.024z"/>
		<path d="M96.142,157.896c1.174,1.173,1.386,2.256,0.621,3.021c-0.674,0.674-1.762,0.499-2.914-0.632    c-1.157-1.158-1.295-2.293-0.595-2.994C93.981,156.563,95.043,156.796,96.142,157.896z M94.321,159.823    c0.896,0.897,1.683,1.131,2.107,0.706c0.479-0.478,0.148-1.264-0.732-2.145c-0.85-0.85-1.625-1.189-2.107-0.707    C93.18,158.086,93.382,158.883,94.321,159.823z"/>
		<path d="M98.841,160.006c-0.148-0.903-0.547-1.885-1.502-2.84c-0.95-0.95-1.916-1.343-2.824-1.486l0.361-0.361    c0.774,0.095,1.81,0.419,2.855,1.465c1.04,1.04,1.359,2.07,1.471,2.861L98.841,160.006z"/>
	</g>
	<g>
		<path d="M94.2,168.994c0.133,0.907,0.542,1.879,1.503,2.84c0.944,0.944,1.915,1.333,2.823,1.486l-0.366,0.366    c-0.774-0.106-1.815-0.425-2.851-1.459c-1.04-1.051-1.363-2.086-1.476-2.867L94.2,168.994z"/>
		<path d="M97.804,171.687c0.218-0.048,0.658-0.224,0.982-0.547c0.6-0.6,0.402-1.168,0.111-1.449    c-0.488-0.478-1.131-0.25-1.582,0.202l-0.261,0.261l-0.351-0.351l0.261-0.261c0.339-0.339,0.595-0.944,0.187-1.353    c-0.277-0.276-0.697-0.346-1.127,0.084c-0.275,0.276-0.419,0.664-0.461,0.918l-0.463-0.218c0.049-0.313,0.267-0.796,0.638-1.167    c0.68-0.68,1.392-0.584,1.811-0.165c0.355,0.355,0.446,0.871,0.175,1.449l0.012,0.011c0.509-0.34,1.172-0.367,1.654,0.116    c0.553,0.552,0.606,1.465-0.222,2.293c-0.388,0.388-0.85,0.605-1.131,0.663L97.804,171.687z"/>
		<path d="M101.479,165.558c1.174,1.173,1.385,2.256,0.621,3.021c-0.674,0.674-1.763,0.499-2.914-0.631    c-1.158-1.158-1.295-2.294-0.596-2.994C99.319,164.226,100.38,164.459,101.479,165.558z M99.659,167.485    c0.896,0.897,1.682,1.131,2.107,0.707c0.478-0.478,0.148-1.264-0.732-2.145c-0.85-0.85-1.625-1.19-2.108-0.707    C98.517,165.749,98.72,166.545,99.659,167.485z"/>
		<path d="M104.168,167.701c-0.196-0.43-0.622-1.142-0.95-1.587l0.467-0.574c0.33,0.574,0.686,1.396,0.785,1.793L104.168,167.701z"/>
		<path d="M105.466,164.024c0.219-0.048,0.658-0.224,0.982-0.547c0.6-0.6,0.403-1.168,0.111-1.449    c-0.488-0.478-1.131-0.25-1.582,0.202l-0.26,0.26l-0.351-0.351l0.26-0.26c0.34-0.34,0.595-0.945,0.187-1.354    c-0.276-0.276-0.696-0.346-1.126,0.084c-0.276,0.276-0.419,0.665-0.462,0.919l-0.462-0.218c0.048-0.313,0.266-0.796,0.638-1.167    c0.68-0.68,1.391-0.584,1.811-0.165c0.355,0.355,0.445,0.871,0.174,1.449l0.012,0.011c0.51-0.34,1.172-0.367,1.655,0.116    c0.552,0.552,0.606,1.465-0.223,2.294c-0.388,0.387-0.849,0.605-1.131,0.663L105.466,164.024z"/>
		<path d="M107.612,156.834l-1.316,1.316l0.754,1.02c0.069-0.091,0.133-0.176,0.261-0.303c0.266-0.266,0.589-0.472,0.929-0.557    c0.426-0.117,0.945-0.042,1.381,0.393c0.674,0.674,0.642,1.715-0.107,2.464c-0.376,0.376-0.801,0.589-1.071,0.647l-0.239-0.473    c0.229-0.058,0.615-0.233,0.93-0.546c0.439-0.44,0.53-1.104,0.068-1.566c-0.451-0.441-1.066-0.461-1.757,0.229    c-0.196,0.196-0.329,0.371-0.44,0.515l-1.434-1.879l1.65-1.651L107.612,156.834z"/>
		<path d="M111.841,160.006c-0.148-0.903-0.547-1.885-1.502-2.84c-0.95-0.95-1.916-1.343-2.824-1.486l0.361-0.361    c0.774,0.095,1.81,0.419,2.855,1.465c1.04,1.04,1.359,2.07,1.471,2.861L111.841,160.006z"/>
	</g>
	<g>
		<path d="M107.2,168.994c0.133,0.907,0.542,1.879,1.503,2.84c0.944,0.944,1.915,1.333,2.823,1.486l-0.366,0.366    c-0.774-0.106-1.815-0.425-2.851-1.459c-1.04-1.051-1.363-2.086-1.476-2.867L107.2,168.994z"/>
		<path d="M110.804,171.687c0.218-0.048,0.658-0.224,0.982-0.547c0.6-0.6,0.402-1.168,0.111-1.449    c-0.488-0.478-1.131-0.25-1.582,0.202l-0.261,0.261l-0.351-0.351l0.261-0.261c0.339-0.339,0.595-0.944,0.187-1.353    c-0.277-0.276-0.697-0.346-1.127,0.084c-0.275,0.276-0.419,0.664-0.461,0.918l-0.463-0.218c0.049-0.313,0.267-0.796,0.638-1.167    c0.68-0.68,1.392-0.584,1.811-0.165c0.355,0.355,0.446,0.871,0.175,1.449l0.012,0.011c0.509-0.34,1.172-0.367,1.654,0.116    c0.553,0.552,0.606,1.465-0.222,2.293c-0.388,0.388-0.85,0.605-1.131,0.663L110.804,171.687z"/>
		<path d="M112.95,164.497l-1.316,1.316l0.754,1.019c0.068-0.091,0.133-0.175,0.26-0.303c0.266-0.266,0.59-0.472,0.93-0.558    c0.424-0.116,0.945-0.042,1.38,0.393c0.674,0.674,0.643,1.715-0.106,2.463c-0.377,0.377-0.801,0.59-1.072,0.647l-0.238-0.473    c0.228-0.058,0.615-0.233,0.929-0.546c0.44-0.44,0.53-1.104,0.069-1.566c-0.451-0.44-1.066-0.462-1.758,0.229    c-0.195,0.196-0.328,0.371-0.439,0.515l-1.434-1.88l1.65-1.65L112.95,164.497z"/>
		<path d="M117.168,167.701c-0.196-0.43-0.622-1.142-0.95-1.587l0.467-0.574c0.33,0.574,0.686,1.396,0.785,1.793L117.168,167.701z"/>
		<path d="M120.335,163.228l-0.94-0.94l-1.603,1.603l-0.309-0.308l-0.664-3.742l0.505-0.504l2.146,2.145l0.482-0.483l0.366,0.366    l-0.483,0.483l0.939,0.94L120.335,163.228z M119.028,161.922l-1.151-1.152c-0.181-0.181-0.356-0.367-0.525-0.558l-0.017,0.016    c0.096,0.308,0.159,0.542,0.224,0.796l0.328,2.017l0.011,0.011L119.028,161.922z"/>
		<path d="M122.142,157.896c1.174,1.173,1.386,2.256,0.621,3.021c-0.674,0.674-1.762,0.499-2.914-0.632    c-1.157-1.158-1.295-2.293-0.595-2.994C119.981,156.563,121.043,156.796,122.142,157.896z M120.321,159.823    c0.896,0.897,1.683,1.131,2.107,0.706c0.479-0.478,0.148-1.264-0.732-2.145c-0.85-0.85-1.625-1.189-2.107-0.707    C119.18,158.086,119.382,158.883,120.321,159.823z"/>
		<path d="M124.841,160.006c-0.148-0.903-0.547-1.885-1.502-2.84c-0.95-0.95-1.916-1.343-2.824-1.486l0.361-0.361    c0.774,0.095,1.81,0.419,2.855,1.465c1.04,1.04,1.359,2.07,1.471,2.861L124.841,160.006z"/>
	</g>
	<g>
		<path d="M120.2,168.994c0.133,0.907,0.542,1.879,1.503,2.84c0.944,0.944,1.915,1.333,2.823,1.486l-0.366,0.366    c-0.774-0.106-1.815-0.425-2.851-1.459c-1.04-1.051-1.363-2.086-1.476-2.867L120.2,168.994z"/>
		<path d="M125.672,170.89l-0.94-0.94l-1.603,1.603l-0.308-0.308l-0.664-3.742l0.504-0.504l2.146,2.145l0.483-0.483l0.365,0.366    l-0.482,0.483l0.939,0.94L125.672,170.89z M124.366,169.584l-1.152-1.152c-0.181-0.181-0.355-0.367-0.525-0.558l-0.016,0.016    c0.096,0.308,0.158,0.542,0.223,0.796l0.328,2.017l0.012,0.011L124.366,169.584z"/>
		<path d="M127.479,165.558c1.174,1.173,1.385,2.256,0.621,3.021c-0.674,0.674-1.763,0.499-2.914-0.631    c-1.158-1.158-1.295-2.294-0.596-2.994C125.319,164.226,126.38,164.459,127.479,165.558z M125.659,167.485    c0.896,0.897,1.682,1.131,2.107,0.707c0.478-0.478,0.148-1.264-0.732-2.145c-0.85-0.85-1.625-1.19-2.108-0.707    C124.517,165.749,124.72,166.545,125.659,167.485z"/>
		<path d="M130.168,167.701c-0.196-0.43-0.622-1.142-0.95-1.587l0.467-0.574c0.33,0.574,0.686,1.396,0.785,1.793L130.168,167.701z"/>
		<path d="M133.335,163.228l-0.94-0.94l-1.603,1.603l-0.309-0.308l-0.664-3.742l0.505-0.504l2.146,2.145l0.482-0.483l0.366,0.366    l-0.483,0.483l0.939,0.94L133.335,163.228z M132.028,161.922l-1.151-1.152c-0.181-0.181-0.356-0.367-0.525-0.558l-0.017,0.016    c0.096,0.308,0.159,0.542,0.224,0.796l0.328,2.017l0.011,0.011L132.028,161.922z"/>
		<path d="M133.612,156.834l-1.316,1.316l0.754,1.02c0.069-0.091,0.133-0.176,0.261-0.303c0.266-0.266,0.589-0.472,0.929-0.557    c0.426-0.117,0.945-0.042,1.381,0.393c0.674,0.674,0.642,1.715-0.107,2.464c-0.376,0.376-0.801,0.589-1.071,0.647l-0.239-0.473    c0.229-0.058,0.615-0.233,0.93-0.546c0.439-0.44,0.53-1.104,0.068-1.566c-0.451-0.441-1.066-0.461-1.757,0.229    c-0.196,0.196-0.329,0.371-0.44,0.515l-1.434-1.879l1.65-1.651L133.612,156.834z"/>
		<path d="M137.841,160.006c-0.148-0.903-0.547-1.885-1.502-2.84c-0.95-0.95-1.916-1.343-2.824-1.486l0.361-0.361    c0.774,0.095,1.81,0.419,2.855,1.465c1.04,1.04,1.359,2.07,1.471,2.861L137.841,160.006z"/>
	</g>
	<g>
		<path d="M133.2,168.994c0.133,0.907,0.542,1.879,1.503,2.84c0.944,0.944,1.915,1.333,2.823,1.486l-0.366,0.366    c-0.774-0.106-1.815-0.425-2.851-1.459c-1.04-1.051-1.363-2.086-1.476-2.867L133.2,168.994z"/>
		<path d="M138.672,170.89l-0.94-0.94l-1.603,1.603l-0.308-0.308l-0.664-3.742l0.504-0.504l2.146,2.145l0.483-0.483l0.365,0.366    l-0.482,0.483l0.939,0.94L138.672,170.89z M137.366,169.584l-1.152-1.152c-0.181-0.181-0.355-0.367-0.525-0.558l-0.016,0.016    c0.096,0.308,0.158,0.542,0.223,0.796l0.328,2.017l0.012,0.011L137.366,169.584z"/>
		<path d="M138.95,164.497l-1.316,1.316l0.754,1.019c0.068-0.091,0.133-0.175,0.26-0.303c0.266-0.266,0.59-0.472,0.93-0.558    c0.424-0.116,0.945-0.042,1.38,0.393c0.674,0.674,0.643,1.715-0.106,2.463c-0.377,0.377-0.801,0.59-1.072,0.647l-0.238-0.473    c0.228-0.058,0.615-0.233,0.929-0.546c0.44-0.44,0.53-1.104,0.069-1.566c-0.451-0.44-1.066-0.462-1.758,0.229    c-0.195,0.196-0.328,0.371-0.439,0.515l-1.434-1.88l1.65-1.65L138.95,164.497z"/>
		<path d="M143.168,167.701c-0.196-0.43-0.622-1.142-0.95-1.587l0.467-0.574c0.33,0.574,0.686,1.396,0.785,1.793L143.168,167.701z"/>
		<path d="M143.893,159.554l-1.316,1.316l0.754,1.02c0.068-0.091,0.132-0.175,0.26-0.303c0.266-0.266,0.589-0.472,0.929-0.558    c0.425-0.116,0.945-0.042,1.381,0.393c0.674,0.674,0.643,1.715-0.105,2.463c-0.377,0.377-0.803,0.59-1.073,0.648l-0.239-0.473    c0.229-0.059,0.616-0.233,0.93-0.547c0.44-0.44,0.531-1.104,0.068-1.566c-0.451-0.44-1.066-0.462-1.756,0.229    c-0.197,0.196-0.33,0.372-0.441,0.515l-1.434-1.88l1.65-1.651L143.893,159.554z"/>
		<path d="M148.142,157.896c1.174,1.173,1.386,2.256,0.621,3.021c-0.674,0.674-1.762,0.499-2.914-0.632    c-1.157-1.158-1.295-2.293-0.595-2.994C145.981,156.563,147.043,156.796,148.142,157.896z M146.321,159.823    c0.896,0.897,1.683,1.131,2.107,0.706c0.479-0.478,0.148-1.264-0.732-2.145c-0.85-0.85-1.625-1.189-2.107-0.707    C145.18,158.086,145.382,158.883,146.321,159.823z"/>
		<path d="M150.841,160.006c-0.148-0.903-0.547-1.885-1.502-2.84c-0.95-0.95-1.916-1.343-2.824-1.486l0.361-0.361    c0.774,0.095,1.81,0.419,2.855,1.465c1.04,1.04,1.359,2.07,1.471,2.861L150.841,160.006z"/>
	</g>
	<g>
		<path d="M146.2,168.994c0.133,0.907,0.542,1.879,1.503,2.84c0.944,0.944,1.915,1.333,2.823,1.486l-0.366,0.366    c-0.774-0.106-1.815-0.425-2.851-1.459c-1.04-1.051-1.363-2.086-1.476-2.867L146.2,168.994z"/>
		<path d="M149.229,167.217l-1.316,1.316l0.754,1.02c0.069-0.091,0.133-0.176,0.261-0.303c0.265-0.265,0.589-0.472,0.929-0.557    c0.425-0.117,0.945-0.042,1.38,0.393c0.674,0.674,0.643,1.715-0.106,2.463c-0.376,0.376-0.801,0.589-1.071,0.647l-0.239-0.473    c0.229-0.058,0.615-0.233,0.93-0.546c0.439-0.44,0.53-1.104,0.068-1.566c-0.451-0.44-1.066-0.461-1.757,0.229    c-0.196,0.196-0.329,0.372-0.44,0.515l-1.434-1.88l1.65-1.651L149.229,167.217z"/>
		<path d="M153.479,165.558c1.174,1.173,1.385,2.256,0.621,3.021c-0.674,0.674-1.763,0.499-2.914-0.631    c-1.158-1.158-1.295-2.294-0.596-2.994C151.319,164.226,152.38,164.459,153.479,165.558z M151.659,167.485    c0.896,0.897,1.682,1.131,2.107,0.707c0.478-0.478,0.148-1.264-0.732-2.145c-0.85-0.85-1.625-1.19-2.108-0.707    C150.517,165.749,150.72,166.545,151.659,167.485z"/>
		<path d="M156.168,167.701c-0.196-0.43-0.622-1.142-0.95-1.587l0.467-0.574c0.33,0.574,0.686,1.396,0.785,1.793L156.168,167.701z"/>
		<path d="M156.893,159.554l-1.316,1.316l0.754,1.02c0.068-0.091,0.132-0.175,0.26-0.303c0.266-0.266,0.589-0.472,0.929-0.558    c0.425-0.116,0.945-0.042,1.381,0.393c0.674,0.674,0.643,1.715-0.105,2.463c-0.377,0.377-0.803,0.59-1.073,0.648l-0.239-0.473    c0.229-0.059,0.616-0.233,0.93-0.547c0.44-0.44,0.531-1.104,0.068-1.566c-0.451-0.44-1.066-0.462-1.756,0.229    c-0.197,0.196-0.33,0.372-0.441,0.515l-1.434-1.88l1.65-1.651L156.893,159.554z"/>
		<path d="M159.612,156.834l-1.316,1.316l0.754,1.02c0.069-0.091,0.133-0.176,0.261-0.303c0.266-0.266,0.589-0.472,0.929-0.557    c0.426-0.117,0.945-0.042,1.381,0.393c0.674,0.674,0.642,1.715-0.107,2.464c-0.376,0.376-0.801,0.589-1.071,0.647l-0.239-0.473    c0.229-0.058,0.615-0.233,0.93-0.546c0.439-0.44,0.53-1.104,0.068-1.566c-0.451-0.441-1.066-0.461-1.757,0.229    c-0.196,0.196-0.329,0.371-0.44,0.515l-1.434-1.879l1.65-1.651L159.612,156.834z"/>
		<path d="M163.841,160.006c-0.148-0.903-0.547-1.885-1.502-2.84c-0.95-0.95-1.916-1.343-2.824-1.486l0.361-0.361    c0.774,0.095,1.81,0.419,2.855,1.465c1.04,1.04,1.359,2.07,1.471,2.861L163.841,160.006z"/>
	</g>
	<g>
		<path d="M159.2,168.994c0.133,0.907,0.542,1.879,1.503,2.84c0.944,0.944,1.915,1.333,2.823,1.486l-0.366,0.366    c-0.774-0.106-1.815-0.425-2.851-1.459c-1.04-1.051-1.363-2.086-1.476-2.867L159.2,168.994z"/>
		<path d="M162.229,167.217l-1.316,1.316l0.754,1.02c0.069-0.091,0.133-0.176,0.261-0.303c0.265-0.265,0.589-0.472,0.929-0.557    c0.425-0.117,0.945-0.042,1.38,0.393c0.674,0.674,0.643,1.715-0.106,2.463c-0.376,0.376-0.801,0.589-1.071,0.647l-0.239-0.473    c0.229-0.058,0.615-0.233,0.93-0.546c0.439-0.44,0.53-1.104,0.068-1.566c-0.451-0.44-1.066-0.461-1.757,0.229    c-0.196,0.196-0.329,0.372-0.44,0.515l-1.434-1.88l1.65-1.651L162.229,167.217z"/>
		<path d="M164.95,164.497l-1.316,1.316l0.754,1.019c0.068-0.091,0.133-0.175,0.26-0.303c0.266-0.266,0.59-0.472,0.93-0.558    c0.424-0.116,0.945-0.042,1.38,0.393c0.674,0.674,0.643,1.715-0.106,2.463c-0.377,0.377-0.801,0.59-1.072,0.647l-0.238-0.473    c0.228-0.058,0.615-0.233,0.929-0.546c0.44-0.44,0.53-1.104,0.069-1.566c-0.451-0.44-1.066-0.462-1.758,0.229    c-0.195,0.196-0.328,0.371-0.439,0.515l-1.434-1.88l1.65-1.65L164.95,164.497z"/>
		<path d="M169.168,167.701c-0.196-0.43-0.622-1.142-0.95-1.587l0.467-0.574c0.33,0.574,0.686,1.396,0.785,1.793L169.168,167.701z"/>
		<path d="M169.739,159.581c-0.102,0.09-0.218,0.217-0.329,0.372c-0.611,0.854-0.462,1.778,0.026,2.425l0.016-0.016    c-0.054-0.382,0.053-0.849,0.436-1.231c0.61-0.61,1.48-0.599,2.154,0.075c0.633,0.632,0.787,1.646,0.07,2.362    c-0.738,0.738-1.795,0.647-2.692-0.25c-0.68-0.68-0.972-1.459-0.972-2.139c0.006-0.568,0.213-1.125,0.596-1.614    c0.116-0.159,0.227-0.281,0.312-0.366L169.739,159.581z M171.597,161.704c-0.493-0.494-1.072-0.51-1.503-0.08    c-0.28,0.281-0.365,0.717-0.243,1.093c0.021,0.085,0.068,0.175,0.153,0.26c0.579,0.558,1.259,0.717,1.747,0.229    C172.154,162.803,172.091,162.197,171.597,161.704z"/>
		<path d="M174.142,157.896c1.174,1.173,1.386,2.256,0.621,3.021c-0.674,0.674-1.762,0.499-2.914-0.632    c-1.157-1.158-1.295-2.293-0.595-2.994C171.981,156.563,173.043,156.796,174.142,157.896z M172.321,159.823    c0.896,0.897,1.683,1.131,2.107,0.706c0.479-0.478,0.148-1.264-0.732-2.145c-0.85-0.85-1.625-1.189-2.107-0.707    C171.18,158.086,171.382,158.883,172.321,159.823z"/>
		<path d="M176.841,160.006c-0.148-0.903-0.547-1.885-1.502-2.84c-0.95-0.95-1.916-1.343-2.824-1.486l0.361-0.361    c0.774,0.095,1.81,0.419,2.855,1.465c1.04,1.04,1.359,2.07,1.471,2.861L176.841,160.006z"/>
	</g>
	<g>
		<path d="M172.2,168.994c0.133,0.907,0.542,1.879,1.503,2.84c0.944,0.944,1.915,1.333,2.823,1.486l-0.366,0.366    c-0.774-0.106-1.815-0.425-2.851-1.459c-1.04-1.051-1.363-2.086-1.476-2.867L172.2,168.994z"/>
		<path d="M175.076,167.244c-0.101,0.089-0.218,0.217-0.329,0.372c-0.61,0.854-0.462,1.778,0.025,2.426l0.018-0.017    c-0.055-0.382,0.053-0.849,0.435-1.231c0.61-0.611,1.481-0.6,2.155,0.074c0.632,0.632,0.786,1.646,0.069,2.362    c-0.737,0.738-1.794,0.647-2.691-0.25c-0.68-0.68-0.972-1.459-0.972-2.139c0.005-0.568,0.213-1.125,0.595-1.614    c0.116-0.159,0.228-0.281,0.312-0.366L175.076,167.244z M176.935,169.367c-0.494-0.494-1.072-0.51-1.503-0.08    c-0.282,0.282-0.366,0.717-0.244,1.094c0.021,0.085,0.069,0.175,0.153,0.26c0.58,0.558,1.259,0.717,1.748,0.229    C177.492,170.465,177.428,169.86,176.935,169.367z"/>
		<path d="M179.479,165.558c1.174,1.173,1.385,2.256,0.621,3.021c-0.674,0.674-1.763,0.499-2.914-0.631    c-1.158-1.158-1.295-2.294-0.596-2.994C177.319,164.226,178.38,164.459,179.479,165.558z M177.659,167.485    c0.896,0.897,1.682,1.131,2.107,0.707c0.478-0.478,0.148-1.264-0.732-2.145c-0.85-0.85-1.625-1.19-2.108-0.707    C176.517,165.749,176.72,166.545,177.659,167.485z"/>
		<path d="M182.168,167.701c-0.196-0.43-0.622-1.142-0.95-1.587l0.467-0.574c0.33,0.574,0.686,1.396,0.785,1.793L182.168,167.701z"/>
		<path d="M182.739,159.581c-0.102,0.09-0.218,0.217-0.329,0.372c-0.611,0.854-0.462,1.778,0.026,2.425l0.016-0.016    c-0.054-0.382,0.053-0.849,0.436-1.231c0.61-0.61,1.48-0.599,2.154,0.075c0.633,0.632,0.787,1.646,0.07,2.362    c-0.738,0.738-1.795,0.647-2.692-0.25c-0.68-0.68-0.972-1.459-0.972-2.139c0.006-0.568,0.213-1.125,0.596-1.614    c0.116-0.159,0.227-0.281,0.312-0.366L182.739,159.581z M184.597,161.704c-0.493-0.494-1.072-0.51-1.503-0.08    c-0.28,0.281-0.365,0.717-0.243,1.093c0.021,0.085,0.068,0.175,0.153,0.26c0.579,0.558,1.259,0.717,1.747,0.229    C185.154,162.803,185.091,162.197,184.597,161.704z"/>
		<path d="M185.612,156.834l-1.316,1.316l0.754,1.02c0.069-0.091,0.133-0.176,0.261-0.303c0.266-0.266,0.589-0.472,0.929-0.557    c0.426-0.117,0.945-0.042,1.381,0.393c0.674,0.674,0.642,1.715-0.107,2.464c-0.376,0.376-0.801,0.589-1.071,0.647l-0.239-0.473    c0.229-0.058,0.615-0.233,0.93-0.546c0.439-0.44,0.53-1.104,0.068-1.566c-0.451-0.441-1.066-0.461-1.757,0.229    c-0.196,0.196-0.329,0.371-0.44,0.515l-1.434-1.879l1.65-1.651L185.612,156.834z"/>
		<path d="M189.841,160.006c-0.148-0.903-0.547-1.885-1.502-2.84c-0.95-0.95-1.916-1.343-2.824-1.486l0.361-0.361    c0.774,0.095,1.81,0.419,2.855,1.465c1.04,1.04,1.359,2.07,1.471,2.861L189.841,160.006z"/>
	</g>
	<g>
		<path d="M185.2,168.994c0.133,0.907,0.542,1.879,1.503,2.84c0.944,0.944,1.915,1.333,2.823,1.486l-0.366,0.366    c-0.774-0.106-1.815-0.425-2.851-1.459c-1.04-1.051-1.363-2.086-1.476-2.867L185.2,168.994z"/>
		<path d="M188.076,167.244c-0.101,0.089-0.218,0.217-0.329,0.372c-0.61,0.854-0.462,1.778,0.025,2.426l0.018-0.017    c-0.055-0.382,0.053-0.849,0.435-1.231c0.61-0.611,1.481-0.6,2.155,0.074c0.632,0.632,0.786,1.646,0.069,2.362    c-0.737,0.738-1.794,0.647-2.691-0.25c-0.68-0.68-0.972-1.459-0.972-2.139c0.005-0.568,0.213-1.125,0.595-1.614    c0.116-0.159,0.228-0.281,0.312-0.366L188.076,167.244z M189.935,169.367c-0.494-0.494-1.072-0.51-1.503-0.08    c-0.282,0.282-0.366,0.717-0.244,1.094c0.021,0.085,0.069,0.175,0.153,0.26c0.58,0.558,1.259,0.717,1.748,0.229    C190.492,170.465,190.428,169.86,189.935,169.367z"/>
		<path d="M190.95,164.497l-1.316,1.316l0.754,1.019c0.068-0.091,0.133-0.175,0.26-0.303c0.266-0.266,0.59-0.472,0.93-0.558    c0.424-0.116,0.945-0.042,1.38,0.393c0.674,0.674,0.643,1.715-0.106,2.463c-0.377,0.377-0.801,0.59-1.072,0.647l-0.238-0.473    c0.228-0.058,0.615-0.233,0.929-0.546c0.44-0.44,0.53-1.104,0.069-1.566c-0.451-0.44-1.066-0.462-1.758,0.229    c-0.195,0.196-0.328,0.371-0.439,0.515l-1.434-1.88l1.65-1.65L190.95,164.497z"/>
		<path d="M195.168,167.701c-0.196-0.43-0.622-1.142-0.95-1.587l0.467-0.574c0.33,0.574,0.686,1.396,0.785,1.793L195.168,167.701z"/>
		<path d="M195.681,158.98l0.308,0.308l1.64,4.645l-0.482,0.483l-1.555-4.549l-0.012-0.011l-1.688,1.688l-0.389-0.388    L195.681,158.98z"/>
		<path d="M200.142,157.896c1.174,1.173,1.386,2.256,0.621,3.021c-0.674,0.674-1.762,0.499-2.914-0.632    c-1.157-1.158-1.295-2.293-0.595-2.994C197.981,156.563,199.043,156.796,200.142,157.896z M198.321,159.823    c0.896,0.897,1.683,1.131,2.107,0.706c0.479-0.478,0.148-1.264-0.732-2.145c-0.85-0.85-1.625-1.189-2.107-0.707    C197.18,158.086,197.382,158.883,198.321,159.823z"/>
		<path d="M202.841,160.006c-0.148-0.903-0.547-1.885-1.502-2.84c-0.95-0.95-1.916-1.343-2.824-1.486l0.361-0.361    c0.774,0.095,1.81,0.419,2.855,1.465c1.04,1.04,1.359,2.07,1.471,2.861L202.841,160.006z"/>
	</g>
	<g>
		<path d="M198.2,168.994c0.133,0.907,0.542,1.879,1.503,2.84c0.944,0.944,1.915,1.333,2.823,1.486l-0.366,0.366    c-0.774-0.106-1.815-0.425-2.851-1.459c-1.04-1.051-1.363-2.086-1.476-2.867L198.2,168.994z"/>
		<path d="M201.018,166.643l0.308,0.308l1.641,4.645l-0.482,0.483l-1.556-4.549l-0.011-0.011l-1.688,1.688l-0.388-0.388    L201.018,166.643z"/>
		<path d="M205.479,165.558c1.174,1.173,1.385,2.256,0.621,3.021c-0.674,0.674-1.763,0.499-2.914-0.631    c-1.158-1.158-1.295-2.294-0.596-2.994C203.319,164.226,204.38,164.459,205.479,165.558z M203.659,167.485    c0.896,0.897,1.682,1.131,2.107,0.707c0.478-0.478,0.148-1.264-0.732-2.145c-0.85-0.85-1.625-1.19-2.108-0.707    C202.517,165.749,202.72,166.545,203.659,167.485z"/>
		<path d="M208.168,167.701c-0.196-0.43-0.622-1.142-0.95-1.587l0.467-0.574c0.33,0.574,0.686,1.396,0.785,1.793L208.168,167.701z"/>
		<path d="M208.681,158.98l0.308,0.308l1.64,4.645l-0.482,0.483l-1.555-4.549l-0.012-0.011l-1.688,1.688l-0.389-0.388    L208.681,158.98z"/>
		<path d="M211.612,156.834l-1.316,1.316l0.754,1.02c0.069-0.091,0.133-0.176,0.261-0.303c0.266-0.266,0.589-0.472,0.929-0.557    c0.426-0.117,0.945-0.042,1.381,0.393c0.674,0.674,0.642,1.715-0.107,2.464c-0.376,0.376-0.801,0.589-1.071,0.647l-0.239-0.473    c0.229-0.058,0.615-0.233,0.93-0.546c0.439-0.44,0.53-1.104,0.068-1.566c-0.451-0.441-1.066-0.461-1.757,0.229    c-0.196,0.196-0.329,0.371-0.44,0.515l-1.434-1.879l1.65-1.651L211.612,156.834z"/>
		<path d="M215.841,160.006c-0.148-0.903-0.547-1.885-1.502-2.84c-0.95-0.95-1.916-1.343-2.824-1.486l0.361-0.361    c0.774,0.095,1.81,0.419,2.855,1.465c1.04,1.04,1.359,2.07,1.471,2.861L215.841,160.006z"/>
	</g>
	<g>
		<path d="M211.2,168.994c0.133,0.907,0.542,1.879,1.503,2.84c0.944,0.944,1.915,1.333,2.823,1.486l-0.366,0.366    c-0.774-0.106-1.815-0.425-2.851-1.459c-1.04-1.051-1.363-2.086-1.476-2.867L211.2,168.994z"/>
		<path d="M214.018,166.643l0.308,0.308l1.641,4.645l-0.482,0.483l-1.556-4.549l-0.011-0.011l-1.688,1.688l-0.388-0.388    L214.018,166.643z"/>
		<path d="M216.95,164.497l-1.316,1.316l0.754,1.019c0.068-0.091,0.133-0.175,0.26-0.303c0.266-0.266,0.59-0.472,0.93-0.558    c0.424-0.116,0.945-0.042,1.38,0.393c0.674,0.674,0.643,1.715-0.106,2.463c-0.377,0.377-0.801,0.59-1.072,0.647l-0.238-0.473    c0.228-0.058,0.615-0.233,0.929-0.546c0.44-0.44,0.53-1.104,0.069-1.566c-0.451-0.44-1.066-0.462-1.758,0.229    c-0.195,0.196-0.328,0.371-0.439,0.515l-1.434-1.88l1.65-1.65L216.95,164.497z"/>
		<path d="M221.168,167.701c-0.196-0.43-0.622-1.142-0.95-1.587l0.467-0.574c0.33,0.574,0.686,1.396,0.785,1.793L221.168,167.701z"/>
		<path d="M221.973,163.838c-0.437-0.436-0.483-1.003-0.239-1.608l-0.021-0.011c-0.562,0.202-1.024,0.069-1.321-0.228    c-0.547-0.547-0.456-1.38,0.148-1.985c0.669-0.669,1.423-0.583,1.853-0.153c0.291,0.292,0.462,0.748,0.238,1.375l0.016,0.016    c0.601-0.26,1.169-0.223,1.588,0.196c0.6,0.6,0.488,1.519-0.17,2.177C223.343,164.337,222.477,164.342,221.973,163.838z     M220.799,161.518c0.345,0.345,0.791,0.271,1.296-0.021c0.196-0.398,0.211-0.839-0.102-1.151    c-0.275-0.276-0.727-0.398-1.146,0.021C220.46,160.754,220.502,161.221,220.799,161.518z M223.81,161.959    c-0.42-0.42-0.914-0.33-1.514,0.005c-0.287,0.52-0.238,1.003,0.09,1.332c0.336,0.367,0.908,0.41,1.349-0.031    C224.154,162.845,224.165,162.314,223.81,161.959z"/>
		<path d="M226.142,157.896c1.174,1.173,1.386,2.256,0.621,3.021c-0.674,0.674-1.762,0.499-2.914-0.632    c-1.157-1.158-1.295-2.293-0.595-2.994C223.981,156.563,225.043,156.796,226.142,157.896z M224.321,159.823    c0.896,0.897,1.683,1.131,2.107,0.706c0.479-0.478,0.148-1.264-0.732-2.145c-0.85-0.85-1.625-1.189-2.107-0.707    C223.18,158.086,223.382,158.883,224.321,159.823z"/>
		<path d="M228.841,160.006c-0.148-0.903-0.547-1.885-1.502-2.84c-0.95-0.95-1.916-1.343-2.824-1.486l0.361-0.361    c0.774,0.095,1.81,0.419,2.855,1.465c1.04,1.04,1.359,2.07,1.471,2.861L228.841,160.006z"/>
	</g>
	<g>
		<path d="M224.2,168.994c0.133,0.907,0.542,1.879,1.503,2.84c0.944,0.944,1.915,1.333,2.823,1.486l-0.366,0.366    c-0.774-0.106-1.815-0.425-2.851-1.459c-1.04-1.051-1.363-2.086-1.476-2.867L224.2,168.994z"/>
		<path d="M227.31,171.501c-0.436-0.436-0.482-1.004-0.238-1.608l-0.021-0.011c-0.562,0.202-1.025,0.069-1.322-0.228    c-0.547-0.547-0.456-1.38,0.148-1.985c0.67-0.669,1.424-0.584,1.854-0.154c0.291,0.292,0.461,0.749,0.238,1.375l0.016,0.016    c0.6-0.26,1.168-0.223,1.588,0.197c0.6,0.6,0.488,1.518-0.17,2.176C228.68,172,227.813,172.005,227.31,171.501z M226.136,169.181    c0.346,0.345,0.791,0.271,1.296-0.021c0.196-0.398,0.212-0.839-0.101-1.152c-0.275-0.276-0.728-0.398-1.146,0.021    C225.797,168.417,225.839,168.884,226.136,169.181z M229.146,169.622c-0.42-0.42-0.913-0.33-1.513,0.005    c-0.287,0.521-0.238,1.003,0.09,1.332c0.334,0.368,0.908,0.41,1.349-0.031C229.491,170.508,229.502,169.977,229.146,169.622z"/>
		<path d="M231.479,165.558c1.174,1.173,1.385,2.256,0.621,3.021c-0.674,0.674-1.763,0.499-2.914-0.631    c-1.158-1.158-1.295-2.294-0.596-2.994C229.319,164.226,230.38,164.459,231.479,165.558z M229.659,167.485    c0.896,0.897,1.682,1.131,2.107,0.707c0.478-0.478,0.148-1.264-0.732-2.145c-0.85-0.85-1.625-1.19-2.108-0.707    C228.517,165.749,228.72,166.545,229.659,167.485z"/>
		<path d="M234.168,167.701c-0.196-0.43-0.622-1.142-0.95-1.587l0.467-0.574c0.33,0.574,0.686,1.396,0.785,1.793L234.168,167.701z"/>
		<path d="M234.973,163.838c-0.437-0.436-0.483-1.003-0.239-1.608l-0.021-0.011c-0.562,0.202-1.024,0.069-1.321-0.228    c-0.547-0.547-0.456-1.38,0.148-1.985c0.669-0.669,1.423-0.583,1.853-0.153c0.291,0.292,0.462,0.748,0.238,1.375l0.016,0.016    c0.601-0.26,1.169-0.223,1.588,0.196c0.6,0.6,0.488,1.519-0.17,2.177C236.343,164.337,235.477,164.342,234.973,163.838z     M233.799,161.518c0.345,0.345,0.791,0.271,1.296-0.021c0.196-0.398,0.211-0.839-0.102-1.151    c-0.275-0.276-0.727-0.398-1.146,0.021C233.46,160.754,233.502,161.221,233.799,161.518z M236.81,161.959    c-0.42-0.42-0.914-0.33-1.514,0.005c-0.287,0.52-0.238,1.003,0.09,1.332c0.336,0.367,0.908,0.41,1.349-0.031    C237.154,162.845,237.165,162.314,236.81,161.959z"/>
		<path d="M237.612,156.834l-1.316,1.316l0.754,1.02c0.069-0.091,0.133-0.176,0.261-0.303c0.266-0.266,0.589-0.472,0.929-0.557    c0.426-0.117,0.945-0.042,1.381,0.393c0.674,0.674,0.642,1.715-0.107,2.464c-0.376,0.376-0.801,0.589-1.071,0.647l-0.239-0.473    c0.229-0.058,0.615-0.233,0.93-0.546c0.439-0.44,0.53-1.104,0.068-1.566c-0.451-0.441-1.066-0.461-1.757,0.229    c-0.196,0.196-0.329,0.371-0.44,0.515l-1.434-1.879l1.65-1.651L237.612,156.834z"/>
		<path d="M241.841,160.006c-0.148-0.903-0.547-1.885-1.502-2.84c-0.95-0.95-1.916-1.343-2.824-1.486l0.361-0.361    c0.774,0.095,1.81,0.419,2.855,1.465c1.04,1.04,1.359,2.07,1.471,2.861L241.841,160.006z"/>
	</g>
	<g>
		<path d="M237.2,168.994c0.133,0.907,0.542,1.879,1.503,2.84c0.944,0.944,1.915,1.333,2.823,1.486l-0.366,0.366    c-0.774-0.106-1.815-0.425-2.851-1.459c-1.04-1.051-1.363-2.086-1.476-2.867L237.2,168.994z"/>
		<path d="M240.31,171.501c-0.436-0.436-0.482-1.004-0.238-1.608l-0.021-0.011c-0.562,0.202-1.025,0.069-1.322-0.228    c-0.547-0.547-0.456-1.38,0.148-1.985c0.67-0.669,1.424-0.584,1.854-0.154c0.291,0.292,0.461,0.749,0.238,1.375l0.016,0.016    c0.6-0.26,1.168-0.223,1.588,0.197c0.6,0.6,0.488,1.518-0.17,2.176C241.68,172,240.813,172.005,240.31,171.501z M239.136,169.181    c0.346,0.345,0.791,0.271,1.296-0.021c0.196-0.398,0.212-0.839-0.101-1.152c-0.275-0.276-0.728-0.398-1.146,0.021    C238.797,168.417,238.839,168.884,239.136,169.181z M242.146,169.622c-0.42-0.42-0.913-0.33-1.513,0.005    c-0.287,0.521-0.238,1.003,0.09,1.332c0.334,0.368,0.908,0.41,1.349-0.031C242.491,170.508,242.502,169.977,242.146,169.622z"/>
		<path d="M242.95,164.497l-1.316,1.316l0.754,1.019c0.068-0.091,0.133-0.175,0.26-0.303c0.266-0.266,0.59-0.472,0.93-0.558    c0.424-0.116,0.945-0.042,1.38,0.393c0.674,0.674,0.643,1.715-0.106,2.463c-0.377,0.377-0.801,0.59-1.072,0.647l-0.238-0.473    c0.228-0.058,0.615-0.233,0.929-0.546c0.44-0.44,0.53-1.104,0.069-1.566c-0.451-0.44-1.066-0.462-1.758,0.229    c-0.195,0.196-0.328,0.371-0.439,0.515l-1.434-1.88l1.65-1.65L242.95,164.497z"/>
		<path d="M247.168,167.701c-0.196-0.43-0.622-1.142-0.95-1.587l0.467-0.574c0.33,0.574,0.686,1.396,0.785,1.793L247.168,167.701z"/>
		<path d="M248.832,164.072c0.112-0.09,0.218-0.218,0.36-0.393c0.234-0.308,0.378-0.674,0.389-1.057    c0.021-0.435-0.117-0.902-0.462-1.375l-0.017,0.016c0.043,0.424-0.096,0.838-0.44,1.183c-0.622,0.622-1.486,0.553-2.075-0.037    c-0.653-0.653-0.754-1.699-0.048-2.405s1.714-0.568,2.596,0.313c0.759,0.759,1.035,1.545,1.024,2.213    c-0.006,0.525-0.212,1.051-0.541,1.465c-0.144,0.197-0.287,0.351-0.404,0.457L248.832,164.072z M247.017,161.917    c0.43,0.43,0.992,0.472,1.396,0.069c0.312-0.313,0.403-0.711,0.318-1.041c-0.016-0.068-0.053-0.138-0.127-0.212    c-0.59-0.589-1.258-0.822-1.746-0.334C246.46,160.796,246.528,161.428,247.017,161.917z"/>
		<path d="M252.142,157.896c1.174,1.173,1.386,2.256,0.621,3.021c-0.674,0.674-1.762,0.499-2.914-0.632    c-1.157-1.158-1.295-2.293-0.595-2.994C249.981,156.563,251.043,156.796,252.142,157.896z M250.321,159.823    c0.896,0.897,1.683,1.131,2.107,0.706c0.479-0.478,0.148-1.264-0.732-2.145c-0.85-0.85-1.625-1.189-2.107-0.707    C249.18,158.086,249.382,158.883,250.321,159.823z"/>
		<path d="M254.841,160.006c-0.148-0.903-0.547-1.885-1.502-2.84c-0.95-0.95-1.916-1.343-2.824-1.486l0.361-0.361    c0.774,0.095,1.81,0.419,2.855,1.465c1.04,1.04,1.359,2.07,1.471,2.861L254.841,160.006z"/>
	</g>
	<g>
		<path d="M250.2,168.994c0.133,0.907,0.542,1.879,1.503,2.84c0.944,0.944,1.915,1.333,2.823,1.486l-0.366,0.366    c-0.774-0.106-1.815-0.425-2.851-1.459c-1.04-1.051-1.363-2.086-1.476-2.867L250.2,168.994z"/>
		<path d="M254.169,171.734c0.112-0.09,0.219-0.218,0.361-0.394c0.234-0.307,0.377-0.674,0.388-1.056    c0.021-0.436-0.116-0.902-0.462-1.375l-0.016,0.016c0.043,0.424-0.096,0.838-0.441,1.183c-0.621,0.621-1.486,0.553-2.075-0.037    c-0.653-0.653-0.753-1.699-0.048-2.405c0.707-0.706,1.715-0.568,2.596,0.313c0.76,0.759,1.035,1.545,1.025,2.213    c-0.006,0.525-0.213,1.051-0.542,1.465c-0.144,0.197-0.286,0.351-0.403,0.457L254.169,171.734z M252.354,169.579    c0.43,0.43,0.992,0.472,1.396,0.069c0.313-0.313,0.403-0.711,0.318-1.041c-0.016-0.068-0.053-0.138-0.127-0.212    c-0.589-0.589-1.258-0.822-1.746-0.334C251.798,168.459,251.866,169.091,252.354,169.579z"/>
		<path d="M257.479,165.558c1.174,1.173,1.385,2.256,0.621,3.021c-0.674,0.674-1.763,0.499-2.914-0.631    c-1.158-1.158-1.295-2.294-0.596-2.994C255.319,164.226,256.38,164.459,257.479,165.558z M255.659,167.485    c0.896,0.897,1.682,1.131,2.107,0.707c0.478-0.478,0.148-1.264-0.732-2.145c-0.85-0.85-1.625-1.19-2.108-0.707    C254.517,165.749,254.72,166.545,255.659,167.485z"/>
		<path d="M260.168,167.701c-0.196-0.43-0.622-1.142-0.95-1.587l0.467-0.574c0.33,0.574,0.686,1.396,0.785,1.793L260.168,167.701z"/>
		<path d="M261.832,164.072c0.112-0.09,0.218-0.218,0.36-0.393c0.234-0.308,0.378-0.674,0.389-1.057    c0.021-0.435-0.117-0.902-0.462-1.375l-0.017,0.016c0.043,0.424-0.096,0.838-0.44,1.183c-0.622,0.622-1.486,0.553-2.075-0.037    c-0.653-0.653-0.754-1.699-0.048-2.405s1.714-0.568,2.596,0.313c0.759,0.759,1.035,1.545,1.024,2.213    c-0.006,0.525-0.212,1.051-0.541,1.465c-0.144,0.197-0.287,0.351-0.404,0.457L261.832,164.072z M260.017,161.917    c0.43,0.43,0.992,0.472,1.396,0.069c0.312-0.313,0.403-0.711,0.318-1.041c-0.016-0.068-0.053-0.138-0.127-0.212    c-0.59-0.589-1.258-0.822-1.746-0.334C259.46,160.796,259.528,161.428,260.017,161.917z"/>
		<path d="M263.612,156.834l-1.316,1.316l0.754,1.02c0.069-0.091,0.133-0.176,0.261-0.303c0.266-0.266,0.589-0.472,0.929-0.557    c0.426-0.117,0.945-0.042,1.381,0.393c0.674,0.674,0.642,1.715-0.107,2.464c-0.376,0.376-0.801,0.589-1.071,0.647l-0.239-0.473    c0.229-0.058,0.615-0.233,0.93-0.546c0.439-0.44,0.53-1.104,0.068-1.566c-0.451-0.441-1.066-0.461-1.757,0.229    c-0.196,0.196-0.329,0.371-0.44,0.515l-1.434-1.879l1.65-1.651L263.612,156.834z"/>
		<path d="M267.841,160.006c-0.148-0.903-0.547-1.885-1.502-2.84c-0.95-0.95-1.916-1.343-2.824-1.486l0.361-0.361    c0.774,0.095,1.81,0.419,2.855,1.465c1.04,1.04,1.359,2.07,1.471,2.861L267.841,160.006z"/>
	</g>
	<g>
		<path d="M260.479,171.714c0.133,0.907,0.542,1.879,1.503,2.84c0.944,0.944,1.916,1.332,2.823,1.486l-0.365,0.366    c-0.775-0.106-1.816-0.425-2.851-1.459c-1.041-1.051-1.364-2.086-1.476-2.867L260.479,171.714z"/>
		<path d="M264.449,174.455c0.112-0.09,0.218-0.218,0.36-0.393c0.234-0.308,0.377-0.674,0.389-1.057    c0.021-0.435-0.117-0.902-0.462-1.375l-0.017,0.016c0.043,0.425-0.096,0.838-0.441,1.184c-0.621,0.621-1.485,0.552-2.074-0.037    c-0.653-0.653-0.754-1.699-0.048-2.405s1.714-0.568,2.596,0.313c0.759,0.759,1.035,1.545,1.024,2.214    c-0.006,0.525-0.212,1.051-0.542,1.465c-0.143,0.196-0.286,0.35-0.403,0.457L264.449,174.455z M262.634,172.299    c0.43,0.43,0.992,0.473,1.396,0.069c0.312-0.313,0.402-0.711,0.318-1.041c-0.016-0.068-0.053-0.138-0.127-0.212    c-0.59-0.589-1.258-0.822-1.746-0.334C262.077,171.18,262.146,171.811,262.634,172.299z"/>
		<path d="M266.229,167.217l-1.316,1.316l0.754,1.02c0.069-0.091,0.133-0.176,0.261-0.303c0.265-0.265,0.589-0.472,0.929-0.557    c0.425-0.117,0.945-0.042,1.38,0.393c0.674,0.674,0.643,1.715-0.106,2.463c-0.376,0.376-0.801,0.589-1.071,0.647l-0.239-0.473    c0.229-0.058,0.615-0.233,0.93-0.546c0.439-0.44,0.53-1.104,0.068-1.566c-0.451-0.44-1.066-0.461-1.757,0.229    c-0.196,0.196-0.329,0.372-0.44,0.515l-1.434-1.88l1.65-1.651L266.229,167.217z"/>
		<path d="M270.448,170.421c-0.197-0.43-0.623-1.142-0.951-1.588l0.467-0.573c0.33,0.574,0.686,1.396,0.785,1.794L270.448,170.421z"/>
		<path d="M270.169,163.362l-0.012,0.011l-0.275,0.923l-0.445-0.265l0.35-1.157l0.398-0.398l3.451,3.451l-0.451,0.451    L270.169,163.362z"/>
		<path d="M275.422,160.616c1.173,1.173,1.386,2.256,0.62,3.021c-0.674,0.674-1.762,0.499-2.914-0.632    c-1.157-1.158-1.295-2.293-0.594-2.994C273.261,159.283,274.323,159.517,275.422,160.616z M273.601,162.543    c0.897,0.897,1.684,1.131,2.107,0.706c0.479-0.478,0.148-1.264-0.732-2.145c-0.85-0.85-1.625-1.189-2.107-0.706    C272.459,160.807,272.661,161.603,273.601,162.543z"/>
		<path d="M278.142,157.896c1.174,1.173,1.386,2.256,0.621,3.021c-0.674,0.674-1.762,0.499-2.914-0.632    c-1.157-1.158-1.295-2.293-0.595-2.994C275.981,156.563,277.043,156.796,278.142,157.896z M276.321,159.823    c0.896,0.897,1.683,1.131,2.107,0.706c0.479-0.478,0.148-1.264-0.732-2.145c-0.85-0.85-1.625-1.189-2.107-0.707    C275.18,158.086,275.382,158.883,276.321,159.823z"/>
		<path d="M280.841,160.006c-0.148-0.903-0.547-1.885-1.502-2.84c-0.95-0.95-1.916-1.343-2.824-1.486l0.361-0.361    c0.774,0.095,1.81,0.419,2.855,1.465c1.04,1.04,1.359,2.07,1.471,2.861L280.841,160.006z"/>
	</g>
	<g>
		<path d="M283.702,166.332l-1.199,3.727l-0.365-0.366l1.051-3.133l-0.011-0.011l-3.132,1.052l-0.367-0.367l3.727-1.199    L283.702,166.332z"/>
		<path d="M284.675,161.855l-0.01,0.011l-0.277,0.924l-0.445-0.265l0.351-1.157l0.397-0.398l3.451,3.451l-0.451,0.451    L284.675,161.855z"/>
		<path d="M289.929,159.109c1.173,1.173,1.385,2.256,0.62,3.021c-0.674,0.674-1.763,0.499-2.914-0.632    c-1.157-1.158-1.296-2.293-0.595-2.994C287.768,157.777,288.829,158.01,289.929,159.109z M288.107,161.037    c0.897,0.897,1.683,1.131,2.107,0.706c0.478-0.478,0.148-1.264-0.732-2.145c-0.85-0.85-1.625-1.189-2.108-0.707    C286.966,159.3,287.167,160.097,288.107,161.037z"/>
		<path d="M292.648,156.389c1.173,1.173,1.386,2.256,0.621,3.021c-0.674,0.674-1.763,0.499-2.915-0.631    c-1.157-1.158-1.295-2.294-0.594-2.994C290.487,155.057,291.55,155.29,292.648,156.389z M290.828,158.316    c0.897,0.897,1.683,1.131,2.106,0.707c0.479-0.478,0.148-1.264-0.732-2.145c-0.85-0.85-1.624-1.19-2.107-0.707    C289.687,156.58,289.888,157.376,290.828,158.316z"/>
	</g>
	<polyline fill="none" stroke="#000000" stroke-width="0.5" stroke-miterlimit="10" points="25.379,2.295 25.379,152.295    298.38,152.295  "/>
	
		<rect x="25.379" y="116.962" fill="#A7A9AC" stroke="#000000" stroke-width="0.5" stroke-miterlimit="10" width="13" height="35.333"/>
	<rect x="38.379" y="125.295" fill="#A7A9AC" stroke="#000000" stroke-width="0.5" stroke-miterlimit="10" width="13" height="27"/>
	
		<rect x="51.379" y="118.962" fill="#A7A9AC" stroke="#000000" stroke-width="0.5" stroke-miterlimit="10" width="13" height="33.333"/>
	
		<rect x="64.379" y="128.962" fill="#A7A9AC" stroke="#000000" stroke-width="0.5" stroke-miterlimit="10" width="13" height="23.333"/>
	
		<rect x="77.379" y="131.628" fill="#A7A9AC" stroke="#000000" stroke-width="0.5" stroke-miterlimit="10" width="13" height="20.667"/>
	<rect x="90.379" y="125.295" fill="#A7A9AC" stroke="#000000" stroke-width="0.5" stroke-miterlimit="10" width="13" height="27"/>
	
		<rect x="103.379" y="116.962" fill="#A7A9AC" stroke="#000000" stroke-width="0.5" stroke-miterlimit="10" width="13" height="35.333"/>
	
		<rect x="116.379" y="131.628" fill="#A7A9AC" stroke="#000000" stroke-width="0.5" stroke-miterlimit="10" width="13" height="20.667"/>
	
		<rect x="129.379" y="143.628" fill="#A7A9AC" stroke="#000000" stroke-width="0.5" stroke-miterlimit="10" width="13" height="8.667"/>
	
		<rect x="142.38" y="134.628" fill="#A7A9AC" stroke="#000000" stroke-width="0.5" stroke-miterlimit="10" width="13" height="17.667"/>
	<rect x="155.38" y="137.295" fill="#A7A9AC" stroke="#000000" stroke-width="0.5" stroke-miterlimit="10" width="13" height="15"/>
	
		<rect x="168.38" y="140.962" fill="#A7A9AC" stroke="#000000" stroke-width="0.5" stroke-miterlimit="10" width="13" height="11.333"/>
	
		<rect x="181.38" y="143.628" fill="#A7A9AC" stroke="#000000" stroke-width="0.5" stroke-miterlimit="10" width="13" height="8.667"/>
	
		<rect x="194.38" y="131.628" fill="#A7A9AC" stroke="#000000" stroke-width="0.5" stroke-miterlimit="10" width="13" height="20.667"/>
	
		<rect x="207.38" y="143.961" fill="#A7A9AC" stroke="#000000" stroke-width="0.5" stroke-miterlimit="10" width="13" height="8.333"/>
	
		<rect x="220.38" y="128.962" fill="#A7A9AC" stroke="#000000" stroke-width="0.5" stroke-miterlimit="10" width="13" height="23.333"/>
	<rect x="233.38" y="150.295" fill="#A7A9AC" stroke="#000000" stroke-width="0.5" stroke-miterlimit="10" width="13" height="2"/>
	
		<rect x="246.38" y="140.961" fill="#A7A9AC" stroke="#000000" stroke-width="0.5" stroke-miterlimit="10" width="13" height="11.333"/>
	
		<rect x="259.38" y="146.962" fill="#A7A9AC" stroke="#000000" stroke-width="0.5" stroke-miterlimit="10" width="13" height="5.333"/>
	
		<rect x="272.38" y="146.962" fill="#A7A9AC" stroke="#000000" stroke-width="0.5" stroke-miterlimit="10" width="13" height="5.333"/>
	
		<rect x="285.38" y="5.628" fill="#A7A9AC" stroke="#000000" stroke-width="0.5" stroke-miterlimit="10" width="13" height="146.667"/>
</g>
</svg>