<svg xmlns="http://www.w3.org/2000/svg" xmlns:xlink="http://www.w3.org/1999/xlink" version="1.1" x="0px" y="0px" width="288.954px" height="151.139px" viewBox="0 0 288.954 151.139" enable-background="new 0 0 288.954 151.139" xml:space="preserve">
<g id="wide" display="none">
</g>
<g id="text_column">
</g>
<g id="art">
	<g>
		<g>
			
				<line fill="none" stroke="#A7A9AC" stroke-width="0.5" stroke-linejoin="round" x1="29.505" y1="22.052" x2="30.505" y2="22.052"/>
			
				<line fill="none" stroke="#A7A9AC" stroke-width="0.5" stroke-linejoin="round" stroke-dasharray="1.9999,1.9999" x1="32.505" y1="22.052" x2="279.493" y2="22.052"/>
			
				<line fill="none" stroke="#A7A9AC" stroke-width="0.5" stroke-linejoin="round" x1="280.493" y1="22.052" x2="281.493" y2="22.052"/>
		</g>
	</g>
	<g>
		<g>
			
				<line fill="none" stroke="#A7A9AC" stroke-width="0.5" stroke-linejoin="round" x1="29.505" y1="61.195" x2="30.505" y2="61.195"/>
			
				<line fill="none" stroke="#A7A9AC" stroke-width="0.5" stroke-linejoin="round" stroke-dasharray="1.9999,1.9999" x1="32.505" y1="61.195" x2="279.493" y2="61.195"/>
			
				<line fill="none" stroke="#A7A9AC" stroke-width="0.5" stroke-linejoin="round" x1="280.493" y1="61.195" x2="281.493" y2="61.195"/>
		</g>
	</g>
	<g>
		<g>
			
				<line fill="none" stroke="#A7A9AC" stroke-width="0.5" stroke-linejoin="round" x1="29.505" y1="41.624" x2="30.505" y2="41.624"/>
			
				<line fill="none" stroke="#A7A9AC" stroke-width="0.5" stroke-linejoin="round" stroke-dasharray="1.9999,1.9999" x1="32.505" y1="41.624" x2="279.493" y2="41.624"/>
			
				<line fill="none" stroke="#A7A9AC" stroke-width="0.5" stroke-linejoin="round" x1="280.493" y1="41.624" x2="281.493" y2="41.624"/>
		</g>
	</g>
	<g>
		<g>
			
				<line fill="none" stroke="#A7A9AC" stroke-width="0.5" stroke-linejoin="round" x1="29.505" y1="80.766" x2="30.505" y2="80.766"/>
			
				<line fill="none" stroke="#A7A9AC" stroke-width="0.5" stroke-linejoin="round" stroke-dasharray="1.9999,1.9999" x1="32.505" y1="80.766" x2="279.493" y2="80.766"/>
			
				<line fill="none" stroke="#A7A9AC" stroke-width="0.5" stroke-linejoin="round" x1="280.493" y1="80.766" x2="281.493" y2="80.766"/>
		</g>
	</g>
	<g>
		<g>
			
				<line fill="none" stroke="#A7A9AC" stroke-width="0.5" stroke-linejoin="round" x1="29.505" y1="100.337" x2="30.505" y2="100.337"/>
			
				<line fill="none" stroke="#A7A9AC" stroke-width="0.5" stroke-linejoin="round" stroke-dasharray="1.9999,1.9999" x1="32.505" y1="100.337" x2="279.493" y2="100.337"/>
			
				<line fill="none" stroke="#A7A9AC" stroke-width="0.5" stroke-linejoin="round" x1="280.493" y1="100.337" x2="281.493" y2="100.337"/>
		</g>
	</g>
	<g>
		<g>
			
				<line fill="none" stroke="#A7A9AC" stroke-width="0.5" stroke-linejoin="round" x1="29.505" y1="119.908" x2="30.505" y2="119.908"/>
			
				<line fill="none" stroke="#A7A9AC" stroke-width="0.5" stroke-linejoin="round" stroke-dasharray="1.9999,1.9999" x1="32.505" y1="119.908" x2="279.493" y2="119.908"/>
			
				<line fill="none" stroke="#A7A9AC" stroke-width="0.5" stroke-linejoin="round" x1="280.493" y1="119.908" x2="281.493" y2="119.908"/>
		</g>
	</g>
	<g>
		<g>
			
				<line fill="none" stroke="#A7A9AC" stroke-width="0.5" stroke-linejoin="round" x1="225.553" y1="2.562" x2="225.553" y2="3.562"/>
			
				<line fill="none" stroke="#A7A9AC" stroke-width="0.5" stroke-linejoin="round" stroke-dasharray="2.0125,2.0125" x1="225.553" y1="5.574" x2="225.553" y2="137.392"/>
			
				<line fill="none" stroke="#A7A9AC" stroke-width="0.5" stroke-linejoin="round" x1="225.553" y1="138.398" x2="225.553" y2="139.398"/>
		</g>
	</g>
	<g>
		<g>
			
				<line fill="none" stroke="#A7A9AC" stroke-width="0.5" stroke-linejoin="round" x1="169.556" y1="2.562" x2="169.556" y2="3.562"/>
			
				<line fill="none" stroke="#A7A9AC" stroke-width="0.5" stroke-linejoin="round" stroke-dasharray="2.0125,2.0125" x1="169.556" y1="5.574" x2="169.556" y2="137.392"/>
			
				<line fill="none" stroke="#A7A9AC" stroke-width="0.5" stroke-linejoin="round" x1="169.556" y1="138.398" x2="169.556" y2="139.398"/>
		</g>
	</g>
	<g>
		<g>
			
				<line fill="none" stroke="#A7A9AC" stroke-width="0.5" stroke-linejoin="round" x1="113.558" y1="2.562" x2="113.558" y2="3.562"/>
			
				<line fill="none" stroke="#A7A9AC" stroke-width="0.5" stroke-linejoin="round" stroke-dasharray="2.0125,2.0125" x1="113.558" y1="5.574" x2="113.558" y2="137.392"/>
			
				<line fill="none" stroke="#A7A9AC" stroke-width="0.5" stroke-linejoin="round" x1="113.558" y1="138.398" x2="113.558" y2="139.398"/>
		</g>
	</g>
	<g>
		<g>
			
				<line fill="none" stroke="#A7A9AC" stroke-width="0.5" stroke-linejoin="round" x1="253.552" y1="2.562" x2="253.552" y2="3.562"/>
			
				<line fill="none" stroke="#A7A9AC" stroke-width="0.5" stroke-linejoin="round" stroke-dasharray="2.0125,2.0125" x1="253.552" y1="5.574" x2="253.552" y2="137.392"/>
			
				<line fill="none" stroke="#A7A9AC" stroke-width="0.5" stroke-linejoin="round" x1="253.552" y1="138.398" x2="253.552" y2="139.398"/>
		</g>
	</g>
	<g>
		<g>
			
				<line fill="none" stroke="#A7A9AC" stroke-width="0.5" stroke-linejoin="round" x1="197.555" y1="2.562" x2="197.555" y2="3.562"/>
			
				<line fill="none" stroke="#A7A9AC" stroke-width="0.5" stroke-linejoin="round" stroke-dasharray="2.0125,2.0125" x1="197.555" y1="5.574" x2="197.555" y2="137.392"/>
			
				<line fill="none" stroke="#A7A9AC" stroke-width="0.5" stroke-linejoin="round" x1="197.555" y1="138.398" x2="197.555" y2="139.398"/>
		</g>
	</g>
	<g>
		<g>
			
				<line fill="none" stroke="#A7A9AC" stroke-width="0.5" stroke-linejoin="round" x1="141.557" y1="2.562" x2="141.557" y2="3.562"/>
			
				<line fill="none" stroke="#A7A9AC" stroke-width="0.5" stroke-linejoin="round" stroke-dasharray="2.0125,2.0125" x1="141.557" y1="5.574" x2="141.557" y2="137.392"/>
			
				<line fill="none" stroke="#A7A9AC" stroke-width="0.5" stroke-linejoin="round" x1="141.557" y1="138.398" x2="141.557" y2="139.398"/>
		</g>
	</g>
	<g>
		<g>
			<line fill="none" stroke="#A7A9AC" stroke-width="0.5" stroke-linejoin="round" x1="85.559" y1="2.562" x2="85.559" y2="3.562"/>
			
				<line fill="none" stroke="#A7A9AC" stroke-width="0.5" stroke-linejoin="round" stroke-dasharray="2.0125,2.0125" x1="85.559" y1="5.574" x2="85.559" y2="137.392"/>
			
				<line fill="none" stroke="#A7A9AC" stroke-width="0.5" stroke-linejoin="round" x1="85.559" y1="138.398" x2="85.559" y2="139.398"/>
		</g>
	</g>
	<g>
		<g>
			<line fill="none" stroke="#A7A9AC" stroke-width="0.5" stroke-linejoin="round" x1="57.561" y1="2.562" x2="57.561" y2="3.562"/>
			
				<line fill="none" stroke="#A7A9AC" stroke-width="0.5" stroke-linejoin="round" stroke-dasharray="2.0125,2.0125" x1="57.561" y1="5.574" x2="57.561" y2="137.392"/>
			
				<line fill="none" stroke="#A7A9AC" stroke-width="0.5" stroke-linejoin="round" x1="57.561" y1="138.398" x2="57.561" y2="139.398"/>
		</g>
	</g>
	
		<rect x="29.562" y="2.355" fill="none" stroke="#000000" stroke-width="0.5" stroke-linejoin="round" stroke-miterlimit="10" width="251.942" height="137.237"/>
	<g>
		<path d="M6.193,117.021c0.145,0.288,0.288,0.864,0.288,1.603c0,1.71-1.08,2.998-3.069,2.998c-1.9,0-3.188-1.287-3.188-3.169    c0-0.756,0.162-1.233,0.271-1.44l0.639,0.189c-0.144,0.297-0.252,0.72-0.252,1.225c0,1.422,0.909,2.368,2.503,2.368    c1.485,0,2.439-0.855,2.439-2.332c0-0.478-0.099-0.963-0.252-1.278L6.193,117.021z"/>
		<path d="M4.177,112.202c1.611,0,2.313,1.117,2.313,2.17c0,1.179-0.864,2.088-2.241,2.088c-1.458,0-2.313-0.954-2.313-2.161    C1.936,113.049,2.845,112.202,4.177,112.202z M4.222,115.659c0.954,0,1.675-0.549,1.675-1.323c0-0.756-0.711-1.323-1.692-1.323    c-0.738,0-1.675,0.369-1.675,1.305C2.529,115.254,3.394,115.659,4.222,115.659z"/>
		<path d="M3.214,111.146c-0.45,0-0.819,0.009-1.18,0.036v-0.693l0.702-0.036v-0.027c-0.414-0.243-0.801-0.648-0.801-1.368    c0-0.594,0.359-1.044,0.873-1.233v-0.018c-0.243-0.135-0.433-0.306-0.567-0.486c-0.198-0.261-0.306-0.549-0.306-0.963    c0-0.576,0.378-1.431,1.891-1.431h2.565v0.774H3.925c-0.837,0-1.342,0.306-1.342,0.945c0,0.45,0.334,0.801,0.721,0.937    c0.108,0.036,0.252,0.063,0.396,0.063h2.691v0.774h-2.61c-0.693,0-1.198,0.306-1.198,0.91c0,0.495,0.396,0.855,0.793,0.981    c0.117,0.045,0.252,0.063,0.387,0.063h2.629v0.774H3.214z"/>
		<path d="M6.392,103.651c-0.297-0.018-0.738-0.036-1.125-0.036H0v-0.783h2.736v-0.018c-0.486-0.279-0.801-0.783-0.801-1.485    c0-1.081,0.9-1.846,2.224-1.836c1.558,0,2.331,0.981,2.331,1.954c0,0.63-0.242,1.134-0.818,1.458v0.027l0.72,0.036V103.651z     M4.646,102.832c0.099,0,0.197-0.018,0.288-0.036c0.549-0.153,0.927-0.612,0.927-1.188c0-0.829-0.675-1.324-1.675-1.324    c-0.873,0-1.62,0.45-1.62,1.296c0,0.54,0.369,1.044,0.973,1.207c0.09,0.018,0.197,0.045,0.324,0.045H4.646z"/>
		<path d="M6.392,95.996l-0.549,0.063v0.027c0.342,0.243,0.647,0.711,0.647,1.333c0,0.882-0.621,1.333-1.251,1.333    c-1.054,0-1.63-0.937-1.62-2.62H3.528c-0.359,0-1.008,0.099-1.008,0.991c0,0.405,0.126,0.828,0.324,1.134l-0.522,0.18    c-0.234-0.36-0.387-0.882-0.387-1.431c0-1.333,0.909-1.657,1.782-1.657h1.63c0.378,0,0.747-0.018,1.044-0.072V95.996z     M4.168,96.112c-0.018,0.864,0.135,1.846,0.981,1.846c0.513,0,0.756-0.342,0.756-0.747c0-0.567-0.36-0.927-0.729-1.053    c-0.08-0.027-0.171-0.045-0.252-0.045H4.168z"/>
		<path d="M0.783,93.133h1.251v-1.134h0.604v1.134h2.35c0.54,0,0.846-0.153,0.846-0.594c0-0.207-0.026-0.36-0.054-0.459l0.595-0.036    c0.062,0.153,0.107,0.396,0.107,0.702c0,0.369-0.117,0.666-0.333,0.855c-0.234,0.225-0.621,0.306-1.134,0.306H2.638v0.675H2.034    v-0.675H0.99L0.783,93.133z"/>
		<path d="M3.394,89.201c-0.513,0-0.954,0.009-1.359,0.036v-0.693l0.855-0.027V88.48c-0.585-0.198-0.954-0.675-0.954-1.207    c0-0.09,0.009-0.153,0.026-0.225H2.71c-0.019,0.081-0.027,0.162-0.027,0.271c0,0.558,0.423,0.954,1.018,1.062    c0.107,0.018,0.233,0.036,0.369,0.036h2.322v0.783H3.394z"/>
		<path d="M6.392,83.78l-0.549,0.063v0.027c0.342,0.243,0.647,0.711,0.647,1.333c0,0.882-0.621,1.333-1.251,1.333    c-1.054,0-1.63-0.937-1.62-2.62H3.528c-0.359,0-1.008,0.099-1.008,0.99c0,0.405,0.126,0.829,0.324,1.135l-0.522,0.18    c-0.234-0.36-0.387-0.882-0.387-1.431c0-1.333,0.909-1.657,1.782-1.657h1.63c0.378,0,0.747-0.018,1.044-0.072V83.78z     M4.168,83.897c-0.018,0.864,0.135,1.845,0.981,1.845c0.513,0,0.756-0.342,0.756-0.747c0-0.567-0.36-0.927-0.729-1.053    c-0.08-0.027-0.171-0.045-0.252-0.045H4.168z"/>
		<path d="M0,78.027h5.267c0.387,0,0.828-0.009,1.125-0.036v0.711l-0.756,0.036v0.018C6.121,79,6.49,79.531,6.49,80.242    c0,1.053-0.891,1.863-2.214,1.863c-1.45,0.009-2.341-0.891-2.341-1.954c0-0.666,0.314-1.116,0.666-1.314V78.82H0V78.027z     M3.808,78.82c-0.099,0-0.233,0.009-0.333,0.036c-0.504,0.117-0.918,0.549-0.918,1.144c0,0.819,0.72,1.305,1.684,1.305    c0.882,0,1.611-0.432,1.611-1.287c0-0.531-0.352-1.018-0.945-1.162C4.798,78.829,4.69,78.82,4.564,78.82H3.808z"/>
		<path d="M0.81,75.815c0.271-0.009,0.486,0.189,0.486,0.504c0,0.279-0.216,0.477-0.486,0.477c-0.278,0-0.495-0.207-0.495-0.495    C0.314,76.004,0.531,75.815,0.81,75.815z M6.392,76.697H2.034v-0.792h4.357V76.697z"/>
		<path d="M5.203,70.951c0.45,0,0.847-0.009,1.188-0.036v0.702l-0.711,0.045v0.018c0.351,0.207,0.81,0.667,0.81,1.44    c0,0.685-0.378,1.503-1.908,1.503H2.034v-0.792h2.413c0.828,0,1.386-0.252,1.386-0.972c0-0.531-0.369-0.9-0.72-1.044    c-0.117-0.045-0.261-0.072-0.405-0.072H2.034v-0.792H5.203z"/>
		<path d="M5.581,69.739c0.153-0.234,0.315-0.648,0.315-1.044c0-0.576-0.288-0.847-0.648-0.847c-0.378,0-0.585,0.225-0.801,0.811    c-0.279,0.783-0.712,1.152-1.233,1.152c-0.702,0-1.278-0.567-1.278-1.503c0-0.441,0.126-0.829,0.27-1.071l0.576,0.198    c-0.107,0.171-0.252,0.486-0.252,0.892c0,0.468,0.271,0.729,0.595,0.729c0.359,0,0.521-0.261,0.738-0.828    c0.288-0.756,0.666-1.144,1.313-1.144c0.766,0,1.306,0.594,1.306,1.629c0,0.478-0.117,0.918-0.297,1.225L5.581,69.739z"/>
		<path d="M0.144,62.44c0.883,0.657,2.053,1.134,3.683,1.134c1.603,0,2.755-0.495,3.654-1.134v0.621    c-0.747,0.567-1.899,1.179-3.654,1.179c-1.773-0.009-2.926-0.612-3.683-1.179V62.44z"/>
		<path d="M4.033,60.803v-0.018c-0.153-0.108-0.343-0.261-0.495-0.387L2.034,59.12v-0.954l1.792,1.684l2.565-1.918v0.963    l-2.089,1.503l0.45,0.405h1.639v0.783H0v-0.783H4.033z"/>
		<path d="M0.81,56.32c0.271-0.009,0.486,0.189,0.486,0.504c0,0.279-0.216,0.477-0.486,0.477c-0.278,0-0.495-0.207-0.495-0.495    C0.314,56.509,0.531,56.32,0.81,56.32z M6.392,57.202H2.034V56.41h4.357V57.202z"/>
		<path d="M0,55.09v-0.792h6.392v0.792H0z"/>
		<path d="M4.177,48.963c1.611,0,2.313,1.117,2.313,2.17c0,1.179-0.864,2.088-2.241,2.088c-1.458,0-2.313-0.954-2.313-2.161    C1.936,49.81,2.845,48.963,4.177,48.963z M4.222,52.42c0.954,0,1.675-0.549,1.675-1.323c0-0.756-0.711-1.323-1.692-1.323    c-0.738,0-1.675,0.369-1.675,1.305C2.529,52.016,3.394,52.42,4.222,52.42z"/>
		<path d="M3.214,47.906c-0.45,0-0.819,0.009-1.18,0.036v-0.693l0.702-0.036v-0.027c-0.414-0.243-0.801-0.648-0.801-1.368    c0-0.594,0.359-1.044,0.873-1.233v-0.018c-0.243-0.135-0.433-0.306-0.567-0.486c-0.198-0.261-0.306-0.549-0.306-0.963    c0-0.576,0.378-1.431,1.891-1.431h2.565v0.774H3.925c-0.837,0-1.342,0.306-1.342,0.945c0,0.45,0.334,0.801,0.721,0.937    c0.108,0.036,0.252,0.063,0.396,0.063h2.691v0.774h-2.61c-0.693,0-1.198,0.306-1.198,0.909c0,0.495,0.396,0.855,0.793,0.981    c0.117,0.045,0.252,0.063,0.387,0.063h2.629v0.774H3.214z"/>
		<path d="M4.357,39.883c1.071-0.018,1.512-0.702,1.512-1.495c0-0.567-0.099-0.909-0.225-1.207l0.567-0.135    c0.126,0.279,0.27,0.756,0.27,1.449c0,1.341-0.882,2.143-2.196,2.143s-2.35-0.774-2.35-2.043c0-1.422,1.251-1.8,2.053-1.8    c0.162,0,0.288,0.018,0.369,0.027V39.883z M3.79,37.56c-0.504-0.009-1.288,0.207-1.288,1.098c0,0.801,0.738,1.152,1.288,1.215    V37.56z"/>
		<path d="M0.783,34.792h1.251v-1.134h0.604v1.134h2.35c0.54,0,0.846-0.153,0.846-0.594c0-0.207-0.026-0.36-0.054-0.459l0.595-0.036    c0.062,0.153,0.107,0.396,0.107,0.702c0,0.369-0.117,0.666-0.333,0.855c-0.234,0.225-0.621,0.306-1.134,0.306H2.638v0.675H2.034    v-0.675H0.99L0.783,34.792z"/>
		<path d="M4.357,32.36c1.071-0.018,1.512-0.703,1.512-1.495c0-0.567-0.099-0.909-0.225-1.207l0.567-0.135    c0.126,0.279,0.27,0.756,0.27,1.449c0,1.341-0.882,2.143-2.196,2.143s-2.35-0.774-2.35-2.043c0-1.422,1.251-1.8,2.053-1.8    c0.162,0,0.288,0.018,0.369,0.027V32.36z M3.79,30.037c-0.504-0.009-1.288,0.207-1.288,1.098c0,0.801,0.738,1.152,1.288,1.215    V30.037z"/>
		<path d="M3.394,28.241c-0.513,0-0.954,0.009-1.359,0.036v-0.693l0.855-0.027v-0.036c-0.585-0.198-0.954-0.675-0.954-1.207    c0-0.09,0.009-0.153,0.026-0.225H2.71c-0.019,0.081-0.027,0.162-0.027,0.271c0,0.558,0.423,0.954,1.018,1.062    c0.107,0.018,0.233,0.036,0.369,0.036h2.322v0.783H3.394z"/>
		<path d="M5.581,25.299c0.153-0.234,0.315-0.648,0.315-1.044c0-0.576-0.288-0.847-0.648-0.847c-0.378,0-0.585,0.225-0.801,0.811    c-0.279,0.783-0.712,1.152-1.233,1.152c-0.702,0-1.278-0.567-1.278-1.503c0-0.441,0.126-0.829,0.27-1.071l0.576,0.198    c-0.107,0.171-0.252,0.486-0.252,0.892c0,0.468,0.271,0.729,0.595,0.729c0.359,0,0.521-0.261,0.738-0.828    c0.288-0.756,0.666-1.144,1.313-1.144c0.766,0,1.306,0.594,1.306,1.629c0,0.478-0.117,0.918-0.297,1.225L5.581,25.299z"/>
		<path d="M7.48,22.377c-0.891-0.639-2.062-1.134-3.682-1.134c-1.611,0-2.764,0.486-3.655,1.134v-0.612    c0.738-0.576,1.891-1.18,3.664-1.18c1.765,0,2.908,0.604,3.673,1.18V22.377z"/>
	</g>
	<g>
		<path d="M11.983,4.204c0.188,0.12,0.623,0.308,1.081,0.308c0.848,0,1.111-0.541,1.104-0.946c-0.007-0.683-0.623-0.976-1.261-0.976    h-0.368V2.094h0.368c0.48,0,1.088-0.247,1.088-0.825c0-0.391-0.248-0.736-0.856-0.736c-0.39,0-0.766,0.173-0.976,0.323    l-0.173-0.48C12.246,0.188,12.742,0,13.267,0c0.961,0,1.396,0.57,1.396,1.163c0,0.503-0.3,0.931-0.901,1.148v0.016    c0.601,0.12,1.088,0.57,1.088,1.253c0,0.781-0.608,1.465-1.779,1.465c-0.548,0-1.028-0.173-1.269-0.331L11.983,4.204z"/>
		<path d="M18.585,0.638h-1.862l-0.188,1.254c0.113-0.016,0.218-0.03,0.398-0.03c0.375,0,0.75,0.083,1.051,0.263    c0.383,0.218,0.698,0.639,0.698,1.254c0,0.953-0.758,1.667-1.816,1.667c-0.533,0-0.984-0.15-1.216-0.301l0.165-0.503    c0.203,0.12,0.601,0.271,1.043,0.271c0.623,0,1.156-0.405,1.156-1.059c-0.008-0.631-0.428-1.081-1.404-1.081    c-0.278,0-0.496,0.03-0.676,0.053l0.315-2.343h2.334V0.638z"/>
		<path d="M22.763,2.47c0,1.659-0.616,2.575-1.697,2.575c-0.954,0-1.599-0.894-1.614-2.508C19.453,0.9,20.158,0,21.149,0    C22.178,0,22.763,0.915,22.763,2.47z M20.113,2.545c0,1.269,0.391,1.989,0.991,1.989c0.676,0,0.999-0.788,0.999-2.034    c0-1.201-0.308-1.99-0.991-1.99C20.534,0.51,20.113,1.216,20.113,2.545z"/>
		<path d="M26.61,2.47c0,1.659-0.616,2.575-1.697,2.575c-0.953,0-1.599-0.894-1.614-2.508C23.299,0.9,24.005,0,24.996,0    C26.025,0,26.61,0.915,26.61,2.47z M23.96,2.545c0,1.269,0.39,1.989,0.991,1.989c0.676,0,0.999-0.788,0.999-2.034    c0-1.201-0.308-1.99-0.991-1.99C24.38,0.51,23.96,1.216,23.96,2.545z"/>
		<path d="M11.983,23.774c0.188,0.12,0.623,0.308,1.081,0.308c0.848,0,1.111-0.541,1.104-0.946    c-0.007-0.683-0.623-0.976-1.261-0.976h-0.368v-0.496h0.368c0.48,0,1.088-0.247,1.088-0.825c0-0.391-0.248-0.736-0.856-0.736    c-0.39,0-0.766,0.173-0.976,0.323l-0.173-0.48c0.255-0.188,0.751-0.375,1.276-0.375c0.961,0,1.396,0.57,1.396,1.163    c0,0.503-0.3,0.931-0.901,1.148v0.016c0.601,0.12,1.088,0.57,1.088,1.253c0,0.781-0.608,1.465-1.779,1.465    c-0.548,0-1.028-0.173-1.269-0.331L11.983,23.774z"/>
		<path d="M18.916,22.04c0,1.659-0.616,2.575-1.697,2.575c-0.953,0-1.599-0.894-1.614-2.508c0-1.637,0.706-2.537,1.697-2.537    C18.331,19.57,18.916,20.485,18.916,22.04z M16.266,22.115c0,1.269,0.39,1.989,0.991,1.989c0.676,0,0.999-0.788,0.999-2.034    c0-1.201-0.308-1.99-0.991-1.99C16.686,20.08,16.266,20.786,16.266,22.115z"/>
		<path d="M22.763,22.04c0,1.659-0.616,2.575-1.697,2.575c-0.954,0-1.599-0.894-1.614-2.508c0-1.637,0.706-2.537,1.696-2.537    C22.178,19.57,22.763,20.485,22.763,22.04z M20.113,22.115c0,1.269,0.391,1.989,0.991,1.989c0.676,0,0.999-0.788,0.999-2.034    c0-1.201-0.308-1.99-0.991-1.99C20.534,20.08,20.113,20.786,20.113,22.115z"/>
		<path d="M26.61,22.04c0,1.659-0.616,2.575-1.697,2.575c-0.953,0-1.599-0.894-1.614-2.508c0-1.637,0.706-2.537,1.697-2.537    C26.025,19.57,26.61,20.485,26.61,22.04z M23.96,22.115c0,1.269,0.39,1.989,0.991,1.989c0.676,0,0.999-0.788,0.999-2.034    c0-1.201-0.308-1.99-0.991-1.99C24.38,20.08,23.96,20.786,23.96,22.115z"/>
		<path d="M11.826,44.102v-0.405l0.518-0.503c1.246-1.187,1.809-1.817,1.817-2.553c0-0.495-0.24-0.953-0.969-0.953    c-0.443,0-0.811,0.225-1.036,0.413l-0.21-0.466c0.338-0.285,0.818-0.495,1.381-0.495c1.051,0,1.494,0.721,1.494,1.419    c0,0.9-0.653,1.629-1.682,2.619l-0.39,0.36v0.016h2.192v0.548H11.826z"/>
		<path d="M18.585,39.777h-1.862l-0.188,1.254c0.113-0.016,0.218-0.03,0.398-0.03c0.375,0,0.75,0.083,1.051,0.263    c0.383,0.218,0.698,0.639,0.698,1.254c0,0.953-0.758,1.667-1.816,1.667c-0.533,0-0.984-0.15-1.216-0.301l0.165-0.503    c0.203,0.12,0.601,0.271,1.043,0.271c0.623,0,1.156-0.405,1.156-1.059c-0.008-0.631-0.428-1.081-1.404-1.081    c-0.278,0-0.496,0.03-0.676,0.053l0.315-2.343h2.334V39.777z"/>
		<path d="M22.763,41.609c0,1.659-0.616,2.575-1.697,2.575c-0.954,0-1.599-0.894-1.614-2.508c0-1.637,0.706-2.537,1.696-2.537    C22.178,39.14,22.763,40.055,22.763,41.609z M20.113,41.685c0,1.269,0.391,1.989,0.991,1.989c0.676,0,0.999-0.788,0.999-2.035    c0-1.201-0.308-1.989-0.991-1.989C20.534,39.649,20.113,40.355,20.113,41.685z"/>
		<path d="M26.61,41.609c0,1.659-0.616,2.575-1.697,2.575c-0.953,0-1.599-0.894-1.614-2.508c0-1.637,0.706-2.537,1.697-2.537    C26.025,39.14,26.61,40.055,26.61,41.609z M23.96,41.685c0,1.269,0.39,1.989,0.991,1.989c0.676,0,0.999-0.788,0.999-2.035    c0-1.201-0.308-1.989-0.991-1.989C24.38,39.649,23.96,40.355,23.96,41.685z"/>
		<path d="M11.826,63.672v-0.405l0.518-0.503c1.246-1.187,1.809-1.817,1.817-2.553c0-0.495-0.24-0.953-0.969-0.953    c-0.443,0-0.811,0.225-1.036,0.413l-0.21-0.466c0.338-0.285,0.818-0.495,1.381-0.495c1.051,0,1.494,0.721,1.494,1.419    c0,0.9-0.653,1.629-1.682,2.619l-0.39,0.36v0.016h2.192v0.548H11.826z"/>
		<path d="M18.916,61.18c0,1.659-0.616,2.575-1.697,2.575c-0.953,0-1.599-0.894-1.614-2.508c0-1.637,0.706-2.537,1.697-2.537    C18.331,58.71,18.916,59.625,18.916,61.18z M16.266,61.255c0,1.269,0.39,1.989,0.991,1.989c0.676,0,0.999-0.788,0.999-2.035    c0-1.201-0.308-1.989-0.991-1.989C16.686,59.22,16.266,59.926,16.266,61.255z"/>
		<path d="M22.763,61.18c0,1.659-0.616,2.575-1.697,2.575c-0.954,0-1.599-0.894-1.614-2.508c0-1.637,0.706-2.537,1.696-2.537    C22.178,58.71,22.763,59.625,22.763,61.18z M20.113,61.255c0,1.269,0.391,1.989,0.991,1.989c0.676,0,0.999-0.788,0.999-2.035    c0-1.201-0.308-1.989-0.991-1.989C20.534,59.22,20.113,59.926,20.113,61.255z"/>
		<path d="M26.61,61.18c0,1.659-0.616,2.575-1.697,2.575c-0.953,0-1.599-0.894-1.614-2.508c0-1.637,0.706-2.537,1.697-2.537    C26.025,58.71,26.61,59.625,26.61,61.18z M23.96,61.255c0,1.269,0.39,1.989,0.991,1.989c0.676,0,0.999-0.788,0.999-2.035    c0-1.201-0.308-1.989-0.991-1.989C24.38,59.22,23.96,59.926,23.96,61.255z"/>
		<path d="M13.259,78.979h-0.015l-0.849,0.457l-0.127-0.503l1.066-0.57h0.563v4.88h-0.638V78.979z"/>
		<path d="M18.585,78.918h-1.862l-0.188,1.254c0.113-0.016,0.218-0.03,0.398-0.03c0.375,0,0.75,0.083,1.051,0.263    c0.383,0.218,0.698,0.639,0.698,1.254c0,0.953-0.758,1.667-1.816,1.667c-0.533,0-0.984-0.15-1.216-0.301l0.165-0.503    c0.203,0.12,0.601,0.271,1.043,0.271c0.623,0,1.156-0.405,1.156-1.059c-0.008-0.631-0.428-1.081-1.404-1.081    c-0.278,0-0.496,0.03-0.676,0.053l0.315-2.343h2.334V78.918z"/>
		<path d="M22.763,80.75c0,1.659-0.616,2.575-1.697,2.575c-0.954,0-1.599-0.894-1.614-2.508c0-1.637,0.706-2.537,1.696-2.537    C22.178,78.28,22.763,79.195,22.763,80.75z M20.113,80.825c0,1.269,0.391,1.989,0.991,1.989c0.676,0,0.999-0.788,0.999-2.035    c0-1.201-0.308-1.989-0.991-1.989C20.534,78.79,20.113,79.496,20.113,80.825z"/>
		<path d="M26.61,80.75c0,1.659-0.616,2.575-1.697,2.575c-0.953,0-1.599-0.894-1.614-2.508c0-1.637,0.706-2.537,1.697-2.537    C26.025,78.28,26.61,79.195,26.61,80.75z M23.96,80.825c0,1.269,0.39,1.989,0.991,1.989c0.676,0,0.999-0.788,0.999-2.035    c0-1.201-0.308-1.989-0.991-1.989C24.38,78.79,23.96,79.496,23.96,80.825z"/>
		<path d="M13.259,98.547h-0.015l-0.849,0.458l-0.127-0.503l1.066-0.57h0.563v4.88h-0.638V98.547z"/>
		<path d="M18.916,100.319c0,1.659-0.616,2.575-1.697,2.575c-0.953,0-1.599-0.894-1.614-2.508c0-1.637,0.706-2.537,1.697-2.537    C18.331,97.85,18.916,98.765,18.916,100.319z M16.266,100.395c0,1.269,0.39,1.989,0.991,1.989c0.676,0,0.999-0.788,0.999-2.034    c0-1.201-0.308-1.99-0.991-1.99C16.686,98.359,16.266,99.065,16.266,100.395z"/>
		<path d="M22.763,100.319c0,1.659-0.616,2.575-1.697,2.575c-0.954,0-1.599-0.894-1.614-2.508c0-1.637,0.706-2.537,1.696-2.537    C22.178,97.85,22.763,98.765,22.763,100.319z M20.113,100.395c0,1.269,0.391,1.989,0.991,1.989c0.676,0,0.999-0.788,0.999-2.034    c0-1.201-0.308-1.99-0.991-1.99C20.534,98.359,20.113,99.065,20.113,100.395z"/>
		<path d="M26.61,100.319c0,1.659-0.616,2.575-1.697,2.575c-0.953,0-1.599-0.894-1.614-2.508c0-1.637,0.706-2.537,1.697-2.537    C26.025,97.85,26.61,98.765,26.61,100.319z M23.96,100.395c0,1.269,0.39,1.989,0.991,1.989c0.676,0,0.999-0.788,0.999-2.034    c0-1.201-0.308-1.99-0.991-1.99C24.38,98.359,23.96,99.065,23.96,100.395z"/>
		<path d="M18.586,118.058h-1.862l-0.188,1.254c0.113-0.016,0.218-0.03,0.398-0.03c0.375,0,0.75,0.083,1.051,0.263    c0.383,0.218,0.698,0.639,0.698,1.254c0,0.953-0.758,1.667-1.817,1.667c-0.533,0-0.983-0.15-1.216-0.301l0.165-0.503    c0.203,0.12,0.601,0.271,1.043,0.271c0.623,0,1.156-0.405,1.156-1.059c-0.007-0.631-0.428-1.081-1.404-1.081    c-0.278,0-0.496,0.03-0.676,0.053l0.315-2.343h2.334V118.058z"/>
		<path d="M22.764,119.89c0,1.659-0.616,2.575-1.697,2.575c-0.953,0-1.599-0.894-1.614-2.508c0-1.637,0.706-2.537,1.697-2.537    C22.178,117.42,22.764,118.335,22.764,119.89z M20.114,119.965c0,1.269,0.39,1.989,0.991,1.989c0.676,0,0.999-0.788,0.999-2.034    c0-1.201-0.308-1.99-0.991-1.99C20.534,117.93,20.114,118.636,20.114,119.965z"/>
		<path d="M26.611,119.89c0,1.659-0.616,2.575-1.697,2.575c-0.954,0-1.599-0.894-1.614-2.508c0-1.637,0.706-2.537,1.696-2.537    C26.025,117.42,26.611,118.335,26.611,119.89z M23.96,119.965c0,1.269,0.391,1.989,0.991,1.989c0.676,0,0.999-0.788,0.999-2.034    c0-1.201-0.308-1.99-0.991-1.99C24.381,117.93,23.96,118.636,23.96,119.965z"/>
		<path d="M26.611,139.46c0,1.659-0.616,2.575-1.697,2.575c-0.953,0-1.599-0.894-1.614-2.508c0-1.637,0.706-2.537,1.697-2.537    C26.026,136.99,26.611,137.905,26.611,139.46z M23.961,139.535c0,1.269,0.39,1.989,0.991,1.989c0.676,0,0.999-0.788,0.999-2.034    c0-1.201-0.308-1.99-0.991-1.99C24.381,137.5,23.961,138.206,23.961,139.535z"/>
	</g>
	<circle cx="49.062" cy="125.056" r="2"/>
	<circle cx="107.562" cy="118.056" r="2"/>
	<circle cx="88.062" cy="123.306" r="2"/>
	<circle cx="113.562" cy="109.556" r="2"/>
	<circle cx="119.062" cy="122.056" r="2"/>
	<circle cx="127.062" cy="122.806" r="2"/>
	<circle cx="175.062" cy="98.806" r="2"/>
	<circle cx="167.062" cy="90.806" r="2"/>
	<circle cx="183.312" cy="19.806" r="2"/>
	<circle cx="245.312" cy="45.056" r="2"/>
	<circle cx="214.312" cy="100.306" r="2"/>
	<circle cx="219.505" cy="103.003" r="2"/>
	<circle cx="135.562" cy="114.806" r="2"/>
	<circle cx="133.062" cy="99.556" r="2"/>
	<circle cx="116.312" cy="98.306" r="2"/>
	<circle cx="124.312" cy="95.056" r="2"/>
	<circle cx="110.562" cy="114.056" r="2"/>
	<g>
		<path d="M23.616,146.791h-0.015l-0.849,0.458l-0.127-0.503l1.066-0.57h0.563v4.88h-0.638V146.791z"/>
		<path d="M26.412,150.59c0.143,0.016,0.308,0,0.533-0.022c0.383-0.052,0.743-0.21,1.021-0.473c0.323-0.293,0.555-0.721,0.646-1.299    h-0.022c-0.271,0.33-0.661,0.525-1.149,0.525c-0.878,0-1.441-0.66-1.441-1.494c0-0.923,0.668-1.733,1.667-1.733    c0.998,0,1.614,0.811,1.614,2.057c0,1.073-0.36,1.824-0.841,2.29c-0.375,0.367-0.893,0.593-1.419,0.652    c-0.24,0.038-0.45,0.046-0.608,0.038V150.59z M26.652,147.782c0,0.608,0.368,1.036,0.938,1.036c0.443,0,0.788-0.218,0.961-0.511    c0.038-0.06,0.06-0.135,0.06-0.24c0-0.833-0.308-1.471-0.999-1.471C27.05,146.597,26.652,147.092,26.652,147.782z"/>
		<path d="M31.31,146.791h-0.015l-0.849,0.458l-0.127-0.503l1.066-0.57h0.563v4.88H31.31V146.791z"/>
		<path d="M36.966,148.563c0,1.659-0.616,2.575-1.697,2.575c-0.954,0-1.599-0.894-1.614-2.508c0-1.637,0.706-2.537,1.696-2.537    C36.381,146.094,36.966,147.009,36.966,148.563z M34.316,148.639c0,1.269,0.391,1.989,0.991,1.989    c0.676,0,0.999-0.788,0.999-2.034c0-1.201-0.308-1.99-0.991-1.99C34.737,146.604,34.316,147.31,34.316,148.639z"/>
	</g>
	<g>
		<path d="M79.613,146.791h-0.015l-0.849,0.458l-0.127-0.503l1.066-0.57h0.563v4.88h-0.638V146.791z"/>
		<path d="M82.409,150.59c0.143,0.016,0.308,0,0.533-0.022c0.383-0.052,0.743-0.21,1.021-0.473c0.323-0.293,0.555-0.721,0.646-1.299    h-0.022c-0.271,0.33-0.661,0.525-1.149,0.525c-0.878,0-1.441-0.66-1.441-1.494c0-0.923,0.668-1.733,1.667-1.733    c0.998,0,1.614,0.811,1.614,2.057c0,1.073-0.36,1.824-0.841,2.29c-0.375,0.367-0.893,0.593-1.419,0.652    c-0.24,0.038-0.45,0.046-0.608,0.038V150.59z M82.649,147.782c0,0.608,0.368,1.036,0.938,1.036c0.443,0,0.788-0.218,0.961-0.511    c0.038-0.06,0.06-0.135,0.06-0.24c0-0.833-0.308-1.471-0.999-1.471C83.047,146.597,82.649,147.092,82.649,147.782z"/>
		<path d="M86.031,150.298c0.188,0.12,0.623,0.308,1.081,0.308c0.848,0,1.111-0.541,1.104-0.946    c-0.008-0.683-0.623-0.976-1.261-0.976h-0.368v-0.496h0.368c0.48,0,1.088-0.247,1.088-0.825c0-0.391-0.248-0.736-0.855-0.736    c-0.391,0-0.766,0.173-0.976,0.323l-0.173-0.48c0.255-0.188,0.751-0.375,1.276-0.375c0.961,0,1.396,0.57,1.396,1.163    c0,0.503-0.3,0.931-0.901,1.148v0.016c0.601,0.12,1.088,0.57,1.088,1.253c0,0.781-0.608,1.465-1.779,1.465    c-0.548,0-1.028-0.173-1.269-0.331L86.031,150.298z"/>
		<path d="M92.964,148.563c0,1.659-0.616,2.575-1.697,2.575c-0.954,0-1.599-0.894-1.614-2.508c0-1.637,0.706-2.537,1.696-2.537    C92.378,146.094,92.964,147.009,92.964,148.563z M90.313,148.639c0,1.269,0.391,1.989,0.991,1.989    c0.676,0,0.999-0.788,0.999-2.034c0-1.201-0.308-1.99-0.991-1.99C90.734,146.604,90.313,147.31,90.313,148.639z"/>
	</g>
	<g>
		<path d="M135.61,146.791h-0.015l-0.849,0.458l-0.127-0.503l1.066-0.57h0.563v4.88h-0.638V146.791z"/>
		<path d="M138.406,150.59c0.143,0.016,0.308,0,0.533-0.022c0.383-0.052,0.743-0.21,1.021-0.473    c0.323-0.293,0.555-0.721,0.646-1.299h-0.022c-0.271,0.33-0.661,0.525-1.149,0.525c-0.878,0-1.441-0.66-1.441-1.494    c0-0.923,0.668-1.733,1.667-1.733c0.998,0,1.614,0.811,1.614,2.057c0,1.073-0.36,1.824-0.841,2.29    c-0.375,0.367-0.893,0.593-1.419,0.652c-0.24,0.038-0.45,0.046-0.608,0.038V150.59z M138.646,147.782    c0,0.608,0.368,1.036,0.938,1.036c0.443,0,0.788-0.218,0.961-0.511c0.038-0.06,0.06-0.135,0.06-0.24    c0-0.833-0.308-1.471-0.999-1.471C139.044,146.597,138.646,147.092,138.646,147.782z"/>
		<path d="M144.783,146.731h-1.862l-0.188,1.254c0.113-0.016,0.218-0.03,0.398-0.03c0.375,0,0.75,0.083,1.051,0.263    c0.383,0.218,0.698,0.639,0.698,1.254c0,0.953-0.758,1.667-1.816,1.667c-0.533,0-0.984-0.15-1.216-0.301l0.165-0.503    c0.203,0.12,0.601,0.271,1.043,0.271c0.623,0,1.156-0.405,1.156-1.059c-0.008-0.631-0.428-1.081-1.404-1.081    c-0.278,0-0.496,0.03-0.676,0.053l0.315-2.343h2.334V146.731z"/>
		<path d="M148.961,148.563c0,1.659-0.616,2.575-1.696,2.575c-0.954,0-1.6-0.894-1.614-2.508c0-1.637,0.706-2.537,1.696-2.537    C148.376,146.094,148.961,147.009,148.961,148.563z M146.311,148.639c0,1.269,0.391,1.989,0.991,1.989    c0.676,0,0.998-0.788,0.998-2.034c0-1.201-0.308-1.99-0.99-1.99C146.731,146.604,146.311,147.31,146.311,148.639z"/>
	</g>
	<g>
		<path d="M191.608,146.791h-0.016l-0.849,0.458l-0.128-0.503l1.066-0.57h0.562v4.88h-0.637V146.791z"/>
		<path d="M194.403,150.59c0.143,0.016,0.309,0,0.533-0.022c0.383-0.052,0.744-0.21,1.021-0.473    c0.322-0.293,0.555-0.721,0.646-1.299h-0.022c-0.271,0.33-0.66,0.525-1.148,0.525c-0.879,0-1.441-0.66-1.441-1.494    c0-0.923,0.668-1.733,1.666-1.733s1.614,0.811,1.614,2.057c0,1.073-0.36,1.824-0.841,2.29c-0.375,0.367-0.893,0.593-1.419,0.652    c-0.24,0.038-0.45,0.046-0.608,0.038V150.59z M194.644,147.782c0,0.608,0.368,1.036,0.939,1.036c0.442,0,0.787-0.218,0.961-0.511    c0.037-0.06,0.06-0.135,0.06-0.24c0-0.833-0.308-1.471-0.999-1.471C195.042,146.597,194.644,147.092,194.644,147.782z"/>
		<path d="M201.036,146.176v0.436l-2.125,4.444h-0.683l2.117-4.316v-0.016h-2.388v-0.548H201.036z"/>
		<path d="M204.958,148.563c0,1.659-0.615,2.575-1.696,2.575c-0.954,0-1.599-0.894-1.614-2.508c0-1.637,0.706-2.537,1.697-2.537    C204.373,146.094,204.958,147.009,204.958,148.563z M202.308,148.639c0,1.269,0.391,1.989,0.992,1.989    c0.676,0,0.998-0.788,0.998-2.034c0-1.201-0.309-1.99-0.991-1.99C202.729,146.604,202.308,147.31,202.308,148.639z"/>
	</g>
	<g>
		<path d="M51.614,146.791h-0.015l-0.849,0.458l-0.127-0.503l1.066-0.57h0.563v4.88h-0.638V146.791z"/>
		<path d="M54.41,150.59c0.143,0.016,0.308,0,0.533-0.022c0.383-0.052,0.743-0.21,1.021-0.473c0.323-0.293,0.555-0.721,0.646-1.299    h-0.022c-0.271,0.33-0.661,0.525-1.149,0.525c-0.878,0-1.441-0.66-1.441-1.494c0-0.923,0.668-1.733,1.667-1.733    c0.998,0,1.614,0.811,1.614,2.057c0,1.073-0.36,1.824-0.841,2.29c-0.375,0.367-0.893,0.593-1.419,0.652    c-0.24,0.038-0.45,0.046-0.608,0.038V150.59z M54.65,147.782c0,0.608,0.368,1.036,0.938,1.036c0.443,0,0.788-0.218,0.961-0.511    c0.038-0.06,0.06-0.135,0.06-0.24c0-0.833-0.308-1.471-0.999-1.471C55.048,146.597,54.65,147.092,54.65,147.782z"/>
		<path d="M57.875,151.056v-0.405l0.518-0.503c1.246-1.187,1.809-1.817,1.816-2.553c0-0.495-0.24-0.953-0.968-0.953    c-0.443,0-0.811,0.225-1.036,0.413l-0.21-0.466c0.338-0.285,0.818-0.495,1.381-0.495c1.051,0,1.494,0.721,1.494,1.418    c0,0.901-0.653,1.63-1.682,2.62l-0.391,0.36v0.016h2.192v0.548H57.875z"/>
		<path d="M64.965,148.563c0,1.659-0.616,2.575-1.697,2.575c-0.954,0-1.599-0.894-1.614-2.508c0-1.637,0.706-2.537,1.696-2.537    C64.379,146.094,64.965,147.009,64.965,148.563z M62.314,148.639c0,1.269,0.391,1.989,0.991,1.989    c0.676,0,0.999-0.788,0.999-2.034c0-1.201-0.308-1.99-0.991-1.99C62.735,146.604,62.314,147.31,62.314,148.639z"/>
	</g>
	<g>
		<path d="M107.612,146.791h-0.015l-0.849,0.458l-0.127-0.503l1.066-0.57h0.563v4.88h-0.638V146.791z"/>
		<path d="M110.408,150.59c0.143,0.016,0.308,0,0.533-0.022c0.383-0.052,0.743-0.21,1.021-0.473    c0.323-0.293,0.555-0.721,0.646-1.299h-0.022c-0.271,0.33-0.661,0.525-1.149,0.525c-0.878,0-1.441-0.66-1.441-1.494    c0-0.923,0.668-1.733,1.667-1.733c0.998,0,1.614,0.811,1.614,2.057c0,1.073-0.36,1.824-0.841,2.29    c-0.375,0.367-0.893,0.593-1.419,0.652c-0.24,0.038-0.45,0.046-0.608,0.038V150.59z M110.648,147.782    c0,0.608,0.368,1.036,0.938,1.036c0.443,0,0.788-0.218,0.961-0.511c0.038-0.06,0.06-0.135,0.06-0.24    c0-0.833-0.308-1.471-0.999-1.471C111.046,146.597,110.648,147.092,110.648,147.782z"/>
		<path d="M115.914,151.056v-1.329h-2.267v-0.436l2.177-3.115h0.713v3.033h0.683v0.518h-0.683v1.329H115.914z M115.914,149.209    v-1.629c0-0.256,0.007-0.511,0.022-0.766h-0.022c-0.15,0.285-0.271,0.495-0.405,0.721l-1.194,1.658v0.016H115.914z"/>
		<path d="M120.962,148.563c0,1.659-0.616,2.575-1.697,2.575c-0.954,0-1.599-0.894-1.614-2.508c0-1.637,0.706-2.537,1.696-2.537    C120.377,146.094,120.962,147.009,120.962,148.563z M118.312,148.639c0,1.269,0.391,1.989,0.991,1.989    c0.676,0,0.999-0.788,0.999-2.034c0-1.201-0.308-1.99-0.991-1.99C118.733,146.604,118.312,147.31,118.312,148.639z"/>
	</g>
	<g>
		<path d="M163.609,146.791h-0.015l-0.85,0.458l-0.127-0.503l1.066-0.57h0.562v4.88h-0.638V146.791z"/>
		<path d="M166.405,150.59c0.143,0.016,0.308,0,0.533-0.022c0.383-0.052,0.743-0.21,1.021-0.473    c0.322-0.293,0.555-0.721,0.645-1.299h-0.021c-0.271,0.33-0.661,0.525-1.149,0.525c-0.878,0-1.441-0.66-1.441-1.494    c0-0.923,0.669-1.733,1.667-1.733s1.613,0.811,1.613,2.057c0,1.073-0.359,1.824-0.84,2.29c-0.376,0.367-0.894,0.593-1.42,0.652    c-0.24,0.038-0.449,0.046-0.607,0.038V150.59z M166.646,147.782c0,0.608,0.367,1.036,0.938,1.036c0.442,0,0.788-0.218,0.961-0.511    c0.038-0.06,0.06-0.135,0.06-0.24c0-0.833-0.308-1.471-0.998-1.471C167.044,146.597,166.646,147.092,166.646,147.782z"/>
		<path d="M172.655,146.642c-0.136-0.008-0.309,0-0.496,0.03c-1.036,0.172-1.584,0.931-1.696,1.733h0.022    c0.232-0.308,0.638-0.562,1.179-0.562c0.863,0,1.472,0.623,1.472,1.576c0,0.894-0.608,1.72-1.622,1.72    c-1.044,0-1.727-0.812-1.727-2.08c0-0.961,0.345-1.719,0.825-2.199c0.406-0.398,0.946-0.646,1.562-0.721    c0.195-0.03,0.359-0.038,0.48-0.038V146.642z M172.468,149.457c0-0.698-0.398-1.119-1.007-1.119c-0.397,0-0.766,0.248-0.946,0.601    c-0.045,0.075-0.074,0.173-0.074,0.293c0.015,0.804,0.383,1.396,1.073,1.396C172.084,150.628,172.468,150.154,172.468,149.457z"/>
		<path d="M176.96,148.563c0,1.659-0.615,2.575-1.697,2.575c-0.953,0-1.599-0.894-1.613-2.508c0-1.637,0.705-2.537,1.696-2.537    C176.374,146.094,176.96,147.009,176.96,148.563z M174.31,148.639c0,1.269,0.391,1.989,0.991,1.989    c0.676,0,0.999-0.788,0.999-2.034c0-1.201-0.309-1.99-0.992-1.99C174.73,146.604,174.31,147.31,174.31,148.639z"/>
	</g>
	<g>
		<path d="M219.606,146.791h-0.016l-0.848,0.458l-0.128-0.503l1.065-0.57h0.563v4.88h-0.638V146.791z"/>
		<path d="M222.402,150.59c0.143,0.016,0.308,0,0.533-0.022c0.383-0.052,0.743-0.21,1.021-0.473    c0.323-0.293,0.556-0.721,0.646-1.299h-0.023c-0.27,0.33-0.66,0.525-1.148,0.525c-0.878,0-1.441-0.66-1.441-1.494    c0-0.923,0.668-1.733,1.667-1.733c0.998,0,1.614,0.811,1.614,2.057c0,1.073-0.361,1.824-0.842,2.29    c-0.375,0.367-0.893,0.593-1.418,0.652c-0.24,0.038-0.451,0.046-0.608,0.038V150.59z M222.643,147.782    c0,0.608,0.368,1.036,0.938,1.036c0.443,0,0.788-0.218,0.961-0.511c0.037-0.06,0.061-0.135,0.061-0.24    c0-0.833-0.309-1.471-0.999-1.471C223.04,146.597,222.643,147.092,222.643,147.782z"/>
		<path d="M225.807,149.817c0-0.616,0.368-1.052,0.968-1.307l-0.007-0.022c-0.54-0.256-0.773-0.676-0.773-1.096    c0-0.773,0.653-1.299,1.509-1.299c0.946,0,1.419,0.593,1.419,1.201c0,0.412-0.202,0.855-0.804,1.141v0.022    c0.609,0.24,0.984,0.668,0.984,1.262c0,0.848-0.729,1.419-1.659,1.419C226.423,151.139,225.807,150.53,225.807,149.817z     M228.435,149.787c0-0.594-0.413-0.879-1.074-1.066c-0.57,0.165-0.878,0.541-0.878,1.006c-0.022,0.496,0.353,0.932,0.976,0.932    C228.052,150.658,228.435,150.29,228.435,149.787z M226.617,147.347c0,0.488,0.368,0.751,0.931,0.901    c0.421-0.143,0.744-0.443,0.744-0.886c0-0.391-0.233-0.796-0.826-0.796C226.917,146.566,226.617,146.927,226.617,147.347z"/>
		<path d="M232.957,148.563c0,1.659-0.616,2.575-1.696,2.575c-0.954,0-1.6-0.894-1.614-2.508c0-1.637,0.706-2.537,1.696-2.537    C232.372,146.094,232.957,147.009,232.957,148.563z M230.307,148.639c0,1.269,0.391,1.989,0.991,1.989    c0.676,0,0.998-0.788,0.998-2.034c0-1.201-0.308-1.99-0.99-1.99C230.728,146.604,230.307,147.31,230.307,148.639z"/>
	</g>
	<g>
		<path d="M247.605,146.791h-0.015l-0.85,0.458l-0.127-0.503l1.066-0.57h0.562v4.88h-0.638V146.791z"/>
		<path d="M250.401,150.59c0.143,0.016,0.308,0,0.533-0.022c0.383-0.052,0.743-0.21,1.021-0.473    c0.322-0.293,0.555-0.721,0.645-1.299h-0.021c-0.271,0.33-0.661,0.525-1.149,0.525c-0.878,0-1.441-0.66-1.441-1.494    c0-0.923,0.669-1.733,1.667-1.733s1.613,0.811,1.613,2.057c0,1.073-0.359,1.824-0.84,2.29c-0.376,0.367-0.894,0.593-1.42,0.652    c-0.24,0.038-0.449,0.046-0.607,0.038V150.59z M250.642,147.782c0,0.608,0.367,1.036,0.938,1.036c0.442,0,0.788-0.218,0.961-0.511    c0.038-0.06,0.06-0.135,0.06-0.24c0-0.833-0.308-1.471-0.998-1.471C251.04,146.597,250.642,147.092,250.642,147.782z"/>
		<path d="M254.249,150.59c0.143,0.016,0.307,0,0.533-0.022c0.383-0.052,0.742-0.21,1.021-0.473    c0.323-0.293,0.556-0.721,0.646-1.299h-0.022c-0.271,0.33-0.661,0.525-1.149,0.525c-0.878,0-1.441-0.66-1.441-1.494    c0-0.923,0.669-1.733,1.668-1.733c0.998,0,1.613,0.811,1.613,2.057c0,1.073-0.36,1.824-0.841,2.29    c-0.375,0.367-0.894,0.593-1.419,0.652c-0.24,0.038-0.45,0.046-0.607,0.038V150.59z M254.489,147.782    c0,0.608,0.367,1.036,0.938,1.036c0.443,0,0.789-0.218,0.961-0.511c0.038-0.06,0.061-0.135,0.061-0.24    c0-0.833-0.308-1.471-0.998-1.471C254.887,146.597,254.489,147.092,254.489,147.782z"/>
		<path d="M260.956,148.563c0,1.659-0.615,2.575-1.697,2.575c-0.953,0-1.599-0.894-1.613-2.508c0-1.637,0.705-2.537,1.696-2.537    C260.37,146.094,260.956,147.009,260.956,148.563z M258.306,148.639c0,1.269,0.391,1.989,0.991,1.989    c0.676,0,0.999-0.788,0.999-2.034c0-1.201-0.309-1.99-0.992-1.99C258.727,146.604,258.306,147.31,258.306,148.639z"/>
	</g>
	<g>
		<path d="M274.17,151.056v-0.405l0.519-0.503c1.246-1.187,1.809-1.817,1.816-2.553c0-0.495-0.24-0.953-0.969-0.953    c-0.443,0-0.811,0.225-1.036,0.413l-0.21-0.466c0.338-0.285,0.818-0.495,1.381-0.495c1.051,0,1.494,0.721,1.494,1.418    c0,0.901-0.652,1.63-1.682,2.62l-0.391,0.36v0.016h2.193v0.548H274.17z"/>
		<path d="M281.261,148.563c0,1.659-0.616,2.575-1.697,2.575c-0.953,0-1.6-0.894-1.613-2.508c0-1.637,0.705-2.537,1.695-2.537    C280.675,146.094,281.261,147.009,281.261,148.563z M278.61,148.639c0,1.269,0.391,1.989,0.99,1.989    c0.676,0,0.999-0.788,0.999-2.034c0-1.201-0.308-1.99-0.991-1.99C279.03,146.604,278.61,147.31,278.61,148.639z"/>
		<path d="M285.107,148.563c0,1.659-0.616,2.575-1.696,2.575c-0.953,0-1.6-0.894-1.615-2.508c0-1.637,0.707-2.537,1.697-2.537    C284.522,146.094,285.107,147.009,285.107,148.563z M282.458,148.639c0,1.269,0.39,1.989,0.99,1.989    c0.676,0,0.998-0.788,0.998-2.034c0-1.201-0.307-1.99-0.99-1.99C282.878,146.604,282.458,147.31,282.458,148.639z"/>
		<path d="M288.954,148.563c0,1.659-0.615,2.575-1.696,2.575c-0.954,0-1.599-0.894-1.614-2.508c0-1.637,0.706-2.537,1.697-2.537    C288.369,146.094,288.954,147.009,288.954,148.563z M286.304,148.639c0,1.269,0.391,1.989,0.992,1.989    c0.676,0,0.998-0.788,0.998-2.034c0-1.201-0.309-1.99-0.991-1.99C286.726,146.604,286.304,147.31,286.304,148.639z"/>
	</g>
</g>
</svg>