<svg xmlns="http://www.w3.org/2000/svg" xmlns:xlink="http://www.w3.org/1999/xlink" version="1.1" id="Layer_1" x="0px" y="0px" width="301.421px" height="211.185px" viewBox="0 0 301.421 211.185" enable-background="new 0 0 301.421 211.185" xml:space="preserve">
<path d="M33.959,208.935h0.792v-2.62c0-0.135,0.018-0.27,0.054-0.369c0.135-0.44,0.54-0.81,1.062-0.81  c0.748,0,1.009,0.585,1.009,1.287v2.512h0.792v-2.602c0-1.494-0.936-1.854-1.54-1.854c-0.72,0-1.224,0.405-1.44,0.819H34.67  l-0.045-0.721h-0.702c0.027,0.36,0.036,0.729,0.036,1.18V208.935z M31.917,207.468l-0.045,0.252  c-0.126,0.369-0.487,0.729-1.054,0.729c-0.405,0-0.747-0.242-0.747-0.756c0-0.847,0.981-1,1.846-0.981V207.468z M32.754,208.935  c-0.054-0.297-0.072-0.666-0.072-1.044v-1.63c0-0.873-0.324-1.782-1.657-1.782c-0.549,0-1.071,0.153-1.431,0.387l0.18,0.522  c0.306-0.198,0.729-0.324,1.134-0.324c0.892,0,0.991,0.648,0.991,1.008v0.09c-1.684-0.009-2.62,0.567-2.62,1.621  c0,0.63,0.45,1.251,1.332,1.251c0.621,0,1.09-0.306,1.333-0.647h0.027l0.063,0.549H32.754z M27.911,202.858  c-0.288,0-0.495,0.216-0.495,0.495c0,0.271,0.198,0.486,0.477,0.486c0.315,0,0.513-0.216,0.504-0.486  C28.397,203.074,28.208,202.858,27.911,202.858 M28.307,204.578h-0.792v4.357h0.792V204.578z M23.177,206.405  c0-0.126,0.027-0.233,0.045-0.323c0.162-0.604,0.666-0.973,1.207-0.973c0.846,0,1.296,0.747,1.296,1.62c0,1-0.495,1.675-1.323,1.675  c-0.577,0-1.036-0.378-1.189-0.927c-0.018-0.09-0.036-0.189-0.036-0.289V206.405z M23.042,208.935l0.036-0.72h0.027  c0.324,0.576,0.828,0.818,1.459,0.818c0.972,0,1.953-0.773,1.953-2.332c0.009-1.322-0.756-2.223-1.836-2.223  c-0.703,0-1.207,0.315-1.486,0.801h-0.018v-2.736h-0.783v5.267c0,0.387-0.018,0.828-0.036,1.125H23.042z M20.352,207.468  l-0.045,0.252c-0.126,0.369-0.486,0.729-1.054,0.729c-0.405,0-0.747-0.242-0.747-0.756c0-0.847,0.981-1,1.846-0.981V207.468z   M21.189,208.935c-0.054-0.297-0.072-0.666-0.072-1.044v-1.63c0-0.873-0.324-1.782-1.657-1.782c-0.549,0-1.071,0.153-1.431,0.387  l0.18,0.522c0.306-0.198,0.729-0.324,1.134-0.324c0.892,0,0.991,0.648,0.991,1.008v0.09c-1.684-0.009-2.62,0.567-2.62,1.621  c0,0.63,0.45,1.251,1.332,1.251c0.621,0,1.09-0.306,1.333-0.647h0.027l0.063,0.549H21.189z M14.105,208.935h0.783v-2.746h2.296  v-0.647h-2.296v-2.018h2.485v-0.657h-3.268V208.935z"/>
<path fill="#939598" d="M85.257,105.035c0.295,0,0.479-0.216,0.479-0.504c0-0.296-0.192-0.503-0.471-0.503  c-0.28,0-0.48,0.207-0.48,0.503C84.785,104.819,84.977,105.035,85.257,105.035 M80.761,104.683c0.288,0.192,0.855,0.344,1.375,0.344  c1.271,0,1.887-0.72,1.887-1.551c0-0.792-0.464-1.232-1.375-1.583c-0.744-0.288-1.072-0.536-1.072-1.04  c0-0.368,0.28-0.807,1.016-0.807c0.488,0,0.847,0.16,1.023,0.256l0.192-0.568c-0.24-0.136-0.639-0.264-1.191-0.264  c-1.048,0-1.743,0.624-1.743,1.463c0,0.76,0.544,1.216,1.423,1.527c0.728,0.28,1.016,0.568,1.016,1.072  c0,0.543-0.416,0.919-1.128,0.919c-0.48,0-0.935-0.16-1.247-0.352L80.761,104.683z M79.657,105.035c0.295,0,0.479-0.216,0.479-0.504  c0-0.296-0.192-0.503-0.471-0.503c-0.28,0-0.48,0.207-0.48,0.503C79.185,104.819,79.377,105.035,79.657,105.035 M74.409,99.558  v3.174c0,1.671,0.831,2.303,1.935,2.303c1.167,0,2.039-0.68,2.039-2.335v-3.142h-0.704v3.19c0,1.192-0.512,1.719-1.311,1.719  c-0.72,0-1.256-0.511-1.256-1.719v-3.19H74.409z M69.896,104.947h0.68V99.75h-0.6l-1.135,0.608l0.136,0.535l0.903-0.488h0.016  V104.947z M65.792,104.947h0.68V99.75h-0.6l-1.135,0.608l0.135,0.535l0.904-0.488h0.016V104.947z M61.856,100.206  c0.727,0,1.055,0.839,1.055,2.118c0,1.328-0.343,2.167-1.063,2.167c-0.64,0-1.056-0.767-1.056-2.119  C60.792,100.957,61.24,100.206,61.856,100.206 M61.896,99.662c-1.056,0-1.807,0.959-1.807,2.702  c0.016,1.719,0.703,2.671,1.719,2.671c1.151,0,1.807-0.976,1.807-2.743C63.615,100.637,62.991,99.662,61.896,99.662 M59.375,104.947  v-0.584H57.04v-0.016l0.416-0.383c1.095-1.056,1.791-1.831,1.791-2.791c0-0.744-0.472-1.511-1.591-1.511  c-0.6,0-1.111,0.224-1.471,0.528l0.224,0.495c0.239-0.2,0.631-0.439,1.103-0.439c0.776,0,1.031,0.487,1.031,1.015  c-0.008,0.784-0.607,1.455-1.934,2.719l-0.552,0.535v0.432H59.375z"/>
<path fill="#939598" d="M236.257,93.147c0.295,0,0.479-0.216,0.479-0.504c0-0.296-0.191-0.503-0.471-0.503  c-0.28,0-0.479,0.207-0.479,0.503C235.785,92.931,235.977,93.147,236.257,93.147 M231.761,92.795  c0.288,0.192,0.855,0.344,1.375,0.344c1.271,0,1.887-0.72,1.887-1.551c0-0.792-0.464-1.232-1.375-1.583  c-0.744-0.288-1.071-0.536-1.071-1.04c0-0.368,0.279-0.807,1.016-0.807c0.488,0,0.847,0.16,1.023,0.256l0.191-0.568  c-0.24-0.136-0.639-0.264-1.19-0.264c-1.049,0-1.743,0.624-1.743,1.463c0,0.76,0.544,1.216,1.423,1.527  c0.728,0.28,1.016,0.568,1.016,1.072c0,0.543-0.416,0.919-1.128,0.919c-0.479,0-0.935-0.16-1.247-0.352L231.761,92.795z   M230.657,93.147c0.295,0,0.479-0.216,0.479-0.504c0-0.296-0.192-0.503-0.471-0.503c-0.28,0-0.48,0.207-0.48,0.503  C230.185,92.931,230.377,93.147,230.657,93.147 M225.409,87.67v3.174c0,1.671,0.831,2.303,1.935,2.303  c1.167,0,2.039-0.68,2.039-2.335V87.67h-0.704v3.19c0,1.192-0.512,1.719-1.311,1.719c-0.721,0-1.257-0.511-1.257-1.719v-3.19  H225.409z M220.896,93.059h0.681v-5.197h-0.601l-1.135,0.608l0.136,0.535l0.903-0.488h0.016V93.059z M216.96,88.318  c0.728,0,1.055,0.839,1.055,2.118c0,1.328-0.343,2.167-1.062,2.167c-0.641,0-1.057-0.767-1.057-2.119  C215.896,89.069,216.344,88.318,216.96,88.318 M217,87.774c-1.057,0-1.808,0.959-1.808,2.702c0.017,1.719,0.703,2.671,1.72,2.671  c1.15,0,1.807-0.976,1.807-2.743C218.719,88.749,218.095,87.774,217,87.774 M212.855,88.318c0.728,0,1.056,0.839,1.056,2.118  c0,1.328-0.344,2.167-1.063,2.167c-0.64,0-1.056-0.767-1.056-2.119C211.792,89.069,212.24,88.318,212.855,88.318 M212.896,87.774  c-1.056,0-1.807,0.959-1.807,2.702c0.016,1.719,0.703,2.671,1.719,2.671c1.151,0,1.808-0.976,1.808-2.743  C214.615,88.749,213.991,87.774,212.896,87.774 M210.375,93.059v-0.584h-2.335v-0.016l0.416-0.383  c1.095-1.056,1.791-1.831,1.791-2.791c0-0.744-0.473-1.511-1.591-1.511c-0.601,0-1.111,0.224-1.472,0.528l0.225,0.495  c0.238-0.2,0.631-0.439,1.103-0.439c0.776,0,1.031,0.487,1.031,1.015c-0.008,0.784-0.607,1.455-1.935,2.719l-0.552,0.535v0.432  H210.375z"/>
<path d="M150.462,127.539c0.272,0.16,0.664,0.264,1.088,0.264c0.92,0,1.446-0.48,1.446-1.159c0-0.576-0.343-0.912-1.015-1.168  c-0.504-0.191-0.736-0.336-0.736-0.655c0-0.287,0.232-0.527,0.648-0.527c0.359,0,0.64,0.128,0.792,0.224l0.176-0.512  c-0.216-0.128-0.56-0.24-0.952-0.24c-0.831,0-1.335,0.512-1.335,1.136c0,0.463,0.328,0.848,1.023,1.096  c0.52,0.191,0.72,0.376,0.72,0.712c0,0.318-0.24,0.575-0.752,0.575c-0.352,0-0.719-0.145-0.927-0.28L150.462,127.539z   M148.102,122.981c0.728,0,1.055,0.839,1.055,2.118c0,1.328-0.343,2.167-1.063,2.167c-0.64,0-1.056-0.767-1.056-2.119  C147.038,123.732,147.485,122.981,148.102,122.981 M148.142,122.437c-1.056,0-1.807,0.959-1.807,2.702  c0.016,1.719,0.703,2.671,1.719,2.671c1.151,0,1.807-0.976,1.807-2.743C149.86,123.413,149.236,122.437,148.142,122.437   M145.621,127.722v-0.584h-2.335v-0.016l0.416-0.383c1.095-1.057,1.791-1.831,1.791-2.791c0-0.744-0.472-1.512-1.591-1.512  c-0.6,0-1.111,0.225-1.471,0.528l0.224,0.495c0.24-0.2,0.631-0.439,1.103-0.439c0.776,0,1.031,0.487,1.031,1.016  c-0.008,0.783-0.607,1.455-1.934,2.719l-0.552,0.535v0.432H145.621z M139.894,122.981c0.727,0,1.055,0.839,1.055,2.118  c0,1.328-0.343,2.167-1.063,2.167c-0.64,0-1.056-0.767-1.056-2.119C138.83,123.732,139.277,122.981,139.894,122.981   M139.934,122.437c-1.056,0-1.807,0.959-1.807,2.702c0.016,1.719,0.703,2.671,1.719,2.671c1.151,0,1.807-0.976,1.807-2.743  C141.652,123.413,141.028,122.437,139.934,122.437 M137.413,127.722v-0.584h-2.335v-0.016l0.416-0.383  c1.095-1.057,1.791-1.831,1.791-2.791c0-0.744-0.472-1.512-1.591-1.512c-0.6,0-1.111,0.225-1.471,0.528l0.224,0.495  c0.239-0.2,0.631-0.439,1.103-0.439c0.776,0,1.031,0.487,1.031,1.016c-0.008,0.783-0.607,1.455-1.934,2.719l-0.552,0.535v0.432  H137.413z"/>
<path d="M158.934,136.81c0.296,0,0.479-0.216,0.479-0.495c0-0.297-0.192-0.505-0.472-0.505c-0.28,0-0.479,0.208-0.479,0.505  C158.462,136.594,158.653,136.81,158.934,136.81 M159.261,135.196l-0.008-0.208c-0.023-0.408,0.104-0.761,0.456-1.177  c0.384-0.454,0.688-0.847,0.688-1.391c0-0.607-0.415-1.175-1.335-1.175c-0.425,0-0.879,0.128-1.144,0.32l0.192,0.503  c0.2-0.152,0.519-0.247,0.807-0.247c0.504,0.008,0.76,0.278,0.76,0.687c0,0.36-0.199,0.672-0.56,1.096  c-0.4,0.479-0.544,0.951-0.496,1.384l0.016,0.208H159.261z M151.422,136.722h0.688v-2.335c0-0.12,0.016-0.239,0.056-0.344  c0.112-0.352,0.433-0.703,0.872-0.703c0.536,0,0.807,0.447,0.807,1.063v2.318h0.688v-2.391c0-0.128,0.024-0.256,0.056-0.353  c0.12-0.343,0.433-0.639,0.832-0.639c0.567,0,0.839,0.447,0.839,1.191v2.19h0.688v-2.278c0-1.344-0.76-1.68-1.272-1.68  c-0.366,0-0.623,0.097-0.854,0.272c-0.16,0.12-0.312,0.288-0.432,0.504h-0.017c-0.168-0.456-0.568-0.776-1.095-0.776  c-0.641,0-1,0.345-1.216,0.712h-0.024l-0.032-0.624h-0.614c0.023,0.32,0.031,0.648,0.031,1.048V136.722z M150.252,132.852h-0.704  v2.375c0,0.128-0.024,0.257-0.064,0.359c-0.128,0.312-0.455,0.64-0.927,0.64c-0.64,0-0.864-0.496-0.864-1.23v-2.144h-0.703v2.264  c0,1.358,0.727,1.694,1.335,1.694c0.688,0,1.095-0.407,1.279-0.72h0.016l0.04,0.632h0.624c-0.024-0.304-0.032-0.655-0.032-1.056  V132.852z M140.342,136.722h0.687v-2.335c0-0.12,0.016-0.239,0.056-0.344c0.112-0.352,0.432-0.703,0.872-0.703  c0.536,0,0.807,0.447,0.807,1.063v2.318h0.688v-2.391c0-0.128,0.024-0.256,0.056-0.353c0.12-0.343,0.432-0.639,0.832-0.639  c0.567,0,0.839,0.447,0.839,1.191v2.19h0.688v-2.278c0-1.344-0.76-1.68-1.272-1.68c-0.367,0-0.623,0.097-0.855,0.272  c-0.16,0.12-0.312,0.288-0.432,0.504h-0.016c-0.168-0.456-0.568-0.776-1.095-0.776c-0.64,0-1,0.345-1.216,0.712h-0.024l-0.032-0.624  h-0.615c0.024,0.32,0.032,0.648,0.032,1.048V136.722z M138.822,131.326c-0.256,0-0.44,0.191-0.44,0.439  c0,0.239,0.176,0.432,0.424,0.432c0.279,0,0.455-0.192,0.447-0.432C139.253,131.517,139.085,131.326,138.822,131.326   M139.173,132.852h-0.704v3.87h0.704V132.852z M135.982,131.924v0.928h-0.6v0.536h0.6v2.11c0,0.456,0.072,0.8,0.272,1.008  c0.168,0.192,0.431,0.296,0.759,0.296c0.272,0,0.488-0.04,0.624-0.096l-0.032-0.528c-0.088,0.024-0.224,0.048-0.408,0.048  c-0.392,0-0.528-0.271-0.528-0.751v-2.087h1.008v-0.536h-1.008v-1.11L135.982,131.924z M131.965,134.484  c0-0.097,0.024-0.2,0.048-0.288c0.136-0.527,0.584-0.871,1.064-0.871c0.743,0,1.151,0.663,1.151,1.438  c0,0.888-0.432,1.495-1.175,1.495c-0.504,0-0.928-0.336-1.056-0.823c-0.016-0.088-0.032-0.184-0.032-0.287V134.484z M131.27,138.305  h0.695v-2.103h0.016c0.232,0.384,0.68,0.607,1.192,0.607c0.911,0,1.759-0.688,1.759-2.078c0-1.176-0.704-1.968-1.639-1.968  c-0.632,0-1.088,0.28-1.375,0.752h-0.016l-0.032-0.664h-0.632c0.016,0.368,0.032,0.769,0.032,1.264V138.305z M128.501,133.292  c0.832,0,1.159,0.831,1.159,1.487c0,0.871-0.503,1.503-1.175,1.503c-0.688,0-1.175-0.641-1.175-1.487  C127.31,134.059,127.669,133.292,128.501,133.292 M128.517,132.764c-1.071,0-1.919,0.761-1.919,2.056c0,1.223,0.808,1.99,1.855,1.99  c0.936,0,1.927-0.624,1.927-2.055C130.38,133.573,129.628,132.764,128.517,132.764"/>
<path d="M54.287,36.373h0.704v-2.335c0-0.136,0.008-0.24,0.048-0.336c0.128-0.383,0.488-0.703,0.943-0.703  c0.664,0,0.896,0.528,0.896,1.151v2.223h0.704V34.07c0-1.335-0.832-1.655-1.352-1.655c-0.264,0-0.511,0.08-0.719,0.2  c-0.216,0.12-0.392,0.296-0.504,0.496h-0.016v-2.415h-0.704V36.373z M53.348,35.701c-0.2,0.088-0.463,0.192-0.863,0.192  c-0.768,0-1.343-0.551-1.343-1.447c0-0.807,0.479-1.463,1.367-1.463c0.384,0,0.647,0.088,0.815,0.184l0.16-0.544  c-0.192-0.096-0.559-0.2-0.975-0.2c-1.264,0-2.079,0.864-2.079,2.055c0,1.183,0.76,1.975,1.927,1.975  c0.52,0,0.927-0.128,1.111-0.224L53.348,35.701z M47.108,34.062c0.056-0.487,0.368-1.143,1.079-1.143  c0.792,0,0.984,0.696,0.976,1.143H47.108z M49.818,34.566c0.008-0.072,0.024-0.184,0.024-0.328c0-0.711-0.335-1.823-1.599-1.823  c-1.127,0-1.815,0.92-1.815,2.087s0.712,1.951,1.903,1.951c0.616,0,1.04-0.128,1.288-0.24l-0.12-0.504  c-0.264,0.112-0.568,0.2-1.072,0.2c-0.703,0-1.311-0.392-1.327-1.343H49.818z M44.268,31.576v0.927h-0.6v0.536h0.6v2.111  c0,0.455,0.072,0.799,0.272,1.007c0.168,0.192,0.432,0.296,0.76,0.296c0.271,0,0.487-0.04,0.623-0.096l-0.032-0.528  c-0.088,0.024-0.224,0.048-0.408,0.048c-0.391,0-0.527-0.272-0.527-0.751v-2.087h1.007v-0.536h-1.007v-1.111L44.268,31.576z   M41.315,34.47h1.975v-0.52h-1.975V34.47z M35.337,32.502l1.168,3.87h0.639l0.624-1.839c0.136-0.416,0.256-0.816,0.352-1.279h0.016  c0.096,0.455,0.208,0.839,0.343,1.271l0.592,1.847h0.64l1.247-3.87h-0.695l-0.552,1.943c-0.128,0.456-0.232,0.864-0.296,1.255  h-0.024c-0.088-0.391-0.2-0.799-0.344-1.263l-0.599-1.935h-0.592l-0.632,1.975c-0.128,0.416-0.256,0.832-0.344,1.223h-0.024  c-0.072-0.399-0.176-0.799-0.287-1.231l-0.512-1.967H35.337z M33.064,32.943c0.832,0,1.159,0.831,1.159,1.487  c0,0.872-0.503,1.503-1.175,1.503c-0.687,0-1.175-0.639-1.175-1.487C31.874,33.709,32.233,32.943,33.064,32.943 M33.08,32.415  c-1.071,0-1.919,0.76-1.919,2.055c0,1.223,0.808,1.991,1.855,1.991c0.936,0,1.927-0.624,1.927-2.055  C34.943,33.223,34.192,32.415,33.08,32.415 M27.801,36.373h2.998v-0.584h-2.302v-4.805h-0.696V36.373z"/>
<path d="M73.146,45.372h0.704v-2.326c0-0.12,0.016-0.24,0.048-0.328c0.12-0.392,0.48-0.72,0.943-0.72  c0.664,0,0.896,0.52,0.896,1.144v2.23h0.703v-2.31c0-1.328-0.831-1.647-1.367-1.647c-0.639,0-1.087,0.359-1.279,0.727h-0.016  l-0.04-0.64h-0.624c0.024,0.32,0.032,0.648,0.032,1.048V45.372z M70.381,41.942c0.831,0,1.159,0.832,1.159,1.487  c0,0.872-0.504,1.504-1.175,1.504c-0.688,0-1.176-0.64-1.176-1.488C69.189,42.71,69.549,41.942,70.381,41.942 M70.397,41.415  c-1.072,0-1.919,0.759-1.919,2.054c0,1.224,0.807,1.991,1.855,1.991c0.935,0,1.927-0.623,1.927-2.055  C72.26,42.222,71.508,41.415,70.397,41.415 M67.241,39.975c-0.256,0-0.44,0.192-0.44,0.44c0,0.24,0.176,0.432,0.424,0.432  c0.279,0,0.455-0.192,0.447-0.432C67.672,40.167,67.504,39.975,67.241,39.975 M67.592,41.502h-0.704v3.87h0.704V41.502z   M64.404,40.575v0.927h-0.6v0.536h0.6v2.111c0,0.456,0.072,0.8,0.272,1.007c0.168,0.192,0.432,0.296,0.759,0.296  c0.272,0,0.488-0.04,0.624-0.096l-0.032-0.527c-0.088,0.024-0.224,0.048-0.408,0.048c-0.392,0-0.527-0.272-0.527-0.752v-2.087h1.007  v-0.536h-1.007v-1.111L64.404,40.575z M62.43,44.069l-0.04,0.224c-0.112,0.328-0.432,0.648-0.935,0.648  c-0.36,0-0.664-0.216-0.664-0.672c0-0.752,0.872-0.888,1.639-0.872V44.069z M63.174,45.372c-0.048-0.263-0.064-0.591-0.064-0.927  v-1.447c0-0.776-0.288-1.583-1.471-1.583c-0.488,0-0.952,0.135-1.272,0.343l0.16,0.464c0.272-0.176,0.648-0.288,1.008-0.288  c0.791,0,0.879,0.576,0.879,0.896v0.08c-1.495-0.008-2.327,0.503-2.327,1.439c0,0.56,0.4,1.111,1.184,1.111  c0.551,0,0.967-0.272,1.183-0.575h0.024l0.056,0.487H63.174z M53.722,45.372h0.688v-2.334c0-0.12,0.016-0.24,0.056-0.344  c0.112-0.352,0.432-0.704,0.872-0.704c0.535,0,0.807,0.448,0.807,1.064v2.318h0.688v-2.39c0-0.128,0.024-0.256,0.056-0.352  c0.12-0.344,0.431-0.64,0.831-0.64c0.568,0,0.84,0.448,0.84,1.192v2.19h0.687v-2.278c0-1.344-0.759-1.679-1.271-1.679  c-0.368,0-0.624,0.095-0.855,0.271c-0.16,0.12-0.312,0.288-0.432,0.504h-0.016c-0.168-0.456-0.568-0.775-1.096-0.775  c-0.639,0-0.999,0.343-1.215,0.711h-0.024l-0.032-0.624H53.69c0.024,0.32,0.032,0.648,0.032,1.048V45.372z M51.11,45.372h0.695  v-2.063c0-0.119,0.016-0.231,0.032-0.327c0.096-0.528,0.448-0.904,0.944-0.904c0.096,0,0.168,0.008,0.24,0.024v-0.663l-0.2-0.024  c-0.472,0-0.896,0.327-1.072,0.847h-0.032l-0.024-0.76h-0.615c0.024,0.36,0.032,0.752,0.032,1.208V45.372z M48.344,41.942  c0.832,0,1.159,0.832,1.159,1.487c0,0.872-0.503,1.504-1.175,1.504c-0.688,0-1.175-0.64-1.175-1.488  C47.153,42.71,47.513,41.942,48.344,41.942 M48.36,41.415c-1.071,0-1.919,0.759-1.919,2.054c0,1.224,0.808,1.991,1.855,1.991  c0.936,0,1.927-0.623,1.927-2.055C50.223,42.222,49.471,41.415,48.36,41.415 M45.256,45.372v-3.334h0.936v-0.536h-0.936v-0.207  c0-0.592,0.152-1.12,0.752-1.12c0.2,0,0.344,0.04,0.448,0.088l0.096-0.544c-0.136-0.055-0.352-0.111-0.6-0.111  c-0.328,0-0.68,0.103-0.943,0.359c-0.328,0.312-0.448,0.808-0.448,1.352v0.183h-0.544v0.536h0.544v3.334H45.256z M41.052,45.188  c0.272,0.16,0.664,0.264,1.088,0.264c0.919,0,1.447-0.479,1.447-1.159c0-0.576-0.344-0.912-1.016-1.167  c-0.503-0.192-0.735-0.336-0.735-0.656c0-0.288,0.232-0.528,0.647-0.528c0.36,0,0.64,0.128,0.792,0.224l0.176-0.512  c-0.216-0.128-0.56-0.239-0.952-0.239c-0.831,0-1.335,0.511-1.335,1.135c0,0.464,0.328,0.847,1.024,1.095  c0.519,0.192,0.719,0.376,0.719,0.712c0,0.32-0.24,0.576-0.751,0.576c-0.352,0-0.72-0.144-0.928-0.28L41.052,45.188z M36.887,45.372  h0.704v-2.326c0-0.12,0.016-0.24,0.048-0.328c0.12-0.392,0.48-0.72,0.943-0.72c0.664,0,0.896,0.52,0.896,1.144v2.23h0.704v-2.31  c0-1.328-0.832-1.647-1.368-1.647c-0.639,0-1.087,0.359-1.279,0.727h-0.016l-0.04-0.64h-0.624c0.024,0.32,0.032,0.648,0.032,1.048  V45.372z M35.073,44.069l-0.039,0.224c-0.112,0.328-0.432,0.648-0.936,0.648c-0.36,0-0.664-0.216-0.664-0.672  c0-0.752,0.872-0.888,1.639-0.872V44.069z M35.817,45.372c-0.048-0.263-0.064-0.591-0.064-0.927v-1.447  c0-0.776-0.288-1.583-1.471-1.583c-0.488,0-0.952,0.135-1.271,0.343l0.16,0.464c0.271-0.176,0.647-0.288,1.007-0.288  c0.792,0,0.879,0.576,0.879,0.896v0.08c-1.495-0.008-2.326,0.503-2.326,1.439c0,0.56,0.4,1.111,1.183,1.111  c0.552,0,0.968-0.272,1.183-0.575h0.024l0.056,0.487H35.817z M30.422,45.372h0.695v-2.063c0-0.119,0.016-0.231,0.032-0.327  c0.096-0.528,0.448-0.904,0.944-0.904c0.096,0,0.168,0.008,0.24,0.024v-0.663l-0.2-0.024c-0.472,0-0.896,0.327-1.072,0.847h-0.032  l-0.023-0.76H30.39c0.024,0.36,0.032,0.752,0.032,1.208V45.372z M27.937,40.575v0.927h-0.6v0.536h0.6v2.111  c0,0.456,0.072,0.8,0.272,1.007c0.168,0.192,0.432,0.296,0.759,0.296c0.272,0,0.488-0.04,0.624-0.096l-0.032-0.527  c-0.088,0.024-0.224,0.048-0.408,0.048c-0.391,0-0.527-0.272-0.527-0.752v-2.087h1.007v-0.536h-1.007v-1.111L27.937,40.575z"/>
<path d="M269.337,36.373h0.704v-2.335c0-0.136,0.008-0.24,0.048-0.335c0.127-0.384,0.487-0.704,0.943-0.704  c0.664,0,0.896,0.528,0.896,1.151v2.223h0.702V34.07c0-1.335-0.83-1.655-1.351-1.655c-0.264,0-0.512,0.08-0.72,0.2  c-0.216,0.12-0.393,0.296-0.503,0.496h-0.017v-2.415h-0.704V36.373z M268.393,35.701c-0.2,0.088-0.464,0.192-0.864,0.192  c-0.768,0-1.343-0.551-1.343-1.447c0-0.807,0.479-1.463,1.367-1.463c0.384,0,0.647,0.088,0.815,0.184l0.159-0.544  c-0.191-0.096-0.559-0.2-0.975-0.2c-1.264,0-2.079,0.864-2.079,2.055c0,1.183,0.76,1.975,1.927,1.975  c0.52,0,0.928-0.128,1.111-0.224L268.393,35.701z M262.146,34.062c0.056-0.487,0.367-1.143,1.079-1.143  c0.792,0,0.983,0.696,0.976,1.143H262.146z M264.855,34.565c0.008-0.072,0.023-0.184,0.023-0.328c0-0.711-0.336-1.823-1.599-1.823  c-1.127,0-1.815,0.92-1.815,2.087s0.713,1.951,1.903,1.951c0.616,0,1.039-0.128,1.287-0.24l-0.12-0.504  c-0.263,0.112-0.566,0.2-1.071,0.2c-0.703,0-1.311-0.391-1.326-1.343H264.855z M259.306,31.576v0.927h-0.601v0.536h0.601v2.111  c0,0.455,0.071,0.799,0.271,1.007c0.168,0.192,0.431,0.296,0.759,0.296c0.272,0,0.488-0.04,0.624-0.096l-0.031-0.528  c-0.089,0.024-0.225,0.048-0.408,0.048c-0.393,0-0.528-0.272-0.528-0.751v-2.087H261v-0.536h-1.008v-1.111L259.306,31.576z   M256.346,34.47h1.975v-0.52h-1.975V34.47z M252.249,36.373h0.704v-2.335c0-0.136,0.008-0.24,0.048-0.335  c0.127-0.384,0.487-0.704,0.943-0.704c0.664,0,0.896,0.528,0.896,1.151v2.223h0.703V34.07c0-1.335-0.831-1.655-1.351-1.655  c-0.264,0-0.512,0.08-0.72,0.2c-0.217,0.12-0.393,0.296-0.503,0.496h-0.017v-2.415h-0.704V36.373z M250.383,34.726  c0,0.12-0.016,0.256-0.055,0.376c-0.151,0.447-0.544,0.719-0.976,0.719c-0.76,0-1.144-0.631-1.144-1.391  c0-0.895,0.479-1.463,1.151-1.463c0.512,0,0.855,0.336,0.983,0.744c0.031,0.095,0.039,0.199,0.039,0.319V34.726z M250.495,32.502  l-0.032,0.584h-0.016c-0.167-0.32-0.535-0.672-1.207-0.672c-0.887,0-1.743,0.744-1.743,2.055c0,1.071,0.688,1.887,1.647,1.887  c0.6,0,1.016-0.288,1.23-0.648h0.017v0.432c0,0.976-0.527,1.351-1.247,1.351c-0.48,0-0.879-0.143-1.135-0.303l-0.177,0.535  c0.312,0.208,0.823,0.32,1.287,0.32c0.488,0,1.032-0.112,1.407-0.464c0.376-0.335,0.552-0.879,0.552-1.767v-2.246  c0-0.472,0.017-0.784,0.032-1.064H250.495z M246.257,30.976c-0.256,0-0.439,0.192-0.439,0.44c0,0.24,0.176,0.432,0.424,0.432  c0.28,0,0.456-0.192,0.448-0.432C246.689,31.167,246.521,30.976,246.257,30.976 M246.609,32.502h-0.704v3.87h0.704V32.502z   M240.633,30.984v5.389h0.696v-2.527h2.606v2.527h0.704v-5.389h-0.704v2.255h-2.606v-2.255H240.633z"/>
<path d="M269.338,45.372h0.704v-2.326c0-0.12,0.017-0.24,0.048-0.328c0.12-0.392,0.48-0.72,0.943-0.72  c0.664,0,0.896,0.52,0.896,1.144v2.23h0.703v-2.31c0-1.328-0.831-1.647-1.366-1.647c-0.64,0-1.088,0.359-1.279,0.727h-0.017  l-0.04-0.64h-0.623c0.023,0.32,0.031,0.648,0.031,1.048V45.372z M266.573,41.942c0.831,0,1.159,0.832,1.159,1.487  c0,0.872-0.504,1.504-1.175,1.504c-0.688,0-1.177-0.64-1.177-1.488C265.381,42.71,265.741,41.942,266.573,41.942 M266.589,41.415  c-1.071,0-1.919,0.759-1.919,2.054c0,1.224,0.808,1.991,1.855,1.991c0.935,0,1.927-0.623,1.927-2.055  C268.452,42.222,267.7,41.415,266.589,41.415 M263.434,39.975c-0.257,0-0.44,0.192-0.44,0.44c0,0.24,0.176,0.432,0.424,0.432  c0.279,0,0.455-0.192,0.447-0.432C263.864,40.167,263.696,39.975,263.434,39.975 M263.784,41.502h-0.704v3.87h0.704V41.502z   M260.596,40.575v0.927h-0.6v0.536h0.6v2.111c0,0.456,0.072,0.8,0.272,1.007c0.168,0.192,0.432,0.296,0.759,0.296  c0.272,0,0.488-0.04,0.624-0.096l-0.032-0.527c-0.088,0.024-0.224,0.048-0.407,0.048c-0.393,0-0.527-0.272-0.527-0.752v-2.087h1.007  v-0.536h-1.007v-1.111L260.596,40.575z M258.622,44.069l-0.04,0.224c-0.112,0.328-0.432,0.648-0.935,0.648  c-0.36,0-0.664-0.216-0.664-0.672c0-0.752,0.872-0.888,1.639-0.872V44.069z M259.366,45.372c-0.048-0.263-0.064-0.591-0.064-0.927  v-1.447c0-0.776-0.287-1.583-1.471-1.583c-0.488,0-0.952,0.135-1.271,0.343l0.159,0.464c0.272-0.176,0.648-0.288,1.009-0.288  c0.791,0,0.879,0.576,0.879,0.896v0.08c-1.495-0.008-2.327,0.503-2.327,1.439c0,0.56,0.399,1.111,1.184,1.111  c0.552,0,0.967-0.272,1.184-0.575h0.023l0.057,0.487H259.366z M249.914,45.372h0.688v-2.334c0-0.12,0.016-0.24,0.056-0.344  c0.112-0.352,0.432-0.704,0.872-0.704c0.535,0,0.807,0.448,0.807,1.064v2.318h0.688v-2.39c0-0.128,0.023-0.256,0.056-0.352  c0.12-0.344,0.431-0.64,0.831-0.64c0.568,0,0.84,0.448,0.84,1.192v2.19h0.688v-2.278c0-1.344-0.759-1.679-1.271-1.679  c-0.368,0-0.624,0.095-0.854,0.271c-0.16,0.12-0.312,0.288-0.433,0.504h-0.016c-0.168-0.456-0.568-0.775-1.096-0.775  c-0.64,0-0.999,0.343-1.216,0.711h-0.023l-0.032-0.624h-0.616c0.024,0.32,0.032,0.648,0.032,1.048V45.372z M247.302,45.372h0.695  v-2.063c0-0.119,0.017-0.231,0.032-0.327c0.096-0.528,0.448-0.904,0.944-0.904c0.096,0,0.168,0.008,0.239,0.024v-0.663l-0.199-0.024  c-0.473,0-0.896,0.327-1.072,0.847h-0.032l-0.024-0.76h-0.614c0.023,0.36,0.031,0.752,0.031,1.208V45.372z M244.536,41.942  c0.832,0,1.159,0.832,1.159,1.487c0,0.872-0.503,1.504-1.175,1.504c-0.688,0-1.176-0.64-1.176-1.488  C243.345,42.71,243.705,41.942,244.536,41.942 M244.552,41.415c-1.07,0-1.919,0.759-1.919,2.054c0,1.224,0.809,1.991,1.855,1.991  c0.936,0,1.927-0.623,1.927-2.055C246.415,42.222,245.663,41.415,244.552,41.415 M241.448,45.372v-3.334h0.936v-0.536h-0.936v-0.207  c0-0.592,0.152-1.12,0.752-1.12c0.2,0,0.344,0.04,0.448,0.088l0.096-0.544c-0.136-0.055-0.352-0.111-0.6-0.111  c-0.328,0-0.681,0.103-0.943,0.359c-0.328,0.312-0.448,0.808-0.448,1.352v0.183h-0.544v0.536h0.544v3.334H241.448z M237.244,45.188  c0.272,0.16,0.664,0.264,1.088,0.264c0.919,0,1.447-0.479,1.447-1.159c0-0.576-0.344-0.912-1.016-1.167  c-0.504-0.192-0.735-0.336-0.735-0.656c0-0.288,0.231-0.528,0.646-0.528c0.36,0,0.641,0.128,0.792,0.224l0.177-0.512  c-0.217-0.128-0.561-0.239-0.952-0.239c-0.831,0-1.335,0.511-1.335,1.135c0,0.464,0.328,0.847,1.023,1.095  c0.52,0.192,0.72,0.376,0.72,0.712c0,0.32-0.24,0.576-0.751,0.576c-0.353,0-0.721-0.144-0.929-0.28L237.244,45.188z M233.079,45.372  h0.704v-2.326c0-0.12,0.016-0.24,0.048-0.328c0.12-0.392,0.48-0.72,0.943-0.72c0.664,0,0.896,0.52,0.896,1.144v2.23h0.704v-2.31  c0-1.328-0.832-1.647-1.368-1.647c-0.639,0-1.087,0.359-1.278,0.727h-0.017l-0.04-0.64h-0.624c0.024,0.32,0.032,0.648,0.032,1.048  V45.372z M231.266,44.069l-0.039,0.224c-0.112,0.328-0.433,0.648-0.937,0.648c-0.359,0-0.664-0.216-0.664-0.672  c0-0.752,0.872-0.888,1.64-0.872V44.069z M232.009,45.372c-0.048-0.263-0.063-0.591-0.063-0.927v-1.447  c0-0.776-0.288-1.583-1.471-1.583c-0.488,0-0.952,0.135-1.271,0.343l0.16,0.464c0.271-0.176,0.646-0.288,1.007-0.288  c0.792,0,0.879,0.576,0.879,0.896v0.08c-1.495-0.008-2.326,0.503-2.326,1.439c0,0.56,0.4,1.111,1.184,1.111  c0.552,0,0.968-0.272,1.183-0.575h0.024l0.056,0.487H232.009z M226.614,45.372h0.695v-2.063c0-0.119,0.016-0.231,0.031-0.327  c0.097-0.528,0.448-0.904,0.944-0.904c0.096,0,0.168,0.008,0.24,0.024v-0.663l-0.2-0.024c-0.472,0-0.896,0.327-1.072,0.847h-0.032  l-0.022-0.76h-0.616c0.024,0.36,0.032,0.752,0.032,1.208V45.372z M224.129,40.575v0.927h-0.6v0.536h0.6v2.111  c0,0.456,0.072,0.8,0.272,1.007c0.168,0.192,0.432,0.296,0.759,0.296c0.272,0,0.488-0.04,0.624-0.096l-0.032-0.527  c-0.088,0.024-0.224,0.048-0.408,0.048c-0.391,0-0.526-0.272-0.526-0.752v-2.087h1.007v-0.536h-1.007v-1.111L224.129,40.575z"/>
<path d="M3.176,87.466l4.015-1.612C7.29,85.818,7.353,85.8,7.398,85.8l0.189,0.063c0.405,0.18,0.711,0.45,0.883,0.666  c0.198,0.234,0.324,0.496,0.387,0.694l0.666-0.198c-0.036-0.198-0.171-0.586-0.513-0.973c-0.468-0.54-1.234-0.927-2.728-1.494  l-3.106-1.189v0.838l2.557,0.864c0.315,0.108,0.648,0.198,0.909,0.279v0.018c-0.261,0.072-0.603,0.18-0.891,0.279l-2.575,0.954  V87.466z M2.132,89.769h1.044v0.676h0.603v-0.676h2.377c0.513,0,0.9-0.081,1.134-0.306c0.216-0.189,0.333-0.486,0.333-0.855  c0-0.306-0.045-0.549-0.108-0.702l-0.594,0.036c0.027,0.099,0.054,0.252,0.054,0.459c0,0.441-0.306,0.594-0.846,0.594h-2.35v-1.134  H3.176v1.134H1.925L2.132,89.769z M1.456,91.659c0,0.288,0.216,0.495,0.496,0.495c0.27,0,0.486-0.198,0.486-0.477  c0-0.315-0.216-0.513-0.486-0.504C1.672,91.173,1.456,91.362,1.456,91.659 M7.533,91.263H3.176v0.792h4.357V91.263z M7.533,93.387  H1.141v0.792h6.392V93.387z M1.456,95.889c0,0.288,0.216,0.495,0.496,0.495c0.27,0,0.486-0.198,0.486-0.477  c0-0.315-0.216-0.513-0.486-0.504C1.672,95.403,1.456,95.592,1.456,95.889 M7.533,95.493H3.176v0.792h4.357V95.493z M5.003,100.623  c-0.126,0-0.234-0.027-0.324-0.045c-0.603-0.162-0.972-0.666-0.972-1.206c0-0.847,0.747-1.297,1.621-1.297  c0.999,0,1.674,0.495,1.674,1.324c0,0.576-0.378,1.035-0.927,1.188c-0.09,0.018-0.189,0.036-0.288,0.036H5.003z M7.533,100.758  l-0.72-0.036v-0.027c0.576-0.324,0.819-0.828,0.819-1.458c0-0.973-0.774-1.954-2.331-1.954c-1.324-0.009-2.224,0.756-2.224,1.837  c0,0.702,0.315,1.206,0.801,1.485v0.018H1.141v0.783h5.267c0.387,0,0.828,0.018,1.125,0.036V100.758z M6.066,103.449l0.252,0.045  c0.369,0.126,0.729,0.486,0.729,1.053c0,0.405-0.243,0.747-0.756,0.747c-0.846,0-0.999-0.981-0.981-1.845H6.066z M7.533,102.611  c-0.297,0.054-0.666,0.072-1.044,0.072h-1.63c-0.873,0-1.782,0.324-1.782,1.657c0,0.549,0.153,1.071,0.387,1.431l0.522-0.18  c-0.198-0.306-0.324-0.729-0.324-1.134c0-0.891,0.648-0.99,1.008-0.99h0.09c-0.009,1.683,0.568,2.619,1.621,2.619  c0.63,0,1.251-0.45,1.251-1.332c0-0.621-0.306-1.089-0.648-1.332v-0.027l0.549-0.063V102.611z M5.012,110.082  c-0.108,0-0.225-0.027-0.324-0.054c-0.594-0.153-0.981-0.657-0.981-1.197c0-0.838,0.747-1.297,1.621-1.297  c0.999,0,1.683,0.486,1.683,1.324c0,0.566-0.378,1.044-0.927,1.188c-0.099,0.019-0.207,0.036-0.324,0.036H5.012z M9.316,110.865  v-0.783H6.948v-0.018c0.432-0.262,0.684-0.766,0.684-1.341c0-1.027-0.774-1.981-2.34-1.981c-1.324,0-2.215,0.792-2.215,1.846  c0,0.711,0.315,1.225,0.846,1.548v0.019l-0.747,0.036v0.711c0.414-0.019,0.864-0.036,1.422-0.036H9.316z M6.066,112.908l0.252,0.045  c0.369,0.126,0.729,0.486,0.729,1.053c0,0.405-0.243,0.747-0.756,0.747c-0.846,0-0.999-0.98-0.981-1.845H6.066z M7.533,112.07  c-0.297,0.054-0.666,0.072-1.044,0.072h-1.63c-0.873,0-1.782,0.323-1.782,1.656c0,0.55,0.153,1.071,0.387,1.432l0.522-0.181  c-0.198-0.306-0.324-0.729-0.324-1.134c0-0.891,0.648-0.99,1.008-0.99h0.09c-0.009,1.684,0.568,2.619,1.621,2.619  c0.63,0,1.251-0.45,1.251-1.332c0-0.621-0.306-1.089-0.648-1.332v-0.026l0.549-0.064V112.07z M6.714,116.254  c0.153,0.315,0.252,0.802,0.252,1.278c0,1.477-0.954,2.332-2.44,2.332c-1.593,0-2.502-0.945-2.502-2.368  c0-0.504,0.108-0.927,0.252-1.224l-0.64-0.189c-0.108,0.207-0.27,0.685-0.27,1.44c0,1.882,1.288,3.169,3.187,3.169  c1.99,0,3.07-1.287,3.07-2.998c0-0.738-0.144-1.314-0.288-1.603L6.714,116.254z"/>
<path d="M301.018,208.179c-0.226,0.099-0.522,0.216-0.973,0.216c-0.863,0-1.512-0.621-1.512-1.63c0-0.909,0.54-1.647,1.539-1.647  c0.432,0,0.729,0.1,0.918,0.207l0.18-0.611c-0.216-0.108-0.63-0.226-1.098-0.226c-1.422,0-2.341,0.973-2.341,2.313  c0,1.333,0.855,2.224,2.17,2.224c0.585,0,1.044-0.144,1.251-0.252L301.018,208.179z M296.337,202.858  c-0.287,0-0.494,0.216-0.494,0.495c0,0.271,0.197,0.486,0.477,0.486c0.315,0,0.513-0.216,0.504-0.486  C296.823,203.074,296.635,202.858,296.337,202.858 M296.733,204.578h-0.792v4.357h0.792V204.578z M290.946,208.935h0.792v-2.62  c0-0.135,0.019-0.27,0.054-0.369c0.136-0.44,0.54-0.81,1.062-0.81c0.747,0,1.009,0.585,1.009,1.287v2.512h0.792v-2.602  c0-1.494-0.936-1.854-1.54-1.854c-0.72,0-1.224,0.405-1.439,0.819h-0.019l-0.045-0.721h-0.702c0.027,0.36,0.036,0.729,0.036,1.18  V208.935z M287.832,205.073c0.938,0,1.307,0.937,1.307,1.674c0,0.982-0.568,1.693-1.324,1.693c-0.774,0-1.323-0.72-1.323-1.675  C286.491,205.937,286.896,205.073,287.832,205.073 M287.851,204.479c-1.206,0-2.16,0.855-2.16,2.313  c0,1.378,0.909,2.241,2.088,2.241c1.054,0,2.17-0.701,2.17-2.313C289.948,205.388,289.103,204.479,287.851,204.479 M281.946,206.333  c0.063-0.55,0.414-1.287,1.215-1.287c0.892,0,1.107,0.782,1.099,1.287H281.946z M284.998,206.9c0.01-0.081,0.027-0.207,0.027-0.369  c0-0.801-0.378-2.052-1.801-2.052c-1.27,0-2.043,1.035-2.043,2.349c0,1.315,0.801,2.197,2.142,2.197c0.693,0,1.171-0.144,1.45-0.27  l-0.135-0.567c-0.297,0.126-0.641,0.225-1.207,0.225c-0.792,0-1.477-0.44-1.494-1.513H284.998z M279.372,208.935h0.792v-6.392  h-0.792V208.935z M276.259,205.073c0.937,0,1.306,0.937,1.306,1.674c0,0.982-0.567,1.693-1.324,1.693  c-0.773,0-1.323-0.72-1.323-1.675C274.917,205.937,275.322,205.073,276.259,205.073 M276.276,204.479  c-1.206,0-2.16,0.855-2.16,2.313c0,1.378,0.909,2.241,2.088,2.241c1.055,0,2.17-0.701,2.17-2.313  C278.374,205.388,277.528,204.479,276.276,204.479 M270.094,206.414c0-0.107,0.026-0.225,0.054-0.323  c0.153-0.595,0.657-0.981,1.197-0.981c0.838,0,1.297,0.747,1.297,1.62c0,1-0.486,1.684-1.324,1.684  c-0.567,0-1.044-0.378-1.188-0.927c-0.018-0.099-0.035-0.207-0.035-0.325V206.414z M269.311,210.718h0.783v-2.368h0.018  c0.261,0.432,0.765,0.684,1.341,0.684c1.027,0,1.981-0.773,1.981-2.341c0-1.323-0.792-2.214-1.847-2.214  c-0.711,0-1.224,0.315-1.548,0.846h-0.018l-0.036-0.747h-0.711c0.018,0.414,0.036,0.864,0.036,1.423V210.718z M267.269,207.468  l-0.045,0.252c-0.127,0.369-0.487,0.729-1.055,0.729c-0.404,0-0.746-0.242-0.746-0.756c0-0.847,0.98-1,1.846-0.981V207.468z   M268.105,208.935c-0.054-0.297-0.072-0.666-0.072-1.044v-1.63c0-0.873-0.324-1.782-1.657-1.782c-0.549,0-1.07,0.153-1.431,0.387  l0.18,0.522c0.307-0.198,0.729-0.324,1.135-0.324c0.891,0,0.99,0.648,0.99,1.008v0.09c-1.684-0.009-2.619,0.567-2.619,1.621  c0,0.63,0.449,1.251,1.331,1.251c0.621,0,1.09-0.306,1.333-0.647h0.027l0.063,0.549H268.105z M259.815,208.935v-2.593  c0-1.008-0.018-1.737-0.063-2.503l0.027-0.01c0.306,0.658,0.711,1.352,1.134,2.026l1.928,3.079h0.792v-6.068h-0.738v2.539  c0,0.945,0.018,1.684,0.09,2.494l-0.018,0.009c-0.288-0.621-0.64-1.261-1.09-1.972l-1.944-3.07h-0.855v6.068H259.815z"/>
<path fill="none" stroke="#939598" stroke-linejoin="round" stroke-miterlimit="10" d="M301.156,173.443  c-0.96,0.059-1.919,0.059-2.879,0.059h-2.88h-2.88h-2.879h-2.88h-2.88H281h-2.879h-2.88h-2.88h-2.879h-2.879h-2.881h-2.879  c-0.96,0-1.92-0.001-2.879-0.001h-2.88h-2.879h-2.88c-0.96-0.001-1.919-0.001-2.879-0.001c-0.961,0-1.921-0.001-2.88-0.001  c-0.96,0-1.92,0-2.879-0.002c-0.961-0.001-1.92-0.001-2.88-0.001c-0.96-0.001-1.92-0.001-2.881-0.002  c-0.959-0.001-1.919-0.001-2.879-0.002c-0.959,0-1.919-0.001-2.879-0.002c-0.959,0-1.919-0.001-2.879-0.002  c-0.961-0.001-1.92-0.002-2.88-0.003s-1.92-0.002-2.879-0.004c-0.96-0.001-1.92-0.003-2.88-0.003c-0.96-0.002-1.92-0.004-2.88-0.006  c-0.959-0.002-1.92-0.004-2.88-0.006c-0.959-0.002-1.919-0.004-2.879-0.007c-0.959-0.002-1.919-0.005-2.879-0.009  c-0.961-0.003-1.92-0.007-2.88-0.01c-0.96-0.005-1.919-0.009-2.879-0.012c-0.96-0.006-1.92-0.01-2.88-0.016  c-0.959-0.006-1.92-0.011-2.88-0.018c-0.96-0.006-1.92-0.013-2.879-0.021c-0.96-0.008-1.92-0.016-2.88-0.025  c-0.96-0.009-1.919-0.018-2.879-0.03c-0.961-0.01-1.92-0.021-2.88-0.035s-1.92-0.027-2.879-0.042  c-0.96-0.017-1.92-0.034-2.879-0.052c-0.96-0.019-1.921-0.039-2.881-0.062s-1.919-0.046-2.879-0.073  c-0.96-0.026-1.92-0.056-2.879-0.087c-0.96-0.031-1.92-0.066-2.88-0.104c-0.961-0.038-1.92-0.078-2.88-0.125  c-0.96-0.045-1.92-0.094-2.879-0.148c-0.96-0.054-1.92-0.111-2.879-0.176c-0.96-0.065-1.921-0.134-2.881-0.212  c-0.959-0.076-1.919-0.158-2.879-0.25c-0.959-0.092-1.92-0.189-2.879-0.298c-0.96-0.108-1.92-0.225-2.88-0.354  c-0.96-0.128-1.92-0.266-2.88-0.418c-0.959-0.152-1.919-0.315-2.879-0.495c-0.96-0.18-1.92-0.371-2.879-0.583  c-0.96-0.211-1.92-0.438-2.88-0.686c-0.96-0.247-1.92-0.513-2.879-0.803c-0.96-0.29-1.92-0.6-2.879-0.938  c-0.961-0.338-1.92-0.698-2.88-1.088c-0.96-0.394-1.92-0.81-2.88-1.26s-1.92-0.93-2.879-1.445c-0.96-0.516-1.92-1.063-2.879-1.649  c-0.96-0.585-1.92-1.205-2.88-1.864c-0.96-0.657-1.92-1.354-2.879-2.089c-0.96-0.734-1.92-1.51-2.88-2.318  c-0.96-0.812-1.92-1.662-2.879-2.545c-0.96-0.884-1.92-1.806-2.88-2.756c-0.959-0.949-1.919-1.938-2.879-2.946  c-0.96-1.009-1.92-2.051-2.88-3.104c-0.96-1.055-1.92-2.137-2.879-3.222c-0.96-1.085-1.92-2.191-2.88-3.292  c-0.959-1.1-1.919-2.212-2.879-3.31c-0.96-1.097-1.92-2.197-2.879-3.273c-0.96-1.077-1.92-2.147-2.88-3.188  c-0.96-1.039-1.92-2.065-2.879-3.055c-0.96-0.991-1.92-1.957-2.88-2.886c-0.959-0.93-1.919-1.828-2.879-2.688  c-0.96-0.858-1.92-1.684-2.88-2.469c-0.96-0.786-1.919-1.533-2.879-2.243c-0.96-0.709-1.92-1.38-2.88-2.014  c-0.959-0.634-1.919-1.23-2.879-1.792s-1.92-1.086-2.879-1.579c-0.96-0.493-1.92-0.95-2.88-1.382c-0.96-0.43-1.92-0.826-2.879-1.199  c-0.96-0.373-1.92-0.716-2.88-1.037c-0.959-0.32-1.919-0.615-2.879-0.891c-0.96-0.275-1.92-0.527-2.88-0.761  c-0.96-0.237-1.919-0.45-2.879-0.65c-0.96-0.201-1.92-0.384-2.88-0.552c-0.959-0.171-1.919-0.324-2.879-0.468  c-0.96-0.145-1.92-0.275-2.879-0.396c-0.961-0.122-1.92-0.231-2.88-0.334c-0.96-0.102-1.919-0.194-2.88-0.281  c-0.959-0.087-1.919-0.164-2.879-0.237c-0.96-0.073-1.919-0.137-2.879-0.199c-0.96-0.061-1.92-0.115-2.88-0.167  c-0.959-0.05-1.967-0.106-2.879-0.14c-0.912-0.033-2.117-0.043-2.592-0.06"/>
<path fill="none" stroke="#000000" stroke-linejoin="round" stroke-miterlimit="10" d="M289.639,0.121  c-0.96,3.862-1.92,7.602-2.88,11.24c-0.96,3.637-1.92,7.159-2.88,10.585c-0.96,3.426-1.919,6.743-2.879,9.97  c-0.96,3.226-1.919,6.35-2.879,9.388s-1.92,5.98-2.88,8.841c-0.96,2.862-1.92,5.632-2.88,8.327  c-0.959,2.695-1.919,5.305-2.879,7.842c-0.96,2.538-1.92,4.995-2.879,7.386c-0.961,2.39-1.921,4.704-2.881,6.955  c-0.96,2.25-1.919,4.43-2.879,6.55s-1.92,4.173-2.879,6.169c-0.96,1.996-1.92,3.93-2.88,5.808c-0.96,1.881-1.92,3.701-2.879,5.473  c-0.96,1.769-1.92,3.484-2.88,5.151s-1.919,3.283-2.879,4.854c-0.961,1.57-1.921,3.091-2.88,4.569  c-0.96,1.479-1.92,2.91-2.879,4.303c-0.961,1.395-1.92,2.742-2.88,4.055c-0.96,1.312-1.92,2.581-2.881,3.816  c-0.959,1.235-1.919,2.431-2.879,3.596c-0.959,1.162-1.919,2.289-2.879,3.384c-0.959,1.097-1.919,2.158-2.879,3.188  c-0.961,1.032-1.92,2.031-2.88,3.003s-1.92,1.913-2.879,2.828c-0.96,0.916-1.92,1.801-2.88,2.662c-0.96,0.863-1.92,1.697-2.88,2.509  c-0.959,0.812-1.92,1.598-2.88,2.362c-0.959,0.765-1.919,1.504-2.879,2.224c-0.959,0.721-1.919,1.417-2.879,2.096  c-0.961,0.678-1.92,1.334-2.88,1.973c-0.96,0.638-1.919,1.257-2.879,1.857c-0.96,0.602-1.92,1.184-2.88,1.75  c-0.959,0.567-1.92,1.115-2.88,1.647c-0.96,0.534-1.92,1.051-2.879,1.553c-0.96,0.502-1.92,0.989-2.88,1.461  c-0.96,0.474-1.919,0.932-2.879,1.378c-0.961,0.444-1.92,0.877-2.88,1.295c-0.96,0.419-1.92,0.826-2.879,1.222  c-0.96,0.394-1.92,0.777-2.879,1.15c-0.96,0.37-1.921,0.731-2.881,1.083c-0.96,0.35-1.919,0.688-2.879,1.019  c-0.96,0.329-1.92,0.649-2.879,0.96c-0.96,0.311-1.92,0.611-2.88,0.904c-0.961,0.292-1.92,0.577-2.88,0.852  c-0.96,0.275-1.92,0.542-2.879,0.802c-0.96,0.26-1.92,0.512-2.879,0.757c-0.96,0.243-1.921,0.48-2.881,0.71  c-0.959,0.23-1.919,0.453-2.879,0.67c-0.959,0.218-1.92,0.428-2.879,0.631c-0.96,0.205-1.92,0.404-2.88,0.595  c-0.96,0.192-1.92,0.379-2.88,0.561c-0.959,0.181-1.919,0.355-2.879,0.526c-0.96,0.17-1.92,0.336-2.879,0.496  c-0.96,0.161-1.92,0.316-2.88,0.467c-0.96,0.152-1.92,0.299-2.879,0.441c-0.96,0.143-1.92,0.28-2.879,0.414  c-0.961,0.134-1.92,0.265-2.88,0.39c-0.96,0.127-1.92,0.25-2.88,0.369s-1.92,0.233-2.879,0.346c-0.96,0.112-1.92,0.221-2.879,0.325  c-0.96,0.106-1.92,0.209-2.88,0.309s-1.92,0.195-2.879,0.289c-0.96,0.094-1.92,0.185-2.88,0.271c-0.96,0.089-1.92,0.174-2.879,0.257  c-0.96,0.083-1.92,0.163-2.88,0.242c-0.959,0.078-1.919,0.153-2.879,0.227c-0.96,0.074-1.92,0.146-2.88,0.216  c-0.96,0.068-1.92,0.135-2.879,0.201c-0.96,0.064-1.92,0.129-2.879,0.19c-0.96,0.061-1.92,0.12-2.88,0.178  c-0.96,0.059-1.92,0.115-2.879,0.169c-0.96,0.054-1.92,0.107-2.88,0.158c-0.96,0.052-1.92,0.103-2.879,0.15  c-0.96,0.049-1.92,0.096-2.88,0.141c-0.959,0.046-1.919,0.09-2.879,0.133s-1.92,0.084-2.88,0.125  c-0.96,0.04-1.919,0.079-2.879,0.117s-1.919,0.074-2.879,0.11s-1.92,0.07-2.88,0.104c-0.96,0.033-1.92,0.067-2.879,0.099  c-0.96,0.031-1.92,0.063-2.88,0.092c-0.96,0.031-1.92,0.06-2.879,0.088c-0.96,0.027-1.92,0.055-2.88,0.082  c-0.959,0.026-1.919,0.052-2.879,0.077s-1.92,0.049-2.88,0.074c-0.96,0.022-1.919,0.045-2.879,0.067  c-0.96,0.021-1.92,0.043-2.879,0.063c-0.96,0.022-1.92,0.042-2.88,0.062c-0.96,0.021-1.92,0.039-2.879,0.058  c-0.961,0.018-1.92,0.035-2.88,0.054c-0.96,0.017-1.919,0.034-2.88,0.051c-0.959,0.016-1.919,0.032-2.879,0.047  c-0.96,0.018-1.919,0.031-2.879,0.046c-0.96,0.014-1.92,0.028-2.88,0.042c-0.959,0.014-1.967,0.03-2.879,0.04  c-0.912,0.01-2.117,0.014-2.592,0.02"/>
<path fill="none" stroke="#000000" stroke-linejoin="round" stroke-miterlimit="10" d="M301.156,183.219  c-0.96-0.003-1.919-0.005-2.879-0.008s-1.92-0.005-2.88-0.008c-0.96-0.004-1.92-0.007-2.88-0.01s-1.919-0.006-2.879-0.01  c-0.96-0.003-1.92-0.006-2.88-0.01s-1.92-0.007-2.88-0.011c-0.96-0.005-1.919-0.008-2.879-0.013s-1.919-0.008-2.879-0.013  c-0.96-0.004-1.92-0.009-2.88-0.013c-0.96-0.006-1.92-0.012-2.88-0.016c-0.959-0.006-1.919-0.011-2.879-0.017  s-1.92-0.011-2.879-0.018c-0.961-0.006-1.921-0.012-2.881-0.019s-1.919-0.014-2.879-0.021c-0.96-0.008-1.92-0.015-2.879-0.021  c-0.96-0.009-1.92-0.015-2.88-0.023s-1.92-0.018-2.879-0.026c-0.96-0.007-1.92-0.018-2.88-0.027  c-0.959-0.009-1.919-0.02-2.879-0.029c-0.961-0.01-1.921-0.021-2.88-0.032c-0.96-0.011-1.92-0.022-2.879-0.034  c-0.961-0.011-1.92-0.024-2.88-0.036c-0.96-0.013-1.92-0.026-2.881-0.04c-0.959-0.014-1.919-0.028-2.879-0.042  c-0.959-0.016-1.919-0.031-2.879-0.047c-0.959-0.017-1.919-0.033-2.879-0.05c-0.961-0.018-1.92-0.035-2.88-0.054  s-1.92-0.038-2.879-0.059c-0.96-0.02-1.92-0.04-2.88-0.062c-0.96-0.022-1.92-0.045-2.88-0.068c-0.959-0.022-1.92-0.048-2.88-0.071  c-0.959-0.025-1.919-0.052-2.879-0.079c-0.959-0.026-1.919-0.055-2.879-0.085c-0.961-0.028-1.92-0.059-2.88-0.09  s-1.919-0.063-2.879-0.098s-1.92-0.069-2.88-0.105c-0.959-0.036-1.92-0.075-2.88-0.114s-1.92-0.08-2.879-0.122  c-0.96-0.044-1.92-0.087-2.88-0.132c-0.96-0.047-1.919-0.094-2.879-0.144c-0.961-0.049-1.92-0.1-2.88-0.153  c-0.96-0.053-1.92-0.108-2.879-0.166c-0.96-0.057-1.92-0.116-2.879-0.178c-0.96-0.062-1.921-0.126-2.881-0.192  s-1.919-0.135-2.879-0.207c-0.96-0.071-1.92-0.146-2.879-0.223c-0.96-0.078-1.92-0.158-2.88-0.242  c-0.961-0.083-1.92-0.169-2.88-0.259c-0.96-0.091-1.92-0.183-2.879-0.28c-0.96-0.096-1.92-0.196-2.879-0.301  c-0.96-0.104-1.921-0.213-2.881-0.325c-0.959-0.112-1.919-0.229-2.879-0.351c-0.959-0.121-1.92-0.247-2.879-0.378  c-0.96-0.131-1.92-0.266-2.88-0.406s-1.92-0.287-2.88-0.439c-0.959-0.151-1.919-0.31-2.879-0.473c-0.96-0.164-1.92-0.333-2.879-0.51  c-0.96-0.177-1.92-0.358-2.88-0.549s-1.919-0.388-2.879-0.593c-0.96-0.204-1.92-0.418-2.879-0.639  c-0.961-0.221-1.92-0.449-2.88-0.688c-0.96-0.239-1.92-0.485-2.88-0.742s-1.92-0.522-2.879-0.8c-0.96-0.276-1.92-0.562-2.879-0.86  c-0.96-0.3-1.92-0.608-2.88-0.93c-0.96-0.322-1.92-0.654-2.879-1.001c-0.96-0.347-1.92-0.706-2.88-1.08  c-0.96-0.373-1.92-0.76-2.879-1.162c-0.96-0.403-1.92-0.819-2.88-1.254c-0.959-0.435-1.919-0.883-2.879-1.352  c-0.96-0.469-1.92-0.952-2.88-1.457s-1.92-1.026-2.879-1.57c-0.96-0.543-1.92-1.105-2.88-1.691  c-0.959-0.587-1.919-1.193-2.879-1.825s-1.92-1.285-2.879-1.966c-0.96-0.682-1.92-1.386-2.88-2.12  c-0.96-0.733-1.92-1.493-2.879-2.284c-0.96-0.792-1.92-1.609-2.88-2.463c-0.959-0.853-1.919-1.734-2.879-2.653  c-0.96-0.92-1.92-1.871-2.88-2.861c-0.96-0.991-1.919-2.015-2.879-3.084c-0.96-1.068-1.92-2.173-2.88-3.324  c-0.959-1.15-1.919-2.342-2.879-3.583s-1.92-2.523-2.879-3.861c-0.96-1.338-1.92-2.722-2.88-4.162  c-0.96-1.443-1.92-2.935-2.879-4.487c-0.96-1.553-1.92-3.161-2.88-4.837c-0.959-1.675-1.919-3.408-2.879-5.213  s-1.92-3.672-2.88-5.619c-0.96-1.946-1.919-3.959-2.879-6.056c-0.96-2.098-1.92-4.268-2.88-6.529c-0.959-2.26-1.919-4.6-2.879-7.038  c-0.96-2.437-1.92-4.958-2.879-7.584c-0.961-2.627-1.92-5.343-2.88-8.175c-0.96-2.832-1.919-5.761-2.88-8.814  c-0.959-3.051-1.919-6.209-2.879-9.498s-1.919-6.693-2.879-10.238c-0.96-3.547-1.92-7.215-2.88-11.037  c-0.959-3.823-1.967-7.908-2.879-11.896c-0.912-3.987-2.16-10.027-2.592-12.032"/>
<path fill="none" stroke="#939598" stroke-linejoin="round" stroke-miterlimit="10" d="M301.156,90.304  c-0.96,0.028-1.919,0.04-2.879,0.054c-0.96,0.013-1.92,0.027-2.88,0.044c-0.96,0.014-1.92,0.032-2.88,0.049  c-0.96,0.018-1.919,0.037-2.879,0.057c-0.96,0.022-1.92,0.043-2.88,0.068c-0.96,0.023-1.92,0.048-2.88,0.076  c-0.96,0.027-1.919,0.057-2.879,0.089c-0.96,0.03-1.919,0.064-2.879,0.1c-0.96,0.037-1.92,0.076-2.88,0.118  c-0.96,0.041-1.92,0.086-2.88,0.135c-0.959,0.049-1.919,0.1-2.879,0.155c-0.96,0.056-1.92,0.115-2.879,0.18  c-0.961,0.064-1.921,0.132-2.881,0.206c-0.96,0.073-1.919,0.15-2.879,0.235s-1.92,0.175-2.879,0.273  c-0.96,0.098-1.92,0.201-2.88,0.312c-0.96,0.112-1.92,0.23-2.879,0.359c-0.96,0.127-1.92,0.262-2.88,0.409  c-0.96,0.146-1.919,0.302-2.879,0.469c-0.961,0.168-1.921,0.345-2.88,0.537c-0.96,0.191-1.92,0.392-2.879,0.611  c-0.961,0.218-1.92,0.449-2.88,0.695c-0.96,0.25-1.92,0.512-2.881,0.793c-0.959,0.282-1.919,0.579-2.879,0.897  c-0.959,0.319-1.919,0.656-2.879,1.016c-0.959,0.36-1.919,0.74-2.879,1.144c-0.961,0.406-1.92,0.832-2.88,1.286  c-0.96,0.454-1.92,0.933-2.879,1.441c-0.96,0.507-1.92,1.04-2.88,1.603c-0.96,0.565-1.92,1.158-2.88,1.782  c-0.959,0.624-1.92,1.277-2.88,1.964c-0.959,0.687-1.919,1.405-2.879,2.156c-0.959,0.752-1.919,1.535-2.879,2.352  c-0.961,0.816-1.92,1.665-2.88,2.546c-0.96,0.882-1.919,1.795-2.879,2.737c-0.96,0.943-1.92,1.918-2.88,2.918  c-0.959,1.001-1.92,2.033-2.88,3.086s-1.92,2.135-2.879,3.232c-0.96,1.098-1.92,2.221-2.88,3.354  c-0.96,1.133-1.919,2.288-2.879,3.448c-0.961,1.158-1.92,2.334-2.88,3.506c-0.96,1.173-1.92,2.356-2.879,3.531  c-0.96,1.176-1.92,2.354-2.879,3.52c-0.96,1.165-1.921,2.327-2.881,3.471c-0.96,1.143-1.919,2.277-2.879,3.39  c-0.96,1.11-1.92,2.207-2.879,3.275c-0.96,1.069-1.92,2.117-2.88,3.137c-0.961,1.019-1.92,2.014-2.88,2.976  c-0.96,0.963-1.92,1.897-2.879,2.8c-0.96,0.901-1.92,1.771-2.879,2.61c-0.96,0.837-1.921,1.644-2.881,2.416  c-0.959,0.773-1.919,1.513-2.879,2.221c-0.959,0.709-1.92,1.384-2.879,2.028c-0.96,0.646-1.92,1.258-2.88,1.842  c-0.96,0.583-1.92,1.136-2.88,1.662c-0.959,0.525-1.919,1.022-2.879,1.493c-0.96,0.472-1.92,0.915-2.879,1.336  c-0.96,0.422-1.92,0.816-2.88,1.19c-0.96,0.375-1.92,0.725-2.879,1.057c-0.96,0.332-1.92,0.643-2.879,0.936  c-0.961,0.294-1.92,0.567-2.88,0.826c-0.96,0.258-1.92,0.499-2.88,0.727s-1.92,0.438-2.879,0.639c-0.96,0.2-1.92,0.386-2.879,0.561  c-0.96,0.175-1.92,0.337-2.88,0.49c-0.96,0.154-1.92,0.295-2.879,0.43c-0.96,0.134-1.92,0.258-2.88,0.375  c-0.96,0.116-1.92,0.225-2.879,0.326c-0.96,0.102-1.92,0.196-2.88,0.285c-0.959,0.088-1.919,0.17-2.879,0.247  c-0.96,0.078-1.92,0.149-2.88,0.216c-0.96,0.067-1.92,0.129-2.879,0.188c-0.96,0.059-1.92,0.112-2.88,0.163  c-0.959,0.051-1.919,0.098-2.879,0.142s-1.92,0.085-2.879,0.123c-0.96,0.038-1.92,0.073-2.88,0.106s-1.92,0.063-2.879,0.094  c-0.96,0.027-1.92,0.055-2.88,0.079c-0.959,0.025-1.919,0.049-2.879,0.069c-0.96,0.022-1.92,0.042-2.88,0.062  c-0.96,0.018-1.919,0.035-2.879,0.052s-1.92,0.031-2.88,0.045c-0.959,0.014-1.919,0.028-2.879,0.04s-1.92,0.023-2.879,0.033  c-0.96,0.011-1.92,0.021-2.88,0.029c-0.96,0.01-1.92,0.019-2.879,0.026c-0.96,0.009-1.92,0.016-2.88,0.022  c-0.959,0.007-1.919,0.013-2.879,0.02c-0.96,0.005-1.92,0.011-2.88,0.016c-0.96,0.007-1.919,0.01-2.879,0.015  s-1.92,0.008-2.88,0.013c-0.959,0.004-1.919,0.007-2.879,0.011c-0.96,0.003-1.92,0.007-2.879,0.009  c-0.961,0.004-1.92,0.006-2.88,0.009c-0.96,0.001-1.919,0.005-2.88,0.007c-0.959,0.002-1.919,0.005-2.879,0.006  c-0.96,0.002-1.919,0.003-2.879,0.005s-1.92,0.004-2.88,0.006c-0.959,0.001-1.967,0.001-2.879,0.003  c-0.912,0.001-2.117,0.001-2.592,0.002"/>
<path fill="none" stroke="#000000" stroke-linejoin="round" d="M301.156,114.694c-0.833-0.067-1.666-0.077-2.499-0.078"/>
<path fill="none" stroke="#000000" stroke-linejoin="round" stroke-dasharray="4.994,1.998" d="M296.659,114.616h-1.263h-2.879  h-2.879h-2.88h-2.88H281h-2.879h-2.88h-2.88h-2.879h-2.879c-0.961,0-1.921,0.001-2.881,0.001h-2.879  c-0.96,0.001-1.92,0.001-2.879,0.001h-2.88c-0.96,0-1.92,0.001-2.879,0.001h-2.88c-0.96,0.001-1.919,0.001-2.879,0.002  c-0.961,0-1.921,0-2.88,0.001h-2.88c-0.96,0.002-1.919,0.003-2.879,0.003s-1.92,0.001-2.881,0.001h-2.879  c-0.959,0.002-1.919,0.002-2.879,0.002c-0.959,0-1.919,0.002-2.879,0.002c-0.961,0.001-1.92,0.002-2.88,0.003  s-1.92,0.002-2.879,0.003c-0.96,0.001-1.92,0.002-2.88,0.004c-0.96,0-1.92,0.001-2.88,0.003c-0.96,0.001-1.92,0.003-2.88,0.004  c-0.959,0.002-1.919,0.003-2.879,0.005c-0.959,0.001-1.919,0.003-2.879,0.006c-0.961,0.002-1.92,0.004-2.88,0.006  c-0.96,0.004-1.919,0.005-2.879,0.008c-0.96,0.002-1.92,0.005-2.88,0.009c-0.959,0.003-1.92,0.007-2.88,0.01  c-0.96,0.004-1.92,0.007-2.879,0.012c-0.96,0.004-1.92,0.009-2.88,0.013c-0.96,0.006-1.92,0.011-2.879,0.016  c-0.961,0.005-1.92,0.012-2.88,0.018c-0.96,0.007-1.92,0.014-2.879,0.021c-0.96,0.007-1.92,0.014-2.879,0.024  c-0.96,0.007-1.921,0.016-2.881,0.025s-1.919,0.021-2.879,0.032s-1.92,0.021-2.879,0.035c-0.96,0.013-1.92,0.027-2.88,0.042  c-0.961,0.015-1.92,0.031-2.88,0.049c-0.96,0.017-1.92,0.035-2.879,0.056c-0.96,0.019-1.92,0.041-2.879,0.062  c-0.96,0.023-1.921,0.049-2.881,0.074c-0.959,0.027-1.919,0.055-2.879,0.086c-0.959,0.029-1.92,0.062-2.879,0.098  c-0.96,0.035-1.92,0.072-2.88,0.112s-1.92,0.083-2.88,0.129c-0.959,0.047-1.919,0.096-2.879,0.148  c-0.96,0.055-1.92,0.11-2.879,0.172c-0.96,0.062-1.92,0.127-2.88,0.195c-0.96,0.07-1.92,0.146-2.879,0.226  c-0.96,0.081-1.92,0.166-2.879,0.258c-0.961,0.092-1.92,0.188-2.88,0.294c-0.96,0.104-1.92,0.216-2.88,0.336  s-1.92,0.246-2.879,0.383c-0.96,0.137-1.92,0.281-2.879,0.438c-0.96,0.154-1.92,0.318-2.88,0.495  c-0.96,0.176-1.92,0.361-2.879,0.561c-0.96,0.199-1.92,0.409-2.88,0.635s-1.92,0.461-2.879,0.714c-0.96,0.252-1.92,0.519-2.88,0.803  c-0.959,0.281-1.919,0.579-2.879,0.895c-0.96,0.315-1.92,0.648-2.88,0.998s-1.92,0.718-2.879,1.104  c-0.96,0.387-1.92,0.792-2.88,1.217c-0.959,0.424-1.919,0.869-2.879,1.333s-1.92,0.946-2.879,1.449  c-0.96,0.503-1.92,1.025-2.88,1.567c-0.96,0.54-1.92,1.103-2.879,1.678c-0.96,0.578-1.92,1.176-2.88,1.786  c-0.959,0.611-1.919,1.241-2.879,1.882c-0.96,0.642-1.92,1.3-2.88,1.967s-1.919,1.347-2.879,2.032  c-0.96,0.687-1.919,1.385-2.88,2.082c-0.959,0.7-1.919,1.407-2.879,2.112s-1.92,1.415-2.879,2.118  c-0.96,0.704-1.92,1.409-2.88,2.104c-0.96,0.696-1.92,1.388-2.879,2.068c-0.961,0.68-1.92,1.354-2.88,2.013  c-0.959,0.658-1.919,1.308-2.879,1.939s-1.92,1.251-2.88,1.852c-0.96,0.6-1.919,1.186-2.879,1.751s-1.92,1.114-2.88,1.643  c-0.959,0.528-1.919,1.037-2.879,1.527c-0.96,0.489-1.92,0.96-2.879,1.411c-0.961,0.45-1.92,0.882-2.88,1.293  c-0.96,0.412-1.919,0.805-2.88,1.18c-0.959,0.375-1.919,0.729-2.879,1.068s-1.919,0.658-2.879,0.963s-1.92,0.592-2.88,0.863  c-0.666,0.19-1.356,0.398-2.02,0.57"/>
<path fill="none" stroke="#000000" stroke-linejoin="round" d="M15.977,167.941c-0.896,0.169-2.023,0.232-2.478,0.331"/>
<g>
	<defs>
		<rect id="SVGID_1_" x="0.015" width="301.406" height="211.17"/>
	</defs>
	<clipPath id="SVGID_2_">
		<use xlink:href="#SVGID_1_" overflow="visible"/>
	</clipPath>
	
		<polyline clip-path="url(#SVGID_2_)" fill="none" stroke="#000000" stroke-width="0.5" stroke-linejoin="round" stroke-miterlimit="10" points="   301.421,192.505 13.499,192.505 13.499,0.121  "/>
</g>
</svg>