<svg xmlns="http://www.w3.org/2000/svg" xmlns:xlink="http://www.w3.org/1999/xlink" version="1.1" x="0px" y="0px" width="293.979px" height="151.139px" viewBox="0 0 293.979 151.139" enable-background="new 0 0 293.979 151.139" xml:space="preserve">
<g id="wide" display="none">
</g>
<g id="text_column">
</g>
<g id="art">
	<g>
		<g>
			<line fill="none" stroke="#A7A9AC" stroke-width="0.5" stroke-linejoin="round" x1="34.505" y1="36.73" x2="35.505" y2="36.73"/>
			
				<line fill="none" stroke="#A7A9AC" stroke-width="0.5" stroke-linejoin="round" stroke-dasharray="1.9999,1.9999" x1="37.505" y1="36.73" x2="284.493" y2="36.73"/>
			
				<line fill="none" stroke="#A7A9AC" stroke-width="0.5" stroke-linejoin="round" x1="285.493" y1="36.73" x2="286.493" y2="36.73"/>
		</g>
	</g>
	<g>
		<g>
			
				<line fill="none" stroke="#A7A9AC" stroke-width="0.5" stroke-linejoin="round" x1="34.505" y1="105.23" x2="35.505" y2="105.23"/>
			
				<line fill="none" stroke="#A7A9AC" stroke-width="0.5" stroke-linejoin="round" stroke-dasharray="1.9999,1.9999" x1="37.505" y1="105.23" x2="284.493" y2="105.23"/>
			
				<line fill="none" stroke="#A7A9AC" stroke-width="0.5" stroke-linejoin="round" x1="285.493" y1="105.23" x2="286.493" y2="105.23"/>
		</g>
	</g>
	<g>
		<g>
			<line fill="none" stroke="#A7A9AC" stroke-width="0.5" stroke-linejoin="round" x1="34.505" y1="70.98" x2="35.505" y2="70.98"/>
			
				<line fill="none" stroke="#A7A9AC" stroke-width="0.5" stroke-linejoin="round" stroke-dasharray="1.9999,1.9999" x1="37.505" y1="70.98" x2="284.493" y2="70.98"/>
			
				<line fill="none" stroke="#A7A9AC" stroke-width="0.5" stroke-linejoin="round" x1="285.493" y1="70.98" x2="286.493" y2="70.98"/>
		</g>
	</g>
	<g>
		<g>
			
				<line fill="none" stroke="#A7A9AC" stroke-width="0.5" stroke-linejoin="round" x1="214.554" y1="2.562" x2="214.554" y2="3.562"/>
			
				<line fill="none" stroke="#A7A9AC" stroke-width="0.5" stroke-linejoin="round" stroke-dasharray="2.0125,2.0125" x1="214.554" y1="5.574" x2="214.554" y2="137.392"/>
			
				<line fill="none" stroke="#A7A9AC" stroke-width="0.5" stroke-linejoin="round" x1="214.554" y1="138.398" x2="214.554" y2="139.398"/>
		</g>
	</g>
	<g>
		<g>
			
				<line fill="none" stroke="#A7A9AC" stroke-width="0.5" stroke-linejoin="round" x1="142.557" y1="2.562" x2="142.557" y2="3.562"/>
			
				<line fill="none" stroke="#A7A9AC" stroke-width="0.5" stroke-linejoin="round" stroke-dasharray="2.0125,2.0125" x1="142.557" y1="5.574" x2="142.557" y2="137.392"/>
			
				<line fill="none" stroke="#A7A9AC" stroke-width="0.5" stroke-linejoin="round" x1="142.557" y1="138.398" x2="142.557" y2="139.398"/>
		</g>
	</g>
	<g>
		<g>
			<line fill="none" stroke="#A7A9AC" stroke-width="0.5" stroke-linejoin="round" x1="70.56" y1="2.562" x2="70.56" y2="3.562"/>
			
				<line fill="none" stroke="#A7A9AC" stroke-width="0.5" stroke-linejoin="round" stroke-dasharray="2.0125,2.0125" x1="70.56" y1="5.574" x2="70.56" y2="137.392"/>
			
				<line fill="none" stroke="#A7A9AC" stroke-width="0.5" stroke-linejoin="round" x1="70.56" y1="138.398" x2="70.56" y2="139.398"/>
		</g>
	</g>
	<g>
		<g>
			
				<line fill="none" stroke="#A7A9AC" stroke-width="0.5" stroke-linejoin="round" x1="250.553" y1="2.562" x2="250.553" y2="3.562"/>
			
				<line fill="none" stroke="#A7A9AC" stroke-width="0.5" stroke-linejoin="round" stroke-dasharray="2.0125,2.0125" x1="250.553" y1="5.574" x2="250.553" y2="137.392"/>
			
				<line fill="none" stroke="#A7A9AC" stroke-width="0.5" stroke-linejoin="round" x1="250.553" y1="138.398" x2="250.553" y2="139.398"/>
		</g>
	</g>
	<g>
		<g>
			
				<line fill="none" stroke="#A7A9AC" stroke-width="0.5" stroke-linejoin="round" x1="178.556" y1="2.562" x2="178.556" y2="3.562"/>
			
				<line fill="none" stroke="#A7A9AC" stroke-width="0.5" stroke-linejoin="round" stroke-dasharray="2.0125,2.0125" x1="178.556" y1="5.574" x2="178.556" y2="137.392"/>
			
				<line fill="none" stroke="#A7A9AC" stroke-width="0.5" stroke-linejoin="round" x1="178.556" y1="138.398" x2="178.556" y2="139.398"/>
		</g>
	</g>
	<g>
		<g>
			
				<line fill="none" stroke="#A7A9AC" stroke-width="0.5" stroke-linejoin="round" x1="106.559" y1="2.562" x2="106.559" y2="3.562"/>
			
				<line fill="none" stroke="#A7A9AC" stroke-width="0.5" stroke-linejoin="round" stroke-dasharray="2.0125,2.0125" x1="106.559" y1="5.574" x2="106.559" y2="137.392"/>
			
				<line fill="none" stroke="#A7A9AC" stroke-width="0.5" stroke-linejoin="round" x1="106.559" y1="138.398" x2="106.559" y2="139.398"/>
		</g>
	</g>
	
		<rect x="34.562" y="2.355" fill="none" stroke="#000000" stroke-width="0.5" stroke-linejoin="round" stroke-miterlimit="10" width="251.942" height="137.237"/>
	<g>
		<path d="M0.405,112.879c-0.072-0.342-0.127-0.882-0.127-1.432c0-0.783,0.136-1.287,0.441-1.666    c0.234-0.315,0.595-0.504,1.071-0.504c0.585,0,1.099,0.387,1.333,1.026h0.018c0.145-0.576,0.621-1.251,1.521-1.251    c0.522,0,0.918,0.207,1.216,0.513c0.387,0.423,0.566,1.107,0.566,2.098c0,0.54-0.036,0.954-0.071,1.215H0.405z M2.89,112.096    v-0.711c0-0.828-0.433-1.314-1.018-1.314c-0.711,0-0.99,0.541-0.99,1.333c0,0.36,0.027,0.567,0.054,0.693H2.89z M5.798,112.096    c0.026-0.153,0.035-0.378,0.035-0.657c0-0.811-0.297-1.558-1.179-1.558c-0.828,0-1.171,0.711-1.171,1.566v0.648H5.798z"/>
		<path d="M4.177,103.997c1.611,0,2.313,1.117,2.313,2.17c0,1.179-0.864,2.088-2.241,2.088c-1.458,0-2.313-0.954-2.313-2.161    C1.936,104.844,2.845,103.997,4.177,103.997z M4.222,107.454c0.954,0,1.675-0.549,1.675-1.323c0-0.756-0.711-1.323-1.692-1.323    c-0.738,0-1.675,0.369-1.675,1.305C2.529,107.049,3.394,107.454,4.222,107.454z"/>
		<path d="M3.214,102.941c-0.45,0-0.819,0.009-1.18,0.036v-0.693l0.702-0.036v-0.027c-0.414-0.243-0.801-0.648-0.801-1.368    c0-0.594,0.359-1.044,0.873-1.233v-0.018c-0.243-0.135-0.433-0.306-0.567-0.486c-0.198-0.261-0.306-0.549-0.306-0.963    c0-0.576,0.378-1.431,1.891-1.431h2.565v0.774H3.925c-0.837,0-1.342,0.306-1.342,0.945c0,0.45,0.334,0.801,0.721,0.937    c0.108,0.036,0.252,0.063,0.396,0.063h2.691v0.774h-2.61c-0.693,0-1.198,0.306-1.198,0.91c0,0.495,0.396,0.855,0.793,0.981    c0.117,0.045,0.252,0.063,0.387,0.063h2.629v0.774H3.214z"/>
		<path d="M6.392,95.446c-0.297-0.018-0.738-0.036-1.125-0.036H0v-0.783h2.736v-0.018c-0.486-0.279-0.801-0.783-0.801-1.485    c0-1.081,0.9-1.846,2.224-1.836c1.558,0,2.331,0.981,2.331,1.954c0,0.63-0.242,1.134-0.818,1.458v0.027l0.72,0.036V95.446z     M4.646,94.627c0.099,0,0.197-0.018,0.288-0.036c0.549-0.153,0.927-0.612,0.927-1.188c0-0.828-0.675-1.323-1.675-1.323    c-0.873,0-1.62,0.45-1.62,1.296c0,0.54,0.369,1.044,0.973,1.207c0.09,0.018,0.197,0.045,0.324,0.045H4.646z"/>
		<path d="M0,88.381v-0.792h6.392v0.792H0z"/>
		<path d="M4.177,82.254c1.611,0,2.313,1.117,2.313,2.17c0,1.179-0.864,2.088-2.241,2.088c-1.458,0-2.313-0.954-2.313-2.161    C1.936,83.101,2.845,82.254,4.177,82.254z M4.222,85.711c0.954,0,1.675-0.549,1.675-1.323c0-0.756-0.711-1.323-1.692-1.323    c-0.738,0-1.675,0.369-1.675,1.305C2.529,85.307,3.394,85.711,4.222,85.711z"/>
		<path d="M6.392,78.759l-0.549,0.063v0.027c0.342,0.243,0.647,0.711,0.647,1.333c0,0.882-0.621,1.333-1.251,1.333    c-1.054,0-1.63-0.937-1.62-2.62H3.528c-0.359,0-1.008,0.099-1.008,0.99c0,0.405,0.126,0.829,0.324,1.135l-0.522,0.18    c-0.234-0.36-0.387-0.882-0.387-1.431c0-1.333,0.909-1.657,1.782-1.657h1.63c0.378,0,0.747-0.018,1.044-0.072V78.759z     M4.168,78.876c-0.018,0.864,0.135,1.845,0.981,1.845c0.513,0,0.756-0.342,0.756-0.747c0-0.567-0.36-0.927-0.729-1.053    c-0.08-0.027-0.171-0.045-0.252-0.045H4.168z"/>
		<path d="M0,73.009h5.267c0.387,0,0.828-0.009,1.125-0.036v0.711l-0.756,0.036v0.018c0.485,0.243,0.854,0.774,0.854,1.485    c0,1.053-0.891,1.863-2.214,1.863c-1.45,0.009-2.341-0.891-2.341-1.954c0-0.666,0.314-1.116,0.666-1.314v-0.018H0V73.009z     M3.808,73.802c-0.099,0-0.233,0.009-0.333,0.036c-0.504,0.117-0.918,0.549-0.918,1.144c0,0.819,0.72,1.305,1.684,1.305    c0.882,0,1.611-0.432,1.611-1.287c0-0.531-0.352-1.018-0.945-1.162c-0.108-0.027-0.216-0.036-0.342-0.036H3.808z"/>
		<path d="M0.144,68.069c0.883,0.657,2.053,1.134,3.683,1.134c1.603,0,2.755-0.495,3.654-1.134v0.621    c-0.747,0.567-1.899,1.179-3.654,1.179C2.053,69.861,0.9,69.257,0.144,68.69V68.069z"/>
		<path d="M4.033,66.432v-0.018c-0.153-0.108-0.343-0.261-0.495-0.387l-1.504-1.278v-0.954l1.792,1.684l2.565-1.918v0.963    l-2.089,1.503l0.45,0.405h1.639v0.783H0v-0.783H4.033z"/>
		<path d="M0.81,61.949c0.271-0.009,0.486,0.189,0.486,0.504c0,0.279-0.216,0.477-0.486,0.477c-0.278,0-0.495-0.207-0.495-0.495    C0.314,62.138,0.531,61.949,0.81,61.949z M6.392,62.832H2.034V62.04h4.357V62.832z"/>
		<path d="M0,60.719v-0.792h6.392v0.792H0z"/>
		<path d="M4.177,54.593c1.611,0,2.313,1.117,2.313,2.17c0,1.179-0.864,2.088-2.241,2.088c-1.458,0-2.313-0.954-2.313-2.161    C1.936,55.439,2.845,54.593,4.177,54.593z M4.222,58.05c0.954,0,1.675-0.549,1.675-1.323c0-0.756-0.711-1.323-1.692-1.323    c-0.738,0-1.675,0.369-1.675,1.305C2.529,57.645,3.394,58.05,4.222,58.05z"/>
		<path d="M2.034,49.734C2.35,49.752,2.7,49.77,3.231,49.77h2.53c0.999,0,1.611,0.198,1.989,0.622    c0.396,0.423,0.522,1.035,0.522,1.584c0,0.522-0.126,1.098-0.36,1.449L7.31,53.227c0.181-0.288,0.343-0.738,0.343-1.278    c0-0.81-0.424-1.404-1.521-1.404H5.645v0.018c0.405,0.243,0.729,0.711,0.729,1.386c0,1.081-0.919,1.854-2.125,1.854    c-1.477,0-2.313-0.963-2.313-1.962c0-0.756,0.396-1.17,0.756-1.359v-0.018l-0.657-0.036V49.734z M3.754,50.553    c-0.135,0-0.252,0.009-0.36,0.045c-0.459,0.144-0.837,0.531-0.837,1.107c0,0.756,0.639,1.296,1.647,1.296    c0.855,0,1.566-0.432,1.566-1.287c0-0.486-0.307-0.927-0.811-1.098c-0.135-0.045-0.288-0.063-0.423-0.063H3.754z"/>
		<path d="M3.394,48.436c-0.513,0-0.954,0.009-1.359,0.036v-0.693l0.855-0.027v-0.036c-0.585-0.198-0.954-0.675-0.954-1.207    c0-0.09,0.009-0.153,0.026-0.225H2.71c-0.019,0.081-0.027,0.162-0.027,0.27c0,0.558,0.423,0.954,1.018,1.062    c0.107,0.018,0.233,0.036,0.369,0.036h2.322v0.783H3.394z"/>
		<path d="M6.392,43.015l-0.549,0.063v0.027c0.342,0.243,0.647,0.711,0.647,1.333c0,0.882-0.621,1.333-1.251,1.333    c-1.054,0-1.63-0.937-1.62-2.62H3.528c-0.359,0-1.008,0.099-1.008,0.991c0,0.405,0.126,0.828,0.324,1.134l-0.522,0.18    c-0.234-0.36-0.387-0.882-0.387-1.431c0-1.333,0.909-1.657,1.782-1.657h1.63c0.378,0,0.747-0.018,1.044-0.072V43.015z     M4.168,43.132c-0.018,0.864,0.135,1.846,0.981,1.846c0.513,0,0.756-0.342,0.756-0.747c0-0.567-0.36-0.927-0.729-1.053    c-0.08-0.027-0.171-0.045-0.252-0.045H4.168z"/>
		<path d="M3.214,41.073c-0.45,0-0.819,0.009-1.18,0.036v-0.693l0.702-0.036v-0.027c-0.414-0.243-0.801-0.648-0.801-1.368    c0-0.594,0.359-1.044,0.873-1.233v-0.018c-0.243-0.135-0.433-0.306-0.567-0.486c-0.198-0.261-0.306-0.549-0.306-0.963    c0-0.576,0.378-1.431,1.891-1.431h2.565v0.774H3.925c-0.837,0-1.342,0.306-1.342,0.945c0,0.45,0.334,0.801,0.721,0.937    c0.108,0.036,0.252,0.063,0.396,0.063h2.691v0.774h-2.61c-0.693,0-1.198,0.306-1.198,0.91c0,0.495,0.396,0.855,0.793,0.981    c0.117,0.045,0.252,0.063,0.387,0.063h2.629v0.774H3.214z"/>
		<path d="M5.581,33.682c0.153-0.234,0.315-0.648,0.315-1.044c0-0.576-0.288-0.847-0.648-0.847c-0.378,0-0.585,0.225-0.801,0.811    c-0.279,0.783-0.712,1.152-1.233,1.152c-0.702,0-1.278-0.567-1.278-1.503c0-0.441,0.126-0.828,0.27-1.071l0.576,0.198    c-0.107,0.171-0.252,0.486-0.252,0.892c0,0.468,0.271,0.729,0.595,0.729c0.359,0,0.521-0.261,0.738-0.828    c0.288-0.756,0.666-1.144,1.313-1.144c0.766,0,1.306,0.594,1.306,1.629c0,0.478-0.117,0.918-0.297,1.225L5.581,33.682z"/>
		<path d="M7.48,30.761c-0.891-0.639-2.062-1.134-3.682-1.134c-1.611,0-2.764,0.486-3.655,1.134v-0.612    c0.738-0.576,1.891-1.179,3.664-1.179c1.765,0,2.908,0.603,3.673,1.179V30.761z"/>
	</g>
	<g>
		<path d="M11.426,4.962V4.557l0.518-0.503c1.246-1.187,1.809-1.817,1.817-2.553c0-0.495-0.24-0.953-0.969-0.953    c-0.443,0-0.811,0.225-1.036,0.413l-0.21-0.466C11.884,0.21,12.365,0,12.928,0c1.051,0,1.494,0.721,1.494,1.418    c0,0.901-0.653,1.63-1.682,2.62l-0.39,0.36v0.016h2.192v0.548H11.426z"/>
		<path d="M18.517,2.47c0,1.659-0.616,2.575-1.697,2.575c-0.953,0-1.599-0.894-1.614-2.508C15.206,0.9,15.912,0,16.902,0    C17.931,0,18.517,0.915,18.517,2.47z M15.867,2.545c0,1.269,0.39,1.989,0.991,1.989c0.676,0,0.999-0.788,0.999-2.034    c0-1.201-0.308-1.99-0.991-1.99C16.287,0.51,15.867,1.216,15.867,2.545z"/>
		<path d="M18.903,5.886c0.165-0.443,0.368-1.247,0.45-1.795l0.736-0.075c-0.172,0.639-0.503,1.472-0.713,1.824L18.903,5.886z"/>
		<path d="M23.916,2.47c0,1.659-0.616,2.575-1.697,2.575c-0.953,0-1.599-0.894-1.614-2.508C20.605,0.9,21.311,0,22.302,0    C23.331,0,23.916,0.915,23.916,2.47z M21.266,2.545c0,1.269,0.39,1.989,0.991,1.989c0.676,0,0.999-0.788,0.999-2.034    c0-1.201-0.308-1.99-0.991-1.99C21.686,0.51,21.266,1.216,21.266,2.545z"/>
		<path d="M27.763,2.47c0,1.659-0.616,2.575-1.697,2.575c-0.954,0-1.599-0.894-1.614-2.508C24.453,0.9,25.158,0,26.149,0    C27.178,0,27.763,0.915,27.763,2.47z M25.113,2.545c0,1.269,0.391,1.989,0.991,1.989c0.676,0,0.999-0.788,0.999-2.034    c0-1.201-0.308-1.99-0.991-1.99C25.534,0.51,25.113,1.216,25.113,2.545z"/>
		<path d="M31.61,2.47c0,1.659-0.616,2.575-1.697,2.575c-0.953,0-1.599-0.894-1.614-2.508C28.299,0.9,29.005,0,29.996,0    C31.025,0,31.61,0.915,31.61,2.47z M28.96,2.545c0,1.269,0.39,1.989,0.991,1.989c0.676,0,0.999-0.788,0.999-2.034    c0-1.201-0.308-1.99-0.991-1.99C29.38,0.51,28.96,1.216,28.96,2.545z"/>
		<path d="M12.86,34.947h-0.015l-0.849,0.458l-0.127-0.503l1.066-0.57h0.563v4.88H12.86V34.947z"/>
		<path d="M18.186,34.888h-1.862l-0.188,1.254c0.113-0.016,0.218-0.03,0.398-0.03c0.375,0,0.75,0.083,1.051,0.263    c0.383,0.218,0.698,0.639,0.698,1.254c0,0.953-0.758,1.667-1.816,1.667c-0.533,0-0.984-0.15-1.216-0.301l0.165-0.503    c0.203,0.12,0.601,0.271,1.043,0.271c0.623,0,1.156-0.405,1.156-1.059c-0.008-0.631-0.428-1.081-1.404-1.081    c-0.278,0-0.496,0.03-0.676,0.053l0.315-2.343h2.334V34.888z"/>
		<path d="M18.903,40.136c0.165-0.443,0.368-1.247,0.45-1.795l0.736-0.075c-0.172,0.639-0.503,1.472-0.713,1.824L18.903,40.136z"/>
		<path d="M23.916,36.72c0,1.659-0.616,2.575-1.697,2.575c-0.953,0-1.599-0.894-1.614-2.508c0-1.637,0.706-2.537,1.697-2.537    C23.331,34.25,23.916,35.165,23.916,36.72z M21.266,36.795c0,1.269,0.39,1.989,0.991,1.989c0.676,0,0.999-0.788,0.999-2.034    c0-1.201-0.308-1.99-0.991-1.99C21.686,34.76,21.266,35.466,21.266,36.795z"/>
		<path d="M27.763,36.72c0,1.659-0.616,2.575-1.697,2.575c-0.954,0-1.599-0.894-1.614-2.508c0-1.637,0.706-2.537,1.696-2.537    C27.178,34.25,27.763,35.165,27.763,36.72z M25.113,36.795c0,1.269,0.391,1.989,0.991,1.989c0.676,0,0.999-0.788,0.999-2.034    c0-1.201-0.308-1.99-0.991-1.99C25.534,34.76,25.113,35.466,25.113,36.795z"/>
		<path d="M31.61,36.72c0,1.659-0.616,2.575-1.697,2.575c-0.953,0-1.599-0.894-1.614-2.508c0-1.637,0.706-2.537,1.697-2.537    C31.025,34.25,31.61,35.165,31.61,36.72z M28.96,36.795c0,1.269,0.39,1.989,0.991,1.989c0.676,0,0.999-0.788,0.999-2.034    c0-1.201-0.308-1.99-0.991-1.99C29.38,34.76,28.96,35.466,28.96,36.795z"/>
		<path d="M12.86,69.197h-0.015l-0.849,0.458l-0.127-0.503l1.066-0.57h0.563v4.88H12.86V69.197z"/>
		<path d="M18.517,70.97c0,1.659-0.616,2.575-1.697,2.575c-0.953,0-1.599-0.894-1.614-2.508c0-1.637,0.706-2.537,1.697-2.537    C17.931,68.5,18.517,69.415,18.517,70.97z M15.867,71.045c0,1.269,0.39,1.989,0.991,1.989c0.676,0,0.999-0.788,0.999-2.034    c0-1.201-0.308-1.99-0.991-1.99C16.287,69.01,15.867,69.716,15.867,71.045z"/>
		<path d="M18.903,74.386c0.165-0.443,0.368-1.247,0.45-1.795l0.736-0.075c-0.172,0.639-0.503,1.472-0.713,1.824L18.903,74.386z"/>
		<path d="M23.916,70.97c0,1.659-0.616,2.575-1.697,2.575c-0.953,0-1.599-0.894-1.614-2.508c0-1.637,0.706-2.537,1.697-2.537    C23.331,68.5,23.916,69.415,23.916,70.97z M21.266,71.045c0,1.269,0.39,1.989,0.991,1.989c0.676,0,0.999-0.788,0.999-2.034    c0-1.201-0.308-1.99-0.991-1.99C21.686,69.01,21.266,69.716,21.266,71.045z"/>
		<path d="M27.763,70.97c0,1.659-0.616,2.575-1.697,2.575c-0.954,0-1.599-0.894-1.614-2.508c0-1.637,0.706-2.537,1.696-2.537    C27.178,68.5,27.763,69.415,27.763,70.97z M25.113,71.045c0,1.269,0.391,1.989,0.991,1.989c0.676,0,0.999-0.788,0.999-2.034    c0-1.201-0.308-1.99-0.991-1.99C25.534,69.01,25.113,69.716,25.113,71.045z"/>
		<path d="M31.61,70.97c0,1.659-0.616,2.575-1.697,2.575c-0.953,0-1.599-0.894-1.614-2.508c0-1.637,0.706-2.537,1.697-2.537    C31.025,68.5,31.61,69.415,31.61,70.97z M28.96,71.045c0,1.269,0.39,1.989,0.991,1.989c0.676,0,0.999-0.788,0.999-2.034    c0-1.201-0.308-1.99-0.991-1.99C29.38,69.01,28.96,69.716,28.96,71.045z"/>
		<path d="M18.186,103.388h-1.862l-0.188,1.254c0.113-0.016,0.218-0.03,0.398-0.03c0.375,0,0.75,0.083,1.051,0.263    c0.383,0.218,0.698,0.639,0.698,1.254c0,0.953-0.758,1.667-1.816,1.667c-0.533,0-0.984-0.15-1.216-0.301l0.165-0.503    c0.203,0.12,0.601,0.271,1.043,0.271c0.623,0,1.156-0.405,1.156-1.059c-0.008-0.631-0.428-1.081-1.404-1.081    c-0.278,0-0.496,0.03-0.676,0.053l0.315-2.343h2.334V103.388z"/>
		<path d="M18.903,108.636c0.165-0.443,0.368-1.247,0.45-1.795l0.736-0.075c-0.172,0.639-0.503,1.472-0.713,1.824L18.903,108.636z"/>
		<path d="M23.916,105.22c0,1.659-0.616,2.575-1.697,2.575c-0.953,0-1.599-0.894-1.614-2.508c0-1.637,0.706-2.537,1.697-2.537    C23.331,102.75,23.916,103.665,23.916,105.22z M21.266,105.295c0,1.269,0.39,1.989,0.991,1.989c0.676,0,0.999-0.788,0.999-2.034    c0-1.201-0.308-1.99-0.991-1.99C21.686,103.26,21.266,103.966,21.266,105.295z"/>
		<path d="M27.763,105.22c0,1.659-0.616,2.575-1.697,2.575c-0.954,0-1.599-0.894-1.614-2.508c0-1.637,0.706-2.537,1.696-2.537    C27.178,102.75,27.763,103.665,27.763,105.22z M25.113,105.295c0,1.269,0.391,1.989,0.991,1.989c0.676,0,0.999-0.788,0.999-2.034    c0-1.201-0.308-1.99-0.991-1.99C25.534,103.26,25.113,103.966,25.113,105.295z"/>
		<path d="M31.61,105.22c0,1.659-0.616,2.575-1.697,2.575c-0.953,0-1.599-0.894-1.614-2.508c0-1.637,0.706-2.537,1.697-2.537    C31.025,102.75,31.61,103.665,31.61,105.22z M28.96,105.295c0,1.269,0.39,1.989,0.991,1.989c0.676,0,0.999-0.788,0.999-2.034    c0-1.201-0.308-1.99-0.991-1.99C29.38,103.26,28.96,103.966,28.96,105.295z"/>
		<path d="M31.611,139.47c0,1.659-0.616,2.575-1.697,2.575c-0.953,0-1.599-0.894-1.614-2.508c0-1.637,0.706-2.537,1.697-2.537    C31.026,137,31.611,137.915,31.611,139.47z M28.961,139.545c0,1.269,0.39,1.989,0.991,1.989c0.676,0,0.999-0.788,0.999-2.034    c0-1.201-0.308-1.99-0.991-1.99C29.381,137.51,28.961,138.216,28.961,139.545z"/>
	</g>
	<circle cx="59.562" cy="139.398" r="2"/>
	<circle cx="81.321" cy="138.856" r="2"/>
	<circle cx="78.05" cy="138.18" r="2"/>
	<circle cx="88.651" cy="138.18" r="2"/>
	<circle cx="91.901" cy="138.18" r="2"/>
	<circle cx="103.312" cy="131.472" r="2"/>
	<circle cx="106.312" cy="133.222" r="2"/>
	<circle cx="110.228" cy="135.639" r="2"/>
	<circle cx="110.228" cy="138.223" r="2"/>
	<circle cx="156.978" cy="120.972" r="2"/>
	<circle cx="171.478" cy="133.139" r="2"/>
	<circle cx="174.645" cy="96.056" r="2"/>
	<circle cx="189.145" cy="89.556" r="2"/>
	<circle cx="185.229" cy="117.972" r="2"/>
	<circle cx="153.229" cy="117.556" r="2"/>
	<circle cx="199.979" cy="128.639" r="2"/>
	<circle cx="242.729" cy="102.389" r="2"/>
	<circle cx="203.562" cy="34.056" r="2"/>
	<circle cx="214.395" cy="77.722" r="2"/>
	<circle cx="236.005" cy="89.67" r="2"/>
	<circle cx="121.145" cy="127.389" r="2"/>
	<circle cx="146.228" cy="133.056" r="2"/>
	<circle cx="117.228" cy="119.973" r="2"/>
	<circle cx="117.228" cy="129.806" r="2"/>
	<circle cx="117.228" cy="132.972" r="2"/>
	<circle cx="117.228" cy="134.889" r="2"/>
	<circle cx="127.978" cy="133.223" r="2"/>
	<circle cx="135.645" cy="133.223" r="2"/>
	<circle cx="131.895" cy="133.223" r="2"/>
	<circle cx="99.395" cy="134.306" r="2"/>
	<g>
		<path d="M64.637,146.791h-0.015l-0.849,0.458l-0.127-0.503l1.066-0.57h0.563v4.88h-0.638V146.791z"/>
		<path d="M67.433,150.59c0.143,0.016,0.308,0,0.533-0.022c0.383-0.052,0.743-0.21,1.021-0.473c0.323-0.293,0.555-0.721,0.646-1.299    H69.61c-0.271,0.33-0.661,0.525-1.149,0.525c-0.878,0-1.441-0.66-1.441-1.494c0-0.923,0.668-1.733,1.667-1.733    c0.998,0,1.614,0.811,1.614,2.057c0,1.073-0.36,1.824-0.841,2.29c-0.375,0.367-0.893,0.593-1.419,0.652    c-0.24,0.038-0.45,0.046-0.608,0.038V150.59z M67.673,147.782c0,0.608,0.368,1.036,0.938,1.036c0.443,0,0.788-0.218,0.961-0.511    c0.038-0.06,0.06-0.135,0.06-0.24c0-0.833-0.308-1.471-0.999-1.471C68.071,146.597,67.673,147.092,67.673,147.782z"/>
		<path d="M71.055,150.298c0.188,0.12,0.623,0.308,1.081,0.308c0.848,0,1.111-0.541,1.104-0.946    c-0.008-0.683-0.623-0.976-1.261-0.976h-0.368v-0.496h0.368c0.48,0,1.088-0.247,1.088-0.825c0-0.391-0.248-0.736-0.855-0.736    c-0.391,0-0.766,0.173-0.976,0.323l-0.173-0.48c0.255-0.188,0.751-0.375,1.276-0.375c0.961,0,1.396,0.57,1.396,1.163    c0,0.503-0.3,0.931-0.901,1.148v0.016c0.601,0.12,1.088,0.57,1.088,1.253c0,0.781-0.608,1.465-1.779,1.465    c-0.548,0-1.028-0.173-1.269-0.331L71.055,150.298z"/>
		<path d="M77.988,148.563c0,1.659-0.616,2.575-1.697,2.575c-0.954,0-1.599-0.894-1.614-2.508c0-1.637,0.706-2.537,1.696-2.537    C77.402,146.094,77.988,147.009,77.988,148.563z M75.337,148.639c0,1.269,0.391,1.989,0.991,1.989    c0.676,0,0.999-0.788,0.999-2.034c0-1.201-0.308-1.99-0.991-1.99C75.758,146.604,75.337,147.31,75.337,148.639z"/>
	</g>
	<g>
		<path d="M136.634,146.791h-0.015l-0.849,0.458l-0.127-0.503l1.066-0.57h0.563v4.88h-0.638V146.791z"/>
		<path d="M139.43,150.59c0.143,0.016,0.308,0,0.533-0.022c0.383-0.052,0.743-0.21,1.021-0.473c0.323-0.293,0.555-0.721,0.646-1.299    h-0.022c-0.271,0.33-0.661,0.525-1.149,0.525c-0.878,0-1.441-0.66-1.441-1.494c0-0.923,0.668-1.733,1.667-1.733    c0.998,0,1.614,0.811,1.614,2.057c0,1.073-0.36,1.824-0.841,2.29c-0.375,0.367-0.893,0.593-1.419,0.652    c-0.24,0.038-0.45,0.046-0.608,0.038V150.59z M139.67,147.782c0,0.608,0.368,1.036,0.938,1.036c0.443,0,0.788-0.218,0.961-0.511    c0.038-0.06,0.06-0.135,0.06-0.24c0-0.833-0.308-1.471-0.999-1.471C140.068,146.597,139.67,147.092,139.67,147.782z"/>
		<path d="M145.807,146.731h-1.862l-0.188,1.254c0.113-0.016,0.218-0.03,0.398-0.03c0.375,0,0.75,0.083,1.051,0.263    c0.383,0.218,0.698,0.639,0.698,1.254c0,0.953-0.758,1.667-1.816,1.667c-0.533,0-0.984-0.15-1.216-0.301l0.165-0.503    c0.203,0.12,0.601,0.271,1.043,0.271c0.623,0,1.156-0.405,1.156-1.059c-0.008-0.631-0.428-1.081-1.404-1.081    c-0.278,0-0.496,0.03-0.676,0.053l0.315-2.343h2.334V146.731z"/>
		<path d="M149.985,148.563c0,1.659-0.616,2.575-1.697,2.575c-0.954,0-1.599-0.894-1.614-2.508c0-1.637,0.706-2.537,1.696-2.537    C149.399,146.094,149.985,147.009,149.985,148.563z M147.334,148.639c0,1.269,0.391,1.989,0.991,1.989    c0.676,0,0.999-0.788,0.999-2.034c0-1.201-0.308-1.99-0.991-1.99C147.755,146.604,147.334,147.31,147.334,148.639z"/>
	</g>
	<g>
		<path d="M208.631,146.791h-0.015l-0.85,0.458l-0.127-0.503l1.066-0.57h0.562v4.88h-0.638V146.791z"/>
		<path d="M211.427,150.59c0.143,0.016,0.308,0,0.533-0.022c0.383-0.052,0.743-0.21,1.021-0.473    c0.322-0.293,0.555-0.721,0.645-1.299h-0.021c-0.271,0.33-0.661,0.525-1.149,0.525c-0.878,0-1.441-0.66-1.441-1.494    c0-0.923,0.669-1.733,1.667-1.733s1.613,0.811,1.613,2.057c0,1.073-0.359,1.824-0.84,2.29c-0.376,0.367-0.894,0.593-1.42,0.652    c-0.24,0.038-0.449,0.046-0.607,0.038V150.59z M211.667,147.782c0,0.608,0.367,1.036,0.938,1.036c0.442,0,0.788-0.218,0.961-0.511    c0.038-0.06,0.06-0.135,0.06-0.24c0-0.833-0.308-1.471-0.998-1.471C212.065,146.597,211.667,147.092,211.667,147.782z"/>
		<path d="M218.06,146.176v0.436l-2.125,4.444h-0.684l2.117-4.316v-0.016h-2.387v-0.548H218.06z"/>
		<path d="M221.981,148.563c0,1.659-0.615,2.575-1.697,2.575c-0.953,0-1.599-0.894-1.613-2.508c0-1.637,0.705-2.537,1.696-2.537    C221.396,146.094,221.981,147.009,221.981,148.563z M219.331,148.639c0,1.269,0.391,1.989,0.991,1.989    c0.676,0,0.999-0.788,0.999-2.034c0-1.201-0.309-1.99-0.992-1.99C219.752,146.604,219.331,147.31,219.331,148.639z"/>
	</g>
	<g>
		<path d="M28.639,146.791h-0.015l-0.849,0.458l-0.127-0.503l1.066-0.57h0.563v4.88h-0.638V146.791z"/>
		<path d="M31.435,150.59c0.143,0.016,0.308,0,0.533-0.022c0.383-0.052,0.743-0.21,1.021-0.473c0.323-0.293,0.555-0.721,0.646-1.299    h-0.022c-0.271,0.33-0.661,0.525-1.149,0.525c-0.878,0-1.441-0.66-1.441-1.494c0-0.923,0.668-1.733,1.667-1.733    c0.998,0,1.614,0.811,1.614,2.057c0,1.073-0.36,1.824-0.841,2.29c-0.375,0.367-0.893,0.593-1.419,0.652    c-0.24,0.038-0.45,0.046-0.608,0.038V150.59z M31.675,147.782c0,0.608,0.368,1.036,0.938,1.036c0.443,0,0.788-0.218,0.961-0.511    c0.038-0.06,0.06-0.135,0.06-0.24c0-0.833-0.308-1.471-0.999-1.471C32.073,146.597,31.675,147.092,31.675,147.782z"/>
		<path d="M34.899,151.056v-0.405l0.518-0.503c1.246-1.187,1.809-1.817,1.816-2.553c0-0.495-0.24-0.953-0.968-0.953    c-0.443,0-0.811,0.225-1.036,0.413l-0.21-0.466c0.338-0.285,0.818-0.495,1.381-0.495c1.051,0,1.494,0.721,1.494,1.418    c0,0.901-0.653,1.63-1.682,2.62l-0.391,0.36v0.016h2.192v0.548H34.899z"/>
		<path d="M41.989,148.563c0,1.659-0.616,2.575-1.697,2.575c-0.954,0-1.599-0.894-1.614-2.508c0-1.637,0.706-2.537,1.696-2.537    C41.404,146.094,41.989,147.009,41.989,148.563z M39.339,148.639c0,1.269,0.391,1.989,0.991,1.989    c0.676,0,0.999-0.788,0.999-2.034c0-1.201-0.308-1.99-0.991-1.99C39.76,146.604,39.339,147.31,39.339,148.639z"/>
	</g>
	<g>
		<path d="M100.636,146.791h-0.015l-0.849,0.458l-0.127-0.503l1.066-0.57h0.563v4.88h-0.638V146.791z"/>
		<path d="M103.432,150.59c0.143,0.016,0.308,0,0.533-0.022c0.383-0.052,0.743-0.21,1.021-0.473    c0.323-0.293,0.555-0.721,0.646-1.299h-0.022c-0.271,0.33-0.661,0.525-1.149,0.525c-0.878,0-1.441-0.66-1.441-1.494    c0-0.923,0.668-1.733,1.667-1.733c0.998,0,1.614,0.811,1.614,2.057c0,1.073-0.36,1.824-0.841,2.29    c-0.375,0.367-0.893,0.593-1.419,0.652c-0.24,0.038-0.45,0.046-0.608,0.038V150.59z M103.672,147.782    c0,0.608,0.368,1.036,0.938,1.036c0.443,0,0.788-0.218,0.961-0.511c0.038-0.06,0.06-0.135,0.06-0.24    c0-0.833-0.308-1.471-0.999-1.471C104.07,146.597,103.672,147.092,103.672,147.782z"/>
		<path d="M108.938,151.056v-1.329h-2.267v-0.436l2.177-3.115h0.713v3.033h0.683v0.518h-0.683v1.329H108.938z M108.938,149.209    v-1.629c0-0.256,0.007-0.511,0.022-0.766h-0.022c-0.15,0.285-0.271,0.495-0.405,0.721l-1.194,1.658v0.016H108.938z"/>
		<path d="M113.986,148.563c0,1.659-0.616,2.575-1.697,2.575c-0.954,0-1.599-0.894-1.614-2.508c0-1.637,0.706-2.537,1.696-2.537    C113.401,146.094,113.986,147.009,113.986,148.563z M111.336,148.639c0,1.269,0.391,1.989,0.991,1.989    c0.676,0,0.999-0.788,0.999-2.034c0-1.201-0.308-1.99-0.991-1.99C111.757,146.604,111.336,147.31,111.336,148.639z"/>
	</g>
	<g>
		<path d="M172.632,146.791h-0.015l-0.849,0.458l-0.127-0.503l1.065-0.57h0.563v4.88h-0.639V146.791z"/>
		<path d="M175.429,150.59c0.143,0.016,0.307,0,0.533-0.022c0.383-0.052,0.742-0.21,1.021-0.473    c0.323-0.293,0.556-0.721,0.646-1.299h-0.022c-0.271,0.33-0.661,0.525-1.149,0.525c-0.877,0-1.441-0.66-1.441-1.494    c0-0.923,0.669-1.733,1.668-1.733c0.998,0,1.613,0.811,1.613,2.057c0,1.073-0.36,1.824-0.841,2.29    c-0.376,0.367-0.894,0.593-1.419,0.652c-0.24,0.038-0.45,0.046-0.607,0.038V150.59z M175.669,147.782    c0,0.608,0.367,1.036,0.938,1.036c0.443,0,0.789-0.218,0.961-0.511c0.038-0.06,0.061-0.135,0.061-0.24    c0-0.833-0.309-1.471-0.998-1.471C176.066,146.597,175.669,147.092,175.669,147.782z"/>
		<path d="M181.678,146.642c-0.136-0.008-0.308,0-0.495,0.03c-1.037,0.172-1.584,0.931-1.697,1.733h0.023    c0.232-0.308,0.637-0.562,1.178-0.562c0.863,0,1.472,0.623,1.472,1.576c0,0.894-0.608,1.72-1.622,1.72    c-1.043,0-1.727-0.812-1.727-2.08c0-0.961,0.346-1.719,0.826-2.199c0.405-0.398,0.945-0.646,1.562-0.721    c0.195-0.03,0.36-0.038,0.48-0.038V146.642z M181.49,149.457c0-0.698-0.397-1.119-1.007-1.119c-0.396,0-0.766,0.248-0.945,0.601    c-0.045,0.075-0.075,0.173-0.075,0.293c0.015,0.804,0.384,1.396,1.073,1.396C181.106,150.628,181.49,150.154,181.49,149.457z"/>
		<path d="M185.983,148.563c0,1.659-0.616,2.575-1.697,2.575c-0.953,0-1.6-0.894-1.613-2.508c0-1.637,0.705-2.537,1.695-2.537    C185.397,146.094,185.983,147.009,185.983,148.563z M183.333,148.639c0,1.269,0.391,1.989,0.99,1.989    c0.676,0,0.999-0.788,0.999-2.034c0-1.201-0.308-1.99-0.991-1.99C183.753,146.604,183.333,147.31,183.333,148.639z"/>
	</g>
	<g>
		<path d="M244.63,146.791h-0.016l-0.849,0.458l-0.128-0.503l1.066-0.57h0.562v4.88h-0.637V146.791z"/>
		<path d="M247.425,150.59c0.143,0.016,0.309,0,0.533-0.022c0.383-0.052,0.744-0.21,1.021-0.473    c0.322-0.293,0.555-0.721,0.646-1.299h-0.022c-0.271,0.33-0.66,0.525-1.148,0.525c-0.879,0-1.441-0.66-1.441-1.494    c0-0.923,0.668-1.733,1.666-1.733s1.614,0.811,1.614,2.057c0,1.073-0.36,1.824-0.841,2.29c-0.375,0.367-0.893,0.593-1.419,0.652    c-0.24,0.038-0.45,0.046-0.608,0.038V150.59z M247.665,147.782c0,0.608,0.368,1.036,0.939,1.036c0.442,0,0.787-0.218,0.961-0.511    c0.037-0.06,0.06-0.135,0.06-0.24c0-0.833-0.308-1.471-0.999-1.471C248.063,146.597,247.665,147.092,247.665,147.782z"/>
		<path d="M250.829,149.817c0-0.616,0.368-1.052,0.969-1.307l-0.008-0.022c-0.54-0.256-0.773-0.676-0.773-1.096    c0-0.773,0.654-1.299,1.51-1.299c0.945,0,1.418,0.593,1.418,1.201c0,0.412-0.202,0.855-0.803,1.141v0.022    c0.608,0.24,0.984,0.668,0.984,1.262c0,0.848-0.729,1.419-1.66,1.419C251.445,151.139,250.829,150.53,250.829,149.817z     M253.457,149.787c0-0.594-0.413-0.879-1.073-1.066c-0.57,0.165-0.879,0.541-0.879,1.006c-0.021,0.496,0.354,0.932,0.977,0.932    C253.074,150.658,253.457,150.29,253.457,149.787z M251.64,147.347c0,0.488,0.369,0.751,0.932,0.901    c0.42-0.143,0.743-0.443,0.743-0.886c0-0.391-0.233-0.796-0.825-0.796C251.94,146.566,251.64,146.927,251.64,147.347z"/>
		<path d="M257.979,148.563c0,1.659-0.615,2.575-1.696,2.575c-0.954,0-1.599-0.894-1.614-2.508c0-1.637,0.706-2.537,1.697-2.537    C257.395,146.094,257.979,147.009,257.979,148.563z M255.329,148.639c0,1.269,0.391,1.989,0.992,1.989    c0.676,0,0.998-0.788,0.998-2.034c0-1.201-0.309-1.99-0.991-1.99C255.751,146.604,255.329,147.31,255.329,148.639z"/>
	</g>
	<g>
		<path d="M280.628,146.791h-0.016l-0.848,0.458l-0.128-0.503l1.065-0.57h0.563v4.88h-0.638V146.791z"/>
		<path d="M283.424,150.59c0.143,0.016,0.308,0,0.533-0.022c0.383-0.052,0.743-0.21,1.021-0.473    c0.323-0.293,0.556-0.721,0.646-1.299h-0.023c-0.27,0.33-0.66,0.525-1.148,0.525c-0.878,0-1.441-0.66-1.441-1.494    c0-0.923,0.668-1.733,1.667-1.733c0.998,0,1.614,0.811,1.614,2.057c0,1.073-0.361,1.824-0.842,2.29    c-0.375,0.367-0.893,0.593-1.418,0.652c-0.24,0.038-0.451,0.046-0.608,0.038V150.59z M283.664,147.782    c0,0.608,0.368,1.036,0.938,1.036c0.443,0,0.788-0.218,0.961-0.511c0.037-0.06,0.061-0.135,0.061-0.24    c0-0.833-0.309-1.471-0.999-1.471C284.062,146.597,283.664,147.092,283.664,147.782z"/>
		<path d="M287.271,150.59c0.143,0.016,0.309,0,0.533-0.022c0.383-0.052,0.744-0.21,1.021-0.473    c0.322-0.293,0.555-0.721,0.646-1.299h-0.022c-0.271,0.33-0.66,0.525-1.148,0.525c-0.879,0-1.441-0.66-1.441-1.494    c0-0.923,0.668-1.733,1.666-1.733c0.999,0,1.614,0.811,1.614,2.057c0,1.073-0.36,1.824-0.841,2.29    c-0.375,0.367-0.893,0.593-1.419,0.652c-0.24,0.038-0.45,0.046-0.608,0.038V150.59z M287.511,147.782    c0,0.608,0.368,1.036,0.939,1.036c0.442,0,0.787-0.218,0.961-0.511c0.037-0.06,0.06-0.135,0.06-0.24    c0-0.833-0.308-1.471-0.999-1.471C287.909,146.597,287.511,147.092,287.511,147.782z"/>
		<path d="M293.979,148.563c0,1.659-0.616,2.575-1.696,2.575c-0.954,0-1.6-0.894-1.614-2.508c0-1.637,0.706-2.537,1.696-2.537    C293.394,146.094,293.979,147.009,293.979,148.563z M291.328,148.639c0,1.269,0.391,1.989,0.991,1.989    c0.676,0,0.998-0.788,0.998-2.034c0-1.201-0.308-1.99-0.99-1.99C291.749,146.604,291.328,147.31,291.328,148.639z"/>
	</g>
</g>
</svg>