<svg xmlns="http://www.w3.org/2000/svg" xmlns:xlink="http://www.w3.org/1999/xlink" version="1.1" id="Layer_1" x="0px" y="0px" width="304.144px" height="208.18px" viewBox="0 0 304.144 208.18" enable-background="new 0 0 304.144 208.18" xml:space="preserve">
<line fill="none" stroke="#A7A9AC" stroke-width="0.5" stroke-linejoin="round" x1="24.736" y1="66.906" x2="25.736" y2="66.906"/>
<line fill="none" stroke="#A7A9AC" stroke-width="0.5" stroke-linejoin="round" stroke-dasharray="1.999,1.999" x1="27.735" y1="66.906" x2="294.671" y2="66.906"/>
<line fill="none" stroke="#A7A9AC" stroke-width="0.5" stroke-linejoin="round" x1="295.671" y1="66.906" x2="296.671" y2="66.906"/>
<line fill="none" stroke="#A7A9AC" stroke-width="0.5" stroke-linejoin="round" x1="24.736" y1="130.795" x2="25.736" y2="130.795"/>
<line fill="none" stroke="#A7A9AC" stroke-width="0.5" stroke-linejoin="round" stroke-dasharray="1.999,1.999" x1="27.735" y1="130.795" x2="294.671" y2="130.795"/>
<line fill="none" stroke="#A7A9AC" stroke-width="0.5" stroke-linejoin="round" x1="295.671" y1="130.795" x2="296.671" y2="130.795"/>
<line fill="none" stroke="#A7A9AC" stroke-width="0.5" stroke-linejoin="round" x1="24.736" y1="34.961" x2="25.736" y2="34.961"/>
<line fill="none" stroke="#A7A9AC" stroke-width="0.5" stroke-linejoin="round" stroke-dasharray="1.999,1.999" x1="27.735" y1="34.961" x2="294.671" y2="34.961"/>
<line fill="none" stroke="#A7A9AC" stroke-width="0.5" stroke-linejoin="round" x1="295.671" y1="34.961" x2="296.671" y2="34.961"/>
<line fill="none" stroke="#A7A9AC" stroke-width="0.5" stroke-linejoin="round" x1="24.736" y1="162.739" x2="25.736" y2="162.739"/>
<line fill="none" stroke="#A7A9AC" stroke-width="0.5" stroke-linejoin="round" stroke-dasharray="1.999,1.999" x1="27.735" y1="162.739" x2="294.671" y2="162.739"/>
<line fill="none" stroke="#A7A9AC" stroke-width="0.5" stroke-linejoin="round" x1="295.671" y1="162.739" x2="296.671" y2="162.739"/>
<line fill="none" stroke="#A7A9AC" stroke-width="0.5" stroke-linejoin="round" x1="24.736" y1="98.851" x2="25.736" y2="98.851"/>
<line fill="none" stroke="#A7A9AC" stroke-width="0.5" stroke-linejoin="round" stroke-dasharray="1.999,1.999" x1="27.735" y1="98.851" x2="294.671" y2="98.851"/>
<line fill="none" stroke="#A7A9AC" stroke-width="0.5" stroke-linejoin="round" x1="295.671" y1="98.851" x2="296.671" y2="98.851"/>
<line fill="none" stroke="#A7A9AC" stroke-width="0.5" stroke-linejoin="round" x1="236.308" y1="3.13" x2="236.308" y2="4.13"/>
<line fill="none" stroke="#A7A9AC" stroke-width="0.5" stroke-linejoin="round" stroke-dasharray="1.994,1.994" x1="236.308" y1="6.124" x2="236.308" y2="192.572"/>
<line fill="none" stroke="#A7A9AC" stroke-width="0.5" stroke-linejoin="round" x1="236.308" y1="193.569" x2="236.308" y2="194.569"/>
<line fill="none" stroke="#A7A9AC" stroke-width="0.5" stroke-linejoin="round" x1="266.522" y1="3.13" x2="266.522" y2="4.13"/>
<line fill="none" stroke="#A7A9AC" stroke-width="0.5" stroke-linejoin="round" stroke-dasharray="1.994,1.994" x1="266.522" y1="6.124" x2="266.522" y2="192.572"/>
<line fill="none" stroke="#A7A9AC" stroke-width="0.5" stroke-linejoin="round" x1="266.522" y1="193.569" x2="266.522" y2="194.569"/>
<line fill="none" stroke="#A7A9AC" stroke-width="0.5" stroke-linejoin="round" x1="115.444" y1="3.13" x2="115.444" y2="4.13"/>
<line fill="none" stroke="#A7A9AC" stroke-width="0.5" stroke-linejoin="round" stroke-dasharray="1.994,1.994" x1="115.444" y1="6.124" x2="115.444" y2="192.572"/>
<line fill="none" stroke="#A7A9AC" stroke-width="0.5" stroke-linejoin="round" x1="115.444" y1="193.569" x2="115.444" y2="194.569"/>
<line fill="none" stroke="#A7A9AC" stroke-width="0.5" stroke-linejoin="round" x1="55.013" y1="3.13" x2="55.013" y2="4.13"/>
<line fill="none" stroke="#A7A9AC" stroke-width="0.5" stroke-linejoin="round" stroke-dasharray="1.994,1.994" x1="55.013" y1="6.124" x2="55.013" y2="192.572"/>
<line fill="none" stroke="#A7A9AC" stroke-width="0.5" stroke-linejoin="round" x1="55.013" y1="193.569" x2="55.013" y2="194.569"/>
<line fill="none" stroke="#A7A9AC" stroke-width="0.5" stroke-linejoin="round" x1="175.875" y1="3.13" x2="175.875" y2="4.13"/>
<line fill="none" stroke="#A7A9AC" stroke-width="0.5" stroke-linejoin="round" stroke-dasharray="1.994,1.994" x1="175.875" y1="6.124" x2="175.875" y2="192.572"/>
<line fill="none" stroke="#A7A9AC" stroke-width="0.5" stroke-linejoin="round" x1="175.875" y1="193.569" x2="175.875" y2="194.569"/>
<line fill="none" stroke="#A7A9AC" stroke-width="0.5" stroke-linejoin="round" x1="206.088" y1="3.13" x2="206.088" y2="4.13"/>
<line fill="none" stroke="#A7A9AC" stroke-width="0.5" stroke-linejoin="round" stroke-dasharray="1.994,1.994" x1="206.088" y1="6.124" x2="206.088" y2="192.572"/>
<line fill="none" stroke="#A7A9AC" stroke-width="0.5" stroke-linejoin="round" x1="206.088" y1="193.569" x2="206.088" y2="194.569"/>
<line fill="none" stroke="#A7A9AC" stroke-width="0.5" stroke-linejoin="round" x1="145.659" y1="3.13" x2="145.659" y2="4.13"/>
<line fill="none" stroke="#A7A9AC" stroke-width="0.5" stroke-linejoin="round" stroke-dasharray="1.994,1.994" x1="145.659" y1="6.124" x2="145.659" y2="192.572"/>
<line fill="none" stroke="#A7A9AC" stroke-width="0.5" stroke-linejoin="round" x1="145.659" y1="193.569" x2="145.659" y2="194.569"/>
<line fill="none" stroke="#A7A9AC" stroke-width="0.5" stroke-linejoin="round" x1="85.227" y1="3.13" x2="85.227" y2="4.13"/>
<line fill="none" stroke="#A7A9AC" stroke-width="0.5" stroke-linejoin="round" stroke-dasharray="1.994,1.994" x1="85.227" y1="6.124" x2="85.227" y2="192.572"/>
<line fill="none" stroke="#A7A9AC" stroke-width="0.5" stroke-linejoin="round" x1="85.227" y1="193.569" x2="85.227" y2="194.569"/>
<rect x="24.796" y="2.842" fill="none" stroke="#000000" stroke-width="0.5" stroke-linejoin="round" stroke-miterlimit="10" width="272" height="192"/>
<path d="M8.973,15.583c-0.423-0.252-1.422-0.648-2.187-0.855l0.09,0.882c0.657,0.099,1.62,0.342,2.151,0.54L8.973,15.583z   M5.318,19.702c-0.549-0.063-1.287-0.414-1.287-1.216c0-0.891,0.783-1.107,1.287-1.098V19.702z M5.885,16.65  c-0.081-0.009-0.207-0.027-0.369-0.027c-0.801,0-2.052,0.378-2.052,1.8c0,1.27,1.035,2.044,2.349,2.044  c1.315,0,2.197-0.801,2.197-2.143c0-0.693-0.144-1.17-0.27-1.449L7.173,17.01c0.126,0.297,0.225,0.639,0.225,1.206  c0,0.792-0.441,1.477-1.513,1.495V16.65z M7.92,23.109v-0.783H5.597c-0.135,0-0.261-0.018-0.369-0.036  c-0.594-0.108-1.017-0.504-1.017-1.062c0-0.108,0.009-0.189,0.027-0.27H3.491c-0.018,0.072-0.027,0.135-0.027,0.225  c0,0.531,0.369,1.008,0.954,1.206v0.036l-0.855,0.027v0.693c0.405-0.027,0.846-0.036,1.359-0.036H7.92z M4.058,26.281  c0-0.936,0.936-1.305,1.674-1.305c0.982,0,1.693,0.567,1.693,1.323c0,0.774-0.72,1.323-1.675,1.323  C4.922,27.622,4.058,27.217,4.058,26.281 M3.464,26.263c0,1.206,0.855,2.161,2.313,2.161c1.378,0,2.242-0.91,2.242-2.089  c0-1.053-0.702-2.17-2.314-2.17C4.373,24.165,3.464,25.012,3.464,26.263 M7.164,29.102c0.099,0.225,0.216,0.522,0.216,0.973  c0,0.864-0.621,1.512-1.63,1.512c-0.909,0-1.647-0.54-1.647-1.539c0-0.433,0.099-0.73,0.207-0.919l-0.612-0.18  c-0.108,0.216-0.225,0.63-0.225,1.099c0,1.422,0.972,2.34,2.313,2.34c1.333,0,2.224-0.855,2.224-2.169  c0-0.586-0.144-1.045-0.252-1.252L7.164,29.102z M7.713,36.008c0.18-0.306,0.297-0.747,0.297-1.224c0-1.036-0.54-1.63-1.305-1.63  c-0.649,0-1.027,0.387-1.315,1.143c-0.216,0.568-0.378,0.829-0.738,0.829c-0.324,0-0.594-0.261-0.594-0.73  c0-0.405,0.144-0.72,0.252-0.891l-0.576-0.198c-0.144,0.243-0.27,0.63-0.27,1.071c0,0.937,0.576,1.504,1.278,1.504  c0.522,0,0.954-0.369,1.233-1.152c0.216-0.586,0.424-0.811,0.802-0.811c0.36,0,0.648,0.27,0.648,0.847  c0,0.396-0.162,0.81-0.315,1.044L7.713,36.008z M7.92,45.121v-0.774H5.291c-0.135,0-0.27-0.018-0.387-0.063  c-0.396-0.126-0.792-0.486-0.792-0.981c0-0.603,0.504-0.909,1.197-0.909H7.92v-0.775H5.228c-0.144,0-0.288-0.027-0.396-0.063  c-0.387-0.135-0.72-0.486-0.72-0.936c0-0.639,0.504-0.945,1.341-0.945H7.92V38.9H5.354c-1.512,0-1.89,0.856-1.89,1.432  c0,0.414,0.108,0.702,0.306,0.963c0.135,0.18,0.324,0.351,0.567,0.486v0.018c-0.513,0.189-0.873,0.64-0.873,1.234  c0,0.72,0.387,1.125,0.801,1.368v0.027l-0.702,0.036v0.693c0.36-0.027,0.729-0.036,1.179-0.036H7.92z M3.563,46.44v0.792h2.673  c0.145,0,0.289,0.027,0.406,0.072c0.351,0.144,0.72,0.513,0.72,1.044c0,0.72-0.558,0.972-1.387,0.972H3.563v0.793H6.11  c1.531,0,1.909-0.82,1.909-1.504c0-0.774-0.459-1.233-0.81-1.44v-0.018l0.711-0.045v-0.702c-0.342,0.027-0.738,0.036-1.188,0.036  H3.563z M7.92,53.093V52.31H5.597c-0.135,0-0.261-0.018-0.369-0.036c-0.594-0.108-1.017-0.504-1.017-1.062  c0-0.108,0.009-0.189,0.027-0.27H3.491c-0.018,0.072-0.027,0.135-0.027,0.225c0,0.531,0.369,1.008,0.954,1.206v0.036l-0.855,0.027  v0.693c0.405-0.027,0.846-0.036,1.359-0.036H7.92z M2.518,55.898h1.045v0.675h0.603v-0.675h2.377c0.513,0,0.9-0.081,1.134-0.306  c0.216-0.189,0.333-0.487,0.333-0.856c0-0.306-0.045-0.549-0.108-0.702L7.308,54.07c0.027,0.099,0.054,0.252,0.054,0.459  c0,0.441-0.306,0.595-0.846,0.595h-2.35v-1.135H3.563v1.135H2.311L2.518,55.898z M7.164,57.37c0.099,0.225,0.216,0.522,0.216,0.972  c0,0.865-0.621,1.513-1.63,1.513c-0.909,0-1.647-0.54-1.647-1.54c0-0.432,0.099-0.729,0.207-0.918l-0.612-0.18  c-0.108,0.216-0.225,0.63-0.225,1.098c0,1.423,0.972,2.341,2.313,2.341c1.333,0,2.224-0.855,2.224-2.169  c0-0.586-0.144-1.045-0.252-1.252L7.164,57.37z M5.318,64.516c-0.549-0.063-1.287-0.414-1.287-1.215  c0-0.892,0.783-1.108,1.287-1.099V64.516z M5.885,61.464c-0.081-0.009-0.207-0.027-0.369-0.027c-0.801,0-2.052,0.378-2.052,1.801  c0,1.269,1.035,2.043,2.349,2.043c1.315,0,2.197-0.801,2.197-2.142c0-0.694-0.144-1.171-0.27-1.45l-0.567,0.135  c0.126,0.297,0.225,0.639,0.225,1.207c0,0.792-0.441,1.476-1.513,1.494V61.464z M5.399,69.429c-0.108,0-0.225-0.027-0.324-0.054  c-0.594-0.153-0.981-0.657-0.981-1.197c0-0.838,0.747-1.297,1.62-1.297c1,0,1.684,0.486,1.684,1.324  c0,0.567-0.378,1.044-0.927,1.188c-0.099,0.018-0.207,0.036-0.325,0.036H5.399z M9.703,70.212v-0.783H7.335v-0.018  c0.432-0.261,0.684-0.765,0.684-1.341c0-1.027-0.774-1.981-2.341-1.981c-1.323,0-2.214,0.792-2.214,1.846  c0,0.711,0.315,1.224,0.846,1.548v0.018l-0.747,0.036v0.711c0.414-0.018,0.864-0.036,1.422-0.036H9.703z M7.623,74.934  C7.839,74.61,8.01,73.97,8.01,73.385c0-1.431-0.81-2.124-1.746-2.124c-0.892,0-1.387,0.522-1.783,1.548  c-0.324,0.837-0.603,1.206-1.17,1.206c-0.414,0-0.91-0.315-0.91-1.143c0-0.549,0.18-0.954,0.288-1.152L2.05,71.504  c-0.153,0.27-0.297,0.72-0.297,1.341c0,1.18,0.702,1.963,1.648,1.963c0.855,0,1.368-0.612,1.719-1.603  c0.315-0.819,0.639-1.143,1.207-1.143c0.612,0,1.035,0.468,1.035,1.269c0,0.54-0.18,1.054-0.396,1.405L7.623,74.934z M7.164,77.629  c0.099,0.225,0.216,0.522,0.216,0.973c0,0.864-0.621,1.512-1.63,1.512c-0.909,0-1.647-0.54-1.647-1.539  c0-0.433,0.099-0.73,0.207-0.919l-0.612-0.18c-0.108,0.216-0.225,0.63-0.225,1.099c0,1.422,0.972,2.34,2.313,2.34  c1.333,0,2.224-0.855,2.224-2.169c0-0.586-0.144-1.045-0.252-1.252L7.164,77.629z M1.843,82.315c0,0.288,0.216,0.495,0.495,0.495  c0.27,0,0.486-0.198,0.486-0.477c0-0.315-0.216-0.513-0.486-0.504C2.059,81.829,1.843,82.018,1.843,82.315 M7.92,81.919H3.563v0.792  H7.92V81.919z M7.92,87.712V86.92H5.3c-0.135,0-0.27-0.018-0.369-0.054c-0.441-0.136-0.81-0.541-0.81-1.063  c0-0.747,0.585-1.008,1.287-1.008H7.92v-0.792H5.318c-1.494,0-1.854,0.936-1.854,1.539c0,0.72,0.405,1.225,0.819,1.441v0.018  l-0.72,0.045v0.702c0.36-0.027,0.729-0.036,1.179-0.036H7.92z M4.058,90.884c0-0.937,0.936-1.306,1.674-1.306  c0.982,0,1.693,0.567,1.693,1.324c0,0.774-0.72,1.323-1.675,1.323C4.922,92.225,4.058,91.82,4.058,90.884 M3.464,90.866  c0,1.206,0.855,2.16,2.313,2.16c1.378,0,2.242-0.909,2.242-2.088c0-1.054-0.702-2.17-2.314-2.17  C4.373,88.768,3.464,89.614,3.464,90.866 M5.318,96.886c-0.549-0.063-1.287-0.414-1.287-1.215c0-0.891,0.783-1.107,1.287-1.098  V96.886z M5.885,93.834c-0.081-0.009-0.207-0.027-0.369-0.027c-0.801,0-2.052,0.378-2.052,1.801c0,1.269,1.035,2.044,2.349,2.044  c1.315,0,2.197-0.802,2.197-2.143c0-0.693-0.144-1.17-0.27-1.45l-0.567,0.135c0.126,0.298,0.225,0.64,0.225,1.207  c0,0.792-0.441,1.476-1.513,1.494V93.834z M7.92,98.728H1.528v0.792H7.92V98.728z M4.058,102.71c0-0.937,0.936-1.306,1.674-1.306  c0.982,0,1.693,0.567,1.693,1.324c0,0.774-0.72,1.323-1.675,1.323C4.922,104.051,4.058,103.646,4.058,102.71 M3.464,102.692  c0,1.206,0.855,2.16,2.313,2.16c1.378,0,2.242-0.909,2.242-2.088c0-1.054-0.702-2.17-2.314-2.17  C4.373,100.594,3.464,101.44,3.464,102.692 M5.399,109c-0.108,0-0.225-0.026-0.324-0.054c-0.594-0.152-0.981-0.657-0.981-1.197  c0-0.838,0.747-1.297,1.62-1.297c1,0,1.684,0.486,1.684,1.324c0,0.567-0.378,1.044-0.927,1.188C6.372,108.982,6.264,109,6.146,109  H5.399z M9.703,109.783V109H7.335v-0.018c0.432-0.261,0.684-0.765,0.684-1.341c0-1.027-0.774-1.981-2.341-1.981  c-1.323,0-2.214,0.792-2.214,1.847c0,0.711,0.315,1.224,0.846,1.548v0.018l-0.747,0.036v0.711c0.414-0.018,0.864-0.036,1.422-0.036  H9.703z M6.453,111.831l0.252,0.045c0.369,0.127,0.729,0.486,0.729,1.054c0,0.404-0.243,0.748-0.756,0.748  c-0.847,0-1-0.982-0.982-1.847H6.453z M7.92,110.994c-0.297,0.055-0.666,0.072-1.044,0.072h-1.63c-0.873,0-1.782,0.324-1.782,1.656  c0,0.549,0.153,1.072,0.387,1.432l0.522-0.18c-0.198-0.306-0.324-0.73-0.324-1.135c0-0.892,0.648-0.99,1.008-0.99h0.09  c-0.009,1.683,0.567,2.62,1.621,2.62c0.63,0,1.251-0.45,1.251-1.333c0-0.621-0.306-1.089-0.648-1.332v-0.027l0.549-0.062V110.994z   M7.92,119.346H5.327c-1.008,0-1.737,0.018-2.503,0.063l-0.009-0.026c0.658-0.308,1.351-0.712,2.026-1.136l3.079-1.926v-0.793H1.852  v0.739h2.539c0.945,0,1.683-0.019,2.494-0.09l0.009,0.018c-0.621,0.288-1.261,0.64-1.972,1.089l-3.07,1.944v0.856H7.92V119.346z   M5.363,125.21h0.54v-3.962h-0.54V125.21z M7.92,129.981v-0.792H5.3c-0.135,0-0.27-0.018-0.369-0.054  c-0.441-0.136-0.81-0.54-0.81-1.063c0-0.747,0.585-1.008,1.287-1.008H7.92v-0.792H5.318c-1.494,0-1.854,0.936-1.854,1.539  c0,0.721,0.405,1.225,0.819,1.441v0.018l-0.72,0.045v0.702c0.36-0.027,0.729-0.036,1.179-0.036H7.92z M6.453,132.029l0.252,0.045  c0.369,0.126,0.729,0.486,0.729,1.054c0,0.404-0.243,0.746-0.756,0.746c-0.847,0-1-0.98-0.982-1.845H6.453z M7.92,131.191  c-0.297,0.054-0.666,0.073-1.044,0.073h-1.63c-0.873,0-1.782,0.324-1.782,1.656c0,0.549,0.153,1.07,0.387,1.431l0.522-0.18  c-0.198-0.307-0.324-0.729-0.324-1.135c0-0.891,0.648-0.989,1.008-0.989h0.09c-0.009,1.683,0.567,2.619,1.621,2.619  c0.63,0,1.251-0.45,1.251-1.333c0-0.62-0.306-1.089-0.648-1.331v-0.027l0.549-0.063V131.191z M1.843,136.043  c0,0.287,0.216,0.494,0.495,0.494c0.27,0,0.486-0.197,0.486-0.477c0-0.315-0.216-0.513-0.486-0.504  C2.059,135.557,1.843,135.746,1.843,136.043 M7.92,135.647H3.563v0.792H7.92V135.647z M5.39,140.838  c-0.126,0-0.234-0.027-0.324-0.045c-0.603-0.162-0.972-0.666-0.972-1.206c0-0.847,0.747-1.297,1.62-1.297  c1,0,1.675,0.495,1.675,1.323c0,0.576-0.378,1.035-0.927,1.188c-0.09,0.018-0.189,0.036-0.289,0.036H5.39z M7.92,140.973  l-0.72-0.036v-0.027c0.576-0.323,0.819-0.828,0.819-1.458c0-0.972-0.774-1.954-2.332-1.954c-1.323-0.009-2.223,0.758-2.223,1.838  c0,0.701,0.315,1.205,0.801,1.484v0.019H1.528v0.783h5.267c0.387,0,0.828,0.019,1.125,0.036V140.973z M6.453,143.681l0.252,0.045  c0.369,0.126,0.729,0.486,0.729,1.053c0,0.405-0.243,0.747-0.756,0.747c-0.847,0-1-0.98-0.982-1.845H6.453z M7.92,142.844  c-0.297,0.054-0.666,0.071-1.044,0.071h-1.63c-0.873,0-1.782,0.324-1.782,1.656c0,0.549,0.153,1.072,0.387,1.433l0.522-0.181  c-0.198-0.307-0.324-0.729-0.324-1.135c0-0.891,0.648-0.99,1.008-0.99h0.09c-0.009,1.684,0.567,2.62,1.621,2.62  c0.63,0,1.251-0.45,1.251-1.333c0-0.621-0.306-1.089-0.648-1.332v-0.026l0.549-0.063V142.844z M7.92,150.037v-0.782H5.174v-2.297  H4.526v2.297H2.509v-2.485H1.852v3.268H7.92z M6.092,154.083c0.126,0,0.235,0.01,0.343,0.036c0.594,0.145,0.945,0.63,0.945,1.161  c0,0.856-0.729,1.288-1.612,1.288c-0.963,0-1.683-0.486-1.683-1.306c0-0.594,0.414-1.026,0.918-1.144  c0.099-0.026,0.234-0.036,0.333-0.036H6.092z M1.528,154.083H4.13v0.019c-0.351,0.198-0.666,0.647-0.666,1.313  c0,1.063,0.891,1.964,2.34,1.954c1.324,0,2.215-0.81,2.215-1.863c0-0.711-0.369-1.242-0.855-1.485v-0.018l0.756-0.036v-0.711  c-0.297,0.026-0.738,0.035-1.125,0.035H1.528V154.083z M5.318,161.228c-0.549-0.063-1.287-0.414-1.287-1.215  c0-0.893,0.783-1.108,1.287-1.1V161.228z M5.885,158.176c-0.081-0.01-0.207-0.027-0.369-0.027c-0.801,0-2.052,0.378-2.052,1.801  c0,1.27,1.035,2.043,2.349,2.043c1.315,0,2.197-0.801,2.197-2.142c0-0.694-0.144-1.171-0.27-1.45l-0.567,0.135  c0.126,0.297,0.225,0.64,0.225,1.206c0,0.793-0.441,1.478-1.513,1.495V158.176z M2.518,164.482h1.045v0.676h0.603v-0.676h2.377  c0.513,0,0.9-0.081,1.134-0.306c0.216-0.189,0.333-0.486,0.333-0.855c0-0.306-0.045-0.549-0.108-0.702l-0.594,0.036  c0.027,0.1,0.054,0.252,0.054,0.459c0,0.441-0.306,0.594-0.846,0.594h-2.35v-1.134H3.563v1.134H2.311L2.518,164.482z M7.164,165.955  c0.099,0.226,0.216,0.522,0.216,0.973c0,0.863-0.621,1.513-1.63,1.513c-0.909,0-1.647-0.541-1.647-1.54  c0-0.432,0.099-0.729,0.207-0.918l-0.612-0.18c-0.108,0.216-0.225,0.63-0.225,1.098c0,1.423,0.972,2.341,2.313,2.341  c1.333,0,2.224-0.854,2.224-2.17c0-0.585-0.144-1.044-0.252-1.251L7.164,165.955z M1.843,170.641c0,0.288,0.216,0.495,0.495,0.495  c0.27,0,0.486-0.198,0.486-0.478c0-0.314-0.216-0.513-0.486-0.504C2.059,170.155,1.843,170.344,1.843,170.641 M7.92,170.245H3.563  v0.792H7.92V170.245z M6.092,173.159c0.126,0,0.235,0.01,0.343,0.036c0.594,0.145,0.945,0.63,0.945,1.162  c0,0.855-0.729,1.287-1.612,1.287c-0.963,0-1.683-0.486-1.683-1.305c0-0.596,0.414-1.027,0.918-1.145  c0.099-0.026,0.234-0.036,0.333-0.036H6.092z M1.528,173.159H4.13v0.019c-0.351,0.197-0.666,0.647-0.666,1.314  c0,1.062,0.891,1.962,2.34,1.953c1.324,0,2.215-0.81,2.215-1.863c0-0.712-0.369-1.242-0.855-1.485v-0.019l0.756-0.036v-0.711  c-0.297,0.027-0.738,0.036-1.125,0.036H1.528V173.159z M5.318,180.304c-0.549-0.063-1.287-0.414-1.287-1.215  c0-0.892,0.783-1.107,1.287-1.099V180.304z M5.885,177.252c-0.081-0.01-0.207-0.027-0.369-0.027c-0.801,0-2.052,0.378-2.052,1.801  c0,1.27,1.035,2.043,2.349,2.043c1.315,0,2.197-0.801,2.197-2.142c0-0.693-0.144-1.171-0.27-1.45l-0.567,0.135  c0.126,0.298,0.225,0.641,0.225,1.207c0,0.792-0.441,1.477-1.513,1.494V177.252z M7.92,183.711v-0.783H5.597  c-0.135,0-0.261-0.019-0.369-0.036c-0.594-0.108-1.017-0.505-1.017-1.063c0-0.107,0.009-0.188,0.027-0.27H3.491  c-0.018,0.072-0.027,0.135-0.027,0.225c0,0.531,0.369,1.01,0.954,1.207v0.036l-0.855,0.027v0.692  c0.405-0.026,0.846-0.035,1.359-0.035H7.92z M2.491,187.642c-0.036-0.135-0.063-0.396-0.063-0.738c0-0.865,0.387-1.432,1.189-1.432  c0.837,0,1.296,0.576,1.296,1.521c0,0.262-0.018,0.478-0.063,0.648H2.491z M7.92,188.425v-0.783H5.489  c0.045-0.18,0.054-0.396,0.054-0.63c0-0.767-0.225-1.441-0.666-1.855c-0.315-0.306-0.747-0.468-1.296-0.468  c-0.54,0-0.982,0.198-1.27,0.531c-0.324,0.359-0.504,0.927-0.504,1.702c0,0.63,0.054,1.125,0.117,1.503H7.92z"/>
<path d="M4.138,9.182c0.099-0.693,0.712-0.99,1.261-0.99c0.774,0,2.124,0.576,2.35,1.891L4.138,9.182z M7.74,10.586  c-0.163,0.684-0.676,0.954-1.207,0.954c-0.666,0-2.196-0.486-2.377-1.863L7.74,10.586z M9.333,10.974l0.09,0.009  c0.153,0,0.234-0.099,0.234-0.216c0-0.108-0.081-0.234-0.261-0.279l-1.35-0.342C7.821,8.218,6.272,7.426,5.417,7.426  c-0.288,0-1.387,0.063-1.558,1.692l-1.53-0.387L2.212,8.713c-0.153,0-0.243,0.099-0.243,0.207c0,0.117,0.099,0.243,0.306,0.297  l1.566,0.388c0.279,2.133,1.837,2.7,2.575,2.7c1.522,0,1.603-1.647,1.603-1.656L9.333,10.974z"/>
<path d="M19.577,5.85c-0.691,0-1.059-0.593-1.074-1.396c0-0.121,0.03-0.218,0.075-0.293c0.181-0.353,0.548-0.601,0.946-0.601  c0.608,0,1.006,0.421,1.006,1.119C20.53,5.376,20.146,5.85,19.577,5.85 M20.718,1.323c-0.12,0-0.285,0.008-0.48,0.038  c-0.616,0.075-1.157,0.322-1.562,0.72c-0.48,0.481-0.826,1.239-0.826,2.2c0,1.269,0.683,2.079,1.727,2.079  c1.013,0,1.621-0.825,1.621-1.719c0-0.953-0.608-1.576-1.471-1.576c-0.54,0-0.946,0.255-1.179,0.563h-0.022  c0.112-0.804,0.661-1.562,1.697-1.734c0.187-0.03,0.36-0.038,0.495-0.03V1.323z"/>
<path d="M20.845,33.338H18.51l-0.315,2.342c0.18-0.022,0.398-0.052,0.676-0.052c0.976,0,1.396,0.45,1.403,1.081  c0,0.653-0.533,1.058-1.156,1.058c-0.443,0-0.841-0.15-1.043-0.27L17.91,38c0.232,0.15,0.683,0.3,1.216,0.3  c1.058,0,1.817-0.713,1.817-1.666c0-0.616-0.316-1.036-0.699-1.254c-0.3-0.18-0.675-0.263-1.051-0.263  c-0.18,0-0.285,0.015-0.397,0.03l0.187-1.253h1.862V33.338z"/>
<path d="M18.375,68.31v-0.015l1.193-1.659c0.136-0.225,0.256-0.435,0.406-0.721h0.022c-0.015,0.256-0.022,0.511-0.022,0.766v1.629  H18.375z M20.598,70.157v-1.329h0.683V68.31h-0.683v-3.033h-0.713l-2.177,3.116v0.435h2.267v1.329H20.598z"/>
<path d="M17.91,101.851c0.24,0.158,0.721,0.33,1.269,0.33c1.171,0,1.779-0.683,1.779-1.464c0-0.683-0.488-1.133-1.089-1.253v-0.015  c0.601-0.218,0.901-0.646,0.901-1.149c0-0.593-0.435-1.164-1.396-1.164c-0.526,0-1.021,0.188-1.276,0.376l0.172,0.48  c0.211-0.15,0.586-0.323,0.976-0.323c0.608,0,0.856,0.346,0.856,0.736c0,0.578-0.608,0.826-1.088,0.826h-0.368v0.495h0.368  c0.638,0,1.253,0.293,1.261,0.976c0.007,0.406-0.255,0.946-1.104,0.946c-0.458,0-0.893-0.187-1.081-0.307L17.91,101.851z"/>
<path d="M21.048,134.037v-0.548h-2.192v-0.015l0.39-0.36c1.029-0.991,1.682-1.72,1.682-2.62c0-0.698-0.443-1.419-1.494-1.419  c-0.563,0-1.044,0.21-1.381,0.495l0.21,0.466c0.225-0.188,0.593-0.413,1.036-0.413c0.728,0,0.968,0.458,0.968,0.953  c-0.007,0.736-0.57,1.366-1.817,2.554l-0.518,0.503v0.404H21.048z"/>
<polygon points="19.366,165.978 20.004,165.978 20.004,161.098 19.441,161.098 18.375,161.669 18.503,162.172 19.352,161.714   19.366,161.714 "/>
<path d="M19.523,193.464c0.684,0,0.991,0.789,0.991,1.99c0,1.246-0.322,2.034-0.998,2.034c-0.601,0-0.991-0.721-0.991-1.989  C18.525,194.17,18.946,193.464,19.523,193.464 M19.562,192.955c-0.991,0-1.697,0.9-1.697,2.537c0.015,1.614,0.661,2.508,1.614,2.508  c1.081,0,1.697-0.916,1.697-2.575C21.176,193.871,20.591,192.955,19.562,192.955"/>
<path d="M211.675,201.853c0.684,0,0.99,0.788,0.99,1.99c0,1.245-0.321,2.033-0.998,2.033c-0.601,0-0.99-0.721-0.99-1.988  C210.677,202.559,211.097,201.853,211.675,201.853 M211.713,201.343c-0.991,0-1.697,0.9-1.697,2.536  c0.015,1.614,0.661,2.509,1.613,2.509c1.081,0,1.697-0.916,1.697-2.575C213.326,202.258,212.74,201.343,211.713,201.343   M207.827,201.853c0.684,0,0.991,0.788,0.991,1.99c0,1.245-0.323,2.033-0.999,2.033c-0.6,0-0.991-0.721-0.991-1.988  C206.828,202.559,207.249,201.853,207.827,201.853 M207.864,201.343c-0.991,0-1.696,0.9-1.696,2.536  c0.016,1.614,0.66,2.509,1.614,2.509c1.081,0,1.697-0.916,1.697-2.575C209.479,202.258,208.894,201.343,207.864,201.343   M203.979,201.853c0.684,0,0.991,0.788,0.991,1.99c0,1.245-0.322,2.033-0.998,2.033c-0.602,0-0.991-0.721-0.991-1.988  C202.981,202.559,203.401,201.853,203.979,201.853 M204.018,201.343c-0.991,0-1.697,0.9-1.697,2.536  c0.015,1.614,0.661,2.509,1.614,2.509c1.081,0,1.697-0.916,1.697-2.575C205.632,202.258,205.045,201.343,204.018,201.343   M201.656,206.305v-0.549h-2.191v-0.015l0.39-0.36c1.029-0.99,1.682-1.72,1.682-2.619c0-0.699-0.442-1.419-1.494-1.419  c-0.562,0-1.044,0.21-1.382,0.494l0.211,0.467c0.226-0.188,0.594-0.413,1.036-0.413c0.729,0,0.968,0.458,0.968,0.953  c-0.007,0.735-0.569,1.365-1.816,2.553l-0.519,0.503v0.405H201.656z M90.938,201.853c0.683,0,0.991,0.788,0.991,1.99  c0,1.245-0.323,2.033-0.998,2.033c-0.601,0-0.991-0.721-0.991-1.988C89.939,202.559,90.359,201.853,90.938,201.853 M90.976,201.343  c-0.991,0-1.697,0.9-1.697,2.536c0.015,1.614,0.661,2.509,1.614,2.509c1.081,0,1.697-0.916,1.697-2.575  C92.589,202.258,92.003,201.343,90.976,201.343 M87.143,205.876c-0.69,0-1.058-0.593-1.073-1.396c0-0.12,0.03-0.218,0.075-0.293  c0.18-0.354,0.548-0.602,0.946-0.602c0.608,0,1.006,0.421,1.006,1.119S87.713,205.876,87.143,205.876 M88.283,201.35  c-0.12,0-0.285,0.008-0.48,0.038c-0.616,0.074-1.156,0.322-1.562,0.72c-0.48,0.48-0.825,1.239-0.825,2.2  c0,1.269,0.683,2.08,1.726,2.08c1.014,0,1.622-0.826,1.622-1.721c0-0.953-0.608-1.576-1.472-1.576c-0.54,0-0.946,0.256-1.178,0.563  h-0.023c0.113-0.803,0.661-1.562,1.697-1.734c0.188-0.029,0.36-0.038,0.495-0.029V201.35z M83.235,201.846  c0.69,0,0.998,0.638,0.998,1.471c0,0.104-0.022,0.18-0.06,0.24c-0.173,0.293-0.518,0.511-0.961,0.511  c-0.57,0-0.938-0.428-0.938-1.036C82.274,202.34,82.672,201.846,83.235,201.846 M82.033,206.379c0.158,0.009,0.368,0,0.609-0.036  c0.525-0.062,1.043-0.286,1.418-0.654c0.481-0.465,0.841-1.216,0.841-2.289c0-1.247-0.615-2.057-1.614-2.057  c-0.998,0-1.666,0.81-1.666,1.733c0,0.833,0.563,1.494,1.441,1.494c0.488,0,0.878-0.195,1.149-0.526h0.022  c-0.09,0.578-0.323,1.006-0.646,1.3c-0.277,0.263-0.638,0.42-1.021,0.473c-0.225,0.022-0.39,0.038-0.533,0.022V206.379z   M79.237,206.305h0.638v-4.881h-0.563l-1.066,0.571l0.128,0.503l0.848-0.458h0.015V206.305z"/>
<path d="M151.306,201.853c0.684,0,0.991,0.788,0.991,1.99c0,1.245-0.322,2.033-0.998,2.033c-0.601,0-0.991-0.721-0.991-1.988  C150.308,202.559,150.728,201.853,151.306,201.853 M151.344,201.343c-0.991,0-1.697,0.9-1.697,2.536  c0.015,1.614,0.661,2.509,1.614,2.509c1.081,0,1.697-0.916,1.697-2.575C152.958,202.258,152.372,201.343,151.344,201.343   M147.466,201.816c0.594,0,0.826,0.405,0.826,0.795c0,0.443-0.323,0.744-0.743,0.886c-0.563-0.149-0.931-0.413-0.931-0.9  C146.618,202.175,146.918,201.816,147.466,201.816 M147.459,205.907c-0.623,0-0.999-0.435-0.976-0.931  c0-0.465,0.308-0.841,0.878-1.006c0.661,0.188,1.074,0.473,1.074,1.065C148.435,205.539,148.052,205.907,147.459,205.907   M147.444,206.388c0.931,0,1.659-0.571,1.659-1.419c0-0.594-0.375-1.021-0.983-1.263v-0.021c0.6-0.285,0.803-0.729,0.803-1.142  c0-0.607-0.473-1.2-1.419-1.2c-0.856,0-1.509,0.524-1.509,1.298c0,0.421,0.233,0.841,0.773,1.096l0.008,0.023  c-0.601,0.255-0.969,0.69-0.969,1.306C145.807,205.779,146.423,206.388,147.444,206.388 M143.604,201.846  c0.691,0,0.998,0.638,0.998,1.471c0,0.104-0.022,0.18-0.06,0.24c-0.172,0.293-0.518,0.511-0.961,0.511  c-0.57,0-0.938-0.428-0.938-1.036C142.643,202.34,143.041,201.846,143.604,201.846 M142.403,206.379  c0.157,0.009,0.368,0,0.608-0.036c0.525-0.062,1.043-0.286,1.419-0.654c0.48-0.465,0.841-1.216,0.841-2.289  c0-1.247-0.616-2.057-1.615-2.057c-0.998,0-1.666,0.81-1.666,1.733c0,0.833,0.563,1.494,1.441,1.494  c0.488,0,0.879-0.195,1.149-0.526h0.022c-0.09,0.578-0.322,1.006-0.645,1.3c-0.278,0.263-0.638,0.42-1.021,0.473  c-0.225,0.022-0.391,0.038-0.533,0.022V206.379z M139.606,206.305h0.638v-4.881h-0.563l-1.066,0.571l0.128,0.503l0.848-0.458h0.015  V206.305z M30.569,201.853c0.683,0,0.991,0.788,0.991,1.99c0,1.245-0.323,2.033-0.998,2.033c-0.601,0-0.991-0.721-0.991-1.988  C29.571,202.559,29.991,201.853,30.569,201.853 M30.607,201.343c-0.991,0-1.697,0.9-1.697,2.536  c0.015,1.614,0.661,2.509,1.614,2.509c1.081,0,1.697-0.916,1.697-2.575C32.221,202.258,31.635,201.343,30.607,201.343   M25.573,204.458v-0.015l1.194-1.659c0.135-0.225,0.255-0.435,0.405-0.721h0.023c-0.015,0.256-0.023,0.511-0.023,0.766v1.629H25.573  z M27.795,206.305v-1.329h0.683v-0.519h-0.683v-3.033h-0.713l-2.177,3.116v0.436h2.267v1.329H27.795z M22.867,201.846  c0.69,0,0.998,0.638,0.998,1.471c0,0.104-0.022,0.18-0.06,0.24c-0.173,0.293-0.518,0.511-0.961,0.511  c-0.57,0-0.938-0.428-0.938-1.036C21.906,202.34,22.304,201.846,22.867,201.846 M21.665,206.379c0.158,0.009,0.368,0,0.609-0.036  c0.525-0.062,1.043-0.286,1.418-0.654c0.481-0.465,0.841-1.216,0.841-2.289c0-1.247-0.615-2.057-1.614-2.057  c-0.998,0-1.666,0.81-1.666,1.733c0,0.833,0.563,1.494,1.441,1.494c0.488,0,0.878-0.195,1.149-0.526h0.022  c-0.09,0.578-0.323,1.006-0.646,1.3c-0.277,0.263-0.638,0.42-1.021,0.473c-0.225,0.022-0.39,0.038-0.533,0.022V206.379z   M18.869,206.305h0.638v-4.881h-0.563l-1.066,0.571l0.128,0.503l0.848-0.458h0.015V206.305z"/>
<path d="M181.49,201.853c0.684,0,0.99,0.788,0.99,1.99c0,1.245-0.321,2.033-0.998,2.033c-0.601,0-0.99-0.721-0.99-1.988  C180.492,202.559,180.912,201.853,181.49,201.853 M181.528,201.343c-0.991,0-1.697,0.9-1.697,2.536  c0.015,1.614,0.661,2.509,1.614,2.509c1.081,0,1.696-0.916,1.696-2.575C183.142,202.258,182.556,201.343,181.528,201.343   M177.635,201.846c0.691,0,0.999,0.638,0.999,1.471c0,0.104-0.022,0.18-0.06,0.24c-0.173,0.293-0.519,0.511-0.961,0.511  c-0.571,0-0.939-0.428-0.939-1.036C176.674,202.34,177.072,201.846,177.635,201.846 M176.434,206.379  c0.158,0.009,0.368,0,0.608-0.036c0.526-0.062,1.044-0.286,1.419-0.654c0.48-0.465,0.841-1.216,0.841-2.289  c0-1.247-0.616-2.057-1.614-2.057c-0.999,0-1.667,0.81-1.667,1.733c0,0.833,0.563,1.494,1.442,1.494  c0.488,0,0.878-0.195,1.148-0.526h0.022c-0.09,0.578-0.323,1.006-0.646,1.3c-0.278,0.263-0.639,0.42-1.021,0.473  c-0.225,0.022-0.39,0.038-0.533,0.022V206.379z M173.788,201.846c0.69,0,0.998,0.638,0.998,1.471c0,0.104-0.022,0.18-0.061,0.24  c-0.172,0.293-0.518,0.511-0.961,0.511c-0.569,0-0.938-0.428-0.938-1.036C172.827,202.34,173.225,201.846,173.788,201.846   M172.587,206.379c0.157,0.009,0.368,0,0.608-0.036c0.524-0.062,1.043-0.286,1.419-0.654c0.479-0.465,0.841-1.216,0.841-2.289  c0-1.247-0.616-2.057-1.615-2.057c-0.998,0-1.666,0.81-1.666,1.733c0,0.833,0.563,1.494,1.441,1.494  c0.487,0,0.879-0.195,1.148-0.526h0.022c-0.09,0.578-0.322,1.006-0.646,1.3c-0.277,0.263-0.638,0.42-1.021,0.473  c-0.226,0.022-0.392,0.038-0.533,0.022V206.379z M169.79,206.305h0.638v-4.881h-0.562l-1.066,0.571l0.128,0.503l0.848-0.458h0.016  V206.305z M60.753,201.853c0.683,0,0.991,0.788,0.991,1.99c0,1.245-0.323,2.033-0.998,2.033c-0.601,0-0.991-0.721-0.991-1.988  C59.755,202.559,60.175,201.853,60.753,201.853 M60.791,201.343c-0.991,0-1.697,0.9-1.697,2.536  c0.015,1.614,0.661,2.509,1.614,2.509c1.081,0,1.697-0.916,1.697-2.575C62.405,202.258,61.819,201.343,60.791,201.343   M58.227,201.424h-2.335l-0.315,2.344c0.18-0.023,0.398-0.054,0.676-0.054c0.975,0,1.396,0.45,1.403,1.081  c0,0.653-0.533,1.06-1.156,1.06c-0.443,0-0.841-0.151-1.043-0.271l-0.165,0.503c0.232,0.15,0.683,0.302,1.216,0.302  c1.058,0,1.817-0.715,1.817-1.667c0-0.616-0.316-1.036-0.699-1.255c-0.3-0.18-0.675-0.263-1.051-0.263  c-0.18,0-0.285,0.016-0.398,0.031l0.188-1.254h1.862V201.424z M53.051,201.846c0.69,0,0.998,0.638,0.998,1.471  c0,0.104-0.022,0.18-0.06,0.24c-0.173,0.293-0.518,0.511-0.961,0.511c-0.57,0-0.938-0.428-0.938-1.036  C52.09,202.34,52.488,201.846,53.051,201.846 M51.849,206.379c0.158,0.009,0.368,0,0.609-0.036c0.525-0.062,1.043-0.286,1.418-0.654  c0.481-0.465,0.841-1.216,0.841-2.289c0-1.247-0.615-2.057-1.614-2.057c-0.998,0-1.666,0.81-1.666,1.733  c0,0.833,0.563,1.494,1.441,1.494c0.488,0,0.878-0.195,1.149-0.526h0.022c-0.09,0.578-0.323,1.006-0.646,1.3  c-0.277,0.263-0.638,0.42-1.021,0.473c-0.225,0.022-0.39,0.038-0.533,0.022V206.379z M49.053,206.305h0.638v-4.881h-0.563  l-1.066,0.571l0.128,0.503l0.848-0.458h0.015V206.305z"/>
<path d="M302.228,201.853c0.684,0,0.99,0.788,0.99,1.99c0,1.245-0.321,2.033-0.998,2.033c-0.601,0-0.99-0.721-0.99-1.988  C301.229,202.559,301.649,201.853,302.228,201.853 M302.266,201.343c-0.991,0-1.697,0.9-1.697,2.536  c0.015,1.614,0.661,2.509,1.614,2.509c1.081,0,1.696-0.916,1.696-2.575C303.879,202.258,303.293,201.343,302.266,201.343   M296.767,206.057c0.239,0.157,0.721,0.331,1.269,0.331c1.171,0,1.779-0.685,1.779-1.465c0-0.684-0.488-1.134-1.089-1.254v-0.015  c0.601-0.218,0.9-0.646,0.9-1.149c0-0.593-0.435-1.162-1.396-1.162c-0.526,0-1.021,0.187-1.276,0.375l0.172,0.479  c0.21-0.15,0.586-0.322,0.977-0.322c0.607,0,0.855,0.346,0.855,0.735c0,0.578-0.607,0.826-1.089,0.826h-0.367v0.496h0.367  c0.639,0,1.254,0.292,1.262,0.976c0.008,0.405-0.256,0.946-1.104,0.946c-0.458,0-0.894-0.188-1.081-0.309L296.767,206.057z   M294.532,201.853c0.684,0,0.991,0.788,0.991,1.99c0,1.245-0.322,2.033-0.998,2.033c-0.602,0-0.991-0.721-0.991-1.988  C293.534,202.559,293.954,201.853,294.532,201.853 M294.57,201.343c-0.991,0-1.697,0.9-1.697,2.536  c0.016,1.614,0.661,2.509,1.614,2.509c1.081,0,1.697-0.916,1.697-2.575C296.185,202.258,295.599,201.343,294.57,201.343   M292.209,206.305v-0.549h-2.191v-0.015l0.39-0.36c1.029-0.99,1.682-1.72,1.682-2.619c0-0.699-0.442-1.419-1.494-1.419  c-0.562,0-1.044,0.21-1.381,0.494l0.21,0.467c0.226-0.188,0.594-0.413,1.036-0.413c0.729,0,0.968,0.458,0.968,0.953  c-0.007,0.735-0.569,1.365-1.816,2.553l-0.519,0.503v0.405H292.209z M241.858,201.853c0.684,0,0.991,0.788,0.991,1.99  c0,1.245-0.322,2.033-0.998,2.033c-0.602,0-0.991-0.721-0.991-1.988C240.86,202.559,241.28,201.853,241.858,201.853   M241.896,201.343c-0.991,0-1.697,0.9-1.697,2.536c0.015,1.614,0.661,2.509,1.614,2.509c1.081,0,1.696-0.916,1.696-2.575  C243.51,202.258,242.924,201.343,241.896,201.343 M237.854,206.305h0.638v-4.881h-0.563l-1.065,0.571l0.128,0.503l0.848-0.458h0.016  V206.305z M234.163,201.853c0.685,0,0.991,0.788,0.991,1.99c0,1.245-0.322,2.033-0.998,2.033c-0.601,0-0.991-0.721-0.991-1.988  C233.165,202.559,233.585,201.853,234.163,201.853 M234.201,201.343c-0.991,0-1.697,0.9-1.697,2.536  c0.016,1.614,0.661,2.509,1.614,2.509c1.081,0,1.697-0.916,1.697-2.575C235.815,202.258,235.229,201.343,234.201,201.343   M231.84,206.305v-0.549h-2.191v-0.015l0.39-0.36c1.029-0.99,1.682-1.72,1.682-2.619c0-0.699-0.442-1.419-1.493-1.419  c-0.563,0-1.044,0.21-1.383,0.494l0.212,0.467c0.225-0.188,0.593-0.413,1.035-0.413c0.729,0,0.969,0.458,0.969,0.953  c-0.008,0.735-0.57,1.365-1.817,2.553l-0.518,0.503v0.405H231.84z M121.121,201.853c0.683,0,0.991,0.788,0.991,1.99  c0,1.245-0.323,2.033-0.998,2.033c-0.601,0-0.991-0.721-0.991-1.988C120.123,202.559,120.543,201.853,121.121,201.853   M121.159,201.343c-0.991,0-1.697,0.9-1.697,2.536c0.015,1.614,0.661,2.509,1.614,2.509c1.081,0,1.697-0.916,1.697-2.575  C122.773,202.258,122.187,201.343,121.159,201.343 M115.772,201.424v0.549h2.388v0.015l-2.118,4.317h0.684l2.124-4.444v-0.437  H115.772z M113.419,201.846c0.69,0,0.998,0.638,0.998,1.471c0,0.104-0.022,0.18-0.06,0.24c-0.173,0.293-0.518,0.511-0.961,0.511  c-0.57,0-0.938-0.428-0.938-1.036C112.458,202.34,112.856,201.846,113.419,201.846 M112.217,206.379  c0.158,0.009,0.368,0,0.609-0.036c0.525-0.062,1.043-0.286,1.418-0.654c0.481-0.465,0.841-1.216,0.841-2.289  c0-1.247-0.615-2.057-1.614-2.057c-0.998,0-1.666,0.81-1.666,1.733c0,0.833,0.563,1.494,1.441,1.494  c0.488,0,0.878-0.195,1.149-0.526h0.022c-0.09,0.578-0.323,1.006-0.646,1.3c-0.277,0.263-0.638,0.42-1.021,0.473  c-0.225,0.022-0.39,0.038-0.533,0.022V206.379z M109.421,206.305h0.638v-4.881h-0.563l-1.066,0.571l0.128,0.503l0.848-0.458h0.015  V206.305z"/>
<path d="M272.042,201.853c0.683,0,0.99,0.788,0.99,1.99c0,1.245-0.322,2.033-0.998,2.033c-0.602,0-0.991-0.721-0.991-1.988  C271.043,202.559,271.463,201.853,272.042,201.853 M272.079,201.343c-0.991,0-1.697,0.9-1.697,2.536  c0.016,1.614,0.661,2.509,1.614,2.509c1.082,0,1.697-0.916,1.697-2.575C273.693,202.258,273.108,201.343,272.079,201.343   M269.718,206.305v-0.549h-2.191v-0.015l0.39-0.36c1.029-0.99,1.682-1.72,1.682-2.619c0-0.699-0.442-1.419-1.493-1.419  c-0.563,0-1.044,0.21-1.382,0.494l0.21,0.467c0.226-0.188,0.594-0.413,1.036-0.413c0.729,0,0.969,0.458,0.969,0.953  c-0.008,0.735-0.57,1.365-1.817,2.553l-0.518,0.503v0.405H269.718z M264.347,201.853c0.684,0,0.99,0.788,0.99,1.99  c0,1.245-0.322,2.033-0.998,2.033c-0.601,0-0.991-0.721-0.991-1.988C263.348,202.559,263.769,201.853,264.347,201.853   M264.384,201.343c-0.99,0-1.696,0.9-1.696,2.536c0.015,1.614,0.66,2.509,1.613,2.509c1.082,0,1.697-0.916,1.697-2.575  C265.998,202.258,265.413,201.343,264.384,201.343 M262.023,206.305v-0.549h-2.192v-0.015l0.39-0.36  c1.029-0.99,1.683-1.72,1.683-2.619c0-0.699-0.443-1.419-1.494-1.419c-0.563,0-1.044,0.21-1.381,0.494l0.21,0.467  c0.225-0.188,0.593-0.413,1.036-0.413c0.728,0,0.968,0.458,0.968,0.953c-0.007,0.735-0.57,1.365-1.817,2.553l-0.518,0.503v0.405  H262.023z"/>
<line fill="none" stroke="#000000" stroke-width="1.25" stroke-linecap="round" stroke-linejoin="round" x1="296.502" y1="68.104" x2="296.502" y2="68.104"/>
<path fill="none" stroke="#000000" stroke-width="1.25" stroke-linecap="round" stroke-linejoin="round" stroke-dasharray="6.068,3.034" d="  M293.472,68.27c-2.581,0.153-5.102,0.332-7.566,0.535"/>
<path fill="none" stroke="#000000" stroke-width="1.25" stroke-linecap="round" stroke-linejoin="round" stroke-dasharray="0,3.034,6.068,3.034" d="  M284.394,68.934C161.15,79.746,180.667,154.14,44.941,154.14H26.503"/>
<line fill="none" stroke="#000000" stroke-width="1.25" stroke-linecap="round" stroke-linejoin="round" x1="24.986" y1="154.14" x2="24.986" y2="154.14"/>
<line fill="none" stroke="#000000" stroke-width="1.25" stroke-linejoin="round" x1="25.566" y1="154.467" x2="28.566" y2="154.467"/>
<path fill="none" stroke="#000000" stroke-width="1.25" stroke-linejoin="round" stroke-dasharray="5.988,1.996" d="M30.562,154.467  h18.536c119.71,0,131.713-53.379,243.792-54.621"/>
<path fill="none" stroke="#000000" stroke-width="1.25" stroke-linejoin="round" d="M293.89,99.836c0.992-0.008,1.992-0.012,3-0.012  "/>
<path fill="none" stroke="#000000" stroke-width="1.25" stroke-linejoin="round" d="M296.89,131.24  c-0.502,0-1.003,0.001-1.502,0.002"/>
<path fill="none" stroke="#000000" stroke-width="1.25" stroke-linejoin="round" stroke-dasharray="2.974,1.983" d="M293.404,131.25  c-101.329,0.503-126.098,22.893-240.411,23.214"/>
<path fill="none" stroke="#000000" stroke-width="1.25" stroke-linejoin="round" d="M52.004,154.465  c-0.499,0.001-1,0.002-1.502,0.002"/>
<line fill="none" stroke="#000000" stroke-width="1.5" stroke-linecap="round" stroke-linejoin="round" x1="296.671" y1="162.318" x2="296.671" y2="162.318"/>
<path fill="none" stroke="#000000" stroke-width="1.5" stroke-linecap="round" stroke-linejoin="round" stroke-dasharray="0,3.014" d="  M293.658,162.315c-86.252-0.184-168.812-8.175-245.773-8.175H27.074"/>
<line fill="none" stroke="#000000" stroke-width="1.5" stroke-linecap="round" stroke-linejoin="round" x1="25.566" y1="154.14" x2="25.566" y2="154.14"/>
<rect x="44.35" y="14.178" fill="#FFFFFF" width="51.817" height="41.568"/>
<rect x="44.35" y="14.178" fill="none" stroke="#000000" stroke-width="0.5" stroke-linejoin="round" stroke-miterlimit="10" width="51.817" height="41.568"/>
<path d="M79.739,18.435c0.24,0,0.413-0.172,0.42-0.42c0-0.225-0.142-0.39-0.367-0.39c-0.226,0-0.413,0.18-0.413,0.42  C79.379,18.27,79.521,18.435,79.739,18.435 M79.191,22.691l0.698-3.634h-0.623l-0.698,3.634H79.191z"/>
<path d="M88.04,22.444c0.24,0.157,0.721,0.33,1.269,0.33c1.171,0,1.779-0.683,1.779-1.464c0-0.683-0.488-1.134-1.088-1.254v-0.015  c0.6-0.217,0.901-0.645,0.901-1.148c0-0.593-0.436-1.164-1.397-1.164c-0.525,0-1.021,0.188-1.276,0.375l0.173,0.481  c0.21-0.15,0.585-0.323,0.976-0.323c0.608,0,0.855,0.345,0.855,0.736c0,0.578-0.608,0.826-1.088,0.826h-0.368v0.495h0.368  c0.638,0,1.254,0.293,1.261,0.976c0.008,0.405-0.255,0.946-1.104,0.946c-0.457,0-0.893-0.188-1.081-0.308L88.04,22.444z   M85.839,21.182h-3.874v0.45h3.874V21.182z M85.839,19.711h-3.874v0.45h3.874V19.711z"/>
<path d="M79.739,28.435c0.24,0,0.413-0.172,0.42-0.42c0-0.225-0.142-0.39-0.367-0.39c-0.226,0-0.413,0.18-0.413,0.42  C79.379,28.27,79.521,28.435,79.739,28.435 M79.191,32.691l0.698-3.634h-0.623l-0.698,3.634H79.191z"/>
<path d="M91.178,32.691v-0.548h-2.192v-0.015l0.391-0.36c1.028-0.991,1.681-1.719,1.681-2.62c0-0.698-0.443-1.419-1.494-1.419  c-0.563,0-1.043,0.21-1.381,0.495l0.21,0.466c0.225-0.188,0.593-0.413,1.036-0.413c0.728,0,0.969,0.458,0.969,0.953  c-0.008,0.736-0.571,1.367-1.817,2.553l-0.518,0.503v0.405H91.178z M85.839,31.182h-3.874v0.45h3.874V31.182z M85.839,29.711h-3.874  v0.45h3.874V29.711z"/>
<path d="M79.739,38.434c0.24,0,0.413-0.172,0.42-0.42c0-0.225-0.142-0.39-0.367-0.39c-0.226,0-0.413,0.18-0.413,0.42  C79.379,38.269,79.521,38.434,79.739,38.434 M79.191,42.691l0.698-3.634h-0.623l-0.698,3.634H79.191z"/>
<path d="M89.497,42.691h0.638v-4.88h-0.563l-1.066,0.571l0.127,0.503l0.849-0.458h0.015V42.691z M85.839,41.182h-3.874v0.45h3.874  V41.182z M85.839,39.711h-3.874v0.45h3.874V39.711z"/>
<path d="M79.739,48.434c0.24,0,0.413-0.172,0.42-0.42c0-0.225-0.142-0.39-0.367-0.39c-0.226,0-0.413,0.18-0.413,0.42  C79.379,48.269,79.521,48.434,79.739,48.434 M79.191,52.691l0.698-3.634h-0.623l-0.698,3.634H79.191z"/>
<path d="M89.654,48.239c0.683,0,0.991,0.788,0.991,1.989c0,1.246-0.323,2.035-0.998,2.035c-0.601,0-0.991-0.721-0.991-1.99  C88.656,48.945,89.076,48.239,89.654,48.239 M89.692,47.728c-0.991,0-1.697,0.901-1.697,2.538c0.015,1.614,0.661,2.507,1.614,2.507  c1.081,0,1.697-0.916,1.697-2.575C91.306,48.644,90.72,47.728,89.692,47.728 M85.839,51.182h-3.874v0.45h3.874V51.182z   M85.839,49.71h-3.874v0.45h3.874V49.71z"/>
<line fill="none" stroke="#000000" stroke-width="1.25" stroke-linecap="round" stroke-linejoin="round" x1="49.189" y1="20.747" x2="49.189" y2="20.747"/>
<line fill="none" stroke="#000000" stroke-width="1.25" stroke-linecap="round" stroke-linejoin="round" stroke-dasharray="6,3" x1="52.189" y1="20.747" x2="59.689" y2="20.747"/>
<line fill="none" stroke="#000000" stroke-width="1.25" stroke-linecap="round" stroke-linejoin="round" stroke-dasharray="0,3,6,3" x1="61.189" y1="20.747" x2="71.689" y2="20.747"/>
<line fill="none" stroke="#000000" stroke-width="1.25" stroke-linecap="round" stroke-linejoin="round" x1="73.189" y1="20.747" x2="73.189" y2="20.747"/>
<line fill="none" stroke="#000000" stroke-width="1.25" stroke-linejoin="round" x1="49.189" y1="30.747" x2="52.189" y2="30.747"/>
<line fill="none" stroke="#000000" stroke-width="1.25" stroke-linejoin="round" stroke-dasharray="6,2" x1="54.189" y1="30.747" x2="69.19" y2="30.747"/>
<line fill="none" stroke="#000000" stroke-width="1.25" stroke-linejoin="round" x1="70.189" y1="30.747" x2="73.189" y2="30.747"/>
<line fill="none" stroke="#000000" stroke-width="1.25" stroke-linejoin="round" x1="49.189" y1="40.747" x2="50.689" y2="40.747"/>
<line fill="none" stroke="#000000" stroke-width="1.25" stroke-linejoin="round" stroke-dasharray="2.864,1.909" x1="52.599" y1="40.747" x2="70.735" y2="40.747"/>
<line fill="none" stroke="#000000" stroke-width="1.25" stroke-linejoin="round" x1="71.689" y1="40.747" x2="73.189" y2="40.747"/>
<line fill="none" stroke="#000000" stroke-width="1.5" stroke-linecap="round" stroke-linejoin="round" x1="49.189" y1="50.747" x2="49.189" y2="50.747"/>
<line fill="none" stroke="#000000" stroke-width="1.5" stroke-linecap="round" stroke-linejoin="round" stroke-dasharray="0,3" x1="52.189" y1="50.747" x2="71.689" y2="50.747"/>
<line fill="none" stroke="#000000" stroke-width="1.5" stroke-linecap="round" stroke-linejoin="round" x1="73.189" y1="50.747" x2="73.189" y2="50.747"/>
</svg>