<svg xmlns="http://www.w3.org/2000/svg" xmlns:xlink="http://www.w3.org/1999/xlink" version="1.1" x="0px" y="0px" width="357.065px" height="127.116px" viewBox="0 0 357.065 127.116" enable-background="new 0 0 357.065 127.116" xml:space="preserve">
<g id="wide">
</g>
<g id="text_column" display="none">
</g>
<g id="art">
	<linearGradient id="SVGID_1_" gradientUnits="userSpaceOnUse" x1="10.4482" y1="91.5508" x2="338.167" y2="91.5508">
		<stop offset="0" style="stop-color:#E0E0E0"/>
		<stop offset="1" style="stop-color:#333333"/>
	</linearGradient>
	<rect x="10.448" y="74.777" fill="url(#SVGID_1_)" width="327.719" height="33.548"/>
	<g>
		<path d="M12.21,112.984c0,1.767-0.656,2.742-1.807,2.742c-1.015,0-1.703-0.951-1.719-2.67c0-1.743,0.752-2.703,1.807-2.703    C11.586,110.353,12.21,111.329,12.21,112.984z M9.388,113.063c0,1.352,0.416,2.119,1.055,2.119c0.72,0,1.063-0.84,1.063-2.167    c0-1.279-0.328-2.119-1.056-2.119C9.835,110.897,9.388,111.648,9.388,113.063z"/>
	</g>
	<g>
		<path d="M64.903,111.097h-0.016l-0.904,0.488l-0.136-0.536l1.135-0.608h0.6v5.197h-0.68V111.097z"/>
	</g>
	<g>
		<path d="M20.886,35.268v3.19c0,1.207,0.536,1.719,1.255,1.719c0.8,0,1.312-0.527,1.312-1.719v-3.19h0.703v3.143    c0,1.655-0.871,2.334-2.039,2.334c-1.104,0-1.935-0.631-1.935-2.303v-3.174H20.886z"/>
		<path d="M26.55,40.657l-1.759-5.389h0.751l0.839,2.655c0.232,0.728,0.432,1.383,0.576,2.015h0.016    c0.152-0.624,0.376-1.303,0.616-2.007l0.912-2.663h0.743l-1.927,5.389H26.55z"/>
		<path d="M29.83,35.268h2.903v0.584h-2.207v1.791h2.039v0.576h-2.039v2.438H29.83V35.268z"/>
		<path d="M32.471,41.641c0.176-0.472,0.392-1.327,0.479-1.911l0.784-0.08c-0.184,0.68-0.536,1.567-0.759,1.943L32.471,41.641z"/>
		<path d="M20.471,45.116h-0.016l-0.904,0.488l-0.136-0.536l1.135-0.608h0.6v5.197h-0.679V45.116z"/>
		<path d="M23.455,49.162c0.152,0.016,0.328,0,0.568-0.024c0.408-0.056,0.792-0.224,1.087-0.504    c0.344-0.312,0.591-0.768,0.688-1.383h-0.024c-0.288,0.352-0.704,0.56-1.224,0.56c-0.935,0-1.535-0.704-1.535-1.591    c0-0.983,0.712-1.847,1.775-1.847c1.063,0,1.719,0.864,1.719,2.191c0,1.144-0.384,1.943-0.896,2.438    c-0.4,0.392-0.951,0.632-1.511,0.696c-0.256,0.04-0.479,0.048-0.647,0.04V49.162z M23.711,46.171c0,0.647,0.392,1.103,1,1.103    c0.472,0,0.839-0.232,1.023-0.543c0.04-0.064,0.064-0.144,0.064-0.256c0-0.888-0.328-1.567-1.063-1.567    C24.135,44.908,23.711,45.436,23.711,46.171z"/>
		<path d="M30.525,44.46v0.464l-2.263,4.733h-0.728l2.255-4.598v-0.016h-2.543V44.46H30.525z"/>
		<path d="M34.357,45.052h-1.983l-0.2,1.335c0.12-0.016,0.232-0.032,0.424-0.032c0.4,0,0.799,0.088,1.119,0.28    c0.408,0.232,0.744,0.68,0.744,1.335c0,1.016-0.808,1.775-1.935,1.775c-0.567,0-1.047-0.16-1.295-0.32l0.176-0.536    c0.216,0.128,0.64,0.288,1.111,0.288c0.664,0,1.231-0.432,1.231-1.127c-0.008-0.672-0.456-1.151-1.495-1.151    c-0.296,0-0.528,0.032-0.72,0.056l0.336-2.495h2.486V45.052z"/>
	</g>
	<g>
		<path d="M117.997,115.638v-0.432l0.552-0.536c1.327-1.264,1.927-1.935,1.935-2.719c0-0.528-0.256-1.015-1.032-1.015    c-0.472,0-0.863,0.24-1.104,0.439l-0.224-0.496c0.36-0.304,0.872-0.528,1.471-0.528c1.119,0,1.591,0.768,1.591,1.511    c0,0.959-0.695,1.735-1.791,2.791l-0.416,0.384v0.016h2.334v0.583H117.997z"/>
	</g>
	<g>
		<path d="M172.786,114.831c0.2,0.128,0.664,0.328,1.151,0.328c0.904,0,1.184-0.576,1.176-1.008    c-0.008-0.728-0.664-1.039-1.344-1.039h-0.392v-0.528h0.392c0.512,0,1.16-0.264,1.16-0.879c0-0.416-0.265-0.784-0.912-0.784    c-0.416,0-0.815,0.184-1.039,0.344l-0.184-0.512c0.272-0.2,0.799-0.4,1.359-0.4c1.023,0,1.487,0.608,1.487,1.239    c0,0.536-0.319,0.992-0.959,1.224v0.016c0.64,0.128,1.159,0.608,1.159,1.335c0,0.832-0.647,1.559-1.895,1.559    c-0.584,0-1.096-0.184-1.352-0.352L172.786,114.831z"/>
	</g>
	<g>
		<path d="M229.411,115.638v-1.415h-2.414v-0.464l2.318-3.318h0.76v3.23h0.728v0.552h-0.728v1.415H229.411z M229.411,113.671v-1.735    c0-0.271,0.009-0.543,0.024-0.815h-0.024c-0.159,0.304-0.287,0.528-0.432,0.768l-1.271,1.767v0.016H229.411z"/>
	</g>
	<g>
		<path d="M284.96,111.033h-1.982l-0.2,1.335c0.12-0.016,0.231-0.032,0.424-0.032c0.399,0,0.8,0.088,1.119,0.28    c0.408,0.232,0.744,0.68,0.744,1.335c0,1.015-0.808,1.775-1.936,1.775c-0.567,0-1.047-0.16-1.295-0.32l0.176-0.536    c0.216,0.128,0.64,0.288,1.111,0.288c0.664,0,1.231-0.432,1.231-1.127c-0.008-0.672-0.456-1.151-1.495-1.151    c-0.296,0-0.528,0.032-0.72,0.056l0.336-2.495h2.486V111.033z"/>
	</g>
	<g>
		<path d="M339.444,110.937c-0.144-0.008-0.328,0-0.527,0.032c-1.104,0.184-1.688,0.992-1.808,1.847h0.024    c0.248-0.328,0.68-0.6,1.255-0.6c0.92,0,1.567,0.664,1.567,1.679c0,0.952-0.647,1.831-1.727,1.831c-1.112,0-1.84-0.863-1.84-2.215    c0-1.023,0.368-1.831,0.88-2.343c0.432-0.424,1.008-0.688,1.663-0.768c0.208-0.032,0.384-0.04,0.512-0.04V110.937z     M339.244,113.935c0-0.744-0.424-1.191-1.071-1.191c-0.424,0-0.815,0.264-1.007,0.64c-0.049,0.08-0.08,0.184-0.08,0.312    c0.016,0.855,0.407,1.487,1.144,1.487C338.837,115.183,339.244,114.679,339.244,113.935z"/>
	</g>
	<g>
		<path d="M0,120.144h2.902v0.584H0.695v1.791h2.039v0.576H0.695v2.438H0V120.144z"/>
		<path d="M5.655,125.533l-0.056-0.488H5.575c-0.216,0.304-0.631,0.576-1.183,0.576c-0.784,0-1.184-0.552-1.184-1.111    c0-0.936,0.832-1.447,2.327-1.439v-0.08c0-0.32-0.088-0.896-0.879-0.896c-0.36,0-0.735,0.112-1.007,0.288l-0.16-0.463    c0.32-0.208,0.784-0.344,1.271-0.344c1.183,0,1.471,0.808,1.471,1.583v1.447c0,0.335,0.016,0.664,0.064,0.927H5.655z     M5.551,123.558c-0.768-0.016-1.639,0.12-1.639,0.872c0,0.456,0.304,0.672,0.664,0.672c0.504,0,0.824-0.32,0.936-0.648    c0.024-0.072,0.04-0.152,0.04-0.224V123.558z"/>
		<path d="M7.336,125.533c0.016-0.264,0.032-0.656,0.032-1v-4.677h0.696v2.431H8.08c0.248-0.432,0.695-0.712,1.319-0.712    c0.959,0,1.639,0.8,1.631,1.975c0,1.383-0.872,2.071-1.735,2.071c-0.56,0-1.008-0.216-1.295-0.728H7.976l-0.032,0.64H7.336z     M8.063,123.982c0,0.088,0.016,0.176,0.032,0.256c0.136,0.488,0.543,0.824,1.055,0.824c0.736,0,1.175-0.6,1.175-1.487    c0-0.775-0.4-1.439-1.151-1.439c-0.479,0-0.927,0.328-1.071,0.863c-0.016,0.08-0.04,0.176-0.04,0.288V123.982z"/>
		<path d="M12.703,120.576c0.008,0.24-0.168,0.432-0.448,0.432c-0.248,0-0.424-0.192-0.424-0.432c0-0.248,0.184-0.439,0.44-0.439    C12.535,120.136,12.703,120.328,12.703,120.576z M11.919,125.533v-3.87h0.704v3.87H11.919z"/>
		<path d="M15.935,125.533l-0.056-0.488h-0.024c-0.216,0.304-0.632,0.576-1.183,0.576c-0.784,0-1.184-0.552-1.184-1.111    c0-0.936,0.832-1.447,2.327-1.439v-0.08c0-0.32-0.088-0.896-0.879-0.896c-0.36,0-0.736,0.112-1.007,0.288l-0.16-0.463    c0.32-0.208,0.784-0.344,1.271-0.344c1.183,0,1.471,0.808,1.471,1.583v1.447c0,0.335,0.016,0.664,0.064,0.927H15.935z     M15.831,123.558c-0.768-0.016-1.639,0.12-1.639,0.872c0,0.456,0.304,0.672,0.664,0.672c0.504,0,0.824-0.32,0.936-0.648    c0.024-0.072,0.04-0.152,0.04-0.224V123.558z"/>
		<path d="M17.647,122.711c0-0.4-0.008-0.728-0.032-1.047h0.624l0.04,0.64h0.016c0.192-0.368,0.64-0.728,1.279-0.728    c0.536,0,1.367,0.32,1.367,1.647v2.311h-0.704v-2.231c0-0.624-0.232-1.143-0.896-1.143c-0.464,0-0.824,0.328-0.943,0.719    c-0.032,0.088-0.048,0.208-0.048,0.328v2.327h-0.704V122.711z"/>
	</g>
	<g>
		<path d="M319.653,125.533v-5.389h0.76l1.728,2.727c0.399,0.632,0.711,1.199,0.967,1.751l0.017-0.008    c-0.064-0.72-0.08-1.375-0.08-2.215v-2.255h0.655v5.389h-0.703l-1.712-2.734c-0.375-0.6-0.735-1.215-1.007-1.799l-0.024,0.008    c0.04,0.68,0.057,1.327,0.057,2.223v2.303H319.653z"/>
		<path d="M327.036,125.533l-0.056-0.488h-0.024c-0.216,0.304-0.632,0.576-1.184,0.576c-0.783,0-1.183-0.552-1.183-1.111    c0-0.936,0.831-1.447,2.326-1.439v-0.08c0-0.32-0.088-0.896-0.88-0.896c-0.359,0-0.735,0.112-1.007,0.288l-0.16-0.463    c0.32-0.208,0.784-0.344,1.271-0.344c1.184,0,1.471,0.808,1.471,1.583v1.447c0,0.335,0.017,0.664,0.064,0.927H327.036z     M326.933,123.558c-0.768-0.016-1.64,0.12-1.64,0.872c0,0.456,0.304,0.672,0.664,0.672c0.503,0,0.823-0.32,0.936-0.648    c0.023-0.072,0.04-0.152,0.04-0.224V123.558z"/>
		<path d="M328.749,122.927c0-0.496-0.017-0.896-0.032-1.263h0.632l0.031,0.664h0.017c0.288-0.472,0.743-0.752,1.375-0.752    c0.936,0,1.64,0.792,1.64,1.967c0,1.391-0.848,2.079-1.76,2.079c-0.512,0-0.959-0.224-1.191-0.607h-0.016v2.103h-0.695V122.927z     M329.444,123.958c0,0.104,0.016,0.2,0.032,0.288c0.128,0.488,0.552,0.823,1.056,0.823c0.743,0,1.175-0.607,1.175-1.495    c0-0.775-0.407-1.439-1.151-1.439c-0.479,0-0.928,0.344-1.063,0.871c-0.023,0.088-0.048,0.192-0.048,0.288V123.958z"/>
		<path d="M336.803,123.566c0,1.431-0.991,2.055-1.927,2.055c-1.048,0-1.855-0.768-1.855-1.991c0-1.295,0.848-2.055,1.919-2.055    C336.051,121.575,336.803,122.383,336.803,123.566z M333.732,123.606c0,0.847,0.487,1.487,1.175,1.487    c0.672,0,1.176-0.631,1.176-1.503c0-0.656-0.328-1.487-1.159-1.487C334.092,122.103,333.732,122.871,333.732,123.606z"/>
		<path d="M337.692,119.856h0.703v5.677h-0.703V119.856z"/>
		<path d="M339.972,123.726c0.016,0.952,0.623,1.343,1.327,1.343c0.504,0,0.808-0.088,1.071-0.2l0.12,0.504    c-0.248,0.112-0.672,0.24-1.287,0.24c-1.191,0-1.903-0.784-1.903-1.951s0.688-2.087,1.815-2.087c1.263,0,1.599,1.112,1.599,1.823    c0,0.144-0.016,0.256-0.023,0.328H339.972z M342.034,123.223c0.008-0.448-0.184-1.144-0.976-1.144    c-0.711,0-1.023,0.656-1.079,1.144H342.034z"/>
		<path d="M347.09,123.566c0,1.431-0.991,2.055-1.927,2.055c-1.048,0-1.855-0.768-1.855-1.991c0-1.295,0.848-2.055,1.919-2.055    C346.338,121.575,347.09,122.383,347.09,123.566z M344.02,123.606c0,0.847,0.487,1.487,1.175,1.487    c0.672,0,1.176-0.631,1.176-1.503c0-0.656-0.328-1.487-1.159-1.487C344.379,122.103,344.02,122.871,344.02,123.606z"/>
		<path d="M347.979,122.711c0-0.4-0.008-0.728-0.032-1.047h0.624l0.039,0.64h0.017c0.191-0.368,0.64-0.728,1.279-0.728    c0.535,0,1.367,0.32,1.367,1.647v2.311h-0.704v-2.231c0-0.624-0.231-1.143-0.896-1.143c-0.463,0-0.823,0.328-0.943,0.719    c-0.031,0.088-0.048,0.208-0.048,0.328v2.327h-0.703V122.711z"/>
		<path d="M353.202,120.576c0.008,0.24-0.168,0.432-0.447,0.432c-0.248,0-0.424-0.192-0.424-0.432c0-0.248,0.184-0.439,0.439-0.439    C353.034,120.136,353.202,120.328,353.202,120.576z M352.419,125.533v-3.87h0.703v3.87H352.419z"/>
		<path d="M357.049,125.389c-0.184,0.096-0.591,0.224-1.111,0.224c-1.167,0-1.927-0.792-1.927-1.975    c0-1.191,0.815-2.055,2.079-2.055c0.416,0,0.783,0.104,0.976,0.2l-0.16,0.544c-0.168-0.096-0.432-0.184-0.815-0.184    c-0.888,0-1.367,0.656-1.367,1.463c0,0.896,0.575,1.447,1.343,1.447c0.4,0,0.664-0.104,0.864-0.191L357.049,125.389z"/>
	</g>
	<line fill="none" stroke="#000000" stroke-width="0.5" stroke-miterlimit="10" x1="26.792" y1="52.415" x2="26.792" y2="74.777"/>
	<g>
		<path d="M86.62,30.855c-0.256,0.128-0.768,0.256-1.423,0.256c-1.519,0-2.663-0.959-2.663-2.727c0-1.687,1.144-2.831,2.814-2.831    c0.672,0,1.096,0.144,1.279,0.24l-0.167,0.568c-0.264-0.128-0.64-0.224-1.087-0.224c-1.264,0-2.103,0.807-2.103,2.223    c0,1.319,0.76,2.167,2.071,2.167c0.424,0,0.855-0.088,1.135-0.224L86.62,30.855z"/>
		<path d="M90.885,29.064c0,1.431-0.992,2.055-1.927,2.055c-1.047,0-1.855-0.768-1.855-1.991c0-1.295,0.848-2.055,1.919-2.055    C90.133,27.073,90.885,27.881,90.885,29.064z M87.814,29.104c0,0.847,0.487,1.487,1.175,1.487c0.671,0,1.175-0.631,1.175-1.503    c0-0.656-0.328-1.487-1.159-1.487C88.174,27.601,87.814,28.369,87.814,29.104z"/>
		<path d="M91.774,28.209c0-0.4-0.008-0.728-0.032-1.047h0.624l0.04,0.64h0.016c0.192-0.368,0.64-0.728,1.279-0.728    c0.536,0,1.367,0.32,1.367,1.647v2.311h-0.704V28.8c0-0.624-0.232-1.143-0.896-1.143c-0.464,0-0.824,0.328-0.943,0.719    c-0.032,0.088-0.048,0.208-0.048,0.328v2.327h-0.704V28.209z"/>
		<path d="M98.973,30.887c-0.184,0.096-0.592,0.224-1.111,0.224c-1.167,0-1.927-0.792-1.927-1.975c0-1.191,0.815-2.055,2.079-2.055    c0.416,0,0.783,0.104,0.976,0.2l-0.16,0.544c-0.168-0.096-0.432-0.184-0.815-0.184c-0.888,0-1.367,0.656-1.367,1.463    c0,0.896,0.576,1.447,1.343,1.447c0.399,0,0.664-0.104,0.863-0.191L98.973,30.887z"/>
		<path d="M100.143,29.224c0.016,0.952,0.624,1.343,1.327,1.343c0.504,0,0.808-0.088,1.071-0.2l0.12,0.504    c-0.248,0.112-0.672,0.24-1.287,0.24c-1.191,0-1.903-0.784-1.903-1.951s0.688-2.087,1.815-2.087c1.264,0,1.599,1.112,1.599,1.823    c0,0.144-0.016,0.256-0.024,0.328H100.143z M102.205,28.721c0.008-0.448-0.184-1.144-0.975-1.144c-0.712,0-1.023,0.656-1.08,1.144    H102.205z"/>
		<path d="M103.758,28.369c0-0.456-0.008-0.848-0.032-1.207h0.616l0.024,0.759h0.032c0.176-0.52,0.6-0.848,1.072-0.848    c0.08,0,0.136,0.008,0.2,0.024v0.664c-0.072-0.016-0.144-0.024-0.24-0.024c-0.496,0-0.848,0.376-0.943,0.904    c-0.016,0.096-0.032,0.208-0.032,0.328v2.063h-0.696V28.369z"/>
		<path d="M107.414,26.05v1.112h1.007v0.536h-1.007v2.086c0,0.48,0.136,0.752,0.528,0.752c0.184,0,0.32-0.024,0.408-0.048    l0.032,0.527c-0.136,0.056-0.352,0.096-0.624,0.096c-0.328,0-0.592-0.104-0.759-0.296c-0.2-0.208-0.272-0.552-0.272-1.007v-2.111    h-0.6v-0.536h0.6v-0.928L107.414,26.05z"/>
		<path d="M112.669,29.064c0,1.431-0.992,2.055-1.927,2.055c-1.047,0-1.855-0.768-1.855-1.991c0-1.295,0.848-2.055,1.919-2.055    C111.917,27.073,112.669,27.881,112.669,29.064z M109.599,29.104c0,0.847,0.487,1.487,1.175,1.487    c0.671,0,1.175-0.631,1.175-1.503c0-0.656-0.328-1.487-1.159-1.487C109.958,27.601,109.599,28.369,109.599,29.104z"/>
		<path d="M82.226,37.425c0-0.496-0.016-0.896-0.032-1.263h0.632l0.032,0.664h0.016c0.288-0.472,0.744-0.752,1.375-0.752    c0.936,0,1.639,0.792,1.639,1.967c0,1.391-0.848,2.079-1.759,2.079c-0.512,0-0.959-0.224-1.191-0.607h-0.016v2.103h-0.696V37.425z     M82.922,38.456c0,0.104,0.016,0.2,0.032,0.288c0.128,0.488,0.551,0.823,1.055,0.823c0.744,0,1.175-0.607,1.175-1.495    c0-0.775-0.408-1.439-1.151-1.439c-0.479,0-0.927,0.344-1.063,0.871c-0.024,0.088-0.048,0.192-0.048,0.288V38.456z"/>
		<path d="M88.921,40.031l-0.056-0.488h-0.024c-0.216,0.304-0.632,0.576-1.183,0.576c-0.784,0-1.184-0.552-1.184-1.111    c0-0.936,0.832-1.447,2.327-1.439v-0.08c0-0.32-0.088-0.896-0.879-0.896c-0.36,0-0.736,0.112-1.007,0.288l-0.16-0.463    c0.32-0.208,0.784-0.344,1.271-0.344c1.183,0,1.471,0.808,1.471,1.583v1.447c0,0.335,0.016,0.664,0.064,0.927H88.921z     M88.817,38.056c-0.768-0.016-1.639,0.12-1.639,0.872c0,0.456,0.304,0.672,0.664,0.672c0.504,0,0.824-0.32,0.936-0.648    c0.024-0.072,0.04-0.152,0.04-0.224V38.056z"/>
		<path d="M90.634,37.369c0-0.456-0.008-0.848-0.032-1.207h0.616l0.024,0.759h0.032c0.176-0.52,0.6-0.848,1.072-0.848    c0.08,0,0.136,0.008,0.2,0.024v0.664c-0.072-0.016-0.144-0.024-0.24-0.024c-0.496,0-0.848,0.376-0.944,0.904    c-0.016,0.096-0.032,0.208-0.032,0.328v2.063h-0.696V37.369z"/>
		<path d="M94.289,35.05v1.112h1.007v0.536h-1.007v2.086c0,0.48,0.136,0.752,0.528,0.752c0.184,0,0.32-0.024,0.408-0.048    l0.032,0.527c-0.136,0.056-0.352,0.096-0.624,0.096c-0.328,0-0.592-0.104-0.759-0.296c-0.2-0.208-0.272-0.552-0.272-1.007v-2.111    h-0.6v-0.536h0.6v-0.928L94.289,35.05z"/>
		<path d="M96.873,35.074c0.008,0.24-0.168,0.432-0.448,0.432c-0.248,0-0.424-0.192-0.424-0.432c0-0.248,0.184-0.439,0.44-0.439    C96.705,34.634,96.873,34.826,96.873,35.074z M96.089,40.031v-3.87h0.704v3.87H96.089z"/>
		<path d="M97.866,39.312c0.208,0.136,0.576,0.28,0.927,0.28c0.512,0,0.752-0.256,0.752-0.576c0-0.335-0.2-0.52-0.72-0.711    c-0.696-0.248-1.023-0.632-1.023-1.095c0-0.624,0.504-1.136,1.335-1.136c0.392,0,0.736,0.112,0.952,0.24l-0.176,0.512    c-0.152-0.096-0.432-0.224-0.792-0.224c-0.416,0-0.648,0.24-0.648,0.528c0,0.32,0.232,0.464,0.736,0.656    c0.671,0.256,1.016,0.591,1.016,1.167c0,0.68-0.528,1.16-1.447,1.16c-0.424,0-0.816-0.104-1.087-0.264L97.866,39.312z"/>
		<path d="M103.272,40.031l-0.056-0.488h-0.024c-0.216,0.304-0.632,0.576-1.183,0.576c-0.784,0-1.184-0.552-1.184-1.111    c0-0.936,0.832-1.447,2.327-1.439v-0.08c0-0.32-0.088-0.896-0.879-0.896c-0.36,0-0.736,0.112-1.007,0.288l-0.16-0.463    c0.32-0.208,0.784-0.344,1.271-0.344c1.183,0,1.471,0.808,1.471,1.583v1.447c0,0.335,0.016,0.664,0.064,0.927H103.272z     M103.168,38.056c-0.768-0.016-1.639,0.12-1.639,0.872c0,0.456,0.304,0.672,0.664,0.672c0.504,0,0.824-0.32,0.936-0.648    c0.024-0.072,0.04-0.152,0.04-0.224V38.056z"/>
		<path d="M104.985,37.209c0-0.4-0.008-0.728-0.032-1.047h0.624l0.04,0.64h0.016c0.192-0.368,0.64-0.728,1.279-0.728    c0.536,0,1.367,0.32,1.367,1.647v2.311h-0.704V37.8c0-0.624-0.232-1.143-0.896-1.143c-0.464,0-0.824,0.328-0.943,0.719    c-0.032,0.088-0.048,0.208-0.048,0.328v2.327h-0.704V37.209z"/>
		<path d="M109.33,39.312c0.208,0.136,0.576,0.28,0.927,0.28c0.512,0,0.752-0.256,0.752-0.576c0-0.335-0.2-0.52-0.72-0.711    c-0.696-0.248-1.023-0.632-1.023-1.095c0-0.624,0.504-1.136,1.335-1.136c0.392,0,0.736,0.112,0.952,0.24l-0.176,0.512    c-0.152-0.096-0.432-0.224-0.792-0.224c-0.416,0-0.648,0.24-0.648,0.528c0,0.32,0.232,0.464,0.736,0.656    c0.671,0.256,1.016,0.591,1.016,1.167c0,0.68-0.528,1.16-1.447,1.16c-0.424,0-0.816-0.104-1.087-0.264L109.33,39.312z"/>
		<path d="M112.05,41.015c0.176-0.472,0.392-1.327,0.479-1.911l0.784-0.08c-0.184,0.68-0.536,1.567-0.759,1.943L112.05,41.015z"/>
		<path d="M91.29,44.49h-0.016l-0.904,0.488l-0.136-0.536l1.135-0.608h0.6v5.197H91.29V44.49z"/>
		<path d="M94.274,48.536c0.152,0.016,0.328,0,0.568-0.024c0.408-0.056,0.792-0.224,1.087-0.504    c0.344-0.312,0.591-0.768,0.688-1.383h-0.024c-0.288,0.352-0.704,0.56-1.224,0.56c-0.935,0-1.535-0.704-1.535-1.591    c0-0.983,0.712-1.847,1.775-1.847c1.063,0,1.719,0.864,1.719,2.191c0,1.144-0.384,1.943-0.896,2.438    c-0.4,0.392-0.951,0.632-1.511,0.696c-0.256,0.04-0.479,0.048-0.647,0.04V48.536z M94.53,45.545c0,0.647,0.392,1.103,1,1.103    c0.472,0,0.839-0.232,1.023-0.543c0.04-0.064,0.064-0.144,0.064-0.256c0-0.888-0.328-1.567-1.063-1.567    C94.954,44.282,94.53,44.81,94.53,45.545z"/>
		<path d="M100.146,49.031v-1.415h-2.415v-0.464l2.318-3.318h0.76v3.23h0.728v0.552h-0.728v1.415H100.146z M100.146,47.064v-1.735    c0-0.271,0.008-0.543,0.024-0.815h-0.024c-0.16,0.304-0.288,0.528-0.432,0.768l-1.271,1.767v0.016H100.146z"/>
		<path d="M102.243,48.224c0.2,0.128,0.664,0.328,1.151,0.328c0.903,0,1.183-0.575,1.175-1.007c-0.008-0.728-0.664-1.04-1.343-1.04    h-0.392v-0.527h0.392c0.512,0,1.159-0.264,1.159-0.88c0-0.416-0.264-0.783-0.912-0.783c-0.416,0-0.815,0.184-1.039,0.344    l-0.184-0.512c0.272-0.2,0.8-0.4,1.359-0.4c1.023,0,1.487,0.608,1.487,1.239c0,0.536-0.32,0.992-0.959,1.224v0.016    c0.64,0.128,1.159,0.608,1.159,1.335c0,0.832-0.647,1.559-1.895,1.559c-0.583,0-1.095-0.184-1.351-0.352L102.243,48.224z"/>
	</g>
	<line fill="none" stroke="#000000" stroke-width="0.5" stroke-miterlimit="10" x1="97.609" y1="52.415" x2="97.609" y2="74.777"/>
	<g>
		<path d="M134.958,35.34c0.352-0.072,0.856-0.112,1.335-0.112c0.744,0,1.223,0.136,1.559,0.44c0.272,0.24,0.424,0.608,0.424,1.023    c0,0.711-0.448,1.183-1.016,1.375v0.024c0.416,0.144,0.664,0.527,0.792,1.087c0.176,0.751,0.304,1.271,0.416,1.479h-0.72    c-0.088-0.152-0.208-0.616-0.36-1.287c-0.16-0.744-0.447-1.023-1.079-1.047h-0.656v2.334h-0.696V35.34z M135.654,37.795h0.711    c0.744,0,1.216-0.408,1.216-1.023c0-0.696-0.504-1-1.24-1.007c-0.335,0-0.576,0.032-0.688,0.063V37.795z"/>
		<path d="M139.958,35.268v3.19c0,1.207,0.536,1.719,1.255,1.719c0.8,0,1.312-0.527,1.312-1.719v-3.19h0.703v3.143    c0,1.655-0.871,2.334-2.039,2.334c-1.104,0-1.935-0.631-1.935-2.303v-3.174H139.958z"/>
		<path d="M144.438,35.268h2.903v0.584h-2.207v1.791h2.039v0.576h-2.039v2.438h-0.696V35.268z"/>
		<path d="M147.078,41.641c0.176-0.472,0.392-1.327,0.479-1.911l0.784-0.08c-0.184,0.68-0.536,1.567-0.759,1.943L147.078,41.641z"/>
		<path d="M135.158,45.116h-0.016l-0.904,0.488l-0.136-0.536l1.135-0.608h0.6v5.197h-0.679V45.116z"/>
		<path d="M138.143,49.162c0.152,0.016,0.328,0,0.568-0.024c0.408-0.056,0.792-0.224,1.087-0.504    c0.344-0.312,0.591-0.768,0.688-1.383h-0.024c-0.288,0.352-0.704,0.56-1.224,0.56c-0.935,0-1.535-0.704-1.535-1.591    c0-0.983,0.712-1.847,1.775-1.847c1.063,0,1.719,0.864,1.719,2.191c0,1.144-0.384,1.943-0.896,2.438    c-0.4,0.392-0.951,0.632-1.511,0.696c-0.256,0.04-0.479,0.048-0.647,0.04V49.162z M138.398,46.171c0,0.647,0.392,1.103,1,1.103    c0.472,0,0.839-0.232,1.023-0.543c0.04-0.064,0.064-0.144,0.064-0.256c0-0.888-0.328-1.567-1.063-1.567    C138.822,44.908,138.398,45.436,138.398,46.171z"/>
		<path d="M142.247,49.162c0.152,0.016,0.328,0,0.568-0.024c0.408-0.056,0.792-0.224,1.087-0.504    c0.344-0.312,0.591-0.768,0.688-1.383h-0.024c-0.288,0.352-0.704,0.56-1.224,0.56c-0.936,0-1.535-0.704-1.535-1.591    c0-0.983,0.712-1.847,1.775-1.847s1.719,0.864,1.719,2.191c0,1.144-0.384,1.943-0.896,2.438c-0.399,0.392-0.951,0.632-1.511,0.696    c-0.256,0.04-0.479,0.048-0.647,0.04V49.162z M142.502,46.171c0,0.647,0.392,1.103,1,1.103c0.472,0,0.839-0.232,1.023-0.543    c0.04-0.064,0.064-0.144,0.064-0.256c0-0.888-0.328-1.567-1.063-1.567C142.926,44.908,142.502,45.436,142.502,46.171z"/>
		<path d="M149.045,45.052h-1.983l-0.2,1.335c0.12-0.016,0.232-0.032,0.424-0.032c0.4,0,0.799,0.088,1.119,0.28    c0.408,0.232,0.744,0.68,0.744,1.335c0,1.016-0.808,1.775-1.935,1.775c-0.567,0-1.047-0.16-1.295-0.32l0.176-0.536    c0.216,0.128,0.64,0.288,1.111,0.288c0.664,0,1.231-0.432,1.231-1.127c-0.008-0.672-0.456-1.151-1.495-1.151    c-0.296,0-0.528,0.032-0.72,0.056l0.336-2.495h2.486V45.052z"/>
	</g>
	
		<line fill="none" stroke="#000000" stroke-width="0.5" stroke-miterlimit="10" x1="141.479" y1="52.415" x2="141.479" y2="74.777"/>
	<g>
		<path d="M214.684,28.504h-2.095v1.943h2.334v0.583h-3.03v-5.389h2.911v0.584h-2.215v1.703h2.095V28.504z"/>
		<path d="M215.805,25.354h0.703v5.677h-0.703V25.354z"/>
		<path d="M219.835,31.031l-0.056-0.488h-0.024c-0.216,0.304-0.632,0.576-1.184,0.576c-0.783,0-1.183-0.552-1.183-1.111    c0-0.936,0.831-1.447,2.326-1.439v-0.08c0-0.32-0.088-0.896-0.88-0.896c-0.359,0-0.735,0.112-1.007,0.288l-0.16-0.463    c0.32-0.208,0.784-0.344,1.271-0.344c1.184,0,1.471,0.808,1.471,1.583v1.447c0,0.335,0.017,0.664,0.064,0.927H219.835z     M219.731,29.056c-0.768-0.016-1.64,0.12-1.64,0.872c0,0.456,0.304,0.672,0.664,0.672c0.503,0,0.823-0.32,0.936-0.648    c0.023-0.072,0.04-0.152,0.04-0.224V29.056z"/>
		<path d="M221.451,30.312c0.208,0.136,0.576,0.28,0.928,0.28c0.512,0,0.752-0.256,0.752-0.576c0-0.335-0.2-0.52-0.72-0.711    c-0.695-0.248-1.023-0.632-1.023-1.095c0-0.624,0.504-1.136,1.335-1.136c0.392,0,0.735,0.112,0.952,0.24l-0.177,0.512    c-0.151-0.096-0.432-0.224-0.791-0.224c-0.416,0-0.647,0.24-0.647,0.528c0,0.32,0.231,0.464,0.735,0.656    c0.672,0.256,1.016,0.591,1.016,1.167c0,0.68-0.528,1.16-1.447,1.16c-0.424,0-0.815-0.104-1.088-0.264L221.451,30.312z"/>
		<path d="M225.563,26.05v1.112h1.007v0.536h-1.007v2.086c0,0.48,0.136,0.752,0.527,0.752c0.184,0,0.319-0.024,0.408-0.048    l0.031,0.527c-0.136,0.056-0.352,0.096-0.623,0.096c-0.328,0-0.592-0.104-0.76-0.296c-0.2-0.208-0.272-0.552-0.272-1.007v-2.111    h-0.6v-0.536h0.6v-0.928L225.563,26.05z"/>
		<path d="M228.147,26.074c0.008,0.24-0.168,0.432-0.447,0.432c-0.248,0-0.424-0.192-0.424-0.432c0-0.248,0.184-0.439,0.439-0.439    C227.979,25.634,228.147,25.826,228.147,26.074z M227.364,31.031v-3.87h0.703v3.87H227.364z"/>
		<path d="M231.994,30.887c-0.184,0.096-0.591,0.224-1.111,0.224c-1.167,0-1.927-0.792-1.927-1.975c0-1.191,0.815-2.055,2.079-2.055    c0.416,0,0.783,0.104,0.976,0.2l-0.16,0.544c-0.168-0.096-0.432-0.184-0.815-0.184c-0.888,0-1.367,0.656-1.367,1.463    c0,0.896,0.575,1.447,1.343,1.447c0.4,0,0.664-0.104,0.864-0.191L231.994,30.887z"/>
		<path d="M207.977,34.714c0.424-0.064,0.928-0.112,1.479-0.112c0.999,0,1.711,0.232,2.183,0.672c0.479,0.439,0.76,1.063,0.76,1.935    c0,0.879-0.271,1.599-0.775,2.095c-0.504,0.503-1.336,0.775-2.383,0.775c-0.496,0-0.911-0.024-1.264-0.064V34.714z     M208.673,39.479c0.176,0.032,0.432,0.04,0.703,0.04c1.487,0,2.295-0.832,2.295-2.287c0.008-1.271-0.712-2.079-2.183-2.079    c-0.36,0-0.632,0.032-0.815,0.072V39.479z"/>
		<path d="M213.705,38.224c0.016,0.952,0.624,1.343,1.327,1.343c0.504,0,0.808-0.088,1.071-0.2l0.12,0.504    c-0.248,0.112-0.672,0.24-1.287,0.24c-1.191,0-1.903-0.784-1.903-1.951s0.688-2.087,1.815-2.087c1.263,0,1.599,1.112,1.599,1.823    c0,0.144-0.016,0.256-0.023,0.328H213.705z M215.768,37.721c0.008-0.448-0.184-1.144-0.976-1.144    c-0.711,0-1.023,0.656-1.079,1.144H215.768z"/>
		<path d="M217.393,40.031v-3.334h-0.543v-0.536h0.543v-0.184c0-0.544,0.12-1.04,0.448-1.351c0.264-0.256,0.615-0.36,0.943-0.36    c0.248,0,0.464,0.056,0.6,0.112l-0.096,0.543c-0.104-0.048-0.248-0.088-0.448-0.088c-0.6,0-0.751,0.528-0.751,1.12v0.208h0.936    v0.536h-0.936v3.334H217.393z"/>
		<path d="M219.944,38.224c0.016,0.952,0.623,1.343,1.327,1.343c0.504,0,0.808-0.088,1.071-0.2l0.12,0.504    c-0.248,0.112-0.672,0.24-1.287,0.24c-1.191,0-1.903-0.784-1.903-1.951s0.688-2.087,1.815-2.087c1.263,0,1.599,1.112,1.599,1.823    c0,0.144-0.016,0.256-0.023,0.328H219.944z M222.007,37.721c0.008-0.448-0.184-1.144-0.976-1.144    c-0.711,0-1.023,0.656-1.079,1.144H222.007z"/>
		<path d="M223.561,37.209c0-0.4-0.009-0.728-0.032-1.047h0.624l0.04,0.64h0.016c0.191-0.368,0.64-0.728,1.279-0.728    c0.535,0,1.367,0.32,1.367,1.647v2.311h-0.704V37.8c0-0.624-0.231-1.143-0.896-1.143c-0.463,0-0.823,0.328-0.943,0.719    c-0.031,0.088-0.048,0.208-0.048,0.328v2.327h-0.703V37.209z"/>
		<path d="M227.904,39.312c0.208,0.136,0.576,0.28,0.928,0.28c0.512,0,0.752-0.256,0.752-0.576c0-0.335-0.2-0.52-0.72-0.711    c-0.695-0.248-1.023-0.632-1.023-1.095c0-0.624,0.504-1.136,1.335-1.136c0.392,0,0.735,0.112,0.952,0.24l-0.177,0.512    c-0.151-0.096-0.432-0.224-0.791-0.224c-0.416,0-0.647,0.24-0.647,0.528c0,0.32,0.231,0.464,0.735,0.656    c0.672,0.256,1.016,0.591,1.016,1.167c0,0.68-0.528,1.16-1.447,1.16c-0.424,0-0.815-0.104-1.088-0.264L227.904,39.312z"/>
		<path d="M231.561,38.224c0.016,0.952,0.624,1.343,1.327,1.343c0.504,0,0.808-0.088,1.071-0.2l0.12,0.504    c-0.248,0.112-0.672,0.24-1.287,0.24c-1.191,0-1.903-0.784-1.903-1.951s0.688-2.087,1.815-2.087c1.263,0,1.599,1.112,1.599,1.823    c0,0.144-0.016,0.256-0.023,0.328H231.561z M233.623,37.721c0.008-0.448-0.184-1.144-0.976-1.144    c-0.711,0-1.023,0.656-1.079,1.144H233.623z"/>
		<path d="M234.625,41.015c0.176-0.472,0.392-1.327,0.479-1.911l0.784-0.08c-0.185,0.68-0.536,1.567-0.76,1.943L234.625,41.015z"/>
		<path d="M215.439,44.49h-0.016l-0.903,0.488l-0.137-0.536l1.136-0.608h0.6v5.197h-0.68V44.49z"/>
		<path d="M218.424,48.536c0.152,0.016,0.328,0,0.567-0.024c0.408-0.056,0.792-0.224,1.088-0.504    c0.344-0.312,0.592-0.768,0.688-1.383h-0.024c-0.287,0.352-0.703,0.56-1.223,0.56c-0.936,0-1.535-0.704-1.535-1.591    c0-0.983,0.711-1.847,1.774-1.847s1.72,0.864,1.72,2.191c0,1.144-0.384,1.943-0.896,2.438c-0.4,0.392-0.952,0.632-1.512,0.696    c-0.256,0.04-0.479,0.048-0.647,0.04V48.536z M218.68,45.545c0,0.647,0.392,1.103,0.999,1.103c0.473,0,0.84-0.232,1.023-0.543    c0.04-0.064,0.064-0.144,0.064-0.256c0-0.888-0.328-1.567-1.063-1.567C219.104,44.282,218.68,44.81,218.68,45.545z"/>
		<path d="M223.646,44.49h-0.016l-0.903,0.488l-0.137-0.536l1.136-0.608h0.6v5.197h-0.68V44.49z"/>
		<path d="M229.189,44.33c-0.144-0.008-0.328,0-0.527,0.032c-1.104,0.184-1.688,0.991-1.808,1.847h0.024    c0.248-0.328,0.68-0.6,1.255-0.6c0.92,0,1.567,0.664,1.567,1.679c0,0.952-0.647,1.831-1.728,1.831    c-1.111,0-1.839-0.863-1.839-2.215c0-1.023,0.368-1.831,0.88-2.343c0.432-0.423,1.008-0.688,1.663-0.768    c0.208-0.032,0.384-0.04,0.512-0.04V44.33z M228.989,47.328c0-0.744-0.424-1.191-1.071-1.191c-0.424,0-0.815,0.264-1.007,0.64    c-0.049,0.08-0.08,0.184-0.08,0.312c0.016,0.855,0.407,1.487,1.143,1.487C228.582,48.576,228.989,48.072,228.989,47.328z"/>
	</g>
	
		<line fill="none" stroke="#000000" stroke-width="0.5" stroke-miterlimit="10" x1="221.761" y1="52.415" x2="221.761" y2="74.777"/>
	<g>
		<path d="M245.179,31.031v-5.389h0.76l1.728,2.727c0.399,0.632,0.711,1.199,0.967,1.751l0.017-0.008    c-0.064-0.72-0.08-1.375-0.08-2.215v-2.255h0.655v5.389h-0.703l-1.712-2.734c-0.375-0.6-0.735-1.215-1.007-1.799l-0.024,0.008    c0.04,0.68,0.057,1.327,0.057,2.223v2.303H245.179z"/>
		<path d="M253.921,29.064c0,1.431-0.991,2.055-1.927,2.055c-1.048,0-1.855-0.768-1.855-1.991c0-1.295,0.848-2.055,1.919-2.055    C253.169,27.073,253.921,27.881,253.921,29.064z M250.851,29.104c0,0.847,0.487,1.487,1.175,1.487    c0.672,0,1.176-0.631,1.176-1.503c0-0.656-0.328-1.487-1.159-1.487C251.21,27.601,250.851,28.369,250.851,29.104z"/>
		<path d="M254.811,28.369c0-0.456-0.009-0.848-0.032-1.207h0.615l0.024,0.759h0.032c0.176-0.52,0.6-0.848,1.071-0.848    c0.08,0,0.136,0.008,0.2,0.024v0.664c-0.072-0.016-0.145-0.024-0.24-0.024c-0.496,0-0.848,0.376-0.943,0.904    c-0.017,0.096-0.032,0.208-0.032,0.328v2.063h-0.695V28.369z"/>
		<path d="M258.466,26.05v1.112h1.007v0.536h-1.007v2.086c0,0.48,0.136,0.752,0.527,0.752c0.184,0,0.319-0.024,0.408-0.048    l0.031,0.527c-0.136,0.056-0.352,0.096-0.623,0.096c-0.328,0-0.592-0.104-0.76-0.296c-0.2-0.208-0.272-0.552-0.272-1.007v-2.111    h-0.6v-0.536h0.6v-0.928L258.466,26.05z"/>
		<path d="M260.267,25.354h0.703v2.415h0.017c0.111-0.2,0.287-0.376,0.503-0.496c0.208-0.12,0.456-0.2,0.72-0.2    c0.52,0,1.352,0.32,1.352,1.655v2.303h-0.704v-2.223c0-0.624-0.231-1.151-0.896-1.151c-0.455,0-0.815,0.32-0.943,0.704    c-0.04,0.096-0.048,0.2-0.048,0.336v2.334h-0.703V25.354z"/>
		<path d="M265.098,29.224c0.016,0.952,0.624,1.343,1.327,1.343c0.504,0,0.808-0.088,1.071-0.2l0.12,0.504    c-0.248,0.112-0.672,0.24-1.287,0.24c-1.191,0-1.903-0.784-1.903-1.951s0.688-2.087,1.815-2.087c1.263,0,1.599,1.112,1.599,1.823    c0,0.144-0.016,0.256-0.023,0.328H265.098z M267.16,28.721c0.008-0.448-0.184-1.144-0.976-1.144c-0.711,0-1.023,0.656-1.079,1.144    H267.16z"/>
		<path d="M268.714,28.369c0-0.456-0.008-0.848-0.032-1.207h0.615l0.024,0.759h0.032c0.176-0.52,0.6-0.848,1.071-0.848    c0.08,0,0.136,0.008,0.199,0.024v0.664c-0.071-0.016-0.144-0.024-0.239-0.024c-0.496,0-0.848,0.376-0.943,0.904    c-0.017,0.096-0.032,0.208-0.032,0.328v2.063h-0.695V28.369z"/>
		<path d="M271.362,28.209c0-0.4-0.008-0.728-0.032-1.047h0.624l0.039,0.64h0.017c0.191-0.368,0.64-0.728,1.279-0.728    c0.535,0,1.367,0.32,1.367,1.647v2.311h-0.704V28.8c0-0.624-0.231-1.143-0.896-1.143c-0.463,0-0.823,0.328-0.943,0.719    c-0.031,0.088-0.048,0.208-0.048,0.328v2.327h-0.703V28.209z"/>
		<path d="M247.414,38.336l-0.56,1.695h-0.72l1.831-5.389h0.839l1.839,5.389H249.9l-0.575-1.695H247.414z M249.181,37.792    l-0.527-1.551c-0.12-0.352-0.2-0.671-0.28-0.983h-0.016c-0.08,0.32-0.168,0.648-0.272,0.976l-0.527,1.559H249.181z"/>
		<path d="M251.392,34.354h0.703v5.677h-0.703V34.354z"/>
		<path d="M253.278,34.354h0.703v5.677h-0.703V34.354z"/>
		<path d="M255.95,35.074c0.008,0.24-0.168,0.432-0.447,0.432c-0.248,0-0.424-0.192-0.424-0.432c0-0.248,0.184-0.439,0.439-0.439    C255.782,34.634,255.95,34.826,255.95,35.074z M255.167,40.031v-3.87h0.703v3.87H255.167z"/>
		<path d="M259.181,40.031l-0.056-0.488h-0.024c-0.216,0.304-0.632,0.576-1.184,0.576c-0.783,0-1.183-0.552-1.183-1.111    c0-0.936,0.831-1.447,2.326-1.439v-0.08c0-0.32-0.088-0.896-0.88-0.896c-0.359,0-0.735,0.112-1.007,0.288l-0.16-0.463    c0.32-0.208,0.784-0.344,1.271-0.344c1.184,0,1.471,0.808,1.471,1.583v1.447c0,0.335,0.017,0.664,0.064,0.927H259.181z     M259.077,38.056c-0.768-0.016-1.64,0.12-1.64,0.872c0,0.456,0.304,0.672,0.664,0.672c0.503,0,0.823-0.32,0.936-0.648    c0.023-0.072,0.04-0.152,0.04-0.224V38.056z"/>
		<path d="M260.896,37.209c0-0.4-0.008-0.728-0.032-1.047h0.624l0.039,0.64h0.017c0.191-0.368,0.64-0.728,1.279-0.728    c0.535,0,1.367,0.32,1.367,1.647v2.311h-0.704V37.8c0-0.624-0.231-1.143-0.896-1.143c-0.463,0-0.823,0.328-0.943,0.719    c-0.031,0.088-0.048,0.208-0.048,0.328v2.327h-0.703V37.209z"/>
		<path d="M268.093,39.887c-0.184,0.096-0.592,0.224-1.111,0.224c-1.167,0-1.927-0.792-1.927-1.975c0-1.191,0.815-2.055,2.079-2.055    c0.416,0,0.783,0.104,0.976,0.2l-0.16,0.544c-0.168-0.096-0.432-0.184-0.815-0.184c-0.888,0-1.367,0.656-1.367,1.463    c0,0.896,0.575,1.447,1.343,1.447c0.4,0,0.664-0.104,0.864-0.191L268.093,39.887z"/>
		<path d="M269.262,38.224c0.016,0.952,0.624,1.343,1.327,1.343c0.504,0,0.808-0.088,1.071-0.2l0.12,0.504    c-0.248,0.112-0.672,0.24-1.287,0.24c-1.191,0-1.903-0.784-1.903-1.951s0.688-2.087,1.815-2.087c1.263,0,1.599,1.112,1.599,1.823    c0,0.144-0.016,0.256-0.023,0.328H269.262z M271.324,37.721c0.008-0.448-0.184-1.144-0.976-1.144    c-0.711,0-1.023,0.656-1.079,1.144H271.324z"/>
		<path d="M272.326,41.015c0.176-0.472,0.392-1.327,0.479-1.911l0.784-0.08c-0.185,0.68-0.536,1.567-0.76,1.943L272.326,41.015z"/>
		<path d="M252.046,49.031V48.6l0.552-0.536c1.327-1.264,1.928-1.935,1.936-2.719c0-0.528-0.256-1.016-1.031-1.016    c-0.472,0-0.864,0.24-1.104,0.44l-0.225-0.496c0.36-0.304,0.872-0.528,1.472-0.528c1.119,0,1.591,0.768,1.591,1.511    c0,0.959-0.695,1.735-1.791,2.791l-0.415,0.384v0.016h2.334v0.583H252.046z"/>
		<path d="M259.604,46.376c0,1.767-0.655,2.743-1.807,2.743c-1.016,0-1.703-0.952-1.719-2.67c0-1.743,0.751-2.703,1.807-2.703    C258.98,43.746,259.604,44.722,259.604,46.376z M256.781,46.457c0,1.352,0.416,2.119,1.056,2.119c0.72,0,1.063-0.84,1.063-2.167    c0-1.279-0.328-2.119-1.056-2.119C257.229,44.29,256.781,45.042,256.781,46.457z"/>
		<path d="M263.707,46.376c0,1.767-0.655,2.743-1.807,2.743c-1.016,0-1.703-0.952-1.719-2.67c0-1.743,0.751-2.703,1.807-2.703    C263.084,43.746,263.707,44.722,263.707,46.376z M260.885,46.457c0,1.352,0.416,2.119,1.056,2.119c0.72,0,1.063-0.84,1.063-2.167    c0-1.279-0.328-2.119-1.056-2.119C261.333,44.29,260.885,45.042,260.885,46.457z"/>
		<path d="M267.811,46.376c0,1.767-0.655,2.743-1.807,2.743c-1.016,0-1.703-0.952-1.719-2.67c0-1.743,0.751-2.703,1.807-2.703    C267.188,43.746,267.811,44.722,267.811,46.376z M264.988,46.457c0,1.352,0.416,2.119,1.056,2.119c0.72,0,1.063-0.84,1.063-2.167    c0-1.279-0.328-2.119-1.056-2.119C265.437,44.29,264.988,45.042,264.988,46.457z"/>
	</g>
	
		<line fill="none" stroke="#000000" stroke-width="0.5" stroke-miterlimit="10" x1="259.897" y1="52.415" x2="259.897" y2="74.777"/>
	<g>
		<path d="M305.464,28.665c-0.04-0.751-0.088-1.655-0.08-2.327h-0.024c-0.184,0.631-0.407,1.303-0.68,2.047L303.729,31h-0.527    l-0.872-2.567c-0.256-0.759-0.472-1.455-0.623-2.095h-0.017c-0.016,0.671-0.056,1.575-0.104,2.383l-0.145,2.311h-0.663    l0.376-5.389h0.888l0.919,2.606c0.224,0.664,0.408,1.255,0.544,1.815h0.023c0.137-0.544,0.328-1.136,0.568-1.815l0.959-2.606    h0.888l0.336,5.389h-0.68L305.464,28.665z"/>
		<path d="M309.521,31.031l-0.056-0.488h-0.024c-0.216,0.304-0.632,0.576-1.184,0.576c-0.783,0-1.183-0.552-1.183-1.111    c0-0.936,0.831-1.447,2.326-1.439v-0.08c0-0.32-0.088-0.896-0.88-0.896c-0.359,0-0.735,0.112-1.007,0.288l-0.16-0.463    c0.32-0.208,0.784-0.344,1.271-0.344c1.184,0,1.471,0.808,1.471,1.583v1.447c0,0.335,0.017,0.664,0.064,0.927H309.521z     M309.417,29.056c-0.768-0.016-1.64,0.12-1.64,0.872c0,0.456,0.304,0.672,0.664,0.672c0.503,0,0.823-0.32,0.936-0.648    c0.023-0.072,0.04-0.152,0.04-0.224V29.056z"/>
		<path d="M314.568,27.162c-0.017,0.28-0.032,0.591-0.032,1.063v2.247c0,0.887-0.176,1.431-0.552,1.767    c-0.376,0.352-0.919,0.463-1.407,0.463c-0.464,0-0.976-0.112-1.287-0.32l0.176-0.536c0.256,0.16,0.656,0.304,1.136,0.304    c0.72,0,1.247-0.376,1.247-1.352v-0.432h-0.016c-0.216,0.36-0.632,0.647-1.231,0.647c-0.96,0-1.647-0.815-1.647-1.887    c0-1.312,0.855-2.055,1.743-2.055c0.672,0,1.039,0.352,1.207,0.672h0.017l0.031-0.583H314.568z M313.841,28.688    c0-0.12-0.008-0.224-0.04-0.32c-0.128-0.408-0.472-0.744-0.983-0.744c-0.672,0-1.151,0.568-1.151,1.463    c0,0.76,0.384,1.391,1.144,1.391c0.432,0,0.823-0.272,0.975-0.72c0.04-0.12,0.057-0.256,0.057-0.375V28.688z"/>
		<path d="M316.441,26.074c0.008,0.24-0.168,0.432-0.447,0.432c-0.248,0-0.424-0.192-0.424-0.432c0-0.248,0.184-0.439,0.439-0.439    C316.273,25.634,316.441,25.826,316.441,26.074z M315.658,31.031v-3.87h0.703v3.87H315.658z"/>
		<path d="M317.53,28.209c0-0.4-0.008-0.728-0.032-1.047h0.624l0.039,0.64h0.017c0.191-0.368,0.64-0.728,1.279-0.728    c0.535,0,1.367,0.32,1.367,1.647v2.311h-0.704V28.8c0-0.624-0.231-1.143-0.896-1.143c-0.463,0-0.823,0.328-0.943,0.719    c-0.031,0.088-0.048,0.208-0.048,0.328v2.327h-0.703V28.209z"/>
		<path d="M325.472,29.064c0,1.431-0.991,2.055-1.927,2.055c-1.048,0-1.855-0.768-1.855-1.991c0-1.295,0.848-2.055,1.919-2.055    C324.72,27.073,325.472,27.881,325.472,29.064z M322.401,29.104c0,0.847,0.487,1.487,1.175,1.487c0.672,0,1.176-0.631,1.176-1.503    c0-0.656-0.328-1.487-1.159-1.487C322.761,27.601,322.401,28.369,322.401,29.104z"/>
		<path d="M327.209,26.05v1.112h1.007v0.536h-1.007v2.086c0,0.48,0.136,0.752,0.527,0.752c0.184,0,0.319-0.024,0.407-0.048    l0.032,0.527c-0.136,0.056-0.352,0.096-0.623,0.096c-0.328,0-0.592-0.104-0.76-0.296c-0.2-0.208-0.272-0.552-0.272-1.007v-2.111    h-0.6v-0.536h0.6v-0.928L327.209,26.05z"/>
		<path d="M307.149,34.642h0.696v4.806h2.303v0.583h-2.999V34.642z"/>
		<path d="M311.685,35.074c0.008,0.24-0.168,0.432-0.447,0.432c-0.248,0-0.424-0.192-0.424-0.432c0-0.248,0.184-0.439,0.439-0.439    C311.517,34.634,311.685,34.826,311.685,35.074z M310.901,40.031v-3.87h0.703v3.87H310.901z"/>
		<path d="M312.773,37.209c0-0.4-0.009-0.728-0.032-1.047h0.624l0.04,0.64h0.016c0.191-0.368,0.64-0.728,1.279-0.728    c0.535,0,1.367,0.32,1.367,1.647v2.311h-0.704V37.8c0-0.624-0.231-1.143-0.896-1.143c-0.463,0-0.823,0.328-0.943,0.719    c-0.031,0.088-0.048,0.208-0.048,0.328v2.327h-0.703V37.209z"/>
		<path d="M317.605,38.224c0.016,0.952,0.624,1.343,1.327,1.343c0.504,0,0.808-0.088,1.071-0.2l0.12,0.504    c-0.248,0.112-0.672,0.24-1.287,0.24c-1.191,0-1.903-0.784-1.903-1.951s0.688-2.087,1.815-2.087c1.263,0,1.599,1.112,1.599,1.823    c0,0.144-0.016,0.256-0.023,0.328H317.605z M319.668,37.721c0.008-0.448-0.184-1.144-0.976-1.144    c-0.711,0-1.023,0.656-1.079,1.144H319.668z"/>
		<path d="M320.67,41.015c0.176-0.472,0.392-1.327,0.479-1.911l0.784-0.08c-0.185,0.68-0.536,1.567-0.76,1.943L320.67,41.015z"/>
		<path d="M308.049,44.49h-0.016l-0.903,0.488l-0.137-0.536l1.136-0.608h0.6v5.197h-0.68V44.49z"/>
		<path d="M311.033,48.536c0.152,0.016,0.328,0,0.567-0.024c0.408-0.056,0.792-0.224,1.088-0.504    c0.344-0.312,0.592-0.768,0.688-1.383h-0.024c-0.287,0.352-0.703,0.56-1.223,0.56c-0.936,0-1.535-0.704-1.535-1.591    c0-0.983,0.711-1.847,1.774-1.847s1.72,0.864,1.72,2.191c0,1.144-0.384,1.943-0.896,2.438c-0.4,0.392-0.952,0.632-1.512,0.696    c-0.256,0.04-0.479,0.048-0.647,0.04V48.536z M311.289,45.545c0,0.647,0.392,1.103,0.999,1.103c0.473,0,0.84-0.232,1.023-0.543    c0.04-0.064,0.064-0.144,0.064-0.256c0-0.888-0.328-1.567-1.063-1.567C311.713,44.282,311.289,44.81,311.289,45.545z"/>
		<path d="M316.903,49.031v-1.415h-2.414v-0.464l2.318-3.318h0.76v3.23h0.728v0.552h-0.728v1.415H316.903z M316.903,47.064v-1.735    c0-0.271,0.009-0.543,0.024-0.815h-0.024c-0.159,0.304-0.287,0.528-0.432,0.768l-1.271,1.767v0.016H316.903z"/>
		<path d="M322.286,46.376c0,1.767-0.655,2.743-1.807,2.743c-1.016,0-1.703-0.952-1.719-2.67c0-1.743,0.751-2.703,1.807-2.703    C321.663,43.746,322.286,44.722,322.286,46.376z M319.464,46.457c0,1.352,0.416,2.119,1.056,2.119c0.72,0,1.063-0.84,1.063-2.167    c0-1.279-0.328-2.119-1.056-2.119C319.912,44.29,319.464,45.042,319.464,46.457z"/>
	</g>
	
		<line fill="none" stroke="#000000" stroke-width="0.5" stroke-miterlimit="10" x1="314.369" y1="52.415" x2="314.369" y2="74.777"/>
	<g>
		<path d="M154.024,13.724c0.424-0.064,0.928-0.112,1.479-0.112c1,0,1.711,0.232,2.183,0.672c0.48,0.439,0.76,1.063,0.76,1.935    c0,0.879-0.272,1.599-0.775,2.095c-0.504,0.503-1.335,0.775-2.383,0.775c-0.496,0-0.912-0.024-1.264-0.064V13.724z M154.72,18.489    c0.176,0.032,0.432,0.04,0.704,0.04c1.487,0,2.295-0.832,2.295-2.287c0.008-1.271-0.712-2.079-2.183-2.079    c-0.36,0-0.631,0.032-0.815,0.072V18.489z"/>
		<path d="M159.753,17.234c0.016,0.952,0.624,1.343,1.327,1.343c0.504,0,0.808-0.088,1.071-0.2l0.12,0.504    c-0.248,0.112-0.672,0.24-1.287,0.24c-1.191,0-1.903-0.784-1.903-1.951s0.688-2.087,1.815-2.087c1.264,0,1.599,1.112,1.599,1.823    c0,0.144-0.016,0.256-0.024,0.328H159.753z M161.815,16.73c0.008-0.448-0.184-1.144-0.975-1.144c-0.712,0-1.023,0.656-1.08,1.144    H161.815z"/>
		<path d="M163.273,18.321c0.208,0.136,0.576,0.28,0.927,0.28c0.512,0,0.752-0.256,0.752-0.576c0-0.335-0.2-0.52-0.72-0.711    c-0.696-0.248-1.023-0.632-1.023-1.095c0-0.624,0.504-1.136,1.335-1.136c0.392,0,0.736,0.112,0.952,0.24l-0.176,0.512    c-0.152-0.096-0.432-0.224-0.792-0.224c-0.416,0-0.648,0.24-0.648,0.528c0,0.32,0.232,0.464,0.736,0.656    c0.671,0.256,1.016,0.591,1.016,1.167c0,0.68-0.528,1.16-1.447,1.16c-0.424,0-0.816-0.104-1.087-0.264L163.273,18.321z"/>
		<path d="M166.929,17.234c0.016,0.952,0.624,1.343,1.327,1.343c0.504,0,0.808-0.088,1.071-0.2l0.12,0.504    c-0.248,0.112-0.672,0.24-1.287,0.24c-1.191,0-1.903-0.784-1.903-1.951s0.688-2.087,1.815-2.087c1.264,0,1.599,1.112,1.599,1.823    c0,0.144-0.016,0.256-0.024,0.328H166.929z M168.991,16.73c0.008-0.448-0.184-1.144-0.975-1.144c-0.712,0-1.023,0.656-1.08,1.144    H168.991z"/>
		<path d="M170.544,16.378c0-0.456-0.008-0.848-0.032-1.207h0.616l0.024,0.759h0.032c0.176-0.52,0.6-0.848,1.072-0.848    c0.08,0,0.136,0.008,0.2,0.024v0.664c-0.072-0.016-0.144-0.024-0.24-0.024c-0.496,0-0.848,0.376-0.943,0.904    c-0.016,0.096-0.032,0.208-0.032,0.328v2.063h-0.696V16.378z"/>
		<path d="M174.2,14.06v1.112h1.007v0.536H174.2v2.086c0,0.48,0.136,0.752,0.527,0.752c0.184,0,0.319-0.024,0.408-0.048l0.031,0.527    c-0.136,0.056-0.352,0.096-0.623,0.096c-0.328,0-0.592-0.104-0.76-0.296c-0.2-0.208-0.272-0.552-0.272-1.007v-2.111h-0.599v-0.536    h0.599v-0.928L174.2,14.06z"/>
		<path d="M153.809,27.193c0.312,0.192,0.768,0.352,1.248,0.352c0.711,0,1.127-0.376,1.127-0.919c0-0.504-0.288-0.792-1.015-1.072    c-0.879-0.312-1.423-0.768-1.423-1.527c0-0.84,0.696-1.463,1.743-1.463c0.552,0,0.951,0.128,1.191,0.264l-0.192,0.568    c-0.176-0.096-0.536-0.256-1.023-0.256c-0.736,0-1.016,0.44-1.016,0.808c0,0.504,0.328,0.751,1.071,1.04    c0.912,0.352,1.375,0.792,1.375,1.583c0,0.832-0.616,1.551-1.887,1.551c-0.52,0-1.087-0.152-1.375-0.344L153.809,27.193z"/>
		<path d="M157.825,22.364h0.704v2.415h0.016c0.112-0.2,0.288-0.376,0.504-0.496c0.208-0.12,0.456-0.2,0.719-0.2    c0.52,0,1.352,0.32,1.352,1.655v2.303h-0.704v-2.223c0-0.624-0.232-1.151-0.896-1.151c-0.456,0-0.815,0.32-0.943,0.704    c-0.04,0.096-0.048,0.2-0.048,0.336v2.334h-0.704V22.364z"/>
		<path d="M163.048,23.083c0.008,0.24-0.168,0.432-0.448,0.432c-0.248,0-0.424-0.192-0.424-0.432c0-0.248,0.184-0.439,0.44-0.439    C162.88,22.644,163.048,22.836,163.048,23.083z M162.265,28.041v-3.87h0.704v3.87H162.265z"/>
		<path d="M164.529,26.234c0.016,0.952,0.624,1.343,1.327,1.343c0.504,0,0.808-0.088,1.071-0.2l0.12,0.504    c-0.248,0.112-0.672,0.24-1.288,0.24c-1.191,0-1.903-0.784-1.903-1.951s0.688-2.087,1.815-2.087c1.264,0,1.599,1.112,1.599,1.823    c0,0.144-0.016,0.256-0.024,0.328H164.529z M166.592,25.73c0.008-0.448-0.184-1.144-0.976-1.144c-0.712,0-1.023,0.656-1.08,1.144    H166.592z"/>
		<path d="M168.145,22.364h0.704v5.677h-0.704V22.364z"/>
		<path d="M173.375,22.364v4.677c0,0.344,0.008,0.736,0.032,1h-0.632l-0.032-0.671h-0.016c-0.216,0.432-0.688,0.759-1.319,0.759    c-0.936,0-1.655-0.792-1.655-1.967c-0.008-1.288,0.792-2.079,1.735-2.079c0.591,0,0.991,0.28,1.167,0.592h0.016v-2.311H173.375z     M172.671,25.746c0-0.088-0.008-0.208-0.032-0.295c-0.104-0.448-0.488-0.816-1.016-0.816c-0.728,0-1.159,0.64-1.159,1.495    c0,0.784,0.384,1.431,1.143,1.431c0.472,0,0.904-0.312,1.032-0.839c0.024-0.096,0.032-0.192,0.032-0.304V25.746z"/>
		<path d="M174.009,29.024c0.176-0.472,0.392-1.327,0.479-1.911l0.784-0.08c-0.185,0.68-0.536,1.567-0.76,1.943L174.009,29.024z"/>
		<path d="M158.097,32.5h-0.016l-0.904,0.488l-0.136-0.536l1.135-0.608h0.6v5.197h-0.679V32.5z"/>
		<path d="M161.081,36.545c0.152,0.016,0.328,0,0.568-0.024c0.408-0.056,0.792-0.224,1.087-0.504    c0.344-0.312,0.591-0.768,0.688-1.383H163.4c-0.288,0.352-0.704,0.56-1.224,0.56c-0.935,0-1.535-0.704-1.535-1.591    c0-0.983,0.712-1.847,1.775-1.847c1.063,0,1.719,0.864,1.719,2.191c0,1.144-0.384,1.943-0.896,2.438    c-0.4,0.392-0.951,0.632-1.511,0.696c-0.256,0.04-0.479,0.048-0.647,0.04V36.545z M161.337,33.555c0,0.647,0.392,1.103,1,1.103    c0.472,0,0.839-0.232,1.023-0.543c0.04-0.064,0.064-0.144,0.064-0.256c0-0.888-0.328-1.567-1.063-1.567    C161.761,32.292,161.337,32.819,161.337,33.555z"/>
		<path d="M165.185,36.545c0.152,0.016,0.328,0,0.568-0.024c0.408-0.056,0.792-0.224,1.087-0.504    c0.344-0.312,0.591-0.768,0.688-1.383h-0.024c-0.288,0.352-0.704,0.56-1.224,0.56c-0.936,0-1.535-0.704-1.535-1.591    c0-0.983,0.712-1.847,1.775-1.847s1.719,0.864,1.719,2.191c0,1.144-0.384,1.943-0.896,2.438c-0.399,0.392-0.951,0.632-1.511,0.696    c-0.256,0.04-0.479,0.048-0.647,0.04V36.545z M165.441,33.555c0,0.647,0.392,1.103,1,1.103c0.472,0,0.839-0.232,1.023-0.543    c0.04-0.064,0.064-0.144,0.064-0.256c0-0.888-0.328-1.567-1.063-1.567C165.865,32.292,165.441,32.819,165.441,33.555z"/>
		<path d="M170.408,32.5h-0.016l-0.904,0.488l-0.136-0.536l1.135-0.608h0.6v5.197h-0.68V32.5z"/>
	</g>
	<polyline fill="none" stroke="#000000" stroke-width="0.5" stroke-miterlimit="10" points="164.418,39.796 164.418,52.415    190.223,52.415 190.223,74.777  "/>
	<g>
		<path d="M183.652,5.437c-0.312,0.112-0.927,0.296-1.654,0.296c-0.815,0-1.487-0.208-2.016-0.712    c-0.464-0.448-0.751-1.167-0.751-2.007c0.008-1.607,1.111-2.782,2.918-2.782c0.624,0,1.111,0.136,1.344,0.248l-0.168,0.568    c-0.288-0.128-0.647-0.232-1.191-0.232c-1.312,0-2.167,0.815-2.167,2.167c0,1.367,0.823,2.175,2.079,2.175    c0.455,0,0.768-0.064,0.928-0.144V3.406h-1.096v-0.56h1.774V5.437z"/>
		<path d="M188.237,3.71c0,1.431-0.991,2.055-1.927,2.055c-1.048,0-1.855-0.768-1.855-1.991c0-1.295,0.848-2.055,1.919-2.055    C187.485,1.719,188.237,2.526,188.237,3.71z M185.167,3.75c0,0.847,0.487,1.487,1.175,1.487c0.672,0,1.176-0.631,1.176-1.503    c0-0.656-0.328-1.487-1.159-1.487C185.526,2.247,185.167,3.014,185.167,3.75z"/>
		<path d="M192.629,3.71c0,1.431-0.991,2.055-1.927,2.055c-1.048,0-1.855-0.768-1.855-1.991c0-1.295,0.848-2.055,1.919-2.055    C191.877,1.719,192.629,2.526,192.629,3.71z M189.559,3.75c0,0.847,0.487,1.487,1.175,1.487c0.672,0,1.176-0.631,1.176-1.503    c0-0.656-0.328-1.487-1.159-1.487C189.918,2.247,189.559,3.014,189.559,3.75z"/>
		<path d="M196.86,0v4.677c0,0.344,0.008,0.736,0.032,1h-0.632l-0.032-0.671h-0.016c-0.216,0.432-0.688,0.759-1.319,0.759    c-0.936,0-1.655-0.792-1.655-1.967c-0.008-1.288,0.792-2.079,1.735-2.079c0.592,0,0.991,0.28,1.167,0.592h0.017V0H196.86z     M196.157,3.382c0-0.088-0.009-0.208-0.032-0.295c-0.104-0.448-0.488-0.816-1.016-0.816c-0.728,0-1.159,0.64-1.159,1.495    c0,0.784,0.384,1.431,1.144,1.431c0.472,0,0.903-0.312,1.031-0.839c0.023-0.096,0.032-0.192,0.032-0.304V3.382z"/>
		<path d="M198.31,1.807l0.512,1.967c0.112,0.432,0.216,0.832,0.288,1.231h0.024c0.088-0.392,0.216-0.808,0.344-1.224l0.631-1.975    h0.592l0.6,1.935c0.145,0.464,0.256,0.872,0.344,1.264h0.024c0.063-0.392,0.168-0.8,0.296-1.255l0.552-1.943h0.695l-1.247,3.87    h-0.64l-0.592-1.847c-0.136-0.432-0.248-0.815-0.344-1.271h-0.016c-0.097,0.463-0.216,0.863-0.353,1.279l-0.623,1.839h-0.64    l-1.168-3.87H198.31z"/>
		<path d="M207.34,3.71c0,1.431-0.991,2.055-1.927,2.055c-1.048,0-1.855-0.768-1.855-1.991c0-1.295,0.848-2.055,1.919-2.055    C206.588,1.719,207.34,2.526,207.34,3.71z M204.27,3.75c0,0.847,0.487,1.487,1.175,1.487c0.672,0,1.176-0.631,1.176-1.503    c0-0.656-0.328-1.487-1.159-1.487C204.629,2.247,204.27,3.014,204.27,3.75z"/>
		<path d="M211.731,3.71c0,1.431-0.991,2.055-1.927,2.055c-1.048,0-1.855-0.768-1.855-1.991c0-1.295,0.848-2.055,1.919-2.055    C210.979,1.719,211.731,2.526,211.731,3.71z M208.661,3.75c0,0.847,0.487,1.487,1.175,1.487c0.672,0,1.176-0.631,1.176-1.503    c0-0.656-0.328-1.487-1.159-1.487C209.021,2.247,208.661,3.014,208.661,3.75z"/>
		<path d="M215.963,0v4.677c0,0.344,0.008,0.736,0.032,1h-0.632l-0.032-0.671h-0.016c-0.216,0.432-0.688,0.759-1.319,0.759    c-0.936,0-1.655-0.792-1.655-1.967c-0.008-1.288,0.792-2.079,1.735-2.079c0.592,0,0.991,0.28,1.167,0.592h0.017V0H215.963z     M215.26,3.382c0-0.088-0.009-0.208-0.032-0.295c-0.104-0.448-0.488-0.816-1.016-0.816c-0.728,0-1.159,0.64-1.159,1.495    c0,0.784,0.384,1.431,1.144,1.431c0.472,0,0.903-0.312,1.031-0.839c0.023-0.096,0.032-0.192,0.032-0.304V3.382z"/>
		<path d="M216.597,6.66c0.176-0.472,0.392-1.327,0.479-1.911l0.784-0.08c-0.185,0.68-0.536,1.567-0.76,1.943L216.597,6.66z"/>
		<path d="M192.214,10.135h-0.016l-0.903,0.488l-0.136-0.536l1.135-0.608h0.6v5.197h-0.68V10.135z"/>
		<path d="M195.198,14.181c0.152,0.016,0.328,0,0.567-0.024c0.408-0.056,0.792-0.224,1.088-0.504    c0.344-0.312,0.592-0.768,0.688-1.383h-0.024c-0.287,0.352-0.703,0.56-1.223,0.56c-0.936,0-1.535-0.704-1.535-1.591    c0-0.983,0.711-1.847,1.774-1.847s1.72,0.864,1.72,2.191c0,1.144-0.384,1.943-0.896,2.438c-0.4,0.392-0.952,0.632-1.512,0.696    c-0.256,0.04-0.479,0.048-0.647,0.04V14.181z M195.454,11.191c0,0.647,0.392,1.103,0.999,1.103c0.472,0,0.84-0.232,1.023-0.543    c0.04-0.064,0.064-0.144,0.064-0.256c0-0.888-0.328-1.567-1.063-1.567C195.878,9.927,195.454,10.455,195.454,11.191z"/>
		<path d="M201.068,14.677v-1.415h-2.414v-0.464l2.318-3.318h0.76v3.23h0.728v0.552h-0.728v1.415H201.068z M201.068,12.71v-1.735    c0-0.271,0.009-0.543,0.024-0.815h-0.024c-0.159,0.304-0.287,0.528-0.432,0.768l-1.271,1.767v0.016H201.068z"/>
		<path d="M205.172,14.677v-1.415h-2.414v-0.464l2.318-3.318h0.76v3.23h0.728v0.552h-0.728v1.415H205.172z M205.172,12.71v-1.735    c0-0.271,0.009-0.543,0.024-0.815h-0.024c-0.159,0.304-0.287,0.528-0.432,0.768l-1.271,1.767v0.016H205.172z"/>
	</g>
	
		<line fill="none" stroke="#000000" stroke-width="0.5" stroke-miterlimit="10" x1="198.537" y1="17.435" x2="198.537" y2="74.777"/>
</g>
</svg>