<svg xmlns="http://www.w3.org/2000/svg" xmlns:xlink="http://www.w3.org/1999/xlink" version="1.1" x="0px" y="0px" width="233.28px" height="155.545px" viewBox="0 0 233.28 155.545" enable-background="new 0 0 233.28 155.545" xml:space="preserve">
<g id="wide" display="none">
</g>
<g id="text_column">
</g>
<g id="art">
	<g>
		<g>
			
				<line fill="none" stroke="#808080" stroke-width="0.5" stroke-miterlimit="10" x1="20.28" y1="127.462" x2="21.28" y2="127.462"/>
			
				<line fill="none" stroke="#808080" stroke-width="0.5" stroke-miterlimit="10" stroke-dasharray="2.0095,2.0095" x1="23.289" y1="127.462" x2="231.275" y2="127.462"/>
			
				<line fill="none" stroke="#808080" stroke-width="0.5" stroke-miterlimit="10" x1="232.28" y1="127.462" x2="233.28" y2="127.462"/>
		</g>
	</g>
	<g>
		<g>
			
				<line fill="none" stroke="#808080" stroke-width="0.5" stroke-miterlimit="10" x1="20.28" y1="109.462" x2="21.28" y2="109.462"/>
			
				<line fill="none" stroke="#808080" stroke-width="0.5" stroke-miterlimit="10" stroke-dasharray="2.0095,2.0095" x1="23.289" y1="109.462" x2="231.275" y2="109.462"/>
			
				<line fill="none" stroke="#808080" stroke-width="0.5" stroke-miterlimit="10" x1="232.28" y1="109.462" x2="233.28" y2="109.462"/>
		</g>
	</g>
	<g>
		<g>
			<line fill="none" stroke="#808080" stroke-width="0.5" stroke-miterlimit="10" x1="20.28" y1="91.462" x2="21.28" y2="91.462"/>
			
				<line fill="none" stroke="#808080" stroke-width="0.5" stroke-miterlimit="10" stroke-dasharray="2.0095,2.0095" x1="23.289" y1="91.462" x2="231.275" y2="91.462"/>
			
				<line fill="none" stroke="#808080" stroke-width="0.5" stroke-miterlimit="10" x1="232.28" y1="91.462" x2="233.28" y2="91.462"/>
		</g>
	</g>
	<g>
		<g>
			<line fill="none" stroke="#808080" stroke-width="0.5" stroke-miterlimit="10" x1="20.28" y1="73.462" x2="21.28" y2="73.462"/>
			
				<line fill="none" stroke="#808080" stroke-width="0.5" stroke-miterlimit="10" stroke-dasharray="2.0095,2.0095" x1="23.289" y1="73.462" x2="231.275" y2="73.462"/>
			
				<line fill="none" stroke="#808080" stroke-width="0.5" stroke-miterlimit="10" x1="232.28" y1="73.462" x2="233.28" y2="73.462"/>
		</g>
	</g>
	<g>
		<g>
			<line fill="none" stroke="#808080" stroke-width="0.5" stroke-miterlimit="10" x1="20.28" y1="55.462" x2="21.28" y2="55.462"/>
			
				<line fill="none" stroke="#808080" stroke-width="0.5" stroke-miterlimit="10" stroke-dasharray="2.0095,2.0095" x1="23.289" y1="55.462" x2="231.275" y2="55.462"/>
			
				<line fill="none" stroke="#808080" stroke-width="0.5" stroke-miterlimit="10" x1="232.28" y1="55.462" x2="233.28" y2="55.462"/>
		</g>
	</g>
	<g>
		<g>
			<line fill="none" stroke="#808080" stroke-width="0.5" stroke-miterlimit="10" x1="20.28" y1="37.462" x2="21.28" y2="37.462"/>
			
				<line fill="none" stroke="#808080" stroke-width="0.5" stroke-miterlimit="10" stroke-dasharray="2.0095,2.0095" x1="23.289" y1="37.462" x2="231.275" y2="37.462"/>
			
				<line fill="none" stroke="#808080" stroke-width="0.5" stroke-miterlimit="10" x1="232.28" y1="37.462" x2="233.28" y2="37.462"/>
		</g>
	</g>
	<g>
		<g>
			<line fill="none" stroke="#808080" stroke-width="0.5" stroke-miterlimit="10" x1="20.28" y1="19.462" x2="21.28" y2="19.462"/>
			
				<line fill="none" stroke="#808080" stroke-width="0.5" stroke-miterlimit="10" stroke-dasharray="2.0095,2.0095" x1="23.289" y1="19.462" x2="231.275" y2="19.462"/>
			
				<line fill="none" stroke="#808080" stroke-width="0.5" stroke-miterlimit="10" x1="232.28" y1="19.462" x2="233.28" y2="19.462"/>
		</g>
	</g>
	<g>
		<g>
			<line fill="none" stroke="#808080" stroke-width="0.5" stroke-miterlimit="10" x1="20.28" y1="1.462" x2="21.28" y2="1.462"/>
			
				<line fill="none" stroke="#808080" stroke-width="0.5" stroke-miterlimit="10" stroke-dasharray="2.0095,2.0095" x1="23.289" y1="1.462" x2="231.275" y2="1.462"/>
			<line fill="none" stroke="#808080" stroke-width="0.5" stroke-miterlimit="10" x1="232.28" y1="1.462" x2="233.28" y2="1.462"/>
		</g>
	</g>
	<g>
		<path d="M0.324,93.082v-0.783H3.25v-0.027c-0.234-0.162-0.45-0.324-0.648-0.477l-2.277-1.854v-0.972l2.574,2.197l3.493-2.368    v0.928l-2.979,1.999l0.666,0.576h2.313v0.783H0.324z"/>
		<path d="M0.81,87.194c0.271-0.009,0.486,0.189,0.486,0.504c0,0.279-0.216,0.477-0.486,0.477c-0.278,0-0.495-0.207-0.495-0.495    C0.314,87.383,0.531,87.194,0.81,87.194z M6.392,88.077H2.034v-0.792h4.357V88.077z"/>
		<path d="M0,85.964v-0.792h6.392v0.792H0z"/>
		<path d="M4.177,79.837c1.611,0,2.313,1.117,2.313,2.17c0,1.179-0.864,2.088-2.241,2.088c-1.458,0-2.313-0.954-2.313-2.161    C1.936,80.684,2.845,79.837,4.177,79.837z M4.222,83.294c0.954,0,1.675-0.549,1.675-1.323c0-0.756-0.711-1.323-1.692-1.323    c-0.738,0-1.675,0.369-1.675,1.305C2.529,82.89,3.394,83.294,4.222,83.294z"/>
		<path d="M3.214,78.781c-0.45,0-0.819,0.009-1.18,0.036v-0.693l0.702-0.036v-0.027c-0.414-0.243-0.801-0.648-0.801-1.368    c0-0.594,0.359-1.044,0.873-1.233v-0.018c-0.243-0.135-0.433-0.306-0.567-0.486c-0.198-0.261-0.306-0.549-0.306-0.963    c0-0.576,0.378-1.431,1.891-1.431h2.565v0.774H3.925c-0.837,0-1.342,0.306-1.342,0.945c0,0.45,0.334,0.801,0.721,0.937    c0.108,0.036,0.252,0.063,0.396,0.063h2.691v0.774h-2.61c-0.693,0-1.198,0.306-1.198,0.91c0,0.495,0.396,0.855,0.793,0.981    c0.117,0.045,0.252,0.063,0.387,0.063h2.629v0.774H3.214z"/>
		<path d="M4.357,70.757c1.071-0.018,1.512-0.703,1.512-1.495c0-0.567-0.099-0.909-0.225-1.207l0.567-0.135    c0.126,0.279,0.27,0.756,0.27,1.449c0,1.341-0.882,2.143-2.196,2.143s-2.35-0.774-2.35-2.043c0-1.422,1.251-1.8,2.053-1.8    c0.162,0,0.288,0.018,0.369,0.027V70.757z M3.79,68.435c-0.504-0.009-1.288,0.207-1.288,1.098c0,0.801,0.738,1.152,1.288,1.215    V68.435z"/>
		<path d="M0.783,65.666h1.251v-1.134h0.604v1.134h2.35c0.54,0,0.846-0.153,0.846-0.594c0-0.207-0.026-0.36-0.054-0.459l0.595-0.036    c0.062,0.153,0.107,0.396,0.107,0.702c0,0.369-0.117,0.666-0.333,0.855c-0.234,0.225-0.621,0.306-1.134,0.306H2.638v0.675H2.034    V66.44H0.99L0.783,65.666z"/>
		<path d="M4.357,63.234c1.071-0.018,1.512-0.702,1.512-1.495c0-0.567-0.099-0.909-0.225-1.207l0.567-0.135    c0.126,0.279,0.27,0.756,0.27,1.449c0,1.341-0.882,2.143-2.196,2.143s-2.35-0.774-2.35-2.043c0-1.422,1.251-1.8,2.053-1.8    c0.162,0,0.288,0.018,0.369,0.027V63.234z M3.79,60.912c-0.504-0.009-1.288,0.207-1.288,1.098c0,0.801,0.738,1.152,1.288,1.215    V60.912z"/>
		<path d="M3.394,59.115c-0.513,0-0.954,0.009-1.359,0.036v-0.693l0.855-0.027v-0.036c-0.585-0.198-0.954-0.675-0.954-1.207    c0-0.09,0.009-0.153,0.026-0.225H2.71c-0.019,0.081-0.027,0.162-0.027,0.27c0,0.558,0.423,0.954,1.018,1.062    c0.107,0.018,0.233,0.036,0.369,0.036h2.322v0.783H3.394z"/>
		<path d="M5.581,56.173c0.153-0.234,0.315-0.648,0.315-1.044c0-0.576-0.288-0.847-0.648-0.847c-0.378,0-0.585,0.225-0.801,0.811    c-0.279,0.783-0.712,1.152-1.233,1.152c-0.702,0-1.278-0.567-1.278-1.503c0-0.441,0.126-0.828,0.27-1.071l0.576,0.198    c-0.107,0.171-0.252,0.486-0.252,0.892c0,0.468,0.271,0.729,0.595,0.729c0.359,0,0.521-0.261,0.738-0.828    c0.288-0.756,0.666-1.144,1.313-1.144c0.766,0,1.306,0.594,1.306,1.629c0,0.478-0.117,0.918-0.297,1.225L5.581,56.173z"/>
	</g>
	<g>
		<path d="M13.211,3.724c0-0.616,0.368-1.052,0.968-1.307l-0.007-0.022c-0.541-0.256-0.773-0.676-0.773-1.096    C13.398,0.525,14.052,0,14.908,0c0.946,0,1.418,0.593,1.418,1.201c0,0.412-0.203,0.855-0.803,1.141v0.022    c0.608,0.24,0.984,0.668,0.984,1.262c0,0.848-0.729,1.419-1.659,1.419C13.827,5.045,13.211,4.437,13.211,3.724z M15.838,3.693    c0-0.594-0.413-0.879-1.074-1.066c-0.57,0.165-0.878,0.541-0.878,1.006c-0.022,0.496,0.353,0.932,0.976,0.932    C15.456,4.564,15.838,4.196,15.838,3.693z M14.021,1.253c0,0.488,0.368,0.751,0.931,0.901c0.42-0.143,0.743-0.443,0.743-0.886    c0-0.391-0.233-0.796-0.826-0.796C14.322,0.473,14.021,0.833,14.021,1.253z"/>
		<path d="M16.439,18.082v0.436l-2.125,4.444h-0.683l2.117-4.316V18.63h-2.388v-0.548H16.439z"/>
		<path d="M16.056,36.548c-0.135-0.008-0.308,0-0.496,0.03c-1.036,0.172-1.584,0.931-1.696,1.733h0.022    c0.232-0.308,0.638-0.562,1.179-0.562c0.863,0,1.471,0.623,1.471,1.576c0,0.894-0.608,1.72-1.622,1.72    c-1.043,0-1.727-0.812-1.727-2.08c0-0.961,0.345-1.719,0.826-2.199c0.405-0.398,0.946-0.646,1.562-0.721    c0.195-0.03,0.36-0.038,0.48-0.038V36.548z M15.869,39.363c0-0.698-0.398-1.119-1.006-1.119c-0.397,0-0.766,0.248-0.946,0.601    c-0.045,0.075-0.075,0.173-0.075,0.293c0.015,0.804,0.383,1.396,1.074,1.396C15.485,40.534,15.869,40.061,15.869,39.363z"/>
		<path d="M16.184,54.638h-1.862l-0.188,1.254c0.113-0.016,0.218-0.03,0.398-0.03c0.375,0,0.75,0.083,1.051,0.263    c0.383,0.218,0.698,0.639,0.698,1.254c0,0.953-0.758,1.667-1.816,1.667c-0.533,0-0.984-0.15-1.216-0.301l0.165-0.503    c0.203,0.12,0.601,0.271,1.043,0.271c0.623,0,1.156-0.405,1.156-1.059c-0.008-0.631-0.428-1.081-1.404-1.081    c-0.278,0-0.496,0.03-0.676,0.053l0.315-2.343h2.334V54.638z"/>
		<path d="M15.313,76.962v-1.329h-2.267v-0.436l2.177-3.115h0.713v3.033h0.683v0.518h-0.683v1.329H15.313z M15.313,75.115v-1.629    c0-0.256,0.007-0.511,0.022-0.766h-0.022c-0.15,0.285-0.271,0.495-0.405,0.721L13.714,75.1v0.016H15.313z"/>
		<path d="M13.429,94.204c0.188,0.12,0.623,0.308,1.081,0.308c0.848,0,1.111-0.541,1.104-0.946    c-0.008-0.683-0.623-0.976-1.261-0.976h-0.368v-0.496h0.368c0.48,0,1.088-0.247,1.088-0.825c0-0.391-0.248-0.736-0.855-0.736    c-0.391,0-0.766,0.173-0.976,0.323l-0.173-0.48C13.691,90.188,14.187,90,14.712,90c0.961,0,1.396,0.57,1.396,1.163    c0,0.503-0.3,0.931-0.901,1.148v0.016c0.601,0.12,1.088,0.57,1.088,1.253c0,0.781-0.608,1.465-1.779,1.465    c-0.548,0-1.028-0.173-1.269-0.331L13.429,94.204z"/>
		<path d="M13.271,112.962v-0.405l0.518-0.503c1.246-1.187,1.809-1.817,1.816-2.553c0-0.495-0.24-0.953-0.968-0.953    c-0.443,0-0.811,0.225-1.036,0.413l-0.21-0.466c0.338-0.285,0.818-0.495,1.381-0.495c1.051,0,1.494,0.721,1.494,1.418    c0,0.901-0.653,1.63-1.682,2.62l-0.391,0.36v0.016h2.192v0.548H13.271z"/>
		<path d="M14.705,126.697H14.69l-0.849,0.458l-0.127-0.503l1.066-0.57h0.563v4.88h-0.638V126.697z"/>
		<path d="M16.514,146.47c0,1.659-0.616,2.575-1.697,2.575c-0.953,0-1.599-0.894-1.614-2.508c0-1.637,0.706-2.537,1.697-2.537    C15.929,144,16.514,144.915,16.514,146.47z M13.864,146.545c0,1.269,0.39,1.989,0.991,1.989c0.676,0,0.999-0.788,0.999-2.034    c0-1.201-0.308-1.99-0.991-1.99C14.284,144.51,13.864,145.216,13.864,146.545z"/>
	</g>
	<line fill="none" stroke="#000000" stroke-width="0.5" stroke-miterlimit="10" x1="20.28" y1="145.462" x2="233.28" y2="145.462"/>
	
		<rect x="30.28" y="141.311" fill="#A7A9AC" stroke="#000000" stroke-width="0.5" stroke-miterlimit="10" width="13" height="4.151"/>
	<g>
		<path d="M30.857,151.197h-0.015l-0.849,0.458l-0.127-0.503l1.066-0.57h0.563v4.88h-0.638V151.197z"/>
		<path d="M33.653,154.996c0.143,0.016,0.308,0,0.533-0.022c0.383-0.052,0.743-0.21,1.021-0.473    c0.323-0.293,0.555-0.721,0.646-1.299H35.83c-0.271,0.33-0.661,0.525-1.149,0.525c-0.878,0-1.441-0.66-1.441-1.494    c0-0.923,0.668-1.733,1.667-1.733c0.998,0,1.614,0.811,1.614,2.057c0,1.073-0.36,1.824-0.841,2.29    c-0.375,0.367-0.893,0.593-1.419,0.652c-0.24,0.038-0.45,0.046-0.608,0.038V154.996z M33.893,152.188    c0,0.608,0.368,1.036,0.938,1.036c0.443,0,0.788-0.218,0.961-0.511c0.038-0.06,0.06-0.135,0.06-0.24    c0-0.833-0.308-1.471-0.999-1.471C34.291,151.003,33.893,151.498,33.893,152.188z"/>
		<path d="M39.159,155.462v-1.329h-2.267v-0.436l2.177-3.115h0.713v3.033h0.683v0.518h-0.683v1.329H39.159z M39.159,153.615v-1.629    c0-0.256,0.007-0.511,0.022-0.766h-0.022c-0.15,0.285-0.271,0.495-0.405,0.721L37.56,153.6v0.016H39.159z"/>
		<path d="M43.877,151.138h-1.862l-0.188,1.254c0.113-0.016,0.218-0.03,0.398-0.03c0.375,0,0.75,0.083,1.051,0.263    c0.383,0.218,0.698,0.639,0.698,1.254c0,0.953-0.758,1.667-1.817,1.667c-0.533,0-0.983-0.15-1.216-0.301l0.165-0.503    c0.203,0.12,0.601,0.271,1.043,0.271c0.623,0,1.156-0.405,1.156-1.059c-0.007-0.631-0.428-1.081-1.404-1.081    c-0.278,0-0.496,0.03-0.676,0.053l0.315-2.343h2.334V151.138z"/>
	</g>
	<g>
		<path d="M60.857,151.197h-0.015l-0.849,0.458l-0.127-0.503l1.066-0.57h0.563v4.88h-0.638V151.197z"/>
		<path d="M63.653,154.996c0.143,0.016,0.308,0,0.533-0.022c0.383-0.052,0.743-0.21,1.021-0.473    c0.323-0.293,0.555-0.721,0.646-1.299H65.83c-0.271,0.33-0.661,0.525-1.149,0.525c-0.878,0-1.441-0.66-1.441-1.494    c0-0.923,0.668-1.733,1.667-1.733c0.998,0,1.614,0.811,1.614,2.057c0,1.073-0.36,1.824-0.841,2.29    c-0.375,0.367-0.893,0.593-1.419,0.652c-0.24,0.038-0.45,0.046-0.608,0.038V154.996z M63.893,152.188    c0,0.608,0.368,1.036,0.938,1.036c0.443,0,0.788-0.218,0.961-0.511c0.038-0.06,0.06-0.135,0.06-0.24    c0-0.833-0.308-1.471-0.999-1.471C64.291,151.003,63.893,151.498,63.893,152.188z"/>
		<path d="M70.03,151.138h-1.862l-0.188,1.254c0.113-0.016,0.218-0.03,0.398-0.03c0.375,0,0.75,0.083,1.051,0.263    c0.383,0.218,0.698,0.639,0.698,1.254c0,0.953-0.758,1.667-1.816,1.667c-0.533,0-0.984-0.15-1.216-0.301l0.165-0.503    c0.203,0.12,0.601,0.271,1.043,0.271c0.623,0,1.156-0.405,1.156-1.059c-0.008-0.631-0.428-1.081-1.404-1.081    c-0.278,0-0.496,0.03-0.676,0.053l0.315-2.343h2.334V151.138z"/>
		<path d="M73.877,151.138h-1.862l-0.188,1.254c0.113-0.016,0.218-0.03,0.398-0.03c0.375,0,0.75,0.083,1.051,0.263    c0.383,0.218,0.698,0.639,0.698,1.254c0,0.953-0.758,1.667-1.817,1.667c-0.533,0-0.983-0.15-1.216-0.301l0.165-0.503    c0.203,0.12,0.601,0.271,1.043,0.271c0.623,0,1.156-0.405,1.156-1.059c-0.007-0.631-0.428-1.081-1.404-1.081    c-0.278,0-0.496,0.03-0.676,0.053l0.315-2.343h2.334V151.138z"/>
	</g>
	<g>
		<path d="M90.857,151.197h-0.015l-0.849,0.458l-0.127-0.503l1.066-0.57h0.563v4.88h-0.638V151.197z"/>
		<path d="M93.653,154.996c0.143,0.016,0.308,0,0.533-0.022c0.383-0.052,0.743-0.21,1.021-0.473    c0.323-0.293,0.555-0.721,0.646-1.299H95.83c-0.271,0.33-0.661,0.525-1.149,0.525c-0.878,0-1.441-0.66-1.441-1.494    c0-0.923,0.668-1.733,1.667-1.733c0.998,0,1.614,0.811,1.614,2.057c0,1.073-0.36,1.824-0.841,2.29    c-0.375,0.367-0.893,0.593-1.419,0.652c-0.24,0.038-0.45,0.046-0.608,0.038V154.996z M93.893,152.188    c0,0.608,0.368,1.036,0.938,1.036c0.443,0,0.788-0.218,0.961-0.511c0.038-0.06,0.06-0.135,0.06-0.24    c0-0.833-0.308-1.471-0.999-1.471C94.291,151.003,93.893,151.498,93.893,152.188z"/>
		<path d="M99.902,151.048c-0.135-0.008-0.308,0-0.496,0.03c-1.036,0.172-1.584,0.931-1.696,1.733h0.022    c0.232-0.308,0.638-0.562,1.179-0.562c0.863,0,1.471,0.623,1.471,1.576c0,0.894-0.608,1.72-1.622,1.72    c-1.043,0-1.727-0.812-1.727-2.08c0-0.961,0.345-1.719,0.826-2.199c0.405-0.398,0.946-0.646,1.562-0.721    c0.195-0.03,0.36-0.038,0.48-0.038V151.048z M99.715,153.863c0-0.698-0.398-1.119-1.006-1.119c-0.397,0-0.766,0.248-0.946,0.601    c-0.045,0.075-0.075,0.173-0.075,0.293c0.015,0.804,0.383,1.396,1.074,1.396C99.332,155.034,99.715,154.561,99.715,153.863z"/>
		<path d="M103.877,151.138h-1.862l-0.188,1.254c0.113-0.016,0.218-0.03,0.398-0.03c0.375,0,0.75,0.083,1.051,0.263    c0.383,0.218,0.698,0.639,0.698,1.254c0,0.953-0.758,1.667-1.817,1.667c-0.533,0-0.983-0.15-1.216-0.301l0.165-0.503    c0.203,0.12,0.601,0.271,1.043,0.271c0.623,0,1.156-0.405,1.156-1.059c-0.007-0.631-0.428-1.081-1.404-1.081    c-0.278,0-0.496,0.03-0.676,0.053l0.315-2.343h2.334V151.138z"/>
	</g>
	
		<rect x="120.28" y="109.129" fill="#A7A9AC" stroke="#000000" stroke-width="0.5" stroke-miterlimit="10" width="13" height="36.333"/>
	<g>
		<path d="M120.857,151.197h-0.015l-0.849,0.458l-0.127-0.503l1.066-0.57h0.563v4.88h-0.638V151.197z"/>
		<path d="M123.653,154.996c0.143,0.016,0.308,0,0.533-0.022c0.383-0.052,0.743-0.21,1.021-0.473    c0.323-0.293,0.555-0.721,0.646-1.299h-0.022c-0.271,0.33-0.661,0.525-1.149,0.525c-0.878,0-1.441-0.66-1.441-1.494    c0-0.923,0.668-1.733,1.667-1.733c0.998,0,1.614,0.811,1.614,2.057c0,1.073-0.36,1.824-0.841,2.29    c-0.375,0.367-0.893,0.593-1.419,0.652c-0.24,0.038-0.45,0.046-0.608,0.038V154.996z M123.893,152.188    c0,0.608,0.368,1.036,0.938,1.036c0.443,0,0.788-0.218,0.961-0.511c0.038-0.06,0.06-0.135,0.06-0.24    c0-0.833-0.308-1.471-0.999-1.471C124.291,151.003,123.893,151.498,123.893,152.188z"/>
		<path d="M130.285,150.582v0.436l-2.125,4.444h-0.683l2.117-4.316v-0.016h-2.388v-0.548H130.285z"/>
		<path d="M133.877,151.138h-1.862l-0.188,1.254c0.113-0.016,0.218-0.03,0.398-0.03c0.375,0,0.75,0.083,1.051,0.263    c0.383,0.218,0.698,0.639,0.698,1.254c0,0.953-0.758,1.667-1.817,1.667c-0.533,0-0.983-0.15-1.216-0.301l0.165-0.503    c0.203,0.12,0.601,0.271,1.043,0.271c0.623,0,1.156-0.405,1.156-1.059c-0.007-0.631-0.428-1.081-1.404-1.081    c-0.278,0-0.496,0.03-0.676,0.053l0.315-2.343h2.334V151.138z"/>
	</g>
	
		<rect x="150.28" y="84.81" fill="#A7A9AC" stroke="#000000" stroke-width="0.5" stroke-miterlimit="10" width="13" height="60.652"/>
	<g>
		<path d="M150.856,151.197h-0.015l-0.849,0.458l-0.127-0.503l1.065-0.57h0.563v4.88h-0.639V151.197z"/>
		<path d="M153.653,154.996c0.143,0.016,0.307,0,0.533-0.022c0.383-0.052,0.742-0.21,1.021-0.473    c0.323-0.293,0.556-0.721,0.646-1.299h-0.022c-0.271,0.33-0.661,0.525-1.149,0.525c-0.877,0-1.441-0.66-1.441-1.494    c0-0.923,0.669-1.733,1.668-1.733c0.998,0,1.613,0.811,1.613,2.057c0,1.073-0.36,1.824-0.841,2.29    c-0.376,0.367-0.894,0.593-1.419,0.652c-0.24,0.038-0.45,0.046-0.607,0.038V154.996z M153.894,152.188    c0,0.608,0.367,1.036,0.938,1.036c0.443,0,0.789-0.218,0.961-0.511c0.038-0.06,0.061-0.135,0.061-0.24    c0-0.833-0.309-1.471-0.998-1.471C154.291,151.003,153.894,151.498,153.894,152.188z"/>
		<path d="M157.058,154.224c0-0.616,0.367-1.052,0.968-1.307l-0.007-0.022c-0.541-0.256-0.773-0.676-0.773-1.096    c0-0.773,0.652-1.299,1.509-1.299c0.946,0,1.419,0.593,1.419,1.201c0,0.412-0.203,0.855-0.804,1.141v0.022    c0.608,0.24,0.983,0.668,0.983,1.262c0,0.848-0.729,1.419-1.658,1.419C157.673,155.545,157.058,154.937,157.058,154.224z     M159.685,154.193c0-0.594-0.412-0.879-1.074-1.066c-0.57,0.165-0.877,0.541-0.877,1.006c-0.023,0.496,0.352,0.932,0.975,0.932    C159.302,155.064,159.685,154.696,159.685,154.193z M157.868,151.753c0,0.488,0.367,0.751,0.931,0.901    c0.421-0.143,0.743-0.443,0.743-0.886c0-0.391-0.232-0.796-0.826-0.796C158.168,150.973,157.868,151.333,157.868,151.753z"/>
		<path d="M163.877,151.138h-1.862l-0.188,1.254c0.113-0.016,0.219-0.03,0.398-0.03c0.375,0,0.75,0.083,1.051,0.263    c0.383,0.218,0.698,0.639,0.698,1.254c0,0.953-0.759,1.667-1.817,1.667c-0.532,0-0.982-0.15-1.215-0.301l0.164-0.503    c0.203,0.12,0.602,0.271,1.044,0.271c0.623,0,1.156-0.405,1.156-1.059c-0.007-0.631-0.429-1.081-1.403-1.081    c-0.278,0-0.496,0.03-0.676,0.053l0.314-2.343h2.335V151.138z"/>
	</g>
	
		<rect x="180.28" y="76.926" fill="#A7A9AC" stroke="#000000" stroke-width="0.5" stroke-miterlimit="10" width="13" height="68.536"/>
	<g>
		<path d="M180.856,151.197h-0.015l-0.849,0.458l-0.127-0.503l1.065-0.57h0.563v4.88h-0.639V151.197z"/>
		<path d="M183.653,154.996c0.143,0.016,0.307,0,0.533-0.022c0.383-0.052,0.742-0.21,1.021-0.473    c0.323-0.293,0.556-0.721,0.646-1.299h-0.022c-0.271,0.33-0.661,0.525-1.149,0.525c-0.877,0-1.441-0.66-1.441-1.494    c0-0.923,0.669-1.733,1.668-1.733c0.998,0,1.613,0.811,1.613,2.057c0,1.073-0.36,1.824-0.841,2.29    c-0.376,0.367-0.894,0.593-1.419,0.652c-0.24,0.038-0.45,0.046-0.607,0.038V154.996z M183.894,152.188    c0,0.608,0.367,1.036,0.938,1.036c0.443,0,0.789-0.218,0.961-0.511c0.038-0.06,0.061-0.135,0.061-0.24    c0-0.833-0.309-1.471-0.998-1.471C184.291,151.003,183.894,151.498,183.894,152.188z"/>
		<path d="M187.5,154.996c0.143,0.016,0.308,0,0.533-0.022c0.383-0.052,0.743-0.21,1.021-0.473c0.323-0.293,0.556-0.721,0.646-1.299    h-0.023c-0.27,0.33-0.66,0.525-1.148,0.525c-0.879,0-1.441-0.66-1.441-1.494c0-0.923,0.668-1.733,1.667-1.733    s1.614,0.811,1.614,2.057c0,1.073-0.361,1.824-0.842,2.29c-0.375,0.367-0.893,0.593-1.418,0.652    c-0.24,0.038-0.451,0.046-0.608,0.038V154.996z M187.74,152.188c0,0.608,0.368,1.036,0.938,1.036c0.443,0,0.788-0.218,0.961-0.511    c0.037-0.06,0.061-0.135,0.061-0.24c0-0.833-0.309-1.471-0.999-1.471C188.138,151.003,187.74,151.498,187.74,152.188z"/>
		<path d="M193.877,151.138h-1.862l-0.188,1.254c0.113-0.016,0.219-0.03,0.398-0.03c0.375,0,0.75,0.083,1.051,0.263    c0.383,0.218,0.698,0.639,0.698,1.254c0,0.953-0.759,1.667-1.817,1.667c-0.532,0-0.982-0.15-1.215-0.301l0.164-0.503    c0.203,0.12,0.602,0.271,1.044,0.271c0.623,0,1.156-0.405,1.156-1.059c-0.007-0.631-0.429-1.081-1.403-1.081    c-0.278,0-0.496,0.03-0.676,0.053l0.314-2.343h2.335V151.138z"/>
	</g>
	
		<rect x="210.28" y="22.067" fill="#A7A9AC" stroke="#000000" stroke-width="0.5" stroke-miterlimit="10" width="13" height="123.395"/>
	<g>
		<path d="M209.423,155.462v-0.405l0.518-0.503c1.246-1.187,1.81-1.817,1.816-2.553c0-0.495-0.24-0.953-0.968-0.953    c-0.442,0-0.811,0.225-1.036,0.413l-0.21-0.466c0.338-0.285,0.818-0.495,1.382-0.495c1.051,0,1.494,0.721,1.494,1.418    c0,0.901-0.654,1.63-1.682,2.62l-0.391,0.36v0.016h2.191v0.548H209.423z"/>
		<path d="M216.513,152.97c0,1.659-0.615,2.575-1.696,2.575c-0.954,0-1.599-0.894-1.614-2.508c0-1.637,0.706-2.537,1.697-2.537    C215.928,150.5,216.513,151.415,216.513,152.97z M213.862,153.045c0,1.269,0.391,1.989,0.992,1.989    c0.676,0,0.998-0.788,0.998-2.034c0-1.201-0.309-1.99-0.991-1.99C214.284,151.01,213.862,151.716,213.862,153.045z"/>
		<path d="M220.36,152.97c0,1.659-0.615,2.575-1.697,2.575c-0.953,0-1.599-0.894-1.613-2.508c0-1.637,0.705-2.537,1.696-2.537    C219.774,150.5,220.36,151.415,220.36,152.97z M217.71,153.045c0,1.269,0.391,1.989,0.991,1.989c0.676,0,0.999-0.788,0.999-2.034    c0-1.201-0.309-1.99-0.992-1.99C218.13,151.01,217.71,151.716,217.71,153.045z"/>
		<path d="M223.877,151.138h-1.862l-0.188,1.254c0.113-0.016,0.219-0.03,0.398-0.03c0.375,0,0.75,0.083,1.051,0.263    c0.383,0.218,0.698,0.639,0.698,1.254c0,0.953-0.759,1.667-1.817,1.667c-0.532,0-0.982-0.15-1.215-0.301l0.164-0.503    c0.203,0.12,0.602,0.271,1.044,0.271c0.623,0,1.156-0.405,1.156-1.059c-0.007-0.631-0.429-1.081-1.403-1.081    c-0.278,0-0.496,0.03-0.676,0.053l0.314-2.343h2.335V151.138z"/>
	</g>
</g>
</svg>