<svg xmlns="http://www.w3.org/2000/svg" xmlns:xlink="http://www.w3.org/1999/xlink" version="1.1" id="Layer_1" x="0px" y="0px" width="311.071px" height="195.954px" viewBox="0 0 311.071 195.954" enable-background="new 0 0 311.071 195.954" xml:space="preserve">
<rect x="32.413" y="2.754" fill="#FFFFFF" width="278.653" height="168.862"/>
<polyline fill="none" stroke="#000000" stroke-width="1.4499" stroke-linejoin="round" stroke-miterlimit="10" points="  43.784,100.028 109.524,87.348 172.613,73.886 238.195,73.984 301.448,43.053 "/>
<polyline fill="none" stroke="#000000" stroke-width="1.4499" stroke-linejoin="round" stroke-miterlimit="10" points="  43.333,167.586 111.522,164.916 168.296,160.115 233.667,156.487 296.181,152.838 "/>
<line fill="none" stroke="#000000" stroke-width="0.7548" stroke-linejoin="round" stroke-miterlimit="10" x1="43.333" y1="169.493" x2="43.333" y2="165.686"/>
<line fill="none" stroke="#000000" stroke-width="0.7548" stroke-linejoin="round" stroke-miterlimit="10" x1="111.522" y1="167.375" x2="111.522" y2="162.46"/>
<line fill="none" stroke="#000000" stroke-width="0.7548" stroke-linejoin="round" stroke-miterlimit="10" x1="168.296" y1="163.345" x2="168.296" y2="156.878"/>
<line fill="none" stroke="#000000" stroke-width="0.7548" stroke-linejoin="round" stroke-miterlimit="10" x1="233.667" y1="160.164" x2="233.667" y2="152.805"/>
<line fill="none" stroke="#000000" stroke-width="0.7548" stroke-linejoin="round" stroke-miterlimit="10" x1="296.181" y1="156.917" x2="296.181" y2="148.765"/>
<line fill="none" stroke="#000000" stroke-width="0.7548" stroke-linejoin="round" stroke-miterlimit="10" x1="43.784" y1="108.5" x2="43.784" y2="91.551"/>
<line fill="none" stroke="#000000" stroke-width="0.7548" stroke-linejoin="round" stroke-miterlimit="10" x1="109.524" y1="96.324" x2="109.524" y2="78.372"/>
<line fill="none" stroke="#000000" stroke-width="0.7548" stroke-linejoin="round" stroke-miterlimit="10" x1="172.613" y1="83.302" x2="172.613" y2="64.47"/>
<line fill="none" stroke="#000000" stroke-width="0.7548" stroke-linejoin="round" stroke-miterlimit="10" x1="238.195" y1="83.389" x2="238.195" y2="64.573"/>
<line fill="none" stroke="#000000" stroke-width="0.7548" stroke-linejoin="round" stroke-miterlimit="10" x1="301.448" y1="53.142" x2="301.448" y2="32.958"/>
<rect x="41.655" y="165.915" width="3.351" height="3.351"/>
<rect x="41.655" y="165.915" fill="none" stroke="#000000" stroke-width="0.7711" stroke-linecap="round" stroke-linejoin="round" stroke-miterlimit="10" width="3.351" height="3.351"/>
<rect x="109.844" y="163.243" width="3.351" height="3.351"/>
<rect x="109.844" y="163.243" fill="none" stroke="#000000" stroke-width="0.7711" stroke-linecap="round" stroke-linejoin="round" stroke-miterlimit="10" width="3.351" height="3.351"/>
<rect x="166.624" y="158.437" width="3.351" height="3.351"/>
<rect x="166.624" y="158.437" fill="none" stroke="#000000" stroke-width="0.7711" stroke-linecap="round" stroke-linejoin="round" stroke-miterlimit="10" width="3.351" height="3.351"/>
<rect x="231.989" y="154.809" width="3.35" height="3.351"/>
<rect x="231.989" y="154.809" fill="none" stroke="#000000" stroke-width="0.7711" stroke-linecap="round" stroke-linejoin="round" stroke-miterlimit="10" width="3.35" height="3.351"/>
<rect x="294.509" y="151.166" width="3.351" height="3.351"/>
<rect x="294.509" y="151.166" fill="none" stroke="#000000" stroke-width="0.7711" stroke-linecap="round" stroke-linejoin="round" stroke-miterlimit="10" width="3.351" height="3.351"/>
<path d="M41.894,100.028c0-1.043,0.853-1.896,1.89-1.896c1.042,0,1.895,0.853,1.895,1.896c0,1.037-0.853,1.89-1.895,1.89  C42.747,101.917,41.894,101.065,41.894,100.028"/>
<path fill="none" stroke="#000000" stroke-width="0.7711" stroke-linecap="round" stroke-linejoin="round" stroke-miterlimit="10" d="  M41.894,100.028c0-1.043,0.853-1.896,1.89-1.896c1.042,0,1.895,0.853,1.895,1.896c0,1.037-0.853,1.89-1.895,1.89  C42.747,101.917,41.894,101.065,41.894,100.028"/>
<path d="M107.634,87.348c0-1.038,0.853-1.89,1.89-1.89c1.042,0,1.895,0.852,1.895,1.89c0,1.042-0.853,1.89-1.895,1.89  C108.486,89.238,107.634,88.391,107.634,87.348"/>
<path fill="none" stroke="#000000" stroke-width="0.7711" stroke-linecap="round" stroke-linejoin="round" stroke-miterlimit="10" d="  M107.634,87.348c0-1.038,0.853-1.89,1.89-1.89c1.042,0,1.895,0.852,1.895,1.89c0,1.042-0.853,1.89-1.895,1.89  C108.486,89.238,107.634,88.391,107.634,87.348"/>
<path d="M170.724,73.886c0-1.042,0.853-1.89,1.89-1.89c1.043,0,1.896,0.847,1.896,1.89s-0.853,1.89-1.896,1.89  C171.576,75.776,170.724,74.929,170.724,73.886"/>
<path fill="none" stroke="#000000" stroke-width="0.7711" stroke-linecap="round" stroke-linejoin="round" stroke-miterlimit="10" d="  M170.724,73.886c0-1.042,0.853-1.89,1.89-1.89c1.043,0,1.896,0.847,1.896,1.89s-0.853,1.89-1.896,1.89  C171.576,75.776,170.724,74.929,170.724,73.886"/>
<path d="M236.306,73.984c0-1.042,0.848-1.895,1.89-1.895c1.038,0,1.89,0.853,1.89,1.895c0,1.037-0.852,1.89-1.89,1.89  C237.153,75.874,236.306,75.021,236.306,73.984"/>
<path fill="none" stroke="#000000" stroke-width="0.7711" stroke-linecap="round" stroke-linejoin="round" stroke-miterlimit="10" d="  M236.306,73.984c0-1.042,0.848-1.895,1.89-1.895c1.038,0,1.89,0.853,1.89,1.895c0,1.037-0.852,1.89-1.89,1.89  C237.153,75.874,236.306,75.021,236.306,73.984"/>
<path d="M299.553,43.053c0-1.042,0.853-1.89,1.896-1.89c1.037,0,1.89,0.847,1.89,1.89c0,1.037-0.853,1.89-1.89,1.89  C300.405,44.942,299.553,44.09,299.553,43.053"/>
<path fill="none" stroke="#000000" stroke-width="0.7711" stroke-linecap="round" stroke-linejoin="round" stroke-miterlimit="10" d="  M299.553,43.053c0-1.042,0.853-1.89,1.896-1.89c1.037,0,1.89,0.847,1.89,1.89c0,1.037-0.853,1.89-1.89,1.89  C300.405,44.942,299.553,44.09,299.553,43.053"/>
<line fill="none" stroke="#FFFFFF" stroke-width="0.581" stroke-linecap="round" stroke-linejoin="round" stroke-miterlimit="10" x1="54.438" y1="87.239" x2="44.137" y2="99.604"/>
<rect x="36.323" y="77.04" width="46.614" height="10.2"/>
<rect x="36.323" y="77.04" fill="none" stroke="#FFFFFF" stroke-width="0.2878" stroke-linecap="round" stroke-linejoin="round" stroke-miterlimit="10" width="46.614" height="10.2"/>
<g>
	<path fill="#FFFFFF" d="M41.675,81.96H39.58v1.943h2.335v0.583h-3.03v-5.389h2.91v0.584H39.58v1.703h2.095V81.96z"/>
	<path fill="#FFFFFF" d="M43.068,80.618l0.76,2.175c0.128,0.352,0.232,0.671,0.312,0.991h0.024c0.088-0.32,0.2-0.64,0.328-0.991   l0.751-2.175h0.736l-1.52,3.87h-0.671l-1.471-3.87H43.068z"/>
	<path fill="#FFFFFF" d="M46.836,82.68c0.016,0.952,0.624,1.343,1.327,1.343c0.504,0,0.808-0.088,1.071-0.2l0.12,0.504   c-0.248,0.112-0.672,0.24-1.287,0.24c-1.191,0-1.903-0.784-1.903-1.951s0.688-2.087,1.815-2.087c1.264,0,1.599,1.112,1.599,1.823   c0,0.144-0.016,0.256-0.024,0.328H46.836z M48.898,82.177c0.008-0.448-0.184-1.144-0.975-1.144c-0.712,0-1.023,0.656-1.08,1.144   H48.898z"/>
	<path fill="#FFFFFF" d="M50.452,81.825c0-0.456-0.008-0.848-0.032-1.207h0.616l0.024,0.759h0.032c0.176-0.52,0.6-0.848,1.072-0.848   c0.08,0,0.136,0.008,0.2,0.024v0.664c-0.072-0.016-0.144-0.024-0.24-0.024c-0.496,0-0.848,0.376-0.943,0.904   c-0.016,0.096-0.032,0.208-0.032,0.328v2.063h-0.696V81.825z"/>
	<path fill="#FFFFFF" d="M56.907,84.487L56.851,84h-0.024c-0.216,0.304-0.631,0.576-1.183,0.576c-0.784,0-1.184-0.552-1.184-1.111   c0-0.936,0.832-1.447,2.327-1.439v-0.08c0-0.32-0.088-0.896-0.879-0.896c-0.36,0-0.735,0.112-1.007,0.288l-0.16-0.463   c0.32-0.208,0.784-0.344,1.271-0.344c1.183,0,1.471,0.808,1.471,1.583v1.447c0,0.335,0.016,0.664,0.064,0.927H56.907z    M56.803,82.512c-0.768-0.016-1.639,0.12-1.639,0.872c0,0.456,0.304,0.672,0.664,0.672c0.504,0,0.824-0.32,0.936-0.648   c0.024-0.072,0.04-0.152,0.04-0.224V82.512z"/>
	<path fill="#FFFFFF" d="M58.62,81.825c0-0.456-0.008-0.848-0.032-1.207h0.616l0.024,0.759h0.032c0.176-0.52,0.6-0.848,1.072-0.848   c0.08,0,0.136,0.008,0.2,0.024v0.664c-0.072-0.016-0.144-0.024-0.24-0.024c-0.496,0-0.848,0.376-0.943,0.904   c-0.016,0.096-0.032,0.208-0.032,0.328v2.063H58.62V81.825z"/>
	<path fill="#FFFFFF" d="M61.236,81.825c0-0.456-0.008-0.848-0.032-1.207h0.616l0.024,0.759h0.032c0.176-0.52,0.6-0.848,1.072-0.848   c0.08,0,0.136,0.008,0.2,0.024v0.664c-0.072-0.016-0.144-0.024-0.24-0.024c-0.496,0-0.848,0.376-0.943,0.904   c-0.016,0.096-0.032,0.208-0.032,0.328v2.063h-0.696V81.825z"/>
	<path fill="#FFFFFF" d="M64.244,82.68c0.016,0.952,0.624,1.343,1.327,1.343c0.504,0,0.808-0.088,1.071-0.2l0.12,0.504   c-0.248,0.112-0.672,0.24-1.287,0.24c-1.191,0-1.903-0.784-1.903-1.951s0.688-2.087,1.815-2.087c1.264,0,1.599,1.112,1.599,1.823   c0,0.144-0.016,0.256-0.024,0.328H64.244z M66.307,82.177c0.008-0.448-0.184-1.144-0.975-1.144c-0.712,0-1.023,0.656-1.08,1.144   H66.307z"/>
	<path fill="#FFFFFF" d="M67.764,83.768c0.208,0.136,0.576,0.28,0.927,0.28c0.512,0,0.752-0.256,0.752-0.576   c0-0.335-0.2-0.52-0.72-0.711c-0.696-0.248-1.023-0.632-1.023-1.095c0-0.624,0.504-1.136,1.335-1.136   c0.392,0,0.736,0.112,0.952,0.24l-0.176,0.512c-0.152-0.096-0.432-0.224-0.792-0.224c-0.416,0-0.648,0.24-0.648,0.528   c0,0.32,0.232,0.464,0.736,0.656c0.671,0.256,1.016,0.591,1.016,1.167c0,0.68-0.528,1.16-1.447,1.16   c-0.424,0-0.816-0.104-1.087-0.264L67.764,83.768z"/>
	<path fill="#FFFFFF" d="M71.875,79.506v1.112h1.007v0.536h-1.007v2.086c0,0.48,0.136,0.752,0.528,0.752   c0.184,0,0.32-0.024,0.408-0.048l0.032,0.527c-0.136,0.056-0.352,0.096-0.624,0.096c-0.328,0-0.591-0.104-0.759-0.296   c-0.2-0.208-0.272-0.552-0.272-1.007v-2.111h-0.6v-0.536h0.6V79.69L71.875,79.506z"/>
	<path fill="#FFFFFF" d="M74.068,82.68c0.016,0.952,0.624,1.343,1.327,1.343c0.504,0,0.808-0.088,1.071-0.2l0.12,0.504   c-0.248,0.112-0.672,0.24-1.288,0.24c-1.191,0-1.903-0.784-1.903-1.951s0.688-2.087,1.815-2.087c1.264,0,1.599,1.112,1.599,1.823   c0,0.144-0.016,0.256-0.024,0.328H74.068z M76.131,82.177c0.008-0.448-0.184-1.144-0.976-1.144c-0.712,0-1.023,0.656-1.08,1.144   H76.131z"/>
	<path fill="#FFFFFF" d="M81.026,78.811v4.677c0,0.344,0.008,0.736,0.032,1h-0.632l-0.032-0.671h-0.016   c-0.216,0.432-0.688,0.759-1.319,0.759c-0.936,0-1.655-0.792-1.655-1.967c-0.008-1.288,0.792-2.079,1.735-2.079   c0.591,0,0.991,0.28,1.167,0.592h0.016v-2.311H81.026z M80.322,82.192c0-0.088-0.008-0.208-0.032-0.295   c-0.104-0.448-0.488-0.816-1.016-0.816c-0.728,0-1.159,0.64-1.159,1.495c0,0.784,0.384,1.431,1.143,1.431   c0.472,0,0.904-0.312,1.032-0.839c0.024-0.096,0.032-0.192,0.032-0.304V82.192z"/>
</g>
<line fill="none" stroke="#FFFFFF" stroke-width="0.581" stroke-linecap="round" stroke-linejoin="round" stroke-miterlimit="10" x1="59.472" y1="154.804" x2="43.806" y2="167.212"/>
<polygon points="38.668,154.804 113.098,154.804 113.006,154.798 113.381,154.782 113.75,154.706 114.103,154.576 114.434,154.385   114.722,154.147 114.977,153.865 115.178,153.543 115.325,153.197 115.417,152.833 115.444,152.458 115.444,146.95 115.417,146.57   115.325,146.206 115.178,145.858 114.977,145.538 114.722,145.255 114.434,145.017 114.103,144.827 113.75,144.696 113.381,144.621   113.098,144.604 38.668,144.604 38.951,144.621 38.576,144.604 38.202,144.647 37.838,144.756 37.496,144.918 37.186,145.13   36.915,145.391 36.687,145.696 36.513,146.027 36.393,146.385 36.333,146.76 36.323,146.95 36.323,152.458 36.333,152.268   36.333,152.642 36.393,153.017 36.513,153.375 36.687,153.707 36.915,154.011 37.186,154.272 37.496,154.489 37.838,154.646   38.202,154.754 38.576,154.798 "/>
<polygon fill="none" stroke="#FFFFFF" stroke-width="0.2878" stroke-linecap="round" stroke-linejoin="round" stroke-miterlimit="10" points="  38.668,154.804 113.098,154.804 113.006,154.798 113.381,154.782 113.75,154.706 114.103,154.576 114.434,154.385 114.722,154.147   114.977,153.865 115.178,153.543 115.325,153.197 115.417,152.833 115.444,152.458 115.444,146.95 115.417,146.57 115.325,146.206   115.178,145.858 114.977,145.538 114.722,145.255 114.434,145.017 114.103,144.827 113.75,144.696 113.381,144.621 113.098,144.604   38.668,144.604 38.951,144.621 38.576,144.604 38.202,144.647 37.838,144.756 37.496,144.918 37.186,145.13 36.915,145.391   36.687,145.696 36.513,146.027 36.393,146.385 36.333,146.76 36.323,146.95 36.323,152.458 36.333,152.268 36.333,152.642   36.393,153.017 36.513,153.375 36.687,153.707 36.915,154.011 37.186,154.272 37.496,154.489 37.838,154.646 38.202,154.754   38.576,154.798 "/>
<g>
	<path fill="#FFFFFF" d="M41.675,149.526H39.58v1.942h2.335v0.584h-3.03v-5.389h2.91v0.583H39.58v1.703h2.095V149.526z"/>
	<path fill="#FFFFFF" d="M43.068,148.182l0.76,2.175c0.128,0.352,0.232,0.672,0.312,0.992h0.024c0.088-0.32,0.2-0.641,0.328-0.992   l0.751-2.175h0.736l-1.52,3.87h-0.671l-1.471-3.87H43.068z"/>
	<path fill="#FFFFFF" d="M46.836,150.246c0.016,0.951,0.624,1.343,1.327,1.343c0.504,0,0.808-0.088,1.071-0.2l0.12,0.504   c-0.248,0.112-0.672,0.24-1.287,0.24c-1.191,0-1.903-0.783-1.903-1.951c0-1.167,0.688-2.087,1.815-2.087   c1.264,0,1.599,1.111,1.599,1.823c0,0.144-0.016,0.256-0.024,0.328H46.836z M48.898,149.742c0.008-0.448-0.184-1.144-0.975-1.144   c-0.712,0-1.023,0.655-1.08,1.144H48.898z"/>
	<path fill="#FFFFFF" d="M50.452,149.39c0-0.456-0.008-0.848-0.032-1.208h0.616l0.024,0.76h0.032c0.176-0.52,0.6-0.848,1.072-0.848   c0.08,0,0.136,0.008,0.2,0.024v0.663c-0.072-0.016-0.144-0.023-0.24-0.023c-0.496,0-0.848,0.376-0.943,0.903   c-0.016,0.096-0.032,0.208-0.032,0.328v2.062h-0.696V149.39z"/>
	<path fill="#FFFFFF" d="M57.522,151.909c-0.184,0.096-0.592,0.224-1.111,0.224c-1.167,0-1.927-0.792-1.927-1.975   c0-1.191,0.816-2.056,2.079-2.056c0.416,0,0.784,0.104,0.975,0.2l-0.16,0.544c-0.168-0.096-0.432-0.185-0.815-0.185   c-0.888,0-1.367,0.656-1.367,1.464c0,0.896,0.576,1.447,1.343,1.447c0.399,0,0.664-0.104,0.863-0.192L57.522,151.909z"/>
	<path fill="#FFFFFF" d="M61.85,150.085c0,1.431-0.992,2.055-1.927,2.055c-1.047,0-1.855-0.768-1.855-1.991   c0-1.295,0.848-2.055,1.919-2.055C61.098,148.094,61.85,148.902,61.85,150.085z M58.78,150.125c0,0.848,0.488,1.487,1.175,1.487   c0.671,0,1.175-0.632,1.175-1.504c0-0.655-0.328-1.486-1.16-1.486C59.14,148.623,58.78,149.39,58.78,150.125z"/>
	<path fill="#FFFFFF" d="M62.74,149.23c0-0.4-0.008-0.728-0.032-1.048h0.624l0.04,0.64h0.016c0.192-0.367,0.64-0.728,1.279-0.728   c0.536,0,1.367,0.32,1.367,1.647v2.311h-0.704v-2.23c0-0.624-0.232-1.144-0.896-1.144c-0.464,0-0.824,0.328-0.943,0.72   c-0.032,0.088-0.048,0.208-0.048,0.327v2.327H62.74V149.23z"/>
	<path fill="#FFFFFF" d="M67.292,148.182l0.76,2.175c0.128,0.352,0.232,0.672,0.312,0.992h0.024c0.088-0.32,0.2-0.641,0.328-0.992   l0.751-2.175h0.736l-1.52,3.87h-0.671l-1.471-3.87H67.292z"/>
	<path fill="#FFFFFF" d="M71.652,147.095c0.008,0.239-0.168,0.432-0.448,0.432c-0.248,0-0.424-0.192-0.424-0.432   c0-0.248,0.184-0.44,0.44-0.44C71.484,146.655,71.652,146.847,71.652,147.095z M70.868,152.052v-3.87h0.704v3.87H70.868z"/>
	<path fill="#FFFFFF" d="M75.499,151.909c-0.184,0.096-0.592,0.224-1.111,0.224c-1.167,0-1.927-0.792-1.927-1.975   c0-1.191,0.816-2.056,2.079-2.056c0.416,0,0.784,0.104,0.975,0.2l-0.16,0.544c-0.168-0.096-0.432-0.185-0.815-0.185   c-0.888,0-1.367,0.656-1.367,1.464c0,0.896,0.576,1.447,1.343,1.447c0.399,0,0.664-0.104,0.863-0.192L75.499,151.909z"/>
	<path fill="#FFFFFF" d="M77.172,147.071v1.111h1.007v0.536h-1.007v2.087c0,0.479,0.136,0.751,0.528,0.751   c0.184,0,0.32-0.023,0.408-0.048l0.032,0.528c-0.136,0.056-0.352,0.096-0.624,0.096c-0.328,0-0.592-0.104-0.759-0.296   c-0.2-0.208-0.272-0.552-0.272-1.008v-2.11h-0.6v-0.536h0.6v-0.927L77.172,147.071z"/>
	<path fill="#FFFFFF" d="M79.364,150.246c0.016,0.951,0.624,1.343,1.327,1.343c0.504,0,0.808-0.088,1.071-0.2l0.12,0.504   c-0.248,0.112-0.672,0.24-1.287,0.24c-1.191,0-1.903-0.783-1.903-1.951c0-1.167,0.688-2.087,1.815-2.087   c1.264,0,1.599,1.111,1.599,1.823c0,0.144-0.016,0.256-0.024,0.328H79.364z M81.427,149.742c0.008-0.448-0.184-1.144-0.975-1.144   c-0.712,0-1.023,0.655-1.08,1.144H81.427z"/>
	<path fill="#FFFFFF" d="M86.322,146.375v4.678c0,0.344,0.008,0.735,0.032,0.999h-0.632l-0.032-0.672h-0.016   c-0.216,0.432-0.688,0.76-1.319,0.76c-0.936,0-1.655-0.791-1.655-1.967c-0.008-1.287,0.792-2.079,1.735-2.079   c0.591,0,0.991,0.28,1.167,0.592h0.016v-2.311H86.322z M85.619,149.757c0-0.088-0.008-0.208-0.032-0.296   c-0.104-0.447-0.488-0.815-1.016-0.815c-0.728,0-1.159,0.64-1.159,1.495c0,0.784,0.384,1.432,1.143,1.432   c0.472,0,0.904-0.312,1.032-0.84c0.024-0.096,0.032-0.191,0.032-0.304V149.757z"/>
	<path fill="#FFFFFF" d="M90.715,146.503c-0.583,0.783-1.007,1.823-1.007,3.271c0,1.423,0.439,2.446,1.007,3.246h-0.552   c-0.503-0.664-1.047-1.688-1.047-3.246c0.008-1.575,0.544-2.599,1.047-3.271H90.715z"/>
	<path fill="#FFFFFF" d="M91.532,152.052v-3.334h-0.544v-0.536h0.544v-0.184c0-0.544,0.12-1.039,0.448-1.352   c0.264-0.256,0.616-0.359,0.943-0.359c0.248,0,0.464,0.056,0.6,0.111l-0.096,0.544c-0.104-0.048-0.248-0.088-0.448-0.088   c-0.6,0-0.752,0.527-0.752,1.119v0.208h0.936v0.536h-0.936v3.334H91.532z"/>
	<path fill="#FFFFFF" d="M93.956,150.246c0.016,0.951,0.624,1.343,1.327,1.343c0.504,0,0.808-0.088,1.071-0.2l0.12,0.504   c-0.248,0.112-0.672,0.24-1.287,0.24c-1.191,0-1.903-0.783-1.903-1.951c0-1.167,0.688-2.087,1.815-2.087   c1.264,0,1.599,1.111,1.599,1.823c0,0.144-0.016,0.256-0.024,0.328H93.956z M96.019,149.742c0.008-0.448-0.184-1.144-0.975-1.144   c-0.712,0-1.023,0.655-1.08,1.144H96.019z"/>
	<path fill="#FFFFFF" d="M97.572,146.375h0.704v5.677h-0.704V146.375z"/>
	<path fill="#FFFFFF" d="M102.962,150.085c0,1.431-0.992,2.055-1.927,2.055c-1.047,0-1.855-0.768-1.855-1.991   c0-1.295,0.848-2.055,1.919-2.055C102.21,148.094,102.962,148.902,102.962,150.085z M99.892,150.125   c0,0.848,0.487,1.487,1.175,1.487c0.671,0,1.175-0.632,1.175-1.504c0-0.655-0.328-1.486-1.159-1.486   C100.251,148.623,99.892,149.39,99.892,150.125z"/>
	<path fill="#FFFFFF" d="M103.852,149.23c0-0.4-0.008-0.728-0.032-1.048h0.624l0.04,0.64h0.016c0.192-0.367,0.64-0.728,1.279-0.728   c0.536,0,1.367,0.32,1.367,1.647v2.311h-0.704v-2.23c0-0.624-0.232-1.144-0.896-1.144c-0.464,0-0.824,0.328-0.943,0.72   c-0.032,0.088-0.048,0.208-0.048,0.327v2.327h-0.704V149.23z"/>
	<path fill="#FFFFFF" d="M108.427,148.182l0.848,2.287c0.088,0.256,0.184,0.56,0.248,0.791h0.016   c0.072-0.231,0.152-0.527,0.248-0.808l0.768-2.271h0.744l-1.056,2.759c-0.503,1.327-0.847,2.007-1.327,2.423   c-0.344,0.304-0.688,0.424-0.863,0.455l-0.176-0.591c0.176-0.057,0.408-0.168,0.615-0.344c0.192-0.152,0.432-0.424,0.592-0.784   c0.032-0.072,0.056-0.128,0.056-0.168s-0.016-0.096-0.048-0.184l-1.431-3.566H108.427z"/>
	<path fill="#FFFFFF" d="M111.516,153.02c0.568-0.792,1.008-1.831,1.008-3.271c0-1.432-0.432-2.455-1.008-3.246h0.544   c0.512,0.655,1.047,1.679,1.047,3.254c0,1.567-0.536,2.583-1.047,3.263H111.516z"/>
</g>
<line fill="none" stroke="#000000" stroke-width="0.5" stroke-linejoin="round" stroke-miterlimit="10" x1="32.413" y1="171.616" x2="32.413" y2="2.749"/>
<g>
	<path d="M19.437,171.492c0,1.767-0.656,2.742-1.807,2.742c-1.015,0-1.703-0.951-1.719-2.671c0-1.742,0.752-2.702,1.807-2.702   C18.813,168.861,19.437,169.836,19.437,171.492z M16.614,171.572c0,1.351,0.416,2.118,1.055,2.118c0.72,0,1.063-0.839,1.063-2.167   c0-1.279-0.328-2.118-1.056-2.118C17.062,169.405,16.614,170.156,16.614,171.572z"/>
	<path d="M22.429,170.412c0,1.096-0.576,1.64-1.248,1.64c-0.647,0-1.207-0.52-1.215-1.567c0-1.039,0.568-1.623,1.255-1.623   C21.949,168.861,22.429,169.42,22.429,170.412z M20.526,170.46c-0.016,0.663,0.231,1.167,0.671,1.167   c0.464,0,0.671-0.496,0.671-1.184c0-0.632-0.184-1.159-0.671-1.159C20.758,169.285,20.526,169.804,20.526,170.46z M21.134,174.234   l3.054-5.373h0.448l-3.054,5.373H21.134z M25.811,172.563c0,1.096-0.576,1.639-1.239,1.639c-0.647,0-1.207-0.52-1.215-1.559   c0-1.048,0.568-1.632,1.255-1.632C25.339,171.011,25.811,171.572,25.811,172.563z M23.908,172.611   c-0.008,0.664,0.248,1.167,0.68,1.167c0.464,0,0.672-0.495,0.672-1.183c0-0.632-0.184-1.16-0.672-1.16   C24.148,171.435,23.908,171.956,23.908,172.611z"/>
</g>
<g>
	<path d="M13.406,135.833H13.39l-0.904,0.488l-0.136-0.536l1.135-0.607h0.6v5.197h-0.679V135.833z"/>
	<path d="M19.437,137.721c0,1.767-0.656,2.742-1.807,2.742c-1.016,0-1.703-0.951-1.719-2.671c0-1.742,0.751-2.702,1.807-2.702   C18.813,135.09,19.437,136.066,19.437,137.721z M16.614,137.801c0,1.351,0.416,2.118,1.056,2.118c0.72,0,1.063-0.839,1.063-2.166   c0-1.279-0.328-2.119-1.056-2.119C17.062,135.634,16.614,136.385,16.614,137.801z"/>
	<path d="M22.43,136.641c0,1.096-0.576,1.64-1.248,1.64c-0.647,0-1.207-0.52-1.215-1.567c0-1.039,0.568-1.623,1.255-1.623   C21.95,135.09,22.43,135.65,22.43,136.641z M20.526,136.69c-0.016,0.663,0.232,1.167,0.672,1.167c0.464,0,0.672-0.496,0.672-1.184   c0-0.632-0.184-1.159-0.672-1.159C20.758,135.514,20.526,136.034,20.526,136.69z M21.134,140.463l3.054-5.373h0.448l-3.054,5.373   H21.134z M25.812,138.792c0,1.096-0.576,1.639-1.239,1.639c-0.647,0-1.207-0.52-1.215-1.559c0-1.048,0.568-1.631,1.255-1.631   C25.34,137.242,25.812,137.801,25.812,138.792z M23.909,138.84c-0.008,0.664,0.248,1.167,0.68,1.167   c0.464,0,0.671-0.495,0.671-1.183c0-0.632-0.184-1.16-0.671-1.16C24.148,137.665,23.909,138.185,23.909,138.84z"/>
</g>
<g>
	<path d="M11.879,106.603v-0.432l0.552-0.536c1.327-1.263,1.927-1.935,1.935-2.718c0-0.528-0.256-1.016-1.031-1.016   c-0.472,0-0.863,0.239-1.104,0.439l-0.224-0.496c0.36-0.304,0.872-0.527,1.471-0.527c1.119,0,1.591,0.768,1.591,1.512   c0,0.959-0.696,1.734-1.791,2.79l-0.416,0.384v0.016h2.335v0.584H11.879z"/>
	<path d="M19.437,103.949c0,1.767-0.656,2.742-1.807,2.742c-1.016,0-1.703-0.951-1.719-2.671c0-1.742,0.751-2.702,1.807-2.702   C18.813,101.318,19.437,102.293,19.437,103.949z M16.614,104.029c0,1.351,0.416,2.118,1.056,2.118c0.72,0,1.063-0.839,1.063-2.167   c0-1.279-0.328-2.118-1.056-2.118C17.062,101.862,16.614,102.613,16.614,104.029z"/>
	<path d="M22.43,102.869c0,1.096-0.576,1.64-1.248,1.64c-0.647,0-1.207-0.52-1.215-1.567c0-1.039,0.568-1.623,1.255-1.623   C21.95,101.318,22.43,101.877,22.43,102.869z M20.526,102.917c-0.016,0.663,0.232,1.167,0.672,1.167   c0.464,0,0.672-0.496,0.672-1.184c0-0.632-0.184-1.159-0.672-1.159C20.758,101.742,20.526,102.261,20.526,102.917z M21.134,106.691   l3.054-5.373h0.448l-3.054,5.373H21.134z M25.812,105.02c0,1.096-0.576,1.639-1.239,1.639c-0.647,0-1.207-0.52-1.215-1.559   c0-1.048,0.568-1.632,1.255-1.632C25.34,103.468,25.812,104.029,25.812,105.02z M23.909,105.068   c-0.008,0.664,0.248,1.167,0.68,1.167c0.464,0,0.671-0.495,0.671-1.183c0-0.632-0.184-1.16-0.671-1.16   C24.148,103.892,23.909,104.413,23.909,105.068z"/>
</g>
<g>
	<path d="M12.047,72.026c0.2,0.128,0.664,0.328,1.151,0.328c0.903,0,1.183-0.576,1.175-1.008c-0.008-0.728-0.664-1.039-1.343-1.039   h-0.392v-0.528h0.392c0.512,0,1.159-0.264,1.159-0.879c0-0.416-0.264-0.784-0.911-0.784c-0.416,0-0.816,0.184-1.04,0.344   l-0.184-0.512c0.272-0.2,0.8-0.4,1.359-0.4c1.023,0,1.487,0.608,1.487,1.239c0,0.536-0.32,0.992-0.959,1.224v0.016   c0.64,0.128,1.159,0.608,1.159,1.335c0,0.832-0.647,1.559-1.895,1.559c-0.583,0-1.095-0.184-1.351-0.352L12.047,72.026z"/>
	<path d="M19.437,70.179c0,1.767-0.656,2.742-1.807,2.742c-1.016,0-1.703-0.951-1.719-2.67c0-1.743,0.751-2.703,1.807-2.703   C18.813,67.548,19.437,68.524,19.437,70.179z M16.614,70.259c0,1.352,0.416,2.119,1.056,2.119c0.72,0,1.063-0.84,1.063-2.167   c0-1.279-0.328-2.119-1.056-2.119C17.062,68.092,16.614,68.844,16.614,70.259z"/>
	<path d="M22.43,69.1c0,1.095-0.576,1.639-1.248,1.639c-0.647,0-1.207-0.52-1.215-1.567c0-1.039,0.568-1.623,1.255-1.623   C21.95,67.548,22.43,68.108,22.43,69.1z M20.526,69.147c-0.016,0.664,0.232,1.167,0.672,1.167c0.464,0,0.672-0.496,0.672-1.184   c0-0.631-0.184-1.159-0.672-1.159C20.758,67.972,20.526,68.492,20.526,69.147z M21.134,72.921l3.054-5.373h0.448l-3.054,5.373   H21.134z M25.812,71.25c0,1.095-0.576,1.639-1.239,1.639c-0.647,0-1.207-0.52-1.215-1.559c0-1.048,0.568-1.631,1.255-1.631   C25.34,69.699,25.812,70.259,25.812,71.25z M23.909,71.298c-0.008,0.664,0.248,1.167,0.68,1.167c0.464,0,0.671-0.496,0.671-1.184   c0-0.631-0.184-1.159-0.671-1.159C24.148,70.123,23.909,70.643,23.909,71.298z"/>
</g>
<g>
	<path d="M14.054,39.056v-1.415h-2.415v-0.464l2.318-3.318h0.76v3.23h0.728v0.552h-0.728v1.415H14.054z M14.054,37.089v-1.735   c0-0.271,0.008-0.543,0.024-0.815h-0.024c-0.16,0.304-0.288,0.528-0.432,0.768l-1.271,1.767v0.016H14.054z"/>
	<path d="M19.437,36.401c0,1.767-0.656,2.743-1.807,2.743c-1.016,0-1.703-0.952-1.719-2.67c0-1.743,0.751-2.703,1.807-2.703   C18.813,33.771,19.437,34.746,19.437,36.401z M16.614,36.481c0,1.352,0.416,2.119,1.056,2.119c0.72,0,1.063-0.84,1.063-2.167   c0-1.279-0.328-2.119-1.056-2.119C17.062,34.314,16.614,35.066,16.614,36.481z"/>
	<path d="M22.43,35.322c0,1.095-0.576,1.639-1.248,1.639c-0.647,0-1.207-0.52-1.215-1.567c0-1.04,0.568-1.623,1.255-1.623   C21.95,33.771,22.43,34.33,22.43,35.322z M20.526,35.37c-0.016,0.664,0.232,1.167,0.672,1.167c0.464,0,0.672-0.496,0.672-1.184   c0-0.631-0.184-1.159-0.672-1.159C20.758,34.194,20.526,34.714,20.526,35.37z M21.134,39.144l3.054-5.373h0.448l-3.054,5.373   H21.134z M25.812,37.473c0,1.095-0.576,1.639-1.239,1.639c-0.647,0-1.207-0.52-1.215-1.56c0-1.047,0.568-1.631,1.255-1.631   C25.34,35.921,25.812,36.481,25.812,37.473z M23.909,37.521c-0.008,0.664,0.248,1.167,0.68,1.167c0.464,0,0.671-0.496,0.671-1.184   c0-0.631-0.184-1.159-0.671-1.159C24.148,36.345,23.909,36.865,23.909,37.521z"/>
</g>
<g>
	<path d="M14.981,0.68h-1.983l-0.2,1.335c0.12-0.016,0.232-0.032,0.424-0.032c0.4,0,0.799,0.088,1.119,0.28   c0.408,0.232,0.744,0.68,0.744,1.335c0,1.016-0.808,1.775-1.935,1.775c-0.568,0-1.048-0.16-1.295-0.32l0.176-0.536   c0.216,0.128,0.64,0.288,1.111,0.288c0.664,0,1.231-0.432,1.231-1.127c-0.008-0.672-0.456-1.151-1.495-1.151   c-0.296,0-0.528,0.032-0.72,0.056l0.336-2.495h2.486V0.68z"/>
	<path d="M19.437,2.63c0,1.767-0.656,2.743-1.807,2.743c-1.016,0-1.703-0.952-1.719-2.67C15.911,0.959,16.663,0,17.718,0   C18.813,0,19.437,0.976,19.437,2.63z M16.614,2.71c0,1.352,0.416,2.119,1.056,2.119c0.72,0,1.063-0.84,1.063-2.167   c0-1.279-0.328-2.119-1.056-2.119C17.062,0.544,16.614,1.295,16.614,2.71z"/>
	<path d="M22.43,1.551c0,1.095-0.576,1.639-1.248,1.639c-0.647,0-1.207-0.52-1.215-1.567c0-1.04,0.568-1.623,1.255-1.623   C21.95,0,22.43,0.56,22.43,1.551z M20.526,1.599c-0.016,0.664,0.232,1.167,0.672,1.167c0.464,0,0.672-0.496,0.672-1.184   c0-0.631-0.184-1.159-0.672-1.159C20.758,0.424,20.526,0.943,20.526,1.599z M21.134,5.373L24.188,0h0.448l-3.054,5.373H21.134z    M25.812,3.702c0,1.095-0.576,1.639-1.239,1.639c-0.647,0-1.207-0.52-1.215-1.56c0-1.047,0.568-1.631,1.255-1.631   C25.34,2.151,25.812,2.71,25.812,3.702z M23.909,3.75c-0.008,0.664,0.248,1.167,0.68,1.167c0.464,0,0.671-0.496,0.671-1.184   c0-0.631-0.184-1.159-0.671-1.159C24.148,2.575,23.909,3.094,23.909,3.75z"/>
</g>
<line fill="none" stroke="#000000" stroke-width="0.5" stroke-linejoin="round" stroke-miterlimit="10" x1="30.523" y1="171.616" x2="32.413" y2="171.616"/>
<line fill="none" stroke="#000000" stroke-width="0.5" stroke-linejoin="round" stroke-miterlimit="10" x1="30.523" y1="137.839" x2="32.413" y2="137.839"/>
<line fill="none" stroke="#000000" stroke-width="0.5" stroke-linejoin="round" stroke-miterlimit="10" x1="30.523" y1="104.068" x2="32.413" y2="104.068"/>
<line fill="none" stroke="#000000" stroke-width="0.5" stroke-linejoin="round" stroke-miterlimit="10" x1="30.523" y1="70.297" x2="32.413" y2="70.297"/>
<line fill="none" stroke="#000000" stroke-width="0.5" stroke-linejoin="round" stroke-miterlimit="10" x1="30.523" y1="36.525" x2="32.413" y2="36.525"/>
<line fill="none" stroke="#000000" stroke-width="0.5" stroke-linejoin="round" stroke-miterlimit="10" x1="30.523" y1="2.749" x2="32.413" y2="2.749"/>
<line fill="none" stroke="#000000" stroke-width="0.5" stroke-linejoin="round" stroke-miterlimit="10" x1="32.413" y1="171.616" x2="311.071" y2="171.616"/>
<line fill="none" stroke="#000000" stroke-width="0.5" stroke-linejoin="round" stroke-miterlimit="10" x1="47.895" y1="173.506" x2="47.895" y2="171.616"/>
<line fill="none" stroke="#000000" stroke-width="0.5" stroke-linejoin="round" stroke-miterlimit="10" x1="109.817" y1="173.506" x2="109.817" y2="171.616"/>
<line fill="none" stroke="#000000" stroke-width="0.5" stroke-linejoin="round" stroke-miterlimit="10" x1="171.739" y1="173.506" x2="171.739" y2="171.616"/>
<line fill="none" stroke="#000000" stroke-width="0.5" stroke-linejoin="round" stroke-miterlimit="10" x1="233.667" y1="173.506" x2="233.667" y2="171.616"/>
<line fill="none" stroke="#000000" stroke-width="0.5" stroke-linejoin="round" stroke-miterlimit="10" x1="295.589" y1="173.506" x2="295.589" y2="171.616"/>
<g>
	<path d="M27.837,177.721c0.304-0.063,0.784-0.111,1.271-0.111c0.696,0,1.144,0.12,1.479,0.392c0.28,0.208,0.447,0.527,0.447,0.951   c0,0.52-0.344,0.976-0.911,1.184v0.016c0.512,0.128,1.111,0.552,1.111,1.352c0,0.464-0.184,0.815-0.456,1.079   c-0.375,0.344-0.983,0.504-1.863,0.504c-0.479,0-0.848-0.032-1.08-0.063V177.721z M28.533,179.928h0.632   c0.735,0,1.167-0.384,1.167-0.903c0-0.632-0.48-0.88-1.184-0.88c-0.32,0-0.504,0.024-0.616,0.048V179.928z M28.533,182.511   c0.136,0.023,0.336,0.031,0.583,0.031c0.72,0,1.383-0.264,1.383-1.047c0-0.735-0.631-1.04-1.391-1.04h-0.576V182.511z"/>
	<path d="M35.651,181.072c0,1.431-0.992,2.055-1.927,2.055c-1.047,0-1.855-0.768-1.855-1.991c0-1.295,0.848-2.055,1.919-2.055   C34.899,179.081,35.651,179.888,35.651,181.072z M32.581,181.112c0,0.848,0.487,1.487,1.175,1.487c0.671,0,1.175-0.632,1.175-1.504   c0-0.655-0.328-1.486-1.159-1.486C32.94,179.609,32.581,180.376,32.581,181.112z"/>
	<path d="M37.389,178.057v1.111h1.007v0.536h-1.007v2.087c0,0.479,0.136,0.751,0.528,0.751c0.184,0,0.32-0.023,0.408-0.048   l0.032,0.528c-0.136,0.056-0.352,0.096-0.624,0.096c-0.328,0-0.592-0.104-0.759-0.296c-0.2-0.208-0.272-0.552-0.272-1.008v-2.11   h-0.6v-0.536h0.6v-0.927L37.389,178.057z"/>
	<path d="M40.037,178.057v1.111h1.007v0.536h-1.007v2.087c0,0.479,0.136,0.751,0.528,0.751c0.184,0,0.32-0.023,0.408-0.048   l0.032,0.528c-0.136,0.056-0.352,0.096-0.624,0.096c-0.328,0-0.591-0.104-0.759-0.296c-0.2-0.208-0.272-0.552-0.272-1.008v-2.11   h-0.6v-0.536h0.6v-0.927L40.037,178.057z"/>
	<path d="M45.339,181.072c0,1.431-0.992,2.055-1.927,2.055c-1.047,0-1.855-0.768-1.855-1.991c0-1.295,0.848-2.055,1.919-2.055   C44.587,179.081,45.339,179.888,45.339,181.072z M42.269,181.112c0,0.848,0.488,1.487,1.175,1.487c0.671,0,1.175-0.632,1.175-1.504   c0-0.655-0.328-1.486-1.16-1.486C42.629,179.609,42.269,180.376,42.269,181.112z"/>
	<path d="M46.229,180.216c0-0.4-0.008-0.728-0.032-1.048h0.616l0.032,0.624h0.024c0.216-0.368,0.576-0.712,1.215-0.712   c0.528,0,0.928,0.32,1.096,0.775h0.016c0.12-0.216,0.272-0.384,0.432-0.503c0.232-0.177,0.488-0.272,0.855-0.272   c0.512,0,1.271,0.336,1.271,1.68v2.278h-0.688v-2.19c0-0.744-0.271-1.191-0.839-1.191c-0.4,0-0.711,0.296-0.832,0.64   c-0.032,0.096-0.056,0.224-0.056,0.352v2.391h-0.688v-2.318c0-0.616-0.272-1.063-0.808-1.063c-0.44,0-0.759,0.352-0.872,0.703   c-0.04,0.104-0.056,0.224-0.056,0.344v2.335h-0.688V180.216z"/>
	<path d="M54.373,183.039v-0.432l0.552-0.536c1.327-1.263,1.927-1.935,1.935-2.718c0-0.528-0.256-1.016-1.031-1.016   c-0.472,0-0.863,0.239-1.104,0.439l-0.224-0.496c0.36-0.304,0.872-0.527,1.471-0.527c1.119,0,1.591,0.768,1.591,1.512   c0,0.959-0.696,1.734-1.791,2.79l-0.416,0.384v0.016h2.335v0.584H54.373z"/>
	<path d="M61.931,180.384c0,1.767-0.656,2.742-1.807,2.742c-1.016,0-1.703-0.951-1.719-2.671c0-1.742,0.751-2.702,1.807-2.702   C61.308,177.753,61.931,178.729,61.931,180.384z M59.108,180.464c0,1.351,0.416,2.118,1.056,2.118c0.72,0,1.063-0.839,1.063-2.167   c0-1.279-0.328-2.118-1.056-2.118C59.557,178.297,59.108,179.048,59.108,180.464z"/>
	<path d="M64.924,179.304c0,1.096-0.576,1.64-1.248,1.64c-0.647,0-1.207-0.52-1.215-1.567c0-1.039,0.568-1.623,1.255-1.623   C64.444,177.753,64.924,178.313,64.924,179.304z M63.021,179.353c-0.016,0.663,0.232,1.167,0.672,1.167   c0.464,0,0.672-0.496,0.672-1.184c0-0.632-0.184-1.159-0.672-1.159C63.252,178.177,63.021,178.697,63.021,179.353z M63.628,183.126   l3.054-5.373h0.448l-3.054,5.373H63.628z M68.306,181.456c0,1.096-0.576,1.639-1.239,1.639c-0.647,0-1.207-0.52-1.215-1.559   c0-1.048,0.568-1.632,1.255-1.632C67.834,179.904,68.306,180.464,68.306,181.456z M66.403,181.503   c-0.008,0.664,0.248,1.167,0.68,1.167c0.464,0,0.671-0.495,0.671-1.183c0-0.632-0.184-1.16-0.671-1.16   C66.643,180.328,66.403,180.848,66.403,181.503z"/>
</g>
<g>
	<path d="M90.418,183.039v-0.432l0.552-0.536c1.327-1.263,1.927-1.935,1.935-2.718c0-0.528-0.256-1.016-1.031-1.016   c-0.472,0-0.863,0.239-1.104,0.439l-0.224-0.496c0.36-0.304,0.872-0.527,1.471-0.527c1.119,0,1.591,0.768,1.591,1.512   c0,0.959-0.696,1.734-1.791,2.79l-0.416,0.384v0.016h2.335v0.584H90.418z"/>
	<path d="M97.976,180.384c0,1.767-0.656,2.742-1.807,2.742c-1.016,0-1.703-0.951-1.719-2.671c0-1.742,0.751-2.702,1.807-2.702   C97.353,177.753,97.976,178.729,97.976,180.384z M95.153,180.464c0,1.351,0.416,2.118,1.056,2.118c0.72,0,1.063-0.839,1.063-2.167   c0-1.279-0.328-2.118-1.056-2.118C95.602,178.297,95.153,179.048,95.153,180.464z"/>
	<path d="M100.969,179.304c0,1.096-0.576,1.64-1.248,1.64c-0.647,0-1.207-0.52-1.215-1.567c0-1.039,0.568-1.623,1.255-1.623   C100.489,177.753,100.969,178.313,100.969,179.304z M99.065,179.353c-0.016,0.663,0.232,1.167,0.672,1.167   c0.464,0,0.672-0.496,0.672-1.184c0-0.632-0.184-1.159-0.672-1.159C99.297,178.177,99.065,178.697,99.065,179.353z M99.673,183.126   l3.054-5.373h0.448l-3.054,5.373H99.673z M104.351,181.456c0,1.096-0.576,1.639-1.239,1.639c-0.647,0-1.207-0.52-1.215-1.559   c0-1.048,0.568-1.632,1.255-1.632C103.879,179.904,104.351,180.464,104.351,181.456z M102.448,181.503   c-0.008,0.664,0.248,1.167,0.68,1.167c0.464,0,0.671-0.495,0.671-1.183c0-0.632-0.184-1.16-0.671-1.16   C102.688,180.328,102.448,180.848,102.448,181.503z"/>
	<path d="M107.729,178.057v1.111h1.007v0.536h-1.007v2.087c0,0.479,0.136,0.751,0.528,0.751c0.184,0,0.32-0.023,0.408-0.048   l0.032,0.528c-0.136,0.056-0.352,0.096-0.624,0.096c-0.328,0-0.591-0.104-0.759-0.296c-0.2-0.208-0.272-0.552-0.272-1.008v-2.11   h-0.6v-0.536h0.6v-0.927L107.729,178.057z"/>
	<path d="M113.032,181.072c0,1.431-0.992,2.055-1.927,2.055c-1.047,0-1.855-0.768-1.855-1.991c0-1.295,0.848-2.055,1.919-2.055   C112.28,179.081,113.032,179.888,113.032,181.072z M109.961,181.112c0,0.848,0.488,1.487,1.175,1.487   c0.671,0,1.175-0.632,1.175-1.504c0-0.655-0.328-1.486-1.16-1.486C110.321,179.609,109.961,180.376,109.961,181.112z"/>
	<path d="M117.568,183.039v-1.415h-2.415v-0.464l2.318-3.318h0.76v3.23h0.728v0.552h-0.728v1.415H117.568z M117.568,181.072v-1.735   c0-0.271,0.008-0.544,0.024-0.815h-0.024c-0.16,0.304-0.288,0.527-0.432,0.768l-1.271,1.768v0.016H117.568z"/>
	<path d="M122.952,180.384c0,1.767-0.656,2.742-1.807,2.742c-1.016,0-1.703-0.951-1.719-2.671c0-1.742,0.751-2.702,1.807-2.702   C122.328,177.753,122.952,178.729,122.952,180.384z M120.129,180.464c0,1.351,0.416,2.118,1.056,2.118   c0.72,0,1.063-0.839,1.063-2.167c0-1.279-0.328-2.118-1.056-2.118C120.577,178.297,120.129,179.048,120.129,180.464z"/>
	<path d="M125.944,179.304c0,1.096-0.576,1.64-1.248,1.64c-0.647,0-1.207-0.52-1.215-1.567c0-1.039,0.568-1.623,1.255-1.623   C125.464,177.753,125.944,178.313,125.944,179.304z M124.041,179.353c-0.016,0.663,0.232,1.167,0.672,1.167   c0.464,0,0.672-0.496,0.672-1.184c0-0.632-0.184-1.159-0.672-1.159C124.273,178.177,124.041,178.697,124.041,179.353z    M124.649,183.126l3.054-5.373h0.448l-3.054,5.373H124.649z M129.326,181.456c0,1.096-0.576,1.639-1.239,1.639   c-0.647,0-1.207-0.52-1.215-1.559c0-1.048,0.568-1.632,1.255-1.632C128.854,179.904,129.326,180.464,129.326,181.456z    M127.423,181.503c-0.008,0.664,0.248,1.167,0.68,1.167c0.464,0,0.671-0.495,0.671-1.183c0-0.632-0.184-1.16-0.671-1.16   C127.663,180.328,127.423,180.848,127.423,181.503z"/>
</g>
<g>
	<path d="M154.52,183.039v-1.415h-2.415v-0.464l2.318-3.318h0.76v3.23h0.728v0.552h-0.728v1.415H154.52z M154.52,181.072v-1.735   c0-0.271,0.008-0.544,0.024-0.815h-0.024c-0.16,0.304-0.288,0.527-0.432,0.768l-1.271,1.768v0.016H154.52z"/>
	<path d="M159.903,180.384c0,1.767-0.655,2.742-1.807,2.742c-1.015,0-1.703-0.951-1.719-2.671c0-1.742,0.752-2.702,1.807-2.702   C159.279,177.753,159.903,178.729,159.903,180.384z M157.081,180.464c0,1.351,0.416,2.118,1.055,2.118   c0.72,0,1.063-0.839,1.063-2.167c0-1.279-0.327-2.118-1.055-2.118C157.528,178.297,157.081,179.048,157.081,180.464z"/>
	<path d="M162.896,179.304c0,1.096-0.575,1.64-1.247,1.64c-0.647,0-1.207-0.52-1.215-1.567c0-1.039,0.567-1.623,1.255-1.623   C162.416,177.753,162.896,178.313,162.896,179.304z M160.993,179.353c-0.017,0.663,0.231,1.167,0.671,1.167   c0.464,0,0.672-0.496,0.672-1.184c0-0.632-0.184-1.159-0.672-1.159C161.225,178.177,160.993,178.697,160.993,179.353z    M161.601,183.126l3.055-5.373h0.447l-3.054,5.373H161.601z M166.278,181.456c0,1.096-0.576,1.639-1.239,1.639   c-0.648,0-1.208-0.52-1.216-1.559c0-1.048,0.567-1.632,1.256-1.632C165.807,179.904,166.278,180.464,166.278,181.456z    M164.375,181.503c-0.008,0.664,0.248,1.167,0.68,1.167c0.464,0,0.672-0.495,0.672-1.183c0-0.632-0.185-1.16-0.672-1.16   C164.615,180.328,164.375,180.848,164.375,181.503z"/>
	<path d="M169.657,178.057v1.111h1.007v0.536h-1.007v2.087c0,0.479,0.136,0.751,0.527,0.751c0.184,0,0.319-0.023,0.407-0.048   l0.032,0.528c-0.136,0.056-0.352,0.096-0.623,0.096c-0.328,0-0.592-0.104-0.76-0.296c-0.2-0.208-0.272-0.552-0.272-1.008v-2.11   h-0.6v-0.536h0.6v-0.927L169.657,178.057z"/>
	<path d="M174.959,181.072c0,1.431-0.991,2.055-1.927,2.055c-1.048,0-1.855-0.768-1.855-1.991c0-1.295,0.848-2.055,1.919-2.055   C174.207,179.081,174.959,179.888,174.959,181.072z M171.889,181.112c0,0.848,0.487,1.487,1.175,1.487   c0.672,0,1.176-0.632,1.176-1.504c0-0.655-0.328-1.486-1.159-1.486C172.248,179.609,171.889,180.376,171.889,181.112z"/>
	<path d="M180.287,178.337c-0.144-0.008-0.328,0-0.527,0.031c-1.104,0.185-1.688,0.992-1.808,1.848h0.024   c0.248-0.328,0.68-0.6,1.255-0.6c0.92,0,1.567,0.663,1.567,1.679c0,0.951-0.647,1.831-1.727,1.831c-1.112,0-1.84-0.863-1.84-2.215   c0-1.023,0.368-1.831,0.88-2.343c0.432-0.424,1.008-0.688,1.663-0.768c0.208-0.032,0.384-0.04,0.512-0.04V178.337z    M180.087,181.335c0-0.743-0.424-1.191-1.071-1.191c-0.424,0-0.815,0.264-1.007,0.64c-0.049,0.08-0.08,0.184-0.08,0.312   c0.016,0.855,0.407,1.487,1.144,1.487C179.68,182.583,180.087,182.08,180.087,181.335z"/>
	<path d="M184.878,180.384c0,1.767-0.655,2.742-1.807,2.742c-1.016,0-1.703-0.951-1.719-2.671c0-1.742,0.751-2.702,1.807-2.702   C184.255,177.753,184.878,178.729,184.878,180.384z M182.056,180.464c0,1.351,0.416,2.118,1.056,2.118   c0.72,0,1.063-0.839,1.063-2.167c0-1.279-0.328-2.118-1.056-2.118C182.504,178.297,182.056,179.048,182.056,180.464z"/>
	<path d="M187.87,179.304c0,1.096-0.575,1.64-1.247,1.64c-0.647,0-1.207-0.52-1.215-1.567c0-1.039,0.567-1.623,1.255-1.623   C187.391,177.753,187.87,178.313,187.87,179.304z M185.968,179.353c-0.017,0.663,0.231,1.167,0.671,1.167   c0.464,0,0.672-0.496,0.672-1.184c0-0.632-0.184-1.159-0.672-1.159C186.199,178.177,185.968,178.697,185.968,179.353z    M186.575,183.126l3.055-5.373h0.447l-3.054,5.373H186.575z M191.253,181.456c0,1.096-0.576,1.639-1.239,1.639   c-0.648,0-1.208-0.52-1.216-1.559c0-1.048,0.567-1.632,1.256-1.632C190.781,179.904,191.253,180.464,191.253,181.456z    M189.35,181.503c-0.008,0.664,0.248,1.167,0.68,1.167c0.464,0,0.672-0.495,0.672-1.183c0-0.632-0.185-1.16-0.672-1.16   C189.59,180.328,189.35,180.848,189.35,181.503z"/>
</g>
<g>
	<path d="M217.234,178.337c-0.144-0.008-0.328,0-0.527,0.031c-1.104,0.185-1.688,0.992-1.808,1.848h0.024   c0.248-0.328,0.68-0.6,1.255-0.6c0.92,0,1.567,0.663,1.567,1.679c0,0.951-0.647,1.831-1.727,1.831c-1.112,0-1.84-0.863-1.84-2.215   c0-1.023,0.368-1.831,0.88-2.343c0.432-0.424,1.008-0.688,1.663-0.768c0.208-0.032,0.384-0.04,0.512-0.04V178.337z    M217.034,181.335c0-0.743-0.424-1.191-1.071-1.191c-0.424,0-0.815,0.264-1.007,0.64c-0.049,0.08-0.08,0.184-0.08,0.312   c0.016,0.855,0.407,1.487,1.144,1.487C216.627,182.583,217.034,182.08,217.034,181.335z"/>
	<path d="M221.825,180.384c0,1.767-0.655,2.742-1.807,2.742c-1.016,0-1.703-0.951-1.719-2.671c0-1.742,0.751-2.702,1.807-2.702   C221.202,177.753,221.825,178.729,221.825,180.384z M219.003,180.464c0,1.351,0.416,2.118,1.056,2.118   c0.72,0,1.063-0.839,1.063-2.167c0-1.279-0.328-2.118-1.056-2.118C219.451,178.297,219.003,179.048,219.003,180.464z"/>
	<path d="M224.817,179.304c0,1.096-0.575,1.64-1.247,1.64c-0.647,0-1.207-0.52-1.215-1.567c0-1.039,0.567-1.623,1.255-1.623   C224.338,177.753,224.817,178.313,224.817,179.304z M222.915,179.353c-0.017,0.663,0.231,1.167,0.671,1.167   c0.464,0,0.672-0.496,0.672-1.184c0-0.632-0.184-1.159-0.672-1.159C223.146,178.177,222.915,178.697,222.915,179.353z    M223.522,183.126l3.055-5.373h0.447l-3.054,5.373H223.522z M228.2,181.456c0,1.096-0.576,1.639-1.239,1.639   c-0.648,0-1.208-0.52-1.216-1.559c0-1.048,0.567-1.632,1.256-1.632C227.729,179.904,228.2,180.464,228.2,181.456z M226.297,181.503   c-0.008,0.664,0.248,1.167,0.68,1.167c0.464,0,0.672-0.495,0.672-1.183c0-0.632-0.185-1.16-0.672-1.16   C226.537,180.328,226.297,180.848,226.297,181.503z"/>
	<path d="M231.579,178.057v1.111h1.007v0.536h-1.007v2.087c0,0.479,0.136,0.751,0.527,0.751c0.184,0,0.319-0.023,0.407-0.048   l0.032,0.528c-0.136,0.056-0.352,0.096-0.623,0.096c-0.328,0-0.592-0.104-0.76-0.296c-0.2-0.208-0.272-0.552-0.272-1.008v-2.11   h-0.6v-0.536h0.6v-0.927L231.579,178.057z"/>
	<path d="M236.881,181.072c0,1.431-0.991,2.055-1.927,2.055c-1.048,0-1.855-0.768-1.855-1.991c0-1.295,0.848-2.055,1.919-2.055   C236.129,179.081,236.881,179.888,236.881,181.072z M233.811,181.112c0,0.848,0.487,1.487,1.175,1.487   c0.672,0,1.176-0.632,1.176-1.504c0-0.655-0.328-1.486-1.159-1.486C234.17,179.609,233.811,180.376,233.811,181.112z"/>
	<path d="M239.179,181.719c0-0.655,0.392-1.119,1.031-1.392l-0.008-0.023c-0.576-0.271-0.823-0.72-0.823-1.168   c0-0.823,0.695-1.383,1.606-1.383c1.008,0,1.512,0.632,1.512,1.279c0,0.439-0.216,0.911-0.855,1.216v0.023   c0.647,0.256,1.047,0.712,1.047,1.344c0,0.903-0.775,1.511-1.767,1.511C239.834,183.126,239.179,182.479,239.179,181.719z    M241.978,181.687c0-0.631-0.44-0.936-1.144-1.135c-0.607,0.176-0.936,0.575-0.936,1.071c-0.024,0.527,0.376,0.991,1.039,0.991   C241.569,182.615,241.978,182.223,241.978,181.687z M240.042,179.088c0,0.521,0.392,0.8,0.991,0.96   c0.448-0.152,0.792-0.472,0.792-0.943c0-0.416-0.248-0.848-0.88-0.848C240.362,178.257,240.042,178.641,240.042,179.088z"/>
	<path d="M246.8,180.384c0,1.767-0.655,2.742-1.807,2.742c-1.016,0-1.703-0.951-1.719-2.671c0-1.742,0.751-2.702,1.807-2.702   C246.177,177.753,246.8,178.729,246.8,180.384z M243.978,180.464c0,1.351,0.416,2.118,1.056,2.118c0.72,0,1.063-0.839,1.063-2.167   c0-1.279-0.328-2.118-1.056-2.118C244.426,178.297,243.978,179.048,243.978,180.464z"/>
	<path d="M249.792,179.304c0,1.096-0.575,1.64-1.247,1.64c-0.647,0-1.207-0.52-1.215-1.567c0-1.039,0.567-1.623,1.255-1.623   C249.312,177.753,249.792,178.313,249.792,179.304z M247.89,179.353c-0.017,0.663,0.231,1.167,0.671,1.167   c0.464,0,0.672-0.496,0.672-1.184c0-0.632-0.184-1.159-0.672-1.159C248.121,178.177,247.89,178.697,247.89,179.353z    M248.497,183.126l3.055-5.373h0.447l-3.054,5.373H248.497z M253.175,181.456c0,1.096-0.576,1.639-1.239,1.639   c-0.648,0-1.208-0.52-1.216-1.559c0-1.048,0.567-1.632,1.256-1.632C252.703,179.904,253.175,180.464,253.175,181.456z    M251.271,181.503c-0.008,0.664,0.248,1.167,0.68,1.167c0.464,0,0.672-0.495,0.672-1.183c0-0.632-0.185-1.16-0.672-1.16   C251.512,180.328,251.271,180.848,251.271,181.503z"/>
</g>
<g>
	<path d="M283.123,178.242h-1.639v-0.592h3.989v0.592h-1.646v4.797h-0.704V178.242z"/>
	<path d="M288.602,181.072c0,1.431-0.991,2.055-1.927,2.055c-1.048,0-1.855-0.768-1.855-1.991c0-1.295,0.848-2.055,1.919-2.055   C287.85,179.081,288.602,179.888,288.602,181.072z M285.531,181.112c0,0.848,0.487,1.487,1.175,1.487   c0.672,0,1.176-0.632,1.176-1.504c0-0.655-0.328-1.486-1.159-1.486C285.891,179.609,285.531,180.376,285.531,181.112z"/>
	<path d="M289.491,180.432c0-0.496-0.017-0.896-0.032-1.264h0.632l0.032,0.664h0.016c0.288-0.472,0.743-0.752,1.375-0.752   c0.936,0,1.64,0.792,1.64,1.967c0,1.392-0.848,2.079-1.76,2.079c-0.512,0-0.959-0.224-1.191-0.607h-0.016v2.103h-0.695V180.432z    M290.187,181.463c0,0.104,0.016,0.2,0.032,0.288c0.128,0.487,0.552,0.823,1.055,0.823c0.744,0,1.176-0.607,1.176-1.495   c0-0.775-0.408-1.439-1.151-1.439c-0.479,0-0.928,0.344-1.063,0.872c-0.023,0.088-0.048,0.191-0.048,0.288V181.463z"/>
	<path d="M295.515,183.039v-0.432l0.552-0.536c1.328-1.263,1.928-1.935,1.936-2.718c0-0.528-0.256-1.016-1.031-1.016   c-0.473,0-0.864,0.239-1.104,0.439l-0.225-0.496c0.36-0.304,0.872-0.527,1.472-0.527c1.119,0,1.591,0.768,1.591,1.512   c0,0.959-0.695,1.734-1.791,2.79l-0.416,0.384v0.016h2.335v0.584H295.515z"/>
	<path d="M303.072,180.384c0,1.767-0.655,2.742-1.807,2.742c-1.016,0-1.703-0.951-1.719-2.671c0-1.742,0.751-2.702,1.807-2.702   C302.449,177.753,303.072,178.729,303.072,180.384z M300.25,180.464c0,1.351,0.416,2.118,1.056,2.118   c0.72,0,1.063-0.839,1.063-2.167c0-1.279-0.328-2.118-1.056-2.118C300.698,178.297,300.25,179.048,300.25,180.464z"/>
	<path d="M306.064,179.304c0,1.096-0.575,1.64-1.247,1.64c-0.647,0-1.207-0.52-1.215-1.567c0-1.039,0.567-1.623,1.255-1.623   C305.585,177.753,306.064,178.313,306.064,179.304z M304.162,179.353c-0.017,0.663,0.231,1.167,0.672,1.167   c0.463,0,0.671-0.496,0.671-1.184c0-0.632-0.184-1.159-0.671-1.159C304.394,178.177,304.162,178.697,304.162,179.353z    M304.77,183.126l3.055-5.373h0.447l-3.055,5.373H304.77z M309.447,181.456c0,1.096-0.576,1.639-1.239,1.639   c-0.648,0-1.208-0.52-1.216-1.559c0-1.048,0.567-1.632,1.256-1.632C308.976,179.904,309.447,180.464,309.447,181.456z    M307.544,181.503c-0.008,0.664,0.248,1.167,0.68,1.167c0.464,0,0.672-0.495,0.672-1.183c0-0.632-0.185-1.16-0.672-1.16   C307.784,180.328,307.544,180.848,307.544,181.503z"/>
</g>
<g>
	<path d="M131.933,194.979c-0.728-0.192-1.439-0.408-2.063-0.624c-0.112-0.04-0.224-0.08-0.328-0.08   c-1.279-0.048-2.375-0.991-2.375-2.727c0-1.727,1.055-2.838,2.51-2.838c1.463,0,2.415,1.135,2.415,2.727   c0,1.383-0.64,2.271-1.535,2.582v0.032c0.536,0.136,1.12,0.264,1.575,0.344L131.933,194.979z M131.357,191.468   c0-1.079-0.56-2.19-1.703-2.19c-1.175,0-1.751,1.087-1.743,2.255c-0.008,1.144,0.624,2.175,1.711,2.175   C130.734,193.708,131.357,192.7,131.357,191.468z"/>
	<path d="M136.213,193.131c0,0.4,0.008,0.752,0.032,1.056h-0.624l-0.04-0.632h-0.016c-0.184,0.312-0.592,0.72-1.279,0.72   c-0.608,0-1.335-0.336-1.335-1.695v-2.263h0.704v2.144c0,0.735,0.224,1.23,0.864,1.23c0.472,0,0.799-0.327,0.927-0.64   c0.04-0.104,0.064-0.231,0.064-0.359v-2.375h0.704V193.131z"/>
	<path d="M138.167,189.23c0.008,0.239-0.168,0.432-0.448,0.432c-0.248,0-0.424-0.192-0.424-0.432c0-0.248,0.184-0.44,0.44-0.44   C137.999,188.79,138.167,188.982,138.167,189.23z M137.383,194.187v-3.87h0.704v3.87H137.383z"/>
	<path d="M139.255,191.365c0-0.4-0.008-0.728-0.032-1.048h0.624l0.04,0.64h0.016c0.192-0.367,0.64-0.728,1.279-0.728   c0.536,0,1.367,0.32,1.367,1.647v2.311h-0.704v-2.23c0-0.624-0.232-1.144-0.896-1.144c-0.464,0-0.824,0.328-0.943,0.72   c-0.032,0.088-0.048,0.208-0.048,0.327v2.327h-0.704V191.365z"/>
	<path d="M144.543,189.206v1.111h1.007v0.536h-1.007v2.087c0,0.479,0.136,0.751,0.528,0.751c0.184,0,0.32-0.023,0.408-0.048   l0.032,0.528c-0.136,0.056-0.352,0.096-0.624,0.096c-0.328,0-0.592-0.104-0.759-0.296c-0.2-0.208-0.272-0.552-0.272-1.008v-2.11   h-0.6v-0.536h0.6v-0.927L144.543,189.206z"/>
	<path d="M147.127,189.23c0.008,0.239-0.168,0.432-0.448,0.432c-0.248,0-0.424-0.192-0.424-0.432c0-0.248,0.184-0.44,0.44-0.44   C146.959,188.79,147.127,188.982,147.127,189.23z M146.343,194.187v-3.87h0.704v3.87H146.343z"/>
	<path d="M148.215,188.51h0.704v5.677h-0.704V188.51z"/>
	<path d="M150.495,192.38c0.016,0.951,0.624,1.343,1.327,1.343c0.504,0,0.808-0.088,1.071-0.2l0.12,0.504   c-0.248,0.112-0.672,0.24-1.287,0.24c-1.191,0-1.903-0.783-1.903-1.951c0-1.167,0.688-2.087,1.815-2.087   c1.264,0,1.599,1.111,1.599,1.823c0,0.144-0.016,0.256-0.024,0.328H150.495z M152.558,191.876c0.008-0.448-0.184-1.144-0.975-1.144   c-0.712,0-1.023,0.655-1.08,1.144H152.558z"/>
	<path d="M159.309,192.22c0,1.431-0.991,2.055-1.927,2.055c-1.047,0-1.855-0.768-1.855-1.991c0-1.295,0.848-2.055,1.919-2.055   C158.557,190.229,159.309,191.037,159.309,192.22z M156.239,192.26c0,0.848,0.488,1.487,1.175,1.487   c0.671,0,1.175-0.632,1.175-1.504c0-0.655-0.328-1.486-1.16-1.486C156.599,190.757,156.239,191.525,156.239,192.26z"/>
	<path d="M160.271,194.187v-3.334h-0.543v-0.536h0.543v-0.184c0-0.544,0.12-1.039,0.448-1.352c0.264-0.256,0.615-0.359,0.943-0.359   c0.248,0,0.464,0.056,0.6,0.111l-0.096,0.544c-0.104-0.048-0.248-0.088-0.448-0.088c-0.6,0-0.751,0.527-0.751,1.119v0.208h0.936   v0.536h-0.936v3.334H160.271z"/>
	<path d="M164.231,191.581c0-0.496-0.017-0.896-0.032-1.264h0.632l0.032,0.664h0.016c0.288-0.472,0.743-0.752,1.375-0.752   c0.936,0,1.64,0.792,1.64,1.967c0,1.392-0.848,2.079-1.76,2.079c-0.512,0-0.959-0.224-1.191-0.607h-0.016v2.103h-0.695V191.581z    M164.927,192.612c0,0.104,0.016,0.2,0.032,0.288c0.128,0.487,0.552,0.823,1.055,0.823c0.744,0,1.176-0.607,1.176-1.495   c0-0.775-0.408-1.439-1.151-1.439c-0.479,0-0.928,0.344-1.063,0.872c-0.023,0.088-0.048,0.191-0.048,0.288V192.612z"/>
	<path d="M172.285,192.22c0,1.431-0.991,2.055-1.927,2.055c-1.048,0-1.855-0.768-1.855-1.991c0-1.295,0.848-2.055,1.919-2.055   C171.533,190.229,172.285,191.037,172.285,192.22z M169.215,192.26c0,0.848,0.487,1.487,1.175,1.487   c0.672,0,1.176-0.632,1.176-1.504c0-0.655-0.328-1.486-1.159-1.486C169.574,190.757,169.215,191.525,169.215,192.26z"/>
	<path d="M173.175,188.51h0.703v5.677h-0.703V188.51z"/>
	<path d="M175.318,190.317l0.848,2.287c0.088,0.256,0.184,0.56,0.247,0.791h0.017c0.071-0.231,0.151-0.527,0.248-0.808l0.768-2.271   h0.743l-1.056,2.759c-0.504,1.327-0.848,2.007-1.327,2.423c-0.344,0.304-0.688,0.424-0.863,0.455l-0.176-0.591   c0.176-0.057,0.407-0.168,0.615-0.344c0.192-0.152,0.432-0.424,0.592-0.784c0.032-0.072,0.056-0.128,0.056-0.168   s-0.016-0.096-0.048-0.184l-1.431-3.566H175.318z"/>
	<path d="M182.164,190.317c-0.016,0.28-0.032,0.592-0.032,1.063v2.247c0,0.888-0.176,1.431-0.552,1.767   c-0.376,0.353-0.919,0.464-1.407,0.464c-0.464,0-0.976-0.111-1.287-0.319l0.176-0.536c0.256,0.16,0.655,0.304,1.136,0.304   c0.72,0,1.247-0.376,1.247-1.351v-0.433h-0.016c-0.216,0.36-0.632,0.648-1.231,0.648c-0.96,0-1.647-0.816-1.647-1.888   c0-1.311,0.855-2.055,1.743-2.055c0.672,0,1.039,0.352,1.207,0.672h0.017l0.031-0.584H182.164z M181.437,191.844   c0-0.12-0.008-0.224-0.04-0.319c-0.128-0.408-0.472-0.744-0.983-0.744c-0.672,0-1.151,0.567-1.151,1.463   c0,0.76,0.384,1.392,1.144,1.392c0.432,0,0.823-0.271,0.976-0.72c0.039-0.12,0.056-0.256,0.056-0.376V191.844z"/>
	<path d="M183.693,192.38c0.016,0.951,0.623,1.343,1.327,1.343c0.504,0,0.808-0.088,1.071-0.2l0.12,0.504   c-0.248,0.112-0.672,0.24-1.287,0.24c-1.191,0-1.903-0.783-1.903-1.951c0-1.167,0.688-2.087,1.815-2.087   c1.263,0,1.599,1.111,1.599,1.823c0,0.144-0.016,0.256-0.023,0.328H183.693z M185.756,191.876c0.008-0.448-0.184-1.144-0.976-1.144   c-0.711,0-1.023,0.655-1.079,1.144H185.756z"/>
	<path d="M187.31,191.365c0-0.4-0.009-0.728-0.032-1.048h0.624l0.04,0.64h0.016c0.191-0.367,0.64-0.728,1.279-0.728   c0.535,0,1.367,0.32,1.367,1.647v2.311h-0.704v-2.23c0-0.624-0.231-1.144-0.896-1.144c-0.463,0-0.823,0.328-0.943,0.72   c-0.031,0.088-0.048,0.208-0.048,0.327v2.327h-0.703V191.365z"/>
	<path d="M192.533,189.23c0.008,0.239-0.168,0.432-0.447,0.432c-0.248,0-0.424-0.192-0.424-0.432c0-0.248,0.184-0.44,0.439-0.44   C192.365,188.79,192.533,188.982,192.533,189.23z M191.75,194.187v-3.87h0.703v3.87H191.75z"/>
	<path d="M196.38,194.043c-0.184,0.096-0.591,0.224-1.111,0.224c-1.167,0-1.927-0.792-1.927-1.975c0-1.191,0.815-2.056,2.079-2.056   c0.416,0,0.783,0.104,0.976,0.2l-0.16,0.544c-0.168-0.096-0.432-0.185-0.815-0.185c-0.888,0-1.367,0.656-1.367,1.464   c0,0.896,0.575,1.447,1.343,1.447c0.4,0,0.664-0.104,0.864-0.192L196.38,194.043z"/>
	<path d="M199.686,189.23c0.008,0.239-0.168,0.432-0.447,0.432c-0.248,0-0.424-0.192-0.424-0.432c0-0.248,0.184-0.44,0.439-0.44   C199.518,188.79,199.686,188.982,199.686,189.23z M198.902,194.187v-3.87h0.703v3.87H198.902z"/>
	<path d="M200.774,191.365c0-0.4-0.009-0.728-0.032-1.048h0.624l0.04,0.64h0.016c0.191-0.367,0.64-0.728,1.279-0.728   c0.535,0,1.367,0.32,1.367,1.647v2.311h-0.704v-2.23c0-0.624-0.231-1.144-0.896-1.144c-0.463,0-0.823,0.328-0.943,0.72   c-0.031,0.088-0.048,0.208-0.048,0.327v2.327h-0.703V191.365z"/>
	<path d="M208.557,188.51v4.678c0,0.344,0.008,0.735,0.032,0.999h-0.632l-0.032-0.672h-0.016c-0.216,0.432-0.688,0.76-1.319,0.76   c-0.936,0-1.655-0.791-1.655-1.967c-0.008-1.287,0.792-2.079,1.735-2.079c0.592,0,0.991,0.28,1.167,0.592h0.017v-2.311H208.557z    M207.854,191.892c0-0.088-0.009-0.208-0.032-0.296c-0.104-0.447-0.488-0.815-1.016-0.815c-0.728,0-1.159,0.64-1.159,1.495   c0,0.784,0.384,1.432,1.144,1.432c0.472,0,0.903-0.312,1.031-0.84c0.023-0.096,0.032-0.191,0.032-0.304V191.892z"/>
	<path d="M210.118,192.38c0.016,0.951,0.624,1.343,1.327,1.343c0.504,0,0.808-0.088,1.071-0.2l0.12,0.504   c-0.248,0.112-0.672,0.24-1.287,0.24c-1.191,0-1.903-0.783-1.903-1.951c0-1.167,0.688-2.087,1.815-2.087   c1.263,0,1.599,1.111,1.599,1.823c0,0.144-0.016,0.256-0.023,0.328H210.118z M212.181,191.876c0.008-0.448-0.184-1.144-0.976-1.144   c-0.711,0-1.023,0.655-1.079,1.144H212.181z"/>
	<path d="M213.821,190.317l0.552,0.832c0.145,0.216,0.264,0.415,0.393,0.632h0.023c0.128-0.232,0.256-0.433,0.384-0.64l0.544-0.824   h0.76l-1.319,1.871l1.359,1.999h-0.8l-0.568-0.871c-0.151-0.225-0.279-0.44-0.415-0.672h-0.017   c-0.128,0.231-0.264,0.439-0.407,0.672l-0.56,0.871h-0.775l1.375-1.975l-1.312-1.896H213.821z"/>
</g>
<g>
	<path d="M0.439,143.202c-0.056-0.336-0.104-0.775-0.104-1.336c0-0.688,0.16-1.19,0.448-1.511c0.256-0.296,0.648-0.472,1.127-0.472   c0.488,0,0.872,0.144,1.151,0.416c0.392,0.367,0.592,0.967,0.592,1.646c0,0.208-0.008,0.4-0.048,0.56h2.159v0.696H0.439z    M3.038,142.505c0.04-0.151,0.056-0.344,0.056-0.575c0-0.84-0.408-1.352-1.151-1.352c-0.712,0-1.056,0.504-1.056,1.271   c0,0.304,0.024,0.536,0.056,0.655H3.038z"/>
	<path d="M3.958,138.969c0.952-0.016,1.343-0.624,1.343-1.327c0-0.504-0.088-0.808-0.2-1.071l0.503-0.12   c0.112,0.248,0.24,0.672,0.24,1.287c0,1.191-0.784,1.903-1.951,1.903c-1.167,0-2.087-0.688-2.087-1.815   c0-1.263,1.111-1.599,1.823-1.599c0.144,0,0.256,0.016,0.328,0.023V138.969z M3.454,136.907c-0.448-0.008-1.144,0.184-1.144,0.976   c0,0.711,0.656,1.023,1.144,1.079V136.907z"/>
	<path d="M3.102,135.353c-0.456,0-0.848,0.008-1.208,0.032v-0.615l0.76-0.024v-0.032c-0.52-0.176-0.848-0.6-0.848-1.071   c0-0.08,0.008-0.136,0.024-0.199h0.664c-0.016,0.071-0.024,0.144-0.024,0.239c0,0.496,0.375,0.848,0.903,0.943   c0.096,0.017,0.208,0.032,0.328,0.032h2.063v0.695H3.102z"/>
	<path d="M5.621,129.979c0.096,0.184,0.224,0.591,0.224,1.111c0,1.167-0.792,1.927-1.975,1.927c-1.191,0-2.055-0.815-2.055-2.079   c0-0.416,0.104-0.783,0.2-0.976l0.544,0.16c-0.096,0.168-0.184,0.432-0.184,0.815c0,0.888,0.656,1.367,1.463,1.367   c0.896,0,1.447-0.575,1.447-1.343c0-0.4-0.104-0.664-0.192-0.864L5.621,129.979z"/>
	<path d="M3.958,128.761c0.952-0.016,1.343-0.623,1.343-1.327c0-0.504-0.088-0.808-0.2-1.071l0.503-0.12   c0.112,0.248,0.24,0.672,0.24,1.287c0,1.191-0.784,1.903-1.951,1.903c-1.167,0-2.087-0.688-2.087-1.815   c0-1.263,1.111-1.599,1.823-1.599c0.144,0,0.256,0.016,0.328,0.023V128.761z M3.454,126.699c-0.448-0.008-1.144,0.184-1.144,0.976   c0,0.711,0.656,1.023,1.144,1.079V126.699z"/>
	<path d="M2.942,125.145c-0.4,0-0.728,0.009-1.048,0.032v-0.624l0.64-0.04v-0.016c-0.368-0.191-0.728-0.64-0.728-1.279   c0-0.535,0.32-1.367,1.647-1.367h2.311v0.704H3.534c-0.624,0-1.143,0.231-1.143,0.896c0,0.463,0.328,0.823,0.72,0.943   c0.088,0.031,0.208,0.048,0.328,0.048h2.327v0.703H2.942z"/>
	<path d="M0.783,119.858h1.111v-1.007h0.536v1.007h2.087c0.479,0,0.751-0.136,0.751-0.527c0-0.184-0.024-0.319-0.048-0.407   l0.528-0.032c0.056,0.136,0.096,0.352,0.096,0.623c0,0.328-0.104,0.592-0.296,0.76c-0.208,0.2-0.552,0.272-1.007,0.272H2.431v0.6   H1.895v-0.6H0.967L0.783,119.858z"/>
	<path d="M3.798,112.859c1.431,0,2.055,0.991,2.055,1.927c0,1.048-0.768,1.855-1.991,1.855c-1.295,0-2.055-0.848-2.055-1.919   C1.807,113.611,2.614,112.859,3.798,112.859z M3.838,115.929c0.847,0,1.487-0.487,1.487-1.175c0-0.672-0.631-1.176-1.503-1.176   c-0.656,0-1.487,0.328-1.487,1.159C2.334,115.57,3.102,115.929,3.838,115.929z"/>
	<path d="M5.765,111.898H2.431v0.543H1.895v-0.543H1.711c-0.544,0-1.04-0.12-1.352-0.448C0.104,111.186,0,110.834,0,110.506   c0-0.248,0.056-0.464,0.112-0.6l0.543,0.096c-0.048,0.104-0.088,0.248-0.088,0.448c0,0.6,0.528,0.751,1.12,0.751h0.208v-0.936   h0.536v0.936h3.334V111.898z"/>
	<path d="M5.045,108.034c0.136-0.208,0.28-0.576,0.28-0.928c0-0.512-0.256-0.752-0.576-0.752c-0.335,0-0.52,0.2-0.711,0.72   c-0.248,0.695-0.632,1.023-1.095,1.023c-0.624,0-1.136-0.504-1.136-1.335c0-0.392,0.112-0.735,0.24-0.952l0.512,0.177   c-0.096,0.151-0.224,0.432-0.224,0.791c0,0.416,0.24,0.647,0.528,0.647c0.32,0,0.464-0.231,0.656-0.735   c0.256-0.672,0.591-1.016,1.167-1.016c0.68,0,1.16,0.528,1.16,1.447c0,0.424-0.104,0.815-0.264,1.088L5.045,108.034z"/>
	<path d="M5.765,102.626l-0.488,0.056v0.024c0.304,0.216,0.576,0.632,0.576,1.184c0,0.783-0.552,1.183-1.111,1.183   c-0.936,0-1.447-0.831-1.439-2.326h-0.08c-0.32,0-0.896,0.088-0.896,0.88c0,0.359,0.112,0.735,0.288,1.007l-0.464,0.16   c-0.208-0.32-0.344-0.784-0.344-1.271c0-1.184,0.808-1.471,1.583-1.471h1.447c0.336,0,0.664-0.017,0.928-0.064V102.626z    M3.79,102.73c-0.016,0.768,0.12,1.64,0.872,1.64c0.456,0,0.672-0.304,0.672-0.664c0-0.503-0.32-0.823-0.648-0.936   c-0.072-0.023-0.152-0.04-0.224-0.04H3.79z"/>
	<path d="M2.942,100.913c-0.4,0-0.728,0.009-1.048,0.032v-0.615l0.624-0.032v-0.024c-0.368-0.216-0.712-0.575-0.712-1.215   c0-0.528,0.32-0.928,0.776-1.096v-0.016c-0.216-0.12-0.384-0.272-0.504-0.432c-0.176-0.232-0.272-0.488-0.272-0.855   c0-0.512,0.336-1.271,1.679-1.271h2.279v0.688H3.574c-0.744,0-1.191,0.271-1.191,0.839c0,0.4,0.296,0.711,0.64,0.832   c0.096,0.032,0.224,0.056,0.352,0.056h2.391v0.687H3.446c-0.616,0-1.063,0.272-1.063,0.808c0,0.44,0.352,0.76,0.704,0.872   c0.104,0.04,0.224,0.056,0.344,0.056h2.335v0.688H2.942z"/>
	<path d="M3.158,94.242c-0.496,0-0.896,0.016-1.264,0.032v-0.631l0.664-0.032v-0.016c-0.472-0.288-0.752-0.744-0.752-1.375   c0-0.936,0.792-1.639,1.967-1.639c1.391,0,2.079,0.848,2.079,1.759c0,0.512-0.224,0.959-0.607,1.191v0.016h2.103v0.696H3.158z    M4.189,93.546c0.104,0,0.2-0.016,0.288-0.032c0.487-0.128,0.823-0.552,0.823-1.056c0-0.744-0.607-1.175-1.495-1.175   c-0.775,0-1.439,0.408-1.439,1.151c0,0.479,0.344,0.927,0.872,1.063c0.088,0.024,0.191,0.048,0.288,0.048H4.189z"/>
	<path d="M0.088,89.69v-0.704h5.677v0.704H0.088z"/>
	<path d="M3.958,87.41c0.952-0.016,1.343-0.624,1.343-1.327c0-0.504-0.088-0.808-0.2-1.071l0.503-0.12   c0.112,0.248,0.24,0.672,0.24,1.288c0,1.191-0.784,1.903-1.951,1.903c-1.167,0-2.087-0.688-2.087-1.815   c0-1.264,1.111-1.599,1.823-1.599c0.144,0,0.256,0.016,0.328,0.024V87.41z M3.454,85.347c-0.448-0.008-1.144,0.184-1.144,0.976   c0,0.712,0.656,1.023,1.144,1.08V85.347z"/>
	<path d="M3.102,82.099c-0.456,0-0.848,0.008-1.208,0.032v-0.616l0.76-0.024v-0.032c-0.52-0.176-0.848-0.6-0.848-1.072   c0-0.08,0.008-0.136,0.024-0.2h0.664c-0.016,0.072-0.024,0.144-0.024,0.24c0,0.496,0.375,0.848,0.903,0.943   c0.096,0.016,0.208,0.032,0.328,0.032h2.063v0.696H3.102z"/>
	<path d="M3.958,79.091c0.952-0.016,1.343-0.624,1.343-1.327c0-0.504-0.088-0.808-0.2-1.071l0.503-0.12   c0.112,0.248,0.24,0.672,0.24,1.288c0,1.191-0.784,1.903-1.951,1.903c-1.167,0-2.087-0.688-2.087-1.815   c0-1.264,1.111-1.599,1.823-1.599c0.144,0,0.256,0.016,0.328,0.024V79.091z M3.454,77.028c-0.448-0.008-1.144,0.184-1.144,0.976   c0,0.712,0.656,1.023,1.144,1.08V77.028z"/>
	<path d="M3.158,75.475c-0.496,0-0.896,0.016-1.264,0.032v-0.631l0.664-0.032v-0.016c-0.472-0.288-0.752-0.744-0.752-1.375   c0-0.936,0.792-1.639,1.967-1.639c1.391,0,2.079,0.848,2.079,1.759c0,0.512-0.224,0.959-0.607,1.191v0.016h2.103v0.696H3.158z    M4.189,74.779c0.104,0,0.2-0.016,0.288-0.032c0.487-0.128,0.823-0.552,0.823-1.056c0-0.744-0.607-1.175-1.495-1.175   c-0.775,0-1.439,0.408-1.439,1.151c0,0.479,0.344,0.927,0.872,1.063c0.088,0.024,0.191,0.048,0.288,0.048H4.189z"/>
	<path d="M3.798,67.421c1.431,0,2.055,0.992,2.055,1.927c0,1.047-0.768,1.855-1.991,1.855c-1.295,0-2.055-0.848-2.055-1.919   C1.807,68.173,2.614,67.421,3.798,67.421z M3.838,70.491c0.847,0,1.487-0.488,1.487-1.175c0-0.671-0.631-1.175-1.503-1.175   c-0.656,0-1.487,0.328-1.487,1.16C2.334,70.131,3.102,70.491,3.838,70.491z"/>
	<path d="M3.102,66.531c-0.456,0-0.848,0.008-1.208,0.032v-0.616l0.76-0.024v-0.032c-0.52-0.176-0.848-0.6-0.848-1.072   c0-0.08,0.008-0.136,0.024-0.2h0.664c-0.016,0.072-0.024,0.144-0.024,0.24c0,0.496,0.375,0.848,0.903,0.943   c0.096,0.016,0.208,0.032,0.328,0.032h2.063v0.696H3.102z"/>
	<path d="M0.783,62.756h1.111v-1.007h0.536v1.007h2.087c0.479,0,0.751-0.136,0.751-0.528c0-0.184-0.024-0.32-0.048-0.408   l0.528-0.032c0.056,0.136,0.096,0.352,0.096,0.624c0,0.328-0.104,0.591-0.296,0.759c-0.208,0.2-0.552,0.272-1.007,0.272H2.431v0.6   H1.895v-0.6H0.967L0.783,62.756z"/>
	<path d="M0.808,60.172c0.24-0.008,0.432,0.168,0.432,0.448c0,0.248-0.192,0.424-0.432,0.424c-0.248,0-0.44-0.184-0.44-0.44   C0.368,60.34,0.56,60.172,0.808,60.172z M5.765,60.956h-3.87v-0.704h3.87V60.956z"/>
	<path d="M2.942,59.083c-0.4,0-0.728,0.008-1.048,0.032v-0.624l0.64-0.04v-0.016c-0.368-0.192-0.728-0.64-0.728-1.279   c0-0.536,0.32-1.367,1.647-1.367h2.311v0.704H3.534c-0.624,0-1.143,0.232-1.143,0.896c0,0.464,0.328,0.824,0.72,0.943   c0.088,0.032,0.208,0.048,0.328,0.048h2.327v0.704H2.942z"/>
	<path d="M1.895,51.309c0.28,0.016,0.592,0.032,1.063,0.032h2.247c0.887,0,1.431,0.176,1.767,0.552   c0.352,0.375,0.463,0.919,0.463,1.407c0,0.463-0.112,0.975-0.32,1.287L6.58,54.412c0.16-0.256,0.304-0.656,0.304-1.136   c0-0.719-0.375-1.247-1.351-1.247H5.101v0.016c0.36,0.216,0.647,0.631,0.647,1.231c0,0.96-0.815,1.647-1.887,1.647   c-1.312,0-2.055-0.855-2.055-1.743c0-0.672,0.352-1.04,0.672-1.208v-0.016l-0.584-0.032V51.309z M3.422,52.037   c-0.12,0-0.224,0.008-0.32,0.04c-0.408,0.128-0.744,0.472-0.744,0.983c0,0.672,0.568,1.151,1.463,1.151   c0.759,0,1.391-0.384,1.391-1.143c0-0.432-0.272-0.824-0.72-0.976c-0.12-0.04-0.256-0.056-0.375-0.056H3.422z"/>
	<path d="M3.958,48.084c0.952-0.016,1.343-0.624,1.343-1.327c0-0.504-0.088-0.808-0.2-1.071l0.503-0.12   c0.112,0.248,0.24,0.672,0.24,1.288c0,1.191-0.784,1.903-1.951,1.903c-1.167,0-2.087-0.688-2.087-1.815   c0-1.264,1.111-1.599,1.823-1.599c0.144,0,0.256,0.016,0.328,0.024V48.084z M3.454,46.021c-0.448-0.008-1.144,0.184-1.144,0.976   c0,0.712,0.656,1.023,1.144,1.08V46.021z"/>
	<path d="M1.895,44.436l2.175-0.76c0.352-0.128,0.672-0.232,0.992-0.312V43.34c-0.32-0.088-0.64-0.2-0.992-0.328l-2.175-0.751   v-0.736l3.87,1.52v0.671l-3.87,1.471V44.436z"/>
	<path d="M3.958,40.66c0.952-0.016,1.343-0.624,1.343-1.327c0-0.504-0.088-0.808-0.2-1.071l0.503-0.12   c0.112,0.248,0.24,0.672,0.24,1.288c0,1.191-0.784,1.903-1.951,1.903c-1.167,0-2.087-0.688-2.087-1.815   c0-1.264,1.111-1.599,1.823-1.599c0.144,0,0.256,0.016,0.328,0.024V40.66z M3.454,38.597c-0.448-0.008-1.144,0.184-1.144,0.976   c0,0.712,0.656,1.023,1.144,1.08V38.597z"/>
	<path d="M2.942,37.044c-0.4,0-0.728,0.008-1.048,0.032v-0.624l0.64-0.04v-0.016c-0.368-0.192-0.728-0.64-0.728-1.279   c0-0.536,0.32-1.367,1.647-1.367h2.311v0.704H3.534c-0.624,0-1.143,0.232-1.143,0.896c0,0.464,0.328,0.824,0.72,0.943   c0.088,0.032,0.208,0.048,0.328,0.048h2.327v0.704H2.942z"/>
	<path d="M0.783,31.757h1.111V30.75h0.536v1.007h2.087c0.479,0,0.751-0.136,0.751-0.528c0-0.184-0.024-0.32-0.048-0.408l0.528-0.032   c0.056,0.136,0.096,0.352,0.096,0.624c0,0.328-0.104,0.591-0.296,0.759c-0.208,0.2-0.552,0.272-1.007,0.272H2.431v0.6H1.895v-0.6   H0.967L0.783,31.757z"/>
</g>
</svg>