<svg xmlns="http://www.w3.org/2000/svg" xmlns:xlink="http://www.w3.org/1999/xlink" version="1.1" id="Layer_1" x="0px" y="0px" width="312.239px" height="214.777px" viewBox="0 0 312.239 214.777" enable-background="new 0 0 312.239 214.777" xml:space="preserve">
<rect x="72.614" y="140.808" width="168.591" height="13.412"/>
<rect x="72.614" y="140.808" fill="none" stroke="#000000" stroke-width="0.5" stroke-linecap="square" stroke-miterlimit="10" width="168.591" height="13.412"/>
<rect x="72.614" y="154.22" fill="#666666" width="115.308" height="13.413"/>
<rect x="72.614" y="154.22" fill="none" stroke="#000000" stroke-width="0.5" stroke-linecap="square" stroke-miterlimit="10" width="115.308" height="13.413"/>
<rect x="72.614" y="167.625" fill="#B3B3B3" width="142.365" height="13.412"/>
<rect x="72.614" y="167.625" fill="none" stroke="#000000" stroke-width="0.5" stroke-linecap="square" stroke-miterlimit="10" width="142.365" height="13.412"/>
<rect x="72.614" y="96.103" width="135.292" height="13.413"/>
<rect x="72.614" y="96.103" fill="none" stroke="#000000" stroke-width="0.5" stroke-linecap="square" stroke-miterlimit="10" width="135.292" height="13.413"/>
<rect x="72.614" y="109.515" fill="#666666" width="60.154" height="13.412"/>
<rect x="72.614" y="109.515" fill="none" stroke="#000000" stroke-width="0.5" stroke-linecap="square" stroke-miterlimit="10" width="60.154" height="13.412"/>
<rect x="72.614" y="122.927" fill="#B3B3B3" width="80.13" height="13.412"/>
<rect x="72.614" y="122.927" fill="none" stroke="#000000" stroke-width="0.5" stroke-linecap="square" stroke-miterlimit="10" width="80.13" height="13.412"/>
<rect x="72.614" y="51.404" width="54.114" height="13.413"/>
<rect x="72.614" y="51.404" fill="none" stroke="#000000" stroke-width="0.5" stroke-linecap="square" stroke-miterlimit="10" width="54.114" height="13.413"/>
<rect x="72.614" y="64.817" fill="#666666" width="47.041" height="13.413"/>
<rect x="72.614" y="64.817" fill="none" stroke="#000000" stroke-width="0.5" stroke-linecap="square" stroke-miterlimit="10" width="47.041" height="13.413"/>
<rect x="72.614" y="78.222" fill="#B3B3B3" width="66.606" height="13.413"/>
<rect x="72.614" y="78.222" fill="none" stroke="#000000" stroke-width="0.5" stroke-linecap="square" stroke-miterlimit="10" width="66.606" height="13.413"/>
<rect x="72.614" y="6.706" width="83.251" height="13.413"/>
<rect x="72.614" y="6.706" fill="none" stroke="#000000" stroke-width="0.5" stroke-linecap="square" stroke-miterlimit="10" width="83.251" height="13.413"/>
<rect x="72.614" y="20.111" fill="#666666" width="35.38" height="13.413"/>
<rect x="72.614" y="20.111" fill="none" stroke="#000000" stroke-width="0.5" stroke-linecap="square" stroke-miterlimit="10" width="35.38" height="13.413"/>
<rect x="72.614" y="33.524" fill="#B3B3B3" width="82.63" height="13.412"/>
<rect x="72.614" y="33.524" fill="none" stroke="#000000" stroke-width="0.5" stroke-linecap="square" stroke-miterlimit="10" width="82.63" height="13.412"/>
<line fill="none" stroke="#8C8C8C" stroke-width="0.5" stroke-linejoin="round" stroke-miterlimit="10" x1="243.285" y1="148.262" x2="243.285" y2="146.766"/>
<line fill="none" stroke="#8C8C8C" stroke-width="0.5" stroke-linejoin="round" stroke-miterlimit="10" x1="243.285" y1="147.514" x2="239.116" y2="147.514"/>
<line fill="none" stroke="#8C8C8C" stroke-width="0.5" stroke-linejoin="round" stroke-miterlimit="10" x1="239.116" y1="148.262" x2="239.116" y2="146.766"/>
<line fill="none" stroke="#8C8C8C" stroke-width="0.5" stroke-linejoin="round" stroke-miterlimit="10" x1="197.075" y1="161.667" x2="197.075" y2="160.178"/>
<line fill="none" stroke="#8C8C8C" stroke-width="0.5" stroke-linejoin="round" stroke-miterlimit="10" x1="197.075" y1="160.926" x2="178.761" y2="160.926"/>
<line fill="none" stroke="#8C8C8C" stroke-width="0.5" stroke-linejoin="round" stroke-miterlimit="10" x1="178.761" y1="161.667" x2="178.761" y2="160.178"/>
<line fill="none" stroke="#8C8C8C" stroke-width="0.5" stroke-linejoin="round" stroke-miterlimit="10" x1="234.955" y1="175.081" x2="234.955" y2="173.59"/>
<line fill="none" stroke="#8C8C8C" stroke-width="0.5" stroke-linejoin="round" stroke-miterlimit="10" x1="234.955" y1="174.339" x2="194.995" y2="174.339"/>
<line fill="none" stroke="#8C8C8C" stroke-width="0.5" stroke-linejoin="round" stroke-miterlimit="10" x1="194.995" y1="175.081" x2="194.995" y2="173.59"/>
<line fill="none" stroke="#8C8C8C" stroke-width="0.5" stroke-linejoin="round" stroke-miterlimit="10" x1="215.81" y1="103.557" x2="215.81" y2="102.068"/>
<line fill="none" stroke="#8C8C8C" stroke-width="0.5" stroke-linejoin="round" stroke-miterlimit="10" x1="215.81" y1="102.816" x2="199.987" y2="102.816"/>
<line fill="none" stroke="#8C8C8C" stroke-width="0.5" stroke-linejoin="round" stroke-miterlimit="10" x1="199.987" y1="103.557" x2="199.987" y2="102.068"/>
<line fill="none" stroke="#8C8C8C" stroke-width="0.5" stroke-linejoin="round" stroke-miterlimit="10" x1="145.873" y1="116.969" x2="145.873" y2="115.48"/>
<line fill="none" stroke="#8C8C8C" stroke-width="0.5" stroke-linejoin="round" stroke-miterlimit="10" x1="145.873" y1="116.221" x2="119.647" y2="116.221"/>
<line fill="none" stroke="#8C8C8C" stroke-width="0.5" stroke-linejoin="round" stroke-miterlimit="10" x1="119.647" y1="116.969" x2="119.647" y2="115.48"/>
<line fill="none" stroke="#8C8C8C" stroke-width="0.5" stroke-linejoin="round" stroke-miterlimit="10" x1="177.721" y1="130.382" x2="177.721" y2="128.893"/>
<line fill="none" stroke="#8C8C8C" stroke-width="0.5" stroke-linejoin="round" stroke-miterlimit="10" x1="177.721" y1="129.633" x2="127.768" y2="129.633"/>
<line fill="none" stroke="#8C8C8C" stroke-width="0.5" stroke-linejoin="round" stroke-miterlimit="10" x1="127.768" y1="130.382" x2="127.768" y2="128.893"/>
<line fill="none" stroke="#8C8C8C" stroke-width="0.5" stroke-linejoin="round" stroke-miterlimit="10" x1="150.663" y1="58.859" x2="150.663" y2="57.37"/>
<line fill="none" stroke="#8C8C8C" stroke-width="0.5" stroke-linejoin="round" stroke-miterlimit="10" x1="150.663" y1="58.11" x2="102.792" y2="58.11"/>
<line fill="none" stroke="#8C8C8C" stroke-width="0.5" stroke-linejoin="round" stroke-miterlimit="10" x1="102.792" y1="58.859" x2="102.792" y2="57.37"/>
<line fill="none" stroke="#8C8C8C" stroke-width="0.5" stroke-linejoin="round" stroke-miterlimit="10" x1="132.139" y1="72.264" x2="132.139" y2="70.774"/>
<line fill="none" stroke="#8C8C8C" stroke-width="0.5" stroke-linejoin="round" stroke-miterlimit="10" x1="132.139" y1="71.523" x2="107.163" y2="71.523"/>
<line fill="none" stroke="#8C8C8C" stroke-width="0.5" stroke-linejoin="round" stroke-miterlimit="10" x1="107.163" y1="72.264" x2="107.163" y2="70.774"/>
<line fill="none" stroke="#8C8C8C" stroke-width="0.5" stroke-linejoin="round" stroke-miterlimit="10" x1="175.43" y1="85.676" x2="175.43" y2="84.187"/>
<line fill="none" stroke="#8C8C8C" stroke-width="0.5" stroke-linejoin="round" stroke-miterlimit="10" x1="175.43" y1="84.936" x2="103.001" y2="84.936"/>
<line fill="none" stroke="#8C8C8C" stroke-width="0.5" stroke-linejoin="round" stroke-miterlimit="10" x1="103.001" y1="85.676" x2="103.001" y2="84.187"/>
<line fill="none" stroke="#8C8C8C" stroke-width="0.5" stroke-linejoin="round" stroke-miterlimit="10" x1="160.026" y1="14.153" x2="160.026" y2="12.664"/>
<line fill="none" stroke="#8C8C8C" stroke-width="0.5" stroke-linejoin="round" stroke-miterlimit="10" x1="160.026" y1="13.413" x2="151.704" y2="13.413"/>
<line fill="none" stroke="#8C8C8C" stroke-width="0.5" stroke-linejoin="round" stroke-miterlimit="10" x1="151.704" y1="14.153" x2="151.704" y2="12.664"/>
<line fill="none" stroke="#8C8C8C" stroke-width="0.5" stroke-linejoin="round" stroke-miterlimit="10" x1="127.559" y1="27.566" x2="127.559" y2="26.077"/>
<line fill="none" stroke="#8C8C8C" stroke-width="0.5" stroke-linejoin="round" stroke-miterlimit="10" x1="127.559" y1="26.817" x2="88.429" y2="26.817"/>
<line fill="none" stroke="#8C8C8C" stroke-width="0.5" stroke-linejoin="round" stroke-miterlimit="10" x1="88.429" y1="27.566" x2="88.429" y2="26.077"/>
<line fill="none" stroke="#8C8C8C" stroke-width="0.5" stroke-linejoin="round" stroke-miterlimit="10" x1="186.043" y1="40.979" x2="186.043" y2="39.489"/>
<line fill="none" stroke="#8C8C8C" stroke-width="0.5" stroke-linejoin="round" stroke-miterlimit="10" x1="186.043" y1="40.23" x2="124.438" y2="40.23"/>
<line fill="none" stroke="#8C8C8C" stroke-width="0.5" stroke-linejoin="round" stroke-miterlimit="10" x1="124.438" y1="40.979" x2="124.438" y2="39.489"/>
<g>
	<path d="M36.721,157.764v2.255h2.606v-2.255h0.704v5.389h-0.704v-2.526h-2.606v2.526h-0.695v-5.389H36.721z"/>
	<path d="M41.609,161.346c0.016,0.951,0.624,1.343,1.327,1.343c0.504,0,0.808-0.088,1.071-0.2l0.12,0.504   c-0.248,0.112-0.672,0.24-1.288,0.24c-1.191,0-1.903-0.784-1.903-1.951s0.688-2.087,1.815-2.087c1.264,0,1.599,1.111,1.599,1.823   c0,0.144-0.016,0.256-0.024,0.328H41.609z M43.672,160.842c0.008-0.448-0.184-1.144-0.976-1.144c-0.712,0-1.023,0.655-1.08,1.144   H43.672z"/>
	<path d="M46.009,158.196c0.008,0.239-0.168,0.432-0.448,0.432c-0.248,0-0.424-0.192-0.424-0.432c0-0.248,0.184-0.44,0.44-0.44   C45.841,157.755,46.009,157.948,46.009,158.196z M45.225,163.153v-3.87h0.704v3.87H45.225z"/>
	<path d="M50.432,159.283c-0.016,0.28-0.032,0.592-0.032,1.063v2.247c0,0.888-0.176,1.431-0.552,1.767   c-0.375,0.353-0.919,0.464-1.407,0.464c-0.463,0-0.975-0.111-1.287-0.319l0.176-0.536c0.256,0.16,0.656,0.304,1.135,0.304   c0.72,0,1.248-0.376,1.248-1.351v-0.433h-0.016c-0.216,0.36-0.631,0.648-1.231,0.648c-0.959,0-1.647-0.815-1.647-1.888   c0-1.311,0.855-2.055,1.743-2.055c0.671,0,1.04,0.352,1.208,0.672h0.016l0.032-0.584H50.432z M49.704,160.81   c0-0.12-0.008-0.224-0.04-0.319c-0.128-0.408-0.472-0.744-0.983-0.744c-0.672,0-1.151,0.567-1.151,1.463   c0,0.76,0.384,1.392,1.143,1.392c0.432,0,0.824-0.271,0.976-0.72c0.04-0.12,0.056-0.256,0.056-0.376V160.81z"/>
	<path d="M51.569,157.476h0.704v2.414h0.016c0.112-0.199,0.288-0.375,0.504-0.495c0.208-0.12,0.456-0.2,0.719-0.2   c0.52,0,1.352,0.32,1.352,1.655v2.303H54.16v-2.223c0-0.624-0.232-1.151-0.896-1.151c-0.456,0-0.815,0.319-0.943,0.703   c-0.04,0.097-0.048,0.2-0.048,0.336v2.335h-0.704V157.476z"/>
	<path d="M56.857,158.171v1.111h1.007v0.536h-1.007v2.087c0,0.479,0.136,0.751,0.528,0.751c0.184,0,0.32-0.023,0.408-0.048   l0.032,0.528c-0.136,0.056-0.352,0.096-0.624,0.096c-0.328,0-0.592-0.104-0.759-0.296c-0.2-0.208-0.272-0.552-0.272-1.008v-2.11   h-0.6v-0.536h0.6v-0.928L56.857,158.171z"/>
</g>
<g>
	<path d="M46.001,113.13c0.304-0.063,0.784-0.111,1.271-0.111c0.696,0,1.144,0.119,1.479,0.392c0.28,0.208,0.447,0.527,0.447,0.951   c0,0.52-0.344,0.976-0.911,1.184v0.016c0.512,0.128,1.111,0.552,1.111,1.352c0,0.464-0.184,0.815-0.456,1.079   c-0.375,0.344-0.983,0.504-1.863,0.504c-0.479,0-0.848-0.032-1.08-0.063V113.13z M46.697,115.337h0.632   c0.735,0,1.167-0.384,1.167-0.903c0-0.632-0.48-0.88-1.184-0.88c-0.32,0-0.504,0.024-0.616,0.048V115.337z M46.697,117.92   c0.136,0.023,0.336,0.031,0.583,0.031c0.72,0,1.383-0.264,1.383-1.047c0-0.735-0.631-1.04-1.391-1.04h-0.576V117.92z"/>
	<path d="M54.879,116.082c-0.04-0.752-0.088-1.655-0.08-2.327h-0.024c-0.184,0.632-0.408,1.304-0.68,2.047l-0.952,2.614h-0.528   l-0.872-2.566c-0.256-0.76-0.472-1.455-0.624-2.095h-0.016c-0.016,0.672-0.056,1.575-0.104,2.383l-0.144,2.311h-0.664l0.375-5.389   h0.888l0.919,2.606c0.224,0.663,0.408,1.255,0.544,1.814h0.024c0.136-0.543,0.328-1.135,0.567-1.814l0.959-2.606h0.888l0.336,5.389   h-0.68L54.879,116.082z"/>
	<path d="M57.465,113.059v5.389h-0.696v-5.389H57.465z"/>
</g>
<g>
	<path d="M14.042,72.055l-0.56,1.695h-0.72l1.831-5.389h0.84l1.839,5.389h-0.744l-0.576-1.695H14.042z M15.809,71.511l-0.527-1.551   c-0.12-0.352-0.2-0.671-0.28-0.983h-0.016c-0.08,0.32-0.168,0.647-0.272,0.976l-0.528,1.559H15.809z"/>
	<path d="M21.377,69.88c-0.016,0.28-0.032,0.592-0.032,1.063v2.247c0,0.887-0.176,1.431-0.552,1.767   c-0.375,0.352-0.919,0.463-1.407,0.463c-0.463,0-0.975-0.112-1.287-0.32l0.176-0.536c0.256,0.16,0.656,0.304,1.135,0.304   c0.72,0,1.248-0.375,1.248-1.351v-0.432h-0.016c-0.216,0.36-0.631,0.647-1.231,0.647c-0.959,0-1.647-0.815-1.647-1.887   c0-1.312,0.855-2.055,1.743-2.055c0.671,0,1.04,0.352,1.208,0.672h0.016l0.032-0.584H21.377z M20.649,71.407   c0-0.12-0.008-0.224-0.04-0.32c-0.128-0.408-0.472-0.744-0.983-0.744c-0.672,0-1.151,0.568-1.151,1.463   c0,0.759,0.384,1.391,1.143,1.391c0.432,0,0.824-0.272,0.976-0.72c0.04-0.12,0.056-0.256,0.056-0.375V71.407z"/>
	<path d="M22.907,71.943c0.016,0.952,0.624,1.343,1.327,1.343c0.504,0,0.808-0.088,1.071-0.2l0.12,0.503   c-0.248,0.112-0.672,0.24-1.287,0.24c-1.191,0-1.903-0.784-1.903-1.951c0-1.167,0.688-2.087,1.815-2.087   c1.264,0,1.599,1.111,1.599,1.823c0,0.144-0.016,0.256-0.024,0.328H22.907z M24.969,71.439c0.008-0.448-0.184-1.144-0.975-1.144   c-0.712,0-1.023,0.656-1.08,1.144H24.969z"/>
	<path d="M28.291,73.75v-3.334h-0.544V69.88h0.544v-0.208c0-1.023,0.6-1.687,1.687-1.687c0.36,0,0.784,0.112,0.983,0.256l-0.2,0.536   c-0.168-0.12-0.472-0.224-0.816-0.224c-0.744,0-0.959,0.52-0.959,1.136v0.191h2.247v3.87h-0.696v-3.334h-1.551v3.334H28.291z"/>
	<path d="M32.402,71.087c0-0.456-0.008-0.848-0.032-1.208h0.616l0.024,0.76h0.032c0.176-0.52,0.6-0.848,1.072-0.848   c0.08,0,0.136,0.008,0.2,0.024v0.664c-0.072-0.016-0.144-0.024-0.24-0.024c-0.496,0-0.848,0.375-0.943,0.903   c-0.016,0.096-0.032,0.208-0.032,0.328v2.063h-0.696V71.087z"/>
	<path d="M34.922,73.03c0.208,0.136,0.576,0.28,0.927,0.28c0.512,0,0.752-0.256,0.752-0.576c0-0.335-0.2-0.52-0.72-0.711   c-0.696-0.248-1.023-0.632-1.023-1.095c0-0.624,0.503-1.136,1.335-1.136c0.392,0,0.735,0.112,0.951,0.24l-0.176,0.512   c-0.152-0.096-0.432-0.224-0.792-0.224c-0.416,0-0.648,0.24-0.648,0.528c0,0.32,0.232,0.464,0.736,0.656   c0.671,0.256,1.015,0.591,1.015,1.167c0,0.68-0.527,1.16-1.447,1.16c-0.424,0-0.816-0.104-1.087-0.264L34.922,73.03z"/>
	<path d="M39.034,68.769v1.111h1.007v0.536h-1.007v2.087c0,0.479,0.136,0.751,0.528,0.751c0.184,0,0.32-0.024,0.408-0.048   l0.032,0.528c-0.136,0.056-0.352,0.096-0.624,0.096c-0.328,0-0.592-0.104-0.759-0.296c-0.2-0.208-0.272-0.552-0.272-1.007v-2.111   h-0.6V69.88h0.6v-0.927L39.034,68.769z"/>
	<path d="M42.499,73.75c0.016-0.264,0.032-0.656,0.032-1v-4.677h0.696v2.431h0.016c0.248-0.432,0.695-0.712,1.319-0.712   c0.959,0,1.639,0.8,1.631,1.975c0,1.383-0.872,2.071-1.735,2.071c-0.56,0-1.008-0.216-1.295-0.728h-0.024l-0.032,0.64H42.499z    M43.226,72.199c0,0.088,0.016,0.176,0.032,0.256c0.136,0.488,0.543,0.824,1.055,0.824c0.736,0,1.175-0.6,1.175-1.487   c0-0.775-0.4-1.439-1.151-1.439c-0.479,0-0.927,0.328-1.071,0.863c-0.016,0.08-0.04,0.176-0.04,0.288V72.199z"/>
	<path d="M47.866,68.793c0.008,0.24-0.168,0.432-0.448,0.432c-0.248,0-0.424-0.192-0.424-0.432c0-0.248,0.184-0.44,0.44-0.44   C47.698,68.353,47.866,68.545,47.866,68.793z M47.082,73.75v-3.87h0.704v3.87H47.082z"/>
	<path d="M48.954,71.087c0-0.456-0.008-0.848-0.032-1.208h0.616l0.024,0.76h0.032c0.176-0.52,0.6-0.848,1.072-0.848   c0.08,0,0.136,0.008,0.2,0.024v0.664c-0.072-0.016-0.144-0.024-0.24-0.024c-0.496,0-0.848,0.375-0.943,0.903   c-0.016,0.096-0.032,0.208-0.032,0.328v2.063h-0.696V71.087z"/>
	<path d="M52.417,68.769v1.111h1.007v0.536h-1.007v2.087c0,0.479,0.136,0.751,0.528,0.751c0.184,0,0.32-0.024,0.408-0.048   l0.032,0.528c-0.136,0.056-0.352,0.096-0.624,0.096c-0.328,0-0.592-0.104-0.759-0.296c-0.2-0.208-0.272-0.552-0.272-1.007v-2.111   h-0.6V69.88h0.6v-0.927L52.417,68.769z"/>
	<path d="M54.218,68.073h0.704v2.415h0.016c0.112-0.2,0.288-0.376,0.504-0.496c0.208-0.12,0.456-0.2,0.719-0.2   c0.52,0,1.352,0.32,1.352,1.655v2.303h-0.704v-2.223c0-0.624-0.232-1.151-0.896-1.151c-0.456,0-0.815,0.32-0.943,0.704   c-0.04,0.096-0.048,0.2-0.048,0.335v2.335h-0.704V68.073z"/>
</g>
<g>
	<path d="M27.824,26.525h-2.095v1.943h2.335v0.583h-3.031v-5.389h2.911v0.584h-2.215v1.703h2.095V26.525z"/>
	<path d="M32.288,23.375v4.677c0,0.344,0.008,0.736,0.032,1h-0.632l-0.032-0.672h-0.016c-0.216,0.432-0.688,0.76-1.319,0.76   c-0.936,0-1.655-0.792-1.655-1.967c-0.008-1.287,0.792-2.079,1.735-2.079c0.591,0,0.991,0.28,1.167,0.592h0.016v-2.311H32.288z    M31.584,26.757c0-0.088-0.008-0.208-0.032-0.296c-0.104-0.447-0.488-0.815-1.016-0.815c-0.728,0-1.159,0.64-1.159,1.495   c0,0.784,0.384,1.432,1.143,1.432c0.472,0,0.904-0.312,1.032-0.84c0.024-0.096,0.032-0.192,0.032-0.304V26.757z"/>
	<path d="M36.696,27.996c0,0.4,0.008,0.752,0.032,1.056h-0.624l-0.04-0.632h-0.016c-0.184,0.312-0.592,0.72-1.279,0.72   c-0.608,0-1.335-0.336-1.335-1.695v-2.263h0.704v2.143c0,0.736,0.224,1.231,0.864,1.231c0.472,0,0.799-0.328,0.927-0.64   c0.04-0.104,0.064-0.232,0.064-0.36v-2.375h0.704V27.996z"/>
	<path d="M40.625,28.908c-0.184,0.096-0.592,0.224-1.111,0.224c-1.167,0-1.927-0.792-1.927-1.975c0-1.191,0.815-2.055,2.079-2.055   c0.416,0,0.783,0.104,0.976,0.2l-0.16,0.544c-0.168-0.096-0.432-0.184-0.815-0.184c-0.888,0-1.367,0.656-1.367,1.463   c0,0.896,0.576,1.447,1.343,1.447c0.399,0,0.664-0.104,0.863-0.192L40.625,28.908z"/>
	<path d="M43.593,29.052l-0.056-0.488h-0.024c-0.216,0.304-0.632,0.576-1.183,0.576c-0.784,0-1.184-0.552-1.184-1.111   c0-0.936,0.832-1.447,2.327-1.439v-0.08c0-0.32-0.088-0.896-0.879-0.896c-0.36,0-0.736,0.112-1.007,0.288l-0.16-0.464   c0.32-0.208,0.784-0.344,1.271-0.344c1.183,0,1.471,0.808,1.471,1.583v1.447c0,0.336,0.016,0.664,0.064,0.928H43.593z    M43.489,27.077c-0.768-0.016-1.639,0.12-1.639,0.872c0,0.456,0.304,0.672,0.664,0.672c0.504,0,0.824-0.32,0.936-0.648   c0.024-0.072,0.04-0.152,0.04-0.224V27.077z"/>
	<path d="M46.154,24.07v1.111h1.007v0.536h-1.007v2.087c0,0.479,0.136,0.751,0.528,0.751c0.184,0,0.32-0.024,0.408-0.048   l0.032,0.528c-0.136,0.056-0.352,0.096-0.624,0.096c-0.328,0-0.592-0.104-0.759-0.296c-0.2-0.208-0.272-0.552-0.272-1.007v-2.111   h-0.6v-0.536h0.6v-0.927L46.154,24.07z"/>
	<path d="M48.738,24.095c0.008,0.24-0.168,0.432-0.448,0.432c-0.248,0-0.424-0.192-0.424-0.432c0-0.248,0.184-0.44,0.44-0.44   C48.57,23.655,48.738,23.847,48.738,24.095z M47.954,29.052v-3.87h0.704v3.87H47.954z"/>
	<path d="M53.329,27.085c0,1.431-0.992,2.055-1.927,2.055c-1.047,0-1.855-0.768-1.855-1.991c0-1.295,0.848-2.055,1.919-2.055   C52.577,25.094,53.329,25.901,53.329,27.085z M50.258,27.125c0,0.847,0.487,1.487,1.175,1.487c0.671,0,1.175-0.631,1.175-1.503   c0-0.656-0.328-1.487-1.159-1.487C50.618,25.622,50.258,26.389,50.258,27.125z"/>
	<path d="M54.218,26.229c0-0.4-0.008-0.728-0.032-1.048h0.624l0.04,0.64h0.016c0.192-0.368,0.64-0.728,1.279-0.728   c0.536,0,1.367,0.32,1.367,1.647v2.311h-0.704v-2.231c0-0.624-0.232-1.143-0.896-1.143c-0.464,0-0.824,0.328-0.943,0.72   c-0.032,0.088-0.048,0.208-0.048,0.328v2.327h-0.704V26.229z"/>
</g>
<line fill="none" stroke="#000000" stroke-width="0.5" stroke-linejoin="round" stroke-miterlimit="10" x1="61.074" y1="160.926" x2="64.074" y2="160.926"/>
<line fill="none" stroke="#000000" stroke-width="0.5" stroke-linejoin="round" stroke-miterlimit="10" x1="61.074" y1="116.221" x2="64.074" y2="116.221"/>
<line fill="none" stroke="#000000" stroke-width="0.5" stroke-linejoin="round" stroke-miterlimit="10" x1="61.074" y1="71.523" x2="64.074" y2="71.523"/>
<line fill="none" stroke="#000000" stroke-width="0.5" stroke-linejoin="round" stroke-miterlimit="10" x1="61.074" y1="26.817" x2="64.074" y2="26.817"/>
<polyline fill="none" stroke="#000000" stroke-width="0.5" stroke-miterlimit="10" points="251.818,187.744 64.074,187.744   64.074,0 "/>
<line fill="none" stroke="#000000" stroke-width="0.5" stroke-linejoin="round" stroke-miterlimit="10" x1="72.614" y1="190.744" x2="72.614" y2="187.744"/>
<line fill="none" stroke="#000000" stroke-width="0.5" stroke-linejoin="round" stroke-miterlimit="10" x1="114.236" y1="190.744" x2="114.236" y2="187.744"/>
<line fill="none" stroke="#000000" stroke-width="0.5" stroke-linejoin="round" stroke-miterlimit="10" x1="155.865" y1="190.744" x2="155.865" y2="187.744"/>
<line fill="none" stroke="#000000" stroke-width="0.5" stroke-linejoin="round" stroke-miterlimit="10" x1="197.495" y1="190.744" x2="197.495" y2="187.744"/>
<line fill="none" stroke="#000000" stroke-width="0.5" stroke-linejoin="round" stroke-miterlimit="10" x1="239.116" y1="190.744" x2="239.116" y2="187.744"/>
<g>
	<path d="M71.493,197.189c0,1.767-0.656,2.742-1.807,2.742c-1.016,0-1.703-0.951-1.719-2.671c0-1.742,0.751-2.702,1.807-2.702   C70.869,194.558,71.493,195.534,71.493,197.189z M68.67,197.269c0,1.351,0.416,2.118,1.056,2.118c0.72,0,1.063-0.839,1.063-2.167   c0-1.279-0.328-2.118-1.056-2.118C69.118,195.102,68.67,195.853,68.67,197.269z"/>
	<path d="M72.198,199.427c0-0.296,0.2-0.504,0.48-0.504s0.472,0.208,0.472,0.504c0,0.288-0.184,0.504-0.479,0.504   C72.391,199.931,72.198,199.715,72.198,199.427z"/>
	<path d="M77.252,197.189c0,1.767-0.656,2.742-1.807,2.742c-1.016,0-1.703-0.951-1.719-2.671c0-1.742,0.751-2.702,1.807-2.702   C76.629,194.558,77.252,195.534,77.252,197.189z M74.43,197.269c0,1.351,0.416,2.118,1.056,2.118c0.72,0,1.063-0.839,1.063-2.167   c0-1.279-0.328-2.118-1.056-2.118C74.878,195.102,74.43,195.853,74.43,197.269z"/>
</g>
<g>
	<path d="M113.122,197.189c0,1.767-0.656,2.742-1.807,2.742c-1.016,0-1.703-0.951-1.719-2.671c0-1.742,0.751-2.702,1.807-2.702   C112.498,194.558,113.122,195.534,113.122,197.189z M110.299,197.269c0,1.351,0.416,2.118,1.056,2.118   c0.72,0,1.063-0.839,1.063-2.167c0-1.279-0.328-2.118-1.056-2.118C110.747,195.102,110.299,195.853,110.299,197.269z"/>
	<path d="M113.827,199.427c0-0.296,0.2-0.504,0.48-0.504s0.472,0.208,0.472,0.504c0,0.288-0.184,0.504-0.479,0.504   C114.02,199.931,113.827,199.715,113.827,199.427z"/>
	<path d="M115.427,199.843v-0.432l0.552-0.536c1.327-1.263,1.926-1.935,1.935-2.718c0-0.528-0.256-1.016-1.032-1.016   c-0.472,0-0.863,0.239-1.104,0.439l-0.224-0.496c0.36-0.304,0.872-0.527,1.471-0.527c1.119,0,1.591,0.768,1.591,1.512   c0,0.959-0.695,1.734-1.791,2.79l-0.416,0.384v0.016h2.334v0.584H115.427z"/>
</g>
<g>
	<path d="M154.743,197.189c0,1.767-0.655,2.742-1.807,2.742c-1.016,0-1.703-0.951-1.719-2.671c0-1.742,0.751-2.702,1.807-2.702   C154.12,194.558,154.743,195.534,154.743,197.189z M151.921,197.269c0,1.351,0.416,2.118,1.056,2.118   c0.72,0,1.063-0.839,1.063-2.167c0-1.279-0.328-2.118-1.056-2.118C152.369,195.102,151.921,195.853,151.921,197.269z"/>
	<path d="M155.449,199.427c0-0.296,0.199-0.504,0.479-0.504s0.472,0.208,0.472,0.504c0,0.288-0.184,0.504-0.479,0.504   C155.641,199.931,155.449,199.715,155.449,199.427z"/>
	<path d="M159.224,199.843v-1.415h-2.414v-0.464l2.318-3.318h0.76v3.23h0.728v0.552h-0.728v1.415H159.224z M159.224,197.876v-1.735   c0-0.271,0.009-0.544,0.024-0.815h-0.024c-0.159,0.304-0.287,0.527-0.432,0.768l-1.271,1.768v0.016H159.224z"/>
</g>
<g>
	<path d="M196.373,197.189c0,1.767-0.655,2.742-1.807,2.742c-1.016,0-1.703-0.951-1.719-2.671c0-1.742,0.751-2.702,1.807-2.702   C195.75,194.558,196.373,195.534,196.373,197.189z M193.551,197.269c0,1.351,0.416,2.118,1.056,2.118   c0.72,0,1.063-0.839,1.063-2.167c0-1.279-0.328-2.118-1.056-2.118C193.999,195.102,193.551,195.853,193.551,197.269z"/>
	<path d="M197.079,199.427c0-0.296,0.199-0.504,0.479-0.504s0.472,0.208,0.472,0.504c0,0.288-0.184,0.504-0.479,0.504   C197.271,199.931,197.079,199.715,197.079,199.427z"/>
	<path d="M201.646,195.142c-0.144-0.008-0.328,0-0.527,0.031c-1.104,0.185-1.688,0.992-1.808,1.848h0.024   c0.248-0.328,0.68-0.6,1.255-0.6c0.92,0,1.567,0.663,1.567,1.679c0,0.951-0.647,1.831-1.728,1.831   c-1.111,0-1.839-0.863-1.839-2.215c0-1.023,0.368-1.831,0.88-2.343c0.432-0.424,1.008-0.688,1.663-0.768   c0.208-0.032,0.384-0.04,0.512-0.04V195.142z M201.445,198.14c0-0.743-0.424-1.191-1.071-1.191c-0.424,0-0.815,0.264-1.007,0.64   c-0.049,0.08-0.08,0.184-0.08,0.312c0.016,0.855,0.407,1.487,1.143,1.487C201.038,199.387,201.445,198.884,201.445,198.14z"/>
</g>
<g>
	<path d="M238.002,197.189c0,1.767-0.655,2.742-1.807,2.742c-1.016,0-1.703-0.951-1.719-2.671c0-1.742,0.751-2.702,1.807-2.702   C237.379,194.558,238.002,195.534,238.002,197.189z M235.18,197.269c0,1.351,0.416,2.118,1.056,2.118   c0.72,0,1.063-0.839,1.063-2.167c0-1.279-0.328-2.118-1.056-2.118C235.628,195.102,235.18,195.853,235.18,197.269z"/>
	<path d="M238.708,199.427c0-0.296,0.199-0.504,0.479-0.504s0.472,0.208,0.472,0.504c0,0.288-0.184,0.504-0.479,0.504   C238.899,199.931,238.708,199.715,238.708,199.427z"/>
	<path d="M240.244,198.524c0-0.655,0.392-1.119,1.031-1.392l-0.008-0.023c-0.576-0.271-0.823-0.72-0.823-1.168   c0-0.823,0.695-1.383,1.606-1.383c1.008,0,1.512,0.632,1.512,1.279c0,0.439-0.216,0.911-0.855,1.216v0.023   c0.647,0.256,1.047,0.712,1.047,1.344c0,0.903-0.775,1.511-1.767,1.511C240.899,199.931,240.244,199.284,240.244,198.524z    M243.043,198.492c0-0.631-0.44-0.936-1.144-1.135c-0.608,0.176-0.936,0.575-0.936,1.071c-0.024,0.527,0.376,0.991,1.039,0.991   C242.635,199.419,243.043,199.028,243.043,198.492z M241.107,195.893c0,0.521,0.392,0.8,0.991,0.96   c0.448-0.152,0.792-0.472,0.792-0.943c0-0.416-0.248-0.848-0.88-0.848C241.428,195.062,241.107,195.446,241.107,195.893z"/>
</g>
<g>
	<path d="M121.506,206.459v2.538h2.936v-2.538h0.792v6.067h-0.792v-2.845h-2.936v2.845h-0.783v-6.067H121.506z"/>
	<path d="M127.005,210.493c0.019,1.071,0.703,1.512,1.495,1.512c0.567,0,0.909-0.099,1.206-0.225l0.135,0.567   c-0.278,0.126-0.756,0.27-1.449,0.27c-1.341,0-2.143-0.882-2.143-2.196s0.774-2.35,2.044-2.35c1.422,0,1.8,1.251,1.8,2.053   c0,0.162-0.018,0.288-0.026,0.369H127.005z M129.328,209.925c0.009-0.504-0.207-1.288-1.099-1.288   c-0.801,0-1.152,0.738-1.215,1.288H129.328z"/>
	<path d="M131.073,209.529c0-0.513-0.009-0.954-0.036-1.359h0.693l0.026,0.855h0.036c0.198-0.585,0.676-0.954,1.207-0.954   c0.09,0,0.152,0.009,0.225,0.026v0.748c-0.081-0.019-0.162-0.027-0.271-0.027c-0.558,0-0.954,0.423-1.062,1.018   c-0.019,0.107-0.036,0.233-0.036,0.369v2.322h-0.783V209.529z"/>
	<path d="M134.898,206.945c0.009,0.271-0.189,0.486-0.505,0.486c-0.278,0-0.477-0.216-0.477-0.486c0-0.278,0.207-0.495,0.495-0.495   C134.709,206.45,134.898,206.667,134.898,206.945z M134.016,212.527v-4.357h0.792v4.357H134.016z"/>
	<path d="M137.076,206.918v1.251h1.134v0.604h-1.134v2.35c0,0.54,0.153,0.846,0.594,0.846c0.207,0,0.36-0.026,0.46-0.054   l0.035,0.595c-0.152,0.062-0.396,0.107-0.702,0.107c-0.369,0-0.666-0.117-0.854-0.333c-0.226-0.234-0.307-0.621-0.307-1.134v-2.377   h-0.675v-0.604h0.675v-1.044L137.076,206.918z"/>
	<path d="M141.514,212.527l-0.063-0.549h-0.026c-0.243,0.342-0.712,0.647-1.333,0.647c-0.882,0-1.332-0.621-1.332-1.251   c0-1.054,0.937-1.63,2.62-1.62v-0.091c0-0.359-0.1-1.008-0.99-1.008c-0.405,0-0.829,0.126-1.135,0.324l-0.18-0.522   c0.359-0.234,0.882-0.387,1.431-0.387c1.333,0,1.657,0.909,1.657,1.782v1.63c0,0.378,0.018,0.747,0.071,1.044H141.514z    M141.396,210.303c-0.864-0.018-1.846,0.135-1.846,0.981c0,0.513,0.342,0.756,0.747,0.756c0.567,0,0.928-0.36,1.054-0.729   c0.027-0.08,0.045-0.171,0.045-0.252V210.303z"/>
	<path d="M143.402,212.527c0.019-0.297,0.036-0.738,0.036-1.125v-5.267h0.783v2.736h0.019c0.278-0.486,0.783-0.801,1.485-0.801   c1.08,0,1.846,0.9,1.836,2.224c0,1.558-0.98,2.331-1.953,2.331c-0.63,0-1.135-0.242-1.458-0.818h-0.027l-0.036,0.72H143.402z    M144.222,210.781c0,0.099,0.019,0.197,0.036,0.288c0.153,0.549,0.612,0.927,1.188,0.927c0.828,0,1.323-0.675,1.323-1.675   c0-0.873-0.45-1.62-1.296-1.62c-0.54,0-1.045,0.369-1.207,0.973c-0.018,0.09-0.045,0.197-0.045,0.324V210.781z"/>
	<path d="M149.442,206.945c0.009,0.271-0.189,0.486-0.505,0.486c-0.278,0-0.477-0.216-0.477-0.486c0-0.278,0.207-0.495,0.495-0.495   C149.253,206.45,149.442,206.667,149.442,206.945z M148.56,212.527v-4.357h0.792v4.357H148.56z"/>
	<path d="M150.666,206.135h0.792v6.392h-0.792V206.135z"/>
	<path d="M153.672,206.945c0.01,0.271-0.188,0.486-0.504,0.486c-0.279,0-0.478-0.216-0.478-0.486c0-0.278,0.208-0.495,0.496-0.495   C153.483,206.45,153.672,206.667,153.672,206.945z M152.79,212.527v-4.357h0.792v4.357H152.79z"/>
	<path d="M155.85,206.918v1.251h1.135v0.604h-1.135v2.35c0,0.54,0.153,0.846,0.595,0.846c0.207,0,0.359-0.026,0.459-0.054   l0.036,0.595c-0.153,0.062-0.396,0.107-0.702,0.107c-0.369,0-0.667-0.117-0.855-0.333c-0.226-0.234-0.307-0.621-0.307-1.134v-2.377   H154.4v-0.604h0.675v-1.044L155.85,206.918z"/>
	<path d="M158.162,208.169l0.954,2.575c0.1,0.288,0.207,0.63,0.279,0.891h0.018c0.081-0.261,0.172-0.594,0.279-0.909l0.864-2.557   h0.838l-1.188,3.106c-0.567,1.494-0.955,2.26-1.495,2.728c-0.387,0.342-0.773,0.477-0.972,0.513l-0.198-0.666   c0.198-0.062,0.459-0.188,0.693-0.387c0.216-0.171,0.486-0.478,0.666-0.883c0.036-0.081,0.062-0.144,0.062-0.188   s-0.018-0.108-0.054-0.207l-1.611-4.016H158.162z"/>
	<path d="M164.463,210.493c0.018,1.071,0.702,1.512,1.494,1.512c0.567,0,0.909-0.099,1.206-0.225l0.136,0.567   c-0.279,0.126-0.757,0.27-1.45,0.27c-1.341,0-2.143-0.882-2.143-2.196s0.774-2.35,2.044-2.35c1.423,0,1.801,1.251,1.801,2.053   c0,0.162-0.019,0.288-0.027,0.369H164.463z M166.785,209.925c0.009-0.504-0.207-1.288-1.099-1.288   c-0.801,0-1.152,0.738-1.215,1.288H166.785z"/>
	<path d="M168.422,211.716c0.234,0.153,0.648,0.315,1.045,0.315c0.576,0,0.846-0.288,0.846-0.648c0-0.378-0.225-0.585-0.81-0.801   c-0.783-0.279-1.152-0.712-1.152-1.233c0-0.702,0.566-1.278,1.503-1.278c0.441,0,0.828,0.126,1.071,0.27l-0.198,0.576   c-0.171-0.107-0.485-0.252-0.891-0.252c-0.469,0-0.729,0.271-0.729,0.595c0,0.359,0.261,0.521,0.828,0.738   c0.756,0.288,1.144,0.666,1.144,1.313c0,0.766-0.595,1.306-1.63,1.306c-0.477,0-0.918-0.117-1.224-0.297L168.422,211.716z"/>
	<path d="M173.049,206.918v1.251h1.135v0.604h-1.135v2.35c0,0.54,0.153,0.846,0.595,0.846c0.207,0,0.359-0.026,0.459-0.054   l0.036,0.595c-0.153,0.062-0.396,0.107-0.702,0.107c-0.369,0-0.667-0.117-0.855-0.333c-0.226-0.234-0.307-0.621-0.307-1.134v-2.377   H171.6v-0.604h0.675v-1.044L173.049,206.918z"/>
	<path d="M175.955,206.945c0.01,0.271-0.188,0.486-0.504,0.486c-0.279,0-0.477-0.216-0.477-0.486c0-0.278,0.207-0.495,0.495-0.495   C175.767,206.45,175.955,206.667,175.955,206.945z M175.073,212.527v-4.357h0.792v4.357H175.073z"/>
	<path d="M177.179,209.349c0-0.45-0.009-0.819-0.036-1.18h0.693l0.036,0.702h0.026c0.243-0.414,0.648-0.801,1.369-0.801   c0.594,0,1.044,0.359,1.233,0.873h0.018c0.135-0.243,0.307-0.433,0.486-0.567c0.261-0.198,0.549-0.306,0.963-0.306   c0.576,0,1.432,0.378,1.432,1.891v2.565h-0.774v-2.467c0-0.837-0.306-1.342-0.945-1.342c-0.45,0-0.801,0.334-0.936,0.721   c-0.036,0.108-0.063,0.252-0.063,0.396v2.691h-0.774v-2.61c0-0.693-0.306-1.198-0.909-1.198c-0.495,0-0.855,0.396-0.981,0.793   c-0.045,0.117-0.062,0.252-0.062,0.387v2.629h-0.774V209.349z"/>
	<path d="M187.098,212.527l-0.063-0.549h-0.027c-0.243,0.342-0.711,0.647-1.332,0.647c-0.882,0-1.332-0.621-1.332-1.251   c0-1.054,0.936-1.63,2.619-1.62v-0.091c0-0.359-0.099-1.008-0.99-1.008c-0.405,0-0.828,0.126-1.134,0.324l-0.181-0.522   c0.36-0.234,0.883-0.387,1.432-0.387c1.332,0,1.656,0.909,1.656,1.782v1.63c0,0.378,0.019,0.747,0.072,1.044H187.098z    M186.98,210.303c-0.864-0.018-1.846,0.135-1.846,0.981c0,0.513,0.342,0.756,0.747,0.756c0.567,0,0.928-0.36,1.054-0.729   c0.026-0.08,0.045-0.171,0.045-0.252V210.303z"/>
	<path d="M189.977,206.918v1.251h1.135v0.604h-1.135v2.35c0,0.54,0.153,0.846,0.595,0.846c0.207,0,0.359-0.026,0.459-0.054   l0.036,0.595c-0.153,0.062-0.396,0.107-0.702,0.107c-0.369,0-0.667-0.117-0.855-0.333c-0.226-0.234-0.307-0.621-0.307-1.134v-2.377   h-0.675v-0.604h0.675v-1.044L189.977,206.918z"/>
	<path d="M192.442,210.493c0.018,1.071,0.702,1.512,1.494,1.512c0.567,0,0.909-0.099,1.206-0.225l0.136,0.567   c-0.279,0.126-0.757,0.27-1.45,0.27c-1.341,0-2.143-0.882-2.143-2.196s0.774-2.35,2.044-2.35c1.423,0,1.801,1.251,1.801,2.053   c0,0.162-0.019,0.288-0.027,0.369H192.442z M194.765,209.925c0.009-0.504-0.207-1.288-1.099-1.288   c-0.801,0-1.152,0.738-1.215,1.288H194.765z"/>
</g>
<g>
	<path d="M1.538,113.724c-0.063-0.378-0.117-0.873-0.117-1.503c0-0.774,0.18-1.342,0.504-1.701c0.288-0.334,0.729-0.531,1.27-0.531   c0.549,0,0.981,0.162,1.296,0.468c0.441,0.414,0.666,1.089,0.666,1.854c0,0.234-0.009,0.45-0.054,0.63h2.431v0.783H1.538z    M4.463,112.941c0.045-0.171,0.063-0.387,0.063-0.647c0-0.945-0.459-1.521-1.296-1.521c-0.801,0-1.188,0.566-1.188,1.431   c0,0.343,0.027,0.604,0.063,0.738H4.463z"/>
	<path d="M1.141,108.963v-0.792H3.86v-0.019c-0.225-0.126-0.423-0.324-0.559-0.566c-0.135-0.234-0.225-0.514-0.225-0.811   c0-0.585,0.36-1.521,1.864-1.521h2.593v0.792H5.03c-0.702,0-1.296,0.261-1.296,1.009c0,0.513,0.36,0.918,0.792,1.062   c0.108,0.046,0.225,0.055,0.378,0.055h2.629v0.792H1.141z"/>
	<path d="M5.499,103.528c1.071-0.018,1.513-0.703,1.513-1.495c0-0.567-0.099-0.909-0.225-1.207l0.567-0.135   c0.126,0.279,0.27,0.756,0.27,1.449c0,1.341-0.882,2.143-2.196,2.143s-2.35-0.774-2.35-2.043c0-1.422,1.251-1.8,2.053-1.8   c0.162,0,0.288,0.018,0.369,0.027V103.528z M4.932,101.205c-0.504-0.009-1.288,0.207-1.288,1.098c0,0.801,0.738,1.152,1.288,1.215   V101.205z"/>
	<path d="M4.355,99.46c-0.45,0-0.819,0.009-1.18,0.036v-0.702l0.72-0.045v-0.018c-0.414-0.216-0.819-0.72-0.819-1.44   c0-0.604,0.36-1.54,1.855-1.54h2.602v0.792H5.021c-0.702,0-1.288,0.261-1.288,1.008c0,0.522,0.369,0.927,0.811,1.062   c0.099,0.036,0.234,0.054,0.369,0.054h2.62v0.792H4.355z"/>
	<path d="M5.318,90.521c1.612,0,2.314,1.117,2.314,2.17c0,1.179-0.864,2.088-2.242,2.088c-1.458,0-2.314-0.954-2.314-2.161   C3.077,91.368,3.986,90.521,5.318,90.521z M5.364,93.979c0.954,0,1.674-0.549,1.674-1.323c0-0.756-0.711-1.323-1.692-1.323   c-0.738,0-1.675,0.369-1.675,1.305C3.671,93.574,4.535,93.979,5.364,93.979z"/>
	<path d="M1.924,88.57h1.251v-1.134h0.604v1.134h2.35c0.54,0,0.846-0.153,0.846-0.594c0-0.207-0.027-0.36-0.054-0.459l0.594-0.036   c0.063,0.153,0.108,0.396,0.108,0.702c0,0.369-0.117,0.666-0.333,0.855c-0.234,0.225-0.621,0.306-1.134,0.306H3.779v0.675H3.176   v-0.675H2.132L1.924,88.57z"/>
	<path d="M3.176,86.257l2.575-0.954c0.288-0.099,0.63-0.207,0.892-0.279v-0.018c-0.261-0.081-0.594-0.171-0.91-0.279l-2.557-0.864   v-0.837l3.106,1.188c1.495,0.567,2.26,0.954,2.728,1.494c0.342,0.387,0.477,0.774,0.513,0.973l-0.667,0.198   c-0.063-0.198-0.189-0.459-0.387-0.693c-0.171-0.216-0.478-0.486-0.882-0.667c-0.081-0.036-0.144-0.063-0.189-0.063   c-0.045,0-0.108,0.018-0.207,0.054l-4.015,1.611V86.257z"/>
	<path d="M4.598,82.306c-0.558,0-1.008,0.018-1.422,0.036v-0.711l0.748-0.036v-0.018c-0.531-0.324-0.847-0.837-0.847-1.549   c0-1.053,0.892-1.845,2.215-1.845c1.566,0,2.341,0.954,2.341,1.98c0,0.576-0.252,1.08-0.684,1.341v0.018h2.368v0.783H4.598z    M5.76,81.523c0.117,0,0.225-0.018,0.324-0.036c0.549-0.144,0.927-0.621,0.927-1.188c0-0.837-0.685-1.324-1.684-1.324   c-0.874,0-1.621,0.459-1.621,1.296c0,0.54,0.387,1.044,0.981,1.197c0.099,0.027,0.216,0.054,0.324,0.054H5.76z"/>
	<path d="M5.499,76.744c1.071-0.018,1.513-0.702,1.513-1.495c0-0.567-0.099-0.909-0.225-1.207l0.567-0.135   c0.126,0.279,0.27,0.756,0.27,1.449c0,1.341-0.882,2.143-2.196,2.143s-2.35-0.774-2.35-2.043c0-1.422,1.251-1.8,2.053-1.8   c0.162,0,0.288,0.018,0.369,0.027V76.744z M4.932,74.421c-0.504-0.009-1.288,0.207-1.288,1.098c0,0.801,0.738,1.152,1.288,1.215   V74.421z"/>
</g>
<g>
	<path d="M258.695,22.931c-0.04-0.751-0.088-1.655-0.08-2.327h-0.024c-0.184,0.632-0.407,1.303-0.68,2.047l-0.951,2.614h-0.527   l-0.872-2.566c-0.256-0.76-0.472-1.455-0.623-2.095h-0.017c-0.016,0.671-0.056,1.575-0.104,2.383l-0.145,2.311h-0.663l0.376-5.389   h0.888l0.919,2.607c0.224,0.664,0.408,1.255,0.544,1.815h0.023c0.137-0.544,0.328-1.136,0.568-1.815l0.959-2.607h0.888l0.336,5.389   h-0.68L258.695,22.931z"/>
	<path d="M260.953,23.491c0.016,0.952,0.623,1.343,1.327,1.343c0.504,0,0.808-0.088,1.071-0.2l0.12,0.503   c-0.248,0.112-0.672,0.24-1.287,0.24c-1.191,0-1.903-0.784-1.903-1.951c0-1.167,0.688-2.087,1.815-2.087   c1.263,0,1.599,1.111,1.599,1.823c0,0.144-0.016,0.256-0.023,0.328H260.953z M263.016,22.987c0.008-0.448-0.184-1.144-0.976-1.144   c-0.711,0-1.023,0.656-1.079,1.144H263.016z"/>
	<path d="M265.417,20.316v1.111h1.007v0.536h-1.007v2.087c0,0.479,0.136,0.751,0.527,0.751c0.184,0,0.319-0.024,0.407-0.048   l0.032,0.528c-0.136,0.056-0.352,0.096-0.623,0.096c-0.328,0-0.592-0.104-0.76-0.296c-0.2-0.208-0.272-0.552-0.272-1.007v-2.111   h-0.6v-0.536h0.6V20.5L265.417,20.316z"/>
	<path d="M267.217,19.621h0.703v2.415h0.017c0.111-0.2,0.287-0.376,0.503-0.496c0.208-0.12,0.456-0.2,0.72-0.2   c0.52,0,1.352,0.32,1.352,1.655v2.303h-0.704v-2.223c0-0.624-0.231-1.151-0.896-1.151c-0.455,0-0.815,0.32-0.943,0.704   c-0.04,0.096-0.048,0.2-0.048,0.335v2.335h-0.703V19.621z"/>
	<path d="M275.158,23.331c0,1.431-0.991,2.055-1.927,2.055c-1.048,0-1.855-0.768-1.855-1.991c0-1.295,0.848-2.055,1.919-2.055   C274.406,21.34,275.158,22.147,275.158,23.331z M272.088,23.371c0,0.847,0.487,1.487,1.175,1.487c0.672,0,1.176-0.631,1.176-1.503   c0-0.656-0.328-1.487-1.159-1.487C272.447,21.868,272.088,22.635,272.088,23.371z"/>
	<path d="M279.39,19.621v4.677c0,0.344,0.008,0.736,0.032,1h-0.632l-0.032-0.672h-0.016c-0.216,0.432-0.688,0.76-1.319,0.76   c-0.936,0-1.655-0.792-1.655-1.967c-0.008-1.287,0.792-2.079,1.735-2.079c0.592,0,0.991,0.28,1.167,0.592h0.017v-2.311H279.39z    M278.687,23.003c0-0.088-0.009-0.208-0.032-0.296c-0.104-0.447-0.488-0.815-1.016-0.815c-0.728,0-1.159,0.64-1.159,1.495   c0,0.784,0.384,1.432,1.144,1.432c0.472,0,0.903-0.312,1.031-0.84c0.023-0.096,0.032-0.192,0.032-0.304V23.003z"/>
</g>
<rect x="253.104" y="30.792" fill="#B3B3B3" width="6" height="6"/>
<rect x="253.104" y="30.792" fill="none" stroke="#000000" stroke-width="0.5" stroke-linecap="square" stroke-miterlimit="10" width="6" height="6"/>
<rect x="253.104" y="40.725" fill="#666666" width="6" height="6"/>
<rect x="253.104" y="40.725" fill="none" stroke="#000000" stroke-width="0.5" stroke-linecap="square" stroke-miterlimit="10" width="6" height="6"/>
<rect x="253.104" y="50.659" width="6" height="6"/>
<rect x="253.104" y="50.659" fill="none" stroke="#000000" stroke-width="0.5" stroke-linecap="square" stroke-miterlimit="10" width="6" height="6"/>
<g>
	<path d="M262.615,35.244c0.312,0.192,0.768,0.352,1.247,0.352c0.712,0,1.128-0.376,1.128-0.919c0-0.504-0.288-0.792-1.016-1.072   c-0.88-0.312-1.423-0.768-1.423-1.527c0-0.84,0.695-1.463,1.742-1.463c0.552,0,0.952,0.128,1.191,0.264l-0.191,0.567   c-0.176-0.096-0.536-0.256-1.023-0.256c-0.735,0-1.016,0.44-1.016,0.808c0,0.504,0.328,0.751,1.071,1.04   c0.911,0.352,1.375,0.792,1.375,1.583c0,0.832-0.615,1.551-1.887,1.551c-0.52,0-1.087-0.152-1.375-0.344L262.615,35.244z"/>
	<path d="M267.415,31.135c0.008,0.24-0.168,0.432-0.447,0.432c-0.248,0-0.424-0.192-0.424-0.432c0-0.248,0.184-0.44,0.439-0.44   C267.247,30.695,267.415,30.887,267.415,31.135z M266.632,36.092v-3.87h0.703v3.87H266.632z"/>
	<path d="M268.472,36.092c0.016-0.264,0.032-0.656,0.032-1v-4.677h0.695v2.431h0.016c0.248-0.432,0.696-0.712,1.319-0.712   c0.96,0,1.64,0.8,1.632,1.975c0,1.383-0.872,2.071-1.735,2.071c-0.56,0-1.008-0.216-1.295-0.728h-0.024l-0.032,0.64H268.472z    M269.199,34.541c0,0.088,0.016,0.176,0.032,0.256c0.136,0.488,0.543,0.824,1.055,0.824c0.736,0,1.176-0.6,1.176-1.487   c0-0.775-0.399-1.439-1.151-1.439c-0.479,0-0.928,0.328-1.071,0.863c-0.016,0.08-0.04,0.176-0.04,0.288V34.541z"/>
	<path d="M274.687,33.669v0.52h-1.975v-0.52H274.687z"/>
	<path d="M275.512,33.429c0-0.456-0.009-0.848-0.032-1.208h0.615l0.024,0.76h0.032c0.176-0.52,0.6-0.848,1.071-0.848   c0.08,0,0.136,0.008,0.2,0.024v0.664c-0.072-0.016-0.145-0.024-0.24-0.024c-0.496,0-0.848,0.375-0.943,0.903   c-0.017,0.096-0.032,0.208-0.032,0.328v2.063h-0.695V33.429z"/>
	<path d="M278.52,34.285c0.016,0.952,0.624,1.343,1.327,1.343c0.504,0,0.808-0.088,1.071-0.2l0.12,0.503   c-0.248,0.112-0.672,0.24-1.287,0.24c-1.191,0-1.903-0.784-1.903-1.951c0-1.167,0.688-2.087,1.815-2.087   c1.263,0,1.599,1.111,1.599,1.823c0,0.144-0.016,0.256-0.023,0.328H278.52z M280.582,33.781c0.008-0.448-0.184-1.144-0.976-1.144   c-0.711,0-1.023,0.656-1.079,1.144H280.582z"/>
	<path d="M285.47,32.222c-0.016,0.28-0.032,0.592-0.032,1.063v2.247c0,0.887-0.176,1.431-0.552,1.767   c-0.376,0.352-0.919,0.463-1.407,0.463c-0.464,0-0.976-0.112-1.287-0.32l0.176-0.536c0.256,0.16,0.655,0.304,1.136,0.304   c0.72,0,1.247-0.375,1.247-1.351v-0.432h-0.016c-0.216,0.36-0.632,0.647-1.231,0.647c-0.96,0-1.647-0.815-1.647-1.887   c0-1.312,0.855-2.055,1.743-2.055c0.672,0,1.039,0.352,1.207,0.672h0.017l0.031-0.584H285.47z M284.742,33.749   c0-0.12-0.008-0.224-0.04-0.32c-0.128-0.408-0.472-0.744-0.983-0.744c-0.672,0-1.151,0.568-1.151,1.463   c0,0.759,0.384,1.391,1.144,1.391c0.432,0,0.823-0.272,0.976-0.72c0.039-0.12,0.056-0.256,0.056-0.375V33.749z"/>
	<path d="M286.607,33.429c0-0.456-0.009-0.848-0.032-1.208h0.615l0.024,0.76h0.032c0.176-0.52,0.6-0.848,1.071-0.848   c0.08,0,0.136,0.008,0.2,0.024v0.664c-0.072-0.016-0.145-0.024-0.24-0.024c-0.496,0-0.848,0.375-0.943,0.903   c-0.017,0.096-0.032,0.208-0.032,0.328v2.063h-0.695V33.429z"/>
	<path d="M289.615,34.285c0.016,0.952,0.624,1.343,1.327,1.343c0.504,0,0.808-0.088,1.071-0.2l0.12,0.503   c-0.248,0.112-0.672,0.24-1.287,0.24c-1.191,0-1.903-0.784-1.903-1.951c0-1.167,0.688-2.087,1.815-2.087   c1.263,0,1.599,1.111,1.599,1.823c0,0.144-0.016,0.256-0.023,0.328H289.615z M291.678,33.781c0.008-0.448-0.184-1.144-0.976-1.144   c-0.711,0-1.023,0.656-1.079,1.144H291.678z"/>
	<path d="M293.135,35.372c0.208,0.136,0.576,0.28,0.928,0.28c0.512,0,0.752-0.256,0.752-0.576c0-0.335-0.2-0.52-0.72-0.711   c-0.695-0.248-1.023-0.632-1.023-1.095c0-0.624,0.504-1.136,1.335-1.136c0.392,0,0.735,0.112,0.952,0.24l-0.177,0.512   c-0.151-0.096-0.432-0.224-0.791-0.224c-0.416,0-0.647,0.24-0.647,0.528c0,0.32,0.231,0.464,0.735,0.656   c0.672,0.256,1.016,0.591,1.016,1.167c0,0.68-0.528,1.16-1.447,1.16c-0.424,0-0.815-0.104-1.088-0.264L293.135,35.372z"/>
	<path d="M296.303,35.372c0.208,0.136,0.576,0.28,0.928,0.28c0.512,0,0.752-0.256,0.752-0.576c0-0.335-0.2-0.52-0.72-0.711   c-0.695-0.248-1.023-0.632-1.023-1.095c0-0.624,0.504-1.136,1.335-1.136c0.392,0,0.735,0.112,0.952,0.24l-0.177,0.512   c-0.151-0.096-0.432-0.224-0.791-0.224c-0.416,0-0.647,0.24-0.647,0.528c0,0.32,0.231,0.464,0.735,0.656   c0.672,0.256,1.016,0.591,1.016,1.167c0,0.68-0.528,1.16-1.447,1.16c-0.424,0-0.815-0.104-1.088-0.264L296.303,35.372z"/>
	<path d="M300.351,31.135c0.008,0.24-0.168,0.432-0.447,0.432c-0.248,0-0.424-0.192-0.424-0.432c0-0.248,0.184-0.44,0.439-0.44   C300.183,30.695,300.351,30.887,300.351,31.135z M299.567,36.092v-3.87h0.703v3.87H299.567z"/>
	<path d="M304.941,34.125c0,1.431-0.991,2.055-1.927,2.055c-1.048,0-1.855-0.768-1.855-1.991c0-1.295,0.848-2.055,1.919-2.055   C304.189,32.134,304.941,32.941,304.941,34.125z M301.871,34.165c0,0.847,0.487,1.487,1.175,1.487c0.672,0,1.176-0.631,1.176-1.503   c0-0.656-0.328-1.487-1.159-1.487C302.23,32.662,301.871,33.429,301.871,34.165z"/>
	<path d="M305.831,33.27c0-0.4-0.008-0.728-0.032-1.048h0.624l0.039,0.64h0.017c0.191-0.368,0.64-0.728,1.279-0.728   c0.535,0,1.367,0.32,1.367,1.647v2.311h-0.704v-2.231c0-0.624-0.231-1.143-0.896-1.143c-0.463,0-0.823,0.328-0.943,0.72   c-0.031,0.088-0.048,0.208-0.048,0.328v2.327h-0.703V33.27z"/>
</g>
<g>
	<path d="M262.711,40.708c0.353-0.072,0.855-0.112,1.336-0.112c0.743,0,1.223,0.136,1.559,0.44c0.272,0.24,0.424,0.607,0.424,1.023   c0,0.711-0.447,1.184-1.016,1.375v0.024c0.416,0.144,0.664,0.527,0.792,1.087c0.176,0.751,0.304,1.271,0.416,1.479h-0.72   c-0.088-0.152-0.208-0.616-0.36-1.287c-0.16-0.744-0.447-1.023-1.079-1.048h-0.655v2.335h-0.696V40.708z M263.407,43.163h0.711   c0.744,0,1.216-0.408,1.216-1.023c0-0.696-0.504-1-1.239-1.008c-0.336,0-0.576,0.032-0.688,0.064V43.163z"/>
	<path d="M267.015,40.708c0.424-0.064,0.928-0.112,1.479-0.112c0.999,0,1.711,0.232,2.183,0.672c0.479,0.44,0.76,1.063,0.76,1.935   c0,0.879-0.271,1.599-0.775,2.095c-0.504,0.504-1.336,0.775-2.383,0.775c-0.496,0-0.912-0.024-1.264-0.064V40.708z M267.711,45.474   c0.176,0.032,0.432,0.04,0.703,0.04c1.487,0,2.295-0.832,2.295-2.287c0.008-1.271-0.712-2.079-2.183-2.079   c-0.36,0-0.632,0.032-0.815,0.072V45.474z"/>
	<path d="M272.343,40.708c0.352-0.072,0.855-0.112,1.336-0.112c0.743,0,1.223,0.136,1.559,0.44c0.271,0.24,0.424,0.607,0.424,1.023   c0,0.711-0.447,1.184-1.016,1.375v0.024c0.416,0.144,0.664,0.527,0.792,1.087c0.176,0.751,0.304,1.271,0.416,1.479h-0.72   c-0.088-0.152-0.208-0.616-0.36-1.287c-0.159-0.744-0.447-1.023-1.079-1.048h-0.655v2.335h-0.696V40.708z M273.039,43.163h0.711   c0.744,0,1.216-0.408,1.216-1.023c0-0.696-0.504-1-1.239-1.008c-0.336,0-0.576,0.032-0.688,0.064V43.163z"/>
</g>
<g>
	<path d="M263.734,51.161h-1.639v-0.592h3.989v0.592h-1.646v4.797h-0.704V51.161z"/>
	<path d="M266.942,52.088l0.512,1.967c0.112,0.433,0.216,0.832,0.288,1.231h0.024c0.088-0.392,0.216-0.808,0.344-1.223l0.631-1.976   h0.592l0.6,1.936c0.145,0.464,0.256,0.871,0.344,1.263h0.024c0.063-0.392,0.168-0.799,0.296-1.255l0.552-1.943h0.695l-1.247,3.87   h-0.64l-0.592-1.847c-0.136-0.432-0.248-0.815-0.344-1.271h-0.016c-0.097,0.464-0.216,0.863-0.353,1.279l-0.623,1.839h-0.64   l-1.168-3.87H266.942z"/>
	<path d="M273.334,51.001c0.008,0.239-0.168,0.432-0.447,0.432c-0.248,0-0.424-0.192-0.424-0.432c0-0.248,0.184-0.44,0.439-0.44   C273.166,50.561,273.334,50.753,273.334,51.001z M272.551,55.958v-3.87h0.703v3.87H272.551z"/>
	<path d="M274.423,53.136c0-0.4-0.008-0.728-0.032-1.048h0.624l0.039,0.64h0.017C275.262,52.36,275.71,52,276.35,52   c0.535,0,1.367,0.32,1.367,1.647v2.311h-0.704v-2.23c0-0.624-0.231-1.144-0.896-1.144c-0.463,0-0.823,0.328-0.943,0.72   c-0.031,0.088-0.048,0.208-0.048,0.327v2.327h-0.703V53.136z"/>
</g>
</svg>