<svg xmlns="http://www.w3.org/2000/svg" xmlns:xlink="http://www.w3.org/1999/xlink" version="1.1" id="Layer_1" x="0px" y="0px" width="195.844px" height="180.086px" viewBox="0 0 195.844 180.086" enable-background="new 0 0 195.844 180.086" xml:space="preserve">
<g>
	<path d="M29.018,28.414c-0.144-0.008-0.328,0-0.528,0.032c-1.104,0.184-1.687,0.992-1.807,1.847h0.024   c0.248-0.328,0.679-0.6,1.255-0.6c0.919,0,1.567,0.664,1.567,1.679c0,0.952-0.647,1.831-1.727,1.831   c-1.111,0-1.839-0.863-1.839-2.215c0-1.023,0.368-1.831,0.879-2.343c0.432-0.424,1.007-0.688,1.663-0.768   c0.208-0.032,0.384-0.04,0.512-0.04V28.414z M28.818,31.412c0-0.744-0.424-1.191-1.072-1.191c-0.423,0-0.815,0.264-1.007,0.64   c-0.048,0.08-0.08,0.184-0.08,0.312c0.016,0.855,0.408,1.487,1.144,1.487C28.41,32.66,28.818,32.156,28.818,31.412z"/>
</g>
<g>
	<path d="M28.227,71.214v-1.415h-2.415v-0.464l2.318-3.318h0.76v3.23h0.728v0.552H28.89v1.415H28.227z M28.227,69.247v-1.735   c0-0.271,0.008-0.543,0.024-0.815h-0.024c-0.16,0.304-0.288,0.528-0.432,0.768l-1.271,1.767v0.016H28.227z"/>
</g>
<g>
	<path d="M26.052,110.088v-0.432l0.552-0.536c1.327-1.263,1.927-1.935,1.935-2.718c0-0.528-0.256-1.016-1.031-1.016   c-0.472,0-0.863,0.239-1.104,0.439l-0.224-0.496c0.36-0.304,0.872-0.527,1.471-0.527c1.119,0,1.591,0.768,1.591,1.511   c0,0.96-0.696,1.735-1.791,2.791l-0.416,0.384v0.016h2.335v0.584H26.052z"/>
</g>
<g>
	<path d="M29.506,146.308c0,1.767-0.656,2.742-1.807,2.742c-1.015,0-1.703-0.951-1.719-2.671c0-1.742,0.752-2.702,1.807-2.702   C28.882,143.677,29.506,144.652,29.506,146.308z M26.684,146.388c0,1.351,0.416,2.118,1.055,2.118c0.72,0,1.063-0.839,1.063-2.167   c0-1.279-0.328-2.118-1.056-2.118C27.131,144.221,26.684,144.972,26.684,146.388z"/>
</g>
<g>
	<path d="M52.472,164.411v0.479h-3.518v-0.479H52.472z"/>
	<path d="M56.176,162.076h-1.983l-0.2,1.335c0.12-0.016,0.232-0.031,0.424-0.031c0.4,0,0.799,0.088,1.119,0.279   c0.408,0.232,0.744,0.68,0.744,1.335c0,1.016-0.808,1.775-1.935,1.775c-0.567,0-1.047-0.16-1.295-0.319l0.176-0.536   c0.216,0.128,0.64,0.288,1.111,0.288c0.664,0,1.231-0.432,1.231-1.128c-0.008-0.671-0.456-1.151-1.495-1.151   c-0.296,0-0.528,0.032-0.72,0.057l0.336-2.495h2.486V162.076z"/>
</g>
<g>
	<path d="M96.599,164.027c0,1.767-0.655,2.742-1.807,2.742c-1.016,0-1.703-0.951-1.719-2.671c0-1.742,0.751-2.702,1.807-2.702   C95.976,161.396,96.599,162.372,96.599,164.027z M93.776,164.107c0,1.351,0.416,2.118,1.056,2.118c0.72,0,1.063-0.839,1.063-2.167   c0-1.279-0.328-2.118-1.056-2.118C94.225,161.94,93.776,162.691,93.776,164.107z"/>
</g>
<g>
	<path d="M136.12,162.076h-1.982l-0.2,1.335c0.12-0.016,0.231-0.031,0.424-0.031c0.399,0,0.8,0.088,1.119,0.279   c0.408,0.232,0.744,0.68,0.744,1.335c0,1.016-0.808,1.775-1.936,1.775c-0.567,0-1.047-0.16-1.295-0.319l0.176-0.536   c0.216,0.128,0.64,0.288,1.111,0.288c0.664,0,1.231-0.432,1.231-1.128c-0.008-0.671-0.456-1.151-1.495-1.151   c-0.296,0-0.527,0.032-0.72,0.057l0.336-2.495h2.486V162.076z"/>
</g>
<g>
	<path d="M94.515,172.697v2.255h2.606v-2.255h0.703v5.389h-0.703v-2.526h-2.606v2.526h-0.696v-5.389H94.515z"/>
	<path d="M99.402,176.279c0.016,0.951,0.624,1.343,1.327,1.343c0.504,0,0.808-0.088,1.071-0.2l0.12,0.504   c-0.248,0.112-0.672,0.24-1.287,0.24c-1.191,0-1.903-0.784-1.903-1.951s0.688-2.087,1.815-2.087c1.263,0,1.599,1.111,1.599,1.823   c0,0.144-0.016,0.256-0.023,0.328H99.402z M101.465,175.775c0.008-0.448-0.184-1.144-0.976-1.144c-0.711,0-1.023,0.655-1.079,1.144   H101.465z"/>
	<path d="M103.802,173.129c0.008,0.239-0.168,0.432-0.447,0.432c-0.248,0-0.424-0.192-0.424-0.432c0-0.248,0.184-0.44,0.439-0.44   C103.634,172.688,103.802,172.881,103.802,173.129z M103.019,178.086v-3.87h0.703v3.87H103.019z"/>
	<path d="M108.225,174.216c-0.017,0.28-0.032,0.592-0.032,1.063v2.247c0,0.888-0.176,1.431-0.552,1.767   c-0.376,0.353-0.919,0.464-1.407,0.464c-0.464,0-0.976-0.111-1.287-0.319l0.176-0.536c0.256,0.16,0.656,0.304,1.136,0.304   c0.72,0,1.247-0.376,1.247-1.351v-0.433h-0.016c-0.216,0.36-0.632,0.648-1.231,0.648c-0.96,0-1.647-0.815-1.647-1.888   c0-1.311,0.855-2.055,1.743-2.055c0.672,0,1.039,0.352,1.207,0.672h0.017l0.031-0.584H108.225z M107.497,175.743   c0-0.12-0.008-0.224-0.04-0.319c-0.128-0.408-0.472-0.744-0.983-0.744c-0.672,0-1.151,0.567-1.151,1.463   c0,0.76,0.384,1.392,1.144,1.392c0.432,0,0.823-0.271,0.975-0.72c0.04-0.12,0.057-0.256,0.057-0.376V175.743z"/>
	<path d="M109.362,172.409h0.703v2.414h0.017c0.111-0.199,0.287-0.375,0.503-0.495c0.208-0.12,0.456-0.2,0.72-0.2   c0.52,0,1.352,0.32,1.352,1.655v2.303h-0.704v-2.223c0-0.624-0.231-1.151-0.896-1.151c-0.455,0-0.815,0.319-0.943,0.703   c-0.04,0.097-0.048,0.2-0.048,0.336v2.335h-0.703V172.409z"/>
	<path d="M114.617,173.104v1.111h1.007v0.536h-1.007v2.087c0,0.479,0.136,0.751,0.527,0.751c0.184,0,0.319-0.023,0.407-0.048   l0.032,0.528c-0.136,0.056-0.352,0.096-0.623,0.096c-0.328,0-0.592-0.104-0.76-0.296c-0.2-0.208-0.272-0.552-0.272-1.008v-2.11   h-0.6v-0.536h0.6v-0.928L114.617,173.104z"/>
	<path d="M118.018,177.366c0.208,0.136,0.576,0.28,0.928,0.28c0.512,0,0.752-0.256,0.752-0.576c0-0.336-0.2-0.52-0.72-0.712   c-0.695-0.247-1.023-0.631-1.023-1.095c0-0.624,0.504-1.136,1.335-1.136c0.392,0,0.735,0.112,0.952,0.24l-0.177,0.512   c-0.151-0.096-0.432-0.224-0.791-0.224c-0.416,0-0.647,0.239-0.647,0.527c0,0.319,0.231,0.464,0.735,0.655   c0.672,0.256,1.016,0.592,1.016,1.168c0,0.68-0.528,1.159-1.447,1.159c-0.424,0-0.815-0.104-1.088-0.264L118.018,177.366z"/>
	<path d="M124.04,177.942c-0.184,0.096-0.592,0.224-1.111,0.224c-1.167,0-1.927-0.792-1.927-1.975c0-1.191,0.815-2.056,2.079-2.056   c0.416,0,0.783,0.104,0.976,0.2l-0.16,0.544c-0.168-0.096-0.432-0.184-0.815-0.184c-0.888,0-1.367,0.655-1.367,1.463   c0,0.896,0.575,1.447,1.343,1.447c0.4,0,0.664-0.104,0.864-0.192L124.04,177.942z"/>
	<path d="M128.32,176.119c0,1.431-0.991,2.055-1.927,2.055c-1.048,0-1.855-0.768-1.855-1.991c0-1.295,0.848-2.055,1.919-2.055   C127.568,174.128,128.32,174.936,128.32,176.119z M125.25,176.159c0,0.848,0.487,1.487,1.175,1.487   c0.672,0,1.176-0.632,1.176-1.504c0-0.655-0.328-1.486-1.159-1.486C125.609,174.656,125.25,175.424,125.25,176.159z"/>
	<path d="M129.21,175.424c0-0.456-0.008-0.848-0.032-1.208h0.615l0.024,0.76h0.032c0.176-0.52,0.6-0.848,1.071-0.848   c0.08,0,0.136,0.008,0.199,0.024v0.663c-0.071-0.016-0.144-0.023-0.239-0.023c-0.496,0-0.848,0.376-0.943,0.903   c-0.017,0.096-0.032,0.208-0.032,0.328v2.062h-0.695V175.424z"/>
	<path d="M132.138,176.279c0.016,0.951,0.623,1.343,1.327,1.343c0.504,0,0.808-0.088,1.071-0.2l0.12,0.504   c-0.248,0.112-0.672,0.24-1.287,0.24c-1.191,0-1.903-0.784-1.903-1.951s0.688-2.087,1.815-2.087c1.263,0,1.599,1.111,1.599,1.823   c0,0.144-0.016,0.256-0.023,0.328H132.138z M134.2,175.775c0.008-0.448-0.184-1.144-0.976-1.144c-0.711,0-1.023,0.655-1.079,1.144   H134.2z"/>
</g>
<g>
	<path d="M168.517,112.502c0.267-0.057,0.687-0.099,1.113-0.099c0.609,0,1.002,0.105,1.296,0.344   c0.245,0.182,0.393,0.462,0.393,0.833c0,0.455-0.302,0.854-0.799,1.037v0.014c0.448,0.112,0.974,0.483,0.974,1.184   c0,0.406-0.161,0.715-0.399,0.945c-0.329,0.302-0.861,0.441-1.632,0.441c-0.42,0-0.742-0.028-0.945-0.056V112.502z    M169.126,114.435h0.554c0.644,0,1.022-0.336,1.022-0.791c0-0.554-0.421-0.771-1.037-0.771c-0.28,0-0.441,0.021-0.539,0.042   V114.435z M169.126,116.697c0.119,0.021,0.294,0.027,0.512,0.027c0.63,0,1.211-0.23,1.211-0.917c0-0.645-0.553-0.911-1.219-0.911   h-0.504V116.697z"/>
	<path d="M172.29,114.827c0-0.399-0.008-0.742-0.028-1.058h0.539l0.021,0.665h0.027c0.154-0.455,0.525-0.742,0.938-0.742   c0.07,0,0.119,0.007,0.176,0.021v0.582c-0.063-0.015-0.126-0.021-0.211-0.021c-0.434,0-0.742,0.329-0.826,0.792   c-0.014,0.084-0.028,0.182-0.028,0.287v1.807h-0.608V114.827z"/>
	<path d="M176.421,117.159l-0.05-0.427h-0.021c-0.189,0.266-0.554,0.504-1.037,0.504c-0.686,0-1.036-0.483-1.036-0.974   c0-0.819,0.729-1.268,2.038-1.261v-0.07c0-0.28-0.077-0.784-0.771-0.784c-0.315,0-0.645,0.098-0.883,0.252l-0.14-0.406   c0.28-0.182,0.687-0.301,1.113-0.301c1.037,0,1.289,0.707,1.289,1.387v1.268c0,0.294,0.014,0.581,0.056,0.812H176.421z    M176.329,115.43c-0.672-0.015-1.436,0.104-1.436,0.763c0,0.399,0.267,0.589,0.581,0.589c0.441,0,0.722-0.28,0.82-0.567   c0.021-0.063,0.034-0.133,0.034-0.196V115.43z"/>
	<path d="M180.845,112.187v4.098c0,0.301,0.008,0.644,0.028,0.875h-0.553l-0.028-0.588h-0.015c-0.188,0.378-0.602,0.665-1.155,0.665   c-0.819,0-1.449-0.693-1.449-1.723c-0.008-1.128,0.693-1.821,1.52-1.821c0.519,0,0.868,0.245,1.022,0.519h0.014v-2.024H180.845z    M180.229,115.149c0-0.077-0.007-0.183-0.027-0.26c-0.092-0.392-0.428-0.714-0.89-0.714c-0.638,0-1.016,0.561-1.016,1.31   c0,0.687,0.336,1.254,1.001,1.254c0.414,0,0.792-0.273,0.904-0.735c0.021-0.084,0.027-0.168,0.027-0.267V115.149z"/>
	<path d="M181.866,112.187h0.616v4.973h-0.616V112.187z"/>
	<path d="M183.861,115.576c0.014,0.834,0.546,1.177,1.162,1.177c0.441,0,0.708-0.077,0.939-0.175l0.104,0.441   c-0.217,0.098-0.588,0.21-1.128,0.21c-1.043,0-1.666-0.687-1.666-1.709s0.602-1.828,1.59-1.828c1.106,0,1.4,0.974,1.4,1.597   c0,0.126-0.014,0.225-0.021,0.287H183.861z M185.668,115.135c0.007-0.392-0.161-1.001-0.854-1.001   c-0.623,0-0.896,0.574-0.945,1.001H185.668z"/>
	<path d="M187.249,113.77l0.742,2.003c0.077,0.224,0.161,0.49,0.218,0.693h0.014c0.062-0.203,0.133-0.462,0.217-0.707l0.673-1.989   h0.651l-0.925,2.416c-0.441,1.163-0.742,1.758-1.162,2.122c-0.302,0.267-0.603,0.371-0.757,0.399l-0.154-0.519   c0.154-0.049,0.357-0.146,0.539-0.301c0.169-0.133,0.379-0.371,0.519-0.687c0.028-0.063,0.049-0.112,0.049-0.147   c0-0.034-0.014-0.084-0.042-0.161l-1.253-3.123H187.249z"/>
</g>
<g>
	<path d="M1.538,134.57c-0.063-0.378-0.117-0.873-0.117-1.503c0-0.774,0.18-1.342,0.504-1.701c0.288-0.334,0.729-0.531,1.27-0.531   c0.549,0,0.981,0.162,1.296,0.468c0.441,0.414,0.666,1.089,0.666,1.854c0,0.234-0.009,0.45-0.054,0.63h2.431v0.783H1.538z    M4.463,133.787c0.045-0.171,0.063-0.387,0.063-0.647c0-0.945-0.459-1.521-1.296-1.521c-0.801,0-1.188,0.566-1.188,1.431   c0,0.343,0.027,0.604,0.063,0.738H4.463z"/>
	<path d="M5.499,129.593c1.071-0.018,1.513-0.702,1.513-1.494c0-0.567-0.099-0.909-0.225-1.206l0.567-0.136   c0.126,0.279,0.27,0.757,0.27,1.45c0,1.341-0.882,2.143-2.196,2.143s-2.35-0.774-2.35-2.044c0-1.423,1.251-1.801,2.053-1.801   c0.162,0,0.288,0.019,0.369,0.027V129.593z M4.932,127.271c-0.504-0.009-1.288,0.207-1.288,1.099c0,0.801,0.738,1.152,1.288,1.215   V127.271z"/>
	<path d="M4.535,125.525c-0.513,0-0.954,0.009-1.359,0.036v-0.693l0.855-0.027v-0.035c-0.585-0.198-0.955-0.676-0.955-1.207   c0-0.09,0.009-0.152,0.027-0.225h0.747c-0.018,0.081-0.027,0.162-0.027,0.27c0,0.559,0.423,0.955,1.017,1.062   c0.108,0.019,0.234,0.036,0.369,0.036h2.323v0.783H4.535z"/>
	<path d="M7.371,119.566c0.108,0.207,0.252,0.666,0.252,1.251c0,1.314-0.891,2.17-2.224,2.17c-1.341,0-2.313-0.919-2.313-2.341   c0-0.469,0.117-0.883,0.225-1.099l0.612,0.18c-0.108,0.189-0.208,0.486-0.208,0.919c0,0.999,0.738,1.539,1.648,1.539   c1.008,0,1.629-0.648,1.629-1.513c0-0.449-0.117-0.747-0.216-0.972L7.371,119.566z"/>
	<path d="M5.499,118.253c1.071-0.018,1.513-0.702,1.513-1.494c0-0.567-0.099-0.909-0.225-1.206l0.567-0.136   c0.126,0.279,0.27,0.757,0.27,1.45c0,1.341-0.882,2.143-2.196,2.143s-2.35-0.774-2.35-2.044c0-1.423,1.251-1.801,2.053-1.801   c0.162,0,0.288,0.019,0.369,0.027V118.253z M4.932,115.931c-0.504-0.009-1.288,0.207-1.288,1.099c0,0.801,0.738,1.152,1.288,1.215   V115.931z"/>
	<path d="M4.355,114.186c-0.45,0-0.819,0.009-1.18,0.036v-0.702l0.72-0.045v-0.019c-0.414-0.216-0.819-0.72-0.819-1.44   c0-0.603,0.36-1.539,1.855-1.539h2.602v0.792H5.021c-0.702,0-1.288,0.262-1.288,1.009c0,0.521,0.369,0.927,0.811,1.062   c0.099,0.036,0.234,0.055,0.369,0.055h2.62v0.792H4.355z"/>
	<path d="M1.924,108.272h1.251v-1.135h0.604v1.135h2.35c0.54,0,0.846-0.153,0.846-0.595c0-0.207-0.027-0.359-0.054-0.459   l0.594-0.036c0.063,0.153,0.108,0.396,0.108,0.702c0,0.369-0.117,0.667-0.333,0.855c-0.234,0.226-0.621,0.307-1.134,0.307H3.779   v0.675H3.176v-0.675H2.132L1.924,108.272z"/>
	<path d="M5.318,100.396c1.612,0,2.314,1.116,2.314,2.17c0,1.18-0.864,2.089-2.242,2.089c-1.458,0-2.314-0.955-2.314-2.161   C3.077,101.243,3.986,100.396,5.318,100.396z M5.364,103.854c0.954,0,1.674-0.549,1.674-1.323c0-0.756-0.711-1.323-1.692-1.323   c-0.738,0-1.675,0.369-1.675,1.306C3.671,103.448,4.535,103.854,5.364,103.854z"/>
	<path d="M7.533,99.317H3.779v0.612H3.176v-0.612H2.969c-0.612,0-1.17-0.135-1.521-0.504c-0.288-0.297-0.405-0.693-0.405-1.062   c0-0.279,0.063-0.522,0.126-0.675l0.612,0.107c-0.054,0.117-0.099,0.279-0.099,0.504c0,0.676,0.594,0.847,1.26,0.847h0.234V97.48   h0.604v1.054h3.754V99.317z"/>
	<path d="M4.598,94.862c-0.558,0-1.008,0.018-1.422,0.036v-0.711l0.748-0.036v-0.019c-0.531-0.324-0.847-0.837-0.847-1.548   c0-1.054,0.892-1.846,2.215-1.846c1.566,0,2.341,0.954,2.341,1.98c0,0.576-0.252,1.08-0.684,1.342v0.018h2.368v0.783H4.598z    M5.76,94.079c0.117,0,0.225-0.018,0.324-0.036c0.549-0.144,0.927-0.621,0.927-1.188c0-0.837-0.685-1.323-1.684-1.323   c-0.874,0-1.621,0.459-1.621,1.297c0,0.54,0.387,1.044,0.981,1.197c0.099,0.026,0.216,0.054,0.324,0.054H5.76z"/>
	<path d="M5.499,89.3c1.071-0.018,1.513-0.702,1.513-1.494c0-0.567-0.099-0.909-0.225-1.206l0.567-0.135   c0.126,0.278,0.27,0.756,0.27,1.449c0,1.341-0.882,2.143-2.196,2.143s-2.35-0.774-2.35-2.044c0-1.422,1.251-1.8,2.053-1.8   c0.162,0,0.288,0.018,0.369,0.026V89.3z M4.932,86.978c-0.504-0.009-1.288,0.207-1.288,1.099c0,0.801,0.738,1.152,1.288,1.215   V86.978z"/>
	<path d="M5.318,81.289c1.612,0,2.314,1.117,2.314,2.17c0,1.179-0.864,2.088-2.242,2.088c-1.458,0-2.314-0.954-2.314-2.16   C3.077,82.136,3.986,81.289,5.318,81.289z M5.364,84.746c0.954,0,1.674-0.549,1.674-1.323c0-0.756-0.711-1.323-1.692-1.323   c-0.738,0-1.675,0.369-1.675,1.305C3.671,84.341,4.535,84.746,5.364,84.746z"/>
	<path d="M4.598,80.292c-0.558,0-1.008,0.018-1.422,0.036v-0.711l0.748-0.036v-0.018c-0.531-0.324-0.847-0.837-0.847-1.549   c0-1.053,0.892-1.845,2.215-1.845c1.566,0,2.341,0.954,2.341,1.98c0,0.576-0.252,1.08-0.684,1.341v0.018h2.368v0.783H4.598z    M5.76,79.508c0.117,0,0.225-0.018,0.324-0.036c0.549-0.144,0.927-0.621,0.927-1.188c0-0.837-0.685-1.323-1.684-1.323   c-0.874,0-1.621,0.459-1.621,1.296c0,0.54,0.387,1.044,0.981,1.197c0.099,0.027,0.216,0.054,0.324,0.054H5.76z"/>
	<path d="M1.141,75.17v-0.792h6.392v0.792H1.141z"/>
	<path d="M5.499,72.605c1.071-0.018,1.513-0.703,1.513-1.495c0-0.567-0.099-0.909-0.225-1.207l0.567-0.135   c0.126,0.279,0.27,0.756,0.27,1.449c0,1.341-0.882,2.143-2.196,2.143s-2.35-0.774-2.35-2.043c0-1.422,1.251-1.8,2.053-1.8   c0.162,0,0.288,0.018,0.369,0.027V72.605z M4.932,70.283c-0.504-0.009-1.288,0.207-1.288,1.098c0,0.801,0.738,1.152,1.288,1.215   V70.283z"/>
	<path d="M1.952,65.748c0.27-0.009,0.486,0.189,0.486,0.504c0,0.279-0.216,0.477-0.486,0.477c-0.279,0-0.495-0.207-0.495-0.495   C1.457,65.937,1.672,65.748,1.952,65.748z M7.533,66.63H3.176v-0.792h4.357V66.63z"/>
	<path d="M4.355,64.524c-0.45,0-0.819,0.009-1.18,0.036v-0.702l0.72-0.045v-0.018c-0.414-0.216-0.819-0.72-0.819-1.44   c0-0.604,0.36-1.54,1.855-1.54h2.602v0.792H5.021c-0.702,0-1.288,0.261-1.288,1.008c0,0.522,0.369,0.927,0.811,1.062   c0.099,0.036,0.234,0.054,0.369,0.054h2.62v0.792H4.355z"/>
	<path d="M1.924,56.667h1.251v-1.134h0.604v1.134h2.35c0.54,0,0.846-0.153,0.846-0.594c0-0.207-0.027-0.36-0.054-0.459l0.594-0.036   c0.063,0.153,0.108,0.396,0.108,0.702c0,0.369-0.117,0.666-0.333,0.855c-0.234,0.225-0.621,0.306-1.134,0.306H3.779v0.675H3.176   v-0.675H2.132L1.924,56.667z"/>
	<path d="M1.141,54.642V53.85H3.86v-0.018c-0.225-0.126-0.423-0.324-0.559-0.567c-0.135-0.234-0.225-0.513-0.225-0.81   c0-0.585,0.36-1.521,1.864-1.521h2.593v0.792H5.03c-0.702,0-1.296,0.261-1.296,1.008c0,0.513,0.36,0.918,0.792,1.062   c0.108,0.045,0.225,0.054,0.378,0.054h2.629v0.792H1.141z"/>
	<path d="M5.499,49.206c1.071-0.018,1.513-0.703,1.513-1.495c0-0.567-0.099-0.909-0.225-1.207l0.567-0.135   c0.126,0.279,0.27,0.756,0.27,1.449c0,1.341-0.882,2.143-2.196,2.143s-2.35-0.774-2.35-2.043c0-1.422,1.251-1.8,2.053-1.8   c0.162,0,0.288,0.018,0.369,0.027V49.206z M4.932,46.883c-0.504-0.009-1.288,0.207-1.288,1.098c0,0.801,0.738,1.152,1.288,1.215   V46.883z"/>
	<path d="M6.723,43.338c0.153-0.234,0.315-0.648,0.315-1.044c0-0.576-0.288-0.847-0.648-0.847c-0.378,0-0.585,0.225-0.801,0.811   c-0.279,0.783-0.711,1.152-1.233,1.152c-0.703,0-1.279-0.567-1.279-1.503c0-0.441,0.126-0.829,0.271-1.071l0.576,0.198   c-0.108,0.171-0.252,0.486-0.252,0.892c0,0.468,0.27,0.729,0.594,0.729c0.36,0,0.522-0.261,0.738-0.828   c0.288-0.756,0.666-1.144,1.314-1.144c0.765,0,1.305,0.594,1.305,1.629c0,0.478-0.117,0.918-0.297,1.225L6.723,43.338z"/>
	<path d="M1.924,38.712h1.251v-1.134h0.604v1.134h2.35c0.54,0,0.846-0.153,0.846-0.594c0-0.207-0.027-0.36-0.054-0.459l0.594-0.036   c0.063,0.153,0.108,0.396,0.108,0.702c0,0.369-0.117,0.666-0.333,0.855c-0.234,0.225-0.621,0.306-1.134,0.306H3.779v0.675H3.176   v-0.675H2.132L1.924,38.712z"/>
	<path d="M6.345,33.042c0.45,0,0.846-0.009,1.188-0.036v0.702l-0.711,0.045v0.018c0.351,0.207,0.811,0.667,0.811,1.44   c0,0.685-0.378,1.503-1.909,1.503H3.176v-0.792h2.413c0.828,0,1.386-0.252,1.386-0.972c0-0.531-0.369-0.9-0.72-1.044   c-0.117-0.045-0.261-0.072-0.405-0.072H3.176v-0.792H6.345z"/>
	<path d="M1.141,27.965h5.267c0.387,0,0.829-0.009,1.125-0.036v0.711l-0.756,0.036v0.018c0.486,0.243,0.855,0.774,0.855,1.485   c0,1.053-0.891,1.863-2.215,1.863c-1.449,0.009-2.341-0.891-2.341-1.954c0-0.666,0.315-1.116,0.667-1.314v-0.018H1.141V27.965z    M4.949,28.758c-0.099,0-0.234,0.009-0.333,0.036c-0.504,0.117-0.918,0.549-0.918,1.144c0,0.819,0.72,1.305,1.683,1.305   c0.882,0,1.612-0.432,1.612-1.287c0-0.531-0.351-1.018-0.945-1.162c-0.108-0.027-0.216-0.036-0.342-0.036H4.949z"/>
	<path d="M3.176,26.364L5.75,25.41c0.288-0.099,0.63-0.207,0.892-0.279v-0.018c-0.261-0.081-0.594-0.171-0.91-0.279L3.176,23.97   v-0.837l3.106,1.188c1.495,0.567,2.26,0.954,2.728,1.494c0.342,0.387,0.477,0.774,0.513,0.973l-0.667,0.198   c-0.063-0.198-0.189-0.459-0.387-0.693c-0.171-0.216-0.478-0.486-0.882-0.667c-0.081-0.036-0.144-0.063-0.189-0.063   c-0.045,0-0.108,0.018-0.207,0.054l-4.015,1.611V26.364z"/>
	<path d="M17.523,134.202c0.153-0.234,0.315-0.648,0.315-1.045c0-0.576-0.288-0.846-0.648-0.846c-0.378,0-0.585,0.225-0.801,0.81   c-0.279,0.783-0.711,1.152-1.233,1.152c-0.703,0-1.279-0.566-1.279-1.503c0-0.441,0.126-0.828,0.271-1.071l0.576,0.198   c-0.108,0.171-0.252,0.485-0.252,0.891c0,0.469,0.27,0.729,0.594,0.729c0.36,0,0.522-0.261,0.738-0.828   c0.288-0.756,0.666-1.144,1.314-1.144c0.765,0,1.305,0.595,1.305,1.63c0,0.477-0.117,0.918-0.297,1.224L17.523,134.202z"/>
	<path d="M18.333,128.116l-0.549,0.063v0.027c0.342,0.243,0.648,0.711,0.648,1.332c0,0.882-0.621,1.332-1.251,1.332   c-1.053,0-1.629-0.936-1.621-2.619h-0.09c-0.36,0-1.008,0.099-1.008,0.99c0,0.405,0.126,0.828,0.324,1.134l-0.522,0.181   c-0.234-0.36-0.387-0.883-0.387-1.432c0-1.332,0.91-1.656,1.783-1.656h1.629c0.378,0,0.748-0.019,1.044-0.072V128.116z    M16.109,128.233c-0.018,0.864,0.135,1.846,0.981,1.846c0.513,0,0.756-0.342,0.756-0.747c0-0.567-0.36-0.928-0.729-1.054   c-0.081-0.026-0.171-0.045-0.252-0.045H16.109z"/>
	<path d="M15.155,126.191c-0.45,0-0.819,0.009-1.18,0.036v-0.693l0.702-0.036v-0.026c-0.414-0.243-0.801-0.648-0.801-1.369   c0-0.594,0.36-1.044,0.874-1.233v-0.018c-0.243-0.135-0.432-0.307-0.567-0.486c-0.198-0.261-0.306-0.549-0.306-0.963   c0-0.576,0.378-1.432,1.891-1.432h2.566v0.774h-2.467c-0.837,0-1.341,0.306-1.341,0.945c0,0.45,0.333,0.801,0.72,0.936   c0.108,0.036,0.252,0.063,0.396,0.063h2.692v0.774h-2.611c-0.693,0-1.197,0.306-1.197,0.909c0,0.495,0.396,0.855,0.792,0.981   c0.117,0.045,0.252,0.062,0.387,0.062h2.629v0.774H15.155z"/>
	<path d="M15.398,118.686c-0.558,0-1.008,0.018-1.422,0.036v-0.711l0.748-0.036v-0.019c-0.531-0.324-0.847-0.837-0.847-1.548   c0-1.054,0.892-1.846,2.215-1.846c1.566,0,2.341,0.954,2.341,1.98c0,0.576-0.252,1.08-0.684,1.342v0.018h2.368v0.783H15.398z    M16.56,117.902c0.117,0,0.225-0.018,0.324-0.036c0.549-0.144,0.927-0.621,0.927-1.188c0-0.837-0.685-1.323-1.684-1.323   c-0.874,0-1.621,0.459-1.621,1.297c0,0.54,0.387,1.044,0.981,1.197c0.099,0.026,0.216,0.054,0.324,0.054H16.56z"/>
	<path d="M11.941,113.564v-0.792h6.392v0.792H11.941z"/>
	<path d="M16.298,110.999c1.071-0.018,1.513-0.702,1.513-1.494c0-0.567-0.099-0.909-0.225-1.206l0.567-0.136   c0.126,0.279,0.27,0.757,0.27,1.45c0,1.341-0.882,2.143-2.196,2.143s-2.35-0.774-2.35-2.044c0-1.423,1.251-1.801,2.053-1.801   c0.162,0,0.288,0.019,0.369,0.027V110.999z M15.731,108.677c-0.504-0.009-1.288,0.207-1.288,1.099c0,0.801,0.738,1.152,1.288,1.215   V108.677z"/>
	<path d="M13.976,104.708l2.215-0.576c0.486-0.126,0.936-0.243,1.386-0.324v-0.026c-0.441-0.1-0.909-0.243-1.377-0.388l-2.224-0.711   v-0.666l2.179-0.675c0.522-0.162,0.981-0.288,1.422-0.388v-0.027c-0.441-0.071-0.9-0.188-1.413-0.333l-2.188-0.621v-0.783   l4.357,1.404v0.721l-2.08,0.666c-0.486,0.153-0.918,0.279-1.432,0.388v0.018c0.522,0.108,0.973,0.243,1.44,0.396l2.071,0.702v0.72   l-4.357,1.314V104.708z"/>
	<path d="M12.751,97.518c0.27-0.01,0.486,0.188,0.486,0.504c0,0.279-0.216,0.477-0.486,0.477c-0.279,0-0.495-0.207-0.495-0.495   C12.256,97.706,12.472,97.518,12.751,97.518z M18.333,98.399h-4.357v-0.792h4.357V98.399z"/>
	<path d="M12.724,95.34h1.251v-1.135h0.604v1.135h2.35c0.54,0,0.846-0.153,0.846-0.595c0-0.207-0.027-0.359-0.054-0.459l0.594-0.036   c0.063,0.153,0.108,0.396,0.108,0.702c0,0.369-0.117,0.667-0.333,0.855c-0.234,0.226-0.621,0.307-1.134,0.307h-2.376v0.675h-0.604   v-0.675h-1.044L12.724,95.34z"/>
	<path d="M11.941,93.315v-0.792h2.719v-0.019c-0.225-0.126-0.423-0.324-0.559-0.566c-0.135-0.234-0.225-0.514-0.225-0.811   c0-0.585,0.36-1.521,1.864-1.521h2.593v0.792H15.83c-0.702,0-1.296,0.261-1.296,1.009c0,0.513,0.36,0.918,0.792,1.062   c0.108,0.046,0.225,0.055,0.378,0.055h2.629v0.792H11.941z"/>
	<path d="M12.724,85.459h1.251v-1.134h0.604v1.134h2.35c0.54,0,0.846-0.153,0.846-0.594c0-0.207-0.027-0.36-0.054-0.459l0.594-0.036   c0.063,0.153,0.108,0.396,0.108,0.702c0,0.369-0.117,0.666-0.333,0.855c-0.234,0.225-0.621,0.306-1.134,0.306h-2.376v0.676h-0.604   v-0.676h-1.044L12.724,85.459z"/>
	<path d="M11.941,83.434v-0.792h2.719v-0.018c-0.225-0.126-0.423-0.324-0.559-0.567c-0.135-0.234-0.225-0.513-0.225-0.81   c0-0.585,0.36-1.521,1.864-1.521h2.593v0.792H15.83c-0.702,0-1.296,0.261-1.296,1.008c0,0.513,0.36,0.918,0.792,1.062   c0.108,0.045,0.225,0.054,0.378,0.054h2.629v0.792H11.941z"/>
	<path d="M18.333,76.026l-0.549,0.063v0.027c0.342,0.243,0.648,0.711,0.648,1.333c0,0.882-0.621,1.333-1.251,1.333   c-1.053,0-1.629-0.937-1.621-2.62h-0.09c-0.36,0-1.008,0.099-1.008,0.991c0,0.405,0.126,0.828,0.324,1.134l-0.522,0.18   c-0.234-0.36-0.387-0.882-0.387-1.431c0-1.333,0.91-1.657,1.783-1.657h1.629c0.378,0,0.748-0.018,1.044-0.072V76.026z    M16.109,76.143c-0.018,0.864,0.135,1.846,0.981,1.846c0.513,0,0.756-0.342,0.756-0.747c0-0.567-0.36-0.927-0.729-1.053   c-0.081-0.027-0.171-0.045-0.252-0.045H16.109z"/>
	<path d="M12.724,73.183h1.251v-1.134h0.604v1.134h2.35c0.54,0,0.846-0.153,0.846-0.594c0-0.207-0.027-0.36-0.054-0.459l0.594-0.036   c0.063,0.153,0.108,0.396,0.108,0.702c0,0.369-0.117,0.666-0.333,0.855c-0.234,0.225-0.621,0.306-1.134,0.306h-2.376v0.675h-0.604   v-0.675h-1.044L12.724,73.183z"/>
	<path d="M11.941,69.25v-0.792h2.719V68.44c-0.225-0.126-0.423-0.324-0.559-0.567c-0.135-0.234-0.225-0.513-0.225-0.81   c0-0.585,0.36-1.521,1.864-1.521h2.593v0.792H15.83c-0.702,0-1.296,0.261-1.296,1.008c0,0.513,0.36,0.918,0.792,1.062   c0.108,0.045,0.225,0.054,0.378,0.054h2.629v0.792H11.941z"/>
	<path d="M16.298,63.814c1.071-0.018,1.513-0.703,1.513-1.495c0-0.567-0.099-0.909-0.225-1.207l0.567-0.135   c0.126,0.279,0.27,0.756,0.27,1.449c0,1.341-0.882,2.143-2.196,2.143s-2.35-0.774-2.35-2.043c0-1.422,1.251-1.8,2.053-1.8   c0.162,0,0.288,0.018,0.369,0.027V63.814z M15.731,61.492c-0.504-0.009-1.288,0.207-1.288,1.098c0,0.801,0.738,1.152,1.288,1.215   V61.492z"/>
	<path d="M12.751,58.864c0.27-0.009,0.486,0.189,0.486,0.504c0,0.279-0.216,0.477-0.486,0.477c-0.279,0-0.495-0.207-0.495-0.495   C12.256,59.053,12.472,58.864,12.751,58.864z M18.333,59.747h-4.357v-0.792h4.357V59.747z"/>
	<path d="M13.976,53.887c0.315,0.018,0.667,0.036,1.197,0.036h2.53c1,0,1.612,0.198,1.99,0.622c0.396,0.423,0.522,1.035,0.522,1.584   c0,0.522-0.126,1.098-0.36,1.449l-0.603-0.198c0.18-0.288,0.342-0.738,0.342-1.278c0-0.81-0.423-1.404-1.521-1.404h-0.486v0.018   c0.405,0.243,0.729,0.711,0.729,1.386c0,1.081-0.918,1.854-2.125,1.854c-1.477,0-2.314-0.963-2.314-1.962   c0-0.756,0.396-1.17,0.756-1.359v-0.018l-0.657-0.036V53.887z M15.695,54.706c-0.135,0-0.252,0.009-0.36,0.045   c-0.459,0.144-0.837,0.531-0.837,1.107c0,0.756,0.639,1.296,1.647,1.296c0.855,0,1.566-0.432,1.566-1.287   c0-0.486-0.306-0.927-0.811-1.098c-0.135-0.045-0.288-0.063-0.423-0.063H15.695z"/>
	<path d="M11.941,52.61v-0.792h2.719V51.8c-0.225-0.126-0.423-0.324-0.559-0.567c-0.135-0.234-0.225-0.513-0.225-0.81   c0-0.585,0.36-1.521,1.864-1.521h2.593v0.792H15.83c-0.702,0-1.296,0.261-1.296,1.008c0,0.513,0.36,0.918,0.792,1.062   c0.108,0.045,0.225,0.054,0.378,0.054h2.629v0.792H11.941z"/>
	<path d="M12.724,46.696h1.251v-1.134h0.604v1.134h2.35c0.54,0,0.846-0.153,0.846-0.594c0-0.207-0.027-0.36-0.054-0.459l0.594-0.036   c0.063,0.153,0.108,0.396,0.108,0.702c0,0.369-0.117,0.666-0.333,0.855c-0.234,0.225-0.621,0.306-1.134,0.306h-2.376v0.675h-0.604   V47.47h-1.044L12.724,46.696z"/>
	<path d="M17.523,42.872c0.153-0.234,0.315-0.648,0.315-1.044c0-0.576-0.288-0.847-0.648-0.847c-0.378,0-0.585,0.225-0.801,0.811   c-0.279,0.783-0.711,1.152-1.233,1.152c-0.703,0-1.279-0.567-1.279-1.503c0-0.441,0.126-0.829,0.271-1.071l0.576,0.198   c-0.108,0.171-0.252,0.486-0.252,0.892c0,0.468,0.27,0.729,0.594,0.729c0.36,0,0.522-0.261,0.738-0.828   c0.288-0.756,0.666-1.144,1.314-1.144c0.765,0,1.305,0.594,1.305,1.629c0,0.478-0.117,0.918-0.297,1.225L17.523,42.872z"/>
	<path d="M18.171,36.094c0.108,0.207,0.252,0.667,0.252,1.251c0,1.314-0.891,2.169-2.224,2.169c-1.341,0-2.313-0.918-2.313-2.34   c0-0.468,0.117-0.882,0.225-1.099l0.612,0.18c-0.108,0.189-0.208,0.486-0.208,0.918c0,0.999,0.738,1.539,1.648,1.539   c1.008,0,1.629-0.648,1.629-1.512c0-0.45-0.117-0.747-0.216-0.972L18.171,36.094z"/>
	<path d="M16.118,31.279c1.612,0,2.314,1.117,2.314,2.17c0,1.179-0.864,2.088-2.242,2.088c-1.458,0-2.314-0.954-2.314-2.161   C13.876,32.125,14.786,31.279,16.118,31.279z M16.164,34.736c0.954,0,1.674-0.549,1.674-1.323c0-0.756-0.711-1.323-1.692-1.323   c-0.738,0-1.675,0.369-1.675,1.305C14.471,34.331,15.335,34.736,16.164,34.736z"/>
	<path d="M15.335,30.281c-0.513,0-0.954,0.009-1.359,0.036v-0.693l0.855-0.027v-0.036c-0.585-0.198-0.955-0.675-0.955-1.207   c0-0.09,0.009-0.153,0.027-0.225h0.747c-0.018,0.081-0.027,0.162-0.027,0.271c0,0.558,0.423,0.954,1.017,1.062   c0.108,0.018,0.234,0.036,0.369,0.036h2.323v0.783H15.335z"/>
	<path d="M16.298,26.987c1.071-0.018,1.513-0.703,1.513-1.495c0-0.567-0.099-0.909-0.225-1.207l0.567-0.135   c0.126,0.279,0.27,0.756,0.27,1.449c0,1.341-0.882,2.143-2.196,2.143s-2.35-0.774-2.35-2.043c0-1.422,1.251-1.8,2.053-1.8   c0.162,0,0.288,0.018,0.369,0.027V26.987z M15.731,24.665c-0.504-0.009-1.288,0.207-1.288,1.098c0,0.801,0.738,1.152,1.288,1.215   V24.665z"/>
</g>
<g>
	<path d="M173.204,162.141h-0.016l-0.903,0.487l-0.137-0.536l1.136-0.607h0.6v5.197h-0.68V162.141z"/>
	<path d="M179.234,164.027c0,1.767-0.655,2.742-1.807,2.742c-1.016,0-1.703-0.951-1.719-2.671c0-1.742,0.751-2.702,1.807-2.702   C178.611,161.396,179.234,162.372,179.234,164.027z M176.412,164.107c0,1.351,0.416,2.118,1.056,2.118   c0.72,0,1.063-0.839,1.063-2.167c0-1.279-0.328-2.118-1.056-2.118C176.86,161.94,176.412,162.691,176.412,164.107z"/>
</g>
<rect x="35.537" y="3" fill="none" stroke="#000000" stroke-width="0.5" stroke-miterlimit="10" width="157.307" height="152.327"/>
<line fill="none" stroke="#000000" stroke-width="0.5" stroke-miterlimit="10" x1="192.844" y1="30.717" x2="195.844" y2="30.717"/>
<line fill="none" stroke="#000000" stroke-width="0.5" stroke-miterlimit="10" x1="192.844" y1="69.213" x2="195.844" y2="69.213"/>
<line fill="none" stroke="#000000" stroke-width="0.5" stroke-miterlimit="10" x1="192.844" y1="107.71" x2="195.844" y2="107.71"/>
<line fill="none" stroke="#000000" stroke-width="0.5" stroke-miterlimit="10" x1="192.844" y1="146.207" x2="195.844" y2="146.207"/>
<line fill="none" stroke="#000000" stroke-width="0.5" stroke-miterlimit="10" x1="32.537" y1="30.717" x2="35.537" y2="30.717"/>
<line fill="none" stroke="#000000" stroke-width="0.5" stroke-miterlimit="10" x1="32.537" y1="69.213" x2="35.537" y2="69.213"/>
<line fill="none" stroke="#000000" stroke-width="0.5" stroke-miterlimit="10" x1="32.537" y1="107.71" x2="35.537" y2="107.71"/>
<line fill="none" stroke="#000000" stroke-width="0.5" stroke-miterlimit="10" x1="32.537" y1="146.207" x2="35.537" y2="146.207"/>
<line fill="none" stroke="#000000" stroke-width="0.5" stroke-miterlimit="10" x1="53.775" y1="158.327" x2="53.775" y2="155.327"/>
<line fill="none" stroke="#000000" stroke-width="0.5" stroke-miterlimit="10" x1="94.35" y1="158.327" x2="94.35" y2="155.327"/>
<line fill="none" stroke="#000000" stroke-width="0.5" stroke-miterlimit="10" x1="134.925" y1="158.327" x2="134.925" y2="155.327"/>
<line fill="none" stroke="#000000" stroke-width="0.5" stroke-miterlimit="10" x1="175.5" y1="158.327" x2="175.5" y2="155.327"/>
<line fill="none" stroke="#000000" stroke-width="0.5" stroke-miterlimit="10" x1="53.775" y1="3" x2="53.775" y2="0"/>
<line fill="none" stroke="#000000" stroke-width="0.5" stroke-miterlimit="10" x1="94.35" y1="3" x2="94.35" y2="0"/>
<line fill="none" stroke="#000000" stroke-width="0.5" stroke-miterlimit="10" x1="134.925" y1="3" x2="134.925" y2="0"/>
<line fill="none" stroke="#000000" stroke-width="0.5" stroke-miterlimit="10" x1="175.5" y1="3" x2="175.5" y2="0"/>
<rect x="47.959" y="144.227" fill="#CCCCCC" stroke="#000000" stroke-width="0.5" stroke-miterlimit="10" width="2.758" height="1.98"/>
<rect x="50.717" y="142.246" fill="#CCCCCC" stroke="#000000" stroke-width="0.5" stroke-miterlimit="10" width="2.758" height="3.961"/>
<rect x="53.476" y="144.227" fill="#CCCCCC" stroke="#000000" stroke-width="0.5" stroke-miterlimit="10" width="2.758" height="1.98"/>
<rect x="56.234" y="142.246" fill="#CCCCCC" stroke="#000000" stroke-width="0.5" stroke-miterlimit="10" width="2.758" height="3.961"/>
<rect x="58.992" y="140.266" fill="#CCCCCC" stroke="#000000" stroke-width="0.5" stroke-miterlimit="10" width="2.758" height="5.941"/>
<rect x="61.75" y="125.336" fill="#CCCCCC" stroke="#000000" stroke-width="0.5" stroke-miterlimit="10" width="2.758" height="20.871"/>
<rect x="64.509" y="134.325" fill="#CCCCCC" stroke="#000000" stroke-width="0.5" stroke-miterlimit="10" width="2.758" height="11.882"/>
<rect x="67.267" y="117.801" fill="#CCCCCC" stroke="#000000" stroke-width="0.5" stroke-miterlimit="10" width="2.758" height="28.406"/>
<rect x="70.025" y="96.699" fill="#CCCCCC" stroke="#000000" stroke-width="0.5" stroke-miterlimit="10" width="2.758" height="49.508"/>
<rect x="72.783" y="119.568" fill="#CCCCCC" stroke="#000000" stroke-width="0.5" stroke-miterlimit="10" width="2.758" height="26.639"/>
<rect x="75.542" y="102.641" fill="#CCCCCC" stroke="#000000" stroke-width="0.5" stroke-miterlimit="10" width="2.758" height="43.566"/>
<rect x="78.3" y="72.542" fill="#CCCCCC" stroke="#000000" stroke-width="0.5" stroke-miterlimit="10" width="2.758" height="73.665"/>
<rect x="81.059" y="91.319" fill="#CCCCCC" stroke="#000000" stroke-width="0.5" stroke-miterlimit="10" width="2.758" height="54.888"/>
<rect x="83.816" y="53.512" fill="#CCCCCC" stroke="#000000" stroke-width="0.5" stroke-miterlimit="10" width="2.758" height="92.695"/>
<rect x="86.575" y="47.955" fill="#CCCCCC" stroke="#000000" stroke-width="0.5" stroke-miterlimit="10" width="2.758" height="98.252"/>
<rect x="89.333" y="70.858" fill="#CCCCCC" stroke="#000000" stroke-width="0.5" stroke-miterlimit="10" width="2.758" height="75.349"/>
<rect x="92.092" y="57.386" fill="#CCCCCC" stroke="#000000" stroke-width="0.5" stroke-miterlimit="10" width="2.758" height="88.821"/>
<rect x="94.85" y="47.955" fill="#CCCCCC" stroke="#000000" stroke-width="0.5" stroke-miterlimit="10" width="2.758" height="98.252"/>
<rect x="97.608" y="12.292" fill="#CCCCCC" stroke="#000000" stroke-width="0.5" stroke-miterlimit="10" width="2.758" height="133.915"/>
<rect x="100.366" y="36.84" fill="#CCCCCC" stroke="#000000" stroke-width="0.5" stroke-miterlimit="10" width="2.758" height="109.367"/>
<rect x="103.125" y="16.043" fill="#CCCCCC" stroke="#000000" stroke-width="0.5" stroke-miterlimit="10" width="2.758" height="130.164"/>
<rect x="105.883" y="27.41" fill="#CCCCCC" stroke="#000000" stroke-width="0.5" stroke-miterlimit="10" width="2.758" height="118.797"/>
<rect x="108.641" y="17.895" fill="#CCCCCC" stroke="#000000" stroke-width="0.5" stroke-miterlimit="10" width="2.759" height="128.312"/>
<rect x="111.399" y="47.955" fill="#CCCCCC" stroke="#000000" stroke-width="0.5" stroke-miterlimit="10" width="2.758" height="98.252"/>
<rect x="114.157" y="78.268" fill="#CCCCCC" stroke="#000000" stroke-width="0.5" stroke-miterlimit="10" width="2.759" height="67.939"/>
<rect x="116.916" y="97.045" fill="#CCCCCC" stroke="#000000" stroke-width="0.5" stroke-miterlimit="10" width="2.758" height="49.162"/>
<rect x="119.674" y="89.467" fill="#CCCCCC" stroke="#000000" stroke-width="0.5" stroke-miterlimit="10" width="2.759" height="56.74"/>
<rect x="122.433" y="87.698" fill="#CCCCCC" stroke="#000000" stroke-width="0.5" stroke-miterlimit="10" width="2.758" height="58.509"/>
<rect x="125.19" y="98.68" fill="#CCCCCC" stroke="#000000" stroke-width="0.5" stroke-miterlimit="10" width="2.759" height="47.527"/>
<rect x="127.949" y="110.18" fill="#CCCCCC" stroke="#000000" stroke-width="0.5" stroke-miterlimit="10" width="2.758" height="36.027"/>
<rect x="130.707" y="110.18" fill="#CCCCCC" stroke="#000000" stroke-width="0.5" stroke-miterlimit="10" width="2.758" height="36.027"/>
<rect x="133.466" y="117.801" fill="#CCCCCC" stroke="#000000" stroke-width="0.5" stroke-miterlimit="10" width="2.758" height="28.406"/>
<rect x="136.224" y="129.041" fill="#CCCCCC" stroke="#000000" stroke-width="0.5" stroke-miterlimit="10" width="2.759" height="17.166"/>
<rect x="138.982" y="130.919" fill="#CCCCCC" stroke="#000000" stroke-width="0.5" stroke-miterlimit="10" width="2.758" height="15.288"/>
<rect x="141.74" y="138.285" fill="#CCCCCC" stroke="#000000" stroke-width="0.5" stroke-miterlimit="10" width="2.758" height="7.922"/>
<rect x="144.499" y="142.246" fill="#CCCCCC" stroke="#000000" stroke-width="0.5" stroke-miterlimit="10" width="2.758" height="3.961"/>
<rect x="150.016" y="144.227" fill="#CCCCCC" stroke="#000000" stroke-width="0.5" stroke-miterlimit="10" width="2.758" height="1.98"/>
<rect x="152.773" y="142.246" fill="#CCCCCC" stroke="#000000" stroke-width="0.5" stroke-miterlimit="10" width="2.758" height="3.961"/>
<rect x="177.598" y="144.227" fill="#CCCCCC" stroke="#000000" stroke-width="0.5" stroke-miterlimit="10" width="2.759" height="1.98"/>
<line fill="none" stroke="#000000" stroke-width="0.5" stroke-miterlimit="10" x1="43.392" y1="146.207" x2="185.308" y2="146.207"/>
<path fill="none" stroke="#000000" stroke-width="0.5" stroke-miterlimit="10" d="M178.897,121.626"/>
<polygon fill="#CCCCCC" stroke="#000000" stroke-width="0.5" stroke-miterlimit="10" points="175.1,132.004 178.978,139.995   182.695,132.004 180.826,132.004 180.826,121.354 176.794,121.354 176.794,132.004 "/>
</svg>