<svg xmlns="http://www.w3.org/2000/svg" xmlns:xlink="http://www.w3.org/1999/xlink" version="1.1" id="Layer_2" x="0px" y="0px" width="311.979px" height="189.363px" viewBox="0 0 311.979 189.363" enable-background="new 0 0 311.979 189.363" xml:space="preserve">
<g>
	<line fill="none" stroke="#B3B3B3" stroke-width="0.5" stroke-miterlimit="10" x1="37.833" y1="12.963" x2="242.589" y2="12.963"/>
	<line fill="none" stroke="#B3B3B3" stroke-width="0.5" stroke-miterlimit="10" x1="37.833" y1="37.439" x2="242.589" y2="37.439"/>
	<line fill="none" stroke="#B3B3B3" stroke-width="0.5" stroke-miterlimit="10" x1="37.833" y1="61.915" x2="242.589" y2="61.915"/>
	<line fill="none" stroke="#B3B3B3" stroke-width="0.5" stroke-miterlimit="10" x1="37.833" y1="86.391" x2="242.589" y2="86.391"/>
	
		<line fill="none" stroke="#B3B3B3" stroke-width="0.5" stroke-miterlimit="10" x1="37.833" y1="110.866" x2="242.589" y2="110.866"/>
	
		<line fill="none" stroke="#B3B3B3" stroke-width="0.5" stroke-miterlimit="10" x1="37.833" y1="135.342" x2="242.589" y2="135.342"/>
	
		<line fill="none" stroke="#000000" stroke-width="0.5" stroke-miterlimit="10" x1="37.833" y1="159.817" x2="242.589" y2="159.817"/>
</g>
<line fill="none" stroke="#B3B3B3" stroke-width="0.5" stroke-miterlimit="10" x1="115.63" y1="0" x2="115.63" y2="159.817"/>
<line fill="none" stroke="#B3B3B3" stroke-width="0.5" stroke-miterlimit="10" x1="164.599" y1="0" x2="164.599" y2="159.817"/>
<line fill="none" stroke="#B3B3B3" stroke-width="0.5" stroke-miterlimit="10" x1="213.565" y1="0" x2="213.565" y2="159.817"/>
<g>
	<line fill="none" stroke="#B3B3B3" stroke-width="0.5" stroke-miterlimit="10" x1="66.663" y1="0" x2="66.663" y2="159.817"/>
	
		<rect x="44.927" y="143.519" fill="#CCCCCC" stroke="#000000" stroke-width="0.5" stroke-miterlimit="10" width="11.039" height="16.299"/>
	
		<rect x="55.966" y="135.447" fill="#999999" stroke="#000000" stroke-width="0.5" stroke-miterlimit="10" width="11.039" height="24.37"/>
	
		<rect x="67.005" y="121.167" fill="#666666" stroke="#000000" stroke-width="0.5" stroke-miterlimit="10" width="11.04" height="38.65"/>
	<rect x="78.045" y="101.656" stroke="#000000" stroke-width="0.5" stroke-miterlimit="10" width="11.039" height="58.161"/>
</g>
<g>
	
		<rect x="93.714" y="146.553" fill="#CCCCCC" stroke="#000000" stroke-width="0.5" stroke-miterlimit="10" width="11.039" height="13.265"/>
	
		<rect x="104.753" y="130.537" fill="#999999" stroke="#000000" stroke-width="0.5" stroke-miterlimit="10" width="11.039" height="29.28"/>
	
		<rect x="115.792" y="125.118" fill="#666666" stroke="#000000" stroke-width="0.5" stroke-miterlimit="10" width="11.04" height="34.699"/>
	<rect x="126.832" y="80.233" stroke="#000000" stroke-width="0.5" stroke-miterlimit="10" width="11.039" height="79.584"/>
</g>
<g>
	
		<rect x="142.474" y="135.703" fill="#CCCCCC" stroke="#000000" stroke-width="0.5" stroke-miterlimit="10" width="11.039" height="24.114"/>
	
		<rect x="153.513" y="112.995" fill="#999999" stroke="#000000" stroke-width="0.5" stroke-miterlimit="10" width="11.039" height="46.822"/>
	
		<rect x="164.552" y="98.645" fill="#666666" stroke="#000000" stroke-width="0.5" stroke-miterlimit="10" width="11.039" height="61.173"/>
	<rect x="175.591" y="56.909" stroke="#000000" stroke-width="0.5" stroke-miterlimit="10" width="11.039" height="102.909"/>
</g>
<g>
	
		<rect x="191.295" y="92.304" fill="#CCCCCC" stroke="#000000" stroke-width="0.5" stroke-miterlimit="10" width="11.04" height="67.514"/>
	
		<rect x="202.335" y="79.76" fill="#999999" stroke="#000000" stroke-width="0.5" stroke-miterlimit="10" width="11.039" height="80.058"/>
	
		<rect x="213.374" y="64.497" fill="#666666" stroke="#000000" stroke-width="0.5" stroke-miterlimit="10" width="11.039" height="95.32"/>
	<rect x="224.413" y="7.796" stroke="#000000" stroke-width="0.5" stroke-miterlimit="10" width="11.039" height="152.021"/>
</g>
<g>
	<path d="M28.739,12.908c0,1.767-0.656,2.742-1.807,2.742c-1.015,0-1.703-0.951-1.719-2.67c0-1.743,0.752-2.703,1.807-2.703   C28.116,10.277,28.739,11.253,28.739,12.908z M25.917,12.988c0,1.352,0.416,2.119,1.055,2.119c0.72,0,1.063-0.84,1.063-2.167   c0-1.279-0.328-2.119-1.056-2.119C26.364,10.821,25.917,11.573,25.917,12.988z"/>
	<path d="M29.445,15.146c0-0.295,0.2-0.503,0.479-0.503s0.472,0.208,0.472,0.503c0,0.288-0.184,0.504-0.479,0.504   C29.637,15.65,29.445,15.435,29.445,15.146z"/>
	<path d="M34.011,10.861c-0.144-0.008-0.328,0-0.528,0.032c-1.104,0.184-1.687,0.992-1.807,1.847h0.024   c0.248-0.328,0.679-0.6,1.255-0.6c0.919,0,1.567,0.664,1.567,1.679c0,0.952-0.647,1.831-1.727,1.831   c-1.111,0-1.839-0.863-1.839-2.215c0-1.023,0.368-1.831,0.879-2.343c0.432-0.424,1.007-0.688,1.663-0.768   c0.208-0.032,0.384-0.04,0.512-0.04V10.861z M33.812,13.859c0-0.744-0.424-1.191-1.072-1.191c-0.423,0-0.815,0.264-1.007,0.64   c-0.048,0.08-0.08,0.184-0.08,0.312c0.016,0.855,0.408,1.487,1.144,1.487C33.403,15.107,33.812,14.603,33.812,13.859z"/>
</g>
<g>
	<path d="M1.307,134.36v-2.902h0.584v2.206h1.791v-2.038h0.576v2.038h2.438v0.696H1.307z"/>
	<path d="M4.034,130.696c-0.456,0-0.848,0.009-1.208,0.032v-0.615l0.76-0.024v-0.032c-0.52-0.176-0.848-0.6-0.848-1.071   c0-0.08,0.008-0.136,0.024-0.2h0.664c-0.016,0.072-0.024,0.145-0.024,0.24c0,0.496,0.375,0.848,0.903,0.943   c0.096,0.017,0.208,0.032,0.328,0.032h2.063v0.695H4.034z"/>
	<path d="M6.696,125.978l-0.488,0.056v0.024c0.304,0.216,0.576,0.632,0.576,1.184c0,0.783-0.552,1.183-1.111,1.183   c-0.936,0-1.447-0.831-1.439-2.326h-0.08c-0.32,0-0.896,0.088-0.896,0.879c0,0.36,0.112,0.736,0.288,1.008l-0.464,0.16   c-0.208-0.32-0.344-0.783-0.344-1.271c0-1.184,0.808-1.471,1.583-1.471h1.447c0.336,0,0.664-0.017,0.928-0.064V125.978z    M4.721,126.082c-0.016,0.768,0.12,1.639,0.872,1.639c0.456,0,0.672-0.304,0.672-0.664c0-0.503-0.32-0.823-0.648-0.936   c-0.072-0.023-0.152-0.039-0.224-0.039H4.721z"/>
	<path d="M6.552,121.506c0.096,0.184,0.224,0.592,0.224,1.111c0,1.167-0.792,1.927-1.975,1.927c-1.191,0-2.055-0.815-2.055-2.079   c0-0.416,0.104-0.783,0.2-0.976l0.544,0.16c-0.096,0.168-0.184,0.432-0.184,0.815c0,0.888,0.656,1.367,1.463,1.367   c0.896,0,1.447-0.575,1.447-1.343c0-0.4-0.104-0.664-0.192-0.864L6.552,121.506z"/>
	<path d="M1.715,119.728h1.111v-1.007h0.536v1.007h2.087c0.479,0,0.751-0.136,0.751-0.527c0-0.184-0.024-0.319-0.048-0.407   l0.528-0.032c0.056,0.136,0.096,0.352,0.096,0.623c0,0.328-0.104,0.592-0.296,0.76c-0.208,0.2-0.552,0.272-1.007,0.272H3.362v0.6   H2.826v-0.6H1.899L1.715,119.728z"/>
	<path d="M1.739,117.144c0.24-0.008,0.432,0.168,0.432,0.447c0,0.248-0.192,0.424-0.432,0.424c-0.248,0-0.44-0.184-0.44-0.439   C1.299,117.312,1.491,117.144,1.739,117.144z M6.696,117.927h-3.87v-0.703h3.87V117.927z"/>
	<path d="M4.729,112.553c1.431,0,2.055,0.991,2.055,1.927c0,1.048-0.768,1.855-1.991,1.855c-1.295,0-2.055-0.848-2.055-1.919   C2.738,113.305,3.546,112.553,4.729,112.553z M4.77,115.623c0.847,0,1.487-0.487,1.487-1.175c0-0.672-0.631-1.176-1.503-1.176   c-0.656,0-1.487,0.328-1.487,1.159C3.266,115.264,4.034,115.623,4.77,115.623z"/>
	<path d="M3.874,111.663c-0.4,0-0.728,0.009-1.048,0.032v-0.624l0.64-0.04v-0.016c-0.368-0.191-0.728-0.64-0.728-1.279   c0-0.535,0.32-1.367,1.647-1.367h2.311v0.704H4.465c-0.624,0-1.143,0.231-1.143,0.896c0,0.463,0.328,0.823,0.72,0.943   c0.088,0.031,0.208,0.048,0.328,0.048h2.327v0.703H3.874z"/>
	<path d="M4.729,102.025c1.431,0,2.055,0.991,2.055,1.927c0,1.048-0.768,1.855-1.991,1.855c-1.295,0-2.055-0.848-2.055-1.919   C2.738,102.777,3.546,102.025,4.729,102.025z M4.77,105.096c0.847,0,1.487-0.487,1.487-1.175c0-0.672-0.631-1.176-1.503-1.176   c-0.656,0-1.487,0.328-1.487,1.159C3.266,104.736,4.034,105.096,4.77,105.096z"/>
	<path d="M6.696,101.064H3.362v0.543H2.826v-0.543H2.643c-0.544,0-1.04-0.12-1.352-0.448c-0.256-0.264-0.359-0.615-0.359-0.943   c0-0.248,0.056-0.464,0.112-0.6l0.543,0.096c-0.048,0.104-0.088,0.248-0.088,0.448c0,0.6,0.528,0.751,1.12,0.751h0.208v-0.936   h0.536v0.936h3.334V101.064z"/>
	<path d="M4.09,97.104c-0.496,0-0.896,0.017-1.264,0.032v-0.632l0.664-0.031v-0.017c-0.472-0.288-0.752-0.743-0.752-1.375   c0-0.936,0.792-1.64,1.967-1.64c1.391,0,2.079,0.848,2.079,1.76c0,0.512-0.224,0.959-0.607,1.191v0.016h2.103v0.695H4.09z    M5.121,96.408c0.104,0,0.2-0.016,0.288-0.032c0.487-0.128,0.823-0.552,0.823-1.056c0-0.743-0.607-1.175-1.495-1.175   c-0.775,0-1.439,0.407-1.439,1.151c0,0.479,0.344,0.928,0.872,1.063c0.088,0.023,0.191,0.048,0.288,0.048H5.121z"/>
	<path d="M4.889,92.16c0.952-0.016,1.343-0.623,1.343-1.327c0-0.504-0.088-0.808-0.2-1.071l0.503-0.12   c0.112,0.248,0.24,0.672,0.24,1.287c0,1.191-0.784,1.903-1.951,1.903c-1.167,0-2.087-0.688-2.087-1.815   c0-1.263,1.111-1.599,1.823-1.599c0.144,0,0.256,0.016,0.328,0.023V92.16z M4.386,90.098c-0.448-0.008-1.144,0.184-1.144,0.976   c0,0.711,0.656,1.023,1.144,1.079V90.098z"/>
	<path d="M4.729,85.042c1.431,0,2.055,0.992,2.055,1.927c0,1.047-0.768,1.855-1.991,1.855c-1.295,0-2.055-0.848-2.055-1.919   C2.738,85.794,3.546,85.042,4.729,85.042z M4.77,88.112c0.847,0,1.487-0.487,1.487-1.175c0-0.671-0.631-1.175-1.503-1.175   c-0.656,0-1.487,0.328-1.487,1.159C3.266,87.753,4.034,88.112,4.77,88.112z"/>
	<path d="M4.09,84.153c-0.496,0-0.896,0.016-1.264,0.032v-0.632l0.664-0.032v-0.016c-0.472-0.288-0.752-0.744-0.752-1.375   c0-0.936,0.792-1.639,1.967-1.639c1.391,0,2.079,0.848,2.079,1.759c0,0.512-0.224,0.959-0.607,1.191v0.016h2.103v0.696H4.09z    M5.121,83.457c0.104,0,0.2-0.016,0.288-0.032c0.487-0.128,0.823-0.551,0.823-1.055c0-0.744-0.607-1.175-1.495-1.175   c-0.775,0-1.439,0.408-1.439,1.151c0,0.479,0.344,0.927,0.872,1.063c0.088,0.024,0.191,0.048,0.288,0.048H5.121z"/>
	<path d="M1.02,79.601v-0.704h5.677v0.704H1.02z"/>
	<path d="M4.889,77.321c0.952-0.016,1.343-0.624,1.343-1.327c0-0.504-0.088-0.808-0.2-1.071l0.503-0.12   c0.112,0.248,0.24,0.672,0.24,1.288c0,1.191-0.784,1.903-1.951,1.903c-1.167,0-2.087-0.688-2.087-1.815   c0-1.264,1.111-1.599,1.823-1.599c0.144,0,0.256,0.016,0.328,0.024V77.321z M4.386,75.258c-0.448-0.008-1.144,0.184-1.144,0.976   c0,0.712,0.656,1.023,1.144,1.08V75.258z"/>
	<path d="M2.826,71.729l1.967-0.512c0.432-0.112,0.832-0.216,1.231-0.288v-0.024c-0.392-0.088-0.807-0.216-1.223-0.344L2.826,69.93   v-0.592l1.935-0.6c0.464-0.144,0.872-0.256,1.263-0.344v-0.024c-0.392-0.064-0.799-0.168-1.255-0.296l-1.943-0.552v-0.695   l3.87,1.247v0.64l-1.847,0.592c-0.432,0.136-0.815,0.248-1.271,0.344v0.016c0.464,0.096,0.863,0.216,1.279,0.352l1.839,0.624v0.64   l-3.87,1.167V71.729z"/>
	<path d="M1.02,66.121v-0.704h2.415v-0.016c-0.2-0.112-0.376-0.288-0.496-0.504c-0.12-0.208-0.2-0.456-0.2-0.72   c0-0.52,0.32-1.351,1.655-1.351h2.303v0.704H4.474c-0.624,0-1.151,0.232-1.151,0.896c0,0.456,0.32,0.815,0.704,0.943   c0.096,0.04,0.2,0.048,0.335,0.048h2.335v0.704H1.02z"/>
	<path d="M4.729,58.179c1.431,0,2.055,0.992,2.055,1.927c0,1.047-0.768,1.855-1.991,1.855c-1.295,0-2.055-0.848-2.055-1.919   C2.738,58.931,3.546,58.179,4.729,58.179z M4.77,61.249c0.847,0,1.487-0.487,1.487-1.175c0-0.671-0.631-1.175-1.503-1.175   c-0.656,0-1.487,0.328-1.487,1.159C3.266,60.89,4.034,61.249,4.77,61.249z"/>
	<path d="M1.02,55.593V54.89h2.415v-0.016c-0.2-0.112-0.376-0.288-0.496-0.504c-0.12-0.208-0.2-0.456-0.2-0.719   c0-0.52,0.32-1.352,1.655-1.352h2.303v0.704H4.474c-0.624,0-1.151,0.232-1.151,0.896c0,0.456,0.32,0.815,0.704,0.943   c0.096,0.04,0.2,0.048,0.335,0.048h2.335v0.704H1.02z"/>
	<path d="M6.696,49.01l-0.488,0.056v0.024c0.304,0.216,0.576,0.631,0.576,1.183c0,0.784-0.552,1.184-1.111,1.184   c-0.936,0-1.447-0.832-1.439-2.327h-0.08c-0.32,0-0.896,0.088-0.896,0.879c0,0.36,0.112,0.735,0.288,1.007l-0.464,0.16   c-0.208-0.32-0.344-0.784-0.344-1.271c0-1.183,0.808-1.471,1.583-1.471h1.447c0.336,0,0.664-0.016,0.928-0.064V49.01z    M4.721,49.114c-0.016,0.768,0.12,1.639,0.872,1.639c0.456,0,0.672-0.304,0.672-0.664c0-0.504-0.32-0.824-0.648-0.936   c-0.072-0.024-0.152-0.04-0.224-0.04H4.721z"/>
	<path d="M1.02,43.955h4.677c0.344,0,0.736-0.008,1-0.032v0.632l-0.672,0.032v0.016c0.432,0.216,0.76,0.688,0.76,1.319   c0,0.936-0.792,1.655-1.967,1.655c-1.287,0.008-2.079-0.792-2.079-1.735c0-0.591,0.28-0.991,0.592-1.167v-0.016H1.02V43.955z    M4.401,44.659c-0.088,0-0.208,0.008-0.296,0.032c-0.447,0.104-0.815,0.488-0.815,1.016c0,0.728,0.64,1.159,1.495,1.159   c0.784,0,1.432-0.384,1.432-1.143c0-0.472-0.312-0.904-0.84-1.032c-0.096-0.024-0.192-0.032-0.304-0.032H4.401z"/>
	<path d="M6.696,38.946l-0.488,0.056v0.024c0.304,0.216,0.576,0.632,0.576,1.183c0,0.784-0.552,1.184-1.111,1.184   c-0.936,0-1.447-0.832-1.439-2.327h-0.08c-0.32,0-0.896,0.088-0.896,0.879c0,0.36,0.112,0.736,0.288,1.007l-0.464,0.16   c-0.208-0.32-0.344-0.784-0.344-1.271c0-1.183,0.808-1.471,1.583-1.471h1.447c0.336,0,0.664-0.016,0.928-0.064V38.946z    M4.721,39.05c-0.016,0.768,0.12,1.639,0.872,1.639c0.456,0,0.672-0.304,0.672-0.664c0-0.504-0.32-0.824-0.648-0.936   c-0.072-0.024-0.152-0.04-0.224-0.04H4.721z"/>
	<path d="M16.152,121.746c0.096,0.184,0.224,0.592,0.224,1.111c0,1.167-0.792,1.927-1.975,1.927c-1.191,0-2.055-0.815-2.055-2.079   c0-0.416,0.104-0.783,0.2-0.976l0.544,0.16c-0.096,0.168-0.184,0.432-0.184,0.815c0,0.888,0.656,1.367,1.463,1.367   c0.896,0,1.447-0.575,1.447-1.343c0-0.4-0.104-0.664-0.191-0.864L16.152,121.746z"/>
	<path d="M14.33,117.466c1.431,0,2.055,0.991,2.055,1.927c0,1.048-0.768,1.855-1.991,1.855c-1.295,0-2.055-0.848-2.055-1.919   C12.338,118.218,13.146,117.466,14.33,117.466z M14.37,120.536c0.847,0,1.487-0.487,1.487-1.175c0-0.672-0.631-1.176-1.503-1.176   c-0.656,0-1.487,0.328-1.487,1.159C12.866,120.177,13.634,120.536,14.37,120.536z"/>
	<path d="M10.62,116.576v-0.703h5.677v0.703H10.62z"/>
	<path d="M10.62,114.688v-0.703h5.677v0.703H10.62z"/>
	<path d="M14.489,112.409c0.952-0.016,1.343-0.624,1.343-1.327c0-0.504-0.088-0.808-0.2-1.071l0.504-0.12   c0.112,0.248,0.24,0.672,0.24,1.287c0,1.191-0.784,1.903-1.951,1.903s-2.087-0.688-2.087-1.815c0-1.263,1.112-1.599,1.823-1.599   c0.144,0,0.256,0.016,0.328,0.023V112.409z M13.986,110.347c-0.448-0.008-1.144,0.184-1.144,0.976c0,0.711,0.656,1.023,1.144,1.079   V110.347z"/>
	<path d="M12.427,105.459c0.28,0.016,0.591,0.032,1.063,0.032h2.247c0.887,0,1.431,0.176,1.767,0.552   c0.352,0.376,0.463,0.919,0.463,1.407c0,0.464-0.112,0.976-0.32,1.287l-0.536-0.176c0.16-0.256,0.304-0.655,0.304-1.136   c0-0.72-0.376-1.247-1.352-1.247h-0.432v0.016c0.36,0.216,0.647,0.632,0.647,1.231c0,0.96-0.815,1.647-1.887,1.647   c-1.312,0-2.055-0.855-2.055-1.743c0-0.672,0.352-1.039,0.672-1.207v-0.017l-0.583-0.031V105.459z M13.954,106.187   c-0.12,0-0.224,0.008-0.32,0.04c-0.408,0.128-0.744,0.472-0.744,0.983c0,0.672,0.568,1.151,1.463,1.151   c0.76,0,1.391-0.384,1.391-1.144c0-0.432-0.272-0.823-0.72-0.976c-0.12-0.039-0.256-0.056-0.375-0.056H13.954z"/>
	<path d="M14.489,103.93c0.952-0.016,1.343-0.623,1.343-1.327c0-0.504-0.088-0.808-0.2-1.071l0.504-0.12   c0.112,0.248,0.24,0.672,0.24,1.287c0,1.191-0.784,1.903-1.951,1.903s-2.087-0.688-2.087-1.815c0-1.263,1.112-1.599,1.823-1.599   c0.144,0,0.256,0.016,0.328,0.023V103.93z M13.986,101.867c-0.448-0.008-1.144,0.184-1.144,0.976c0,0.711,0.656,1.023,1.144,1.079   V101.867z"/>
	<path d="M10.62,95.275h4.677c0.344,0,0.736-0.008,1-0.032v0.632l-0.671,0.032v0.016c0.432,0.216,0.759,0.688,0.759,1.319   c0,0.936-0.792,1.655-1.967,1.655c-1.288,0.008-2.079-0.792-2.079-1.735c0-0.592,0.28-0.991,0.592-1.167v-0.017H10.62V95.275z    M14.001,95.979c-0.088,0-0.208,0.009-0.295,0.032c-0.448,0.104-0.816,0.488-0.816,1.016c0,0.728,0.64,1.159,1.495,1.159   c0.784,0,1.431-0.384,1.431-1.144c0-0.472-0.312-0.903-0.839-1.031c-0.096-0.023-0.192-0.032-0.304-0.032H14.001z"/>
	<path d="M14.489,93.714c0.952-0.016,1.343-0.624,1.343-1.327c0-0.504-0.088-0.808-0.2-1.071l0.504-0.12   c0.112,0.248,0.24,0.672,0.24,1.287c0,1.191-0.784,1.903-1.951,1.903s-2.087-0.688-2.087-1.815c0-1.263,1.112-1.599,1.823-1.599   c0.144,0,0.256,0.016,0.328,0.023V93.714z M13.986,91.651c-0.448-0.008-1.144,0.184-1.144,0.976c0,0.711,0.656,1.023,1.144,1.079   V91.651z"/>
	<path d="M12.427,86.764c0.28,0.016,0.591,0.032,1.063,0.032h2.247c0.887,0,1.431,0.176,1.767,0.552   c0.352,0.376,0.463,0.919,0.463,1.407c0,0.464-0.112,0.976-0.32,1.287l-0.536-0.176c0.16-0.256,0.304-0.655,0.304-1.136   c0-0.72-0.376-1.247-1.352-1.247h-0.432v0.016c0.36,0.216,0.647,0.632,0.647,1.231c0,0.96-0.815,1.647-1.887,1.647   c-1.312,0-2.055-0.855-2.055-1.743c0-0.672,0.352-1.039,0.672-1.208v-0.016l-0.583-0.032V86.764z M13.954,87.491   c-0.12,0-0.224,0.008-0.32,0.04c-0.408,0.128-0.744,0.472-0.744,0.983c0,0.672,0.568,1.151,1.463,1.151   c0.76,0,1.391-0.384,1.391-1.144c0-0.432-0.272-0.823-0.72-0.976c-0.12-0.039-0.256-0.056-0.375-0.056H13.954z"/>
	<path d="M13.634,85.674c-0.456,0-0.848,0.008-1.207,0.032V85.09l0.759-0.024v-0.032c-0.52-0.176-0.848-0.6-0.848-1.072   c0-0.08,0.008-0.136,0.024-0.2h0.664c-0.016,0.072-0.024,0.144-0.024,0.24c0,0.496,0.376,0.848,0.904,0.943   c0.096,0.016,0.208,0.032,0.328,0.032h2.063v0.696H13.634z"/>
	<path d="M14.489,82.746c0.952-0.016,1.343-0.624,1.343-1.327c0-0.504-0.088-0.808-0.2-1.071l0.504-0.12   c0.112,0.248,0.24,0.672,0.24,1.287c0,1.191-0.784,1.903-1.951,1.903s-2.087-0.688-2.087-1.815c0-1.264,1.112-1.599,1.823-1.599   c0.144,0,0.256,0.016,0.328,0.024V82.746z M13.986,80.684c-0.448-0.008-1.144,0.184-1.144,0.975c0,0.712,0.656,1.023,1.144,1.08   V80.684z"/>
	<path d="M14.489,78.738c0.952-0.016,1.343-0.624,1.343-1.327c0-0.504-0.088-0.808-0.2-1.071l0.504-0.12   c0.112,0.248,0.24,0.672,0.24,1.287c0,1.191-0.784,1.903-1.951,1.903s-2.087-0.688-2.087-1.815c0-1.264,1.112-1.599,1.823-1.599   c0.144,0,0.256,0.016,0.328,0.024V78.738z M13.986,76.676c-0.448-0.008-1.144,0.184-1.144,0.975c0,0.712,0.656,1.023,1.144,1.08   V76.676z"/>
	<path d="M14.33,69.924c1.431,0,2.055,0.992,2.055,1.927c0,1.047-0.768,1.855-1.991,1.855c-1.295,0-2.055-0.848-2.055-1.919   C12.338,70.676,13.146,69.924,14.33,69.924z M14.37,72.995c0.847,0,1.487-0.488,1.487-1.175c0-0.671-0.631-1.175-1.503-1.175   c-0.656,0-1.487,0.328-1.487,1.16C12.866,72.635,13.634,72.995,14.37,72.995z"/>
	<path d="M13.634,69.035c-0.456,0-0.848,0.008-1.207,0.032v-0.616l0.759-0.024v-0.032c-0.52-0.176-0.848-0.6-0.848-1.072   c0-0.08,0.008-0.136,0.024-0.2h0.664c-0.016,0.072-0.024,0.144-0.024,0.24c0,0.496,0.376,0.848,0.904,0.943   c0.096,0.016,0.208,0.032,0.328,0.032h2.063v0.696H13.634z"/>
	<path d="M13.474,64.723c-0.4,0-0.728,0.008-1.047,0.032v-0.616l0.624-0.032v-0.024c-0.368-0.216-0.712-0.576-0.712-1.215   c0-0.528,0.32-0.928,0.776-1.096v-0.016c-0.216-0.12-0.384-0.271-0.504-0.432c-0.176-0.232-0.272-0.488-0.272-0.855   c0-0.512,0.336-1.271,1.679-1.271h2.279v0.688h-2.191c-0.744,0-1.191,0.272-1.191,0.839c0,0.4,0.296,0.712,0.64,0.832   c0.096,0.032,0.224,0.056,0.352,0.056h2.391V62.3h-2.319c-0.616,0-1.063,0.272-1.063,0.808c0,0.439,0.352,0.76,0.704,0.872   c0.104,0.04,0.224,0.056,0.344,0.056h2.334v0.688H13.474z"/>
	<path d="M14.33,54.548c1.431,0,2.055,0.992,2.055,1.927c0,1.047-0.768,1.855-1.991,1.855c-1.295,0-2.055-0.848-2.055-1.919   C12.338,55.3,13.146,54.548,14.33,54.548z M14.37,57.619c0.847,0,1.487-0.488,1.487-1.175c0-0.671-0.631-1.175-1.503-1.175   c-0.656,0-1.487,0.328-1.487,1.16C12.866,57.259,13.634,57.619,14.37,57.619z"/>
	<path d="M13.634,53.659c-0.456,0-0.848,0.008-1.207,0.032v-0.616l0.759-0.024v-0.032c-0.52-0.176-0.848-0.6-0.848-1.072   c0-0.08,0.008-0.136,0.024-0.2h0.664c-0.016,0.072-0.024,0.144-0.024,0.24c0,0.496,0.376,0.848,0.904,0.943   c0.096,0.016,0.208,0.032,0.328,0.032h2.063v0.696H13.634z"/>
	<path d="M14.489,50.73c0.952-0.016,1.343-0.624,1.343-1.327c0-0.504-0.088-0.808-0.2-1.071l0.504-0.12   c0.112,0.248,0.24,0.672,0.24,1.287c0,1.191-0.784,1.903-1.951,1.903s-2.087-0.688-2.087-1.815c0-1.264,1.112-1.599,1.823-1.599   c0.144,0,0.256,0.016,0.328,0.024V50.73z M13.986,48.668c-0.448-0.008-1.144,0.184-1.144,0.975c0,0.712,0.656,1.023,1.144,1.08   V48.668z"/>
</g>
<g>
	
		<rect x="249.231" y="67.063" fill="#999999" stroke="#000000" stroke-width="0.5" stroke-miterlimit="10" width="6.745" height="6.353"/>
	
		<rect x="249.231" y="90.508" fill="none" stroke="#000000" stroke-width="0.5" stroke-miterlimit="10" width="6.745" height="6.354"/>
	
		<rect x="249.231" y="43.618" fill="#CCCCCC" stroke="#000000" stroke-width="0.5" stroke-miterlimit="10" width="6.745" height="6.353"/>
	<g>
		<path d="M259.453,43.994h0.697v4.814h2.308v0.585h-3.005V43.994z"/>
		<path d="M266.604,47.422c0,1.434-0.993,2.059-1.931,2.059c-1.05,0-1.858-0.769-1.858-1.995c0-1.298,0.849-2.059,1.922-2.059    C265.852,45.428,266.604,46.237,266.604,47.422z M263.528,47.462c0,0.849,0.488,1.49,1.178,1.49c0.673,0,1.178-0.633,1.178-1.506    c0-0.657-0.329-1.49-1.162-1.49S263.528,46.726,263.528,47.462z"/>
		<path d="M267.715,45.516l0.513,1.971c0.112,0.433,0.216,0.833,0.288,1.234h0.024c0.088-0.393,0.216-0.809,0.345-1.226l0.633-1.979    h0.593l0.601,1.939c0.145,0.464,0.256,0.873,0.345,1.266h0.023c0.064-0.393,0.169-0.801,0.297-1.258l0.553-1.947h0.696    l-1.249,3.877h-0.641l-0.594-1.851c-0.136-0.433-0.248-0.817-0.344-1.273h-0.017c-0.096,0.464-0.216,0.865-0.353,1.282    l-0.624,1.842h-0.642l-1.169-3.877H267.715z"/>
		<path d="M273.639,47.583c0.016,0.954,0.625,1.346,1.329,1.346c0.505,0,0.81-0.088,1.074-0.2l0.12,0.505    c-0.249,0.112-0.673,0.24-1.29,0.24c-1.193,0-1.906-0.785-1.906-1.955s0.688-2.091,1.818-2.091c1.266,0,1.602,1.113,1.602,1.827    c0,0.144-0.016,0.256-0.023,0.328H273.639z M275.705,47.078c0.008-0.449-0.184-1.146-0.978-1.146    c-0.713,0-1.025,0.657-1.081,1.146H275.705z"/>
		<path d="M277.16,48.672c0.209,0.136,0.577,0.281,0.93,0.281c0.513,0,0.753-0.256,0.753-0.577c0-0.336-0.2-0.521-0.721-0.713    c-0.697-0.248-1.025-0.633-1.025-1.097c0-0.625,0.505-1.138,1.338-1.138c0.393,0,0.736,0.112,0.953,0.24l-0.177,0.513    c-0.151-0.096-0.433-0.224-0.793-0.224c-0.416,0-0.648,0.24-0.648,0.529c0,0.32,0.232,0.464,0.737,0.657    c0.673,0.256,1.017,0.593,1.017,1.169c0,0.681-0.528,1.162-1.449,1.162c-0.425,0-0.817-0.104-1.09-0.264L277.16,48.672z"/>
		<path d="M281.275,44.402v1.113h1.01v0.537h-1.01v2.091c0,0.48,0.137,0.753,0.529,0.753c0.184,0,0.32-0.024,0.408-0.048    l0.032,0.529c-0.137,0.056-0.353,0.096-0.625,0.096c-0.328,0-0.593-0.104-0.761-0.296c-0.2-0.208-0.272-0.553-0.272-1.009v-2.115    h-0.601v-0.537h0.601v-0.929L281.275,44.402z"/>
		<path d="M259.43,55.639c0-0.497-0.017-0.897-0.032-1.266h0.633l0.032,0.665h0.016c0.289-0.473,0.745-0.753,1.378-0.753    c0.938,0,1.643,0.793,1.643,1.971c0,1.394-0.85,2.083-1.763,2.083c-0.513,0-0.961-0.224-1.193-0.608h-0.017v2.106h-0.696V55.639z     M260.126,56.672c0,0.104,0.017,0.2,0.032,0.289c0.129,0.488,0.553,0.825,1.058,0.825c0.745,0,1.178-0.608,1.178-1.498    c0-0.777-0.408-1.442-1.153-1.442c-0.48,0-0.93,0.345-1.065,0.874c-0.024,0.088-0.049,0.192-0.049,0.288V56.672z"/>
		<path d="M267.493,56.28c0,1.434-0.993,2.059-1.931,2.059c-1.05,0-1.858-0.769-1.858-1.995c0-1.298,0.849-2.059,1.922-2.059    C266.74,54.285,267.493,55.094,267.493,56.28z M264.417,56.32c0,0.849,0.488,1.49,1.178,1.49c0.673,0,1.178-0.633,1.178-1.506    c0-0.657-0.329-1.49-1.162-1.49S264.417,55.583,264.417,56.32z"/>
		<path d="M268.379,52.563h0.705v5.688h-0.705V52.563z"/>
		<path d="M270.523,54.373l0.85,2.292c0.088,0.256,0.185,0.561,0.248,0.793h0.017c0.071-0.232,0.151-0.529,0.248-0.809l0.769-2.275    h0.745l-1.058,2.764c-0.504,1.33-0.849,2.01-1.329,2.427c-0.345,0.304-0.689,0.424-0.865,0.457l-0.177-0.593    c0.177-0.056,0.409-0.168,0.617-0.345c0.192-0.152,0.433-0.424,0.593-0.785c0.032-0.072,0.056-0.128,0.056-0.168    s-0.016-0.096-0.048-0.184l-1.434-3.573H270.523z"/>
		<path d="M277.299,54.373c-0.017,0.281-0.032,0.593-0.032,1.065v2.251c0,0.889-0.177,1.434-0.553,1.77    c-0.377,0.353-0.922,0.465-1.41,0.465c-0.465,0-0.978-0.112-1.29-0.32l0.177-0.537c0.256,0.161,0.656,0.305,1.138,0.305    c0.721,0,1.249-0.376,1.249-1.354v-0.433h-0.016c-0.217,0.361-0.633,0.649-1.233,0.649c-0.962,0-1.65-0.817-1.65-1.891    c0-1.313,0.856-2.059,1.746-2.059c0.673,0,1.041,0.353,1.21,0.673h0.016l0.032-0.585H277.299z M276.569,55.903    c0-0.12-0.008-0.224-0.04-0.32c-0.128-0.409-0.473-0.745-0.985-0.745c-0.673,0-1.153,0.569-1.153,1.466    c0,0.761,0.385,1.394,1.146,1.394c0.433,0,0.825-0.272,0.978-0.721c0.04-0.12,0.056-0.256,0.056-0.376V55.903z"/>
		<path d="M278.825,56.44c0.016,0.954,0.625,1.346,1.33,1.346c0.504,0,0.809-0.088,1.073-0.2l0.12,0.505    c-0.249,0.112-0.673,0.24-1.29,0.24c-1.193,0-1.906-0.785-1.906-1.955s0.688-2.091,1.818-2.091c1.266,0,1.602,1.113,1.602,1.827    c0,0.144-0.016,0.256-0.023,0.328H278.825z M280.892,55.936c0.008-0.449-0.184-1.146-0.978-1.146    c-0.713,0-1.025,0.657-1.081,1.146H280.892z"/>
		<path d="M282.443,55.423c0-0.401-0.008-0.729-0.032-1.05h0.625l0.04,0.641h0.016c0.192-0.369,0.642-0.729,1.282-0.729    c0.536,0,1.37,0.32,1.37,1.65v2.315h-0.705v-2.235c0-0.625-0.232-1.146-0.897-1.146c-0.465,0-0.825,0.328-0.945,0.721    c-0.032,0.088-0.048,0.208-0.048,0.329v2.331h-0.705V55.423z"/>
		<path d="M287.671,53.284c0.008,0.24-0.169,0.433-0.449,0.433c-0.248,0-0.424-0.192-0.424-0.433c0-0.248,0.184-0.44,0.44-0.44    C287.502,52.843,287.671,53.036,287.671,53.284z M286.886,58.25v-3.877h0.705v3.877H286.886z"/>
		<path d="M291.522,58.106c-0.185,0.096-0.593,0.224-1.113,0.224c-1.17,0-1.931-0.793-1.931-1.979c0-1.194,0.816-2.059,2.083-2.059    c0.416,0,0.784,0.104,0.977,0.2l-0.16,0.545c-0.168-0.096-0.433-0.184-0.816-0.184c-0.89,0-1.37,0.657-1.37,1.466    c0,0.897,0.576,1.45,1.346,1.45c0.4,0,0.665-0.104,0.865-0.192L291.522,58.106z"/>
		<path d="M294.827,53.284c0.008,0.24-0.169,0.433-0.449,0.433c-0.248,0-0.424-0.192-0.424-0.433c0-0.248,0.184-0.44,0.44-0.44    C294.658,52.843,294.827,53.036,294.827,53.284z M294.042,58.25v-3.877h0.705v3.877H294.042z"/>
		<path d="M295.915,55.423c0-0.401-0.008-0.729-0.032-1.05h0.625l0.04,0.641h0.016c0.192-0.369,0.642-0.729,1.282-0.729    c0.536,0,1.37,0.32,1.37,1.65v2.315h-0.705v-2.235c0-0.625-0.232-1.146-0.897-1.146c-0.465,0-0.825,0.328-0.945,0.721    c-0.032,0.088-0.048,0.208-0.048,0.329v2.331h-0.705V55.423z"/>
		<path d="M303.706,52.563v4.686c0,0.345,0.008,0.737,0.032,1.001h-0.634l-0.031-0.673h-0.017c-0.216,0.433-0.688,0.761-1.321,0.761    c-0.938,0-1.658-0.793-1.658-1.97c-0.008-1.29,0.793-2.083,1.738-2.083c0.593,0,0.993,0.28,1.169,0.593h0.017v-2.315H303.706z     M303.001,55.951c0-0.088-0.008-0.208-0.032-0.296c-0.104-0.448-0.488-0.817-1.018-0.817c-0.729,0-1.161,0.641-1.161,1.498    c0,0.785,0.385,1.434,1.146,1.434c0.473,0,0.905-0.312,1.033-0.841c0.024-0.096,0.032-0.192,0.032-0.304V55.951z"/>
		<path d="M305.265,56.44c0.016,0.954,0.625,1.346,1.33,1.346c0.504,0,0.809-0.088,1.073-0.2l0.12,0.505    c-0.249,0.112-0.673,0.24-1.29,0.24c-1.193,0-1.906-0.785-1.906-1.955s0.688-2.091,1.818-2.091c1.266,0,1.602,1.113,1.602,1.827    c0,0.144-0.016,0.256-0.023,0.328H305.265z M307.331,55.936c0.008-0.449-0.184-1.146-0.978-1.146    c-0.713,0-1.025,0.657-1.081,1.146H307.331z"/>
		<path d="M309.188,54.373l0.553,0.833c0.145,0.216,0.265,0.417,0.393,0.633h0.024c0.128-0.232,0.256-0.433,0.384-0.641l0.545-0.825    h0.762l-1.322,1.875l1.362,2.003h-0.802l-0.568-0.873c-0.152-0.225-0.28-0.441-0.417-0.673h-0.016    c-0.128,0.232-0.265,0.44-0.408,0.673l-0.562,0.873h-0.776l1.378-1.979l-1.314-1.899H309.188z"/>
	</g>
	<rect x="249.231" y="113.953" stroke="#000000" stroke-width="0.5" stroke-miterlimit="10" width="6.745" height="6.354"/>
	<g>
		<path d="M260.15,114.328v2.259h2.611v-2.259h0.705v5.399h-0.705v-2.531h-2.611v2.531h-0.697v-5.399H260.15z"/>
		<path d="M265.514,114.761c0.008,0.24-0.169,0.433-0.449,0.433c-0.248,0-0.424-0.192-0.424-0.433c0-0.248,0.184-0.44,0.44-0.44    C265.345,114.32,265.514,114.513,265.514,114.761z M264.729,119.728v-3.877h0.705v3.877H264.729z"/>
		<path d="M269.942,115.851c-0.017,0.28-0.032,0.593-0.032,1.065v2.251c0,0.889-0.177,1.434-0.553,1.771    c-0.377,0.353-0.922,0.464-1.41,0.464c-0.465,0-0.978-0.111-1.29-0.32l0.177-0.536c0.256,0.16,0.656,0.304,1.138,0.304    c0.721,0,1.249-0.376,1.249-1.354v-0.433h-0.016c-0.217,0.36-0.633,0.649-1.233,0.649c-0.962,0-1.65-0.817-1.65-1.891    c0-1.314,0.856-2.06,1.746-2.06c0.673,0,1.041,0.353,1.21,0.674h0.016l0.032-0.585H269.942z M269.213,117.38    c0-0.12-0.008-0.224-0.04-0.32c-0.128-0.408-0.473-0.745-0.985-0.745c-0.673,0-1.153,0.569-1.153,1.467    c0,0.761,0.385,1.394,1.146,1.394c0.433,0,0.825-0.272,0.978-0.721c0.04-0.12,0.056-0.257,0.056-0.377V117.38z"/>
		<path d="M271.076,114.04h0.705v2.419h0.016c0.112-0.2,0.288-0.376,0.505-0.496c0.208-0.121,0.456-0.201,0.721-0.201    c0.521,0,1.354,0.321,1.354,1.658v2.308h-0.705v-2.227c0-0.625-0.232-1.154-0.897-1.154c-0.457,0-0.817,0.32-0.945,0.705    c-0.04,0.097-0.048,0.2-0.048,0.337v2.339h-0.705V114.04z"/>
		<path d="M275.911,117.917c0.016,0.953,0.625,1.346,1.33,1.346c0.504,0,0.809-0.088,1.073-0.2l0.12,0.505    c-0.249,0.112-0.673,0.24-1.29,0.24c-1.193,0-1.906-0.785-1.906-1.955c0-1.169,0.688-2.091,1.818-2.091    c1.266,0,1.602,1.114,1.602,1.827c0,0.144-0.016,0.256-0.023,0.328H275.911z M277.978,117.412    c0.008-0.448-0.184-1.146-0.978-1.146c-0.713,0-1.025,0.657-1.081,1.146H277.978z"/>
		<path d="M279.433,119.007c0.209,0.136,0.577,0.28,0.93,0.28c0.513,0,0.753-0.257,0.753-0.577c0-0.336-0.2-0.521-0.721-0.713    c-0.697-0.248-1.025-0.633-1.025-1.098c0-0.625,0.505-1.138,1.338-1.138c0.393,0,0.736,0.112,0.953,0.241l-0.177,0.513    c-0.151-0.097-0.433-0.225-0.793-0.225c-0.416,0-0.648,0.24-0.648,0.528c0,0.32,0.232,0.465,0.737,0.657    c0.673,0.256,1.017,0.593,1.017,1.17c0,0.681-0.528,1.161-1.449,1.161c-0.425,0-0.817-0.104-1.09-0.265L279.433,119.007z"/>
		<path d="M283.548,114.736v1.114h1.01v0.536h-1.01v2.091c0,0.481,0.137,0.753,0.529,0.753c0.184,0,0.32-0.023,0.408-0.048    l0.032,0.529c-0.137,0.056-0.353,0.096-0.625,0.096c-0.328,0-0.593-0.104-0.761-0.296c-0.2-0.209-0.272-0.553-0.272-1.01v-2.115    h-0.601v-0.536h0.601v-0.93L283.548,114.736z"/>
		<path d="M259.43,125.974c0-0.497-0.017-0.897-0.032-1.266h0.633l0.032,0.665h0.016c0.289-0.473,0.745-0.754,1.378-0.754    c0.938,0,1.643,0.794,1.643,1.971c0,1.395-0.85,2.083-1.763,2.083c-0.513,0-0.961-0.224-1.193-0.608h-0.017v2.106h-0.696V125.974z     M260.126,127.007c0,0.104,0.017,0.2,0.032,0.288c0.129,0.489,0.553,0.825,1.058,0.825c0.745,0,1.178-0.608,1.178-1.498    c0-0.776-0.408-1.441-1.153-1.441c-0.48,0-0.93,0.344-1.065,0.873c-0.024,0.088-0.049,0.192-0.049,0.288V127.007z"/>
		<path d="M267.493,126.614c0,1.434-0.993,2.059-1.931,2.059c-1.05,0-1.858-0.769-1.858-1.994c0-1.298,0.849-2.06,1.922-2.06    C266.74,124.619,267.493,125.429,267.493,126.614z M264.417,126.654c0,0.85,0.488,1.49,1.178,1.49    c0.673,0,1.178-0.633,1.178-1.506c0-0.657-0.329-1.49-1.162-1.49S264.417,125.917,264.417,126.654z"/>
		<path d="M268.379,122.897h0.705v5.688h-0.705V122.897z"/>
		<path d="M270.523,124.708l0.85,2.291c0.088,0.256,0.185,0.561,0.248,0.793h0.017c0.071-0.232,0.151-0.529,0.248-0.81l0.769-2.274    h0.745l-1.058,2.764c-0.504,1.329-0.849,2.011-1.329,2.427c-0.345,0.305-0.689,0.425-0.865,0.457l-0.177-0.593    c0.177-0.057,0.409-0.168,0.617-0.345c0.192-0.152,0.433-0.425,0.593-0.785c0.032-0.072,0.056-0.128,0.056-0.168    s-0.016-0.096-0.048-0.185l-1.434-3.572H270.523z"/>
		<path d="M277.299,124.708c-0.017,0.28-0.032,0.593-0.032,1.065v2.251c0,0.889-0.177,1.434-0.553,1.771    c-0.377,0.353-0.922,0.464-1.41,0.464c-0.465,0-0.978-0.111-1.29-0.32l0.177-0.536c0.256,0.16,0.656,0.304,1.138,0.304    c0.721,0,1.249-0.376,1.249-1.354v-0.433h-0.016c-0.217,0.36-0.633,0.649-1.233,0.649c-0.962,0-1.65-0.817-1.65-1.891    c0-1.314,0.856-2.06,1.746-2.06c0.673,0,1.041,0.353,1.21,0.674h0.016l0.032-0.585H277.299z M276.569,126.237    c0-0.12-0.008-0.224-0.04-0.32c-0.128-0.408-0.473-0.745-0.985-0.745c-0.673,0-1.153,0.569-1.153,1.467    c0,0.761,0.385,1.394,1.146,1.394c0.433,0,0.825-0.272,0.978-0.721c0.04-0.12,0.056-0.257,0.056-0.377V126.237z"/>
		<path d="M278.825,126.774c0.016,0.953,0.625,1.346,1.33,1.346c0.504,0,0.809-0.088,1.073-0.2l0.12,0.505    c-0.249,0.112-0.673,0.24-1.29,0.24c-1.193,0-1.906-0.785-1.906-1.955c0-1.169,0.688-2.091,1.818-2.091    c1.266,0,1.602,1.114,1.602,1.827c0,0.144-0.016,0.256-0.023,0.328H278.825z M280.892,126.27c0.008-0.448-0.184-1.146-0.978-1.146    c-0.713,0-1.025,0.657-1.081,1.146H280.892z"/>
		<path d="M282.443,125.757c0-0.4-0.008-0.729-0.032-1.049h0.625l0.04,0.641h0.016c0.192-0.368,0.642-0.729,1.282-0.729    c0.536,0,1.37,0.321,1.37,1.65v2.315h-0.705v-2.235c0-0.625-0.232-1.146-0.897-1.146c-0.465,0-0.825,0.329-0.945,0.722    c-0.032,0.088-0.048,0.208-0.048,0.328v2.331h-0.705V125.757z"/>
		<path d="M287.671,123.618c0.008,0.24-0.169,0.433-0.449,0.433c-0.248,0-0.424-0.192-0.424-0.433c0-0.248,0.184-0.44,0.44-0.44    C287.502,123.178,287.671,123.37,287.671,123.618z M286.886,128.585v-3.877h0.705v3.877H286.886z"/>
		<path d="M291.522,128.44c-0.185,0.097-0.593,0.225-1.113,0.225c-1.17,0-1.931-0.793-1.931-1.979c0-1.193,0.816-2.059,2.083-2.059    c0.416,0,0.784,0.104,0.977,0.2l-0.16,0.545c-0.168-0.097-0.433-0.185-0.816-0.185c-0.89,0-1.37,0.657-1.37,1.466    c0,0.897,0.576,1.45,1.346,1.45c0.4,0,0.665-0.104,0.865-0.192L291.522,128.44z"/>
		<path d="M294.827,123.618c0.008,0.24-0.169,0.433-0.449,0.433c-0.248,0-0.424-0.192-0.424-0.433c0-0.248,0.184-0.44,0.44-0.44    C294.658,123.178,294.827,123.37,294.827,123.618z M294.042,128.585v-3.877h0.705v3.877H294.042z"/>
		<path d="M295.915,125.757c0-0.4-0.008-0.729-0.032-1.049h0.625l0.04,0.641h0.016c0.192-0.368,0.642-0.729,1.282-0.729    c0.536,0,1.37,0.321,1.37,1.65v2.315h-0.705v-2.235c0-0.625-0.232-1.146-0.897-1.146c-0.465,0-0.825,0.329-0.945,0.722    c-0.032,0.088-0.048,0.208-0.048,0.328v2.331h-0.705V125.757z"/>
		<path d="M303.706,122.897v4.687c0,0.344,0.008,0.736,0.032,1.001h-0.634l-0.031-0.673h-0.017    c-0.216,0.433-0.688,0.761-1.321,0.761c-0.938,0-1.658-0.793-1.658-1.971c-0.008-1.289,0.793-2.083,1.738-2.083    c0.593,0,0.993,0.281,1.169,0.593h0.017v-2.314H303.706z M303.001,126.286c0-0.089-0.008-0.209-0.032-0.297    c-0.104-0.448-0.488-0.817-1.018-0.817c-0.729,0-1.161,0.642-1.161,1.498c0,0.785,0.385,1.435,1.146,1.435    c0.473,0,0.905-0.312,1.033-0.842c0.024-0.096,0.032-0.191,0.032-0.304V126.286z"/>
		<path d="M305.265,126.774c0.016,0.953,0.625,1.346,1.33,1.346c0.504,0,0.809-0.088,1.073-0.2l0.12,0.505    c-0.249,0.112-0.673,0.24-1.29,0.24c-1.193,0-1.906-0.785-1.906-1.955c0-1.169,0.688-2.091,1.818-2.091    c1.266,0,1.602,1.114,1.602,1.827c0,0.144-0.016,0.256-0.023,0.328H305.265z M307.331,126.27c0.008-0.448-0.184-1.146-0.978-1.146    c-0.713,0-1.025,0.657-1.081,1.146H307.331z"/>
		<path d="M309.188,124.708l0.553,0.833c0.145,0.216,0.265,0.416,0.393,0.633h0.024c0.128-0.232,0.256-0.433,0.384-0.641    l0.545-0.825h0.762l-1.322,1.874l1.362,2.003h-0.802l-0.568-0.873c-0.152-0.225-0.28-0.44-0.417-0.673h-0.016    c-0.128,0.232-0.265,0.44-0.408,0.673l-0.562,0.873h-0.776l1.378-1.979l-1.314-1.898H309.188z"/>
	</g>
</g>
<g>
	<path d="M28.739,61.859c0,1.767-0.656,2.743-1.807,2.743c-1.015,0-1.703-0.952-1.719-2.67c0-1.743,0.752-2.703,1.807-2.703   C28.116,59.229,28.739,60.205,28.739,61.859z M25.917,61.939c0,1.352,0.416,2.119,1.055,2.119c0.72,0,1.063-0.84,1.063-2.167   c0-1.279-0.328-2.119-1.056-2.119C26.364,59.773,25.917,60.524,25.917,61.939z"/>
	<path d="M29.445,64.099c0-0.296,0.2-0.504,0.479-0.504s0.472,0.208,0.472,0.504c0,0.288-0.184,0.503-0.479,0.503   C29.637,64.602,29.445,64.386,29.445,64.099z"/>
	<path d="M33.22,64.514v-1.415h-2.415v-0.464l2.318-3.318h0.76v3.23h0.728v0.552h-0.728v1.415H33.22z M33.22,62.547v-1.735   c0-0.271,0.008-0.543,0.024-0.815H33.22c-0.16,0.304-0.288,0.528-0.432,0.768l-1.271,1.767v0.016H33.22z"/>
</g>
<g>
	<path d="M28.739,110.811c0,1.767-0.656,2.742-1.807,2.742c-1.015,0-1.703-0.951-1.719-2.671c0-1.742,0.752-2.702,1.807-2.702   C28.116,108.18,28.739,109.155,28.739,110.811z M25.917,110.891c0,1.351,0.416,2.118,1.055,2.118c0.72,0,1.063-0.839,1.063-2.167   c0-1.279-0.328-2.118-1.056-2.118C26.364,108.724,25.917,109.475,25.917,110.891z"/>
	<path d="M29.445,113.049c0-0.296,0.2-0.504,0.479-0.504s0.472,0.208,0.472,0.504c0,0.288-0.184,0.504-0.479,0.504   C29.637,113.553,29.445,113.337,29.445,113.049z"/>
	<path d="M31.045,113.465v-0.432l0.552-0.536c1.327-1.263,1.927-1.935,1.935-2.718c0-0.528-0.256-1.016-1.031-1.016   c-0.472,0-0.863,0.239-1.104,0.439l-0.224-0.496c0.36-0.304,0.872-0.527,1.471-0.527c1.119,0,1.591,0.768,1.591,1.512   c0,0.959-0.696,1.734-1.791,2.79l-0.416,0.384v0.016h2.335v0.584H31.045z"/>
</g>
<g>
	<path d="M28.739,159.763c0,1.767-0.656,2.742-1.807,2.742c-1.015,0-1.703-0.951-1.719-2.671c0-1.742,0.752-2.702,1.807-2.702   C28.116,157.132,28.739,158.107,28.739,159.763z M25.917,159.843c0,1.351,0.416,2.118,1.055,2.118c0.72,0,1.063-0.839,1.063-2.166   c0-1.279-0.328-2.119-1.056-2.119C26.364,157.676,25.917,158.427,25.917,159.843z"/>
	<path d="M29.445,162.001c0-0.296,0.2-0.504,0.479-0.504s0.472,0.208,0.472,0.504c0,0.288-0.184,0.504-0.479,0.504   C29.637,162.505,29.445,162.289,29.445,162.001z"/>
	<path d="M34.499,159.763c0,1.767-0.656,2.742-1.807,2.742c-1.015,0-1.703-0.951-1.719-2.671c0-1.742,0.752-2.702,1.807-2.702   C33.875,157.132,34.499,158.107,34.499,159.763z M31.677,159.843c0,1.351,0.416,2.118,1.055,2.118c0.72,0,1.063-0.839,1.063-2.166   c0-1.279-0.328-2.119-1.056-2.119C32.124,157.676,31.677,158.427,31.677,159.843z"/>
</g>
<g>
	<path d="M55.792,164.08h0.697v4.814h2.307v0.585h-3.004V164.08z"/>
	<path d="M62.943,167.509c0,1.434-0.994,2.059-1.931,2.059c-1.05,0-1.859-0.769-1.859-1.994c0-1.298,0.849-2.06,1.923-2.06   C62.189,165.514,62.943,166.323,62.943,167.509z M59.867,167.549c0,0.85,0.488,1.49,1.177,1.49c0.673,0,1.178-0.633,1.178-1.506   c0-0.657-0.329-1.49-1.162-1.49S59.867,166.812,59.867,167.549z"/>
	<path d="M64.053,165.603l0.513,1.971c0.112,0.433,0.216,0.833,0.289,1.233h0.024c0.088-0.393,0.216-0.81,0.344-1.226l0.633-1.979   h0.593l0.601,1.938c0.144,0.465,0.256,0.873,0.344,1.266h0.024c0.064-0.393,0.168-0.801,0.296-1.258l0.553-1.946h0.697l-1.25,3.877   h-0.641l-0.593-1.851c-0.136-0.433-0.249-0.817-0.345-1.273H66.12c-0.096,0.465-0.216,0.865-0.353,1.281l-0.625,1.843h-0.641   l-1.17-3.877H64.053z"/>
	<path d="M69.977,167.669c0.016,0.953,0.625,1.346,1.33,1.346c0.505,0,0.809-0.088,1.073-0.2l0.121,0.505   c-0.249,0.112-0.673,0.24-1.29,0.24c-1.193,0-1.907-0.785-1.907-1.955c0-1.169,0.689-2.091,1.819-2.091   c1.266,0,1.602,1.114,1.602,1.827c0,0.144-0.016,0.256-0.024,0.328H69.977z M72.043,167.164c0.008-0.448-0.184-1.146-0.977-1.146   c-0.713,0-1.025,0.657-1.082,1.146H72.043z"/>
	<path d="M73.498,168.759c0.208,0.136,0.577,0.28,0.929,0.28c0.513,0,0.753-0.257,0.753-0.577c0-0.336-0.2-0.521-0.721-0.713   c-0.697-0.248-1.025-0.633-1.025-1.098c0-0.625,0.504-1.138,1.337-1.138c0.393,0,0.737,0.112,0.954,0.241l-0.176,0.513   c-0.152-0.097-0.433-0.225-0.793-0.225c-0.417,0-0.649,0.24-0.649,0.528c0,0.32,0.232,0.465,0.737,0.657   c0.673,0.256,1.018,0.593,1.018,1.17c0,0.681-0.529,1.161-1.45,1.161c-0.424,0-0.817-0.104-1.089-0.265L73.498,168.759z"/>
	<path d="M77.613,164.488v1.114h1.009v0.536h-1.009v2.091c0,0.481,0.136,0.753,0.529,0.753c0.184,0,0.32-0.023,0.408-0.048   l0.032,0.529c-0.136,0.056-0.353,0.096-0.625,0.096c-0.328,0-0.593-0.104-0.761-0.296c-0.201-0.209-0.272-0.553-0.272-1.01v-2.115   h-0.601v-0.536h0.601v-0.93L77.613,164.488z"/>
	<path d="M55.475,178.337v-3.341h-0.544v-0.536h0.544v-0.185c0-0.545,0.12-1.041,0.449-1.354c0.264-0.257,0.617-0.36,0.945-0.36   c0.249,0,0.465,0.056,0.601,0.111l-0.096,0.545c-0.104-0.048-0.249-0.088-0.449-0.088c-0.601,0-0.753,0.528-0.753,1.121v0.209   h0.937v0.536h-0.937v3.341H55.475z"/>
	<path d="M59.888,178.337l-0.056-0.488h-0.024c-0.216,0.304-0.633,0.576-1.186,0.576c-0.785,0-1.186-0.553-1.186-1.113   c0-0.938,0.833-1.45,2.331-1.442v-0.08c0-0.32-0.088-0.896-0.881-0.896c-0.361,0-0.737,0.111-1.009,0.288l-0.161-0.465   c0.321-0.208,0.785-0.345,1.274-0.345c1.186,0,1.474,0.81,1.474,1.587v1.449c0,0.337,0.016,0.665,0.064,0.93H59.888z    M59.783,176.358c-0.769-0.017-1.642,0.12-1.642,0.873c0,0.457,0.304,0.673,0.665,0.673c0.504,0,0.825-0.32,0.937-0.648   c0.024-0.072,0.04-0.152,0.04-0.225V176.358z"/>
	<path d="M62.416,173.346v1.114h1.009v0.536h-1.009v2.091c0,0.481,0.136,0.753,0.529,0.753c0.184,0,0.32-0.023,0.408-0.048   l0.032,0.529c-0.136,0.056-0.353,0.096-0.625,0.096c-0.328,0-0.593-0.104-0.761-0.296c-0.201-0.209-0.272-0.553-0.272-1.01v-2.115   h-0.601v-0.536h0.601v-0.93L62.416,173.346z"/>
	<path d="M64.216,172.649h0.705v2.419h0.016c0.112-0.2,0.289-0.376,0.505-0.496c0.208-0.121,0.457-0.201,0.721-0.201   c0.521,0,1.354,0.321,1.354,1.658v2.308h-0.705v-2.227c0-0.625-0.232-1.154-0.897-1.154c-0.457,0-0.817,0.32-0.945,0.705   c-0.04,0.097-0.048,0.2-0.048,0.337v2.339h-0.705V172.649z"/>
	<path d="M69.051,176.526c0.016,0.953,0.625,1.346,1.33,1.346c0.505,0,0.809-0.088,1.073-0.2l0.121,0.505   c-0.249,0.112-0.673,0.24-1.29,0.24c-1.193,0-1.907-0.785-1.907-1.955c0-1.169,0.689-2.091,1.819-2.091   c1.266,0,1.602,1.114,1.602,1.827c0,0.144-0.016,0.256-0.024,0.328H69.051z M71.118,176.021c0.008-0.448-0.184-1.146-0.977-1.146   c-0.713,0-1.025,0.657-1.082,1.146H71.118z"/>
	<path d="M72.669,175.669c0-0.456-0.008-0.849-0.032-1.209h0.617l0.024,0.761h0.032c0.176-0.521,0.601-0.85,1.074-0.85   c0.08,0,0.136,0.009,0.2,0.024v0.665c-0.072-0.016-0.145-0.024-0.24-0.024c-0.497,0-0.85,0.377-0.945,0.905   c-0.016,0.097-0.032,0.209-0.032,0.329v2.066h-0.697V175.669z"/>
	<path d="M76.416,172.85c-0.185,0.673-0.529,1.53-0.753,1.898l-0.449,0.056c0.176-0.473,0.384-1.306,0.473-1.882L76.416,172.85z"/>
	<path d="M76.511,177.616c0.208,0.136,0.577,0.28,0.929,0.28c0.513,0,0.753-0.257,0.753-0.577c0-0.336-0.2-0.521-0.721-0.713   c-0.697-0.248-1.025-0.633-1.025-1.098c0-0.625,0.504-1.138,1.337-1.138c0.393,0,0.737,0.112,0.954,0.241l-0.176,0.513   c-0.152-0.097-0.433-0.225-0.793-0.225c-0.417,0-0.649,0.24-0.649,0.528c0,0.32,0.232,0.465,0.737,0.657   c0.673,0.256,1.018,0.593,1.018,1.17c0,0.681-0.529,1.161-1.45,1.161c-0.424,0-0.817-0.104-1.089-0.265L76.511,177.616z"/>
	<path d="M55.908,182.228c0.008,0.24-0.168,0.433-0.448,0.433c-0.249,0-0.425-0.192-0.425-0.433c0-0.248,0.185-0.44,0.441-0.44   C55.74,181.787,55.908,181.979,55.908,182.228z M55.123,187.194v-3.877h0.705v3.877H55.123z"/>
	<path d="M56.996,184.366c0-0.4-0.008-0.729-0.032-1.049h0.625l0.04,0.641h0.016c0.192-0.368,0.641-0.729,1.282-0.729   c0.537,0,1.37,0.321,1.37,1.65v2.315h-0.705v-2.235c0-0.625-0.232-1.146-0.897-1.146c-0.465,0-0.825,0.329-0.945,0.722   c-0.032,0.088-0.048,0.208-0.048,0.328v2.331h-0.705V184.366z"/>
	<path d="M64.202,187.05c-0.185,0.097-0.593,0.225-1.114,0.225c-1.169,0-1.931-0.793-1.931-1.979c0-1.193,0.817-2.059,2.083-2.059   c0.417,0,0.785,0.104,0.978,0.2l-0.16,0.545c-0.168-0.097-0.433-0.185-0.817-0.185c-0.889,0-1.37,0.657-1.37,1.466   c0,0.897,0.577,1.45,1.346,1.45c0.4,0,0.665-0.104,0.865-0.192L64.202,187.05z"/>
	<path d="M68.485,185.224c0,1.434-0.994,2.059-1.931,2.059c-1.05,0-1.859-0.769-1.859-1.994c0-1.298,0.85-2.06,1.923-2.06   C67.732,183.229,68.485,184.038,68.485,185.224z M65.409,185.264c0,0.85,0.488,1.49,1.177,1.49c0.673,0,1.178-0.633,1.178-1.506   c0-0.657-0.329-1.49-1.162-1.49S65.409,184.526,65.409,185.264z"/>
	<path d="M69.371,184.366c0-0.4-0.008-0.729-0.032-1.049h0.617l0.032,0.625h0.024c0.216-0.369,0.577-0.714,1.218-0.714   c0.529,0,0.929,0.321,1.098,0.777h0.016c0.12-0.216,0.272-0.385,0.433-0.505c0.232-0.176,0.489-0.272,0.857-0.272   c0.513,0,1.273,0.337,1.273,1.683v2.283h-0.689v-2.195c0-0.745-0.272-1.193-0.841-1.193c-0.401,0-0.713,0.297-0.833,0.641   c-0.032,0.097-0.056,0.225-0.056,0.353v2.396h-0.689v-2.323c0-0.617-0.272-1.065-0.809-1.065c-0.441,0-0.761,0.353-0.874,0.705   c-0.04,0.104-0.056,0.225-0.056,0.345v2.339h-0.689V184.366z"/>
	<path d="M76.439,185.384c0.016,0.953,0.625,1.346,1.33,1.346c0.505,0,0.809-0.088,1.073-0.2l0.121,0.505   c-0.249,0.112-0.673,0.24-1.29,0.24c-1.193,0-1.907-0.785-1.907-1.955c0-1.169,0.689-2.091,1.819-2.091   c1.266,0,1.602,1.114,1.602,1.827c0,0.144-0.016,0.256-0.024,0.328H76.439z M78.506,184.879c0.008-0.448-0.184-1.146-0.977-1.146   c-0.713,0-1.025,0.657-1.082,1.146H78.506z"/>
</g>
<g>
	<path d="M99.708,169.647v-0.433l0.553-0.537c1.33-1.266,1.931-1.938,1.939-2.724c0-0.528-0.256-1.017-1.034-1.017   c-0.473,0-0.865,0.24-1.105,0.44l-0.224-0.497c0.36-0.305,0.873-0.528,1.474-0.528c1.121,0,1.594,0.769,1.594,1.514   c0,0.962-0.697,1.738-1.794,2.796l-0.417,0.385v0.016h2.339v0.585H99.708z"/>
	<path d="M103.795,165.333c0-0.233-0.005-0.425-0.019-0.611h0.364l0.023,0.373h0.009c0.112-0.215,0.374-0.425,0.747-0.425   c0.312,0,0.798,0.188,0.798,0.962v1.35h-0.411v-1.303c0-0.364-0.135-0.668-0.523-0.668c-0.271,0-0.481,0.191-0.551,0.421   c-0.019,0.051-0.028,0.121-0.028,0.191v1.358h-0.411V165.333z"/>
	<path d="M108.336,163.666v2.731c0,0.201,0.005,0.43,0.019,0.584h-0.369l-0.019-0.393h-0.009c-0.126,0.253-0.402,0.444-0.771,0.444   c-0.546,0-0.967-0.463-0.967-1.149c-0.004-0.751,0.462-1.214,1.013-1.214c0.346,0,0.579,0.164,0.682,0.346h0.009v-1.35H108.336z    M107.926,165.642c0-0.052-0.005-0.122-0.019-0.173c-0.061-0.262-0.285-0.477-0.593-0.477c-0.425,0-0.677,0.374-0.677,0.873   c0,0.458,0.224,0.836,0.668,0.836c0.275,0,0.527-0.182,0.602-0.49c0.014-0.056,0.019-0.112,0.019-0.178V165.642z"/>
	<path d="M110.958,163.96h0.705v5.688h-0.705V163.96z"/>
	<path d="M116.356,167.677c0,1.434-0.994,2.059-1.931,2.059c-1.05,0-1.859-0.769-1.859-1.994c0-1.298,0.85-2.06,1.923-2.06   C115.603,165.682,116.356,166.491,116.356,167.677z M113.28,167.717c0,0.85,0.488,1.49,1.177,1.49c0.673,0,1.178-0.633,1.178-1.506   c0-0.657-0.329-1.49-1.162-1.49S113.28,166.979,113.28,167.717z"/>
	<path d="M117.466,165.771l0.513,1.971c0.112,0.433,0.216,0.833,0.288,1.233h0.024c0.088-0.393,0.216-0.81,0.344-1.226l0.633-1.979   h0.593l0.601,1.938c0.144,0.465,0.256,0.873,0.344,1.266h0.024c0.064-0.393,0.168-0.801,0.297-1.258l0.553-1.946h0.697l-1.25,3.877   h-0.641l-0.593-1.851c-0.136-0.433-0.249-0.817-0.344-1.273h-0.016c-0.096,0.465-0.216,0.865-0.353,1.281l-0.625,1.843h-0.641   l-1.17-3.877H117.466z"/>
	<path d="M123.39,167.837c0.016,0.953,0.625,1.346,1.33,1.346c0.505,0,0.809-0.088,1.073-0.2l0.121,0.505   c-0.249,0.112-0.673,0.24-1.29,0.24c-1.193,0-1.907-0.785-1.907-1.955c0-1.169,0.689-2.091,1.819-2.091   c1.266,0,1.602,1.114,1.602,1.827c0,0.144-0.016,0.256-0.024,0.328H123.39z M125.457,167.332c0.008-0.448-0.184-1.146-0.977-1.146   c-0.713,0-1.025,0.657-1.082,1.146H125.457z"/>
	<path d="M126.912,168.927c0.208,0.136,0.577,0.28,0.929,0.28c0.513,0,0.753-0.257,0.753-0.577c0-0.336-0.2-0.521-0.721-0.713   c-0.697-0.248-1.025-0.633-1.025-1.098c0-0.625,0.504-1.138,1.337-1.138c0.393,0,0.737,0.112,0.954,0.241l-0.176,0.513   c-0.152-0.097-0.433-0.225-0.793-0.225c-0.417,0-0.649,0.24-0.649,0.528c0,0.32,0.232,0.465,0.737,0.657   c0.673,0.256,1.018,0.593,1.018,1.17c0,0.681-0.529,1.161-1.45,1.161c-0.424,0-0.817-0.104-1.089-0.265L126.912,168.927z"/>
	<path d="M131.027,164.656v1.114h1.009v0.536h-1.009v2.091c0,0.481,0.136,0.753,0.529,0.753c0.184,0,0.32-0.023,0.408-0.048   l0.032,0.529c-0.136,0.056-0.353,0.096-0.625,0.096c-0.328,0-0.593-0.104-0.761-0.296c-0.201-0.209-0.272-0.553-0.272-1.01v-2.115   h-0.601v-0.536h0.601v-0.93L131.027,164.656z"/>
	<path d="M104.265,178.505v-3.341h-0.544v-0.536h0.544v-0.185c0-0.545,0.12-1.041,0.449-1.354c0.264-0.257,0.617-0.36,0.945-0.36   c0.249,0,0.465,0.056,0.601,0.111l-0.096,0.545c-0.104-0.048-0.249-0.088-0.449-0.088c-0.601,0-0.753,0.528-0.753,1.121v0.209   h0.937v0.536h-0.937v3.341H104.265z"/>
	<path d="M108.677,178.505l-0.056-0.488h-0.024c-0.216,0.304-0.633,0.576-1.186,0.576c-0.785,0-1.186-0.553-1.186-1.113   c0-0.938,0.833-1.45,2.331-1.442v-0.08c0-0.32-0.088-0.896-0.881-0.896c-0.361,0-0.737,0.111-1.009,0.288l-0.161-0.465   c0.321-0.208,0.785-0.345,1.274-0.345c1.186,0,1.474,0.81,1.474,1.587v1.449c0,0.337,0.016,0.665,0.064,0.93H108.677z    M108.573,176.526c-0.769-0.017-1.642,0.12-1.642,0.873c0,0.457,0.304,0.673,0.665,0.673c0.504,0,0.825-0.32,0.937-0.648   c0.024-0.072,0.04-0.152,0.04-0.225V176.526z"/>
	<path d="M111.206,173.514v1.114h1.009v0.536h-1.009v2.091c0,0.481,0.136,0.753,0.529,0.753c0.184,0,0.32-0.023,0.408-0.048   l0.032,0.529c-0.136,0.056-0.353,0.096-0.625,0.096c-0.328,0-0.593-0.104-0.761-0.296c-0.201-0.209-0.272-0.553-0.272-1.01v-2.115   h-0.601v-0.536h0.601v-0.93L111.206,173.514z"/>
	<path d="M113.006,172.817h0.705v2.419h0.016c0.112-0.2,0.289-0.376,0.505-0.496c0.208-0.121,0.457-0.201,0.721-0.201   c0.521,0,1.354,0.321,1.354,1.658v2.308h-0.705v-2.227c0-0.625-0.232-1.154-0.897-1.154c-0.457,0-0.817,0.32-0.945,0.705   c-0.04,0.097-0.048,0.2-0.048,0.337v2.339h-0.705V172.817z"/>
	<path d="M117.841,176.694c0.016,0.953,0.625,1.346,1.33,1.346c0.505,0,0.809-0.088,1.073-0.2l0.121,0.505   c-0.249,0.112-0.673,0.24-1.29,0.24c-1.193,0-1.907-0.785-1.907-1.955c0-1.169,0.689-2.091,1.819-2.091   c1.266,0,1.602,1.114,1.602,1.827c0,0.144-0.016,0.256-0.024,0.328H117.841z M119.907,176.189c0.008-0.448-0.184-1.146-0.977-1.146   c-0.713,0-1.025,0.657-1.082,1.146H119.907z"/>
	<path d="M121.458,175.837c0-0.456-0.008-0.849-0.032-1.209h0.617l0.024,0.761h0.032c0.176-0.521,0.601-0.85,1.074-0.85   c0.08,0,0.136,0.009,0.2,0.024v0.665c-0.072-0.016-0.145-0.024-0.24-0.024c-0.497,0-0.85,0.377-0.945,0.905   c-0.016,0.097-0.032,0.209-0.032,0.329v2.066h-0.697V175.837z"/>
	<path d="M125.206,173.018c-0.185,0.673-0.529,1.53-0.753,1.898l-0.449,0.056c0.176-0.473,0.384-1.306,0.473-1.882L125.206,173.018z   "/>
	<path d="M125.301,177.784c0.208,0.136,0.577,0.28,0.929,0.28c0.513,0,0.753-0.257,0.753-0.577c0-0.336-0.2-0.521-0.721-0.713   c-0.697-0.248-1.025-0.633-1.025-1.098c0-0.625,0.504-1.138,1.337-1.138c0.393,0,0.737,0.112,0.954,0.241l-0.176,0.513   c-0.152-0.097-0.433-0.225-0.793-0.225c-0.417,0-0.649,0.24-0.649,0.528c0,0.32,0.232,0.465,0.737,0.657   c0.673,0.256,1.018,0.593,1.018,1.17c0,0.681-0.529,1.161-1.45,1.161c-0.424,0-0.817-0.104-1.089-0.265L125.301,177.784z"/>
	<path d="M104.697,182.396c0.008,0.24-0.168,0.433-0.448,0.433c-0.249,0-0.425-0.192-0.425-0.433c0-0.248,0.185-0.44,0.441-0.44   C104.529,181.955,104.697,182.147,104.697,182.396z M103.913,187.362v-3.877h0.705v3.877H103.913z"/>
	<path d="M105.786,184.534c0-0.4-0.008-0.729-0.032-1.049h0.625l0.04,0.641h0.016c0.192-0.368,0.641-0.729,1.282-0.729   c0.537,0,1.37,0.321,1.37,1.65v2.315h-0.705v-2.235c0-0.625-0.232-1.146-0.897-1.146c-0.465,0-0.825,0.329-0.945,0.722   c-0.032,0.088-0.048,0.208-0.048,0.328v2.331h-0.705V184.534z"/>
	<path d="M112.992,187.218c-0.185,0.097-0.593,0.225-1.114,0.225c-1.169,0-1.931-0.793-1.931-1.979c0-1.193,0.817-2.059,2.083-2.059   c0.417,0,0.785,0.104,0.978,0.2l-0.16,0.545c-0.168-0.097-0.433-0.185-0.817-0.185c-0.889,0-1.37,0.657-1.37,1.466   c0,0.897,0.577,1.45,1.346,1.45c0.4,0,0.665-0.104,0.865-0.192L112.992,187.218z"/>
	<path d="M117.275,185.392c0,1.434-0.994,2.059-1.931,2.059c-1.05,0-1.859-0.769-1.859-1.994c0-1.298,0.85-2.06,1.923-2.06   C116.521,183.396,117.275,184.206,117.275,185.392z M114.199,185.432c0,0.85,0.488,1.49,1.177,1.49   c0.673,0,1.178-0.633,1.178-1.506c0-0.657-0.329-1.49-1.162-1.49S114.199,184.694,114.199,185.432z"/>
	<path d="M118.161,184.534c0-0.4-0.008-0.729-0.032-1.049h0.617l0.032,0.625h0.024c0.216-0.369,0.577-0.714,1.218-0.714   c0.529,0,0.929,0.321,1.098,0.777h0.016c0.12-0.216,0.272-0.385,0.433-0.505c0.232-0.176,0.489-0.272,0.857-0.272   c0.513,0,1.273,0.337,1.273,1.683v2.283h-0.689v-2.195c0-0.745-0.272-1.193-0.841-1.193c-0.401,0-0.713,0.297-0.833,0.641   c-0.032,0.097-0.056,0.225-0.056,0.353v2.396h-0.689v-2.323c0-0.617-0.272-1.065-0.809-1.065c-0.441,0-0.761,0.353-0.874,0.705   c-0.04,0.104-0.056,0.225-0.056,0.345v2.339h-0.689V184.534z"/>
	<path d="M125.229,185.552c0.016,0.953,0.625,1.346,1.33,1.346c0.505,0,0.809-0.088,1.073-0.2l0.121,0.505   c-0.249,0.112-0.673,0.24-1.29,0.24c-1.193,0-1.907-0.785-1.907-1.955c0-1.169,0.689-2.091,1.819-2.091   c1.266,0,1.602,1.114,1.602,1.827c0,0.144-0.016,0.256-0.024,0.328H125.229z M127.295,185.047c0.008-0.448-0.184-1.146-0.977-1.146   c-0.713,0-1.025,0.657-1.082,1.146H127.295z"/>
</g>
<g>
	<path d="M146.868,169.566v-0.433l0.553-0.537c1.33-1.266,1.931-1.938,1.938-2.724c0-0.528-0.256-1.017-1.033-1.017   c-0.473,0-0.865,0.24-1.105,0.44l-0.225-0.497c0.361-0.305,0.874-0.528,1.475-0.528c1.121,0,1.594,0.769,1.594,1.514   c0,0.961-0.696,1.738-1.794,2.796l-0.417,0.385v0.016h2.339v0.585H146.868z"/>
	<path d="M150.955,165.252c0-0.233-0.005-0.425-0.019-0.611h0.364l0.023,0.373h0.009c0.112-0.215,0.374-0.425,0.747-0.425   c0.313,0,0.799,0.188,0.799,0.962v1.35h-0.411v-1.303c0-0.364-0.136-0.668-0.522-0.668c-0.271,0-0.481,0.191-0.552,0.421   c-0.019,0.051-0.027,0.121-0.027,0.191v1.358h-0.411V165.252z"/>
	<path d="M155.497,163.585v2.731c0,0.201,0.004,0.43,0.019,0.584h-0.369l-0.019-0.393h-0.01c-0.126,0.253-0.401,0.444-0.771,0.444   c-0.546,0-0.966-0.463-0.966-1.149c-0.005-0.751,0.462-1.214,1.013-1.214c0.346,0,0.579,0.164,0.682,0.346h0.01v-1.35H155.497z    M155.086,165.561c0-0.052-0.005-0.122-0.019-0.173c-0.061-0.262-0.285-0.477-0.593-0.477c-0.426,0-0.678,0.374-0.678,0.873   c0,0.458,0.225,0.836,0.668,0.836c0.275,0,0.527-0.182,0.603-0.49c0.014-0.056,0.019-0.112,0.019-0.178V165.561z"/>
	<path d="M158.118,163.879h0.705v2.419h0.016c0.112-0.2,0.288-0.376,0.505-0.496c0.208-0.121,0.456-0.201,0.721-0.201   c0.521,0,1.354,0.321,1.354,1.659v2.307h-0.705v-2.227c0-0.625-0.232-1.154-0.897-1.154c-0.457,0-0.817,0.32-0.945,0.705   c-0.04,0.097-0.048,0.2-0.048,0.337v2.339h-0.705V163.879z"/>
	<path d="M163.346,164.6c0.008,0.24-0.169,0.433-0.449,0.433c-0.248,0-0.424-0.192-0.424-0.433c0-0.248,0.184-0.44,0.44-0.44   C163.177,164.159,163.346,164.352,163.346,164.6z M162.561,169.566v-3.877h0.705v3.877H162.561z"/>
	<path d="M167.774,165.689c-0.017,0.28-0.032,0.593-0.032,1.065v2.251c0,0.889-0.177,1.434-0.553,1.771   c-0.377,0.353-0.922,0.464-1.41,0.464c-0.465,0-0.978-0.111-1.29-0.32l0.177-0.536c0.256,0.16,0.656,0.304,1.138,0.304   c0.721,0,1.249-0.376,1.249-1.354v-0.433h-0.016c-0.217,0.36-0.633,0.649-1.233,0.649c-0.962,0-1.65-0.817-1.65-1.891   c0-1.314,0.856-2.06,1.746-2.06c0.673,0,1.041,0.353,1.21,0.674h0.016l0.032-0.585H167.774z M167.045,167.219   c0-0.12-0.008-0.224-0.04-0.32c-0.128-0.408-0.473-0.745-0.985-0.745c-0.673,0-1.153,0.569-1.153,1.467   c0,0.761,0.385,1.394,1.146,1.394c0.433,0,0.825-0.272,0.978-0.721c0.04-0.12,0.056-0.257,0.056-0.377V167.219z"/>
	<path d="M168.908,163.879h0.705v2.419h0.016c0.112-0.2,0.288-0.376,0.505-0.496c0.208-0.121,0.456-0.201,0.721-0.201   c0.521,0,1.354,0.321,1.354,1.659v2.307h-0.705v-2.227c0-0.625-0.232-1.154-0.897-1.154c-0.457,0-0.817,0.32-0.945,0.705   c-0.04,0.097-0.048,0.2-0.048,0.337v2.339h-0.705V163.879z"/>
	<path d="M173.743,167.756c0.016,0.953,0.625,1.346,1.329,1.346c0.505,0,0.81-0.088,1.074-0.2l0.12,0.505   c-0.249,0.112-0.673,0.24-1.29,0.24c-1.193,0-1.906-0.785-1.906-1.955c0-1.169,0.688-2.091,1.818-2.091   c1.266,0,1.602,1.114,1.602,1.827c0,0.144-0.016,0.256-0.023,0.328H173.743z M175.81,167.251c0.008-0.448-0.184-1.146-0.978-1.146   c-0.713,0-1.025,0.657-1.081,1.146H175.81z"/>
	<path d="M177.265,168.846c0.209,0.136,0.577,0.28,0.93,0.28c0.513,0,0.753-0.257,0.753-0.577c0-0.336-0.2-0.521-0.721-0.713   c-0.697-0.248-1.025-0.633-1.025-1.098c0-0.625,0.505-1.138,1.338-1.138c0.393,0,0.736,0.112,0.953,0.241l-0.177,0.513   c-0.151-0.097-0.433-0.225-0.793-0.225c-0.416,0-0.648,0.24-0.648,0.528c0,0.32,0.232,0.465,0.737,0.657   c0.673,0.256,1.017,0.593,1.017,1.17c0,0.681-0.528,1.161-1.449,1.161c-0.425,0-0.817-0.104-1.09-0.265L177.265,168.846z"/>
	<path d="M181.38,164.575v1.114h1.01v0.536h-1.01v2.091c0,0.48,0.137,0.753,0.529,0.753c0.184,0,0.32-0.023,0.408-0.048l0.032,0.529   c-0.137,0.056-0.353,0.096-0.625,0.096c-0.328,0-0.593-0.104-0.761-0.296c-0.2-0.209-0.272-0.554-0.272-1.01v-2.115h-0.601v-0.536   h0.601v-0.93L181.38,164.575z"/>
	<path d="M153.021,178.424v-3.341h-0.545v-0.536h0.545v-0.185c0-0.545,0.12-1.041,0.448-1.354c0.265-0.257,0.617-0.36,0.945-0.36   c0.248,0,0.465,0.056,0.601,0.111l-0.096,0.545c-0.104-0.048-0.248-0.088-0.449-0.088c-0.601,0-0.753,0.528-0.753,1.121v0.209   h0.938v0.536h-0.938v3.341H153.021z"/>
	<path d="M157.433,178.424l-0.056-0.488h-0.024c-0.216,0.304-0.633,0.576-1.186,0.576c-0.785,0-1.186-0.553-1.186-1.113   c0-0.938,0.833-1.45,2.331-1.442v-0.08c0-0.32-0.088-0.896-0.881-0.896c-0.36,0-0.737,0.112-1.01,0.288l-0.16-0.465   c0.32-0.208,0.785-0.345,1.274-0.345c1.186,0,1.474,0.81,1.474,1.587v1.449c0,0.337,0.016,0.665,0.064,0.93H157.433z    M157.329,176.445c-0.77-0.017-1.643,0.12-1.643,0.873c0,0.457,0.305,0.673,0.665,0.673c0.505,0,0.825-0.32,0.938-0.648   c0.023-0.072,0.04-0.152,0.04-0.225V176.445z"/>
	<path d="M159.961,173.433v1.114h1.01v0.536h-1.01v2.091c0,0.48,0.137,0.753,0.529,0.753c0.184,0,0.32-0.023,0.408-0.048   l0.032,0.529c-0.137,0.056-0.353,0.096-0.625,0.096c-0.328,0-0.593-0.104-0.761-0.296c-0.2-0.209-0.272-0.554-0.272-1.01v-2.115   h-0.601v-0.536h0.601v-0.93L159.961,173.433z"/>
	<path d="M161.762,172.736h0.705v2.419h0.016c0.112-0.2,0.288-0.376,0.505-0.496c0.208-0.121,0.456-0.201,0.721-0.201   c0.521,0,1.354,0.321,1.354,1.659v2.307h-0.705v-2.227c0-0.625-0.232-1.154-0.897-1.154c-0.457,0-0.817,0.32-0.945,0.705   c-0.04,0.097-0.048,0.2-0.048,0.337v2.339h-0.705V172.736z"/>
	<path d="M166.597,176.613c0.016,0.953,0.625,1.346,1.329,1.346c0.505,0,0.81-0.088,1.074-0.2l0.12,0.505   c-0.249,0.112-0.673,0.24-1.29,0.24c-1.193,0-1.906-0.785-1.906-1.955c0-1.169,0.688-2.091,1.818-2.091   c1.266,0,1.602,1.114,1.602,1.827c0,0.144-0.016,0.256-0.023,0.328H166.597z M168.663,176.108c0.008-0.448-0.184-1.146-0.978-1.146   c-0.713,0-1.025,0.657-1.081,1.146H168.663z"/>
	<path d="M170.215,175.756c0-0.456-0.008-0.849-0.032-1.209h0.617l0.023,0.761h0.032c0.177-0.521,0.601-0.85,1.073-0.85   c0.08,0,0.137,0.009,0.2,0.024v0.665c-0.071-0.016-0.144-0.024-0.24-0.024c-0.496,0-0.849,0.377-0.945,0.905   c-0.016,0.097-0.031,0.209-0.031,0.329v2.066h-0.697V175.756z"/>
	<path d="M173.961,172.937c-0.184,0.673-0.528,1.53-0.753,1.898l-0.448,0.056c0.176-0.473,0.385-1.306,0.473-1.882L173.961,172.937z   "/>
	<path d="M174.057,177.703c0.209,0.136,0.577,0.28,0.93,0.28c0.513,0,0.753-0.257,0.753-0.577c0-0.336-0.2-0.521-0.721-0.713   c-0.697-0.248-1.025-0.633-1.025-1.098c0-0.625,0.505-1.138,1.338-1.138c0.393,0,0.736,0.112,0.953,0.241l-0.177,0.513   c-0.151-0.097-0.433-0.225-0.793-0.225c-0.416,0-0.648,0.24-0.648,0.528c0,0.32,0.232,0.465,0.737,0.657   c0.673,0.256,1.017,0.593,1.017,1.17c0,0.681-0.528,1.161-1.449,1.161c-0.425,0-0.817-0.104-1.09-0.265L174.057,177.703z"/>
	<path d="M153.454,182.314c0.008,0.24-0.169,0.433-0.449,0.433c-0.248,0-0.424-0.192-0.424-0.433c0-0.248,0.184-0.44,0.44-0.44   C153.285,181.874,153.454,182.066,153.454,182.314z M152.669,187.281v-3.877h0.705v3.877H152.669z"/>
	<path d="M154.542,184.453c0-0.4-0.008-0.729-0.032-1.049h0.625l0.04,0.641h0.016c0.192-0.368,0.642-0.729,1.282-0.729   c0.536,0,1.37,0.321,1.37,1.65v2.315h-0.705v-2.235c0-0.625-0.232-1.146-0.897-1.146c-0.465,0-0.825,0.329-0.945,0.722   c-0.032,0.088-0.048,0.208-0.048,0.328v2.331h-0.705V184.453z"/>
	<path d="M161.748,187.137c-0.185,0.097-0.593,0.225-1.113,0.225c-1.17,0-1.931-0.793-1.931-1.979c0-1.193,0.816-2.059,2.083-2.059   c0.416,0,0.784,0.104,0.977,0.2l-0.16,0.545c-0.168-0.097-0.433-0.185-0.816-0.185c-0.89,0-1.37,0.657-1.37,1.466   c0,0.897,0.576,1.45,1.346,1.45c0.4,0,0.665-0.104,0.865-0.192L161.748,187.137z"/>
	<path d="M166.031,185.311c0,1.434-0.993,2.059-1.931,2.059c-1.05,0-1.858-0.769-1.858-1.994c0-1.298,0.849-2.06,1.922-2.06   C165.278,183.315,166.031,184.125,166.031,185.311z M162.955,185.351c0,0.85,0.488,1.49,1.178,1.49   c0.673,0,1.178-0.633,1.178-1.506c0-0.657-0.329-1.49-1.162-1.49S162.955,184.613,162.955,185.351z"/>
	<path d="M166.917,184.453c0-0.4-0.008-0.729-0.032-1.049h0.617l0.031,0.625h0.024c0.217-0.369,0.577-0.714,1.218-0.714   c0.528,0,0.93,0.321,1.098,0.777h0.016c0.12-0.216,0.272-0.385,0.433-0.505c0.232-0.176,0.489-0.272,0.857-0.272   c0.513,0,1.273,0.337,1.273,1.683v2.283h-0.688v-2.195c0-0.745-0.272-1.193-0.842-1.193c-0.4,0-0.713,0.297-0.833,0.641   c-0.032,0.097-0.056,0.225-0.056,0.353v2.396h-0.689v-2.323c0-0.617-0.272-1.065-0.809-1.065c-0.44,0-0.761,0.353-0.873,0.705   c-0.04,0.104-0.057,0.225-0.057,0.345v2.339h-0.688V184.453z"/>
	<path d="M173.985,185.471c0.016,0.953,0.625,1.346,1.329,1.346c0.505,0,0.81-0.088,1.074-0.2l0.12,0.505   c-0.249,0.112-0.673,0.24-1.29,0.24c-1.193,0-1.906-0.785-1.906-1.955c0-1.169,0.688-2.091,1.818-2.091   c1.266,0,1.602,1.114,1.602,1.827c0,0.144-0.016,0.256-0.023,0.328H173.985z M176.052,184.966c0.008-0.448-0.184-1.146-0.978-1.146   c-0.713,0-1.025,0.657-1.081,1.146H176.052z"/>
</g>
<g>
	<path d="M201.72,164.08v2.259h2.611v-2.259h0.705v5.399h-0.705v-2.531h-2.611v2.531h-0.697v-5.399H201.72z"/>
	<path d="M207.083,164.513c0.008,0.24-0.169,0.433-0.449,0.433c-0.248,0-0.424-0.192-0.424-0.433c0-0.248,0.184-0.44,0.44-0.44   C206.914,164.072,207.083,164.265,207.083,164.513z M206.298,169.479v-3.877h0.705v3.877H206.298z"/>
	<path d="M211.512,165.603c-0.017,0.28-0.032,0.593-0.032,1.065v2.251c0,0.889-0.177,1.434-0.553,1.771   c-0.377,0.353-0.922,0.464-1.41,0.464c-0.465,0-0.978-0.111-1.29-0.32l0.177-0.536c0.256,0.16,0.656,0.304,1.138,0.304   c0.721,0,1.249-0.376,1.249-1.354v-0.433h-0.016c-0.217,0.36-0.633,0.649-1.233,0.649c-0.962,0-1.65-0.817-1.65-1.891   c0-1.314,0.856-2.06,1.746-2.06c0.673,0,1.041,0.353,1.21,0.674h0.016l0.032-0.585H211.512z M210.782,167.132   c0-0.12-0.008-0.224-0.04-0.32c-0.128-0.408-0.473-0.745-0.985-0.745c-0.673,0-1.153,0.569-1.153,1.467   c0,0.761,0.385,1.394,1.146,1.394c0.433,0,0.825-0.272,0.978-0.721c0.04-0.12,0.056-0.257,0.056-0.377V167.132z"/>
	<path d="M212.646,163.792h0.705v2.419h0.016c0.112-0.2,0.288-0.376,0.505-0.496c0.208-0.121,0.456-0.201,0.721-0.201   c0.521,0,1.354,0.321,1.354,1.658v2.308h-0.705v-2.227c0-0.625-0.232-1.154-0.897-1.154c-0.457,0-0.817,0.32-0.945,0.705   c-0.04,0.097-0.048,0.2-0.048,0.337v2.339h-0.705V163.792z"/>
	<path d="M217.48,167.669c0.016,0.953,0.625,1.346,1.329,1.346c0.505,0,0.81-0.088,1.074-0.2l0.12,0.505   c-0.249,0.112-0.673,0.24-1.29,0.24c-1.193,0-1.906-0.785-1.906-1.955c0-1.169,0.688-2.091,1.818-2.091   c1.266,0,1.602,1.114,1.602,1.827c0,0.144-0.016,0.256-0.023,0.328H217.48z M219.547,167.164c0.008-0.448-0.184-1.146-0.978-1.146   c-0.713,0-1.025,0.657-1.081,1.146H219.547z"/>
	<path d="M221.002,168.759c0.209,0.136,0.577,0.28,0.93,0.28c0.513,0,0.753-0.257,0.753-0.577c0-0.336-0.2-0.521-0.721-0.713   c-0.697-0.248-1.025-0.633-1.025-1.098c0-0.625,0.505-1.138,1.338-1.138c0.393,0,0.736,0.112,0.953,0.241l-0.177,0.513   c-0.151-0.097-0.433-0.225-0.793-0.225c-0.416,0-0.648,0.24-0.648,0.528c0,0.32,0.232,0.465,0.737,0.657   c0.673,0.256,1.017,0.593,1.017,1.17c0,0.681-0.528,1.161-1.449,1.161c-0.425,0-0.817-0.104-1.09-0.265L221.002,168.759z"/>
	<path d="M225.117,164.488v1.114h1.01v0.536h-1.01v2.091c0,0.481,0.137,0.753,0.529,0.753c0.184,0,0.32-0.023,0.408-0.048   l0.032,0.529c-0.137,0.056-0.353,0.096-0.625,0.096c-0.328,0-0.593-0.104-0.761-0.296c-0.2-0.209-0.272-0.553-0.272-1.01v-2.115   h-0.601v-0.536h0.601v-0.93L225.117,164.488z"/>
	<path d="M201.844,178.337v-3.341h-0.545v-0.536h0.545v-0.185c0-0.545,0.12-1.041,0.448-1.354c0.265-0.257,0.617-0.36,0.945-0.36   c0.248,0,0.465,0.056,0.601,0.111l-0.096,0.545c-0.104-0.048-0.249-0.088-0.449-0.088c-0.601,0-0.753,0.528-0.753,1.121v0.209   h0.938v0.536h-0.938v3.341H201.844z"/>
	<path d="M206.255,178.337l-0.056-0.488h-0.024c-0.216,0.304-0.633,0.576-1.186,0.576c-0.785,0-1.186-0.553-1.186-1.113   c0-0.938,0.833-1.45,2.331-1.442v-0.08c0-0.32-0.088-0.896-0.881-0.896c-0.36,0-0.737,0.111-1.01,0.288l-0.16-0.465   c0.32-0.208,0.785-0.345,1.274-0.345c1.186,0,1.474,0.81,1.474,1.587v1.449c0,0.337,0.016,0.665,0.064,0.93H206.255z    M206.151,176.358c-0.77-0.017-1.643,0.12-1.643,0.873c0,0.457,0.305,0.673,0.665,0.673c0.505,0,0.825-0.32,0.938-0.648   c0.023-0.072,0.04-0.152,0.04-0.225V176.358z"/>
	<path d="M208.783,173.346v1.114h1.01v0.536h-1.01v2.091c0,0.481,0.137,0.753,0.529,0.753c0.184,0,0.32-0.023,0.408-0.048   l0.032,0.529c-0.137,0.056-0.353,0.096-0.625,0.096c-0.328,0-0.593-0.104-0.761-0.296c-0.2-0.209-0.272-0.553-0.272-1.01v-2.115   h-0.601v-0.536h0.601v-0.93L208.783,173.346z"/>
	<path d="M210.584,172.649h0.705v2.419h0.016c0.112-0.2,0.288-0.376,0.505-0.496c0.208-0.121,0.456-0.201,0.721-0.201   c0.521,0,1.354,0.321,1.354,1.658v2.308h-0.705v-2.227c0-0.625-0.232-1.154-0.897-1.154c-0.457,0-0.817,0.32-0.945,0.705   c-0.04,0.097-0.048,0.2-0.048,0.337v2.339h-0.705V172.649z"/>
	<path d="M215.419,176.526c0.016,0.953,0.625,1.346,1.33,1.346c0.504,0,0.809-0.088,1.073-0.2l0.12,0.505   c-0.249,0.112-0.673,0.24-1.29,0.24c-1.193,0-1.906-0.785-1.906-1.955c0-1.169,0.688-2.091,1.818-2.091   c1.266,0,1.602,1.114,1.602,1.827c0,0.144-0.016,0.256-0.023,0.328H215.419z M217.485,176.021c0.008-0.448-0.184-1.146-0.978-1.146   c-0.713,0-1.025,0.657-1.081,1.146H217.485z"/>
	<path d="M219.037,175.669c0-0.456-0.008-0.849-0.032-1.209h0.617l0.023,0.761h0.032c0.177-0.521,0.601-0.85,1.073-0.85   c0.08,0,0.137,0.009,0.2,0.024v0.665c-0.071-0.016-0.144-0.024-0.24-0.024c-0.496,0-0.849,0.377-0.945,0.905   c-0.016,0.097-0.032,0.209-0.032,0.329v2.066h-0.696V175.669z"/>
	<path d="M222.783,172.85c-0.184,0.673-0.528,1.53-0.753,1.898l-0.448,0.056c0.176-0.473,0.385-1.306,0.473-1.882L222.783,172.85z"/>
	<path d="M222.879,177.616c0.209,0.136,0.577,0.28,0.93,0.28c0.513,0,0.753-0.257,0.753-0.577c0-0.336-0.2-0.521-0.721-0.713   c-0.697-0.248-1.025-0.633-1.025-1.098c0-0.625,0.505-1.138,1.338-1.138c0.393,0,0.736,0.112,0.953,0.241l-0.177,0.513   c-0.151-0.097-0.433-0.225-0.793-0.225c-0.416,0-0.648,0.24-0.648,0.528c0,0.32,0.232,0.465,0.737,0.657   c0.673,0.256,1.017,0.593,1.017,1.17c0,0.681-0.528,1.161-1.449,1.161c-0.425,0-0.817-0.104-1.09-0.265L222.879,177.616z"/>
	<path d="M202.276,182.228c0.008,0.24-0.169,0.433-0.449,0.433c-0.248,0-0.424-0.192-0.424-0.433c0-0.248,0.184-0.44,0.44-0.44   C202.107,181.787,202.276,181.979,202.276,182.228z M201.491,187.194v-3.877h0.705v3.877H201.491z"/>
	<path d="M203.364,184.366c0-0.4-0.008-0.729-0.032-1.049h0.625l0.04,0.641h0.016c0.192-0.368,0.642-0.729,1.282-0.729   c0.536,0,1.37,0.321,1.37,1.65v2.315h-0.705v-2.235c0-0.625-0.232-1.146-0.897-1.146c-0.465,0-0.825,0.329-0.945,0.722   c-0.032,0.088-0.048,0.208-0.048,0.328v2.331h-0.705V184.366z"/>
	<path d="M210.57,187.05c-0.185,0.097-0.593,0.225-1.113,0.225c-1.17,0-1.931-0.793-1.931-1.979c0-1.193,0.816-2.059,2.083-2.059   c0.416,0,0.784,0.104,0.977,0.2l-0.16,0.545c-0.168-0.097-0.433-0.185-0.816-0.185c-0.89,0-1.37,0.657-1.37,1.466   c0,0.897,0.576,1.45,1.346,1.45c0.4,0,0.665-0.104,0.865-0.192L210.57,187.05z"/>
	<path d="M214.854,185.224c0,1.434-0.993,2.059-1.931,2.059c-1.05,0-1.858-0.769-1.858-1.994c0-1.298,0.849-2.06,1.922-2.06   C214.101,183.229,214.854,184.038,214.854,185.224z M211.777,185.264c0,0.85,0.488,1.49,1.178,1.49   c0.673,0,1.178-0.633,1.178-1.506c0-0.657-0.329-1.49-1.162-1.49S211.777,184.526,211.777,185.264z"/>
	<path d="M215.739,184.366c0-0.4-0.008-0.729-0.032-1.049h0.617l0.031,0.625h0.024c0.217-0.369,0.577-0.714,1.218-0.714   c0.528,0,0.93,0.321,1.098,0.777h0.016c0.12-0.216,0.272-0.385,0.433-0.505c0.232-0.176,0.489-0.272,0.857-0.272   c0.513,0,1.273,0.337,1.273,1.683v2.283h-0.688v-2.195c0-0.745-0.272-1.193-0.842-1.193c-0.4,0-0.713,0.297-0.833,0.641   c-0.032,0.097-0.056,0.225-0.056,0.353v2.396h-0.689v-2.323c0-0.617-0.272-1.065-0.809-1.065c-0.44,0-0.761,0.353-0.873,0.705   c-0.04,0.104-0.057,0.225-0.057,0.345v2.339h-0.688V184.366z"/>
	<path d="M222.808,185.384c0.016,0.953,0.625,1.346,1.33,1.346c0.504,0,0.809-0.088,1.073-0.2l0.12,0.505   c-0.249,0.112-0.673,0.24-1.29,0.24c-1.193,0-1.906-0.785-1.906-1.955c0-1.169,0.688-2.091,1.818-2.091   c1.266,0,1.602,1.114,1.602,1.827c0,0.144-0.016,0.256-0.023,0.328H222.808z M224.874,184.879c0.008-0.448-0.184-1.146-0.978-1.146   c-0.713,0-1.025,0.657-1.081,1.146H224.874z"/>
</g>
</svg>