<svg xmlns="http://www.w3.org/2000/svg" xmlns:xlink="http://www.w3.org/1999/xlink" version="1.1" id="Layer_1" x="0px" y="0px" width="207.914px" height="273.008px" viewBox="0 0 207.914 273.008" enable-background="new 0 0 207.914 273.008" xml:space="preserve">
<g>
	<path d="M24.833,4.329c-0.04-0.751-0.088-1.655-0.08-2.327h-0.024c-0.184,0.631-0.408,1.303-0.68,2.047l-0.952,2.615h-0.528   l-0.872-2.567c-0.256-0.759-0.472-1.455-0.624-2.095h-0.016c-0.016,0.671-0.056,1.575-0.104,2.383l-0.144,2.311h-0.664l0.375-5.389   h0.888l0.919,2.606c0.224,0.664,0.408,1.255,0.544,1.815h0.024c0.136-0.544,0.328-1.136,0.567-1.815l0.959-2.606h0.888l0.336,5.389   h-0.68L24.833,4.329z"/>
	<path d="M30.249,4.729c0,1.431-0.992,2.055-1.927,2.055c-1.047,0-1.855-0.768-1.855-1.991c0-1.295,0.848-2.055,1.919-2.055   C29.497,2.738,30.249,3.545,30.249,4.729z M27.178,4.769c0,0.847,0.487,1.487,1.175,1.487c0.671,0,1.175-0.631,1.175-1.503   c0-0.656-0.328-1.487-1.159-1.487C27.538,3.266,27.178,4.033,27.178,4.769z"/>
	<path d="M31.138,4.033c0-0.456-0.008-0.848-0.032-1.207h0.616l0.024,0.759h0.032c0.176-0.52,0.6-0.848,1.072-0.848   c0.08,0,0.136,0.008,0.2,0.024v0.664c-0.072-0.016-0.144-0.024-0.24-0.024c-0.496,0-0.848,0.376-0.944,0.904   c-0.016,0.096-0.032,0.208-0.032,0.328v2.063h-0.696V4.033z"/>
	<path d="M34.066,4.889c0.016,0.952,0.624,1.343,1.327,1.343c0.504,0,0.808-0.088,1.071-0.2l0.12,0.504   c-0.248,0.112-0.672,0.24-1.287,0.24c-1.191,0-1.903-0.784-1.903-1.951s0.688-2.087,1.815-2.087c1.264,0,1.599,1.112,1.599,1.823   c0,0.144-0.016,0.256-0.024,0.328H34.066z M36.128,4.385c0.008-0.448-0.184-1.144-0.975-1.144c-0.712,0-1.023,0.656-1.08,1.144   H36.128z"/>
</g>
<g>
	<path d="M21.833,240.99c-0.04-0.751-0.088-1.655-0.08-2.326h-0.024c-0.184,0.631-0.408,1.303-0.68,2.047l-0.952,2.614h-0.528   l-0.872-2.566c-0.256-0.76-0.472-1.455-0.624-2.095h-0.016c-0.016,0.671-0.056,1.575-0.104,2.383l-0.144,2.311h-0.664l0.375-5.39   h0.888l0.919,2.606c0.224,0.664,0.408,1.256,0.544,1.815h0.024c0.136-0.544,0.328-1.136,0.567-1.815l0.959-2.606h0.888l0.336,5.39   h-0.68L21.833,240.99z"/>
	<path d="M27.249,241.391c0,1.431-0.992,2.055-1.927,2.055c-1.047,0-1.855-0.768-1.855-1.991c0-1.295,0.848-2.055,1.919-2.055   C26.497,239.399,27.249,240.207,27.249,241.391z M24.178,241.431c0,0.847,0.487,1.486,1.175,1.486c0.671,0,1.175-0.631,1.175-1.503   c0-0.655-0.328-1.487-1.159-1.487C24.538,239.927,24.178,240.694,24.178,241.431z"/>
	<path d="M28.138,240.694c0-0.455-0.008-0.848-0.032-1.207h0.616l0.024,0.76h0.032c0.176-0.52,0.6-0.848,1.072-0.848   c0.08,0,0.136,0.008,0.2,0.023v0.664c-0.072-0.016-0.144-0.024-0.24-0.024c-0.496,0-0.848,0.376-0.944,0.904   c-0.016,0.096-0.032,0.208-0.032,0.327v2.063h-0.696V240.694z"/>
	<path d="M31.066,241.55c0.016,0.952,0.624,1.344,1.327,1.344c0.504,0,0.808-0.088,1.071-0.2l0.12,0.504   c-0.248,0.112-0.672,0.24-1.287,0.24c-1.191,0-1.903-0.784-1.903-1.951c0-1.168,0.688-2.087,1.815-2.087   c1.264,0,1.599,1.111,1.599,1.823c0,0.144-0.016,0.256-0.024,0.327H31.066z M33.128,241.047c0.008-0.448-0.184-1.144-0.975-1.144   c-0.712,0-1.023,0.655-1.08,1.144H33.128z"/>
</g>
<g>
	<path d="M60.703,253.279c-0.144-0.008-0.328,0-0.528,0.032c-1.103,0.185-1.687,0.991-1.807,1.848h0.024   c0.248-0.328,0.68-0.601,1.255-0.601c0.92,0,1.567,0.664,1.567,1.68c0,0.951-0.647,1.831-1.727,1.831   c-1.111,0-1.839-0.863-1.839-2.215c0-1.023,0.368-1.831,0.879-2.343c0.432-0.424,1.007-0.688,1.663-0.768   c0.208-0.032,0.384-0.04,0.512-0.04V253.279z M60.503,256.278c0-0.744-0.424-1.191-1.072-1.191c-0.424,0-0.815,0.264-1.007,0.64   c-0.048,0.08-0.08,0.184-0.08,0.312c0.016,0.855,0.408,1.487,1.144,1.487C60.095,257.525,60.503,257.021,60.503,256.278z"/>
	<path d="M65.294,255.326c0,1.768-0.656,2.743-1.807,2.743c-1.015,0-1.703-0.952-1.719-2.671c0-1.743,0.752-2.702,1.807-2.702   C64.671,252.696,65.294,253.672,65.294,255.326z M62.472,255.406c0,1.352,0.416,2.119,1.055,2.119c0.72,0,1.063-0.84,1.063-2.167   c0-1.279-0.328-2.118-1.056-2.118C62.919,253.24,62.472,253.991,62.472,255.406z"/>
</g>
<g>
	<path d="M88.548,253.279c-0.145-0.008-0.328,0-0.528,0.032c-1.103,0.185-1.687,0.991-1.807,1.848h0.024   c0.248-0.328,0.68-0.601,1.255-0.601c0.92,0,1.568,0.664,1.568,1.68c0,0.951-0.647,1.831-1.728,1.831   c-1.111,0-1.839-0.863-1.839-2.215c0-1.023,0.368-1.831,0.879-2.343c0.432-0.424,1.007-0.688,1.664-0.768   c0.208-0.032,0.384-0.04,0.512-0.04V253.279z M88.348,256.278c0-0.744-0.424-1.191-1.072-1.191c-0.424,0-0.815,0.264-1.007,0.64   c-0.048,0.08-0.08,0.184-0.08,0.312c0.016,0.855,0.408,1.487,1.144,1.487C87.94,257.525,88.348,257.021,88.348,256.278z"/>
	<path d="M92.787,253.376h-1.982l-0.2,1.335c0.12-0.016,0.232-0.032,0.424-0.032c0.4,0,0.8,0.088,1.119,0.28   c0.408,0.231,0.744,0.68,0.744,1.335c0,1.016-0.808,1.775-1.935,1.775c-0.568,0-1.048-0.16-1.296-0.32l0.176-0.535   c0.216,0.128,0.64,0.287,1.111,0.287c0.664,0,1.231-0.432,1.231-1.127c-0.008-0.672-0.455-1.151-1.495-1.151   c-0.296,0-0.527,0.032-0.72,0.056l0.336-2.494h2.486V253.376z"/>
</g>
<g>
	<path d="M117.149,252.784v0.464l-2.263,4.733h-0.728l2.255-4.598v-0.016h-2.543v-0.584H117.149z"/>
	<path d="M121.333,255.326c0,1.768-0.655,2.743-1.807,2.743c-1.016,0-1.703-0.952-1.72-2.671c0-1.743,0.752-2.702,1.808-2.702   C120.71,252.696,121.333,253.672,121.333,255.326z M118.511,255.406c0,1.352,0.416,2.119,1.056,2.119   c0.72,0,1.063-0.84,1.063-2.167c0-1.279-0.328-2.118-1.056-2.118C118.958,253.24,118.511,253.991,118.511,255.406z"/>
</g>
<g>
	<path d="M145.11,252.784v0.464l-2.263,4.733h-0.728l2.255-4.598v-0.016h-2.543v-0.584H145.11z"/>
	<path d="M148.942,253.376h-1.983l-0.199,1.335c0.12-0.016,0.231-0.032,0.424-0.032c0.399,0,0.799,0.088,1.119,0.28   c0.407,0.231,0.743,0.68,0.743,1.335c0,1.016-0.808,1.775-1.935,1.775c-0.567,0-1.048-0.16-1.295-0.32l0.176-0.535   c0.216,0.128,0.64,0.287,1.111,0.287c0.663,0,1.231-0.432,1.231-1.127c-0.009-0.672-0.456-1.151-1.495-1.151   c-0.296,0-0.528,0.032-0.72,0.056l0.336-2.494h2.486V253.376z"/>
</g>
<g>
	<path d="M104.576,264.69v2.539h2.936v-2.539h0.792v6.067h-0.792v-2.845h-2.936v2.845h-0.783v-6.067H104.576z"/>
	<path d="M110.075,268.724c0.019,1.071,0.702,1.513,1.495,1.513c0.567,0,0.909-0.1,1.206-0.226l0.135,0.567   c-0.278,0.126-0.756,0.27-1.449,0.27c-1.341,0-2.143-0.882-2.143-2.196s0.774-2.35,2.044-2.35c1.422,0,1.8,1.251,1.8,2.053   c0,0.162-0.018,0.288-0.026,0.369H110.075z M112.398,268.156c0.009-0.504-0.207-1.287-1.099-1.287   c-0.801,0-1.152,0.738-1.215,1.287H112.398z"/>
	<path d="M115.025,265.177c0.009,0.27-0.188,0.485-0.504,0.485c-0.279,0-0.478-0.216-0.478-0.485c0-0.279,0.207-0.495,0.495-0.495   C114.837,264.682,115.025,264.897,115.025,265.177z M114.144,270.758V266.4h0.792v4.357H114.144z"/>
	<path d="M120.003,266.4c-0.018,0.315-0.035,0.667-0.035,1.197v2.53c0,0.999-0.198,1.611-0.622,1.989   c-0.423,0.396-1.035,0.522-1.584,0.522c-0.522,0-1.099-0.126-1.449-0.36l0.198-0.603c0.288,0.18,0.737,0.342,1.278,0.342   c0.81,0,1.404-0.423,1.404-1.521v-0.486h-0.019c-0.243,0.405-0.711,0.729-1.386,0.729c-1.081,0-1.854-0.918-1.854-2.125   c0-1.477,0.963-2.313,1.962-2.313c0.757,0,1.171,0.396,1.359,0.756h0.019l0.036-0.657H120.003z M119.185,268.12   c0-0.135-0.01-0.252-0.046-0.36c-0.144-0.459-0.53-0.837-1.106-0.837c-0.757,0-1.297,0.64-1.297,1.647   c0,0.855,0.433,1.566,1.287,1.566c0.486,0,0.928-0.306,1.099-0.811c0.045-0.135,0.063-0.288,0.063-0.423V268.12z"/>
	<path d="M121.28,264.366h0.792v2.719h0.018c0.126-0.225,0.324-0.423,0.567-0.559c0.234-0.135,0.514-0.225,0.811-0.225   c0.585,0,1.521,0.36,1.521,1.863v2.593h-0.792v-2.503c0-0.702-0.262-1.296-1.009-1.296c-0.513,0-0.918,0.36-1.062,0.792   c-0.045,0.108-0.054,0.226-0.054,0.378v2.629h-0.792V264.366z"/>
	<path d="M127.193,265.149v1.251h1.134v0.604h-1.134v2.35c0,0.54,0.153,0.847,0.594,0.847c0.207,0,0.36-0.027,0.459-0.055   l0.036,0.595c-0.152,0.062-0.396,0.107-0.702,0.107c-0.369,0-0.666-0.116-0.854-0.333c-0.226-0.233-0.307-0.621-0.307-1.134v-2.377   h-0.675V266.4h0.675v-1.044L127.193,265.149z"/>
	<path d="M132.845,264.51c-0.656,0.883-1.134,2.053-1.134,3.683c0,1.603,0.495,2.755,1.134,3.655h-0.621   c-0.566-0.747-1.179-1.899-1.179-3.655c0.009-1.773,0.612-2.926,1.179-3.683H132.845z"/>
	<path d="M134.564,265.177c0.009,0.27-0.189,0.485-0.505,0.485c-0.278,0-0.477-0.216-0.477-0.485c0-0.279,0.207-0.495,0.495-0.495   C134.375,264.682,134.564,264.897,134.564,265.177z M133.682,270.758V266.4h0.792v4.357H133.682z"/>
	<path d="M135.788,267.58c0-0.45-0.01-0.819-0.036-1.18h0.702l0.045,0.721h0.018c0.217-0.414,0.721-0.819,1.44-0.819   c0.604,0,1.54,0.36,1.54,1.854v2.602h-0.792v-2.512c0-0.702-0.262-1.287-1.009-1.287c-0.522,0-0.927,0.369-1.062,0.811   c-0.036,0.099-0.054,0.233-0.054,0.369v2.619h-0.792V267.58z"/>
	<path d="M143.889,270.596c-0.207,0.108-0.666,0.252-1.251,0.252c-1.314,0-2.17-0.891-2.17-2.224c0-1.341,0.918-2.313,2.341-2.313   c0.468,0,0.882,0.117,1.099,0.226l-0.181,0.612c-0.188-0.108-0.486-0.207-0.918-0.207c-0.999,0-1.539,0.737-1.539,1.647   c0,1.008,0.647,1.629,1.512,1.629c0.45,0,0.747-0.117,0.973-0.216L143.889,270.596z"/>
	<path d="M144.814,264.366h0.792v2.719h0.019c0.126-0.225,0.324-0.423,0.567-0.559c0.233-0.135,0.513-0.225,0.81-0.225   c0.586,0,1.521,0.36,1.521,1.863v2.593h-0.792v-2.503c0-0.702-0.261-1.296-1.008-1.296c-0.514,0-0.919,0.36-1.062,0.792   c-0.045,0.108-0.055,0.226-0.055,0.378v2.629h-0.792V264.366z"/>
	<path d="M150.251,268.724c0.018,1.071,0.702,1.513,1.494,1.513c0.567,0,0.909-0.1,1.207-0.226l0.135,0.567   c-0.279,0.126-0.757,0.27-1.449,0.27c-1.342,0-2.143-0.882-2.143-2.196s0.773-2.35,2.043-2.35c1.423,0,1.801,1.251,1.801,2.053   c0,0.162-0.018,0.288-0.027,0.369H150.251z M152.573,268.156c0.01-0.504-0.207-1.287-1.098-1.287c-0.802,0-1.152,0.738-1.216,1.287   H152.573z"/>
	<path d="M154.211,269.948c0.233,0.152,0.647,0.314,1.044,0.314c0.576,0,0.847-0.288,0.847-0.648c0-0.378-0.226-0.585-0.811-0.801   c-0.783-0.279-1.152-0.711-1.152-1.233c0-0.702,0.567-1.278,1.503-1.278c0.441,0,0.828,0.126,1.071,0.271l-0.197,0.576   c-0.172-0.108-0.486-0.253-0.892-0.253c-0.468,0-0.729,0.271-0.729,0.595c0,0.36,0.262,0.522,0.828,0.738   c0.757,0.288,1.144,0.666,1.144,1.314c0,0.765-0.594,1.305-1.629,1.305c-0.478,0-0.919-0.116-1.225-0.297L154.211,269.948z"/>
	<path d="M157.405,271.848c0.64-0.892,1.135-2.062,1.135-3.683c0-1.611-0.486-2.764-1.135-3.655h0.612   c0.576,0.738,1.18,1.891,1.18,3.664c0,1.765-0.604,2.908-1.18,3.674H157.405z"/>
</g>
<g>
	<path d="M169.866,256.662c0-0.656,0.392-1.119,1.031-1.392l-0.008-0.023c-0.575-0.272-0.823-0.72-0.823-1.168   c0-0.823,0.695-1.383,1.607-1.383c1.007,0,1.511,0.632,1.511,1.279c0,0.439-0.216,0.911-0.855,1.215v0.024   c0.647,0.256,1.047,0.712,1.047,1.343c0,0.904-0.775,1.512-1.767,1.512C170.522,258.069,169.866,257.422,169.866,256.662z    M172.665,256.63c0-0.632-0.44-0.936-1.144-1.136c-0.607,0.177-0.936,0.576-0.936,1.072c-0.024,0.527,0.376,0.991,1.039,0.991   C172.257,257.558,172.665,257.166,172.665,256.63z M170.729,254.031c0,0.52,0.393,0.8,0.992,0.96   c0.447-0.152,0.791-0.472,0.791-0.944c0-0.415-0.248-0.847-0.879-0.847C171.05,253.2,170.729,253.584,170.729,254.031z"/>
	<path d="M177.488,255.326c0,1.768-0.655,2.743-1.807,2.743c-1.016,0-1.703-0.952-1.72-2.671c0-1.743,0.752-2.702,1.808-2.702   C176.865,252.696,177.488,253.672,177.488,255.326z M174.666,255.406c0,1.352,0.416,2.119,1.056,2.119   c0.72,0,1.063-0.84,1.063-2.167c0-1.279-0.328-2.118-1.056-2.118C175.113,253.24,174.666,253.991,174.666,255.406z"/>
</g>
<g>
	<path d="M197.711,256.662c0-0.656,0.392-1.119,1.031-1.392l-0.008-0.023c-0.575-0.272-0.823-0.72-0.823-1.168   c0-0.823,0.695-1.383,1.607-1.383c1.007,0,1.511,0.632,1.511,1.279c0,0.439-0.216,0.911-0.855,1.215v0.024   c0.647,0.256,1.047,0.712,1.047,1.343c0,0.904-0.775,1.512-1.767,1.512C198.367,258.069,197.711,257.422,197.711,256.662z    M200.51,256.63c0-0.632-0.44-0.936-1.144-1.136c-0.607,0.177-0.936,0.576-0.936,1.072c-0.024,0.527,0.376,0.991,1.039,0.991   C200.102,257.558,200.51,257.166,200.51,256.63z M198.574,254.031c0,0.52,0.393,0.8,0.992,0.96   c0.447-0.152,0.791-0.472,0.791-0.944c0-0.415-0.248-0.847-0.879-0.847C198.895,253.2,198.574,253.584,198.574,254.031z"/>
	<path d="M204.981,253.376h-1.983l-0.199,1.335c0.12-0.016,0.231-0.032,0.424-0.032c0.399,0,0.799,0.088,1.119,0.28   c0.407,0.231,0.743,0.68,0.743,1.335c0,1.016-0.808,1.775-1.935,1.775c-0.567,0-1.048-0.16-1.295-0.32l0.176-0.535   c0.216,0.128,0.64,0.287,1.111,0.287c0.663,0,1.231-0.432,1.231-1.127c-0.009-0.672-0.456-1.151-1.495-1.151   c-0.296,0-0.528,0.032-0.72,0.056l0.336-2.494h2.486V253.376z"/>
</g>
<g>
	<path d="M123.27,12.014c0.336-0.056,0.775-0.104,1.335-0.104c0.688,0,1.191,0.16,1.511,0.448c0.297,0.256,0.473,0.648,0.473,1.127   c0,0.488-0.145,0.872-0.416,1.151c-0.368,0.392-0.968,0.592-1.647,0.592c-0.208,0-0.399-0.008-0.56-0.048v2.159h-0.695V12.014z    M123.965,14.612c0.152,0.04,0.344,0.056,0.576,0.056c0.839,0,1.351-0.408,1.351-1.151c0-0.712-0.503-1.056-1.271-1.056   c-0.305,0-0.536,0.024-0.656,0.056V14.612z"/>
	<path d="M130.804,15.372c0,1.431-0.991,2.055-1.927,2.055c-1.048,0-1.855-0.768-1.855-1.991c0-1.295,0.848-2.055,1.919-2.055   C130.052,13.381,130.804,14.188,130.804,15.372z M127.733,15.412c0,0.847,0.487,1.487,1.175,1.487c0.672,0,1.176-0.631,1.176-1.503   c0-0.656-0.328-1.487-1.159-1.487C128.093,13.909,127.733,14.676,127.733,15.412z"/>
	<path d="M131.693,14.732c0-0.496-0.016-0.896-0.032-1.263h0.632l0.031,0.664h0.017c0.288-0.472,0.743-0.752,1.375-0.752   c0.936,0,1.64,0.792,1.64,1.967c0,1.391-0.848,2.079-1.76,2.079c-0.512,0-0.959-0.224-1.191-0.607h-0.016v2.103h-0.695V14.732z    M132.389,15.764c0,0.104,0.016,0.2,0.032,0.288c0.128,0.488,0.552,0.823,1.056,0.823c0.743,0,1.175-0.607,1.175-1.495   c0-0.775-0.407-1.439-1.151-1.439c-0.479,0-0.928,0.344-1.063,0.871c-0.024,0.088-0.048,0.192-0.048,0.288V15.764z"/>
	<path d="M139.482,16.284c0,0.399,0.009,0.751,0.033,1.055h-0.624l-0.04-0.632h-0.016c-0.185,0.312-0.592,0.72-1.279,0.72   c-0.608,0-1.336-0.336-1.336-1.695v-2.263h0.703v2.143c0,0.735,0.225,1.231,0.864,1.231c0.472,0,0.8-0.328,0.927-0.64   c0.041-0.104,0.064-0.232,0.064-0.36v-2.375h0.703V16.284z"/>
	<path d="M140.652,11.662h0.704v5.677h-0.704V11.662z"/>
	<path d="M144.684,17.339l-0.057-0.488h-0.023c-0.216,0.304-0.632,0.576-1.184,0.576c-0.783,0-1.184-0.552-1.184-1.111   c0-0.936,0.832-1.447,2.327-1.439v-0.08c0-0.32-0.088-0.896-0.88-0.896c-0.359,0-0.735,0.112-1.007,0.288l-0.16-0.463   c0.319-0.208,0.784-0.344,1.271-0.344c1.183,0,1.472,0.808,1.472,1.583v1.447c0,0.335,0.016,0.664,0.063,0.927H144.684z    M144.58,15.364c-0.768-0.016-1.64,0.12-1.64,0.872c0,0.456,0.304,0.672,0.663,0.672c0.504,0,0.824-0.32,0.936-0.648   c0.024-0.072,0.041-0.152,0.041-0.224V15.364z"/>
	<path d="M147.213,12.357v1.112h1.007v0.536h-1.007v2.086c0,0.48,0.136,0.752,0.527,0.752c0.184,0,0.32-0.024,0.408-0.048   l0.031,0.527c-0.136,0.056-0.352,0.096-0.623,0.096c-0.328,0-0.592-0.104-0.76-0.296c-0.2-0.208-0.271-0.552-0.271-1.007v-2.111   h-0.6v-0.536h0.6v-0.928L147.213,12.357z"/>
	<path d="M149.797,12.381c0.008,0.24-0.168,0.432-0.448,0.432c-0.248,0-0.424-0.192-0.424-0.432c0-0.248,0.185-0.439,0.44-0.439   C149.629,11.942,149.797,12.134,149.797,12.381z M149.013,17.339v-3.87h0.704v3.87H149.013z"/>
	<path d="M154.387,15.372c0,1.431-0.991,2.055-1.927,2.055c-1.048,0-1.854-0.768-1.854-1.991c0-1.295,0.848-2.055,1.918-2.055   C153.635,13.381,154.387,14.188,154.387,15.372z M151.316,15.412c0,0.847,0.488,1.487,1.176,1.487c0.672,0,1.176-0.631,1.176-1.503   c0-0.656-0.328-1.487-1.16-1.487C151.677,13.909,151.316,14.676,151.316,15.412z"/>
	<path d="M155.277,14.517c0-0.4-0.008-0.728-0.032-1.047h0.624l0.039,0.64h0.017c0.192-0.368,0.64-0.728,1.279-0.728   c0.536,0,1.367,0.32,1.367,1.647v2.311h-0.704v-2.231c0-0.624-0.231-1.143-0.895-1.143c-0.465,0-0.824,0.328-0.943,0.719   c-0.033,0.088-0.049,0.208-0.049,0.328v2.327h-0.703V14.517z"/>
	<path d="M164.755,11.662v4.677c0,0.344,0.008,0.736,0.032,1h-0.632l-0.032-0.671h-0.016c-0.216,0.432-0.688,0.759-1.319,0.759   c-0.936,0-1.655-0.792-1.655-1.967c-0.008-1.288,0.791-2.079,1.735-2.079c0.591,0,0.991,0.28,1.167,0.592h0.016v-2.311H164.755z    M164.051,15.044c0-0.088-0.008-0.208-0.031-0.295c-0.104-0.448-0.488-0.816-1.016-0.816c-0.728,0-1.159,0.64-1.159,1.495   c0,0.784,0.384,1.431,1.144,1.431c0.471,0,0.903-0.312,1.031-0.839c0.023-0.096,0.031-0.192,0.031-0.304V15.044z"/>
	<path d="M166.709,12.381c0.008,0.24-0.168,0.432-0.448,0.432c-0.248,0-0.424-0.192-0.424-0.432c0-0.248,0.185-0.439,0.44-0.439   C166.541,11.942,166.709,12.134,166.709,12.381z M165.925,17.339v-3.87h0.704v3.87H165.925z"/>
	<path d="M167.701,16.619c0.208,0.136,0.576,0.28,0.928,0.28c0.512,0,0.752-0.256,0.752-0.576c0-0.335-0.201-0.52-0.721-0.711   c-0.695-0.248-1.023-0.632-1.023-1.095c0-0.624,0.504-1.136,1.336-1.136c0.392,0,0.735,0.112,0.951,0.24l-0.176,0.512   c-0.152-0.096-0.432-0.224-0.791-0.224c-0.416,0-0.648,0.24-0.648,0.528c0,0.32,0.232,0.464,0.736,0.656   c0.671,0.256,1.015,0.591,1.015,1.167c0,0.68-0.527,1.16-1.446,1.16c-0.424,0-0.816-0.104-1.088-0.264L167.701,16.619z"/>
	<path d="M171.812,12.357v1.112h1.008v0.536h-1.008v2.086c0,0.48,0.136,0.752,0.527,0.752c0.185,0,0.32-0.024,0.408-0.048   l0.032,0.527c-0.136,0.056-0.353,0.096-0.624,0.096c-0.328,0-0.592-0.104-0.76-0.296c-0.199-0.208-0.271-0.552-0.271-1.007v-2.111   h-0.6v-0.536h0.6v-0.928L171.812,12.357z"/>
	<path d="M173.613,14.676c0-0.456-0.008-0.848-0.032-1.207h0.616l0.023,0.759h0.031c0.177-0.52,0.601-0.848,1.072-0.848   c0.08,0,0.136,0.008,0.199,0.024v0.664c-0.071-0.016-0.144-0.024-0.239-0.024c-0.496,0-0.848,0.376-0.943,0.904   c-0.017,0.096-0.032,0.208-0.032,0.328v2.063h-0.695V14.676z"/>
	<path d="M177.044,12.381c0.008,0.24-0.168,0.432-0.448,0.432c-0.247,0-0.424-0.192-0.424-0.432c0-0.248,0.185-0.439,0.44-0.439   C176.876,11.942,177.044,12.134,177.044,12.381z M176.26,17.339v-3.87h0.704v3.87H176.26z"/>
	<path d="M178.101,17.339c0.017-0.264,0.032-0.656,0.032-1v-4.677h0.695v2.431h0.016c0.248-0.432,0.695-0.712,1.32-0.712   c0.959,0,1.639,0.8,1.631,1.975c0,1.383-0.872,2.071-1.735,2.071c-0.56,0-1.008-0.216-1.296-0.728h-0.023l-0.032,0.64H178.101z    M178.828,15.788c0,0.088,0.016,0.176,0.032,0.256c0.136,0.488,0.544,0.824,1.056,0.824c0.735,0,1.175-0.6,1.175-1.487   c0-0.775-0.399-1.439-1.151-1.439c-0.479,0-0.928,0.328-1.071,0.863c-0.017,0.08-0.04,0.176-0.04,0.288V15.788z"/>
	<path d="M185.922,16.284c0,0.399,0.009,0.751,0.033,1.055h-0.624l-0.04-0.632h-0.016c-0.185,0.312-0.592,0.72-1.279,0.72   c-0.608,0-1.336-0.336-1.336-1.695v-2.263h0.703v2.143c0,0.735,0.225,1.231,0.864,1.231c0.472,0,0.8-0.328,0.927-0.64   c0.041-0.104,0.064-0.232,0.064-0.36v-2.375h0.703V16.284z"/>
	<path d="M187.939,12.357v1.112h1.008v0.536h-1.008v2.086c0,0.48,0.137,0.752,0.528,0.752c0.184,0,0.319-0.024,0.407-0.048   l0.032,0.527c-0.136,0.056-0.352,0.096-0.624,0.096c-0.327,0-0.591-0.104-0.759-0.296c-0.2-0.208-0.272-0.552-0.272-1.007v-2.111   h-0.6v-0.536h0.6v-0.928L187.939,12.357z"/>
	<path d="M190.524,12.381c0.008,0.24-0.168,0.432-0.448,0.432c-0.247,0-0.424-0.192-0.424-0.432c0-0.248,0.185-0.439,0.44-0.439   C190.356,11.942,190.524,12.134,190.524,12.381z M189.74,17.339v-3.87h0.704v3.87H189.74z"/>
	<path d="M195.115,15.372c0,1.431-0.992,2.055-1.928,2.055c-1.047,0-1.854-0.768-1.854-1.991c0-1.295,0.848-2.055,1.919-2.055   C194.363,13.381,195.115,14.188,195.115,15.372z M192.045,15.412c0,0.847,0.487,1.487,1.176,1.487c0.671,0,1.175-0.631,1.175-1.503   c0-0.656-0.328-1.487-1.159-1.487C192.404,13.909,192.045,14.676,192.045,15.412z"/>
	<path d="M196.004,14.517c0-0.4-0.008-0.728-0.031-1.047h0.623l0.041,0.64h0.016c0.191-0.368,0.64-0.728,1.279-0.728   c0.535,0,1.367,0.32,1.367,1.647v2.311h-0.703v-2.231c0-0.624-0.232-1.143-0.896-1.143c-0.463,0-0.823,0.328-0.943,0.719   c-0.031,0.088-0.048,0.208-0.048,0.328v2.327h-0.704V14.517z"/>
</g>
<g>
	<path d="M116.486,240.414l-1.367-5.389h0.735l0.64,2.727c0.16,0.672,0.304,1.343,0.399,1.863h0.017   c0.088-0.536,0.256-1.176,0.439-1.871l0.72-2.719h0.728l0.655,2.734c0.152,0.64,0.296,1.279,0.376,1.847h0.016   c0.112-0.592,0.265-1.191,0.432-1.862l0.712-2.719h0.712l-1.527,5.389h-0.728l-0.68-2.807c-0.168-0.688-0.28-1.215-0.352-1.759   h-0.017c-0.096,0.536-0.216,1.063-0.415,1.759l-0.768,2.807H116.486z"/>
	<path d="M123.006,235.457c0.008,0.24-0.168,0.432-0.447,0.432c-0.248,0-0.424-0.191-0.424-0.432c0-0.248,0.184-0.439,0.439-0.439   C122.838,235.018,123.006,235.209,123.006,235.457z M122.223,240.414v-3.869h0.703v3.869H122.223z"/>
	<path d="M124.942,235.433v1.112h1.007v0.535h-1.007v2.087c0,0.479,0.136,0.752,0.527,0.752c0.184,0,0.32-0.024,0.408-0.048   l0.031,0.527c-0.136,0.056-0.352,0.096-0.623,0.096c-0.328,0-0.592-0.104-0.76-0.296c-0.2-0.208-0.271-0.552-0.271-1.007v-2.111   h-0.6v-0.535h0.6v-0.928L124.942,235.433z"/>
	<path d="M126.742,234.737h0.704v2.415h0.016c0.112-0.2,0.288-0.376,0.504-0.496c0.208-0.12,0.456-0.2,0.72-0.2   c0.52,0,1.352,0.32,1.352,1.655v2.303h-0.704v-2.223c0-0.623-0.231-1.151-0.896-1.151c-0.456,0-0.815,0.32-0.943,0.704   c-0.04,0.096-0.048,0.199-0.048,0.336v2.334h-0.704V234.737z"/>
	<path d="M131.966,235.457c0.008,0.24-0.168,0.432-0.447,0.432c-0.248,0-0.424-0.191-0.424-0.432c0-0.248,0.184-0.439,0.439-0.439   C131.798,235.018,131.966,235.209,131.966,235.457z M131.183,240.414v-3.869h0.703v3.869H131.183z"/>
	<path d="M133.055,237.592c0-0.399-0.008-0.728-0.032-1.047h0.624l0.04,0.64h0.016c0.192-0.368,0.64-0.729,1.279-0.729   c0.536,0,1.367,0.32,1.367,1.647v2.311h-0.703v-2.23c0-0.624-0.232-1.144-0.896-1.144c-0.464,0-0.824,0.328-0.943,0.72   c-0.032,0.088-0.049,0.208-0.049,0.328v2.326h-0.703V237.592z"/>
	<path d="M139.126,237.991v0.521h-1.976v-0.521H139.126z"/>
	<path d="M140.022,240.414v-3.334h-0.544v-0.535h0.544v-0.185c0-0.544,0.12-1.039,0.448-1.351c0.264-0.256,0.615-0.36,0.943-0.36   c0.248,0,0.464,0.056,0.6,0.112l-0.096,0.543c-0.104-0.048-0.248-0.088-0.448-0.088c-0.6,0-0.752,0.528-0.752,1.12v0.208h0.936   v0.535h-0.936v3.334H140.022z"/>
	<path d="M144.43,240.414l-0.057-0.487h-0.023c-0.216,0.304-0.632,0.575-1.184,0.575c-0.783,0-1.184-0.552-1.184-1.111   c0-0.936,0.832-1.447,2.327-1.438v-0.08c0-0.32-0.088-0.896-0.88-0.896c-0.359,0-0.735,0.111-1.007,0.287l-0.16-0.463   c0.319-0.208,0.783-0.345,1.271-0.345c1.183,0,1.471,0.808,1.471,1.584v1.447c0,0.335,0.017,0.663,0.064,0.927H144.43z    M144.325,238.439c-0.768-0.016-1.639,0.12-1.639,0.871c0,0.456,0.304,0.672,0.663,0.672c0.504,0,0.824-0.319,0.936-0.647   c0.024-0.072,0.04-0.152,0.04-0.224V238.439z"/>
	<path d="M146.143,237.592c0-0.399-0.008-0.728-0.032-1.047h0.616l0.031,0.623h0.024c0.216-0.367,0.575-0.712,1.215-0.712   c0.528,0,0.928,0.32,1.096,0.776h0.016c0.12-0.216,0.272-0.384,0.433-0.504c0.231-0.176,0.487-0.272,0.855-0.272   c0.512,0,1.271,0.336,1.271,1.68v2.278h-0.688v-2.19c0-0.744-0.271-1.191-0.839-1.191c-0.4,0-0.712,0.296-0.832,0.64   c-0.032,0.096-0.056,0.224-0.056,0.352v2.391h-0.688v-2.318c0-0.616-0.272-1.063-0.808-1.063c-0.44,0-0.76,0.352-0.872,0.703   c-0.04,0.104-0.056,0.225-0.056,0.345v2.334h-0.688V237.592z"/>
	<path d="M153.598,235.457c0.008,0.24-0.168,0.432-0.447,0.432c-0.248,0-0.424-0.191-0.424-0.432c0-0.248,0.184-0.439,0.439-0.439   C153.43,235.018,153.598,235.209,153.598,235.457z M152.814,240.414v-3.869h0.703v3.869H152.814z"/>
	<path d="M154.687,234.737h0.703v5.677h-0.703V234.737z"/>
	<path d="M156.83,236.545l0.848,2.286c0.088,0.256,0.184,0.56,0.248,0.792h0.016c0.072-0.232,0.152-0.528,0.248-0.808l0.768-2.271   h0.743l-1.056,2.758c-0.503,1.327-0.847,2.007-1.327,2.423c-0.344,0.304-0.688,0.424-0.863,0.456l-0.176-0.592   c0.176-0.056,0.408-0.168,0.615-0.344c0.192-0.152,0.433-0.424,0.592-0.784c0.032-0.071,0.057-0.128,0.057-0.168   c0-0.039-0.017-0.096-0.049-0.184l-1.431-3.565H156.83z"/>
	<path d="M165.38,234.737v4.678c0,0.344,0.008,0.735,0.032,0.999h-0.632l-0.032-0.671h-0.016c-0.216,0.432-0.688,0.759-1.319,0.759   c-0.936,0-1.655-0.791-1.655-1.967c-0.008-1.287,0.792-2.079,1.735-2.079c0.592,0,0.991,0.28,1.167,0.592h0.017v-2.311H165.38z    M164.677,238.119c0-0.088-0.008-0.207-0.032-0.295c-0.104-0.448-0.487-0.816-1.016-0.816c-0.728,0-1.159,0.64-1.159,1.495   c0,0.784,0.384,1.432,1.144,1.432c0.472,0,0.903-0.312,1.031-0.84c0.024-0.096,0.032-0.191,0.032-0.304V238.119z"/>
	<path d="M167.333,235.457c0.008,0.24-0.168,0.432-0.447,0.432c-0.248,0-0.424-0.191-0.424-0.432c0-0.248,0.184-0.439,0.439-0.439   C167.165,235.018,167.333,235.209,167.333,235.457z M166.55,240.414v-3.869h0.703v3.869H166.55z"/>
	<path d="M168.326,239.694c0.208,0.137,0.575,0.28,0.927,0.28c0.512,0,0.752-0.256,0.752-0.576c0-0.335-0.2-0.52-0.72-0.711   c-0.695-0.248-1.023-0.632-1.023-1.096c0-0.624,0.504-1.136,1.335-1.136c0.393,0,0.736,0.112,0.952,0.24l-0.176,0.512   c-0.152-0.096-0.432-0.224-0.792-0.224c-0.416,0-0.647,0.239-0.647,0.527c0,0.32,0.231,0.464,0.735,0.656   c0.672,0.256,1.016,0.591,1.016,1.167c0,0.68-0.527,1.159-1.447,1.159c-0.424,0-0.815-0.104-1.087-0.264L168.326,239.694z"/>
	<path d="M172.438,235.433v1.112h1.007v0.535h-1.007v2.087c0,0.479,0.136,0.752,0.527,0.752c0.184,0,0.32-0.024,0.408-0.048   l0.031,0.527c-0.136,0.056-0.352,0.096-0.623,0.096c-0.328,0-0.592-0.104-0.76-0.296c-0.2-0.208-0.271-0.552-0.271-1.007v-2.111   h-0.6v-0.535h0.6v-0.928L172.438,235.433z"/>
	<path d="M174.237,237.752c0-0.456-0.008-0.848-0.031-1.207h0.615l0.024,0.759h0.031c0.177-0.52,0.6-0.848,1.072-0.848   c0.079,0,0.136,0.009,0.199,0.024v0.664c-0.071-0.017-0.144-0.024-0.239-0.024c-0.496,0-0.848,0.376-0.944,0.903   c-0.016,0.096-0.031,0.208-0.031,0.328v2.062h-0.696V237.752z"/>
	<path d="M177.669,235.457c0.008,0.24-0.168,0.432-0.447,0.432c-0.248,0-0.424-0.191-0.424-0.432c0-0.248,0.184-0.439,0.439-0.439   C177.501,235.018,177.669,235.209,177.669,235.457z M176.886,240.414v-3.869h0.703v3.869H176.886z"/>
	<path d="M178.726,240.414c0.017-0.264,0.032-0.655,0.032-0.999v-4.678h0.695v2.431h0.017c0.247-0.432,0.695-0.712,1.319-0.712   c0.959,0,1.639,0.8,1.631,1.976c0,1.383-0.872,2.07-1.735,2.07c-0.56,0-1.008-0.216-1.295-0.728h-0.024l-0.032,0.64H178.726z    M179.453,238.863c0,0.088,0.017,0.176,0.032,0.256c0.136,0.487,0.544,0.823,1.056,0.823c0.735,0,1.175-0.6,1.175-1.487   c0-0.775-0.399-1.438-1.151-1.438c-0.479,0-0.927,0.327-1.071,0.863c-0.016,0.08-0.04,0.176-0.04,0.288V238.863z"/>
	<path d="M186.548,239.359c0,0.399,0.008,0.751,0.032,1.055h-0.624l-0.04-0.632H185.9c-0.185,0.312-0.592,0.72-1.279,0.72   c-0.608,0-1.336-0.336-1.336-1.694v-2.263h0.704v2.143c0,0.735,0.224,1.231,0.863,1.231c0.472,0,0.8-0.328,0.928-0.64   c0.04-0.104,0.063-0.232,0.063-0.36v-2.374h0.704V239.359z"/>
	<path d="M188.565,235.433v1.112h1.007v0.535h-1.007v2.087c0,0.479,0.136,0.752,0.527,0.752c0.184,0,0.32-0.024,0.408-0.048   l0.031,0.527c-0.136,0.056-0.352,0.096-0.623,0.096c-0.328,0-0.592-0.104-0.76-0.296c-0.2-0.208-0.271-0.552-0.271-1.007v-2.111   h-0.6v-0.535h0.6v-0.928L188.565,235.433z"/>
	<path d="M191.148,235.457c0.008,0.24-0.168,0.432-0.447,0.432c-0.248,0-0.424-0.191-0.424-0.432c0-0.248,0.184-0.439,0.439-0.439   C190.98,235.018,191.148,235.209,191.148,235.457z M190.365,240.414v-3.869h0.703v3.869H190.365z"/>
	<path d="M195.739,238.447c0,1.432-0.991,2.055-1.927,2.055c-1.048,0-1.855-0.768-1.855-1.99c0-1.296,0.848-2.056,1.919-2.056   C194.987,236.456,195.739,237.264,195.739,238.447z M192.669,238.487c0,0.848,0.487,1.487,1.176,1.487   c0.671,0,1.175-0.632,1.175-1.503c0-0.656-0.328-1.487-1.159-1.487C193.028,236.984,192.669,237.752,192.669,238.487z"/>
	<path d="M196.63,237.592c0-0.399-0.008-0.728-0.032-1.047h0.624l0.04,0.64h0.016c0.192-0.368,0.64-0.729,1.279-0.729   c0.536,0,1.367,0.32,1.367,1.647v2.311h-0.703v-2.23c0-0.624-0.232-1.144-0.896-1.144c-0.464,0-0.824,0.328-0.943,0.72   c-0.032,0.088-0.049,0.208-0.049,0.328v2.326h-0.703V237.592z"/>
</g>
<g>
	<path d="M14.619,122.101h2.902v0.584h-2.207v1.791h2.039v0.576h-2.039v2.438h-0.695V122.101z"/>
	<path d="M18.634,125.683c0.016,0.952,0.624,1.343,1.327,1.343c0.504,0,0.808-0.088,1.071-0.2l0.12,0.504   c-0.248,0.112-0.672,0.24-1.287,0.24c-1.191,0-1.903-0.784-1.903-1.951s0.688-2.087,1.815-2.087c1.264,0,1.599,1.112,1.599,1.823   c0,0.144-0.016,0.256-0.024,0.328H18.634z M20.697,125.179c0.008-0.448-0.184-1.144-0.975-1.144c-0.712,0-1.023,0.656-1.08,1.144   H20.697z"/>
	<path d="M22.53,123.62l0.512,1.967c0.112,0.432,0.216,0.832,0.288,1.231h0.024c0.088-0.392,0.216-0.808,0.344-1.224l0.632-1.975   h0.592l0.6,1.935c0.144,0.464,0.256,0.872,0.344,1.264h0.024c0.064-0.392,0.168-0.8,0.296-1.255l0.552-1.943h0.695l-1.247,3.87   h-0.64l-0.592-1.847c-0.136-0.432-0.248-0.815-0.344-1.271h-0.016c-0.096,0.463-0.216,0.863-0.352,1.279l-0.624,1.839h-0.64   l-1.167-3.87H22.53z"/>
	<path d="M28.45,125.683c0.016,0.952,0.624,1.343,1.327,1.343c0.504,0,0.808-0.088,1.071-0.2l0.12,0.504   c-0.248,0.112-0.672,0.24-1.287,0.24c-1.191,0-1.903-0.784-1.903-1.951s0.688-2.087,1.815-2.087c1.264,0,1.599,1.112,1.599,1.823   c0,0.144-0.016,0.256-0.024,0.328H28.45z M30.512,125.179c0.008-0.448-0.184-1.144-0.975-1.144c-0.712,0-1.023,0.656-1.08,1.144   H30.512z"/>
	<path d="M32.065,124.827c0-0.456-0.008-0.848-0.032-1.207h0.616l0.024,0.759h0.032c0.176-0.52,0.6-0.848,1.072-0.848   c0.08,0,0.136,0.008,0.2,0.024v0.664c-0.072-0.016-0.144-0.024-0.24-0.024c-0.496,0-0.848,0.376-0.943,0.904   c-0.016,0.096-0.032,0.208-0.032,0.328v2.063h-0.696V124.827z"/>
</g>
<g>
	<path d="M14.619,131.756h2.902v0.584h-2.207v1.791h2.039v0.576h-2.039v2.438h-0.695V131.756z"/>
	<path d="M18.634,135.338c0.016,0.952,0.624,1.343,1.327,1.343c0.504,0,0.808-0.088,1.071-0.2l0.12,0.504   c-0.248,0.112-0.672,0.24-1.287,0.24c-1.191,0-1.903-0.784-1.903-1.951s0.688-2.087,1.815-2.087c1.264,0,1.599,1.112,1.599,1.823   c0,0.144-0.016,0.256-0.024,0.328H18.634z M20.697,134.835c0.008-0.448-0.184-1.144-0.975-1.144c-0.712,0-1.023,0.656-1.08,1.144   H20.697z"/>
	<path d="M22.53,133.276l0.512,1.967c0.112,0.432,0.216,0.832,0.288,1.231h0.024c0.088-0.392,0.216-0.808,0.344-1.224l0.632-1.975   h0.592l0.6,1.935c0.144,0.464,0.256,0.872,0.344,1.264h0.024c0.064-0.392,0.168-0.8,0.296-1.255l0.552-1.943h0.695l-1.247,3.87   h-0.64l-0.592-1.847c-0.136-0.432-0.248-0.815-0.344-1.271h-0.016c-0.096,0.463-0.216,0.863-0.352,1.279l-0.624,1.839h-0.64   l-1.167-3.87H22.53z"/>
	<path d="M28.45,135.338c0.016,0.952,0.624,1.343,1.327,1.343c0.504,0,0.808-0.088,1.071-0.2l0.12,0.504   c-0.248,0.112-0.672,0.24-1.287,0.24c-1.191,0-1.903-0.784-1.903-1.951s0.688-2.087,1.815-2.087c1.264,0,1.599,1.112,1.599,1.823   c0,0.144-0.016,0.256-0.024,0.328H28.45z M30.512,134.835c0.008-0.448-0.184-1.144-0.975-1.144c-0.712,0-1.023,0.656-1.08,1.144   H30.512z"/>
	<path d="M32.065,134.483c0-0.456-0.008-0.848-0.032-1.207h0.616l0.024,0.759h0.032c0.176-0.52,0.6-0.848,1.072-0.848   c0.08,0,0.136,0.008,0.2,0.024v0.664c-0.072-0.016-0.144-0.024-0.24-0.024c-0.496,0-0.848,0.376-0.943,0.904   c-0.016,0.096-0.032,0.208-0.032,0.328v2.063h-0.696V134.483z"/>
</g>
<g>
	<path d="M1.465,177.568h2.539v-2.935H1.465v-0.793h6.068v0.793H4.688v2.935h2.845v0.783H1.465V177.568z"/>
	<path d="M5.318,168.567c1.612,0,2.314,1.116,2.314,2.17c0,1.179-0.864,2.088-2.242,2.088c-1.458,0-2.314-0.954-2.314-2.16   C3.077,169.413,3.986,168.567,5.318,168.567z M5.364,172.024c0.954,0,1.674-0.549,1.674-1.324c0-0.756-0.711-1.322-1.692-1.322   c-0.738,0-1.675,0.369-1.675,1.305C3.671,171.619,4.535,172.024,5.364,172.024z"/>
	<path d="M3.176,167.317l2.215-0.576c0.486-0.126,0.936-0.243,1.386-0.324v-0.027c-0.441-0.099-0.909-0.242-1.377-0.387   l-2.224-0.711v-0.666l2.179-0.676c0.522-0.162,0.981-0.288,1.422-0.387v-0.027c-0.441-0.072-0.9-0.189-1.413-0.333l-2.188-0.621   v-0.783l4.357,1.404v0.72l-2.08,0.666c-0.486,0.154-0.918,0.279-1.432,0.388v0.019c0.522,0.107,0.973,0.242,1.44,0.396l2.071,0.702   v0.721l-4.357,1.314V167.317z"/>
	<path d="M4.355,159.101c-0.45,0-0.819,0.009-1.18,0.036v-0.693l0.702-0.036v-0.027c-0.414-0.242-0.801-0.647-0.801-1.367   c0-0.595,0.36-1.045,0.874-1.234v-0.018c-0.243-0.135-0.432-0.307-0.567-0.486c-0.198-0.262-0.306-0.549-0.306-0.963   c0-0.576,0.378-1.432,1.891-1.432h2.566v0.773H5.066c-0.837,0-1.341,0.307-1.341,0.945c0,0.451,0.333,0.802,0.72,0.938   c0.108,0.035,0.252,0.062,0.396,0.062h2.692v0.774H4.922c-0.693,0-1.197,0.306-1.197,0.909c0,0.495,0.396,0.855,0.792,0.98   c0.117,0.046,0.252,0.063,0.387,0.063h2.629v0.774H4.355z"/>
	<path d="M7.533,149.183l-0.549,0.062v0.027c0.342,0.242,0.648,0.711,0.648,1.332c0,0.883-0.621,1.332-1.251,1.332   c-1.053,0-1.629-0.936-1.621-2.619H4.67c-0.36,0-1.008,0.099-1.008,0.99c0,0.404,0.126,0.828,0.324,1.135l-0.522,0.18   c-0.234-0.36-0.387-0.883-0.387-1.432c0-1.332,0.91-1.656,1.783-1.656h1.629c0.378,0,0.748-0.019,1.044-0.072V149.183z    M5.31,149.299c-0.018,0.864,0.135,1.846,0.981,1.846c0.513,0,0.756-0.342,0.756-0.747c0-0.567-0.36-0.928-0.729-1.053   c-0.081-0.027-0.171-0.046-0.252-0.046H5.31z"/>
	<path d="M4.355,147.257c-0.45,0-0.819,0.009-1.18,0.036v-0.702l0.72-0.045v-0.018c-0.414-0.217-0.819-0.721-0.819-1.441   c0-0.604,0.36-1.539,1.855-1.539h2.602v0.792H5.021c-0.702,0-1.288,0.261-1.288,1.009c0,0.521,0.369,0.927,0.811,1.062   c0.099,0.035,0.234,0.054,0.369,0.054h2.62v0.792H4.355z"/>
	<path d="M3.176,142.09l2.575-0.954c0.288-0.099,0.63-0.207,0.892-0.279v-0.018c-0.261-0.081-0.594-0.171-0.909-0.279l-2.557-0.864   v-0.837l3.106,1.188c1.495,0.567,2.26,0.954,2.728,1.494c0.342,0.387,0.477,0.774,0.513,0.973l-0.667,0.198   c-0.063-0.198-0.189-0.459-0.387-0.693c-0.171-0.216-0.477-0.486-0.882-0.667c-0.081-0.036-0.144-0.063-0.189-0.063   c-0.045,0-0.108,0.018-0.207,0.054l-4.015,1.611V142.09z"/>
	<path d="M4.598,136.232c-0.558,0-1.008,0.018-1.422,0.036v-0.711l0.748-0.036v-0.018c-0.531-0.324-0.847-0.837-0.847-1.549   c0-1.053,0.892-1.845,2.215-1.845c1.566,0,2.341,0.954,2.341,1.98c0,0.576-0.252,1.08-0.684,1.341v0.018h2.368v0.783H4.598z    M5.76,135.449c0.117,0,0.225-0.018,0.324-0.036c0.549-0.144,0.927-0.621,0.927-1.188c0-0.837-0.685-1.324-1.684-1.324   c-0.874,0-1.621,0.459-1.621,1.296c0,0.54,0.387,1.044,0.981,1.197c0.099,0.027,0.216,0.054,0.324,0.054H5.76z"/>
	<path d="M5.499,130.67c1.071-0.018,1.513-0.702,1.513-1.495c0-0.567-0.099-0.909-0.225-1.207l0.567-0.135   c0.126,0.279,0.27,0.756,0.27,1.449c0,1.341-0.882,2.143-2.196,2.143c-1.314,0-2.35-0.774-2.35-2.043c0-1.422,1.251-1.8,2.053-1.8   c0.162,0,0.288,0.018,0.369,0.027V130.67z M4.932,128.347c-0.504-0.009-1.288,0.207-1.288,1.098c0,0.801,0.738,1.152,1.288,1.215   V128.347z"/>
	<path d="M5.318,122.659c1.612,0,2.314,1.117,2.314,2.17c0,1.179-0.864,2.088-2.242,2.088c-1.458,0-2.314-0.954-2.314-2.161   C3.077,123.505,3.986,122.659,5.318,122.659z M5.364,126.116c0.954,0,1.674-0.549,1.674-1.323c0-0.756-0.711-1.323-1.692-1.323   c-0.738,0-1.675,0.369-1.675,1.305C3.671,125.711,4.535,126.116,5.364,126.116z"/>
	<path d="M4.598,121.661c-0.558,0-1.008,0.018-1.422,0.036v-0.711l0.748-0.036v-0.018c-0.531-0.324-0.847-0.837-0.847-1.549   c0-1.053,0.892-1.845,2.215-1.845c1.566,0,2.341,0.954,2.341,1.98c0,0.576-0.252,1.08-0.684,1.341v0.018h2.368v0.783H4.598z    M5.76,120.878c0.117,0,0.225-0.018,0.324-0.036c0.549-0.144,0.927-0.621,0.927-1.188c0-0.837-0.685-1.323-1.684-1.323   c-0.874,0-1.621,0.459-1.621,1.296c0,0.54,0.387,1.044,0.981,1.197c0.099,0.027,0.216,0.054,0.324,0.054H5.76z"/>
	<path d="M1.141,116.54v-0.792h6.392v0.792H1.141z"/>
	<path d="M5.499,113.975c1.071-0.018,1.513-0.703,1.513-1.495c0-0.567-0.099-0.909-0.225-1.207l0.567-0.135   c0.126,0.279,0.27,0.756,0.27,1.449c0,1.341-0.882,2.143-2.196,2.143c-1.314,0-2.35-0.774-2.35-2.043c0-1.422,1.251-1.8,2.053-1.8   c0.162,0,0.288,0.018,0.369,0.027V113.975z M4.932,111.652c-0.504-0.009-1.288,0.207-1.288,1.098c0,0.801,0.738,1.152,1.288,1.215   V111.652z"/>
	<path d="M7.533,105.587l-0.549,0.063v0.027c0.342,0.243,0.648,0.711,0.648,1.333c0,0.882-0.621,1.333-1.251,1.333   c-1.053,0-1.629-0.937-1.621-2.62H4.67c-0.36,0-1.008,0.099-1.008,0.99c0,0.405,0.126,0.829,0.324,1.135l-0.522,0.18   c-0.234-0.36-0.387-0.882-0.387-1.431c0-1.333,0.91-1.657,1.783-1.657h1.629c0.378,0,0.748-0.018,1.044-0.072V105.587z    M5.31,105.704c-0.018,0.864,0.135,1.845,0.981,1.845c0.513,0,0.756-0.342,0.756-0.747c0-0.567-0.36-0.927-0.729-1.053   c-0.081-0.027-0.171-0.045-0.252-0.045H5.31z"/>
	<path d="M4.535,103.662c-0.513,0-0.954,0.009-1.359,0.036v-0.693l0.855-0.027v-0.036c-0.585-0.198-0.955-0.675-0.955-1.207   c0-0.09,0.009-0.153,0.027-0.225h0.747c-0.018,0.081-0.027,0.162-0.027,0.271c0,0.558,0.423,0.954,1.017,1.062   c0.108,0.018,0.234,0.036,0.369,0.036h2.323v0.783H4.535z"/>
	<path d="M5.499,100.368c1.071-0.018,1.513-0.703,1.513-1.495c0-0.567-0.099-0.909-0.225-1.207l0.567-0.135   c0.126,0.279,0.27,0.756,0.27,1.449c0,1.341-0.882,2.143-2.196,2.143c-1.314,0-2.35-0.774-2.35-2.043c0-1.422,1.251-1.8,2.053-1.8   c0.162,0,0.288,0.018,0.369,0.027V100.368z M4.932,98.045c-0.504-0.009-1.288,0.207-1.288,1.098c0,0.801,0.738,1.152,1.288,1.215   V98.045z"/>
	<path d="M1.924,93.438h1.251v-1.134h0.604v1.134h2.35c0.54,0,0.846-0.153,0.846-0.594c0-0.207-0.027-0.36-0.054-0.459l0.594-0.036   c0.063,0.153,0.108,0.396,0.108,0.702c0,0.369-0.117,0.666-0.333,0.855c-0.234,0.225-0.621,0.306-1.134,0.306H3.779v0.675H3.176   v-0.675H2.131L1.924,93.438z"/>
	<path d="M1.141,91.413v-0.792H3.86v-0.018c-0.225-0.126-0.423-0.324-0.558-0.567c-0.135-0.234-0.225-0.513-0.225-0.81   c0-0.585,0.36-1.521,1.864-1.521h2.593v0.792H5.03c-0.702,0-1.296,0.261-1.296,1.008c0,0.513,0.36,0.918,0.792,1.062   c0.108,0.045,0.225,0.054,0.378,0.054h2.629v0.792H1.141z"/>
	<path d="M7.533,84.005l-0.549,0.063v0.027c0.342,0.243,0.648,0.711,0.648,1.333c0,0.882-0.621,1.333-1.251,1.333   c-1.053,0-1.629-0.937-1.621-2.62H4.67c-0.36,0-1.008,0.099-1.008,0.991c0,0.405,0.126,0.828,0.324,1.134l-0.522,0.18   c-0.234-0.36-0.387-0.882-0.387-1.431c0-1.333,0.91-1.657,1.783-1.657h1.629c0.378,0,0.748-0.018,1.044-0.072V84.005z M5.31,84.122   c-0.018,0.864,0.135,1.846,0.981,1.846c0.513,0,0.756-0.342,0.756-0.747c0-0.567-0.36-0.927-0.729-1.053   c-0.081-0.027-0.171-0.045-0.252-0.045H5.31z"/>
	<path d="M1.924,81.162h1.251v-1.134h0.604v1.134h2.35c0.54,0,0.846-0.153,0.846-0.594c0-0.207-0.027-0.36-0.054-0.459l0.594-0.036   c0.063,0.153,0.108,0.396,0.108,0.702c0,0.369-0.117,0.666-0.333,0.855c-0.234,0.225-0.621,0.306-1.134,0.306H3.779v0.675H3.176   v-0.675H2.131L1.924,81.162z"/>
	<path d="M1.924,76.275h1.251v-1.134h0.604v1.134h2.35c0.54,0,0.846-0.153,0.846-0.594c0-0.207-0.027-0.36-0.054-0.459l0.594-0.036   c0.063,0.153,0.108,0.396,0.108,0.702c0,0.369-0.117,0.666-0.333,0.855c-0.234,0.225-0.621,0.306-1.134,0.306H3.779v0.675H3.176   v-0.675H2.131L1.924,76.275z"/>
	<path d="M7.533,71.838l-0.549,0.063v0.027c0.342,0.243,0.648,0.711,0.648,1.333c0,0.882-0.621,1.333-1.251,1.333   c-1.053,0-1.629-0.937-1.621-2.62H4.67c-0.36,0-1.008,0.099-1.008,0.99c0,0.405,0.126,0.829,0.324,1.135l-0.522,0.18   c-0.234-0.36-0.387-0.882-0.387-1.431c0-1.333,0.91-1.657,1.783-1.657h1.629c0.378,0,0.748-0.018,1.044-0.072V71.838z M5.31,71.955   C5.292,72.819,5.445,73.8,6.291,73.8c0.513,0,0.756-0.342,0.756-0.747c0-0.567-0.36-0.927-0.729-1.053   c-0.081-0.027-0.171-0.045-0.252-0.045H5.31z"/>
	<path d="M1.141,69.913v-0.792h6.392v0.792H1.141z"/>
	<path d="M1.141,67.789v-0.792h6.392v0.792H1.141z"/>
</g>
<line fill="none" stroke="#000000" stroke-width="0.5" stroke-linecap="square" stroke-miterlimit="10" x1="43.725" y1="4.452" x2="43.725" y2="125.769"/>
<line fill="none" stroke="#000000" stroke-width="0.5" stroke-linecap="square" stroke-miterlimit="10" x1="43.725" y1="125.769" x2="40.725" y2="125.769"/>
<line fill="none" stroke="#000000" stroke-width="0.5" stroke-linecap="square" stroke-miterlimit="10" x1="43.725" y1="95.439" x2="40.725" y2="95.439"/>
<line fill="none" stroke="#000000" stroke-width="0.5" stroke-linecap="square" stroke-miterlimit="10" x1="43.725" y1="65.11" x2="40.725" y2="65.11"/>
<line fill="none" stroke="#000000" stroke-width="0.5" stroke-linecap="square" stroke-miterlimit="10" x1="43.725" y1="34.781" x2="40.725" y2="34.781"/>
<line fill="none" stroke="#000000" stroke-width="0.5" stroke-linecap="square" stroke-miterlimit="10" x1="43.725" y1="4.452" x2="40.725" y2="4.452"/>
<line fill="none" stroke="#000000" stroke-width="0.5" stroke-linecap="square" stroke-miterlimit="10" x1="43.725" y1="134.665" x2="43.725" y2="241.987"/>
<line fill="none" stroke="#000000" stroke-width="0.5" stroke-linecap="square" stroke-miterlimit="10" x1="43.725" y1="241.987" x2="40.725" y2="241.987"/>
<line fill="none" stroke="#000000" stroke-width="0.5" stroke-linecap="square" stroke-miterlimit="10" x1="43.725" y1="215.156" x2="40.725" y2="215.156"/>
<line fill="none" stroke="#000000" stroke-width="0.5" stroke-linecap="square" stroke-miterlimit="10" x1="43.725" y1="188.326" x2="40.725" y2="188.326"/>
<line fill="none" stroke="#000000" stroke-width="0.5" stroke-linecap="square" stroke-miterlimit="10" x1="43.725" y1="161.495" x2="40.725" y2="161.495"/>
<line fill="none" stroke="#000000" stroke-width="0.5" stroke-linecap="square" stroke-miterlimit="10" x1="43.725" y1="134.665" x2="40.725" y2="134.665"/>
<line fill="none" stroke="#000000" stroke-width="0.5" stroke-linecap="square" stroke-miterlimit="10" x1="61.3" y1="246.121" x2="201.591" y2="246.121"/>
<line fill="none" stroke="#000000" stroke-width="0.5" stroke-linecap="square" stroke-miterlimit="10" x1="201.591" y1="246.121" x2="201.591" y2="249.121"/>
<line fill="none" stroke="#000000" stroke-width="0.5" stroke-linecap="square" stroke-miterlimit="10" x1="173.532" y1="246.121" x2="173.532" y2="249.121"/>
<line fill="none" stroke="#000000" stroke-width="0.5" stroke-linecap="square" stroke-miterlimit="10" x1="145.475" y1="246.121" x2="145.475" y2="249.121"/>
<line fill="none" stroke="#000000" stroke-width="0.5" stroke-linecap="square" stroke-miterlimit="10" x1="117.416" y1="246.121" x2="117.416" y2="249.121"/>
<line fill="none" stroke="#000000" stroke-width="0.5" stroke-linecap="square" stroke-miterlimit="10" x1="89.358" y1="246.121" x2="89.358" y2="249.121"/>
<line fill="none" stroke="#000000" stroke-width="0.5" stroke-linecap="square" stroke-miterlimit="10" x1="61.3" y1="246.121" x2="61.3" y2="249.121"/>
<line fill="none" stroke="#000000" stroke-width="0.5" stroke-linecap="square" stroke-miterlimit="10" x1="49.695" y1="125.769" x2="207.664" y2="125.769"/>
<line fill="none" stroke="#000000" stroke-width="0.5" stroke-linecap="square" stroke-miterlimit="10" x1="49.695" y1="134.665" x2="207.664" y2="134.665"/>
<rect x="55.59" y="125.212" fill="#CCCCCC" stroke="#000000" stroke-width="0.5" stroke-linecap="square" stroke-miterlimit="10" width="5.629" height="0.557"/>
<rect x="72.412" y="134.665" fill="#CCCCCC" stroke="#000000" stroke-width="0.5" stroke-linecap="square" stroke-miterlimit="10" width="5.629" height="0.462"/>
<rect x="78.041" y="134.665" fill="#CCCCCC" stroke="#000000" stroke-width="0.5" stroke-linecap="square" stroke-miterlimit="10" width="5.628" height="0.557"/>
<rect x="83.654" y="134.665" fill="#CCCCCC" stroke="#000000" stroke-width="0.5" stroke-linecap="square" stroke-miterlimit="10" width="5.629" height="1.989"/>
<rect x="89.269" y="134.665" fill="#CCCCCC" stroke="#000000" stroke-width="0.5" stroke-linecap="square" stroke-miterlimit="10" width="5.629" height="5.775"/>
<rect x="94.883" y="134.665" fill="#CCCCCC" stroke="#000000" stroke-width="0.5" stroke-linecap="square" stroke-miterlimit="10" width="5.629" height="13.814"/>
<rect x="100.497" y="134.665" fill="#CCCCCC" stroke="#000000" stroke-width="0.5" stroke-linecap="square" stroke-miterlimit="10" width="5.628" height="31.64"/>
<rect x="106.11" y="134.665" fill="#CCCCCC" stroke="#000000" stroke-width="0.5" stroke-linecap="square" stroke-miterlimit="10" width="5.629" height="53.076"/>
<rect x="111.725" y="134.665" fill="#CCCCCC" stroke="#000000" stroke-width="0.5" stroke-linecap="square" stroke-miterlimit="10" width="5.629" height="72.911"/>
<rect x="117.339" y="134.665" fill="#CCCCCC" stroke="#000000" stroke-width="0.5" stroke-linecap="square" stroke-miterlimit="10" width="5.629" height="90.037"/>
<rect x="122.953" y="134.665" fill="#CCCCCC" stroke="#000000" stroke-width="0.5" stroke-linecap="square" stroke-miterlimit="10" width="5.629" height="87.241"/>
<rect x="128.567" y="134.665" fill="#CCCCCC" stroke="#000000" stroke-width="0.5" stroke-linecap="square" stroke-miterlimit="10" width="5.628" height="75.183"/>
<rect x="134.181" y="134.665" fill="#CCCCCC" stroke="#000000" stroke-width="0.5" stroke-linecap="square" stroke-miterlimit="10" width="5.629" height="51.096"/>
<rect x="139.795" y="134.665" fill="#CCCCCC" stroke="#000000" stroke-width="0.5" stroke-linecap="square" stroke-miterlimit="10" width="5.629" height="29.892"/>
<rect x="145.409" y="134.665" fill="#CCCCCC" stroke="#000000" stroke-width="0.5" stroke-linecap="square" stroke-miterlimit="10" width="5.629" height="15.562"/>
<rect x="151.023" y="134.665" fill="#CCCCCC" stroke="#000000" stroke-width="0.5" stroke-linecap="square" stroke-miterlimit="10" width="5.629" height="5.775"/>
<rect x="156.638" y="134.665" fill="#CCCCCC" stroke="#000000" stroke-width="0.5" stroke-linecap="square" stroke-miterlimit="10" width="5.628" height="1.989"/>
<rect x="162.251" y="134.665" fill="#CCCCCC" stroke="#000000" stroke-width="0.5" stroke-linecap="square" stroke-miterlimit="10" width="5.629" height="0.995"/>
<rect x="167.865" y="134.665" fill="#CCCCCC" stroke="#000000" stroke-width="0.5" stroke-linecap="square" stroke-miterlimit="10" width="5.629" height="0.557"/>
<rect x="61.215" y="124.939" fill="#CCCCCC" stroke="#000000" stroke-width="0.5" stroke-linecap="square" stroke-miterlimit="10" width="5.628" height="0.83"/>
<rect x="66.84" y="124.113" fill="#CCCCCC" stroke="#000000" stroke-width="0.5" stroke-linecap="square" stroke-miterlimit="10" width="5.629" height="1.656"/>
<rect x="72.465" y="121.771" fill="#CCCCCC" stroke="#000000" stroke-width="0.5" stroke-linecap="square" stroke-miterlimit="10" width="5.628" height="3.998"/>
<rect x="78.089" y="118.566" fill="#CCCCCC" stroke="#000000" stroke-width="0.5" stroke-linecap="square" stroke-miterlimit="10" width="5.629" height="7.202"/>
<rect x="83.714" y="110.877" fill="#CCCCCC" stroke="#000000" stroke-width="0.5" stroke-linecap="square" stroke-miterlimit="10" width="5.628" height="14.892"/>
<rect x="89.339" y="99.547" fill="#CCCCCC" stroke="#000000" stroke-width="0.5" stroke-linecap="square" stroke-miterlimit="10" width="5.629" height="26.221"/>
<rect x="94.964" y="83.319" fill="#CCCCCC" stroke="#000000" stroke-width="0.5" stroke-linecap="square" stroke-miterlimit="10" width="5.629" height="42.449"/>
<rect x="100.589" y="69.662" fill="#CCCCCC" stroke="#000000" stroke-width="0.5" stroke-linecap="square" stroke-miterlimit="10" width="5.629" height="56.106"/>
<rect x="106.214" y="54.583" fill="#CCCCCC" stroke="#000000" stroke-width="0.5" stroke-linecap="square" stroke-miterlimit="10" width="5.629" height="71.185"/>
<rect x="111.839" y="45.293" fill="#CCCCCC" stroke="#000000" stroke-width="0.5" stroke-linecap="square" stroke-miterlimit="10" width="5.628" height="80.476"/>
<rect x="117.463" y="49.202" fill="#CCCCCC" stroke="#000000" stroke-width="0.5" stroke-linecap="square" stroke-miterlimit="10" width="5.629" height="76.566"/>
<rect x="123.088" y="52.451" fill="#CCCCCC" stroke="#000000" stroke-width="0.5" stroke-linecap="square" stroke-miterlimit="10" width="5.629" height="73.317"/>
<rect x="128.713" y="68.799" fill="#CCCCCC" stroke="#000000" stroke-width="0.5" stroke-linecap="square" stroke-miterlimit="10" width="5.629" height="56.969"/>
<rect x="134.338" y="84.335" fill="#CCCCCC" stroke="#000000" stroke-width="0.5" stroke-linecap="square" stroke-miterlimit="10" width="5.629" height="41.434"/>
<rect x="139.963" y="100.45" fill="#CCCCCC" stroke="#000000" stroke-width="0.5" stroke-linecap="square" stroke-miterlimit="10" width="5.628" height="25.318"/>
<rect x="145.588" y="110.455" fill="#CCCCCC" stroke="#000000" stroke-width="0.5" stroke-linecap="square" stroke-miterlimit="10" width="5.628" height="15.313"/>
<rect x="151.212" y="118.741" fill="#CCCCCC" stroke="#000000" stroke-width="0.5" stroke-linecap="square" stroke-miterlimit="10" width="5.629" height="7.027"/>
<rect x="156.837" y="121.497" fill="#CCCCCC" stroke="#000000" stroke-width="0.5" stroke-linecap="square" stroke-miterlimit="10" width="5.629" height="4.271"/>
<rect x="162.462" y="123.966" fill="#CCCCCC" stroke="#000000" stroke-width="0.5" stroke-linecap="square" stroke-miterlimit="10" width="5.629" height="1.802"/>
<rect x="168.087" y="125.049" fill="#CCCCCC" stroke="#000000" stroke-width="0.5" stroke-linecap="square" stroke-miterlimit="10" width="5.629" height="0.72"/>
</svg>