<svg xmlns="http://www.w3.org/2000/svg" xmlns:xlink="http://www.w3.org/1999/xlink" version="1.1" id="Layer_1" x="0px" y="0px" width="312.294px" height="225.589px" viewBox="0 0 312.294 225.589" enable-background="new 0 0 312.294 225.589" xml:space="preserve">
<line fill="none" stroke="#EBEBEB" stroke-width="0.53" stroke-linejoin="round" stroke-miterlimit="10" x1="29.706" y1="124.423" x2="256.166" y2="124.423"/>
<line fill="none" stroke="#EBEBEB" stroke-width="0.53" stroke-linejoin="round" stroke-miterlimit="10" x1="29.706" y1="90.795" x2="256.166" y2="90.795"/>
<line fill="none" stroke="#EBEBEB" stroke-width="0.53" stroke-linejoin="round" stroke-miterlimit="10" x1="29.706" y1="57.168" x2="256.166" y2="57.168"/>
<line fill="none" stroke="#EBEBEB" stroke-width="0.53" stroke-linejoin="round" stroke-miterlimit="10" x1="29.706" y1="23.541" x2="256.166" y2="23.541"/>
<line fill="none" stroke="#B3B3B3" stroke-width="0.5" stroke-linejoin="round" stroke-miterlimit="10" x1="29.706" y1="141.233" x2="256.166" y2="141.233"/>
<line fill="none" stroke="#B3B3B3" stroke-width="0.5" stroke-linejoin="round" stroke-miterlimit="10" x1="29.706" y1="107.606" x2="256.166" y2="107.606"/>
<line fill="none" stroke="#B3B3B3" stroke-width="0.5" stroke-linejoin="round" stroke-miterlimit="10" x1="29.706" y1="73.979" x2="256.166" y2="73.979"/>
<line fill="none" stroke="#B3B3B3" stroke-width="0.5" stroke-linejoin="round" stroke-miterlimit="10" x1="29.706" y1="40.352" x2="256.166" y2="40.352"/>
<line fill="none" stroke="#B3B3B3" stroke-width="0.5" stroke-linejoin="round" stroke-miterlimit="10" x1="29.706" y1="6.724" x2="256.166" y2="6.724"/>
<line fill="none" stroke="#B3B3B3" stroke-width="0.5" stroke-linejoin="round" stroke-miterlimit="10" x1="48.576" y1="147.964" x2="48.576" y2="0"/>
<line fill="none" stroke="#B3B3B3" stroke-width="0.5" stroke-linejoin="round" stroke-miterlimit="10" x1="80.027" y1="147.964" x2="80.027" y2="0"/>
<line fill="none" stroke="#B3B3B3" stroke-width="0.5" stroke-linejoin="round" stroke-miterlimit="10" x1="111.484" y1="147.964" x2="111.484" y2="0"/>
<line fill="none" stroke="#B3B3B3" stroke-width="0.5" stroke-linejoin="round" stroke-miterlimit="10" x1="142.936" y1="147.964" x2="142.936" y2="0"/>
<line fill="none" stroke="#B3B3B3" stroke-width="0.5" stroke-linejoin="round" stroke-miterlimit="10" x1="174.387" y1="147.964" x2="174.387" y2="0"/>
<line fill="none" stroke="#B3B3B3" stroke-width="0.5" stroke-linejoin="round" stroke-miterlimit="10" x1="205.845" y1="147.964" x2="205.845" y2="0"/>
<line fill="none" stroke="#B3B3B3" stroke-width="0.5" stroke-linejoin="round" stroke-miterlimit="10" x1="237.296" y1="147.964" x2="237.296" y2="0"/>
<polygon points="48.576,71.551 54.193,81.281 42.958,81.281 "/>
<path d="M44.599,109.781c0-2.188,1.789-3.976,3.977-3.976c2.188,0,3.977,1.789,3.977,3.976c0,2.183-1.789,3.971-3.977,3.971  C46.387,113.752,44.599,111.964,44.599,109.781"/>
<polygon points="174.387,70.315 176.705,74.323 172.07,74.323 "/>
<path d="M172.704,92.264c0-0.928,0.756-1.684,1.684-1.684c0.935,0,1.69,0.756,1.69,1.684c0,0.935-0.756,1.69-1.69,1.69  C173.459,93.955,172.704,93.199,172.704,92.264"/>
<polygon points="80.027,40.911 84.194,48.121 75.866,48.121 "/>
<path d="M76.892,81.871c0-1.721,1.414-3.135,3.135-3.135c1.727,0,3.141,1.414,3.141,3.135c0,1.727-1.414,3.141-3.141,3.141  C78.306,85.012,76.892,83.598,76.892,81.871"/>
<polygon points="111.484,35.004 113.654,38.766 109.309,38.766 "/>
<path d="M110.212,80.709c0-0.701,0.571-1.272,1.272-1.272s1.272,0.572,1.272,1.272s-0.572,1.272-1.272,1.272  S110.212,81.41,110.212,80.709"/>
<polygon points="237.296,89.259 240.191,94.274 234.401,94.274 "/>
<path d="M235.593,105.301c0-0.934,0.769-1.703,1.703-1.703s1.702,0.769,1.702,1.703c0,0.935-0.768,1.697-1.702,1.697  S235.593,106.235,235.593,105.301"/>
<polygon points="142.936,88.755 144.657,91.729 141.215,91.729 "/>
<path d="M142.063,100.359c0-0.479,0.394-0.873,0.873-0.873s0.873,0.394,0.873,0.873c0,0.479-0.393,0.873-0.873,0.873  S142.063,100.838,142.063,100.359"/>
<polygon points="205.845,50.124 214.241,64.667 197.449,64.667 "/>
<path d="M199.065,95.055c0-3.725,3.049-6.779,6.78-6.779c3.725,0,6.773,3.055,6.773,6.779c0,3.725-3.049,6.773-6.773,6.773  C202.114,101.828,199.065,98.78,199.065,95.055"/>
<g>
	<path d="M16.786,141.025c0,1.767-0.656,2.742-1.807,2.742c-1.016,0-1.703-0.951-1.719-2.671c0-1.742,0.751-2.702,1.807-2.702   C16.163,138.395,16.786,139.37,16.786,141.025z M13.963,141.105c0,1.351,0.416,2.118,1.056,2.118c0.72,0,1.063-0.839,1.063-2.167   c0-1.279-0.328-2.118-1.056-2.118C14.412,138.938,13.963,139.689,13.963,141.105z"/>
	<path d="M17.492,143.264c0-0.296,0.2-0.504,0.48-0.504s0.472,0.208,0.472,0.504c0,0.288-0.184,0.504-0.479,0.504   C17.684,143.768,17.492,143.552,17.492,143.264z"/>
	<path d="M22.546,141.025c0,1.767-0.656,2.742-1.807,2.742c-1.016,0-1.703-0.951-1.719-2.671c0-1.742,0.751-2.702,1.807-2.702   C21.922,138.395,22.546,139.37,22.546,141.025z M19.723,141.105c0,1.351,0.416,2.118,1.056,2.118c0.72,0,1.063-0.839,1.063-2.167   c0-1.279-0.328-2.118-1.056-2.118C20.171,138.938,19.723,139.689,19.723,141.105z"/>
	<path d="M26.65,141.025c0,1.767-0.656,2.742-1.807,2.742c-1.015,0-1.703-0.951-1.719-2.671c0-1.742,0.752-2.702,1.807-2.702   C26.026,138.395,26.65,139.37,26.65,141.025z M23.828,141.105c0,1.351,0.416,2.118,1.055,2.118c0.72,0,1.063-0.839,1.063-2.167   c0-1.279-0.328-2.118-1.056-2.118C24.275,138.938,23.828,139.689,23.828,141.105z"/>
</g>
<g>
	<path d="M16.786,107.398c0,1.767-0.656,2.742-1.807,2.742c-1.016,0-1.703-0.951-1.719-2.67c0-1.743,0.751-2.703,1.807-2.703   C16.163,104.768,16.786,105.743,16.786,107.398z M13.963,107.478c0,1.352,0.416,2.119,1.056,2.119c0.72,0,1.063-0.839,1.063-2.167   c0-1.279-0.328-2.119-1.056-2.119C14.412,105.312,13.963,106.063,13.963,107.478z"/>
	<path d="M17.492,109.637c0-0.295,0.2-0.503,0.48-0.503s0.472,0.208,0.472,0.503c0,0.288-0.184,0.504-0.479,0.504   C17.684,110.141,17.492,109.925,17.492,109.637z"/>
	<path d="M19.092,110.053v-0.432l0.552-0.536c1.327-1.264,1.927-1.935,1.935-2.719c0-0.528-0.256-1.015-1.032-1.015   c-0.472,0-0.863,0.24-1.104,0.439l-0.224-0.496c0.36-0.304,0.872-0.528,1.471-0.528c1.119,0,1.591,0.768,1.591,1.511   c0,0.959-0.695,1.735-1.791,2.791l-0.416,0.384v0.016h2.334v0.584H19.092z"/>
	<path d="M26.298,105.447h-1.983l-0.2,1.335c0.12-0.016,0.232-0.032,0.424-0.032c0.4,0,0.799,0.088,1.119,0.28   c0.408,0.232,0.744,0.68,0.744,1.335c0,1.015-0.808,1.775-1.935,1.775c-0.568,0-1.048-0.16-1.295-0.319l0.176-0.536   c0.216,0.128,0.64,0.288,1.111,0.288c0.664,0,1.231-0.432,1.231-1.127c-0.008-0.672-0.456-1.151-1.495-1.151   c-0.296,0-0.528,0.032-0.72,0.056l0.336-2.495h2.486V105.447z"/>
</g>
<g>
	<path d="M16.786,73.771c0,1.767-0.656,2.742-1.807,2.742c-1.016,0-1.703-0.951-1.719-2.67c0-1.743,0.751-2.703,1.807-2.703   C16.163,71.14,16.786,72.115,16.786,73.771z M13.963,73.85c0,1.352,0.416,2.119,1.056,2.119c0.72,0,1.063-0.84,1.063-2.167   c0-1.279-0.328-2.119-1.056-2.119C14.412,71.684,13.963,72.435,13.963,73.85z"/>
	<path d="M17.492,76.009c0-0.295,0.2-0.503,0.48-0.503s0.472,0.208,0.472,0.503c0,0.288-0.184,0.504-0.479,0.504   C17.684,76.513,17.492,76.297,17.492,76.009z"/>
	<path d="M22.194,71.819h-1.983l-0.2,1.335c0.12-0.016,0.232-0.032,0.424-0.032c0.4,0,0.799,0.088,1.119,0.28   c0.408,0.232,0.744,0.68,0.744,1.335c0,1.015-0.808,1.775-1.935,1.775c-0.567,0-1.047-0.16-1.295-0.32l0.176-0.536   c0.216,0.128,0.64,0.288,1.111,0.288c0.664,0,1.231-0.432,1.231-1.127c-0.008-0.672-0.456-1.151-1.495-1.151   c-0.296,0-0.528,0.032-0.72,0.056l0.336-2.495h2.486V71.819z"/>
	<path d="M26.65,73.771c0,1.767-0.656,2.742-1.807,2.742c-1.015,0-1.703-0.951-1.719-2.67c0-1.743,0.752-2.703,1.807-2.703   C26.026,71.14,26.65,72.115,26.65,73.771z M23.828,73.85c0,1.352,0.416,2.119,1.055,2.119c0.72,0,1.063-0.84,1.063-2.167   c0-1.279-0.328-2.119-1.056-2.119C24.275,71.684,23.828,72.435,23.828,73.85z"/>
</g>
<g>
	<path d="M16.786,40.144c0,1.767-0.656,2.742-1.807,2.742c-1.016,0-1.703-0.951-1.719-2.67c0-1.743,0.751-2.703,1.807-2.703   C16.163,37.513,16.786,38.488,16.786,40.144z M13.963,40.223c0,1.352,0.416,2.119,1.056,2.119c0.72,0,1.063-0.84,1.063-2.167   c0-1.279-0.328-2.119-1.056-2.119C14.412,38.057,13.963,38.808,13.963,40.223z"/>
	<path d="M17.492,42.382c0-0.295,0.2-0.503,0.48-0.503s0.472,0.208,0.472,0.503c0,0.288-0.184,0.504-0.479,0.504   C17.684,42.886,17.492,42.67,17.492,42.382z"/>
	<path d="M22.466,37.601v0.464l-2.263,4.733h-0.728L21.73,38.2v-0.016h-2.543v-0.584H22.466z"/>
	<path d="M26.298,38.192h-1.983l-0.2,1.335c0.12-0.016,0.232-0.032,0.424-0.032c0.4,0,0.799,0.088,1.119,0.28   c0.408,0.232,0.744,0.68,0.744,1.335c0,1.015-0.808,1.775-1.935,1.775c-0.568,0-1.048-0.16-1.295-0.32l0.176-0.536   c0.216,0.128,0.64,0.288,1.111,0.288c0.664,0,1.231-0.432,1.231-1.127c-0.008-0.672-0.456-1.151-1.495-1.151   c-0.296,0-0.528,0.032-0.72,0.056l0.336-2.495h2.486V38.192z"/>
</g>
<g>
	<path d="M14.859,4.629h-0.016l-0.904,0.488l-0.136-0.536l1.135-0.608h0.6V9.17h-0.68V4.629z"/>
	<path d="M17.492,8.755c0-0.296,0.2-0.504,0.48-0.504s0.472,0.208,0.472,0.504c0,0.288-0.184,0.503-0.479,0.503   C17.684,9.258,17.492,9.042,17.492,8.755z"/>
	<path d="M22.546,6.516c0,1.767-0.656,2.743-1.807,2.743c-1.016,0-1.703-0.952-1.719-2.67c0-1.743,0.751-2.703,1.807-2.703   C21.922,3.885,22.546,4.861,22.546,6.516z M19.723,6.596c0,1.352,0.416,2.119,1.056,2.119c0.72,0,1.063-0.84,1.063-2.167   c0-1.279-0.328-2.119-1.056-2.119C20.171,4.429,19.723,5.181,19.723,6.596z"/>
	<path d="M26.65,6.516c0,1.767-0.656,2.743-1.807,2.743c-1.015,0-1.703-0.952-1.719-2.67c0-1.743,0.752-2.703,1.807-2.703   C26.026,3.885,26.65,4.861,26.65,6.516z M23.828,6.596c0,1.352,0.416,2.119,1.055,2.119c0.72,0,1.063-0.84,1.063-2.167   c0-1.279-0.328-2.119-1.056-2.119C24.275,4.429,23.828,5.181,23.828,6.596z"/>
</g>
<g>
	<path d="M16.674,181.529l-0.011,0.012l-0.294,0.983l-0.475-0.283l0.373-1.232l0.424-0.424l3.675,3.675l-0.481,0.48L16.674,181.529z   "/>
	<path d="M22.917,178.35l0.34,0.34l-2.917,2.918l-0.34-0.34L22.917,178.35z"/>
	<path d="M21.488,175.606c0.198-0.277,0.475-0.622,0.871-1.018c0.486-0.486,0.956-0.729,1.385-0.752   c0.39-0.029,0.791,0.124,1.131,0.464c0.345,0.345,0.514,0.718,0.521,1.108c0.017,0.536-0.267,1.102-0.748,1.582   c-0.147,0.146-0.288,0.277-0.429,0.362l1.527,1.526l-0.492,0.492L21.488,175.606z M23.817,176.952   c0.136-0.079,0.283-0.204,0.447-0.368c0.593-0.594,0.667-1.243,0.141-1.77c-0.503-0.503-1.102-0.39-1.645,0.153   c-0.215,0.215-0.362,0.396-0.424,0.503L23.817,176.952z"/>
	<path d="M27.246,174.824c0.684,0.662,1.391,0.509,1.888,0.012c0.356-0.356,0.509-0.634,0.616-0.899l0.441,0.271   c-0.096,0.255-0.305,0.645-0.74,1.08c-0.843,0.843-1.899,0.792-2.726-0.034c-0.825-0.825-0.989-1.962-0.192-2.759   c0.894-0.894,1.917-0.346,2.42,0.158c0.102,0.102,0.17,0.192,0.215,0.249L27.246,174.824z M28.348,173.01   c-0.312-0.322-0.938-0.679-1.499-0.119c-0.503,0.504-0.26,1.188,0.045,1.572L28.348,173.01z"/>
	<path d="M29.198,171.663c-0.323-0.323-0.605-0.594-0.877-0.832l0.436-0.436l0.554,0.521l0.023-0.022   c-0.244-0.492-0.176-1.023,0.158-1.357c0.057-0.056,0.102-0.091,0.159-0.124l0.469,0.47c-0.062,0.039-0.119,0.085-0.187,0.152   c-0.351,0.351-0.333,0.865-0.028,1.306c0.056,0.079,0.125,0.17,0.209,0.255l1.458,1.459l-0.492,0.491L29.198,171.663z"/>
	<path d="M32.354,171.255c0.243-0.052,0.604-0.21,0.854-0.458c0.362-0.362,0.351-0.713,0.124-0.939   c-0.237-0.237-0.508-0.226-1.012,0.006c-0.667,0.317-1.17,0.277-1.498-0.051c-0.441-0.441-0.447-1.159,0.141-1.747   c0.277-0.277,0.6-0.44,0.843-0.503l0.237,0.486c-0.175,0.04-0.463,0.147-0.718,0.401c-0.294,0.294-0.289,0.628-0.085,0.831   c0.226,0.226,0.491,0.164,0.983-0.057c0.656-0.294,1.137-0.3,1.544,0.107c0.48,0.48,0.446,1.193-0.204,1.844   c-0.3,0.299-0.651,0.502-0.956,0.582L32.354,171.255z"/>
	<path d="M36.256,165.589c1.011,1.011,0.751,2.153,0.09,2.814c-0.74,0.741-1.854,0.77-2.72-0.097   c-0.916-0.915-0.853-2.052-0.096-2.81C34.316,164.712,35.419,164.752,36.256,165.589z M34.113,167.788   c0.599,0.599,1.396,0.706,1.882,0.22c0.475-0.475,0.384-1.277-0.232-1.894c-0.463-0.464-1.283-0.82-1.871-0.231   C33.305,166.471,33.593,167.268,34.113,167.788z"/>
	<path d="M36.28,164.354c-0.283-0.283-0.521-0.51-0.764-0.719l0.441-0.441l0.48,0.425l0.012-0.012   c-0.125-0.396-0.062-0.967,0.39-1.419c0.379-0.379,1.193-0.74,2.132,0.198l1.634,1.634l-0.498,0.497l-1.577-1.577   c-0.441-0.441-0.973-0.645-1.442-0.175c-0.328,0.328-0.35,0.814-0.158,1.176c0.04,0.085,0.113,0.181,0.198,0.266l1.646,1.646   l-0.498,0.497L36.28,164.354z"/>
	<path d="M42.931,161.695l-0.384-0.306l-0.017,0.018c0.062,0.367-0.04,0.853-0.43,1.243c-0.554,0.554-1.227,0.446-1.623,0.051   c-0.662-0.661-0.435-1.611,0.627-2.663l-0.057-0.057c-0.226-0.226-0.695-0.571-1.255-0.012c-0.254,0.255-0.44,0.601-0.508,0.917   l-0.441-0.215c0.079-0.373,0.311-0.798,0.656-1.143c0.836-0.837,1.611-0.469,2.159,0.079l1.023,1.023   c0.238,0.237,0.481,0.458,0.702,0.611L42.931,161.695z M41.46,160.372c-0.555,0.531-1.075,1.243-0.543,1.775   c0.322,0.322,0.69,0.26,0.944,0.006c0.356-0.356,0.356-0.81,0.204-1.12c-0.034-0.067-0.08-0.136-0.13-0.187L41.46,160.372z"/>
	<path d="M40.127,156.47l0.498-0.498l4.014,4.015l-0.498,0.497L40.127,156.47z"/>
	<path d="M42.525,155.089c0.175,0.164,0.187,0.424-0.011,0.622c-0.175,0.176-0.436,0.164-0.605-0.006   c-0.175-0.175-0.182-0.441,0-0.622C42.095,154.896,42.35,154.914,42.525,155.089z M45.477,159.148l-2.737-2.736l0.497-0.498   l2.737,2.737L45.477,159.148z"/>
	<path d="M43.877,153.703l0.786,0.786l0.712-0.713l0.379,0.38l-0.712,0.712l1.476,1.476c0.339,0.339,0.627,0.435,0.904,0.158   c0.13-0.131,0.209-0.243,0.254-0.322l0.396,0.351c-0.057,0.136-0.181,0.316-0.373,0.509c-0.232,0.232-0.493,0.345-0.747,0.328   c-0.289-0.006-0.583-0.198-0.905-0.521l-1.492-1.492l-0.424,0.424l-0.379-0.379l0.424-0.424l-0.655-0.655L43.877,153.703z"/>
	<path d="M46.117,153.035l2.216,1.018c0.243,0.119,0.526,0.266,0.735,0.385l0.011-0.012c-0.113-0.215-0.266-0.48-0.396-0.746   l-1.062-2.148l0.525-0.526l1.205,2.697c0.583,1.295,0.82,2.019,0.775,2.652c-0.028,0.458-0.187,0.785-0.289,0.932l-0.542-0.293   c0.083-0.165,0.169-0.407,0.192-0.679c0.028-0.243,0.005-0.604-0.136-0.973c-0.029-0.074-0.051-0.13-0.079-0.158   s-0.079-0.057-0.164-0.096l-3.534-1.51L46.117,153.035z"/>
</g>
<g>
	<path d="M35.027,201.881l-0.305-0.306l0.011-0.769c0.045-1.832-0.005-2.73-0.554-3.29c-0.374-0.374-0.899-0.537-1.447,0.011   c-0.333,0.334-0.441,0.78-0.469,1.092l-0.509-0.193c0.04-0.469,0.243-0.989,0.667-1.413c0.792-0.792,1.668-0.582,2.193-0.057   c0.679,0.679,0.735,1.719,0.708,3.24l-0.022,0.565l0.011,0.011l1.651-1.651l0.413,0.413L35.027,201.881z"/>
	<path d="M39.139,194.41l0.34,0.34l-2.917,2.918l-0.34-0.34L39.139,194.41z"/>
	<path d="M44.015,192.646c-0.091,0.271-0.362,0.723-0.826,1.187c-1.074,1.074-2.562,1.204-3.811-0.045   c-1.193-1.193-1.193-2.81-0.011-3.991c0.475-0.476,0.876-0.674,1.074-0.735l0.283,0.521c-0.278,0.095-0.611,0.294-0.928,0.61   c-0.893,0.893-0.916,2.058,0.084,3.058c0.933,0.934,2.069,0.995,2.997,0.068c0.3-0.3,0.543-0.667,0.645-0.961L44.015,192.646z"/>
	<path d="M45.825,188.301c1.012,1.012,0.751,2.154,0.09,2.815c-0.741,0.741-1.854,0.77-2.72-0.096   c-0.916-0.916-0.854-2.053-0.096-2.811C43.886,187.425,44.988,187.464,45.825,188.301z M43.683,190.501   c0.599,0.599,1.396,0.706,1.883,0.22c0.475-0.475,0.384-1.277-0.232-1.895c-0.463-0.463-1.283-0.819-1.871-0.231   S43.163,189.98,43.683,190.501z"/>
	<path d="M47.466,183.969c0.187,0.209,0.396,0.44,0.729,0.774l1.589,1.589c0.627,0.627,0.887,1.136,0.859,1.639   c-0.016,0.516-0.322,0.979-0.667,1.323c-0.328,0.328-0.768,0.611-1.136,0.685l-0.254-0.503c0.294-0.068,0.678-0.249,1.018-0.588   c0.509-0.51,0.616-1.148-0.073-1.838l-0.306-0.306l-0.011,0.012c0.102,0.407,0.012,0.905-0.412,1.329   c-0.679,0.679-1.741,0.588-2.5-0.17c-0.927-0.927-0.848-2.059-0.221-2.686c0.475-0.476,0.983-0.487,1.329-0.379l0.012-0.012   l-0.39-0.435L47.466,183.969z M48.032,185.562c-0.084-0.084-0.164-0.152-0.254-0.197c-0.379-0.198-0.86-0.192-1.222,0.169   c-0.475,0.476-0.413,1.216,0.22,1.849c0.537,0.537,1.255,0.713,1.792,0.176c0.305-0.306,0.391-0.774,0.181-1.198   c-0.057-0.113-0.142-0.221-0.227-0.306L48.032,185.562z"/>
	<path d="M49.012,183.904c-0.283-0.283-0.52-0.508-0.763-0.718l0.441-0.44l0.48,0.424l0.011-0.012   c-0.124-0.396-0.062-0.967,0.39-1.419c0.378-0.379,1.193-0.74,2.132,0.198l1.634,1.634l-0.498,0.497l-1.577-1.577   c-0.441-0.441-0.973-0.645-1.442-0.175c-0.328,0.327-0.351,0.813-0.159,1.176c0.04,0.085,0.114,0.182,0.198,0.266l1.646,1.645   l-0.498,0.498L49.012,183.904z"/>
	<path d="M51.196,178.702c0.174,0.163,0.186,0.424-0.012,0.621c-0.175,0.176-0.436,0.164-0.605-0.005   c-0.176-0.176-0.181-0.441,0-0.623C50.766,178.509,51.021,178.526,51.196,178.702z M54.147,182.761l-2.736-2.736l0.498-0.497   l2.736,2.736L54.147,182.761z"/>
	<path d="M52.547,177.315l0.786,0.786l0.712-0.713l0.379,0.379l-0.712,0.713l1.476,1.476c0.339,0.339,0.627,0.436,0.904,0.158   c0.13-0.13,0.209-0.243,0.254-0.322l0.396,0.351c-0.057,0.136-0.181,0.316-0.374,0.509c-0.232,0.231-0.492,0.345-0.746,0.328   c-0.289-0.006-0.583-0.198-0.905-0.521l-1.492-1.492l-0.424,0.424l-0.379-0.379l0.424-0.424l-0.656-0.656L52.547,177.315z"/>
	<path d="M54.392,175.506c0.175,0.163,0.187,0.424-0.011,0.622c-0.175,0.175-0.436,0.163-0.605-0.006   c-0.176-0.176-0.182-0.441,0-0.622C53.962,175.313,54.216,175.33,54.392,175.506z M57.343,179.564l-2.736-2.736l0.498-0.497   l2.736,2.736L57.343,179.564z"/>
	<path d="M56.123,175.312l2.075,1.001c0.34,0.158,0.639,0.311,0.921,0.48l0.017-0.018c-0.164-0.288-0.31-0.593-0.469-0.933   l-1.006-2.069l0.521-0.52l1.662,3.811l-0.475,0.475l-3.777-1.696L56.123,175.312z"/>
	<path d="M60.387,173.966c0.684,0.661,1.39,0.508,1.888,0.011c0.356-0.356,0.509-0.633,0.617-0.898l0.44,0.271   c-0.096,0.255-0.305,0.646-0.74,1.08c-0.842,0.843-1.9,0.792-2.725-0.033s-0.99-1.963-0.192-2.76   c0.893-0.894,1.917-0.345,2.42,0.159c0.102,0.102,0.169,0.191,0.215,0.249L60.387,173.966z M61.489,172.15   c-0.311-0.322-0.938-0.679-1.498-0.118c-0.503,0.503-0.26,1.187,0.045,1.571L61.489,172.15z"/>
	<path d="M66.936,169.972l-0.384-0.305l-0.017,0.017c0.062,0.367-0.04,0.854-0.43,1.243c-0.554,0.555-1.227,0.447-1.622,0.052   c-0.662-0.662-0.436-1.611,0.627-2.663l-0.057-0.057c-0.226-0.227-0.695-0.571-1.255-0.012c-0.255,0.255-0.441,0.6-0.509,0.916   l-0.441-0.215c0.079-0.373,0.311-0.797,0.656-1.143c0.837-0.836,1.612-0.469,2.16,0.08l1.023,1.023   c0.237,0.237,0.48,0.458,0.701,0.61L66.936,169.972z M65.466,168.649c-0.554,0.531-1.074,1.244-0.543,1.774   c0.323,0.323,0.69,0.261,0.944,0.006c0.356-0.356,0.355-0.809,0.203-1.119c-0.034-0.068-0.079-0.136-0.13-0.188L65.466,168.649z"/>
	<path d="M68.125,168.783c-0.175-0.198-0.44-0.486-0.684-0.729l-3.308-3.308l0.492-0.492l1.719,1.719l0.011-0.011   c-0.13-0.48-0.011-0.995,0.43-1.437c0.678-0.679,1.725-0.593,2.55,0.243c0.979,0.979,0.848,2.081,0.237,2.691   c-0.396,0.396-0.865,0.56-1.43,0.401l-0.017,0.018l0.429,0.475L68.125,168.783z M67.542,167.172   c0.062,0.062,0.136,0.113,0.204,0.158c0.441,0.249,0.967,0.198,1.329-0.164c0.52-0.521,0.407-1.255-0.221-1.883   c-0.548-0.548-1.3-0.735-1.832-0.203c-0.339,0.339-0.424,0.888-0.147,1.368c0.045,0.067,0.096,0.152,0.175,0.231L67.542,167.172z"/>
	<path d="M68.415,161.482c0.175,0.164,0.187,0.424-0.011,0.622c-0.175,0.176-0.436,0.163-0.605-0.006   c-0.176-0.176-0.181-0.441,0-0.622C67.985,161.29,68.239,161.307,68.415,161.482z M71.366,165.542l-2.736-2.736l0.498-0.498   l2.736,2.736L71.366,165.542z"/>
	<path d="M68.675,160.204l0.498-0.498l4.014,4.015l-0.497,0.497L68.675,160.204z"/>
	<path d="M71.074,158.824c0.175,0.163,0.187,0.424-0.011,0.622c-0.175,0.175-0.436,0.163-0.605-0.006   c-0.176-0.176-0.182-0.441,0-0.623C70.644,158.631,70.898,158.648,71.074,158.824z M74.025,162.883l-2.736-2.736l0.497-0.497   l2.736,2.736L74.025,162.883z"/>
	<path d="M72.425,157.438l0.786,0.786l0.712-0.712l0.379,0.379l-0.712,0.712l1.476,1.476c0.339,0.34,0.627,0.436,0.904,0.158   c0.13-0.13,0.209-0.243,0.254-0.322l0.396,0.352c-0.057,0.135-0.182,0.315-0.374,0.508c-0.232,0.232-0.492,0.345-0.746,0.328   c-0.289-0.006-0.583-0.197-0.905-0.521l-1.492-1.492l-0.424,0.424l-0.379-0.379l0.424-0.424l-0.656-0.656L72.425,157.438z"/>
	<path d="M74.27,155.628c0.174,0.163,0.187,0.424-0.012,0.622c-0.175,0.175-0.436,0.163-0.604-0.006   c-0.176-0.176-0.182-0.441,0-0.622C73.84,155.436,74.094,155.452,74.27,155.628z M77.221,159.687l-2.736-2.736l0.498-0.497   l2.736,2.736L77.221,159.687z"/>
	<path d="M77.544,156.809c0.684,0.661,1.39,0.509,1.888,0.011c0.356-0.355,0.509-0.633,0.617-0.898l0.441,0.271   c-0.096,0.255-0.305,0.645-0.741,1.08c-0.842,0.842-1.899,0.791-2.725-0.034s-0.99-1.962-0.193-2.76   c0.894-0.893,1.917-0.344,2.42,0.159c0.102,0.102,0.169,0.192,0.215,0.249L77.544,156.809z M78.646,154.994   c-0.312-0.323-0.939-0.679-1.499-0.119c-0.503,0.503-0.26,1.188,0.045,1.572L78.646,154.994z"/>
	<path d="M80.802,155.088c0.243-0.051,0.605-0.208,0.854-0.457c0.362-0.362,0.351-0.713,0.124-0.939   c-0.237-0.237-0.509-0.226-1.012,0.006c-0.667,0.317-1.169,0.277-1.498-0.051c-0.441-0.441-0.447-1.159,0.141-1.747   c0.277-0.277,0.6-0.44,0.843-0.503l0.237,0.486c-0.175,0.04-0.463,0.146-0.718,0.401c-0.294,0.294-0.289,0.627-0.085,0.831   c0.226,0.226,0.492,0.164,0.983-0.057c0.656-0.294,1.137-0.3,1.544,0.107c0.481,0.481,0.447,1.193-0.204,1.843   c-0.3,0.3-0.65,0.503-0.956,0.583L80.802,155.088z"/>
</g>
<g>
	<path d="M81.633,182.822c0.232-0.051,0.702-0.237,1.047-0.582c0.639-0.639,0.429-1.244,0.118-1.544   c-0.521-0.509-1.204-0.265-1.684,0.216l-0.277,0.276l-0.374-0.374l0.277-0.276c0.362-0.362,0.634-1.006,0.199-1.441   c-0.294-0.294-0.742-0.368-1.199,0.09c-0.294,0.294-0.447,0.707-0.492,0.979l-0.492-0.231c0.051-0.334,0.283-0.849,0.678-1.244   c0.724-0.724,1.481-0.622,1.928-0.176c0.379,0.379,0.475,0.928,0.188,1.545l0.011,0.011c0.542-0.362,1.25-0.391,1.763,0.123   c0.589,0.589,0.646,1.562-0.237,2.443c-0.413,0.413-0.904,0.645-1.205,0.707L81.633,182.822z"/>
	<path d="M86.197,176.041l0.34,0.34l-2.917,2.918l-0.34-0.34L86.197,176.041z"/>
	<path d="M88.722,173.304l-1.481,1.481l1.373,1.373l1.651-1.65l0.413,0.413l-2.143,2.143l-3.81-3.811l2.058-2.058l0.412,0.412   l-1.566,1.566l1.205,1.204l1.481-1.481L88.722,173.304z"/>
	<path d="M89.65,167.92l3.308,3.308c0.243,0.243,0.525,0.515,0.729,0.684l-0.446,0.447l-0.498-0.452l-0.011,0.011   c0.152,0.458,0.051,1.023-0.396,1.471c-0.662,0.661-1.731,0.609-2.561-0.221c-0.917-0.905-0.911-2.03-0.244-2.697   c0.418-0.419,0.899-0.503,1.244-0.407l0.011-0.012l-1.634-1.634L89.65,167.92z M91.543,170.809   c-0.062-0.062-0.152-0.141-0.231-0.187c-0.39-0.243-0.921-0.231-1.295,0.142c-0.514,0.515-0.367,1.272,0.237,1.877   c0.555,0.555,1.284,0.741,1.821,0.204c0.333-0.334,0.418-0.859,0.136-1.323c-0.051-0.085-0.113-0.158-0.192-0.237L91.543,170.809z"/>
	<path d="M96.035,168.071c0.283,0.283,0.537,0.525,0.769,0.724l-0.441,0.44l-0.475-0.418l-0.011,0.012   c0.09,0.351,0.09,0.927-0.396,1.413c-0.43,0.43-1.183,0.706-2.144-0.255l-1.6-1.6l0.498-0.498l1.515,1.515   c0.521,0.521,1.03,0.713,1.482,0.261c0.333-0.334,0.334-0.797,0.204-1.108c-0.045-0.101-0.119-0.209-0.208-0.299l-1.68-1.68   l0.498-0.497L96.035,168.071z"/>
	<path d="M99.457,165.938c-0.062,0.197-0.26,0.577-0.627,0.944c-0.826,0.825-1.922,0.803-2.759-0.034   c-0.842-0.842-0.876-2.029,0.017-2.923c0.294-0.294,0.628-0.48,0.831-0.548l0.271,0.497c-0.186,0.052-0.435,0.176-0.707,0.447   c-0.627,0.627-0.503,1.43,0.068,2.001c0.633,0.633,1.431,0.616,1.973,0.073c0.283-0.282,0.395-0.543,0.475-0.746L99.457,165.938z"/>
	<path d="M101.658,163.94l-0.384-0.305l-0.017,0.017c0.062,0.367-0.04,0.854-0.43,1.244c-0.554,0.554-1.227,0.446-1.623,0.051   c-0.661-0.661-0.436-1.611,0.627-2.663l-0.057-0.057c-0.226-0.226-0.695-0.571-1.255-0.012c-0.254,0.255-0.441,0.6-0.509,0.916   l-0.441-0.215c0.079-0.373,0.311-0.797,0.656-1.143c0.837-0.836,1.612-0.469,2.16,0.079l1.023,1.023   c0.238,0.238,0.481,0.459,0.701,0.611L101.658,163.94z M100.188,162.617c-0.554,0.531-1.074,1.244-0.542,1.775   c0.322,0.322,0.69,0.261,0.945,0.007c0.356-0.356,0.355-0.81,0.204-1.12c-0.035-0.068-0.081-0.137-0.131-0.188L100.188,162.617z"/>
	<path d="M99.946,158.607l0.786,0.786l0.712-0.713l0.379,0.379l-0.712,0.713l1.476,1.476c0.339,0.339,0.627,0.435,0.904,0.158   c0.13-0.13,0.21-0.243,0.254-0.322l0.396,0.351c-0.057,0.136-0.181,0.316-0.374,0.509c-0.232,0.231-0.493,0.344-0.746,0.328   c-0.289-0.006-0.583-0.198-0.905-0.521l-1.492-1.492l-0.424,0.424l-0.379-0.379l0.424-0.424l-0.656-0.656L99.946,158.607z"/>
	<path d="M101.791,156.798c0.175,0.163,0.187,0.424-0.011,0.622c-0.175,0.175-0.436,0.163-0.605-0.006   c-0.176-0.176-0.182-0.441,0-0.622C101.36,156.604,101.615,156.622,101.791,156.798z M104.741,160.856l-2.736-2.736l0.498-0.497   l2.736,2.736L104.741,160.856z"/>
	<path d="M107.151,155.666c1.012,1.012,0.752,2.154,0.09,2.815c-0.74,0.741-1.854,0.769-2.72-0.097   c-0.916-0.915-0.854-2.052-0.096-2.81C105.211,154.789,106.314,154.829,107.151,155.666z M105.008,157.865   c0.6,0.6,1.396,0.707,1.883,0.221c0.475-0.475,0.384-1.278-0.232-1.895c-0.464-0.464-1.283-0.819-1.871-0.231   S104.489,157.346,105.008,157.865z"/>
	<path d="M107.176,154.433c-0.284-0.284-0.521-0.51-0.764-0.719l0.441-0.441l0.48,0.424l0.012-0.011   c-0.125-0.396-0.062-0.967,0.39-1.42c0.379-0.378,1.193-0.74,2.132,0.198l1.634,1.634l-0.498,0.498l-1.577-1.577   c-0.441-0.441-0.973-0.645-1.442-0.176c-0.328,0.328-0.35,0.815-0.158,1.176c0.04,0.086,0.114,0.182,0.198,0.266l1.646,1.646   l-0.498,0.498L107.176,154.433z"/>
</g>
<g>
	<path d="M110.157,188.57l-1-1l-1.708,1.707l-0.328-0.328l-0.707-3.986l0.537-0.537l2.284,2.284l0.514-0.515l0.391,0.391   l-0.514,0.515l1,1L110.157,188.57z M108.767,187.18l-1.227-1.227c-0.192-0.192-0.379-0.391-0.561-0.595l-0.017,0.018   c0.102,0.328,0.169,0.576,0.237,0.848l0.35,2.148l0.012,0.012L108.767,187.18z"/>
	<path d="M112.731,182.639l0.339,0.338l-2.917,2.918l-0.339-0.339L112.731,182.639z"/>
	<path d="M115.255,179.9l-1.481,1.48l1.373,1.373l1.651-1.65l0.413,0.413l-2.143,2.143l-3.811-3.811l2.058-2.058l0.413,0.413   l-1.566,1.565l1.204,1.204l1.481-1.48L115.255,179.9z"/>
	<path d="M115.839,178.898c-0.283-0.283-0.521-0.51-0.764-0.719l0.435-0.436l0.464,0.419l0.017-0.018   c-0.108-0.413-0.097-0.91,0.355-1.363c0.373-0.373,0.882-0.429,1.324-0.226l0.011-0.011c-0.068-0.237-0.08-0.464-0.05-0.661   c0.039-0.289,0.151-0.538,0.412-0.798c0.362-0.362,1.137-0.661,2.087,0.289l1.61,1.61l-0.486,0.486l-1.549-1.549   c-0.526-0.526-1.034-0.649-1.436-0.248c-0.283,0.282-0.294,0.712-0.136,1.04c0.045,0.09,0.119,0.197,0.208,0.287l1.69,1.69   l-0.486,0.486l-1.639-1.639c-0.437-0.437-0.944-0.56-1.323-0.181c-0.311,0.311-0.289,0.785-0.119,1.113   c0.045,0.102,0.119,0.198,0.204,0.283l1.65,1.65l-0.486,0.486L115.839,178.898z"/>
	<path d="M120.709,174.332c-0.351-0.351-0.644-0.621-0.916-0.87l0.447-0.447l0.492,0.447l0.011-0.011   c-0.13-0.538-0.006-1.059,0.44-1.505c0.661-0.662,1.719-0.599,2.549,0.231c0.984,0.984,0.872,2.07,0.227,2.715   c-0.362,0.361-0.837,0.52-1.272,0.412l-0.012,0.012l1.486,1.486l-0.492,0.491L120.709,174.332z M121.93,174.57   c0.073,0.073,0.153,0.13,0.226,0.181c0.435,0.254,0.972,0.191,1.328-0.165c0.526-0.525,0.402-1.26-0.226-1.888   c-0.549-0.549-1.306-0.729-1.832-0.203c-0.339,0.339-0.414,0.898-0.136,1.368c0.045,0.079,0.102,0.17,0.169,0.237L121.93,174.57z"/>
	<path d="M121.757,168.943l0.498-0.498l4.014,4.014l-0.498,0.498L121.757,168.943z"/>
	<path d="M128.191,167.755c1.012,1.012,0.752,2.154,0.09,2.815c-0.741,0.74-1.854,0.769-2.72-0.097   c-0.916-0.916-0.854-2.053-0.096-2.81C126.251,166.878,127.354,166.918,128.191,167.755z M126.048,169.954   c0.6,0.6,1.397,0.707,1.883,0.221c0.475-0.475,0.385-1.277-0.232-1.895c-0.463-0.463-1.282-0.819-1.87-0.231   C125.24,168.637,125.529,169.435,126.048,169.954z"/>
	<path d="M127.656,165.599l2.216,1.018c0.243,0.119,0.525,0.266,0.735,0.385l0.011-0.012c-0.113-0.215-0.266-0.48-0.395-0.745   l-1.063-2.149l0.526-0.525l1.205,2.697c0.583,1.295,0.82,2.019,0.774,2.651c-0.028,0.458-0.187,0.786-0.289,0.932l-0.542-0.292   c0.084-0.165,0.169-0.408,0.191-0.68c0.028-0.243,0.007-0.604-0.135-0.973c-0.028-0.073-0.051-0.13-0.08-0.158   s-0.079-0.057-0.164-0.096l-3.534-1.51L127.656,165.599z"/>
	<path d="M130.88,163.856c-0.283-0.283-0.521-0.509-0.764-0.719l0.435-0.436l0.464,0.419l0.017-0.017   c-0.108-0.413-0.097-0.911,0.355-1.363c0.373-0.373,0.882-0.43,1.323-0.226l0.012-0.012c-0.068-0.237-0.08-0.464-0.05-0.66   c0.039-0.289,0.151-0.539,0.412-0.799c0.362-0.361,1.137-0.66,2.087,0.29l1.61,1.61l-0.486,0.485l-1.549-1.549   c-0.526-0.526-1.034-0.649-1.436-0.248c-0.283,0.283-0.294,0.713-0.136,1.04c0.045,0.091,0.119,0.198,0.208,0.288l1.69,1.69   l-0.486,0.486l-1.639-1.639c-0.437-0.437-0.944-0.56-1.323-0.181c-0.311,0.311-0.289,0.785-0.119,1.113   c0.045,0.102,0.119,0.197,0.204,0.282l1.65,1.65l-0.486,0.486L130.88,163.856z"/>
	<path d="M136.593,159.579c0.685,0.662,1.391,0.509,1.888,0.011c0.356-0.355,0.51-0.632,0.616-0.899l0.441,0.272   c-0.095,0.255-0.305,0.645-0.74,1.08c-0.843,0.842-1.9,0.791-2.726-0.034s-0.989-1.962-0.192-2.76   c0.894-0.893,1.917-0.344,2.421,0.16c0.101,0.101,0.169,0.191,0.214,0.248L136.593,159.579z M137.695,157.765   c-0.311-0.322-0.939-0.679-1.499-0.119c-0.503,0.503-0.26,1.188,0.045,1.572L137.695,157.765z"/>
	<path d="M138.432,156.305c-0.283-0.283-0.52-0.509-0.764-0.719l0.441-0.44l0.48,0.424l0.011-0.012   c-0.124-0.396-0.062-0.967,0.39-1.419c0.378-0.379,1.193-0.74,2.132,0.198l1.634,1.634l-0.498,0.497l-1.577-1.577   c-0.441-0.441-0.973-0.645-1.442-0.175c-0.328,0.327-0.35,0.814-0.158,1.176c0.04,0.085,0.113,0.181,0.197,0.265l1.646,1.646   l-0.498,0.498L138.432,156.305z"/>
	<path d="M140.644,151.038l0.786,0.786l0.712-0.712l0.379,0.379l-0.712,0.712l1.476,1.476c0.339,0.339,0.627,0.436,0.904,0.158   c0.13-0.13,0.21-0.242,0.254-0.322l0.396,0.352c-0.057,0.135-0.181,0.316-0.374,0.508c-0.232,0.232-0.492,0.346-0.746,0.328   c-0.289-0.006-0.583-0.198-0.905-0.521l-1.492-1.492l-0.424,0.424l-0.379-0.379l0.424-0.424l-0.656-0.656L140.644,151.038z"/>
</g>
<g>
	<path d="M113.882,210.002l-1.402,1.401l0.802,1.085c0.074-0.096,0.143-0.186,0.278-0.321c0.283-0.282,0.627-0.504,0.989-0.594   c0.452-0.125,1.006-0.046,1.469,0.417c0.719,0.719,0.685,1.827-0.112,2.624c-0.401,0.401-0.854,0.628-1.142,0.69l-0.254-0.503   c0.243-0.062,0.656-0.249,0.989-0.583c0.469-0.469,0.566-1.175,0.073-1.668c-0.479-0.469-1.136-0.491-1.871,0.243   c-0.209,0.209-0.351,0.396-0.469,0.549l-1.527-2.002l1.758-1.758L113.882,210.002z"/>
	<path d="M119.056,207.981l0.339,0.339l-2.917,2.917l-0.339-0.339L119.056,207.981z"/>
	<path d="M120.726,208.472c0.356-0.085,0.791-0.295,1.13-0.634c0.503-0.503,0.533-1.062,0.148-1.447   c-0.356-0.355-0.764-0.356-1.476-0.039c-0.842,0.401-1.549,0.463-2.086-0.074c-0.594-0.594-0.542-1.525,0.199-2.267   c0.39-0.39,0.763-0.583,1.029-0.655l0.266,0.537c-0.193,0.056-0.561,0.196-0.905,0.542c-0.52,0.52-0.407,1.029-0.147,1.289   c0.356,0.356,0.764,0.3,1.492-0.023c0.895-0.395,1.533-0.412,2.093,0.147c0.588,0.588,0.661,1.532-0.238,2.432   c-0.368,0.367-0.876,0.661-1.216,0.729L120.726,208.472z"/>
	<path d="M125.25,202.363c1.012,1.012,0.752,2.154,0.091,2.816c-0.741,0.74-1.854,0.769-2.72-0.097   c-0.915-0.915-0.854-2.053-0.097-2.811C123.311,201.487,124.413,201.526,125.25,202.363z M123.107,204.562   c0.6,0.6,1.396,0.707,1.883,0.221c0.475-0.475,0.385-1.277-0.232-1.895c-0.463-0.463-1.282-0.818-1.871-0.23   C122.299,203.246,122.588,204.043,123.107,204.562z"/>
	<path d="M129.119,201.073c-0.062,0.198-0.26,0.576-0.628,0.943c-0.825,0.826-1.922,0.804-2.759-0.033   c-0.842-0.842-0.876-2.03,0.017-2.924c0.294-0.294,0.628-0.479,0.832-0.548l0.271,0.498c-0.186,0.051-0.435,0.175-0.707,0.446   c-0.627,0.628-0.504,1.43,0.067,2.001c0.634,0.634,1.431,0.617,1.974,0.074c0.283-0.283,0.395-0.544,0.475-0.747L129.119,201.073z"/>
	<path d="M126.854,196.532c0.175,0.163,0.187,0.424-0.011,0.622c-0.175,0.175-0.437,0.163-0.605-0.006   c-0.176-0.176-0.182-0.442,0-0.623C126.423,196.339,126.678,196.356,126.854,196.532z M129.804,200.591l-2.736-2.736l0.498-0.498   l2.736,2.736L129.804,200.591z"/>
	<path d="M132.643,197.752l-0.384-0.306l-0.017,0.018c0.062,0.367-0.039,0.854-0.429,1.244c-0.554,0.554-1.228,0.445-1.623,0.05   c-0.661-0.661-0.436-1.611,0.628-2.662l-0.057-0.057c-0.226-0.226-0.695-0.571-1.255-0.011c-0.254,0.254-0.441,0.599-0.509,0.915   l-0.441-0.215c0.08-0.373,0.311-0.798,0.656-1.143c0.837-0.837,1.612-0.469,2.161,0.08l1.023,1.023   c0.237,0.237,0.48,0.457,0.701,0.61L132.643,197.752z M131.174,196.43c-0.556,0.53-1.075,1.243-0.544,1.774   c0.322,0.322,0.69,0.261,0.945,0.006c0.356-0.355,0.356-0.809,0.204-1.119c-0.034-0.067-0.079-0.136-0.131-0.188L131.174,196.43z"/>
	<path d="M129.841,192.526l0.498-0.497l4.014,4.014l-0.498,0.497L129.841,192.526z"/>
	<path d="M132.375,189.992l0.498-0.497l1.707,1.707l0.011-0.012c-0.062-0.22-0.062-0.469,0.006-0.706   c0.062-0.232,0.181-0.464,0.367-0.65c0.367-0.368,1.182-0.729,2.126,0.215l1.628,1.628l-0.498,0.498l-1.571-1.571   c-0.441-0.441-0.979-0.65-1.448-0.182c-0.322,0.322-0.351,0.803-0.17,1.164c0.04,0.097,0.107,0.176,0.204,0.272l1.65,1.65   l-0.498,0.497L132.375,189.992z"/>
	<path d="M141.043,189.352l-0.384-0.306l-0.017,0.018c0.062,0.367-0.039,0.854-0.429,1.244c-0.554,0.554-1.228,0.446-1.623,0.051   c-0.661-0.661-0.436-1.612,0.627-2.663l-0.057-0.057c-0.226-0.226-0.695-0.571-1.254-0.011c-0.254,0.254-0.441,0.599-0.509,0.915   l-0.441-0.215c0.08-0.373,0.311-0.797,0.656-1.143c0.837-0.836,1.612-0.469,2.161,0.08l1.023,1.023   c0.237,0.237,0.48,0.458,0.7,0.61L141.043,189.352z M139.575,188.029c-0.556,0.53-1.075,1.243-0.544,1.774   c0.322,0.322,0.69,0.261,0.945,0.007c0.356-0.356,0.356-0.81,0.204-1.12c-0.034-0.067-0.079-0.136-0.131-0.188L139.575,188.029z"/>
	<path d="M141.656,188.163l-0.373-2.85c-0.029-0.267-0.045-0.509-0.068-0.78l-0.011-0.011l-1.481,1.481l-0.402-0.402l2.086-2.086   l0.306,0.317l0.367,2.809c0.04,0.267,0.063,0.516,0.08,0.781l0.011,0.011l1.6-1.6l0.396,0.396l-2.222,2.222L141.656,188.163z"/>
	<path d="M146.191,184.204l-0.384-0.306l-0.017,0.018c0.062,0.367-0.04,0.854-0.43,1.243c-0.554,0.555-1.228,0.446-1.623,0.051   c-0.661-0.661-0.435-1.611,0.628-2.662l-0.057-0.057c-0.226-0.226-0.695-0.571-1.255-0.012c-0.254,0.255-0.441,0.6-0.509,0.916   l-0.441-0.215c0.08-0.373,0.311-0.798,0.656-1.143c0.836-0.837,1.611-0.469,2.16,0.08l1.023,1.023   c0.237,0.237,0.48,0.457,0.701,0.61L146.191,184.204z M144.722,182.882c-0.556,0.53-1.075,1.243-0.544,1.774   c0.322,0.322,0.69,0.261,0.945,0.006c0.356-0.355,0.356-0.809,0.204-1.119c-0.034-0.067-0.079-0.136-0.131-0.188L144.722,182.882z"/>
	<path d="M145.521,181.11c-0.323-0.323-0.605-0.594-0.877-0.832l0.436-0.435l0.554,0.52l0.023-0.022   c-0.243-0.491-0.176-1.023,0.158-1.357c0.057-0.057,0.102-0.09,0.159-0.123l0.469,0.469c-0.062,0.04-0.119,0.085-0.187,0.152   c-0.35,0.351-0.333,0.865-0.028,1.306c0.057,0.08,0.125,0.171,0.21,0.256l1.458,1.458l-0.492,0.491L145.521,181.11z"/>
	<path d="M147.602,174.766l3.308,3.308c0.243,0.243,0.525,0.514,0.729,0.684l-0.447,0.446l-0.497-0.452l-0.011,0.012   c0.152,0.457,0.051,1.023-0.396,1.47c-0.661,0.662-1.73,0.61-2.561-0.22c-0.916-0.904-0.911-2.03-0.244-2.698   c0.418-0.418,0.899-0.502,1.245-0.406l0.011-0.011l-1.634-1.634L147.602,174.766z M149.496,177.655   c-0.062-0.062-0.153-0.143-0.232-0.188c-0.39-0.243-0.921-0.231-1.294,0.142c-0.515,0.515-0.368,1.271,0.237,1.876   c0.555,0.555,1.284,0.742,1.821,0.205c0.333-0.334,0.418-0.86,0.136-1.323c-0.051-0.085-0.113-0.158-0.192-0.237L149.496,177.655z"/>
	<path d="M151.866,177.512c0.243-0.052,0.605-0.209,0.854-0.458c0.362-0.362,0.351-0.712,0.124-0.938   c-0.237-0.237-0.508-0.227-1.013,0.005c-0.666,0.317-1.169,0.278-1.497-0.05c-0.441-0.441-0.447-1.16,0.141-1.748   c0.277-0.277,0.6-0.44,0.843-0.503l0.238,0.486c-0.175,0.04-0.463,0.147-0.718,0.402c-0.294,0.294-0.289,0.627-0.085,0.831   c0.226,0.226,0.492,0.164,0.983-0.058c0.655-0.294,1.137-0.299,1.544,0.108c0.48,0.48,0.446,1.192-0.204,1.843   c-0.299,0.299-0.649,0.503-0.955,0.582L151.866,177.512z"/>
	<path d="M152.958,170.392l0.786,0.786l0.713-0.713l0.379,0.379l-0.713,0.713l1.476,1.476c0.34,0.34,0.628,0.435,0.905,0.157   c0.13-0.13,0.209-0.242,0.254-0.322l0.396,0.352c-0.057,0.135-0.182,0.316-0.374,0.509c-0.231,0.231-0.491,0.345-0.746,0.328   c-0.288-0.007-0.581-0.198-0.904-0.521l-1.492-1.492l-0.425,0.425l-0.379-0.379l0.425-0.425l-0.656-0.656L152.958,170.392z"/>
	<path d="M158.84,168.773c1.012,1.012,0.752,2.154,0.091,2.815c-0.741,0.741-1.855,0.77-2.721-0.096   c-0.915-0.915-0.854-2.053-0.096-2.811C156.901,167.896,158.003,167.937,158.84,168.773z M156.698,170.973   c0.6,0.6,1.396,0.707,1.883,0.221c0.475-0.475,0.385-1.277-0.232-1.895c-0.463-0.463-1.283-0.818-1.871-0.23   S156.178,170.453,156.698,170.973z"/>
	<path d="M158.045,164.322l0.498-0.498l1.707,1.707l0.011-0.011c-0.062-0.22-0.062-0.47,0.006-0.707   c0.062-0.232,0.181-0.464,0.367-0.65c0.367-0.367,1.182-0.729,2.126,0.216l1.628,1.628l-0.497,0.497l-1.571-1.571   c-0.441-0.441-0.979-0.65-1.447-0.182c-0.322,0.322-0.352,0.803-0.171,1.165c0.04,0.097,0.108,0.175,0.205,0.271l1.65,1.65   l-0.498,0.498L158.045,164.322z"/>
	<path d="M164.199,163.642c0.684,0.662,1.39,0.509,1.888,0.011c0.356-0.356,0.51-0.633,0.616-0.899l0.44,0.272   c-0.095,0.255-0.305,0.645-0.74,1.08c-0.842,0.842-1.9,0.791-2.726-0.034s-0.989-1.962-0.191-2.76   c0.893-0.893,1.917-0.345,2.421,0.159c0.101,0.101,0.169,0.192,0.214,0.249L164.199,163.642z M165.3,161.827   c-0.311-0.322-0.938-0.679-1.498-0.119c-0.503,0.503-0.26,1.188,0.046,1.571L165.3,161.827z"/>
	<path d="M169.548,160.847l-0.385-0.305l-0.017,0.017c0.062,0.367-0.04,0.854-0.43,1.244c-0.554,0.554-1.228,0.446-1.623,0.051   c-0.661-0.661-0.436-1.611,0.628-2.663l-0.057-0.057c-0.226-0.226-0.695-0.57-1.255-0.011c-0.254,0.254-0.441,0.6-0.509,0.915   l-0.441-0.215c0.079-0.372,0.311-0.797,0.655-1.142c0.837-0.837,1.612-0.47,2.161,0.079l1.023,1.023   c0.237,0.237,0.479,0.458,0.7,0.61L169.548,160.847z M168.079,159.525c-0.555,0.529-1.074,1.242-0.543,1.773   c0.322,0.322,0.69,0.261,0.944,0.007c0.356-0.356,0.355-0.809,0.204-1.12c-0.034-0.067-0.08-0.135-0.132-0.187L168.079,159.525z"/>
	<path d="M166.746,155.622l0.498-0.498l4.014,4.014l-0.498,0.498L166.746,155.622z"/>
	<path d="M169.171,154.179l0.786,0.786l0.712-0.712l0.379,0.379l-0.712,0.712l1.476,1.476c0.34,0.34,0.627,0.436,0.904,0.158   c0.13-0.13,0.21-0.243,0.254-0.322l0.396,0.352c-0.057,0.135-0.181,0.315-0.373,0.508c-0.232,0.232-0.492,0.346-0.746,0.328   c-0.289-0.006-0.582-0.197-0.905-0.521l-1.492-1.492l-0.424,0.424l-0.379-0.379l0.424-0.424l-0.656-0.656L169.171,154.179z"/>
	<path d="M169.954,152.414l0.497-0.497l1.707,1.707l0.012-0.012c-0.062-0.22-0.062-0.469,0.005-0.706   c0.062-0.232,0.181-0.464,0.367-0.65c0.368-0.368,1.183-0.729,2.127,0.215l1.628,1.628l-0.498,0.498l-1.571-1.571   c-0.441-0.441-0.979-0.65-1.447-0.182c-0.322,0.322-0.352,0.803-0.17,1.164c0.04,0.097,0.107,0.176,0.204,0.272l1.65,1.65   l-0.497,0.497L169.954,152.414z"/>
</g>
<g>
	<path d="M162.122,193.777c-0.107,0.096-0.231,0.231-0.351,0.396c-0.65,0.91-0.491,1.894,0.028,2.583l0.017-0.017   c-0.056-0.407,0.057-0.904,0.464-1.312c0.65-0.65,1.577-0.64,2.296,0.079c0.672,0.672,0.836,1.752,0.072,2.516   c-0.785,0.785-1.91,0.689-2.865-0.266c-0.724-0.724-1.035-1.555-1.035-2.279c0.005-0.604,0.227-1.197,0.634-1.718   c0.123-0.17,0.243-0.3,0.333-0.39L162.122,193.777z M164.101,196.038c-0.525-0.525-1.143-0.543-1.601-0.085   c-0.3,0.3-0.391,0.764-0.261,1.165c0.023,0.09,0.074,0.186,0.165,0.276c0.616,0.595,1.34,0.764,1.859,0.244   C164.694,197.209,164.626,196.563,164.101,196.038z"/>
	<path d="M167.459,191.729l0.34,0.34l-2.917,2.917l-0.34-0.34L167.459,191.729z"/>
	<path d="M171.334,187.865c-0.56-0.503-1.231-1.108-1.702-1.589l-0.017,0.017c0.317,0.577,0.634,1.21,0.968,1.929l1.175,2.521   l-0.373,0.373l-2.431-1.198c-0.718-0.356-1.362-0.694-1.923-1.04l-0.011,0.011c0.464,0.487,1.074,1.154,1.611,1.76l1.532,1.735   l-0.469,0.469l-3.545-4.076l0.627-0.627l2.493,1.192c0.627,0.311,1.176,0.6,1.668,0.898l0.017-0.017   c-0.287-0.48-0.57-1.035-0.882-1.685l-1.164-2.521l0.628-0.628l4.048,3.573l-0.48,0.48L171.334,187.865z"/>
	<path d="M173.328,186.665c0.684,0.66,1.391,0.508,1.888,0.011c0.356-0.356,0.509-0.634,0.616-0.899l0.441,0.271   c-0.096,0.254-0.305,0.645-0.74,1.08c-0.843,0.843-1.9,0.791-2.726-0.034s-0.989-1.962-0.192-2.759   c0.894-0.894,1.917-0.345,2.42,0.158c0.102,0.102,0.17,0.191,0.216,0.249L173.328,186.665z M174.43,184.85   c-0.312-0.323-0.938-0.679-1.498-0.119c-0.503,0.503-0.261,1.187,0.045,1.572L174.43,184.85z"/>
	<path d="M175.167,183.389c-0.283-0.283-0.521-0.509-0.763-0.718l0.44-0.44l0.48,0.424l0.012-0.012   c-0.124-0.396-0.062-0.967,0.39-1.419c0.379-0.379,1.193-0.74,2.132,0.198l1.634,1.634l-0.497,0.497l-1.577-1.577   c-0.441-0.441-0.973-0.645-1.442-0.175c-0.328,0.328-0.351,0.813-0.158,1.176c0.04,0.085,0.113,0.182,0.197,0.266l1.646,1.646   l-0.497,0.497L175.167,183.389z"/>
	<path d="M177.378,178.124l0.786,0.786l0.713-0.713l0.379,0.379l-0.713,0.713l1.476,1.476c0.339,0.339,0.628,0.435,0.904,0.158   c0.131-0.131,0.21-0.243,0.255-0.323l0.396,0.351c-0.057,0.137-0.181,0.317-0.373,0.51c-0.231,0.231-0.492,0.344-0.746,0.328   c-0.288-0.007-0.583-0.198-0.905-0.521l-1.492-1.492l-0.424,0.424l-0.379-0.379l0.424-0.424l-0.656-0.656L177.378,178.124z"/>
	<path d="M183.69,178.857l-0.385-0.305l-0.017,0.017c0.062,0.368-0.041,0.854-0.431,1.243c-0.555,0.555-1.227,0.447-1.622,0.052   c-0.662-0.662-0.436-1.611,0.627-2.664l-0.057-0.057c-0.226-0.226-0.695-0.57-1.255-0.011c-0.255,0.255-0.441,0.6-0.509,0.917   l-0.44-0.216c0.078-0.373,0.311-0.797,0.655-1.142c0.837-0.837,1.611-0.469,2.159,0.079l1.023,1.023   c0.237,0.237,0.481,0.458,0.702,0.61L183.69,178.857z M182.219,177.535c-0.554,0.53-1.074,1.244-0.543,1.775   c0.322,0.322,0.689,0.26,0.944,0.005c0.356-0.356,0.355-0.809,0.203-1.119c-0.033-0.068-0.079-0.136-0.13-0.187L182.219,177.535z"/>
	<path d="M180.886,173.632l0.498-0.498l4.015,4.015l-0.498,0.498L180.886,173.632z"/>
	<path d="M185.784,168.734l3.308,3.308c0.243,0.243,0.526,0.515,0.729,0.685l-0.446,0.446l-0.498-0.453l-0.012,0.012   c0.153,0.458,0.051,1.023-0.396,1.47c-0.662,0.662-1.73,0.611-2.562-0.22c-0.915-0.905-0.909-2.03-0.242-2.697   c0.418-0.418,0.899-0.503,1.243-0.407l0.012-0.012l-1.634-1.634L185.784,168.734z M187.678,171.623   c-0.062-0.062-0.153-0.142-0.232-0.186c-0.39-0.243-0.922-0.232-1.295,0.141c-0.515,0.515-0.366,1.272,0.238,1.877   c0.555,0.555,1.284,0.741,1.821,0.204c0.333-0.333,0.417-0.86,0.135-1.322c-0.051-0.086-0.112-0.159-0.191-0.238L187.678,171.623z"/>
	<path d="M187.674,167.863c0.175,0.163,0.187,0.423-0.012,0.621c-0.175,0.175-0.436,0.164-0.604-0.005   c-0.176-0.176-0.181-0.442,0-0.623C187.245,167.67,187.499,167.688,187.674,167.863z M190.625,171.922l-2.736-2.736l0.498-0.498   l2.736,2.736L190.625,171.922z"/>
	<path d="M191.373,170.157c0.243-0.052,0.605-0.209,0.854-0.458c0.361-0.361,0.35-0.713,0.123-0.939   c-0.237-0.237-0.509-0.226-1.012,0.006c-0.667,0.317-1.17,0.277-1.498-0.051c-0.441-0.441-0.447-1.158,0.142-1.747   c0.276-0.276,0.599-0.44,0.843-0.503l0.236,0.486c-0.175,0.04-0.463,0.146-0.718,0.401c-0.294,0.294-0.288,0.628-0.085,0.831   c0.227,0.227,0.492,0.164,0.984-0.057c0.655-0.294,1.136-0.3,1.543,0.107c0.481,0.481,0.447,1.193-0.203,1.844   c-0.3,0.3-0.65,0.502-0.955,0.582L191.373,170.157z"/>
	<path d="M195.275,164.491c1.012,1.012,0.751,2.153,0.09,2.814c-0.741,0.741-1.854,0.77-2.719-0.096   c-0.916-0.916-0.854-2.052-0.097-2.81C193.335,163.614,194.438,163.654,195.275,164.491z M193.132,166.69   c0.599,0.599,1.396,0.707,1.883,0.221c0.475-0.475,0.384-1.278-0.232-1.895c-0.464-0.464-1.283-0.82-1.871-0.232   S192.612,166.17,193.132,166.69z"/>
	<path d="M195.413,163.369c-0.322-0.322-0.605-0.594-0.877-0.83l0.436-0.436l0.555,0.52l0.022-0.022   c-0.244-0.492-0.176-1.023,0.157-1.356c0.057-0.057,0.103-0.091,0.159-0.124l0.469,0.469c-0.062,0.039-0.118,0.085-0.186,0.152   c-0.351,0.351-0.334,0.865-0.029,1.307c0.057,0.078,0.124,0.169,0.209,0.254l1.459,1.459l-0.491,0.491L195.413,163.369z"/>
	<path d="M197.494,157.024l3.308,3.308c0.243,0.243,0.525,0.516,0.729,0.685l-0.447,0.447l-0.498-0.453l-0.011,0.011   c0.152,0.459,0.051,1.023-0.396,1.471c-0.661,0.661-1.729,0.61-2.561-0.221c-0.916-0.904-0.91-2.029-0.243-2.696   c0.419-0.419,0.899-0.503,1.244-0.408l0.011-0.011l-1.634-1.634L197.494,157.024z M199.387,159.914   c-0.062-0.062-0.153-0.142-0.231-0.187c-0.39-0.243-0.922-0.232-1.295,0.141c-0.515,0.515-0.367,1.273,0.237,1.878   c0.555,0.555,1.284,0.741,1.821,0.204c0.334-0.334,0.417-0.86,0.136-1.323c-0.052-0.085-0.113-0.158-0.192-0.237L199.387,159.914z"/>
	<path d="M201.334,158.658c0.684,0.66,1.391,0.508,1.888,0.011c0.356-0.356,0.509-0.634,0.616-0.899l0.441,0.271   c-0.096,0.254-0.305,0.645-0.74,1.08c-0.843,0.843-1.9,0.791-2.726-0.034s-0.989-1.962-0.192-2.759   c0.894-0.894,1.917-0.345,2.42,0.158c0.102,0.102,0.17,0.191,0.216,0.249L201.334,158.658z M202.437,156.843   c-0.312-0.323-0.938-0.679-1.498-0.119c-0.504,0.504-0.261,1.187,0.045,1.572L202.437,156.843z"/>
	<path d="M203.287,155.495c-0.322-0.322-0.605-0.594-0.876-0.831l0.435-0.435l0.555,0.52l0.022-0.022   c-0.244-0.492-0.176-1.023,0.158-1.357c0.057-0.057,0.102-0.09,0.158-0.123l0.469,0.469c-0.062,0.039-0.118,0.085-0.186,0.152   c-0.351,0.351-0.334,0.865-0.028,1.306c0.056,0.079,0.123,0.17,0.208,0.255l1.459,1.459l-0.491,0.491L203.287,155.495z"/>
	<path d="M206.442,155.088c0.243-0.052,0.605-0.209,0.854-0.458c0.362-0.362,0.35-0.713,0.123-0.939   c-0.237-0.237-0.508-0.227-1.012,0.006c-0.666,0.316-1.17,0.277-1.498-0.051c-0.441-0.441-0.446-1.159,0.142-1.747   c0.277-0.277,0.6-0.441,0.843-0.503l0.237,0.485c-0.175,0.04-0.464,0.147-0.719,0.402c-0.294,0.294-0.288,0.628-0.085,0.831   c0.227,0.227,0.492,0.164,0.984-0.057c0.655-0.294,1.136-0.3,1.543,0.107c0.481,0.481,0.447,1.193-0.203,1.844   c-0.299,0.299-0.65,0.502-0.955,0.582L206.442,155.088z"/>
</g>
<g>
	<path d="M170.436,216.705l0.328,0.328l1.747,4.946l-0.515,0.515l-1.656-4.846l-0.011-0.011l-1.798,1.798l-0.413-0.413   L170.436,216.705z"/>
	<path d="M175.837,215.296l0.339,0.339l-2.917,2.917l-0.339-0.339L175.837,215.296z"/>
	<path d="M174.855,212.015l3.811,3.811l-0.491,0.491l-3.811-3.811L174.855,212.015z"/>
	<path d="M177.514,212.986c-0.283-0.283-0.521-0.509-0.765-0.718l0.441-0.441l0.48,0.424l0.012-0.012   c-0.125-0.395-0.062-0.967,0.39-1.419c0.379-0.379,1.193-0.74,2.132,0.198l1.634,1.634l-0.498,0.498l-1.577-1.577   c-0.441-0.441-0.973-0.645-1.441-0.176c-0.328,0.328-0.35,0.814-0.158,1.176c0.04,0.085,0.113,0.182,0.197,0.266l1.646,1.646   l-0.497,0.497L177.514,212.986z"/>
	<path d="M179.725,207.721l0.786,0.786l0.713-0.713l0.379,0.379l-0.713,0.713l1.476,1.476c0.339,0.339,0.628,0.435,0.904,0.158   c0.13-0.13,0.21-0.243,0.255-0.323l0.396,0.352c-0.058,0.136-0.182,0.316-0.374,0.509c-0.231,0.231-0.491,0.345-0.746,0.328   c-0.289-0.006-0.583-0.198-0.905-0.521l-1.492-1.492l-0.424,0.424l-0.379-0.379l0.424-0.424l-0.656-0.656L179.725,207.721z"/>
	<path d="M183.52,208.416c0.685,0.661,1.391,0.508,1.889,0.01c0.355-0.355,0.509-0.632,0.615-0.898l0.441,0.271   c-0.095,0.255-0.305,0.645-0.74,1.08c-0.843,0.843-1.9,0.791-2.726-0.034s-0.989-1.962-0.192-2.759   c0.894-0.894,1.917-0.345,2.421,0.159c0.101,0.101,0.17,0.191,0.215,0.248L183.52,208.416z M184.623,206.601   c-0.311-0.322-0.938-0.679-1.498-0.119c-0.503,0.503-0.26,1.188,0.045,1.572L184.623,206.601z"/>
	<path d="M185.473,205.254c-0.323-0.323-0.605-0.594-0.877-0.832l0.436-0.436l0.554,0.521l0.022-0.022   c-0.243-0.491-0.176-1.023,0.158-1.357c0.057-0.057,0.102-0.09,0.159-0.124l0.469,0.469c-0.062,0.041-0.119,0.086-0.187,0.153   c-0.351,0.351-0.334,0.865-0.028,1.306c0.057,0.08,0.125,0.17,0.21,0.255l1.458,1.458l-0.492,0.492L185.473,205.254z"/>
	<path d="M187.362,203.443c-0.351-0.351-0.645-0.621-0.916-0.871l0.446-0.446l0.492,0.447l0.012-0.012   c-0.131-0.537-0.007-1.058,0.44-1.505c0.661-0.661,1.72-0.599,2.55,0.231c0.984,0.984,0.871,2.07,0.227,2.715   c-0.362,0.362-0.837,0.521-1.272,0.413l-0.011,0.011l1.486,1.486l-0.492,0.492L187.362,203.443z M188.583,203.681   c0.073,0.073,0.152,0.131,0.226,0.181c0.436,0.254,0.972,0.192,1.328-0.164c0.526-0.526,0.402-1.26-0.226-1.888   c-0.549-0.549-1.306-0.729-1.832-0.203c-0.339,0.339-0.413,0.897-0.136,1.368c0.046,0.079,0.103,0.169,0.17,0.236L188.583,203.681z   "/>
	<path d="M191.423,200.513c0.684,0.662,1.39,0.509,1.888,0.011c0.355-0.355,0.509-0.632,0.615-0.898l0.441,0.271   c-0.095,0.255-0.305,0.645-0.74,1.08c-0.842,0.842-1.9,0.791-2.726-0.034s-0.989-1.962-0.191-2.76   c0.893-0.893,1.916-0.344,2.42,0.16c0.101,0.101,0.17,0.191,0.215,0.248L191.423,200.513z M192.525,198.698   c-0.311-0.322-0.938-0.679-1.498-0.119c-0.503,0.503-0.26,1.188,0.045,1.572L192.525,198.698z"/>
	<path d="M193.375,197.352c-0.323-0.323-0.605-0.594-0.877-0.832l0.436-0.436l0.554,0.521l0.022-0.022   c-0.242-0.492-0.176-1.023,0.158-1.357c0.057-0.057,0.102-0.09,0.159-0.124l0.469,0.469c-0.062,0.04-0.118,0.085-0.187,0.153   c-0.351,0.351-0.334,0.865-0.028,1.306c0.057,0.08,0.125,0.17,0.21,0.255l1.458,1.458l-0.492,0.492L193.375,197.352z"/>
	<path d="M196.531,196.942c0.242-0.051,0.605-0.209,0.854-0.457c0.362-0.362,0.352-0.713,0.125-0.939   c-0.237-0.237-0.509-0.226-1.014,0.006c-0.666,0.316-1.169,0.278-1.497-0.05c-0.441-0.441-0.447-1.16,0.141-1.748   c0.277-0.277,0.601-0.44,0.843-0.503l0.238,0.486c-0.175,0.04-0.464,0.147-0.718,0.401c-0.294,0.294-0.289,0.627-0.085,0.831   c0.226,0.226,0.492,0.164,0.982-0.057c0.656-0.295,1.138-0.3,1.545,0.107c0.48,0.48,0.446,1.192-0.204,1.843   c-0.3,0.3-0.65,0.504-0.956,0.583L196.531,196.942z"/>
	<path d="M200.433,191.276c1.012,1.012,0.752,2.154,0.091,2.815c-0.741,0.741-1.855,0.77-2.721-0.096   c-0.916-0.916-0.854-2.053-0.096-2.811C198.494,190.399,199.596,190.439,200.433,191.276z M198.291,193.476   c0.6,0.6,1.396,0.707,1.883,0.221c0.475-0.475,0.385-1.277-0.232-1.895c-0.463-0.463-1.283-0.818-1.871-0.23   S197.771,192.956,198.291,193.476z"/>
	<path d="M200.458,190.043c-0.283-0.283-0.521-0.509-0.764-0.719l0.441-0.441l0.48,0.424l0.011-0.011   c-0.124-0.396-0.062-0.967,0.39-1.419c0.379-0.379,1.193-0.74,2.132,0.198l1.634,1.634l-0.497,0.497l-1.577-1.577   c-0.441-0.441-0.973-0.645-1.441-0.176c-0.328,0.328-0.351,0.815-0.159,1.177c0.04,0.085,0.114,0.181,0.198,0.265l1.646,1.646   l-0.498,0.498L200.458,190.043z"/>
	<path d="M207.108,187.383l-0.385-0.305l-0.017,0.017c0.062,0.368-0.04,0.854-0.43,1.244c-0.554,0.554-1.228,0.446-1.623,0.051   c-0.661-0.661-0.436-1.611,0.628-2.663l-0.057-0.057c-0.226-0.226-0.695-0.57-1.255-0.011c-0.255,0.255-0.441,0.6-0.509,0.915   l-0.441-0.215c0.079-0.372,0.311-0.797,0.655-1.142c0.837-0.837,1.612-0.47,2.161,0.079l1.023,1.023   c0.237,0.237,0.479,0.458,0.7,0.61L207.108,187.383z M205.637,186.061c-0.554,0.53-1.073,1.243-0.542,1.774   c0.322,0.322,0.69,0.261,0.944,0.007c0.356-0.356,0.355-0.809,0.203-1.119c-0.033-0.068-0.079-0.136-0.131-0.188L205.637,186.061z"/>
	<path d="M204.305,182.158l0.498-0.498l4.014,4.014l-0.498,0.498L204.305,182.158z"/>
	<path d="M208.971,181.756c-0.323-0.323-0.605-0.594-0.877-0.832l0.436-0.436l0.554,0.521l0.022-0.022   c-0.242-0.492-0.176-1.023,0.158-1.357c0.057-0.057,0.102-0.09,0.159-0.124l0.469,0.469c-0.062,0.04-0.118,0.085-0.187,0.153   c-0.351,0.351-0.334,0.865-0.028,1.306c0.057,0.08,0.125,0.17,0.21,0.255l1.458,1.458l-0.492,0.492L208.971,181.756z"/>
	<path d="M211.703,180.233c0.685,0.661,1.391,0.508,1.888,0.011c0.356-0.356,0.51-0.633,0.616-0.899l0.441,0.271   c-0.096,0.256-0.306,0.646-0.74,1.08c-0.843,0.843-1.9,0.791-2.726-0.034s-0.989-1.962-0.192-2.759   c0.894-0.894,1.917-0.345,2.421,0.159c0.101,0.101,0.169,0.192,0.214,0.249L211.703,180.233z M212.805,178.418   c-0.312-0.321-0.938-0.679-1.499-0.118c-0.503,0.503-0.26,1.188,0.046,1.571L212.805,178.418z"/>
	<path d="M211.523,174.94l0.498-0.498l4.014,4.014l-0.498,0.498L211.523,174.94z"/>
	<path d="M218.387,176.104l-0.385-0.305l-0.017,0.017c0.062,0.367-0.039,0.854-0.43,1.244c-0.554,0.554-1.228,0.446-1.623,0.051   c-0.661-0.661-0.436-1.611,0.628-2.663l-0.057-0.057c-0.226-0.226-0.695-0.57-1.255-0.011c-0.254,0.254-0.44,0.599-0.509,0.915   l-0.441-0.215c0.08-0.373,0.311-0.797,0.656-1.143c0.836-0.836,1.611-0.469,2.16,0.08l1.023,1.023   c0.237,0.237,0.479,0.458,0.7,0.61L218.387,176.104z M216.917,174.78c-0.555,0.531-1.074,1.244-0.543,1.775   c0.322,0.322,0.69,0.261,0.944,0.007c0.356-0.356,0.356-0.81,0.204-1.12c-0.034-0.067-0.079-0.136-0.131-0.188L216.917,174.78z"/>
	<path d="M216.675,170.771l0.786,0.786l0.713-0.713l0.379,0.379l-0.713,0.713l1.476,1.476c0.339,0.339,0.628,0.435,0.904,0.158   c0.13-0.13,0.21-0.243,0.254-0.322l0.397,0.351c-0.058,0.136-0.182,0.316-0.374,0.509c-0.231,0.231-0.491,0.345-0.746,0.328   c-0.289-0.006-0.583-0.198-0.905-0.521l-1.492-1.492l-0.424,0.424l-0.379-0.379l0.424-0.424l-0.656-0.656L216.675,170.771z"/>
	<path d="M218.52,168.961c0.175,0.163,0.188,0.424-0.011,0.622c-0.176,0.176-0.437,0.163-0.605-0.006   c-0.176-0.176-0.182-0.441-0.001-0.622C218.09,168.768,218.344,168.785,218.52,168.961z M221.471,173.02l-2.736-2.736l0.497-0.497   l2.736,2.736L221.471,173.02z"/>
	<path d="M223.88,167.829c1.012,1.012,0.752,2.154,0.091,2.815c-0.741,0.741-1.854,0.769-2.72-0.097   c-0.916-0.916-0.854-2.052-0.097-2.81C221.941,166.952,223.043,166.992,223.88,167.829z M221.738,170.028   c0.6,0.6,1.396,0.707,1.883,0.221c0.475-0.475,0.385-1.277-0.232-1.895c-0.463-0.463-1.282-0.819-1.871-0.23   C220.929,168.712,221.218,169.509,221.738,170.028z"/>
	<path d="M223.905,166.596c-0.283-0.283-0.52-0.51-0.764-0.719l0.441-0.441l0.48,0.424l0.011-0.011   c-0.124-0.396-0.062-0.967,0.391-1.42c0.378-0.378,1.193-0.74,2.132,0.198l1.634,1.634l-0.498,0.498l-1.577-1.577   c-0.441-0.441-0.973-0.645-1.441-0.176c-0.328,0.328-0.351,0.815-0.158,1.176c0.039,0.086,0.113,0.182,0.197,0.266l1.646,1.646   l-0.498,0.498L223.905,166.596z"/>
	<path d="M228.463,165.01c0.242-0.051,0.605-0.209,0.854-0.457c0.362-0.362,0.352-0.713,0.125-0.939   c-0.237-0.237-0.509-0.226-1.014,0.006c-0.666,0.316-1.169,0.278-1.497-0.05c-0.441-0.441-0.447-1.16,0.141-1.748   c0.277-0.277,0.601-0.44,0.843-0.503l0.238,0.486c-0.175,0.04-0.464,0.147-0.718,0.401c-0.294,0.294-0.289,0.627-0.085,0.831   c0.226,0.226,0.492,0.164,0.982-0.057c0.656-0.295,1.138-0.3,1.545,0.107c0.48,0.48,0.446,1.192-0.204,1.843   c-0.3,0.3-0.65,0.504-0.956,0.583L228.463,165.01z"/>
	<path d="M227.266,159.197l0.498-0.498l1.707,1.707l0.011-0.011c-0.062-0.22-0.062-0.47,0.006-0.707   c0.062-0.231,0.181-0.464,0.367-0.65c0.367-0.367,1.182-0.729,2.126,0.216l1.628,1.628l-0.497,0.497l-1.571-1.571   c-0.441-0.441-0.979-0.65-1.448-0.181c-0.322,0.322-0.351,0.802-0.17,1.164c0.04,0.097,0.108,0.175,0.205,0.271l1.65,1.65   l-0.498,0.498L227.266,159.197z"/>
	<path d="M231.468,156.013c0.175,0.163,0.188,0.424-0.011,0.622c-0.175,0.175-0.437,0.163-0.605-0.006   c-0.176-0.176-0.182-0.441,0-0.623C231.039,155.819,231.292,155.837,231.468,156.013z M234.419,160.071l-2.736-2.736l0.497-0.497   l2.736,2.736L234.419,160.071z"/>
	<path d="M233.9,156.905c-0.351-0.351-0.644-0.622-0.916-0.871l0.447-0.447l0.492,0.447l0.011-0.011   c-0.13-0.538-0.006-1.059,0.44-1.505c0.661-0.661,1.72-0.599,2.55,0.231c0.984,0.984,0.871,2.07,0.227,2.715   c-0.361,0.361-0.836,0.52-1.271,0.412l-0.012,0.012l1.486,1.486l-0.492,0.492L233.9,156.905z M235.122,157.143   c0.073,0.073,0.153,0.13,0.226,0.181c0.436,0.254,0.973,0.191,1.328-0.164c0.526-0.526,0.402-1.26-0.226-1.888   c-0.549-0.549-1.306-0.729-1.831-0.204c-0.34,0.34-0.414,0.898-0.136,1.368c0.045,0.08,0.102,0.17,0.169,0.237L235.122,157.143z"/>
	<path d="M238.385,155.088c0.242-0.051,0.605-0.209,0.854-0.457c0.362-0.362,0.352-0.713,0.125-0.939   c-0.237-0.237-0.509-0.226-1.013,0.005c-0.667,0.317-1.169,0.278-1.497-0.05c-0.441-0.441-0.448-1.159,0.14-1.747   c0.277-0.277,0.601-0.44,0.843-0.503l0.238,0.486c-0.175,0.04-0.464,0.147-0.718,0.401c-0.294,0.294-0.289,0.627-0.085,0.831   c0.226,0.226,0.492,0.164,0.982-0.057c0.656-0.295,1.138-0.3,1.545,0.107c0.48,0.48,0.446,1.192-0.204,1.843   c-0.3,0.3-0.65,0.504-0.956,0.583L238.385,155.088z"/>
</g>
<g>
	<path d="M2.132,107.602v1.845H1.465v-4.492h0.667v1.854h5.401v0.792H2.132z"/>
	<path d="M3.176,103.993l2.215-0.576c0.486-0.126,0.936-0.243,1.386-0.324v-0.027c-0.441-0.099-0.909-0.243-1.377-0.387   l-2.224-0.711v-0.666l2.179-0.675c0.522-0.162,0.981-0.288,1.422-0.387v-0.027c-0.441-0.072-0.9-0.189-1.413-0.333l-2.188-0.621   v-0.783l4.357,1.404v0.72l-2.08,0.666c-0.486,0.153-0.918,0.279-1.432,0.387v0.018c0.522,0.108,0.973,0.243,1.44,0.396l2.071,0.702   v0.72l-4.357,1.314V103.993z"/>
	<path d="M1.952,96.802c0.27-0.009,0.486,0.189,0.486,0.504c0,0.279-0.216,0.477-0.486,0.477c-0.279,0-0.495-0.207-0.495-0.495   C1.457,96.991,1.672,96.802,1.952,96.802z M7.533,97.684H3.176v-0.792h4.357V97.684z"/>
	<path d="M4.355,95.578c-0.45,0-0.819,0.009-1.18,0.036v-0.702l0.72-0.045v-0.018c-0.414-0.216-0.819-0.72-0.819-1.44   c0-0.604,0.36-1.54,1.855-1.54h2.602v0.792H5.021c-0.702,0-1.288,0.261-1.288,1.008c0,0.522,0.369,0.927,0.811,1.062   c0.099,0.036,0.234,0.054,0.369,0.054h2.62v0.792H4.355z"/>
	<path d="M7.371,85.569c0.108,0.207,0.252,0.666,0.252,1.251c0,1.314-0.891,2.169-2.224,2.169c-1.341,0-2.313-0.918-2.313-2.34   c0-0.468,0.117-0.882,0.225-1.099l0.612,0.18c-0.108,0.189-0.208,0.486-0.208,0.918c0,0.999,0.738,1.539,1.648,1.539   c1.008,0,1.629-0.648,1.629-1.512c0-0.45-0.117-0.747-0.216-0.972L7.371,85.569z"/>
	<path d="M5.318,80.7c1.612,0,2.314,1.117,2.314,2.17c0,1.179-0.864,2.088-2.242,2.088c-1.458,0-2.314-0.954-2.314-2.161   C3.077,81.547,3.986,80.7,5.318,80.7z M5.364,84.157c0.954,0,1.674-0.549,1.674-1.323c0-0.756-0.711-1.323-1.692-1.323   c-0.738,0-1.675,0.369-1.675,1.305C3.671,83.752,4.535,84.157,5.364,84.157z"/>
	<path d="M4.535,79.703c-0.513,0-0.954,0.009-1.359,0.036v-0.693l0.855-0.027v-0.036c-0.585-0.198-0.955-0.675-0.955-1.207   c0-0.09,0.009-0.153,0.027-0.225h0.747c-0.018,0.081-0.027,0.162-0.027,0.271c0,0.558,0.423,0.954,1.017,1.062   c0.108,0.018,0.234,0.036,0.369,0.036h2.323v0.783H4.535z"/>
	<path d="M4.535,76.76c-0.513,0-0.954,0.009-1.359,0.036v-0.693l0.855-0.027V76.04c-0.585-0.198-0.955-0.675-0.955-1.207   c0-0.09,0.009-0.153,0.027-0.225h0.747c-0.018,0.081-0.027,0.162-0.027,0.27c0,0.558,0.423,0.954,1.017,1.062   c0.108,0.018,0.234,0.036,0.369,0.036h2.323v0.783H4.535z"/>
	<path d="M5.499,73.376c1.071-0.018,1.513-0.702,1.513-1.495c0-0.567-0.099-0.909-0.225-1.207l0.567-0.135   c0.126,0.279,0.27,0.756,0.27,1.449c0,1.341-0.882,2.143-2.196,2.143s-2.35-0.774-2.35-2.043c0-1.422,1.251-1.8,2.053-1.8   c0.162,0,0.288,0.018,0.369,0.027V73.376z M4.932,71.053c-0.504-0.009-1.288,0.207-1.288,1.098c0,0.801,0.738,1.152,1.288,1.215   V71.053z"/>
	<path d="M1.141,69.308v-0.792h6.392v0.792H1.141z"/>
	<path d="M7.533,64.771l-0.549,0.063v0.027c0.342,0.243,0.648,0.711,0.648,1.333c0,0.882-0.621,1.333-1.251,1.333   c-1.053,0-1.629-0.937-1.621-2.62H4.67c-0.36,0-1.008,0.099-1.008,0.99c0,0.405,0.126,0.829,0.324,1.135l-0.522,0.18   c-0.234-0.36-0.387-0.882-0.387-1.431c0-1.333,0.91-1.657,1.783-1.657h1.629c0.378,0,0.748-0.018,1.044-0.072V64.771z M5.31,64.889   c-0.018,0.864,0.135,1.845,0.981,1.845c0.513,0,0.756-0.342,0.756-0.747c0-0.567-0.36-0.927-0.729-1.053   c-0.081-0.027-0.171-0.045-0.252-0.045H5.31z"/>
	<path d="M1.924,61.892h1.251v-1.134h0.604v1.134h2.35c0.54,0,0.846-0.153,0.846-0.594c0-0.207-0.027-0.36-0.054-0.459l0.594-0.036   c0.063,0.153,0.108,0.396,0.108,0.702c0,0.369-0.117,0.666-0.333,0.855c-0.234,0.225-0.621,0.306-1.134,0.306H3.779v0.675H3.176   v-0.675H2.132L1.924,61.892z"/>
	<path d="M1.952,58.985c0.27-0.009,0.486,0.189,0.486,0.504c0,0.279-0.216,0.477-0.486,0.477c-0.279,0-0.495-0.207-0.495-0.495   C1.457,59.174,1.672,58.985,1.952,58.985z M7.533,59.867H3.176v-0.792h4.357V59.867z"/>
	<path d="M5.318,53.818c1.612,0,2.314,1.117,2.314,2.17c0,1.179-0.864,2.088-2.242,2.088c-1.458,0-2.314-0.954-2.314-2.161   C3.077,54.665,3.986,53.818,5.318,53.818z M5.364,57.275c0.954,0,1.674-0.549,1.674-1.323c0-0.756-0.711-1.323-1.692-1.323   c-0.738,0-1.675,0.369-1.675,1.305C3.671,56.87,4.535,57.275,5.364,57.275z"/>
	<path d="M4.355,52.82c-0.45,0-0.819,0.009-1.18,0.036v-0.702l0.72-0.045v-0.018c-0.414-0.216-0.819-0.72-0.819-1.44   c0-0.604,0.36-1.54,1.855-1.54h2.602v0.792H5.021c-0.702,0-1.288,0.261-1.288,1.008c0,0.522,0.369,0.927,0.811,1.062   c0.099,0.036,0.234,0.054,0.369,0.054h2.62v0.792H4.355z"/>
	<path d="M1.285,44.198c0.882,0.657,2.053,1.134,3.682,1.134c1.603,0,2.755-0.495,3.655-1.134v0.621   c-0.747,0.567-1.899,1.179-3.655,1.179c-1.773-0.009-2.926-0.612-3.682-1.179V44.198z"/>
	<path d="M4.535,43.361c-0.513,0-0.954,0.009-1.359,0.036v-0.693l0.855-0.027v-0.036c-0.585-0.198-0.955-0.675-0.955-1.207   c0-0.09,0.009-0.153,0.027-0.225h0.747c-0.018,0.081-0.027,0.162-0.027,0.27c0,0.558,0.423,0.954,1.017,1.062   c0.108,0.018,0.234,0.036,0.369,0.036h2.323v0.783H4.535z"/>
	<path d="M8.623,40.896c-0.891-0.639-2.062-1.134-3.682-1.134c-1.611,0-2.764,0.486-3.655,1.134v-0.612   c0.738-0.576,1.891-1.179,3.664-1.179c1.765,0,2.908,0.603,3.673,1.179V40.896z"/>
</g>
<g>
	<path d="M263.511,24.688l2.99-4.374v-0.024h-2.734v-0.584h3.638v0.424l-2.975,4.357v0.024h3.015v0.583h-3.934V24.688z"/>
	<path d="M268.535,21.227l0.848,2.287c0.088,0.256,0.184,0.56,0.247,0.792h0.017c0.071-0.232,0.151-0.528,0.248-0.808l0.768-2.271   h0.743l-1.056,2.758c-0.504,1.327-0.848,2.007-1.327,2.422c-0.344,0.304-0.688,0.424-0.863,0.456l-0.176-0.592   c0.176-0.056,0.407-0.168,0.615-0.344c0.192-0.152,0.432-0.424,0.592-0.784c0.032-0.072,0.056-0.128,0.056-0.168   c0-0.04-0.016-0.096-0.048-0.184l-1.431-3.566H268.535z"/>
	<path d="M275.38,21.227c-0.017,0.28-0.032,0.591-0.032,1.063v2.247c0,0.887-0.176,1.431-0.552,1.767   c-0.376,0.352-0.919,0.463-1.407,0.463c-0.464,0-0.976-0.112-1.287-0.32l0.176-0.536c0.256,0.16,0.656,0.304,1.136,0.304   c0.72,0,1.247-0.376,1.247-1.352v-0.432h-0.016c-0.216,0.36-0.632,0.647-1.231,0.647c-0.96,0-1.647-0.815-1.647-1.887   c0-1.312,0.855-2.055,1.743-2.055c0.672,0,1.039,0.352,1.207,0.672h0.017l0.031-0.583H275.38z M274.653,22.753   c0-0.12-0.008-0.224-0.04-0.32c-0.128-0.408-0.472-0.744-0.983-0.744c-0.672,0-1.151,0.568-1.151,1.463   c0,0.76,0.384,1.391,1.144,1.391c0.432,0,0.823-0.272,0.975-0.72c0.04-0.12,0.057-0.256,0.057-0.375V22.753z"/>
	<path d="M280.02,23.129c0,1.431-0.991,2.055-1.927,2.055c-1.048,0-1.855-0.768-1.855-1.991c0-1.295,0.848-2.055,1.919-2.055   C279.268,21.138,280.02,21.946,280.02,23.129z M276.95,23.169c0,0.847,0.487,1.487,1.175,1.487c0.672,0,1.176-0.631,1.176-1.503   c0-0.656-0.328-1.487-1.159-1.487C277.309,21.666,276.95,22.434,276.95,23.169z"/>
	<path d="M280.813,24.376c0.208,0.136,0.576,0.28,0.928,0.28c0.512,0,0.752-0.256,0.752-0.576c0-0.335-0.2-0.52-0.72-0.711   c-0.695-0.248-1.023-0.632-1.023-1.095c0-0.624,0.504-1.136,1.335-1.136c0.392,0,0.736,0.112,0.952,0.24l-0.177,0.512   c-0.151-0.096-0.432-0.224-0.791-0.224c-0.416,0-0.647,0.24-0.647,0.528c0,0.32,0.231,0.464,0.735,0.656   c0.672,0.256,1.016,0.591,1.016,1.167c0,0.68-0.528,1.16-1.447,1.16c-0.424,0-0.815-0.104-1.088-0.264L280.813,24.376z"/>
	<path d="M284.861,20.139c0.008,0.24-0.168,0.432-0.447,0.432c-0.248,0-0.424-0.192-0.424-0.432c0-0.248,0.184-0.439,0.439-0.439   C284.693,19.699,284.861,19.891,284.861,20.139z M284.078,25.096v-3.87h0.703v3.87H284.078z"/>
	<path d="M286.797,20.115v1.112h1.007v0.536h-1.007v2.086c0,0.48,0.136,0.752,0.527,0.752c0.184,0,0.319-0.024,0.408-0.048   l0.031,0.527c-0.136,0.056-0.352,0.096-0.623,0.096c-0.328,0-0.592-0.104-0.76-0.296c-0.2-0.208-0.272-0.552-0.272-1.007v-2.111   h-0.6v-0.536h0.6v-0.928L286.797,20.115z"/>
	<path d="M288.854,21.227l0.848,2.287c0.088,0.256,0.184,0.56,0.247,0.792h0.017c0.071-0.232,0.151-0.528,0.248-0.808l0.768-2.271   h0.743l-1.056,2.758c-0.504,1.327-0.848,2.007-1.327,2.422c-0.344,0.304-0.688,0.424-0.863,0.456l-0.176-0.592   c0.176-0.056,0.407-0.168,0.615-0.344c0.192-0.152,0.432-0.424,0.592-0.784c0.032-0.072,0.056-0.128,0.056-0.168   c0-0.04-0.016-0.096-0.048-0.184l-1.431-3.566H288.854z"/>
</g>
<path d="M267.382,34.481c0-0.664,0.541-1.205,1.199-1.205c0.663,0,1.204,0.541,1.204,1.205c0,0.658-0.541,1.199-1.204,1.199  C267.923,35.68,267.382,35.139,267.382,34.481"/>
<polygon points="268.582,43.234 270.204,46.037 266.964,46.037 "/>
<g>
	<path d="M277.868,31.078h2.902v0.584h-2.206v1.791h2.038v0.576h-2.038v2.438h-0.696V31.078z"/>
	<path d="M281.741,33.804c0-0.456-0.008-0.848-0.032-1.208h0.615l0.024,0.76h0.032c0.176-0.52,0.6-0.848,1.071-0.848   c0.08,0,0.136,0.008,0.199,0.024v0.664c-0.071-0.016-0.144-0.024-0.239-0.024c-0.496,0-0.848,0.375-0.943,0.903   c-0.017,0.096-0.032,0.208-0.032,0.328v2.063h-0.695V33.804z"/>
	<path d="M286.5,36.467l-0.056-0.488h-0.024c-0.216,0.304-0.632,0.576-1.184,0.576c-0.783,0-1.183-0.552-1.183-1.111   c0-0.936,0.831-1.447,2.326-1.439v-0.08c0-0.32-0.088-0.896-0.879-0.896c-0.36,0-0.736,0.112-1.008,0.288l-0.16-0.464   c0.32-0.208,0.783-0.344,1.271-0.344c1.184,0,1.471,0.808,1.471,1.583v1.447c0,0.336,0.017,0.664,0.064,0.928H286.5z    M286.395,34.492c-0.768-0.016-1.639,0.12-1.639,0.872c0,0.456,0.304,0.672,0.664,0.672c0.503,0,0.823-0.32,0.936-0.648   c0.023-0.072,0.039-0.152,0.039-0.224V34.492z"/>
	<path d="M289.061,31.485v1.111h1.007v0.536h-1.007v2.087c0,0.479,0.136,0.751,0.527,0.751c0.184,0,0.319-0.024,0.408-0.048   l0.031,0.528c-0.136,0.056-0.352,0.096-0.623,0.096c-0.328,0-0.592-0.104-0.76-0.296c-0.2-0.208-0.272-0.552-0.272-1.007v-2.111   h-0.6v-0.536h0.6v-0.927L289.061,31.485z"/>
	<path d="M291.253,34.66c0.016,0.952,0.624,1.343,1.327,1.343c0.504,0,0.808-0.088,1.071-0.2l0.12,0.503   c-0.248,0.112-0.672,0.24-1.287,0.24c-1.191,0-1.903-0.784-1.903-1.951c0-1.167,0.688-2.087,1.815-2.087   c1.263,0,1.599,1.111,1.599,1.823c0,0.144-0.016,0.256-0.023,0.328H291.253z M293.316,34.156c0.008-0.448-0.184-1.144-0.976-1.144   c-0.711,0-1.023,0.656-1.079,1.144H293.316z"/>
	<path d="M294.87,33.804c0-0.456-0.008-0.848-0.032-1.208h0.615l0.024,0.76h0.032c0.176-0.52,0.6-0.848,1.071-0.848   c0.08,0,0.136,0.008,0.199,0.024v0.664c-0.071-0.016-0.144-0.024-0.239-0.024c-0.496,0-0.848,0.375-0.943,0.903   c-0.017,0.096-0.032,0.208-0.032,0.328v2.063h-0.695V33.804z"/>
	<path d="M297.486,33.645c0-0.4-0.009-0.728-0.032-1.048h0.624l0.04,0.64h0.016c0.191-0.368,0.64-0.728,1.279-0.728   c0.535,0,1.367,0.32,1.367,1.647v2.311h-0.704v-2.231c0-0.624-0.231-1.143-0.896-1.143c-0.463,0-0.823,0.328-0.943,0.72   c-0.031,0.088-0.048,0.208-0.048,0.328v2.327h-0.703V33.645z"/>
	<path d="M304.069,36.467l-0.056-0.488h-0.024c-0.216,0.304-0.632,0.576-1.184,0.576c-0.783,0-1.183-0.552-1.183-1.111   c0-0.936,0.831-1.447,2.326-1.439v-0.08c0-0.32-0.088-0.896-0.88-0.896c-0.359,0-0.735,0.112-1.007,0.288l-0.16-0.464   c0.32-0.208,0.784-0.344,1.271-0.344c1.184,0,1.471,0.808,1.471,1.583v1.447c0,0.336,0.017,0.664,0.064,0.928H304.069z    M303.965,34.492c-0.768-0.016-1.64,0.12-1.64,0.872c0,0.456,0.304,0.672,0.664,0.672c0.503,0,0.823-0.32,0.936-0.648   c0.023-0.072,0.04-0.152,0.04-0.224V34.492z"/>
	<path d="M305.782,30.79h0.703v5.677h-0.703V30.79z"/>
</g>
<g>
	<path d="M278.564,41.699v5.389h-0.696v-5.389H278.564z"/>
	<path d="M283.098,41.411v4.677c0,0.344,0.008,0.736,0.032,1h-0.632l-0.032-0.672h-0.016c-0.216,0.432-0.688,0.76-1.319,0.76   c-0.936,0-1.655-0.792-1.655-1.967c-0.008-1.287,0.792-2.079,1.735-2.079c0.592,0,0.991,0.28,1.167,0.592h0.017v-2.311H283.098z    M282.395,44.793c0-0.088-0.009-0.208-0.032-0.296c-0.104-0.447-0.488-0.815-1.016-0.815c-0.728,0-1.159,0.64-1.159,1.495   c0,0.784,0.384,1.432,1.144,1.432c0.472,0,0.903-0.312,1.031-0.84c0.023-0.096,0.032-0.192,0.032-0.304V44.793z"/>
	<path d="M284.66,45.281c0.016,0.952,0.624,1.343,1.327,1.343c0.504,0,0.808-0.088,1.071-0.2l0.12,0.503   c-0.248,0.112-0.672,0.24-1.287,0.24c-1.191,0-1.903-0.784-1.903-1.951c0-1.167,0.688-2.087,1.815-2.087   c1.263,0,1.599,1.111,1.599,1.823c0,0.144-0.016,0.256-0.023,0.328H284.66z M286.722,44.777c0.008-0.448-0.184-1.144-0.976-1.144   c-0.711,0-1.023,0.656-1.079,1.144H286.722z"/>
	<path d="M288.276,44.266c0-0.4-0.008-0.728-0.032-1.048h0.624l0.039,0.64h0.017c0.191-0.368,0.64-0.728,1.279-0.728   c0.535,0,1.367,0.32,1.367,1.647v2.311h-0.704v-2.231c0-0.624-0.231-1.143-0.896-1.143c-0.463,0-0.823,0.328-0.943,0.72   c-0.031,0.088-0.048,0.208-0.048,0.328v2.327h-0.703V44.266z"/>
	<path d="M293.563,42.106v1.111h1.007v0.536h-1.007v2.087c0,0.479,0.136,0.751,0.527,0.751c0.184,0,0.319-0.024,0.408-0.048   l0.031,0.528c-0.136,0.056-0.352,0.096-0.623,0.096c-0.328,0-0.592-0.104-0.76-0.296c-0.2-0.208-0.272-0.552-0.272-1.007v-2.111   h-0.6v-0.536h0.6v-0.927L293.563,42.106z"/>
	<path d="M296.147,42.131c0.008,0.24-0.168,0.432-0.447,0.432c-0.248,0-0.424-0.192-0.424-0.432c0-0.248,0.184-0.44,0.439-0.44   C295.979,41.691,296.147,41.883,296.147,42.131z M295.364,47.088v-3.87h0.703v3.87H295.364z"/>
	<path d="M299.994,46.944c-0.184,0.096-0.591,0.224-1.111,0.224c-1.167,0-1.927-0.792-1.927-1.975c0-1.191,0.815-2.055,2.079-2.055   c0.416,0,0.783,0.104,0.976,0.2l-0.16,0.544c-0.168-0.096-0.432-0.184-0.815-0.184c-0.888,0-1.367,0.656-1.367,1.463   c0,0.896,0.575,1.447,1.343,1.447c0.4,0,0.664-0.104,0.864-0.192L299.994,46.944z"/>
	<path d="M302.962,47.088l-0.056-0.488h-0.024c-0.216,0.304-0.632,0.576-1.184,0.576c-0.783,0-1.183-0.552-1.183-1.111   c0-0.936,0.831-1.447,2.326-1.439v-0.08c0-0.32-0.088-0.896-0.879-0.896c-0.36,0-0.736,0.112-1.008,0.288l-0.16-0.464   c0.32-0.208,0.783-0.344,1.271-0.344c1.184,0,1.471,0.808,1.471,1.583v1.447c0,0.336,0.017,0.664,0.064,0.928H302.962z    M302.858,45.113c-0.768-0.016-1.639,0.12-1.639,0.872c0,0.456,0.304,0.672,0.664,0.672c0.503,0,0.823-0.32,0.936-0.648   c0.023-0.072,0.039-0.152,0.039-0.224V45.113z"/>
	<path d="M304.676,41.411h0.703v5.677h-0.703V41.411z"/>
</g>
<g>
	<path d="M264.014,67.566l0.208-1.567h-0.655v-0.472h0.728l0.152-1.159h-0.688v-0.472h0.76l0.208-1.527h0.464l-0.2,1.527h0.832   l0.208-1.527h0.472l-0.2,1.527h0.655v0.472h-0.728l-0.144,1.159h0.688v0.472h-0.76l-0.208,1.567h-0.479l0.208-1.567h-0.831   l-0.208,1.567H264.014z M265.606,65.527l0.151-1.159h-0.831l-0.152,1.159H265.606z"/>
	<path d="M270.375,62.584v1.111h1.007v0.536h-1.007v2.087c0,0.479,0.136,0.751,0.527,0.751c0.184,0,0.319-0.024,0.407-0.048   l0.032,0.528c-0.136,0.056-0.352,0.096-0.623,0.096c-0.328,0-0.592-0.104-0.76-0.296c-0.2-0.208-0.272-0.552-0.272-1.007v-2.111   h-0.6v-0.536h0.6v-0.927L270.375,62.584z"/>
	<path d="M272.454,63.696l0.512,1.967c0.112,0.432,0.216,0.832,0.288,1.231h0.024c0.088-0.392,0.216-0.807,0.344-1.223l0.631-1.975   h0.592l0.6,1.935c0.145,0.464,0.256,0.872,0.344,1.263h0.024c0.063-0.392,0.168-0.799,0.296-1.255l0.552-1.943h0.695l-1.247,3.87   h-0.64l-0.592-1.847c-0.136-0.432-0.248-0.815-0.344-1.271h-0.016c-0.097,0.464-0.216,0.863-0.353,1.279l-0.623,1.839h-0.64   l-1.168-3.87H272.454z"/>
	<path d="M278.845,62.609c0.008,0.24-0.168,0.432-0.447,0.432c-0.248,0-0.424-0.192-0.424-0.432c0-0.248,0.184-0.44,0.439-0.44   C278.677,62.169,278.845,62.361,278.845,62.609z M278.062,67.566v-3.87h0.703v3.87H278.062z"/>
	<path d="M279.934,64.744c0-0.4-0.008-0.728-0.032-1.048h0.624l0.039,0.64h0.017c0.191-0.368,0.64-0.728,1.279-0.728   c0.535,0,1.367,0.32,1.367,1.647v2.311h-0.704v-2.231c0-0.624-0.231-1.143-0.896-1.143c-0.463,0-0.823,0.328-0.943,0.72   c-0.031,0.088-0.048,0.208-0.048,0.328v2.327h-0.703V64.744z"/>
	<path d="M286.07,64.959c0-0.496-0.017-0.896-0.032-1.264h0.632l0.032,0.664h0.016c0.288-0.472,0.743-0.752,1.375-0.752   c0.936,0,1.64,0.792,1.64,1.967c0,1.391-0.848,2.079-1.76,2.079c-0.512,0-0.959-0.224-1.191-0.607h-0.016v2.103h-0.695V64.959z    M286.765,65.991c0,0.104,0.016,0.2,0.032,0.288c0.128,0.487,0.552,0.823,1.055,0.823c0.744,0,1.176-0.607,1.176-1.495   c0-0.775-0.408-1.439-1.151-1.439c-0.479,0-0.928,0.344-1.063,0.872c-0.023,0.088-0.048,0.191-0.048,0.288V65.991z"/>
	<path d="M292.764,67.566l-0.056-0.488h-0.024c-0.216,0.304-0.632,0.576-1.184,0.576c-0.783,0-1.183-0.552-1.183-1.111   c0-0.936,0.831-1.447,2.326-1.439v-0.08c0-0.32-0.088-0.896-0.88-0.896c-0.359,0-0.735,0.112-1.007,0.288l-0.16-0.464   c0.32-0.208,0.784-0.344,1.271-0.344c1.184,0,1.471,0.808,1.471,1.583v1.447c0,0.336,0.017,0.664,0.064,0.928H292.764z    M292.661,65.591c-0.768-0.016-1.64,0.12-1.64,0.872c0,0.456,0.304,0.672,0.664,0.672c0.503,0,0.823-0.32,0.936-0.648   c0.023-0.072,0.04-0.152,0.04-0.224V65.591z"/>
	<path d="M295.26,62.609c0.008,0.24-0.168,0.432-0.447,0.432c-0.248,0-0.424-0.192-0.424-0.432c0-0.248,0.184-0.44,0.439-0.44   C295.092,62.169,295.26,62.361,295.26,62.609z M294.477,67.566v-3.87h0.703v3.87H294.477z"/>
	<path d="M296.349,64.903c0-0.456-0.009-0.848-0.032-1.208h0.615l0.024,0.76h0.032c0.176-0.52,0.6-0.848,1.071-0.848   c0.08,0,0.136,0.008,0.2,0.024v0.664c-0.072-0.016-0.145-0.024-0.24-0.024c-0.496,0-0.848,0.375-0.943,0.903   c-0.017,0.096-0.032,0.208-0.032,0.328v2.063h-0.695V64.903z"/>
	<path d="M298.869,66.846c0.208,0.136,0.576,0.28,0.928,0.28c0.512,0,0.752-0.256,0.752-0.576c0-0.335-0.2-0.52-0.72-0.711   c-0.695-0.248-1.023-0.632-1.023-1.095c0-0.624,0.504-1.136,1.335-1.136c0.392,0,0.735,0.112,0.952,0.24l-0.177,0.512   c-0.151-0.096-0.432-0.224-0.791-0.224c-0.416,0-0.647,0.24-0.647,0.528c0,0.32,0.231,0.464,0.735,0.656   c0.672,0.256,1.016,0.591,1.016,1.167c0,0.68-0.528,1.16-1.447,1.16c-0.424,0-0.815-0.104-1.088-0.264L298.869,66.846z"/>
</g>
<path d="M268.016,78.828c0-2.053,1.672-3.725,3.718-3.725c2.047,0,3.726,1.672,3.726,3.725c0,2.047-1.679,3.719-3.726,3.719  C269.688,82.547,268.016,80.875,268.016,78.828"/>
<path fill="none" stroke="#000000" stroke-width="0.71" stroke-linecap="round" stroke-linejoin="round" stroke-miterlimit="10" d="  M268.016,78.828c0-2.053,1.672-3.725,3.718-3.725c2.047,0,3.726,1.672,3.726,3.725c0,2.047-1.679,3.719-3.726,3.719  C269.688,82.547,268.016,80.875,268.016,78.828"/>
<path d="M266.824,90.371c0-2.704,2.212-4.911,4.91-4.911c2.705,0,4.911,2.207,4.911,4.911c0,2.698-2.206,4.911-4.911,4.911  C269.036,95.282,266.824,93.069,266.824,90.371"/>
<path fill="none" stroke="#000000" stroke-width="0.71" stroke-linecap="round" stroke-linejoin="round" stroke-miterlimit="10" d="  M266.824,90.371c0-2.704,2.212-4.911,4.91-4.911c2.705,0,4.911,2.207,4.911,4.911c0,2.698-2.206,4.911-4.911,4.911  C269.036,95.282,266.824,93.069,266.824,90.371"/>
<path d="M265.914,104.047c0-3.202,2.618-5.82,5.82-5.82c3.203,0,5.821,2.618,5.821,5.82c0,3.203-2.618,5.821-5.821,5.821  C268.532,109.868,265.914,107.25,265.914,104.047"/>
<path fill="none" stroke="#000000" stroke-width="0.71" stroke-linecap="round" stroke-linejoin="round" stroke-miterlimit="10" d="  M265.914,104.047c0-3.202,2.618-5.82,5.82-5.82c3.203,0,5.821,2.618,5.821,5.82c0,3.203-2.618,5.821-5.821,5.821  C268.532,109.868,265.914,107.25,265.914,104.047"/>
<path d="M265.145,119.954c0-3.62,2.969-6.589,6.589-6.589c3.627,0,6.59,2.969,6.59,6.589c0,3.626-2.963,6.589-6.59,6.589  C268.114,126.543,265.145,123.58,265.145,119.954"/>
<path fill="none" stroke="#000000" stroke-width="0.71" stroke-linecap="round" stroke-linejoin="round" stroke-miterlimit="10" d="  M265.145,119.954c0-3.62,2.969-6.589,6.589-6.589c3.627,0,6.59,2.969,6.59,6.589c0,3.626-2.963,6.589-6.59,6.589  C268.114,126.543,265.145,123.58,265.145,119.954"/>
<g>
	<path d="M283.926,80.813v-0.432l0.552-0.536c1.327-1.264,1.928-1.935,1.936-2.719c0-0.528-0.256-1.015-1.031-1.015   c-0.472,0-0.864,0.24-1.104,0.439l-0.225-0.496c0.36-0.304,0.872-0.528,1.472-0.528c1.119,0,1.591,0.768,1.591,1.511   c0,0.959-0.695,1.735-1.791,2.791l-0.415,0.384v0.016h2.334v0.583H283.926z"/>
	<path d="M291.132,76.208h-1.982l-0.2,1.335c0.12-0.016,0.231-0.032,0.424-0.032c0.399,0,0.8,0.088,1.119,0.28   c0.408,0.232,0.744,0.68,0.744,1.335c0,1.015-0.808,1.775-1.936,1.775c-0.567,0-1.047-0.16-1.295-0.32l0.176-0.536   c0.216,0.128,0.64,0.288,1.111,0.288c0.664,0,1.231-0.432,1.231-1.127c-0.008-0.672-0.456-1.151-1.495-1.151   c-0.296,0-0.527,0.032-0.72,0.056l0.336-2.495h2.486V76.208z"/>
	<path d="M295.587,78.159c0,1.767-0.655,2.742-1.807,2.742c-1.016,0-1.703-0.951-1.719-2.67c0-1.743,0.751-2.703,1.807-2.703   C294.964,75.528,295.587,76.504,295.587,78.159z M292.765,78.239c0,1.352,0.416,2.119,1.056,2.119c0.72,0,1.063-0.84,1.063-2.167   c0-1.279-0.328-2.119-1.056-2.119C293.213,76.072,292.765,76.824,292.765,78.239z"/>
	<path d="M299.691,78.159c0,1.767-0.655,2.742-1.807,2.742c-1.016,0-1.703-0.951-1.719-2.67c0-1.743,0.751-2.703,1.807-2.703   C299.068,75.528,299.691,76.504,299.691,78.159z M296.869,78.239c0,1.352,0.416,2.119,1.056,2.119c0.72,0,1.063-0.84,1.063-2.167   c0-1.279-0.328-2.119-1.056-2.119C297.317,76.072,296.869,76.824,296.869,78.239z"/>
	<path d="M303.794,78.159c0,1.767-0.655,2.742-1.807,2.742c-1.016,0-1.703-0.951-1.719-2.67c0-1.743,0.751-2.703,1.807-2.703   C303.171,75.528,303.794,76.504,303.794,78.159z M300.972,78.239c0,1.352,0.416,2.119,1.056,2.119c0.72,0,1.063-0.84,1.063-2.167   c0-1.279-0.328-2.119-1.056-2.119C301.42,76.072,300.972,76.824,300.972,78.239z"/>
	<path d="M307.898,78.159c0,1.767-0.655,2.742-1.807,2.742c-1.016,0-1.703-0.951-1.719-2.67c0-1.743,0.751-2.703,1.807-2.703   C307.275,75.528,307.898,76.504,307.898,78.159z M305.076,78.239c0,1.352,0.416,2.119,1.056,2.119c0.72,0,1.063-0.84,1.063-2.167   c0-1.279-0.328-2.119-1.056-2.119C305.524,76.072,305.076,76.824,305.076,78.239z"/>
</g>
<g>
	<path d="M287.029,87.751h-1.982l-0.2,1.335c0.12-0.016,0.231-0.032,0.424-0.032c0.399,0,0.8,0.088,1.119,0.28   c0.408,0.232,0.744,0.68,0.744,1.335c0,1.015-0.808,1.775-1.936,1.775c-0.567,0-1.047-0.16-1.295-0.32l0.176-0.536   c0.216,0.128,0.64,0.288,1.111,0.288c0.664,0,1.231-0.432,1.231-1.127c-0.008-0.672-0.456-1.151-1.495-1.151   c-0.296,0-0.527,0.032-0.72,0.056l0.336-2.495h2.486V87.751z"/>
	<path d="M291.484,89.702c0,1.767-0.655,2.742-1.807,2.742c-1.016,0-1.703-0.951-1.719-2.67c0-1.743,0.751-2.703,1.807-2.703   C290.861,87.071,291.484,88.047,291.484,89.702z M288.662,89.782c0,1.352,0.416,2.119,1.056,2.119c0.72,0,1.063-0.84,1.063-2.167   c0-1.279-0.328-2.119-1.056-2.119C289.11,87.615,288.662,88.367,288.662,89.782z"/>
	<path d="M295.587,89.702c0,1.767-0.655,2.742-1.807,2.742c-1.016,0-1.703-0.951-1.719-2.67c0-1.743,0.751-2.703,1.807-2.703   C294.964,87.071,295.587,88.047,295.587,89.702z M292.765,89.782c0,1.352,0.416,2.119,1.056,2.119c0.72,0,1.063-0.84,1.063-2.167   c0-1.279-0.328-2.119-1.056-2.119C293.213,87.615,292.765,88.367,292.765,89.782z"/>
	<path d="M299.691,89.702c0,1.767-0.655,2.742-1.807,2.742c-1.016,0-1.703-0.951-1.719-2.67c0-1.743,0.751-2.703,1.807-2.703   C299.068,87.071,299.691,88.047,299.691,89.702z M296.869,89.782c0,1.352,0.416,2.119,1.056,2.119c0.72,0,1.063-0.84,1.063-2.167   c0-1.279-0.328-2.119-1.056-2.119C297.317,87.615,296.869,88.367,296.869,89.782z"/>
	<path d="M303.794,89.702c0,1.767-0.655,2.742-1.807,2.742c-1.016,0-1.703-0.951-1.719-2.67c0-1.743,0.751-2.703,1.807-2.703   C303.171,87.071,303.794,88.047,303.794,89.702z M300.972,89.782c0,1.352,0.416,2.119,1.056,2.119c0.72,0,1.063-0.84,1.063-2.167   c0-1.279-0.328-2.119-1.056-2.119C301.42,87.615,300.972,88.367,300.972,89.782z"/>
	<path d="M307.898,89.702c0,1.767-0.655,2.742-1.807,2.742c-1.016,0-1.703-0.951-1.719-2.67c0-1.743,0.751-2.703,1.807-2.703   C307.275,87.071,307.898,88.047,307.898,89.702z M305.076,89.782c0,1.352,0.416,2.119,1.056,2.119c0.72,0,1.063-0.84,1.063-2.167   c0-1.279-0.328-2.119-1.056-2.119C305.524,87.615,305.076,88.367,305.076,89.782z"/>
</g>
<g>
	<path d="M287.301,100.835v0.464l-2.264,4.733h-0.728l2.255-4.598v-0.016h-2.542v-0.584H287.301z"/>
	<path d="M291.132,101.427h-1.982l-0.2,1.335c0.12-0.016,0.231-0.032,0.424-0.032c0.399,0,0.8,0.088,1.119,0.28   c0.408,0.232,0.744,0.68,0.744,1.335c0,1.016-0.808,1.775-1.936,1.775c-0.567,0-1.047-0.16-1.295-0.32l0.176-0.536   c0.216,0.128,0.64,0.288,1.111,0.288c0.664,0,1.231-0.432,1.231-1.127c-0.008-0.672-0.456-1.151-1.495-1.151   c-0.296,0-0.527,0.032-0.72,0.056l0.336-2.495h2.486V101.427z"/>
	<path d="M295.587,103.378c0,1.767-0.655,2.743-1.807,2.743c-1.016,0-1.703-0.952-1.719-2.67c0-1.743,0.751-2.703,1.807-2.703   C294.964,100.748,295.587,101.723,295.587,103.378z M292.765,103.458c0,1.352,0.416,2.119,1.056,2.119   c0.72,0,1.063-0.84,1.063-2.167c0-1.279-0.328-2.119-1.056-2.119C293.213,101.292,292.765,102.043,292.765,103.458z"/>
	<path d="M299.691,103.378c0,1.767-0.655,2.743-1.807,2.743c-1.016,0-1.703-0.952-1.719-2.67c0-1.743,0.751-2.703,1.807-2.703   C299.068,100.748,299.691,101.723,299.691,103.378z M296.869,103.458c0,1.352,0.416,2.119,1.056,2.119   c0.72,0,1.063-0.84,1.063-2.167c0-1.279-0.328-2.119-1.056-2.119C297.317,101.292,296.869,102.043,296.869,103.458z"/>
	<path d="M303.794,103.378c0,1.767-0.655,2.743-1.807,2.743c-1.016,0-1.703-0.952-1.719-2.67c0-1.743,0.751-2.703,1.807-2.703   C303.171,100.748,303.794,101.723,303.794,103.378z M300.972,103.458c0,1.352,0.416,2.119,1.056,2.119   c0.72,0,1.063-0.84,1.063-2.167c0-1.279-0.328-2.119-1.056-2.119C301.42,101.292,300.972,102.043,300.972,103.458z"/>
	<path d="M307.898,103.378c0,1.767-0.655,2.743-1.807,2.743c-1.016,0-1.703-0.952-1.719-2.67c0-1.743,0.751-2.703,1.807-2.703   C307.275,100.748,307.898,101.723,307.898,103.378z M305.076,103.458c0,1.352,0.416,2.119,1.056,2.119   c0.72,0,1.063-0.84,1.063-2.167c0-1.279-0.328-2.119-1.056-2.119C305.524,101.292,305.076,102.043,305.076,103.458z"/>
</g>
<g>
	<path d="M285.454,117.404h-0.016l-0.903,0.487l-0.136-0.536l1.135-0.607h0.6v5.197h-0.68V117.404z"/>
	<path d="M291.484,119.291c0,1.767-0.655,2.742-1.807,2.742c-1.016,0-1.703-0.951-1.719-2.671c0-1.742,0.751-2.702,1.807-2.702   C290.861,116.66,291.484,117.636,291.484,119.291z M288.662,119.371c0,1.351,0.416,2.118,1.056,2.118   c0.72,0,1.063-0.839,1.063-2.167c0-1.279-0.328-2.118-1.056-2.118C289.11,117.204,288.662,117.955,288.662,119.371z"/>
	<path d="M295.587,119.291c0,1.767-0.655,2.742-1.807,2.742c-1.016,0-1.703-0.951-1.719-2.671c0-1.742,0.751-2.702,1.807-2.702   C294.964,116.66,295.587,117.636,295.587,119.291z M292.765,119.371c0,1.351,0.416,2.118,1.056,2.118   c0.72,0,1.063-0.839,1.063-2.167c0-1.279-0.328-2.118-1.056-2.118C293.213,117.204,292.765,117.955,292.765,119.371z"/>
	<path d="M299.691,119.291c0,1.767-0.655,2.742-1.807,2.742c-1.016,0-1.703-0.951-1.719-2.671c0-1.742,0.751-2.702,1.807-2.702   C299.068,116.66,299.691,117.636,299.691,119.291z M296.869,119.371c0,1.351,0.416,2.118,1.056,2.118   c0.72,0,1.063-0.839,1.063-2.167c0-1.279-0.328-2.118-1.056-2.118C297.317,117.204,296.869,117.955,296.869,119.371z"/>
	<path d="M303.794,119.291c0,1.767-0.655,2.742-1.807,2.742c-1.016,0-1.703-0.951-1.719-2.671c0-1.742,0.751-2.702,1.807-2.702   C303.171,116.66,303.794,117.636,303.794,119.291z M300.972,119.371c0,1.351,0.416,2.118,1.056,2.118   c0.72,0,1.063-0.839,1.063-2.167c0-1.279-0.328-2.118-1.056-2.118C301.42,117.204,300.972,117.955,300.972,119.371z"/>
	<path d="M307.898,119.291c0,1.767-0.655,2.742-1.807,2.742c-1.016,0-1.703-0.951-1.719-2.671c0-1.742,0.751-2.702,1.807-2.702   C307.275,116.66,307.898,117.636,307.898,119.291z M305.076,119.371c0,1.351,0.416,2.118,1.056,2.118   c0.72,0,1.063-0.839,1.063-2.167c0-1.279-0.328-2.118-1.056-2.118C305.524,117.204,305.076,117.955,305.076,119.371z"/>
	<path d="M312.001,119.291c0,1.767-0.655,2.742-1.807,2.742c-1.016,0-1.703-0.951-1.719-2.671c0-1.742,0.751-2.702,1.807-2.702   C311.378,116.66,312.001,117.636,312.001,119.291z M309.179,119.371c0,1.351,0.416,2.118,1.056,2.118   c0.72,0,1.063-0.839,1.063-2.167c0-1.279-0.328-2.118-1.056-2.118C309.627,117.204,309.179,117.955,309.179,119.371z"/>
</g>
</svg>