<svg xmlns="http://www.w3.org/2000/svg" xmlns:xlink="http://www.w3.org/1999/xlink" version="1.1" id="Layer_1" x="0px" y="0px" width="360.525px" height="72.525px" viewBox="0 0 360.525 72.525" enable-background="new 0 0 360.525 72.525" xml:space="preserve">
<circle opacity="0.502" fill="#767676" cx="36.281" cy="36.281" r="36"/>
<circle fill="none" stroke="#EEEEEE" stroke-width="0.5623" stroke-miterlimit="8" cx="36.263" cy="36.263" r="35.982"/>
<g>
	<path d="M20.481,21.839c-0.016,0.248-0.032,0.576-0.032,1.159v2.183c0,0.752-0.152,1.367-0.591,1.759   c-0.432,0.368-1.016,0.479-1.591,0.479c-0.512,0-1.055-0.104-1.407-0.304l0.24-0.919c0.248,0.144,0.68,0.296,1.136,0.296   c0.576,0,1.015-0.312,1.015-1.031v-0.256h-0.016c-0.232,0.328-0.608,0.512-1.056,0.512c-0.967,0-1.655-0.784-1.655-1.911   c0-1.255,0.816-2.055,1.775-2.055c0.536,0,0.871,0.231,1.071,0.551h0.016l0.04-0.463H20.481z M19.234,23.43   c0-0.08-0.008-0.16-0.024-0.224c-0.088-0.32-0.32-0.536-0.655-0.536c-0.44,0-0.8,0.399-0.8,1.111c0,0.583,0.288,1.04,0.8,1.04   c0.312,0,0.56-0.208,0.64-0.496c0.032-0.088,0.04-0.216,0.04-0.32V23.43z"/>
	<path d="M21.427,23.126c0-0.576-0.016-0.952-0.032-1.287h1.047l0.04,0.719h0.032c0.2-0.567,0.68-0.807,1.055-0.807   c0.112,0,0.168,0,0.256,0.016v1.144c-0.088-0.016-0.192-0.032-0.328-0.032c-0.448,0-0.751,0.24-0.832,0.616   c-0.016,0.08-0.024,0.176-0.024,0.272v1.983h-1.215V23.126z"/>
	<path d="M25.723,20.751c0,0.335-0.256,0.607-0.656,0.607c-0.384,0-0.64-0.272-0.632-0.607c-0.008-0.352,0.248-0.616,0.64-0.616   C25.467,20.136,25.714,20.399,25.723,20.751z M24.467,25.749v-3.91h1.215v3.91H24.467z"/>
	<path d="M28.019,20.719v1.12h0.871v0.896h-0.871v1.415c0,0.472,0.112,0.688,0.479,0.688c0.152,0,0.272-0.016,0.36-0.032   l0.008,0.919c-0.16,0.064-0.448,0.104-0.792,0.104c-0.392,0-0.72-0.136-0.911-0.336c-0.224-0.232-0.336-0.608-0.336-1.159v-1.599   h-0.52v-0.896h0.52v-0.848L28.019,20.719z"/>
</g>
<g>
	<path d="M19.244,32.642c0-0.384-0.012-0.694-0.025-0.979h0.49l0.024,0.514h0.013c0.223-0.365,0.576-0.582,1.065-0.582   c0.725,0,1.27,0.613,1.27,1.524c0,1.078-0.657,1.611-1.363,1.611c-0.396,0-0.744-0.174-0.923-0.471h-0.012v1.629h-0.539V32.642z    M19.783,33.441c0,0.081,0.012,0.155,0.025,0.223c0.099,0.378,0.427,0.638,0.818,0.638c0.576,0,0.911-0.471,0.911-1.158   c0-0.601-0.316-1.115-0.892-1.115c-0.372,0-0.719,0.266-0.824,0.675c-0.019,0.068-0.037,0.148-0.037,0.223V33.441z"/>
	<path d="M24.426,34.661l-0.043-0.378h-0.019c-0.167,0.235-0.49,0.446-0.917,0.446c-0.607,0-0.917-0.428-0.917-0.861   c0-0.725,0.645-1.121,1.803-1.115v-0.062c0-0.248-0.068-0.694-0.682-0.694c-0.278,0-0.57,0.087-0.78,0.223l-0.124-0.359   c0.248-0.161,0.607-0.266,0.985-0.266c0.917,0,1.14,0.625,1.14,1.227v1.121c0,0.26,0.012,0.514,0.049,0.719H24.426z M24.346,33.131   c-0.595-0.012-1.27,0.093-1.27,0.675c0,0.353,0.235,0.521,0.514,0.521c0.39,0,0.638-0.248,0.725-0.502   c0.019-0.056,0.031-0.118,0.031-0.173V33.131z"/>
	<path d="M25.674,34.104c0.161,0.105,0.446,0.217,0.719,0.217c0.396,0,0.582-0.198,0.582-0.446c0-0.26-0.155-0.403-0.558-0.551   c-0.539-0.192-0.793-0.49-0.793-0.849c0-0.483,0.391-0.879,1.035-0.879c0.304,0,0.57,0.086,0.737,0.186l-0.136,0.396   c-0.118-0.074-0.334-0.173-0.613-0.173c-0.322,0-0.502,0.186-0.502,0.409c0,0.248,0.18,0.359,0.57,0.508   c0.521,0.198,0.787,0.458,0.787,0.904c0,0.527-0.409,0.898-1.122,0.898c-0.328,0-0.632-0.081-0.842-0.205L25.674,34.104z"/>
	<path d="M28.125,34.104c0.161,0.105,0.446,0.217,0.719,0.217c0.396,0,0.582-0.198,0.582-0.446c0-0.26-0.155-0.403-0.558-0.551   c-0.539-0.192-0.793-0.49-0.793-0.849c0-0.483,0.391-0.879,1.035-0.879c0.304,0,0.57,0.086,0.737,0.186l-0.136,0.396   c-0.118-0.074-0.334-0.173-0.613-0.173c-0.322,0-0.502,0.186-0.502,0.409c0,0.248,0.18,0.359,0.57,0.508   c0.521,0.198,0.787,0.458,0.787,0.904c0,0.527-0.409,0.898-1.122,0.898c-0.328,0-0.632-0.081-0.842-0.205L28.125,34.104z"/>
	<path d="M31.257,30.82c0.006,0.186-0.13,0.334-0.347,0.334c-0.192,0-0.328-0.149-0.328-0.334c0-0.192,0.142-0.341,0.34-0.341   C31.127,30.479,31.257,30.628,31.257,30.82z M30.65,34.661v-2.999h0.545v2.999H30.65z"/>
	<path d="M34.812,33.137c0,1.109-0.768,1.592-1.493,1.592c-0.812,0-1.438-0.595-1.438-1.543c0-1.003,0.657-1.592,1.487-1.592   C34.229,31.595,34.812,32.22,34.812,33.137z M32.433,33.168c0,0.657,0.378,1.152,0.911,1.152c0.521,0,0.911-0.489,0.911-1.165   c0-0.508-0.254-1.152-0.898-1.152C32.711,32.003,32.433,32.598,32.433,33.168z"/>
	<path d="M35.496,32.474c0-0.31-0.006-0.563-0.025-0.812h0.483l0.031,0.496h0.013c0.148-0.285,0.496-0.563,0.991-0.563   c0.415,0,1.059,0.248,1.059,1.276v1.791h-0.545v-1.729c0-0.483-0.18-0.886-0.694-0.886c-0.359,0-0.638,0.254-0.731,0.558   c-0.025,0.068-0.037,0.161-0.037,0.254v1.803h-0.545V32.474z"/>
	<path d="M41.903,34.661l-0.043-0.378h-0.019c-0.167,0.235-0.49,0.446-0.917,0.446c-0.607,0-0.917-0.428-0.917-0.861   c0-0.725,0.645-1.121,1.803-1.115v-0.062c0-0.248-0.068-0.694-0.682-0.694c-0.278,0-0.57,0.087-0.78,0.223l-0.124-0.359   c0.248-0.161,0.607-0.266,0.985-0.266c0.917,0,1.14,0.625,1.14,1.227v1.121c0,0.26,0.012,0.514,0.049,0.719H41.903z M41.823,33.131   c-0.595-0.012-1.27,0.093-1.27,0.675c0,0.353,0.235,0.521,0.514,0.521c0.39,0,0.638-0.248,0.725-0.502   c0.019-0.056,0.031-0.118,0.031-0.173V33.131z"/>
	<path d="M43.226,32.474c0-0.31-0.006-0.563-0.025-0.812h0.483l0.031,0.496h0.012c0.148-0.285,0.496-0.563,0.991-0.563   c0.415,0,1.059,0.248,1.059,1.276v1.791h-0.545v-1.729c0-0.483-0.18-0.886-0.694-0.886c-0.359,0-0.638,0.254-0.731,0.558   c-0.025,0.068-0.037,0.161-0.037,0.254v1.803h-0.545V32.474z"/>
	<path d="M49.251,30.263v3.624c0,0.267,0.006,0.57,0.024,0.774h-0.489l-0.025-0.521h-0.012c-0.167,0.334-0.533,0.589-1.022,0.589   c-0.725,0-1.282-0.613-1.282-1.524c-0.006-0.997,0.613-1.61,1.344-1.61c0.458,0,0.769,0.217,0.905,0.458h0.012v-1.791H49.251z    M48.706,32.883c0-0.068-0.006-0.161-0.025-0.229c-0.081-0.347-0.378-0.632-0.787-0.632c-0.564,0-0.898,0.496-0.898,1.159   c0,0.607,0.297,1.109,0.886,1.109c0.365,0,0.7-0.242,0.799-0.65c0.019-0.075,0.025-0.149,0.025-0.236V32.883z"/>
	<path d="M19.244,40.068c0-0.384-0.012-0.694-0.025-0.979h0.49l0.024,0.514h0.013c0.223-0.365,0.576-0.582,1.065-0.582   c0.725,0,1.27,0.613,1.27,1.523c0,1.078-0.657,1.611-1.363,1.611c-0.396,0-0.744-0.174-0.923-0.471h-0.012v1.629h-0.539V40.068z    M19.783,40.867c0,0.081,0.012,0.155,0.025,0.224c0.099,0.378,0.427,0.638,0.818,0.638c0.576,0,0.911-0.471,0.911-1.158   c0-0.602-0.316-1.115-0.892-1.115c-0.372,0-0.719,0.267-0.824,0.675c-0.019,0.068-0.037,0.149-0.037,0.224V40.867z"/>
	<path d="M23.069,40.688c0.012,0.737,0.483,1.041,1.028,1.041c0.39,0,0.625-0.068,0.83-0.155l0.093,0.391   c-0.192,0.087-0.52,0.186-0.997,0.186c-0.923,0-1.475-0.606-1.475-1.511c0-0.905,0.533-1.617,1.406-1.617   c0.979,0,1.239,0.861,1.239,1.412c0,0.111-0.013,0.198-0.019,0.254H23.069z M24.667,40.298c0.006-0.348-0.143-0.886-0.756-0.886   c-0.551,0-0.793,0.508-0.836,0.886H24.667z"/>
	<path d="M25.866,40.025c0-0.354-0.006-0.657-0.025-0.936h0.477l0.019,0.588h0.025c0.136-0.402,0.465-0.656,0.83-0.656   c0.062,0,0.105,0.006,0.155,0.019v0.514c-0.056-0.012-0.111-0.019-0.186-0.019c-0.384,0-0.657,0.292-0.731,0.7   c-0.013,0.074-0.025,0.161-0.025,0.254v1.599h-0.539V40.025z"/>
	<path d="M27.816,41.53c0.161,0.105,0.446,0.217,0.719,0.217c0.396,0,0.582-0.198,0.582-0.446c0-0.26-0.155-0.402-0.558-0.551   c-0.539-0.192-0.793-0.489-0.793-0.849c0-0.483,0.391-0.88,1.035-0.88c0.304,0,0.57,0.087,0.737,0.186l-0.136,0.396   c-0.118-0.074-0.334-0.173-0.613-0.173c-0.322,0-0.502,0.186-0.502,0.408c0,0.248,0.18,0.359,0.57,0.508   c0.521,0.198,0.787,0.459,0.787,0.905c0,0.526-0.409,0.897-1.122,0.897c-0.328,0-0.632-0.08-0.842-0.204L27.816,41.53z"/>
	<path d="M30.645,40.688c0.012,0.737,0.483,1.041,1.028,1.041c0.39,0,0.625-0.068,0.83-0.155l0.093,0.391   c-0.192,0.087-0.52,0.186-0.997,0.186c-0.923,0-1.475-0.606-1.475-1.511c0-0.905,0.533-1.617,1.406-1.617   c0.979,0,1.239,0.861,1.239,1.412c0,0.111-0.013,0.198-0.019,0.254H30.645z M32.243,40.298c0.006-0.348-0.143-0.886-0.756-0.886   c-0.551,0-0.793,0.508-0.836,0.886H32.243z"/>
	<path d="M33.652,39.09l0.588,1.685c0.099,0.272,0.18,0.521,0.242,0.769h0.019c0.068-0.248,0.155-0.496,0.254-0.769l0.583-1.685   h0.57l-1.177,2.998h-0.521l-1.14-2.998H33.652z"/>
	<path d="M36.722,40.688c0.012,0.737,0.483,1.041,1.028,1.041c0.39,0,0.625-0.068,0.83-0.155l0.093,0.391   c-0.192,0.087-0.52,0.186-0.997,0.186c-0.923,0-1.475-0.606-1.475-1.511c0-0.905,0.533-1.617,1.406-1.617   c0.979,0,1.239,0.861,1.239,1.412c0,0.111-0.013,0.198-0.019,0.254H36.722z M38.32,40.298c0.006-0.348-0.143-0.886-0.756-0.886   c-0.551,0-0.793,0.508-0.836,0.886H38.32z"/>
	<path d="M39.519,40.025c0-0.354-0.006-0.657-0.025-0.936h0.477l0.019,0.588h0.025c0.136-0.402,0.465-0.656,0.83-0.656   c0.062,0,0.105,0.006,0.155,0.019v0.514c-0.056-0.012-0.112-0.019-0.186-0.019c-0.384,0-0.657,0.292-0.731,0.7   c-0.013,0.074-0.025,0.161-0.025,0.254v1.599h-0.539V40.025z"/>
	<path d="M43.203,42.088L43.16,41.71h-0.019c-0.167,0.235-0.49,0.446-0.917,0.446c-0.607,0-0.917-0.428-0.917-0.861   c0-0.725,0.645-1.121,1.803-1.115v-0.062c0-0.248-0.068-0.694-0.682-0.694c-0.278,0-0.57,0.087-0.78,0.224l-0.124-0.359   c0.248-0.161,0.607-0.267,0.985-0.267c0.917,0,1.14,0.626,1.14,1.227v1.121c0,0.261,0.012,0.515,0.049,0.719H43.203z    M43.123,40.558c-0.595-0.013-1.27,0.093-1.27,0.676c0,0.353,0.235,0.52,0.514,0.52c0.39,0,0.638-0.247,0.725-0.501   c0.019-0.057,0.031-0.118,0.031-0.174V40.558z"/>
	<path d="M44.526,39.901c0-0.311-0.006-0.564-0.025-0.812h0.483l0.031,0.495h0.012c0.148-0.285,0.496-0.563,0.991-0.563   c0.415,0,1.059,0.248,1.059,1.276v1.79h-0.545v-1.729c0-0.483-0.18-0.886-0.694-0.886c-0.359,0-0.638,0.254-0.731,0.558   c-0.025,0.068-0.037,0.161-0.037,0.254v1.803h-0.545V39.901z"/>
	<path d="M50.098,41.977c-0.142,0.074-0.458,0.173-0.861,0.173c-0.905,0-1.493-0.613-1.493-1.529c0-0.924,0.632-1.593,1.611-1.593   c0.322,0,0.607,0.081,0.756,0.155l-0.124,0.421c-0.13-0.074-0.334-0.143-0.632-0.143c-0.688,0-1.06,0.508-1.06,1.134   c0,0.694,0.446,1.121,1.041,1.121c0.31,0,0.514-0.08,0.669-0.148L50.098,41.977z"/>
	<path d="M51.037,40.688c0.012,0.737,0.483,1.041,1.028,1.041c0.39,0,0.625-0.068,0.83-0.155l0.093,0.391   c-0.192,0.087-0.52,0.186-0.997,0.186c-0.923,0-1.475-0.606-1.475-1.511c0-0.905,0.533-1.617,1.406-1.617   c0.979,0,1.239,0.861,1.239,1.412c0,0.111-0.013,0.198-0.019,0.254H51.037z M52.635,40.298c0.006-0.348-0.143-0.886-0.756-0.886   c-0.551,0-0.793,0.508-0.836,0.886H52.635z"/>
	<path d="M19.3,49.515v-2.583h-0.421v-0.415H19.3v-0.143c0-0.422,0.093-0.806,0.347-1.047c0.205-0.198,0.477-0.279,0.731-0.279   c0.192,0,0.359,0.044,0.465,0.087l-0.075,0.421c-0.081-0.037-0.192-0.067-0.347-0.067c-0.465,0-0.583,0.408-0.583,0.867v0.161   h0.725v0.415h-0.725v2.583H19.3z"/>
	<path d="M23.765,47.99c0,1.109-0.768,1.593-1.493,1.593c-0.812,0-1.438-0.595-1.438-1.543c0-1.003,0.657-1.592,1.487-1.592   C23.183,46.448,23.765,47.074,23.765,47.99z M21.386,48.021c0,0.657,0.378,1.152,0.911,1.152c0.521,0,0.911-0.489,0.911-1.165   c0-0.508-0.254-1.151-0.898-1.151C21.665,46.857,21.386,47.452,21.386,48.021z"/>
	<path d="M24.449,47.452c0-0.354-0.006-0.657-0.025-0.936h0.477l0.019,0.588h0.025c0.136-0.402,0.465-0.656,0.83-0.656   c0.062,0,0.105,0.006,0.155,0.019v0.514c-0.056-0.012-0.111-0.019-0.186-0.019c-0.384,0-0.657,0.292-0.731,0.7   c-0.013,0.074-0.025,0.161-0.025,0.254v1.599h-0.539V47.452z"/>
	<path d="M27.785,45.116h0.545v4.398h-0.545V45.116z"/>
	<path d="M31.959,47.99c0,1.109-0.768,1.593-1.493,1.593c-0.812,0-1.438-0.595-1.438-1.543c0-1.003,0.657-1.592,1.487-1.592   C31.377,46.448,31.959,47.074,31.959,47.99z M29.58,48.021c0,0.657,0.378,1.152,0.911,1.152c0.521,0,0.911-0.489,0.911-1.165   c0-0.508-0.254-1.151-0.898-1.151C29.859,46.857,29.58,47.452,29.58,48.021z"/>
	<path d="M32.644,47.328c0-0.311-0.006-0.564-0.025-0.812h0.483l0.031,0.495h0.013c0.148-0.285,0.496-0.563,0.991-0.563   c0.415,0,1.059,0.248,1.059,1.276v1.79h-0.545v-1.729c0-0.483-0.18-0.886-0.694-0.886c-0.359,0-0.638,0.254-0.731,0.558   c-0.025,0.068-0.037,0.161-0.037,0.254v1.803h-0.545V47.328z"/>
	<path d="M38.662,46.517c-0.013,0.217-0.025,0.458-0.025,0.823v1.741c0,0.688-0.136,1.108-0.427,1.369   c-0.292,0.272-0.712,0.359-1.09,0.359c-0.359,0-0.756-0.087-0.998-0.248l0.136-0.415c0.198,0.124,0.508,0.235,0.88,0.235   c0.558,0,0.966-0.291,0.966-1.047V49h-0.012c-0.167,0.279-0.49,0.502-0.954,0.502c-0.744,0-1.276-0.632-1.276-1.462   c0-1.016,0.663-1.592,1.351-1.592c0.521,0,0.805,0.272,0.936,0.521h0.012l0.025-0.452H38.662z M38.098,47.699   c0-0.093-0.006-0.173-0.031-0.247c-0.099-0.316-0.366-0.576-0.762-0.576c-0.52,0-0.892,0.439-0.892,1.133   c0,0.589,0.297,1.078,0.886,1.078c0.334,0,0.638-0.21,0.755-0.558c0.031-0.093,0.043-0.198,0.043-0.291V47.699z"/>
	<path d="M40.802,47.638v0.402h-1.53v-0.402H40.802z"/>
	<path d="M42.095,45.655v0.861h0.781v0.415h-0.781v1.616c0,0.372,0.105,0.583,0.409,0.583c0.143,0,0.248-0.019,0.316-0.037   l0.025,0.408c-0.105,0.044-0.272,0.074-0.483,0.074c-0.254,0-0.458-0.08-0.589-0.229c-0.155-0.161-0.21-0.428-0.21-0.781v-1.635   h-0.465v-0.415h0.465v-0.719L42.095,45.655z"/>
	<path d="M43.79,48.114c0.012,0.737,0.483,1.041,1.028,1.041c0.39,0,0.625-0.068,0.83-0.155l0.093,0.391   c-0.192,0.087-0.52,0.186-0.997,0.186c-0.923,0-1.475-0.606-1.475-1.511c0-0.905,0.533-1.617,1.406-1.617   c0.979,0,1.239,0.861,1.239,1.412c0,0.111-0.013,0.198-0.019,0.254H43.79z M45.388,47.725c0.006-0.348-0.143-0.887-0.756-0.887   c-0.551,0-0.793,0.509-0.836,0.887H45.388z"/>
	<path d="M46.587,47.452c0-0.354-0.006-0.657-0.025-0.936h0.477l0.019,0.588h0.025c0.136-0.402,0.465-0.656,0.83-0.656   c0.062,0,0.105,0.006,0.155,0.019v0.514c-0.056-0.012-0.111-0.019-0.186-0.019c-0.384,0-0.657,0.292-0.731,0.7   c-0.013,0.074-0.025,0.161-0.025,0.254v1.599h-0.539V47.452z"/>
	<path d="M48.611,47.328c0-0.311-0.006-0.564-0.025-0.812h0.477l0.025,0.482h0.019c0.167-0.284,0.446-0.551,0.942-0.551   c0.409,0,0.718,0.248,0.849,0.601h0.012c0.093-0.167,0.211-0.297,0.334-0.39c0.18-0.137,0.378-0.211,0.663-0.211   c0.396,0,0.985,0.26,0.985,1.301v1.766h-0.533v-1.697c0-0.576-0.21-0.923-0.65-0.923c-0.31,0-0.551,0.229-0.645,0.495   c-0.024,0.074-0.043,0.174-0.043,0.272v1.853h-0.533v-1.797c0-0.477-0.211-0.823-0.626-0.823c-0.341,0-0.588,0.272-0.675,0.545   c-0.031,0.08-0.043,0.173-0.043,0.267v1.809h-0.533V47.328z"/>
	<path d="M21.828,53.943c-0.012,0.217-0.025,0.458-0.025,0.823v1.741c0,0.688-0.136,1.108-0.427,1.369   c-0.292,0.272-0.712,0.359-1.09,0.359c-0.359,0-0.756-0.087-0.998-0.248l0.136-0.415c0.198,0.124,0.508,0.235,0.88,0.235   c0.558,0,0.966-0.291,0.966-1.047v-0.335h-0.012c-0.167,0.279-0.49,0.502-0.954,0.502c-0.744,0-1.276-0.632-1.276-1.462   c0-1.016,0.663-1.592,1.351-1.592c0.521,0,0.805,0.272,0.936,0.521h0.012l0.025-0.452H21.828z M21.264,55.126   c0-0.093-0.006-0.173-0.031-0.247c-0.099-0.316-0.366-0.576-0.762-0.576c-0.52,0-0.892,0.439-0.892,1.133   c0,0.589,0.297,1.078,0.886,1.078c0.334,0,0.638-0.21,0.756-0.558c0.031-0.093,0.043-0.198,0.043-0.291V55.126z"/>
	<path d="M25.417,55.417c0,1.109-0.768,1.593-1.493,1.593c-0.812,0-1.438-0.595-1.438-1.543c0-1.004,0.657-1.592,1.487-1.592   C24.835,53.875,25.417,54.501,25.417,55.417z M23.038,55.448c0,0.657,0.378,1.152,0.911,1.152c0.521,0,0.911-0.489,0.911-1.165   c0-0.508-0.254-1.151-0.898-1.151C23.317,54.284,23.038,54.879,23.038,55.448z"/>
	<path d="M27.762,56.941l-0.043-0.378H27.7c-0.167,0.235-0.49,0.446-0.917,0.446c-0.607,0-0.917-0.428-0.917-0.861   c0-0.725,0.645-1.121,1.803-1.115v-0.062c0-0.248-0.068-0.694-0.682-0.694c-0.278,0-0.57,0.087-0.78,0.224l-0.124-0.359   c0.248-0.161,0.607-0.267,0.985-0.267c0.917,0,1.14,0.626,1.14,1.227v1.121c0,0.261,0.012,0.515,0.049,0.719H27.762z    M27.682,55.411c-0.595-0.013-1.27,0.093-1.27,0.676c0,0.353,0.235,0.52,0.514,0.52c0.39,0,0.638-0.247,0.725-0.501   c0.019-0.057,0.031-0.118,0.031-0.174V55.411z"/>
	<path d="M29.084,52.543h0.545v4.398h-0.545V52.543z"/>
	<path d="M30.471,56.384c0.161,0.105,0.446,0.217,0.719,0.217c0.396,0,0.582-0.198,0.582-0.446c0-0.26-0.155-0.402-0.558-0.551   c-0.539-0.192-0.793-0.489-0.793-0.849c0-0.483,0.391-0.88,1.035-0.88c0.304,0,0.57,0.087,0.737,0.186l-0.136,0.396   c-0.118-0.074-0.334-0.173-0.613-0.173c-0.322,0-0.502,0.186-0.502,0.408c0,0.248,0.18,0.359,0.57,0.508   c0.521,0.198,0.787,0.459,0.787,0.905c0,0.526-0.409,0.897-1.122,0.897c-0.328,0-0.632-0.08-0.842-0.204L30.471,56.384z"/>
</g>
<circle opacity="0.502" fill="#767676" cx="93.881" cy="36.281" r="36"/>
<circle fill="none" stroke="#EEEEEE" stroke-width="0.5623" stroke-miterlimit="8" cx="93.863" cy="36.263" r="35.982"/>
<g>
	<path d="M78.255,20.624c-0.016,0.248-0.032,0.576-0.032,1.159v2.183c0,0.752-0.152,1.367-0.591,1.759   c-0.432,0.368-1.016,0.479-1.591,0.479c-0.512,0-1.055-0.104-1.407-0.304l0.24-0.919c0.248,0.144,0.68,0.296,1.136,0.296   c0.576,0,1.015-0.312,1.015-1.031V23.99h-0.016c-0.232,0.328-0.608,0.512-1.056,0.512c-0.967,0-1.655-0.784-1.655-1.911   c0-1.255,0.816-2.055,1.775-2.055c0.536,0,0.871,0.231,1.071,0.551h0.016l0.04-0.463H78.255z M77.008,22.215   c0-0.08-0.008-0.16-0.024-0.224c-0.088-0.32-0.32-0.536-0.655-0.536c-0.44,0-0.8,0.399-0.8,1.111c0,0.583,0.288,1.04,0.8,1.04   c0.312,0,0.56-0.208,0.64-0.496c0.032-0.088,0.04-0.216,0.04-0.32V22.215z"/>
	<path d="M79.201,21.911c0-0.576-0.016-0.952-0.032-1.287h1.047l0.04,0.719h0.032c0.2-0.567,0.68-0.807,1.055-0.807   c0.112,0,0.168,0,0.256,0.016v1.144c-0.088-0.016-0.192-0.032-0.328-0.032c-0.448,0-0.751,0.24-0.832,0.616   c-0.016,0.08-0.024,0.176-0.024,0.272v1.983h-1.215V21.911z"/>
	<path d="M86.103,22.535c0,1.431-1.016,2.087-2.063,2.087c-1.143,0-2.023-0.751-2.023-2.015c0-1.264,0.832-2.071,2.087-2.071   C85.303,20.536,86.103,21.359,86.103,22.535z M83.272,22.575c0,0.672,0.28,1.175,0.8,1.175c0.472,0,0.775-0.472,0.775-1.175   c0-0.583-0.224-1.175-0.775-1.175C83.488,21.399,83.272,21.999,83.272,22.575z"/>
	<path d="M87.696,20.624l0.312,1.599c0.08,0.408,0.16,0.839,0.224,1.287h0.016c0.08-0.448,0.192-0.896,0.288-1.279l0.416-1.607   h0.959l0.392,1.559c0.104,0.439,0.208,0.879,0.288,1.327h0.016c0.056-0.448,0.136-0.888,0.224-1.335l0.336-1.551h1.191l-1.199,3.91   h-1.144l-0.368-1.375c-0.096-0.384-0.168-0.735-0.248-1.215h-0.016c-0.072,0.487-0.152,0.847-0.256,1.215l-0.392,1.375h-1.144   l-1.135-3.91H87.696z"/>
	<path d="M94.288,19.504v1.12h0.871v0.896h-0.871v1.415c0,0.472,0.112,0.688,0.479,0.688c0.152,0,0.272-0.016,0.36-0.032   l0.008,0.919c-0.16,0.064-0.448,0.104-0.792,0.104c-0.392,0-0.72-0.136-0.911-0.336c-0.224-0.232-0.336-0.608-0.336-1.159V21.52   h-0.52v-0.896h0.52v-0.848L94.288,19.504z"/>
	<path d="M95.865,18.857h1.215v2.23h0.016c0.128-0.167,0.288-0.295,0.479-0.399c0.176-0.096,0.408-0.152,0.632-0.152   c0.775,0,1.367,0.536,1.367,1.711v2.287h-1.215v-2.151c0-0.512-0.176-0.863-0.632-0.863c-0.32,0-0.52,0.208-0.607,0.424   c-0.032,0.08-0.04,0.184-0.04,0.271v2.319h-1.215V18.857z"/>
</g>
<g>
	<path d="M74.521,29.165c0-0.488-0.016-0.903-0.032-1.247h1.023l0.056,0.527h0.024c0.168-0.248,0.512-0.615,1.184-0.615   c0.503,0,0.903,0.256,1.071,0.664h0.016c0.144-0.2,0.32-0.36,0.503-0.472c0.216-0.128,0.456-0.191,0.744-0.191   c0.751,0,1.319,0.527,1.319,1.695v2.303h-1.184v-2.127c0-0.567-0.184-0.896-0.575-0.896c-0.28,0-0.48,0.192-0.56,0.424   c-0.032,0.088-0.048,0.216-0.048,0.312v2.287H76.88v-2.191c0-0.496-0.176-0.832-0.56-0.832c-0.312,0-0.496,0.24-0.567,0.44   c-0.04,0.096-0.048,0.208-0.048,0.304v2.279h-1.183V29.165z"/>
	<path d="M82.656,26.831c0,0.335-0.256,0.607-0.656,0.607c-0.384,0-0.64-0.272-0.632-0.607c-0.008-0.352,0.248-0.616,0.64-0.616   C82.4,26.215,82.648,26.479,82.656,26.831z M81.401,31.828v-3.91h1.215v3.91H81.401z"/>
	<path d="M83.593,29.165c0-0.488-0.016-0.903-0.032-1.247h1.056l0.056,0.536h0.024c0.16-0.248,0.56-0.624,1.207-0.624   c0.8,0,1.399,0.527,1.399,1.679v2.319h-1.215v-2.167c0-0.503-0.176-0.847-0.616-0.847c-0.336,0-0.536,0.231-0.616,0.456   c-0.032,0.072-0.048,0.192-0.048,0.304v2.255h-1.215V29.165z"/>
	<path d="M92.071,26.151v4.509c0,0.44,0.016,0.904,0.032,1.167h-1.079l-0.056-0.576h-0.016c-0.248,0.44-0.72,0.664-1.223,0.664   c-0.928,0-1.671-0.792-1.671-2.007c-0.008-1.319,0.816-2.079,1.751-2.079c0.48,0,0.856,0.167,1.032,0.439h0.016v-2.119H92.071z    M90.855,29.573c0-0.064-0.008-0.152-0.016-0.216c-0.072-0.328-0.336-0.6-0.711-0.6c-0.552,0-0.84,0.496-0.84,1.111   c0,0.664,0.328,1.08,0.832,1.08c0.352,0,0.632-0.24,0.704-0.584c0.024-0.088,0.032-0.176,0.032-0.28V29.573z"/>
	<path d="M93.041,30.764c0.224,0.136,0.688,0.296,1.047,0.296c0.368,0,0.52-0.128,0.52-0.328c0-0.2-0.12-0.296-0.576-0.448   c-0.808-0.272-1.119-0.712-1.111-1.175c0-0.728,0.624-1.279,1.591-1.279c0.456,0,0.864,0.104,1.104,0.224l-0.216,0.839   c-0.176-0.096-0.512-0.224-0.848-0.224c-0.296,0-0.463,0.12-0.463,0.32c0,0.184,0.152,0.28,0.631,0.448   c0.744,0.256,1.056,0.631,1.063,1.208c0,0.728-0.576,1.263-1.695,1.263c-0.512,0-0.968-0.112-1.264-0.272L93.041,30.764z"/>
	<path d="M97.457,30.261c0.04,0.503,0.536,0.743,1.103,0.743c0.416,0,0.752-0.056,1.08-0.16l0.16,0.824   c-0.4,0.16-0.888,0.24-1.416,0.24c-1.327,0-2.087-0.768-2.087-1.991c0-0.991,0.616-2.086,1.975-2.086   c1.263,0,1.743,0.983,1.743,1.951c0,0.208-0.024,0.392-0.04,0.48H97.457z M98.888,29.429c0-0.295-0.128-0.792-0.688-0.792   c-0.512,0-0.72,0.464-0.752,0.792H98.888z"/>
	<path d="M102.104,26.798v1.12h0.871v0.896h-0.871v1.415c0,0.472,0.112,0.688,0.479,0.688c0.152,0,0.272-0.016,0.36-0.032   l0.008,0.919c-0.16,0.064-0.448,0.104-0.792,0.104c-0.392,0-0.72-0.136-0.911-0.336c-0.224-0.232-0.336-0.608-0.336-1.159v-1.599   h-0.52v-0.896h0.52V27.07L102.104,26.798z"/>
</g>
<g>
	<path d="M76.993,40.873c0.013-0.204,0.025-0.508,0.025-0.774v-3.624h0.539v1.883h0.012c0.192-0.334,0.539-0.551,1.022-0.551   c0.743,0,1.27,0.619,1.264,1.53c0,1.071-0.675,1.604-1.344,1.604c-0.434,0-0.781-0.168-1.004-0.564h-0.019l-0.024,0.496H76.993z    M77.557,39.671c0,0.068,0.012,0.137,0.025,0.198c0.105,0.378,0.421,0.639,0.818,0.639c0.57,0,0.911-0.465,0.911-1.152   c0-0.602-0.31-1.115-0.892-1.115c-0.372,0-0.719,0.254-0.831,0.669c-0.012,0.062-0.031,0.137-0.031,0.223V39.671z"/>
	<path d="M80.843,39.473c0.012,0.737,0.483,1.041,1.028,1.041c0.39,0,0.625-0.068,0.83-0.155l0.093,0.391   c-0.192,0.087-0.52,0.186-0.997,0.186c-0.923,0-1.475-0.606-1.475-1.511c0-0.905,0.533-1.617,1.406-1.617   c0.979,0,1.239,0.861,1.239,1.412c0,0.111-0.013,0.198-0.019,0.254H80.843z M82.441,39.083c0.006-0.348-0.143-0.886-0.756-0.886   c-0.551,0-0.793,0.508-0.836,0.886H82.441z"/>
	<path d="M83.64,36.475h0.545v4.398H83.64V36.475z"/>
	<path d="M85.708,37.032c0.006,0.186-0.13,0.334-0.347,0.334c-0.192,0-0.328-0.148-0.328-0.334c0-0.192,0.142-0.341,0.34-0.341   C85.577,36.691,85.708,36.84,85.708,37.032z M85.1,40.873v-2.998h0.545v2.998H85.1z"/>
	<path d="M86.852,39.473c0.012,0.737,0.483,1.041,1.028,1.041c0.39,0,0.625-0.068,0.83-0.155l0.093,0.391   c-0.192,0.087-0.52,0.186-0.997,0.186c-0.923,0-1.475-0.606-1.475-1.511c0-0.905,0.533-1.617,1.406-1.617   c0.979,0,1.239,0.861,1.239,1.412c0,0.111-0.013,0.198-0.019,0.254H86.852z M88.45,39.083c0.006-0.348-0.143-0.886-0.756-0.886   c-0.551,0-0.793,0.508-0.836,0.886H88.45z"/>
	<path d="M89.705,40.873V38.29h-0.421v-0.415h0.421v-0.143c0-0.422,0.093-0.806,0.347-1.047c0.205-0.198,0.477-0.279,0.731-0.279   c0.192,0,0.359,0.044,0.465,0.087l-0.075,0.421c-0.081-0.037-0.192-0.067-0.347-0.067c-0.465,0-0.583,0.408-0.583,0.867v0.161   h0.725v0.415h-0.725v2.583H89.705z"/>
	<path d="M93.425,37.014v0.861h0.781v0.415h-0.781v1.616c0,0.372,0.105,0.583,0.409,0.583c0.143,0,0.248-0.019,0.316-0.037   l0.025,0.408c-0.105,0.044-0.272,0.074-0.483,0.074c-0.254,0-0.458-0.08-0.589-0.229c-0.155-0.161-0.21-0.428-0.21-0.781V38.29   h-0.465v-0.415h0.465v-0.719L93.425,37.014z"/>
	<path d="M94.816,36.475h0.545v1.871h0.012c0.087-0.155,0.223-0.291,0.39-0.385c0.161-0.093,0.354-0.154,0.558-0.154   c0.403,0,1.047,0.248,1.047,1.282v1.784h-0.545V39.15c0-0.482-0.18-0.892-0.694-0.892c-0.353,0-0.632,0.248-0.731,0.545   c-0.031,0.074-0.037,0.155-0.037,0.261v1.809h-0.545V36.475z"/>
	<path d="M99.912,40.873l-0.043-0.378H99.85c-0.167,0.235-0.49,0.446-0.917,0.446c-0.607,0-0.917-0.428-0.917-0.861   c0-0.725,0.645-1.121,1.803-1.115v-0.062c0-0.248-0.068-0.694-0.681-0.694c-0.279,0-0.57,0.087-0.781,0.224l-0.124-0.359   c0.248-0.161,0.607-0.267,0.985-0.267c0.917,0,1.14,0.626,1.14,1.227v1.121c0,0.261,0.012,0.515,0.049,0.719H99.912z    M99.831,39.343c-0.595-0.013-1.27,0.093-1.27,0.676c0,0.353,0.235,0.52,0.514,0.52c0.39,0,0.638-0.247,0.725-0.501   c0.019-0.057,0.031-0.118,0.031-0.174V39.343z"/>
	<path d="M101.891,37.014v0.861h0.781v0.415h-0.781v1.616c0,0.372,0.105,0.583,0.409,0.583c0.143,0,0.248-0.019,0.316-0.037   l0.024,0.408c-0.105,0.044-0.272,0.074-0.483,0.074c-0.254,0-0.458-0.08-0.589-0.229c-0.155-0.161-0.21-0.428-0.21-0.781V38.29   h-0.465v-0.415h0.465v-0.719L101.891,37.014z"/>
	<path d="M77.625,44.459c0.006,0.186-0.13,0.334-0.347,0.334c-0.192,0-0.328-0.148-0.328-0.334c0-0.192,0.142-0.341,0.34-0.341   C77.495,44.118,77.625,44.267,77.625,44.459z M77.018,48.3v-2.998h0.545V48.3H77.018z"/>
	<path d="M78.466,46.113c0-0.311-0.006-0.564-0.025-0.812h0.483l0.031,0.495h0.013c0.148-0.285,0.496-0.563,0.991-0.563   c0.415,0,1.059,0.248,1.059,1.276v1.79h-0.545v-1.729c0-0.483-0.18-0.886-0.694-0.886c-0.359,0-0.638,0.254-0.731,0.558   c-0.025,0.068-0.037,0.161-0.037,0.254V48.3h-0.545V46.113z"/>
	<path d="M82.558,44.44v0.861h0.781v0.415h-0.781v1.616c0,0.372,0.105,0.583,0.409,0.583c0.143,0,0.248-0.019,0.316-0.037   l0.025,0.408c-0.105,0.044-0.272,0.074-0.483,0.074c-0.254,0-0.458-0.08-0.589-0.229c-0.155-0.161-0.21-0.428-0.21-0.781v-1.635   H81.56v-0.415h0.465v-0.719L82.558,44.44z"/>
	<path d="M84.253,46.899c0.012,0.737,0.483,1.041,1.028,1.041c0.39,0,0.625-0.068,0.83-0.155l0.093,0.391   c-0.192,0.087-0.52,0.186-0.997,0.186c-0.923,0-1.475-0.606-1.475-1.511c0-0.905,0.533-1.617,1.406-1.617   c0.979,0,1.239,0.861,1.239,1.412c0,0.111-0.013,0.198-0.019,0.254H84.253z M85.851,46.51c0.006-0.348-0.143-0.887-0.756-0.887   c-0.551,0-0.793,0.509-0.836,0.887H85.851z"/>
	<path d="M87.05,43.901h0.545V48.3H87.05V43.901z"/>
	<path d="M88.51,43.901h0.545V48.3H88.51V43.901z"/>
	<path d="M90.578,44.459c0.006,0.186-0.13,0.334-0.347,0.334c-0.192,0-0.328-0.148-0.328-0.334c0-0.192,0.142-0.341,0.34-0.341   C90.448,44.118,90.578,44.267,90.578,44.459z M89.971,48.3v-2.998h0.545V48.3H89.971z"/>
	<path d="M94.002,45.302c-0.012,0.217-0.025,0.458-0.025,0.823v1.741c0,0.688-0.136,1.108-0.427,1.369   c-0.292,0.272-0.712,0.359-1.09,0.359c-0.359,0-0.756-0.087-0.998-0.248l0.136-0.415c0.198,0.124,0.508,0.235,0.88,0.235   c0.558,0,0.966-0.291,0.966-1.047v-0.335h-0.012c-0.167,0.279-0.49,0.502-0.954,0.502c-0.744,0-1.276-0.632-1.276-1.462   c0-1.016,0.663-1.592,1.351-1.592c0.521,0,0.805,0.272,0.936,0.521H93.5l0.025-0.452H94.002z M93.438,46.484   c0-0.093-0.006-0.173-0.031-0.247c-0.099-0.316-0.366-0.576-0.762-0.576c-0.52,0-0.892,0.439-0.892,1.133   c0,0.589,0.297,1.078,0.886,1.078c0.334,0,0.638-0.21,0.756-0.558c0.031-0.093,0.043-0.198,0.043-0.291V46.484z"/>
	<path d="M95.182,46.899c0.012,0.737,0.483,1.041,1.028,1.041c0.39,0,0.625-0.068,0.83-0.155l0.093,0.391   c-0.192,0.087-0.52,0.186-0.997,0.186c-0.923,0-1.475-0.606-1.475-1.511c0-0.905,0.533-1.617,1.406-1.617   c0.979,0,1.239,0.861,1.239,1.412c0,0.111-0.013,0.198-0.019,0.254H95.182z M96.78,46.51c0.006-0.348-0.143-0.887-0.756-0.887   c-0.551,0-0.793,0.509-0.836,0.887H96.78z"/>
	<path d="M97.979,46.113c0-0.311-0.006-0.564-0.025-0.812h0.483l0.031,0.495h0.012c0.148-0.285,0.496-0.563,0.991-0.563   c0.415,0,1.059,0.248,1.059,1.276v1.79h-0.545v-1.729c0-0.483-0.18-0.886-0.694-0.886c-0.359,0-0.638,0.254-0.731,0.558   c-0.025,0.068-0.037,0.161-0.037,0.254V48.3h-0.545V46.113z"/>
	<path d="M103.551,48.188c-0.142,0.074-0.458,0.173-0.861,0.173c-0.905,0-1.493-0.613-1.493-1.529c0-0.924,0.632-1.593,1.611-1.593   c0.322,0,0.607,0.081,0.756,0.155l-0.124,0.421c-0.13-0.074-0.334-0.143-0.632-0.143c-0.688,0-1.06,0.508-1.06,1.134   c0,0.694,0.446,1.121,1.041,1.121c0.31,0,0.514-0.08,0.669-0.148L103.551,48.188z"/>
	<path d="M104.49,46.899c0.012,0.737,0.483,1.041,1.028,1.041c0.39,0,0.625-0.068,0.83-0.155l0.093,0.391   c-0.192,0.087-0.52,0.186-0.997,0.186c-0.923,0-1.475-0.606-1.475-1.511c0-0.905,0.533-1.617,1.406-1.617   c0.979,0,1.239,0.861,1.239,1.412c0,0.111-0.013,0.198-0.019,0.254H104.49z M106.088,46.51c0.006-0.348-0.143-0.887-0.756-0.887   c-0.551,0-0.793,0.509-0.836,0.887H106.088z"/>
	<path d="M109.207,44.459c0.006,0.186-0.13,0.334-0.347,0.334c-0.192,0-0.328-0.148-0.328-0.334c0-0.192,0.142-0.341,0.34-0.341   C109.076,44.118,109.207,44.267,109.207,44.459z M108.599,48.3v-2.998h0.545V48.3H108.599z"/>
	<path d="M109.973,47.742c0.161,0.105,0.446,0.217,0.719,0.217c0.396,0,0.582-0.198,0.582-0.446c0-0.26-0.155-0.402-0.558-0.551   c-0.539-0.192-0.793-0.489-0.793-0.849c0-0.483,0.391-0.88,1.035-0.88c0.304,0,0.57,0.087,0.737,0.186l-0.136,0.396   c-0.118-0.074-0.334-0.173-0.613-0.173c-0.322,0-0.502,0.186-0.502,0.408c0,0.248,0.18,0.359,0.57,0.508   c0.521,0.198,0.787,0.459,0.787,0.905c0,0.526-0.409,0.897-1.122,0.897c-0.328,0-0.632-0.08-0.842-0.204L109.973,47.742z"/>
	<path d="M77.018,53.54c0-0.311-0.006-0.564-0.025-0.812h0.477l0.025,0.482h0.019c0.167-0.284,0.446-0.551,0.942-0.551   c0.409,0,0.718,0.248,0.849,0.601h0.012c0.093-0.167,0.211-0.297,0.334-0.39c0.18-0.137,0.378-0.211,0.663-0.211   c0.396,0,0.985,0.26,0.985,1.301v1.766h-0.533v-1.697c0-0.576-0.21-0.923-0.65-0.923c-0.31,0-0.551,0.229-0.645,0.495   c-0.024,0.074-0.043,0.174-0.043,0.272v1.853h-0.533V53.93c0-0.477-0.21-0.823-0.625-0.823c-0.341,0-0.588,0.272-0.675,0.545   c-0.031,0.08-0.043,0.173-0.043,0.267v1.809h-0.533V53.54z"/>
	<path d="M83.839,55.727l-0.043-0.378h-0.019c-0.167,0.235-0.49,0.446-0.917,0.446c-0.607,0-0.917-0.428-0.917-0.861   c0-0.725,0.645-1.121,1.803-1.115v-0.062c0-0.248-0.068-0.694-0.681-0.694c-0.279,0-0.57,0.087-0.781,0.224l-0.124-0.359   c0.248-0.161,0.607-0.267,0.985-0.267c0.917,0,1.14,0.626,1.14,1.227v1.121c0,0.261,0.012,0.515,0.049,0.719H83.839z    M83.759,54.196c-0.595-0.013-1.27,0.093-1.27,0.676c0,0.353,0.235,0.52,0.514,0.52c0.39,0,0.638-0.247,0.725-0.501   c0.019-0.057,0.031-0.118,0.031-0.174V54.196z"/>
	<path d="M85.162,51.328h0.545v4.398h-0.545V51.328z"/>
	<path d="M86.623,51.328h0.545v4.398h-0.545V51.328z"/>
	<path d="M88.387,54.326c0.012,0.737,0.483,1.041,1.028,1.041c0.39,0,0.625-0.068,0.83-0.155l0.093,0.391   c-0.192,0.087-0.52,0.186-0.997,0.186c-0.923,0-1.475-0.606-1.475-1.511c0-0.905,0.533-1.617,1.406-1.617   c0.979,0,1.239,0.861,1.239,1.412c0,0.111-0.013,0.198-0.019,0.254H88.387z M89.985,53.937c0.006-0.348-0.143-0.886-0.756-0.886   c-0.551,0-0.793,0.508-0.836,0.886H89.985z"/>
	<path d="M92.844,55.727l-0.043-0.378h-0.019c-0.167,0.235-0.49,0.446-0.917,0.446c-0.607,0-0.917-0.428-0.917-0.861   c0-0.725,0.645-1.121,1.803-1.115v-0.062c0-0.248-0.068-0.694-0.682-0.694c-0.278,0-0.57,0.087-0.78,0.224l-0.124-0.359   c0.248-0.161,0.607-0.267,0.985-0.267c0.917,0,1.14,0.626,1.14,1.227v1.121c0,0.261,0.012,0.515,0.049,0.719H92.844z    M92.764,54.196c-0.595-0.013-1.27,0.093-1.27,0.676c0,0.353,0.235,0.52,0.514,0.52c0.39,0,0.638-0.247,0.725-0.501   c0.019-0.057,0.031-0.118,0.031-0.174V54.196z"/>
	<path d="M94.142,55.727c0.013-0.204,0.025-0.508,0.025-0.774v-3.624h0.539v1.883h0.012c0.192-0.334,0.539-0.551,1.022-0.551   c0.743,0,1.27,0.619,1.264,1.53c0,1.071-0.675,1.604-1.344,1.604c-0.434,0-0.781-0.168-1.003-0.564h-0.019l-0.024,0.496H94.142z    M94.706,54.524c0,0.068,0.012,0.137,0.025,0.198c0.105,0.378,0.421,0.639,0.817,0.639c0.57,0,0.911-0.465,0.911-1.152   c0-0.602-0.31-1.115-0.892-1.115c-0.372,0-0.719,0.254-0.831,0.669c-0.012,0.062-0.031,0.137-0.031,0.223V54.524z"/>
	<path d="M97.688,51.328h0.545v4.398h-0.545V51.328z"/>
	<path d="M99.452,54.326c0.012,0.737,0.483,1.041,1.028,1.041c0.39,0,0.625-0.068,0.83-0.155l0.093,0.391   c-0.192,0.087-0.52,0.186-0.997,0.186c-0.923,0-1.475-0.606-1.475-1.511c0-0.905,0.533-1.617,1.406-1.617   c0.979,0,1.239,0.861,1.239,1.412c0,0.111-0.013,0.198-0.019,0.254H99.452z M101.05,53.937c0.006-0.348-0.143-0.886-0.756-0.886   c-0.551,0-0.793,0.508-0.836,0.886H101.05z"/>
</g>
<circle opacity="0.502" fill="#767676" cx="151.481" cy="36.281" r="36"/>
<circle fill="none" stroke="#EEEEEE" stroke-width="0.5623" stroke-miterlimit="8" cx="151.463" cy="36.263" r="35.981"/>
<g>
	<path d="M132.654,16.701c0,0.335-0.256,0.607-0.656,0.607c-0.384,0-0.64-0.272-0.632-0.607c-0.008-0.352,0.248-0.616,0.64-0.616   C132.398,16.085,132.646,16.349,132.654,16.701z M131.399,21.698v-3.91h1.215v3.91H131.399z"/>
	<path d="M133.591,19.035c0-0.488-0.016-0.903-0.032-1.247h1.056l0.056,0.536h0.024c0.16-0.248,0.56-0.624,1.207-0.624   c0.8,0,1.399,0.527,1.399,1.679v2.319h-1.215v-2.167c0-0.503-0.176-0.847-0.616-0.847c-0.336,0-0.536,0.231-0.616,0.456   c-0.032,0.072-0.048,0.192-0.048,0.304v2.255h-1.215V19.035z"/>
	<path d="M139.638,16.668v1.12h0.872v0.896h-0.872v1.415c0,0.472,0.112,0.688,0.479,0.688c0.152,0,0.272-0.016,0.36-0.032   l0.008,0.919c-0.16,0.064-0.448,0.104-0.792,0.104c-0.392,0-0.719-0.136-0.912-0.336c-0.224-0.232-0.335-0.608-0.335-1.159v-1.599   h-0.52v-0.896h0.52V16.94L139.638,16.668z"/>
	<path d="M142.15,20.131c0.04,0.503,0.536,0.743,1.104,0.743c0.416,0,0.751-0.056,1.079-0.16l0.16,0.824   c-0.4,0.16-0.888,0.24-1.416,0.24c-1.327,0-2.087-0.768-2.087-1.991c0-0.991,0.616-2.086,1.975-2.086   c1.263,0,1.743,0.983,1.743,1.951c0,0.208-0.024,0.392-0.04,0.48H142.15z M143.582,19.299c0-0.295-0.128-0.792-0.688-0.792   c-0.512,0-0.72,0.464-0.752,0.792H143.582z"/>
	<path d="M145.439,16.021h1.215v5.677h-1.215V16.021z"/>
	<path d="M147.639,16.021h1.215v5.677h-1.215V16.021z"/>
	<path d="M150.775,20.131c0.04,0.503,0.536,0.743,1.103,0.743c0.416,0,0.752-0.056,1.08-0.16l0.16,0.824   c-0.4,0.16-0.888,0.24-1.416,0.24c-1.327,0-2.087-0.768-2.087-1.991c0-0.991,0.616-2.086,1.975-2.086   c1.263,0,1.743,0.983,1.743,1.951c0,0.208-0.024,0.392-0.04,0.48H150.775z M152.206,19.299c0-0.295-0.128-0.792-0.688-0.792   c-0.512,0-0.72,0.464-0.752,0.792H152.206z"/>
	<path d="M156.998,21.602c-0.216,0.096-0.624,0.176-1.088,0.176c-1.263,0-2.071-0.768-2.071-1.999c0-1.144,0.784-2.079,2.239-2.079   c0.32,0,0.672,0.056,0.928,0.152l-0.192,0.903c-0.144-0.064-0.36-0.12-0.68-0.12c-0.64,0-1.055,0.456-1.047,1.096   c0,0.719,0.479,1.095,1.071,1.095c0.288,0,0.512-0.048,0.696-0.12L156.998,21.602z"/>
	<path d="M159.031,16.668v1.12h0.872v0.896h-0.872v1.415c0,0.472,0.112,0.688,0.479,0.688c0.152,0,0.272-0.016,0.36-0.032   l0.008,0.919c-0.16,0.064-0.448,0.104-0.792,0.104c-0.392,0-0.719-0.136-0.912-0.336c-0.224-0.232-0.335-0.608-0.335-1.159v-1.599   h-0.52v-0.896h0.52V16.94L159.031,16.668z"/>
	<path d="M164.293,20.442c0,0.512,0.016,0.928,0.032,1.255h-1.055l-0.056-0.552h-0.024c-0.152,0.24-0.52,0.64-1.223,0.64   c-0.792,0-1.375-0.496-1.375-1.703v-2.294h1.223v2.103c0,0.568,0.184,0.912,0.608,0.912c0.336,0,0.528-0.232,0.608-0.424   c0.032-0.072,0.04-0.168,0.04-0.264v-2.327h1.224V20.442z"/>
	<path d="M167.494,21.698l-0.072-0.392h-0.024c-0.256,0.312-0.656,0.479-1.12,0.479c-0.792,0-1.263-0.576-1.263-1.199   c0-1.016,0.912-1.503,2.295-1.495v-0.056c0-0.208-0.112-0.504-0.712-0.504c-0.4,0-0.823,0.136-1.079,0.296l-0.224-0.783   c0.272-0.152,0.808-0.344,1.519-0.344c1.303,0,1.719,0.768,1.719,1.687v1.359c0,0.376,0.016,0.736,0.056,0.952H167.494z    M167.35,19.851c-0.64-0.008-1.135,0.144-1.135,0.616c0,0.312,0.208,0.464,0.48,0.464c0.304,0,0.551-0.2,0.631-0.448   c0.016-0.064,0.024-0.136,0.024-0.208V19.851z"/>
	<path d="M169.496,16.021h1.215v5.677h-1.215V16.021z"/>
</g>
<g>
	<path d="M134.333,28.896c-0.216,0.096-0.624,0.176-1.087,0.176c-1.264,0-2.071-0.768-2.071-1.999c0-1.144,0.784-2.079,2.239-2.079   c0.32,0,0.672,0.056,0.928,0.152l-0.192,0.903c-0.144-0.064-0.36-0.12-0.68-0.12c-0.64,0-1.056,0.456-1.047,1.096   c0,0.719,0.479,1.095,1.071,1.095c0.288,0,0.512-0.048,0.696-0.12L134.333,28.896z"/>
	<path d="M138.693,27.736c0,0.512,0.016,0.928,0.032,1.255h-1.055l-0.056-0.552h-0.024c-0.152,0.24-0.52,0.64-1.223,0.64   c-0.792,0-1.375-0.496-1.375-1.703v-2.294h1.223v2.103c0,0.568,0.184,0.912,0.608,0.912c0.336,0,0.528-0.232,0.608-0.424   c0.032-0.072,0.04-0.168,0.04-0.264v-2.327h1.224V27.736z"/>
	<path d="M139.671,26.369c0-0.576-0.016-0.952-0.032-1.287h1.048l0.04,0.719h0.032c0.2-0.567,0.68-0.807,1.055-0.807   c0.112,0,0.168,0,0.256,0.016v1.144c-0.088-0.016-0.192-0.032-0.328-0.032c-0.448,0-0.751,0.24-0.832,0.616   c-0.016,0.08-0.024,0.176-0.024,0.272v1.983h-1.215V26.369z"/>
	<path d="M143.966,23.995c0,0.335-0.256,0.607-0.656,0.607c-0.384,0-0.64-0.272-0.632-0.607c-0.008-0.352,0.248-0.616,0.64-0.616   C143.71,23.379,143.958,23.643,143.966,23.995z M142.711,28.992v-3.91h1.215v3.91H142.711z"/>
	<path d="M148.765,26.993c0,1.431-1.016,2.087-2.063,2.087c-1.143,0-2.023-0.751-2.023-2.015c0-1.264,0.832-2.071,2.087-2.071   C147.965,24.994,148.765,25.817,148.765,26.993z M145.934,27.033c0,0.672,0.28,1.175,0.8,1.175c0.472,0,0.775-0.472,0.775-1.175   c0-0.583-0.224-1.175-0.775-1.175C146.15,25.857,145.934,26.457,145.934,27.033z"/>
	<path d="M149.511,27.928c0.224,0.136,0.688,0.296,1.048,0.296c0.368,0,0.52-0.128,0.52-0.328c0-0.2-0.12-0.296-0.576-0.448   c-0.808-0.272-1.12-0.712-1.111-1.175c0-0.728,0.624-1.279,1.591-1.279c0.456,0,0.863,0.104,1.103,0.224l-0.216,0.839   c-0.176-0.096-0.512-0.224-0.848-0.224c-0.295,0-0.463,0.12-0.463,0.32c0,0.184,0.152,0.28,0.631,0.448   c0.744,0.256,1.056,0.631,1.063,1.208c0,0.728-0.576,1.263-1.695,1.263c-0.512,0-0.968-0.112-1.264-0.272L149.511,27.928z"/>
	<path d="M154.246,23.995c0,0.335-0.256,0.607-0.656,0.607c-0.384,0-0.64-0.272-0.632-0.607c-0.008-0.352,0.248-0.616,0.64-0.616   C153.99,23.379,154.238,23.643,154.246,23.995z M152.991,28.992v-3.91h1.215v3.91H152.991z"/>
	<path d="M156.542,23.962v1.12h0.871v0.896h-0.871v1.415c0,0.472,0.112,0.688,0.479,0.688c0.152,0,0.272-0.016,0.36-0.032   l0.008,0.919c-0.16,0.064-0.448,0.104-0.792,0.104c-0.392,0-0.72-0.136-0.911-0.336c-0.224-0.232-0.336-0.608-0.336-1.159v-1.599   h-0.52v-0.896h0.52v-0.848L156.542,23.962z"/>
	<path d="M159.03,25.082l0.583,1.919c0.064,0.231,0.144,0.52,0.192,0.728h0.024c0.056-0.208,0.12-0.504,0.176-0.728l0.48-1.919   h1.303l-0.912,2.574c-0.56,1.551-0.936,2.175-1.375,2.567c-0.424,0.368-0.872,0.496-1.175,0.536l-0.256-1.031   c0.152-0.024,0.344-0.096,0.527-0.208c0.184-0.096,0.384-0.288,0.504-0.488c0.04-0.056,0.064-0.12,0.064-0.176   c0-0.04-0.008-0.104-0.056-0.2l-1.431-3.574H159.03z"/>
</g>
<g>
	<path d="M136.485,33.639v3.624c0,0.267,0.006,0.57,0.024,0.774h-0.489l-0.025-0.521h-0.012c-0.167,0.335-0.533,0.589-1.022,0.589   c-0.725,0-1.282-0.613-1.282-1.524c-0.006-0.997,0.613-1.61,1.344-1.61c0.458,0,0.769,0.217,0.905,0.458h0.012v-1.791H136.485z    M135.94,36.259c0-0.068-0.006-0.161-0.025-0.229c-0.081-0.347-0.378-0.632-0.787-0.632c-0.564,0-0.898,0.496-0.898,1.159   c0,0.607,0.297,1.108,0.886,1.108c0.365,0,0.7-0.241,0.799-0.65c0.019-0.074,0.025-0.148,0.025-0.235V36.259z"/>
	<path d="M137.69,36.637c0.012,0.737,0.483,1.041,1.028,1.041c0.39,0,0.625-0.068,0.83-0.155l0.093,0.391   c-0.192,0.087-0.52,0.186-0.997,0.186c-0.923,0-1.475-0.606-1.475-1.511c0-0.905,0.533-1.617,1.406-1.617   c0.979,0,1.239,0.861,1.239,1.412c0,0.111-0.013,0.198-0.019,0.254H137.69z M139.288,36.247c0.006-0.347-0.143-0.886-0.756-0.886   c-0.551,0-0.793,0.508-0.836,0.886H139.288z"/>
	<path d="M140.413,37.479c0.161,0.105,0.446,0.217,0.719,0.217c0.396,0,0.582-0.198,0.582-0.446c0-0.26-0.155-0.402-0.558-0.551   c-0.539-0.192-0.793-0.49-0.793-0.849c0-0.483,0.391-0.879,1.035-0.879c0.304,0,0.57,0.086,0.737,0.186l-0.136,0.396   c-0.118-0.074-0.334-0.173-0.613-0.173c-0.322,0-0.502,0.186-0.502,0.409c0,0.248,0.18,0.359,0.57,0.508   c0.521,0.198,0.787,0.459,0.787,0.905c0,0.526-0.409,0.897-1.122,0.897c-0.328,0-0.632-0.08-0.842-0.204L140.413,37.479z"/>
	<path d="M143.545,34.196c0.006,0.186-0.13,0.334-0.347,0.334c-0.192,0-0.328-0.149-0.328-0.334c0-0.192,0.142-0.341,0.34-0.341   C143.415,33.855,143.545,34.004,143.545,34.196z M142.938,38.037v-2.999h0.545v2.999H142.938z"/>
	<path d="M144.386,35.974c0-0.353-0.006-0.657-0.025-0.936h0.477l0.019,0.589h0.025c0.136-0.403,0.465-0.657,0.83-0.657   c0.062,0,0.105,0.006,0.155,0.019v0.514c-0.056-0.013-0.111-0.019-0.186-0.019c-0.384,0-0.657,0.291-0.731,0.7   c-0.013,0.075-0.025,0.161-0.025,0.254v1.599h-0.539V35.974z"/>
	<path d="M146.713,36.637c0.012,0.737,0.483,1.041,1.028,1.041c0.39,0,0.625-0.068,0.83-0.155l0.093,0.391   c-0.192,0.087-0.52,0.186-0.997,0.186c-0.923,0-1.475-0.606-1.475-1.511c0-0.905,0.533-1.617,1.406-1.617   c0.979,0,1.239,0.861,1.239,1.412c0,0.111-0.013,0.198-0.019,0.254H146.713z M148.312,36.247c0.006-0.347-0.143-0.886-0.756-0.886   c-0.551,0-0.793,0.508-0.836,0.886H148.312z"/>
	<path d="M151.479,34.178v0.861h0.781v0.415h-0.781v1.617c0,0.372,0.105,0.583,0.409,0.583c0.143,0,0.248-0.019,0.316-0.037   l0.024,0.408c-0.105,0.044-0.272,0.074-0.483,0.074c-0.254,0-0.458-0.08-0.589-0.229c-0.155-0.161-0.21-0.428-0.21-0.781v-1.635   h-0.465v-0.415h0.465V34.32L151.479,34.178z"/>
	<path d="M155.584,36.513c0,1.109-0.768,1.593-1.493,1.593c-0.812,0-1.438-0.595-1.438-1.543c0-1.003,0.657-1.592,1.487-1.592   C155.002,34.971,155.584,35.596,155.584,36.513z M153.205,36.544c0,0.657,0.378,1.152,0.911,1.152c0.521,0,0.911-0.489,0.911-1.165   c0-0.507-0.254-1.152-0.898-1.152C153.484,35.379,153.205,35.974,153.205,36.544z"/>
	<path d="M158.237,34.178v0.861h0.781v0.415h-0.781v1.617c0,0.372,0.105,0.583,0.409,0.583c0.143,0,0.248-0.019,0.316-0.037   l0.025,0.408c-0.105,0.044-0.272,0.074-0.483,0.074c-0.254,0-0.458-0.08-0.589-0.229c-0.155-0.161-0.21-0.428-0.21-0.781v-1.635   h-0.465v-0.415h0.465V34.32L158.237,34.178z"/>
	<path d="M159.629,33.639h0.545v1.871h0.012c0.087-0.155,0.223-0.292,0.39-0.384c0.161-0.093,0.354-0.155,0.558-0.155   c0.403,0,1.047,0.248,1.047,1.282v1.784h-0.545v-1.723c0-0.483-0.18-0.892-0.694-0.892c-0.353,0-0.632,0.248-0.731,0.545   c-0.031,0.075-0.037,0.155-0.037,0.26v1.809h-0.545V33.639z"/>
	<path d="M163.671,34.196c0.006,0.186-0.13,0.334-0.347,0.334c-0.192,0-0.328-0.149-0.328-0.334c0-0.192,0.142-0.341,0.34-0.341   C163.541,33.855,163.671,34.004,163.671,34.196z M163.064,38.037v-2.999h0.545v2.999H163.064z"/>
	<path d="M164.512,35.85c0-0.31-0.006-0.563-0.025-0.812h0.483l0.031,0.496h0.012c0.148-0.285,0.496-0.563,0.991-0.563   c0.415,0,1.059,0.248,1.059,1.276v1.791h-0.545v-1.729c0-0.483-0.18-0.886-0.694-0.886c-0.359,0-0.638,0.254-0.731,0.558   c-0.025,0.068-0.037,0.161-0.037,0.254v1.803h-0.545V35.85z"/>
	<path d="M168.486,36.414h0.012c0.075-0.105,0.18-0.235,0.267-0.341l0.88-1.035h0.656l-1.158,1.233l1.319,1.766H169.8l-1.035-1.438   l-0.279,0.31v1.128h-0.539v-4.398h0.539V36.414z"/>
	<path d="M135.556,45.464l-0.043-0.378h-0.019c-0.167,0.235-0.49,0.446-0.917,0.446c-0.607,0-0.917-0.428-0.917-0.861   c0-0.725,0.645-1.121,1.803-1.115v-0.062c0-0.248-0.068-0.694-0.682-0.694c-0.278,0-0.57,0.087-0.78,0.224l-0.124-0.359   c0.248-0.161,0.607-0.267,0.985-0.267c0.917,0,1.14,0.626,1.14,1.227v1.121c0,0.261,0.012,0.515,0.049,0.719H135.556z    M135.476,43.934c-0.595-0.013-1.27,0.093-1.27,0.676c0,0.353,0.235,0.52,0.514,0.52c0.39,0,0.638-0.247,0.725-0.501   c0.019-0.056,0.031-0.118,0.031-0.174V43.934z"/>
	<path d="M136.854,45.464c0.013-0.204,0.025-0.508,0.025-0.774v-3.624h0.539v1.883h0.012c0.192-0.334,0.539-0.551,1.022-0.551   c0.743,0,1.27,0.619,1.264,1.53c0,1.071-0.675,1.604-1.344,1.604c-0.434,0-0.781-0.167-1.003-0.563h-0.019l-0.024,0.495H136.854z    M137.417,44.262c0,0.068,0.012,0.137,0.025,0.198c0.105,0.378,0.421,0.639,0.817,0.639c0.57,0,0.911-0.465,0.911-1.152   c0-0.602-0.31-1.115-0.892-1.115c-0.372,0-0.719,0.254-0.831,0.669c-0.012,0.062-0.031,0.137-0.031,0.223V44.262z"/>
	<path d="M143.113,43.939c0,1.109-0.768,1.593-1.493,1.593c-0.812,0-1.438-0.595-1.438-1.543c0-1.003,0.657-1.592,1.487-1.592   C142.531,42.397,143.113,43.023,143.113,43.939z M140.734,43.971c0,0.657,0.378,1.152,0.911,1.152c0.521,0,0.911-0.489,0.911-1.165   c0-0.508-0.254-1.151-0.898-1.151C141.013,42.807,140.734,43.401,140.734,43.971z"/>
	<path d="M146.307,44.646c0,0.31,0.006,0.582,0.024,0.817h-0.483l-0.031-0.489h-0.012c-0.143,0.241-0.458,0.558-0.991,0.558   c-0.471,0-1.035-0.261-1.035-1.313v-1.753h0.545v1.66c0,0.569,0.173,0.954,0.669,0.954c0.365,0,0.62-0.254,0.719-0.496   c0.031-0.08,0.049-0.18,0.049-0.278v-1.84h0.545V44.646z"/>
	<path d="M147.865,41.604v0.861h0.781v0.415h-0.781v1.616c0,0.372,0.105,0.583,0.409,0.583c0.143,0,0.248-0.019,0.316-0.037   l0.024,0.408c-0.105,0.044-0.272,0.074-0.483,0.074c-0.254,0-0.458-0.08-0.589-0.229c-0.155-0.161-0.21-0.428-0.21-0.781v-1.635   h-0.465v-0.415h0.465v-0.719L147.865,41.604z"/>
	<path d="M153.158,41.065v3.624c0,0.267,0.006,0.57,0.024,0.774h-0.489l-0.025-0.521h-0.012c-0.167,0.335-0.533,0.589-1.022,0.589   c-0.725,0-1.282-0.613-1.282-1.524c-0.006-0.997,0.613-1.61,1.344-1.61c0.458,0,0.769,0.217,0.905,0.458h0.012v-1.79H153.158z    M152.613,43.686c0-0.067-0.006-0.161-0.025-0.229c-0.081-0.348-0.378-0.632-0.787-0.632c-0.564,0-0.898,0.495-0.898,1.158   c0,0.607,0.297,1.108,0.886,1.108c0.365,0,0.7-0.241,0.799-0.65c0.019-0.074,0.025-0.148,0.025-0.235V43.686z"/>
	<path d="M154.667,41.623c0.006,0.186-0.13,0.334-0.347,0.334c-0.192,0-0.328-0.148-0.328-0.334c0-0.192,0.142-0.341,0.34-0.341   C154.536,41.282,154.667,41.431,154.667,41.623z M154.059,45.464v-2.998h0.545v2.998H154.059z"/>
	<path d="M155.563,45.464v-2.583h-0.421v-0.415h0.421v-0.143c0-0.422,0.093-0.806,0.347-1.047c0.205-0.198,0.477-0.279,0.731-0.279   c0.192,0,0.359,0.044,0.465,0.087l-0.075,0.421c-0.081-0.037-0.192-0.067-0.347-0.067c-0.465,0-0.583,0.408-0.583,0.867v0.161   h0.725v0.415h-0.725v2.583H155.563z"/>
	<path d="M157.37,45.464v-2.583h-0.421v-0.415h0.421v-0.143c0-0.422,0.093-0.806,0.347-1.047c0.205-0.198,0.477-0.279,0.731-0.279   c0.192,0,0.359,0.044,0.465,0.087l-0.075,0.421c-0.081-0.037-0.192-0.067-0.347-0.067c-0.465,0-0.583,0.408-0.583,0.867v0.161   h0.725v0.415h-0.725v2.583H157.37z"/>
	<path d="M159.729,41.623c0.006,0.186-0.13,0.334-0.347,0.334c-0.192,0-0.328-0.148-0.328-0.334c0-0.192,0.142-0.341,0.34-0.341   C159.599,41.282,159.729,41.431,159.729,41.623z M159.122,45.464v-2.998h0.545v2.998H159.122z"/>
	<path d="M162.707,45.353c-0.142,0.074-0.458,0.173-0.861,0.173c-0.905,0-1.493-0.613-1.493-1.529c0-0.924,0.632-1.593,1.611-1.593   c0.322,0,0.607,0.081,0.756,0.155l-0.124,0.421c-0.13-0.074-0.334-0.143-0.632-0.143c-0.688,0-1.06,0.508-1.06,1.134   c0,0.694,0.446,1.121,1.041,1.121c0.31,0,0.514-0.08,0.669-0.148L162.707,45.353z"/>
	<path d="M165.852,44.646c0,0.31,0.006,0.582,0.024,0.817h-0.483l-0.031-0.489h-0.012c-0.143,0.241-0.458,0.558-0.991,0.558   c-0.471,0-1.035-0.261-1.035-1.313v-1.753h0.545v1.66c0,0.569,0.173,0.954,0.669,0.954c0.365,0,0.62-0.254,0.719-0.496   c0.031-0.08,0.049-0.18,0.049-0.278v-1.84h0.545V44.646z"/>
	<path d="M166.752,41.065h0.545v4.398h-0.545V41.065z"/>
	<path d="M168.87,41.604v0.861h0.781v0.415h-0.781v1.616c0,0.372,0.105,0.583,0.409,0.583c0.143,0,0.248-0.019,0.316-0.037   l0.024,0.408c-0.105,0.044-0.272,0.074-0.483,0.074c-0.254,0-0.458-0.08-0.589-0.229c-0.155-0.161-0.21-0.428-0.21-0.781v-1.635   h-0.465v-0.415h0.465v-0.719L168.87,41.604z"/>
	<path d="M136.609,51.366c0,1.109-0.768,1.593-1.493,1.593c-0.812,0-1.438-0.595-1.438-1.543c0-1.004,0.657-1.592,1.487-1.592   C136.027,49.824,136.609,50.45,136.609,51.366z M134.23,51.397c0,0.657,0.378,1.152,0.911,1.152c0.521,0,0.911-0.489,0.911-1.165   c0-0.508-0.254-1.151-0.898-1.151C134.509,50.233,134.23,50.828,134.23,51.397z"/>
	<path d="M137.293,50.828c0-0.354-0.006-0.657-0.025-0.936h0.477l0.019,0.588h0.025c0.136-0.402,0.465-0.656,0.83-0.656   c0.062,0,0.105,0.006,0.155,0.019v0.514c-0.056-0.012-0.112-0.019-0.186-0.019c-0.384,0-0.657,0.292-0.731,0.7   c-0.013,0.074-0.025,0.161-0.025,0.254v1.599h-0.539V50.828z"/>
	<path d="M140.629,50.704c0-0.311-0.006-0.564-0.025-0.812h0.483l0.031,0.495h0.012c0.148-0.285,0.496-0.563,0.991-0.563   c0.415,0,1.059,0.248,1.059,1.276v1.79h-0.545v-1.729c0-0.483-0.18-0.886-0.694-0.886c-0.359,0-0.638,0.254-0.731,0.558   c-0.025,0.068-0.037,0.161-0.037,0.254v1.803h-0.545V50.704z"/>
	<path d="M144.368,51.49c0.012,0.737,0.483,1.041,1.028,1.041c0.39,0,0.625-0.068,0.83-0.155l0.093,0.391   c-0.192,0.087-0.52,0.186-0.997,0.186c-0.923,0-1.475-0.606-1.475-1.511c0-0.905,0.533-1.617,1.406-1.617   c0.979,0,1.239,0.861,1.239,1.412c0,0.111-0.013,0.198-0.019,0.254H144.368z M145.966,51.101c0.006-0.348-0.143-0.886-0.756-0.886   c-0.551,0-0.793,0.508-0.836,0.886H145.966z"/>
	<path d="M147.382,49.893l0.396,1.523c0.087,0.335,0.167,0.645,0.223,0.954h0.019c0.068-0.304,0.167-0.626,0.267-0.947l0.489-1.53   h0.458l0.464,1.499c0.112,0.359,0.198,0.675,0.267,0.979h0.019c0.049-0.304,0.13-0.619,0.229-0.973l0.428-1.505h0.539l-0.967,2.998   h-0.496l-0.458-1.431c-0.105-0.335-0.192-0.632-0.267-0.985h-0.012c-0.075,0.359-0.167,0.669-0.273,0.991l-0.483,1.425h-0.496   l-0.905-2.998H147.382z"/>
	<path d="M133.896,58.298c0-0.384-0.012-0.694-0.025-0.979h0.49l0.024,0.514h0.013c0.223-0.365,0.576-0.582,1.065-0.582   c0.725,0,1.27,0.613,1.27,1.523c0,1.078-0.657,1.611-1.363,1.611c-0.396,0-0.744-0.174-0.923-0.471h-0.012v1.629h-0.539V58.298z    M134.435,59.097c0,0.081,0.012,0.155,0.025,0.224c0.099,0.378,0.427,0.638,0.818,0.638c0.576,0,0.911-0.471,0.911-1.158   c0-0.602-0.316-1.115-0.892-1.115c-0.372,0-0.719,0.267-0.824,0.675c-0.019,0.068-0.037,0.149-0.037,0.224V59.097z"/>
	<path d="M137.417,58.255c0-0.354-0.006-0.657-0.025-0.936h0.477l0.019,0.588h0.025c0.136-0.402,0.465-0.656,0.83-0.656   c0.062,0,0.105,0.006,0.155,0.019v0.514c-0.056-0.012-0.111-0.019-0.186-0.019c-0.384,0-0.657,0.292-0.731,0.7   c-0.013,0.074-0.025,0.161-0.025,0.254v1.599h-0.539V58.255z"/>
	<path d="M142.154,58.793c0,1.109-0.768,1.593-1.493,1.593c-0.812,0-1.438-0.595-1.438-1.543c0-1.003,0.657-1.592,1.487-1.592   C141.572,57.251,142.154,57.877,142.154,58.793z M139.775,58.824c0,0.657,0.378,1.152,0.911,1.152c0.521,0,0.911-0.489,0.911-1.165   c0-0.508-0.254-1.151-0.898-1.151C140.054,57.66,139.775,58.255,139.775,58.824z"/>
	<path d="M142.814,60.317c0.013-0.204,0.025-0.508,0.025-0.774v-3.624h0.539v1.883h0.012c0.192-0.334,0.539-0.551,1.022-0.551   c0.743,0,1.27,0.619,1.264,1.53c0,1.071-0.675,1.604-1.344,1.604c-0.434,0-0.781-0.167-1.004-0.563h-0.019l-0.024,0.495H142.814z    M143.378,59.115c0,0.068,0.012,0.137,0.025,0.198c0.105,0.378,0.421,0.639,0.818,0.639c0.57,0,0.911-0.465,0.911-1.152   c0-0.602-0.31-1.115-0.892-1.115c-0.372,0-0.719,0.254-0.831,0.669c-0.012,0.062-0.031,0.137-0.031,0.223V59.115z"/>
	<path d="M146.36,55.919h0.545v4.398h-0.545V55.919z"/>
	<path d="M148.125,58.917c0.012,0.737,0.483,1.041,1.028,1.041c0.39,0,0.625-0.068,0.83-0.155l0.093,0.391   c-0.192,0.087-0.52,0.186-0.997,0.186c-0.923,0-1.475-0.606-1.475-1.511c0-0.905,0.533-1.617,1.406-1.617   c0.979,0,1.239,0.861,1.239,1.412c0,0.111-0.013,0.198-0.019,0.254H148.125z M149.723,58.527c0.006-0.348-0.143-0.887-0.756-0.887   c-0.551,0-0.793,0.509-0.836,0.887H149.723z"/>
	<path d="M150.921,58.131c0-0.311-0.006-0.564-0.025-0.812h0.477l0.025,0.482h0.019c0.167-0.284,0.446-0.551,0.942-0.551   c0.409,0,0.718,0.248,0.849,0.601h0.012c0.093-0.167,0.211-0.297,0.334-0.39c0.18-0.137,0.378-0.211,0.663-0.211   c0.396,0,0.985,0.26,0.985,1.301v1.766h-0.533V58.62c0-0.576-0.21-0.923-0.65-0.923c-0.31,0-0.551,0.229-0.645,0.495   c-0.024,0.074-0.043,0.174-0.043,0.272v1.853h-0.533v-1.797c0-0.477-0.211-0.823-0.626-0.823c-0.341,0-0.588,0.272-0.675,0.545   c-0.031,0.08-0.043,0.173-0.043,0.267v1.809h-0.533V58.131z"/>
	<path d="M156.009,59.76c0.161,0.105,0.446,0.217,0.719,0.217c0.396,0,0.582-0.198,0.582-0.446c0-0.26-0.155-0.402-0.558-0.551   c-0.539-0.192-0.793-0.489-0.793-0.849c0-0.483,0.391-0.88,1.035-0.88c0.304,0,0.57,0.087,0.737,0.186l-0.136,0.396   c-0.118-0.074-0.334-0.173-0.613-0.173c-0.322,0-0.502,0.186-0.502,0.408c0,0.248,0.18,0.359,0.57,0.508   c0.521,0.198,0.787,0.459,0.787,0.905c0,0.526-0.409,0.897-1.122,0.897c-0.328,0-0.632-0.08-0.842-0.204L156.009,59.76z"/>
</g>
<circle opacity="0.502" fill="#767676" cx="209.081" cy="36.281" r="36"/>
<circle fill="none" stroke="#EEEEEE" stroke-width="0.5623" stroke-miterlimit="8" cx="209.063" cy="36.263" r="35.982"/>
<g>
	<path d="M189.224,19.035c0-0.488-0.016-0.903-0.031-1.247h1.023l0.056,0.527h0.024c0.167-0.248,0.512-0.615,1.183-0.615   c0.504,0,0.904,0.256,1.071,0.664h0.017c0.144-0.2,0.319-0.36,0.504-0.472c0.216-0.128,0.455-0.191,0.743-0.191   c0.752,0,1.319,0.527,1.319,1.695v2.303h-1.184v-2.127c0-0.567-0.184-0.896-0.575-0.896c-0.28,0-0.479,0.192-0.56,0.424   c-0.032,0.088-0.049,0.216-0.049,0.312v2.287h-1.183v-2.191c0-0.496-0.176-0.832-0.56-0.832c-0.312,0-0.496,0.24-0.568,0.44   c-0.04,0.096-0.048,0.208-0.048,0.304v2.279h-1.184V19.035z"/>
	<path d="M198.327,21.698l-0.072-0.392h-0.024c-0.256,0.312-0.655,0.479-1.119,0.479c-0.791,0-1.264-0.576-1.264-1.199   c0-1.016,0.912-1.503,2.295-1.495v-0.056c0-0.208-0.111-0.504-0.711-0.504c-0.4,0-0.824,0.136-1.08,0.296l-0.224-0.783   c0.271-0.152,0.808-0.344,1.52-0.344c1.303,0,1.719,0.768,1.719,1.687v1.359c0,0.376,0.016,0.736,0.056,0.952H198.327z    M198.183,19.851c-0.64-0.008-1.135,0.144-1.135,0.616c0,0.312,0.207,0.464,0.479,0.464c0.304,0,0.552-0.2,0.632-0.448   c0.016-0.064,0.023-0.136,0.023-0.208V19.851z"/>
	<path d="M200.319,20.634c0.224,0.136,0.688,0.296,1.048,0.296c0.367,0,0.52-0.128,0.52-0.328c0-0.2-0.12-0.296-0.576-0.448   c-0.807-0.272-1.119-0.712-1.111-1.175c0-0.728,0.624-1.279,1.592-1.279c0.455,0,0.863,0.104,1.104,0.224l-0.216,0.839   c-0.177-0.096-0.512-0.224-0.848-0.224c-0.296,0-0.464,0.12-0.464,0.32c0,0.184,0.151,0.28,0.632,0.448   c0.743,0.256,1.055,0.631,1.063,1.208c0,0.728-0.576,1.263-1.695,1.263c-0.512,0-0.968-0.112-1.264-0.272L200.319,20.634z"/>
	<path d="M205.158,16.668v1.12h0.872v0.896h-0.872v1.415c0,0.472,0.112,0.688,0.48,0.688c0.151,0,0.271-0.016,0.359-0.032   l0.008,0.919c-0.16,0.064-0.447,0.104-0.791,0.104c-0.393,0-0.72-0.136-0.912-0.336c-0.224-0.232-0.336-0.608-0.336-1.159v-1.599   h-0.52v-0.896h0.52V16.94L205.158,16.668z"/>
	<path d="M207.67,20.131c0.04,0.503,0.536,0.743,1.104,0.743c0.416,0,0.752-0.056,1.08-0.16l0.159,0.824   c-0.399,0.16-0.888,0.24-1.415,0.24c-1.327,0-2.087-0.768-2.087-1.991c0-0.991,0.616-2.086,1.976-2.086   c1.263,0,1.742,0.983,1.742,1.951c0,0.208-0.023,0.392-0.04,0.48H207.67z M209.102,19.299c0-0.295-0.128-0.792-0.688-0.792   c-0.512,0-0.72,0.464-0.752,0.792H209.102z"/>
	<path d="M210.958,19.075c0-0.576-0.016-0.952-0.031-1.287h1.047l0.04,0.719h0.032c0.2-0.567,0.68-0.807,1.056-0.807   c0.111,0,0.168,0,0.256,0.016v1.144c-0.088-0.016-0.192-0.032-0.328-0.032c-0.447,0-0.752,0.24-0.832,0.616   c-0.016,0.08-0.023,0.176-0.023,0.272v1.983h-1.216V19.075z"/>
	<path d="M214.91,17.788l0.584,1.919c0.063,0.231,0.144,0.52,0.191,0.728h0.024c0.056-0.208,0.119-0.504,0.176-0.728l0.479-1.919   h1.303l-0.911,2.574c-0.56,1.551-0.936,2.175-1.375,2.567c-0.424,0.368-0.872,0.496-1.176,0.536l-0.256-1.031   c0.152-0.024,0.344-0.096,0.528-0.208c0.184-0.096,0.384-0.288,0.504-0.488c0.039-0.056,0.063-0.12,0.063-0.176   c0-0.04-0.008-0.104-0.056-0.2l-1.432-3.574H214.91z"/>
</g>
<g>
	<path d="M193.086,26.993c0,1.431-1.016,2.087-2.062,2.087c-1.144,0-2.023-0.751-2.023-2.015c0-1.264,0.832-2.071,2.087-2.071   C192.286,24.994,193.086,25.817,193.086,26.993z M190.256,27.033c0,0.672,0.279,1.175,0.799,1.175c0.472,0,0.776-0.472,0.776-1.175   c0-0.583-0.225-1.175-0.776-1.175C190.472,25.857,190.256,26.457,190.256,27.033z"/>
	<path d="M193.84,26.369c0-0.576-0.016-0.952-0.031-1.287h1.047l0.04,0.719h0.032c0.2-0.567,0.68-0.807,1.056-0.807   c0.111,0,0.168,0,0.256,0.016v1.144c-0.088-0.016-0.192-0.032-0.328-0.032c-0.448,0-0.752,0.24-0.831,0.616   c-0.017,0.08-0.024,0.176-0.024,0.272v1.983h-1.216V26.369z"/>
	<path d="M198.136,23.995c0,0.335-0.256,0.607-0.655,0.607c-0.385,0-0.641-0.272-0.632-0.607c-0.009-0.352,0.247-0.616,0.64-0.616   C197.88,23.379,198.128,23.643,198.136,23.995z M196.88,28.992v-3.91h1.216v3.91H196.88z"/>
	<path d="M200.007,27.425c0.04,0.503,0.536,0.743,1.104,0.743c0.416,0,0.752-0.056,1.08-0.16l0.159,0.824   c-0.399,0.16-0.887,0.24-1.415,0.24c-1.327,0-2.087-0.768-2.087-1.991c0-0.991,0.616-2.086,1.975-2.086   c1.264,0,1.743,0.983,1.743,1.951c0,0.208-0.023,0.392-0.04,0.48H200.007z M201.438,26.593c0-0.295-0.128-0.792-0.688-0.792   c-0.512,0-0.72,0.464-0.752,0.792H201.438z"/>
	<path d="M203.295,26.329c0-0.488-0.016-0.903-0.031-1.247h1.055l0.057,0.536h0.023c0.16-0.248,0.56-0.624,1.208-0.624   c0.799,0,1.398,0.527,1.398,1.679v2.319h-1.215v-2.167c0-0.503-0.176-0.847-0.616-0.847c-0.335,0-0.535,0.231-0.615,0.456   c-0.032,0.072-0.048,0.192-0.048,0.304v2.255h-1.216V26.329z"/>
	<path d="M209.343,23.962v1.12h0.872v0.896h-0.872v1.415c0,0.472,0.112,0.688,0.48,0.688c0.151,0,0.271-0.016,0.359-0.032   l0.008,0.919c-0.16,0.064-0.447,0.104-0.791,0.104c-0.393,0-0.72-0.136-0.912-0.336c-0.224-0.232-0.336-0.608-0.336-1.159v-1.599   h-0.52v-0.896h0.52v-0.848L209.343,23.962z"/>
	<path d="M213.143,28.992L213.07,28.6h-0.024c-0.256,0.312-0.655,0.479-1.119,0.479c-0.792,0-1.264-0.576-1.264-1.199   c0-1.016,0.912-1.503,2.295-1.495v-0.056c0-0.208-0.111-0.504-0.711-0.504c-0.4,0-0.824,0.136-1.08,0.296l-0.224-0.783   c0.271-0.152,0.808-0.344,1.52-0.344c1.303,0,1.719,0.768,1.719,1.687v1.359c0,0.376,0.016,0.736,0.056,0.952H213.143z    M212.998,27.145c-0.64-0.008-1.135,0.144-1.135,0.616c0,0.312,0.207,0.464,0.479,0.464c0.304,0,0.552-0.2,0.632-0.448   c0.016-0.064,0.023-0.136,0.023-0.208V27.145z"/>
	<path d="M216.502,23.962v1.12h0.872v0.896h-0.872v1.415c0,0.472,0.112,0.688,0.48,0.688c0.151,0,0.271-0.016,0.359-0.032   l0.008,0.919c-0.16,0.064-0.447,0.104-0.791,0.104c-0.393,0-0.72-0.136-0.912-0.336c-0.224-0.232-0.336-0.608-0.336-1.159v-1.599   h-0.52v-0.896h0.52v-0.848L216.502,23.962z"/>
	<path d="M219.334,23.995c0,0.335-0.256,0.607-0.656,0.607c-0.383,0-0.639-0.272-0.631-0.607c-0.008-0.352,0.248-0.616,0.64-0.616   S219.326,23.643,219.334,23.995z M218.078,28.992v-3.91h1.216v3.91H218.078z"/>
	<path d="M224.133,26.993c0,1.431-1.016,2.087-2.062,2.087c-1.144,0-2.023-0.751-2.023-2.015c0-1.264,0.832-2.071,2.087-2.071   C223.333,24.994,224.133,25.817,224.133,26.993z M221.303,27.033c0,0.672,0.279,1.175,0.799,1.175c0.472,0,0.776-0.472,0.776-1.175   c0-0.583-0.225-1.175-0.776-1.175C221.519,25.857,221.303,26.457,221.303,27.033z"/>
	<path d="M224.887,26.329c0-0.488-0.016-0.903-0.031-1.247h1.055l0.057,0.536h0.023c0.16-0.248,0.56-0.624,1.208-0.624   c0.799,0,1.398,0.527,1.398,1.679v2.319h-1.215v-2.167c0-0.503-0.176-0.847-0.616-0.847c-0.335,0-0.535,0.231-0.615,0.456   c-0.032,0.072-0.048,0.192-0.048,0.304v2.255h-1.216V26.329z"/>
</g>
<g>
	<path d="M191.721,35.85c0-0.31-0.006-0.563-0.024-0.812h0.477l0.025,0.483h0.019c0.167-0.285,0.445-0.551,0.941-0.551   c0.409,0,0.719,0.248,0.849,0.601h0.013c0.093-0.167,0.21-0.297,0.334-0.39c0.18-0.136,0.378-0.21,0.663-0.21   c0.396,0,0.985,0.26,0.985,1.301v1.766h-0.533V36.34c0-0.576-0.211-0.923-0.65-0.923c-0.31,0-0.552,0.229-0.645,0.496   c-0.024,0.074-0.043,0.173-0.043,0.272v1.853h-0.533v-1.796c0-0.477-0.21-0.824-0.625-0.824c-0.341,0-0.589,0.272-0.676,0.545   c-0.031,0.081-0.043,0.173-0.043,0.266v1.809h-0.533V35.85z"/>
	<path d="M199.596,36.513c0,1.109-0.769,1.593-1.493,1.593c-0.812,0-1.438-0.595-1.438-1.543c0-1.003,0.657-1.592,1.487-1.592   C199.013,34.971,199.596,35.596,199.596,36.513z M197.217,36.544c0,0.657,0.378,1.152,0.91,1.152c0.521,0,0.911-0.489,0.911-1.165   c0-0.507-0.254-1.152-0.898-1.152S197.217,35.974,197.217,36.544z"/>
	<path d="M200.937,34.178v0.861h0.78v0.415h-0.78v1.617c0,0.372,0.104,0.583,0.408,0.583c0.143,0,0.248-0.019,0.316-0.037   l0.024,0.408c-0.105,0.044-0.272,0.074-0.483,0.074c-0.254,0-0.458-0.08-0.588-0.229c-0.155-0.161-0.211-0.428-0.211-0.781v-1.635   h-0.465v-0.415h0.465V34.32L200.937,34.178z"/>
	<path d="M202.936,34.196c0.006,0.186-0.13,0.334-0.347,0.334c-0.192,0-0.329-0.149-0.329-0.334c0-0.192,0.143-0.341,0.341-0.341   C202.806,33.855,202.936,34.004,202.936,34.196z M202.328,38.037v-2.999h0.545v2.999H202.328z"/>
	<path d="M203.987,35.039l0.588,1.685c0.1,0.272,0.18,0.521,0.242,0.769h0.019c0.068-0.248,0.154-0.496,0.254-0.769l0.582-1.685   h0.57l-1.177,2.999h-0.521l-1.141-2.999H203.987z"/>
	<path d="M208.413,38.037l-0.043-0.378h-0.019c-0.168,0.235-0.489,0.446-0.917,0.446c-0.607,0-0.917-0.428-0.917-0.861   c0-0.725,0.645-1.121,1.803-1.115v-0.062c0-0.248-0.068-0.694-0.682-0.694c-0.278,0-0.569,0.087-0.78,0.223l-0.124-0.359   c0.248-0.161,0.607-0.266,0.985-0.266c0.917,0,1.14,0.625,1.14,1.227v1.121c0,0.261,0.013,0.515,0.05,0.719H208.413z    M208.333,36.507c-0.595-0.013-1.271,0.093-1.271,0.676c0,0.353,0.235,0.52,0.515,0.52c0.39,0,0.638-0.247,0.725-0.501   c0.019-0.057,0.031-0.118,0.031-0.174V36.507z"/>
	<path d="M210.394,34.178v0.861h0.78v0.415h-0.78v1.617c0,0.372,0.104,0.583,0.408,0.583c0.143,0,0.248-0.019,0.316-0.037   l0.024,0.408c-0.105,0.044-0.272,0.074-0.483,0.074c-0.254,0-0.458-0.08-0.588-0.229c-0.155-0.161-0.211-0.428-0.211-0.781v-1.635   h-0.465v-0.415h0.465V34.32L210.394,34.178z"/>
	<path d="M212.393,34.196c0.006,0.186-0.13,0.334-0.347,0.334c-0.192,0-0.329-0.149-0.329-0.334c0-0.192,0.143-0.341,0.341-0.341   C212.263,33.855,212.393,34.004,212.393,34.196z M211.785,38.037v-2.999h0.545v2.999H211.785z"/>
	<path d="M215.947,36.513c0,1.109-0.769,1.593-1.493,1.593c-0.812,0-1.438-0.595-1.438-1.543c0-1.003,0.657-1.592,1.487-1.592   C215.364,34.971,215.947,35.596,215.947,36.513z M213.568,36.544c0,0.657,0.378,1.152,0.91,1.152c0.521,0,0.911-0.489,0.911-1.165   c0-0.507-0.254-1.152-0.898-1.152S213.568,35.974,213.568,36.544z"/>
	<path d="M216.631,35.85c0-0.31-0.006-0.563-0.024-0.812h0.483l0.03,0.496h0.013c0.148-0.285,0.495-0.563,0.991-0.563   c0.415,0,1.06,0.248,1.06,1.276v1.791h-0.546v-1.729c0-0.483-0.179-0.886-0.693-0.886c-0.359,0-0.638,0.254-0.731,0.558   c-0.024,0.068-0.037,0.161-0.037,0.254v1.803h-0.545V35.85z"/>
	<path d="M222.034,34.178v0.861h0.78v0.415h-0.78v1.617c0,0.372,0.104,0.583,0.408,0.583c0.143,0,0.248-0.019,0.316-0.037   l0.024,0.408c-0.105,0.044-0.272,0.074-0.483,0.074c-0.254,0-0.458-0.08-0.588-0.229c-0.155-0.161-0.211-0.428-0.211-0.781v-1.635   h-0.465v-0.415h0.465V34.32L222.034,34.178z"/>
	<path d="M226.14,36.513c0,1.109-0.769,1.593-1.493,1.593c-0.812,0-1.438-0.595-1.438-1.543c0-1.003,0.656-1.592,1.487-1.592   C225.557,34.971,226.14,35.596,226.14,36.513z M223.761,36.544c0,0.657,0.378,1.152,0.91,1.152c0.521,0,0.911-0.489,0.911-1.165   c0-0.507-0.254-1.152-0.898-1.152S223.761,35.974,223.761,36.544z"/>
	<path d="M191.721,41.065h0.545v4.398h-0.545V41.065z"/>
	<path d="M193.485,44.063c0.013,0.737,0.483,1.041,1.028,1.041c0.391,0,0.626-0.068,0.83-0.155l0.093,0.391   c-0.191,0.087-0.521,0.186-0.997,0.186c-0.923,0-1.475-0.606-1.475-1.511c0-0.905,0.533-1.617,1.406-1.617   c0.979,0,1.239,0.861,1.239,1.412c0,0.111-0.013,0.198-0.019,0.254H193.485z M195.084,43.674c0.006-0.348-0.143-0.887-0.756-0.887   c-0.552,0-0.793,0.509-0.837,0.887H195.084z"/>
	<path d="M197.942,45.464l-0.043-0.378h-0.019c-0.168,0.235-0.489,0.446-0.917,0.446c-0.607,0-0.917-0.428-0.917-0.861   c0-0.725,0.645-1.121,1.803-1.115v-0.062c0-0.248-0.068-0.694-0.682-0.694c-0.278,0-0.569,0.087-0.78,0.224l-0.124-0.359   c0.248-0.161,0.607-0.267,0.985-0.267c0.917,0,1.14,0.626,1.14,1.227v1.121c0,0.261,0.013,0.515,0.05,0.719H197.942z    M197.862,43.934c-0.595-0.013-1.271,0.093-1.271,0.676c0,0.353,0.235,0.52,0.515,0.52c0.39,0,0.638-0.247,0.725-0.501   c0.019-0.056,0.031-0.118,0.031-0.174V43.934z"/>
	<path d="M199.266,43.401c0-0.354-0.006-0.657-0.024-0.936h0.477l0.019,0.588h0.025c0.136-0.402,0.464-0.656,0.83-0.656   c0.062,0,0.105,0.006,0.154,0.019v0.514c-0.056-0.012-0.111-0.019-0.186-0.019c-0.384,0-0.656,0.292-0.731,0.7   c-0.012,0.074-0.024,0.161-0.024,0.254v1.599h-0.539V43.401z"/>
	<path d="M201.289,43.277c0-0.311-0.006-0.564-0.024-0.812h0.483l0.03,0.495h0.013c0.148-0.285,0.495-0.563,0.991-0.563   c0.415,0,1.06,0.248,1.06,1.276v1.79h-0.546v-1.729c0-0.483-0.179-0.886-0.693-0.886c-0.359,0-0.638,0.254-0.731,0.558   c-0.024,0.068-0.037,0.161-0.037,0.254v1.803h-0.545V43.277z"/>
	<path d="M206.091,45.464v-2.583h-0.421v-0.415h0.421v-0.143c0-0.422,0.093-0.806,0.347-1.047c0.205-0.198,0.478-0.279,0.731-0.279   c0.192,0,0.359,0.044,0.465,0.087l-0.074,0.421c-0.081-0.037-0.192-0.067-0.348-0.067c-0.464,0-0.582,0.408-0.582,0.867v0.161   h0.725v0.415h-0.725v2.583H206.091z"/>
	<path d="M210.557,43.939c0,1.109-0.769,1.593-1.493,1.593c-0.812,0-1.438-0.595-1.438-1.543c0-1.003,0.657-1.592,1.487-1.592   C209.974,42.397,210.557,43.023,210.557,43.939z M208.178,43.971c0,0.657,0.378,1.152,0.91,1.152c0.521,0,0.911-0.489,0.911-1.165   c0-0.508-0.254-1.151-0.898-1.151S208.178,43.401,208.178,43.971z"/>
	<path d="M211.24,43.401c0-0.354-0.006-0.657-0.024-0.936h0.477l0.019,0.588h0.025c0.136-0.402,0.464-0.656,0.83-0.656   c0.062,0,0.105,0.006,0.154,0.019v0.514c-0.056-0.012-0.111-0.019-0.186-0.019c-0.384,0-0.656,0.292-0.731,0.7   c-0.012,0.074-0.024,0.161-0.024,0.254v1.599h-0.539V43.401z"/>
	<path d="M215.232,41.604v0.861h0.78v0.415h-0.78v1.616c0,0.372,0.104,0.583,0.408,0.583c0.143,0,0.248-0.019,0.316-0.037   l0.024,0.408c-0.105,0.044-0.272,0.074-0.483,0.074c-0.254,0-0.458-0.08-0.588-0.229c-0.155-0.161-0.211-0.428-0.211-0.781v-1.635   h-0.465v-0.415h0.465v-0.719L215.232,41.604z"/>
	<path d="M216.624,41.065h0.545v1.871h0.013c0.087-0.155,0.223-0.291,0.391-0.385c0.161-0.093,0.353-0.154,0.558-0.154   c0.402,0,1.047,0.248,1.047,1.282v1.784h-0.546v-1.723c0-0.482-0.18-0.892-0.693-0.892c-0.354,0-0.632,0.248-0.731,0.545   c-0.03,0.074-0.037,0.155-0.037,0.261v1.809h-0.545V41.065z"/>
	<path d="M220.362,44.063c0.013,0.737,0.483,1.041,1.028,1.041c0.391,0,0.626-0.068,0.83-0.155l0.093,0.391   c-0.191,0.087-0.521,0.186-0.997,0.186c-0.923,0-1.475-0.606-1.475-1.511c0-0.905,0.533-1.617,1.406-1.617   c0.979,0,1.239,0.861,1.239,1.412c0,0.111-0.013,0.198-0.019,0.254H220.362z M221.961,43.674c0.006-0.348-0.143-0.887-0.756-0.887   c-0.552,0-0.793,0.509-0.837,0.887H221.961z"/>
	<path d="M191.646,52.333c0.161,0.105,0.446,0.217,0.719,0.217c0.396,0,0.582-0.198,0.582-0.446c0-0.26-0.154-0.402-0.558-0.551   c-0.539-0.192-0.793-0.489-0.793-0.849c0-0.483,0.391-0.88,1.035-0.88c0.303,0,0.569,0.087,0.737,0.186l-0.137,0.396   c-0.118-0.074-0.335-0.173-0.613-0.173c-0.322,0-0.502,0.186-0.502,0.408c0,0.248,0.18,0.359,0.57,0.508   c0.521,0.198,0.786,0.459,0.786,0.905c0,0.526-0.408,0.897-1.121,0.897c-0.328,0-0.632-0.08-0.843-0.204L191.646,52.333z"/>
	<path d="M195.832,52.891l-0.043-0.378h-0.019c-0.167,0.235-0.489,0.446-0.917,0.446c-0.607,0-0.917-0.428-0.917-0.861   c0-0.725,0.645-1.121,1.803-1.115v-0.062c0-0.248-0.068-0.694-0.682-0.694c-0.278,0-0.569,0.087-0.78,0.224l-0.124-0.359   c0.248-0.161,0.607-0.267,0.985-0.267c0.917,0,1.14,0.626,1.14,1.227v1.121c0,0.261,0.013,0.515,0.05,0.719H195.832z    M195.752,51.36c-0.595-0.013-1.271,0.093-1.271,0.676c0,0.353,0.235,0.52,0.515,0.52c0.39,0,0.638-0.247,0.725-0.501   c0.019-0.057,0.031-0.118,0.031-0.174V51.36z"/>
	<path d="M197.694,51.268h0.013c0.074-0.105,0.18-0.235,0.266-0.341l0.88-1.034h0.657l-1.159,1.232l1.32,1.766h-0.663l-1.035-1.438   l-0.278,0.31v1.128h-0.539v-4.398h0.539V51.268z"/>
	<path d="M200.361,51.49c0.013,0.737,0.483,1.041,1.028,1.041c0.391,0,0.626-0.068,0.83-0.155l0.093,0.391   c-0.191,0.087-0.521,0.186-0.997,0.186c-0.923,0-1.475-0.606-1.475-1.511c0-0.905,0.533-1.617,1.406-1.617   c0.979,0,1.239,0.861,1.239,1.412c0,0.111-0.013,0.198-0.019,0.254H200.361z M201.96,51.101c0.006-0.348-0.143-0.886-0.756-0.886   c-0.552,0-0.793,0.508-0.837,0.886H201.96z"/>
	<path d="M207.184,51.366c0,1.109-0.769,1.593-1.493,1.593c-0.812,0-1.438-0.595-1.438-1.543c0-1.004,0.657-1.592,1.487-1.592   C206.601,49.824,207.184,50.45,207.184,51.366z M204.805,51.397c0,0.657,0.378,1.152,0.91,1.152c0.521,0,0.911-0.489,0.911-1.165   c0-0.508-0.254-1.151-0.898-1.151S204.805,50.828,204.805,51.397z"/>
	<path d="M207.923,52.891v-2.583h-0.421v-0.415h0.421V49.75c0-0.422,0.093-0.806,0.347-1.047c0.205-0.198,0.478-0.279,0.731-0.279   c0.192,0,0.359,0.044,0.465,0.087l-0.074,0.421c-0.081-0.037-0.192-0.067-0.348-0.067c-0.464,0-0.582,0.408-0.582,0.867v0.161   h0.725v0.415h-0.725v2.583H207.923z"/>
	<path d="M191.721,55.919h0.545v4.398h-0.545V55.919z"/>
	<path d="M193.485,58.917c0.013,0.737,0.483,1.041,1.028,1.041c0.391,0,0.626-0.068,0.83-0.155l0.093,0.391   c-0.191,0.087-0.521,0.186-0.997,0.186c-0.923,0-1.475-0.606-1.475-1.511c0-0.905,0.533-1.617,1.406-1.617   c0.979,0,1.239,0.861,1.239,1.412c0,0.111-0.013,0.198-0.019,0.254H193.485z M195.084,58.527c0.006-0.348-0.143-0.887-0.756-0.887   c-0.552,0-0.793,0.509-0.837,0.887H195.084z"/>
	<path d="M197.942,60.317l-0.043-0.378h-0.019c-0.168,0.235-0.489,0.446-0.917,0.446c-0.607,0-0.917-0.428-0.917-0.861   c0-0.725,0.645-1.121,1.803-1.115v-0.062c0-0.248-0.068-0.694-0.682-0.694c-0.278,0-0.569,0.087-0.78,0.224l-0.124-0.359   c0.248-0.161,0.607-0.267,0.985-0.267c0.917,0,1.14,0.626,1.14,1.227v1.121c0,0.261,0.013,0.515,0.05,0.719H197.942z    M197.862,58.787c-0.595-0.013-1.271,0.093-1.271,0.676c0,0.353,0.235,0.52,0.515,0.52c0.39,0,0.638-0.247,0.725-0.501   c0.019-0.056,0.031-0.118,0.031-0.174V58.787z"/>
	<path d="M199.266,58.255c0-0.354-0.006-0.657-0.024-0.936h0.477l0.019,0.588h0.025c0.136-0.402,0.464-0.656,0.83-0.656   c0.062,0,0.105,0.006,0.154,0.019v0.514c-0.056-0.012-0.111-0.019-0.186-0.019c-0.384,0-0.656,0.292-0.731,0.7   c-0.012,0.074-0.024,0.161-0.024,0.254v1.599h-0.539V58.255z"/>
	<path d="M201.289,58.131c0-0.311-0.006-0.564-0.024-0.812h0.483l0.03,0.495h0.013c0.148-0.285,0.495-0.563,0.991-0.563   c0.415,0,1.06,0.248,1.06,1.276v1.79h-0.546v-1.729c0-0.483-0.179-0.886-0.693-0.886c-0.359,0-0.638,0.254-0.731,0.558   c-0.024,0.068-0.037,0.161-0.037,0.254v1.803h-0.545V58.131z"/>
	<path d="M205.331,56.477c0.006,0.186-0.13,0.334-0.347,0.334c-0.192,0-0.329-0.148-0.329-0.334c0-0.192,0.143-0.341,0.341-0.341   C205.201,56.136,205.331,56.284,205.331,56.477z M204.724,60.317v-2.998h0.545v2.998H204.724z"/>
	<path d="M206.172,58.131c0-0.311-0.006-0.564-0.024-0.812h0.483l0.03,0.495h0.013c0.148-0.285,0.495-0.563,0.991-0.563   c0.415,0,1.06,0.248,1.06,1.276v1.79h-0.546v-1.729c0-0.483-0.179-0.886-0.693-0.886c-0.359,0-0.638,0.254-0.731,0.558   c-0.024,0.068-0.037,0.161-0.037,0.254v1.803h-0.545V58.131z"/>
	<path d="M212.189,57.319c-0.012,0.217-0.024,0.458-0.024,0.823v1.741c0,0.688-0.136,1.108-0.428,1.369   c-0.291,0.272-0.712,0.359-1.09,0.359c-0.359,0-0.756-0.087-0.997-0.248l0.136-0.415c0.198,0.124,0.508,0.235,0.88,0.235   c0.558,0,0.967-0.291,0.967-1.047v-0.335h-0.013c-0.167,0.279-0.489,0.502-0.954,0.502c-0.743,0-1.276-0.632-1.276-1.462   c0-1.016,0.663-1.592,1.351-1.592c0.521,0,0.806,0.272,0.936,0.521h0.013l0.024-0.452H212.189z M211.626,58.502   c0-0.093-0.006-0.173-0.031-0.247c-0.099-0.316-0.365-0.576-0.762-0.576c-0.521,0-0.892,0.439-0.892,1.133   c0,0.589,0.297,1.078,0.886,1.078c0.334,0,0.638-0.21,0.756-0.558c0.03-0.093,0.043-0.198,0.043-0.291V58.502z"/>
</g>
<circle opacity="0.502" fill="#767676" cx="266.682" cy="36.281" r="36"/>
<circle fill="none" stroke="#EEEEEE" stroke-width="0.5623" stroke-miterlimit="8" cx="266.663" cy="36.263" r="35.981"/>
<g>
	<path d="M244.873,20.634c0.225,0.136,0.688,0.296,1.048,0.296c0.367,0,0.52-0.128,0.52-0.328c0-0.2-0.12-0.296-0.575-0.448   c-0.808-0.272-1.12-0.712-1.112-1.175c0-0.728,0.624-1.279,1.592-1.279c0.455,0,0.863,0.104,1.104,0.224l-0.216,0.839   c-0.177-0.096-0.512-0.224-0.848-0.224c-0.296,0-0.464,0.12-0.464,0.32c0,0.184,0.151,0.28,0.632,0.448   c0.743,0.256,1.055,0.631,1.063,1.208c0,0.728-0.576,1.263-1.695,1.263c-0.512,0-0.968-0.112-1.264-0.272L244.873,20.634z"/>
	<path d="M249.288,20.131c0.04,0.503,0.536,0.743,1.104,0.743c0.416,0,0.752-0.056,1.08-0.16l0.159,0.824   c-0.399,0.16-0.887,0.24-1.415,0.24c-1.327,0-2.087-0.768-2.087-1.991c0-0.991,0.616-2.086,1.975-2.086   c1.264,0,1.743,0.983,1.743,1.951c0,0.208-0.023,0.392-0.04,0.48H249.288z M250.72,19.299c0-0.295-0.128-0.792-0.688-0.792   c-0.512,0-0.72,0.464-0.752,0.792H250.72z"/>
	<path d="M252.576,16.021h1.216v5.677h-1.216V16.021z"/>
	<path d="M254.913,21.698v-3.014h-0.512v-0.896h0.512v-0.152c0-0.472,0.144-0.991,0.495-1.311c0.304-0.288,0.728-0.392,1.08-0.392   c0.271,0,0.479,0.032,0.647,0.08l-0.048,0.936c-0.104-0.032-0.232-0.056-0.393-0.056c-0.399,0-0.567,0.312-0.567,0.695v0.2h0.784   v0.896h-0.776v3.014H254.913z"/>
</g>
<g>
	<path d="M260.3,19.195v0.808h-2.095v-0.808H260.3z"/>
</g>
<g>
	<path d="M247.815,28.896c-0.216,0.096-0.623,0.176-1.087,0.176c-1.264,0-2.071-0.768-2.071-1.999c0-1.144,0.784-2.079,2.239-2.079   c0.319,0,0.671,0.056,0.927,0.152l-0.191,0.903c-0.144-0.064-0.36-0.12-0.68-0.12c-0.64,0-1.056,0.456-1.048,1.096   c0,0.719,0.48,1.095,1.072,1.095c0.287,0,0.512-0.048,0.695-0.12L247.815,28.896z"/>
	<path d="M252.352,26.993c0,1.431-1.016,2.087-2.062,2.087c-1.144,0-2.023-0.751-2.023-2.015c0-1.264,0.832-2.071,2.087-2.071   C251.552,24.994,252.352,25.817,252.352,26.993z M249.521,27.033c0,0.672,0.279,1.175,0.799,1.175c0.472,0,0.776-0.472,0.776-1.175   c0-0.583-0.225-1.175-0.776-1.175C249.737,25.857,249.521,26.457,249.521,27.033z"/>
	<path d="M253.105,26.329c0-0.488-0.016-0.903-0.031-1.247h1.055l0.057,0.536h0.023c0.16-0.248,0.56-0.624,1.208-0.624   c0.799,0,1.398,0.527,1.398,1.679v2.319h-1.215v-2.167c0-0.503-0.176-0.847-0.616-0.847c-0.335,0-0.535,0.231-0.615,0.456   c-0.032,0.072-0.048,0.192-0.048,0.304v2.255h-1.216V26.329z"/>
	<path d="M260.729,28.896c-0.216,0.096-0.623,0.176-1.087,0.176c-1.264,0-2.071-0.768-2.071-1.999c0-1.144,0.784-2.079,2.239-2.079   c0.319,0,0.671,0.056,0.927,0.152l-0.191,0.903c-0.144-0.064-0.359-0.12-0.68-0.12c-0.64,0-1.056,0.456-1.048,1.096   c0,0.719,0.48,1.095,1.072,1.095c0.287,0,0.512-0.048,0.695-0.12L260.729,28.896z"/>
	<path d="M262.337,27.425c0.04,0.503,0.536,0.743,1.104,0.743c0.416,0,0.752-0.056,1.08-0.16l0.159,0.824   c-0.399,0.16-0.887,0.24-1.415,0.24c-1.327,0-2.087-0.768-2.087-1.991c0-0.991,0.616-2.086,1.975-2.086   c1.264,0,1.743,0.983,1.743,1.951c0,0.208-0.023,0.392-0.04,0.48H262.337z M263.769,26.593c0-0.295-0.128-0.792-0.688-0.792   c-0.512,0-0.72,0.464-0.752,0.792H263.769z"/>
	<path d="M265.625,26.393c0-0.512-0.016-0.952-0.031-1.311h1.055l0.057,0.543h0.016c0.288-0.416,0.735-0.631,1.304-0.631   c0.855,0,1.623,0.743,1.623,1.991c0,1.423-0.903,2.095-1.775,2.095c-0.472,0-0.84-0.192-1.016-0.448h-0.016v1.943h-1.216V26.393z    M266.841,27.312c0,0.096,0.008,0.184,0.024,0.256c0.079,0.328,0.359,0.576,0.711,0.576c0.528,0,0.84-0.439,0.84-1.103   c0-0.624-0.28-1.096-0.823-1.096c-0.345,0-0.648,0.256-0.728,0.616c-0.017,0.064-0.024,0.144-0.024,0.216V27.312z"/>
	<path d="M271.769,23.962v1.12h0.872v0.896h-0.872v1.415c0,0.472,0.112,0.688,0.48,0.688c0.151,0,0.271-0.016,0.359-0.032   l0.008,0.919c-0.16,0.064-0.447,0.104-0.791,0.104c-0.393,0-0.72-0.136-0.912-0.336c-0.224-0.232-0.336-0.608-0.336-1.159v-1.599   h-0.52v-0.896h0.52v-0.848L271.769,23.962z"/>
</g>
<g>
	<path d="M247.354,38.037c0.012-0.204,0.024-0.508,0.024-0.774v-3.624h0.539v1.883h0.013c0.191-0.334,0.539-0.551,1.021-0.551   c0.744,0,1.271,0.619,1.265,1.53c0,1.071-0.676,1.604-1.345,1.604c-0.434,0-0.78-0.168-1.004-0.564h-0.019l-0.024,0.496H247.354z    M247.917,36.835c0,0.068,0.013,0.137,0.024,0.198c0.105,0.378,0.422,0.639,0.818,0.639c0.569,0,0.91-0.465,0.91-1.152   c0-0.601-0.31-1.115-0.892-1.115c-0.372,0-0.719,0.254-0.83,0.669c-0.013,0.062-0.031,0.136-0.031,0.223V36.835z"/>
	<path d="M251.203,36.637c0.013,0.737,0.483,1.041,1.028,1.041c0.391,0,0.626-0.068,0.83-0.155l0.093,0.391   c-0.191,0.087-0.521,0.186-0.997,0.186c-0.923,0-1.475-0.606-1.475-1.511c0-0.905,0.533-1.617,1.406-1.617   c0.979,0,1.239,0.861,1.239,1.412c0,0.111-0.013,0.198-0.019,0.254H251.203z M252.802,36.247c0.006-0.347-0.143-0.886-0.756-0.886   c-0.552,0-0.793,0.508-0.837,0.886H252.802z"/>
	<path d="M254,33.639h0.545v4.398H254V33.639z"/>
	<path d="M256.068,34.196c0.006,0.186-0.13,0.334-0.347,0.334c-0.192,0-0.329-0.149-0.329-0.334c0-0.192,0.143-0.341,0.341-0.341   C255.938,33.855,256.068,34.004,256.068,34.196z M255.461,38.037v-2.999h0.545v2.999H255.461z"/>
	<path d="M257.213,36.637c0.013,0.737,0.483,1.041,1.028,1.041c0.391,0,0.626-0.068,0.83-0.155l0.093,0.391   c-0.191,0.087-0.521,0.186-0.997,0.186c-0.923,0-1.475-0.606-1.475-1.511c0-0.905,0.533-1.617,1.406-1.617   c0.979,0,1.239,0.861,1.239,1.412c0,0.111-0.013,0.198-0.019,0.254H257.213z M258.812,36.247c0.006-0.347-0.143-0.886-0.756-0.886   c-0.552,0-0.793,0.508-0.837,0.886H258.812z"/>
	<path d="M260.065,38.037v-2.583h-0.421v-0.415h0.421v-0.143c0-0.421,0.093-0.805,0.347-1.047c0.205-0.198,0.478-0.279,0.731-0.279   c0.192,0,0.359,0.043,0.465,0.087l-0.074,0.421c-0.081-0.037-0.192-0.068-0.348-0.068c-0.464,0-0.582,0.409-0.582,0.867v0.161   h0.725v0.415h-0.725v2.583H260.065z"/>
	<path d="M263.786,34.178v0.861h0.78v0.415h-0.78v1.617c0,0.372,0.104,0.583,0.408,0.583c0.143,0,0.248-0.019,0.316-0.037   l0.024,0.408c-0.105,0.044-0.272,0.074-0.483,0.074c-0.254,0-0.458-0.08-0.588-0.229c-0.155-0.161-0.211-0.428-0.211-0.781v-1.635   h-0.465v-0.415h0.465V34.32L263.786,34.178z"/>
	<path d="M265.178,33.639h0.545v1.871h0.013c0.087-0.155,0.223-0.292,0.391-0.384c0.161-0.093,0.353-0.155,0.558-0.155   c0.402,0,1.047,0.248,1.047,1.282v1.784h-0.546v-1.723c0-0.483-0.179-0.892-0.693-0.892c-0.354,0-0.632,0.248-0.731,0.545   c-0.03,0.075-0.037,0.155-0.037,0.26v1.809h-0.545V33.639z"/>
	<path d="M270.272,38.037l-0.043-0.378h-0.019c-0.168,0.235-0.489,0.446-0.917,0.446c-0.607,0-0.917-0.428-0.917-0.861   c0-0.725,0.645-1.121,1.803-1.115v-0.062c0-0.248-0.068-0.694-0.682-0.694c-0.278,0-0.569,0.087-0.78,0.223l-0.124-0.359   c0.248-0.161,0.607-0.266,0.985-0.266c0.917,0,1.14,0.625,1.14,1.227v1.121c0,0.261,0.013,0.515,0.05,0.719H270.272z    M270.192,36.507c-0.595-0.013-1.271,0.093-1.271,0.676c0,0.353,0.235,0.52,0.515,0.52c0.39,0,0.638-0.247,0.725-0.501   c0.019-0.057,0.031-0.118,0.031-0.174V36.507z"/>
	<path d="M272.253,34.178v0.861h0.78v0.415h-0.78v1.617c0,0.372,0.104,0.583,0.408,0.583c0.143,0,0.248-0.019,0.316-0.037   l0.024,0.408c-0.105,0.044-0.272,0.074-0.483,0.074c-0.254,0-0.458-0.08-0.588-0.229c-0.155-0.161-0.211-0.428-0.211-0.781v-1.635   h-0.465v-0.415h0.465V34.32L272.253,34.178z"/>
	<path d="M277.67,36.513c0,1.109-0.769,1.593-1.493,1.593c-0.812,0-1.438-0.595-1.438-1.543c0-1.003,0.657-1.592,1.487-1.592   C277.087,34.971,277.67,35.596,277.67,36.513z M275.291,36.544c0,0.657,0.378,1.152,0.91,1.152c0.521,0,0.911-0.489,0.911-1.165   c0-0.507-0.254-1.152-0.898-1.152S275.291,35.974,275.291,36.544z"/>
	<path d="M278.354,35.85c0-0.31-0.006-0.563-0.024-0.812h0.483l0.03,0.496h0.013c0.148-0.285,0.495-0.563,0.991-0.563   c0.415,0,1.06,0.248,1.06,1.276v1.791h-0.546v-1.729c0-0.483-0.179-0.886-0.693-0.886c-0.359,0-0.638,0.254-0.731,0.558   c-0.024,0.068-0.037,0.161-0.037,0.254v1.803h-0.545V35.85z"/>
	<path d="M282.092,36.637c0.013,0.737,0.483,1.041,1.028,1.041c0.391,0,0.626-0.068,0.83-0.155l0.093,0.391   c-0.191,0.087-0.521,0.186-0.997,0.186c-0.923,0-1.475-0.606-1.475-1.511c0-0.905,0.533-1.617,1.406-1.617   c0.979,0,1.239,0.861,1.239,1.412c0,0.111-0.013,0.198-0.019,0.254H282.092z M283.69,36.247c0.006-0.347-0.143-0.886-0.756-0.886   c-0.552,0-0.793,0.508-0.837,0.886H283.69z"/>
	<path d="M247.985,41.623c0.006,0.186-0.13,0.334-0.347,0.334c-0.192,0-0.329-0.148-0.329-0.334c0-0.192,0.143-0.341,0.341-0.341   C247.855,41.282,247.985,41.431,247.985,41.623z M247.378,45.464v-2.998h0.545v2.998H247.378z"/>
	<path d="M248.752,44.906c0.161,0.105,0.446,0.217,0.719,0.217c0.396,0,0.582-0.198,0.582-0.446c0-0.26-0.154-0.402-0.558-0.551   c-0.539-0.192-0.793-0.489-0.793-0.849c0-0.483,0.391-0.88,1.035-0.88c0.303,0,0.569,0.087,0.737,0.186l-0.137,0.396   c-0.118-0.074-0.335-0.173-0.613-0.173c-0.322,0-0.502,0.186-0.502,0.408c0,0.248,0.18,0.359,0.57,0.508   c0.521,0.198,0.786,0.459,0.786,0.905c0,0.526-0.408,0.897-1.121,0.897c-0.328,0-0.632-0.08-0.843-0.204L248.752,44.906z"/>
	<path d="M252.515,44.906c0.161,0.105,0.446,0.217,0.719,0.217c0.396,0,0.582-0.198,0.582-0.446c0-0.26-0.154-0.402-0.558-0.551   c-0.539-0.192-0.793-0.489-0.793-0.849c0-0.483,0.391-0.88,1.035-0.88c0.303,0,0.569,0.087,0.737,0.186l-0.137,0.396   c-0.118-0.074-0.335-0.173-0.613-0.173c-0.322,0-0.502,0.186-0.502,0.408c0,0.248,0.18,0.359,0.57,0.508   c0.521,0.198,0.786,0.459,0.786,0.905c0,0.526-0.408,0.897-1.121,0.897c-0.328,0-0.632-0.08-0.843-0.204L252.515,44.906z"/>
	<path d="M255.04,43.277c0-0.311-0.006-0.564-0.024-0.812h0.477l0.025,0.482h0.019c0.167-0.284,0.445-0.551,0.941-0.551   c0.409,0,0.719,0.248,0.849,0.601h0.013c0.093-0.167,0.21-0.297,0.334-0.39c0.18-0.137,0.378-0.211,0.663-0.211   c0.396,0,0.985,0.26,0.985,1.301v1.766h-0.533v-1.697c0-0.576-0.211-0.923-0.65-0.923c-0.31,0-0.552,0.229-0.645,0.495   c-0.024,0.074-0.043,0.174-0.043,0.272v1.853h-0.533v-1.797c0-0.477-0.21-0.823-0.625-0.823c-0.341,0-0.589,0.272-0.676,0.545   c-0.031,0.08-0.043,0.173-0.043,0.267v1.809h-0.533V43.277z"/>
	<path d="M261.862,45.464l-0.043-0.378h-0.019c-0.168,0.235-0.489,0.446-0.917,0.446c-0.607,0-0.917-0.428-0.917-0.861   c0-0.725,0.645-1.121,1.803-1.115v-0.062c0-0.248-0.068-0.694-0.682-0.694c-0.278,0-0.569,0.087-0.78,0.224l-0.124-0.359   c0.248-0.161,0.607-0.267,0.985-0.267c0.917,0,1.14,0.626,1.14,1.227v1.121c0,0.261,0.013,0.515,0.05,0.719H261.862z    M261.782,43.934c-0.595-0.013-1.271,0.093-1.271,0.676c0,0.353,0.235,0.52,0.515,0.52c0.39,0,0.638-0.247,0.725-0.501   c0.019-0.056,0.031-0.118,0.031-0.174V43.934z"/>
	<path d="M263.186,43.401c0-0.354-0.006-0.657-0.024-0.936h0.477l0.019,0.588h0.025c0.136-0.402,0.464-0.656,0.83-0.656   c0.062,0,0.105,0.006,0.154,0.019v0.514c-0.056-0.012-0.111-0.019-0.186-0.019c-0.384,0-0.656,0.292-0.731,0.7   c-0.012,0.074-0.024,0.161-0.024,0.254v1.599h-0.539V43.401z"/>
	<path d="M265.866,41.604v0.861h0.78v0.415h-0.78v1.616c0,0.372,0.104,0.583,0.408,0.583c0.143,0,0.248-0.019,0.316-0.037   l0.024,0.408c-0.105,0.044-0.272,0.074-0.483,0.074c-0.254,0-0.458-0.08-0.588-0.229c-0.155-0.161-0.211-0.428-0.211-0.781v-1.635   h-0.465v-0.415h0.465v-0.719L265.866,41.604z"/>
	<path d="M270.229,45.464l-0.043-0.378h-0.019c-0.168,0.235-0.489,0.446-0.917,0.446c-0.607,0-0.917-0.428-0.917-0.861   c0-0.725,0.645-1.121,1.803-1.115v-0.062c0-0.248-0.068-0.694-0.682-0.694c-0.278,0-0.569,0.087-0.78,0.224l-0.124-0.359   c0.248-0.161,0.607-0.267,0.985-0.267c0.917,0,1.14,0.626,1.14,1.227v1.121c0,0.261,0.013,0.515,0.05,0.719H270.229z    M270.149,43.934c-0.595-0.013-1.271,0.093-1.271,0.676c0,0.353,0.235,0.52,0.515,0.52c0.39,0,0.638-0.247,0.725-0.501   c0.019-0.056,0.031-0.118,0.031-0.174V43.934z"/>
	<path d="M271.553,43.277c0-0.311-0.006-0.564-0.024-0.812h0.483l0.03,0.495h0.013c0.148-0.285,0.495-0.563,0.991-0.563   c0.415,0,1.06,0.248,1.06,1.276v1.79h-0.546v-1.729c0-0.483-0.179-0.886-0.693-0.886c-0.359,0-0.638,0.254-0.731,0.558   c-0.024,0.068-0.037,0.161-0.037,0.254v1.803h-0.545V43.277z"/>
	<path d="M277.577,41.065v3.624c0,0.267,0.006,0.57,0.024,0.774h-0.489l-0.024-0.521h-0.013c-0.167,0.335-0.533,0.589-1.022,0.589   c-0.725,0-1.282-0.613-1.282-1.524c-0.006-0.997,0.613-1.61,1.345-1.61c0.458,0,0.768,0.217,0.904,0.458h0.013v-1.79H277.577z    M277.032,43.686c0-0.067-0.007-0.161-0.025-0.229c-0.08-0.348-0.378-0.632-0.786-0.632c-0.564,0-0.898,0.495-0.898,1.158   c0,0.607,0.297,1.108,0.886,1.108c0.365,0,0.7-0.241,0.799-0.65c0.019-0.074,0.025-0.148,0.025-0.235V43.686z"/>
	<path d="M249.516,52.779c-0.143,0.074-0.459,0.173-0.861,0.173c-0.904,0-1.493-0.613-1.493-1.529c0-0.924,0.632-1.593,1.61-1.593   c0.322,0,0.607,0.081,0.756,0.155l-0.123,0.421c-0.131-0.074-0.335-0.143-0.633-0.143c-0.688,0-1.059,0.508-1.059,1.134   c0,0.694,0.445,1.121,1.04,1.121c0.311,0,0.515-0.08,0.67-0.148L249.516,52.779z"/>
	<path d="M251.811,52.891l-0.043-0.378h-0.019c-0.167,0.235-0.489,0.446-0.917,0.446c-0.607,0-0.917-0.428-0.917-0.861   c0-0.725,0.645-1.121,1.803-1.115v-0.062c0-0.248-0.068-0.694-0.682-0.694c-0.278,0-0.569,0.087-0.78,0.224l-0.124-0.359   c0.248-0.161,0.607-0.267,0.985-0.267c0.917,0,1.14,0.626,1.14,1.227v1.121c0,0.261,0.013,0.515,0.05,0.719H251.811z M251.73,51.36   c-0.595-0.013-1.271,0.093-1.271,0.676c0,0.353,0.235,0.52,0.515,0.52c0.39,0,0.638-0.247,0.725-0.501   c0.019-0.057,0.031-0.118,0.031-0.174V51.36z"/>
	<path d="M253.134,50.871c0-0.384-0.013-0.694-0.024-0.979h0.489l0.024,0.514h0.013c0.223-0.365,0.576-0.582,1.065-0.582   c0.725,0,1.271,0.613,1.271,1.523c0,1.078-0.657,1.611-1.363,1.611c-0.396,0-0.743-0.174-0.923-0.471h-0.013v1.629h-0.539V50.871z    M253.673,51.67c0,0.081,0.013,0.155,0.024,0.224c0.1,0.378,0.428,0.638,0.818,0.638c0.576,0,0.91-0.471,0.91-1.158   c0-0.602-0.315-1.115-0.892-1.115c-0.372,0-0.719,0.267-0.824,0.675c-0.019,0.068-0.037,0.149-0.037,0.224V51.67z"/>
	<path d="M258.315,52.891l-0.043-0.378h-0.019c-0.168,0.235-0.489,0.446-0.917,0.446c-0.607,0-0.917-0.428-0.917-0.861   c0-0.725,0.645-1.121,1.803-1.115v-0.062c0-0.248-0.068-0.694-0.682-0.694c-0.278,0-0.569,0.087-0.78,0.224l-0.124-0.359   c0.248-0.161,0.607-0.267,0.985-0.267c0.917,0,1.14,0.626,1.14,1.227v1.121c0,0.261,0.013,0.515,0.05,0.719H258.315z    M258.235,51.36c-0.595-0.013-1.271,0.093-1.271,0.676c0,0.353,0.235,0.52,0.515,0.52c0.39,0,0.638-0.247,0.725-0.501   c0.019-0.057,0.031-0.118,0.031-0.174V51.36z"/>
	<path d="M259.614,52.891c0.012-0.204,0.024-0.508,0.024-0.774v-3.624h0.539v1.883h0.013c0.191-0.334,0.539-0.551,1.021-0.551   c0.744,0,1.271,0.619,1.265,1.53c0,1.071-0.676,1.604-1.345,1.604c-0.434,0-0.78-0.168-1.004-0.564h-0.019l-0.024,0.496H259.614z    M260.178,51.688c0,0.068,0.013,0.137,0.024,0.198c0.105,0.378,0.422,0.639,0.818,0.639c0.569,0,0.91-0.465,0.91-1.152   c0-0.602-0.31-1.115-0.892-1.115c-0.372,0-0.719,0.254-0.83,0.669c-0.013,0.062-0.031,0.137-0.031,0.223V51.688z"/>
	<path d="M263.16,48.492h0.545v4.398h-0.545V48.492z"/>
	<path d="M264.925,51.49c0.013,0.737,0.483,1.041,1.028,1.041c0.391,0,0.626-0.068,0.83-0.155l0.093,0.391   c-0.191,0.087-0.521,0.186-0.997,0.186c-0.923,0-1.475-0.606-1.475-1.511c0-0.905,0.533-1.617,1.406-1.617   c0.979,0,1.239,0.861,1.239,1.412c0,0.111-0.013,0.198-0.019,0.254H264.925z M266.523,51.101c0.006-0.348-0.143-0.886-0.756-0.886   c-0.552,0-0.793,0.508-0.837,0.886H266.523z"/>
	<path d="M271.747,51.366c0,1.109-0.769,1.593-1.493,1.593c-0.812,0-1.438-0.595-1.438-1.543c0-1.004,0.656-1.592,1.487-1.592   C271.164,49.824,271.747,50.45,271.747,51.366z M269.368,51.397c0,0.657,0.378,1.152,0.91,1.152c0.521,0,0.911-0.489,0.911-1.165   c0-0.508-0.254-1.151-0.898-1.151S269.368,50.828,269.368,51.397z"/>
	<path d="M272.486,52.891v-2.583h-0.421v-0.415h0.421V49.75c0-0.422,0.093-0.806,0.347-1.047c0.205-0.198,0.478-0.279,0.731-0.279   c0.192,0,0.359,0.044,0.465,0.087l-0.074,0.421c-0.081-0.037-0.192-0.067-0.348-0.067c-0.464,0-0.582,0.408-0.582,0.867v0.161   h0.725v0.415h-0.725v2.583H272.486z"/>
	<path d="M247.378,55.919h0.545v4.398h-0.545V55.919z"/>
	<path d="M249.143,58.917c0.013,0.737,0.483,1.041,1.028,1.041c0.391,0,0.626-0.068,0.83-0.155l0.093,0.391   c-0.191,0.087-0.521,0.186-0.997,0.186c-0.923,0-1.475-0.606-1.475-1.511c0-0.905,0.533-1.617,1.406-1.617   c0.979,0,1.239,0.861,1.239,1.412c0,0.111-0.013,0.198-0.019,0.254H249.143z M250.741,58.527c0.006-0.348-0.143-0.887-0.756-0.887   c-0.552,0-0.793,0.509-0.837,0.887H250.741z"/>
	<path d="M253.6,60.317l-0.043-0.378h-0.019c-0.167,0.235-0.489,0.446-0.917,0.446c-0.607,0-0.917-0.428-0.917-0.861   c0-0.725,0.645-1.121,1.803-1.115v-0.062c0-0.248-0.068-0.694-0.682-0.694c-0.278,0-0.569,0.087-0.78,0.224l-0.124-0.359   c0.248-0.161,0.607-0.267,0.985-0.267c0.917,0,1.14,0.626,1.14,1.227v1.121c0,0.261,0.013,0.515,0.05,0.719H253.6z M253.52,58.787   c-0.595-0.013-1.271,0.093-1.271,0.676c0,0.353,0.235,0.52,0.515,0.52c0.39,0,0.638-0.247,0.725-0.501   c0.019-0.056,0.031-0.118,0.031-0.174V58.787z"/>
	<path d="M254.923,58.255c0-0.354-0.006-0.657-0.024-0.936h0.477l0.019,0.588h0.025c0.136-0.402,0.464-0.656,0.83-0.656   c0.062,0,0.104,0.006,0.154,0.019v0.514c-0.056-0.012-0.111-0.019-0.186-0.019c-0.384,0-0.657,0.292-0.731,0.7   c-0.012,0.074-0.024,0.161-0.024,0.254v1.599h-0.539V58.255z"/>
	<path d="M256.946,58.131c0-0.311-0.006-0.564-0.024-0.812h0.483l0.03,0.495h0.013c0.148-0.285,0.495-0.563,0.991-0.563   c0.415,0,1.06,0.248,1.06,1.276v1.79h-0.546v-1.729c0-0.483-0.18-0.886-0.693-0.886c-0.359,0-0.638,0.254-0.731,0.558   c-0.024,0.068-0.037,0.161-0.037,0.254v1.803h-0.545V58.131z"/>
	<path d="M260.988,56.477c0.006,0.186-0.13,0.334-0.347,0.334c-0.192,0-0.329-0.148-0.329-0.334c0-0.192,0.143-0.341,0.341-0.341   C260.858,56.136,260.988,56.284,260.988,56.477z M260.381,60.317v-2.998h0.545v2.998H260.381z"/>
	<path d="M261.829,58.131c0-0.311-0.006-0.564-0.024-0.812h0.483l0.03,0.495h0.013c0.148-0.285,0.495-0.563,0.991-0.563   c0.415,0,1.06,0.248,1.06,1.276v1.79h-0.546v-1.729c0-0.483-0.18-0.886-0.693-0.886c-0.359,0-0.638,0.254-0.731,0.558   c-0.024,0.068-0.037,0.161-0.037,0.254v1.803h-0.545V58.131z"/>
	<path d="M267.847,57.319c-0.012,0.217-0.024,0.458-0.024,0.823v1.741c0,0.688-0.137,1.108-0.428,1.369   c-0.291,0.272-0.712,0.359-1.09,0.359c-0.359,0-0.756-0.087-0.998-0.248l0.137-0.415c0.198,0.124,0.508,0.235,0.88,0.235   c0.558,0,0.966-0.291,0.966-1.047v-0.335h-0.012c-0.167,0.279-0.489,0.502-0.954,0.502c-0.743,0-1.276-0.632-1.276-1.462   c0-1.016,0.663-1.592,1.351-1.592c0.521,0,0.806,0.272,0.936,0.521h0.013l0.024-0.452H267.847z M267.283,58.502   c0-0.093-0.006-0.173-0.031-0.247c-0.099-0.316-0.365-0.576-0.762-0.576c-0.521,0-0.892,0.439-0.892,1.133   c0,0.589,0.297,1.078,0.886,1.078c0.334,0,0.638-0.21,0.756-0.558c0.03-0.093,0.043-0.198,0.043-0.291V58.502z"/>
</g>
<circle opacity="0.502" fill="#767676" cx="324.281" cy="36.281" r="36"/>
<circle fill="none" stroke="#EEEEEE" stroke-width="0.5623" stroke-miterlimit="8" cx="324.263" cy="36.263" r="35.981"/>
<g>
	<path d="M305.936,22.205v1.12h0.872v0.896h-0.872v1.415c0,0.472,0.112,0.688,0.48,0.688c0.151,0,0.271-0.016,0.359-0.032   l0.008,0.919c-0.16,0.064-0.447,0.104-0.791,0.104c-0.393,0-0.72-0.136-0.912-0.336c-0.224-0.232-0.336-0.608-0.336-1.159V24.22   h-0.52v-0.896h0.52v-0.848L305.936,22.205z"/>
	<path d="M308.447,25.667c0.04,0.503,0.536,0.743,1.104,0.743c0.416,0,0.752-0.056,1.08-0.16l0.159,0.824   c-0.399,0.16-0.888,0.24-1.415,0.24c-1.327,0-2.087-0.768-2.087-1.991c0-0.991,0.616-2.086,1.976-2.086   c1.263,0,1.742,0.983,1.742,1.951c0,0.208-0.023,0.392-0.04,0.48H308.447z M309.879,24.835c0-0.295-0.128-0.792-0.688-0.792   c-0.512,0-0.72,0.464-0.752,0.792H309.879z"/>
	<path d="M311.728,26.17c0.224,0.136,0.688,0.296,1.048,0.296c0.367,0,0.52-0.128,0.52-0.328c0-0.2-0.12-0.296-0.576-0.448   c-0.807-0.272-1.119-0.712-1.111-1.175c0-0.728,0.624-1.279,1.592-1.279c0.455,0,0.863,0.104,1.104,0.224l-0.216,0.839   c-0.177-0.096-0.512-0.224-0.848-0.224c-0.296,0-0.464,0.12-0.464,0.32c0,0.184,0.151,0.28,0.632,0.448   c0.743,0.256,1.055,0.631,1.063,1.208c0,0.728-0.576,1.263-1.695,1.263c-0.512,0-0.968-0.112-1.264-0.272L311.728,26.17z"/>
	<path d="M316.566,22.205v1.12h0.872v0.896h-0.872v1.415c0,0.472,0.112,0.688,0.48,0.688c0.151,0,0.271-0.016,0.359-0.032   l0.008,0.919c-0.16,0.064-0.447,0.104-0.791,0.104c-0.393,0-0.72-0.136-0.912-0.336c-0.224-0.232-0.336-0.608-0.336-1.159V24.22   h-0.52v-0.896h0.52v-0.848L316.566,22.205z"/>
</g>
<g>
	<path d="M304.576,32c0-0.488-0.016-0.903-0.031-1.247h1.023l0.056,0.527h0.024c0.168-0.248,0.512-0.616,1.183-0.616   c0.504,0,0.903,0.256,1.071,0.664h0.017c0.144-0.2,0.319-0.36,0.504-0.472c0.216-0.128,0.455-0.192,0.743-0.192   c0.752,0,1.319,0.528,1.319,1.695v2.303h-1.184v-2.127c0-0.567-0.184-0.896-0.575-0.896c-0.28,0-0.48,0.192-0.56,0.424   c-0.032,0.088-0.048,0.216-0.048,0.312v2.287h-1.184v-2.191c0-0.496-0.176-0.832-0.56-0.832c-0.312,0-0.496,0.24-0.568,0.44   c-0.04,0.096-0.048,0.208-0.048,0.304v2.279h-1.184V32z"/>
	<path d="M315.318,32.663c0,1.431-1.016,2.087-2.062,2.087c-1.144,0-2.023-0.751-2.023-2.015c0-1.264,0.832-2.071,2.087-2.071   C314.519,30.664,315.318,31.488,315.318,32.663z M312.488,32.703c0,0.672,0.279,1.175,0.799,1.175c0.472,0,0.776-0.472,0.776-1.175   c0-0.583-0.225-1.175-0.776-1.175C312.704,31.528,312.488,32.127,312.488,32.703z"/>
	<path d="M317.432,29.633v1.12h0.872v0.896h-0.872v1.415c0,0.472,0.112,0.688,0.48,0.688c0.151,0,0.271-0.016,0.359-0.032   l0.008,0.919c-0.16,0.064-0.447,0.104-0.791,0.104c-0.393,0-0.72-0.136-0.912-0.336c-0.224-0.232-0.336-0.607-0.336-1.159v-1.599   h-0.52v-0.896h0.52v-0.848L317.432,29.633z"/>
	<path d="M320.264,29.665c0,0.335-0.256,0.607-0.656,0.607c-0.383,0-0.639-0.272-0.631-0.607c-0.008-0.352,0.248-0.616,0.64-0.616   S320.256,29.313,320.264,29.665z M319.008,34.662v-3.91h1.216v3.91H319.008z"/>
	<path d="M322.104,30.752l0.527,1.815c0.096,0.328,0.168,0.64,0.224,0.951h0.024c0.063-0.32,0.128-0.615,0.216-0.951l0.504-1.815   h1.279l-1.455,3.91h-1.216l-1.423-3.91H322.104z"/>
	<path d="M327.664,34.662l-0.072-0.392h-0.024c-0.256,0.312-0.655,0.479-1.119,0.479c-0.792,0-1.264-0.576-1.264-1.199   c0-1.016,0.912-1.503,2.295-1.495V32c0-0.208-0.111-0.503-0.711-0.503c-0.4,0-0.824,0.136-1.08,0.295l-0.224-0.783   c0.271-0.152,0.808-0.344,1.52-0.344c1.303,0,1.719,0.768,1.719,1.688v1.359c0,0.376,0.016,0.736,0.056,0.952H327.664z    M327.52,32.815c-0.64-0.008-1.135,0.144-1.135,0.616c0,0.312,0.207,0.464,0.479,0.464c0.304,0,0.552-0.2,0.632-0.448   c0.016-0.064,0.023-0.136,0.023-0.208V32.815z"/>
	<path d="M331.023,29.633v1.12h0.872v0.896h-0.872v1.415c0,0.472,0.112,0.688,0.48,0.688c0.151,0,0.271-0.016,0.359-0.032   l0.008,0.919c-0.16,0.064-0.447,0.104-0.791,0.104c-0.393,0-0.72-0.136-0.912-0.336c-0.224-0.232-0.336-0.607-0.336-1.159v-1.599   h-0.52v-0.896h0.52v-0.848L331.023,29.633z"/>
	<path d="M333.855,29.665c0,0.335-0.256,0.607-0.656,0.607c-0.383,0-0.639-0.272-0.631-0.607c-0.008-0.352,0.248-0.616,0.64-0.616   S333.848,29.313,333.855,29.665z M332.6,34.662v-3.91h1.216v3.91H332.6z"/>
	<path d="M338.654,32.663c0,1.431-1.016,2.087-2.062,2.087c-1.144,0-2.023-0.751-2.023-2.015c0-1.264,0.832-2.071,2.087-2.071   C337.854,30.664,338.654,31.488,338.654,32.663z M335.824,32.703c0,0.672,0.279,1.175,0.799,1.175c0.472,0,0.776-0.472,0.776-1.175   c0-0.583-0.225-1.175-0.776-1.175C336.04,31.528,335.824,32.127,335.824,32.703z"/>
	<path d="M339.408,32c0-0.488-0.016-0.903-0.031-1.247h1.055l0.057,0.536h0.023c0.16-0.248,0.56-0.624,1.208-0.624   c0.799,0,1.398,0.528,1.398,1.679v2.319h-1.215v-2.167c0-0.503-0.176-0.847-0.616-0.847c-0.335,0-0.535,0.232-0.615,0.456   c-0.032,0.072-0.048,0.192-0.048,0.304v2.255h-1.216V32z"/>
</g>
<g>
	<path d="M307.729,39.714v0.861h0.78v0.415h-0.78v1.616c0,0.372,0.104,0.583,0.408,0.583c0.143,0,0.248-0.019,0.316-0.037   l0.024,0.408c-0.105,0.044-0.272,0.074-0.483,0.074c-0.254,0-0.458-0.08-0.588-0.229c-0.155-0.161-0.211-0.428-0.211-0.781V40.99   h-0.465v-0.415h0.465v-0.719L307.729,39.714z"/>
	<path d="M309.121,41.511c0-0.354-0.006-0.657-0.024-0.936h0.477l0.019,0.588h0.025c0.136-0.402,0.464-0.656,0.83-0.656   c0.062,0,0.105,0.006,0.154,0.019v0.514c-0.056-0.012-0.111-0.019-0.186-0.019c-0.384,0-0.656,0.292-0.731,0.7   c-0.012,0.074-0.024,0.161-0.024,0.254v1.599h-0.539V41.511z"/>
	<path d="M311.343,40.575L312,42.347c0.067,0.198,0.142,0.434,0.191,0.613h0.013c0.056-0.18,0.117-0.409,0.192-0.626l0.595-1.759   h0.575l-0.817,2.137c-0.391,1.028-0.656,1.556-1.028,1.877c-0.267,0.235-0.533,0.329-0.669,0.354l-0.137-0.458   c0.137-0.044,0.316-0.131,0.478-0.267c0.148-0.118,0.334-0.328,0.458-0.607c0.025-0.056,0.044-0.099,0.044-0.13   s-0.013-0.074-0.037-0.143l-1.109-2.763H311.343z"/>
	<path d="M314.667,39.732c0.006,0.186-0.13,0.334-0.347,0.334c-0.192,0-0.329-0.148-0.329-0.334c0-0.192,0.143-0.341,0.341-0.341   C314.537,39.392,314.667,39.54,314.667,39.732z M314.06,43.573v-2.998h0.545v2.998H314.06z"/>
	<path d="M315.508,41.387c0-0.311-0.006-0.564-0.024-0.812h0.483l0.03,0.495h0.013c0.148-0.285,0.495-0.563,0.991-0.563   c0.415,0,1.06,0.248,1.06,1.276v1.79h-0.546v-1.729c0-0.483-0.179-0.886-0.693-0.886c-0.359,0-0.638,0.254-0.731,0.558   c-0.024,0.068-0.037,0.161-0.037,0.254v1.803h-0.545V41.387z"/>
	<path d="M321.525,40.575c-0.012,0.217-0.024,0.458-0.024,0.823v1.741c0,0.688-0.136,1.108-0.428,1.369   c-0.291,0.272-0.712,0.359-1.09,0.359c-0.359,0-0.756-0.087-0.997-0.248l0.136-0.415c0.198,0.124,0.508,0.235,0.88,0.235   c0.558,0,0.967-0.291,0.967-1.047v-0.335h-0.013c-0.167,0.279-0.489,0.502-0.954,0.502c-0.743,0-1.276-0.632-1.276-1.462   c0-1.016,0.663-1.592,1.351-1.592c0.521,0,0.806,0.272,0.936,0.521h0.013l0.024-0.452H321.525z M320.962,41.758   c0-0.093-0.006-0.173-0.031-0.247c-0.099-0.316-0.365-0.576-0.762-0.576c-0.521,0-0.892,0.439-0.892,1.133   c0,0.589,0.297,1.078,0.886,1.078c0.334,0,0.638-0.21,0.756-0.558c0.03-0.093,0.043-0.198,0.043-0.291V41.758z"/>
	<path d="M323.714,39.175h0.545v1.871h0.013c0.087-0.155,0.223-0.291,0.391-0.385c0.161-0.093,0.353-0.154,0.558-0.154   c0.402,0,1.047,0.248,1.047,1.282v1.784h-0.546v-1.723c0-0.482-0.18-0.892-0.693-0.892c-0.354,0-0.632,0.248-0.731,0.545   c-0.03,0.074-0.037,0.155-0.037,0.261v1.809h-0.545V39.175z"/>
	<path d="M328.809,43.573l-0.043-0.378h-0.019c-0.167,0.235-0.489,0.446-0.917,0.446c-0.607,0-0.917-0.428-0.917-0.861   c0-0.725,0.645-1.121,1.803-1.115v-0.062c0-0.248-0.068-0.694-0.682-0.694c-0.278,0-0.569,0.087-0.78,0.224l-0.124-0.359   c0.248-0.161,0.607-0.267,0.985-0.267c0.917,0,1.14,0.626,1.14,1.227v1.121c0,0.261,0.013,0.515,0.05,0.719H328.809z    M328.729,42.043c-0.595-0.013-1.271,0.093-1.271,0.676c0,0.353,0.235,0.52,0.515,0.52c0.39,0,0.638-0.247,0.725-0.501   c0.019-0.056,0.031-0.118,0.031-0.174V42.043z"/>
	<path d="M330.132,41.511c0-0.354-0.006-0.657-0.024-0.936h0.477l0.019,0.588h0.025c0.136-0.402,0.464-0.656,0.83-0.656   c0.062,0,0.104,0.006,0.154,0.019v0.514c-0.056-0.012-0.111-0.019-0.186-0.019c-0.384,0-0.657,0.292-0.731,0.7   c-0.012,0.074-0.024,0.161-0.024,0.254v1.599h-0.539V41.511z"/>
	<path d="M334.745,39.175v3.624c0,0.267,0.006,0.57,0.024,0.774h-0.489l-0.024-0.521h-0.013c-0.167,0.335-0.533,0.589-1.022,0.589   c-0.725,0-1.282-0.613-1.282-1.524c-0.006-0.997,0.613-1.61,1.345-1.61c0.458,0,0.768,0.217,0.904,0.458h0.013v-1.79H334.745z    M334.2,41.795c0-0.067-0.007-0.161-0.025-0.229c-0.08-0.348-0.378-0.632-0.786-0.632c-0.564,0-0.898,0.495-0.898,1.158   c0,0.607,0.297,1.108,0.886,1.108c0.365,0,0.7-0.241,0.799-0.65c0.019-0.074,0.025-0.148,0.025-0.235V41.795z"/>
	<path d="M339.671,42.049c0,1.109-0.769,1.593-1.493,1.593c-0.812,0-1.438-0.595-1.438-1.543c0-1.003,0.656-1.592,1.487-1.592   C339.088,40.507,339.671,41.133,339.671,42.049z M337.292,42.08c0,0.657,0.378,1.152,0.91,1.152c0.521,0,0.911-0.489,0.911-1.165   c0-0.508-0.254-1.151-0.898-1.151S337.292,41.511,337.292,42.08z"/>
	<path d="M340.354,41.387c0-0.311-0.006-0.564-0.024-0.812h0.483l0.03,0.495h0.013c0.148-0.285,0.495-0.563,0.991-0.563   c0.415,0,1.06,0.248,1.06,1.276v1.79h-0.546v-1.729c0-0.483-0.18-0.886-0.693-0.886c-0.359,0-0.638,0.254-0.731,0.558   c-0.024,0.068-0.037,0.161-0.037,0.254v1.803h-0.545V41.387z"/>
	<path d="M307.729,47.141v0.861h0.78v0.415h-0.78v1.616c0,0.372,0.104,0.583,0.408,0.583c0.143,0,0.248-0.019,0.316-0.037   l0.024,0.408c-0.105,0.044-0.272,0.074-0.483,0.074c-0.254,0-0.458-0.08-0.588-0.229c-0.155-0.161-0.211-0.428-0.211-0.781v-1.635   h-0.465v-0.415h0.465v-0.719L307.729,47.141z"/>
	<path d="M309.425,49.6c0.013,0.737,0.483,1.041,1.028,1.041c0.391,0,0.626-0.068,0.83-0.155l0.093,0.391   c-0.191,0.087-0.521,0.186-0.997,0.186c-0.923,0-1.475-0.606-1.475-1.511c0-0.905,0.533-1.617,1.406-1.617   c0.979,0,1.239,0.861,1.239,1.412c0,0.111-0.013,0.198-0.019,0.254H309.425z M311.023,49.21c0.006-0.348-0.143-0.886-0.756-0.886   c-0.552,0-0.793,0.508-0.837,0.886H311.023z"/>
	<path d="M312.147,50.442c0.161,0.105,0.446,0.217,0.719,0.217c0.396,0,0.582-0.198,0.582-0.446c0-0.26-0.154-0.402-0.558-0.551   c-0.539-0.192-0.793-0.489-0.793-0.849c0-0.483,0.391-0.88,1.035-0.88c0.303,0,0.569,0.087,0.737,0.186l-0.137,0.396   c-0.118-0.074-0.335-0.173-0.613-0.173c-0.322,0-0.502,0.186-0.502,0.408c0,0.248,0.18,0.359,0.57,0.508   c0.521,0.198,0.786,0.459,0.786,0.905c0,0.526-0.408,0.897-1.121,0.897c-0.328,0-0.632-0.08-0.843-0.204L312.147,50.442z"/>
	<path d="M315.33,47.141v0.861h0.78v0.415h-0.78v1.616c0,0.372,0.104,0.583,0.408,0.583c0.143,0,0.248-0.019,0.316-0.037   l0.024,0.408c-0.105,0.044-0.272,0.074-0.483,0.074c-0.254,0-0.458-0.08-0.588-0.229c-0.155-0.161-0.211-0.428-0.211-0.781v-1.635   h-0.465v-0.415h0.465v-0.719L315.33,47.141z"/>
	<path d="M316.647,50.442c0.161,0.105,0.446,0.217,0.719,0.217c0.396,0,0.582-0.198,0.582-0.446c0-0.26-0.154-0.402-0.558-0.551   c-0.539-0.192-0.793-0.489-0.793-0.849c0-0.483,0.391-0.88,1.035-0.88c0.303,0,0.569,0.087,0.737,0.186l-0.137,0.396   c-0.118-0.074-0.335-0.173-0.613-0.173c-0.322,0-0.502,0.186-0.502,0.408c0,0.248,0.18,0.359,0.57,0.508   c0.521,0.198,0.786,0.459,0.786,0.905c0,0.526-0.408,0.897-1.121,0.897c-0.328,0-0.632-0.08-0.843-0.204L316.647,50.442z"/>
</g>
</svg>