<svg xmlns="http://www.w3.org/2000/svg" xmlns:xlink="http://www.w3.org/1999/xlink" version="1.1" id="Layer_1" x="0px" y="0px" width="311.208px" height="199.514px" viewBox="0 0 311.208 199.514" enable-background="new 0 0 311.208 199.514" xml:space="preserve">
<path fill="none" stroke="#D8D8D8" stroke-width="0.5" stroke-linejoin="round" stroke-miterlimit="10" d="M32.752,19.037h278.206   M32.752,39.763h278.206 M32.752,60.442h278.206 M32.752,81.121h278.206 M32.752,101.8h278.206 M32.752,122.479h278.206   M32.752,142.984h278.206"/>
<path d="M256.297,54.204h39.988v109.605h-39.988V54.204z M186.752,134.875h39.988v28.934h-39.988V134.875z M117.208,35.601h39.988  v128.208h-39.988V35.601z M47.489,130.704h39.988v33.105H47.489V130.704z"/>
<path fill="none" stroke="#000000" stroke-width="0.5442" stroke-linejoin="round" stroke-miterlimit="10" d="M256.183,54.186  h39.968v109.55h-39.968V54.186z M186.674,134.817h39.968v28.919h-39.968V134.817z M117.165,35.592h39.967v128.144h-39.967V35.592z   M47.481,130.646h39.968v33.09H47.481V130.646z"/>
<line fill="none" stroke="#D8D8D8" stroke-width="0.5" stroke-linejoin="round" stroke-miterlimit="10" x1="32.752" y1="163.809" x2="310.958" y2="163.81"/>
<path fill="none" stroke="#D8D8D8" stroke-width="0.5" stroke-linejoin="round" stroke-miterlimit="10" d="M310.958,163.809v17.849   M171.903,163.809v17.849 M32.752,163.809v17.849"/>
<path fill="none" stroke="#D8D8D8" stroke-width="0.5" stroke-linejoin="round" stroke-miterlimit="10" d="M310.958,181.667v17.848   M171.903,181.667v17.848 M32.752,181.667v17.848"/>
<g>
	<path d="M21.352,162.834c0,1.99-0.738,3.088-2.035,3.088c-1.144,0-1.917-1.071-1.936-3.007c0-1.962,0.846-3.043,2.035-3.043   C20.649,159.873,21.352,160.971,21.352,162.834z M18.173,162.925c0,1.521,0.468,2.386,1.188,2.386c0.81,0,1.197-0.945,1.197-2.44   c0-1.44-0.369-2.386-1.188-2.386C18.678,160.485,18.173,161.332,18.173,162.925z"/>
	<path d="M24.717,161.62c0,1.233-0.648,1.846-1.404,1.846c-0.729,0-1.359-0.586-1.369-1.765c0-1.171,0.639-1.828,1.414-1.828   C24.177,159.873,24.717,160.503,24.717,161.62z M22.574,161.673c-0.018,0.747,0.261,1.314,0.756,1.314   c0.522,0,0.756-0.558,0.756-1.332c0-0.712-0.207-1.306-0.756-1.306C22.835,160.35,22.574,160.935,22.574,161.673z M23.258,165.922   l3.439-6.05h0.504l-3.439,6.05H23.258z M28.525,164.042c0,1.233-0.648,1.846-1.396,1.846c-0.729,0-1.359-0.586-1.368-1.756   c0-1.18,0.639-1.837,1.413-1.837C27.994,162.294,28.525,162.925,28.525,164.042z M26.382,164.095   c-0.009,0.747,0.279,1.314,0.765,1.314c0.522,0,0.756-0.559,0.756-1.332c0-0.712-0.207-1.306-0.756-1.306   C26.652,162.772,26.382,163.357,26.382,164.095z"/>
</g>
<g>
	<path d="M14.564,140.021h-0.018l-1.017,0.549l-0.153-0.604l1.278-0.684h0.675v5.852h-0.765V140.021z"/>
	<path d="M21.351,142.145c0,1.99-0.738,3.088-2.035,3.088c-1.144,0-1.917-1.071-1.936-3.007c0-1.962,0.846-3.043,2.035-3.043   C20.648,139.183,21.351,140.282,21.351,142.145z M18.172,142.236c0,1.521,0.468,2.386,1.188,2.386c0.81,0,1.197-0.945,1.197-2.44   c0-1.44-0.369-2.386-1.188-2.386C18.677,139.795,18.172,140.642,18.172,142.236z"/>
	<path d="M24.716,140.93c0,1.233-0.648,1.846-1.404,1.846c-0.729,0-1.359-0.586-1.369-1.765c0-1.171,0.639-1.828,1.414-1.828   C24.176,139.183,24.716,139.814,24.716,140.93z M22.573,140.984c-0.018,0.747,0.261,1.314,0.756,1.314   c0.522,0,0.756-0.558,0.756-1.332c0-0.712-0.207-1.306-0.756-1.306C22.834,139.661,22.573,140.246,22.573,140.984z M23.257,145.233   l3.439-6.05h0.504l-3.439,6.05H23.257z M28.524,143.352c0,1.233-0.648,1.846-1.396,1.846c-0.729,0-1.359-0.586-1.368-1.756   c0-1.18,0.639-1.837,1.413-1.837C27.993,141.605,28.524,142.236,28.524,143.352z M26.381,143.406   c-0.009,0.747,0.279,1.314,0.765,1.314c0.522,0,0.756-0.559,0.756-1.332c0-0.712-0.207-1.306-0.756-1.306   C26.651,142.083,26.381,142.667,26.381,143.406z"/>
</g>
<g>
	<path d="M12.845,124.445v-0.486l0.621-0.603c1.494-1.423,2.169-2.179,2.179-3.062c0-0.594-0.288-1.144-1.162-1.144   c-0.531,0-0.972,0.271-1.242,0.495l-0.252-0.558c0.405-0.342,0.981-0.595,1.656-0.595c1.26,0,1.792,0.864,1.792,1.702   c0,1.08-0.783,1.953-2.017,3.142l-0.468,0.433v0.018h2.628v0.657H12.845z"/>
	<path d="M21.351,121.456c0,1.99-0.738,3.088-2.035,3.088c-1.144,0-1.917-1.071-1.936-3.007c0-1.962,0.846-3.043,2.035-3.043   C20.648,118.494,21.351,119.592,21.351,121.456z M18.172,121.546c0,1.521,0.468,2.386,1.188,2.386c0.81,0,1.197-0.945,1.197-2.44   c0-1.44-0.369-2.386-1.188-2.386C18.677,119.106,18.172,119.953,18.172,121.546z"/>
	<path d="M24.716,120.241c0,1.233-0.648,1.846-1.404,1.846c-0.729,0-1.359-0.586-1.369-1.765c0-1.171,0.639-1.828,1.414-1.828   C24.176,118.494,24.716,119.125,24.716,120.241z M22.573,120.294c-0.018,0.747,0.261,1.314,0.756,1.314   c0.522,0,0.756-0.558,0.756-1.332c0-0.712-0.207-1.306-0.756-1.306C22.834,118.971,22.573,119.556,22.573,120.294z M23.257,124.543   l3.439-6.05h0.504l-3.439,6.05H23.257z M28.524,122.663c0,1.233-0.648,1.846-1.396,1.846c-0.729,0-1.359-0.586-1.368-1.756   c0-1.18,0.639-1.837,1.413-1.837C27.993,120.916,28.524,121.546,28.524,122.663z M26.381,122.716   c-0.009,0.747,0.279,1.314,0.765,1.314c0.522,0,0.756-0.559,0.756-1.332c0-0.712-0.207-1.306-0.756-1.306   C26.651,121.393,26.381,121.978,26.381,122.716z"/>
</g>
<g>
	<path d="M13.034,102.845c0.225,0.144,0.747,0.369,1.296,0.369c1.017,0,1.333-0.648,1.323-1.135c-0.009-0.819-0.747-1.17-1.512-1.17   H13.7v-0.595h0.441c0.576,0,1.305-0.297,1.305-0.99c0-0.468-0.297-0.882-1.026-0.882c-0.468,0-0.918,0.207-1.17,0.387l-0.207-0.576   c0.306-0.225,0.9-0.45,1.531-0.45c1.152,0,1.674,0.685,1.674,1.396c0,0.604-0.36,1.116-1.08,1.378v0.018   c0.72,0.145,1.305,0.685,1.305,1.504c0,0.936-0.729,1.755-2.134,1.755c-0.657,0-1.233-0.207-1.521-0.396L13.034,102.845z"/>
	<path d="M21.351,100.765c0,1.99-0.738,3.088-2.035,3.088c-1.144,0-1.917-1.071-1.936-3.007c0-1.962,0.846-3.043,2.035-3.043   C20.648,97.803,21.351,98.902,21.351,100.765z M18.172,100.856c0,1.521,0.468,2.386,1.188,2.386c0.81,0,1.197-0.945,1.197-2.44   c0-1.44-0.369-2.386-1.188-2.386C18.677,98.416,18.172,99.262,18.172,100.856z"/>
	<path d="M24.716,99.55c0,1.233-0.648,1.846-1.404,1.846c-0.729,0-1.359-0.586-1.369-1.765c0-1.171,0.639-1.828,1.414-1.828   C24.176,97.803,24.716,98.434,24.716,99.55z M22.573,99.604c-0.018,0.747,0.261,1.314,0.756,1.314c0.522,0,0.756-0.558,0.756-1.332   c0-0.712-0.207-1.306-0.756-1.306C22.834,98.281,22.573,98.866,22.573,99.604z M23.257,103.853l3.439-6.05h0.504l-3.439,6.05   H23.257z M28.524,101.972c0,1.233-0.648,1.846-1.396,1.846c-0.729,0-1.359-0.586-1.368-1.756c0-1.18,0.639-1.837,1.413-1.837   C27.993,100.225,28.524,100.856,28.524,101.972z M26.381,102.026c-0.009,0.747,0.279,1.314,0.765,1.314   c0.522,0,0.756-0.559,0.756-1.332c0-0.712-0.207-1.306-0.756-1.306C26.651,100.703,26.381,101.288,26.381,102.026z"/>
</g>
<g>
	<path d="M15.293,83.065v-1.593h-2.719V80.95l2.61-3.736h0.855v3.637h0.819v0.622h-0.819v1.593H15.293z M15.293,80.851v-1.954   c0-0.306,0.009-0.612,0.027-0.918h-0.027c-0.18,0.342-0.324,0.594-0.486,0.864l-1.431,1.989v0.018H15.293z"/>
	<path d="M21.351,80.077c0,1.989-0.738,3.088-2.035,3.088c-1.144,0-1.917-1.071-1.936-3.007c0-1.963,0.846-3.043,2.035-3.043   C20.648,77.115,21.351,78.213,21.351,80.077z M18.172,80.167c0,1.521,0.468,2.386,1.188,2.386c0.81,0,1.197-0.945,1.197-2.439   c0-1.44-0.369-2.386-1.188-2.386C18.677,77.727,18.172,78.573,18.172,80.167z"/>
	<path d="M24.716,78.861c0,1.233-0.648,1.845-1.404,1.845c-0.729,0-1.359-0.585-1.369-1.764c0-1.17,0.639-1.828,1.414-1.828   C24.176,77.115,24.716,77.745,24.716,78.861z M22.573,78.915c-0.018,0.748,0.261,1.314,0.756,1.314   c0.522,0,0.756-0.558,0.756-1.333c0-0.711-0.207-1.305-0.756-1.305C22.834,77.592,22.573,78.177,22.573,78.915z M23.257,83.165   l3.439-6.05h0.504l-3.439,6.05H23.257z M28.524,81.283c0,1.233-0.648,1.846-1.396,1.846c-0.729,0-1.359-0.585-1.368-1.755   c0-1.18,0.639-1.836,1.413-1.836C27.993,79.537,28.524,80.167,28.524,81.283z M26.381,81.337c-0.009,0.747,0.279,1.314,0.765,1.314   c0.522,0,0.756-0.558,0.756-1.333c0-0.711-0.207-1.305-0.756-1.305C26.651,80.014,26.381,80.599,26.381,81.337z"/>
</g>
<g>
	<path d="M16.337,57.19h-2.232l-0.225,1.503c0.135-0.018,0.261-0.036,0.477-0.036c0.45,0,0.9,0.099,1.26,0.315   c0.459,0.261,0.837,0.765,0.837,1.503c0,1.143-0.909,1.999-2.179,1.999c-0.639,0-1.179-0.18-1.458-0.36l0.198-0.603   c0.243,0.144,0.72,0.324,1.251,0.324c0.747,0,1.386-0.486,1.386-1.27c-0.009-0.756-0.513-1.296-1.684-1.296   c-0.333,0-0.594,0.036-0.81,0.063l0.378-2.809h2.8V57.19z"/>
	<path d="M21.351,59.387c0,1.989-0.738,3.088-2.035,3.088c-1.144,0-1.917-1.071-1.936-3.007c0-1.963,0.846-3.043,2.035-3.043   C20.648,56.425,21.351,57.523,21.351,59.387z M18.172,59.477c0,1.521,0.468,2.386,1.188,2.386c0.81,0,1.197-0.945,1.197-2.44   c0-1.44-0.369-2.385-1.188-2.385C18.677,57.037,18.172,57.883,18.172,59.477z"/>
	<path d="M24.716,58.171c0,1.233-0.648,1.845-1.404,1.845c-0.729,0-1.359-0.585-1.369-1.764c0-1.17,0.639-1.828,1.414-1.828   C24.176,56.425,24.716,57.055,24.716,58.171z M22.573,58.225c-0.018,0.748,0.261,1.314,0.756,1.314   c0.522,0,0.756-0.558,0.756-1.333c0-0.711-0.207-1.305-0.756-1.305C22.834,56.902,22.573,57.487,22.573,58.225z M23.257,62.475   l3.439-6.05h0.504l-3.439,6.05H23.257z M28.524,60.593c0,1.233-0.648,1.846-1.396,1.846c-0.729,0-1.359-0.585-1.368-1.755   c0-1.18,0.639-1.837,1.413-1.837C27.993,58.846,28.524,59.477,28.524,60.593z M26.381,60.647c-0.009,0.747,0.279,1.314,0.765,1.314   c0.522,0,0.756-0.558,0.756-1.333c0-0.711-0.207-1.305-0.756-1.305C26.651,59.324,26.381,59.909,26.381,60.647z"/>
</g>
<g>
	<path d="M16.185,36.393c-0.162-0.009-0.369,0-0.594,0.036c-1.242,0.208-1.899,1.117-2.035,2.08h0.027   c0.279-0.369,0.765-0.675,1.413-0.675c1.036,0,1.765,0.747,1.765,1.891c0,1.071-0.729,2.062-1.944,2.062   c-1.251,0-2.071-0.972-2.071-2.494c0-1.152,0.414-2.062,0.99-2.638c0.486-0.477,1.134-0.774,1.873-0.864   c0.234-0.036,0.432-0.045,0.576-0.045V36.393z M15.959,39.769c0-0.837-0.477-1.341-1.207-1.341c-0.477,0-0.918,0.297-1.134,0.72   c-0.054,0.09-0.09,0.207-0.09,0.351c0.018,0.963,0.459,1.674,1.288,1.674C15.5,41.173,15.959,40.606,15.959,39.769z"/>
	<path d="M21.351,38.697c0,1.989-0.738,3.088-2.035,3.088c-1.144,0-1.917-1.071-1.936-3.007c0-1.963,0.846-3.043,2.035-3.043   C20.648,35.735,21.351,36.833,21.351,38.697z M18.172,38.787c0,1.521,0.468,2.386,1.188,2.386c0.81,0,1.197-0.945,1.197-2.44   c0-1.44-0.369-2.385-1.188-2.385C18.677,36.348,18.172,37.194,18.172,38.787z"/>
	<path d="M24.716,37.482c0,1.233-0.648,1.845-1.404,1.845c-0.729,0-1.359-0.585-1.369-1.764c0-1.17,0.639-1.828,1.414-1.828   C24.176,35.735,24.716,36.365,24.716,37.482z M22.573,37.536c-0.018,0.748,0.261,1.314,0.756,1.314   c0.522,0,0.756-0.558,0.756-1.333c0-0.711-0.207-1.305-0.756-1.305C22.834,36.212,22.573,36.797,22.573,37.536z M23.257,41.785   l3.439-6.05h0.504l-3.439,6.05H23.257z M28.524,39.903c0,1.233-0.648,1.846-1.396,1.846c-0.729,0-1.359-0.585-1.368-1.755   c0-1.18,0.639-1.837,1.413-1.837C27.993,38.157,28.524,38.787,28.524,39.903z M26.381,39.958c-0.009,0.747,0.279,1.314,0.765,1.314   c0.522,0,0.756-0.558,0.756-1.333c0-0.711-0.207-1.305-0.756-1.305C26.651,38.634,26.381,39.219,26.381,39.958z"/>
</g>
<g>
	<path d="M16.644,15.145v0.522l-2.548,5.33h-0.819l2.539-5.177v-0.018h-2.863v-0.657H16.644z"/>
	<path d="M21.351,18.008c0,1.989-0.738,3.088-2.035,3.088c-1.144,0-1.917-1.071-1.936-3.007c0-1.963,0.846-3.043,2.035-3.043   C20.648,15.046,21.351,16.144,21.351,18.008z M18.172,18.098c0,1.521,0.468,2.386,1.188,2.386c0.81,0,1.197-0.945,1.197-2.44   c0-1.44-0.369-2.385-1.188-2.385C18.677,15.658,18.172,16.504,18.172,18.098z"/>
	<path d="M24.716,16.792c0,1.233-0.648,1.845-1.404,1.845c-0.729,0-1.359-0.585-1.369-1.764c0-1.17,0.639-1.828,1.414-1.828   C24.176,15.046,24.716,15.676,24.716,16.792z M22.573,16.846c-0.018,0.748,0.261,1.314,0.756,1.314   c0.522,0,0.756-0.558,0.756-1.333c0-0.711-0.207-1.305-0.756-1.305C22.834,15.523,22.573,16.108,22.573,16.846z M23.257,21.096   l3.439-6.05h0.504l-3.439,6.05H23.257z M28.524,19.214c0,1.233-0.648,1.846-1.396,1.846c-0.729,0-1.359-0.585-1.368-1.755   c0-1.18,0.639-1.837,1.413-1.837C27.993,17.467,28.524,18.098,28.524,19.214z M26.381,19.268c-0.009,0.747,0.279,1.314,0.765,1.314   c0.522,0,0.756-0.558,0.756-1.333c0-0.711-0.207-1.305-0.756-1.305C26.651,17.945,26.381,18.53,26.381,19.268z"/>
</g>
<g>
	<path d="M39.332,172.274h0.783v5.41h2.593v0.657h-3.376V172.274z"/>
	<path d="M47.334,176.126c0,1.611-1.117,2.313-2.17,2.313c-1.179,0-2.088-0.864-2.088-2.241c0-1.458,0.954-2.313,2.161-2.313   C46.487,173.885,47.334,174.794,47.334,176.126z M43.877,176.171c0,0.954,0.549,1.675,1.323,1.675c0.756,0,1.323-0.711,1.323-1.692   c0-0.738-0.369-1.675-1.305-1.675C44.282,174.479,43.877,175.343,43.877,176.171z"/>
	<path d="M48.557,173.984l0.576,2.215c0.126,0.486,0.243,0.937,0.324,1.387h0.027c0.099-0.441,0.243-0.909,0.387-1.378l0.711-2.224   h0.666l0.675,2.179c0.162,0.522,0.288,0.981,0.387,1.423h0.027c0.072-0.441,0.189-0.9,0.333-1.414l0.621-2.188h0.783l-1.404,4.357   h-0.72l-0.666-2.08c-0.153-0.485-0.279-0.918-0.387-1.431h-0.018c-0.108,0.521-0.243,0.972-0.396,1.44l-0.702,2.07h-0.72   l-1.314-4.357H48.557z"/>
	<path d="M55.234,176.307c0.018,1.071,0.702,1.512,1.495,1.512c0.567,0,0.909-0.099,1.207-0.225l0.135,0.567   c-0.279,0.126-0.756,0.27-1.449,0.27c-1.341,0-2.143-0.882-2.143-2.196s0.774-2.35,2.043-2.35c1.422,0,1.8,1.251,1.8,2.053   c0,0.162-0.018,0.288-0.027,0.369H55.234z M57.557,175.74c0.009-0.504-0.207-1.288-1.098-1.288c-0.801,0-1.152,0.738-1.215,1.288   H57.557z"/>
	<path d="M59.429,177.531c0.234,0.153,0.648,0.315,1.044,0.315c0.576,0,0.847-0.288,0.847-0.648c0-0.378-0.225-0.585-0.811-0.801   c-0.783-0.279-1.152-0.712-1.152-1.233c0-0.702,0.567-1.278,1.503-1.278c0.441,0,0.829,0.126,1.071,0.27l-0.198,0.576   c-0.171-0.107-0.486-0.252-0.892-0.252c-0.468,0-0.729,0.271-0.729,0.595c0,0.359,0.261,0.521,0.828,0.738   c0.756,0.288,1.144,0.666,1.144,1.313c0,0.766-0.594,1.306-1.629,1.306c-0.478,0-0.918-0.117-1.225-0.297L59.429,177.531z"/>
	<path d="M63.82,172.733v1.251h1.134v0.604H63.82v2.35c0,0.54,0.153,0.846,0.594,0.846c0.207,0,0.36-0.026,0.459-0.054l0.036,0.595   c-0.153,0.062-0.396,0.107-0.702,0.107c-0.369,0-0.666-0.117-0.855-0.333c-0.225-0.234-0.306-0.621-0.306-1.134v-2.377h-0.675   v-0.604h0.675v-1.044L63.82,172.733z"/>
	<path d="M70.895,177.667h-0.018c-0.234,0.432-0.72,0.773-1.422,0.773c-1.017,0-1.845-0.882-1.845-2.205   c0-1.63,1.053-2.35,1.971-2.35c0.675,0,1.125,0.333,1.342,0.756h0.018l0.027-0.657h0.747c-0.018,0.369-0.027,0.747-0.027,1.197   v4.942h-0.792V177.667z M70.895,175.749c0-0.108-0.009-0.234-0.036-0.333c-0.117-0.486-0.541-0.9-1.135-0.9   c-0.819,0-1.314,0.693-1.314,1.675c0,0.864,0.414,1.62,1.287,1.62c0.513,0,0.955-0.315,1.134-0.864   c0.036-0.108,0.063-0.261,0.063-0.378V175.749z"/>
	<path d="M77.132,177.153c0,0.45,0.009,0.847,0.036,1.188h-0.702l-0.045-0.711h-0.018c-0.207,0.351-0.667,0.81-1.44,0.81   c-0.685,0-1.503-0.378-1.503-1.908v-2.548h0.792v2.413c0,0.828,0.252,1.386,0.972,1.386c0.531,0,0.9-0.369,1.044-0.72   c0.045-0.117,0.072-0.261,0.072-0.405v-2.674h0.792V177.153z"/>
	<path d="M80.363,178.341l-0.063-0.549h-0.027c-0.243,0.342-0.711,0.647-1.333,0.647c-0.882,0-1.333-0.621-1.333-1.251   c0-1.054,0.937-1.63,2.62-1.62v-0.091c0-0.359-0.099-1.008-0.991-1.008c-0.405,0-0.828,0.126-1.134,0.324l-0.18-0.522   c0.36-0.234,0.882-0.387,1.431-0.387c1.333,0,1.657,0.909,1.657,1.782v1.63c0,0.378,0.018,0.747,0.072,1.044H80.363z    M80.246,176.118c-0.864-0.018-1.846,0.135-1.846,0.981c0,0.513,0.342,0.756,0.747,0.756c0.567,0,0.927-0.36,1.053-0.729   c0.027-0.08,0.045-0.171,0.045-0.252V176.118z"/>
	<path d="M82.126,175.343c0-0.513-0.009-0.954-0.036-1.359h0.693l0.027,0.855h0.036c0.198-0.585,0.675-0.954,1.207-0.954   c0.09,0,0.153,0.009,0.225,0.026v0.748c-0.081-0.019-0.162-0.027-0.27-0.027c-0.558,0-0.954,0.423-1.062,1.018   c-0.018,0.107-0.036,0.233-0.036,0.369v2.322h-0.783V175.343z"/>
	<path d="M86.437,172.733v1.251h1.134v0.604h-1.134v2.35c0,0.54,0.153,0.846,0.594,0.846c0.207,0,0.36-0.026,0.459-0.054   l0.036,0.595c-0.153,0.062-0.396,0.107-0.702,0.107c-0.369,0-0.666-0.117-0.855-0.333c-0.225-0.234-0.306-0.621-0.306-1.134v-2.377   h-0.675v-0.604h0.675v-1.044L86.437,172.733z"/>
	<path d="M89.011,172.759c0.009,0.271-0.189,0.486-0.504,0.486c-0.279,0-0.477-0.216-0.477-0.486c0-0.278,0.207-0.495,0.495-0.495   C88.822,172.264,89.011,172.481,89.011,172.759z M88.129,178.341v-4.357h0.792v4.357H88.129z"/>
	<path d="M90.325,171.95h0.792v6.392h-0.792V171.95z"/>
	<path d="M92.979,176.307c0.018,1.071,0.702,1.512,1.495,1.512c0.567,0,0.909-0.099,1.207-0.225l0.135,0.567   c-0.279,0.126-0.756,0.27-1.449,0.27c-1.341,0-2.143-0.882-2.143-2.196s0.774-2.35,2.043-2.35c1.422,0,1.8,1.251,1.8,2.053   c0,0.162-0.018,0.288-0.027,0.369H92.979z M95.302,175.74c0.009-0.504-0.207-1.288-1.098-1.288c-0.801,0-1.152,0.738-1.215,1.288   H95.302z"/>
</g>
<g>
	<path d="M108.617,172.274v2.538h2.935v-2.538h0.792v6.067h-0.792v-2.845h-2.935v2.845h-0.783v-6.067H108.617z"/>
	<path d="M114.639,172.759c0.009,0.271-0.189,0.486-0.504,0.486c-0.279,0-0.477-0.216-0.477-0.486c0-0.278,0.207-0.495,0.495-0.495   C114.45,172.264,114.639,172.481,114.639,172.759z M113.756,178.341v-4.357h0.792v4.357H113.756z"/>
	<path d="M119.706,173.984c-0.018,0.315-0.036,0.666-0.036,1.197v2.53c0,0.999-0.198,1.611-0.622,1.989   c-0.423,0.396-1.035,0.522-1.584,0.522c-0.522,0-1.098-0.126-1.449-0.36l0.198-0.604c0.288,0.181,0.738,0.343,1.278,0.343   c0.81,0,1.404-0.424,1.404-1.521v-0.486h-0.018c-0.243,0.405-0.711,0.729-1.386,0.729c-1.081,0-1.854-0.919-1.854-2.125   c0-1.477,0.963-2.313,1.962-2.313c0.756,0,1.17,0.396,1.359,0.756h0.018l0.036-0.657H119.706z M118.887,175.704   c0-0.135-0.009-0.252-0.045-0.36c-0.144-0.459-0.531-0.837-1.107-0.837c-0.756,0-1.296,0.639-1.296,1.647   c0,0.855,0.432,1.566,1.287,1.566c0.486,0,0.927-0.307,1.099-0.811c0.045-0.135,0.063-0.288,0.063-0.423V175.704z"/>
	<path d="M120.74,171.95h0.792v2.719h0.018c0.126-0.226,0.324-0.424,0.567-0.559c0.234-0.135,0.513-0.225,0.81-0.225   c0.585,0,1.521,0.359,1.521,1.863v2.593h-0.792v-2.503c0-0.702-0.261-1.296-1.008-1.296c-0.513,0-0.918,0.359-1.062,0.792   c-0.045,0.108-0.054,0.225-0.054,0.378v2.629h-0.792V171.95z"/>
	<path d="M126.419,176.307c0.018,1.071,0.702,1.512,1.495,1.512c0.567,0,0.909-0.099,1.207-0.225l0.135,0.567   c-0.279,0.126-0.756,0.27-1.449,0.27c-1.341,0-2.143-0.882-2.143-2.196s0.774-2.35,2.043-2.35c1.422,0,1.8,1.251,1.8,2.053   c0,0.162-0.018,0.288-0.027,0.369H126.419z M128.742,175.74c0.009-0.504-0.207-1.288-1.098-1.288c-0.801,0-1.152,0.738-1.215,1.288   H128.742z"/>
	<path d="M129.884,177.531c0.234,0.153,0.648,0.315,1.044,0.315c0.576,0,0.847-0.288,0.847-0.648c0-0.378-0.225-0.585-0.811-0.801   c-0.783-0.279-1.152-0.712-1.152-1.233c0-0.702,0.567-1.278,1.503-1.278c0.441,0,0.829,0.126,1.071,0.27l-0.198,0.576   c-0.171-0.107-0.486-0.252-0.892-0.252c-0.468,0-0.729,0.271-0.729,0.595c0,0.359,0.261,0.521,0.828,0.738   c0.756,0.288,1.144,0.666,1.144,1.313c0,0.766-0.594,1.306-1.629,1.306c-0.478,0-0.918-0.117-1.225-0.297L129.884,177.531z"/>
	<path d="M135.014,172.733v1.251h1.134v0.604h-1.134v2.35c0,0.54,0.153,0.846,0.594,0.846c0.207,0,0.36-0.026,0.459-0.054   l0.036,0.595c-0.153,0.062-0.396,0.107-0.702,0.107c-0.369,0-0.666-0.117-0.855-0.333c-0.225-0.234-0.306-0.621-0.306-1.134v-2.377   h-0.675v-0.604h0.675v-1.044L135.014,172.733z"/>
	<path d="M142.079,177.667h-0.018c-0.234,0.432-0.72,0.773-1.422,0.773c-1.017,0-1.845-0.882-1.845-2.205   c0-1.63,1.053-2.35,1.971-2.35c0.675,0,1.125,0.333,1.342,0.756h0.018l0.027-0.657h0.747c-0.018,0.369-0.027,0.747-0.027,1.197   v4.942h-0.792V177.667z M142.079,175.749c0-0.108-0.009-0.234-0.036-0.333c-0.117-0.486-0.541-0.9-1.135-0.9   c-0.819,0-1.314,0.693-1.314,1.675c0,0.864,0.414,1.62,1.287,1.62c0.513,0,0.954-0.315,1.134-0.864   c0.036-0.108,0.063-0.261,0.063-0.378V175.749z"/>
	<path d="M147.579,177.153c0,0.45,0.009,0.847,0.036,1.188h-0.702l-0.045-0.711h-0.018c-0.207,0.351-0.667,0.81-1.44,0.81   c-0.685,0-1.503-0.378-1.503-1.908v-2.548h0.792v2.413c0,0.828,0.252,1.386,0.972,1.386c0.531,0,0.9-0.369,1.044-0.72   c0.045-0.117,0.072-0.261,0.072-0.405v-2.674h0.792V177.153z"/>
	<path d="M151.547,178.341l-0.063-0.549h-0.027c-0.243,0.342-0.711,0.647-1.333,0.647c-0.882,0-1.333-0.621-1.333-1.251   c0-1.054,0.937-1.63,2.62-1.62v-0.091c0-0.359-0.099-1.008-0.99-1.008c-0.405,0-0.829,0.126-1.135,0.324l-0.18-0.522   c0.36-0.234,0.882-0.387,1.431-0.387c1.333,0,1.657,0.909,1.657,1.782v1.63c0,0.378,0.018,0.747,0.072,1.044H151.547z    M151.43,176.118c-0.864-0.018-1.845,0.135-1.845,0.981c0,0.513,0.342,0.756,0.747,0.756c0.567,0,0.927-0.36,1.053-0.729   c0.027-0.08,0.045-0.171,0.045-0.252V176.118z"/>
	<path d="M153.301,175.343c0-0.513-0.009-0.954-0.035-1.359h0.692l0.027,0.855h0.036c0.198-0.585,0.675-0.954,1.206-0.954   c0.09,0,0.153,0.009,0.226,0.026v0.748c-0.081-0.019-0.162-0.027-0.271-0.027c-0.558,0-0.954,0.423-1.062,1.018   c-0.018,0.107-0.035,0.233-0.035,0.369v2.322h-0.784V175.343z"/>
	<path d="M156.874,172.733v1.251h1.135v0.604h-1.135v2.35c0,0.54,0.153,0.846,0.595,0.846c0.207,0,0.359-0.026,0.459-0.054   l0.036,0.595c-0.153,0.062-0.396,0.107-0.702,0.107c-0.369,0-0.667-0.117-0.855-0.333c-0.226-0.234-0.307-0.621-0.307-1.134v-2.377   h-0.675v-0.604h0.675v-1.044L156.874,172.733z"/>
	<path d="M160.194,172.759c0.01,0.271-0.188,0.486-0.504,0.486c-0.279,0-0.477-0.216-0.477-0.486c0-0.278,0.207-0.495,0.495-0.495   C160.006,172.264,160.194,172.481,160.194,172.759z M159.312,178.341v-4.357h0.792v4.357H159.312z"/>
	<path d="M161.508,171.95h0.792v6.392h-0.792V171.95z"/>
	<path d="M163.426,176.307c0.018,1.071,0.702,1.512,1.494,1.512c0.567,0,0.909-0.099,1.206-0.225l0.136,0.567   c-0.279,0.126-0.757,0.27-1.45,0.27c-1.341,0-2.143-0.882-2.143-2.196s0.774-2.35,2.044-2.35c1.423,0,1.801,1.251,1.801,2.053   c0,0.162-0.019,0.288-0.027,0.369H163.426z M165.748,175.74c0.009-0.504-0.207-1.288-1.099-1.288c-0.801,0-1.152,0.738-1.215,1.288   H165.748z"/>
</g>
<g>
	<path d="M178.506,172.274h0.783v5.41h2.593v0.657h-3.376V172.274z"/>
	<path d="M186.508,176.126c0,1.611-1.116,2.313-2.17,2.313c-1.18,0-2.089-0.864-2.089-2.241c0-1.458,0.955-2.313,2.161-2.313   C185.661,173.885,186.508,174.794,186.508,176.126z M183.051,176.171c0,0.954,0.549,1.675,1.323,1.675   c0.756,0,1.323-0.711,1.323-1.692c0-0.738-0.369-1.675-1.306-1.675C183.456,174.479,183.051,175.343,183.051,176.171z"/>
	<path d="M187.723,173.984l0.576,2.215c0.126,0.486,0.243,0.937,0.323,1.387h0.027c0.1-0.441,0.243-0.909,0.388-1.378l0.711-2.224   h0.666l0.675,2.179c0.162,0.522,0.288,0.981,0.388,1.423h0.026c0.072-0.441,0.189-0.9,0.334-1.414l0.621-2.188h0.783l-1.404,4.357   h-0.721l-0.666-2.08c-0.153-0.485-0.279-0.918-0.387-1.431h-0.019c-0.108,0.521-0.243,0.972-0.396,1.44l-0.702,2.07h-0.72   l-1.314-4.357H187.723z"/>
	<path d="M194.4,176.307c0.018,1.071,0.702,1.512,1.494,1.512c0.567,0,0.909-0.099,1.206-0.225l0.136,0.567   c-0.279,0.126-0.757,0.27-1.45,0.27c-1.341,0-2.143-0.882-2.143-2.196s0.774-2.35,2.044-2.35c1.423,0,1.801,1.251,1.801,2.053   c0,0.162-0.019,0.288-0.027,0.369H194.4z M196.723,175.74c0.009-0.504-0.207-1.288-1.099-1.288c-0.801,0-1.152,0.738-1.215,1.288   H196.723z"/>
	<path d="M198.594,177.531c0.234,0.153,0.648,0.315,1.045,0.315c0.576,0,0.846-0.288,0.846-0.648c0-0.378-0.225-0.585-0.81-0.801   c-0.783-0.279-1.152-0.712-1.152-1.233c0-0.702,0.566-1.278,1.503-1.278c0.441,0,0.828,0.126,1.071,0.27l-0.198,0.576   c-0.171-0.107-0.485-0.252-0.891-0.252c-0.469,0-0.729,0.271-0.729,0.595c0,0.359,0.261,0.521,0.828,0.738   c0.756,0.288,1.144,0.666,1.144,1.313c0,0.766-0.595,1.306-1.63,1.306c-0.477,0-0.918-0.117-1.224-0.297L198.594,177.531z"/>
	<path d="M202.986,172.733v1.251h1.135v0.604h-1.135v2.35c0,0.54,0.153,0.846,0.595,0.846c0.207,0,0.359-0.026,0.459-0.054   l0.036,0.595c-0.153,0.062-0.396,0.107-0.702,0.107c-0.369,0-0.667-0.117-0.855-0.333c-0.226-0.234-0.307-0.621-0.307-1.134v-2.377   h-0.675v-0.604h0.675v-1.044L202.986,172.733z"/>
	<path d="M210.061,177.667h-0.018c-0.234,0.432-0.721,0.773-1.423,0.773c-1.018,0-1.846-0.882-1.846-2.205   c0-1.63,1.054-2.35,1.972-2.35c0.676,0,1.126,0.333,1.342,0.756h0.018l0.027-0.657h0.747c-0.018,0.369-0.027,0.747-0.027,1.197   v4.942h-0.792V177.667z M210.061,175.749c0-0.108-0.009-0.234-0.036-0.333c-0.117-0.486-0.54-0.9-1.134-0.9   c-0.819,0-1.314,0.693-1.314,1.675c0,0.864,0.414,1.62,1.287,1.62c0.514,0,0.954-0.315,1.135-0.864   c0.036-0.108,0.062-0.261,0.062-0.378V175.749z"/>
	<path d="M216.298,177.153c0,0.45,0.009,0.847,0.035,1.188h-0.702l-0.045-0.711h-0.018c-0.207,0.351-0.666,0.81-1.44,0.81   c-0.685,0-1.504-0.378-1.504-1.908v-2.548h0.793v2.413c0,0.828,0.252,1.386,0.972,1.386c0.531,0,0.9-0.369,1.045-0.72   c0.045-0.117,0.071-0.261,0.071-0.405v-2.674h0.793V177.153z"/>
	<path d="M219.528,178.341l-0.063-0.549h-0.027c-0.243,0.342-0.711,0.647-1.332,0.647c-0.882,0-1.332-0.621-1.332-1.251   c0-1.054,0.936-1.63,2.619-1.62v-0.091c0-0.359-0.099-1.008-0.99-1.008c-0.405,0-0.828,0.126-1.134,0.324l-0.181-0.522   c0.36-0.234,0.883-0.387,1.432-0.387c1.332,0,1.656,0.909,1.656,1.782v1.63c0,0.378,0.019,0.747,0.072,1.044H219.528z    M219.411,176.118c-0.864-0.018-1.846,0.135-1.846,0.981c0,0.513,0.342,0.756,0.747,0.756c0.567,0,0.928-0.36,1.054-0.729   c0.026-0.08,0.045-0.171,0.045-0.252V176.118z"/>
	<path d="M221.291,175.343c0-0.513-0.009-0.954-0.036-1.359h0.693l0.027,0.855h0.035c0.198-0.585,0.676-0.954,1.207-0.954   c0.09,0,0.152,0.009,0.225,0.026v0.748c-0.081-0.019-0.162-0.027-0.27-0.027c-0.559,0-0.955,0.423-1.062,1.018   c-0.019,0.107-0.036,0.233-0.036,0.369v2.322h-0.783V175.343z"/>
	<path d="M225.603,172.733v1.251h1.135v0.604h-1.135v2.35c0,0.54,0.153,0.846,0.595,0.846c0.207,0,0.359-0.026,0.459-0.054   l0.036,0.595c-0.153,0.062-0.396,0.107-0.702,0.107c-0.369,0-0.667-0.117-0.855-0.333c-0.226-0.234-0.307-0.621-0.307-1.134v-2.377   h-0.675v-0.604h0.675v-1.044L225.603,172.733z"/>
	<path d="M228.185,172.759c0.01,0.271-0.188,0.486-0.504,0.486c-0.279,0-0.477-0.216-0.477-0.486c0-0.278,0.207-0.495,0.495-0.495   C227.996,172.264,228.185,172.481,228.185,172.759z M227.303,178.341v-4.357h0.792v4.357H227.303z"/>
	<path d="M229.499,171.95h0.792v6.392h-0.792V171.95z"/>
	<path d="M232.154,176.307c0.018,1.071,0.702,1.512,1.494,1.512c0.567,0,0.909-0.099,1.206-0.225l0.136,0.567   c-0.279,0.126-0.757,0.27-1.45,0.27c-1.341,0-2.143-0.882-2.143-2.196s0.774-2.35,2.044-2.35c1.423,0,1.801,1.251,1.801,2.053   c0,0.162-0.019,0.288-0.027,0.369H232.154z M234.477,175.74c0.009-0.504-0.207-1.288-1.099-1.288c-0.801,0-1.152,0.738-1.215,1.288   H234.477z"/>
</g>
<g>
	<path d="M247.791,172.274v2.538h2.935v-2.538h0.792v6.067h-0.792v-2.845h-2.935v2.845h-0.783v-6.067H247.791z"/>
	<path d="M253.803,172.759c0.01,0.271-0.188,0.486-0.504,0.486c-0.279,0-0.477-0.216-0.477-0.486c0-0.278,0.207-0.495,0.495-0.495   C253.614,172.264,253.803,172.481,253.803,172.759z M252.921,178.341v-4.357h0.792v4.357H252.921z"/>
	<path d="M258.87,173.984c-0.018,0.315-0.036,0.666-0.036,1.197v2.53c0,0.999-0.198,1.611-0.621,1.989   c-0.423,0.396-1.035,0.522-1.584,0.522c-0.522,0-1.099-0.126-1.45-0.36l0.198-0.604c0.288,0.181,0.738,0.343,1.278,0.343   c0.811,0,1.404-0.424,1.404-1.521v-0.486h-0.018c-0.243,0.405-0.711,0.729-1.387,0.729c-1.08,0-1.854-0.919-1.854-2.125   c0-1.477,0.964-2.313,1.963-2.313c0.756,0,1.17,0.396,1.359,0.756h0.018l0.036-0.657H258.87z M258.051,175.704   c0-0.135-0.009-0.252-0.045-0.36c-0.144-0.459-0.531-0.837-1.107-0.837c-0.756,0-1.296,0.639-1.296,1.647   c0,0.855,0.432,1.566,1.287,1.566c0.486,0,0.928-0.307,1.099-0.811c0.045-0.135,0.062-0.288,0.062-0.423V175.704z"/>
	<path d="M259.904,171.95h0.792v2.719h0.019c0.126-0.226,0.324-0.424,0.566-0.559c0.234-0.135,0.514-0.225,0.811-0.225   c0.585,0,1.521,0.359,1.521,1.863v2.593h-0.792v-2.503c0-0.702-0.262-1.296-1.009-1.296c-0.513,0-0.918,0.359-1.062,0.792   c-0.046,0.108-0.055,0.225-0.055,0.378v2.629h-0.792V171.95z"/>
	<path d="M265.575,176.307c0.018,1.071,0.702,1.512,1.494,1.512c0.567,0,0.909-0.099,1.206-0.225l0.136,0.567   c-0.279,0.126-0.757,0.27-1.45,0.27c-1.341,0-2.143-0.882-2.143-2.196s0.774-2.35,2.044-2.35c1.423,0,1.801,1.251,1.801,2.053   c0,0.162-0.019,0.288-0.027,0.369H265.575z M267.897,175.74c0.009-0.504-0.207-1.288-1.099-1.288c-0.801,0-1.152,0.738-1.215,1.288   H267.897z"/>
	<path d="M269.039,177.531c0.234,0.153,0.648,0.315,1.045,0.315c0.576,0,0.846-0.288,0.846-0.648c0-0.378-0.225-0.585-0.81-0.801   c-0.783-0.279-1.152-0.712-1.152-1.233c0-0.702,0.566-1.278,1.503-1.278c0.441,0,0.828,0.126,1.071,0.27l-0.198,0.576   c-0.171-0.107-0.485-0.252-0.891-0.252c-0.469,0-0.729,0.271-0.729,0.595c0,0.359,0.261,0.521,0.828,0.738   c0.756,0.288,1.144,0.666,1.144,1.313c0,0.766-0.595,1.306-1.63,1.306c-0.477,0-0.918-0.117-1.224-0.297L269.039,177.531z"/>
	<path d="M274.169,172.733v1.251h1.135v0.604h-1.135v2.35c0,0.54,0.153,0.846,0.595,0.846c0.207,0,0.359-0.026,0.459-0.054   l0.036,0.595c-0.153,0.062-0.396,0.107-0.702,0.107c-0.369,0-0.667-0.117-0.855-0.333c-0.226-0.234-0.307-0.621-0.307-1.134v-2.377   h-0.675v-0.604h0.675v-1.044L274.169,172.733z"/>
	<path d="M281.234,177.667h-0.018c-0.234,0.432-0.721,0.773-1.423,0.773c-1.018,0-1.846-0.882-1.846-2.205   c0-1.63,1.054-2.35,1.972-2.35c0.676,0,1.126,0.333,1.342,0.756h0.018l0.027-0.657h0.747c-0.018,0.369-0.027,0.747-0.027,1.197   v4.942h-0.792V177.667z M281.234,175.749c0-0.108-0.009-0.234-0.036-0.333c-0.117-0.486-0.54-0.9-1.134-0.9   c-0.819,0-1.314,0.693-1.314,1.675c0,0.864,0.414,1.62,1.287,1.62c0.514,0,0.954-0.315,1.135-0.864   c0.036-0.108,0.062-0.261,0.062-0.378V175.749z"/>
	<path d="M286.733,177.153c0,0.45,0.009,0.847,0.035,1.188h-0.702l-0.045-0.711h-0.018c-0.207,0.351-0.666,0.81-1.44,0.81   c-0.685,0-1.504-0.378-1.504-1.908v-2.548h0.793v2.413c0,0.828,0.252,1.386,0.972,1.386c0.531,0,0.9-0.369,1.045-0.72   c0.045-0.117,0.071-0.261,0.071-0.405v-2.674h0.793V177.153z"/>
	<path d="M290.693,178.341l-0.063-0.549h-0.027c-0.242,0.342-0.711,0.647-1.332,0.647c-0.882,0-1.332-0.621-1.332-1.251   c0-1.054,0.936-1.63,2.619-1.62v-0.091c0-0.359-0.099-1.008-0.99-1.008c-0.405,0-0.828,0.126-1.134,0.324l-0.181-0.522   c0.36-0.234,0.883-0.387,1.432-0.387c1.332,0,1.656,0.909,1.656,1.782v1.63c0,0.378,0.019,0.747,0.072,1.044H290.693z    M290.576,176.118c-0.864-0.018-1.846,0.135-1.846,0.981c0,0.513,0.342,0.756,0.747,0.756c0.567,0,0.928-0.36,1.054-0.729   c0.026-0.08,0.045-0.171,0.045-0.252V176.118z"/>
	<path d="M292.456,175.343c0-0.513-0.009-0.954-0.036-1.359h0.693l0.027,0.855h0.035c0.198-0.585,0.676-0.954,1.207-0.954   c0.09,0,0.153,0.009,0.225,0.026v0.748c-0.081-0.019-0.162-0.027-0.27-0.027c-0.559,0-0.954,0.423-1.062,1.018   c-0.019,0.107-0.036,0.233-0.036,0.369v2.322h-0.783V175.343z"/>
	<path d="M296.021,172.733v1.251h1.135v0.604h-1.135v2.35c0,0.54,0.153,0.846,0.595,0.846c0.207,0,0.359-0.026,0.459-0.054   l0.036,0.595c-0.153,0.062-0.396,0.107-0.702,0.107c-0.369,0-0.667-0.117-0.855-0.333c-0.226-0.234-0.307-0.621-0.307-1.134v-2.377   h-0.675v-0.604h0.675v-1.044L296.021,172.733z"/>
	<path d="M299.35,172.759c0.01,0.271-0.188,0.486-0.504,0.486c-0.279,0-0.477-0.216-0.477-0.486c0-0.278,0.207-0.495,0.495-0.495   C299.161,172.264,299.35,172.481,299.35,172.759z M298.468,178.341v-4.357h0.792v4.357H298.468z"/>
	<path d="M300.663,171.95h0.792v6.392h-0.792V171.95z"/>
	<path d="M302.58,176.307c0.018,1.071,0.702,1.512,1.494,1.512c0.567,0,0.909-0.099,1.206-0.225l0.136,0.567   c-0.279,0.126-0.757,0.27-1.45,0.27c-1.341,0-2.143-0.882-2.143-2.196s0.774-2.35,2.044-2.35c1.423,0,1.801,1.251,1.801,2.053   c0,0.162-0.019,0.288-0.027,0.369H302.58z M304.902,175.74c0.009-0.504-0.207-1.288-1.099-1.288c-0.801,0-1.152,0.738-1.215,1.288   H304.902z"/>
</g>
<g>
	<path d="M75.676,190.008h3.268v0.657h-2.485v2.017h2.296v0.647h-2.296v2.746h-0.783V190.008z"/>
	<path d="M82.526,196.076l-0.063-0.549h-0.027c-0.243,0.342-0.711,0.647-1.333,0.647c-0.882,0-1.333-0.621-1.333-1.251   c0-1.054,0.937-1.63,2.62-1.62v-0.091c0-0.359-0.099-1.008-0.991-1.008c-0.405,0-0.828,0.126-1.134,0.324l-0.18-0.522   c0.36-0.234,0.882-0.387,1.431-0.387c1.333,0,1.657,0.909,1.657,1.782v1.63c0,0.378,0.018,0.747,0.072,1.044H82.526z    M82.409,193.852c-0.864-0.018-1.846,0.135-1.846,0.981c0,0.513,0.342,0.756,0.747,0.756c0.567,0,0.927-0.36,1.053-0.729   c0.027-0.08,0.045-0.171,0.045-0.252V193.852z"/>
	<path d="M84.289,192.898c0-0.45-0.009-0.819-0.036-1.18h0.693l0.036,0.702h0.027c0.243-0.414,0.648-0.801,1.368-0.801   c0.594,0,1.044,0.359,1.233,0.873h0.018c0.135-0.243,0.306-0.433,0.486-0.567c0.261-0.198,0.549-0.306,0.963-0.306   c0.576,0,1.431,0.378,1.431,1.891v2.565h-0.774v-2.467c0-0.837-0.306-1.342-0.945-1.342c-0.45,0-0.801,0.334-0.937,0.721   c-0.036,0.108-0.063,0.252-0.063,0.396v2.691h-0.774v-2.61c0-0.693-0.306-1.198-0.909-1.198c-0.495,0-0.855,0.396-0.981,0.793   c-0.045,0.117-0.063,0.252-0.063,0.387v2.629h-0.774V192.898z"/>
	<path d="M92.515,190.494c0.009,0.271-0.189,0.486-0.504,0.486c-0.279,0-0.477-0.216-0.477-0.486c0-0.278,0.207-0.495,0.495-0.495   C92.326,189.999,92.515,190.215,92.515,190.494z M91.633,196.076v-4.357h0.792v4.357H91.633z"/>
	<path d="M93.829,189.684h0.792v6.392h-0.792V189.684z"/>
	<path d="M96.331,191.718l0.954,2.575c0.099,0.288,0.207,0.63,0.279,0.891h0.018c0.081-0.261,0.171-0.594,0.279-0.909l0.864-2.557   h0.837l-1.188,3.106c-0.567,1.494-0.954,2.26-1.494,2.728c-0.387,0.342-0.774,0.477-0.973,0.513l-0.198-0.666   c0.198-0.062,0.459-0.188,0.693-0.387c0.216-0.171,0.486-0.478,0.667-0.883c0.036-0.081,0.063-0.144,0.063-0.188   s-0.018-0.108-0.054-0.207l-1.611-4.016H96.331z"/>
	<path d="M102.829,190.494c0.009,0.271-0.189,0.486-0.504,0.486c-0.279,0-0.477-0.216-0.477-0.486c0-0.278,0.207-0.495,0.495-0.495   C102.64,189.999,102.829,190.215,102.829,190.494z M101.946,196.076v-4.357h0.792v4.357H101.946z"/>
	<path d="M104.143,192.898c0-0.45-0.009-0.819-0.036-1.18h0.702l0.045,0.721h0.018c0.216-0.414,0.72-0.819,1.44-0.819   c0.604,0,1.54,0.359,1.54,1.854v2.602h-0.792v-2.512c0-0.702-0.261-1.287-1.008-1.287c-0.522,0-0.927,0.369-1.062,0.81   c-0.036,0.1-0.054,0.234-0.054,0.369v2.62h-0.792V192.898z"/>
	<path d="M112.486,195.914c-0.207,0.108-0.666,0.252-1.251,0.252c-1.314,0-2.169-0.891-2.169-2.224c0-1.341,0.918-2.313,2.34-2.313   c0.468,0,0.882,0.117,1.099,0.225l-0.18,0.612c-0.189-0.107-0.486-0.207-0.918-0.207c-0.999,0-1.539,0.738-1.539,1.647   c0,1.009,0.648,1.63,1.512,1.63c0.45,0,0.747-0.117,0.972-0.216L112.486,195.914z"/>
	<path d="M117.518,193.861c0,1.611-1.117,2.313-2.17,2.313c-1.179,0-2.088-0.864-2.088-2.241c0-1.458,0.954-2.313,2.161-2.313   C116.671,191.62,117.518,192.529,117.518,193.861z M114.061,193.906c0,0.954,0.549,1.675,1.323,1.675   c0.756,0,1.323-0.711,1.323-1.692c0-0.738-0.369-1.675-1.305-1.675C114.466,192.213,114.061,193.078,114.061,193.906z"/>
	<path d="M118.426,192.898c0-0.45-0.009-0.819-0.036-1.18h0.693l0.036,0.702h0.027c0.243-0.414,0.648-0.801,1.368-0.801   c0.594,0,1.044,0.359,1.233,0.873h0.018c0.135-0.243,0.306-0.433,0.486-0.567c0.261-0.198,0.549-0.306,0.963-0.306   c0.576,0,1.431,0.378,1.431,1.891v2.565h-0.774v-2.467c0-0.837-0.306-1.342-0.945-1.342c-0.45,0-0.801,0.334-0.937,0.721   c-0.036,0.108-0.063,0.252-0.063,0.396v2.691h-0.774v-2.61c0-0.693-0.306-1.198-0.909-1.198c-0.495,0-0.855,0.396-0.981,0.793   c-0.045,0.117-0.063,0.252-0.063,0.387v2.629h-0.774V192.898z"/>
	<path d="M126.21,194.042c0.018,1.071,0.703,1.512,1.495,1.512c0.567,0,0.909-0.099,1.207-0.225l0.135,0.567   c-0.279,0.126-0.756,0.27-1.449,0.27c-1.341,0-2.143-0.882-2.143-2.196s0.774-2.35,2.043-2.35c1.422,0,1.8,1.251,1.8,2.053   c0,0.162-0.018,0.288-0.027,0.369H126.21z M128.533,193.474c0.009-0.504-0.207-1.288-1.098-1.288c-0.801,0-1.152,0.738-1.215,1.288   H128.533z"/>
</g>
<g>
	<path d="M212.442,190.08c0.378-0.062,0.873-0.117,1.503-0.117c0.774,0,1.342,0.181,1.702,0.505c0.333,0.288,0.53,0.729,0.53,1.27   c0,0.549-0.162,0.98-0.468,1.296c-0.414,0.441-1.089,0.666-1.854,0.666c-0.234,0-0.45-0.009-0.63-0.054v2.431h-0.783V190.08z    M213.226,193.005c0.171,0.046,0.387,0.063,0.647,0.063c0.945,0,1.521-0.459,1.521-1.297c0-0.801-0.566-1.188-1.431-1.188   c-0.343,0-0.604,0.026-0.738,0.062V193.005z"/>
	<path d="M221.065,193.861c0,1.611-1.116,2.313-2.17,2.313c-1.18,0-2.089-0.864-2.089-2.241c0-1.458,0.954-2.313,2.161-2.313   C220.219,191.62,221.065,192.529,221.065,193.861z M217.608,193.906c0,0.954,0.549,1.675,1.323,1.675   c0.756,0,1.323-0.711,1.323-1.692c0-0.738-0.369-1.675-1.306-1.675C218.014,192.213,217.608,193.078,217.608,193.906z"/>
	<path d="M221.974,189.684h0.792v6.392h-0.792V189.684z"/>
	<path d="M224.476,191.718l0.954,2.575c0.1,0.288,0.207,0.63,0.279,0.891h0.018c0.081-0.261,0.172-0.594,0.279-0.909l0.864-2.557   h0.838l-1.188,3.106c-0.567,1.494-0.955,2.26-1.495,2.728c-0.387,0.342-0.773,0.477-0.972,0.513l-0.198-0.666   c0.198-0.062,0.459-0.188,0.693-0.387c0.216-0.171,0.486-0.478,0.666-0.883c0.036-0.081,0.062-0.144,0.062-0.188   s-0.018-0.108-0.054-0.207l-1.611-4.016H224.476z"/>
	<path d="M232.181,191.718c-0.018,0.315-0.036,0.666-0.036,1.197v2.53c0,0.999-0.198,1.611-0.621,1.989   c-0.423,0.396-1.035,0.522-1.584,0.522c-0.522,0-1.099-0.126-1.45-0.36l0.198-0.604c0.288,0.181,0.738,0.343,1.278,0.343   c0.811,0,1.404-0.424,1.404-1.521v-0.486h-0.018c-0.243,0.405-0.711,0.729-1.387,0.729c-1.08,0-1.854-0.919-1.854-2.125   c0-1.477,0.964-2.313,1.963-2.313c0.756,0,1.17,0.396,1.359,0.756h0.018l0.036-0.657H232.181z M231.361,193.438   c0-0.135-0.009-0.252-0.045-0.36c-0.144-0.459-0.531-0.837-1.107-0.837c-0.756,0-1.296,0.639-1.296,1.647   c0,0.855,0.432,1.566,1.287,1.566c0.486,0,0.928-0.307,1.099-0.811c0.045-0.135,0.062-0.288,0.062-0.423V193.438z"/>
	<path d="M233.656,194.042c0.018,1.071,0.702,1.512,1.494,1.512c0.567,0,0.909-0.099,1.206-0.225l0.136,0.567   c-0.279,0.126-0.757,0.27-1.45,0.27c-1.341,0-2.143-0.882-2.143-2.196s0.774-2.35,2.044-2.35c1.423,0,1.801,1.251,1.801,2.053   c0,0.162-0.019,0.288-0.027,0.369H233.656z M235.979,193.474c0.009-0.504-0.207-1.288-1.099-1.288   c-0.801,0-1.152,0.738-1.215,1.288H235.979z"/>
	<path d="M237.967,192.898c0-0.45-0.009-0.819-0.036-1.18h0.702l0.045,0.721h0.019c0.216-0.414,0.72-0.819,1.44-0.819   c0.603,0,1.539,0.359,1.539,1.854v2.602h-0.792v-2.512c0-0.702-0.262-1.287-1.009-1.287c-0.521,0-0.927,0.369-1.062,0.81   c-0.036,0.1-0.055,0.234-0.055,0.369v2.62h-0.792V192.898z"/>
	<path d="M244.087,190.494c0.01,0.271-0.188,0.486-0.504,0.486c-0.279,0-0.477-0.216-0.477-0.486c0-0.278,0.207-0.495,0.495-0.495   C243.898,189.999,244.087,190.215,244.087,190.494z M243.205,196.076v-4.357h0.792v4.357H243.205z"/>
	<path d="M248.506,195.914c-0.207,0.108-0.666,0.252-1.251,0.252c-1.314,0-2.17-0.891-2.17-2.224c0-1.341,0.919-2.313,2.341-2.313   c0.469,0,0.883,0.117,1.099,0.225l-0.18,0.612c-0.189-0.107-0.486-0.207-0.919-0.207c-0.999,0-1.539,0.738-1.539,1.647   c0,1.009,0.648,1.63,1.513,1.63c0.449,0,0.747-0.117,0.972-0.216L248.506,195.914z"/>
	<path d="M252.133,190.494c0.01,0.271-0.188,0.486-0.504,0.486c-0.279,0-0.477-0.216-0.477-0.486c0-0.278,0.207-0.495,0.495-0.495   C251.944,189.999,252.133,190.215,252.133,190.494z M251.251,196.076v-4.357h0.792v4.357H251.251z"/>
	<path d="M253.446,192.898c0-0.45-0.009-0.819-0.036-1.18h0.702l0.045,0.721h0.019c0.216-0.414,0.72-0.819,1.44-0.819   c0.603,0,1.539,0.359,1.539,1.854v2.602h-0.792v-2.512c0-0.702-0.261-1.287-1.009-1.287c-0.521,0-0.927,0.369-1.062,0.81   c-0.036,0.1-0.055,0.234-0.055,0.369v2.62h-0.792V192.898z"/>
	<path d="M261.709,189.684v5.267c0,0.387,0.01,0.828,0.036,1.125h-0.711l-0.036-0.756h-0.018c-0.243,0.485-0.774,0.854-1.485,0.854   c-1.054,0-1.864-0.891-1.864-2.214c-0.009-1.45,0.892-2.341,1.954-2.341c0.666,0,1.116,0.314,1.314,0.666h0.018v-2.602H261.709z    M260.917,193.492c0-0.099-0.009-0.233-0.036-0.333c-0.117-0.504-0.549-0.918-1.144-0.918c-0.818,0-1.305,0.72-1.305,1.684   c0,0.882,0.432,1.611,1.287,1.611c0.531,0,1.018-0.352,1.161-0.945c0.027-0.108,0.036-0.216,0.036-0.342V193.492z"/>
	<path d="M263.959,194.042c0.018,1.071,0.702,1.512,1.494,1.512c0.567,0,0.909-0.099,1.206-0.225l0.136,0.567   c-0.279,0.126-0.757,0.27-1.45,0.27c-1.341,0-2.143-0.882-2.143-2.196s0.774-2.35,2.044-2.35c1.423,0,1.801,1.251,1.801,2.053   c0,0.162-0.019,0.288-0.027,0.369H263.959z M266.281,193.474c0.009-0.504-0.207-1.288-1.099-1.288   c-0.801,0-1.152,0.738-1.215,1.288H266.281z"/>
	<path d="M267.9,191.718l0.621,0.937c0.162,0.243,0.297,0.468,0.441,0.711h0.026c0.145-0.261,0.288-0.486,0.433-0.72l0.612-0.928   h0.855l-1.486,2.106l1.531,2.251h-0.9l-0.64-0.981c-0.171-0.252-0.314-0.495-0.468-0.756h-0.019   c-0.144,0.261-0.297,0.495-0.459,0.756l-0.63,0.981h-0.873l1.548-2.224l-1.476-2.134H267.9z"/>
</g>
<g>
	<path d="M0.504,141.043c-0.081-0.396-0.126-0.963-0.126-1.503c0-0.837,0.153-1.378,0.495-1.756c0.27-0.306,0.684-0.477,1.152-0.477   c0.801,0,1.333,0.504,1.548,1.143h0.027c0.162-0.468,0.594-0.747,1.224-0.891c0.846-0.198,1.432-0.343,1.666-0.469v0.811   c-0.171,0.099-0.693,0.234-1.449,0.405c-0.837,0.18-1.152,0.504-1.18,1.215v0.738h2.629v0.783H0.504z M3.268,140.26v-0.801   c0-0.837-0.459-1.368-1.152-1.368c-0.783,0-1.125,0.566-1.134,1.396c0,0.378,0.036,0.647,0.072,0.773H3.268z"/>
	<path d="M6.491,133.816l-0.549,0.063v0.027c0.342,0.242,0.648,0.711,0.648,1.332c0,0.882-0.621,1.332-1.251,1.332   c-1.053,0-1.629-0.936-1.621-2.619h-0.09c-0.36,0-1.008,0.099-1.008,0.99c0,0.405,0.126,0.828,0.324,1.134l-0.522,0.181   c-0.234-0.36-0.387-0.883-0.387-1.432c0-1.332,0.91-1.656,1.783-1.656h1.629c0.378,0,0.748-0.019,1.044-0.072V133.816z    M4.267,133.933c-0.018,0.864,0.135,1.846,0.981,1.846c0.513,0,0.756-0.342,0.756-0.747c0-0.567-0.36-0.928-0.729-1.054   c-0.081-0.026-0.171-0.045-0.252-0.045H4.267z"/>
	<path d="M0.882,130.937h1.251v-1.135h0.604v1.135h2.35c0.54,0,0.846-0.153,0.846-0.595c0-0.207-0.027-0.359-0.054-0.459   l0.594-0.036c0.063,0.153,0.108,0.396,0.108,0.702c0,0.369-0.117,0.667-0.333,0.855c-0.234,0.226-0.621,0.307-1.134,0.307H2.737   v0.675H2.133v-0.675H1.089L0.882,130.937z"/>
	<path d="M4.456,128.471c1.071-0.018,1.513-0.702,1.513-1.494c0-0.567-0.099-0.909-0.225-1.206l0.567-0.136   c0.126,0.279,0.27,0.757,0.27,1.45c0,1.341-0.882,2.143-2.196,2.143c-1.314,0-2.35-0.774-2.35-2.044   c0-1.423,1.251-1.801,2.053-1.801c0.162,0,0.288,0.019,0.369,0.027V128.471z M3.889,126.149c-0.504-0.009-1.288,0.207-1.288,1.099   c0,0.801,0.738,1.152,1.288,1.215V126.149z"/>
	<path d="M4.276,118.552c1.612,0,2.314,1.116,2.314,2.17c0,1.18-0.864,2.089-2.242,2.089c-1.458,0-2.314-0.955-2.314-2.161   C2.034,119.399,2.944,118.552,4.276,118.552z M4.321,122.009c0.954,0,1.674-0.549,1.674-1.323c0-0.756-0.711-1.323-1.692-1.323   c-0.738,0-1.675,0.369-1.675,1.306C2.628,121.604,3.493,122.009,4.321,122.009z"/>
	<path d="M6.491,117.473H2.737v0.612H2.133v-0.612H1.926c-0.612,0-1.17-0.135-1.521-0.504C0.117,116.672,0,116.276,0,115.907   c0-0.279,0.063-0.522,0.126-0.675l0.612,0.107c-0.054,0.117-0.099,0.279-0.099,0.504c0,0.676,0.594,0.847,1.26,0.847h0.234v-1.054   h0.604v1.054h3.754V117.473z"/>
	<path d="M6.329,109.913c0.108,0.207,0.252,0.666,0.252,1.251c0,1.314-0.891,2.17-2.224,2.17c-1.341,0-2.313-0.919-2.313-2.341   c0-0.469,0.117-0.883,0.225-1.099l0.612,0.181c-0.108,0.188-0.207,0.485-0.207,0.918c0,0.999,0.738,1.539,1.647,1.539   c1.008,0,1.629-0.648,1.629-1.513c0-0.449-0.117-0.747-0.216-0.972L6.329,109.913z"/>
	<path d="M4.276,105.042c1.612,0,2.314,1.116,2.314,2.17c0,1.18-0.864,2.089-2.242,2.089c-1.458,0-2.314-0.955-2.314-2.161   C2.034,105.889,2.944,105.042,4.276,105.042z M4.321,108.5c0.954,0,1.674-0.549,1.674-1.323c0-0.756-0.711-1.323-1.692-1.323   c-0.738,0-1.675,0.369-1.675,1.306C2.628,108.094,3.493,108.5,4.321,108.5z"/>
	<path d="M0.099,104.044v-0.792h6.392v0.792H0.099z"/>
	<path d="M0.099,101.92v-0.792h6.392v0.792H0.099z"/>
	<path d="M4.456,99.355c1.071-0.018,1.513-0.702,1.513-1.494c0-0.567-0.099-0.909-0.225-1.206l0.567-0.136   c0.126,0.279,0.27,0.757,0.27,1.45c0,1.341-0.882,2.143-2.196,2.143c-1.314,0-2.35-0.774-2.35-2.044   c0-1.423,1.251-1.801,2.053-1.801c0.162,0,0.288,0.019,0.369,0.027V99.355z M3.889,97.033c-0.504-0.009-1.288,0.207-1.288,1.099   c0,0.801,0.738,1.152,1.288,1.215V97.033z"/>
	<path d="M2.133,91.534c0.315,0.018,0.667,0.036,1.197,0.036h2.53c1,0,1.612,0.198,1.99,0.622c0.396,0.423,0.522,1.035,0.522,1.584   c0,0.522-0.126,1.098-0.36,1.45l-0.603-0.199c0.18-0.288,0.342-0.738,0.342-1.278c0-0.81-0.423-1.404-1.521-1.404H5.744v0.018   c0.405,0.243,0.729,0.711,0.729,1.386c0,1.081-0.918,1.855-2.125,1.855c-1.477,0-2.314-0.963-2.314-1.963   c0-0.756,0.396-1.17,0.756-1.359v-0.018l-0.657-0.036V91.534z M3.853,92.353c-0.135,0-0.252,0.009-0.36,0.045   c-0.459,0.144-0.837,0.531-0.837,1.107c0,0.756,0.639,1.296,1.647,1.296c0.855,0,1.566-0.432,1.566-1.287   c0-0.486-0.306-0.927-0.811-1.099c-0.135-0.045-0.288-0.063-0.423-0.063H3.853z"/>
	<path d="M4.456,89.816c1.071-0.018,1.513-0.702,1.513-1.495c0-0.567-0.099-0.909-0.225-1.207l0.567-0.135   c0.126,0.279,0.27,0.756,0.27,1.449c0,1.341-0.882,2.143-2.196,2.143c-1.314,0-2.35-0.774-2.35-2.043c0-1.422,1.251-1.8,2.053-1.8   c0.162,0,0.288,0.018,0.369,0.027V89.816z M3.889,87.493c-0.504-0.009-1.288,0.207-1.288,1.098c0,0.801,0.738,1.152,1.288,1.215   V87.493z"/>
	<path d="M6.329,80.734c0.108,0.207,0.252,0.667,0.252,1.251c0,1.314-0.891,2.169-2.224,2.169c-1.341,0-2.313-0.918-2.313-2.34   c0-0.468,0.117-0.882,0.225-1.099l0.612,0.18c-0.108,0.189-0.207,0.486-0.207,0.918c0,0.999,0.738,1.539,1.647,1.539   c1.008,0,1.629-0.648,1.629-1.512c0-0.45-0.117-0.747-0.216-0.972L6.329,80.734z"/>
	<path d="M4.276,75.865c1.612,0,2.314,1.117,2.314,2.17c0,1.179-0.864,2.088-2.242,2.088c-1.458,0-2.314-0.954-2.314-2.161   C2.034,76.711,2.944,75.865,4.276,75.865z M4.321,79.322c0.954,0,1.674-0.549,1.674-1.323c0-0.756-0.711-1.323-1.692-1.323   c-0.738,0-1.675,0.369-1.675,1.305C2.628,78.917,3.493,79.322,4.321,79.322z"/>
	<path d="M3.313,74.867c-0.45,0-0.819,0.009-1.18,0.036V74.21l0.702-0.036v-0.027c-0.414-0.243-0.801-0.648-0.801-1.368   c0-0.594,0.36-1.044,0.874-1.233v-0.018c-0.243-0.135-0.432-0.306-0.567-0.486c-0.198-0.261-0.306-0.549-0.306-0.963   c0-0.576,0.378-1.431,1.891-1.431h2.566v0.774H4.024c-0.837,0-1.341,0.306-1.341,0.945c0,0.45,0.333,0.801,0.72,0.937   c0.108,0.036,0.252,0.063,0.396,0.063h2.692v0.774H3.88c-0.693,0-1.197,0.306-1.197,0.91c0,0.495,0.396,0.855,0.792,0.981   c0.117,0.045,0.252,0.063,0.387,0.063h2.629v0.774H3.313z"/>
	<path d="M3.556,67.361c-0.558,0-1.008,0.018-1.422,0.036v-0.711l0.748-0.036v-0.018c-0.531-0.324-0.847-0.837-0.847-1.549   c0-1.053,0.892-1.845,2.215-1.845c1.566,0,2.341,0.954,2.341,1.98c0,0.576-0.252,1.08-0.684,1.341v0.018h2.368v0.783H3.556z    M4.717,66.578c0.117,0,0.225-0.018,0.324-0.036c0.549-0.144,0.927-0.621,0.927-1.188c0-0.837-0.685-1.324-1.684-1.324   c-0.874,0-1.621,0.459-1.621,1.296c0,0.54,0.387,1.044,0.981,1.197c0.099,0.027,0.216,0.054,0.324,0.054H4.717z"/>
	<path d="M0.099,62.24v-0.792h6.392v0.792H0.099z"/>
	<path d="M4.456,59.675c1.071-0.018,1.513-0.702,1.513-1.495c0-0.567-0.099-0.909-0.225-1.207l0.567-0.135   c0.126,0.279,0.27,0.756,0.27,1.449c0,1.341-0.882,2.143-2.196,2.143c-1.314,0-2.35-0.774-2.35-2.043c0-1.422,1.251-1.8,2.053-1.8   c0.162,0,0.288,0.018,0.369,0.027V59.675z M3.889,57.353c-0.504-0.009-1.288,0.207-1.288,1.098c0,0.801,0.738,1.152,1.288,1.215   V57.353z"/>
	<path d="M0.882,54.653h1.251v-1.134h0.604v1.134h2.35c0.54,0,0.846-0.153,0.846-0.594c0-0.207-0.027-0.36-0.054-0.459l0.594-0.036   c0.063,0.153,0.108,0.396,0.108,0.702c0,0.369-0.117,0.666-0.333,0.855c-0.234,0.225-0.621,0.306-1.134,0.306H2.737v0.675H2.133   v-0.675H1.089L0.882,54.653z"/>
	<path d="M0.909,51.746c0.27-0.009,0.486,0.189,0.486,0.504c0,0.279-0.216,0.477-0.486,0.477c-0.279,0-0.495-0.207-0.495-0.495   C0.414,51.935,0.63,51.746,0.909,51.746z M6.491,52.628H2.133v-0.792h4.357V52.628z"/>
	<path d="M4.276,46.579c1.612,0,2.314,1.117,2.314,2.17c0,1.179-0.864,2.088-2.242,2.088c-1.458,0-2.314-0.954-2.314-2.161   C2.034,47.426,2.944,46.579,4.276,46.579z M4.321,50.036c0.954,0,1.674-0.549,1.674-1.323c0-0.756-0.711-1.323-1.692-1.323   c-0.738,0-1.675,0.369-1.675,1.305C2.628,49.631,3.493,50.036,4.321,50.036z"/>
	<path d="M3.313,45.582c-0.45,0-0.819,0.009-1.18,0.036v-0.702l0.72-0.045v-0.018c-0.414-0.216-0.819-0.72-0.819-1.44   c0-0.604,0.36-1.54,1.855-1.54h2.602v0.792H3.979c-0.702,0-1.288,0.261-1.288,1.008c0,0.522,0.369,0.927,0.811,1.062   c0.099,0.036,0.234,0.054,0.369,0.054h2.62v0.792H3.313z"/>
</g>
<g>
	<path d="M94.968,3.547h-2.359v2.188h2.629v0.657h-3.412V0.324h3.277v0.657h-2.494v1.917h2.359V3.547z"/>
	<path d="M99.99,0v5.267c0,0.387,0.009,0.829,0.036,1.125h-0.711l-0.036-0.756H99.26c-0.243,0.486-0.774,0.855-1.485,0.855   c-1.053,0-1.863-0.891-1.863-2.215c-0.009-1.449,0.891-2.341,1.954-2.341c0.666,0,1.116,0.315,1.314,0.667h0.018V0H99.99z    M99.197,3.808c0-0.099-0.009-0.234-0.036-0.333c-0.117-0.504-0.549-0.918-1.144-0.918c-0.819,0-1.305,0.72-1.305,1.683   c0,0.882,0.432,1.612,1.287,1.612c0.531,0,1.018-0.351,1.162-0.945c0.027-0.108,0.036-0.216,0.036-0.342V3.808z"/>
	<path d="M104.949,5.204c0,0.45,0.009,0.846,0.036,1.188h-0.702l-0.045-0.711h-0.018c-0.207,0.351-0.667,0.811-1.44,0.811   c-0.685,0-1.503-0.378-1.503-1.909V2.035h0.792v2.413c0,0.828,0.252,1.386,0.972,1.386c0.531,0,0.9-0.369,1.044-0.72   c0.045-0.117,0.072-0.261,0.072-0.405V2.035h0.792V5.204z"/>
	<path d="M109.368,6.23c-0.207,0.108-0.667,0.252-1.251,0.252c-1.314,0-2.169-0.891-2.169-2.224c0-1.341,0.918-2.313,2.34-2.313   c0.468,0,0.882,0.117,1.099,0.225l-0.18,0.612c-0.189-0.108-0.486-0.208-0.918-0.208c-0.999,0-1.539,0.738-1.539,1.648   c0,1.008,0.648,1.629,1.512,1.629c0.45,0,0.747-0.117,0.972-0.216L109.368,6.23z"/>
	<path d="M112.707,6.392l-0.063-0.549h-0.027c-0.243,0.342-0.711,0.648-1.333,0.648c-0.882,0-1.333-0.621-1.333-1.251   c0-1.053,0.937-1.629,2.62-1.621v-0.09c0-0.36-0.099-1.008-0.991-1.008c-0.405,0-0.828,0.126-1.134,0.324l-0.18-0.522   c0.36-0.234,0.882-0.387,1.431-0.387c1.333,0,1.657,0.91,1.657,1.783v1.629c0,0.378,0.018,0.748,0.072,1.044H112.707z    M112.59,4.168c-0.864-0.018-1.846,0.135-1.846,0.981c0,0.513,0.342,0.756,0.747,0.756c0.567,0,0.927-0.36,1.053-0.729   c0.027-0.081,0.045-0.171,0.045-0.252V4.168z"/>
	<path d="M115.586,0.783v1.251h1.134v0.604h-1.134v2.35c0,0.54,0.153,0.846,0.594,0.846c0.207,0,0.36-0.027,0.459-0.054l0.036,0.594   c-0.153,0.063-0.396,0.108-0.702,0.108c-0.369,0-0.666-0.117-0.855-0.333c-0.225-0.234-0.306-0.621-0.306-1.134V2.638h-0.675V2.035   h0.675V0.991L115.586,0.783z"/>
	<path d="M118.493,0.811c0.009,0.27-0.189,0.486-0.504,0.486c-0.279,0-0.477-0.216-0.477-0.486c0-0.279,0.207-0.495,0.495-0.495   C118.304,0.315,118.493,0.531,118.493,0.811z M117.611,6.392V2.035h0.792v4.357H117.611z"/>
	<path d="M123.66,4.177c0,1.612-1.117,2.314-2.17,2.314c-1.179,0-2.088-0.864-2.088-2.242c0-1.458,0.954-2.314,2.161-2.314   C122.813,1.936,123.66,2.845,123.66,4.177z M120.203,4.223c0,0.954,0.549,1.674,1.323,1.674c0.756,0,1.323-0.711,1.323-1.692   c0-0.738-0.369-1.675-1.305-1.675C120.608,2.53,120.203,3.394,120.203,4.223z"/>
	<path d="M124.658,3.214c0-0.45-0.009-0.819-0.036-1.18h0.702l0.045,0.72h0.018c0.216-0.414,0.72-0.819,1.44-0.819   c0.604,0,1.54,0.36,1.54,1.855v2.602h-0.792V3.88c0-0.702-0.261-1.288-1.008-1.288c-0.522,0-0.927,0.369-1.062,0.811   c-0.036,0.099-0.054,0.234-0.054,0.369v2.62h-0.792V3.214z"/>
	<path d="M132.065,6.392l-0.063-0.549h-0.027c-0.243,0.342-0.711,0.648-1.333,0.648c-0.882,0-1.333-0.621-1.333-1.251   c0-1.053,0.937-1.629,2.62-1.621v-0.09c0-0.36-0.099-1.008-0.99-1.008c-0.405,0-0.829,0.126-1.135,0.324l-0.18-0.522   c0.36-0.234,0.882-0.387,1.431-0.387c1.333,0,1.657,0.91,1.657,1.783v1.629c0,0.378,0.018,0.748,0.072,1.044H132.065z    M131.948,4.168c-0.864-0.018-1.845,0.135-1.845,0.981c0,0.513,0.342,0.756,0.747,0.756c0.567,0,0.927-0.36,1.053-0.729   c0.027-0.081,0.045-0.171,0.045-0.252V4.168z"/>
	<path d="M133.991,0h0.792v6.392h-0.792V0z"/>
	<path d="M138.905,0.811c0.009,0.27-0.189,0.486-0.504,0.486c-0.279,0-0.477-0.216-0.477-0.486c0-0.279,0.207-0.495,0.495-0.495   C138.716,0.315,138.905,0.531,138.905,0.811z M138.022,6.392V2.035h0.792v4.357H138.022z"/>
	<path d="M140.128,3.214c0-0.45-0.009-0.819-0.036-1.18h0.702l0.045,0.72h0.018c0.216-0.414,0.72-0.819,1.44-0.819   c0.604,0,1.54,0.36,1.54,1.855v2.602h-0.792V3.88c0-0.702-0.261-1.288-1.008-1.288c-0.522,0-0.927,0.369-1.062,0.811   c-0.036,0.099-0.054,0.234-0.054,0.369v2.62h-0.792V3.214z"/>
	<path d="M145.564,4.357c0.018,1.071,0.702,1.513,1.495,1.513c0.567,0,0.909-0.099,1.207-0.225l0.135,0.567   c-0.279,0.126-0.756,0.27-1.449,0.27c-1.341,0-2.143-0.882-2.143-2.196s0.774-2.35,2.043-2.35c1.422,0,1.8,1.251,1.8,2.053   c0,0.162-0.018,0.288-0.027,0.369H145.564z M147.887,3.791c0.009-0.504-0.207-1.288-1.098-1.288c-0.801,0-1.152,0.738-1.215,1.288   H147.887z"/>
	<path d="M152.603,5.717h-0.018c-0.234,0.432-0.72,0.774-1.422,0.774c-1.017,0-1.845-0.882-1.845-2.206   c0-1.63,1.053-2.35,1.971-2.35c0.675,0,1.125,0.333,1.342,0.756h0.018l0.027-0.657h0.748c-0.019,0.369-0.027,0.748-0.027,1.197   v4.943h-0.792V5.717z M152.603,3.799c0-0.108-0.009-0.234-0.036-0.333c-0.117-0.486-0.541-0.9-1.135-0.9   c-0.819,0-1.314,0.693-1.314,1.674c0,0.864,0.414,1.621,1.287,1.621c0.513,0,0.955-0.315,1.134-0.864   c0.036-0.108,0.063-0.261,0.063-0.378V3.799z"/>
	<path d="M158.346,5.204c0,0.45,0.009,0.846,0.035,1.188h-0.702l-0.045-0.711h-0.018c-0.207,0.351-0.666,0.811-1.44,0.811   c-0.685,0-1.504-0.378-1.504-1.909V2.035h0.793v2.413c0,0.828,0.252,1.386,0.972,1.386c0.531,0,0.9-0.369,1.045-0.72   c0.045-0.117,0.071-0.261,0.071-0.405V2.035h0.793V5.204z"/>
	<path d="M162.071,6.392l-0.063-0.549h-0.027c-0.243,0.342-0.711,0.648-1.332,0.648c-0.882,0-1.332-0.621-1.332-1.251   c0-1.053,0.936-1.629,2.619-1.621v-0.09c0-0.36-0.099-1.008-0.99-1.008c-0.405,0-0.828,0.126-1.134,0.324l-0.181-0.522   c0.36-0.234,0.883-0.387,1.432-0.387c1.332,0,1.656,0.91,1.656,1.783v1.629c0,0.378,0.019,0.748,0.072,1.044H162.071z    M161.954,4.168c-0.864-0.018-1.846,0.135-1.846,0.981c0,0.513,0.342,0.756,0.747,0.756c0.567,0,0.928-0.36,1.054-0.729   c0.026-0.081,0.045-0.171,0.045-0.252V4.168z"/>
	<path d="M163.996,0h0.792v6.392h-0.792V0z"/>
	<path d="M167.002,0.811c0.01,0.27-0.188,0.486-0.504,0.486c-0.279,0-0.477-0.216-0.477-0.486c0-0.279,0.207-0.495,0.495-0.495   C166.813,0.315,167.002,0.531,167.002,0.811z M166.12,6.392V2.035h0.792v4.357H166.12z"/>
	<path d="M169.18,0.783v1.251h1.135v0.604h-1.135v2.35c0,0.54,0.153,0.846,0.595,0.846c0.207,0,0.359-0.027,0.459-0.054l0.036,0.594   c-0.153,0.063-0.396,0.108-0.702,0.108c-0.369,0-0.667-0.117-0.855-0.333c-0.226-0.234-0.307-0.621-0.307-1.134V2.638h-0.675V2.035   h0.675V0.991L169.18,0.783z"/>
	<path d="M172.086,0.811c0.01,0.27-0.188,0.486-0.504,0.486c-0.279,0-0.477-0.216-0.477-0.486c0-0.279,0.207-0.495,0.495-0.495   C171.897,0.315,172.086,0.531,172.086,0.811z M171.204,6.392V2.035h0.792v4.357H171.204z"/>
	<path d="M173.751,4.357c0.018,1.071,0.702,1.513,1.494,1.513c0.567,0,0.909-0.099,1.206-0.225l0.136,0.567   c-0.279,0.126-0.757,0.27-1.45,0.27c-1.341,0-2.143-0.882-2.143-2.196s0.774-2.35,2.044-2.35c1.423,0,1.801,1.251,1.801,2.053   c0,0.162-0.019,0.288-0.027,0.369H173.751z M176.073,3.791c0.009-0.504-0.207-1.288-1.099-1.288c-0.801,0-1.152,0.738-1.215,1.288   H176.073z"/>
	<path d="M177.71,5.582c0.234,0.153,0.648,0.315,1.045,0.315c0.576,0,0.846-0.288,0.846-0.648c0-0.378-0.225-0.585-0.81-0.801   c-0.783-0.279-1.152-0.711-1.152-1.233c0-0.703,0.566-1.279,1.503-1.279c0.441,0,0.828,0.126,1.071,0.271l-0.198,0.576   c-0.171-0.108-0.485-0.252-0.891-0.252c-0.469,0-0.729,0.27-0.729,0.594c0,0.36,0.261,0.522,0.828,0.738   c0.756,0.288,1.144,0.666,1.144,1.314c0,0.765-0.595,1.305-1.63,1.305c-0.477,0-0.918-0.117-1.224-0.297L177.71,5.582z"/>
	<path d="M184.173,0.811c0.01,0.27-0.188,0.486-0.504,0.486c-0.279,0-0.477-0.216-0.477-0.486c0-0.279,0.207-0.495,0.495-0.495   C183.984,0.315,184.173,0.531,184.173,0.811z M183.291,6.392V2.035h0.792v4.357H183.291z"/>
	<path d="M185.396,3.214c0-0.45-0.009-0.819-0.036-1.18h0.702l0.045,0.72h0.019c0.216-0.414,0.72-0.819,1.44-0.819   c0.603,0,1.539,0.36,1.539,1.855v2.602h-0.792V3.88c0-0.702-0.262-1.288-1.009-1.288c-0.521,0-0.927,0.369-1.062,0.811   c-0.036,0.099-0.055,0.234-0.055,0.369v2.62h-0.792V3.214z"/>
	<path d="M193.254,0.783v1.251h1.135v0.604h-1.135v2.35c0,0.54,0.153,0.846,0.595,0.846c0.207,0,0.359-0.027,0.459-0.054   l0.036,0.594c-0.153,0.063-0.396,0.108-0.702,0.108c-0.369,0-0.667-0.117-0.855-0.333c-0.226-0.234-0.307-0.621-0.307-1.134V2.638   h-0.675V2.035h0.675V0.991L193.254,0.783z"/>
	<path d="M195.278,0h0.792v2.719h0.019c0.126-0.225,0.324-0.423,0.566-0.559c0.234-0.135,0.514-0.225,0.811-0.225   c0.585,0,1.521,0.36,1.521,1.864v2.593h-0.792V3.889c0-0.702-0.261-1.296-1.009-1.296c-0.513,0-0.918,0.36-1.062,0.792   c-0.046,0.108-0.055,0.225-0.055,0.378v2.629h-0.792V0z"/>
	<path d="M200.715,4.357c0.018,1.071,0.702,1.513,1.494,1.513c0.567,0,0.909-0.099,1.206-0.225l0.136,0.567   c-0.279,0.126-0.757,0.27-1.45,0.27c-1.341,0-2.143-0.882-2.143-2.196s0.774-2.35,2.044-2.35c1.423,0,1.801,1.251,1.801,2.053   c0,0.162-0.019,0.288-0.027,0.369H200.715z M203.037,3.791c0.009-0.504-0.207-1.288-1.099-1.288c-0.801,0-1.152,0.738-1.215,1.288   H203.037z"/>
	<path d="M207.501,0.324v3.592c0,1.359,0.603,1.936,1.413,1.936c0.9,0,1.477-0.594,1.477-1.936V0.324h0.792v3.538   c0,1.864-0.981,2.629-2.296,2.629c-1.242,0-2.179-0.711-2.179-2.593V0.324H207.501z"/>
	<path d="M212.433,5.438c0.352,0.216,0.864,0.396,1.404,0.396c0.802,0,1.27-0.423,1.27-1.035c0-0.567-0.324-0.892-1.144-1.207   c-0.99-0.351-1.603-0.864-1.603-1.72c0-0.945,0.783-1.647,1.963-1.647c0.621,0,1.071,0.144,1.342,0.297l-0.217,0.639   c-0.198-0.108-0.603-0.288-1.152-0.288c-0.828,0-1.143,0.495-1.143,0.909c0,0.567,0.368,0.846,1.206,1.17   c1.026,0.396,1.548,0.891,1.548,1.783c0,0.936-0.692,1.746-2.124,1.746c-0.585,0-1.225-0.171-1.549-0.387L212.433,5.438z"/>
</g>
</svg>