<svg xmlns="http://www.w3.org/2000/svg" xmlns:xlink="http://www.w3.org/1999/xlink" version="1.1" id="Layer_1" x="0px" y="0px" width="311.206px" height="199.793px" viewBox="0 0 311.206 199.793" enable-background="new 0 0 311.206 199.793" xml:space="preserve">
<path d="M164.987,178.129c0-0.804,0.579-1.461,1.286-1.461s1.286,0.657,1.286,1.461s-0.579,1.462-1.286,1.462  S164.987,178.933,164.987,178.129"/>
<path fill="none" stroke="#000000" stroke-width="0.5" stroke-linecap="round" stroke-linejoin="round" stroke-miterlimit="10" d="  M164.987,178.129c0-0.804,0.579-1.461,1.286-1.461s1.286,0.657,1.286,1.461s-0.579,1.462-1.286,1.462  S164.987,178.933,164.987,178.129"/>
<path d="M244.535,66.761c0-0.804,0.579-1.461,1.286-1.461s1.286,0.657,1.286,1.461c0,0.804-0.579,1.461-1.286,1.461  S244.535,67.565,244.535,66.761"/>
<path fill="none" stroke="#000000" stroke-width="0.5" stroke-linecap="round" stroke-linejoin="round" stroke-miterlimit="10" d="  M244.535,66.761c0-0.804,0.579-1.462,1.286-1.462s1.286,0.658,1.286,1.462c0,0.804-0.579,1.461-1.286,1.461  S244.535,67.565,244.535,66.761"/>
<path d="M226.084,50.401c0-0.804,0.579-1.461,1.286-1.461s1.286,0.657,1.286,1.461c0,0.804-0.579,1.462-1.286,1.462  S226.084,51.205,226.084,50.401"/>
<path fill="none" stroke="#000000" stroke-width="0.5" stroke-linecap="round" stroke-linejoin="round" stroke-miterlimit="10" d="  M226.084,50.401c0-0.804,0.579-1.461,1.286-1.461s1.286,0.657,1.286,1.461c0,0.804-0.579,1.462-1.286,1.462  S226.084,51.205,226.084,50.401"/>
<path d="M189.947,91.143c0-0.804,0.579-1.461,1.286-1.461c0.708,0,1.287,0.658,1.287,1.461s-0.579,1.461-1.287,1.461  C190.526,92.604,189.947,91.946,189.947,91.143"/>
<path fill="none" stroke="#000000" stroke-width="0.5" stroke-linecap="round" stroke-linejoin="round" stroke-miterlimit="10" d="  M189.947,91.143c0-0.804,0.579-1.461,1.286-1.461c0.708,0,1.287,0.657,1.287,1.461c0,0.804-0.579,1.461-1.287,1.461  C190.526,92.604,189.947,91.946,189.947,91.143"/>
<path d="M208.841,81.741c0-0.804,0.579-1.461,1.286-1.461c0.708,0,1.287,0.658,1.287,1.461s-0.579,1.461-1.287,1.461  C209.42,83.202,208.841,82.544,208.841,81.741"/>
<path fill="none" stroke="#000000" stroke-width="0.5" stroke-linecap="round" stroke-linejoin="round" stroke-miterlimit="10" d="  M208.841,81.741c0-0.804,0.579-1.461,1.286-1.461c0.708,0,1.287,0.658,1.287,1.461s-0.579,1.461-1.287,1.461  C209.42,83.202,208.841,82.544,208.841,81.741"/>
<path d="M113.344,121.8c0-0.804,0.579-1.461,1.286-1.461s1.287,0.658,1.287,1.461s-0.579,1.461-1.287,1.461  S113.344,122.604,113.344,121.8"/>
<path fill="none" stroke="#000000" stroke-width="0.5" stroke-linecap="round" stroke-linejoin="round" stroke-miterlimit="10" d="  M113.344,121.8c0-0.804,0.579-1.461,1.287-1.461c0.707,0,1.286,0.658,1.286,1.461s-0.579,1.461-1.286,1.461  C113.922,123.261,113.344,122.604,113.344,121.8"/>
<path d="M176.42,62.474c0-0.804,0.579-1.461,1.286-1.461c0.707,0,1.286,0.658,1.286,1.461s-0.579,1.461-1.286,1.461  C176.999,63.936,176.42,63.278,176.42,62.474"/>
<path fill="none" stroke="#000000" stroke-width="0.5" stroke-linecap="round" stroke-linejoin="round" stroke-miterlimit="10" d="  M176.42,62.474c0-0.804,0.579-1.461,1.286-1.461s1.286,0.658,1.286,1.461s-0.579,1.461-1.286,1.461S176.42,63.278,176.42,62.474"/>
<path d="M91.785,83.86c0-0.804,0.579-1.461,1.286-1.461c0.708,0,1.287,0.658,1.287,1.461s-0.579,1.461-1.287,1.461  C92.364,85.321,91.785,84.664,91.785,83.86"/>
<path fill="none" stroke="#000000" stroke-width="0.5" stroke-linecap="round" stroke-linejoin="round" stroke-miterlimit="10" d="  M91.785,83.86c0-0.804,0.579-1.461,1.286-1.461c0.708,0,1.287,0.657,1.287,1.461c0,0.804-0.579,1.461-1.287,1.461  C92.364,85.321,91.785,84.664,91.785,83.86"/>
<path d="M216.401,91.134c0-0.804,0.579-1.461,1.286-1.461s1.286,0.658,1.286,1.461s-0.579,1.461-1.286,1.461  S216.401,91.938,216.401,91.134"/>
<path fill="none" stroke="#000000" stroke-width="0.5" stroke-linecap="round" stroke-linejoin="round" stroke-miterlimit="10" d="  M216.401,91.134c0-0.804,0.579-1.461,1.286-1.461s1.286,0.658,1.286,1.461s-0.579,1.461-1.286,1.461S216.401,91.938,216.401,91.134"/>
<path d="M187.161,97.41c0-0.804,0.579-1.461,1.286-1.461s1.286,0.658,1.286,1.461c0,0.804-0.579,1.461-1.286,1.461  S187.161,98.214,187.161,97.41"/>
<path fill="none" stroke="#000000" stroke-width="0.5" stroke-linecap="round" stroke-linejoin="round" stroke-miterlimit="10" d="  M187.161,97.41c0-0.804,0.579-1.461,1.286-1.461s1.286,0.658,1.286,1.461c0,0.804-0.579,1.461-1.286,1.461  S187.161,98.214,187.161,97.41"/>
<path d="M111.157,122.872c0-0.804,0.579-1.461,1.286-1.461s1.286,0.658,1.286,1.461s-0.579,1.461-1.286,1.461  S111.157,123.675,111.157,122.872"/>
<path fill="none" stroke="#000000" stroke-width="0.5" stroke-linecap="round" stroke-linejoin="round" stroke-miterlimit="10" d="  M111.157,122.872c0-0.804,0.579-1.461,1.286-1.461s1.286,0.658,1.286,1.461s-0.579,1.461-1.286,1.461  S111.157,123.675,111.157,122.872"/>
<path d="M208.105,109.581c0-0.804,0.579-1.461,1.286-1.461s1.286,0.658,1.286,1.461s-0.579,1.462-1.286,1.462  S208.105,110.384,208.105,109.581"/>
<path fill="none" stroke="#000000" stroke-width="0.5" stroke-linecap="round" stroke-linejoin="round" stroke-miterlimit="10" d="  M208.105,109.581c0-0.804,0.579-1.461,1.286-1.461s1.286,0.658,1.286,1.461s-0.579,1.462-1.286,1.462  S208.105,110.384,208.105,109.581"/>
<path d="M162.207,83.665c0-0.804,0.579-1.461,1.286-1.461c0.708,0,1.287,0.657,1.287,1.461c0,0.804-0.579,1.461-1.287,1.461  C162.786,85.126,162.207,84.469,162.207,83.665"/>
<path fill="none" stroke="#000000" stroke-width="0.5" stroke-linecap="round" stroke-linejoin="round" stroke-miterlimit="10" d="  M162.207,83.665c0-0.804,0.579-1.462,1.287-1.462c0.707,0,1.286,0.658,1.286,1.462c0,0.804-0.579,1.461-1.286,1.461  C162.786,85.126,162.207,84.469,162.207,83.665"/>
<path d="M229.571,70.975c0-0.804,0.579-1.461,1.287-1.461c0.707,0,1.286,0.658,1.286,1.461s-0.579,1.461-1.286,1.461  C230.15,72.436,229.571,71.778,229.571,70.975"/>
<path fill="none" stroke="#000000" stroke-width="0.5" stroke-linecap="round" stroke-linejoin="round" stroke-miterlimit="10" d="  M229.571,70.975c0-0.804,0.579-1.461,1.287-1.461s1.286,0.658,1.286,1.461s-0.579,1.461-1.286,1.461S229.571,71.778,229.571,70.975"/>
<path d="M152.003,74.961c0-0.804,0.579-1.461,1.286-1.461s1.286,0.657,1.286,1.461c0,0.804-0.579,1.461-1.286,1.461  S152.003,75.765,152.003,74.961"/>
<path fill="none" stroke="#000000" stroke-width="0.5" stroke-linecap="round" stroke-linejoin="round" stroke-miterlimit="10" d="  M152.003,74.961c0-0.804,0.579-1.461,1.286-1.461s1.286,0.657,1.286,1.461c0,0.804-0.579,1.461-1.286,1.461  S152.003,75.765,152.003,74.961"/>
<path d="M150.245,119.803c0-0.804,0.579-1.461,1.286-1.461s1.286,0.658,1.286,1.461s-0.579,1.461-1.286,1.461  S150.245,120.606,150.245,119.803"/>
<path fill="none" stroke="#000000" stroke-width="0.5" stroke-linecap="round" stroke-linejoin="round" stroke-miterlimit="10" d="  M150.245,119.803c0-0.804,0.579-1.461,1.286-1.461s1.286,0.658,1.286,1.461s-0.579,1.461-1.286,1.461  S150.245,120.606,150.245,119.803"/>
<path d="M201.888,26.255c0-0.804,0.579-1.461,1.286-1.461s1.286,0.657,1.286,1.461c0,0.804-0.579,1.461-1.286,1.461  S201.888,27.059,201.888,26.255"/>
<path fill="none" stroke="#000000" stroke-width="0.5" stroke-linecap="round" stroke-linejoin="round" stroke-miterlimit="10" d="  M201.888,26.255c0-0.804,0.579-1.461,1.286-1.461s1.286,0.657,1.286,1.461c0,0.804-0.579,1.461-1.286,1.461  S201.888,27.059,201.888,26.255"/>
<path d="M151.217,54.664c0-0.804,0.579-1.461,1.286-1.461s1.286,0.658,1.286,1.461s-0.579,1.461-1.286,1.461  S151.217,55.467,151.217,54.664"/>
<path fill="none" stroke="#000000" stroke-width="0.5" stroke-linecap="round" stroke-linejoin="round" stroke-miterlimit="10" d="  M151.217,54.664c0-0.804,0.579-1.461,1.286-1.461s1.287,0.658,1.287,1.461s-0.579,1.461-1.287,1.461S151.217,55.467,151.217,54.664"/>
<path d="M244.627,67.451c0-0.804,0.579-1.461,1.286-1.461s1.286,0.658,1.286,1.461s-0.579,1.461-1.286,1.461  S244.627,68.255,244.627,67.451"/>
<path fill="none" stroke="#000000" stroke-width="0.5" stroke-linecap="round" stroke-linejoin="round" stroke-miterlimit="10" d="  M244.627,67.451c0-0.804,0.579-1.461,1.286-1.461s1.286,0.658,1.286,1.461s-0.579,1.461-1.286,1.461S244.627,68.255,244.627,67.451"/>
<path d="M170.904,41.958c0-0.804,0.579-1.461,1.286-1.461s1.286,0.658,1.286,1.461s-0.579,1.461-1.286,1.461  S170.904,42.761,170.904,41.958"/>
<path fill="none" stroke="#000000" stroke-width="0.5" stroke-linecap="round" stroke-linejoin="round" stroke-miterlimit="10" d="  M170.904,41.958c0-0.804,0.579-1.461,1.286-1.461s1.286,0.657,1.286,1.461c0,0.804-0.579,1.461-1.286,1.461  S170.904,42.761,170.904,41.958"/>
<path d="M253.617,21.189c0-0.804,0.579-1.461,1.286-1.461c0.708,0,1.287,0.658,1.287,1.461s-0.579,1.461-1.287,1.461  C254.196,22.65,253.617,21.993,253.617,21.189"/>
<path fill="none" stroke="#000000" stroke-width="0.5" stroke-linecap="round" stroke-linejoin="round" stroke-miterlimit="10" d="  M253.617,21.189c0-0.804,0.579-1.461,1.286-1.461c0.708,0,1.287,0.658,1.287,1.461s-0.579,1.461-1.287,1.461  C254.196,22.65,253.617,21.993,253.617,21.189"/>
<path d="M155.111,66.323c0-0.804,0.579-1.461,1.286-1.461s1.286,0.658,1.286,1.461s-0.579,1.461-1.286,1.461  S155.111,67.126,155.111,66.323"/>
<path fill="none" stroke="#000000" stroke-width="0.5" stroke-linecap="round" stroke-linejoin="round" stroke-miterlimit="10" d="  M155.111,66.323c0-0.804,0.579-1.461,1.286-1.461s1.286,0.657,1.286,1.461c0,0.804-0.579,1.461-1.286,1.461  S155.111,67.126,155.111,66.323"/>
<path d="M143.199,118.503c0-0.804,0.579-1.461,1.286-1.461s1.286,0.658,1.286,1.461s-0.579,1.461-1.286,1.461  S143.199,119.307,143.199,118.503"/>
<path fill="none" stroke="#000000" stroke-width="0.5" stroke-linecap="round" stroke-linejoin="round" stroke-miterlimit="10" d="  M143.199,118.503c0-0.804,0.579-1.461,1.286-1.461s1.287,0.658,1.287,1.461s-0.579,1.461-1.287,1.461  S143.199,119.307,143.199,118.503"/>
<path d="M140.898,103.711c0-0.804,0.579-1.461,1.286-1.461c0.707,0,1.286,0.657,1.286,1.461c0,0.804-0.579,1.461-1.286,1.461  C141.477,105.172,140.898,104.515,140.898,103.711"/>
<path fill="none" stroke="#000000" stroke-width="0.5" stroke-linecap="round" stroke-linejoin="round" stroke-miterlimit="10" d="  M140.898,103.711c0-0.804,0.579-1.462,1.286-1.462s1.286,0.658,1.286,1.462c0,0.804-0.579,1.461-1.286,1.461  S140.898,104.515,140.898,103.711"/>
<path d="M155.412,96.217c0-0.804,0.579-1.461,1.286-1.461s1.286,0.658,1.286,1.461s-0.579,1.461-1.286,1.461  S155.412,97.021,155.412,96.217"/>
<path fill="none" stroke="#000000" stroke-width="0.5" stroke-linecap="round" stroke-linejoin="round" stroke-miterlimit="10" d="  M155.412,96.217c0-0.804,0.579-1.461,1.286-1.461s1.286,0.658,1.286,1.461s-0.579,1.461-1.286,1.461S155.412,97.021,155.412,96.217"/>
<path d="M134.01,81.684c0-0.804,0.579-1.461,1.286-1.461s1.286,0.658,1.286,1.461s-0.579,1.461-1.286,1.461  S134.01,82.487,134.01,81.684"/>
<path fill="none" stroke="#000000" stroke-width="0.5" stroke-linecap="round" stroke-linejoin="round" stroke-miterlimit="10" d="  M134.01,81.684c0-0.804,0.579-1.461,1.286-1.461s1.286,0.658,1.286,1.461s-0.579,1.461-1.286,1.461S134.01,82.487,134.01,81.684"/>
<path d="M237.153,65.665c0-0.804,0.579-1.461,1.286-1.461s1.286,0.658,1.286,1.461s-0.579,1.461-1.286,1.461  S237.153,66.469,237.153,65.665"/>
<path fill="none" stroke="#000000" stroke-width="0.5" stroke-linecap="round" stroke-linejoin="round" stroke-miterlimit="10" d="  M237.153,65.665c0-0.804,0.579-1.461,1.286-1.461s1.286,0.658,1.286,1.461s-0.579,1.461-1.286,1.461S237.153,66.469,237.153,65.665"/>
<path d="M298.693,73.321c0-0.804,0.579-1.461,1.286-1.461s1.286,0.658,1.286,1.461s-0.579,1.461-1.286,1.461  S298.693,74.125,298.693,73.321"/>
<path fill="none" stroke="#000000" stroke-width="0.5" stroke-linecap="round" stroke-linejoin="round" stroke-miterlimit="10" d="  M298.693,73.321c0-0.804,0.579-1.461,1.286-1.461s1.286,0.657,1.286,1.461c0,0.804-0.579,1.461-1.286,1.461  S298.693,74.125,298.693,73.321"/>
<path d="M198.879,65.316c0-0.804,0.579-1.461,1.287-1.461s1.286,0.658,1.286,1.461s-0.579,1.461-1.286,1.461  S198.879,66.12,198.879,65.316"/>
<path fill="none" stroke="#000000" stroke-width="0.5" stroke-linecap="round" stroke-linejoin="round" stroke-miterlimit="10" d="  M198.879,65.316c0-0.804,0.579-1.461,1.287-1.461s1.286,0.658,1.286,1.461s-0.579,1.461-1.286,1.461S198.879,66.12,198.879,65.316"/>
<path d="M278.284,77.957c0-0.804,0.579-1.461,1.286-1.461s1.287,0.658,1.287,1.461s-0.579,1.461-1.287,1.461  S278.284,78.761,278.284,77.957"/>
<path fill="none" stroke="#000000" stroke-width="0.5" stroke-linecap="round" stroke-linejoin="round" stroke-miterlimit="10" d="  M278.284,77.957c0-0.804,0.579-1.461,1.286-1.461c0.708,0,1.287,0.658,1.287,1.461s-0.579,1.461-1.287,1.461  C278.863,79.418,278.284,78.761,278.284,77.957"/>
<path d="M168.867,106.146c0-0.804,0.579-1.461,1.286-1.461s1.286,0.658,1.286,1.461s-0.579,1.461-1.286,1.461  S168.867,106.95,168.867,106.146"/>
<path fill="none" stroke="#000000" stroke-width="0.5" stroke-linecap="round" stroke-linejoin="round" stroke-miterlimit="10" d="  M168.867,106.146c0-0.804,0.579-1.461,1.286-1.461s1.286,0.658,1.286,1.461s-0.579,1.461-1.286,1.461  S168.867,106.95,168.867,106.146"/>
<path d="M199.194,90.412c0-0.804,0.579-1.461,1.286-1.461c0.708,0,1.287,0.658,1.287,1.461s-0.579,1.461-1.287,1.461  C199.773,91.873,199.194,91.215,199.194,90.412"/>
<path fill="none" stroke="#000000" stroke-width="0.5" stroke-linecap="round" stroke-linejoin="round" stroke-miterlimit="10" d="  M199.194,90.412c0-0.804,0.579-1.461,1.287-1.461c0.707,0,1.286,0.658,1.286,1.461s-0.579,1.461-1.286,1.461  C199.773,91.873,199.194,91.215,199.194,90.412"/>
<path d="M158.47,115.524c0-0.804,0.579-1.461,1.286-1.461c0.708,0,1.287,0.658,1.287,1.461s-0.579,1.461-1.287,1.461  C159.049,116.985,158.47,116.328,158.47,115.524"/>
<path fill="none" stroke="#000000" stroke-width="0.5" stroke-linecap="round" stroke-linejoin="round" stroke-miterlimit="10" d="  M158.47,115.524c0-0.804,0.579-1.461,1.287-1.461c0.707,0,1.286,0.658,1.286,1.461s-0.579,1.461-1.286,1.461  C159.049,116.985,158.47,116.328,158.47,115.524"/>
<path d="M110.593,68.718c0-0.804,0.579-1.461,1.286-1.461s1.286,0.658,1.286,1.461s-0.579,1.461-1.286,1.461  S110.593,69.521,110.593,68.718"/>
<path fill="none" stroke="#000000" stroke-width="0.5" stroke-linecap="round" stroke-linejoin="round" stroke-miterlimit="10" d="  M110.593,68.718c0-0.804,0.579-1.461,1.286-1.461s1.286,0.658,1.286,1.461s-0.579,1.461-1.286,1.461S110.593,69.521,110.593,68.718"/>
<path d="M286.087,129.504c0-0.804,0.579-1.461,1.286-1.461c0.708,0,1.286,0.657,1.286,1.461c0,0.805-0.578,1.462-1.286,1.462  C286.667,130.966,286.087,130.309,286.087,129.504"/>
<path fill="none" stroke="#000000" stroke-width="0.5" stroke-linecap="round" stroke-linejoin="round" stroke-miterlimit="10" d="  M286.087,129.504c0-0.804,0.579-1.461,1.286-1.461c0.708,0,1.286,0.657,1.286,1.461c0,0.805-0.578,1.462-1.286,1.462  C286.667,130.966,286.087,130.309,286.087,129.504"/>
<path d="M187.311,70.431c0-0.804,0.579-1.461,1.286-1.461s1.286,0.658,1.286,1.461s-0.579,1.461-1.286,1.461  S187.311,71.234,187.311,70.431"/>
<path fill="none" stroke="#000000" stroke-width="0.5" stroke-linecap="round" stroke-linejoin="round" stroke-miterlimit="10" d="  M187.311,70.431c0-0.804,0.579-1.461,1.286-1.461s1.286,0.658,1.286,1.461s-0.579,1.461-1.286,1.461S187.311,71.234,187.311,70.431"/>
<path d="M127.192,102.818c0-0.804,0.579-1.461,1.286-1.461s1.287,0.657,1.287,1.461c0,0.804-0.579,1.461-1.287,1.461  S127.192,103.622,127.192,102.818"/>
<path fill="none" stroke="#000000" stroke-width="0.5" stroke-linecap="round" stroke-linejoin="round" stroke-miterlimit="10" d="  M127.192,102.818c0-0.804,0.579-1.462,1.286-1.462c0.708,0,1.287,0.658,1.287,1.462c0,0.804-0.579,1.461-1.287,1.461  C127.771,104.279,127.192,103.622,127.192,102.818"/>
<path d="M140.291,68.815c0-0.804,0.579-1.461,1.286-1.461s1.286,0.658,1.286,1.461c0,0.804-0.579,1.461-1.286,1.461  S140.291,69.619,140.291,68.815"/>
<path fill="none" stroke="#000000" stroke-width="0.5" stroke-linecap="round" stroke-linejoin="round" stroke-miterlimit="10" d="  M140.291,68.815c0-0.804,0.579-1.461,1.286-1.461s1.286,0.658,1.286,1.461c0,0.804-0.579,1.461-1.286,1.461  S140.291,69.619,140.291,68.815"/>
<path d="M150.902,14.824c0-0.804,0.579-1.461,1.286-1.461s1.286,0.658,1.286,1.461s-0.579,1.461-1.286,1.461  S150.902,15.627,150.902,14.824"/>
<path fill="none" stroke="#000000" stroke-width="0.5" stroke-linecap="round" stroke-linejoin="round" stroke-miterlimit="10" d="  M150.902,14.824c0-0.804,0.579-1.461,1.286-1.461c0.708,0,1.287,0.657,1.287,1.461c0,0.804-0.579,1.461-1.287,1.461  C151.481,16.285,150.902,15.627,150.902,14.824"/>
<path d="M179.071,81.911c0-0.804,0.579-1.461,1.286-1.461s1.287,0.658,1.287,1.461s-0.579,1.461-1.287,1.461  S179.071,82.715,179.071,81.911"/>
<path fill="none" stroke="#000000" stroke-width="0.5" stroke-linecap="round" stroke-linejoin="round" stroke-miterlimit="10" d="  M179.071,81.911c0-0.804,0.579-1.461,1.286-1.461s1.287,0.658,1.287,1.461s-0.579,1.461-1.287,1.461S179.071,82.715,179.071,81.911"/>
<path d="M156.326,117.018c0-0.804,0.579-1.462,1.286-1.462s1.286,0.658,1.286,1.462c0,0.804-0.579,1.461-1.286,1.461  S156.326,117.822,156.326,117.018"/>
<path fill="none" stroke="#000000" stroke-width="0.5" stroke-linecap="round" stroke-linejoin="round" stroke-miterlimit="10" d="  M156.326,117.018c0-0.804,0.579-1.462,1.286-1.462s1.286,0.658,1.286,1.462c0,0.804-0.579,1.461-1.286,1.461  S156.326,117.822,156.326,117.018"/>
<path d="M126.871,99.83c0-0.804,0.579-1.461,1.286-1.461s1.286,0.657,1.286,1.461c0,0.804-0.579,1.461-1.286,1.461  S126.871,100.634,126.871,99.83"/>
<path fill="none" stroke="#000000" stroke-width="0.5" stroke-linecap="round" stroke-linejoin="round" stroke-miterlimit="10" d="  M126.871,99.83c0-0.804,0.579-1.461,1.286-1.461s1.286,0.658,1.286,1.461c0,0.804-0.579,1.461-1.286,1.461  S126.871,100.634,126.871,99.83"/>
<path d="M216.001,7.094c0-0.804,0.579-1.461,1.286-1.461s1.287,0.658,1.287,1.461s-0.579,1.461-1.287,1.461  S216.001,7.898,216.001,7.094"/>
<path fill="none" stroke="#000000" stroke-width="0.5" stroke-linecap="round" stroke-linejoin="round" stroke-miterlimit="10" d="  M216.001,7.094c0-0.804,0.579-1.461,1.286-1.461c0.708,0,1.287,0.658,1.287,1.461s-0.579,1.461-1.287,1.461  C216.58,8.556,216.001,7.898,216.001,7.094"/>
<path d="M225.019,105.164c0-0.804,0.579-1.461,1.286-1.461c0.708,0,1.287,0.658,1.287,1.461s-0.579,1.461-1.287,1.461  C225.598,106.625,225.019,105.968,225.019,105.164"/>
<path fill="none" stroke="#000000" stroke-width="0.5" stroke-linecap="round" stroke-linejoin="round" stroke-miterlimit="10" d="  M225.019,105.164c0-0.804,0.579-1.461,1.286-1.461c0.708,0,1.287,0.658,1.287,1.461s-0.579,1.461-1.287,1.461  C225.598,106.625,225.019,105.968,225.019,105.164"/>
<path d="M220.167,101.462c0-0.804,0.579-1.461,1.286-1.461s1.287,0.657,1.287,1.461c0,0.804-0.579,1.461-1.287,1.461  S220.167,102.266,220.167,101.462"/>
<path fill="none" stroke="#000000" stroke-width="0.5" stroke-linecap="round" stroke-linejoin="round" stroke-miterlimit="10" d="  M220.167,101.462c0-0.804,0.579-1.461,1.286-1.461c0.708,0,1.287,0.657,1.287,1.461c0,0.804-0.579,1.461-1.287,1.461  C220.746,102.923,220.167,102.266,220.167,101.462"/>
<path d="M165.323,84.753c0-0.804,0.579-1.461,1.286-1.461s1.286,0.658,1.286,1.461s-0.579,1.461-1.286,1.461  S165.323,85.557,165.323,84.753"/>
<path fill="none" stroke="#000000" stroke-width="0.5" stroke-linecap="round" stroke-linejoin="round" stroke-miterlimit="10" d="  M165.323,84.753c0-0.804,0.579-1.461,1.286-1.461s1.286,0.657,1.286,1.461c0,0.804-0.579,1.461-1.286,1.461  S165.323,85.557,165.323,84.753"/>
<path d="M109.728,106.406c0-0.804,0.579-1.461,1.286-1.461s1.286,0.658,1.286,1.461s-0.579,1.461-1.286,1.461  S109.728,107.21,109.728,106.406"/>
<path fill="none" stroke="#000000" stroke-width="0.5" stroke-linecap="round" stroke-linejoin="round" stroke-miterlimit="10" d="  M109.728,106.406c0-0.804,0.579-1.461,1.286-1.461s1.286,0.658,1.286,1.461s-0.579,1.461-1.286,1.461  S109.728,107.21,109.728,106.406"/>
<path d="M107.684,67.362c0-0.804,0.579-1.461,1.287-1.461c0.707,0,1.286,0.658,1.286,1.461s-0.579,1.461-1.286,1.461  C108.263,68.823,107.684,68.166,107.684,67.362"/>
<path fill="none" stroke="#000000" stroke-width="0.5" stroke-linecap="round" stroke-linejoin="round" stroke-miterlimit="10" d="  M107.684,67.362c0-0.804,0.579-1.461,1.287-1.461s1.286,0.658,1.286,1.461s-0.579,1.461-1.286,1.461S107.684,68.166,107.684,67.362"/>
<path d="M125.899,84.931c0-0.804,0.579-1.461,1.287-1.461c0.707,0,1.286,0.657,1.286,1.461c0,0.804-0.579,1.462-1.286,1.462  C126.478,86.393,125.899,85.735,125.899,84.931"/>
<path fill="none" stroke="#000000" stroke-width="0.5" stroke-linecap="round" stroke-linejoin="round" stroke-miterlimit="10" d="  M125.899,84.931c0-0.804,0.579-1.461,1.287-1.461c0.707,0,1.286,0.658,1.286,1.461c0,0.804-0.579,1.462-1.286,1.462  C126.478,86.393,125.899,85.735,125.899,84.931"/>
<path d="M180.136,86.149c0-0.804,0.579-1.461,1.286-1.461s1.286,0.657,1.286,1.461c0,0.804-0.579,1.461-1.286,1.461  S180.136,86.953,180.136,86.149"/>
<path fill="none" stroke="#000000" stroke-width="0.5" stroke-linecap="round" stroke-linejoin="round" stroke-miterlimit="10" d="  M180.136,86.149c0-0.804,0.579-1.461,1.286-1.461s1.286,0.657,1.286,1.461c0,0.804-0.579,1.461-1.286,1.461  S180.136,86.953,180.136,86.149"/>
<path d="M124.349,93.667c0-0.804,0.579-1.461,1.286-1.461s1.286,0.658,1.286,1.461s-0.579,1.461-1.286,1.461  S124.349,94.471,124.349,93.667"/>
<path fill="none" stroke="#000000" stroke-width="0.5" stroke-linecap="round" stroke-linejoin="round" stroke-miterlimit="10" d="  M124.349,93.667c0-0.804,0.579-1.461,1.286-1.461s1.286,0.658,1.286,1.461s-0.579,1.461-1.286,1.461S124.349,94.471,124.349,93.667"/>
<path d="M173.976,97.337c0-0.804,0.579-1.461,1.287-1.461s1.286,0.658,1.286,1.461s-0.579,1.461-1.286,1.461  S173.976,98.141,173.976,97.337"/>
<path fill="none" stroke="#000000" stroke-width="0.5" stroke-linecap="round" stroke-linejoin="round" stroke-miterlimit="10" d="  M173.976,97.337c0-0.804,0.579-1.461,1.287-1.461s1.286,0.657,1.286,1.461c0,0.804-0.579,1.461-1.286,1.461  S173.976,98.141,173.976,97.337"/>
<path d="M160.899,91.743c0-0.804,0.579-1.461,1.286-1.461s1.287,0.658,1.287,1.461s-0.579,1.461-1.287,1.461  S160.899,92.547,160.899,91.743"/>
<path fill="none" stroke="#000000" stroke-width="0.5" stroke-linecap="round" stroke-linejoin="round" stroke-miterlimit="10" d="  M160.899,91.743c0-0.804,0.579-1.461,1.286-1.461s1.287,0.658,1.287,1.461s-0.579,1.461-1.287,1.461S160.899,92.547,160.899,91.743"/>
<path d="M101.66,108.915c0-0.804,0.579-1.461,1.287-1.461c0.707,0,1.286,0.658,1.286,1.461s-0.579,1.461-1.286,1.461  C102.239,110.376,101.66,109.719,101.66,108.915"/>
<path fill="none" stroke="#000000" stroke-width="0.5" stroke-linecap="round" stroke-linejoin="round" stroke-miterlimit="10" d="  M101.66,108.915c0-0.804,0.579-1.461,1.287-1.461c0.707,0,1.286,0.658,1.286,1.461s-0.579,1.461-1.286,1.461  C102.239,110.376,101.66,109.719,101.66,108.915"/>
<path d="M160.213,75.18c0-0.804,0.579-1.461,1.286-1.461s1.287,0.657,1.287,1.461c0,0.804-0.579,1.461-1.287,1.461  S160.213,75.984,160.213,75.18"/>
<path fill="none" stroke="#000000" stroke-width="0.5" stroke-linecap="round" stroke-linejoin="round" stroke-miterlimit="10" d="  M160.213,75.18c0-0.804,0.579-1.461,1.286-1.461s1.287,0.657,1.287,1.461c0,0.804-0.579,1.461-1.287,1.461  S160.213,75.984,160.213,75.18"/>
<path d="M272.303,55.687c0-0.804,0.579-1.461,1.286-1.461s1.286,0.658,1.286,1.461s-0.579,1.461-1.286,1.461  S272.303,56.49,272.303,55.687"/>
<path fill="none" stroke="#000000" stroke-width="0.5" stroke-linecap="round" stroke-linejoin="round" stroke-miterlimit="10" d="  M272.303,55.687c0-0.804,0.579-1.461,1.286-1.461s1.286,0.658,1.286,1.461s-0.579,1.461-1.286,1.461S272.303,56.49,272.303,55.687"/>
<path d="M155.847,71.99c0-0.804,0.579-1.461,1.286-1.461c0.708,0,1.287,0.658,1.287,1.461s-0.579,1.461-1.287,1.461  C156.426,73.451,155.847,72.793,155.847,71.99"/>
<path fill="none" stroke="#000000" stroke-width="0.5" stroke-linecap="round" stroke-linejoin="round" stroke-miterlimit="10" d="  M155.847,71.99c0-0.804,0.579-1.461,1.286-1.461c0.708,0,1.287,0.658,1.287,1.461s-0.579,1.461-1.287,1.461  C156.426,73.451,155.847,72.793,155.847,71.99"/>
<path d="M57.056,102.525c0-0.804,0.579-1.461,1.286-1.461s1.286,0.658,1.286,1.461s-0.579,1.461-1.286,1.461  S57.056,103.329,57.056,102.525"/>
<path fill="none" stroke="#000000" stroke-width="0.5" stroke-linecap="round" stroke-linejoin="round" stroke-miterlimit="10" d="  M57.056,102.525c0-0.804,0.579-1.461,1.286-1.461s1.286,0.658,1.286,1.461s-0.579,1.461-1.286,1.461S57.056,103.329,57.056,102.525"/>
<path d="M108.042,97.402c0-0.804,0.579-1.461,1.286-1.461s1.286,0.657,1.286,1.461c0,0.804-0.579,1.461-1.286,1.461  S108.042,98.206,108.042,97.402"/>
<path fill="none" stroke="#000000" stroke-width="0.5" stroke-linecap="round" stroke-linejoin="round" stroke-miterlimit="10" d="  M108.042,97.402c0-0.804,0.579-1.461,1.286-1.461c0.708,0,1.287,0.657,1.287,1.461c0,0.804-0.579,1.461-1.287,1.461  C108.621,98.864,108.042,98.206,108.042,97.402"/>
<path d="M247.643,51.936c0-0.804,0.579-1.461,1.286-1.461s1.286,0.658,1.286,1.461s-0.579,1.461-1.286,1.461  S247.643,52.739,247.643,51.936"/>
<path fill="none" stroke="#000000" stroke-width="0.5" stroke-linecap="round" stroke-linejoin="round" stroke-miterlimit="10" d="  M247.643,51.936c0-0.804,0.579-1.461,1.286-1.461s1.286,0.658,1.286,1.461s-0.579,1.461-1.286,1.461S247.643,52.739,247.643,51.936"/>
<path d="M24.292,82.755c0-0.804,0.579-1.461,1.287-1.461s1.286,0.658,1.286,1.461s-0.579,1.461-1.286,1.461  S24.292,83.559,24.292,82.755"/>
<path fill="none" stroke="#000000" stroke-width="0.5" stroke-linecap="round" stroke-linejoin="round" stroke-miterlimit="10" d="  M24.292,82.755c0-0.804,0.579-1.461,1.287-1.461s1.286,0.658,1.286,1.461s-0.579,1.461-1.286,1.461S24.292,83.559,24.292,82.755"/>
<path d="M27.008,113.551c0-0.804,0.579-1.461,1.286-1.461s1.286,0.658,1.286,1.461c0,0.804-0.579,1.461-1.286,1.461  S27.008,114.355,27.008,113.551"/>
<path fill="none" stroke="#000000" stroke-width="0.5" stroke-linecap="round" stroke-linejoin="round" stroke-miterlimit="10" d="  M27.008,113.551c0-0.804,0.579-1.461,1.286-1.461s1.286,0.658,1.286,1.461c0,0.804-0.579,1.461-1.286,1.461  S27.008,114.355,27.008,113.551"/>
<path d="M198.272,126.996c0-0.804,0.579-1.461,1.287-1.461s1.286,0.658,1.286,1.461s-0.579,1.461-1.286,1.461  S198.272,127.8,198.272,126.996"/>
<path fill="none" stroke="#000000" stroke-width="0.5" stroke-linecap="round" stroke-linejoin="round" stroke-miterlimit="10" d="  M198.272,126.996c0-0.804,0.579-1.461,1.287-1.461s1.286,0.658,1.286,1.461s-0.579,1.461-1.286,1.461S198.272,127.8,198.272,126.996  "/>
<path d="M124.156,102.729c0-0.804,0.579-1.461,1.286-1.461c0.707,0,1.286,0.657,1.286,1.461c0,0.804-0.579,1.461-1.286,1.461  C124.734,104.19,124.156,103.532,124.156,102.729"/>
<path fill="none" stroke="#000000" stroke-width="0.5" stroke-linecap="round" stroke-linejoin="round" stroke-miterlimit="10" d="  M124.156,102.729c0-0.804,0.579-1.462,1.286-1.462s1.286,0.658,1.286,1.462c0,0.804-0.579,1.461-1.286,1.461  S124.156,103.532,124.156,102.729"/>
<path d="M248.465,54.355c0-0.804,0.579-1.461,1.286-1.461s1.286,0.658,1.286,1.461s-0.579,1.461-1.286,1.461  S248.465,55.159,248.465,54.355"/>
<path fill="none" stroke="#000000" stroke-width="0.5" stroke-linecap="round" stroke-linejoin="round" stroke-miterlimit="10" d="  M248.465,54.355c0-0.804,0.579-1.461,1.286-1.461s1.286,0.658,1.286,1.461s-0.579,1.461-1.286,1.461S248.465,55.159,248.465,54.355"/>
<path d="M80.587,159.74c0-0.804,0.579-1.461,1.286-1.461s1.286,0.657,1.286,1.461s-0.579,1.462-1.286,1.462  S80.587,160.543,80.587,159.74"/>
<path fill="none" stroke="#000000" stroke-width="0.5" stroke-linecap="round" stroke-linejoin="round" stroke-miterlimit="10" d="  M80.587,159.74c0-0.804,0.579-1.461,1.286-1.461s1.286,0.657,1.286,1.461s-0.579,1.462-1.286,1.462S80.587,160.543,80.587,159.74"/>
<path d="M191.091,50.604c0-0.804,0.579-1.461,1.286-1.461s1.286,0.658,1.286,1.461s-0.579,1.461-1.286,1.461  S191.091,51.408,191.091,50.604"/>
<path fill="none" stroke="#000000" stroke-width="0.5" stroke-linecap="round" stroke-linejoin="round" stroke-miterlimit="10" d="  M191.091,50.604c0-0.804,0.579-1.461,1.286-1.461s1.286,0.658,1.286,1.461s-0.579,1.461-1.286,1.461S191.091,51.408,191.091,50.604"/>
<path d="M150.91,57.928c0-0.804,0.579-1.461,1.286-1.461s1.286,0.657,1.286,1.461c0,0.804-0.579,1.461-1.286,1.461  S150.91,58.731,150.91,57.928"/>
<path fill="none" stroke="#000000" stroke-width="0.5" stroke-linecap="round" stroke-linejoin="round" stroke-miterlimit="10" d="  M150.91,57.928c0-0.804,0.579-1.462,1.286-1.462s1.286,0.658,1.286,1.462c0,0.804-0.579,1.461-1.286,1.461  S150.91,58.731,150.91,57.928"/>
<path d="M282.787,112.731c0-0.804,0.578-1.461,1.286-1.461c0.707,0,1.286,0.658,1.286,1.461s-0.579,1.461-1.286,1.461  C283.365,114.192,282.787,113.535,282.787,112.731"/>
<path fill="none" stroke="#000000" stroke-width="0.5" stroke-linecap="round" stroke-linejoin="round" stroke-miterlimit="10" d="  M282.787,112.731c0-0.804,0.578-1.461,1.286-1.461c0.707,0,1.286,0.658,1.286,1.461s-0.579,1.461-1.286,1.461  C283.365,114.192,282.787,113.535,282.787,112.731"/>
<path d="M203.124,86.279c0-0.804,0.579-1.461,1.287-1.461c0.707,0,1.286,0.657,1.286,1.461c0,0.804-0.579,1.461-1.286,1.461  C203.703,87.741,203.124,87.083,203.124,86.279"/>
<path fill="none" stroke="#000000" stroke-width="0.5" stroke-linecap="round" stroke-linejoin="round" stroke-miterlimit="10" d="  M203.124,86.279c0-0.804,0.579-1.461,1.287-1.461c0.707,0,1.286,0.657,1.286,1.461c0,0.804-0.579,1.461-1.286,1.461  C203.703,87.741,203.124,87.083,203.124,86.279"/>
<path d="M83.938,57.651c0-0.804,0.579-1.461,1.286-1.461c0.708,0,1.287,0.658,1.287,1.461s-0.579,1.461-1.287,1.461  C84.518,59.113,83.938,58.455,83.938,57.651"/>
<path fill="none" stroke="#000000" stroke-width="0.5" stroke-linecap="round" stroke-linejoin="round" stroke-miterlimit="10" d="  M83.938,57.651c0-0.804,0.579-1.461,1.287-1.461c0.707,0,1.286,0.658,1.286,1.461s-0.579,1.461-1.286,1.461  C84.518,59.113,83.938,58.455,83.938,57.651"/>
<path d="M191.048,106.292c0-0.804,0.579-1.461,1.286-1.461s1.286,0.658,1.286,1.461s-0.579,1.461-1.286,1.461  S191.048,107.096,191.048,106.292"/>
<path fill="none" stroke="#000000" stroke-width="0.5" stroke-linecap="round" stroke-linejoin="round" stroke-miterlimit="10" d="  M191.048,106.292c0-0.804,0.579-1.461,1.286-1.461s1.286,0.658,1.286,1.461s-0.579,1.461-1.286,1.461  S191.048,107.096,191.048,106.292"/>
<path d="M118.353,56.677c0-0.804,0.579-1.461,1.286-1.461s1.286,0.658,1.286,1.461s-0.579,1.461-1.286,1.461  S118.353,57.481,118.353,56.677"/>
<path fill="none" stroke="#000000" stroke-width="0.5" stroke-linecap="round" stroke-linejoin="round" stroke-miterlimit="10" d="  M118.353,56.677c0-0.804,0.579-1.461,1.286-1.461s1.286,0.658,1.286,1.461s-0.579,1.461-1.286,1.461S118.353,57.481,118.353,56.677"/>
<path d="M150.195,151.662c0-0.804,0.579-1.461,1.286-1.461c0.708,0,1.287,0.657,1.287,1.461s-0.579,1.462-1.287,1.462  C150.774,153.124,150.195,152.465,150.195,151.662"/>
<path fill="none" stroke="#000000" stroke-width="0.5" stroke-linecap="round" stroke-linejoin="round" stroke-miterlimit="10" d="  M150.195,151.662c0-0.804,0.579-1.461,1.287-1.461c0.707,0,1.286,0.657,1.286,1.461s-0.579,1.462-1.286,1.462  C150.774,153.124,150.195,152.465,150.195,151.662"/>
<path d="M106.984,82.642c0-0.804,0.579-1.461,1.286-1.461c0.708,0,1.287,0.658,1.287,1.461c0,0.804-0.579,1.461-1.287,1.461  C107.563,84.103,106.984,83.446,106.984,82.642"/>
<path fill="none" stroke="#000000" stroke-width="0.5" stroke-linecap="round" stroke-linejoin="round" stroke-miterlimit="10" d="  M106.984,82.642c0-0.804,0.579-1.461,1.286-1.461c0.708,0,1.287,0.658,1.287,1.461c0,0.804-0.579,1.461-1.287,1.461  C107.563,84.103,106.984,83.446,106.984,82.642"/>
<path d="M140.477,108.42c0-0.804,0.579-1.461,1.286-1.461s1.287,0.657,1.287,1.461c0,0.804-0.579,1.461-1.287,1.461  S140.477,109.224,140.477,108.42"/>
<path fill="none" stroke="#000000" stroke-width="0.5" stroke-linecap="round" stroke-linejoin="round" stroke-miterlimit="10" d="  M140.477,108.42c0-0.804,0.579-1.461,1.286-1.461s1.287,0.657,1.287,1.461c0,0.804-0.579,1.461-1.287,1.461  S140.477,109.224,140.477,108.42"/>
<path d="M156.619,78.266c0-0.804,0.579-1.461,1.286-1.461s1.286,0.658,1.286,1.461s-0.579,1.461-1.286,1.461  S156.619,79.069,156.619,78.266"/>
<path fill="none" stroke="#000000" stroke-width="0.5" stroke-linecap="round" stroke-linejoin="round" stroke-miterlimit="10" d="  M156.619,78.266c0-0.804,0.579-1.461,1.286-1.461s1.286,0.658,1.286,1.461s-0.579,1.461-1.286,1.461S156.619,79.069,156.619,78.266"/>
<path d="M185.217,14.012c0-0.804,0.579-1.461,1.286-1.461s1.286,0.658,1.286,1.461s-0.579,1.461-1.286,1.461  S185.217,14.815,185.217,14.012"/>
<path fill="none" stroke="#000000" stroke-width="0.5" stroke-linecap="round" stroke-linejoin="round" stroke-miterlimit="10" d="  M185.217,14.012c0-0.804,0.579-1.461,1.286-1.461s1.286,0.658,1.286,1.461s-0.579,1.461-1.286,1.461S185.217,14.815,185.217,14.012"/>
<path d="M125.813,80.896c0-0.804,0.579-1.461,1.286-1.461s1.286,0.657,1.286,1.461c0,0.804-0.579,1.461-1.286,1.461  S125.813,81.7,125.813,80.896"/>
<path fill="none" stroke="#000000" stroke-width="0.5" stroke-linecap="round" stroke-linejoin="round" stroke-miterlimit="10" d="  M125.813,80.896c0-0.804,0.579-1.461,1.286-1.461s1.286,0.657,1.286,1.461c0,0.804-0.579,1.461-1.286,1.461  S125.813,81.7,125.813,80.896"/>
<path d="M66.06,133.272c0-0.804,0.579-1.461,1.286-1.461c0.708,0,1.287,0.657,1.287,1.461s-0.579,1.462-1.287,1.462  C66.639,134.734,66.06,134.076,66.06,133.272"/>
<path fill="none" stroke="#000000" stroke-width="0.5" stroke-linecap="round" stroke-linejoin="round" stroke-miterlimit="10" d="  M66.06,133.272c0-0.804,0.579-1.461,1.287-1.461c0.707,0,1.286,0.657,1.286,1.461s-0.579,1.462-1.286,1.462  C66.639,134.734,66.06,134.076,66.06,133.272"/>
<path d="M205.125,67.029c0-0.804,0.579-1.461,1.286-1.461c0.708,0,1.287,0.658,1.287,1.461s-0.579,1.461-1.287,1.461  C205.704,68.49,205.125,67.833,205.125,67.029"/>
<path fill="none" stroke="#000000" stroke-width="0.5" stroke-linecap="round" stroke-linejoin="round" stroke-miterlimit="10" d="  M205.125,67.029c0-0.804,0.579-1.461,1.286-1.461c0.708,0,1.287,0.658,1.287,1.461s-0.579,1.461-1.287,1.461  C205.704,68.49,205.125,67.833,205.125,67.029"/>
<path d="M126.421,110.458c0-0.804,0.579-1.461,1.286-1.461s1.286,0.658,1.286,1.461s-0.579,1.461-1.286,1.461  S126.421,111.261,126.421,110.458"/>
<path fill="none" stroke="#000000" stroke-width="0.5" stroke-linecap="round" stroke-linejoin="round" stroke-miterlimit="10" d="  M126.421,110.458c0-0.804,0.579-1.461,1.286-1.461s1.286,0.658,1.286,1.461s-0.579,1.461-1.286,1.461  S126.421,111.261,126.421,110.458"/>
<path d="M110.75,113.145c0-0.804,0.579-1.461,1.286-1.461s1.286,0.658,1.286,1.461s-0.579,1.461-1.286,1.461  S110.75,113.949,110.75,113.145"/>
<path fill="none" stroke="#000000" stroke-width="0.5" stroke-linecap="round" stroke-linejoin="round" stroke-miterlimit="10" d="  M110.75,113.145c0-0.804,0.579-1.461,1.286-1.461s1.286,0.658,1.286,1.461s-0.579,1.461-1.286,1.461S110.75,113.949,110.75,113.145"/>
<path d="M135.131,80.36c0-0.804,0.579-1.461,1.286-1.461c0.708,0,1.287,0.658,1.287,1.461s-0.579,1.461-1.287,1.461  C135.71,81.822,135.131,81.164,135.131,80.36"/>
<path fill="none" stroke="#000000" stroke-width="0.5" stroke-linecap="round" stroke-linejoin="round" stroke-miterlimit="10" d="  M135.131,80.36c0-0.804,0.579-1.461,1.286-1.461c0.708,0,1.287,0.658,1.287,1.461s-0.579,1.461-1.287,1.461  C135.71,81.822,135.131,81.164,135.131,80.36"/>
<path d="M113.287,40.009c0-0.804,0.579-1.461,1.286-1.461s1.286,0.658,1.286,1.461s-0.579,1.461-1.286,1.461  S113.287,40.812,113.287,40.009"/>
<path fill="none" stroke="#000000" stroke-width="0.5" stroke-linecap="round" stroke-linejoin="round" stroke-miterlimit="10" d="  M113.287,40.009c0-0.804,0.579-1.461,1.286-1.461c0.708,0,1.287,0.658,1.287,1.461s-0.579,1.461-1.287,1.461  C113.866,41.47,113.287,40.812,113.287,40.009"/>
<path d="M231.472,92.417c0-0.804,0.579-1.461,1.286-1.461c0.708,0,1.287,0.658,1.287,1.461s-0.579,1.461-1.287,1.461  C232.051,93.878,231.472,93.221,231.472,92.417"/>
<path fill="none" stroke="#000000" stroke-width="0.5" stroke-linecap="round" stroke-linejoin="round" stroke-miterlimit="10" d="  M231.472,92.417c0-0.804,0.579-1.461,1.287-1.461c0.707,0,1.286,0.658,1.286,1.461s-0.579,1.461-1.286,1.461  C232.051,93.878,231.472,93.221,231.472,92.417"/>
<path d="M298.049,65.697c0-0.804,0.579-1.461,1.286-1.461c0.708,0,1.287,0.658,1.287,1.461c0,0.804-0.579,1.461-1.287,1.461  C298.628,67.159,298.049,66.501,298.049,65.697"/>
<path fill="none" stroke="#000000" stroke-width="0.5" stroke-linecap="round" stroke-linejoin="round" stroke-miterlimit="10" d="  M298.049,65.697c0-0.804,0.579-1.461,1.286-1.461c0.708,0,1.287,0.658,1.287,1.461c0,0.804-0.579,1.461-1.287,1.461  C298.628,67.159,298.049,66.501,298.049,65.697"/>
<path d="M229.664,62.718c0-0.804,0.579-1.461,1.286-1.461s1.286,0.658,1.286,1.461s-0.579,1.461-1.286,1.461  S229.664,63.521,229.664,62.718"/>
<path fill="none" stroke="#000000" stroke-width="0.5" stroke-linecap="round" stroke-linejoin="round" stroke-miterlimit="10" d="  M229.664,62.718c0-0.804,0.579-1.461,1.286-1.461s1.286,0.658,1.286,1.461s-0.579,1.461-1.286,1.461S229.664,63.521,229.664,62.718"/>
<path d="M156.541,83.551c0-0.804,0.579-1.461,1.286-1.461s1.286,0.658,1.286,1.461s-0.579,1.461-1.286,1.461  S156.541,84.355,156.541,83.551"/>
<path fill="none" stroke="#000000" stroke-width="0.5" stroke-linecap="round" stroke-linejoin="round" stroke-miterlimit="10" d="  M156.541,83.551c0-0.804,0.579-1.461,1.286-1.461s1.286,0.658,1.286,1.461s-0.579,1.461-1.286,1.461S156.541,84.355,156.541,83.551"/>
<path d="M272.561,37.922c0-0.804,0.579-1.461,1.286-1.461s1.286,0.658,1.286,1.461s-0.579,1.461-1.286,1.461  S272.561,38.726,272.561,37.922"/>
<path fill="none" stroke="#000000" stroke-width="0.5" stroke-linecap="round" stroke-linejoin="round" stroke-miterlimit="10" d="  M272.561,37.922c0-0.804,0.579-1.461,1.286-1.461s1.286,0.658,1.286,1.461s-0.579,1.461-1.286,1.461S272.561,38.726,272.561,37.922"/>
<path d="M176.456,145.337c0-0.804,0.579-1.462,1.286-1.462s1.286,0.658,1.286,1.462s-0.579,1.461-1.286,1.461  S176.456,146.141,176.456,145.337"/>
<path fill="none" stroke="#000000" stroke-width="0.5" stroke-linecap="round" stroke-linejoin="round" stroke-miterlimit="10" d="  M176.456,145.337c0-0.804,0.579-1.462,1.286-1.462s1.286,0.658,1.286,1.462s-0.579,1.461-1.286,1.461  S176.456,146.141,176.456,145.337"/>
<path d="M279.628,94.894c0-0.804,0.579-1.461,1.286-1.461s1.287,0.658,1.287,1.461s-0.579,1.461-1.287,1.461  S279.628,95.697,279.628,94.894"/>
<path fill="none" stroke="#000000" stroke-width="0.5" stroke-linecap="round" stroke-linejoin="round" stroke-miterlimit="10" d="  M279.628,94.894c0-0.804,0.579-1.461,1.286-1.461s1.287,0.658,1.287,1.461s-0.579,1.461-1.287,1.461S279.628,95.697,279.628,94.894"/>
<path d="M179.042,131.405c0-0.804,0.579-1.462,1.287-1.462s1.286,0.658,1.286,1.462s-0.579,1.461-1.286,1.461  S179.042,132.208,179.042,131.405"/>
<path fill="none" stroke="#000000" stroke-width="0.5" stroke-linecap="round" stroke-linejoin="round" stroke-miterlimit="10" d="  M179.042,131.405c0-0.804,0.579-1.462,1.287-1.462s1.286,0.658,1.286,1.462s-0.579,1.461-1.286,1.461  S179.042,132.208,179.042,131.405"/>
<path d="M151.06,92.23c0-0.804,0.579-1.461,1.286-1.461s1.287,0.658,1.287,1.461s-0.579,1.461-1.287,1.461  S151.06,93.034,151.06,92.23"/>
<path fill="none" stroke="#000000" stroke-width="0.5" stroke-linecap="round" stroke-linejoin="round" stroke-miterlimit="10" d="  M151.06,92.23c0-0.804,0.579-1.461,1.286-1.461s1.287,0.658,1.287,1.461s-0.579,1.461-1.287,1.461S151.06,93.034,151.06,92.23"/>
<path d="M211.599,76.967c0-0.804,0.579-1.461,1.286-1.461c0.708,0,1.287,0.657,1.287,1.461c0,0.804-0.579,1.461-1.287,1.461  C212.178,78.428,211.599,77.771,211.599,76.967"/>
<path fill="none" stroke="#000000" stroke-width="0.5" stroke-linecap="round" stroke-linejoin="round" stroke-miterlimit="10" d="  M211.599,76.967c0-0.804,0.579-1.461,1.286-1.461c0.708,0,1.287,0.657,1.287,1.461c0,0.804-0.579,1.461-1.287,1.461  C212.178,78.428,211.599,77.771,211.599,76.967"/>
<path d="M266.15,68.409c0-0.804,0.579-1.461,1.287-1.461s1.286,0.658,1.286,1.461s-0.579,1.461-1.286,1.461  S266.15,69.213,266.15,68.409"/>
<path fill="none" stroke="#000000" stroke-width="0.5" stroke-linecap="round" stroke-linejoin="round" stroke-miterlimit="10" d="  M266.15,68.409c0-0.804,0.579-1.461,1.287-1.461s1.286,0.658,1.286,1.461s-0.579,1.461-1.286,1.461S266.15,69.213,266.15,68.409"/>
<path d="M170.103,55.703c0-0.804,0.579-1.462,1.287-1.462s1.286,0.658,1.286,1.462c0,0.804-0.579,1.461-1.286,1.461  S170.103,56.507,170.103,55.703"/>
<path fill="none" stroke="#000000" stroke-width="0.5" stroke-linecap="round" stroke-linejoin="round" stroke-miterlimit="10" d="  M170.103,55.703c0-0.804,0.579-1.462,1.287-1.462s1.286,0.658,1.286,1.462c0,0.804-0.579,1.461-1.286,1.461  S170.103,56.507,170.103,55.703"/>
<path d="M94.95,120.273c0-0.804,0.579-1.461,1.287-1.461c0.707,0,1.286,0.658,1.286,1.461s-0.579,1.461-1.286,1.461  C95.529,121.735,94.95,121.077,94.95,120.273"/>
<path fill="none" stroke="#000000" stroke-width="0.5" stroke-linecap="round" stroke-linejoin="round" stroke-miterlimit="10" d="  M94.95,120.273c0-0.804,0.579-1.461,1.287-1.461s1.286,0.658,1.286,1.461s-0.579,1.461-1.286,1.461S94.95,121.077,94.95,120.273"/>
<path d="M104.04,96.087c0-0.804,0.579-1.461,1.286-1.461s1.286,0.658,1.286,1.461s-0.579,1.461-1.286,1.461  S104.04,96.891,104.04,96.087"/>
<path fill="none" stroke="#000000" stroke-width="0.5" stroke-linecap="round" stroke-linejoin="round" stroke-miterlimit="10" d="  M104.04,96.087c0-0.804,0.579-1.461,1.286-1.461s1.286,0.658,1.286,1.461s-0.579,1.461-1.286,1.461S104.04,96.891,104.04,96.087"/>
<path d="M208.934,107.713c0-0.804,0.579-1.461,1.287-1.461s1.286,0.658,1.286,1.461s-0.579,1.461-1.286,1.461  S208.934,108.517,208.934,107.713"/>
<path fill="none" stroke="#000000" stroke-width="0.5" stroke-linecap="round" stroke-linejoin="round" stroke-miterlimit="10" d="  M208.934,107.713c0-0.804,0.579-1.461,1.287-1.461s1.286,0.658,1.286,1.461s-0.579,1.461-1.286,1.461  S208.934,108.517,208.934,107.713"/>
<polyline fill="none" stroke="#000000" stroke-width="0.5" stroke-linecap="round" stroke-linejoin="round" stroke-miterlimit="10" points="  14.603,0.25 14.603,184.974 310.956,184.974 "/>
<line fill="none" stroke="#000000" stroke-width="0.5" stroke-linecap="round" stroke-linejoin="round" stroke-miterlimit="10" x1="14.603" y1="109.54" x2="310.956" y2="64.902"/>
<g>
	<path d="M133.763,191.808c0.378-0.062,0.874-0.117,1.503-0.117c0.774,0,1.341,0.181,1.702,0.505   c0.333,0.288,0.531,0.729,0.531,1.27c0,0.549-0.162,0.98-0.468,1.296c-0.414,0.441-1.089,0.666-1.854,0.666   c-0.234,0-0.45-0.009-0.63-0.054v2.431h-0.783V191.808z M134.546,194.734c0.171,0.045,0.387,0.063,0.648,0.063   c0.945,0,1.521-0.459,1.521-1.297c0-0.801-0.567-1.188-1.432-1.188c-0.342,0-0.603,0.026-0.738,0.062V194.734z"/>
	<path d="M142.468,195.589c0,1.611-1.117,2.313-2.17,2.313c-1.179,0-2.088-0.864-2.088-2.241c0-1.459,0.954-2.313,2.161-2.313   C141.621,193.348,142.468,194.257,142.468,195.589z M139.011,195.634c0,0.954,0.549,1.675,1.323,1.675   c0.756,0,1.323-0.711,1.323-1.692c0-0.738-0.369-1.675-1.305-1.675C139.416,193.942,139.011,194.806,139.011,195.634z"/>
	<path d="M143.438,191.413h0.792v6.392h-0.792V191.413z"/>
	<path d="M145.859,193.447l0.954,2.575c0.099,0.288,0.207,0.63,0.279,0.891h0.018c0.081-0.261,0.171-0.594,0.279-0.909l0.864-2.557   h0.837l-1.188,3.106c-0.567,1.494-0.954,2.259-1.494,2.728c-0.387,0.342-0.774,0.477-0.973,0.513l-0.198-0.666   c0.198-0.062,0.459-0.188,0.693-0.387c0.216-0.171,0.486-0.478,0.667-0.883c0.036-0.081,0.063-0.144,0.063-0.188   s-0.018-0.108-0.054-0.207l-1.611-4.016H145.859z"/>
	<path d="M153.564,193.447c-0.018,0.315-0.036,0.666-0.036,1.197v2.53c0,0.999-0.198,1.611-0.622,1.989   c-0.423,0.396-1.035,0.522-1.584,0.522c-0.522,0-1.098-0.126-1.449-0.36l0.198-0.604c0.288,0.181,0.738,0.343,1.278,0.343   c0.81,0,1.404-0.424,1.404-1.521v-0.486h-0.018c-0.243,0.405-0.711,0.729-1.386,0.729c-1.081,0-1.854-0.919-1.854-2.125   c0-1.477,0.963-2.313,1.962-2.313c0.756,0,1.17,0.396,1.359,0.756h0.018l0.036-0.657H153.564z M152.745,195.167   c0-0.135-0.009-0.252-0.045-0.36c-0.144-0.459-0.531-0.837-1.107-0.837c-0.756,0-1.296,0.639-1.296,1.647   c0,0.855,0.432,1.566,1.287,1.566c0.486,0,0.927-0.307,1.099-0.811c0.045-0.135,0.063-0.288,0.063-0.423V195.167z"/>
	<path d="M155.255,195.77c0.018,1.071,0.703,1.512,1.495,1.512c0.567,0,0.909-0.099,1.207-0.225l0.135,0.567   c-0.279,0.126-0.756,0.27-1.449,0.27c-1.341,0-2.143-0.882-2.143-2.196s0.774-2.35,2.043-2.35c1.422,0,1.8,1.251,1.8,2.053   c0,0.162-0.018,0.288-0.027,0.369H155.255z M157.578,195.203c0.009-0.504-0.207-1.287-1.098-1.287   c-0.801,0-1.152,0.737-1.215,1.287H157.578z"/>
	<path d="M159.305,194.626c0-0.45-0.009-0.819-0.036-1.18h0.702l0.045,0.721h0.018c0.216-0.414,0.72-0.819,1.44-0.819   c0.604,0,1.54,0.359,1.54,1.854v2.602h-0.792v-2.512c0-0.702-0.261-1.287-1.008-1.287c-0.522,0-0.927,0.369-1.062,0.81   c-0.036,0.1-0.054,0.234-0.054,0.369v2.62h-0.792V194.626z"/>
	<path d="M165.164,192.222c0.009,0.271-0.189,0.486-0.504,0.486c-0.279,0-0.477-0.216-0.477-0.486c0-0.278,0.207-0.495,0.495-0.495   C164.975,191.727,165.164,191.944,165.164,192.222z M164.282,197.804v-4.357h0.792v4.357H164.282z"/>
	<path d="M169.503,197.642c-0.207,0.108-0.667,0.252-1.251,0.252c-1.314,0-2.169-0.891-2.169-2.224c0-1.341,0.918-2.313,2.34-2.313   c0.468,0,0.882,0.117,1.099,0.225l-0.18,0.612c-0.189-0.107-0.486-0.207-0.918-0.207c-0.999,0-1.539,0.738-1.539,1.647   c0,1.009,0.648,1.63,1.512,1.63c0.45,0,0.747-0.117,0.972-0.216L169.503,197.642z"/>
	<path d="M173.219,192.222c0.009,0.271-0.189,0.486-0.504,0.486c-0.279,0-0.477-0.216-0.477-0.486c0-0.278,0.207-0.495,0.495-0.495   C173.03,191.727,173.219,191.944,173.219,192.222z M172.336,197.804v-4.357h0.792v4.357H172.336z"/>
	<path d="M174.451,194.626c0-0.45-0.009-0.819-0.036-1.18h0.702l0.045,0.721h0.018c0.216-0.414,0.72-0.819,1.44-0.819   c0.604,0,1.54,0.359,1.54,1.854v2.602h-0.792v-2.512c0-0.702-0.261-1.287-1.008-1.287c-0.522,0-0.927,0.369-1.062,0.81   c-0.036,0.1-0.054,0.234-0.054,0.369v2.62h-0.792V194.626z"/>
	<path d="M183.191,191.413v5.267c0,0.387,0.009,0.828,0.036,1.125h-0.711l-0.036-0.756h-0.018c-0.243,0.485-0.774,0.854-1.485,0.854   c-1.053,0-1.863-0.891-1.863-2.214c-0.009-1.45,0.891-2.341,1.954-2.341c0.666,0,1.116,0.314,1.314,0.666h0.018v-2.602H183.191z    M182.399,195.22c0-0.099-0.009-0.233-0.036-0.333c-0.117-0.504-0.549-0.918-1.144-0.918c-0.819,0-1.305,0.72-1.305,1.684   c0,0.882,0.432,1.611,1.287,1.611c0.531,0,1.018-0.352,1.162-0.945c0.027-0.108,0.036-0.216,0.036-0.342V195.22z"/>
	<path d="M184.918,195.77c0.018,1.071,0.702,1.512,1.495,1.512c0.567,0,0.909-0.099,1.207-0.225l0.135,0.567   c-0.279,0.126-0.756,0.27-1.449,0.27c-1.341,0-2.143-0.882-2.143-2.196s0.774-2.35,2.043-2.35c1.422,0,1.8,1.251,1.8,2.053   c0,0.162-0.018,0.288-0.027,0.369H184.918z M187.241,195.203c0.009-0.504-0.207-1.287-1.098-1.287   c-0.801,0-1.152,0.737-1.215,1.287H187.241z"/>
	<path d="M189.337,193.447l0.621,0.937c0.162,0.243,0.297,0.468,0.441,0.711h0.027c0.144-0.261,0.288-0.486,0.432-0.72l0.612-0.928   h0.855l-1.485,2.106l1.53,2.251h-0.9l-0.64-0.981c-0.171-0.252-0.315-0.495-0.468-0.756h-0.018   c-0.144,0.261-0.297,0.495-0.459,0.756l-0.63,0.981h-0.873l1.548-2.224l-1.477-2.134H189.337z"/>
</g>
<g>
	<path d="M0.423,127.121v-0.783h5.411v-2.593h0.657v3.376H0.423z"/>
	<path d="M0.909,122.018c0.27-0.009,0.486,0.189,0.486,0.504c0,0.279-0.216,0.477-0.486,0.477c-0.279,0-0.495-0.207-0.495-0.495   C0.414,122.207,0.63,122.018,0.909,122.018z M6.491,122.9H2.133v-0.792h4.357V122.9z"/>
	<path d="M6.491,120.704H2.737v0.612H2.133v-0.612H1.926c-0.612,0-1.17-0.135-1.521-0.504C0.117,119.903,0,119.507,0,119.138   c0-0.279,0.063-0.522,0.126-0.675l0.612,0.108c-0.054,0.117-0.099,0.279-0.099,0.504c0,0.675,0.594,0.846,1.26,0.846h0.234v-1.053   h0.604v1.053h3.754V120.704z"/>
	<path d="M4.456,117.725c1.071-0.018,1.513-0.702,1.513-1.495c0-0.567-0.099-0.909-0.225-1.207l0.567-0.135   c0.126,0.279,0.27,0.756,0.27,1.449c0,1.341-0.882,2.143-2.196,2.143s-2.35-0.774-2.35-2.043c0-1.422,1.251-1.8,2.053-1.8   c0.162,0,0.288,0.018,0.369,0.027V117.725z M3.889,115.402c-0.504-0.009-1.288,0.207-1.288,1.098c0,0.801,0.738,1.152,1.288,1.215   V115.402z"/>
	<path d="M6.329,108.67c0.108,0.207,0.252,0.666,0.252,1.251c0,1.314-0.891,2.169-2.224,2.169c-1.341,0-2.313-0.918-2.313-2.34   c0-0.468,0.117-0.882,0.225-1.099l0.612,0.18c-0.108,0.189-0.208,0.486-0.208,0.918c0,0.999,0.738,1.539,1.648,1.539   c1.008,0,1.629-0.648,1.629-1.512c0-0.45-0.117-0.747-0.216-0.972L6.329,108.67z"/>
	<path d="M4.276,103.801c1.612,0,2.314,1.117,2.314,2.17c0,1.179-0.864,2.088-2.242,2.088c-1.458,0-2.314-0.954-2.314-2.161   C2.034,104.647,2.944,103.801,4.276,103.801z M4.321,107.258c0.954,0,1.674-0.549,1.674-1.323c0-0.756-0.711-1.323-1.692-1.323   c-0.738,0-1.675,0.369-1.675,1.305C2.628,106.853,3.493,107.258,4.321,107.258z"/>
	<path d="M5.302,99.185c0.45,0,0.846-0.009,1.188-0.036v0.702l-0.711,0.045v0.018c0.351,0.207,0.811,0.667,0.811,1.44   c0,0.685-0.378,1.503-1.909,1.503H2.133v-0.792h2.413c0.828,0,1.386-0.252,1.386-0.972c0-0.531-0.369-0.9-0.72-1.044   c-0.117-0.045-0.261-0.072-0.405-0.072H2.133v-0.792H5.302z"/>
	<path d="M3.493,97.889c-0.513,0-0.954,0.009-1.359,0.036v-0.693l0.855-0.027v-0.036c-0.585-0.198-0.955-0.675-0.955-1.207   c0-0.09,0.009-0.153,0.027-0.225h0.747c-0.018,0.081-0.027,0.162-0.027,0.27c0,0.558,0.423,0.954,1.017,1.062   c0.108,0.018,0.234,0.036,0.369,0.036h2.323v0.783H3.493z"/>
	<path d="M5.681,95.063c0.153-0.234,0.315-0.648,0.315-1.044c0-0.576-0.288-0.847-0.648-0.847c-0.378,0-0.585,0.225-0.801,0.811   c-0.279,0.783-0.711,1.152-1.233,1.152c-0.703,0-1.279-0.567-1.279-1.503c0-0.441,0.126-0.828,0.271-1.071l0.576,0.198   c-0.108,0.171-0.252,0.486-0.252,0.892c0,0.468,0.27,0.729,0.594,0.729c0.36,0,0.522-0.261,0.738-0.828   c0.288-0.756,0.666-1.144,1.314-1.144c0.765,0,1.305,0.594,1.305,1.629c0,0.478-0.117,0.918-0.297,1.225L5.681,95.063z"/>
	<path d="M4.456,90.933c1.071-0.018,1.513-0.703,1.513-1.495c0-0.567-0.099-0.909-0.225-1.207l0.567-0.135   c0.126,0.279,0.27,0.756,0.27,1.449c0,1.341-0.882,2.143-2.196,2.143s-2.35-0.774-2.35-2.043c0-1.422,1.251-1.8,2.053-1.8   c0.162,0,0.288,0.018,0.369,0.027V90.933z M3.889,88.61c-0.504-0.009-1.288,0.207-1.288,1.098c0,0.801,0.738,1.152,1.288,1.215   V88.61z"/>
	<path d="M4.276,81.041c1.612,0,2.314,1.117,2.314,2.17c0,1.179-0.864,2.088-2.242,2.088c-1.458,0-2.314-0.954-2.314-2.161   C2.034,81.887,2.944,81.041,4.276,81.041z M4.321,84.498c0.954,0,1.674-0.549,1.674-1.323c0-0.756-0.711-1.323-1.692-1.323   c-0.738,0-1.675,0.369-1.675,1.305C2.628,84.093,3.493,84.498,4.321,84.498z"/>
	<path d="M5.302,76.424c0.45,0,0.846-0.009,1.188-0.036v0.702l-0.711,0.045v0.018C6.13,77.36,6.59,77.82,6.59,78.594   c0,0.685-0.378,1.503-1.909,1.503H2.133v-0.792h2.413c0.828,0,1.386-0.252,1.386-0.972c0-0.531-0.369-0.9-0.72-1.044   c-0.117-0.045-0.261-0.072-0.405-0.072H2.133v-0.792H5.302z"/>
	<path d="M0.882,74.175h1.251v-1.134h0.604v1.134h2.35c0.54,0,0.846-0.153,0.846-0.594c0-0.207-0.027-0.36-0.054-0.459l0.594-0.036   c0.063,0.153,0.108,0.396,0.108,0.702c0,0.369-0.117,0.666-0.333,0.855c-0.234,0.225-0.621,0.306-1.134,0.306H2.737v0.675H2.133   v-0.675H1.089L0.882,74.175z"/>
	<path d="M6.329,69.053c0.108,0.207,0.252,0.666,0.252,1.251c0,1.314-0.891,2.169-2.224,2.169c-1.341,0-2.313-0.918-2.313-2.34   c0-0.468,0.117-0.882,0.225-1.099l0.612,0.18c-0.108,0.189-0.208,0.486-0.208,0.918c0,0.999,0.738,1.539,1.648,1.539   c1.008,0,1.629-0.648,1.629-1.512c0-0.45-0.117-0.747-0.216-0.972L6.329,69.053z"/>
	<path d="M4.276,64.184c1.612,0,2.314,1.117,2.314,2.17c0,1.179-0.864,2.088-2.242,2.088c-1.458,0-2.314-0.954-2.314-2.161   C2.034,65.03,2.944,64.184,4.276,64.184z M4.321,67.641c0.954,0,1.674-0.549,1.674-1.323c0-0.756-0.711-1.323-1.692-1.323   c-0.738,0-1.675,0.369-1.675,1.305C2.628,67.236,3.493,67.641,4.321,67.641z"/>
	<path d="M3.313,63.213c-0.45,0-0.819,0.009-1.18,0.036v-0.693l0.702-0.036v-0.027c-0.414-0.243-0.801-0.648-0.801-1.368   c0-0.594,0.36-1.044,0.874-1.233v-0.018c-0.243-0.135-0.432-0.306-0.567-0.486c-0.198-0.261-0.306-0.549-0.306-0.963   c0-0.576,0.378-1.431,1.891-1.431h2.566v0.774H4.024c-0.837,0-1.341,0.306-1.341,0.945c0,0.45,0.333,0.801,0.72,0.937   c0.108,0.036,0.252,0.063,0.396,0.063h2.692v0.774H3.88c-0.693,0-1.197,0.306-1.197,0.91c0,0.495,0.396,0.855,0.792,0.981   c0.117,0.045,0.252,0.063,0.387,0.063h2.629v0.774H3.313z"/>
	<path d="M4.456,55.293c1.071-0.018,1.513-0.702,1.513-1.495c0-0.567-0.099-0.909-0.225-1.207l0.567-0.135   c0.126,0.279,0.27,0.756,0.27,1.449c0,1.341-0.882,2.143-2.196,2.143s-2.35-0.774-2.35-2.043c0-1.422,1.251-1.8,2.053-1.8   c0.162,0,0.288,0.018,0.369,0.027V55.293z M3.889,52.971c-0.504-0.009-1.288,0.207-1.288,1.098c0,0.801,0.738,1.152,1.288,1.215   V52.971z"/>
</g>
</svg>