<svg xmlns="http://www.w3.org/2000/svg" xmlns:xlink="http://www.w3.org/1999/xlink" version="1.1" id="Layer_1" x="0px" y="0px" width="360px" height="133.559px" viewBox="0 0 360 133.559" enable-background="new 0 0 360 133.559" xml:space="preserve">
<g>
	<rect x="3.381" y="37.313" fill="#333333" width="6.762" height="3.396"/>
	<rect x="3.381" y="36.467" fill="#999999" width="6.762" height="0.847"/>
	<rect x="3.381" y="40.709" fill="#999999" width="6.762" height="13.295"/>
	<rect x="3.381" y="54.004" fill="#333333" width="6.762" height="7.922"/>
	<rect x="3.381" y="100.693" fill="#999999" width="6.762" height="6.201"/>
	<rect x="3.381" y="89.945" fill="#333333" width="6.762" height="10.748"/>
	<rect x="3.381" y="61.926" fill="#999999" width="6.762" height="28.02"/>
</g>
<g>
	<rect x="34.879" y="89.945" fill="#999999" width="6.762" height="7.894"/>
	<rect x="34.879" y="50.057" fill="#333333" width="6.762" height="23.17"/>
	<rect x="34.879" y="88.256" fill="#333333" width="6.762" height="1.689"/>
	<rect x="34.879" y="97.839" fill="#333333" width="6.762" height="1.689"/>
	<rect x="34.879" y="104.101" fill="#333333" width="6.762" height="2.794"/>
	<rect x="34.879" y="99.528" fill="#999999" width="6.762" height="4.572"/>
	<rect x="34.879" y="73.227" fill="#999999" width="6.762" height="15.029"/>
</g>
<g>
	<rect x="50.628" y="52.488" fill="#999999" width="6.762" height="0.7"/>
	<rect x="50.628" y="53.188" fill="#333333" width="6.762" height="20.592"/>
	<rect x="50.628" y="82.576" fill="#333333" width="6.762" height="24.318"/>
	<rect x="50.628" y="73.78" fill="#999999" width="6.762" height="8.796"/>
</g>
<g>
	<rect x="82.125" y="59.056" width="6.762" height="2.841"/>
	<rect x="82.125" y="68.421" fill="#999999" width="6.762" height="8.796"/>
	<rect x="82.125" y="61.896" fill="#333333" width="6.762" height="6.524"/>
	<rect x="82.125" y="95.014" fill="#999999" width="6.762" height="1.427"/>
	<rect x="82.125" y="96.44" fill="#333333" width="6.762" height="10.454"/>
	<rect x="82.125" y="77.217" fill="#333333" width="6.762" height="17.797"/>
</g>
<g>
	<rect x="97.875" y="84.849" width="6.762" height="3.378"/>
	<rect x="97.875" y="88.227" fill="#333333" width="6.762" height="8.214"/>
	<rect x="97.875" y="78.615" fill="#333333" width="6.762" height="6.233"/>
	<rect x="97.875" y="61.14" fill="#333333" width="6.762" height="14.65"/>
	<rect x="97.875" y="96.44" fill="#999999" width="6.762" height="3.116"/>
	<rect x="97.875" y="99.557" fill="#333333" width="6.762" height="7.338"/>
	<rect x="97.875" y="75.79" fill="#999999" width="6.762" height="2.825"/>
</g>
<g>
	<rect x="113.624" y="89.945" fill="#333333" width="6.762" height="8.185"/>
	<rect x="113.624" y="76.664" width="6.762" height="13.281"/>
	<rect x="113.624" y="63.634" fill="#333333" width="6.762" height="13.03"/>
	<rect x="113.624" y="106.081" fill="#333333" width="6.762" height="0.813"/>
	<rect x="113.624" y="98.13" width="6.762" height="7.951"/>
</g>
<g>
	<rect x="129.372" y="87.091" fill="#333333" width="6.762" height="11.039"/>
	<rect x="129.372" y="84.266" fill="#999999" width="6.762" height="2.825"/>
	<rect x="129.372" y="66.952" width="6.762" height="2.022"/>
	<rect x="129.372" y="68.975" fill="#333333" width="6.762" height="15.291"/>
	<rect x="129.372" y="106.605" fill="#333333" width="6.762" height="0.289"/>
	<rect x="129.372" y="98.13" width="6.762" height="8.476"/>
</g>
<g>
	<rect x="145.121" y="71.829" fill="#333333" width="6.762" height="1.106"/>
	<rect x="145.121" y="66.952" fill="#999999" width="6.762" height="4.877"/>
	<rect x="145.121" y="93.615" fill="#999999" width="6.762" height="4.515"/>
	<rect x="145.121" y="72.936" fill="#999999" width="6.762" height="9.903"/>
	<rect x="145.121" y="100.431" fill="#999999" width="6.762" height="4.835"/>
	<rect x="145.121" y="98.13" fill="#333333" width="6.762" height="2.301"/>
	<rect x="145.121" y="105.266" fill="#333333" width="6.762" height="1.629"/>
	<rect x="145.121" y="82.839" fill="#333333" width="6.762" height="10.776"/>
</g>
<g>
	<rect x="160.87" y="79.767" width="6.762" height="21.171"/>
	<rect x="160.87" y="66.952" fill="#333333" width="6.762" height="1.738"/>
	<rect x="160.87" y="72.555" fill="#333333" width="6.762" height="7.212"/>
	<rect x="160.87" y="68.69" width="6.762" height="3.864"/>
	<rect x="160.87" y="102.102" width="6.762" height="4.793"/>
	<rect x="160.87" y="100.938" fill="#333333" width="6.762" height="1.164"/>
</g>
<g>
	<rect x="176.619" y="67.903" width="6.762" height="3.889"/>
	<rect x="176.619" y="83.683" fill="#999999" width="6.762" height="2.838"/>
	<rect x="176.619" y="71.792" fill="#333333" width="6.762" height="11.891"/>
	<rect x="176.619" y="66.952" fill="#333333" width="6.762" height="0.951"/>
	<rect x="176.619" y="104.684" width="6.762" height="2.211"/>
	<rect x="176.619" y="86.521" fill="#333333" width="6.762" height="13.367"/>
	<rect x="176.619" y="102.924" fill="#333333" width="6.762" height="1.76"/>
	<rect x="176.619" y="99.888" fill="#999999" width="6.762" height="3.036"/>
</g>
<g>
	<rect x="192.368" y="70.94" fill="#333333" width="6.762" height="0.596"/>
	<rect x="192.368" y="71.536" fill="#999999" width="6.762" height="27.443"/>
	<rect x="192.368" y="70.43" width="6.762" height="0.511"/>
	<rect x="192.368" y="69.249" fill="#999999" width="6.762" height="0.613"/>
	<rect x="192.368" y="100.398" fill="#CCCCCC" width="6.762" height="6.496"/>
	<rect x="192.368" y="69.862" fill="#333333" width="6.762" height="0.567"/>
	<rect x="192.368" y="99.264" width="6.762" height="1.135"/>
	<rect x="192.368" y="98.979" fill="#333333" width="6.762" height="0.284"/>
</g>
<g>
	<rect x="208.117" y="71.781" fill="#333333" width="6.762" height="1.969"/>
	<rect x="208.117" y="73.75" width="6.762" height="1.76"/>
	<rect x="208.117" y="75.51" fill="#333333" width="6.762" height="14.417"/>
	<rect x="208.117" y="89.927" width="6.762" height="6.811"/>
	<rect x="208.117" y="96.737" fill="#333333" width="6.762" height="3.974"/>
	<rect x="208.117" y="100.711" fill="#CCCCCC" width="6.762" height="6.184"/>
</g>
<g>
	<rect x="223.865" y="72.104" fill="#333333" width="6.763" height="21.768"/>
	<rect x="223.865" y="93.871" fill="#999999" width="6.763" height="2.043"/>
	<rect x="223.865" y="71.781" fill="#999999" width="6.763" height="0.322"/>
	<rect x="223.865" y="99.831" fill="#CCCCCC" width="6.763" height="7.063"/>
	<rect x="223.865" y="98.724" fill="#999999" width="6.763" height="1.107"/>
	<rect x="223.865" y="95.914" fill="#333333" width="6.763" height="2.81"/>
</g>
<g>
	<rect x="239.614" y="86.577" width="6.763" height="8.713"/>
	<rect x="239.614" y="71.781" fill="#999999" width="6.763" height="1.713"/>
	<rect x="239.614" y="73.494" fill="#333333" width="6.763" height="13.083"/>
	<rect x="239.614" y="95.29" fill="#333333" width="6.763" height="9.961"/>
	<rect x="239.614" y="105.251" width="6.763" height="1.644"/>
</g>
<g>
	<rect x="255.363" y="78.534" fill="#999999" width="6.762" height="9.15"/>
	<rect x="255.363" y="87.685" fill="#333333" width="6.762" height="8.77"/>
	<rect x="255.363" y="96.454" fill="#999999" width="6.762" height="10.44"/>
</g>
<g>
	<rect x="271.112" y="86.237" fill="#333333" width="6.762" height="5.647"/>
	<rect x="271.112" y="79.652" fill="#333333" width="6.762" height="1.533"/>
	<rect x="271.112" y="81.186" width="6.762" height="5.052"/>
	<rect x="271.112" y="91.885" width="6.762" height="11.664"/>
	<rect x="271.112" y="103.549" fill="#333333" width="6.762" height="3.346"/>
</g>
<g>
	<rect x="286.861" y="90.267" width="6.762" height="10.671"/>
	<rect x="286.861" y="85.323" fill="#333333" width="6.762" height="4.943"/>
	<rect x="286.861" y="105.733" fill="#999999" width="6.762" height="1.161"/>
	<rect x="286.861" y="100.938" fill="#333333" width="6.762" height="4.796"/>
</g>
<g>
	<rect x="302.61" y="89.104" fill="#333333" width="6.762" height="11.323"/>
	<rect x="302.61" y="100.427" fill="#999999" width="6.762" height="6.468"/>
	<rect x="302.61" y="82.753" width="6.762" height="6.351"/>
</g>
<g>
	<rect x="318.359" y="95.318" fill="#999999" width="6.762" height="7.89"/>
	<rect x="318.359" y="89.805" fill="#333333" width="6.762" height="5.514"/>
	<rect x="318.359" y="103.208" fill="#CCCCCC" width="6.762" height="3.687"/>
</g>
<g>
	<rect x="334.108" y="87.893" fill="#333333" width="6.762" height="0.615"/>
	<rect x="334.108" y="88.508" width="6.762" height="0.312"/>
	<rect x="334.108" y="88.819" fill="#333333" width="6.762" height="3.917"/>
	<rect x="334.108" y="100.966" fill="#CCCCCC" width="6.762" height="5.929"/>
	<rect x="334.108" y="92.736" width="6.762" height="4.001"/>
	<rect x="334.108" y="96.737" fill="#333333" width="6.762" height="4.229"/>
</g>
<g>
	<rect x="349.856" y="51.749" fill="#999999" width="6.763" height="8.194"/>
	<rect x="349.856" y="85.102" fill="#999999" width="6.763" height="15.609"/>
	<rect x="349.856" y="100.711" fill="#333333" width="6.763" height="2.497"/>
	<rect x="349.856" y="59.943" fill="#333333" width="6.763" height="25.158"/>
	<rect x="349.856" y="49.169" fill="#333333" width="6.763" height="2.58"/>
	<rect x="349.856" y="103.208" fill="#999999" width="6.763" height="3.687"/>
	<rect x="349.856" y="44.873" fill="#999999" width="6.763" height="4.296"/>
</g>
<g>
	<rect x="19.13" y="42.953" fill="#999999" width="6.762" height="21.769"/>
	<rect x="19.13" y="75.761" fill="#333333" width="6.762" height="18.961"/>
	<rect x="19.13" y="67.548" width="6.762" height="8.213"/>
	<rect x="19.13" y="64.722" fill="#333333" width="6.762" height="2.826"/>
	<rect x="19.13" y="105.499" fill="#333333" width="6.762" height="1.396"/>
	<rect x="19.13" y="94.722" fill="#999999" width="6.762" height="2.01"/>
	<rect x="19.13" y="96.731" fill="#333333" width="6.762" height="1.952"/>
	<rect x="19.13" y="98.684" width="6.762" height="6.815"/>
	<rect x="19.13" y="38.972" width="6.762" height="3.42"/>
	<rect x="19.13" y="42.392" fill="#333333" width="6.762" height="0.562"/>
</g>
<g>
	<path d="M0.512,5.849C0.824,6.04,1.279,6.2,1.759,6.2c0.711,0,1.127-0.376,1.127-0.919c0-0.504-0.288-0.792-1.015-1.072   C0.992,3.897,0.448,3.441,0.448,2.683c0-0.84,0.696-1.464,1.743-1.464c0.552,0,0.951,0.128,1.191,0.265L3.19,2.051   C3.014,1.955,2.655,1.795,2.167,1.795c-0.736,0-1.016,0.439-1.016,0.808c0,0.504,0.328,0.751,1.071,1.039   c0.912,0.352,1.375,0.792,1.375,1.583c0,0.832-0.616,1.552-1.887,1.552c-0.52,0-1.087-0.152-1.375-0.344L0.512,5.849z"/>
	<path d="M4.527,1.02h0.704v2.414h0.016c0.112-0.199,0.288-0.376,0.504-0.495c0.208-0.12,0.456-0.2,0.719-0.2   c0.52,0,1.352,0.319,1.352,1.655v2.303H7.118V4.474c0-0.624-0.232-1.151-0.896-1.151c-0.456,0-0.815,0.319-0.943,0.703   c-0.04,0.096-0.048,0.2-0.048,0.336v2.335H4.527V1.02z"/>
	<path d="M11.11,6.696l-0.056-0.488H11.03c-0.216,0.304-0.631,0.576-1.183,0.576c-0.784,0-1.184-0.552-1.184-1.111   c0-0.936,0.832-1.447,2.327-1.439v-0.08c0-0.319-0.088-0.896-0.879-0.896c-0.36,0-0.735,0.112-1.007,0.288l-0.16-0.464   c0.32-0.208,0.784-0.344,1.271-0.344c1.183,0,1.471,0.808,1.471,1.583v1.447c0,0.336,0.016,0.664,0.064,0.928H11.11z M11.006,4.721   c-0.768-0.016-1.639,0.12-1.639,0.872c0,0.456,0.304,0.672,0.664,0.672c0.504,0,0.824-0.32,0.936-0.648   c0.024-0.071,0.04-0.151,0.04-0.224V4.721z"/>
	<path d="M12.823,4.033c0-0.455-0.008-0.848-0.032-1.207h0.616l0.024,0.76h0.032c0.176-0.52,0.6-0.848,1.072-0.848   c0.08,0,0.136,0.008,0.2,0.024v0.663c-0.072-0.016-0.144-0.023-0.24-0.023c-0.496,0-0.848,0.375-0.943,0.903   c-0.016,0.096-0.032,0.208-0.032,0.327v2.063h-0.696V4.033z"/>
	<path d="M15.751,4.889c0.016,0.952,0.624,1.344,1.327,1.344c0.504,0,0.808-0.088,1.071-0.2l0.12,0.504   c-0.248,0.112-0.672,0.24-1.287,0.24c-1.191,0-1.903-0.784-1.903-1.951s0.688-2.087,1.815-2.087c1.264,0,1.599,1.111,1.599,1.823   c0,0.144-0.016,0.256-0.024,0.327H15.751z M17.814,4.386c0.008-0.448-0.184-1.144-0.975-1.144c-0.712,0-1.023,0.655-1.08,1.144   H17.814z"/>
	<path d="M22.709,1.02v4.677c0,0.344,0.008,0.736,0.032,1H22.11l-0.032-0.672h-0.016c-0.216,0.432-0.688,0.76-1.319,0.76   c-0.936,0-1.655-0.792-1.655-1.967c-0.008-1.287,0.792-2.079,1.735-2.079c0.591,0,0.991,0.28,1.167,0.592h0.016V1.02H22.709z    M22.006,4.401c0-0.088-0.008-0.208-0.032-0.296C21.87,3.658,21.486,3.29,20.958,3.29c-0.728,0-1.159,0.64-1.159,1.495   c0,0.783,0.384,1.432,1.143,1.432c0.472,0,0.904-0.312,1.032-0.84c0.024-0.096,0.032-0.192,0.032-0.304V4.401z"/>
	<path d="M25.599,1.379c0.423-0.063,0.927-0.112,1.479-0.112c1,0,1.711,0.232,2.183,0.672c0.48,0.44,0.76,1.063,0.76,1.936   c0,0.879-0.272,1.599-0.776,2.095c-0.503,0.504-1.335,0.775-2.382,0.775c-0.496,0-0.912-0.024-1.263-0.064V1.379z M26.294,6.145   c0.176,0.032,0.432,0.04,0.704,0.04c1.487,0,2.295-0.832,2.295-2.287c0.008-1.271-0.712-2.079-2.183-2.079   c-0.359,0-0.631,0.032-0.815,0.072V6.145z"/>
	<path d="M30.926,6.696v-5.39h0.76l1.727,2.727c0.4,0.632,0.711,1.199,0.967,1.751l0.016-0.008c-0.064-0.72-0.08-1.375-0.08-2.215   V1.307h0.655v5.39h-0.704l-1.711-2.734c-0.376-0.6-0.736-1.216-1.007-1.8l-0.024,0.009c0.04,0.68,0.056,1.327,0.056,2.223v2.303   H30.926z"/>
	<path d="M37.062,5.001l-0.56,1.695h-0.72l1.831-5.39h0.84l1.839,5.39h-0.744l-0.576-1.695H37.062z M38.829,4.457l-0.527-1.551   c-0.12-0.352-0.2-0.672-0.28-0.983h-0.016c-0.08,0.319-0.168,0.647-0.272,0.976l-0.528,1.559H38.829z"/>
	<path d="M2.854,17.496v-1.594H0.135V15.38l2.61-3.735h0.855v3.637H4.42v0.621H3.601v1.594H2.854z M2.854,15.281v-1.954   c0-0.306,0.009-0.611,0.027-0.918H2.854c-0.18,0.342-0.324,0.595-0.486,0.864l-1.432,1.99v0.018H2.854z"/>
	<path d="M7.471,17.496v-1.594H4.752V15.38l2.61-3.735h0.855v3.637h0.819v0.621H8.218v1.594H7.471z M7.471,15.281v-1.954   c0-0.306,0.009-0.611,0.027-0.918H7.471c-0.18,0.342-0.324,0.595-0.486,0.864l-1.431,1.99v0.018H7.471z"/>
	<path d="M9.702,17.027c0-0.333,0.225-0.566,0.54-0.566s0.531,0.233,0.531,0.566c0,0.324-0.207,0.567-0.54,0.567   C9.917,17.595,9.702,17.352,9.702,17.027z"/>
	<path d="M14.841,12.202c-0.162-0.009-0.369,0-0.594,0.036c-1.242,0.207-1.899,1.116-2.035,2.08h0.027   c0.279-0.369,0.765-0.676,1.413-0.676c1.036,0,1.765,0.747,1.765,1.891c0,1.071-0.729,2.062-1.944,2.062   c-1.251,0-2.071-0.972-2.071-2.493c0-1.152,0.414-2.062,0.99-2.639c0.486-0.477,1.134-0.773,1.873-0.864   c0.234-0.035,0.432-0.045,0.576-0.045V12.202z M14.616,15.578c0-0.837-0.477-1.341-1.207-1.341c-0.477,0-0.918,0.297-1.134,0.72   c-0.054,0.09-0.09,0.207-0.09,0.352c0.018,0.963,0.459,1.674,1.288,1.674C14.157,16.982,14.616,16.416,14.616,15.578z"/>
	<path d="M18.756,13.292c0,1.233-0.648,1.845-1.404,1.845c-0.729,0-1.359-0.585-1.369-1.764c0-1.171,0.639-1.828,1.414-1.828   C18.216,11.545,18.756,12.175,18.756,13.292z M16.613,13.346c-0.018,0.747,0.261,1.314,0.756,1.314   c0.522,0,0.756-0.559,0.756-1.333c0-0.711-0.207-1.305-0.756-1.305C16.874,12.022,16.613,12.607,16.613,13.346z M17.297,17.595   l3.439-6.05h0.504l-3.439,6.05H17.297z M22.564,15.713c0,1.233-0.648,1.846-1.396,1.846c-0.729,0-1.359-0.585-1.368-1.755   c0-1.18,0.639-1.837,1.413-1.837C22.033,13.967,22.564,14.597,22.564,15.713z M20.421,15.768c-0.009,0.747,0.279,1.314,0.765,1.314   c0.522,0,0.756-0.559,0.756-1.333c0-0.711-0.207-1.305-0.756-1.305C20.691,14.444,20.421,15.029,20.421,15.768z"/>
	<path d="M0.528,26.288c0.2,0.128,0.664,0.328,1.151,0.328c0.903,0,1.183-0.575,1.175-1.008c-0.008-0.728-0.664-1.039-1.343-1.039   H1.12v-0.527h0.392c0.512,0,1.159-0.265,1.159-0.88c0-0.416-0.264-0.783-0.911-0.783c-0.416,0-0.816,0.184-1.04,0.344l-0.184-0.512   c0.272-0.2,0.8-0.4,1.359-0.4c1.023,0,1.487,0.608,1.487,1.239c0,0.536-0.32,0.992-0.959,1.224v0.016   c0.64,0.128,1.159,0.608,1.159,1.336c0,0.831-0.647,1.559-1.895,1.559c-0.583,0-1.095-0.184-1.351-0.352L0.528,26.288z"/>
	<path d="M4.632,26.288c0.2,0.128,0.664,0.328,1.151,0.328c0.903,0,1.183-0.575,1.175-1.008c-0.008-0.728-0.664-1.039-1.343-1.039   H5.223v-0.527h0.392c0.512,0,1.159-0.265,1.159-0.88c0-0.416-0.264-0.783-0.912-0.783c-0.416,0-0.815,0.184-1.039,0.344   L4.64,22.211c0.272-0.2,0.8-0.4,1.359-0.4c1.023,0,1.487,0.608,1.487,1.239c0,0.536-0.32,0.992-0.959,1.224v0.016   c0.64,0.128,1.159,0.608,1.159,1.336c0,0.831-0.647,1.559-1.895,1.559c-0.583,0-1.095-0.184-1.351-0.352L4.632,26.288z"/>
	<path d="M8.568,27.096v-0.432l0.552-0.535c1.327-1.264,1.927-1.936,1.935-2.719c0-0.528-0.256-1.016-1.031-1.016   c-0.472,0-0.863,0.24-1.104,0.439l-0.224-0.495c0.36-0.304,0.872-0.528,1.471-0.528c1.119,0,1.591,0.768,1.591,1.512   c0,0.959-0.696,1.734-1.791,2.79l-0.416,0.384v0.017h2.335v0.583H8.568z"/>
	<path d="M14.199,22.555h-0.016l-0.904,0.487l-0.136-0.535l1.135-0.608h0.6v5.197h-0.68V22.555z"/>
	<path d="M21.454,26.952c-0.184,0.096-0.592,0.224-1.111,0.224c-1.167,0-1.927-0.791-1.927-1.975c0-1.191,0.815-2.055,2.079-2.055   c0.416,0,0.783,0.104,0.976,0.199l-0.16,0.544c-0.168-0.096-0.432-0.184-0.815-0.184c-0.888,0-1.367,0.655-1.367,1.463   c0,0.896,0.576,1.447,1.343,1.447c0.399,0,0.664-0.104,0.863-0.191L21.454,26.952z"/>
	<path d="M26.845,24.729c-0.04-0.752-0.088-1.655-0.08-2.327h-0.024c-0.184,0.632-0.408,1.304-0.68,2.047l-0.952,2.615h-0.528   l-0.872-2.567c-0.256-0.759-0.472-1.455-0.624-2.095h-0.016c-0.016,0.672-0.056,1.575-0.104,2.383l-0.144,2.311H22.16l0.375-5.389   h0.888l0.919,2.606c0.224,0.664,0.408,1.255,0.544,1.815h0.024c0.136-0.544,0.328-1.136,0.567-1.815l0.959-2.606h0.888l0.336,5.389   h-0.68L26.845,24.729z"/>
</g>
<g>
	<path d="M6.597,111.173H6.582l-0.903,0.487l-0.137-0.535l1.136-0.607h0.6v5.197h-0.68V111.173z"/>
</g>
<g>
	<path d="M20.819,115.715v-0.433l0.552-0.535c1.328-1.264,1.928-1.936,1.936-2.719c0-0.527-0.256-1.016-1.031-1.016   c-0.473,0-0.864,0.24-1.104,0.44l-0.225-0.496c0.36-0.304,0.872-0.527,1.472-0.527c1.119,0,1.591,0.768,1.591,1.511   c0,0.96-0.695,1.735-1.791,2.79l-0.416,0.384v0.017h2.335v0.584H20.819z"/>
</g>
<g>
	<path d="M36.735,114.907c0.2,0.128,0.664,0.327,1.151,0.327c0.904,0,1.184-0.575,1.176-1.007c-0.008-0.728-0.664-1.04-1.344-1.04   h-0.392v-0.527h0.392c0.512,0,1.16-0.264,1.16-0.88c0-0.415-0.265-0.783-0.912-0.783c-0.416,0-0.815,0.184-1.039,0.344   l-0.184-0.512c0.271-0.2,0.799-0.399,1.358-0.399c1.023,0,1.487,0.607,1.487,1.239c0,0.535-0.319,0.991-0.959,1.223v0.017   c0.64,0.128,1.159,0.607,1.159,1.335c0,0.831-0.647,1.56-1.895,1.56c-0.584,0-1.096-0.185-1.352-0.353L36.735,114.907z"/>
</g>
<g>
	<path d="M54.491,115.715v-1.416h-2.414v-0.464l2.318-3.317h0.76v3.229h0.728v0.552h-0.728v1.416H54.491z M54.491,113.747v-1.734   c0-0.272,0.009-0.544,0.024-0.815h-0.024c-0.159,0.304-0.287,0.527-0.432,0.768l-1.271,1.767v0.016H54.491z"/>
</g>
<g>
	<rect x="66.376" y="61.605" fill="#333333" width="6.762" height="3.146"/>
	<rect x="66.376" y="55.848" fill="#333333" width="6.762" height="3.807"/>
	<rect x="66.376" y="64.751" width="6.762" height="10.194"/>
	<rect x="66.376" y="59.654" width="6.762" height="1.951"/>
	<rect x="66.376" y="80.014" fill="#999999" width="6.762" height="16.165"/>
	<rect x="66.376" y="96.179" fill="#333333" width="6.762" height="9.32"/>
	<rect x="66.376" y="74.945" fill="#333333" width="6.762" height="5.068"/>
	<rect x="66.376" y="105.499" fill="#999999" width="6.762" height="1.396"/>
</g>
<g>
	<path d="M71.168,111.109h-1.982l-0.2,1.335c0.12-0.017,0.231-0.032,0.424-0.032c0.399,0,0.8,0.088,1.119,0.28   c0.408,0.231,0.744,0.68,0.744,1.335c0,1.016-0.808,1.775-1.936,1.775c-0.567,0-1.047-0.16-1.295-0.32l0.176-0.535   c0.216,0.127,0.64,0.287,1.111,0.287c0.664,0,1.231-0.432,1.231-1.127c-0.008-0.672-0.456-1.151-1.495-1.151   c-0.296,0-0.528,0.032-0.72,0.056l0.336-2.494h2.486V111.109z"/>
</g>
<g>
	<path d="M86.781,111.013c-0.144-0.008-0.328,0-0.527,0.032c-1.104,0.184-1.688,0.991-1.808,1.847h0.024   c0.248-0.327,0.68-0.6,1.255-0.6c0.92,0,1.567,0.664,1.567,1.68c0,0.951-0.647,1.831-1.728,1.831c-1.111,0-1.839-0.864-1.839-2.215   c0-1.023,0.368-1.831,0.88-2.343c0.432-0.424,1.008-0.688,1.663-0.768c0.208-0.032,0.384-0.04,0.512-0.04V111.013z M86.581,114.012   c0-0.744-0.424-1.191-1.071-1.191c-0.424,0-0.815,0.264-1.007,0.64c-0.049,0.079-0.08,0.184-0.08,0.312   c0.016,0.855,0.407,1.487,1.143,1.487C86.173,115.259,86.581,114.755,86.581,114.012z"/>
</g>
<g>
	<path d="M102.938,110.518v0.463l-2.263,4.734h-0.729l2.255-4.598v-0.017H99.66v-0.583H102.938z"/>
</g>
<g>
	<path d="M115.249,114.396c0-0.656,0.392-1.12,1.031-1.392l-0.008-0.024c-0.576-0.271-0.823-0.72-0.823-1.167   c0-0.823,0.695-1.383,1.606-1.383c1.008,0,1.512,0.631,1.512,1.279c0,0.439-0.216,0.911-0.855,1.215v0.024   c0.647,0.256,1.047,0.711,1.047,1.343c0,0.903-0.775,1.512-1.767,1.512C115.904,115.803,115.249,115.154,115.249,114.396z    M118.047,114.363c0-0.632-0.44-0.936-1.144-1.136c-0.608,0.176-0.936,0.576-0.936,1.071c-0.024,0.528,0.376,0.992,1.039,0.992   C117.639,115.291,118.047,114.898,118.047,114.363z M116.112,111.765c0,0.52,0.392,0.8,0.991,0.959   c0.448-0.151,0.792-0.472,0.792-0.943c0-0.415-0.248-0.848-0.88-0.848C116.432,110.933,116.112,111.316,116.112,111.765z"/>
</g>
<g>
	<path d="M131.469,115.219c0.152,0.016,0.328,0,0.567-0.024c0.408-0.056,0.792-0.224,1.088-0.503   c0.344-0.312,0.592-0.768,0.688-1.384h-0.024c-0.287,0.352-0.703,0.56-1.223,0.56c-0.936,0-1.535-0.703-1.535-1.591   c0-0.983,0.711-1.847,1.774-1.847s1.72,0.863,1.72,2.19c0,1.144-0.384,1.942-0.896,2.438c-0.4,0.392-0.952,0.632-1.512,0.695   c-0.256,0.04-0.479,0.049-0.647,0.04V115.219z M131.725,112.229c0,0.647,0.392,1.104,0.999,1.104c0.473,0,0.84-0.232,1.023-0.544   c0.04-0.064,0.064-0.144,0.064-0.256c0-0.888-0.328-1.567-1.063-1.567C132.148,110.965,131.725,111.492,131.725,112.229z"/>
</g>
<g>
	<path d="M146.285,111.174h-0.016l-0.903,0.487l-0.136-0.536l1.135-0.607h0.6v5.197h-0.68V111.174z"/>
	<path d="M152.315,113.061c0,1.767-0.655,2.742-1.807,2.742c-1.016,0-1.703-0.951-1.719-2.671c0-1.742,0.751-2.702,1.807-2.702   C151.692,110.43,152.315,111.405,152.315,113.061z M149.493,113.141c0,1.351,0.416,2.118,1.056,2.118   c0.72,0,1.063-0.839,1.063-2.167c0-1.279-0.328-2.118-1.056-2.118C149.941,110.974,149.493,111.725,149.493,113.141z"/>
</g>
<g>
	<path d="M162.034,111.174h-0.016l-0.903,0.487l-0.136-0.536l1.135-0.607h0.6v5.197h-0.68V111.174z"/>
	<path d="M166.137,111.174h-0.016l-0.903,0.487l-0.136-0.536l1.135-0.607h0.6v5.197h-0.68V111.174z"/>
</g>
<g>
	<path d="M177.782,111.174h-0.016l-0.903,0.487l-0.136-0.536l1.135-0.607h0.6v5.197h-0.68V111.174z"/>
	<path d="M180.358,115.715v-0.432l0.552-0.536c1.327-1.263,1.928-1.935,1.936-2.718c0-0.528-0.256-1.016-1.031-1.016   c-0.472,0-0.864,0.239-1.104,0.439l-0.225-0.496c0.36-0.304,0.872-0.527,1.472-0.527c1.119,0,1.591,0.768,1.591,1.512   c0,0.959-0.695,1.734-1.791,2.79l-0.415,0.384v0.016h2.334v0.584H180.358z"/>
</g>
<g>
	<path d="M193.531,111.174h-0.016l-0.903,0.487l-0.136-0.536l1.135-0.607h0.6v5.197h-0.68V111.174z"/>
	<path d="M196.275,114.907c0.2,0.128,0.664,0.328,1.151,0.328c0.904,0,1.184-0.576,1.176-1.008   c-0.008-0.728-0.664-1.039-1.344-1.039h-0.392v-0.528h0.392c0.512,0,1.16-0.264,1.16-0.879c0-0.416-0.265-0.784-0.912-0.784   c-0.415,0-0.815,0.185-1.039,0.344l-0.184-0.512c0.271-0.199,0.799-0.399,1.358-0.399c1.023,0,1.487,0.607,1.487,1.239   c0,0.536-0.319,0.991-0.959,1.224v0.016c0.64,0.128,1.159,0.607,1.159,1.336c0,0.831-0.647,1.559-1.895,1.559   c-0.584,0-1.096-0.184-1.352-0.352L196.275,114.907z"/>
</g>
<g>
	<path d="M209.28,111.174h-0.016l-0.903,0.487l-0.136-0.536l1.135-0.607h0.6v5.197h-0.68V111.174z"/>
	<path d="M214.031,115.715V114.3h-2.414v-0.464l2.318-3.318h0.76v3.23h0.728v0.552h-0.728v1.415H214.031z M214.031,113.748v-1.735   c0-0.271,0.009-0.544,0.024-0.815h-0.024c-0.159,0.304-0.287,0.527-0.432,0.768l-1.271,1.768v0.016H214.031z"/>
</g>
<g>
	<path d="M225.029,111.174h-0.016l-0.903,0.487l-0.136-0.536l1.135-0.607h0.6v5.197h-0.68V111.174z"/>
	<path d="M230.708,111.109h-1.982l-0.2,1.335c0.12-0.016,0.231-0.031,0.424-0.031c0.399,0,0.8,0.088,1.119,0.279   c0.408,0.232,0.744,0.68,0.744,1.335c0,1.016-0.808,1.775-1.936,1.775c-0.567,0-1.047-0.16-1.295-0.319l0.176-0.536   c0.216,0.128,0.64,0.288,1.111,0.288c0.664,0,1.231-0.432,1.231-1.128c-0.008-0.671-0.456-1.151-1.495-1.151   c-0.296,0-0.527,0.032-0.72,0.057l0.336-2.495h2.486V111.109z"/>
</g>
<g>
	<path d="M240.777,111.174h-0.016l-0.902,0.487l-0.137-0.536l1.135-0.607h0.6v5.197h-0.68V111.174z"/>
	<path d="M246.32,111.014c-0.143-0.008-0.328,0-0.527,0.031c-1.104,0.185-1.688,0.992-1.807,1.848h0.023   c0.248-0.328,0.68-0.6,1.256-0.6c0.92,0,1.566,0.663,1.566,1.679c0,0.951-0.646,1.831-1.727,1.831c-1.111,0-1.84-0.863-1.84-2.215   c0-1.023,0.369-1.831,0.881-2.343c0.432-0.424,1.008-0.688,1.662-0.768c0.209-0.032,0.385-0.04,0.512-0.04V111.014z    M246.121,114.012c0-0.743-0.424-1.191-1.072-1.191c-0.424,0-0.814,0.264-1.006,0.64c-0.049,0.08-0.08,0.184-0.08,0.312   c0.016,0.855,0.406,1.487,1.143,1.487C245.713,115.259,246.121,114.756,246.121,114.012z"/>
</g>
<g>
	<path d="M256.527,111.174h-0.016l-0.904,0.487l-0.135-0.536l1.135-0.607h0.6v5.197h-0.68V111.174z"/>
	<path d="M262.479,110.518v0.464l-2.264,4.733h-0.729l2.256-4.598v-0.016h-2.543v-0.584H262.479z"/>
</g>
<g>
	<path d="M272.275,111.173h-0.016l-0.902,0.487l-0.137-0.535l1.135-0.607h0.6v5.197h-0.68V111.173z"/>
	<path d="M274.789,114.396c0-0.656,0.391-1.12,1.031-1.392l-0.008-0.024c-0.576-0.271-0.824-0.72-0.824-1.167   c0-0.823,0.695-1.383,1.607-1.383c1.008,0,1.512,0.631,1.512,1.279c0,0.439-0.217,0.911-0.855,1.215v0.024   c0.646,0.256,1.047,0.711,1.047,1.343c0,0.903-0.775,1.512-1.768,1.512C275.443,115.803,274.789,115.154,274.789,114.396z    M277.588,114.363c0-0.632-0.441-0.936-1.145-1.136c-0.607,0.176-0.936,0.576-0.936,1.071c-0.023,0.528,0.377,0.992,1.039,0.992   C277.18,115.291,277.588,114.898,277.588,114.363z M275.652,111.765c0,0.52,0.391,0.8,0.99,0.959   c0.449-0.151,0.793-0.472,0.793-0.943c0-0.415-0.248-0.848-0.881-0.848C275.973,110.933,275.652,111.316,275.652,111.765z"/>
</g>
<g>
	<path d="M288.024,111.173h-0.016l-0.903,0.487l-0.136-0.535l1.135-0.607h0.6v5.197h-0.68V111.173z"/>
	<path d="M291.009,115.219c0.152,0.016,0.328,0,0.567-0.024c0.408-0.056,0.792-0.224,1.088-0.503   c0.344-0.312,0.592-0.768,0.688-1.384h-0.024c-0.287,0.352-0.703,0.56-1.223,0.56c-0.936,0-1.535-0.703-1.535-1.591   c0-0.983,0.711-1.847,1.774-1.847s1.72,0.863,1.72,2.19c0,1.144-0.384,1.942-0.896,2.438c-0.4,0.392-0.952,0.632-1.512,0.695   c-0.256,0.04-0.479,0.049-0.647,0.04V115.219z M291.265,112.229c0,0.647,0.392,1.104,0.999,1.104c0.472,0,0.84-0.232,1.023-0.544   c0.04-0.064,0.064-0.144,0.064-0.256c0-0.888-0.328-1.567-1.063-1.567C291.688,110.965,291.265,111.492,291.265,112.229z"/>
</g>
<g>
	<path d="M302.246,115.715v-0.433l0.552-0.535c1.327-1.264,1.928-1.936,1.936-2.719c0-0.527-0.256-1.016-1.031-1.016   c-0.472,0-0.864,0.24-1.104,0.44l-0.225-0.496c0.36-0.304,0.872-0.527,1.472-0.527c1.119,0,1.591,0.768,1.591,1.511   c0,0.96-0.695,1.735-1.791,2.79l-0.415,0.384v0.017h2.334v0.584H302.246z"/>
	<path d="M309.804,113.06c0,1.768-0.655,2.743-1.807,2.743c-1.016,0-1.703-0.952-1.719-2.671c0-1.743,0.751-2.702,1.807-2.702   C309.181,110.43,309.804,111.404,309.804,113.06z M306.981,113.14c0,1.352,0.416,2.119,1.056,2.119c0.72,0,1.063-0.84,1.063-2.167   c0-1.279-0.328-2.119-1.056-2.119C307.43,110.973,306.981,111.725,306.981,113.14z"/>
</g>
<g>
	<path d="M317.995,115.715v-0.433l0.552-0.535c1.327-1.264,1.928-1.936,1.936-2.719c0-0.527-0.256-1.016-1.031-1.016   c-0.472,0-0.864,0.24-1.104,0.44l-0.225-0.496c0.36-0.304,0.872-0.527,1.472-0.527c1.119,0,1.591,0.768,1.591,1.511   c0,0.96-0.695,1.735-1.791,2.79l-0.415,0.384v0.017h2.334v0.584H317.995z"/>
	<path d="M323.626,111.173h-0.016l-0.903,0.487l-0.136-0.535l1.135-0.607h0.6v5.197h-0.68V111.173z"/>
</g>
<g>
	<path d="M333.744,115.715v-0.432l0.551-0.536c1.328-1.263,1.928-1.935,1.936-2.718c0-0.528-0.256-1.016-1.031-1.016   c-0.471,0-0.863,0.239-1.104,0.439l-0.225-0.496c0.361-0.304,0.873-0.527,1.473-0.527c1.119,0,1.59,0.768,1.59,1.512   c0,0.959-0.695,1.734-1.791,2.79l-0.414,0.384v0.016h2.334v0.584H333.744z"/>
	<path d="M337.848,115.715v-0.432l0.551-0.536c1.328-1.263,1.928-1.935,1.936-2.718c0-0.528-0.256-1.016-1.031-1.016   c-0.471,0-0.863,0.239-1.104,0.439l-0.225-0.496c0.361-0.304,0.873-0.527,1.473-0.527c1.119,0,1.59,0.768,1.59,1.512   c0,0.959-0.695,1.734-1.791,2.79l-0.414,0.384v0.016h2.334v0.584H337.848z"/>
</g>
<g>
	<path d="M354.512,115.715l-0.688-1.191c-0.279-0.456-0.455-0.752-0.623-1.063h-0.018c-0.15,0.312-0.303,0.6-0.582,1.071   l-0.648,1.184h-0.799l1.646-2.727l-1.584-2.663h0.809l0.711,1.264c0.201,0.352,0.352,0.623,0.496,0.911h0.023   c0.152-0.319,0.289-0.567,0.488-0.911l0.736-1.264h0.799l-1.639,2.623l1.678,2.767H354.512z"/>
</g>
<g>
	<rect x="27.917" y="125.559" width="6" height="6"/>
	<rect x="115.372" y="125.559" fill="#333333" width="6" height="6"/>
	<rect x="182.125" y="125.559" fill="#999999" width="6" height="6"/>
	<rect x="241.797" y="125.559" fill="#CCCCCC" width="6" height="6"/>
	<g>
		<path d="M41.291,131.383c-0.256,0.128-0.768,0.256-1.423,0.256c-1.519,0-2.663-0.96-2.663-2.727c0-1.688,1.144-2.831,2.814-2.831    c0.672,0,1.096,0.145,1.279,0.24l-0.167,0.567c-0.264-0.128-0.64-0.224-1.087-0.224c-1.264,0-2.103,0.808-2.103,2.223    c0,1.319,0.76,2.167,2.071,2.167c0.424,0,0.855-0.088,1.135-0.224L41.291,131.383z"/>
		<path d="M45.555,129.592c0,1.431-0.992,2.055-1.927,2.055c-1.047,0-1.855-0.768-1.855-1.991c0-1.295,0.848-2.055,1.919-2.055    C44.803,127.601,45.555,128.408,45.555,129.592z M42.485,129.632c0,0.847,0.487,1.486,1.175,1.486    c0.671,0,1.175-0.631,1.175-1.503c0-0.655-0.328-1.487-1.159-1.487C42.844,128.128,42.485,128.896,42.485,129.632z"/>
		<path d="M46.445,128.736c0-0.4-0.008-0.728-0.032-1.048h0.616l0.032,0.624h0.024c0.216-0.368,0.576-0.712,1.215-0.712    c0.528,0,0.928,0.319,1.096,0.775h0.016c0.12-0.216,0.271-0.384,0.432-0.504c0.232-0.176,0.488-0.271,0.855-0.271    c0.512,0,1.271,0.336,1.271,1.679v2.279h-0.688v-2.191c0-0.743-0.272-1.191-0.839-1.191c-0.4,0-0.712,0.296-0.832,0.64    c-0.032,0.097-0.056,0.225-0.056,0.353v2.391h-0.688v-2.319c0-0.615-0.272-1.063-0.808-1.063c-0.439,0-0.76,0.353-0.872,0.704    c-0.04,0.104-0.056,0.224-0.056,0.344v2.335h-0.688V128.736z"/>
		<path d="M53.117,128.952c0-0.496-0.016-0.896-0.032-1.264h0.631l0.032,0.664h0.016c0.288-0.472,0.744-0.752,1.375-0.752    c0.936,0,1.639,0.792,1.639,1.967c0,1.392-0.848,2.079-1.759,2.079c-0.512,0-0.959-0.224-1.191-0.607h-0.016v2.103h-0.696V128.952    z M53.812,129.983c0,0.104,0.016,0.2,0.032,0.288c0.128,0.487,0.552,0.823,1.056,0.823c0.744,0,1.175-0.607,1.175-1.495    c0-0.775-0.408-1.439-1.151-1.439c-0.479,0-0.927,0.344-1.063,0.872c-0.024,0.088-0.048,0.191-0.048,0.287V129.983z"/>
		<path d="M57.668,125.882h0.704v5.677h-0.704V125.882z"/>
		<path d="M59.949,129.751c0.016,0.952,0.624,1.344,1.327,1.344c0.504,0,0.808-0.088,1.071-0.2l0.12,0.504    c-0.248,0.112-0.672,0.24-1.287,0.24c-1.191,0-1.903-0.784-1.903-1.951s0.688-2.087,1.815-2.087c1.264,0,1.599,1.111,1.599,1.823    c0,0.144-0.016,0.256-0.024,0.327H59.949z M62.011,129.248c0.008-0.448-0.184-1.144-0.975-1.144c-0.712,0-1.023,0.655-1.08,1.144    H62.011z"/>
		<path d="M64.412,126.577v1.111h1.007v0.536h-1.007v2.087c0,0.479,0.136,0.751,0.528,0.751c0.184,0,0.32-0.023,0.408-0.048    l0.032,0.527c-0.136,0.057-0.352,0.097-0.624,0.097c-0.328,0-0.591-0.104-0.759-0.296c-0.2-0.208-0.272-0.552-0.272-1.008v-2.11    h-0.6v-0.536h0.6v-0.928L64.412,126.577z"/>
		<path d="M66.557,129.751c0.016,0.952,0.624,1.344,1.327,1.344c0.504,0,0.808-0.088,1.071-0.2l0.12,0.504    c-0.248,0.112-0.672,0.24-1.288,0.24c-1.191,0-1.903-0.784-1.903-1.951s0.688-2.087,1.815-2.087c1.264,0,1.599,1.111,1.599,1.823    c0,0.144-0.016,0.256-0.024,0.327H66.557z M68.62,129.248c0.008-0.448-0.184-1.144-0.976-1.144c-0.712,0-1.023,0.655-1.08,1.144    H68.62z"/>
		<path d="M70.172,125.882h0.704v5.677h-0.704V125.882z"/>
		<path d="M72.316,127.688l0.848,2.287c0.088,0.256,0.184,0.56,0.248,0.791h0.016c0.072-0.231,0.152-0.527,0.248-0.808l0.768-2.271    h0.744l-1.056,2.759c-0.503,1.327-0.847,2.007-1.327,2.423c-0.344,0.304-0.688,0.423-0.863,0.455l-0.176-0.592    c0.176-0.056,0.408-0.168,0.615-0.344c0.192-0.151,0.432-0.424,0.592-0.783c0.032-0.072,0.056-0.128,0.056-0.168    s-0.016-0.096-0.048-0.184l-1.431-3.566H72.316z"/>
		<path d="M78.308,126.602c0.008,0.239-0.168,0.432-0.448,0.432c-0.248,0-0.424-0.192-0.424-0.432c0-0.248,0.184-0.44,0.44-0.44    C78.14,126.161,78.308,126.354,78.308,126.602z M77.524,131.559v-3.87h0.704v3.87H77.524z"/>
		<path d="M82.739,125.882v4.677c0,0.344,0.008,0.736,0.032,1h-0.632l-0.032-0.672h-0.016c-0.216,0.432-0.688,0.76-1.319,0.76    c-0.936,0-1.655-0.792-1.655-1.967c-0.008-1.287,0.792-2.079,1.735-2.079c0.591,0,0.991,0.28,1.167,0.592h0.016v-2.311H82.739z     M82.035,129.264c0-0.088-0.008-0.208-0.032-0.296c-0.104-0.447-0.488-0.815-1.016-0.815c-0.728,0-1.159,0.64-1.159,1.495    c0,0.783,0.384,1.432,1.143,1.432c0.472,0,0.904-0.312,1.032-0.84c0.024-0.096,0.032-0.192,0.032-0.304V129.264z"/>
		<path d="M84.3,129.751c0.016,0.952,0.624,1.344,1.327,1.344c0.504,0,0.808-0.088,1.071-0.2l0.12,0.504    c-0.248,0.112-0.672,0.24-1.287,0.24c-1.191,0-1.903-0.784-1.903-1.951s0.688-2.087,1.815-2.087c1.264,0,1.599,1.111,1.599,1.823    c0,0.144-0.016,0.256-0.024,0.327H84.3z M86.363,129.248c0.008-0.448-0.184-1.144-0.975-1.144c-0.712,0-1.023,0.655-1.08,1.144    H86.363z"/>
		<path d="M87.916,128.736c0-0.4-0.008-0.728-0.032-1.048h0.624l0.04,0.64h0.016c0.192-0.368,0.64-0.728,1.279-0.728    c0.536,0,1.367,0.319,1.367,1.647v2.311h-0.704v-2.231c0-0.623-0.232-1.143-0.896-1.143c-0.464,0-0.824,0.327-0.943,0.72    c-0.032,0.088-0.048,0.207-0.048,0.327v2.327h-0.704V128.736z"/>
		<path d="M93.171,126.577v1.111h1.007v0.536h-1.007v2.087c0,0.479,0.136,0.751,0.528,0.751c0.184,0,0.32-0.023,0.408-0.048    l0.032,0.527c-0.136,0.057-0.352,0.097-0.624,0.097c-0.328,0-0.592-0.104-0.759-0.296c-0.2-0.208-0.272-0.552-0.272-1.008v-2.11    h-0.6v-0.536h0.6v-0.928L93.171,126.577z"/>
		<path d="M95.755,126.602c0.008,0.239-0.168,0.432-0.448,0.432c-0.248,0-0.424-0.192-0.424-0.432c0-0.248,0.184-0.44,0.44-0.44    C95.587,126.161,95.755,126.354,95.755,126.602z M94.972,131.559v-3.87h0.704v3.87H94.972z"/>
		<path d="M99.603,131.414c-0.184,0.097-0.592,0.225-1.111,0.225c-1.167,0-1.927-0.792-1.927-1.976c0-1.191,0.815-2.055,2.079-2.055    c0.416,0,0.783,0.104,0.976,0.2l-0.16,0.544c-0.168-0.097-0.432-0.185-0.815-0.185c-0.888,0-1.367,0.656-1.367,1.464    c0,0.896,0.576,1.447,1.343,1.447c0.399,0,0.664-0.104,0.863-0.192L99.603,131.414z"/>
		<path d="M102.571,131.559l-0.056-0.488h-0.024c-0.216,0.304-0.632,0.576-1.183,0.576c-0.784,0-1.184-0.552-1.184-1.111    c0-0.936,0.832-1.447,2.327-1.439v-0.08c0-0.319-0.088-0.896-0.879-0.896c-0.36,0-0.736,0.112-1.007,0.288l-0.16-0.464    c0.32-0.208,0.784-0.344,1.271-0.344c1.183,0,1.471,0.808,1.471,1.583v1.447c0,0.336,0.016,0.664,0.064,0.928H102.571z     M102.467,129.583c-0.768-0.016-1.639,0.12-1.639,0.872c0,0.456,0.304,0.672,0.664,0.672c0.504,0,0.824-0.32,0.936-0.648    c0.024-0.071,0.04-0.151,0.04-0.224V129.583z"/>
		<path d="M104.284,125.882h0.704v5.677h-0.704V125.882z"/>
	</g>
	<g>
		<path d="M131.423,126.169v2.255h2.606v-2.255h0.704v5.39h-0.704v-2.526h-2.606v2.526h-0.695v-5.39H131.423z"/>
		<path d="M138.062,131.559l-0.056-0.488h-0.024c-0.216,0.304-0.631,0.576-1.183,0.576c-0.784,0-1.184-0.552-1.184-1.111    c0-0.936,0.832-1.447,2.327-1.439v-0.08c0-0.319-0.088-0.896-0.879-0.896c-0.36,0-0.735,0.112-1.007,0.288l-0.16-0.464    c0.32-0.208,0.784-0.344,1.271-0.344c1.183,0,1.471,0.808,1.471,1.583v1.447c0,0.336,0.016,0.664,0.064,0.928H138.062z     M137.958,129.583c-0.768-0.016-1.639,0.12-1.639,0.872c0,0.456,0.304,0.672,0.664,0.672c0.504,0,0.824-0.32,0.936-0.648    c0.024-0.071,0.04-0.151,0.04-0.224V129.583z"/>
		<path d="M139.775,125.882h0.704v5.677h-0.704V125.882z"/>
		<path d="M141.735,131.559v-3.334h-0.544v-0.536h0.544v-0.184c0-0.544,0.12-1.04,0.448-1.352c0.264-0.256,0.616-0.359,0.943-0.359    c0.248,0,0.464,0.056,0.6,0.111l-0.096,0.544c-0.104-0.048-0.248-0.088-0.448-0.088c-0.6,0-0.752,0.527-0.752,1.119v0.208h0.936    v0.536h-0.936v3.334H141.735z"/>
		<path d="M146.478,126.602c0.008,0.239-0.168,0.432-0.448,0.432c-0.248,0-0.424-0.192-0.424-0.432c0-0.248,0.184-0.44,0.44-0.44    C146.31,126.161,146.478,126.354,146.478,126.602z M145.694,131.559v-3.87h0.704v3.87H145.694z"/>
		<path d="M150.909,125.882v4.677c0,0.344,0.008,0.736,0.032,1h-0.632l-0.032-0.672h-0.016c-0.216,0.432-0.688,0.76-1.319,0.76    c-0.936,0-1.655-0.792-1.655-1.967c-0.008-1.287,0.792-2.079,1.735-2.079c0.591,0,0.991,0.28,1.167,0.592h0.016v-2.311H150.909z     M150.205,129.264c0-0.088-0.008-0.208-0.032-0.296c-0.104-0.447-0.488-0.815-1.016-0.815c-0.728,0-1.159,0.64-1.159,1.495    c0,0.783,0.384,1.432,1.143,1.432c0.472,0,0.904-0.312,1.032-0.84c0.024-0.096,0.032-0.192,0.032-0.304V129.264z"/>
		<path d="M152.471,129.751c0.016,0.952,0.624,1.344,1.327,1.344c0.504,0,0.808-0.088,1.071-0.2l0.12,0.504    c-0.248,0.112-0.672,0.24-1.287,0.24c-1.191,0-1.903-0.784-1.903-1.951s0.688-2.087,1.815-2.087c1.264,0,1.599,1.111,1.599,1.823    c0,0.144-0.016,0.256-0.024,0.327H152.471z M154.533,129.248c0.008-0.448-0.184-1.144-0.975-1.144    c-0.712,0-1.023,0.655-1.08,1.144H154.533z"/>
		<path d="M156.086,128.736c0-0.4-0.008-0.728-0.032-1.048h0.624l0.04,0.64h0.016c0.192-0.368,0.64-0.728,1.279-0.728    c0.536,0,1.367,0.319,1.367,1.647v2.311h-0.704v-2.231c0-0.623-0.232-1.143-0.896-1.143c-0.464,0-0.824,0.327-0.943,0.72    c-0.032,0.088-0.048,0.207-0.048,0.327v2.327h-0.704V128.736z"/>
		<path d="M161.342,126.577v1.111h1.007v0.536h-1.007v2.087c0,0.479,0.136,0.751,0.528,0.751c0.184,0,0.32-0.023,0.408-0.048    l0.032,0.527c-0.136,0.057-0.352,0.097-0.624,0.097c-0.328,0-0.591-0.104-0.759-0.296c-0.2-0.208-0.272-0.552-0.272-1.008v-2.11    h-0.6v-0.536h0.6v-0.928L161.342,126.577z"/>
		<path d="M163.926,126.602c0.008,0.239-0.168,0.432-0.448,0.432c-0.248,0-0.424-0.192-0.424-0.432c0-0.248,0.184-0.44,0.44-0.44    C163.758,126.161,163.926,126.354,163.926,126.602z M163.142,131.559v-3.87h0.704v3.87H163.142z"/>
		<path d="M167.773,131.414c-0.184,0.097-0.592,0.225-1.111,0.225c-1.167,0-1.927-0.792-1.927-1.976    c0-1.191,0.815-2.055,2.079-2.055c0.416,0,0.783,0.104,0.976,0.2l-0.16,0.544c-0.168-0.097-0.432-0.185-0.815-0.185    c-0.888,0-1.367,0.656-1.367,1.464c0,0.896,0.576,1.447,1.343,1.447c0.399,0,0.664-0.104,0.863-0.192L167.773,131.414z"/>
		<path d="M170.741,131.559l-0.056-0.488h-0.024c-0.216,0.304-0.632,0.576-1.183,0.576c-0.784,0-1.184-0.552-1.184-1.111    c0-0.936,0.832-1.447,2.327-1.439v-0.08c0-0.319-0.088-0.896-0.879-0.896c-0.36,0-0.736,0.112-1.007,0.288l-0.16-0.464    c0.32-0.208,0.784-0.344,1.271-0.344c1.183,0,1.471,0.808,1.471,1.583v1.447c0,0.336,0.016,0.664,0.064,0.928H170.741z     M170.637,129.583c-0.768-0.016-1.639,0.12-1.639,0.872c0,0.456,0.304,0.672,0.664,0.672c0.504,0,0.824-0.32,0.936-0.648    c0.024-0.071,0.04-0.151,0.04-0.224V129.583z"/>
		<path d="M172.455,125.882h0.704v5.677h-0.704V125.882z"/>
	</g>
	<g>
		<path d="M191.149,131.559v-5.39h0.759l1.728,2.727c0.399,0.632,0.712,1.199,0.968,1.751l0.016-0.008    c-0.064-0.72-0.08-1.375-0.08-2.215v-2.255h0.655v5.39h-0.703l-1.711-2.734c-0.376-0.6-0.735-1.216-1.008-1.8l-0.023,0.009    c0.04,0.68,0.056,1.327,0.056,2.223v2.303H191.149z"/>
		<path d="M199.892,129.592c0,1.431-0.992,2.055-1.928,2.055c-1.047,0-1.854-0.768-1.854-1.991c0-1.295,0.848-2.055,1.919-2.055    C199.14,127.601,199.892,128.408,199.892,129.592z M196.821,129.632c0,0.847,0.487,1.486,1.175,1.486    c0.672,0,1.176-0.631,1.176-1.503c0-0.655-0.328-1.487-1.159-1.487C197.181,128.128,196.821,128.896,196.821,129.632z"/>
		<path d="M201.629,126.577v1.111h1.007v0.536h-1.007v2.087c0,0.479,0.136,0.751,0.527,0.751c0.185,0,0.32-0.023,0.408-0.048    l0.032,0.527c-0.137,0.057-0.353,0.097-0.624,0.097c-0.328,0-0.592-0.104-0.76-0.296c-0.2-0.208-0.271-0.552-0.271-1.008v-2.11    h-0.6v-0.536h0.6v-0.928L201.629,126.577z"/>
		<path d="M205.908,126.602c0.009,0.239-0.168,0.432-0.447,0.432c-0.248,0-0.424-0.192-0.424-0.432c0-0.248,0.184-0.44,0.439-0.44    C205.74,126.161,205.908,126.354,205.908,126.602z M205.125,131.559v-3.87h0.703v3.87H205.125z"/>
		<path d="M210.339,125.882v4.677c0,0.344,0.009,0.736,0.032,1h-0.632l-0.031-0.672h-0.017c-0.216,0.432-0.688,0.76-1.319,0.76    c-0.936,0-1.655-0.792-1.655-1.967c-0.008-1.287,0.792-2.079,1.735-2.079c0.592,0,0.991,0.28,1.167,0.592h0.017v-2.311H210.339z     M209.636,129.264c0-0.088-0.008-0.208-0.032-0.296c-0.104-0.447-0.487-0.815-1.016-0.815c-0.728,0-1.159,0.64-1.159,1.495    c0,0.783,0.384,1.432,1.144,1.432c0.472,0,0.903-0.312,1.031-0.84c0.024-0.096,0.032-0.192,0.032-0.304V129.264z"/>
		<path d="M211.901,129.751c0.016,0.952,0.623,1.344,1.327,1.344c0.504,0,0.808-0.088,1.071-0.2l0.12,0.504    c-0.248,0.112-0.672,0.24-1.287,0.24c-1.191,0-1.903-0.784-1.903-1.951s0.688-2.087,1.814-2.087c1.264,0,1.6,1.111,1.6,1.823    c0,0.144-0.016,0.256-0.024,0.327H211.901z M213.964,129.248c0.008-0.448-0.184-1.144-0.976-1.144    c-0.712,0-1.023,0.655-1.079,1.144H213.964z"/>
		<path d="M215.517,128.736c0-0.4-0.008-0.728-0.031-1.048h0.623l0.04,0.64h0.017c0.191-0.368,0.64-0.728,1.279-0.728    c0.535,0,1.367,0.319,1.367,1.647v2.311h-0.704v-2.231c0-0.623-0.231-1.143-0.896-1.143c-0.464,0-0.823,0.327-0.943,0.72    c-0.032,0.088-0.048,0.207-0.048,0.327v2.327h-0.704V128.736z"/>
		<path d="M220.772,126.577v1.111h1.008v0.536h-1.008v2.087c0,0.479,0.137,0.751,0.528,0.751c0.184,0,0.319-0.023,0.407-0.048    l0.032,0.527c-0.136,0.057-0.352,0.097-0.624,0.097c-0.327,0-0.591-0.104-0.759-0.296c-0.2-0.208-0.272-0.552-0.272-1.008v-2.11    h-0.6v-0.536h0.6v-0.928L220.772,126.577z"/>
		<path d="M223.356,126.602c0.008,0.239-0.168,0.432-0.448,0.432c-0.247,0-0.424-0.192-0.424-0.432c0-0.248,0.185-0.44,0.44-0.44    C223.188,126.161,223.356,126.354,223.356,126.602z M222.572,131.559v-3.87h0.704v3.87H222.572z"/>
		<path d="M227.203,131.414c-0.184,0.097-0.592,0.225-1.111,0.225c-1.167,0-1.927-0.792-1.927-1.976    c0-1.191,0.815-2.055,2.079-2.055c0.415,0,0.783,0.104,0.976,0.2l-0.16,0.544c-0.168-0.097-0.432-0.185-0.815-0.185    c-0.888,0-1.367,0.656-1.367,1.464c0,0.896,0.575,1.447,1.343,1.447c0.399,0,0.664-0.104,0.863-0.192L227.203,131.414z"/>
		<path d="M230.172,131.559l-0.057-0.488h-0.023c-0.216,0.304-0.632,0.576-1.184,0.576c-0.783,0-1.184-0.552-1.184-1.111    c0-0.936,0.832-1.447,2.327-1.439v-0.08c0-0.319-0.088-0.896-0.88-0.896c-0.359,0-0.735,0.112-1.007,0.288l-0.16-0.464    c0.319-0.208,0.783-0.344,1.271-0.344c1.183,0,1.471,0.808,1.471,1.583v1.447c0,0.336,0.017,0.664,0.064,0.928H230.172z     M230.067,129.583c-0.768-0.016-1.639,0.12-1.639,0.872c0,0.456,0.304,0.672,0.663,0.672c0.504,0,0.824-0.32,0.936-0.648    c0.024-0.071,0.04-0.151,0.04-0.224V129.583z"/>
		<path d="M231.885,125.882h0.704v5.677h-0.704V125.882z"/>
	</g>
	<g>
		<path d="M251.404,131.559v-5.389h0.759l1.728,2.727c0.399,0.632,0.712,1.199,0.968,1.751l0.016-0.008    c-0.064-0.72-0.08-1.376-0.08-2.215v-2.255h0.655v5.389h-0.703l-1.711-2.734c-0.376-0.6-0.735-1.215-1.008-1.799l-0.023,0.008    c0.04,0.68,0.056,1.327,0.056,2.223v2.303H251.404z"/>
		<path d="M260.146,129.592c0,1.432-0.992,2.055-1.928,2.055c-1.047,0-1.854-0.768-1.854-1.99c0-1.296,0.848-2.056,1.919-2.056    C259.395,127.601,260.146,128.408,260.146,129.592z M257.076,129.632c0,0.848,0.487,1.487,1.175,1.487    c0.672,0,1.176-0.632,1.176-1.503c0-0.656-0.328-1.487-1.159-1.487C257.436,128.129,257.076,128.896,257.076,129.632z"/>
		<path d="M261.884,126.577v1.111h1.007v0.536h-1.007v2.087c0,0.479,0.136,0.752,0.527,0.752c0.185,0,0.32-0.024,0.408-0.049    l0.032,0.528c-0.137,0.056-0.353,0.096-0.624,0.096c-0.328,0-0.592-0.104-0.76-0.296c-0.2-0.208-0.271-0.552-0.271-1.007v-2.111    h-0.6v-0.536h0.6v-0.927L261.884,126.577z"/>
		<path d="M265.771,129.752c0.017,0.951,0.624,1.343,1.327,1.343c0.504,0,0.808-0.088,1.071-0.199l0.12,0.503    c-0.248,0.112-0.672,0.24-1.287,0.24c-1.191,0-1.903-0.783-1.903-1.951c0-1.167,0.688-2.087,1.815-2.087    c1.264,0,1.599,1.111,1.599,1.823c0,0.145-0.016,0.256-0.023,0.328H265.771z M267.835,129.248    c0.008-0.447-0.185-1.144-0.976-1.144c-0.712,0-1.023,0.656-1.08,1.144H267.835z"/>
		<path d="M269.388,128.736c0-0.399-0.008-0.728-0.032-1.048h0.624l0.04,0.64h0.016c0.192-0.367,0.64-0.728,1.279-0.728    c0.536,0,1.367,0.32,1.367,1.647v2.311h-0.703v-2.23c0-0.624-0.232-1.144-0.896-1.144c-0.464,0-0.824,0.328-0.943,0.72    c-0.032,0.088-0.049,0.208-0.049,0.328v2.326h-0.703V128.736z"/>
		<path d="M277.33,129.592c0,1.432-0.992,2.055-1.928,2.055c-1.047,0-1.854-0.768-1.854-1.99c0-1.296,0.848-2.056,1.919-2.056    C276.578,127.601,277.33,128.408,277.33,129.592z M274.26,129.632c0,0.848,0.487,1.487,1.175,1.487    c0.672,0,1.176-0.632,1.176-1.503c0-0.656-0.328-1.487-1.159-1.487C274.619,128.129,274.26,128.896,274.26,129.632z"/>
		<path d="M281.458,130.503c0,0.4,0.008,0.752,0.032,1.056h-0.624l-0.04-0.632h-0.016c-0.185,0.312-0.592,0.72-1.279,0.72    c-0.608,0-1.336-0.336-1.336-1.694v-2.264h0.704v2.144c0,0.735,0.224,1.231,0.863,1.231c0.472,0,0.8-0.328,0.928-0.64    c0.04-0.104,0.063-0.232,0.063-0.36v-2.375h0.704V130.503z"/>
		<path d="M285.962,127.688c-0.017,0.28-0.032,0.592-0.032,1.063v2.247c0,0.888-0.176,1.432-0.552,1.768    c-0.376,0.352-0.92,0.463-1.407,0.463c-0.464,0-0.976-0.111-1.287-0.319l0.176-0.536c0.256,0.16,0.655,0.304,1.136,0.304    c0.719,0,1.247-0.375,1.247-1.351v-0.432h-0.017c-0.216,0.359-0.631,0.647-1.23,0.647c-0.96,0-1.647-0.815-1.647-1.887    c0-1.312,0.855-2.056,1.743-2.056c0.672,0,1.039,0.353,1.207,0.672h0.016l0.032-0.584H285.962z M285.234,129.216    c0-0.12-0.009-0.224-0.04-0.319c-0.128-0.408-0.472-0.744-0.983-0.744c-0.672,0-1.151,0.568-1.151,1.464    c0,0.759,0.384,1.391,1.143,1.391c0.433,0,0.824-0.271,0.976-0.72c0.04-0.119,0.057-0.256,0.057-0.375V129.216z"/>
		<path d="M287.099,125.882h0.704v2.415h0.016c0.112-0.2,0.288-0.376,0.504-0.496c0.208-0.12,0.456-0.2,0.72-0.2    c0.52,0,1.352,0.32,1.352,1.655v2.303h-0.704v-2.223c0-0.624-0.231-1.151-0.896-1.151c-0.455,0-0.815,0.32-0.943,0.704    c-0.04,0.096-0.048,0.199-0.048,0.335v2.335h-0.704V125.882z"/>
		<path d="M294.019,126.602c0.008,0.24-0.168,0.432-0.448,0.432c-0.247,0-0.424-0.191-0.424-0.432c0-0.248,0.185-0.439,0.44-0.439    C293.851,126.162,294.019,126.354,294.019,126.602z M293.234,131.559v-3.87h0.704v3.87H293.234z"/>
		<path d="M295.106,128.736c0-0.399-0.008-0.728-0.031-1.048h0.623l0.04,0.64h0.017c0.191-0.367,0.64-0.728,1.279-0.728    c0.535,0,1.367,0.32,1.367,1.647v2.311h-0.704v-2.23c0-0.624-0.231-1.144-0.896-1.144c-0.464,0-0.823,0.328-0.943,0.72    c-0.032,0.088-0.048,0.208-0.048,0.328v2.326h-0.704V128.736z"/>
		<path d="M299.619,131.559v-3.334h-0.544v-0.536h0.544v-0.184c0-0.544,0.119-1.039,0.447-1.352    c0.264-0.256,0.616-0.359,0.943-0.359c0.248,0,0.464,0.056,0.6,0.112l-0.096,0.543c-0.104-0.048-0.248-0.088-0.447-0.088    c-0.6,0-0.752,0.528-0.752,1.12v0.207h0.936v0.536h-0.936v3.334H299.619z"/>
		<path d="M305.281,129.592c0,1.432-0.992,2.055-1.928,2.055c-1.047,0-1.854-0.768-1.854-1.99c0-1.296,0.848-2.056,1.919-2.056    C304.529,127.601,305.281,128.408,305.281,129.592z M302.211,129.632c0,0.848,0.487,1.487,1.175,1.487    c0.672,0,1.176-0.632,1.176-1.503c0-0.656-0.328-1.487-1.159-1.487C302.57,128.129,302.211,128.896,302.211,129.632z"/>
		<path d="M306.171,128.896c0-0.456-0.008-0.848-0.032-1.208h0.616l0.023,0.76h0.032c0.176-0.52,0.6-0.848,1.071-0.848    c0.08,0,0.136,0.009,0.2,0.024v0.664c-0.072-0.017-0.145-0.024-0.24-0.024c-0.495,0-0.848,0.376-0.943,0.903    c-0.016,0.096-0.032,0.208-0.032,0.328v2.062h-0.695V128.896z"/>
		<path d="M308.819,128.736c0-0.399-0.008-0.728-0.032-1.048h0.616l0.031,0.624h0.024c0.216-0.368,0.575-0.712,1.215-0.712    c0.528,0,0.928,0.32,1.096,0.776h0.017c0.119-0.216,0.271-0.384,0.432-0.504c0.231-0.176,0.487-0.272,0.855-0.272    c0.512,0,1.271,0.336,1.271,1.68v2.278h-0.688v-2.19c0-0.744-0.271-1.191-0.839-1.191c-0.4,0-0.712,0.296-0.832,0.64    c-0.032,0.096-0.056,0.224-0.056,0.352v2.391h-0.688v-2.318c0-0.616-0.272-1.063-0.808-1.063c-0.439,0-0.76,0.352-0.872,0.703    c-0.04,0.104-0.056,0.225-0.056,0.344v2.335h-0.688V128.736z"/>
		<path d="M317.634,131.559l-0.056-0.487h-0.024c-0.216,0.304-0.631,0.575-1.183,0.575c-0.784,0-1.184-0.552-1.184-1.111    c0-0.936,0.831-1.447,2.326-1.439v-0.079c0-0.32-0.088-0.896-0.879-0.896c-0.36,0-0.735,0.111-1.008,0.287l-0.16-0.464    c0.32-0.207,0.784-0.344,1.271-0.344c1.184,0,1.472,0.808,1.472,1.584v1.446c0,0.336,0.016,0.664,0.063,0.928H317.634z     M317.53,129.584c-0.768-0.016-1.64,0.12-1.64,0.871c0,0.456,0.304,0.672,0.664,0.672c0.504,0,0.823-0.319,0.936-0.647    c0.023-0.072,0.04-0.152,0.04-0.224V129.584z"/>
		<path d="M320.162,126.577v1.111h1.008v0.536h-1.008v2.087c0,0.479,0.137,0.752,0.528,0.752c0.184,0,0.319-0.024,0.407-0.049    l0.032,0.528c-0.136,0.056-0.352,0.096-0.624,0.096c-0.327,0-0.591-0.104-0.759-0.296c-0.2-0.208-0.272-0.552-0.272-1.007v-2.111    h-0.6v-0.536h0.6v-0.927L320.162,126.577z"/>
		<path d="M322.746,126.602c0.009,0.24-0.168,0.432-0.447,0.432c-0.248,0-0.424-0.191-0.424-0.432c0-0.248,0.184-0.439,0.439-0.439    C322.578,126.162,322.746,126.354,322.746,126.602z M321.963,131.559v-3.87h0.703v3.87H321.963z"/>
		<path d="M327.337,129.592c0,1.432-0.991,2.055-1.927,2.055c-1.048,0-1.855-0.768-1.855-1.99c0-1.296,0.848-2.056,1.919-2.056    C326.585,127.601,327.337,128.408,327.337,129.592z M324.267,129.632c0,0.848,0.488,1.487,1.176,1.487    c0.671,0,1.175-0.632,1.175-1.503c0-0.656-0.327-1.487-1.159-1.487C324.627,128.129,324.267,128.896,324.267,129.632z"/>
		<path d="M328.227,128.736c0-0.399-0.008-0.728-0.031-1.048h0.623l0.04,0.64h0.017c0.191-0.367,0.64-0.728,1.279-0.728    c0.535,0,1.367,0.32,1.367,1.647v2.311h-0.704v-2.23c0-0.624-0.231-1.144-0.896-1.144c-0.464,0-0.823,0.328-0.943,0.72    c-0.032,0.088-0.048,0.208-0.048,0.328v2.326h-0.704V128.736z"/>
	</g>
</g>
<line fill="none" stroke="#000000" stroke-width="0.5" stroke-miterlimit="10" x1="0" y1="106.895" x2="360" y2="106.895"/>
</svg>