<svg xmlns="http://www.w3.org/2000/svg" xmlns:xlink="http://www.w3.org/1999/xlink" version="1.1" id="Layer_1" x="0px" y="0px" width="312.149px" height="205.541px" viewBox="0 0 312.149 205.541" enable-background="new 0 0 312.149 205.541" xml:space="preserve">
<ellipse fill="#E6E6E6" stroke="#000000" stroke-width="0.5" stroke-miterlimit="10" cx="30.786" cy="24.25" rx="30.536" ry="10.793"/>
<ellipse fill="#BFBFBF" stroke="#000000" stroke-width="0.5" stroke-miterlimit="10" cx="30.786" cy="63.173" rx="30.536" ry="10.793"/>
<ellipse fill="#BFBFBF" stroke="#000000" stroke-width="0.5" stroke-miterlimit="10" cx="160.819" cy="11.064" rx="42.414" ry="10.814"/>
<ellipse fill="#BFBFBF" stroke="#000000" stroke-width="0.5" stroke-miterlimit="10" cx="160.819" cy="47.785" rx="49.366" ry="10.814"/>
<ellipse fill="#BFBFBF" stroke="#000000" stroke-width="0.5" stroke-miterlimit="10" cx="160.819" cy="84.64" rx="56.9" ry="10.814"/>
<ellipse fill="#BFBFBF" stroke="#000000" stroke-width="0.5" stroke-miterlimit="10" cx="160.819" cy="121.428" rx="63.577" ry="10.813"/>
<ellipse fill="#BFBFBF" stroke="#000000" stroke-width="0.5" stroke-miterlimit="10" cx="160.819" cy="157.778" rx="70.654" ry="10.813"/>
<ellipse fill="#BFBFBF" stroke="#000000" stroke-width="0.5" stroke-miterlimit="10" cx="160.819" cy="194.476" rx="78.958" ry="10.814"/>
<ellipse fill="#E6E6E6" stroke="#000000" stroke-width="0.5" stroke-miterlimit="10" cx="148.088" cy="8.476" rx="7.567" ry="2.861"/>
<ellipse fill="#E6E6E6" stroke="#000000" stroke-width="0.5" stroke-miterlimit="10" cx="175.428" cy="6.674" rx="7.566" ry="2.861"/>
<ellipse fill="#E6E6E6" stroke="#000000" stroke-width="0.5" stroke-miterlimit="10" cx="160.041" cy="16.699" rx="7.566" ry="2.861"/>
<ellipse fill="#BFBFBF" stroke="#000000" stroke-width="0.5" stroke-miterlimit="10" cx="168.276" cy="42.572" rx="7.566" ry="2.861"/>
<ellipse fill="#BFBFBF" stroke="#000000" stroke-width="0.5" stroke-miterlimit="10" cx="179.311" cy="50.911" rx="7.566" ry="2.861"/>
<ellipse fill="#BFBFBF" stroke="#000000" stroke-width="0.5" stroke-miterlimit="10" cx="152.968" cy="52.35" rx="7.566" ry="2.861"/>
<ellipse fill="#262626" stroke="#000000" stroke-width="0.5" stroke-miterlimit="10" cx="124.225" cy="196.504" rx="7.566" ry="2.861"/>
<ellipse fill="#262626" stroke="#000000" stroke-width="0.5" stroke-miterlimit="10" cx="142.659" cy="191.958" rx="7.566" ry="2.861"/>
<ellipse fill="#262626" stroke="#000000" stroke-width="0.5" stroke-miterlimit="10" cx="170.184" cy="190.028" rx="7.566" ry="2.861"/>
<ellipse fill="#262626" stroke="#000000" stroke-width="0.5" stroke-miterlimit="10" cx="180.833" cy="198.31" rx="7.566" ry="2.861"/>
<ellipse fill="#262626" stroke="#000000" stroke-width="0.5" stroke-miterlimit="10" cx="194.782" cy="192.007" rx="7.566" ry="2.861"/>
<line fill="none" stroke="#000000" stroke-width="0.35" stroke-miterlimit="10" x1="30.786" y1="13.457" x2="146.814" y2="5.615"/>
<line fill="none" stroke="#000000" stroke-width="0.35" stroke-miterlimit="10" x1="47.175" y1="33.358" x2="148.803" y2="11.337"/>
<g>
	<g>
		<line fill="none" stroke="#000000" stroke-width="0.35" stroke-miterlimit="10" x1="155.6" y1="8.814" x2="158.117" y2="11.755"/>
		<g>
			<polygon points="156.46,12.502 159.751,13.663 159.11,10.232    "/>
		</g>
	</g>
</g>
<g>
	<g>
		
			<line fill="none" stroke="#000000" stroke-width="0.35" stroke-miterlimit="10" x1="175.091" y1="9.724" x2="167.923" y2="13.286"/>
		<g>
			<polygon points="167.604,11.495 165.674,14.403 169.156,14.621    "/>
		</g>
	</g>
</g>
<g>
	<g>
		<line fill="none" stroke="#000000" stroke-width="0.35" stroke-miterlimit="10" x1="155.6" y1="8.303" x2="165.367" y2="7.147"/>
		<g>
			<polygon points="165.065,8.94 167.861,6.852 164.655,5.474    "/>
		</g>
	</g>
</g>
<line fill="none" stroke="#000000" stroke-width="0.35" stroke-miterlimit="10" stroke-dasharray="1,1" x1="167.251" y1="15.832" x2="210.238" y2="48.05"/>
<line fill="none" stroke="#000000" stroke-width="0.35" stroke-miterlimit="10" x1="34.404" y1="52.35" x2="139.515" y2="41.41"/>
<line fill="none" stroke="#000000" stroke-width="0.35" stroke-miterlimit="10" x1="49.902" y1="71.589" x2="143.843" y2="46.88"/>
<line fill="none" stroke="#000000" stroke-width="0.35" stroke-miterlimit="10" x1="33.355" y1="91.483" x2="137.977" y2="78.895"/>
<line fill="none" stroke="#000000" stroke-width="0.35" stroke-miterlimit="10" x1="52.362" y1="109.915" x2="143.843" y2="84.168"/>
<line fill="none" stroke="#000000" stroke-width="0.35" stroke-miterlimit="10" x1="31.731" y1="130.932" x2="126.709" y2="119.864"/>
<line fill="none" stroke="#000000" stroke-width="0.35" stroke-miterlimit="10" x1="130.209" y1="125.472" x2="53.628" y2="148.888"/>
<path fill="none" stroke="#000000" stroke-width="0.35" stroke-miterlimit="10" stroke-dasharray="1,1" d="M160.534,51.735"/>
<line fill="none" stroke="#000000" stroke-width="0.35" stroke-miterlimit="10" stroke-dasharray="1,1" x1="158.043" y1="50.232" x2="217.72" y2="84.64"/>
<line fill="none" stroke="#000000" stroke-width="0.35" stroke-miterlimit="10" stroke-dasharray="1,1" x1="159.739" y1="88.678" x2="223.91" y2="120.944"/>
<line fill="none" stroke="#000000" stroke-width="0.35" stroke-miterlimit="10" stroke-dasharray="1,1" x1="165.13" y1="124.713" x2="231.474" y2="157.778"/>
<line fill="none" stroke="#000000" stroke-width="0.35" stroke-miterlimit="10" stroke-dasharray="1,1" x1="161.918" y1="161.292" x2="239.777" y2="194.476"/>
<g>
	<g>
		
			<line fill="none" stroke="#000000" stroke-width="0.35" stroke-miterlimit="10" x1="148.087" y1="44.194" x2="158.219" y2="42.892"/>
		<g>
			<polygon points="157.935,44.688 160.71,42.572 157.489,41.226    "/>
		</g>
	</g>
</g>
<g>
	<g>
		
			<line fill="none" stroke="#000000" stroke-width="0.35" stroke-miterlimit="10" x1="148.675" y1="44.711" x2="151.116" y2="47.474"/>
		<g>
			<polygon points="149.47,48.247 152.779,49.356 152.086,45.936    "/>
		</g>
	</g>
</g>
<g>
	<g>
		
			<line fill="none" stroke="#000000" stroke-width="0.35" stroke-miterlimit="10" x1="167.746" y1="45.433" x2="160.728" y2="49.075"/>
		<g>
			<polygon points="160.377,47.291 158.499,50.232 161.985,50.389    "/>
		</g>
	</g>
</g>
<g>
	<g>
		
			<line fill="none" stroke="#000000" stroke-width="0.35" stroke-miterlimit="10" x1="173.761" y1="44.542" x2="179.612" y2="47.058"/>
		<g>
			<polygon points="178.453,48.459 181.919,48.05 179.832,45.252    "/>
		</g>
	</g>
</g>
<g>
	<g>
		
			<line fill="none" stroke="#000000" stroke-width="0.35" stroke-miterlimit="10" x1="160.71" y1="52.104" x2="169.247" y2="51.181"/>
		<g>
			<polygon points="168.927,52.971 171.744,50.911 168.552,49.5    "/>
		</g>
	</g>
</g>
<g>
	<g>
		
			<line fill="none" stroke="#000000" stroke-width="0.35" stroke-miterlimit="10" x1="148.15" y1="81.579" x2="158.281" y2="80.277"/>
		<g>
			<polygon points="157.997,82.073 160.772,79.957 157.553,78.611    "/>
		</g>
	</g>
</g>
<g>
	<g>
		
			<line fill="none" stroke="#000000" stroke-width="0.35" stroke-miterlimit="10" x1="148.738" y1="82.096" x2="151.179" y2="84.859"/>
		<g>
			<polygon points="149.533,85.632 152.842,86.741 152.149,83.321    "/>
		</g>
	</g>
</g>
<g>
	<g>
		
			<line fill="none" stroke="#000000" stroke-width="0.35" stroke-miterlimit="10" x1="167.809" y1="82.817" x2="160.791" y2="86.46"/>
		<g>
			<polygon points="160.44,84.675 158.562,87.617 162.048,87.773    "/>
		</g>
	</g>
</g>
<g>
	<g>
		
			<line fill="none" stroke="#000000" stroke-width="0.35" stroke-miterlimit="10" x1="173.824" y1="81.926" x2="179.675" y2="84.442"/>
		<g>
			<polygon points="178.517,85.844 181.982,85.434 179.895,82.637    "/>
		</g>
	</g>
</g>
<g>
	<g>
		
			<line fill="none" stroke="#000000" stroke-width="0.35" stroke-miterlimit="10" x1="160.772" y1="89.489" x2="169.31" y2="88.565"/>
		<g>
			<polygon points="168.989,90.355 171.807,88.295 168.614,86.885    "/>
		</g>
	</g>
</g>
<g>
	<g>
		
			<line fill="none" stroke="#000000" stroke-width="0.35" stroke-miterlimit="10" x1="134.18" y1="120.591" x2="137.292" y2="119.019"/>
		<g>
			<polygon points="137.624,120.807 139.534,117.886 136.05,117.691    "/>
		</g>
	</g>
</g>
<g>
	<g>
		
			<line fill="none" stroke="#000000" stroke-width="0.35" stroke-miterlimit="10" x1="136.388" y1="122.611" x2="149.349" y2="125.5"/>
		<g>
			<polygon points="148.47,127.093 151.8,126.047 149.23,123.686    "/>
		</g>
	</g>
</g>
<g>
	<g>
		
			<line fill="none" stroke="#000000" stroke-width="0.35" stroke-miterlimit="10" x1="154.667" y1="117.886" x2="157.299" y2="120.928"/>
		<g>
			<polygon points="155.645,121.684 158.941,122.829 158.284,119.401    "/>
		</g>
	</g>
</g>
<g>
	<g>
		
			<line fill="none" stroke="#000000" stroke-width="0.35" stroke-miterlimit="10" x1="154.621" y1="117.573" x2="164.524" y2="116.646"/>
		<g>
			<polygon points="164.179,118.431 167.025,116.412 163.853,114.956    "/>
		</g>
	</g>
</g>
<g>
	<g>
		
			<line fill="none" stroke="#000000" stroke-width="0.35" stroke-miterlimit="10" x1="164.659" y1="124.003" x2="171.372" y2="120.421"/>
		<g>
			<polygon points="171.743,122.202 173.588,119.239 170.1,119.122    "/>
		</g>
	</g>
</g>
<g>
	<g>
		
			<line fill="none" stroke="#000000" stroke-width="0.35" stroke-miterlimit="10" x1="166.387" y1="126.047" x2="175.411" y2="125.002"/>
		<g>
			<polygon points="175.105,126.794 177.906,124.713 174.703,123.328    "/>
		</g>
	</g>
</g>
<g>
	<g>
		
			<line fill="none" stroke="#000000" stroke-width="0.35" stroke-miterlimit="10" x1="176.135" y1="119.239" x2="181.874" y2="121.111"/>
		<g>
			<polygon points="180.848,122.612 184.262,121.89 181.93,119.293    "/>
		</g>
	</g>
</g>
<g>
	<g>
		
			<line fill="none" stroke="#000000" stroke-width="0.35" stroke-miterlimit="10" x1="182.127" y1="116.412" x2="189.692" y2="117.522"/>
		<g>
			<polygon points="188.934,119.174 192.177,117.886 189.44,115.72    "/>
		</g>
	</g>
</g>
<g>
	<g>
		
			<line fill="none" stroke="#000000" stroke-width="0.35" stroke-miterlimit="10" x1="198.716" y1="120.748" x2="195.163" y2="122.989"/>
		<g>
			<polygon points="194.664,121.241 193.039,124.33 196.526,124.192    "/>
		</g>
	</g>
</g>
<g>
	<g>
		
			<line fill="none" stroke="#000000" stroke-width="0.35" stroke-miterlimit="10" x1="129.586" y1="157.121" x2="132.699" y2="155.548"/>
		<g>
			<polygon points="133.03,157.336 134.94,154.416 131.456,154.221    "/>
		</g>
	</g>
</g>
<g>
	<g>
		
			<line fill="none" stroke="#000000" stroke-width="0.35" stroke-miterlimit="10" x1="131.794" y1="159.14" x2="144.755" y2="162.03"/>
		<g>
			<polygon points="143.876,163.623 147.207,162.577 144.636,160.215    "/>
		</g>
	</g>
</g>
<g>
	<g>
		
			<line fill="none" stroke="#000000" stroke-width="0.35" stroke-miterlimit="10" x1="150.073" y1="154.416" x2="152.705" y2="157.458"/>
		<g>
			<polygon points="151.051,158.213 154.349,159.358 153.691,155.93    "/>
		</g>
	</g>
</g>
<g>
	<g>
		
			<line fill="none" stroke="#000000" stroke-width="0.35" stroke-miterlimit="10" x1="150.027" y1="154.103" x2="159.931" y2="153.175"/>
		<g>
			<polygon points="159.585,154.96 162.432,152.941 159.26,151.485    "/>
		</g>
	</g>
</g>
<g>
	<g>
		
			<line fill="none" stroke="#000000" stroke-width="0.35" stroke-miterlimit="10" x1="160.065" y1="160.533" x2="166.778" y2="156.951"/>
		<g>
			<polygon points="167.149,158.731 168.994,155.768 165.506,155.652    "/>
		</g>
	</g>
</g>
<g>
	<g>
		
			<line fill="none" stroke="#000000" stroke-width="0.35" stroke-miterlimit="10" x1="161.794" y1="162.577" x2="170.818" y2="161.532"/>
		<g>
			<polygon points="170.512,163.325 173.312,161.243 170.11,159.857    "/>
		</g>
	</g>
</g>
<g>
	<g>
		
			<line fill="none" stroke="#000000" stroke-width="0.35" stroke-miterlimit="10" x1="171.541" y1="155.768" x2="177.281" y2="157.64"/>
		<g>
			<polygon points="176.254,159.141 179.669,158.419 177.337,155.823    "/>
		</g>
	</g>
</g>
<g>
	<g>
		
			<line fill="none" stroke="#000000" stroke-width="0.35" stroke-miterlimit="10" x1="177.533" y1="152.941" x2="185.099" y2="154.051"/>
		<g>
			<polygon points="184.34,155.704 187.584,154.416 184.847,152.25    "/>
		</g>
	</g>
</g>
<g>
	<g>
		
			<line fill="none" stroke="#000000" stroke-width="0.35" stroke-miterlimit="10" x1="194.122" y1="157.277" x2="190.57" y2="159.518"/>
		<g>
			<polygon points="190.07,157.77 188.445,160.859 191.933,160.721    "/>
		</g>
	</g>
</g>
<g>
	<g>
		
			<line fill="none" stroke="#000000" stroke-width="0.35" stroke-miterlimit="10" x1="129.357" y1="194.703" x2="132.469" y2="193.129"/>
		<g>
			<polygon points="132.801,194.917 134.711,191.998 131.227,191.802    "/>
		</g>
	</g>
</g>
<g>
	<g>
		
			<line fill="none" stroke="#000000" stroke-width="0.35" stroke-miterlimit="10" x1="131.564" y1="196.722" x2="144.525" y2="199.612"/>
		<g>
			<polygon points="143.647,201.205 146.977,200.159 144.407,197.797    "/>
		</g>
	</g>
</g>
<g>
	<g>
		
			<line fill="none" stroke="#000000" stroke-width="0.35" stroke-miterlimit="10" x1="149.844" y1="191.998" x2="152.476" y2="195.04"/>
		<g>
			<polygon points="150.822,195.795 154.119,196.94 153.462,193.512    "/>
		</g>
	</g>
</g>
<g>
	<g>
		
			<line fill="none" stroke="#000000" stroke-width="0.35" stroke-miterlimit="10" x1="149.798" y1="191.684" x2="159.701" y2="190.757"/>
		<g>
			<polygon points="159.355,192.542 162.202,190.523 159.03,189.067    "/>
		</g>
	</g>
</g>
<g>
	<g>
		
			<line fill="none" stroke="#000000" stroke-width="0.35" stroke-miterlimit="10" x1="159.836" y1="198.115" x2="166.549" y2="194.533"/>
		<g>
			<polygon points="166.92,196.313 168.765,193.35 165.276,193.233    "/>
		</g>
	</g>
</g>
<g>
	<g>
		
			<line fill="none" stroke="#000000" stroke-width="0.35" stroke-miterlimit="10" x1="161.564" y1="200.159" x2="170.589" y2="199.114"/>
		<g>
			<polygon points="170.282,200.906 173.084,198.825 169.881,197.439    "/>
		</g>
	</g>
</g>
<g>
	<g>
		
			<line fill="none" stroke="#000000" stroke-width="0.35" stroke-miterlimit="10" x1="171.312" y1="192.889" x2="177.052" y2="194.761"/>
		<g>
			<polygon points="176.024,196.262 179.439,195.541 177.107,192.944    "/>
		</g>
	</g>
</g>
<g>
	<g>
		
			<line fill="none" stroke="#000000" stroke-width="0.35" stroke-miterlimit="10" x1="177.305" y1="190.523" x2="184.869" y2="191.632"/>
		<g>
			<polygon points="184.11,193.286 187.354,191.998 184.617,189.832    "/>
		</g>
	</g>
</g>
<g>
	<g>
		
			<line fill="none" stroke="#000000" stroke-width="0.35" stroke-miterlimit="10" x1="193.893" y1="194.859" x2="190.341" y2="197.1"/>
		<g>
			<polygon points="189.841,195.351 188.217,198.44 191.704,198.303    "/>
		</g>
	</g>
</g>
<ellipse fill="#262626" stroke="#000000" stroke-width="0.5" stroke-miterlimit="10" cx="154.74" cy="199.929" rx="7.567" ry="2.861"/>
<ellipse fill="#4D4D4D" stroke="#000000" stroke-width="0.5" stroke-miterlimit="10" cx="124.719" cy="158.685" rx="7.566" ry="2.861"/>
<ellipse fill="#4D4D4D" stroke="#000000" stroke-width="0.5" stroke-miterlimit="10" cx="143.389" cy="154.409" rx="7.566" ry="2.861"/>
<ellipse fill="#4D4D4D" stroke="#000000" stroke-width="0.5" stroke-miterlimit="10" cx="170.695" cy="152.619" rx="7.566" ry="2.86"/>
<ellipse fill="#4D4D4D" stroke="#000000" stroke-width="0.5" stroke-miterlimit="10" cx="195.801" cy="154.523" rx="7.566" ry="2.861"/>
<ellipse fill="#4D4D4D" stroke="#000000" stroke-width="0.5" stroke-miterlimit="10" cx="154.989" cy="162.44" rx="7.567" ry="2.861"/>
<ellipse fill="#4D4D4D" stroke="#000000" stroke-width="0.5" stroke-miterlimit="10" cx="180.94" cy="160.916" rx="7.566" ry="2.861"/>
<ellipse fill="#737373" stroke="#000000" stroke-width="0.5" stroke-miterlimit="10" cx="30.786" cy="141.725" rx="30.536" ry="10.794"/>
<ellipse fill="#737373" stroke="#000000" stroke-width="0.5" stroke-miterlimit="10" cx="159.366" cy="126.047" rx="7.566" ry="2.861"/>
<ellipse fill="#737373" stroke="#000000" stroke-width="0.5" stroke-miterlimit="10" cx="128.821" cy="122.611" rx="7.566" ry="2.861"/>
<ellipse fill="#737373" stroke="#000000" stroke-width="0.5" stroke-miterlimit="10" cx="147.101" cy="117.886" rx="7.566" ry="2.861"/>
<ellipse fill="#737373" stroke="#000000" stroke-width="0.5" stroke-miterlimit="10" cx="174.591" cy="116.167" rx="7.566" ry="2.861"/>
<ellipse fill="#737373" stroke="#000000" stroke-width="0.5" stroke-miterlimit="10" cx="185.473" cy="124.713" rx="7.566" ry="2.861"/>
<ellipse fill="#737373" stroke="#000000" stroke-width="0.5" stroke-miterlimit="10" cx="199.743" cy="118.083" rx="7.566" ry="2.861"/>
<ellipse fill="#999999" stroke="#000000" stroke-width="0.5" stroke-miterlimit="10" cx="30.786" cy="102.276" rx="30.536" ry="10.793"/>
<ellipse fill="#999999" stroke="#000000" stroke-width="0.5" stroke-miterlimit="10" cx="140.839" cy="81.542" rx="7.566" ry="2.861"/>
<ellipse fill="#999999" stroke="#000000" stroke-width="0.5" stroke-miterlimit="10" cx="152.679" cy="89.7" rx="7.566" ry="2.861"/>
<ellipse fill="#999999" stroke="#000000" stroke-width="0.5" stroke-miterlimit="10" cx="168.426" cy="79.957" rx="7.566" ry="2.861"/>
<ellipse fill="#999999" stroke="#000000" stroke-width="0.5" stroke-miterlimit="10" cx="179.303" cy="88.113" rx="7.566" ry="2.861"/>
<ellipse fill="#BFBFBF" stroke="#000000" stroke-width="0.5" stroke-miterlimit="10" cx="141.236" cy="44.194" rx="7.566" ry="2.861"/>
<g>
	<path d="M7.266,20.744c0.408-0.072,0.864-0.112,1.335-0.112c0.903,0,1.583,0.256,1.983,0.72c0.288,0.304,0.503,0.784,0.512,1.463   c0,0.976-0.392,1.943-1.087,2.535c-0.624,0.52-1.407,0.744-2.438,0.744c-0.472,0-0.96-0.024-1.312-0.064L7.266,20.744z    M7.026,25.509c0.24,0.032,0.496,0.04,0.696,0.04c0.855,0,1.479-0.256,1.927-0.72c0.48-0.496,0.736-1.223,0.736-1.983   c0-0.959-0.472-1.671-1.815-1.671c-0.24,0-0.536,0.016-0.735,0.056L7.026,25.509z"/>
	<path d="M11.45,26.061l0.744-3.87h0.664l-0.743,3.87H11.45z M12.314,21.112c0-0.256,0.2-0.448,0.44-0.448   c0.24,0,0.392,0.176,0.392,0.416c-0.008,0.264-0.192,0.448-0.448,0.448C12.466,21.527,12.314,21.352,12.314,21.112z"/>
	<path d="M13.314,25.389c0.184,0.112,0.52,0.24,0.832,0.24c0.448,0,0.736-0.288,0.736-0.632c0-0.304-0.136-0.488-0.536-0.711   c-0.448-0.248-0.695-0.592-0.695-0.983c0-0.68,0.583-1.2,1.399-1.2c0.352,0,0.664,0.096,0.808,0.192l-0.184,0.504   c-0.136-0.08-0.384-0.176-0.672-0.176c-0.4,0-0.688,0.248-0.688,0.583c0,0.28,0.184,0.456,0.528,0.647   c0.432,0.248,0.728,0.584,0.728,1.016c0,0.815-0.664,1.271-1.479,1.271c-0.416,0-0.783-0.128-0.959-0.264L13.314,25.389z"/>
	<path d="M18.929,25.909c-0.2,0.096-0.6,0.232-1.119,0.232c-1,0-1.487-0.672-1.487-1.495c0-1.319,0.976-2.535,2.367-2.535   c0.36,0,0.688,0.104,0.808,0.168l-0.192,0.527c-0.152-0.072-0.368-0.144-0.656-0.144c-1.007,0-1.639,0.991-1.639,1.903   c0,0.624,0.328,1.031,0.959,1.031c0.392,0,0.696-0.12,0.896-0.216L18.929,25.909z"/>
	<path d="M19.65,26.061l0.472-2.495c0.096-0.504,0.16-1.016,0.2-1.375h0.583c-0.032,0.272-0.064,0.544-0.104,0.84h0.024   c0.248-0.528,0.664-0.928,1.183-0.928c0.056,0,0.136,0.008,0.184,0.016l-0.128,0.656c-0.04-0.008-0.104-0.016-0.176-0.016   c-0.575,0-1.087,0.696-1.255,1.599l-0.32,1.703H19.65z"/>
	<path d="M22.194,26.061l0.743-3.87h0.664l-0.744,3.87H22.194z M23.058,21.112c0-0.256,0.2-0.448,0.44-0.448   c0.24,0,0.392,0.176,0.392,0.416c-0.008,0.264-0.192,0.448-0.448,0.448C23.209,21.527,23.058,21.352,23.058,21.112z"/>
	<path d="M24.026,26.061l0.52-2.743c0.08-0.432,0.136-0.807,0.176-1.127h0.584l-0.104,0.728h0.024   c0.36-0.536,0.848-0.816,1.359-0.816c0.591,0,0.871,0.376,0.903,0.864c0.344-0.56,0.839-0.855,1.423-0.864   c0.448,0,0.935,0.288,0.935,1.016c0,0.184-0.024,0.44-0.063,0.656l-0.432,2.287h-0.647l0.416-2.231   c0.032-0.144,0.056-0.344,0.056-0.503c0-0.408-0.152-0.672-0.583-0.672c-0.48,0-1.048,0.56-1.208,1.423l-0.376,1.983h-0.64   l0.432-2.271c0.032-0.168,0.048-0.32,0.048-0.472c0-0.328-0.088-0.664-0.576-0.664s-1.087,0.64-1.239,1.463l-0.36,1.943H24.026z"/>
	<path d="M30.49,26.061l0.743-3.87h0.664l-0.744,3.87H30.49z M31.354,21.112c0-0.256,0.2-0.448,0.44-0.448   c0.24,0,0.392,0.176,0.392,0.416c-0.008,0.264-0.192,0.448-0.448,0.448C31.505,21.527,31.354,21.352,31.354,21.112z"/>
	<path d="M32.322,26.061l0.52-2.743c0.088-0.432,0.136-0.807,0.184-1.127h0.592l-0.096,0.76h0.016   c0.344-0.543,0.864-0.848,1.432-0.848c0.463,0,0.983,0.264,0.983,1.08c0,0.168-0.032,0.416-0.072,0.624l-0.432,2.255h-0.664   l0.424-2.231c0.032-0.152,0.056-0.335,0.056-0.496c0-0.392-0.152-0.68-0.608-0.68c-0.472,0-1.144,0.568-1.319,1.527l-0.352,1.879   H32.322z"/>
	<path d="M39.161,26.061c0-0.232,0.04-0.6,0.088-1h-0.016c-0.424,0.8-0.951,1.087-1.503,1.087c-0.68,0-1.111-0.543-1.111-1.279   c0-1.343,0.991-2.767,2.678-2.767c0.368,0,0.776,0.064,1.04,0.152l-0.392,2.015c-0.128,0.672-0.184,1.359-0.168,1.791H39.161z    M39.592,22.687c-0.096-0.024-0.24-0.056-0.464-0.056c-1,0-1.815,1.047-1.823,2.119c0,0.432,0.152,0.856,0.664,0.856   c0.552,0,1.208-0.72,1.399-1.751L39.592,22.687z"/>
	<path d="M42.505,21.152l-0.2,1.039h0.928l-0.104,0.52h-0.927l-0.36,1.879c-0.04,0.216-0.072,0.416-0.072,0.624   c0,0.232,0.112,0.368,0.368,0.368c0.112,0,0.224-0.008,0.312-0.024l-0.032,0.52c-0.12,0.048-0.32,0.072-0.512,0.072   c-0.592,0-0.815-0.36-0.815-0.751c0-0.224,0.024-0.448,0.08-0.728l0.384-1.959h-0.56l0.104-0.52h0.552l0.168-0.871L42.505,21.152z"/>
	<path d="M43.273,26.061l0.744-3.87h0.664l-0.743,3.87H43.273z M44.137,21.112c0-0.256,0.2-0.448,0.44-0.448   c0.24,0,0.392,0.176,0.392,0.416c-0.008,0.264-0.192,0.448-0.448,0.448C44.289,21.527,44.137,21.352,44.137,21.112z"/>
	<path d="M48.815,23.718c0,1.191-0.847,2.431-2.143,2.431c-0.967,0-1.511-0.72-1.511-1.591c0-1.271,0.888-2.455,2.143-2.455   C48.352,22.103,48.815,22.895,48.815,23.718z M45.849,24.534c0,0.632,0.344,1.087,0.912,1.087c0.784,0,1.375-1.007,1.375-1.911   c0-0.448-0.208-1.08-0.904-1.08C46.401,22.631,45.841,23.646,45.849,24.534z"/>
	<path d="M49.281,26.061l0.52-2.743c0.088-0.432,0.136-0.807,0.184-1.127h0.591l-0.096,0.76h0.016   c0.344-0.543,0.863-0.848,1.431-0.848c0.463,0,0.983,0.264,0.983,1.08c0,0.168-0.032,0.416-0.072,0.624l-0.432,2.255h-0.664   l0.424-2.231c0.032-0.152,0.056-0.335,0.056-0.496c0-0.392-0.152-0.68-0.607-0.68c-0.472,0-1.144,0.568-1.319,1.527l-0.352,1.879   H49.281z"/>
</g>
<g>
	<path d="M244.159,13.521c0.312,0.192,0.768,0.352,1.247,0.352c0.712,0,1.127-0.376,1.127-0.919c0-0.504-0.287-0.792-1.015-1.072   c-0.88-0.312-1.424-0.768-1.424-1.527c0-0.84,0.696-1.463,1.743-1.463c0.552,0,0.951,0.128,1.191,0.264l-0.191,0.567   c-0.177-0.096-0.536-0.256-1.023-0.256c-0.736,0-1.016,0.44-1.016,0.808c0,0.504,0.327,0.751,1.071,1.04   c0.911,0.352,1.375,0.792,1.375,1.583c0,0.832-0.615,1.551-1.887,1.551c-0.52,0-1.088-0.152-1.375-0.344L244.159,13.521z"/>
	<path d="M251.725,12.402c0,1.431-0.991,2.055-1.927,2.055c-1.048,0-1.855-0.768-1.855-1.991c0-1.295,0.848-2.055,1.919-2.055   C250.973,10.411,251.725,11.219,251.725,12.402z M248.654,12.442c0,0.847,0.487,1.487,1.176,1.487c0.671,0,1.175-0.631,1.175-1.503   c0-0.656-0.328-1.487-1.159-1.487C249.014,10.939,248.654,11.707,248.654,12.442z"/>
	<path d="M255.373,14.225c-0.184,0.096-0.592,0.224-1.111,0.224c-1.167,0-1.927-0.792-1.927-1.975c0-1.191,0.815-2.055,2.079-2.055   c0.415,0,0.783,0.104,0.975,0.2l-0.159,0.544c-0.168-0.096-0.432-0.184-0.815-0.184c-0.888,0-1.367,0.656-1.367,1.463   c0,0.896,0.575,1.447,1.343,1.447c0.399,0,0.664-0.104,0.863-0.192L255.373,14.225z"/>
	<path d="M256.982,9.412c0.008,0.24-0.168,0.432-0.448,0.432c-0.248,0-0.424-0.192-0.424-0.432c0-0.248,0.185-0.44,0.44-0.44   C256.814,8.972,256.982,9.164,256.982,9.412z M256.198,14.369v-3.87h0.704v3.87H256.198z"/>
	<path d="M258.463,12.562c0.016,0.952,0.623,1.343,1.327,1.343c0.504,0,0.808-0.088,1.071-0.2l0.12,0.503   c-0.248,0.112-0.672,0.24-1.288,0.24c-1.19,0-1.902-0.784-1.902-1.951c0-1.167,0.688-2.087,1.814-2.087   c1.264,0,1.6,1.111,1.6,1.823c0,0.144-0.016,0.256-0.024,0.328H258.463z M260.525,12.059c0.008-0.448-0.184-1.144-0.976-1.144   c-0.712,0-1.023,0.656-1.079,1.144H260.525z"/>
	<path d="M262.926,9.388v1.111h1.008v0.536h-1.008v2.087c0,0.479,0.136,0.751,0.528,0.751c0.184,0,0.319-0.024,0.407-0.048   l0.032,0.528c-0.136,0.056-0.352,0.096-0.624,0.096c-0.327,0-0.592-0.104-0.759-0.296c-0.2-0.208-0.272-0.552-0.272-1.007v-2.111   h-0.6v-0.536h0.6V9.572L262.926,9.388z"/>
	<path d="M265.51,9.412c0.008,0.24-0.168,0.432-0.447,0.432c-0.248,0-0.424-0.192-0.424-0.432c0-0.248,0.184-0.44,0.439-0.44   C265.342,8.972,265.51,9.164,265.51,9.412z M264.727,14.369v-3.87h0.703v3.87H264.727z"/>
	<path d="M266.99,12.562c0.016,0.952,0.624,1.343,1.327,1.343c0.504,0,0.808-0.088,1.071-0.2l0.12,0.503   c-0.248,0.112-0.672,0.24-1.287,0.24c-1.191,0-1.903-0.784-1.903-1.951c0-1.167,0.688-2.087,1.815-2.087   c1.264,0,1.599,1.111,1.599,1.823c0,0.144-0.016,0.256-0.023,0.328H266.99z M269.053,12.059c0.009-0.448-0.184-1.144-0.975-1.144   c-0.712,0-1.023,0.656-1.08,1.144H269.053z"/>
	<path d="M270.511,13.649c0.208,0.136,0.575,0.28,0.927,0.28c0.512,0,0.752-0.256,0.752-0.576c0-0.335-0.2-0.52-0.72-0.711   c-0.695-0.248-1.023-0.632-1.023-1.095c0-0.624,0.504-1.136,1.335-1.136c0.393,0,0.736,0.112,0.952,0.24l-0.176,0.512   c-0.152-0.096-0.432-0.224-0.792-0.224c-0.416,0-0.647,0.24-0.647,0.528c0,0.32,0.231,0.464,0.735,0.656   c0.672,0.256,1.016,0.591,1.016,1.167c0,0.68-0.527,1.16-1.447,1.16c-0.424,0-0.815-0.104-1.087-0.264L270.511,13.649z"/>
</g>
<g>
	<path d="M248.86,49.609c0,1.855-1.128,2.838-2.503,2.838c-1.424,0-2.423-1.104-2.423-2.734c0-1.711,1.063-2.831,2.503-2.831   C247.908,46.883,248.86,48.01,248.86,49.609z M244.678,49.697c0,1.151,0.624,2.183,1.72,2.183c1.104,0,1.727-1.016,1.727-2.239   c0-1.071-0.56-2.19-1.719-2.19C245.254,47.451,244.678,48.514,244.678,49.697z"/>
	<path d="M249.742,49.697c0-0.456-0.008-0.848-0.031-1.208h0.615l0.024,0.76h0.031c0.177-0.52,0.601-0.848,1.072-0.848   c0.079,0,0.136,0.008,0.199,0.024v0.664c-0.071-0.016-0.144-0.024-0.239-0.024c-0.496,0-0.848,0.375-0.943,0.903   c-0.017,0.096-0.032,0.208-0.032,0.328v2.063h-0.696V49.697z"/>
	<path d="M255.629,48.49c-0.016,0.28-0.032,0.592-0.032,1.063V51.8c0,0.887-0.176,1.431-0.552,1.767   c-0.375,0.352-0.919,0.463-1.407,0.463c-0.463,0-0.975-0.112-1.287-0.32l0.176-0.536c0.256,0.16,0.656,0.304,1.136,0.304   c0.72,0,1.247-0.375,1.247-1.351v-0.432h-0.016c-0.216,0.36-0.632,0.647-1.231,0.647c-0.959,0-1.647-0.815-1.647-1.887   c0-1.312,0.855-2.055,1.743-2.055c0.672,0,1.04,0.352,1.208,0.672h0.016l0.032-0.584H255.629z M254.901,50.017   c0-0.12-0.008-0.224-0.04-0.32c-0.128-0.408-0.472-0.744-0.983-0.744c-0.672,0-1.151,0.568-1.151,1.463   c0,0.759,0.384,1.391,1.144,1.391c0.432,0,0.823-0.272,0.976-0.72c0.04-0.12,0.056-0.256,0.056-0.375V50.017z"/>
	<path d="M258.909,52.36l-0.056-0.488h-0.024c-0.216,0.304-0.631,0.576-1.183,0.576c-0.784,0-1.184-0.552-1.184-1.111   c0-0.936,0.831-1.447,2.326-1.439v-0.08c0-0.32-0.088-0.896-0.879-0.896c-0.36,0-0.735,0.112-1.008,0.288l-0.16-0.464   c0.32-0.208,0.784-0.344,1.271-0.344c1.184,0,1.472,0.808,1.472,1.583v1.447c0,0.336,0.016,0.664,0.063,0.928H258.909z    M258.806,50.385c-0.768-0.016-1.64,0.12-1.64,0.872c0,0.456,0.304,0.672,0.664,0.672c0.504,0,0.823-0.32,0.936-0.648   c0.023-0.072,0.04-0.152,0.04-0.224V50.385z"/>
	<path d="M260.622,49.538c0-0.4-0.008-0.728-0.031-1.048h0.623l0.04,0.64h0.017c0.191-0.368,0.64-0.728,1.279-0.728   c0.535,0,1.367,0.32,1.367,1.647v2.311h-0.704v-2.231c0-0.624-0.231-1.143-0.896-1.143c-0.464,0-0.823,0.328-0.943,0.72   c-0.032,0.088-0.048,0.208-0.048,0.328v2.327h-0.704V49.538z"/>
	<path d="M265.846,47.403c0.009,0.24-0.168,0.432-0.447,0.432c-0.248,0-0.424-0.192-0.424-0.432c0-0.248,0.184-0.44,0.439-0.44   C265.678,46.963,265.846,47.155,265.846,47.403z M265.062,52.36v-3.87h0.703v3.87H265.062z"/>
	<path d="M266.839,51.64c0.208,0.136,0.575,0.28,0.927,0.28c0.512,0,0.752-0.256,0.752-0.576c0-0.335-0.2-0.52-0.72-0.711   c-0.695-0.248-1.023-0.632-1.023-1.095c0-0.624,0.504-1.136,1.336-1.136c0.392,0,0.735,0.112,0.951,0.24l-0.176,0.512   c-0.152-0.096-0.432-0.224-0.792-0.224c-0.416,0-0.647,0.24-0.647,0.528c0,0.32,0.231,0.464,0.735,0.656   c0.672,0.256,1.016,0.591,1.016,1.167c0,0.68-0.527,1.16-1.447,1.16c-0.424,0-0.815-0.104-1.087-0.264L266.839,51.64z"/>
	<path d="M270.103,49.538c0-0.4-0.008-0.728-0.032-1.048h0.616l0.031,0.624h0.024c0.216-0.368,0.575-0.712,1.215-0.712   c0.528,0,0.928,0.32,1.096,0.776h0.017c0.119-0.216,0.271-0.384,0.432-0.504c0.231-0.176,0.487-0.272,0.855-0.272   c0.512,0,1.271,0.336,1.271,1.679v2.279h-0.688v-2.191c0-0.744-0.271-1.191-0.839-1.191c-0.4,0-0.712,0.296-0.832,0.64   c-0.032,0.096-0.056,0.224-0.056,0.352v2.391h-0.688v-2.319c0-0.616-0.272-1.063-0.808-1.063c-0.439,0-0.76,0.352-0.872,0.704   c-0.04,0.104-0.056,0.224-0.056,0.344v2.335h-0.688V49.538z"/>
	<path d="M276.679,51.64c0.208,0.136,0.575,0.28,0.927,0.28c0.512,0,0.752-0.256,0.752-0.576c0-0.335-0.2-0.52-0.72-0.711   c-0.695-0.248-1.023-0.632-1.023-1.095c0-0.624,0.504-1.136,1.336-1.136c0.392,0,0.735,0.112,0.951,0.24l-0.176,0.512   c-0.152-0.096-0.432-0.224-0.792-0.224c-0.416,0-0.647,0.24-0.647,0.528c0,0.32,0.231,0.464,0.735,0.656   c0.672,0.256,1.016,0.591,1.016,1.167c0,0.68-0.527,1.16-1.447,1.16c-0.424,0-0.815-0.104-1.087-0.264L276.679,51.64z"/>
</g>
<g>
	<path d="M248.021,89.583c-0.256,0.128-0.768,0.256-1.424,0.256c-1.519,0-2.662-0.959-2.662-2.727c0-1.687,1.144-2.831,2.814-2.831   c0.672,0,1.096,0.144,1.279,0.24l-0.168,0.568c-0.264-0.128-0.64-0.224-1.087-0.224c-1.264,0-2.104,0.808-2.104,2.223   c0,1.319,0.76,2.167,2.071,2.167c0.424,0,0.855-0.088,1.135-0.224L248.021,89.583z"/>
	<path d="M249.175,87.952c0.016,0.952,0.623,1.343,1.327,1.343c0.504,0,0.808-0.088,1.071-0.2l0.12,0.503   c-0.248,0.112-0.672,0.24-1.287,0.24c-1.191,0-1.903-0.784-1.903-1.951c0-1.167,0.688-2.087,1.814-2.087   c1.264,0,1.6,1.111,1.6,1.823c0,0.144-0.016,0.256-0.024,0.328H249.175z M251.237,87.449c0.008-0.448-0.184-1.144-0.976-1.144   c-0.712,0-1.023,0.656-1.079,1.144H251.237z"/>
	<path d="M252.79,84.083h0.704v5.677h-0.704V84.083z"/>
	<path d="M254.678,84.083h0.704v5.677h-0.704V84.083z"/>
	<path d="M256.47,89.04c0.208,0.136,0.576,0.28,0.928,0.28c0.512,0,0.752-0.256,0.752-0.576c0-0.335-0.2-0.52-0.72-0.711   c-0.696-0.248-1.023-0.632-1.023-1.095c0-0.624,0.504-1.136,1.335-1.136c0.392,0,0.735,0.112,0.951,0.24l-0.176,0.512   c-0.151-0.096-0.432-0.224-0.791-0.224c-0.416,0-0.648,0.24-0.648,0.528c0,0.32,0.232,0.464,0.736,0.656   c0.671,0.256,1.016,0.591,1.016,1.167c0,0.68-0.528,1.16-1.447,1.16c-0.424,0-0.816-0.104-1.088-0.264L256.47,89.04z"/>
</g>
<g>
	<path d="M248.796,123.509c-0.04-0.752-0.088-1.655-0.08-2.327h-0.023c-0.185,0.632-0.408,1.304-0.68,2.047l-0.952,2.614h-0.527   l-0.871-2.566c-0.256-0.76-0.473-1.455-0.624-2.095h-0.016c-0.017,0.672-0.057,1.575-0.104,2.383l-0.144,2.311h-0.664l0.376-5.389   h0.888l0.919,2.606c0.225,0.664,0.408,1.255,0.544,1.815h0.024c0.136-0.544,0.327-1.136,0.567-1.815l0.959-2.606h0.888l0.336,5.389   h-0.68L248.796,123.509z"/>
	<path d="M254.213,123.909c0,1.432-0.992,2.055-1.928,2.055c-1.047,0-1.854-0.768-1.854-1.99c0-1.296,0.848-2.056,1.919-2.056   C253.461,121.917,254.213,122.725,254.213,123.909z M251.143,123.949c0,0.848,0.487,1.487,1.175,1.487   c0.672,0,1.176-0.632,1.176-1.503c0-0.656-0.328-1.487-1.159-1.487C251.502,122.446,251.143,123.213,251.143,123.949z"/>
	<path d="M255.103,120.199h0.703v5.677h-0.703V120.199z"/>
	<path d="M257.383,124.069c0.016,0.951,0.623,1.343,1.327,1.343c0.504,0,0.808-0.088,1.071-0.199l0.12,0.503   c-0.248,0.112-0.672,0.24-1.287,0.24c-1.191,0-1.903-0.783-1.903-1.951c0-1.167,0.688-2.087,1.814-2.087   c1.264,0,1.6,1.111,1.6,1.823c0,0.145-0.016,0.256-0.024,0.328H257.383z M259.445,123.565c0.008-0.447-0.184-1.144-0.976-1.144   c-0.712,0-1.023,0.656-1.079,1.144H259.445z"/>
	<path d="M263.757,125.732c-0.184,0.096-0.592,0.224-1.111,0.224c-1.167,0-1.927-0.791-1.927-1.975c0-1.191,0.815-2.055,2.079-2.055   c0.415,0,0.783,0.104,0.976,0.199l-0.16,0.544c-0.168-0.096-0.432-0.184-0.815-0.184c-0.888,0-1.367,0.655-1.367,1.463   c0,0.896,0.575,1.447,1.343,1.447c0.399,0,0.664-0.104,0.863-0.192L263.757,125.732z"/>
	<path d="M267.82,124.82c0,0.4,0.009,0.752,0.032,1.056h-0.623l-0.04-0.632h-0.017c-0.184,0.312-0.592,0.72-1.279,0.72   c-0.607,0-1.335-0.336-1.335-1.694v-2.264h0.703v2.144c0,0.735,0.225,1.231,0.864,1.231c0.472,0,0.799-0.328,0.927-0.64   c0.04-0.104,0.064-0.232,0.064-0.36v-2.375h0.703V124.82z"/>
	<path d="M268.99,120.199h0.704v5.677h-0.704V120.199z"/>
	<path d="M271.271,124.069c0.016,0.951,0.623,1.343,1.327,1.343c0.504,0,0.808-0.088,1.071-0.199l0.12,0.503   c-0.248,0.112-0.672,0.24-1.287,0.24c-1.191,0-1.903-0.783-1.903-1.951c0-1.167,0.688-2.087,1.814-2.087   c1.264,0,1.6,1.111,1.6,1.823c0,0.145-0.016,0.256-0.024,0.328H271.271z M273.333,123.565c0.008-0.447-0.184-1.144-0.976-1.144   c-0.712,0-1.023,0.656-1.079,1.144H273.333z"/>
	<path d="M274.79,125.156c0.208,0.137,0.576,0.28,0.928,0.28c0.512,0,0.752-0.256,0.752-0.576c0-0.335-0.2-0.52-0.72-0.711   c-0.696-0.248-1.023-0.632-1.023-1.096c0-0.624,0.504-1.136,1.335-1.136c0.392,0,0.735,0.112,0.951,0.24l-0.176,0.512   c-0.151-0.096-0.432-0.224-0.791-0.224c-0.416,0-0.648,0.239-0.648,0.527c0,0.32,0.232,0.464,0.736,0.656   c0.671,0.256,1.016,0.591,1.016,1.167c0,0.68-0.528,1.159-1.447,1.159c-0.424,0-0.816-0.104-1.088-0.264L274.79,125.156z"/>
</g>
<g>
	<path d="M245.126,159.597l-0.56,1.695h-0.72l1.831-5.389h0.84l1.839,5.389h-0.743l-0.576-1.695H245.126z M246.894,159.054   l-0.528-1.552c-0.119-0.352-0.199-0.671-0.279-0.983h-0.016c-0.08,0.32-0.168,0.647-0.272,0.976l-0.527,1.56H246.894z"/>
	<path d="M249.895,156.311v1.111h1.007v0.536h-1.007v2.087c0,0.479,0.136,0.752,0.527,0.752c0.184,0,0.32-0.024,0.408-0.049   l0.031,0.528c-0.136,0.056-0.352,0.096-0.623,0.096c-0.328,0-0.592-0.104-0.76-0.296c-0.2-0.208-0.271-0.552-0.271-1.007v-2.111   h-0.6v-0.536h0.6v-0.927L249.895,156.311z"/>
	<path d="M255.149,159.326c0,1.432-0.992,2.055-1.928,2.055c-1.047,0-1.854-0.768-1.854-1.99c0-1.296,0.848-2.056,1.919-2.056   C254.397,157.334,255.149,158.142,255.149,159.326z M252.079,159.366c0,0.848,0.487,1.487,1.175,1.487   c0.672,0,1.176-0.632,1.176-1.503c0-0.656-0.328-1.487-1.16-1.487C252.438,157.863,252.079,158.63,252.079,159.366z"/>
	<path d="M256.039,158.47c0-0.399-0.008-0.728-0.032-1.048h0.616l0.031,0.624h0.024c0.216-0.368,0.575-0.712,1.215-0.712   c0.528,0,0.928,0.32,1.096,0.776h0.016c0.12-0.216,0.272-0.384,0.433-0.504c0.231-0.176,0.487-0.272,0.855-0.272   c0.512,0,1.271,0.336,1.271,1.68v2.278h-0.688v-2.19c0-0.744-0.271-1.191-0.839-1.191c-0.4,0-0.712,0.296-0.832,0.64   c-0.032,0.096-0.056,0.224-0.056,0.352v2.391h-0.688v-2.318c0-0.616-0.272-1.063-0.808-1.063c-0.44,0-0.76,0.352-0.872,0.703   c-0.04,0.104-0.056,0.225-0.056,0.344v2.335h-0.688V158.47z"/>
	<path d="M262.615,160.573c0.208,0.137,0.575,0.28,0.927,0.28c0.512,0,0.752-0.256,0.752-0.576c0-0.335-0.2-0.52-0.72-0.711   c-0.695-0.248-1.023-0.632-1.023-1.096c0-0.624,0.504-1.136,1.335-1.136c0.393,0,0.736,0.112,0.952,0.24l-0.176,0.512   c-0.152-0.096-0.432-0.224-0.792-0.224c-0.416,0-0.647,0.239-0.647,0.527c0,0.32,0.231,0.464,0.735,0.656   c0.672,0.256,1.016,0.591,1.016,1.167c0,0.68-0.527,1.159-1.447,1.159c-0.424,0-0.815-0.104-1.087-0.264L262.615,160.573z"/>
</g>
<g>
	<path d="M244.158,195.491c0.312,0.192,0.768,0.353,1.248,0.353c0.711,0,1.127-0.376,1.127-0.92c0-0.504-0.288-0.792-1.016-1.071   c-0.879-0.312-1.423-0.768-1.423-1.527c0-0.84,0.695-1.463,1.743-1.463c0.552,0,0.951,0.128,1.191,0.264l-0.192,0.567   c-0.176-0.096-0.535-0.256-1.023-0.256c-0.735,0-1.016,0.44-1.016,0.808c0,0.504,0.328,0.752,1.071,1.04   c0.912,0.352,1.376,0.791,1.376,1.583c0,0.831-0.616,1.551-1.888,1.551c-0.52,0-1.087-0.151-1.375-0.344L244.158,195.491z"/>
	<path d="M251.412,195.283c0,0.4,0.009,0.752,0.032,1.056h-0.623l-0.04-0.632h-0.017c-0.184,0.312-0.592,0.72-1.279,0.72   c-0.607,0-1.335-0.336-1.335-1.694v-2.264h0.703v2.144c0,0.735,0.225,1.231,0.864,1.231c0.472,0,0.799-0.328,0.927-0.64   c0.04-0.104,0.064-0.232,0.064-0.36v-2.375h0.703V195.283z"/>
	<path d="M252.551,196.338c0.016-0.264,0.031-0.655,0.031-0.999v-4.678h0.696v2.431h0.016c0.248-0.432,0.695-0.712,1.319-0.712   c0.96,0,1.64,0.8,1.631,1.976c0,1.383-0.871,2.07-1.734,2.07c-0.56,0-1.008-0.216-1.296-0.728h-0.023l-0.032,0.64H252.551z    M253.278,194.788c0,0.088,0.016,0.176,0.032,0.256c0.136,0.487,0.543,0.823,1.055,0.823c0.736,0,1.176-0.6,1.176-1.487   c0-0.775-0.4-1.438-1.151-1.438c-0.479,0-0.928,0.327-1.071,0.863c-0.017,0.08-0.04,0.176-0.04,0.288V194.788z"/>
	<path d="M258.886,193.916v0.521h-1.976v-0.521H258.886z"/>
	<path d="M261.854,196.338l-0.057-0.487h-0.023c-0.216,0.304-0.632,0.575-1.184,0.575c-0.783,0-1.184-0.552-1.184-1.111   c0-0.936,0.832-1.447,2.327-1.439v-0.079c0-0.32-0.088-0.896-0.88-0.896c-0.359,0-0.735,0.111-1.007,0.287l-0.16-0.464   c0.319-0.207,0.783-0.344,1.271-0.344c1.183,0,1.471,0.808,1.471,1.584v1.446c0,0.336,0.017,0.664,0.064,0.928H261.854z    M261.749,194.364c-0.768-0.016-1.639,0.12-1.639,0.871c0,0.456,0.304,0.672,0.663,0.672c0.504,0,0.824-0.319,0.936-0.647   c0.024-0.072,0.04-0.152,0.04-0.224V194.364z"/>
	<path d="M264.382,191.357v1.111h1.007v0.536h-1.007v2.087c0,0.479,0.136,0.752,0.527,0.752c0.185,0,0.32-0.024,0.408-0.049   l0.032,0.528c-0.137,0.056-0.353,0.096-0.624,0.096c-0.328,0-0.592-0.104-0.76-0.296c-0.2-0.208-0.271-0.552-0.271-1.007v-2.111   h-0.6v-0.536h0.6v-0.927L264.382,191.357z"/>
	<path d="M269.637,194.372c0,1.432-0.992,2.055-1.928,2.055c-1.047,0-1.854-0.768-1.854-1.99c0-1.296,0.848-2.056,1.919-2.056   C268.885,192.38,269.637,193.188,269.637,194.372z M266.566,194.412c0,0.848,0.487,1.487,1.175,1.487   c0.672,0,1.176-0.632,1.176-1.503c0-0.656-0.328-1.487-1.159-1.487C266.926,192.909,266.566,193.676,266.566,194.412z"/>
	<path d="M270.526,193.516c0-0.399-0.008-0.728-0.032-1.048h0.616l0.031,0.624h0.024c0.216-0.368,0.575-0.712,1.215-0.712   c0.528,0,0.928,0.32,1.096,0.776h0.017c0.119-0.216,0.271-0.384,0.432-0.504c0.231-0.176,0.487-0.272,0.855-0.272   c0.512,0,1.271,0.336,1.271,1.68v2.278h-0.688v-2.19c0-0.744-0.271-1.191-0.839-1.191c-0.4,0-0.712,0.296-0.832,0.64   c-0.032,0.096-0.056,0.224-0.056,0.352v2.391h-0.688v-2.318c0-0.616-0.272-1.063-0.808-1.063c-0.439,0-0.76,0.352-0.872,0.703   c-0.04,0.104-0.056,0.225-0.056,0.344v2.335h-0.688V193.516z"/>
	<path d="M277.981,191.381c0.009,0.24-0.168,0.432-0.447,0.432c-0.248,0-0.424-0.191-0.424-0.432c0-0.248,0.184-0.439,0.439-0.439   C277.813,190.942,277.981,191.133,277.981,191.381z M277.198,196.338v-3.87h0.703v3.87H277.198z"/>
	<path d="M281.829,196.195c-0.185,0.096-0.592,0.224-1.111,0.224c-1.168,0-1.928-0.791-1.928-1.975c0-1.191,0.816-2.055,2.079-2.055   c0.416,0,0.784,0.104,0.976,0.199l-0.16,0.544c-0.168-0.096-0.432-0.184-0.815-0.184c-0.888,0-1.367,0.655-1.367,1.463   c0,0.896,0.576,1.447,1.344,1.447c0.399,0,0.663-0.104,0.863-0.192L281.829,196.195z"/>
	<path d="M284.35,193.732c0-0.496-0.016-0.896-0.031-1.264h0.632l0.031,0.664h0.017c0.287-0.472,0.743-0.752,1.375-0.752   c0.936,0,1.639,0.792,1.639,1.968c0,1.391-0.848,2.078-1.759,2.078c-0.512,0-0.959-0.224-1.191-0.607h-0.016v2.103h-0.696V193.732z    M285.046,194.763c0,0.104,0.016,0.2,0.032,0.288c0.128,0.487,0.551,0.823,1.055,0.823c0.744,0,1.176-0.607,1.176-1.495   c0-0.775-0.408-1.438-1.151-1.438c-0.479,0-0.928,0.344-1.063,0.871c-0.024,0.088-0.048,0.191-0.048,0.288V194.763z"/>
	<path d="M291.045,196.338l-0.057-0.487h-0.023c-0.216,0.304-0.632,0.575-1.184,0.575c-0.783,0-1.184-0.552-1.184-1.111   c0-0.936,0.832-1.447,2.327-1.439v-0.079c0-0.32-0.088-0.896-0.88-0.896c-0.359,0-0.735,0.111-1.007,0.287l-0.16-0.464   c0.319-0.207,0.783-0.344,1.271-0.344c1.183,0,1.471,0.808,1.471,1.584v1.446c0,0.336,0.017,0.664,0.064,0.928H291.045z    M290.94,194.364c-0.768-0.016-1.639,0.12-1.639,0.871c0,0.456,0.304,0.672,0.663,0.672c0.504,0,0.824-0.319,0.936-0.647   c0.024-0.072,0.04-0.152,0.04-0.224V194.364z"/>
	<path d="M292.758,193.676c0-0.456-0.008-0.848-0.032-1.208h0.616l0.023,0.76h0.032c0.176-0.52,0.6-0.848,1.071-0.848   c0.08,0,0.136,0.009,0.2,0.024v0.664c-0.072-0.017-0.145-0.024-0.24-0.024c-0.495,0-0.848,0.376-0.943,0.903   c-0.016,0.096-0.032,0.208-0.032,0.328v2.062h-0.695V193.676z"/>
	<path d="M296.413,191.357v1.111h1.007v0.536h-1.007v2.087c0,0.479,0.136,0.752,0.527,0.752c0.185,0,0.32-0.024,0.408-0.049   l0.032,0.528c-0.137,0.056-0.353,0.096-0.624,0.096c-0.328,0-0.592-0.104-0.76-0.296c-0.2-0.208-0.271-0.552-0.271-1.007v-2.111   h-0.6v-0.536h0.6v-0.927L296.413,191.357z"/>
	<path d="M298.997,191.381c0.008,0.24-0.168,0.432-0.448,0.432c-0.247,0-0.424-0.191-0.424-0.432c0-0.248,0.185-0.439,0.44-0.439   C298.829,190.942,298.997,191.133,298.997,191.381z M298.213,196.338v-3.87h0.704v3.87H298.213z"/>
	<path d="M302.844,196.195c-0.184,0.096-0.592,0.224-1.111,0.224c-1.167,0-1.927-0.791-1.927-1.975c0-1.191,0.815-2.055,2.079-2.055   c0.415,0,0.783,0.104,0.976,0.199l-0.16,0.544c-0.168-0.096-0.432-0.184-0.815-0.184c-0.888,0-1.367,0.655-1.367,1.463   c0,0.896,0.575,1.447,1.343,1.447c0.399,0,0.664-0.104,0.863-0.192L302.844,196.195z"/>
	<path d="M303.669,190.662h0.704v5.677h-0.704V190.662z"/>
	<path d="M305.949,194.532c0.017,0.951,0.624,1.343,1.327,1.343c0.504,0,0.808-0.088,1.071-0.199l0.12,0.503   c-0.248,0.112-0.672,0.24-1.287,0.24c-1.191,0-1.903-0.783-1.903-1.951c0-1.167,0.688-2.087,1.815-2.087   c1.264,0,1.599,1.111,1.599,1.823c0,0.145-0.016,0.256-0.023,0.328H305.949z M308.013,194.028c0.008-0.447-0.185-1.144-0.976-1.144   c-0.712,0-1.023,0.656-1.08,1.144H308.013z"/>
	<path d="M309.47,195.619c0.208,0.137,0.575,0.28,0.927,0.28c0.512,0,0.752-0.256,0.752-0.576c0-0.335-0.2-0.52-0.72-0.711   c-0.695-0.248-1.023-0.632-1.023-1.096c0-0.624,0.504-1.136,1.336-1.136c0.392,0,0.735,0.112,0.951,0.24l-0.176,0.512   c-0.152-0.096-0.432-0.224-0.792-0.224c-0.416,0-0.647,0.239-0.647,0.527c0,0.32,0.231,0.464,0.735,0.656   c0.672,0.256,1.016,0.591,1.016,1.167c0,0.68-0.527,1.159-1.447,1.159c-0.424,0-0.815-0.104-1.087-0.264L309.47,195.619z"/>
</g>
<g>
	<path d="M11.65,60.422c0.328-0.072,0.776-0.12,1.175-0.12c0.536,0,1,0.128,1.288,0.392c0.248,0.216,0.4,0.527,0.4,0.896   c0,0.783-0.6,1.367-1.279,1.559l-0.008,0.016c0.376,0.128,0.56,0.527,0.6,1.087c0.056,0.751,0.096,1.263,0.168,1.479h-0.688   c-0.032-0.112-0.088-0.68-0.128-1.303c-0.04-0.736-0.312-1.047-0.848-1.047h-0.592l-0.439,2.351h-0.664L11.65,60.422z    M11.842,62.869h0.592c0.839,0,1.383-0.552,1.383-1.199c0-0.576-0.432-0.832-1.04-0.832c-0.264,0-0.439,0.024-0.56,0.056   L11.842,62.869z"/>
	<path d="M17.585,65.507c-0.288,0.167-0.759,0.304-1.279,0.304c-1.023,0-1.471-0.696-1.471-1.551c0-1.167,0.864-2.487,2.111-2.487   c0.736,0,1.136,0.44,1.136,0.992c0,1.015-1.144,1.287-2.575,1.263c-0.032,0.168-0.008,0.528,0.08,0.736   c0.152,0.344,0.463,0.52,0.863,0.52c0.456,0,0.8-0.144,1.04-0.272L17.585,65.507z M16.85,62.293c-0.632,0-1.104,0.616-1.263,1.223   c1.039,0.008,1.855-0.128,1.855-0.728C17.441,62.469,17.201,62.293,16.85,62.293z"/>
	<path d="M22.537,60.054l-0.848,4.454c-0.08,0.399-0.144,0.847-0.168,1.223h-0.608l0.104-0.768h-0.016   c-0.352,0.552-0.84,0.855-1.392,0.855c-0.751,0-1.159-0.616-1.159-1.407c0-1.375,1.023-2.639,2.391-2.639   c0.248,0,0.52,0.056,0.688,0.136l0.344-1.855H22.537z M21.425,62.469c-0.136-0.088-0.359-0.16-0.64-0.16   c-0.927,0-1.647,0.983-1.647,2.015c0,0.464,0.16,0.952,0.728,0.952c0.512,0,1.127-0.584,1.295-1.456L21.425,62.469z"/>
	<path d="M24.689,63.308l-0.096,0.52h-1.919l0.104-0.52H24.689z"/>
	<path d="M25.074,65.731l1.08-5.677h0.664l-0.479,2.495h0.016c0.328-0.472,0.8-0.776,1.383-0.776c0.44,0,0.959,0.272,0.959,1.04   c0,0.208-0.024,0.456-0.064,0.656l-0.432,2.263h-0.664l0.432-2.231c0.024-0.144,0.048-0.32,0.048-0.536c0-0.36-0.167-0.64-0.6-0.64   c-0.512,0-1.159,0.6-1.319,1.471l-0.359,1.935H25.074z"/>
	<path d="M32.137,65.507c-0.288,0.167-0.759,0.304-1.279,0.304c-1.023,0-1.471-0.696-1.471-1.551c0-1.167,0.864-2.487,2.111-2.487   c0.736,0,1.136,0.44,1.136,0.992c0,1.015-1.144,1.287-2.575,1.263c-0.032,0.168-0.008,0.528,0.08,0.736   c0.152,0.344,0.463,0.52,0.863,0.52c0.456,0,0.8-0.144,1.04-0.272L32.137,65.507z M31.401,62.293c-0.632,0-1.104,0.616-1.263,1.223   c1.039,0.008,1.855-0.128,1.855-0.728C31.993,62.469,31.753,62.293,31.401,62.293z"/>
	<path d="M35.537,65.731c0-0.232,0.04-0.6,0.088-1h-0.016c-0.424,0.8-0.951,1.087-1.503,1.087c-0.68,0-1.111-0.543-1.111-1.279   c0-1.343,0.991-2.767,2.678-2.767c0.368,0,0.776,0.064,1.04,0.152l-0.392,2.015c-0.128,0.672-0.184,1.359-0.168,1.791H35.537z    M35.969,62.357c-0.096-0.024-0.24-0.056-0.464-0.056c-0.999,0-1.815,1.047-1.823,2.119c0,0.432,0.152,0.856,0.664,0.856   c0.552,0,1.208-0.72,1.399-1.751L35.969,62.357z"/>
	<path d="M41.264,60.054l-0.848,4.454c-0.08,0.399-0.144,0.847-0.168,1.223h-0.608l0.104-0.768h-0.016   c-0.352,0.552-0.84,0.855-1.392,0.855c-0.751,0-1.159-0.616-1.159-1.407c0-1.375,1.023-2.639,2.391-2.639   c0.248,0,0.52,0.056,0.688,0.136l0.344-1.855H41.264z M40.152,62.469c-0.136-0.088-0.359-0.16-0.64-0.16   c-0.927,0-1.647,0.983-1.647,2.015c0,0.464,0.16,0.952,0.728,0.952c0.512,0,1.127-0.584,1.295-1.456L40.152,62.469z"/>
	<path d="M44.136,65.507c-0.288,0.167-0.759,0.304-1.279,0.304c-1.023,0-1.471-0.696-1.471-1.551c0-1.167,0.864-2.487,2.111-2.487   c0.736,0,1.136,0.44,1.136,0.992c0,1.015-1.144,1.287-2.575,1.263c-0.032,0.168-0.008,0.528,0.08,0.736   c0.152,0.344,0.463,0.52,0.863,0.52c0.456,0,0.8-0.144,1.04-0.272L44.136,65.507z M43.401,62.293c-0.632,0-1.104,0.616-1.263,1.223   c1.039,0.008,1.855-0.128,1.855-0.728C43.993,62.469,43.752,62.293,43.401,62.293z"/>
	<path d="M49.088,60.054l-0.848,4.454c-0.08,0.399-0.144,0.847-0.168,1.223h-0.607l0.104-0.768h-0.016   c-0.352,0.552-0.84,0.855-1.392,0.855c-0.751,0-1.159-0.616-1.159-1.407c0-1.375,1.023-2.639,2.391-2.639   c0.248,0,0.52,0.056,0.688,0.136l0.344-1.855H49.088z M47.977,62.469c-0.136-0.088-0.36-0.16-0.64-0.16   c-0.928,0-1.647,0.983-1.647,2.015c0,0.464,0.16,0.952,0.728,0.952c0.512,0,1.127-0.584,1.295-1.456L47.977,62.469z"/>
</g>
<g>
	<path d="M9.65,99.12C9.954,99.048,10.377,99,10.817,99c0.52,0,1.016,0.128,1.319,0.416c0.256,0.24,0.392,0.552,0.392,0.976   c0,0.607-0.296,1.111-0.647,1.407c-0.416,0.352-1.023,0.512-1.631,0.512c-0.2,0-0.384-0.016-0.551-0.04l-0.408,2.158H8.635   L9.65,99.12z M9.802,101.71c0.192,0.04,0.344,0.056,0.536,0.056c0.911,0,1.519-0.568,1.519-1.327c0-0.64-0.456-0.896-1.072-0.896   c-0.264,0-0.463,0.024-0.583,0.056L9.802,101.71z"/>
	<path d="M12.626,104.428l1.08-5.676h0.664l-0.479,2.495h0.016c0.328-0.472,0.8-0.776,1.383-0.776c0.44,0,0.959,0.272,0.959,1.04   c0,0.208-0.024,0.456-0.064,0.656l-0.432,2.262h-0.664l0.432-2.23c0.024-0.144,0.048-0.32,0.048-0.536c0-0.36-0.167-0.64-0.6-0.64   c-0.512,0-1.159,0.6-1.319,1.471l-0.359,1.935H12.626z"/>
	<path d="M19.688,104.205c-0.288,0.168-0.759,0.304-1.279,0.304c-1.023,0-1.471-0.695-1.471-1.551c0-1.167,0.864-2.487,2.111-2.487   c0.736,0,1.136,0.44,1.136,0.992c0,1.015-1.144,1.287-2.575,1.263c-0.032,0.168-0.008,0.528,0.08,0.736   c0.152,0.344,0.463,0.52,0.863,0.52c0.456,0,0.8-0.145,1.04-0.272L19.688,104.205z M18.953,100.991   c-0.632,0-1.104,0.616-1.263,1.223c1.039,0.008,1.855-0.128,1.855-0.728C19.545,101.167,19.305,100.991,18.953,100.991z"/>
	<path d="M24.232,102.086c0,1.191-0.848,2.43-2.143,2.43c-0.967,0-1.511-0.72-1.511-1.591c0-1.271,0.888-2.455,2.143-2.455   C23.769,100.471,24.232,101.263,24.232,102.086z M21.266,102.901c0,0.632,0.344,1.088,0.912,1.088c0.784,0,1.375-1.008,1.375-1.911   c0-0.448-0.208-1.08-0.904-1.08C21.817,100.999,21.258,102.014,21.266,102.901z"/>
	<path d="M24.698,104.428l0.52-2.742c0.08-0.432,0.136-0.807,0.176-1.127h0.584l-0.104,0.728h0.024   c0.36-0.536,0.848-0.816,1.359-0.816c0.591,0,0.871,0.376,0.903,0.864c0.344-0.56,0.839-0.855,1.423-0.864   c0.448,0,0.935,0.288,0.935,1.016c0,0.184-0.024,0.44-0.063,0.656l-0.432,2.286h-0.647l0.416-2.23   c0.032-0.144,0.056-0.344,0.056-0.503c0-0.408-0.152-0.672-0.583-0.672c-0.48,0-1.048,0.56-1.208,1.423l-0.376,1.982h-0.64   l0.432-2.27c0.032-0.168,0.048-0.32,0.048-0.472c0-0.328-0.088-0.664-0.576-0.664s-1.087,0.64-1.239,1.463l-0.36,1.942H24.698z"/>
	<path d="M33.952,104.205c-0.288,0.168-0.759,0.304-1.279,0.304c-1.023,0-1.471-0.695-1.471-1.551c0-1.167,0.864-2.487,2.111-2.487   c0.736,0,1.136,0.44,1.136,0.992c0,1.015-1.144,1.287-2.575,1.263c-0.032,0.168-0.008,0.528,0.08,0.736   c0.152,0.344,0.463,0.52,0.863,0.52c0.456,0,0.8-0.145,1.04-0.272L33.952,104.205z M33.217,100.991   c-0.632,0-1.104,0.616-1.263,1.223c1.039,0.008,1.855-0.128,1.855-0.728C33.809,101.167,33.568,100.991,33.217,100.991z"/>
	<path d="M34.794,104.428l1.079-5.676h0.664l-1.087,5.676H34.794z"/>
	<path d="M39.185,104.428c0-0.231,0.04-0.6,0.088-0.999h-0.016c-0.424,0.8-0.951,1.087-1.503,1.087c-0.68,0-1.111-0.543-1.111-1.279   c0-1.343,0.991-2.766,2.678-2.766c0.368,0,0.776,0.064,1.04,0.152l-0.392,2.014c-0.128,0.672-0.184,1.359-0.168,1.791H39.185z    M39.616,101.055c-0.096-0.024-0.24-0.056-0.464-0.056c-0.999,0-1.815,1.047-1.823,2.118c0,0.433,0.152,0.856,0.664,0.856   c0.552,0,1.208-0.72,1.399-1.751L39.616,101.055z"/>
	<path d="M40.794,104.428l0.52-2.742c0.088-0.432,0.136-0.807,0.184-1.127h0.592l-0.096,0.76h0.016   c0.344-0.543,0.864-0.848,1.432-0.848c0.463,0,0.983,0.264,0.983,1.08c0,0.168-0.032,0.416-0.072,0.624l-0.432,2.254h-0.664   l0.424-2.23c0.032-0.152,0.056-0.335,0.056-0.496c0-0.392-0.152-0.68-0.608-0.68c-0.472,0-1.144,0.568-1.319,1.527l-0.352,1.878   H40.794z"/>
	<path d="M45.065,104.428l0.744-3.87h0.664l-0.743,3.87H45.065z M45.929,99.479c0-0.256,0.2-0.448,0.44-0.448   c0.24,0,0.392,0.176,0.392,0.416c-0.008,0.264-0.192,0.448-0.448,0.448C46.081,99.895,45.929,99.719,45.929,99.479z"/>
	<path d="M46.897,104.428l0.52-2.742c0.088-0.432,0.136-0.807,0.184-1.127h0.591l-0.096,0.76h0.016   c0.344-0.543,0.863-0.848,1.431-0.848c0.463,0,0.983,0.264,0.983,1.08c0,0.168-0.032,0.416-0.072,0.624l-0.432,2.254H49.36   l0.424-2.23c0.032-0.152,0.056-0.335,0.056-0.496c0-0.392-0.152-0.68-0.607-0.68c-0.472,0-1.144,0.568-1.319,1.527l-0.352,1.878   H46.897z"/>
</g>
<g>
	<path d="M16.46,144.011l0.384-2.91c0.072-0.512,0.192-1.304,0.296-1.823h-0.032c-0.248,0.544-0.544,1.184-0.839,1.734l-1.6,2.967   h-0.512l-0.399-2.902c-0.08-0.624-0.136-1.247-0.168-1.799h-0.016c-0.12,0.495-0.288,1.312-0.416,1.823l-0.736,2.91h-0.624   l1.399-5.39h0.847l0.424,3.095c0.056,0.456,0.12,0.943,0.128,1.343h0.024c0.168-0.399,0.4-0.879,0.632-1.327l1.671-3.11h0.864   l-0.688,5.39H16.46z"/>
	<path d="M21.884,143.835c-0.304,0.136-0.792,0.256-1.399,0.256c-1.359,0-2.183-0.855-2.183-2.231c0-1.015,0.408-1.982,1.151-2.599   c0.552-0.472,1.24-0.728,2.031-0.728c0.6,0,1.023,0.152,1.167,0.265l-0.216,0.535c-0.2-0.12-0.583-0.224-1.063-0.224   c-0.56,0-1.127,0.216-1.543,0.607c-0.504,0.472-0.824,1.231-0.824,2.047c0,0.968,0.44,1.759,1.639,1.759   c0.408,0,0.855-0.08,1.151-0.231L21.884,143.835z"/>
	<path d="M24.661,139.486h-0.016l-0.888,0.447l-0.072-0.527l1.183-0.592h0.56l-0.983,5.197h-0.647L24.661,139.486z"/>
	<path d="M27.55,138.702c0.328-0.071,0.776-0.12,1.175-0.12c0.536,0,1,0.128,1.288,0.393c0.248,0.216,0.399,0.527,0.399,0.896   c0,0.783-0.6,1.367-1.279,1.559l-0.008,0.017c0.376,0.128,0.56,0.527,0.6,1.087c0.056,0.752,0.096,1.264,0.168,1.479h-0.688   c-0.032-0.112-0.088-0.68-0.128-1.304c-0.04-0.735-0.312-1.047-0.848-1.047h-0.592l-0.439,2.351h-0.664L27.55,138.702z    M27.742,141.149h0.592c0.839,0,1.383-0.552,1.383-1.199c0-0.576-0.432-0.832-1.04-0.832c-0.264,0-0.44,0.024-0.56,0.056   L27.742,141.149z"/>
	<path d="M32.19,144.89c0.232,0.145,0.616,0.256,1.023,0.256c0.648,0,1.16-0.335,1.392-1.383l0.128-0.576h-0.024   c-0.335,0.552-0.807,0.824-1.343,0.824c-0.776,0-1.176-0.656-1.176-1.344c-0.008-1.311,0.959-2.614,2.455-2.614   c0.447,0,0.935,0.128,1.239,0.271l-0.592,3.198c-0.16,0.815-0.376,1.384-0.784,1.728c-0.384,0.336-0.903,0.432-1.351,0.432   c-0.472,0-0.912-0.112-1.16-0.271L32.19,144.89z M35.157,140.717c-0.12-0.057-0.36-0.128-0.64-0.128   c-0.968,0-1.631,1.007-1.639,1.967c0,0.424,0.152,0.927,0.744,0.927c0.567,0,1.143-0.719,1.287-1.479L35.157,140.717z"/>
	<path d="M39.133,143.788c-0.288,0.167-0.759,0.304-1.279,0.304c-1.023,0-1.471-0.696-1.471-1.552c0-1.167,0.864-2.486,2.111-2.486   c0.736,0,1.136,0.439,1.136,0.991c0,1.016-1.144,1.287-2.575,1.264c-0.032,0.168-0.008,0.527,0.08,0.735   c0.152,0.344,0.463,0.52,0.863,0.52c0.456,0,0.8-0.144,1.04-0.271L39.133,143.788z M38.397,140.573   c-0.632,0-1.104,0.616-1.263,1.224c1.039,0.008,1.855-0.128,1.855-0.728C38.989,140.749,38.749,140.573,38.397,140.573z"/>
	<path d="M39.967,144.011l0.52-2.743c0.088-0.432,0.136-0.807,0.184-1.127h0.592l-0.096,0.76h0.016   c0.344-0.544,0.864-0.848,1.432-0.848c0.463,0,0.983,0.264,0.983,1.079c0,0.168-0.032,0.416-0.072,0.624l-0.432,2.255h-0.664   l0.424-2.231c0.032-0.151,0.056-0.335,0.056-0.495c0-0.392-0.152-0.68-0.608-0.68c-0.472,0-1.144,0.567-1.319,1.527l-0.352,1.879   H39.967z"/>
	<path d="M47.029,143.788c-0.288,0.167-0.759,0.304-1.279,0.304c-1.023,0-1.471-0.696-1.471-1.552c0-1.167,0.864-2.486,2.111-2.486   c0.736,0,1.136,0.439,1.136,0.991c0,1.016-1.144,1.287-2.575,1.264c-0.032,0.168-0.008,0.527,0.08,0.735   c0.152,0.344,0.463,0.52,0.863,0.52c0.456,0,0.8-0.144,1.04-0.271L47.029,143.788z M46.293,140.573   c-0.632,0-1.104,0.616-1.263,1.224c1.039,0.008,1.855-0.128,1.855-0.728C46.885,140.749,46.645,140.573,46.293,140.573z"/>
</g>
</svg>